<svg width="462" height="352" viewBox="0 0 462 352" fill="none" xmlns="http://www.w3.org/2000/svg">
<path d="M0 32C0 14.3269 14.3269 0 32 0H430C447.673 0 462 14.3269 462 32V88H0V32Z" fill="#008C95"/>
<rect y="88" width="462" height="88" fill="#00313C"/>
<rect y="176" width="462" height="88" fill="#77E2C3"/>
<path d="M0 264H462V320C462 337.673 447.673 352 430 352H32C14.3269 352 0 337.673 0 320V264Z" fill="white"/>
<path d="M183.842 35.8047H185.746C185.746 36.3841 185.665 36.8626 185.502 37.2402C185.346 37.6113 185.111 37.9173 184.799 38.1582C184.493 38.3926 184.112 38.5814 183.656 38.7246C183.207 38.8678 182.686 38.998 182.094 39.1152C181.547 39.2324 181.052 39.418 180.609 39.6719C180.173 39.9193 179.805 40.2676 179.506 40.7168C179.213 41.1595 179.001 41.7292 178.871 42.4258C178.741 43.1224 178.702 43.972 178.754 44.9746V45.6387L176.889 45.8047V45.1406C176.889 43.8971 177.003 42.8132 177.23 41.8887C177.458 40.9642 177.781 40.1862 178.197 39.5547C178.62 38.9167 179.122 38.4089 179.701 38.0312C180.287 37.6536 180.938 37.3932 181.654 37.25C182.143 37.1458 182.549 37.0417 182.875 36.9375C183.201 36.8268 183.441 36.6868 183.598 36.5176C183.76 36.3418 183.842 36.1042 183.842 35.8047ZM182.191 41.0293C182.895 41.0293 183.52 41.153 184.066 41.4004C184.613 41.6413 185.076 41.9798 185.453 42.416C185.831 42.8522 186.117 43.3665 186.312 43.959C186.514 44.5514 186.615 45.196 186.615 45.8926V46.1074C186.615 46.8366 186.508 47.5104 186.293 48.1289C186.078 48.7474 185.762 49.2878 185.346 49.75C184.929 50.2057 184.418 50.5638 183.812 50.8242C183.214 51.0781 182.527 51.2051 181.752 51.2051C180.984 51.2051 180.297 51.0716 179.691 50.8047C179.086 50.5378 178.575 50.1667 178.158 49.6914C177.742 49.2096 177.426 48.6465 177.211 48.002C176.996 47.3574 176.889 46.6543 176.889 45.8926V45.6777C176.882 45.541 176.918 45.4076 176.996 45.2773C177.081 45.1471 177.182 45.0072 177.299 44.8574C177.416 44.7077 177.52 44.5352 177.611 44.3398C177.937 43.6823 178.321 43.1061 178.764 42.6113C179.206 42.1165 179.711 41.7292 180.277 41.4492C180.85 41.1693 181.488 41.0293 182.191 41.0293ZM181.732 42.8945C181.146 42.8945 180.668 43.0345 180.297 43.3145C179.932 43.5879 179.662 43.9525 179.486 44.4082C179.317 44.8639 179.232 45.3587 179.232 45.8926V46.1074C179.232 46.5436 179.281 46.957 179.379 47.3477C179.477 47.7383 179.623 48.0833 179.818 48.3828C180.02 48.6758 180.281 48.9069 180.6 49.0762C180.925 49.2454 181.309 49.3301 181.752 49.3301C182.201 49.3301 182.582 49.2454 182.895 49.0762C183.214 48.9069 183.471 48.6758 183.666 48.3828C183.868 48.0833 184.014 47.7383 184.105 47.3477C184.203 46.957 184.252 46.5436 184.252 46.1074V45.8926C184.252 45.4889 184.203 45.1081 184.105 44.75C184.014 44.3919 183.868 44.0762 183.666 43.8027C183.464 43.5228 183.204 43.3014 182.885 43.1387C182.566 42.9759 182.182 42.8945 181.732 42.8945ZM190.717 47.5625L194.867 40.4336H197.221V51H194.867V43.8613L190.717 51H188.363V40.4336H190.717V47.5625ZM202.074 42.4648V55.0625H199.721V40.4336H201.889L202.074 42.4648ZM208.959 45.6191V45.8242C208.959 46.5924 208.868 47.3053 208.686 47.9629C208.51 48.6139 208.246 49.1836 207.895 49.6719C207.549 50.1536 207.123 50.528 206.615 50.7949C206.107 51.0618 205.521 51.1953 204.857 51.1953C204.2 51.1953 203.624 51.0749 203.129 50.834C202.641 50.5866 202.227 50.2383 201.889 49.7891C201.55 49.3398 201.277 48.8125 201.068 48.207C200.867 47.5951 200.723 46.9245 200.639 46.1953V45.4043C200.723 44.6296 200.867 43.9264 201.068 43.2949C201.277 42.6634 201.55 42.1198 201.889 41.6641C202.227 41.2083 202.641 40.8568 203.129 40.6094C203.617 40.362 204.187 40.2383 204.838 40.2383C205.502 40.2383 206.091 40.3685 206.605 40.6289C207.12 40.8828 207.553 41.2474 207.904 41.7227C208.256 42.1914 208.52 42.7578 208.695 43.4219C208.871 44.0794 208.959 44.8118 208.959 45.6191ZM206.605 45.8242V45.6191C206.605 45.1309 206.56 44.6784 206.469 44.2617C206.378 43.8385 206.234 43.4674 206.039 43.1484C205.844 42.8294 205.593 42.582 205.287 42.4062C204.988 42.224 204.626 42.1328 204.203 42.1328C203.786 42.1328 203.428 42.2044 203.129 42.3477C202.829 42.4844 202.579 42.6764 202.377 42.9238C202.175 43.1712 202.019 43.4609 201.908 43.793C201.798 44.1185 201.719 44.4733 201.674 44.8574V46.752C201.752 47.2207 201.885 47.6504 202.074 48.041C202.263 48.4316 202.53 48.7441 202.875 48.9785C203.227 49.2064 203.676 49.3203 204.223 49.3203C204.646 49.3203 205.007 49.2292 205.307 49.0469C205.606 48.8646 205.85 48.6139 206.039 48.2949C206.234 47.9694 206.378 47.5951 206.469 47.1719C206.56 46.7487 206.605 46.2995 206.605 45.8242ZM217.182 44.7012V46.5762H211.518V44.7012H217.182ZM213.529 40.4336V51H211.176V40.4336H213.529ZM215.443 45.834V45.6094C215.443 44.8477 215.554 44.1413 215.775 43.4902C215.997 42.8327 216.319 42.263 216.742 41.7812C217.165 41.293 217.68 40.9154 218.285 40.6484C218.891 40.375 219.577 40.2383 220.346 40.2383C221.127 40.2383 221.82 40.375 222.426 40.6484C223.038 40.9154 223.555 41.293 223.979 41.7812C224.402 42.263 224.724 42.8327 224.945 43.4902C225.167 44.1413 225.277 44.8477 225.277 45.6094V45.834C225.277 46.5957 225.167 47.3021 224.945 47.9531C224.724 48.6042 224.402 49.1738 223.979 49.6621C223.562 50.1439 223.048 50.5215 222.436 50.7949C221.83 51.0618 221.14 51.1953 220.365 51.1953C219.59 51.1953 218.9 51.0618 218.295 50.7949C217.689 50.5215 217.172 50.1439 216.742 49.6621C216.319 49.1738 215.997 48.6042 215.775 47.9531C215.554 47.3021 215.443 46.5957 215.443 45.834ZM217.807 45.6094V45.834C217.807 46.3092 217.855 46.7585 217.953 47.1816C218.051 47.6048 218.204 47.9759 218.412 48.2949C218.62 48.6139 218.887 48.8646 219.213 49.0469C219.538 49.2292 219.923 49.3203 220.365 49.3203C220.808 49.3203 221.189 49.2292 221.508 49.0469C221.833 48.8646 222.1 48.6139 222.309 48.2949C222.517 47.9759 222.67 47.6048 222.768 47.1816C222.872 46.7585 222.924 46.3092 222.924 45.834V45.6094C222.924 45.1406 222.872 44.6979 222.768 44.2812C222.67 43.8581 222.517 43.4837 222.309 43.1582C222.1 42.8327 221.833 42.5788 221.508 42.3965C221.182 42.2077 220.795 42.1133 220.346 42.1133C219.91 42.1133 219.529 42.2077 219.203 42.3965C218.884 42.5788 218.62 42.8327 218.412 43.1582C218.204 43.4837 218.051 43.8581 217.953 44.2812C217.855 44.6979 217.807 45.1406 217.807 45.6094ZM231.605 45.9512H229.574V44.7598H231.215C231.632 44.7598 231.964 44.7044 232.211 44.5938C232.465 44.4831 232.644 44.3301 232.748 44.1348C232.859 43.9329 232.914 43.6986 232.914 43.4316C232.914 43.1973 232.859 42.9759 232.748 42.7676C232.644 42.5527 232.465 42.377 232.211 42.2402C231.957 42.1035 231.612 42.0352 231.176 42.0352C230.818 42.0352 230.495 42.0938 230.209 42.2109C229.929 42.3281 229.708 42.4909 229.545 42.6992C229.382 42.9076 229.301 43.1484 229.301 43.4219H226.947C226.947 42.7643 227.133 42.1979 227.504 41.7227C227.882 41.2474 228.386 40.8828 229.018 40.6289C229.649 40.375 230.342 40.248 231.098 40.248C231.742 40.248 232.322 40.3164 232.836 40.4531C233.35 40.5833 233.786 40.7786 234.145 41.0391C234.509 41.293 234.786 41.612 234.975 41.9961C235.17 42.3737 235.268 42.8132 235.268 43.3145C235.268 43.6725 235.183 44.0111 235.014 44.3301C234.844 44.6491 234.6 44.9323 234.281 45.1797C233.962 45.4206 233.575 45.6094 233.119 45.7461C232.67 45.8828 232.165 45.9512 231.605 45.9512ZM229.574 45.2676H231.605C232.23 45.2676 232.784 45.3294 233.266 45.4531C233.747 45.5703 234.151 45.7461 234.477 45.9805C234.802 46.2148 235.046 46.5046 235.209 46.8496C235.378 47.1882 235.463 47.5788 235.463 48.0215C235.463 48.5163 235.355 48.9622 235.141 49.3594C234.932 49.75 234.633 50.082 234.242 50.3555C233.858 50.6289 233.399 50.8372 232.865 50.9805C232.331 51.1237 231.742 51.1953 231.098 51.1953C230.395 51.1953 229.711 51.0781 229.047 50.8438C228.389 50.6094 227.846 50.248 227.416 49.7598C226.993 49.265 226.781 48.6367 226.781 47.875H229.135C229.135 48.1419 229.216 48.3926 229.379 48.627C229.542 48.8613 229.776 49.0534 230.082 49.2031C230.388 49.3464 230.756 49.418 231.186 49.418C231.628 49.418 231.99 49.3496 232.27 49.2129C232.549 49.0697 232.758 48.8841 232.895 48.6562C233.031 48.4219 233.1 48.1745 233.1 47.9141C233.1 47.5625 233.031 47.2793 232.895 47.0645C232.758 46.8496 232.549 46.6934 232.27 46.5957C231.99 46.4915 231.638 46.4395 231.215 46.4395H229.574V45.2676ZM237.016 45.834V45.6094C237.016 44.8477 237.126 44.1413 237.348 43.4902C237.569 42.8327 237.888 42.263 238.305 41.7812C238.728 41.293 239.242 40.9154 239.848 40.6484C240.46 40.375 241.15 40.2383 241.918 40.2383C242.693 40.2383 243.383 40.375 243.988 40.6484C244.6 40.9154 245.118 41.293 245.541 41.7812C245.964 42.263 246.286 42.8327 246.508 43.4902C246.729 44.1413 246.84 44.8477 246.84 45.6094V45.834C246.84 46.5957 246.729 47.3021 246.508 47.9531C246.286 48.6042 245.964 49.1738 245.541 49.6621C245.118 50.1439 244.604 50.5215 243.998 50.7949C243.393 51.0618 242.706 51.1953 241.938 51.1953C241.163 51.1953 240.469 51.0618 239.857 50.7949C239.252 50.5215 238.738 50.1439 238.314 49.6621C237.891 49.1738 237.569 48.6042 237.348 47.9531C237.126 47.3021 237.016 46.5957 237.016 45.834ZM239.369 45.6094V45.834C239.369 46.3092 239.418 46.7585 239.516 47.1816C239.613 47.6048 239.766 47.9759 239.975 48.2949C240.183 48.6139 240.45 48.8646 240.775 49.0469C241.101 49.2292 241.488 49.3203 241.938 49.3203C242.374 49.3203 242.751 49.2292 243.07 49.0469C243.396 48.8646 243.663 48.6139 243.871 48.2949C244.079 47.9759 244.232 47.6048 244.33 47.1816C244.434 46.7585 244.486 46.3092 244.486 45.834V45.6094C244.486 45.1406 244.434 44.6979 244.33 44.2812C244.232 43.8581 244.076 43.4837 243.861 43.1582C243.653 42.8327 243.386 42.5788 243.061 42.3965C242.742 42.2077 242.361 42.1133 241.918 42.1133C241.475 42.1133 241.091 42.2077 240.766 42.3965C240.447 42.5788 240.183 42.8327 239.975 43.1582C239.766 43.4837 239.613 43.8581 239.516 44.2812C239.418 44.6979 239.369 45.1406 239.369 45.6094ZM253.949 46.4785H250.57L250.551 44.8184H253.324C253.78 44.8184 254.154 44.7728 254.447 44.6816C254.747 44.5905 254.968 44.4538 255.111 44.2715C255.255 44.0827 255.326 43.8548 255.326 43.5879C255.326 43.3665 255.284 43.1745 255.199 43.0117C255.115 42.8424 254.984 42.7057 254.809 42.6016C254.639 42.4909 254.424 42.4128 254.164 42.3672C253.91 42.3151 253.614 42.2891 253.275 42.2891H251.352V51H248.998V40.4336H253.275C253.952 40.4336 254.561 40.4922 255.102 40.6094C255.648 40.7266 256.114 40.9056 256.498 41.1465C256.882 41.3874 257.175 41.6934 257.377 42.0645C257.585 42.429 257.689 42.8587 257.689 43.3535C257.689 43.679 257.618 43.985 257.475 44.2715C257.338 44.5579 257.133 44.8118 256.859 45.0332C256.586 45.2546 256.251 45.4368 255.854 45.5801C255.456 45.7168 255.001 45.8014 254.486 45.834L253.949 46.4785ZM253.949 51H249.887L250.824 49.1445H253.949C254.366 49.1445 254.711 49.0924 254.984 48.9883C255.258 48.8841 255.46 48.7344 255.59 48.5391C255.727 48.3372 255.795 48.0996 255.795 47.8262C255.795 47.5462 255.73 47.3053 255.6 47.1035C255.469 46.9017 255.268 46.7487 254.994 46.6445C254.727 46.5339 254.379 46.4785 253.949 46.4785H251.264L251.283 44.8184H254.477L255.15 45.4629C255.821 45.5085 256.378 45.6517 256.82 45.8926C257.263 46.1335 257.595 46.4362 257.816 46.8008C258.038 47.1654 258.148 47.5625 258.148 47.9922C258.148 48.487 258.054 48.9232 257.865 49.3008C257.683 49.6784 257.41 49.9941 257.045 50.248C256.687 50.4954 256.247 50.6842 255.727 50.8145C255.206 50.9382 254.613 51 253.949 51ZM261.928 43.793H265.043C265.954 43.793 266.729 43.946 267.367 44.252C268.005 44.5579 268.49 44.9844 268.822 45.5312C269.161 46.0716 269.33 46.6901 269.33 47.3867C269.33 47.901 269.236 48.3796 269.047 48.8223C268.858 49.2585 268.578 49.6393 268.207 49.9648C267.842 50.2904 267.393 50.5443 266.859 50.7266C266.332 50.9089 265.727 51 265.043 51H260.365V40.4336H262.729V49.1348H265.043C265.512 49.1348 265.886 49.0534 266.166 48.8906C266.446 48.7279 266.648 48.5163 266.771 48.2559C266.902 47.9954 266.967 47.7188 266.967 47.4258C266.967 47.1263 266.902 46.8431 266.771 46.5762C266.648 46.3092 266.446 46.0911 266.166 45.9219C265.886 45.7526 265.512 45.668 265.043 45.668H261.928V43.793ZM273.49 40.4336V51H271.137V40.4336H273.49ZM278.705 47.5625L282.855 40.4336H285.209V51H282.855V43.8613L278.705 51H276.352V40.4336H278.705V47.5625ZM282.23 36.3711H283.979C283.979 36.9115 283.848 37.39 283.588 37.8066C283.334 38.2168 282.969 38.5391 282.494 38.7734C282.025 39.0078 281.465 39.125 280.814 39.125C279.831 39.125 279.053 38.8711 278.48 38.3633C277.914 37.849 277.631 37.1849 277.631 36.3711H279.379C279.379 36.7357 279.486 37.0579 279.701 37.3379C279.923 37.6113 280.294 37.748 280.814 37.748C281.329 37.748 281.693 37.6113 281.908 37.3379C282.123 37.0579 282.23 36.7357 282.23 36.3711Z" fill="white"/>
<path d="M164.113 128.434V139H161.75V128.434H164.113ZM167.58 128.434V130.289H158.342V128.434H167.58ZM173.088 139.195C172.307 139.195 171.6 139.068 170.969 138.814C170.344 138.554 169.81 138.193 169.367 137.73C168.931 137.268 168.596 136.725 168.361 136.1C168.127 135.475 168.01 134.801 168.01 134.078V133.688C168.01 132.861 168.13 132.112 168.371 131.441C168.612 130.771 168.947 130.198 169.377 129.723C169.807 129.241 170.314 128.873 170.9 128.619C171.486 128.365 172.121 128.238 172.805 128.238C173.56 128.238 174.221 128.365 174.787 128.619C175.354 128.873 175.822 129.231 176.193 129.693C176.571 130.149 176.851 130.693 177.033 131.324C177.222 131.956 177.316 132.652 177.316 133.414V134.42H169.152V132.73H174.992V132.545C174.979 132.122 174.895 131.725 174.738 131.354C174.589 130.982 174.357 130.683 174.045 130.455C173.732 130.227 173.316 130.113 172.795 130.113C172.404 130.113 172.056 130.198 171.75 130.367C171.451 130.53 171.2 130.768 170.998 131.08C170.796 131.393 170.64 131.77 170.529 132.213C170.425 132.649 170.373 133.141 170.373 133.688V134.078C170.373 134.54 170.435 134.97 170.559 135.367C170.689 135.758 170.878 136.1 171.125 136.393C171.372 136.686 171.672 136.917 172.023 137.086C172.375 137.249 172.775 137.33 173.225 137.33C173.791 137.33 174.296 137.216 174.738 136.988C175.181 136.76 175.565 136.438 175.891 136.021L177.131 137.223C176.903 137.555 176.607 137.874 176.242 138.18C175.878 138.479 175.432 138.723 174.904 138.912C174.383 139.101 173.778 139.195 173.088 139.195ZM185.432 136.148L188.576 128.434H190.617L186.232 139H184.631L180.256 128.434H182.297L185.432 136.148ZM181.691 128.434V139H179.338V128.434H181.691ZM189.172 139V128.434H191.535V139H189.172ZM201.389 132.848V134.703H195.92V132.848H201.389ZM196.604 128.434V139H194.25V128.434H196.604ZM203.088 128.434V139H200.734V128.434H203.088ZM205.148 133.834V133.609C205.148 132.848 205.259 132.141 205.48 131.49C205.702 130.833 206.021 130.263 206.438 129.781C206.861 129.293 207.375 128.915 207.98 128.648C208.592 128.375 209.283 128.238 210.051 128.238C210.826 128.238 211.516 128.375 212.121 128.648C212.733 128.915 213.251 129.293 213.674 129.781C214.097 130.263 214.419 130.833 214.641 131.49C214.862 132.141 214.973 132.848 214.973 133.609V133.834C214.973 134.596 214.862 135.302 214.641 135.953C214.419 136.604 214.097 137.174 213.674 137.662C213.251 138.144 212.736 138.521 212.131 138.795C211.525 139.062 210.839 139.195 210.07 139.195C209.296 139.195 208.602 139.062 207.99 138.795C207.385 138.521 206.87 138.144 206.447 137.662C206.024 137.174 205.702 136.604 205.48 135.953C205.259 135.302 205.148 134.596 205.148 133.834ZM207.502 133.609V133.834C207.502 134.309 207.551 134.758 207.648 135.182C207.746 135.605 207.899 135.976 208.107 136.295C208.316 136.614 208.583 136.865 208.908 137.047C209.234 137.229 209.621 137.32 210.07 137.32C210.507 137.32 210.884 137.229 211.203 137.047C211.529 136.865 211.796 136.614 212.004 136.295C212.212 135.976 212.365 135.605 212.463 135.182C212.567 134.758 212.619 134.309 212.619 133.834V133.609C212.619 133.141 212.567 132.698 212.463 132.281C212.365 131.858 212.209 131.484 211.994 131.158C211.786 130.833 211.519 130.579 211.193 130.396C210.874 130.208 210.493 130.113 210.051 130.113C209.608 130.113 209.224 130.208 208.898 130.396C208.579 130.579 208.316 130.833 208.107 131.158C207.899 131.484 207.746 131.858 207.648 132.281C207.551 132.698 207.502 133.141 207.502 133.609ZM221.682 131.988V133.863H216.516V131.988H221.682ZM228.117 133.951H226.086V132.76H227.727C228.143 132.76 228.475 132.704 228.723 132.594C228.977 132.483 229.156 132.33 229.26 132.135C229.37 131.933 229.426 131.699 229.426 131.432C229.426 131.197 229.37 130.976 229.26 130.768C229.156 130.553 228.977 130.377 228.723 130.24C228.469 130.104 228.124 130.035 227.688 130.035C227.329 130.035 227.007 130.094 226.721 130.211C226.441 130.328 226.219 130.491 226.057 130.699C225.894 130.908 225.812 131.148 225.812 131.422H223.459C223.459 130.764 223.645 130.198 224.016 129.723C224.393 129.247 224.898 128.883 225.529 128.629C226.161 128.375 226.854 128.248 227.609 128.248C228.254 128.248 228.833 128.316 229.348 128.453C229.862 128.583 230.298 128.779 230.656 129.039C231.021 129.293 231.298 129.612 231.486 129.996C231.682 130.374 231.779 130.813 231.779 131.314C231.779 131.673 231.695 132.011 231.525 132.33C231.356 132.649 231.112 132.932 230.793 133.18C230.474 133.421 230.087 133.609 229.631 133.746C229.182 133.883 228.677 133.951 228.117 133.951ZM226.086 133.268H228.117C228.742 133.268 229.296 133.329 229.777 133.453C230.259 133.57 230.663 133.746 230.988 133.98C231.314 134.215 231.558 134.505 231.721 134.85C231.89 135.188 231.975 135.579 231.975 136.021C231.975 136.516 231.867 136.962 231.652 137.359C231.444 137.75 231.145 138.082 230.754 138.355C230.37 138.629 229.911 138.837 229.377 138.98C228.843 139.124 228.254 139.195 227.609 139.195C226.906 139.195 226.223 139.078 225.559 138.844C224.901 138.609 224.357 138.248 223.928 137.76C223.505 137.265 223.293 136.637 223.293 135.875H225.646C225.646 136.142 225.728 136.393 225.891 136.627C226.053 136.861 226.288 137.053 226.594 137.203C226.9 137.346 227.268 137.418 227.697 137.418C228.14 137.418 228.501 137.35 228.781 137.213C229.061 137.07 229.27 136.884 229.406 136.656C229.543 136.422 229.611 136.174 229.611 135.914C229.611 135.562 229.543 135.279 229.406 135.064C229.27 134.85 229.061 134.693 228.781 134.596C228.501 134.492 228.15 134.439 227.727 134.439H226.086V133.268ZM238.635 139.195C237.854 139.195 237.147 139.068 236.516 138.814C235.891 138.554 235.357 138.193 234.914 137.73C234.478 137.268 234.143 136.725 233.908 136.1C233.674 135.475 233.557 134.801 233.557 134.078V133.688C233.557 132.861 233.677 132.112 233.918 131.441C234.159 130.771 234.494 130.198 234.924 129.723C235.354 129.241 235.861 128.873 236.447 128.619C237.033 128.365 237.668 128.238 238.352 128.238C239.107 128.238 239.768 128.365 240.334 128.619C240.9 128.873 241.369 129.231 241.74 129.693C242.118 130.149 242.398 130.693 242.58 131.324C242.769 131.956 242.863 132.652 242.863 133.414V134.42H234.699V132.73H240.539V132.545C240.526 132.122 240.441 131.725 240.285 131.354C240.135 130.982 239.904 130.683 239.592 130.455C239.279 130.227 238.863 130.113 238.342 130.113C237.951 130.113 237.603 130.198 237.297 130.367C236.997 130.53 236.747 130.768 236.545 131.08C236.343 131.393 236.187 131.77 236.076 132.213C235.972 132.649 235.92 133.141 235.92 133.688V134.078C235.92 134.54 235.982 134.97 236.105 135.367C236.236 135.758 236.424 136.1 236.672 136.393C236.919 136.686 237.219 136.917 237.57 137.086C237.922 137.249 238.322 137.33 238.771 137.33C239.338 137.33 239.842 137.216 240.285 136.988C240.728 136.76 241.112 136.438 241.438 136.021L242.678 137.223C242.45 137.555 242.154 137.874 241.789 138.18C241.424 138.479 240.979 138.723 240.451 138.912C239.93 139.101 239.325 139.195 238.635 139.195ZM251.799 128.434V130.309H246.643V128.434H251.799ZM253.645 128.434V139H251.291V128.434H253.645ZM246.066 128.434H248.391L248.107 133.658C248.068 134.433 247.99 135.117 247.873 135.709C247.762 136.295 247.613 136.799 247.424 137.223C247.235 137.639 247.004 137.978 246.73 138.238C246.457 138.499 246.138 138.691 245.773 138.814C245.409 138.938 244.999 139 244.543 139H243.811L243.801 137.066L244.172 137.037C244.413 137.018 244.621 136.956 244.797 136.852C244.973 136.741 245.122 136.585 245.246 136.383C245.376 136.181 245.48 135.921 245.559 135.602C245.643 135.283 245.708 134.905 245.754 134.469C245.806 134.033 245.845 133.525 245.871 132.945L246.066 128.434ZM260.803 139.195C260.021 139.195 259.315 139.068 258.684 138.814C258.059 138.554 257.525 138.193 257.082 137.73C256.646 137.268 256.311 136.725 256.076 136.1C255.842 135.475 255.725 134.801 255.725 134.078V133.688C255.725 132.861 255.845 132.112 256.086 131.441C256.327 130.771 256.662 130.198 257.092 129.723C257.521 129.241 258.029 128.873 258.615 128.619C259.201 128.365 259.836 128.238 260.52 128.238C261.275 128.238 261.936 128.365 262.502 128.619C263.068 128.873 263.537 129.231 263.908 129.693C264.286 130.149 264.566 130.693 264.748 131.324C264.937 131.956 265.031 132.652 265.031 133.414V134.42H256.867V132.73H262.707V132.545C262.694 132.122 262.609 131.725 262.453 131.354C262.303 130.982 262.072 130.683 261.76 130.455C261.447 130.227 261.031 130.113 260.51 130.113C260.119 130.113 259.771 130.198 259.465 130.367C259.165 130.53 258.915 130.768 258.713 131.08C258.511 131.393 258.355 131.77 258.244 132.213C258.14 132.649 258.088 133.141 258.088 133.688V134.078C258.088 134.54 258.15 134.97 258.273 135.367C258.404 135.758 258.592 136.1 258.84 136.393C259.087 136.686 259.387 136.917 259.738 137.086C260.09 137.249 260.49 137.33 260.939 137.33C261.506 137.33 262.01 137.216 262.453 136.988C262.896 136.76 263.28 136.438 263.605 136.021L264.846 137.223C264.618 137.555 264.322 137.874 263.957 138.18C263.592 138.479 263.146 138.723 262.619 138.912C262.098 139.101 261.493 139.195 260.803 139.195ZM274.084 132.848V134.703H268.615V132.848H274.084ZM269.299 128.434V139H266.945V128.434H269.299ZM275.783 128.434V139H273.43V128.434H275.783ZM280.041 131.793H283.156C284.068 131.793 284.842 131.946 285.48 132.252C286.118 132.558 286.604 132.984 286.936 133.531C287.274 134.072 287.443 134.69 287.443 135.387C287.443 135.901 287.349 136.38 287.16 136.822C286.971 137.258 286.691 137.639 286.32 137.965C285.956 138.29 285.507 138.544 284.973 138.727C284.445 138.909 283.84 139 283.156 139H278.479V128.434H280.842V137.135H283.156C283.625 137.135 283.999 137.053 284.279 136.891C284.559 136.728 284.761 136.516 284.885 136.256C285.015 135.995 285.08 135.719 285.08 135.426C285.08 135.126 285.015 134.843 284.885 134.576C284.761 134.309 284.559 134.091 284.279 133.922C283.999 133.753 283.625 133.668 283.156 133.668H280.041V131.793ZM291.604 128.434V139H289.25V128.434H291.604ZM296.818 135.562L300.969 128.434H303.322V139H300.969V131.861L296.818 139H294.465V128.434H296.818V135.562ZM300.344 124.371H302.092C302.092 124.911 301.962 125.39 301.701 125.807C301.447 126.217 301.083 126.539 300.607 126.773C300.139 127.008 299.579 127.125 298.928 127.125C297.945 127.125 297.167 126.871 296.594 126.363C296.027 125.849 295.744 125.185 295.744 124.371H297.492C297.492 124.736 297.6 125.058 297.814 125.338C298.036 125.611 298.407 125.748 298.928 125.748C299.442 125.748 299.807 125.611 300.021 125.338C300.236 125.058 300.344 124.736 300.344 124.371Z" fill="white"/>
<path d="M201.49 224.148L204.635 216.434H206.676L202.291 227H200.689L196.314 216.434H198.355L201.49 224.148ZM197.75 216.434V227H195.396V216.434H197.75ZM205.23 227V216.434H207.594V227H205.23ZM212.457 221.834H214.898L211.9 227H209.469L212.457 221.834ZM214.176 216.434H218.707V227H216.363V218.289H214.176C213.733 218.289 213.368 218.367 213.082 218.523C212.796 218.673 212.584 218.872 212.447 219.119C212.311 219.36 212.242 219.607 212.242 219.861C212.242 220.115 212.304 220.359 212.428 220.594C212.558 220.828 212.757 221.02 213.023 221.17C213.297 221.32 213.639 221.395 214.049 221.395H217.154V223.113H214.049C213.398 223.113 212.815 223.032 212.301 222.869C211.786 222.7 211.35 222.469 210.992 222.176C210.634 221.876 210.361 221.528 210.172 221.131C209.983 220.727 209.889 220.288 209.889 219.812C209.889 219.324 209.986 218.875 210.182 218.465C210.377 218.055 210.657 217.697 211.021 217.391C211.393 217.085 211.842 216.85 212.369 216.688C212.903 216.518 213.505 216.434 214.176 216.434ZM226.227 216.434V227H223.863V216.434H226.227ZM229.693 216.434V218.289H220.455V216.434H229.693ZM238.482 220.848V222.703H233.014V220.848H238.482ZM233.697 216.434V227H231.344V216.434H233.697ZM240.182 216.434V227H237.828V216.434H240.182ZM244.439 219.793H247.555C248.466 219.793 249.241 219.946 249.879 220.252C250.517 220.558 251.002 220.984 251.334 221.531C251.673 222.072 251.842 222.69 251.842 223.387C251.842 223.901 251.747 224.38 251.559 224.822C251.37 225.258 251.09 225.639 250.719 225.965C250.354 226.29 249.905 226.544 249.371 226.727C248.844 226.909 248.238 227 247.555 227H242.877V216.434H245.24V225.135H247.555C248.023 225.135 248.398 225.053 248.678 224.891C248.958 224.728 249.16 224.516 249.283 224.256C249.413 223.995 249.479 223.719 249.479 223.426C249.479 223.126 249.413 222.843 249.283 222.576C249.16 222.309 248.958 222.091 248.678 221.922C248.398 221.753 248.023 221.668 247.555 221.668H244.439V219.793ZM256.002 216.434V227H253.648V216.434H256.002ZM261.217 223.562L265.367 216.434H267.721V227H265.367V219.861L261.217 227H258.863V216.434H261.217V223.562ZM264.742 212.371H266.49C266.49 212.911 266.36 213.39 266.1 213.807C265.846 214.217 265.481 214.539 265.006 214.773C264.537 215.008 263.977 215.125 263.326 215.125C262.343 215.125 261.565 214.871 260.992 214.363C260.426 213.849 260.143 213.185 260.143 212.371H261.891C261.891 212.736 261.998 213.058 262.213 213.338C262.434 213.611 262.805 213.748 263.326 213.748C263.84 213.748 264.205 213.611 264.42 213.338C264.635 213.058 264.742 212.736 264.742 212.371Z" fill="white"/>
<path d="M208.842 299.805H210.746C210.746 300.384 210.665 300.863 210.502 301.24C210.346 301.611 210.111 301.917 209.799 302.158C209.493 302.393 209.112 302.581 208.656 302.725C208.207 302.868 207.686 302.998 207.094 303.115C206.547 303.232 206.052 303.418 205.609 303.672C205.173 303.919 204.805 304.268 204.506 304.717C204.213 305.16 204.001 305.729 203.871 306.426C203.741 307.122 203.702 307.972 203.754 308.975V309.639L201.889 309.805V309.141C201.889 307.897 202.003 306.813 202.23 305.889C202.458 304.964 202.781 304.186 203.197 303.555C203.62 302.917 204.122 302.409 204.701 302.031C205.287 301.654 205.938 301.393 206.654 301.25C207.143 301.146 207.549 301.042 207.875 300.938C208.201 300.827 208.441 300.687 208.598 300.518C208.76 300.342 208.842 300.104 208.842 299.805ZM207.191 305.029C207.895 305.029 208.52 305.153 209.066 305.4C209.613 305.641 210.076 305.98 210.453 306.416C210.831 306.852 211.117 307.367 211.312 307.959C211.514 308.551 211.615 309.196 211.615 309.893V310.107C211.615 310.837 211.508 311.51 211.293 312.129C211.078 312.747 210.762 313.288 210.346 313.75C209.929 314.206 209.418 314.564 208.812 314.824C208.214 315.078 207.527 315.205 206.752 315.205C205.984 315.205 205.297 315.072 204.691 314.805C204.086 314.538 203.575 314.167 203.158 313.691C202.742 313.21 202.426 312.646 202.211 312.002C201.996 311.357 201.889 310.654 201.889 309.893V309.678C201.882 309.541 201.918 309.408 201.996 309.277C202.081 309.147 202.182 309.007 202.299 308.857C202.416 308.708 202.52 308.535 202.611 308.34C202.937 307.682 203.321 307.106 203.764 306.611C204.206 306.117 204.711 305.729 205.277 305.449C205.85 305.169 206.488 305.029 207.191 305.029ZM206.732 306.895C206.146 306.895 205.668 307.035 205.297 307.314C204.932 307.588 204.662 307.952 204.486 308.408C204.317 308.864 204.232 309.359 204.232 309.893V310.107C204.232 310.544 204.281 310.957 204.379 311.348C204.477 311.738 204.623 312.083 204.818 312.383C205.02 312.676 205.281 312.907 205.6 313.076C205.925 313.245 206.309 313.33 206.752 313.33C207.201 313.33 207.582 313.245 207.895 313.076C208.214 312.907 208.471 312.676 208.666 312.383C208.868 312.083 209.014 311.738 209.105 311.348C209.203 310.957 209.252 310.544 209.252 310.107V309.893C209.252 309.489 209.203 309.108 209.105 308.75C209.014 308.392 208.868 308.076 208.666 307.803C208.464 307.523 208.204 307.301 207.885 307.139C207.566 306.976 207.182 306.895 206.732 306.895ZM218.119 315.195C217.338 315.195 216.632 315.068 216 314.814C215.375 314.554 214.841 314.193 214.398 313.73C213.962 313.268 213.627 312.725 213.393 312.1C213.158 311.475 213.041 310.801 213.041 310.078V309.688C213.041 308.861 213.161 308.112 213.402 307.441C213.643 306.771 213.979 306.198 214.408 305.723C214.838 305.241 215.346 304.873 215.932 304.619C216.518 304.365 217.152 304.238 217.836 304.238C218.591 304.238 219.252 304.365 219.818 304.619C220.385 304.873 220.854 305.231 221.225 305.693C221.602 306.149 221.882 306.693 222.064 307.324C222.253 307.956 222.348 308.652 222.348 309.414V310.42H214.184V308.73H220.023V308.545C220.01 308.122 219.926 307.725 219.77 307.354C219.62 306.982 219.389 306.683 219.076 306.455C218.764 306.227 218.347 306.113 217.826 306.113C217.436 306.113 217.087 306.198 216.781 306.367C216.482 306.53 216.231 306.768 216.029 307.08C215.827 307.393 215.671 307.77 215.561 308.213C215.456 308.649 215.404 309.141 215.404 309.688V310.078C215.404 310.54 215.466 310.97 215.59 311.367C215.72 311.758 215.909 312.1 216.156 312.393C216.404 312.686 216.703 312.917 217.055 313.086C217.406 313.249 217.807 313.33 218.256 313.33C218.822 313.33 219.327 313.216 219.77 312.988C220.212 312.76 220.596 312.438 220.922 312.021L222.162 313.223C221.934 313.555 221.638 313.874 221.273 314.18C220.909 314.479 220.463 314.723 219.936 314.912C219.415 315.101 218.809 315.195 218.119 315.195ZM231.283 304.434V306.309H226.127V304.434H231.283ZM233.129 304.434V315H230.775V304.434H233.129ZM225.551 304.434H227.875L227.592 309.658C227.553 310.433 227.475 311.117 227.357 311.709C227.247 312.295 227.097 312.799 226.908 313.223C226.719 313.639 226.488 313.978 226.215 314.238C225.941 314.499 225.622 314.691 225.258 314.814C224.893 314.938 224.483 315 224.027 315H223.295L223.285 313.066L223.656 313.037C223.897 313.018 224.105 312.956 224.281 312.852C224.457 312.741 224.607 312.585 224.73 312.383C224.861 312.181 224.965 311.921 225.043 311.602C225.128 311.283 225.193 310.905 225.238 310.469C225.29 310.033 225.329 309.525 225.355 308.945L225.551 304.434ZM237.377 307.793H240.492C241.404 307.793 242.178 307.946 242.816 308.252C243.454 308.558 243.939 308.984 244.271 309.531C244.61 310.072 244.779 310.69 244.779 311.387C244.779 311.901 244.685 312.38 244.496 312.822C244.307 313.258 244.027 313.639 243.656 313.965C243.292 314.29 242.842 314.544 242.309 314.727C241.781 314.909 241.176 315 240.492 315H235.814V304.434H238.178V313.135H240.492C240.961 313.135 241.335 313.053 241.615 312.891C241.895 312.728 242.097 312.516 242.221 312.256C242.351 311.995 242.416 311.719 242.416 311.426C242.416 311.126 242.351 310.843 242.221 310.576C242.097 310.309 241.895 310.091 241.615 309.922C241.335 309.753 240.961 309.668 240.492 309.668H237.377V307.793ZM248.939 304.434V315H246.586V304.434H248.939ZM254.154 311.562L258.305 304.434H260.658V315H258.305V307.861L254.154 315H251.801V304.434H254.154V311.562ZM257.68 300.371H259.428C259.428 300.911 259.298 301.39 259.037 301.807C258.783 302.217 258.419 302.539 257.943 302.773C257.475 303.008 256.915 303.125 256.264 303.125C255.281 303.125 254.503 302.871 253.93 302.363C253.363 301.849 253.08 301.185 253.08 300.371H254.828C254.828 300.736 254.936 301.058 255.15 301.338C255.372 301.611 255.743 301.748 256.264 301.748C256.778 301.748 257.143 301.611 257.357 301.338C257.572 301.058 257.68 300.736 257.68 300.371Z" fill="#00323D"/>
</svg>
