<svg viewBox="0 0 462 352" fill="none" xmlns="http://www.w3.org/2000/svg">
<path d="M0 32C0 14.3269 14.3269 0 32 0H430C447.673 0 462 14.3269 462 32V88H0V32Z" fill="#008C95"/>
<rect y="88" width="462" height="88" fill="black"/>
<rect y="176" width="462" height="88" fill="#008DFC"/>
<path d="M0 264H462V320C462 337.673 447.673 352 430 352H32C14.3269 352 0 337.673 0 320V264Z" fill="#E04E39"/>
<path d="M183.842 35.8047H185.746C185.746 36.3841 185.665 36.8626 185.502 37.2402C185.346 37.6113 185.111 37.9173 184.799 38.1582C184.493 38.3926 184.112 38.5814 183.656 38.7246C183.207 38.8678 182.686 38.998 182.094 39.1152C181.547 39.2324 181.052 39.418 180.609 39.6719C180.173 39.9193 179.805 40.2676 179.506 40.7168C179.213 41.1595 179.001 41.7292 178.871 42.4258C178.741 43.1224 178.702 43.972 178.754 44.9746V45.6387L176.889 45.8047V45.1406C176.889 43.8971 177.003 42.8132 177.23 41.8887C177.458 40.9642 177.781 40.1862 178.197 39.5547C178.62 38.9167 179.122 38.4089 179.701 38.0312C180.287 37.6536 180.938 37.3932 181.654 37.25C182.143 37.1458 182.549 37.0417 182.875 36.9375C183.201 36.8268 183.441 36.6868 183.598 36.5176C183.76 36.3418 183.842 36.1042 183.842 35.8047ZM182.191 41.0293C182.895 41.0293 183.52 41.153 184.066 41.4004C184.613 41.6413 185.076 41.9798 185.453 42.416C185.831 42.8522 186.117 43.3665 186.312 43.959C186.514 44.5514 186.615 45.196 186.615 45.8926V46.1074C186.615 46.8366 186.508 47.5104 186.293 48.1289C186.078 48.7474 185.762 49.2878 185.346 49.75C184.929 50.2057 184.418 50.5638 183.812 50.8242C183.214 51.0781 182.527 51.2051 181.752 51.2051C180.984 51.2051 180.297 51.0716 179.691 50.8047C179.086 50.5378 178.575 50.1667 178.158 49.6914C177.742 49.2096 177.426 48.6465 177.211 48.002C176.996 47.3574 176.889 46.6543 176.889 45.8926V45.6777C176.882 45.541 176.918 45.4076 176.996 45.2773C177.081 45.1471 177.182 45.0072 177.299 44.8574C177.416 44.7077 177.52 44.5352 177.611 44.3398C177.937 43.6823 178.321 43.1061 178.764 42.6113C179.206 42.1165 179.711 41.7292 180.277 41.4492C180.85 41.1693 181.488 41.0293 182.191 41.0293ZM181.732 42.8945C181.146 42.8945 180.668 43.0345 180.297 43.3145C179.932 43.5879 179.662 43.9525 179.486 44.4082C179.317 44.8639 179.232 45.3587 179.232 45.8926V46.1074C179.232 46.5436 179.281 46.957 179.379 47.3477C179.477 47.7383 179.623 48.0833 179.818 48.3828C180.02 48.6758 180.281 48.9069 180.6 49.0762C180.925 49.2454 181.309 49.3301 181.752 49.3301C182.201 49.3301 182.582 49.2454 182.895 49.0762C183.214 48.9069 183.471 48.6758 183.666 48.3828C183.868 48.0833 184.014 47.7383 184.105 47.3477C184.203 46.957 184.252 46.5436 184.252 46.1074V45.8926C184.252 45.4889 184.203 45.1081 184.105 44.75C184.014 44.3919 183.868 44.0762 183.666 43.8027C183.464 43.5228 183.204 43.3014 182.885 43.1387C182.566 42.9759 182.182 42.8945 181.732 42.8945ZM190.717 47.5625L194.867 40.4336H197.221V51H194.867V43.8613L190.717 51H188.363V40.4336H190.717V47.5625ZM202.074 42.4648V55.0625H199.721V40.4336H201.889L202.074 42.4648ZM208.959 45.6191V45.8242C208.959 46.5924 208.868 47.3053 208.686 47.9629C208.51 48.6139 208.246 49.1836 207.895 49.6719C207.549 50.1536 207.123 50.528 206.615 50.7949C206.107 51.0618 205.521 51.1953 204.857 51.1953C204.2 51.1953 203.624 51.0749 203.129 50.834C202.641 50.5866 202.227 50.2383 201.889 49.7891C201.55 49.3398 201.277 48.8125 201.068 48.207C200.867 47.5951 200.723 46.9245 200.639 46.1953V45.4043C200.723 44.6296 200.867 43.9264 201.068 43.2949C201.277 42.6634 201.55 42.1198 201.889 41.6641C202.227 41.2083 202.641 40.8568 203.129 40.6094C203.617 40.362 204.187 40.2383 204.838 40.2383C205.502 40.2383 206.091 40.3685 206.605 40.6289C207.12 40.8828 207.553 41.2474 207.904 41.7227C208.256 42.1914 208.52 42.7578 208.695 43.4219C208.871 44.0794 208.959 44.8118 208.959 45.6191ZM206.605 45.8242V45.6191C206.605 45.1309 206.56 44.6784 206.469 44.2617C206.378 43.8385 206.234 43.4674 206.039 43.1484C205.844 42.8294 205.593 42.582 205.287 42.4062C204.988 42.224 204.626 42.1328 204.203 42.1328C203.786 42.1328 203.428 42.2044 203.129 42.3477C202.829 42.4844 202.579 42.6764 202.377 42.9238C202.175 43.1712 202.019 43.4609 201.908 43.793C201.798 44.1185 201.719 44.4733 201.674 44.8574V46.752C201.752 47.2207 201.885 47.6504 202.074 48.041C202.263 48.4316 202.53 48.7441 202.875 48.9785C203.227 49.2064 203.676 49.3203 204.223 49.3203C204.646 49.3203 205.007 49.2292 205.307 49.0469C205.606 48.8646 205.85 48.6139 206.039 48.2949C206.234 47.9694 206.378 47.5951 206.469 47.1719C206.56 46.7487 206.605 46.2995 206.605 45.8242ZM217.182 44.7012V46.5762H211.518V44.7012H217.182ZM213.529 40.4336V51H211.176V40.4336H213.529ZM215.443 45.834V45.6094C215.443 44.8477 215.554 44.1413 215.775 43.4902C215.997 42.8327 216.319 42.263 216.742 41.7812C217.165 41.293 217.68 40.9154 218.285 40.6484C218.891 40.375 219.577 40.2383 220.346 40.2383C221.127 40.2383 221.82 40.375 222.426 40.6484C223.038 40.9154 223.555 41.293 223.979 41.7812C224.402 42.263 224.724 42.8327 224.945 43.4902C225.167 44.1413 225.277 44.8477 225.277 45.6094V45.834C225.277 46.5957 225.167 47.3021 224.945 47.9531C224.724 48.6042 224.402 49.1738 223.979 49.6621C223.562 50.1439 223.048 50.5215 222.436 50.7949C221.83 51.0618 221.14 51.1953 220.365 51.1953C219.59 51.1953 218.9 51.0618 218.295 50.7949C217.689 50.5215 217.172 50.1439 216.742 49.6621C216.319 49.1738 215.997 48.6042 215.775 47.9531C215.554 47.3021 215.443 46.5957 215.443 45.834ZM217.807 45.6094V45.834C217.807 46.3092 217.855 46.7585 217.953 47.1816C218.051 47.6048 218.204 47.9759 218.412 48.2949C218.62 48.6139 218.887 48.8646 219.213 49.0469C219.538 49.2292 219.923 49.3203 220.365 49.3203C220.808 49.3203 221.189 49.2292 221.508 49.0469C221.833 48.8646 222.1 48.6139 222.309 48.2949C222.517 47.9759 222.67 47.6048 222.768 47.1816C222.872 46.7585 222.924 46.3092 222.924 45.834V45.6094C222.924 45.1406 222.872 44.6979 222.768 44.2812C222.67 43.8581 222.517 43.4837 222.309 43.1582C222.1 42.8327 221.833 42.5788 221.508 42.3965C221.182 42.2077 220.795 42.1133 220.346 42.1133C219.91 42.1133 219.529 42.2077 219.203 42.3965C218.884 42.5788 218.62 42.8327 218.412 43.1582C218.204 43.4837 218.051 43.8581 217.953 44.2812C217.855 44.6979 217.807 45.1406 217.807 45.6094ZM231.605 45.9512H229.574V44.7598H231.215C231.632 44.7598 231.964 44.7044 232.211 44.5938C232.465 44.4831 232.644 44.3301 232.748 44.1348C232.859 43.9329 232.914 43.6986 232.914 43.4316C232.914 43.1973 232.859 42.9759 232.748 42.7676C232.644 42.5527 232.465 42.377 232.211 42.2402C231.957 42.1035 231.612 42.0352 231.176 42.0352C230.818 42.0352 230.495 42.0938 230.209 42.2109C229.929 42.3281 229.708 42.4909 229.545 42.6992C229.382 42.9076 229.301 43.1484 229.301 43.4219H226.947C226.947 42.7643 227.133 42.1979 227.504 41.7227C227.882 41.2474 228.386 40.8828 229.018 40.6289C229.649 40.375 230.342 40.248 231.098 40.248C231.742 40.248 232.322 40.3164 232.836 40.4531C233.35 40.5833 233.786 40.7786 234.145 41.0391C234.509 41.293 234.786 41.612 234.975 41.9961C235.17 42.3737 235.268 42.8132 235.268 43.3145C235.268 43.6725 235.183 44.0111 235.014 44.3301C234.844 44.6491 234.6 44.9323 234.281 45.1797C233.962 45.4206 233.575 45.6094 233.119 45.7461C232.67 45.8828 232.165 45.9512 231.605 45.9512ZM229.574 45.2676H231.605C232.23 45.2676 232.784 45.3294 233.266 45.4531C233.747 45.5703 234.151 45.7461 234.477 45.9805C234.802 46.2148 235.046 46.5046 235.209 46.8496C235.378 47.1882 235.463 47.5788 235.463 48.0215C235.463 48.5163 235.355 48.9622 235.141 49.3594C234.932 49.75 234.633 50.082 234.242 50.3555C233.858 50.6289 233.399 50.8372 232.865 50.9805C232.331 51.1237 231.742 51.1953 231.098 51.1953C230.395 51.1953 229.711 51.0781 229.047 50.8438C228.389 50.6094 227.846 50.248 227.416 49.7598C226.993 49.265 226.781 48.6367 226.781 47.875H229.135C229.135 48.1419 229.216 48.3926 229.379 48.627C229.542 48.8613 229.776 49.0534 230.082 49.2031C230.388 49.3464 230.756 49.418 231.186 49.418C231.628 49.418 231.99 49.3496 232.27 49.2129C232.549 49.0697 232.758 48.8841 232.895 48.6562C233.031 48.4219 233.1 48.1745 233.1 47.9141C233.1 47.5625 233.031 47.2793 232.895 47.0645C232.758 46.8496 232.549 46.6934 232.27 46.5957C231.99 46.4915 231.638 46.4395 231.215 46.4395H229.574V45.2676ZM237.016 45.834V45.6094C237.016 44.8477 237.126 44.1413 237.348 43.4902C237.569 42.8327 237.888 42.263 238.305 41.7812C238.728 41.293 239.242 40.9154 239.848 40.6484C240.46 40.375 241.15 40.2383 241.918 40.2383C242.693 40.2383 243.383 40.375 243.988 40.6484C244.6 40.9154 245.118 41.293 245.541 41.7812C245.964 42.263 246.286 42.8327 246.508 43.4902C246.729 44.1413 246.84 44.8477 246.84 45.6094V45.834C246.84 46.5957 246.729 47.3021 246.508 47.9531C246.286 48.6042 245.964 49.1738 245.541 49.6621C245.118 50.1439 244.604 50.5215 243.998 50.7949C243.393 51.0618 242.706 51.1953 241.938 51.1953C241.163 51.1953 240.469 51.0618 239.857 50.7949C239.252 50.5215 238.738 50.1439 238.314 49.6621C237.891 49.1738 237.569 48.6042 237.348 47.9531C237.126 47.3021 237.016 46.5957 237.016 45.834ZM239.369 45.6094V45.834C239.369 46.3092 239.418 46.7585 239.516 47.1816C239.613 47.6048 239.766 47.9759 239.975 48.2949C240.183 48.6139 240.45 48.8646 240.775 49.0469C241.101 49.2292 241.488 49.3203 241.938 49.3203C242.374 49.3203 242.751 49.2292 243.07 49.0469C243.396 48.8646 243.663 48.6139 243.871 48.2949C244.079 47.9759 244.232 47.6048 244.33 47.1816C244.434 46.7585 244.486 46.3092 244.486 45.834V45.6094C244.486 45.1406 244.434 44.6979 244.33 44.2812C244.232 43.8581 244.076 43.4837 243.861 43.1582C243.653 42.8327 243.386 42.5788 243.061 42.3965C242.742 42.2077 242.361 42.1133 241.918 42.1133C241.475 42.1133 241.091 42.2077 240.766 42.3965C240.447 42.5788 240.183 42.8327 239.975 43.1582C239.766 43.4837 239.613 43.8581 239.516 44.2812C239.418 44.6979 239.369 45.1406 239.369 45.6094ZM253.949 46.4785H250.57L250.551 44.8184H253.324C253.78 44.8184 254.154 44.7728 254.447 44.6816C254.747 44.5905 254.968 44.4538 255.111 44.2715C255.255 44.0827 255.326 43.8548 255.326 43.5879C255.326 43.3665 255.284 43.1745 255.199 43.0117C255.115 42.8424 254.984 42.7057 254.809 42.6016C254.639 42.4909 254.424 42.4128 254.164 42.3672C253.91 42.3151 253.614 42.2891 253.275 42.2891H251.352V51H248.998V40.4336H253.275C253.952 40.4336 254.561 40.4922 255.102 40.6094C255.648 40.7266 256.114 40.9056 256.498 41.1465C256.882 41.3874 257.175 41.6934 257.377 42.0645C257.585 42.429 257.689 42.8587 257.689 43.3535C257.689 43.679 257.618 43.985 257.475 44.2715C257.338 44.5579 257.133 44.8118 256.859 45.0332C256.586 45.2546 256.251 45.4368 255.854 45.5801C255.456 45.7168 255.001 45.8014 254.486 45.834L253.949 46.4785ZM253.949 51H249.887L250.824 49.1445H253.949C254.366 49.1445 254.711 49.0924 254.984 48.9883C255.258 48.8841 255.46 48.7344 255.59 48.5391C255.727 48.3372 255.795 48.0996 255.795 47.8262C255.795 47.5462 255.73 47.3053 255.6 47.1035C255.469 46.9017 255.268 46.7487 254.994 46.6445C254.727 46.5339 254.379 46.4785 253.949 46.4785H251.264L251.283 44.8184H254.477L255.15 45.4629C255.821 45.5085 256.378 45.6517 256.82 45.8926C257.263 46.1335 257.595 46.4362 257.816 46.8008C258.038 47.1654 258.148 47.5625 258.148 47.9922C258.148 48.487 258.054 48.9232 257.865 49.3008C257.683 49.6784 257.41 49.9941 257.045 50.248C256.687 50.4954 256.247 50.6842 255.727 50.8145C255.206 50.9382 254.613 51 253.949 51ZM261.928 43.793H265.043C265.954 43.793 266.729 43.946 267.367 44.252C268.005 44.5579 268.49 44.9844 268.822 45.5312C269.161 46.0716 269.33 46.6901 269.33 47.3867C269.33 47.901 269.236 48.3796 269.047 48.8223C268.858 49.2585 268.578 49.6393 268.207 49.9648C267.842 50.2904 267.393 50.5443 266.859 50.7266C266.332 50.9089 265.727 51 265.043 51H260.365V40.4336H262.729V49.1348H265.043C265.512 49.1348 265.886 49.0534 266.166 48.8906C266.446 48.7279 266.648 48.5163 266.771 48.2559C266.902 47.9954 266.967 47.7188 266.967 47.4258C266.967 47.1263 266.902 46.8431 266.771 46.5762C266.648 46.3092 266.446 46.0911 266.166 45.9219C265.886 45.7526 265.512 45.668 265.043 45.668H261.928V43.793ZM273.49 40.4336V51H271.137V40.4336H273.49ZM278.705 47.5625L282.855 40.4336H285.209V51H282.855V43.8613L278.705 51H276.352V40.4336H278.705V47.5625ZM282.23 36.3711H283.979C283.979 36.9115 283.848 37.39 283.588 37.8066C283.334 38.2168 282.969 38.5391 282.494 38.7734C282.025 39.0078 281.465 39.125 280.814 39.125C279.831 39.125 279.053 38.8711 278.48 38.3633C277.914 37.849 277.631 37.1849 277.631 36.3711H279.379C279.379 36.7357 279.486 37.0579 279.701 37.3379C279.923 37.6113 280.294 37.748 280.814 37.748C281.329 37.748 281.693 37.6113 281.908 37.3379C282.123 37.0579 282.23 36.7357 282.23 36.3711Z" fill="white"/>
<path d="M204.697 128.434V139H202.344V128.434H204.697ZM203.701 133.111V134.977C203.415 135.1 203.092 135.214 202.734 135.318C202.383 135.416 202.012 135.497 201.621 135.562C201.23 135.621 200.837 135.65 200.439 135.65C199.508 135.65 198.704 135.507 198.027 135.221C197.357 134.934 196.839 134.495 196.475 133.902C196.117 133.303 195.938 132.545 195.938 131.627V128.424H198.281V131.627C198.281 132.154 198.359 132.574 198.516 132.887C198.678 133.199 198.919 133.424 199.238 133.561C199.557 133.697 199.958 133.766 200.439 133.766C200.843 133.766 201.224 133.74 201.582 133.688C201.94 133.629 202.295 133.551 202.646 133.453C202.998 133.355 203.35 133.242 203.701 133.111ZM211.865 139.195C211.084 139.195 210.378 139.068 209.746 138.814C209.121 138.554 208.587 138.193 208.145 137.73C207.708 137.268 207.373 136.725 207.139 136.1C206.904 135.475 206.787 134.801 206.787 134.078V133.688C206.787 132.861 206.908 132.112 207.148 131.441C207.389 130.771 207.725 130.198 208.154 129.723C208.584 129.241 209.092 128.873 209.678 128.619C210.264 128.365 210.898 128.238 211.582 128.238C212.337 128.238 212.998 128.365 213.564 128.619C214.131 128.873 214.6 129.231 214.971 129.693C215.348 130.149 215.628 130.693 215.811 131.324C215.999 131.956 216.094 132.652 216.094 133.414V134.42H207.93V132.73H213.77V132.545C213.757 132.122 213.672 131.725 213.516 131.354C213.366 130.982 213.135 130.683 212.822 130.455C212.51 130.227 212.093 130.113 211.572 130.113C211.182 130.113 210.833 130.198 210.527 130.367C210.228 130.53 209.977 130.768 209.775 131.08C209.574 131.393 209.417 131.77 209.307 132.213C209.202 132.649 209.15 133.141 209.15 133.688V134.078C209.15 134.54 209.212 134.97 209.336 135.367C209.466 135.758 209.655 136.1 209.902 136.393C210.15 136.686 210.449 136.917 210.801 137.086C211.152 137.249 211.553 137.33 212.002 137.33C212.568 137.33 213.073 137.216 213.516 136.988C213.958 136.76 214.342 136.438 214.668 136.021L215.908 137.223C215.68 137.555 215.384 137.874 215.02 138.18C214.655 138.479 214.209 138.723 213.682 138.912C213.161 139.101 212.555 139.195 211.865 139.195ZM220.293 130.465V143.062H217.939V128.434H220.107L220.293 130.465ZM227.178 133.619V133.824C227.178 134.592 227.087 135.305 226.904 135.963C226.729 136.614 226.465 137.184 226.113 137.672C225.768 138.154 225.342 138.528 224.834 138.795C224.326 139.062 223.74 139.195 223.076 139.195C222.419 139.195 221.842 139.075 221.348 138.834C220.859 138.587 220.446 138.238 220.107 137.789C219.769 137.34 219.495 136.812 219.287 136.207C219.085 135.595 218.942 134.924 218.857 134.195V133.404C218.942 132.63 219.085 131.926 219.287 131.295C219.495 130.663 219.769 130.12 220.107 129.664C220.446 129.208 220.859 128.857 221.348 128.609C221.836 128.362 222.406 128.238 223.057 128.238C223.721 128.238 224.31 128.368 224.824 128.629C225.339 128.883 225.771 129.247 226.123 129.723C226.475 130.191 226.738 130.758 226.914 131.422C227.09 132.079 227.178 132.812 227.178 133.619ZM224.824 133.824V133.619C224.824 133.131 224.779 132.678 224.688 132.262C224.596 131.839 224.453 131.467 224.258 131.148C224.062 130.829 223.812 130.582 223.506 130.406C223.206 130.224 222.845 130.133 222.422 130.133C222.005 130.133 221.647 130.204 221.348 130.348C221.048 130.484 220.798 130.676 220.596 130.924C220.394 131.171 220.238 131.461 220.127 131.793C220.016 132.118 219.938 132.473 219.893 132.857V134.752C219.971 135.221 220.104 135.65 220.293 136.041C220.482 136.432 220.749 136.744 221.094 136.979C221.445 137.206 221.895 137.32 222.441 137.32C222.865 137.32 223.226 137.229 223.525 137.047C223.825 136.865 224.069 136.614 224.258 136.295C224.453 135.969 224.596 135.595 224.688 135.172C224.779 134.749 224.824 134.299 224.824 133.824ZM236.396 132.848V134.703H230.928V132.848H236.396ZM231.611 128.434V139H229.258V128.434H231.611ZM238.096 128.434V139H235.742V128.434H238.096ZM242.354 131.793H245.469C246.38 131.793 247.155 131.946 247.793 132.252C248.431 132.558 248.916 132.984 249.248 133.531C249.587 134.072 249.756 134.69 249.756 135.387C249.756 135.901 249.661 136.38 249.473 136.822C249.284 137.258 249.004 137.639 248.633 137.965C248.268 138.29 247.819 138.544 247.285 138.727C246.758 138.909 246.152 139 245.469 139H240.791V128.434H243.154V137.135H245.469C245.938 137.135 246.312 137.053 246.592 136.891C246.872 136.728 247.074 136.516 247.197 136.256C247.327 135.995 247.393 135.719 247.393 135.426C247.393 135.126 247.327 134.843 247.197 134.576C247.074 134.309 246.872 134.091 246.592 133.922C246.312 133.753 245.938 133.668 245.469 133.668H242.354V131.793ZM253.916 128.434V139H251.562V128.434H253.916ZM259.131 135.562L263.281 128.434H265.635V139H263.281V131.861L259.131 139H256.777V128.434H259.131V135.562ZM262.656 124.371H264.404C264.404 124.911 264.274 125.39 264.014 125.807C263.76 126.217 263.395 126.539 262.92 126.773C262.451 127.008 261.891 127.125 261.24 127.125C260.257 127.125 259.479 126.871 258.906 126.363C258.34 125.849 258.057 125.185 258.057 124.371H259.805C259.805 124.736 259.912 125.058 260.127 125.338C260.348 125.611 260.719 125.748 261.24 125.748C261.755 125.748 262.119 125.611 262.334 125.338C262.549 125.058 262.656 124.736 262.656 124.371Z" fill="white"/>
<path d="M202.242 216.434V218.309H197.633V227H195.279V216.434H202.242ZM202.965 221.834V221.609C202.965 220.848 203.076 220.141 203.297 219.49C203.518 218.833 203.837 218.263 204.254 217.781C204.677 217.293 205.191 216.915 205.797 216.648C206.409 216.375 207.099 216.238 207.867 216.238C208.642 216.238 209.332 216.375 209.938 216.648C210.549 216.915 211.067 217.293 211.49 217.781C211.913 218.263 212.236 218.833 212.457 219.49C212.678 220.141 212.789 220.848 212.789 221.609V221.834C212.789 222.596 212.678 223.302 212.457 223.953C212.236 224.604 211.913 225.174 211.49 225.662C211.067 226.144 210.553 226.521 209.947 226.795C209.342 227.062 208.655 227.195 207.887 227.195C207.112 227.195 206.419 227.062 205.807 226.795C205.201 226.521 204.687 226.144 204.264 225.662C203.84 225.174 203.518 224.604 203.297 223.953C203.076 223.302 202.965 222.596 202.965 221.834ZM205.318 221.609V221.834C205.318 222.309 205.367 222.758 205.465 223.182C205.562 223.605 205.715 223.976 205.924 224.295C206.132 224.614 206.399 224.865 206.725 225.047C207.05 225.229 207.438 225.32 207.887 225.32C208.323 225.32 208.701 225.229 209.02 225.047C209.345 224.865 209.612 224.614 209.82 224.295C210.029 223.976 210.182 223.605 210.279 223.182C210.383 222.758 210.436 222.309 210.436 221.834V221.609C210.436 221.141 210.383 220.698 210.279 220.281C210.182 219.858 210.025 219.484 209.811 219.158C209.602 218.833 209.335 218.579 209.01 218.396C208.691 218.208 208.31 218.113 207.867 218.113C207.424 218.113 207.04 218.208 206.715 218.396C206.396 218.579 206.132 218.833 205.924 219.158C205.715 219.484 205.562 219.858 205.465 220.281C205.367 220.698 205.318 221.141 205.318 221.609ZM221.705 216.434V218.309H216.549V216.434H221.705ZM223.551 216.434V227H221.197V216.434H223.551ZM215.973 216.434H218.297L218.014 221.658C217.975 222.433 217.896 223.117 217.779 223.709C217.669 224.295 217.519 224.799 217.33 225.223C217.141 225.639 216.91 225.978 216.637 226.238C216.363 226.499 216.044 226.691 215.68 226.814C215.315 226.938 214.905 227 214.449 227H213.717L213.707 225.066L214.078 225.037C214.319 225.018 214.527 224.956 214.703 224.852C214.879 224.741 215.029 224.585 215.152 224.383C215.283 224.181 215.387 223.921 215.465 223.602C215.549 223.283 215.615 222.905 215.66 222.469C215.712 222.033 215.751 221.525 215.777 220.945L215.973 216.434ZM229.117 225.848L231.988 216.434H234.508L230.27 228.611C230.172 228.872 230.045 229.155 229.889 229.461C229.732 229.767 229.527 230.057 229.273 230.33C229.026 230.61 228.717 230.835 228.346 231.004C227.975 231.18 227.525 231.268 226.998 231.268C226.79 231.268 226.588 231.248 226.393 231.209C226.204 231.176 226.025 231.141 225.855 231.102L225.846 229.305C225.911 229.311 225.989 229.318 226.08 229.324C226.178 229.331 226.256 229.334 226.314 229.334C226.705 229.334 227.031 229.285 227.291 229.188C227.551 229.096 227.763 228.947 227.926 228.738C228.095 228.53 228.238 228.25 228.355 227.898L229.117 225.848ZM227.496 216.434L230.006 224.344L230.426 226.824L228.795 227.244L224.957 216.434H227.496ZM242.486 211.805H244.391C244.391 212.384 244.309 212.863 244.146 213.24C243.99 213.611 243.756 213.917 243.443 214.158C243.137 214.393 242.757 214.581 242.301 214.725C241.852 214.868 241.331 214.998 240.738 215.115C240.191 215.232 239.697 215.418 239.254 215.672C238.818 215.919 238.45 216.268 238.15 216.717C237.857 217.16 237.646 217.729 237.516 218.426C237.385 219.122 237.346 219.972 237.398 220.975V221.639L235.533 221.805V221.141C235.533 219.897 235.647 218.813 235.875 217.889C236.103 216.964 236.425 216.186 236.842 215.555C237.265 214.917 237.766 214.409 238.346 214.031C238.932 213.654 239.583 213.393 240.299 213.25C240.787 213.146 241.194 213.042 241.52 212.938C241.845 212.827 242.086 212.687 242.242 212.518C242.405 212.342 242.486 212.104 242.486 211.805ZM240.836 217.029C241.539 217.029 242.164 217.153 242.711 217.4C243.258 217.641 243.72 217.98 244.098 218.416C244.475 218.852 244.762 219.367 244.957 219.959C245.159 220.551 245.26 221.196 245.26 221.893V222.107C245.26 222.837 245.152 223.51 244.938 224.129C244.723 224.747 244.407 225.288 243.99 225.75C243.574 226.206 243.062 226.564 242.457 226.824C241.858 227.078 241.171 227.205 240.396 227.205C239.628 227.205 238.941 227.072 238.336 226.805C237.73 226.538 237.219 226.167 236.803 225.691C236.386 225.21 236.07 224.646 235.855 224.002C235.641 223.357 235.533 222.654 235.533 221.893V221.678C235.527 221.541 235.562 221.408 235.641 221.277C235.725 221.147 235.826 221.007 235.943 220.857C236.061 220.708 236.165 220.535 236.256 220.34C236.581 219.682 236.965 219.106 237.408 218.611C237.851 218.117 238.355 217.729 238.922 217.449C239.495 217.169 240.133 217.029 240.836 217.029ZM240.377 218.895C239.791 218.895 239.312 219.035 238.941 219.314C238.577 219.588 238.307 219.952 238.131 220.408C237.962 220.864 237.877 221.359 237.877 221.893V222.107C237.877 222.544 237.926 222.957 238.023 223.348C238.121 223.738 238.268 224.083 238.463 224.383C238.665 224.676 238.925 224.907 239.244 225.076C239.57 225.245 239.954 225.33 240.396 225.33C240.846 225.33 241.227 225.245 241.539 225.076C241.858 224.907 242.115 224.676 242.311 224.383C242.512 224.083 242.659 223.738 242.75 223.348C242.848 222.957 242.896 222.544 242.896 222.107V221.893C242.896 221.489 242.848 221.108 242.75 220.75C242.659 220.392 242.512 220.076 242.311 219.803C242.109 219.523 241.848 219.301 241.529 219.139C241.21 218.976 240.826 218.895 240.377 218.895ZM246.656 221.834V221.609C246.656 220.848 246.767 220.141 246.988 219.49C247.21 218.833 247.529 218.263 247.945 217.781C248.368 217.293 248.883 216.915 249.488 216.648C250.1 216.375 250.79 216.238 251.559 216.238C252.333 216.238 253.023 216.375 253.629 216.648C254.241 216.915 254.758 217.293 255.182 217.781C255.605 218.263 255.927 218.833 256.148 219.49C256.37 220.141 256.48 220.848 256.48 221.609V221.834C256.48 222.596 256.37 223.302 256.148 223.953C255.927 224.604 255.605 225.174 255.182 225.662C254.758 226.144 254.244 226.521 253.639 226.795C253.033 227.062 252.346 227.195 251.578 227.195C250.803 227.195 250.11 227.062 249.498 226.795C248.893 226.521 248.378 226.144 247.955 225.662C247.532 225.174 247.21 224.604 246.988 223.953C246.767 223.302 246.656 222.596 246.656 221.834ZM249.01 221.609V221.834C249.01 222.309 249.059 222.758 249.156 223.182C249.254 223.605 249.407 223.976 249.615 224.295C249.824 224.614 250.09 224.865 250.416 225.047C250.742 225.229 251.129 225.32 251.578 225.32C252.014 225.32 252.392 225.229 252.711 225.047C253.036 224.865 253.303 224.614 253.512 224.295C253.72 223.976 253.873 223.605 253.971 223.182C254.075 222.758 254.127 222.309 254.127 221.834V221.609C254.127 221.141 254.075 220.698 253.971 220.281C253.873 219.858 253.717 219.484 253.502 219.158C253.294 218.833 253.027 218.579 252.701 218.396C252.382 218.208 252.001 218.113 251.559 218.113C251.116 218.113 250.732 218.208 250.406 218.396C250.087 218.579 249.824 218.833 249.615 219.158C249.407 219.484 249.254 219.858 249.156 220.281C249.059 220.698 249.01 221.141 249.01 221.609ZM260.885 223.562L265.035 216.434H267.389V227H265.035V219.861L260.885 227H258.531V216.434H260.885V223.562ZM264.41 212.371H266.158C266.158 212.911 266.028 213.39 265.768 213.807C265.514 214.217 265.149 214.539 264.674 214.773C264.205 215.008 263.645 215.125 262.994 215.125C262.011 215.125 261.233 214.871 260.66 214.363C260.094 213.849 259.811 213.185 259.811 212.371H261.559C261.559 212.736 261.666 213.058 261.881 213.338C262.102 213.611 262.473 213.748 262.994 213.748C263.508 213.748 263.873 213.611 264.088 213.338C264.303 213.058 264.41 212.736 264.41 212.371Z" fill="white"/>
<path d="M193.75 304.434V315H191.396V304.434H193.75ZM200.645 304.434L195.889 310.791H193.203L192.891 308.662H194.854L197.705 304.434H200.645ZM197.891 315L194.707 310.391L196.562 309.053L200.986 315H197.891ZM204.629 306.465V319.062H202.275V304.434H204.443L204.629 306.465ZM211.514 309.619V309.824C211.514 310.592 211.423 311.305 211.24 311.963C211.064 312.614 210.801 313.184 210.449 313.672C210.104 314.154 209.678 314.528 209.17 314.795C208.662 315.062 208.076 315.195 207.412 315.195C206.755 315.195 206.178 315.075 205.684 314.834C205.195 314.587 204.782 314.238 204.443 313.789C204.105 313.34 203.831 312.812 203.623 312.207C203.421 311.595 203.278 310.924 203.193 310.195V309.404C203.278 308.63 203.421 307.926 203.623 307.295C203.831 306.663 204.105 306.12 204.443 305.664C204.782 305.208 205.195 304.857 205.684 304.609C206.172 304.362 206.742 304.238 207.393 304.238C208.057 304.238 208.646 304.368 209.16 304.629C209.674 304.883 210.107 305.247 210.459 305.723C210.811 306.191 211.074 306.758 211.25 307.422C211.426 308.079 211.514 308.812 211.514 309.619ZM209.16 309.824V309.619C209.16 309.131 209.115 308.678 209.023 308.262C208.932 307.839 208.789 307.467 208.594 307.148C208.398 306.829 208.148 306.582 207.842 306.406C207.542 306.224 207.181 306.133 206.758 306.133C206.341 306.133 205.983 306.204 205.684 306.348C205.384 306.484 205.133 306.676 204.932 306.924C204.73 307.171 204.574 307.461 204.463 307.793C204.352 308.118 204.274 308.473 204.229 308.857V310.752C204.307 311.221 204.44 311.65 204.629 312.041C204.818 312.432 205.085 312.744 205.43 312.979C205.781 313.206 206.23 313.32 206.777 313.32C207.201 313.32 207.562 313.229 207.861 313.047C208.161 312.865 208.405 312.614 208.594 312.295C208.789 311.969 208.932 311.595 209.023 311.172C209.115 310.749 209.16 310.299 209.16 309.824ZM219.473 312.881V307.842C219.473 307.464 219.404 307.139 219.268 306.865C219.131 306.592 218.923 306.38 218.643 306.23C218.369 306.081 218.024 306.006 217.607 306.006C217.223 306.006 216.891 306.071 216.611 306.201C216.331 306.331 216.113 306.507 215.957 306.729C215.801 306.95 215.723 307.201 215.723 307.48H213.379C213.379 307.064 213.48 306.66 213.682 306.27C213.883 305.879 214.176 305.531 214.561 305.225C214.945 304.919 215.404 304.678 215.938 304.502C216.471 304.326 217.07 304.238 217.734 304.238C218.529 304.238 219.232 304.372 219.844 304.639C220.462 304.906 220.947 305.309 221.299 305.85C221.657 306.383 221.836 307.054 221.836 307.861V312.559C221.836 313.04 221.868 313.473 221.934 313.857C222.005 314.235 222.106 314.564 222.236 314.844V315H219.824C219.714 314.746 219.626 314.424 219.561 314.033C219.502 313.636 219.473 313.252 219.473 312.881ZM219.814 308.574L219.834 310.029H218.145C217.708 310.029 217.324 310.072 216.992 310.156C216.66 310.234 216.383 310.352 216.162 310.508C215.941 310.664 215.775 310.853 215.664 311.074C215.553 311.296 215.498 311.546 215.498 311.826C215.498 312.106 215.563 312.363 215.693 312.598C215.824 312.826 216.012 313.005 216.26 313.135C216.514 313.265 216.82 313.33 217.178 313.33C217.66 313.33 218.079 313.232 218.438 313.037C218.802 312.835 219.089 312.591 219.297 312.305C219.505 312.012 219.616 311.735 219.629 311.475L220.391 312.52C220.312 312.786 220.179 313.073 219.99 313.379C219.801 313.685 219.554 313.978 219.248 314.258C218.949 314.531 218.587 314.756 218.164 314.932C217.747 315.107 217.266 315.195 216.719 315.195C216.029 315.195 215.413 315.059 214.873 314.785C214.333 314.505 213.91 314.131 213.604 313.662C213.298 313.187 213.145 312.65 213.145 312.051C213.145 311.491 213.249 310.996 213.457 310.566C213.672 310.13 213.984 309.766 214.395 309.473C214.811 309.18 215.319 308.958 215.918 308.809C216.517 308.652 217.201 308.574 217.969 308.574H219.814ZM228.613 313.32C228.997 313.32 229.342 313.245 229.648 313.096C229.961 312.939 230.212 312.725 230.4 312.451C230.596 312.178 230.703 311.862 230.723 311.504H232.939C232.926 312.188 232.725 312.809 232.334 313.369C231.943 313.929 231.426 314.375 230.781 314.707C230.137 315.033 229.424 315.195 228.643 315.195C227.835 315.195 227.132 315.059 226.533 314.785C225.934 314.505 225.436 314.121 225.039 313.633C224.642 313.145 224.342 312.581 224.141 311.943C223.945 311.305 223.848 310.622 223.848 309.893V309.551C223.848 308.822 223.945 308.138 224.141 307.5C224.342 306.855 224.642 306.289 225.039 305.801C225.436 305.312 225.934 304.932 226.533 304.658C227.132 304.378 227.832 304.238 228.633 304.238C229.479 304.238 230.221 304.408 230.859 304.746C231.497 305.078 231.999 305.544 232.363 306.143C232.734 306.735 232.926 307.425 232.939 308.213H230.723C230.703 307.822 230.605 307.471 230.43 307.158C230.26 306.839 230.02 306.585 229.707 306.396C229.401 306.208 229.033 306.113 228.604 306.113C228.128 306.113 227.734 306.211 227.422 306.406C227.109 306.595 226.865 306.855 226.689 307.188C226.514 307.513 226.387 307.881 226.309 308.291C226.237 308.695 226.201 309.115 226.201 309.551V309.893C226.201 310.329 226.237 310.752 226.309 311.162C226.38 311.572 226.504 311.94 226.68 312.266C226.862 312.585 227.109 312.842 227.422 313.037C227.734 313.226 228.132 313.32 228.613 313.32ZM241.963 308.848V310.703H236.494V308.848H241.963ZM237.178 304.434V315H234.824V304.434H237.178ZM243.662 304.434V315H241.309V304.434H243.662ZM247.92 307.793H251.035C251.947 307.793 252.721 307.946 253.359 308.252C253.997 308.558 254.482 308.984 254.814 309.531C255.153 310.072 255.322 310.69 255.322 311.387C255.322 311.901 255.228 312.38 255.039 312.822C254.85 313.258 254.57 313.639 254.199 313.965C253.835 314.29 253.385 314.544 252.852 314.727C252.324 314.909 251.719 315 251.035 315H246.357V304.434H248.721V313.135H251.035C251.504 313.135 251.878 313.053 252.158 312.891C252.438 312.728 252.64 312.516 252.764 312.256C252.894 311.995 252.959 311.719 252.959 311.426C252.959 311.126 252.894 310.843 252.764 310.576C252.64 310.309 252.438 310.091 252.158 309.922C251.878 309.753 251.504 309.668 251.035 309.668H247.92V307.793ZM259.482 304.434V315H257.129V304.434H259.482ZM264.697 311.562L268.848 304.434H271.201V315H268.848V307.861L264.697 315H262.344V304.434H264.697V311.562ZM268.223 300.371H269.971C269.971 300.911 269.84 301.39 269.58 301.807C269.326 302.217 268.962 302.539 268.486 302.773C268.018 303.008 267.458 303.125 266.807 303.125C265.824 303.125 265.046 302.871 264.473 302.363C263.906 301.849 263.623 301.185 263.623 300.371H265.371C265.371 300.736 265.479 301.058 265.693 301.338C265.915 301.611 266.286 301.748 266.807 301.748C267.321 301.748 267.686 301.611 267.9 301.338C268.115 301.058 268.223 300.736 268.223 300.371Z" fill="white"/>
</svg>
