<svg viewBox="0 0 335 147" fill="none" xmlns="http://www.w3.org/2000/svg">
<path d="M69 39H37V71H69V39Z" fill="#008C95"/>
<path d="M31 1H0V33H31V1Z" fill="#008C95"/>
<path d="M31 39H0V71H31V39Z" fill="#00313C"/>
<path d="M31 77H0V109H31V77Z" fill="#77E2C3"/>
<path d="M31 115H0V147H31V115Z" fill="white"/>
<path d="M182.052 77.0547H150.359V108.748H182.052V77.0547Z" fill="#008C95"/>
<path d="M166.077 77.1758L150.41 95.6668L150.461 108.693L166.077 90.9637L182.055 108.693L182.063 95.6668L166.077 77.1758Z" fill="#00313C"/>
<path d="M257.951 39.0469H226.258V70.74H257.951V39.0469Z" fill="#77E2C3"/>
<path d="M248.035 49.2388C244.96 48.4127 241.542 49.2118 239.128 51.6254C236.714 54.0391 235.915 57.4543 236.741 60.5321C235.227 60.1298 233.796 59.3361 232.605 58.1455C229.007 54.5466 229.007 48.7069 232.605 45.1054C236.21 41.5065 242.047 41.5065 245.648 45.1054C246.839 46.296 247.633 47.7269 248.035 49.2415" fill="#00313C"/>
<path d="M245.648 58.1456C243.234 60.5593 239.816 61.3584 236.741 60.5323C235.915 57.4572 236.714 54.0392 239.128 51.6256C241.541 49.212 244.959 48.4128 248.034 49.239C248.86 52.314 248.061 55.732 245.648 58.1456Z" fill="#008C95"/>
<path d="M252.17 64.6697C248.565 68.2685 242.728 68.2685 239.127 64.6697C237.936 63.479 237.143 62.0481 236.74 60.5335C239.815 61.3597 243.233 60.5605 245.647 58.1469C248.061 55.7333 248.86 52.318 248.034 49.2402C249.548 49.6425 250.979 50.4362 252.17 51.6269C255.769 55.2257 255.769 61.0654 252.17 64.667" fill="#00313C"/>
<path d="M68.8181 115.066H37.125V146.759H68.8181V115.066Z" fill="#00313C"/>
<path d="M37.125 146.88C37.125 129.399 51.2963 115.23 68.7749 115.23V146.88H37.125Z" fill="#77E2C3"/>
<path d="M53 44C46.9252 44 42 48.9252 42 55C42 61.0748 46.9252 66 53 66C59.0748 66 64 61.0748 64 55C64 48.9252 59.0748 44 53 44ZM53 49.4753C56.0465 49.4753 58.5247 51.9535 58.5247 55C58.5247 58.0465 56.0465 60.5247 53 60.5247C49.9535 60.5247 47.4754 58.0465 47.4754 55C47.4754 51.9535 49.9535 49.4753 53 49.4753Z" fill="#00313C"/>
<path d="M106.152 1.03516H74.459V32.7282H106.152V1.03516Z" fill="#008C95"/>
<path d="M74.4492 32.6779C74.4492 23.9386 81.5335 16.8516 90.2755 16.8516C99.0175 16.8516 106.102 23.9359 106.102 32.6779H74.4519H74.4492Z" fill="white"/>
<path d="M219.998 39.0469H188.305V70.74H219.998V39.0469Z" fill="white"/>
<path d="M188.387 70.7111C188.387 61.9718 195.471 54.8848 204.213 54.8848C212.955 54.8848 220.039 61.9691 220.039 70.7111H188.389H188.387Z" fill="#77E2C3"/>
<path d="M204.119 54.8868L220.039 39.0605H188.387L204.119 54.8868Z" fill="#00313C"/>
<path d="M144.099 1.03516H112.406V32.7282H144.099V1.03516Z" fill="#77E2C3"/>
<path d="M112.428 32.728V1.07812H144.08L112.428 32.728Z" fill="#008C95"/>
<path d="M144.099 39.0469H112.406V70.74H144.099V39.0469Z" fill="#008C95"/>
<path d="M144.081 39.0605H128.316V70.7104H144.081V39.0605Z" fill="white"/>
<path d="M182.052 1.03516H150.359V32.7282H182.052V1.03516Z" fill="#00313C"/>
<path d="M166.334 1.07812L150.41 32.728H182.063L166.334 1.07812Z" fill="white"/>
<path d="M219.998 1.03516H188.305V32.7282H219.998V1.03516Z" fill="#00313C"/>
<path d="M204.31 16.9062L188.387 32.7298H220.039L204.31 16.9062Z" fill="#008C95"/>
<path d="M204.31 1.07812L188.387 16.9044H220.039L204.31 1.07812Z" fill="#008C95"/>
<path d="M182.052 39.0469H150.359V70.74H182.052V39.0469Z" fill="#77E2C3"/>
<path d="M166.334 47.627L150.41 70.7103H182.063L166.334 47.627Z" fill="#008C95"/>
<path d="M68.8181 77.0547H37.125V108.748H68.8181V77.0547Z" fill="#008C95"/>
<path d="M47.9043 92.867C47.9043 95.6559 50.164 97.9157 52.9529 97.9157C55.7419 97.9157 58.0016 95.6559 58.0016 92.867C58.0016 90.0781 55.7419 87.8184 52.9529 87.8184C50.164 87.8184 47.9043 90.0781 47.9043 92.867Z" fill="#77E2C3"/>
<path d="M52.9499 83.3194C47.6853 83.3194 43.4034 87.6013 43.4034 92.8659C43.4034 98.1305 47.6853 102.412 52.9499 102.412C58.2145 102.412 62.4937 98.1305 62.4937 92.8659C62.4937 87.6013 58.2118 83.3194 52.9499 83.3194ZM52.9499 106.208C45.5929 106.208 39.6074 100.223 39.6074 92.8659C39.6074 85.5089 45.5929 79.5234 52.9499 79.5234C60.3069 79.5234 66.2924 85.5089 66.2924 92.8659C66.2924 100.223 60.3069 106.208 52.9499 106.208Z" fill="#77E2C3"/>
<path d="M219.998 77.0527H188.305V108.746H219.998V77.0527Z" fill="#77E2C3"/>
<path d="M204.119 92.8654L220.039 77.0391H188.387L204.119 92.8654Z" fill="#008C95"/>
<path d="M204.119 92.8652L220.039 108.692H188.387L204.119 92.8652Z" fill="#008C95"/>
<path d="M295.9 77.0527H264.207V108.746H295.9V77.0527Z" fill="white"/>
<path d="M280.18 77.043C280.18 85.7823 273.093 92.8693 264.354 92.8693V77.043H280.18Z" fill="#008C95"/>
<path d="M280.18 92.8672C280.18 101.606 273.093 108.693 264.354 108.693V92.8672H280.18Z" fill="#008C95"/>
<path d="M295.9 39.0469H264.207V70.74H295.9V39.0469Z" fill="#77E2C3"/>
<path d="M264.355 70.7189C264.355 61.9796 271.44 54.8926 280.182 54.8926C288.924 54.8926 296.008 61.9769 296.008 70.7189H264.358H264.355Z" fill="#00313C"/>
<path d="M264.355 54.8927C264.355 46.1534 271.44 39.0664 280.182 39.0664C288.924 39.0664 296.008 46.1507 296.008 54.8927H264.358H264.355Z" fill="#00313C"/>
<path d="M295.9 1.03516H264.207V32.7282H295.9V1.03516Z" fill="#008C95"/>
<path d="M264.592 32.6876C264.592 23.9483 271.676 16.8613 280.418 16.8613C289.16 16.8613 296.244 23.9456 296.244 32.6876H264.594H264.592Z" fill="#77E2C3"/>
<path d="M296.239 1.03516C296.239 9.77444 289.154 16.8614 280.412 16.8614C271.67 16.8614 264.586 9.77714 264.586 1.03516H296.236H296.239Z" fill="#77E2C3"/>
<path d="M106.154 77.0547H74.4609V108.748H106.154V77.0547Z" fill="#008C95"/>
<path d="M90.3397 77.1388L74.5137 92.9648L90.2748 108.726L106.101 92.8999L90.3397 77.1388Z" fill="#77E2C3"/>
<path d="M106.154 39.0469H74.4609V70.74H106.154V39.0469Z" fill="#77E2C3"/>
<path d="M90.338 39.0938L74.5117 54.92L90.2732 70.6815L106.1 54.8552L90.338 39.0938ZM90.338 45.8082L99.3851 54.8552L90.2732 63.9671L81.2262 54.92L90.338 45.8082Z" fill="#008C95"/>
<path d="M257.951 115.064H226.258V146.758H257.951V115.064Z" fill="#008C95"/>
<path d="M242.261 115.02V123.081L234.482 130.859L242.247 138.624L242.261 138.608V146.669H258.025V115.02H242.261Z" fill="#00313C"/>
<path d="M219.998 115.066H188.305V146.759H219.998V115.066Z" fill="#008C95"/>
<path d="M204.213 115.055L188.387 130.881L204.148 146.642L219.974 130.816L204.213 115.055Z" fill="#77E2C3"/>
<path d="M199.32 130.932C199.32 133.656 201.527 135.862 204.25 135.862C206.974 135.862 209.181 133.656 209.181 130.932C209.181 128.209 206.974 126.002 204.25 126.002C201.527 126.002 199.32 128.209 199.32 130.932Z" fill="white"/>
<path d="M68.8181 1.03516H37.125V32.7282H68.8181V1.03516Z" fill="#77E2C3"/>
<path d="M39.2227 16.9055C39.2227 24.4866 45.3674 30.6314 52.9485 30.6314C60.5296 30.6314 66.6743 24.4866 66.6743 16.9055C66.6743 9.32446 60.5296 3.17969 52.9485 3.17969C45.3674 3.17969 39.2227 9.32446 39.2227 16.9055Z" fill="#00313C"/>
<path d="M334.181 77.0898H302.488V108.783H334.181V77.0898Z" fill="#008C95"/>
<path d="M332.988 105.76L334.192 108.082V108.673H329.697L332.988 105.76Z" fill="#00313C"/>
<path d="M319.756 80.2458L314 85.3376L318.085 77.0195L319.756 80.2458Z" fill="#00313C"/>
<path d="M311.057 91.3292L320.96 82.5684L322.148 84.8605L308.152 97.2418L311.057 91.3292Z" fill="#00313C"/>
<path d="M325.76 91.8242L326.964 94.1488L310.549 108.671H306.721L325.76 91.8242Z" fill="#00313C"/>
<path d="M323.352 87.1797L324.556 89.5015L302.89 108.67H302.539L305.212 103.23L323.352 87.1797Z" fill="#00313C"/>
<path d="M328.168 96.4727L329.372 98.7945L318.205 108.673H314.377L328.168 96.4727Z" fill="#00313C"/>
<path d="M331.785 103.437L325.867 108.672H322.039L330.579 101.115L331.785 103.437Z" fill="#00313C"/>
<path d="M144.099 77.0547H112.406V108.748H144.099V77.0547Z" fill="#00313C"/>
<path d="M144.078 92.9297H112.428V108.694H144.078V92.9297Z" fill="#77E2C3"/>
<path d="M334.181 39.0762H302.488V70.7693H334.181V39.0762Z" fill="#00313C"/>
<path d="M334.189 39.0039H302.539V44.9705H334.189V39.0039Z" fill="#77E2C3"/>
<path d="M334.189 51.8477H302.539V57.8142H334.189V51.8477Z" fill="#77E2C3"/>
<path d="M334.189 64.6914H302.539V70.658H334.189V64.6914Z" fill="#77E2C3"/>
<path d="M334.185 115.104H302.492V146.797H334.185V115.104Z" fill="#008C95"/>
<path d="M334.164 124.301V127.878L321.312 115.027H324.892L334.164 124.301Z" fill="white"/>
<path d="M334.165 117.662V121.237L327.955 115.027H331.535L334.165 117.662Z" fill="white"/>
<path d="M334.162 131.164V134.741L314.445 115.027H318.025L334.162 131.164Z" fill="white"/>
<path d="M334.163 138.027V141.61L307.586 115.027H311.16L334.163 138.027Z" fill="white"/>
<path d="M334.164 144.895V146.68H332.372L302.512 116.82V115.027H304.302L334.164 144.895Z" fill="white"/>
<path d="M329.086 146.682H325.511L302.512 123.687V120.107L329.086 146.682Z" fill="white"/>
<path d="M322.226 146.681H318.643L302.512 130.547V126.973L322.226 146.681Z" fill="white"/>
<path d="M315.357 146.68H311.78L302.512 137.412V133.832L315.357 146.68Z" fill="white"/>
<path d="M308.403 146.68H304.823L302.512 144.369V140.789L308.403 146.68Z" fill="white"/>
<path d="M334.146 0.994141H302.453V32.6872H334.146V0.994141Z" fill="white"/>
<path d="M334.224 1.45793V8.64753L326.492 0.917969H333.687L334.224 1.45793Z" fill="#008C95"/>
<path d="M334.225 15.2486V22.4436L312.699 0.917969H319.889L334.225 15.2486Z" fill="#008C95"/>
<path d="M334.226 29.0473V32.5733H330.559L302.57 4.58432V0.917969H306.099L334.226 29.0473Z" fill="#008C95"/>
<path d="M323.958 32.5734H316.769L302.57 18.3778V11.1855L323.958 32.5734Z" fill="#008C95"/>
<path d="M310.168 32.6707H302.973L302.57 32.2685V25.0762L310.168 32.6707Z" fill="#008C95"/>
<path d="M257.951 1.03516H226.258V32.7282H257.951V1.03516Z" fill="white"/>
<path d="M242.198 3.17969C234.617 3.17969 228.473 9.32446 228.473 16.9055C228.473 24.4866 234.617 30.6314 242.198 30.6314V3.17969Z" fill="#008C95"/>
<path d="M242.199 30.6333C249.78 30.6333 255.925 24.4885 255.925 16.9075C255.925 9.32641 249.78 3.18164 242.199 3.18164V30.6333Z" fill="#00313C"/>
<path d="M182.052 115.066H150.359V146.759H182.052V115.066Z" fill="#77E2C3"/>
<path d="M160.961 130.944L150.41 115.023V146.676L160.961 130.944Z" fill="#008C95"/>
<path d="M171.512 130.944L160.961 115.023V146.676L171.512 130.944Z" fill="#008C95"/>
<path d="M182.063 130.944L171.512 115.023V146.676L182.063 130.944Z" fill="#008C95"/>
<path d="M257.951 77.0527H226.258V108.746H257.951V77.0527Z" fill="white"/>
<path d="M236.923 92.9598L226.375 77.0391V108.692L236.923 92.9598Z" fill="#008C95"/>
<path d="M247.473 92.9598L236.922 77.0391V108.692L247.473 92.9598Z" fill="#008C95"/>
<path d="M258.024 92.9598L247.473 77.0391V108.692L258.024 92.9598Z" fill="#008C95"/>
<path d="M295.9 115.068H264.207V146.761H295.9V115.068Z" fill="#77E2C3"/>
<path d="M296.006 115.023L286.387 124.643C284.796 123.058 282.604 122.073 280.18 122.073C275.334 122.073 271.403 126.004 271.403 130.85C271.403 133.274 272.388 135.469 273.973 137.057L264.354 146.676V115.026H296.003L296.006 115.023Z" fill="#008C95"/>
<path d="M286.386 124.641C284.796 123.056 282.604 122.07 280.179 122.07C275.333 122.07 271.402 126.001 271.402 130.847C271.402 133.272 272.388 135.464 273.973 137.054C275.56 138.639 277.755 139.624 280.179 139.624C285.026 139.624 288.957 135.694 288.957 130.847C288.957 128.423 287.971 126.228 286.386 124.641Z" fill="#00313C"/>
<path d="M106.154 115.066H74.4609V146.759H106.154V115.066Z" fill="#00313C"/>
<path d="M104.001 130.85C104.001 135.383 101.804 139.403 98.418 141.903L90.2457 130.85L82.1544 141.922C78.7553 139.422 76.5469 135.391 76.5469 130.85C76.5469 123.269 82.6943 117.121 90.2727 117.121C97.8511 117.121 104.001 123.269 104.001 130.85Z" fill="#77E2C3"/>
<path d="M144.099 115.066H112.406V146.759H144.099V115.066Z" fill="#00313C"/>
<path d="M144.08 146.676H128.907L112.428 115.023L127.611 115.032L144.08 146.676Z" fill="#008C95"/>
</svg>
