<svg width="342" height="150" viewBox="0 0 342 150" fill="none" xmlns="http://www.w3.org/2000/svg">
<path d="M33.1186 38.5977H0V71.7506H33.1186V38.5977Z" fill="#E5007D"/>
<path fill-rule="evenodd" clip-rule="evenodd" d="M241.9 4.30859C248.759 4.30859 254.319 9.87475 254.319 16.7409C254.319 23.6071 248.759 29.1733 241.9 29.1733C235.041 29.1733 229.48 23.6071 229.48 16.7409C229.48 9.87475 235.041 4.30859 241.9 4.30859Z" fill="#E4E7EB"/>
<path fill-rule="evenodd" clip-rule="evenodd" d="M192.387 0H225.402L258.624 33.1529H192.387V0Z" fill="#77E2C3"/>
<path fill-rule="evenodd" clip-rule="evenodd" d="M225.508 0L192.389 33.1529H225.508V0Z" fill="white"/>
<path fill-rule="evenodd" clip-rule="evenodd" d="M208.78 9.28516H208.945C213.061 9.28516 216.397 12.6248 216.397 16.7446C216.397 20.8643 213.061 24.204 208.945 24.204H208.78C204.664 24.204 201.328 20.8643 201.328 16.7446C201.328 12.6248 204.664 9.28516 208.78 9.28516Z" fill="#008C95"/>
<path fill-rule="evenodd" clip-rule="evenodd" d="M302.461 38.5977V71.7506H269.342V38.5977L302.461 38.5977Z" fill="black"/>
<path d="M285.902 71.7484V55.1719H269.343V71.7484H285.902Z" fill="#E5007D"/>
<path d="M187.033 0H153.914V33.1529H187.033V0Z" fill="white"/>
<path fill-rule="evenodd" clip-rule="evenodd" d="M170.473 5.47266L177.605 8.07102L181.399 14.6503L180.081 22.132L174.268 27.0153H166.678L160.865 22.132L159.547 14.6503L163.341 8.07102L170.473 5.47266Z" fill="#008C95"/>
<path d="M148.556 0H115.438V33.1529H148.556V0Z" fill="#A1A3A6"/>
<path d="M110.079 77.1836H76.9609V110.337H110.079V77.1836Z" fill="black"/>
<path d="M93.6858 77.1836H76.9609V110.337H93.6858V77.1836Z" fill="#E5007D"/>
<path d="M225.505 77.1836H192.387V110.337H225.505V77.1836Z" fill="white"/>
<path fill-rule="evenodd" clip-rule="evenodd" d="M200.666 93.7578C205.239 93.7578 208.946 97.4686 208.946 102.046C208.946 106.624 205.239 110.334 200.666 110.334C196.094 110.334 192.387 106.624 192.387 102.046C192.387 97.4686 196.094 93.7578 200.666 93.7578Z" fill="#E5007D"/>
<path d="M225.505 77.1836H208.945V93.7601H225.505V77.1836Z" fill="#77E2C3"/>
<path d="M187.033 115.75H153.914V148.903H187.033V115.75Z" fill="white"/>
<path fill-rule="evenodd" clip-rule="evenodd" d="M170.475 124.867C174.591 124.867 177.927 128.207 177.927 132.327C177.927 136.446 174.591 139.786 170.475 139.786C166.36 139.786 163.023 136.446 163.023 132.327C163.023 128.207 166.36 124.867 170.475 124.867Z" fill="#E4E7EB"/>
<path d="M225.505 115.746H192.387V148.899H225.505V115.746Z" fill="#77E2C3"/>
<path d="M220.538 120.719H197.355V143.926H220.538V120.719Z" fill="white"/>
<path fill-rule="evenodd" clip-rule="evenodd" d="M208.945 132.324L192.386 115.748H208.945V132.324Z" fill="#008C95"/>
<path d="M0 77.2416L0 110.395H33.1186V77.2416H0Z" fill="#77E2C3"/>
<path d="M4.96875 82.2148L4.96875 105.422H28.1517V82.2148H4.96875Z" fill="white"/>
<path fill-rule="evenodd" clip-rule="evenodd" d="M16.5586 93.8164L-0.000684738 110.393V93.8164H16.5586Z" fill="#008C95"/>
<path d="M110.145 33.1529V0L77.026 0V33.1529L110.145 33.1529Z" fill="#77E2C3"/>
<path d="M105.176 28.1797V4.97266L81.9928 4.97266V28.1797L105.176 28.1797Z" fill="white"/>
<path fill-rule="evenodd" clip-rule="evenodd" d="M93.5859 16.5781L110.145 0.00165176V16.5781L93.5859 16.5781Z" fill="#008C95"/>
<path fill-rule="evenodd" clip-rule="evenodd" d="M263.984 115.75V148.903H230.866V115.75H263.984Z" fill="black"/>
<path fill-rule="evenodd" clip-rule="evenodd" d="M230.863 148.906L263.982 115.753V148.906H230.863Z" fill="#E5007D"/>
<path fill-rule="evenodd" clip-rule="evenodd" d="M259.844 132.655C259.844 139.521 254.283 145.087 247.424 145.087C240.565 145.087 235.005 139.521 235.005 132.655C235.005 125.789 240.565 120.223 247.424 120.223C254.283 120.223 259.844 125.789 259.844 132.655Z" fill="white"/>
<path fill-rule="evenodd" clip-rule="evenodd" d="M0.00390625 115.75H33.1225V148.903H0.00390625V115.75Z" fill="white"/>
<path fill-rule="evenodd" clip-rule="evenodd" d="M33.125 115.75L0.00644302 148.903H33.125V115.75Z" fill="#E4E7EB"/>
<path fill-rule="evenodd" clip-rule="evenodd" d="M38.4805 77.1836L71.599 110.337H38.4805V77.1836Z" fill="#008C95"/>
<path d="M71.5983 77.1836H55.0391V93.7601H71.5983V77.1836Z" fill="#77E2C3"/>
<path fill-rule="evenodd" clip-rule="evenodd" d="M76.957 38.5977L110.076 71.7506H76.957V38.5977Z" fill="#008C95"/>
<path fill-rule="evenodd" clip-rule="evenodd" d="M38.4805 115.75L71.599 148.903H38.4805V115.75Z" fill="#E5007D"/>
<path fill-rule="evenodd" clip-rule="evenodd" d="M187.035 110.34L153.917 77.1869H187.035V110.34Z" fill="#A1A3A6"/>
<path d="M170.473 93.7617H153.914V110.338H170.473V93.7617Z" fill="#77E2C3"/>
<path fill-rule="evenodd" clip-rule="evenodd" d="M187.035 93.7617L170.476 77.1852H187.035V93.7617Z" fill="#E4E7EB"/>
<path fill-rule="evenodd" clip-rule="evenodd" d="M71.6016 0L38.483 33.1529V0L71.6016 0Z" fill="#A1A3A6"/>
<path d="M55.0391 16.5798V33.1562H71.5983V16.5798H55.0391Z" fill="#E4E7EB"/>
<path fill-rule="evenodd" clip-rule="evenodd" d="M55.0391 0L38.4798 16.5765V0L55.0391 0Z" fill="#E4E7EB"/>
<path fill-rule="evenodd" clip-rule="evenodd" d="M302.463 115.75L269.344 148.903V115.75H302.463Z" fill="#A1A3A6"/>
<path d="M285.9 132.33V148.906H302.46V132.33H285.9Z" fill="#77E2C3"/>
<path fill-rule="evenodd" clip-rule="evenodd" d="M285.9 115.75L269.341 132.326V115.75H285.9Z" fill="#E4E7EB"/>
<path fill-rule="evenodd" clip-rule="evenodd" d="M148.559 77.1836L115.44 110.337H148.559V77.1836Z" fill="#E4E7EB"/>
<path d="M131.997 77.1836H115.438V93.7601H131.997V77.1836Z" fill="#A1A3A6"/>
<path fill-rule="evenodd" clip-rule="evenodd" d="M33.1895 33.207L0.0708961 0.0540848H33.1895V33.207Z" fill="black"/>
<path d="M115.44 148.906H148.559V115.753H115.44V148.906Z" fill="black"/>
<path fill-rule="evenodd" clip-rule="evenodd" d="M132.083 138.188L120.74 115.755H143.426L132.083 138.188Z" fill="white"/>
<path fill-rule="evenodd" clip-rule="evenodd" d="M140.279 130.602L131.999 115.757H148.559L140.279 130.602Z" fill="#E5007D"/>
<path fill-rule="evenodd" clip-rule="evenodd" d="M123.72 130.602L115.441 115.757H132L123.72 130.602Z" fill="#E5007D"/>
<path d="M263.98 0.00330353V33.1562H297.1V0.00330353H263.98Z" fill="#008C95"/>
<path fill-rule="evenodd" clip-rule="evenodd" d="M274.664 16.5787L297.185 5.22382V27.9336L274.664 16.5787Z" fill="#77E2C3"/>
<path fill-rule="evenodd" clip-rule="evenodd" d="M282.195 24.868L297.099 16.5798V33.1562L282.195 24.868Z" fill="#E4E7EB"/>
<path fill-rule="evenodd" clip-rule="evenodd" d="M282.195 8.29379L297.099 0.00555611V16.582L282.195 8.29379Z" fill="#E4E7EB"/>
<path d="M38.4791 71.7461H71.5977V38.5931L38.4791 38.5931L38.4791 71.7461Z" fill="#E4E7EB"/>
<path fill-rule="evenodd" clip-rule="evenodd" d="M55.1217 61.2539L43.7786 38.5966H66.4648L55.1217 61.2539Z" fill="#A1A3A6"/>
<path fill-rule="evenodd" clip-rule="evenodd" d="M247.426 77.1836C256.572 77.1836 263.986 84.6051 263.986 93.7601C263.986 102.915 256.572 110.337 247.426 110.337C238.281 110.337 230.867 102.915 230.867 93.7601C230.867 84.6051 238.281 77.1836 247.426 77.1836Z" fill="#E4E7EB"/>
<path fill-rule="evenodd" clip-rule="evenodd" d="M247.424 85.4727C251.997 85.4727 255.704 89.1834 255.704 93.7609C255.704 98.3384 251.997 102.049 247.424 102.049C242.851 102.049 239.145 98.3384 239.145 93.7609C239.145 89.1834 242.851 85.4727 247.424 85.4727Z" fill="white"/>
<path fill-rule="evenodd" clip-rule="evenodd" d="M131.993 38.5977C141.138 38.5977 148.552 46.0192 148.552 55.1741C148.552 64.3291 141.138 71.7506 131.993 71.7506C122.847 71.7506 115.434 64.3291 115.434 55.1741C115.434 46.0192 122.847 38.5977 131.993 38.5977Z" fill="#E5007D"/>
<path fill-rule="evenodd" clip-rule="evenodd" d="M131.991 46.8867C136.563 46.8867 140.27 50.5975 140.27 55.175C140.27 59.7524 136.563 63.4632 131.991 63.4632C127.418 63.4632 123.711 59.7524 123.711 55.175C123.711 50.5975 127.418 46.8867 131.991 46.8867Z" fill="black"/>
<path fill-rule="evenodd" clip-rule="evenodd" d="M208.946 38.5977C218.091 38.5977 225.505 46.0192 225.505 55.1741C225.505 64.3291 218.091 71.7506 208.946 71.7506C199.801 71.7506 192.387 64.3291 192.387 55.1741C192.387 46.0192 199.801 38.5977 208.946 38.5977Z" fill="#A1A3A6"/>
<path d="M225.505 55.1719H208.945V71.7484H225.505V55.1719Z" fill="white"/>
<path d="M307.825 116.169L307.822 132.729L324.44 132.731L324.443 116.172L307.825 116.169Z" fill="black"/>
<path d="M324.395 132.732L324.393 149.291L341.011 149.294L341.013 132.734L324.395 132.732Z" fill="#008C95"/>
<path d="M302.552 0.00253677L302.547 33.1211L335.7 33.1265L335.705 0.00796316L302.552 0.00253677Z" fill="#008C95"/>
<path fill-rule="evenodd" clip-rule="evenodd" d="M308.021 16.5622L310.621 9.43107L317.201 5.63755L324.682 6.95662L329.565 12.7711L329.563 20.3603L324.679 26.1732L317.197 27.4898L310.619 23.6941L308.021 16.5622Z" fill="#77E2C3"/>
<path fill-rule="evenodd" clip-rule="evenodd" d="M307.824 38.5625L340.972 71.6865L340.977 38.5679L307.824 38.5625Z" fill="#A1A3A6"/>
<path d="M307.819 55.1243L307.816 71.6836L324.393 71.6863L324.396 55.127L307.819 55.1243Z" fill="#008C95"/>
<path fill-rule="evenodd" clip-rule="evenodd" d="M307.823 93.6712C307.825 84.5258 315.247 77.1131 324.402 77.1146C333.557 77.1161 340.977 84.5312 340.976 93.6766C340.974 102.822 333.552 110.235 324.397 110.233C315.242 110.232 307.822 102.817 307.823 93.6712Z" fill="#77E2C3"/>
<path fill-rule="evenodd" clip-rule="evenodd" d="M170.465 55.1758L153.906 38.5993H170.465V55.1758Z" fill="#E5007D"/>
<path fill-rule="evenodd" clip-rule="evenodd" d="M170.465 55.1758L187.024 71.7523H170.465V55.1758Z" fill="#E5007D"/>
<path fill-rule="evenodd" clip-rule="evenodd" d="M170.465 55.1758L153.906 71.7523V55.1758H170.465Z" fill="#E5007D"/>
<path fill-rule="evenodd" clip-rule="evenodd" d="M170.465 55.1758L187.024 38.5993V55.1758H170.465Z" fill="#E5007D"/>
<path fill-rule="evenodd" clip-rule="evenodd" d="M285.9 93.7617L269.341 77.1852H285.9V93.7617Z" fill="#77E2C3"/>
<path fill-rule="evenodd" clip-rule="evenodd" d="M285.9 93.7617L302.46 110.338H285.9V93.7617Z" fill="#77E2C3"/>
<path fill-rule="evenodd" clip-rule="evenodd" d="M285.9 93.7617L269.341 110.338V93.7617H285.9Z" fill="#77E2C3"/>
<path fill-rule="evenodd" clip-rule="evenodd" d="M285.9 93.7617L302.46 77.1852V93.7617H285.9Z" fill="#77E2C3"/>
<path fill-rule="evenodd" clip-rule="evenodd" d="M93.5156 132.324L76.9563 115.748H93.5156V132.324Z" fill="#A1A3A6"/>
<path fill-rule="evenodd" clip-rule="evenodd" d="M93.5156 115.746L76.9563 132.323V115.746H93.5156Z" fill="#A1A3A6"/>
<path fill-rule="evenodd" clip-rule="evenodd" d="M110.078 132.324L93.5188 148.901V132.324H110.078Z" fill="#A1A3A6"/>
<path fill-rule="evenodd" clip-rule="evenodd" d="M110.078 148.902L93.5188 132.326H110.078V148.902Z" fill="#A1A3A6"/>
<path fill-rule="evenodd" clip-rule="evenodd" d="M247.42 55.1758L230.861 38.5993H247.42V55.1758Z" fill="#A1A3A6"/>
<path fill-rule="evenodd" clip-rule="evenodd" d="M247.42 38.5977L230.861 55.1741V38.5977H247.42Z" fill="#A1A3A6"/>
<path fill-rule="evenodd" clip-rule="evenodd" d="M263.982 55.1758L247.423 71.7523V55.1758H263.982Z" fill="#77E2C3"/>
<path fill-rule="evenodd" clip-rule="evenodd" d="M263.982 71.7539L247.423 55.1774H263.982V71.7539Z" fill="#77E2C3"/>
</svg>
