<svg width="304" height="258" viewBox="0 0 304 258" fill="none" xmlns="http://www.w3.org/2000/svg">
<path d="M274.795 0H197.781V77.0134H274.795V0Z" fill="#008C95"/>
<path d="M197.754 76.895C197.754 55.6587 214.969 38.4375 236.211 38.4375C257.454 38.4375 274.669 55.6522 274.669 76.895H197.76H197.754Z" fill="white"/>
<path d="M101.013 147.988H24V225.002H101.013V147.988Z" fill="#77E2C3"/>
<path d="M49.7673 186.57L24.1289 147.883V224.798L49.7673 186.57Z" fill="#008C95"/>
<path d="M75.4 186.57L49.7617 147.883V224.798L75.4 186.57Z" fill="#008C95"/>
<path d="M101.037 186.57L75.3984 147.883V224.798L101.037 186.57Z" fill="#008C95"/>
<path d="M274.795 147.883H197.781V224.896H274.795V147.883Z" fill="#008C95"/>
<path d="M198.711 224.801C198.711 203.565 215.926 186.344 237.168 186.344C258.411 186.344 275.626 203.558 275.626 224.801H198.718H198.711Z" fill="#77E2C3"/>
<path d="M275.618 147.883C275.618 169.119 258.403 186.34 237.161 186.34C215.918 186.34 198.703 169.126 198.703 147.883H275.612H275.618Z" fill="#77E2C3"/>
<path d="M101.013 0H24V77.0134H101.013V0Z" fill="#77E2C3"/>
<path d="M29.0996 38.5644C29.0996 56.9862 44.0312 71.9178 62.453 71.9178C80.8749 71.9178 95.8065 56.9862 95.8065 38.5644C95.8065 20.1426 80.8749 5.21094 62.453 5.21094C44.0312 5.21094 29.0996 20.1426 29.0996 38.5644Z" fill="#00313C"/>
<path d="M36.791 93.9141V106H34.7158V95.5742H29.3452V106H27.27V93.9141H36.791ZM41.1074 98.7451V109.453H39.1069V97.0186H40.9497L41.1074 98.7451ZM46.9595 101.426V101.601C46.9595 102.254 46.882 102.86 46.7271 103.418C46.5776 103.972 46.3535 104.456 46.0547 104.871C45.7614 105.281 45.3989 105.599 44.9673 105.826C44.5356 106.053 44.0376 106.166 43.4731 106.166C42.9142 106.166 42.4245 106.064 42.0039 105.859C41.5889 105.649 41.2375 105.353 40.9497 104.971C40.6619 104.589 40.4295 104.141 40.2524 103.626C40.0809 103.106 39.9591 102.536 39.8872 101.916V101.244C39.9591 100.585 40.0809 99.9875 40.2524 99.4507C40.4295 98.9139 40.6619 98.4518 40.9497 98.0645C41.2375 97.6771 41.5889 97.3783 42.0039 97.168C42.4189 96.9577 42.9032 96.8525 43.4565 96.8525C44.021 96.8525 44.5218 96.9632 44.959 97.1846C45.3962 97.4004 45.7642 97.7103 46.063 98.1143C46.3618 98.5127 46.5859 98.9941 46.7354 99.5586C46.8848 100.118 46.9595 100.74 46.9595 101.426ZM44.959 101.601V101.426C44.959 101.011 44.9202 100.627 44.8428 100.272C44.7653 99.9128 44.6436 99.5973 44.4775 99.3262C44.3115 99.055 44.0985 98.8447 43.8384 98.6953C43.5838 98.5404 43.2767 98.4629 42.917 98.4629C42.5628 98.4629 42.2585 98.5238 42.0039 98.6455C41.7493 98.7617 41.5363 98.925 41.3647 99.1353C41.1932 99.3455 41.0604 99.5918 40.9663 99.874C40.8722 100.151 40.8058 100.452 40.7671 100.779V102.389C40.8335 102.788 40.9469 103.153 41.1074 103.485C41.2679 103.817 41.4948 104.083 41.7881 104.282C42.0869 104.475 42.4688 104.572 42.9336 104.572C43.2933 104.572 43.6004 104.495 43.855 104.34C44.1095 104.185 44.3171 103.972 44.4775 103.701C44.6436 103.424 44.7653 103.106 44.8428 102.746C44.9202 102.386 44.959 102.005 44.959 101.601ZM48.2793 101.609V101.418C48.2793 100.771 48.3734 100.17 48.5615 99.6167C48.7497 99.0578 49.0208 98.5736 49.375 98.1641C49.7347 97.749 50.1719 97.4281 50.6865 97.2012C51.2067 96.9688 51.7933 96.8525 52.4463 96.8525C53.1048 96.8525 53.6914 96.9688 54.2061 97.2012C54.7262 97.4281 55.1662 97.749 55.5259 98.1641C55.8856 98.5736 56.1595 99.0578 56.3477 99.6167C56.5358 100.17 56.6299 100.771 56.6299 101.418V101.609C56.6299 102.256 56.5358 102.857 56.3477 103.41C56.1595 103.964 55.8856 104.448 55.5259 104.863C55.1662 105.272 54.729 105.593 54.2144 105.826C53.6997 106.053 53.1159 106.166 52.4629 106.166C51.8044 106.166 51.215 106.053 50.6948 105.826C50.1802 105.593 49.743 105.272 49.3833 104.863C49.0236 104.448 48.7497 103.964 48.5615 103.41C48.3734 102.857 48.2793 102.256 48.2793 101.609ZM50.2798 101.418V101.609C50.2798 102.013 50.3213 102.395 50.4043 102.754C50.4873 103.114 50.6174 103.43 50.7944 103.701C50.9715 103.972 51.1984 104.185 51.4751 104.34C51.7518 104.495 52.0811 104.572 52.4629 104.572C52.8337 104.572 53.1546 104.495 53.4258 104.34C53.7025 104.185 53.9294 103.972 54.1064 103.701C54.2835 103.43 54.4136 103.114 54.4966 102.754C54.5851 102.395 54.6294 102.013 54.6294 101.609V101.418C54.6294 101.02 54.5851 100.643 54.4966 100.289C54.4136 99.9294 54.2808 99.6112 54.0981 99.3345C53.9211 99.0578 53.6942 98.842 53.4175 98.687C53.1463 98.5265 52.8226 98.4463 52.4463 98.4463C52.07 98.4463 51.7435 98.5265 51.4668 98.687C51.1956 98.842 50.9715 99.0578 50.7944 99.3345C50.6174 99.6112 50.4873 99.9294 50.4043 100.289C50.3213 100.643 50.2798 101.02 50.2798 101.418ZM61.9756 104.572C62.3021 104.572 62.5954 104.509 62.8555 104.381C63.1211 104.249 63.3341 104.066 63.4946 103.833C63.6606 103.601 63.752 103.333 63.7686 103.028H65.6528C65.6418 103.609 65.4702 104.138 65.1382 104.614C64.8062 105.09 64.3662 105.469 63.8184 105.751C63.2705 106.028 62.6646 106.166 62.0005 106.166C61.3143 106.166 60.7166 106.05 60.2075 105.817C59.6984 105.579 59.2751 105.253 58.9375 104.838C58.5999 104.423 58.3454 103.944 58.1738 103.402C58.0078 102.86 57.9248 102.278 57.9248 101.659V101.368C57.9248 100.748 58.0078 100.167 58.1738 99.625C58.3454 99.0771 58.5999 98.5957 58.9375 98.1807C59.2751 97.7656 59.6984 97.4419 60.2075 97.2095C60.7166 96.9715 61.3115 96.8525 61.9922 96.8525C62.7116 96.8525 63.3424 96.9964 63.8848 97.2842C64.4271 97.5664 64.8532 97.9621 65.1631 98.4712C65.4785 98.9748 65.6418 99.5614 65.6528 100.231H63.7686C63.752 99.8989 63.6689 99.6001 63.5195 99.3345C63.3757 99.0633 63.1709 98.8475 62.9053 98.687C62.6452 98.5265 62.3325 98.4463 61.9673 98.4463C61.5633 98.4463 61.2285 98.5293 60.9629 98.6953C60.6973 98.8558 60.4897 99.0771 60.3403 99.3594C60.1909 99.6361 60.083 99.9487 60.0166 100.297C59.9557 100.64 59.9253 100.997 59.9253 101.368V101.659C59.9253 102.029 59.9557 102.389 60.0166 102.738C60.0775 103.086 60.1826 103.399 60.332 103.676C60.487 103.947 60.6973 104.166 60.9629 104.332C61.2285 104.492 61.5661 104.572 61.9756 104.572ZM71.3555 97.0186V106H69.3467V97.0186H71.3555ZM74.3022 97.0186V98.5957H66.4497V97.0186H74.3022ZM77.1245 99.874H79.7725C80.5472 99.874 81.2057 100.004 81.748 100.264C82.2904 100.524 82.7026 100.887 82.9849 101.352C83.2726 101.811 83.4165 102.337 83.4165 102.929C83.4165 103.366 83.3363 103.773 83.1758 104.149C83.0153 104.52 82.7773 104.843 82.4619 105.12C82.152 105.397 81.7702 105.613 81.3164 105.768C80.8682 105.923 80.3535 106 79.7725 106H75.7964V97.0186H77.8052V104.415H79.7725C80.1709 104.415 80.4891 104.345 80.7271 104.207C80.965 104.069 81.1366 103.889 81.2417 103.667C81.3524 103.446 81.4077 103.211 81.4077 102.962C81.4077 102.707 81.3524 102.467 81.2417 102.24C81.1366 102.013 80.965 101.827 80.7271 101.684C80.4891 101.54 80.1709 101.468 79.7725 101.468H77.1245V99.874ZM86.9526 97.0186V106H84.9521V97.0186H86.9526ZM93.2778 106.166C92.6138 106.166 92.0133 106.058 91.4766 105.842C90.9453 105.621 90.4915 105.314 90.1152 104.921C89.7445 104.528 89.4595 104.066 89.2603 103.535C89.061 103.003 88.9614 102.431 88.9614 101.816V101.484C88.9614 100.782 89.0638 100.145 89.2686 99.5752C89.4733 99.0052 89.7583 98.5182 90.1235 98.1143C90.4888 97.7048 90.9204 97.3921 91.4185 97.1763C91.9165 96.9604 92.4561 96.8525 93.0371 96.8525C93.679 96.8525 94.2407 96.9604 94.7222 97.1763C95.2036 97.3921 95.6021 97.6965 95.9175 98.0894C96.2384 98.4767 96.4764 98.9388 96.6313 99.4756C96.7918 100.012 96.8721 100.604 96.8721 101.252V102.107H89.9326V100.671H94.8965V100.513C94.8854 100.153 94.8135 99.8159 94.6807 99.5005C94.5534 99.1851 94.3569 98.9305 94.0913 98.7368C93.8257 98.5431 93.4715 98.4463 93.0288 98.4463C92.6968 98.4463 92.4007 98.5182 92.1406 98.6621C91.8861 98.8005 91.673 99.0024 91.5015 99.2681C91.3299 99.5337 91.1971 99.8547 91.103 100.231C91.0145 100.602 90.9702 101.02 90.9702 101.484V101.816C90.9702 102.209 91.0228 102.575 91.1279 102.912C91.2386 103.244 91.3991 103.535 91.6094 103.784C91.8197 104.033 92.0742 104.229 92.373 104.373C92.6719 104.511 93.0122 104.581 93.394 104.581C93.8755 104.581 94.3044 104.484 94.6807 104.29C95.057 104.096 95.3835 103.822 95.6602 103.468L96.7144 104.489C96.5207 104.771 96.2689 105.043 95.959 105.303C95.6491 105.557 95.27 105.765 94.8218 105.925C94.3791 106.086 93.8644 106.166 93.2778 106.166Z" fill="#00323D"/>
<path d="M205.345 93.9141V106H203.27V93.9141H205.345ZM212.617 93.9141L207.703 100.804H204.756L204.474 98.9941H206.549L210.068 93.9141H212.617ZM210.492 106L206.582 100.488L207.927 98.8862L212.99 106H210.492ZM215.862 98.7451V109.453H213.862V97.0186H215.705L215.862 98.7451ZM221.714 101.426V101.601C221.714 102.254 221.637 102.86 221.482 103.418C221.333 103.972 221.108 104.456 220.81 104.871C220.516 105.281 220.154 105.599 219.722 105.826C219.291 106.053 218.792 106.166 218.228 106.166C217.669 106.166 217.179 106.064 216.759 105.859C216.344 105.649 215.992 105.353 215.705 104.971C215.417 104.589 215.184 104.141 215.007 103.626C214.836 103.106 214.714 102.536 214.642 101.916V101.244C214.714 100.585 214.836 99.9875 215.007 99.4507C215.184 98.9139 215.417 98.4518 215.705 98.0645C215.992 97.6771 216.344 97.3783 216.759 97.168C217.174 96.9577 217.658 96.8525 218.211 96.8525C218.776 96.8525 219.277 96.9632 219.714 97.1846C220.151 97.4004 220.519 97.7103 220.818 98.1143C221.117 98.5127 221.341 98.9941 221.49 99.5586C221.64 100.118 221.714 100.74 221.714 101.426ZM219.714 101.601V101.426C219.714 101.011 219.675 100.627 219.598 100.272C219.52 99.9128 219.398 99.5973 219.232 99.3262C219.066 99.055 218.853 98.8447 218.593 98.6953C218.339 98.5404 218.032 98.4629 217.672 98.4629C217.318 98.4629 217.013 98.5238 216.759 98.6455C216.504 98.7617 216.291 98.925 216.12 99.1353C215.948 99.3455 215.815 99.5918 215.721 99.874C215.627 100.151 215.561 100.452 215.522 100.779V102.389C215.588 102.788 215.702 103.153 215.862 103.485C216.023 103.817 216.25 104.083 216.543 104.282C216.842 104.475 217.224 104.572 217.688 104.572C218.048 104.572 218.355 104.495 218.61 104.34C218.864 104.185 219.072 103.972 219.232 103.701C219.398 103.424 219.52 103.106 219.598 102.746C219.675 102.386 219.714 102.005 219.714 101.601ZM225.923 105.021L228.363 97.0186H230.505L226.902 107.37C226.819 107.591 226.711 107.832 226.579 108.092C226.446 108.352 226.271 108.598 226.056 108.831C225.845 109.069 225.583 109.259 225.267 109.403C224.952 109.553 224.57 109.627 224.122 109.627C223.944 109.627 223.773 109.611 223.607 109.578C223.446 109.55 223.294 109.52 223.15 109.486L223.142 107.959C223.197 107.965 223.264 107.97 223.341 107.976C223.424 107.981 223.491 107.984 223.541 107.984C223.873 107.984 224.149 107.942 224.371 107.859C224.592 107.782 224.772 107.655 224.91 107.478C225.054 107.3 225.176 107.062 225.275 106.764L225.923 105.021ZM224.545 97.0186L226.678 103.742L227.035 105.851L225.649 106.208L222.387 97.0186H224.545ZM237.627 97.0186V98.6123H233.709V106H231.708V97.0186H237.627ZM244.492 97.0186V98.6123H240.109V97.0186H244.492ZM246.061 97.0186V106H244.06V97.0186H246.061ZM239.619 97.0186H241.595L241.354 101.459C241.321 102.118 241.254 102.699 241.155 103.203C241.061 103.701 240.933 104.13 240.773 104.489C240.612 104.843 240.416 105.131 240.184 105.353C239.951 105.574 239.68 105.737 239.37 105.842C239.06 105.947 238.712 106 238.324 106H237.702L237.693 104.356L238.009 104.332C238.214 104.315 238.391 104.262 238.54 104.174C238.689 104.08 238.817 103.947 238.922 103.775C239.033 103.604 239.121 103.382 239.188 103.111C239.259 102.84 239.315 102.519 239.354 102.148C239.398 101.778 239.431 101.346 239.453 100.854L239.619 97.0186ZM249.671 99.874H252.319C253.094 99.874 253.753 100.004 254.295 100.264C254.837 100.524 255.25 100.887 255.532 101.352C255.819 101.811 255.963 102.337 255.963 102.929C255.963 103.366 255.883 103.773 255.723 104.149C255.562 104.52 255.324 104.843 255.009 105.12C254.699 105.397 254.317 105.613 253.863 105.768C253.415 105.923 252.9 106 252.319 106H248.343V97.0186H250.352V104.415H252.319C252.718 104.415 253.036 104.345 253.274 104.207C253.512 104.069 253.683 103.889 253.789 103.667C253.899 103.446 253.955 103.211 253.955 102.962C253.955 102.707 253.899 102.467 253.789 102.24C253.683 102.013 253.512 101.827 253.274 101.684C253.036 101.54 252.718 101.468 252.319 101.468H249.671V99.874ZM259.5 97.0186V106H257.499V97.0186H259.5ZM265.825 106.166C265.161 106.166 264.56 106.058 264.023 105.842C263.492 105.621 263.038 105.314 262.662 104.921C262.291 104.528 262.006 104.066 261.807 103.535C261.608 103.003 261.508 102.431 261.508 101.816V101.484C261.508 100.782 261.611 100.145 261.815 99.5752C262.02 99.0052 262.305 98.5182 262.67 98.1143C263.036 97.7048 263.467 97.3921 263.965 97.1763C264.463 96.9604 265.003 96.8525 265.584 96.8525C266.226 96.8525 266.788 96.9604 267.269 97.1763C267.75 97.3921 268.149 97.6965 268.464 98.0894C268.785 98.4767 269.023 98.9388 269.178 99.4756C269.339 100.012 269.419 100.604 269.419 101.252V102.107H262.479V100.671H267.443V100.513C267.432 100.153 267.36 99.8159 267.228 99.5005C267.1 99.1851 266.904 98.9305 266.638 98.7368C266.373 98.5431 266.018 98.4463 265.576 98.4463C265.244 98.4463 264.948 98.5182 264.688 98.6621C264.433 98.8005 264.22 99.0024 264.048 99.2681C263.877 99.5337 263.744 99.8547 263.65 100.231C263.561 100.602 263.517 101.02 263.517 101.484V101.816C263.517 102.209 263.57 102.575 263.675 102.912C263.785 103.244 263.946 103.535 264.156 103.784C264.367 104.033 264.621 104.229 264.92 104.373C265.219 104.511 265.559 104.581 265.941 104.581C266.422 104.581 266.851 104.484 267.228 104.29C267.604 104.096 267.93 103.822 268.207 103.468L269.261 104.489C269.068 104.771 268.816 105.043 268.506 105.303C268.196 105.557 267.817 105.765 267.369 105.925C266.926 106.086 266.411 106.166 265.825 106.166Z" fill="#00323D"/>
<path d="M10.8657 247.625V248.289C10.8657 249.202 10.7467 250.021 10.5088 250.746C10.2708 251.471 9.9305 252.088 9.48779 252.597C9.05062 253.106 8.5249 253.496 7.91064 253.768C7.29639 254.033 6.61572 254.166 5.86865 254.166C5.12712 254.166 4.44922 254.033 3.83496 253.768C3.22624 253.496 2.69775 253.106 2.24951 252.597C1.80127 252.088 1.45264 251.471 1.20361 250.746C0.960124 250.021 0.838379 249.202 0.838379 248.289V247.625C0.838379 246.712 0.960124 245.896 1.20361 245.176C1.4471 244.451 1.7902 243.834 2.23291 243.325C2.68115 242.811 3.20964 242.42 3.81836 242.155C4.43262 241.884 5.11051 241.748 5.85205 241.748C6.59912 241.748 7.27979 241.884 7.89404 242.155C8.5083 242.42 9.03678 242.811 9.47949 243.325C9.9222 243.834 10.2625 244.451 10.5005 245.176C10.744 245.896 10.8657 246.712 10.8657 247.625ZM8.78223 248.289V247.608C8.78223 246.933 8.71582 246.338 8.58301 245.824C8.45573 245.304 8.26481 244.869 8.01025 244.521C7.76123 244.166 7.4541 243.901 7.08887 243.724C6.72363 243.541 6.31136 243.45 5.85205 243.45C5.39274 243.45 4.98324 243.541 4.62354 243.724C4.26383 243.901 3.95671 244.166 3.70215 244.521C3.45312 244.869 3.26221 245.304 3.12939 245.824C2.99658 246.338 2.93018 246.933 2.93018 247.608V248.289C2.93018 248.964 2.99658 249.562 3.12939 250.082C3.26221 250.602 3.45589 251.042 3.71045 251.402C3.97054 251.756 4.28044 252.024 4.64014 252.207C4.99984 252.384 5.40934 252.473 5.86865 252.473C6.3335 252.473 6.74577 252.384 7.10547 252.207C7.46517 252.024 7.76953 251.756 8.01855 251.402C8.26758 251.042 8.45573 250.602 8.58301 250.082C8.71582 249.562 8.78223 248.964 8.78223 248.289ZM16.4189 252.572C16.7454 252.572 17.0387 252.509 17.2988 252.381C17.5645 252.249 17.7775 252.066 17.938 251.833C18.104 251.601 18.1953 251.333 18.2119 251.028H20.0962C20.0851 251.609 19.9136 252.138 19.5815 252.614C19.2495 253.09 18.8096 253.469 18.2617 253.751C17.7139 254.028 17.1079 254.166 16.4438 254.166C15.7576 254.166 15.16 254.05 14.6509 253.817C14.1418 253.579 13.7184 253.253 13.3809 252.838C13.0433 252.423 12.7887 251.944 12.6172 251.402C12.4512 250.86 12.3682 250.278 12.3682 249.659V249.368C12.3682 248.748 12.4512 248.167 12.6172 247.625C12.7887 247.077 13.0433 246.596 13.3809 246.181C13.7184 245.766 14.1418 245.442 14.6509 245.209C15.16 244.972 15.7549 244.853 16.4355 244.853C17.1549 244.853 17.7858 244.996 18.3281 245.284C18.8704 245.566 19.2965 245.962 19.6064 246.471C19.9219 246.975 20.0851 247.561 20.0962 248.231H18.2119C18.1953 247.899 18.1123 247.6 17.9629 247.334C17.819 247.063 17.6143 246.847 17.3486 246.687C17.0885 246.527 16.7759 246.446 16.4106 246.446C16.0067 246.446 15.6719 246.529 15.4062 246.695C15.1406 246.856 14.9331 247.077 14.7837 247.359C14.6343 247.636 14.5264 247.949 14.46 248.297C14.3991 248.64 14.3687 248.997 14.3687 249.368V249.659C14.3687 250.029 14.3991 250.389 14.46 250.738C14.5208 251.086 14.626 251.399 14.7754 251.676C14.9303 251.947 15.1406 252.166 15.4062 252.332C15.6719 252.492 16.0094 252.572 16.4189 252.572ZM25.7988 245.019V254H23.79V245.019H25.7988ZM28.7456 245.019V246.596H20.8931V245.019H28.7456ZM32.0908 246.745V257.453H30.0903V245.019H31.9331L32.0908 246.745ZM37.9429 249.426V249.601C37.9429 250.254 37.8654 250.86 37.7104 251.418C37.561 251.972 37.3369 252.456 37.0381 252.871C36.7448 253.281 36.3823 253.599 35.9507 253.826C35.519 254.053 35.021 254.166 34.4565 254.166C33.8976 254.166 33.4079 254.064 32.9873 253.859C32.5723 253.649 32.2209 253.353 31.9331 252.971C31.6453 252.589 31.4129 252.141 31.2358 251.626C31.0643 251.106 30.9425 250.536 30.8706 249.916V249.244C30.9425 248.585 31.0643 247.987 31.2358 247.451C31.4129 246.914 31.6453 246.452 31.9331 246.064C32.2209 245.677 32.5723 245.378 32.9873 245.168C33.4023 244.958 33.8866 244.853 34.4399 244.853C35.0044 244.853 35.5052 244.963 35.9424 245.185C36.3796 245.4 36.7476 245.71 37.0464 246.114C37.3452 246.513 37.5693 246.994 37.7188 247.559C37.8682 248.118 37.9429 248.74 37.9429 249.426ZM35.9424 249.601V249.426C35.9424 249.011 35.9036 248.627 35.8262 248.272C35.7487 247.913 35.627 247.597 35.4609 247.326C35.2949 247.055 35.0819 246.845 34.8218 246.695C34.5672 246.54 34.2601 246.463 33.9004 246.463C33.5462 246.463 33.2419 246.524 32.9873 246.646C32.7327 246.762 32.5197 246.925 32.3481 247.135C32.1766 247.346 32.0438 247.592 31.9497 247.874C31.8556 248.151 31.7892 248.452 31.7505 248.779V250.389C31.8169 250.788 31.9303 251.153 32.0908 251.485C32.2513 251.817 32.4782 252.083 32.7715 252.282C33.0703 252.475 33.4521 252.572 33.917 252.572C34.2767 252.572 34.5838 252.495 34.8384 252.34C35.0929 252.185 35.3005 251.972 35.4609 251.701C35.627 251.424 35.7487 251.106 35.8262 250.746C35.9036 250.386 35.9424 250.005 35.9424 249.601ZM39.2627 249.609V249.418C39.2627 248.771 39.3568 248.17 39.5449 247.617C39.7331 247.058 40.0042 246.574 40.3584 246.164C40.7181 245.749 41.1553 245.428 41.6699 245.201C42.1901 244.969 42.7767 244.853 43.4297 244.853C44.0882 244.853 44.6748 244.969 45.1895 245.201C45.7096 245.428 46.1496 245.749 46.5093 246.164C46.869 246.574 47.1429 247.058 47.3311 247.617C47.5192 248.17 47.6133 248.771 47.6133 249.418V249.609C47.6133 250.256 47.5192 250.857 47.3311 251.41C47.1429 251.964 46.869 252.448 46.5093 252.863C46.1496 253.272 45.7124 253.593 45.1978 253.826C44.6831 254.053 44.0993 254.166 43.4463 254.166C42.7878 254.166 42.1984 254.053 41.6782 253.826C41.1636 253.593 40.7264 253.272 40.3667 252.863C40.007 252.448 39.7331 251.964 39.5449 251.41C39.3568 250.857 39.2627 250.256 39.2627 249.609ZM41.2632 249.418V249.609C41.2632 250.013 41.3047 250.395 41.3877 250.754C41.4707 251.114 41.6007 251.43 41.7778 251.701C41.9549 251.972 42.1818 252.185 42.4585 252.34C42.7352 252.495 43.0645 252.572 43.4463 252.572C43.8171 252.572 44.138 252.495 44.4092 252.34C44.6859 252.185 44.9128 251.972 45.0898 251.701C45.2669 251.43 45.397 251.114 45.48 250.754C45.5685 250.395 45.6128 250.013 45.6128 249.609V249.418C45.6128 249.02 45.5685 248.643 45.48 248.289C45.397 247.929 45.2642 247.611 45.0815 247.334C44.9045 247.058 44.6776 246.842 44.4009 246.687C44.1297 246.527 43.806 246.446 43.4297 246.446C43.0534 246.446 42.7269 246.527 42.4502 246.687C42.179 246.842 41.9549 247.058 41.7778 247.334C41.6007 247.611 41.4707 247.929 41.3877 248.289C41.3047 248.643 41.2632 249.02 41.2632 249.418ZM51.7637 253.021L54.2041 245.019H56.3457L52.7432 255.37C52.6602 255.591 52.5522 255.832 52.4194 256.092C52.2866 256.352 52.1123 256.598 51.8965 256.831C51.6862 257.069 51.4233 257.259 51.1079 257.403C50.7925 257.553 50.4106 257.627 49.9624 257.627C49.7853 257.627 49.6138 257.611 49.4478 257.578C49.2873 257.55 49.1351 257.52 48.9912 257.486L48.9829 255.959C49.0382 255.965 49.1047 255.97 49.1821 255.976C49.2651 255.981 49.3315 255.984 49.3813 255.984C49.7134 255.984 49.9901 255.942 50.2114 255.859C50.4328 255.782 50.6126 255.655 50.751 255.478C50.8949 255.3 51.0166 255.062 51.1162 254.764L51.7637 253.021ZM50.3857 245.019L52.519 251.742L52.876 253.851L51.4897 254.208L48.2275 245.019H50.3857ZM63.4678 245.019V246.612H59.5498V254H57.5493V245.019H63.4678ZM64.082 249.609V249.418C64.082 248.771 64.1761 248.17 64.3643 247.617C64.5524 247.058 64.8236 246.574 65.1777 246.164C65.5374 245.749 65.9746 245.428 66.4893 245.201C67.0094 244.969 67.596 244.853 68.249 244.853C68.9076 244.853 69.4941 244.969 70.0088 245.201C70.529 245.428 70.9689 245.749 71.3286 246.164C71.6883 246.574 71.9622 247.058 72.1504 247.617C72.3385 248.17 72.4326 248.771 72.4326 249.418V249.609C72.4326 250.256 72.3385 250.857 72.1504 251.41C71.9622 251.964 71.6883 252.448 71.3286 252.863C70.9689 253.272 70.5317 253.593 70.0171 253.826C69.5024 254.053 68.9186 254.166 68.2656 254.166C67.6071 254.166 67.0177 254.053 66.4976 253.826C65.9829 253.593 65.5457 253.272 65.186 252.863C64.8263 252.448 64.5524 251.964 64.3643 251.41C64.1761 250.857 64.082 250.256 64.082 249.609ZM66.0825 249.418V249.609C66.0825 250.013 66.124 250.395 66.207 250.754C66.29 251.114 66.4201 251.43 66.5972 251.701C66.7743 251.972 67.0011 252.185 67.2778 252.34C67.5545 252.495 67.8838 252.572 68.2656 252.572C68.6364 252.572 68.9574 252.495 69.2285 252.34C69.5052 252.185 69.7321 251.972 69.9092 251.701C70.0863 251.43 70.2163 251.114 70.2993 250.754C70.3879 250.395 70.4321 250.013 70.4321 249.609V249.418C70.4321 249.02 70.3879 248.643 70.2993 248.289C70.2163 247.929 70.0835 247.611 69.9009 247.334C69.7238 247.058 69.4969 246.842 69.2202 246.687C68.9491 246.527 68.6253 246.446 68.249 246.446C67.8727 246.446 67.5462 246.527 67.2695 246.687C66.9984 246.842 66.7743 247.058 66.5972 247.334C66.4201 247.611 66.29 247.929 66.207 248.289C66.124 248.643 66.0825 249.02 66.0825 249.418ZM80.0112 245.019V246.612H75.6284V245.019H80.0112ZM81.5801 245.019V254H79.5796V245.019H81.5801ZM75.1387 245.019H77.1143L76.8735 249.459C76.8403 250.118 76.7739 250.699 76.6743 251.203C76.5802 251.701 76.453 252.13 76.2925 252.489C76.132 252.843 75.9355 253.131 75.7031 253.353C75.4707 253.574 75.1995 253.737 74.8896 253.842C74.5798 253.947 74.2311 254 73.8438 254H73.2212L73.2129 252.356L73.5283 252.332C73.7331 252.315 73.9102 252.262 74.0596 252.174C74.209 252.08 74.3363 251.947 74.4414 251.775C74.5521 251.604 74.6406 251.382 74.707 251.111C74.779 250.84 74.8343 250.519 74.873 250.148C74.9173 249.778 74.9505 249.346 74.9727 248.854L75.1387 245.019ZM85.1909 247.874H87.8389C88.6136 247.874 89.2721 248.004 89.8145 248.264C90.3568 248.524 90.769 248.887 91.0513 249.352C91.339 249.811 91.4829 250.337 91.4829 250.929C91.4829 251.366 91.4027 251.773 91.2422 252.149C91.0817 252.52 90.8438 252.843 90.5283 253.12C90.2184 253.397 89.8366 253.613 89.3828 253.768C88.9346 253.923 88.4199 254 87.8389 254H83.8628V245.019H85.8716V252.415H87.8389C88.2373 252.415 88.5555 252.345 88.7935 252.207C89.0314 252.069 89.203 251.889 89.3081 251.667C89.4188 251.446 89.4741 251.211 89.4741 250.962C89.4741 250.707 89.4188 250.467 89.3081 250.24C89.203 250.013 89.0314 249.827 88.7935 249.684C88.5555 249.54 88.2373 249.468 87.8389 249.468H85.1909V247.874ZM99.2192 248.771V250.348H94.5708V248.771H99.2192ZM95.1519 245.019V254H93.1514V245.019H95.1519ZM100.664 245.019V254H98.6631V245.019H100.664ZM104.283 247.874H106.931C107.705 247.874 108.364 248.004 108.906 248.264C109.449 248.524 109.861 248.887 110.143 249.352C110.431 249.811 110.575 250.337 110.575 250.929C110.575 251.366 110.494 251.773 110.334 252.149C110.174 252.52 109.936 252.843 109.62 253.12C109.31 253.397 108.928 253.613 108.475 253.768C108.026 253.923 107.512 254 106.931 254H102.955V245.019H104.963V252.415H106.931C107.329 252.415 107.647 252.345 107.885 252.207C108.123 252.069 108.295 251.889 108.4 251.667C108.511 251.446 108.566 251.211 108.566 250.962C108.566 250.707 108.511 250.467 108.4 250.24C108.295 250.013 108.123 249.827 107.885 249.684C107.647 249.54 107.329 249.468 106.931 249.468H104.283V247.874ZM114.111 245.019V254H112.11V245.019H114.111ZM120.436 254.166C119.772 254.166 119.172 254.058 118.635 253.842C118.104 253.621 117.65 253.314 117.273 252.921C116.903 252.528 116.618 252.066 116.418 251.535C116.219 251.003 116.12 250.431 116.12 249.816V249.484C116.12 248.782 116.222 248.145 116.427 247.575C116.632 247.005 116.917 246.518 117.282 246.114C117.647 245.705 118.079 245.392 118.577 245.176C119.075 244.96 119.614 244.853 120.195 244.853C120.837 244.853 121.399 244.96 121.88 245.176C122.362 245.392 122.76 245.696 123.076 246.089C123.397 246.477 123.635 246.939 123.79 247.476C123.95 248.012 124.03 248.604 124.03 249.252V250.107H117.091V248.671H122.055V248.513C122.044 248.153 121.972 247.816 121.839 247.5C121.712 247.185 121.515 246.931 121.25 246.737C120.984 246.543 120.63 246.446 120.187 246.446C119.855 246.446 119.559 246.518 119.299 246.662C119.044 246.8 118.831 247.002 118.66 247.268C118.488 247.534 118.355 247.855 118.261 248.231C118.173 248.602 118.128 249.02 118.128 249.484V249.816C118.128 250.209 118.181 250.575 118.286 250.912C118.397 251.244 118.557 251.535 118.768 251.784C118.978 252.033 119.232 252.229 119.531 252.373C119.83 252.511 120.17 252.581 120.552 252.581C121.034 252.581 121.463 252.484 121.839 252.29C122.215 252.096 122.542 251.822 122.818 251.468L123.873 252.489C123.679 252.771 123.427 253.043 123.117 253.303C122.807 253.557 122.428 253.765 121.98 253.925C121.537 254.086 121.023 254.166 120.436 254.166Z" fill="#00323D"/>
<path d="M177.367 249.96H179.442C179.376 250.751 179.155 251.457 178.778 252.077C178.402 252.691 177.874 253.175 177.193 253.529C176.512 253.883 175.685 254.061 174.711 254.061C173.964 254.061 173.292 253.928 172.694 253.662C172.096 253.391 171.584 253.009 171.158 252.517C170.732 252.019 170.406 251.418 170.179 250.715C169.957 250.013 169.847 249.227 169.847 248.358V247.354C169.847 246.485 169.96 245.699 170.187 244.996C170.419 244.293 170.751 243.693 171.183 243.195C171.615 242.691 172.132 242.307 172.735 242.041C173.344 241.775 174.028 241.643 174.786 241.643C175.749 241.643 176.562 241.82 177.226 242.174C177.89 242.528 178.405 243.018 178.77 243.643C179.141 244.268 179.368 244.985 179.451 245.793H177.375C177.32 245.273 177.198 244.827 177.01 244.457C176.828 244.086 176.556 243.804 176.197 243.61C175.837 243.411 175.367 243.311 174.786 243.311C174.31 243.311 173.895 243.4 173.541 243.577C173.186 243.754 172.89 244.014 172.652 244.357C172.414 244.7 172.235 245.123 172.113 245.627C171.997 246.125 171.938 246.695 171.938 247.337V248.358C171.938 248.967 171.991 249.52 172.096 250.018C172.207 250.511 172.373 250.934 172.594 251.288C172.821 251.642 173.109 251.916 173.458 252.11C173.806 252.304 174.224 252.4 174.711 252.4C175.303 252.4 175.782 252.306 176.147 252.118C176.518 251.93 176.797 251.656 176.985 251.296C177.179 250.931 177.306 250.486 177.367 249.96ZM180.754 249.503V249.312C180.754 248.665 180.848 248.065 181.036 247.511C181.224 246.952 181.495 246.468 181.85 246.059C182.209 245.644 182.646 245.323 183.161 245.096C183.681 244.863 184.268 244.747 184.921 244.747C185.579 244.747 186.166 244.863 186.681 245.096C187.201 245.323 187.641 245.644 188 246.059C188.36 246.468 188.634 246.952 188.822 247.511C189.01 248.065 189.104 248.665 189.104 249.312V249.503C189.104 250.151 189.01 250.751 188.822 251.305C188.634 251.858 188.36 252.342 188 252.757C187.641 253.167 187.204 253.488 186.689 253.72C186.174 253.947 185.59 254.061 184.938 254.061C184.279 254.061 183.69 253.947 183.169 253.72C182.655 253.488 182.218 253.167 181.858 252.757C181.498 252.342 181.224 251.858 181.036 251.305C180.848 250.751 180.754 250.151 180.754 249.503ZM182.754 249.312V249.503C182.754 249.907 182.796 250.289 182.879 250.649C182.962 251.009 183.092 251.324 183.269 251.595C183.446 251.866 183.673 252.079 183.95 252.234C184.226 252.389 184.556 252.467 184.938 252.467C185.308 252.467 185.629 252.389 185.9 252.234C186.177 252.079 186.404 251.866 186.581 251.595C186.758 251.324 186.888 251.009 186.971 250.649C187.06 250.289 187.104 249.907 187.104 249.503V249.312C187.104 248.914 187.06 248.538 186.971 248.184C186.888 247.824 186.755 247.506 186.573 247.229C186.396 246.952 186.169 246.736 185.892 246.582C185.621 246.421 185.297 246.341 184.921 246.341C184.545 246.341 184.218 246.421 183.941 246.582C183.67 246.736 183.446 246.952 183.269 247.229C183.092 247.506 182.962 247.824 182.879 248.184C182.796 248.538 182.754 248.914 182.754 249.312ZM194.741 254.061C194.077 254.061 193.476 253.953 192.939 253.737C192.408 253.515 191.954 253.208 191.578 252.815C191.207 252.423 190.922 251.96 190.723 251.429C190.524 250.898 190.424 250.325 190.424 249.711V249.379C190.424 248.676 190.527 248.04 190.731 247.47C190.936 246.9 191.221 246.413 191.586 246.009C191.952 245.599 192.383 245.287 192.881 245.071C193.379 244.855 193.919 244.747 194.5 244.747C195.142 244.747 195.704 244.855 196.185 245.071C196.667 245.287 197.065 245.591 197.38 245.984C197.701 246.371 197.939 246.833 198.094 247.37C198.255 247.907 198.335 248.499 198.335 249.146V250.001H191.396V248.565H196.359V248.408C196.348 248.048 196.276 247.71 196.144 247.395C196.016 247.08 195.82 246.825 195.554 246.631C195.289 246.438 194.934 246.341 194.492 246.341C194.16 246.341 193.864 246.413 193.604 246.557C193.349 246.695 193.136 246.897 192.964 247.163C192.793 247.428 192.66 247.749 192.566 248.125C192.477 248.496 192.433 248.914 192.433 249.379V249.711C192.433 250.104 192.486 250.469 192.591 250.807C192.701 251.139 192.862 251.429 193.072 251.678C193.283 251.927 193.537 252.124 193.836 252.268C194.135 252.406 194.475 252.475 194.857 252.475C195.338 252.475 195.767 252.378 196.144 252.185C196.52 251.991 196.846 251.717 197.123 251.363L198.177 252.384C197.984 252.666 197.732 252.937 197.422 253.197C197.112 253.452 196.733 253.659 196.285 253.82C195.842 253.98 195.327 254.061 194.741 254.061ZM201.522 244.913H203.523L203.423 248.076C203.396 248.994 203.291 249.783 203.108 250.441C202.925 251.1 202.687 251.656 202.394 252.11C202.101 252.558 201.769 252.926 201.398 253.214C201.033 253.502 200.648 253.729 200.244 253.895H199.655V252.317L199.937 252.301C200.175 252.046 200.38 251.792 200.551 251.537C200.728 251.277 200.878 250.992 201 250.682C201.121 250.367 201.215 249.999 201.282 249.578C201.354 249.158 201.401 248.657 201.423 248.076L201.522 244.913ZM202.054 244.913H207.748V253.895H205.756V246.606H202.054V244.913ZM199.198 252.301H208.977V256.567H206.976V253.895H201.224V256.567H199.19L199.198 252.301ZM212.421 250.973L215.949 244.913H217.95V253.895H215.949V247.827L212.421 253.895H210.421V244.913H212.421V250.973ZM226.201 248.665V250.242H221.552V248.665H226.201ZM222.133 244.913V253.895H220.133V244.913H222.133ZM227.645 244.913V253.895H225.645V244.913H227.645ZM231.671 249.503H233.746L231.198 253.895H229.131L231.671 249.503ZM233.132 244.913H236.983V253.895H234.991V246.49H233.132C232.756 246.49 232.446 246.557 232.202 246.689C231.959 246.817 231.779 246.986 231.663 247.196C231.546 247.401 231.488 247.611 231.488 247.827C231.488 248.042 231.541 248.25 231.646 248.449C231.757 248.648 231.925 248.812 232.152 248.939C232.385 249.066 232.675 249.13 233.024 249.13H235.664V250.591H233.024C232.471 250.591 231.975 250.522 231.538 250.383C231.101 250.239 230.73 250.043 230.426 249.794C230.121 249.539 229.889 249.243 229.729 248.906C229.568 248.563 229.488 248.189 229.488 247.785C229.488 247.37 229.571 246.988 229.737 246.64C229.903 246.291 230.141 245.987 230.451 245.727C230.766 245.466 231.148 245.267 231.596 245.129C232.05 244.985 232.562 244.913 233.132 244.913ZM244.496 248.541V250.134H239.681V248.541H244.496ZM241.391 244.913V253.895H239.391V244.913H241.391ZM243.018 249.503V249.312C243.018 248.665 243.112 248.065 243.3 247.511C243.488 246.952 243.762 246.468 244.122 246.059C244.482 245.644 244.919 245.323 245.434 245.096C245.948 244.863 246.532 244.747 247.185 244.747C247.849 244.747 248.438 244.863 248.953 245.096C249.473 245.323 249.913 245.644 250.273 246.059C250.633 246.468 250.907 246.952 251.095 247.511C251.283 248.065 251.377 248.665 251.377 249.312V249.503C251.377 250.151 251.283 250.751 251.095 251.305C250.907 251.858 250.633 252.342 250.273 252.757C249.919 253.167 249.482 253.488 248.961 253.72C248.447 253.947 247.86 254.061 247.202 254.061C246.543 254.061 245.957 253.947 245.442 253.72C244.927 253.488 244.487 253.167 244.122 252.757C243.762 252.342 243.488 251.858 243.3 251.305C243.112 250.751 243.018 250.151 243.018 249.503ZM245.027 249.312V249.503C245.027 249.907 245.068 250.289 245.151 250.649C245.234 251.009 245.364 251.324 245.542 251.595C245.719 251.866 245.945 252.079 246.222 252.234C246.499 252.389 246.825 252.467 247.202 252.467C247.578 252.467 247.902 252.389 248.173 252.234C248.45 252.079 248.676 251.866 248.854 251.595C249.031 251.324 249.161 251.009 249.244 250.649C249.332 250.289 249.376 249.907 249.376 249.503V249.312C249.376 248.914 249.332 248.538 249.244 248.184C249.161 247.824 249.031 247.506 248.854 247.229C248.676 246.952 248.45 246.736 248.173 246.582C247.896 246.421 247.567 246.341 247.185 246.341C246.814 246.341 246.491 246.421 246.214 246.582C245.943 246.736 245.719 246.952 245.542 247.229C245.364 247.506 245.234 247.824 245.151 248.184C245.068 248.538 245.027 248.914 245.027 249.312ZM266.31 252.309L266.152 256.559H264.318V253.895H263.239V252.309H266.31ZM253.045 244.913H255.046V252.301H257.901V244.913H259.91V252.301H262.757V244.913H264.758V253.895H253.045V244.913ZM269.863 250.973L273.391 244.913H275.391V253.895H273.391V247.827L269.863 253.895H267.862V244.913H269.863V250.973ZM281.467 254.061C280.803 254.061 280.203 253.953 279.666 253.737C279.135 253.515 278.681 253.208 278.305 252.815C277.934 252.423 277.649 251.96 277.45 251.429C277.25 250.898 277.151 250.325 277.151 249.711V249.379C277.151 248.676 277.253 248.04 277.458 247.47C277.663 246.9 277.948 246.413 278.313 246.009C278.678 245.599 279.11 245.287 279.608 245.071C280.106 244.855 280.646 244.747 281.227 244.747C281.868 244.747 282.43 244.855 282.912 245.071C283.393 245.287 283.792 245.591 284.107 245.984C284.428 246.371 284.666 246.833 284.821 247.37C284.981 247.907 285.062 248.499 285.062 249.146V250.001H278.122V248.565H283.086V248.408C283.075 248.048 283.003 247.71 282.87 247.395C282.743 247.08 282.546 246.825 282.281 246.631C282.015 246.438 281.661 246.341 281.218 246.341C280.886 246.341 280.59 246.413 280.33 246.557C280.076 246.695 279.862 246.897 279.691 247.163C279.519 247.428 279.387 247.749 279.292 248.125C279.204 248.496 279.16 248.914 279.16 249.379V249.711C279.16 250.104 279.212 250.469 279.317 250.807C279.428 251.139 279.589 251.429 279.799 251.678C280.009 251.927 280.264 252.124 280.562 252.268C280.861 252.406 281.202 252.475 281.583 252.475C282.065 252.475 282.494 252.378 282.87 252.185C283.246 251.991 283.573 251.717 283.85 251.363L284.904 252.384C284.71 252.666 284.458 252.937 284.148 253.197C283.839 253.452 283.459 253.659 283.011 253.82C282.569 253.98 282.054 254.061 281.467 254.061ZM290.291 252.467C290.618 252.467 290.911 252.403 291.171 252.276C291.437 252.143 291.65 251.96 291.81 251.728C291.976 251.496 292.067 251.227 292.084 250.923H293.968C293.957 251.504 293.786 252.032 293.454 252.508C293.122 252.984 292.682 253.363 292.134 253.646C291.586 253.922 290.98 254.061 290.316 254.061C289.63 254.061 289.032 253.944 288.523 253.712C288.014 253.474 287.59 253.147 287.253 252.732C286.915 252.317 286.661 251.839 286.489 251.296C286.323 250.754 286.24 250.173 286.24 249.553V249.263C286.24 248.643 286.323 248.062 286.489 247.52C286.661 246.972 286.915 246.49 287.253 246.075C287.59 245.66 288.014 245.336 288.523 245.104C289.032 244.866 289.627 244.747 290.308 244.747C291.027 244.747 291.658 244.891 292.2 245.179C292.743 245.461 293.169 245.857 293.479 246.366C293.794 246.869 293.957 247.456 293.968 248.125H292.084C292.067 247.793 291.984 247.495 291.835 247.229C291.691 246.958 291.486 246.742 291.221 246.582C290.961 246.421 290.648 246.341 290.283 246.341C289.879 246.341 289.544 246.424 289.278 246.59C289.013 246.75 288.805 246.972 288.656 247.254C288.506 247.531 288.398 247.843 288.332 248.192C288.271 248.535 288.241 248.892 288.241 249.263V249.553C288.241 249.924 288.271 250.284 288.332 250.632C288.393 250.981 288.498 251.294 288.647 251.57C288.802 251.841 289.013 252.06 289.278 252.226C289.544 252.387 289.882 252.467 290.291 252.467ZM297.396 249.503H299.472L296.923 253.895H294.856L297.396 249.503ZM298.857 244.913H302.709V253.895H300.717V246.49H298.857C298.481 246.49 298.171 246.557 297.928 246.689C297.684 246.817 297.504 246.986 297.388 247.196C297.272 247.401 297.214 247.611 297.214 247.827C297.214 248.042 297.266 248.25 297.372 248.449C297.482 248.648 297.651 248.812 297.878 248.939C298.11 249.066 298.401 249.13 298.75 249.13H301.389V250.591H298.75C298.196 250.591 297.701 250.522 297.264 250.383C296.826 250.239 296.456 250.043 296.151 249.794C295.847 249.539 295.615 249.243 295.454 248.906C295.294 248.563 295.213 248.189 295.213 247.785C295.213 247.37 295.296 246.988 295.462 246.64C295.628 246.291 295.866 245.987 296.176 245.727C296.492 245.466 296.874 245.267 297.322 245.129C297.776 244.985 298.287 244.913 298.857 244.913Z" fill="#00323D"/>
</svg>
