<svg viewBox="0 0 124 98" fill="none" xmlns="http://www.w3.org/2000/svg">
<path d="M70.2494 50.2817L70.1815 52.2543H69.356V51H68.8915V50.2817H70.2494ZM65.5074 51V45.7971H66.4079V50.2889H68.7128V45.7971H69.6133V51H65.5074ZM71.7931 49.7422L73.3118 47.1335H74.173V51H73.3118V48.3878L71.7931 51H70.9319V47.1335H71.7931V49.7422ZM77.6821 47.1335V47.8196H75.7953V47.1335H77.6821ZM78.3575 47.1335V51H77.4963V47.1335H78.3575ZM75.5845 47.1335H76.435L76.3314 49.0453C76.3171 49.3288 76.2885 49.579 76.2456 49.7958C76.2051 50.0102 76.1503 50.1948 76.0812 50.3496C76.0121 50.5021 75.9276 50.626 75.8275 50.7213C75.7275 50.8166 75.6107 50.8868 75.4773 50.9321C75.3439 50.9774 75.1938 51 75.0271 51H74.759L74.7555 50.2925L74.8913 50.2817C74.9794 50.2746 75.0556 50.252 75.12 50.2138C75.1843 50.1733 75.2391 50.1162 75.2843 50.0423C75.332 49.9685 75.3701 49.8732 75.3987 49.7564C75.4297 49.6397 75.4535 49.5015 75.4702 49.3419C75.4892 49.1823 75.5035 48.9965 75.513 48.7845L75.5845 47.1335ZM80.1621 49.7422L81.6808 47.1335H82.542V51H81.6808V48.3878L80.1621 51H79.3009V47.1335H80.1621V49.7422ZM86.094 48.7487V49.4277H84.0929V48.7487H86.094ZM84.343 47.1335V51H83.4818V47.1335H84.343ZM86.7158 47.1335V51H85.8546V47.1335H86.7158ZM88.3345 47.1335H89.1957L89.1528 48.495C89.1409 48.8905 89.0957 49.23 89.0171 49.5135C88.9384 49.7969 88.836 50.0364 88.7097 50.2317C88.5835 50.4247 88.4405 50.5831 88.2809 50.707C88.1237 50.8309 87.9581 50.9285 87.7842 51H87.5305V50.321L87.652 50.3139C87.7544 50.2043 87.8426 50.0947 87.9164 49.9851C87.9927 49.8732 88.057 49.7505 88.1094 49.6171C88.1618 49.4813 88.2023 49.3229 88.2309 49.1418C88.2619 48.9608 88.2821 48.7452 88.2916 48.495L88.3345 47.1335ZM88.5632 47.1335H91.0146V51H90.157V47.8625H88.5632V47.1335ZM87.334 50.3139H91.5435V52.1506H90.6823V51H88.2059V52.1506H87.3304L87.334 50.3139ZM93.0014 47.8768V52.4865H92.1402V47.1335H92.9335L93.0014 47.8768ZM95.5207 49.031V49.1061C95.5207 49.3872 95.4874 49.6481 95.4207 49.8887C95.3563 50.1269 95.2598 50.3353 95.1312 50.514C95.0049 50.6903 94.8489 50.8273 94.6631 50.925C94.4773 51.0226 94.2629 51.0715 94.0199 51.0715C93.7793 51.0715 93.5684 51.0274 93.3874 50.9393C93.2087 50.8487 93.0574 50.7213 92.9335 50.5569C92.8097 50.3925 92.7096 50.1996 92.6334 49.978C92.5595 49.7541 92.5071 49.5087 92.4761 49.2419V48.9524C92.5071 48.6689 92.5595 48.4116 92.6334 48.1806C92.7096 47.9495 92.8097 47.7506 92.9335 47.5838C93.0574 47.417 93.2087 47.2884 93.3874 47.1979C93.566 47.1073 93.7745 47.0621 94.0127 47.0621C94.2557 47.0621 94.4713 47.1097 94.6595 47.205C94.8477 47.2979 95.0061 47.4313 95.1348 47.6052C95.2634 47.7768 95.3599 47.984 95.4242 48.227C95.4885 48.4676 95.5207 48.7356 95.5207 49.031ZM94.6595 49.1061V49.031C94.6595 48.8524 94.6428 48.6868 94.6095 48.5343C94.5761 48.3795 94.5237 48.2437 94.4522 48.127C94.3808 48.0102 94.2891 47.9197 94.1771 47.8554C94.0675 47.7887 93.9353 47.7553 93.7804 47.7553C93.628 47.7553 93.497 47.7815 93.3874 47.8339C93.2778 47.884 93.1861 47.9542 93.1122 48.0448C93.0384 48.1353 92.9812 48.2413 92.9407 48.3628C92.9002 48.4819 92.8716 48.6118 92.8549 48.7523V49.4456C92.8835 49.6171 92.9323 49.7743 93.0014 49.9172C93.0705 50.0602 93.1682 50.1745 93.2945 50.2603C93.4231 50.3437 93.5875 50.3854 93.7876 50.3854C93.9424 50.3854 94.0747 50.352 94.1842 50.2853C94.2938 50.2186 94.3832 50.1269 94.4522 50.0102C94.5237 49.891 94.5761 49.7541 94.6095 49.5992C94.6428 49.4444 94.6595 49.28 94.6595 49.1061ZM97.143 49.7422L98.6618 47.1335H99.523V51H98.6618V48.3878L97.143 51H96.2818V47.1335H97.143V49.7422ZM103.539 47.1335V51H102.678V47.1335H103.539ZM103.175 48.8452V49.5277C103.07 49.573 102.952 49.6147 102.821 49.6528C102.693 49.6885 102.557 49.7183 102.414 49.7422C102.271 49.7636 102.127 49.7743 101.981 49.7743C101.641 49.7743 101.347 49.7219 101.099 49.6171C100.853 49.5123 100.664 49.3515 100.531 49.1347C100.4 48.9155 100.334 48.638 100.334 48.3021V47.13H101.192V48.3021C101.192 48.495 101.22 48.6487 101.278 48.763C101.337 48.8774 101.425 48.9596 101.542 49.0096C101.659 49.0596 101.805 49.0846 101.981 49.0846C102.129 49.0846 102.269 49.0751 102.4 49.0561C102.531 49.0346 102.66 49.006 102.789 48.9703C102.918 48.9346 103.046 48.8929 103.175 48.8452ZM106.162 51.0715C105.877 51.0715 105.618 51.025 105.387 50.9321C105.158 50.8368 104.963 50.7046 104.801 50.5355C104.641 50.3663 104.519 50.1674 104.433 49.9387C104.347 49.71 104.304 49.4634 104.304 49.199V49.0561C104.304 48.7535 104.348 48.4795 104.436 48.2342C104.525 47.9888 104.647 47.7791 104.804 47.6052C104.962 47.4289 105.148 47.2943 105.362 47.2014C105.576 47.1085 105.809 47.0621 106.059 47.0621C106.335 47.0621 106.577 47.1085 106.784 47.2014C106.991 47.2943 107.163 47.4254 107.299 47.5945C107.437 47.7613 107.539 47.9602 107.606 48.1913C107.675 48.4224 107.71 48.6773 107.71 48.956V49.3241H104.722V48.7059H106.859V48.638C106.854 48.4831 106.823 48.3378 106.766 48.202C106.712 48.0662 106.627 47.9566 106.513 47.8732C106.398 47.7899 106.246 47.7482 106.055 47.7482C105.912 47.7482 105.785 47.7791 105.673 47.8411C105.563 47.9006 105.472 47.9876 105.398 48.1019C105.324 48.2163 105.267 48.3545 105.226 48.5165C105.188 48.6761 105.169 48.8559 105.169 49.0561V49.199C105.169 49.3681 105.192 49.5254 105.237 49.6707C105.285 49.8136 105.354 49.9387 105.444 50.0459C105.535 50.1531 105.644 50.2377 105.773 50.2996C105.902 50.3592 106.048 50.3889 106.212 50.3889C106.42 50.3889 106.604 50.3473 106.766 50.2639C106.928 50.1805 107.069 50.0626 107.188 49.9101L107.642 50.3496C107.558 50.4711 107.45 50.5879 107.317 50.6998C107.183 50.8094 107.02 50.8988 106.827 50.9678C106.636 51.0369 106.415 51.0715 106.162 51.0715ZM109.961 50.3854C110.102 50.3854 110.228 50.358 110.34 50.3032C110.454 50.246 110.546 50.1674 110.615 50.0673C110.686 49.9673 110.726 49.8517 110.733 49.7207H111.544C111.539 49.9709 111.465 50.1984 111.322 50.4032C111.179 50.6081 110.99 50.7713 110.754 50.8928C110.518 51.0119 110.258 51.0715 109.972 51.0715C109.676 51.0715 109.419 51.0214 109.2 50.9214C108.981 50.8189 108.798 50.6784 108.653 50.4997C108.508 50.321 108.398 50.115 108.324 49.8815C108.253 49.6481 108.217 49.3979 108.217 49.1311V49.006C108.217 48.7392 108.253 48.4891 108.324 48.2556C108.398 48.0198 108.508 47.8125 108.653 47.6338C108.798 47.4552 108.981 47.3158 109.2 47.2157C109.419 47.1133 109.675 47.0621 109.968 47.0621C110.278 47.0621 110.549 47.124 110.783 47.2479C111.016 47.3694 111.2 47.5397 111.333 47.7589C111.469 47.9757 111.539 48.2282 111.544 48.5165H110.733C110.726 48.3735 110.69 48.2449 110.626 48.1305C110.564 48.0138 110.476 47.9209 110.361 47.8518C110.249 47.7827 110.115 47.7482 109.957 47.7482C109.783 47.7482 109.639 47.7839 109.525 47.8554C109.411 47.9245 109.321 48.0198 109.257 48.1413C109.193 48.2604 109.146 48.395 109.118 48.5451C109.091 48.6928 109.078 48.8464 109.078 49.006V49.1311C109.078 49.2907 109.091 49.4456 109.118 49.5956C109.144 49.7457 109.189 49.8803 109.253 49.9994C109.32 50.1162 109.411 50.2103 109.525 50.2817C109.639 50.3508 109.785 50.3854 109.961 50.3854ZM113.134 47.1335V51H112.273V47.1335H113.134ZM115.657 47.1335L113.917 49.4598H112.934L112.82 48.6808H113.538L114.581 47.1335H115.657ZM114.649 51L113.484 49.3133L114.163 48.8238L115.782 51H114.649ZM117.14 49.7422L118.659 47.1335H119.52V51H118.659V48.3878L117.14 51H116.279V47.1335H117.14V49.7422ZM122.136 51.0715C121.85 51.0715 121.591 51.025 121.36 50.9321C121.132 50.8368 120.936 50.7046 120.774 50.5355C120.615 50.3663 120.492 50.1674 120.406 49.9387C120.32 49.71 120.277 49.4634 120.277 49.199V49.0561C120.277 48.7535 120.322 48.4795 120.41 48.2342C120.498 47.9888 120.621 47.7791 120.778 47.6052C120.935 47.4289 121.121 47.2943 121.335 47.2014C121.55 47.1085 121.782 47.0621 122.032 47.0621C122.308 47.0621 122.55 47.1085 122.757 47.2014C122.965 47.2943 123.136 47.4254 123.272 47.5945C123.41 47.7613 123.513 47.9602 123.579 48.1913C123.648 48.4224 123.683 48.6773 123.683 48.956V49.3241H120.696V48.7059H122.832V48.638C122.828 48.4831 122.797 48.3378 122.74 48.202C122.685 48.0662 122.6 47.9566 122.486 47.8732C122.371 47.7899 122.219 47.7482 122.028 47.7482C121.886 47.7482 121.758 47.7791 121.646 47.8411C121.537 47.9006 121.445 47.9876 121.371 48.1019C121.297 48.2163 121.24 48.3545 121.199 48.5165C121.161 48.6761 121.142 48.8559 121.142 49.0561V49.199C121.142 49.3681 121.165 49.5254 121.21 49.6707C121.258 49.8136 121.327 49.9387 121.417 50.0459C121.508 50.1531 121.618 50.2377 121.746 50.2996C121.875 50.3592 122.021 50.3889 122.186 50.3889C122.393 50.3889 122.578 50.3473 122.74 50.2639C122.902 50.1805 123.042 50.0626 123.161 49.9101L123.615 50.3496C123.532 50.4711 123.423 50.5879 123.29 50.6998C123.156 50.8094 122.993 50.8988 122.8 50.9678C122.61 51.0369 122.388 51.0715 122.136 51.0715Z" fill="#00323D"/>
<path d="M36.194 85.9107C30.083 85.9107 25.1289 80.9624 25.1289 74.8584H36.194V85.9107Z" fill="#008C95"/>
<path d="M14.0664 85.9482C20.1774 85.9482 25.1315 90.8966 25.1315 97.0006H14.0664V85.9482Z" fill="#008C95"/>
<path d="M36.03 68.3389H30.4974C27.4419 68.3389 24.9648 70.813 24.9648 73.865H30.4974C33.5529 73.865 36.03 71.3909 36.03 68.3389Z" fill="#00313C"/>
<path d="M25.1302 74.8584H14.0651C7.95407 74.8584 3 79.8067 3 85.9107H14.0651C20.1761 85.9107 25.1302 80.9624 25.1302 74.8584Z" fill="#00313C"/>
<path d="M14.0651 80.3789H8.56053C5.48956 80.3789 3 82.8531 3 85.9051H8.50459C11.5757 85.9051 14.0651 83.4309 14.0651 80.3789Z" fill="white"/>
<path d="M26.3477 66.6442C26.3477 65.7286 27.0908 64.9863 28.0074 64.9863C28.9241 64.9863 29.6672 65.7286 29.6672 66.6442C29.6672 67.5598 28.9241 68.302 28.0074 68.302C27.0908 68.302 26.3477 67.5598 26.3477 66.6442Z" fill="#00313C"/>
<path d="M31.6914 66.6442C31.6914 65.7286 32.4345 64.9863 33.3512 64.9863C34.2678 64.9863 35.0109 65.7286 35.0109 66.6442C35.0109 67.5598 34.2678 68.302 33.3512 68.302C32.4345 68.302 31.6914 67.5598 31.6914 66.6442Z" fill="#008C95"/>
<path d="M23.0312 85.3161C23.0312 84.4005 23.7744 83.6582 24.691 83.6582C25.6077 83.6582 26.3508 84.4005 26.3508 85.3161C26.3508 86.2316 25.6077 86.9739 24.691 86.9739C23.7744 86.9739 23.0312 86.2316 23.0312 85.3161Z" fill="#77E2C3"/>
<path d="M3 91.4373C3 88.3853 5.47704 85.9111 8.53256 85.9111C11.5881 85.9111 14.0651 88.3853 14.0651 91.4373C14.0651 94.4893 11.5881 96.9635 8.53256 96.9635H3V91.4373Z" fill="#77E2C3"/>
<path d="M3 94.1435C3 92.5649 4.28121 91.2852 5.86172 91.2852C7.44213 91.2852 8.72333 92.5649 8.72333 94.1435C8.72333 95.7221 7.44213 97.0019 5.86172 97.0019H3V94.1435Z" fill="white"/>
<path d="M36.194 91.4373C36.194 88.3853 33.717 85.9111 30.6615 85.9111C27.6059 85.9111 25.1289 88.3853 25.1289 91.4373C25.1289 94.4893 27.6059 96.9635 30.6615 96.9635H36.194V91.4373Z" fill="#77E2C3"/>
<path d="M36.196 94.0985C36.196 92.52 34.9148 91.2402 33.3343 91.2402C31.7539 91.2402 30.4727 92.52 30.4727 94.0985C30.4727 95.6772 31.7539 96.957 33.3343 96.957H36.196V94.0985Z" fill="white"/>
<path d="M25.1315 69.3308C25.1315 66.2789 22.6545 63.8047 19.599 63.8047C16.5434 63.8047 14.0664 66.2789 14.0664 69.3308C14.0664 72.3828 16.5434 74.857 19.599 74.857H25.1315V69.3308Z" fill="#008C95"/>
<path d="M25.1296 71.996C25.1296 70.4174 23.8484 69.1377 22.2679 69.1377C20.6875 69.1377 19.4062 70.4174 19.4062 71.996C19.4062 73.5747 20.6875 74.8544 22.2679 74.8544H25.1296V71.996Z" fill="#77E2C3"/>
<path d="M3 69.3308C3 72.3828 5.47704 74.857 8.53256 74.857C11.5881 74.857 14.0651 72.3828 14.0651 69.3308C14.0651 66.2789 11.5881 63.8047 8.53256 63.8047H3V69.3308Z" fill="#00313C"/>
<path d="M3 66.6631C3 68.2417 4.28121 69.5214 5.86172 69.5214C7.44213 69.5214 8.72333 68.2417 8.72333 66.6631C8.72333 65.0844 7.44213 63.8047 5.86172 63.8047H3V66.6631Z" fill="#00313C"/>
<path d="M19.6422 30.4962C27.3449 30.4962 33.5892 24.2548 33.5892 16.5557C33.5892 8.8566 27.3449 2.61523 19.6422 2.61523C11.9396 2.61523 5.69531 8.8566 5.69531 16.5557C5.69531 24.2548 11.9396 30.4962 19.6422 30.4962Z" fill="#00323D"/>
<path d="M36.198 0C36.198 9.12153 28.8217 16.516 19.7227 16.516C19.7227 7.39446 27.0989 0 36.198 0Z" fill="#77E2C3"/>
<path d="M19.4766 16.0349V16.516H18.9967C10.1627 16.516 3.00124 9.3369 3.00124 0.481048V0L3.4811 0C12.3152 0 19.4766 7.17909 19.4766 16.0349Z" fill="#008C95"/>
<path d="M18.9955 16.6797H19.4753V17.1607C19.4753 26.0166 12.3139 33.1957 3.47986 33.1957H3V32.7146C3 23.8588 10.1614 16.6797 18.9955 16.6797Z" fill="#77E2C3"/>
<path d="M36.1953 32.7146V33.1957H35.7154C26.8814 33.1957 19.72 26.0166 19.72 17.1607V16.6797H20.1999C29.0339 16.6797 36.1953 23.8588 36.1953 32.7146Z" fill="#008C95"/>
<rect x="81.8867" y="2.7666" width="25.8186" height="27.2017" fill="#008C95"/>
<ellipse cx="94.796" cy="3.22732" rx="12.9093" ry="3.22732" fill="#77E2C3"/>
<ellipse cx="94.796" cy="29.9666" rx="12.9093" ry="3.22732" fill="#008C95"/>
<rect x="78.0078" y="81.0859" width="5.84118" height="11.5809" fill="#00323D"/>
<ellipse cx="80.9284" cy="81.2783" rx="2.92059" ry="1.37401" fill="#77E2C3"/>
<ellipse cx="80.9284" cy="92.6621" rx="2.92059" ry="1.37401" fill="#00323D"/>
<rect x="86.6484" y="73.5117" width="9.24854" height="18.3364" fill="#00323D"/>
<ellipse cx="91.2727" cy="73.8298" rx="4.62427" ry="2.17551" fill="#77E2C3"/>
<ellipse cx="91.2727" cy="91.8503" rx="4.62427" ry="2.17551" fill="#00323D"/>
<rect x="98.707" y="66.3213" width="12.4936" height="24.7703" fill="#00323D"/>
<ellipse cx="104.954" cy="66.7426" rx="6.24682" ry="2.93885" fill="#77E2C3"/>
<ellipse cx="104.954" cy="91.098" rx="6.24682" ry="2.93885" fill="#00323D"/>
<path d="M3.60202 49.3062H4.49538C4.46679 49.6469 4.3715 49.9506 4.20951 50.2174C4.04751 50.4819 3.82 50.6903 3.52698 50.8428C3.23396 50.9952 2.87781 51.0715 2.45852 51.0715C2.13691 51.0715 1.84747 51.0143 1.59018 50.8999C1.33289 50.7832 1.11253 50.6188 0.929093 50.4068C0.745657 50.1924 0.605102 49.9339 0.507428 49.6314C0.412136 49.3288 0.36449 48.9905 0.36449 48.6165V48.1841C0.36449 47.8101 0.413327 47.4718 0.511001 47.1693C0.611057 46.8667 0.753995 46.6082 0.939813 46.3938C1.12563 46.1771 1.34838 46.0115 1.60805 45.8971C1.8701 45.7828 2.16431 45.7256 2.49068 45.7256C2.9052 45.7256 3.2554 45.8018 3.54127 45.9543C3.82715 46.1068 4.0487 46.3176 4.20593 46.5868C4.36555 46.856 4.46322 47.1645 4.49895 47.5123H3.6056C3.58177 47.2884 3.52936 47.0966 3.44836 46.937C3.36975 46.7774 3.25302 46.6559 3.09817 46.5725C2.94332 46.4868 2.74082 46.4439 2.49068 46.4439C2.28581 46.4439 2.10714 46.482 1.95467 46.5582C1.8022 46.6345 1.67475 46.7464 1.57231 46.8941C1.46987 47.0418 1.39245 47.2241 1.34004 47.4409C1.29001 47.6553 1.265 47.9006 1.265 48.177V48.6165C1.265 48.8786 1.28763 49.1168 1.33289 49.3312C1.38054 49.5432 1.45201 49.7255 1.5473 49.8779C1.64497 50.0304 1.76885 50.1483 1.91893 50.2317C2.06902 50.3151 2.24888 50.3568 2.45852 50.3568C2.71343 50.3568 2.9195 50.3163 3.07673 50.2353C3.23634 50.1543 3.35665 50.0364 3.43764 49.8815C3.52102 49.7243 3.57582 49.5325 3.60202 49.3062ZM7.82225 47.1335V47.8196H5.93548V47.1335H7.82225ZM8.49763 47.1335V51H7.63643V47.1335H8.49763ZM5.72464 47.1335H6.57512L6.47149 49.0453C6.4572 49.3288 6.42861 49.579 6.38573 49.7958C6.34523 50.0102 6.29044 50.1948 6.22135 50.3496C6.15226 50.5021 6.06769 50.626 5.96764 50.7213C5.86758 50.8166 5.75085 50.8868 5.61744 50.9321C5.48403 50.9774 5.33395 51 5.16719 51H4.89918L4.89561 50.2925L5.0314 50.2817C5.11954 50.2746 5.19577 50.252 5.2601 50.2138C5.32442 50.1733 5.37921 50.1162 5.42447 50.0423C5.47212 49.9685 5.51024 49.8732 5.53882 49.7564C5.56979 49.6397 5.59362 49.5015 5.61029 49.3419C5.62935 49.1823 5.64364 48.9965 5.65317 48.7845L5.72464 47.1335ZM9.24805 49.1097V49.0275C9.24805 48.7487 9.28855 48.4903 9.36955 48.252C9.45054 48.0114 9.56728 47.803 9.71974 47.6267C9.87459 47.448 10.0628 47.3098 10.2843 47.2122C10.5083 47.1121 10.7608 47.0621 11.0419 47.0621C11.3254 47.0621 11.5779 47.1121 11.7995 47.2122C12.0234 47.3098 12.2128 47.448 12.3677 47.6267C12.5225 47.803 12.6404 48.0114 12.7214 48.252C12.8024 48.4903 12.8429 48.7487 12.8429 49.0275V49.1097C12.8429 49.3884 12.8024 49.6469 12.7214 49.8851C12.6404 50.1233 12.5225 50.3318 12.3677 50.5104C12.2128 50.6867 12.0246 50.8249 11.8031 50.925C11.5815 51.0226 11.3302 51.0715 11.0491 51.0715C10.7656 51.0715 10.5119 51.0226 10.2879 50.925C10.0664 50.8249 9.87816 50.6867 9.72332 50.5104C9.56847 50.3318 9.45054 50.1233 9.36955 49.8851C9.28855 49.6469 9.24805 49.3884 9.24805 49.1097ZM10.1092 49.0275V49.1097C10.1092 49.2836 10.1271 49.4479 10.1628 49.6028C10.1986 49.7576 10.2546 49.8934 10.3308 50.0102C10.407 50.1269 10.5047 50.2186 10.6238 50.2853C10.7429 50.352 10.8847 50.3854 11.0491 50.3854C11.2087 50.3854 11.3468 50.352 11.4636 50.2853C11.5827 50.2186 11.6804 50.1269 11.7566 50.0102C11.8328 49.8934 11.8888 49.7576 11.9246 49.6028C11.9627 49.4479 11.9817 49.2836 11.9817 49.1097V49.0275C11.9817 48.8559 11.9627 48.6939 11.9246 48.5415C11.8888 48.3866 11.8316 48.2496 11.753 48.1305C11.6768 48.0114 11.5791 47.9185 11.46 47.8518C11.3433 47.7827 11.2039 47.7482 11.0419 47.7482C10.8799 47.7482 10.7394 47.7827 10.6202 47.8518C10.5035 47.9185 10.407 48.0114 10.3308 48.1305C10.2546 48.2496 10.1986 48.3866 10.1628 48.5415C10.1271 48.6939 10.1092 48.8559 10.1092 49.0275ZM14.769 49.4384L13.2253 47.1335H14.283L15.1835 48.6558H15.9375L15.8267 49.4384H14.769ZM15.205 49.3133L14.2151 51H13.1574L14.5582 48.8238L15.205 49.3133ZM16.4557 47.1335V51H15.598V47.1335H16.4557ZM18.8391 47.1335L17.2954 49.4384H16.2341L16.1198 48.6558H16.8773L17.7778 47.1335H18.8391ZM17.8457 51L16.8523 49.3133L17.5206 48.8238L18.9142 51H17.8457ZM22.1017 48.7487V49.4277H20.1006V48.7487H22.1017ZM20.3507 47.1335V51H19.4895V47.1335H20.3507ZM22.7235 47.1335V51H21.8623V47.1335H22.7235ZM24.2815 48.3628H25.4214C25.7549 48.3628 26.0384 48.4188 26.2719 48.5308C26.5054 48.6427 26.6828 48.7988 26.8043 48.9989C26.9282 49.1966 26.9902 49.4229 26.9902 49.6778C26.9902 49.866 26.9556 50.0411 26.8865 50.2031C26.8174 50.3627 26.715 50.5021 26.5792 50.6212C26.4458 50.7403 26.2814 50.8332 26.0861 50.8999C25.8931 50.9666 25.6716 51 25.4214 51H23.7097V47.1335H24.5745V50.3175H25.4214C25.5929 50.3175 25.7299 50.2877 25.8324 50.2281C25.9348 50.1686 26.0086 50.0912 26.0539 49.9959C26.1016 49.9006 26.1254 49.7993 26.1254 49.6921C26.1254 49.5825 26.1016 49.4789 26.0539 49.3812C26.0086 49.2836 25.9348 49.2038 25.8324 49.1418C25.7299 49.0799 25.5929 49.0489 25.4214 49.0489H24.2815V48.3628ZM28.5124 47.1335V51H27.6512V47.1335H28.5124ZM31.2354 51.0715C30.9495 51.0715 30.691 51.025 30.46 50.9321C30.2313 50.8368 30.0359 50.7046 29.8739 50.5355C29.7143 50.3663 29.5916 50.1674 29.5059 49.9387C29.4201 49.71 29.3772 49.4634 29.3772 49.199V49.0561C29.3772 48.7535 29.4213 48.4795 29.5094 48.2342C29.5976 47.9888 29.7203 47.7791 29.8775 47.6052C30.0347 47.4289 30.2205 47.2943 30.4349 47.2014C30.6494 47.1085 30.8816 47.0621 31.1318 47.0621C31.4081 47.0621 31.6499 47.1085 31.8572 47.2014C32.0644 47.2943 32.236 47.4254 32.3717 47.5945C32.5099 47.7613 32.6124 47.9602 32.6791 48.1913C32.7481 48.4224 32.7827 48.6773 32.7827 48.956V49.3241H29.7953V48.7059H31.9322V48.638C31.9274 48.4831 31.8965 48.3378 31.8393 48.202C31.7845 48.0662 31.6999 47.9566 31.5856 47.8732C31.4712 47.7899 31.3188 47.7482 31.1282 47.7482C30.9853 47.7482 30.8578 47.7791 30.7458 47.8411C30.6362 47.9006 30.5445 47.9876 30.4707 48.1019C30.3968 48.2163 30.3397 48.3545 30.2992 48.5165C30.261 48.6761 30.242 48.8559 30.242 49.0561V49.199C30.242 49.3681 30.2646 49.5254 30.3099 49.6707C30.3575 49.8136 30.4266 49.9387 30.5171 50.0459C30.6077 50.1531 30.7172 50.2377 30.8459 50.2996C30.9745 50.3592 31.121 50.3889 31.2854 50.3889C31.4927 50.3889 31.6773 50.3473 31.8393 50.2639C32.0013 50.1805 32.1419 50.0626 32.261 49.9101L32.7148 50.3496C32.6314 50.4711 32.523 50.5879 32.3896 50.6998C32.2562 50.8094 32.093 50.8988 31.9001 50.9678C31.7095 51.0369 31.4879 51.0715 31.2354 51.0715Z" fill="#00323D"/>
</svg>
