<svg viewBox="0 0 284 225" fill="none" xmlns="http://www.w3.org/2000/svg">
<path d="M77.0026 199.274C62.8274 199.274 51.3359 187.796 51.3359 173.637H77.0026V199.274Z" fill="#008C95"/>
<path d="M25.668 199.363C39.8432 199.363 51.3346 210.841 51.3346 225H25.668V199.363Z" fill="#008C95"/>
<path d="M76.6159 158.512H63.7826C56.695 158.512 50.9492 164.251 50.9492 171.33H63.7826C70.8701 171.33 76.6159 165.591 76.6159 158.512Z" fill="#00313C"/>
<path d="M51.3333 173.637H25.6667C11.4915 173.637 0 185.115 0 199.274H25.6667C39.8419 199.274 51.3333 187.796 51.3333 173.637Z" fill="#00313C"/>
<path d="M25.6667 186.453H12.8982C5.77479 186.453 0 192.192 0 199.272H12.7685C19.8921 199.272 25.6667 193.533 25.6667 186.453Z" fill="white"/>
<path d="M54.1641 154.584C54.1641 152.46 55.8878 150.738 58.0141 150.738C60.1403 150.738 61.8641 152.46 61.8641 154.584C61.8641 156.708 60.1403 158.429 58.0141 158.429C55.8878 158.429 54.1641 156.708 54.1641 154.584Z" fill="#00313C"/>
<path d="M66.5586 154.584C66.5586 152.46 68.2824 150.738 70.4086 150.738C72.5348 150.738 74.2586 152.46 74.2586 154.584C74.2586 156.708 72.5348 158.429 70.4086 158.429C68.2824 158.429 66.5586 156.708 66.5586 154.584Z" fill="#008C95"/>
<path d="M46.4648 197.904C46.4648 195.78 48.1886 194.059 50.3148 194.059C52.4411 194.059 54.1648 195.78 54.1648 197.904C54.1648 200.028 52.4411 201.75 50.3148 201.75C48.1886 201.75 46.4648 200.028 46.4648 197.904Z" fill="#77E2C3"/>
<path d="M0 212.092C0 205.013 5.74574 199.273 12.8333 199.273C19.9209 199.273 25.6667 205.013 25.6667 212.092C25.6667 219.171 19.9209 224.91 12.8333 224.91H0V212.092Z" fill="#77E2C3"/>
<path d="M0 218.368C0 214.707 2.9719 211.738 6.63806 211.738C10.304 211.738 13.2759 214.707 13.2759 218.368C13.2759 222.03 10.304 224.999 6.63806 224.999H0V218.368Z" fill="white"/>
<path d="M77.0026 212.092C77.0026 205.013 71.2569 199.273 64.1693 199.273C57.0817 199.273 51.3359 205.013 51.3359 212.092C51.3359 219.171 57.0817 224.91 64.1693 224.91H77.0026V212.092Z" fill="#77E2C3"/>
<path d="M76.9985 218.279C76.9985 214.617 74.0266 211.648 70.3605 211.648C66.6946 211.648 63.7227 214.617 63.7227 218.279C63.7227 221.94 66.6946 224.909 70.3605 224.909H76.9985V218.279Z" fill="white"/>
<path d="M51.3346 160.818C51.3346 153.739 45.5889 148 38.5013 148C31.4137 148 25.668 153.739 25.668 160.818C25.668 167.898 31.4137 173.637 38.5013 173.637H51.3346V160.818Z" fill="#008C95"/>
<path d="M51.3345 167.005C51.3345 163.343 48.3626 160.375 44.6964 160.375C41.0305 160.375 38.0586 163.343 38.0586 167.005C38.0586 170.667 41.0305 173.636 44.6964 173.636H51.3345V167.005Z" fill="#77E2C3"/>
<path d="M0 160.818C0 167.898 5.74574 173.637 12.8333 173.637C19.9209 173.637 25.6667 167.898 25.6667 160.818C25.6667 153.739 19.9209 148 12.8333 148H0V160.818Z" fill="#00313C"/>
<path d="M0 154.63C0 158.292 2.9719 161.261 6.63806 161.261C10.304 161.261 13.2759 158.292 13.2759 154.63C13.2759 150.968 10.304 148 6.63806 148H0V154.63Z" fill="#00313C"/>
<path d="M38.5955 70.7431C56.4626 70.7431 70.9468 56.2656 70.9468 38.4067C70.9468 20.5478 56.4626 6.07031 38.5955 6.07031C20.7283 6.07031 6.24414 20.5478 6.24414 38.4067C6.24414 56.2656 20.7283 70.7431 38.5955 70.7431Z" fill="#00323D"/>
<path d="M77.0033 0C77.0033 21.1583 59.8933 38.3106 38.7871 38.3106C38.7871 17.1522 55.8971 0 77.0033 0Z" fill="#77E2C3"/>
<path d="M38.2168 37.1947V38.3106H37.1037C16.6122 38.3106 0.000579834 21.6579 0.000579834 1.11584V0L1.11367 0C21.6052 0 38.2168 16.6526 38.2168 37.1947Z" fill="#008C95"/>
<path d="M37.1051 38.6875H38.2182V39.8033C38.2182 60.3454 21.6065 76.9981 1.11505 76.9981H0.00195312V75.8822C0.00195312 55.3401 16.6136 38.6875 37.1051 38.6875Z" fill="#77E2C3"/>
<path d="M77.002 75.8822V76.9981H75.8889C55.3974 76.9981 38.7857 60.3454 38.7857 39.8033V38.6875H39.8988C60.3903 38.6875 77.002 55.3401 77.002 75.8822Z" fill="#008C95"/>
<rect x="183.004" y="6.41797" width="59.8889" height="63.0972" fill="#008C95"/>
<ellipse cx="212.948" cy="7.48611" rx="29.9444" ry="7.48611" fill="#77E2C3"/>
<ellipse cx="212.948" cy="69.5135" rx="29.9444" ry="7.48611" fill="#008C95"/>
<rect x="174.004" y="188.066" width="13.5492" height="26.8631" fill="#00323D"/>
<ellipse cx="180.779" cy="188.519" rx="6.77461" ry="3.18715" fill="#77E2C3"/>
<ellipse cx="180.779" cy="214.922" rx="6.77461" ry="3.18715" fill="#00323D"/>
<rect x="194.062" y="170.539" width="21.4529" height="42.5333" fill="#00323D"/>
<ellipse cx="204.789" cy="171.261" rx="10.7265" ry="5.04632" fill="#77E2C3"/>
<ellipse cx="204.789" cy="213.074" rx="10.7265" ry="5.04632" fill="#00323D"/>
<rect x="222.023" y="153.844" width="28.9803" height="57.4572" fill="#00323D"/>
<ellipse cx="236.514" cy="154.817" rx="14.4901" ry="6.81696" fill="#77E2C3"/>
<ellipse cx="236.514" cy="211.309" rx="14.4901" ry="6.81696" fill="#00323D"/>
<path d="M8.36719 114.065H10.4424C10.376 114.857 10.1546 115.562 9.77832 116.182C9.40202 116.796 8.87354 117.281 8.19287 117.635C7.51221 117.989 6.6849 118.166 5.71094 118.166C4.96387 118.166 4.2915 118.033 3.69385 117.768C3.09619 117.496 2.58431 117.115 2.1582 116.622C1.7321 116.124 1.4056 115.524 1.17871 114.821C0.957357 114.118 0.84668 113.332 0.84668 112.463V111.459C0.84668 110.59 0.960124 109.804 1.18701 109.102C1.41943 108.399 1.75146 107.798 2.18311 107.3C2.61475 106.797 3.13216 106.412 3.73535 106.146C4.34408 105.881 5.02751 105.748 5.78564 105.748C6.74854 105.748 7.56201 105.925 8.22607 106.279C8.89014 106.633 9.40479 107.123 9.77002 107.749C10.1408 108.374 10.3677 109.09 10.4507 109.898H8.37549C8.32015 109.378 8.1984 108.933 8.01025 108.562C7.82764 108.191 7.55648 107.909 7.19678 107.715C6.83708 107.516 6.3667 107.417 5.78564 107.417C5.30973 107.417 4.89469 107.505 4.54053 107.682C4.18636 107.859 3.8903 108.119 3.65234 108.462C3.41439 108.806 3.23454 109.229 3.11279 109.732C2.99658 110.23 2.93848 110.8 2.93848 111.442V112.463C2.93848 113.072 2.99105 113.625 3.09619 114.124C3.20687 114.616 3.37288 115.039 3.59424 115.394C3.82113 115.748 4.10889 116.022 4.45752 116.215C4.80615 116.409 5.22396 116.506 5.71094 116.506C6.30306 116.506 6.78174 116.412 7.14697 116.224C7.51774 116.035 7.7972 115.762 7.98535 115.402C8.17904 115.037 8.30632 114.591 8.36719 114.065ZM18.1704 109.019V110.612H13.7876V109.019H18.1704ZM19.7393 109.019V118H17.7388V109.019H19.7393ZM13.2979 109.019H15.2734L15.0327 113.459C14.9995 114.118 14.9331 114.699 14.8335 115.203C14.7394 115.701 14.6121 116.13 14.4517 116.489C14.2912 116.843 14.0947 117.131 13.8623 117.353C13.6299 117.574 13.3587 117.737 13.0488 117.842C12.7389 117.947 12.3903 118 12.0029 118H11.3804L11.3721 116.356L11.6875 116.332C11.8923 116.315 12.0693 116.262 12.2188 116.174C12.3682 116.08 12.4954 115.947 12.6006 115.775C12.7113 115.604 12.7998 115.382 12.8662 115.111C12.9382 114.84 12.9935 114.519 13.0322 114.148C13.0765 113.778 13.1097 113.346 13.1318 112.854L13.2979 109.019ZM21.4824 113.609V113.418C21.4824 112.771 21.5765 112.17 21.7646 111.617C21.9528 111.058 22.224 110.574 22.5781 110.164C22.9378 109.749 23.375 109.428 23.8896 109.201C24.4098 108.969 24.9964 108.853 25.6494 108.853C26.3079 108.853 26.8945 108.969 27.4092 109.201C27.9294 109.428 28.3693 109.749 28.729 110.164C29.0887 110.574 29.3626 111.058 29.5508 111.617C29.7389 112.17 29.833 112.771 29.833 113.418V113.609C29.833 114.256 29.7389 114.857 29.5508 115.41C29.3626 115.964 29.0887 116.448 28.729 116.863C28.3693 117.272 27.9321 117.593 27.4175 117.826C26.9028 118.053 26.319 118.166 25.666 118.166C25.0075 118.166 24.4181 118.053 23.8979 117.826C23.3833 117.593 22.9461 117.272 22.5864 116.863C22.2267 116.448 21.9528 115.964 21.7646 115.41C21.5765 114.857 21.4824 114.256 21.4824 113.609ZM23.4829 113.418V113.609C23.4829 114.013 23.5244 114.395 23.6074 114.754C23.6904 115.114 23.8205 115.43 23.9976 115.701C24.1746 115.972 24.4015 116.185 24.6782 116.34C24.9549 116.495 25.2842 116.572 25.666 116.572C26.0368 116.572 26.3577 116.495 26.6289 116.34C26.9056 116.185 27.1325 115.972 27.3096 115.701C27.4867 115.43 27.6167 115.114 27.6997 114.754C27.7882 114.395 27.8325 114.013 27.8325 113.609V113.418C27.8325 113.02 27.7882 112.643 27.6997 112.289C27.6167 111.929 27.4839 111.611 27.3013 111.334C27.1242 111.058 26.8973 110.842 26.6206 110.687C26.3494 110.527 26.0257 110.446 25.6494 110.446C25.2731 110.446 24.9466 110.527 24.6699 110.687C24.3988 110.842 24.1746 111.058 23.9976 111.334C23.8205 111.611 23.6904 111.929 23.6074 112.289C23.5244 112.643 23.4829 113.02 23.4829 113.418ZM34.3071 114.373L30.7212 109.019H33.1782L35.27 112.555H37.0215L36.7642 114.373H34.3071ZM35.3198 114.082L33.0205 118H30.5635L33.8174 112.945L35.3198 114.082ZM38.2251 109.019V118H36.2329V109.019H38.2251ZM43.7617 109.019L40.1758 114.373H37.7104L37.4448 112.555H39.2046L41.2964 109.019H43.7617ZM41.4541 118L39.1465 114.082L40.6987 112.945L43.936 118H41.4541ZM51.3403 112.771V114.348H46.6919V112.771H51.3403ZM47.2729 109.019V118H45.2725V109.019H47.2729ZM52.7847 109.019V118H50.7842V109.019H52.7847ZM56.4038 111.874H59.0518C59.8265 111.874 60.485 112.004 61.0273 112.264C61.5697 112.524 61.9819 112.887 62.2642 113.352C62.5519 113.811 62.6958 114.337 62.6958 114.929C62.6958 115.366 62.6156 115.773 62.4551 116.149C62.2946 116.52 62.0566 116.843 61.7412 117.12C61.4313 117.397 61.0495 117.613 60.5957 117.768C60.1475 117.923 59.6328 118 59.0518 118H55.0757V109.019H57.0845V116.415H59.0518C59.4502 116.415 59.7684 116.345 60.0063 116.207C60.2443 116.069 60.4159 115.889 60.521 115.667C60.6317 115.446 60.687 115.211 60.687 114.962C60.687 114.707 60.6317 114.467 60.521 114.24C60.4159 114.013 60.2443 113.827 60.0063 113.684C59.7684 113.54 59.4502 113.468 59.0518 113.468H56.4038V111.874ZM66.2319 109.019V118H64.2314V109.019H66.2319ZM72.5571 118.166C71.8931 118.166 71.2926 118.058 70.7559 117.842C70.2246 117.621 69.7708 117.314 69.3945 116.921C69.0238 116.528 68.7388 116.066 68.5396 115.535C68.3403 115.003 68.2407 114.431 68.2407 113.816V113.484C68.2407 112.782 68.3431 112.145 68.5479 111.575C68.7526 111.005 69.0376 110.518 69.4028 110.114C69.7681 109.705 70.1997 109.392 70.6978 109.176C71.1958 108.96 71.7354 108.853 72.3164 108.853C72.9583 108.853 73.52 108.96 74.0015 109.176C74.4829 109.392 74.8813 109.696 75.1968 110.089C75.5177 110.477 75.7557 110.939 75.9106 111.476C76.0711 112.012 76.1514 112.604 76.1514 113.252V114.107H69.2119V112.671H74.1758V112.513C74.1647 112.153 74.0928 111.816 73.96 111.5C73.8327 111.185 73.6362 110.931 73.3706 110.737C73.105 110.543 72.7508 110.446 72.3081 110.446C71.9761 110.446 71.68 110.518 71.4199 110.662C71.1654 110.8 70.9523 111.002 70.7808 111.268C70.6092 111.534 70.4764 111.855 70.3823 112.231C70.2938 112.602 70.2495 113.02 70.2495 113.484V113.816C70.2495 114.209 70.3021 114.575 70.4072 114.912C70.5179 115.244 70.6784 115.535 70.8887 115.784C71.099 116.033 71.3535 116.229 71.6523 116.373C71.9512 116.511 72.2915 116.581 72.6733 116.581C73.1548 116.581 73.5837 116.484 73.96 116.29C74.3363 116.096 74.6628 115.822 74.9395 115.468L75.9937 116.489C75.8 116.771 75.5482 117.043 75.2383 117.303C74.9284 117.557 74.5493 117.765 74.1011 117.925C73.6584 118.086 73.1437 118.166 72.5571 118.166Z" fill="#00323D"/>
<path d="M159.194 115.332L159.036 119.914H157.119V117H156.04V115.332H159.194ZM148.179 117V104.914H150.271V115.348H155.625V104.914H157.716V117H148.179ZM162.78 114.078L166.308 108.019H168.308V117H166.308V110.932L162.78 117H160.779V108.019H162.78V114.078ZM176.459 108.019V109.612H172.077V108.019H176.459ZM178.028 108.019V117H176.028V108.019H178.028ZM171.587 108.019H173.562L173.322 112.459C173.289 113.118 173.222 113.699 173.123 114.203C173.028 114.701 172.901 115.13 172.741 115.489C172.58 115.843 172.384 116.131 172.151 116.353C171.919 116.574 171.648 116.737 171.338 116.842C171.028 116.947 170.679 117 170.292 117H169.669L169.661 115.356L169.977 115.332C170.181 115.315 170.358 115.262 170.508 115.174C170.657 115.08 170.785 114.947 170.89 114.775C171 114.604 171.089 114.382 171.155 114.111C171.227 113.84 171.283 113.519 171.321 113.148C171.366 112.778 171.399 112.346 171.421 111.854L171.587 108.019ZM182.22 114.078L185.748 108.019H187.749V117H185.748V110.932L182.22 117H180.22V108.019H182.22V114.078ZM196 111.771V113.348H191.351V111.771H196ZM191.932 108.019V117H189.932V108.019H191.932ZM197.444 108.019V117H195.443V108.019H197.444ZM201.204 108.019H203.205L203.105 111.181C203.077 112.1 202.972 112.888 202.79 113.547C202.607 114.205 202.369 114.762 202.076 115.215C201.782 115.664 201.45 116.032 201.08 116.319C200.714 116.607 200.33 116.834 199.926 117H199.336V115.423L199.619 115.406C199.857 115.152 200.061 114.897 200.233 114.643C200.41 114.382 200.559 114.097 200.681 113.788C200.803 113.472 200.897 113.104 200.963 112.684C201.035 112.263 201.082 111.762 201.104 111.181L201.204 108.019ZM201.735 108.019H207.43V117H205.438V109.712H201.735V108.019ZM198.88 115.406H208.658V119.673H206.658V117H200.905V119.673H198.872L198.88 115.406ZM212.045 109.745V120.453H210.044V108.019H211.887L212.045 109.745ZM217.897 112.426V112.601C217.897 113.254 217.819 113.86 217.665 114.418C217.515 114.972 217.291 115.456 216.992 115.871C216.699 116.281 216.336 116.599 215.905 116.826C215.473 117.053 214.975 117.166 214.411 117.166C213.852 117.166 213.362 117.064 212.941 116.859C212.526 116.649 212.175 116.353 211.887 115.971C211.599 115.589 211.367 115.141 211.19 114.626C211.018 114.106 210.897 113.536 210.825 112.916V112.244C210.897 111.585 211.018 110.987 211.19 110.451C211.367 109.914 211.599 109.452 211.887 109.064C212.175 108.677 212.526 108.378 212.941 108.168C213.356 107.958 213.841 107.853 214.394 107.853C214.958 107.853 215.459 107.963 215.896 108.185C216.334 108.4 216.702 108.71 217 109.114C217.299 109.513 217.523 109.994 217.673 110.559C217.822 111.118 217.897 111.74 217.897 112.426ZM215.896 112.601V112.426C215.896 112.011 215.858 111.627 215.78 111.272C215.703 110.913 215.581 110.597 215.415 110.326C215.249 110.055 215.036 109.845 214.776 109.695C214.521 109.54 214.214 109.463 213.854 109.463C213.5 109.463 213.196 109.524 212.941 109.646C212.687 109.762 212.474 109.925 212.302 110.135C212.131 110.346 211.998 110.592 211.904 110.874C211.81 111.151 211.743 111.452 211.705 111.779V113.389C211.771 113.788 211.884 114.153 212.045 114.485C212.205 114.817 212.432 115.083 212.726 115.282C213.024 115.475 213.406 115.572 213.871 115.572C214.231 115.572 214.538 115.495 214.792 115.34C215.047 115.185 215.255 114.972 215.415 114.701C215.581 114.424 215.703 114.106 215.78 113.746C215.858 113.386 215.896 113.005 215.896 112.601ZM221.666 114.078L225.193 108.019H227.194V117H225.193V110.932L221.666 117H219.665V108.019H221.666V114.078ZM236.524 108.019V117H234.523V108.019H236.524ZM235.677 111.995V113.58C235.434 113.685 235.16 113.782 234.855 113.871C234.557 113.954 234.241 114.023 233.909 114.078C233.577 114.128 233.242 114.153 232.905 114.153C232.113 114.153 231.43 114.031 230.854 113.788C230.285 113.544 229.845 113.171 229.535 112.667C229.23 112.158 229.078 111.513 229.078 110.733V108.01H231.07V110.733C231.07 111.181 231.137 111.538 231.27 111.804C231.408 112.069 231.613 112.26 231.884 112.376C232.155 112.493 232.495 112.551 232.905 112.551C233.248 112.551 233.572 112.529 233.876 112.484C234.18 112.435 234.482 112.368 234.781 112.285C235.08 112.202 235.378 112.105 235.677 111.995ZM242.617 117.166C241.953 117.166 241.352 117.058 240.815 116.842C240.284 116.621 239.83 116.314 239.454 115.921C239.083 115.528 238.798 115.066 238.599 114.535C238.4 114.003 238.3 113.431 238.3 112.816V112.484C238.3 111.782 238.403 111.145 238.607 110.575C238.812 110.005 239.097 109.518 239.462 109.114C239.828 108.705 240.259 108.392 240.757 108.176C241.255 107.96 241.795 107.853 242.376 107.853C243.018 107.853 243.58 107.96 244.061 108.176C244.542 108.392 244.941 108.696 245.256 109.089C245.577 109.477 245.815 109.939 245.97 110.476C246.131 111.012 246.211 111.604 246.211 112.252V113.107H239.271V111.671H244.235V111.513C244.224 111.153 244.152 110.816 244.02 110.5C243.892 110.185 243.696 109.931 243.43 109.737C243.165 109.543 242.81 109.446 242.368 109.446C242.036 109.446 241.74 109.518 241.479 109.662C241.225 109.8 241.012 110.002 240.84 110.268C240.669 110.534 240.536 110.855 240.442 111.231C240.353 111.602 240.309 112.02 240.309 112.484V112.816C240.309 113.209 240.362 113.575 240.467 113.912C240.577 114.244 240.738 114.535 240.948 114.784C241.159 115.033 241.413 115.229 241.712 115.373C242.011 115.511 242.351 115.581 242.733 115.581C243.214 115.581 243.643 115.484 244.02 115.29C244.396 115.096 244.722 114.822 244.999 114.468L246.053 115.489C245.86 115.771 245.608 116.043 245.298 116.303C244.988 116.557 244.609 116.765 244.161 116.925C243.718 117.086 243.203 117.166 242.617 117.166ZM251.44 115.572C251.767 115.572 252.06 115.509 252.32 115.381C252.586 115.249 252.799 115.066 252.959 114.833C253.125 114.601 253.217 114.333 253.233 114.028H255.118C255.107 114.609 254.935 115.138 254.603 115.614C254.271 116.09 253.831 116.469 253.283 116.751C252.735 117.028 252.129 117.166 251.465 117.166C250.779 117.166 250.181 117.05 249.672 116.817C249.163 116.579 248.74 116.253 248.402 115.838C248.065 115.423 247.81 114.944 247.639 114.402C247.473 113.86 247.39 113.278 247.39 112.659V112.368C247.39 111.748 247.473 111.167 247.639 110.625C247.81 110.077 248.065 109.596 248.402 109.181C248.74 108.766 249.163 108.442 249.672 108.209C250.181 107.972 250.776 107.853 251.457 107.853C252.176 107.853 252.807 107.996 253.35 108.284C253.892 108.566 254.318 108.962 254.628 109.471C254.943 109.975 255.107 110.561 255.118 111.231H253.233C253.217 110.899 253.134 110.6 252.984 110.334C252.84 110.063 252.636 109.847 252.37 109.687C252.11 109.527 251.797 109.446 251.432 109.446C251.028 109.446 250.693 109.529 250.428 109.695C250.162 109.856 249.955 110.077 249.805 110.359C249.656 110.636 249.548 110.949 249.481 111.297C249.421 111.64 249.39 111.997 249.39 112.368V112.659C249.39 113.029 249.421 113.389 249.481 113.738C249.542 114.086 249.647 114.399 249.797 114.676C249.952 114.947 250.162 115.166 250.428 115.332C250.693 115.492 251.031 115.572 251.44 115.572ZM258.812 108.019V117H256.811V108.019H258.812ZM264.672 108.019L260.629 113.422H258.347L258.081 111.613H259.75L262.173 108.019H264.672ZM262.331 117L259.625 113.082L261.202 111.945L264.962 117H262.331ZM268.117 114.078L271.645 108.019H273.645V117H271.645V110.932L268.117 117H266.116V108.019H268.117V114.078ZM279.721 117.166C279.057 117.166 278.457 117.058 277.92 116.842C277.389 116.621 276.935 116.314 276.559 115.921C276.188 115.528 275.903 115.066 275.704 114.535C275.504 114.003 275.405 113.431 275.405 112.816V112.484C275.405 111.782 275.507 111.145 275.712 110.575C275.917 110.005 276.202 109.518 276.567 109.114C276.932 108.705 277.364 108.392 277.862 108.176C278.36 107.96 278.899 107.853 279.48 107.853C280.122 107.853 280.684 107.96 281.166 108.176C281.647 108.392 282.045 108.696 282.361 109.089C282.682 109.477 282.92 109.939 283.075 110.476C283.235 111.012 283.315 111.604 283.315 112.252V113.107H276.376V111.671H281.34V111.513C281.329 111.153 281.257 110.816 281.124 110.5C280.997 110.185 280.8 109.931 280.535 109.737C280.269 109.543 279.915 109.446 279.472 109.446C279.14 109.446 278.844 109.518 278.584 109.662C278.329 109.8 278.116 110.002 277.945 110.268C277.773 110.534 277.64 110.855 277.546 111.231C277.458 111.602 277.414 112.02 277.414 112.484V112.816C277.414 113.209 277.466 113.575 277.571 113.912C277.682 114.244 277.842 114.535 278.053 114.784C278.263 115.033 278.518 115.229 278.816 115.373C279.115 115.511 279.456 115.581 279.837 115.581C280.319 115.581 280.748 115.484 281.124 115.29C281.5 115.096 281.827 114.822 282.104 114.468L283.158 115.489C282.964 115.771 282.712 116.043 282.402 116.303C282.092 116.557 281.713 116.765 281.265 116.925C280.822 117.086 280.308 117.166 279.721 117.166Z" fill="#00323D"/>
</svg>
