<svg viewBox="0 0 277 238" fill="none" xmlns="http://www.w3.org/2000/svg">
<path d="M250.612 0H0V238H250.612V0Z" fill="#77E2C3"/>
<path d="M72.9162 48.2849C72.9162 48.2849 74.0945 35.0252 74.1981 33.7303C74.3794 31.6456 72.696 27.8516 68.6301 27.8516H56.6524V27.8645H49.4399H48.2875H35.0926C31.0267 27.8645 29.0584 30.6097 28.8123 33.2383C28.6569 34.7922 25.8859 66.8535 25.7175 68.6922C25.4327 71.6575 27.4915 75.0242 31.2208 75.0242H45.3092H51.188H64.5641C68.9926 75.0242 70.7019 72.6805 71.0904 69.0807C71.3105 66.9312 72.4112 53.8788 72.4112 53.8788H52.2627L51.3952 63.9659H46.2933L48.4947 38.9228H53.5965L52.7936 48.2978H72.9162V48.2849Z" fill="#008C95"/>
<path d="M104.019 31.8916C103.294 33.9635 97.4408 52.2861 97.4408 52.2861L100.044 27.8516H79.8952L75.6738 75.0243H90.8499C94.6568 75.0243 95.9647 72.8618 96.5992 71.1396C97.3632 69.0678 102.944 53.6587 102.944 53.6587L100.885 75.0243H121.047L125.203 27.8516C125.203 27.8516 110.752 27.8516 109.38 27.8516C105.909 27.8387 104.524 30.4155 104.019 31.8916Z" fill="#008C95"/>
<path d="M206.11 27.8398L204.219 49.3479H199.104L200.995 27.8398H180.846C180.846 27.8398 178.917 50.6169 178.71 52.8182C178.464 55.4468 179.953 59.1631 184.42 59.1631H203.365L202.95 63.9542H177.739L176.768 75.0125H202.769H203.908H216.87C219.59 75.0125 222.205 73.2385 222.568 69.4575C222.801 67.0231 226.271 27.8398 226.271 27.8398H206.11Z" fill="#008C95"/>
<path d="M249.488 50.6157L250.511 38.9099H255.561L254.538 50.6157H249.488ZM258.695 27.8516H251.482H231.334L227.203 75.0242H247.351L248.633 60.4309H255.846H254.499H268.199C271.656 60.4309 273.961 58.6698 274.337 54.6168C274.479 53.05 276.072 35.1677 276.176 33.5879C276.422 30.1047 273.638 27.8516 270.18 27.8516H258.695Z" fill="#008C95"/>
<path d="M152.368 65.1961H147.228L148.25 53.4903H153.391L152.368 65.1961ZM149.118 43.688L149.533 38.9099H174.77L175.741 27.8516H150.504H149.364H130.355L126.225 75.0242H133.787C133.787 75.0242 163.996 75.0242 166.431 75.0242C168.982 75.0242 171.753 73.5092 172.115 69.5728C172.387 66.6204 173.63 52.5839 173.85 50.0459C174.148 46.6404 171.986 43.701 167.739 43.701H149.118V43.688Z" fill="#008C95"/>
</svg>
