<svg width="251" height="238" viewBox="0 0 251 238" fill="none" xmlns="http://www.w3.org/2000/svg">
<path d="M250.612 0H0V238H250.612V0Z" fill="#008C95"/>
<path d="M52.5801 37.2814C52.5801 37.2814 53.2534 29.7064 53.3182 28.9683C53.4218 27.777 52.4636 25.6016 50.1328 25.6016H43.2828H39.1651H38.5047H30.9685C28.6507 25.6016 27.5241 27.1684 27.3817 28.6704C27.291 29.5639 25.7113 47.8736 25.6077 48.9354C25.4393 50.6317 26.6177 52.5611 28.7542 52.5611H36.8084H40.1622H47.802C50.3271 52.5611 51.3111 51.2273 51.5312 49.1685C51.6607 47.9383 52.2823 40.4798 52.2823 40.4798H40.7707L40.2787 46.242H37.3652L38.6213 31.9335H41.5348L41.0686 37.2944H52.5801V37.2814Z" fill="white"/>
<path d="M70.3461 27.9144C69.9318 29.0927 66.591 39.5683 66.591 39.5683L68.0801 25.6095H56.5686L54.1602 52.569H62.8359C65.0113 52.569 65.7623 51.3388 66.1249 50.3417C66.5522 49.1634 69.7506 40.3582 69.7506 40.3582L68.5722 52.569H80.0967L82.4664 25.6095C82.4664 25.6095 74.2049 25.6095 73.428 25.6095C71.4339 25.5965 70.644 27.0727 70.3461 27.9144Z" fill="white"/>
<path d="M128.683 25.6028L127.608 37.8913H124.682L125.756 25.6028H114.245C114.245 25.6028 113.144 38.6164 113.028 39.8724C112.885 41.3745 113.74 43.4981 116.291 43.4981H127.116L126.87 46.2303H112.471L111.914 52.5494H126.766H127.427H134.833C136.387 52.5494 137.889 51.5393 138.084 49.3769C138.213 47.9914 140.194 25.5898 140.194 25.5898H128.683V25.6028Z" fill="white"/>
<path d="M153.48 38.6151L154.063 31.9335H156.95L156.367 38.6151H153.48ZM158.737 25.6016H154.619H143.108L140.738 52.5611H152.25L152.975 44.222H157.093H156.329H164.163C166.144 44.222 167.452 43.212 167.672 40.9071C167.75 40.0137 168.669 29.797 168.721 28.8906C168.863 26.8965 167.27 25.6145 165.302 25.6145H158.737V25.6016Z" fill="white"/>
<path d="M97.986 46.9491H95.0466L95.6292 40.2675H98.5686L97.986 46.9491ZM96.1213 34.6606L96.3674 31.9284H110.792L111.349 25.6094H96.9241H96.2637H85.3997L83.043 52.5689H87.3678C87.3678 52.5689 104.629 52.5689 106.027 52.5689C107.49 52.5689 109.07 51.7013 109.277 49.4482C109.433 47.7519 110.145 39.7366 110.274 38.2863C110.443 36.3439 109.213 34.6606 106.791 34.6606H96.1213Z" fill="white"/>
</svg>
