<svg width="270" height="76" viewBox="0 0 270 76" fill="none" xmlns="http://www.w3.org/2000/svg">
<path d="M40.8228 17.7082C40.8228 17.7082 41.8412 6.22406 41.9351 5.09691C42.0884 3.28753 40.6349 0 37.1249 0H26.763V0.00494848H20.5291H19.5403H8.13535C4.62535 0.00494848 2.9198 2.38778 2.70228 4.66186C2.57374 6.01148 0.176048 33.78 0.022795 35.3768C-0.224388 37.9475 1.55038 40.8643 4.77859 40.8643H16.9598H22.0418H33.6001C37.4265 40.8643 38.9095 38.8373 39.2358 35.7179C39.4286 33.8492 40.3778 22.5431 40.3778 22.5431H22.9564L22.205 31.2785H17.7952L19.6936 9.58575H24.1033L23.4063 17.7032H40.8228V17.7082Z" fill="#008C95"/>
<path d="M67.7107 3.50897C67.0878 5.29857 62.0205 21.1677 62.0205 21.1677L64.2748 0.00390625H46.8633L43.2148 40.8681H56.3403C59.6377 40.8681 60.7648 38.9945 61.3136 37.5015C61.9711 35.7119 66.801 22.3591 66.801 22.3591L65.0213 40.8681H82.4477L86.0368 0.00390625C86.0368 0.00390625 73.5491 0.00390625 72.3577 0.00390625C69.342 0.00390625 68.1507 2.23351 67.7107 3.50897Z" fill="#008C95"/>
<path d="M155.968 0.00390625L154.337 18.6415H149.917L151.549 0.00390625H134.127C134.127 0.00390625 132.456 19.734 132.279 21.6373C132.066 23.9114 133.356 27.1396 137.217 27.1396H153.596L153.23 31.2824H131.438L130.598 40.8681H153.076H154.07H165.272C167.621 40.8681 169.89 39.3356 170.196 36.058C170.394 33.952 173.395 0.00390625 173.395 0.00390625H155.968Z" fill="#008C95"/>
<path d="M193.47 19.7241L194.355 9.58471H198.72L197.835 19.7241H193.47ZM201.434 0.00390625H195.195H177.774L174.199 40.8632H191.621L192.728 28.2223H198.967H197.805H209.65C212.641 28.2223 214.633 26.6947 214.955 23.1897C215.078 21.8301 216.458 6.34166 216.552 4.97227C216.759 1.9517 214.357 0.00390625 211.371 0.00390625H201.434Z" fill="#008C95"/>
<path d="M109.516 32.3661H105.071L105.956 22.2267H110.401L109.516 32.3661ZM106.698 13.7285L107.064 9.58575H128.885L129.72 0H107.894H106.905H90.4727L86.8984 40.8643H93.4438C93.4438 40.8643 119.561 40.8643 121.672 40.8643C123.882 40.8643 126.275 39.5542 126.586 36.1381C126.818 33.5773 127.891 21.4258 128.089 19.2209C128.351 16.2745 126.477 13.7285 122.809 13.7285H106.698Z" fill="#008C95"/>
<path d="M15.743 70.1998H13.0636V52.1802H3.10214V70.1998H0.4375V50H15.7381V70.1998H15.743ZM29.437 70.1998C29.2887 69.9031 29.17 69.3791 29.0761 68.6178C27.8847 69.8587 26.4609 70.4766 24.8048 70.4766C23.3266 70.4766 22.1105 70.0564 21.1613 69.2209C20.2121 68.3854 19.7375 67.3226 19.7375 66.0372C19.7375 64.475 20.3308 63.2589 21.5222 62.3937C22.7087 61.5286 24.3846 61.0985 26.5351 61.0985H29.0316V59.917C29.0316 59.0222 28.7646 58.3054 28.2258 57.7714C27.6869 57.2375 26.9009 56.9755 25.8528 56.9755C24.9383 56.9755 24.167 57.2079 23.5491 57.6676C22.9311 58.1323 22.6197 58.691 22.6197 59.3485H20.0391C20.0391 58.597 20.306 57.8752 20.835 57.1782C21.3689 56.4811 22.0858 55.9275 23.0003 55.5221C23.91 55.1167 24.9135 54.914 26.0061 54.914C27.7363 54.914 29.0909 55.3441 30.0697 56.2092C31.0486 57.0744 31.5578 58.2658 31.5974 59.7835V66.6947C31.5974 68.074 31.7753 69.1666 32.1263 69.9823V70.2047H29.437V70.1998ZM25.1805 68.2421C25.9863 68.2421 26.7477 68.0345 27.4694 67.6192C28.1912 67.2039 28.7152 66.6601 29.0365 65.9977V62.9178H27.0245C23.8803 62.9178 22.3082 63.8373 22.3082 65.6763C22.3082 66.4821 22.5752 67.11 23.114 67.5648C23.648 68.0147 24.3401 68.2421 25.1805 68.2421ZM48.3069 62.8584C48.3069 65.1424 47.7829 66.9814 46.7398 68.3805C45.6967 69.7796 44.2778 70.4766 42.4931 70.4766C40.6689 70.4766 39.2353 69.8982 38.1922 68.7414V75.969H35.6265V55.1859H37.9697L38.0933 56.8519C39.1364 55.5567 40.5898 54.909 42.4487 54.909C44.2531 54.909 45.6769 55.5913 46.7299 56.9508C47.7779 58.3103 48.3069 60.2037 48.3069 62.6261V62.8584ZM45.7411 62.5717C45.7411 60.881 45.3802 59.5413 44.6585 58.5624C43.9367 57.5836 42.9479 57.0942 41.6873 57.0942C40.135 57.0942 38.9683 57.7813 38.1922 59.1606V66.3338C38.9584 67.7032 40.135 68.3854 41.717 68.3854C42.948 68.3854 43.9268 67.896 44.6535 66.9221C45.3802 65.9433 45.7411 64.4948 45.7411 62.5717ZM61.6152 57.2721H56.5776V70.2047H54.0119V57.2721H49.0732V55.1908H61.6152V57.2721ZM76.3621 70.1998H73.7964V63.7879H66.8999V70.1998H64.3194V55.1908H66.8999V61.6967H73.7964V55.1908H76.3621V70.1998ZM92.3796 67.5796C91.1239 69.5126 89.2354 70.4816 86.7191 70.4816C84.6823 70.4816 83.0311 69.8142 81.7507 68.4744C80.4752 67.1396 79.8375 65.3501 79.8375 63.1106V62.6409C79.8375 61.1529 80.1242 59.823 80.6928 58.6514C81.2613 57.4797 82.0572 56.5652 83.0806 55.9027C84.1039 55.2403 85.2113 54.909 86.4027 54.909C88.3554 54.909 89.8731 55.5517 90.9508 56.8371C92.0335 58.1224 92.5724 59.9615 92.5724 62.3591V63.427H82.4033C82.4379 64.9051 82.8729 66.1015 83.6985 67.0111C84.5241 67.9208 85.5771 68.3756 86.8526 68.3756C87.7573 68.3756 88.5284 68.1926 89.1563 67.8219C89.7841 67.4511 90.3379 66.9617 90.8075 66.3536L92.3796 67.5796ZM86.4027 57.02C85.3645 57.02 84.4994 57.3957 83.7924 58.1521C83.0904 58.9085 82.6554 59.9615 82.4873 61.321H90.0066V61.1282C89.9325 59.823 89.5815 58.8145 88.9536 58.0977C88.3258 57.3809 87.4755 57.02 86.4027 57.02ZM108.229 62.8584C108.229 65.1424 107.705 66.9814 106.662 68.3805C105.619 69.7796 104.2 70.4766 102.415 70.4766C100.591 70.4766 99.1573 69.8982 98.1142 68.7414V75.969H95.5485V55.1859H97.8917L98.0153 56.8519C99.0584 55.5567 100.512 54.909 102.371 54.909C104.175 54.909 105.599 55.5913 106.652 56.9508C107.7 58.3103 108.229 60.2037 108.229 62.6261V62.8584ZM105.663 62.5717C105.663 60.881 105.302 59.5413 104.581 58.5624C103.859 57.5836 102.87 57.0942 101.609 57.0942C100.057 57.0942 98.8903 57.7813 98.1142 59.1606V66.3338C98.8805 67.7032 100.057 68.3854 101.639 68.3854C102.87 68.3854 103.849 67.896 104.576 66.9221C105.302 65.9433 105.663 64.4948 105.663 62.5717ZM114.295 60.3619H118.195C119.896 60.3817 121.241 60.8266 122.234 61.6918C123.223 62.5618 123.717 63.7384 123.717 65.2314C123.717 66.7293 123.208 67.9306 122.19 68.8403C121.171 69.7449 119.802 70.1998 118.082 70.1998H111.729V55.1908H114.295V60.3619ZM114.295 62.458V68.1037H118.111C119.075 68.1037 119.817 67.8565 120.346 67.3621C120.875 66.8677 121.137 66.1905 121.137 65.3303C121.137 64.4997 120.88 63.8175 120.366 63.2836C119.851 62.7497 119.135 62.4778 118.21 62.458H114.295ZM129.066 70.1998H126.486V55.1908H129.066V70.1998ZM140.462 68.1037L141.351 67.0062C142.35 65.7109 142.919 63.7681 143.057 61.1776L143.294 55.1859H152.964V68.1037H154.892V74.6095H152.326V70.1998H141.851V74.6095H139.285L139.3 68.1037H140.462ZM145.623 61.1381C145.465 64.124 144.758 66.4475 143.502 68.1037H150.398V57.5589H145.776L145.623 61.1381ZM170.039 55.1908V70.1998H167.459V57.3117H162.352L162.046 62.9326C161.877 65.5132 161.447 67.3572 160.75 68.4695C160.053 69.5818 158.946 70.1553 157.428 70.2047H156.4V67.9455L157.136 67.8911C157.967 67.7972 158.565 67.3176 158.926 66.4475C159.287 65.5775 159.519 63.9708 159.618 61.6176L159.895 55.1958H170.039V55.1908ZM185.627 55.1908V70.1998H183.046V64.3613H179.175L175.636 70.1998H172.862L176.634 63.9708C175.67 63.6198 174.934 63.076 174.42 62.3394C173.905 61.6028 173.648 60.7475 173.648 59.7637C173.648 58.3943 174.162 57.2919 175.186 56.4564C176.214 55.6209 177.583 55.1958 179.304 55.1859H185.627V55.1908ZM176.239 59.7934C176.239 60.525 176.491 61.1133 176.99 61.5632C177.49 62.0131 178.152 62.2405 178.973 62.2504H183.051V57.2721H179.363C178.409 57.2721 177.653 57.5045 177.089 57.9741C176.521 58.4388 176.239 59.0469 176.239 59.7934ZM209.48 62.8584C209.48 65.1424 208.956 66.9814 207.913 68.3805C206.87 69.7796 205.451 70.4766 203.666 70.4766C201.842 70.4766 200.408 69.8982 199.365 68.7414V75.969H196.799V55.1859H199.143L199.266 56.8519C200.309 55.5567 201.763 54.909 203.622 54.909C205.426 54.909 206.85 55.5913 207.903 56.9508C208.951 58.3103 209.48 60.2037 209.48 62.6261V62.8584ZM206.914 62.5717C206.914 60.881 206.553 59.5413 205.831 58.5624C205.11 57.5836 204.121 57.0942 202.86 57.0942C201.308 57.0942 200.141 57.7813 199.365 59.1606V66.3338C200.131 67.7032 201.308 68.3854 202.89 68.3854C204.121 68.3854 205.1 67.896 205.827 66.9221C206.553 65.9433 206.914 64.4948 206.914 62.5717ZM212.06 62.5569C212.06 61.0886 212.347 59.7637 212.926 58.5871C213.504 57.4105 214.31 56.5058 215.338 55.8681C216.371 55.2304 217.548 54.909 218.868 54.909C220.91 54.909 222.566 55.616 223.826 57.0299C225.087 58.4438 225.72 60.3273 225.72 62.6755V62.8535C225.72 64.3168 225.438 65.6269 224.879 66.7887C224.321 67.9504 223.52 68.8551 222.482 69.5027C221.444 70.1503 220.247 70.4717 218.898 70.4717C216.861 70.4717 215.215 69.7647 213.954 68.3508C212.693 66.937 212.06 65.0633 212.06 62.7299V62.5569ZM214.641 62.8584C214.641 64.5245 215.027 65.8592 215.798 66.8677C216.569 67.8762 217.602 68.3805 218.898 68.3805C220.203 68.3805 221.236 67.8713 222.007 66.848C222.773 65.8246 223.159 64.3959 223.159 62.5519C223.159 60.9057 222.768 59.5709 221.987 58.5476C221.206 57.5243 220.168 57.015 218.873 57.015C217.607 57.015 216.584 57.5193 215.808 58.5278C215.032 59.5413 214.641 60.9848 214.641 62.8584ZM234.959 68.3805C235.874 68.3805 236.675 68.1037 237.357 67.55C238.039 66.9963 238.42 66.2992 238.494 65.4687H240.922C240.877 66.3289 240.58 67.1495 240.032 67.9257C239.488 68.7018 238.756 69.3247 237.847 69.7845C236.937 70.2492 235.973 70.4766 234.955 70.4766C232.908 70.4766 231.286 69.7944 230.08 68.43C228.874 67.0655 228.271 65.2017 228.271 62.8337V62.4036C228.271 60.9403 228.538 59.6451 229.077 58.5031C229.61 57.366 230.382 56.4811 231.385 55.8533C232.389 55.2255 233.575 54.909 234.945 54.909C236.625 54.909 238.025 55.4133 239.142 56.4218C240.254 57.4303 240.852 58.7404 240.926 60.3471H238.499C238.425 59.3781 238.059 58.5773 237.397 57.9544C236.734 57.3315 235.919 57.02 234.95 57.02C233.644 57.02 232.636 57.4896 231.919 58.4289C231.202 59.3682 230.846 60.7228 230.846 62.5025V62.987C230.846 64.7173 231.202 66.0471 231.914 66.9815C232.616 67.9158 233.635 68.3805 234.959 68.3805ZM254.952 57.2721H249.914V70.2047H247.348V57.2721H242.41V55.1908H254.952V57.2721ZM266.49 70.1998C266.342 69.9031 266.223 69.3791 266.129 68.6178C264.938 69.8587 263.514 70.4766 261.858 70.4766C260.38 70.4766 259.164 70.0564 258.214 69.2209C257.265 68.3854 256.791 67.3226 256.791 66.0372C256.791 64.475 257.384 63.2589 258.575 62.3937C259.762 61.5286 261.438 61.0985 263.588 61.0985H266.085V59.917C266.085 59.0222 265.818 58.3054 265.279 57.7714C264.74 57.2375 263.954 56.9755 262.906 56.9755C261.991 56.9755 261.22 57.2079 260.602 57.6676C259.984 58.1323 259.673 58.691 259.673 59.3485H257.092C257.092 58.597 257.359 57.8752 257.888 57.1782C258.422 56.4811 259.139 55.9275 260.053 55.5221C260.963 55.1167 261.967 54.914 263.059 54.914C264.789 54.914 266.144 55.3441 267.123 56.2092C268.102 57.0744 268.611 58.2658 268.651 59.7835V66.6947C268.651 68.074 268.828 69.1666 269.179 69.9823V70.2047H266.49V70.1998ZM262.234 68.2421C263.039 68.2421 263.801 68.0345 264.522 67.6192C265.244 67.2039 265.768 66.6601 266.09 65.9977V62.9178H264.078C260.933 62.9178 259.361 63.8373 259.361 65.6763C259.361 66.4821 259.628 67.11 260.167 67.5648C260.701 68.0147 261.388 68.2421 262.234 68.2421Z" fill="#008C95"/>
</svg>
