<svg width="270" height="110" viewBox="0 0 270 110" fill="none" xmlns="http://www.w3.org/2000/svg">
<path d="M40.8228 17.7082C40.8228 17.7082 41.8412 6.22406 41.9351 5.09691C42.0884 3.28753 40.6349 0 37.1249 0H26.763V0.00494848H20.5291H19.5403H8.13535C4.62535 0.00494848 2.9198 2.38778 2.70228 4.66186C2.57374 6.01148 0.176048 33.78 0.022795 35.3768C-0.224388 37.9475 1.55038 40.8643 4.77859 40.8643H16.9598H22.0418H33.6001C37.4265 40.8643 38.9095 38.8373 39.2358 35.7179C39.4286 33.8492 40.3778 22.5431 40.3778 22.5431H22.9564L22.205 31.2785H17.7952L19.6936 9.58575H24.1033L23.4063 17.7032H40.8228V17.7082Z" fill="#008C95"/>
<path d="M67.7107 3.50897C67.0878 5.29857 62.0205 21.1677 62.0205 21.1677L64.2748 0.00390625H46.8633L43.2148 40.8681H56.3403C59.6377 40.8681 60.7648 38.9945 61.3136 37.5015C61.9711 35.7119 66.801 22.3591 66.801 22.3591L65.0213 40.8681H82.4477L86.0368 0.00390625C86.0368 0.00390625 73.5491 0.00390625 72.3577 0.00390625C69.342 0.00390625 68.1507 2.23351 67.7107 3.50897Z" fill="#008C95"/>
<path d="M155.968 0.00390625L154.337 18.6415H149.917L151.549 0.00390625H134.127C134.127 0.00390625 132.456 19.734 132.279 21.6373C132.066 23.9114 133.356 27.1396 137.217 27.1396H153.596L153.23 31.2824H131.438L130.598 40.8681H153.076H154.07H165.272C167.621 40.8681 169.89 39.3356 170.196 36.058C170.394 33.952 173.395 0.00390625 173.395 0.00390625H155.968Z" fill="#008C95"/>
<path d="M193.47 19.7241L194.355 9.58471H198.72L197.835 19.7241H193.47ZM201.434 0.00390625H195.195H177.774L174.199 40.8632H191.621L192.728 28.2223H198.967H197.805H209.65C212.641 28.2223 214.633 26.6947 214.955 23.1897C215.078 21.8301 216.458 6.34166 216.552 4.97227C216.759 1.9517 214.357 0.00390625 211.371 0.00390625H201.434Z" fill="#008C95"/>
<path d="M109.516 32.3661H105.071L105.956 22.2267H110.401L109.516 32.3661ZM106.698 13.7285L107.064 9.58575H128.885L129.72 0H107.894H106.905H90.4727L86.8984 40.8643H93.4438C93.4438 40.8643 119.561 40.8643 121.672 40.8643C123.882 40.8643 126.275 39.5542 126.586 36.1381C126.818 33.5773 127.891 21.4258 128.089 19.2209C128.351 16.2745 126.477 13.7285 122.809 13.7285H106.698Z" fill="#008C95"/>
<path d="M15.743 103.286H13.0636V85.2661H3.10214V103.286H0.4375V83.0859H15.7381V103.286H15.743ZM29.437 103.286C29.2887 102.989 29.17 102.465 29.0761 101.704C27.8847 102.945 26.4609 103.563 24.8048 103.563C23.3266 103.563 22.1105 103.142 21.1613 102.307C20.2121 101.471 19.7375 100.408 19.7375 99.1231C19.7375 97.561 20.3308 96.3448 21.5222 95.4797C22.7087 94.6145 24.3846 94.1844 26.5351 94.1844H29.0316V93.0029C29.0316 92.1081 28.7646 91.3913 28.2258 90.8574C27.6869 90.3235 26.9009 90.0614 25.8528 90.0614C24.9383 90.0614 24.167 90.2938 23.5491 90.7535C22.9311 91.2183 22.6197 91.7769 22.6197 92.4344H20.0391C20.0391 91.683 20.306 90.9612 20.835 90.2641C21.3689 89.5671 22.0858 89.0134 23.0003 88.608C23.91 88.2026 24.9135 87.9999 26.0061 87.9999C27.7363 87.9999 29.0909 88.43 30.0697 89.2952C31.0486 90.1603 31.5578 91.3517 31.5974 92.8694V99.7807C31.5974 101.16 31.7753 102.253 32.1263 103.068V103.291H29.437V103.286ZM25.1805 101.328C25.9863 101.328 26.7477 101.12 27.4694 100.705C28.1912 100.29 28.7152 99.746 29.0365 99.0836V96.0037H27.0245C23.8803 96.0037 22.3082 96.9232 22.3082 98.7623C22.3082 99.5681 22.5752 100.196 23.114 100.651C23.648 101.101 24.3401 101.328 25.1805 101.328ZM48.3069 95.9444C48.3069 98.2284 47.7829 100.067 46.7398 101.466C45.6967 102.865 44.2778 103.563 42.4931 103.563C40.6689 103.563 39.2353 102.984 38.1922 101.827V109.055H35.6265V88.2718H37.9697L38.0933 89.9378C39.1364 88.6426 40.5898 87.995 42.4487 87.995C44.2531 87.995 45.6769 88.6772 46.7299 90.0367C47.7779 91.3962 48.3069 93.2897 48.3069 95.712V95.9444ZM45.7411 95.6576C45.7411 93.9669 45.3802 92.6272 44.6585 91.6483C43.9367 90.6695 42.9479 90.1801 41.6873 90.1801C40.135 90.1801 38.9683 90.8673 38.1922 92.2465V99.4198C38.9584 100.789 40.135 101.471 41.717 101.471C42.948 101.471 43.9268 100.982 44.6535 100.008C45.3802 99.0292 45.7411 97.5807 45.7411 95.6576ZM61.6152 90.3581H56.5776V103.291H54.0119V90.3581H49.0732V88.2768H61.6152V90.3581ZM76.3621 103.286H73.7964V96.8738H66.8999V103.286H64.3194V88.2768H66.8999V94.7826H73.7964V88.2768H76.3621V103.286ZM92.3796 100.666C91.1239 102.599 89.2354 103.567 86.7191 103.567C84.6823 103.567 83.0311 102.9 81.7507 101.56C80.4752 100.226 79.8375 98.436 79.8375 96.1965V95.7269C79.8375 94.2388 80.1242 92.909 80.6928 91.7373C81.2613 90.5657 82.0572 89.6511 83.0806 88.9887C84.1039 88.3262 85.2113 87.995 86.4027 87.995C88.3554 87.995 89.8731 88.6377 90.9508 89.923C92.0335 91.2084 92.5724 93.0474 92.5724 95.4451V96.5129H82.4033C82.4379 97.9911 82.8729 99.1874 83.6985 100.097C84.5241 101.007 85.5771 101.462 86.8526 101.462C87.7573 101.462 88.5284 101.279 89.1563 100.908C89.7841 100.537 90.3379 100.048 90.8075 99.4396L92.3796 100.666ZM86.4027 90.1059C85.3645 90.1059 84.4994 90.4816 83.7924 91.238C83.0904 91.9944 82.6554 93.0474 82.4873 94.4069H90.0066V94.2141C89.9325 92.909 89.5815 91.9005 88.9536 91.1836C88.3258 90.4668 87.4755 90.1059 86.4027 90.1059ZM108.229 95.9444C108.229 98.2284 107.705 100.067 106.662 101.466C105.619 102.865 104.2 103.563 102.415 103.563C100.591 103.563 99.1573 102.984 98.1142 101.827V109.055H95.5485V88.2718H97.8917L98.0153 89.9378C99.0584 88.6426 100.512 87.995 102.371 87.995C104.175 87.995 105.599 88.6772 106.652 90.0367C107.7 91.3962 108.229 93.2897 108.229 95.712V95.9444ZM105.663 95.6576C105.663 93.9669 105.302 92.6272 104.581 91.6483C103.859 90.6695 102.87 90.1801 101.609 90.1801C100.057 90.1801 98.8903 90.8673 98.1142 92.2465V99.4198C98.8805 100.789 100.057 101.471 101.639 101.471C102.87 101.471 103.849 100.982 104.576 100.008C105.302 99.0292 105.663 97.5807 105.663 95.6576ZM114.295 93.4478H118.195C119.896 93.4676 121.241 93.9125 122.234 94.7777C123.223 95.6478 123.717 96.8243 123.717 98.3173C123.717 99.8153 123.208 101.017 122.19 101.926C121.171 102.831 119.802 103.286 118.082 103.286H111.729V88.2768H114.295V93.4478ZM114.295 95.5439V101.19H118.111C119.075 101.19 119.817 100.942 120.346 100.448C120.875 99.9537 121.137 99.2764 121.137 98.4162C121.137 97.5857 120.88 96.9034 120.366 96.3695C119.851 95.8356 119.135 95.5637 118.21 95.5439H114.295ZM129.066 103.286H126.486V88.2768H129.066V103.286ZM140.462 101.19L141.351 100.092C142.35 98.7969 142.919 96.854 143.057 94.2635L143.294 88.2718H152.964V101.19H154.892V107.695H152.326V103.286H141.851V107.695H139.285L139.3 101.19H140.462ZM145.623 94.224C145.465 97.21 144.758 99.5335 143.502 101.19H150.398V90.6448H145.776L145.623 94.224ZM170.039 88.2768V103.286H167.459V90.3976H162.352L162.046 96.0186C161.877 98.5991 161.447 100.443 160.75 101.555C160.053 102.668 158.946 103.241 157.428 103.291H156.4V101.031L157.136 100.977C157.967 100.883 158.565 100.404 158.926 99.5335C159.287 98.6634 159.519 97.0567 159.618 94.7035L159.895 88.2817H170.039V88.2768ZM185.627 88.2768V103.286H183.046V97.4472H179.175L175.636 103.286H172.862L176.634 97.0567C175.67 96.7057 174.934 96.1619 174.42 95.4253C173.905 94.6887 173.648 93.8334 173.648 92.8497C173.648 91.4803 174.162 90.3778 175.186 89.5423C176.214 88.7069 177.583 88.2817 179.304 88.2718H185.627V88.2768ZM176.239 92.8793C176.239 93.611 176.491 94.1993 176.99 94.6491C177.49 95.099 178.152 95.3264 178.973 95.3363H183.051V90.3581H179.363C178.409 90.3581 177.653 90.5904 177.089 91.0601C176.521 91.5248 176.239 92.1328 176.239 92.8793ZM209.48 95.9444C209.48 98.2284 208.956 100.067 207.913 101.466C206.87 102.865 205.451 103.563 203.666 103.563C201.842 103.563 200.408 102.984 199.365 101.827V109.055H196.799V88.2718H199.143L199.266 89.9378C200.309 88.6426 201.763 87.995 203.622 87.995C205.426 87.995 206.85 88.6772 207.903 90.0367C208.951 91.3962 209.48 93.2897 209.48 95.712V95.9444ZM206.914 95.6576C206.914 93.9669 206.553 92.6272 205.831 91.6483C205.11 90.6695 204.121 90.1801 202.86 90.1801C201.308 90.1801 200.141 90.8673 199.365 92.2465V99.4198C200.131 100.789 201.308 101.471 202.89 101.471C204.121 101.471 205.1 100.982 205.827 100.008C206.553 99.0292 206.914 97.5807 206.914 95.6576ZM212.06 95.6428C212.06 94.1746 212.347 92.8497 212.926 91.6731C213.504 90.4965 214.31 89.5918 215.338 88.9541C216.371 88.3163 217.548 87.995 218.868 87.995C220.91 87.995 222.566 88.7019 223.826 90.1158C225.087 91.5297 225.72 93.4132 225.72 95.7615V95.9394C225.72 97.4028 225.438 98.7128 224.879 99.8746C224.321 101.036 223.52 101.941 222.482 102.589C221.444 103.236 220.247 103.558 218.898 103.558C216.861 103.558 215.215 102.851 213.954 101.437C212.693 100.023 212.06 98.1492 212.06 95.8158V95.6428ZM214.641 95.9444C214.641 97.6104 215.027 98.9452 215.798 99.9537C216.569 100.962 217.602 101.466 218.898 101.466C220.203 101.466 221.236 100.957 222.007 99.9339C222.773 98.9106 223.159 97.4819 223.159 95.6379C223.159 93.9916 222.768 92.6569 221.987 91.6335C221.206 90.6102 220.168 90.101 218.873 90.101C217.607 90.101 216.584 90.6052 215.808 91.6137C215.032 92.6272 214.641 94.0707 214.641 95.9444ZM234.959 101.466C235.874 101.466 236.675 101.19 237.357 100.636C238.039 100.082 238.42 99.3852 238.494 98.5546H240.922C240.877 99.4148 240.58 100.235 240.032 101.012C239.488 101.788 238.756 102.411 237.847 102.87C236.937 103.335 235.973 103.563 234.955 103.563C232.908 103.563 231.286 102.88 230.08 101.516C228.874 100.151 228.271 98.2877 228.271 95.9197V95.4896C228.271 94.0263 228.538 92.731 229.077 91.589C229.61 90.452 230.382 89.5671 231.385 88.9392C232.389 88.3114 233.575 87.995 234.945 87.995C236.625 87.995 238.025 88.4992 239.142 89.5077C240.254 90.5162 240.852 91.8263 240.926 93.433H238.499C238.425 92.464 238.059 91.6632 237.397 91.0403C236.734 90.4174 235.919 90.1059 234.95 90.1059C233.644 90.1059 232.636 90.5756 231.919 91.5149C231.202 92.4542 230.846 93.8087 230.846 95.5885V96.0729C230.846 97.8032 231.202 99.1331 231.914 100.067C232.616 101.002 233.635 101.466 234.959 101.466ZM254.952 90.3581H249.914V103.291H247.348V90.3581H242.41V88.2768H254.952V90.3581ZM266.49 103.286C266.342 102.989 266.223 102.465 266.129 101.704C264.938 102.945 263.514 103.563 261.858 103.563C260.38 103.563 259.164 103.142 258.214 102.307C257.265 101.471 256.791 100.408 256.791 99.1231C256.791 97.561 257.384 96.3448 258.575 95.4797C259.762 94.6145 261.438 94.1844 263.588 94.1844H266.085V93.0029C266.085 92.1081 265.818 91.3913 265.279 90.8574C264.74 90.3235 263.954 90.0614 262.906 90.0614C261.991 90.0614 261.22 90.2938 260.602 90.7535C259.984 91.2183 259.673 91.7769 259.673 92.4344H257.092C257.092 91.683 257.359 90.9612 257.888 90.2641C258.422 89.5671 259.139 89.0134 260.053 88.608C260.963 88.2026 261.967 87.9999 263.059 87.9999C264.789 87.9999 266.144 88.43 267.123 89.2952C268.102 90.1603 268.611 91.3517 268.651 92.8694V99.7807C268.651 101.16 268.828 102.253 269.179 103.068V103.291H266.49V103.286ZM262.234 101.328C263.039 101.328 263.801 101.12 264.522 100.705C265.244 100.29 265.768 99.746 266.09 99.0836V96.0037H264.078C260.933 96.0037 259.361 96.9232 259.361 98.7623C259.361 99.5681 259.628 100.196 260.167 100.651C260.701 101.101 261.388 101.328 262.234 101.328Z" fill="#008C95"/>
</svg>
