<svg width="816" height="81" viewBox="0 0 816 81" fill="none" xmlns="http://www.w3.org/2000/svg">
<path d="M490 0H326V80.664H490V0Z" fill="#00313C"/>
<path d="M375.161 37.6365C375.161 37.6365 375.654 32.0458 375.703 31.4988C375.78 30.6201 375.071 29.0195 373.363 29.0195H359.254C357.546 29.0195 356.716 30.1807 356.609 31.2881C356.546 31.9427 355.38 45.4599 355.304 46.24C355.183 47.4908 356.048 48.912 357.622 48.912H371.65C373.511 48.912 374.237 47.9257 374.394 46.4059C374.488 45.4957 374.95 39.9947 374.95 39.9947H366.468L366.1 44.2449H363.953L364.876 33.6867H367.024L366.683 37.6365H375.161Z" fill="white"/>
<path d="M388.25 30.7238C387.95 31.5935 385.479 39.3183 385.479 39.3183L386.578 29.0156H378.1L376.324 48.9037H382.713C384.318 48.9037 384.865 47.9935 385.134 47.2628C385.452 46.393 387.806 39.8922 387.806 39.8922L386.941 48.9037H395.423L397.172 29.0156C397.172 29.0156 391.092 29.0156 390.514 29.0156C389.043 29.0156 388.465 30.1006 388.25 30.7193" fill="white"/>
<path d="M431.211 29.0195L430.417 38.0893H428.265L429.059 29.0195H420.577C420.577 29.0195 419.765 38.6228 419.675 39.5509C419.572 40.6582 420.2 42.2274 422.078 42.2274H430.05L429.875 44.2449H419.267L418.859 48.912H435.735C436.878 48.912 437.981 48.1633 438.133 46.5717C438.227 45.5495 439.689 29.024 439.689 29.024H431.206L431.211 29.0195Z" fill="white"/>
<path d="M449.465 38.6189L449.895 33.6828H452.021L451.59 38.6189H449.465ZM453.343 29.0201H441.825L440.086 48.9081H448.568L449.106 42.7525H457.342C458.799 42.7525 459.768 42.0083 459.925 40.3046C459.987 39.6456 460.655 32.1046 460.7 31.4366C460.803 29.9661 459.633 29.0156 458.181 29.0156H453.343V29.0201Z" fill="white"/>
<path d="M408.601 44.77H406.435L406.866 39.8339H409.031L408.601 44.77ZM407.229 35.7003L407.404 33.6828H418.025L418.433 29.0156H399.329L397.59 48.9037H400.773C400.773 48.9037 413.488 48.9037 414.51 48.9037C415.532 48.9037 416.752 48.267 416.904 46.6037C417.016 45.3573 417.541 39.4438 417.635 38.3678C417.76 36.9332 416.85 35.6958 415.066 35.6958H407.225L407.229 35.7003Z" fill="white"/>
<path d="M653 0H489V80.664H653V0Z" fill="#77E2C3"/>
<path d="M538.161 37.6365C538.161 37.6365 538.654 32.0458 538.703 31.4988C538.78 30.6201 538.071 29.0195 536.363 29.0195H522.254C520.546 29.0195 519.716 30.1807 519.609 31.2881C519.546 31.9427 518.38 45.4599 518.304 46.24C518.183 47.4908 519.048 48.912 520.622 48.912H534.65C536.511 48.912 537.237 47.9257 537.394 46.4059C537.488 45.4957 537.95 39.9947 537.95 39.9947H529.468L529.1 44.2449H526.953L527.876 33.6867H530.024L529.683 37.6365H538.161Z" fill="#008C95"/>
<path d="M551.25 30.7238C550.95 31.5935 548.479 39.3183 548.479 39.3183L549.578 29.0156H541.1L539.324 48.9037H545.713C547.318 48.9037 547.865 47.9935 548.134 47.2628C548.452 46.393 550.806 39.8922 550.806 39.8922L549.941 48.9037H558.423L560.172 29.0156C560.172 29.0156 554.092 29.0156 553.514 29.0156C552.043 29.0156 551.465 30.1006 551.25 30.7193" fill="#008C95"/>
<path d="M594.211 29.0195L593.417 38.0893H591.265L592.059 29.0195H583.577C583.577 29.0195 582.765 38.6228 582.675 39.5509C582.572 40.6582 583.2 42.2274 585.078 42.2274H593.05L592.875 44.2449H582.267L581.859 48.912H598.735C599.878 48.912 600.981 48.1633 601.133 46.5717C601.227 45.5495 602.689 29.024 602.689 29.024H594.206L594.211 29.0195Z" fill="#008C95"/>
<path d="M612.465 38.6189L612.895 33.6828H615.021L614.59 38.6189H612.465ZM616.343 29.0201H604.825L603.086 48.9081H611.568L612.106 42.7525H620.342C621.799 42.7525 622.768 42.0083 622.925 40.3046C622.987 39.6456 623.655 32.1046 623.7 31.4366C623.803 29.9661 622.633 29.0156 621.181 29.0156H616.343V29.0201Z" fill="#008C95"/>
<path d="M571.601 44.77H569.435L569.866 39.8339H572.031L571.601 44.77ZM570.229 35.7003L570.404 33.6828H581.025L581.433 29.0156H562.329L560.59 48.9037H563.773C563.773 48.9037 576.488 48.9037 577.51 48.9037C578.532 48.9037 579.752 48.267 579.904 46.6037C580.016 45.3573 580.541 39.4438 580.635 38.3678C580.76 36.9332 579.85 35.6958 578.066 35.6958H570.225L570.229 35.7003Z" fill="#008C95"/>
<path d="M816 0H652V80.664H816V0Z" fill="#00313C"/>
<path d="M701.161 37.6365C701.161 37.6365 701.654 32.0458 701.703 31.4988C701.78 30.6201 701.071 29.0195 699.363 29.0195H685.254C683.546 29.0195 682.716 30.1807 682.609 31.2881C682.546 31.9427 681.38 45.4599 681.304 46.24C681.183 47.4908 682.048 48.912 683.622 48.912H697.65C699.511 48.912 700.237 47.9257 700.394 46.4059C700.488 45.4957 700.95 39.9947 700.95 39.9947H692.468L692.1 44.2449H689.953L690.876 33.6867H693.024L692.683 37.6365H701.161Z" fill="#008C95"/>
<path d="M714.25 30.7238C713.95 31.5935 711.479 39.3183 711.479 39.3183L712.578 29.0156H704.1L702.324 48.9037H708.713C710.318 48.9037 710.865 47.9935 711.134 47.2628C711.452 46.393 713.806 39.8922 713.806 39.8922L712.941 48.9037H721.423L723.172 29.0156C723.172 29.0156 717.092 29.0156 716.514 29.0156C715.043 29.0156 714.465 30.1006 714.25 30.7193" fill="#008C95"/>
<path d="M757.211 29.0195L756.417 38.0893H754.265L755.059 29.0195H746.577C746.577 29.0195 745.765 38.6228 745.675 39.5509C745.572 40.6582 746.2 42.2274 748.078 42.2274H756.05L755.875 44.2449H745.267L744.859 48.912H761.735C762.878 48.912 763.981 48.1633 764.133 46.5717C764.227 45.5495 765.689 29.024 765.689 29.024H757.206L757.211 29.0195Z" fill="#008C95"/>
<path d="M775.465 38.6189L775.895 33.6828H778.021L777.59 38.6189H775.465ZM779.343 29.0201H767.825L766.086 48.9081H774.568L775.106 42.7525H783.342C784.799 42.7525 785.768 42.0083 785.925 40.3046C785.987 39.6456 786.655 32.1046 786.7 31.4366C786.803 29.9661 785.633 29.0156 784.181 29.0156H779.343V29.0201Z" fill="#008C95"/>
<path d="M734.601 44.77H732.435L732.866 39.8339H735.031L734.601 44.77ZM733.229 35.7003L733.404 33.6828H744.025L744.433 29.0156H725.329L723.59 48.9037H726.773C726.773 48.9037 739.488 48.9037 740.51 48.9037C741.532 48.9037 742.752 48.267 742.904 46.6037C743.016 45.3573 743.541 39.4438 743.635 38.3678C743.76 36.9332 742.85 35.6958 741.066 35.6958H733.225L733.229 35.7003Z" fill="#008C95"/>
<path d="M327 0H163V80.6326H327V0Z" fill="#77E2C3"/>
<path d="M212.161 39.3357C212.161 39.3357 212.654 33.745 212.703 33.198C212.78 32.3193 212.071 30.7188 210.363 30.7188H196.254C194.546 30.7188 193.716 31.8799 193.609 32.9873C193.546 33.6419 192.38 47.1591 192.304 47.9392C192.183 49.1901 193.048 50.6113 194.622 50.6113H208.65C210.511 50.6113 211.237 49.6249 211.394 48.1051C211.488 47.195 211.95 41.6939 211.95 41.6939H203.468L203.1 45.9441H200.953L201.876 35.3859H204.024L203.683 39.3357H212.161Z" fill="white"/>
<path d="M225.25 32.4269C224.95 33.2967 222.479 41.0214 222.479 41.0214L223.578 30.7188H215.1L213.324 50.6068H219.713C221.318 50.6068 221.865 49.6967 222.134 48.9659C222.452 48.0961 224.806 41.5953 224.806 41.5953L223.941 50.6068H232.423L234.172 30.7188C234.172 30.7188 228.092 30.7188 227.514 30.7188C226.043 30.7188 225.465 31.8037 225.25 32.4224" fill="white"/>
<path d="M268.211 30.7188L267.417 39.7885H265.265L266.059 30.7188H257.577C257.577 30.7188 256.765 40.322 256.675 41.2501C256.572 42.3575 257.2 43.9266 259.078 43.9266H267.05L266.875 45.9441H256.267L255.859 50.6113H272.735C273.878 50.6113 274.981 49.8625 275.133 48.271C275.227 47.2488 276.689 30.7232 276.689 30.7232H268.206L268.211 30.7188Z" fill="white"/>
<path d="M286.465 40.322L286.895 35.3859H289.021L288.59 40.322H286.465ZM290.343 30.7232H278.825L277.086 50.6113H285.568L286.106 44.4557H294.342C295.799 44.4557 296.768 43.7114 296.925 42.0078C296.987 41.3487 297.655 33.8078 297.7 33.1397C297.803 31.6692 296.633 30.7188 295.181 30.7188H290.343V30.7232Z" fill="white"/>
<path d="M245.601 46.4731H243.435L243.866 41.537H246.031L245.601 46.4731ZM244.229 37.4034L244.404 35.3859H255.025L255.433 30.7188H236.329L234.59 50.6068H237.773C237.773 50.6068 250.488 50.6068 251.51 50.6068C252.532 50.6068 253.752 49.9701 253.904 48.3068C254.016 47.0605 254.541 41.147 254.635 40.071C254.76 38.6363 253.85 37.3989 252.066 37.3989H244.225L244.229 37.4034Z" fill="white"/>
<path d="M164 0H0V80.6371H164V0Z" fill="#008C95"/>
<path d="M49.1686 39.1052C49.1686 39.1052 49.6618 33.5145 49.7111 32.9676C49.7873 32.0888 49.079 30.4883 47.3708 30.4883H33.2618C31.5537 30.4883 30.7243 31.6495 30.6167 32.7568C30.5539 33.4114 29.3882 46.9286 29.312 47.7087C29.1909 48.9596 30.0562 50.3808 31.6299 50.3808H45.6582C47.5188 50.3808 48.2451 49.3945 48.402 47.8746C48.4962 46.9645 48.9579 41.4635 48.9579 41.4635H40.4755L40.1079 45.7137H37.9603L38.8839 35.1554H41.0314L40.6907 39.1052H49.1686Z" fill="white"/>
<path d="M62.2577 32.1925C61.9573 33.0623 59.487 40.7871 59.487 40.7871L60.5854 30.4844H52.1075L50.332 50.3724H56.7208C58.3258 50.3724 58.8728 49.4623 59.1418 48.7315C59.4601 47.8617 61.8139 41.3609 61.8139 41.3609L60.9486 50.3724H69.431L71.1795 30.4844C71.1795 30.4844 65.1001 30.4844 64.5218 30.4844C63.0512 30.4844 62.4729 31.5693 62.2577 32.188" fill="white"/>
<path d="M105.215 30.4883L104.421 39.558H102.269L103.063 30.4883H94.5804C94.5804 30.4883 93.7689 40.0916 93.6793 41.0196C93.5762 42.127 94.2038 43.6962 96.0823 43.6962H104.054L103.879 45.7137H93.2713L92.8633 50.3808H109.739C110.882 50.3808 111.985 49.6321 112.137 48.0405C112.231 47.0183 113.693 30.4928 113.693 30.4928H105.21L105.215 30.4883Z" fill="white"/>
<path d="M123.473 40.0877L123.903 35.1515H126.028L125.598 40.0877H123.473ZM127.351 30.4889H115.833L114.094 50.3769H122.576L123.114 44.2213H131.35C132.807 44.2213 133.776 43.477 133.932 41.7734C133.995 41.1143 134.663 33.5734 134.708 32.9054C134.811 31.4348 133.641 30.4844 132.188 30.4844H127.351V30.4889Z" fill="white"/>
<path d="M82.6087 46.2388H80.4432L80.8736 41.3026H83.0391L82.6087 46.2388ZM81.2368 37.169L81.4117 35.1515H92.0326L92.4406 30.4844H73.3372L71.5977 50.3724H74.7808C74.7808 50.3724 87.4955 50.3724 88.5177 50.3724C89.5399 50.3724 90.7594 49.7358 90.9118 48.0725C91.0239 46.8261 91.5484 40.9126 91.6426 39.8366C91.7681 38.4019 90.858 37.1645 89.0736 37.1645H81.2323L81.2368 37.169Z" fill="white"/>
</svg>
