<svg width="100" height="239" viewBox="0 0 100 239" fill="none" xmlns="http://www.w3.org/2000/svg">
<path d="M99.3588 95.1563L0.796875 95.1562L0.796873 143.634L99.3588 143.634L99.3588 95.1563Z" fill="#00313C"/>
<path d="M30.3427 117.772C30.3427 117.772 30.6391 114.412 30.6687 114.084C30.7145 113.556 30.2888 112.594 29.2622 112.594L20.7829 112.594C19.7563 112.594 19.2578 113.292 19.1932 113.957C19.1554 114.351 18.4549 122.474 18.4091 122.943C18.3363 123.695 18.8564 124.549 19.8021 124.549L28.233 124.549C29.3511 124.549 29.7876 123.956 29.8819 123.043C29.9385 122.496 30.216 119.19 30.216 119.19L25.1182 119.19L24.8973 121.744L23.6066 121.744L24.1617 115.399L25.4523 115.399L25.2475 117.772L30.3427 117.772Z" fill="white"/>
<path d="M38.2102 113.62C38.0296 114.143 36.545 118.786 36.545 118.786L37.2051 112.594L32.11 112.594L31.043 124.546L34.8825 124.546C35.8471 124.546 36.1758 123.999 36.3375 123.56C36.5288 123.037 37.9434 119.13 37.9434 119.13L37.4234 124.546L42.5212 124.546L43.572 112.594C43.572 112.594 39.9184 112.594 39.5708 112.594C38.687 112.594 38.3395 113.246 38.2102 113.618" fill="white"/>
<path d="M64.0286 112.594L63.5517 118.045L62.2584 118.045L62.7353 112.594L57.6375 112.594C57.6375 112.594 57.1498 118.365 57.0959 118.923C57.0339 119.588 57.4111 120.532 58.5401 120.532L63.3308 120.532L63.2257 121.744L56.8507 121.744L56.6055 124.549L66.7473 124.549C67.4343 124.549 68.0972 124.099 68.1888 123.142C68.2454 122.528 69.1238 112.596 69.1238 112.596L64.0259 112.596L64.0286 112.594Z" fill="white"/>
<path d="M74.9961 118.365L75.2548 115.399L76.5319 115.399L76.2732 118.365L74.9961 118.365ZM77.3268 112.596L70.4048 112.596L69.3594 124.549L74.4572 124.549L74.7805 120.849L79.7302 120.849C80.6059 120.849 81.1879 120.402 81.2822 119.378C81.3199 118.982 81.7214 114.45 81.7483 114.049C81.8103 113.165 81.107 112.594 80.2341 112.594L77.3268 112.594L77.3268 112.596Z" fill="white"/>
<path d="M50.4378 122.062L49.1364 122.062L49.3951 119.095L50.6965 119.095L50.4378 122.062ZM49.6133 116.611L49.7184 115.399L56.1015 115.399L56.3467 112.594L44.8657 112.594L43.8203 124.546L45.7333 124.546C45.7333 124.546 53.3747 124.546 53.9891 124.546C54.6034 124.546 55.3363 124.164 55.4279 123.164C55.4952 122.415 55.8105 118.861 55.8671 118.214C55.9425 117.352 55.3955 116.608 54.3232 116.608L49.6106 116.608L49.6133 116.611Z" fill="white"/>
<path d="M99.3588 142.633L0.796875 142.633L0.796873 191.111L99.3588 191.111L99.3588 142.633Z" fill="#77E2C3"/>
<path d="M30.3427 165.249C30.3427 165.249 30.6391 161.889 30.6687 161.56C30.7145 161.032 30.2888 160.07 29.2622 160.07L20.7829 160.07C19.7563 160.07 19.2578 160.768 19.1932 161.434C19.1554 161.827 18.4549 169.951 18.4091 170.42C18.3363 171.171 18.8564 172.025 19.8021 172.025L28.233 172.025C29.3511 172.025 29.7876 171.433 29.8819 170.519C29.9385 169.972 30.216 166.666 30.216 166.666L25.1182 166.666L24.8973 169.221L23.6066 169.221L24.1617 162.875L25.4523 162.875L25.2475 165.249L30.3427 165.249Z" fill="#008C95"/>
<path d="M38.2102 161.097C38.0296 161.62 36.545 166.262 36.545 166.262L37.2051 160.07L32.11 160.07L31.043 172.023L34.8825 172.023C35.8471 172.023 36.1758 171.476 36.3375 171.037C36.5288 170.514 37.9434 166.607 37.9434 166.607L37.4234 172.023L42.5212 172.023L43.572 160.07C43.572 160.07 39.9184 160.07 39.5708 160.07C38.687 160.07 38.3395 160.722 38.2102 161.094" fill="#008C95"/>
<path d="M64.0286 160.07L63.5517 165.521L62.2584 165.521L62.7353 160.07L57.6375 160.07C57.6375 160.07 57.1498 165.842 57.0959 166.4C57.0339 167.065 57.4111 168.008 58.5401 168.008L63.3308 168.008L63.2257 169.221L56.8507 169.221L56.6055 172.025L66.7473 172.025C67.4343 172.025 68.0972 171.575 68.1888 170.619C68.2454 170.005 69.1238 160.073 69.1238 160.073L64.0259 160.073L64.0286 160.07Z" fill="#008C95"/>
<path d="M74.9961 165.842L75.2548 162.875L76.5319 162.875L76.2732 165.842L74.9961 165.842ZM77.3268 160.073L70.4048 160.073L69.3594 172.025L74.4572 172.025L74.7805 168.326L79.7302 168.326C80.6059 168.326 81.1879 167.879 81.2822 166.855C81.3199 166.459 81.7214 161.927 81.7483 161.525C81.8103 160.642 81.107 160.07 80.2341 160.07L77.3268 160.07L77.3268 160.073Z" fill="#008C95"/>
<path d="M50.4378 169.539L49.1364 169.539L49.3951 166.572L50.6965 166.572L50.4378 169.539ZM49.6133 164.088L49.7184 162.875L56.1015 162.875L56.3467 160.07L44.8657 160.07L43.8203 172.023L45.7333 172.023C45.7333 172.023 53.3747 172.023 53.9891 172.023C54.6034 172.023 55.3363 171.64 55.4279 170.641C55.4952 169.891 55.8105 166.338 55.8671 165.691C55.9425 164.829 55.3955 164.085 54.3232 164.085L49.6106 164.085L49.6133 164.088Z" fill="#008C95"/>
<path d="M99.3588 190.109L0.796875 190.109L0.796873 238.587L99.3588 238.587L99.3588 190.109Z" fill="#00313C"/>
<path d="M30.3427 212.726C30.3427 212.726 30.6391 209.366 30.6687 209.037C30.7145 208.509 30.2888 207.547 29.2622 207.547L20.7829 207.547C19.7563 207.547 19.2578 208.245 19.1932 208.91C19.1554 209.304 18.4549 217.427 18.4091 217.896C18.3363 218.648 18.8564 219.502 19.8021 219.502L28.233 219.502C29.3511 219.502 29.7876 218.909 29.8819 217.996C29.9385 217.449 30.216 214.143 30.216 214.143L25.1182 214.143L24.8973 216.697L23.6066 216.697L24.1617 210.352L25.4523 210.352L25.2475 212.726L30.3427 212.726Z" fill="#008C95"/>
<path d="M38.2102 208.573C38.0296 209.096 36.545 213.739 36.545 213.739L37.2051 207.547L32.11 207.547L31.043 219.499L34.8825 219.499C35.8471 219.499 36.1758 218.952 36.3375 218.513C36.5288 217.99 37.9434 214.084 37.9434 214.084L37.4234 219.499L42.5212 219.499L43.572 207.547C43.572 207.547 39.9184 207.547 39.5708 207.547C38.687 207.547 38.3395 208.199 38.2102 208.571" fill="#008C95"/>
<path d="M64.0286 207.547L63.5517 212.998L62.2584 212.998L62.7353 207.547L57.6375 207.547C57.6375 207.547 57.1498 213.318 57.0959 213.876C57.0339 214.542 57.4111 215.485 58.5401 215.485L63.3308 215.485L63.2257 216.697L56.8507 216.697L56.6055 219.502L66.7473 219.502C67.4343 219.502 68.0972 219.052 68.1888 218.096C68.2454 217.481 69.1238 207.55 69.1238 207.55L64.0259 207.55L64.0286 207.547Z" fill="#008C95"/>
<path d="M74.9961 213.318L75.2548 210.352L76.5319 210.352L76.2732 213.318L74.9961 213.318ZM77.3268 207.55L70.4048 207.55L69.3594 219.502L74.4572 219.502L74.7805 215.803L79.7302 215.803C80.6059 215.803 81.1879 215.355 81.2822 214.331C81.3199 213.935 81.7214 209.403 81.7483 209.002C81.8103 208.118 81.107 207.547 80.2341 207.547L77.3268 207.547L77.3268 207.55Z" fill="#008C95"/>
<path d="M50.4378 217.015L49.1364 217.015L49.3951 214.049L50.6965 214.049L50.4378 217.015ZM49.6133 211.564L49.7184 210.352L56.1015 210.352L56.3467 207.547L44.8657 207.547L43.8203 219.499L45.7333 219.499C45.7333 219.499 53.3747 219.499 53.9891 219.499C54.6034 219.499 55.3363 219.117 55.4279 218.117C55.4952 217.368 55.8105 213.814 55.8671 213.167C55.9425 212.305 55.3955 211.562 54.3232 211.562L49.6106 211.562L49.6133 211.564Z" fill="#008C95"/>
<path d="M99.3666 47.6953L0.804688 47.6953L0.804685 96.1545L99.3666 96.1545L99.3666 47.6953Z" fill="#77E2C3"/>
<path d="M30.3505 71.3349C30.3505 71.3349 30.6469 67.975 30.6765 67.6463C30.7223 67.1182 30.2966 66.1563 29.27 66.1563L20.7907 66.1563C19.7641 66.1563 19.2656 66.8541 19.201 67.5196C19.1633 67.913 18.4627 76.0367 18.4169 76.5055C18.3441 77.2573 18.8642 78.1114 19.8099 78.1114L28.2408 78.1114C29.359 78.1114 29.7954 77.5186 29.8898 76.6052C29.9463 76.0582 30.2239 72.7522 30.2239 72.7522L25.126 72.7522L24.9051 75.3065L23.6144 75.3065L24.1695 68.9611L25.4601 68.9611L25.2553 71.3349L30.3505 71.3349Z" fill="white"/>
<path d="M38.218 67.1828C38.0374 67.7055 36.5528 72.348 36.5528 72.348L37.2129 66.1563L32.1178 66.1563L31.0508 78.1087L34.8903 78.1087C35.8549 78.1087 36.1837 77.5617 36.3453 77.1225C36.5366 76.5998 37.9512 72.6929 37.9512 72.6929L37.4312 78.1087L42.529 78.1087L43.5798 66.1563C43.5798 66.1563 39.9262 66.1563 39.5786 66.1563C38.6949 66.1563 38.3473 66.8083 38.218 67.1801" fill="white"/>
<path d="M64.0364 66.1563L63.5595 71.6071L62.2662 71.6071L62.7431 66.1563L57.6453 66.1563C57.6453 66.1563 57.1576 71.9277 57.1037 72.4854C57.0417 73.151 57.4189 74.094 58.5479 74.094L63.3386 74.094L63.2335 75.3065L56.8585 75.3065L56.6133 78.1114L66.7551 78.1114C67.4422 78.1114 68.105 77.6614 68.1966 76.7049C68.2532 76.0906 69.1316 66.1589 69.1316 66.1589L64.0337 66.1589L64.0364 66.1563Z" fill="white"/>
<path d="M75.0039 71.9277L75.2626 68.9611L76.5397 68.9611L76.281 71.9277L75.0039 71.9277ZM77.3346 66.1589L70.4126 66.1589L69.3672 78.1114L74.465 78.1114L74.7884 74.412L79.738 74.412C80.6137 74.412 81.1957 73.9647 81.29 72.9408C81.3277 72.5447 81.7292 68.0127 81.7561 67.6112C81.8181 66.7275 81.1149 66.1563 80.2419 66.1563L77.3346 66.1563L77.3346 66.1589Z" fill="white"/>
<path d="M50.4456 75.6244L49.1442 75.6244L49.4029 72.6579L50.7043 72.6579L50.4456 75.6244ZM49.6211 70.1736L49.7262 68.9611L56.1093 68.9611L56.3545 66.1563L44.8736 66.1563L43.8281 78.1087L45.7412 78.1087C45.7412 78.1087 53.3825 78.1087 53.9969 78.1087C54.6112 78.1087 55.3441 77.7261 55.4357 76.7265C55.503 75.9774 55.8183 72.4235 55.8749 71.7768C55.9503 70.9146 55.4033 70.1709 54.331 70.1709L49.6184 70.1709L49.6211 70.1736Z" fill="white"/>
<path d="M99.3666 0.234379L0.804688 0.234375L0.804685 48.6962L99.3666 48.6962L99.3666 0.234379Z" fill="#008C95"/>
<path d="M30.3583 23.7334C30.3583 23.7334 30.6547 20.3734 30.6843 20.0447C30.7301 19.5166 30.3044 18.5547 29.2778 18.5547L20.7985 18.5547C19.7719 18.5547 19.2735 19.2525 19.2088 19.9181C19.1711 20.3115 18.4705 28.4351 18.4247 28.904C18.352 29.6557 18.872 30.5098 19.8177 30.5098L28.2486 30.5098C29.3668 30.5098 29.8033 29.9171 29.8976 29.0037C29.9541 28.4567 30.2317 25.1506 30.2317 25.1506L25.1338 25.1506L24.9129 27.7049L23.6223 27.7049L24.1773 21.3596L25.4679 21.3596L25.2631 23.7334L30.3583 23.7334Z" fill="white"/>
<path d="M38.2219 19.5774C38.0413 20.1001 36.5567 24.7426 36.5567 24.7426L37.2168 18.5508L32.1217 18.5508L31.0547 30.5032L34.8942 30.5032C35.8588 30.5032 36.1876 29.9563 36.3492 29.5171C36.5405 28.9944 37.9551 25.0874 37.9551 25.0874L37.4351 30.5032L42.5329 30.5032L43.5837 18.5508C43.5837 18.5508 39.9301 18.5508 39.5825 18.5508C38.6988 18.5508 38.3512 19.2028 38.2219 19.5747" fill="white"/>
<path d="M64.0403 18.5547L63.5634 24.0055L62.2701 24.0055L62.747 18.5547L57.6492 18.5547C57.6492 18.5547 57.1615 24.3261 57.1076 24.8839C57.0456 25.5494 57.4228 26.4925 58.5518 26.4925L63.3425 26.4925L63.2374 27.7049L56.8624 27.7049L56.6172 30.5098L66.759 30.5098C67.4461 30.5098 68.1089 30.0599 68.2005 29.1033C68.2571 28.489 69.1355 18.5574 69.1355 18.5574L64.0376 18.5574L64.0403 18.5547Z" fill="white"/>
<path d="M75.0117 24.3222L75.2704 21.3557L76.5475 21.3557L76.2889 24.3222L75.0117 24.3222ZM77.3424 18.5535L70.4204 18.5535L69.375 30.5059L74.4728 30.5059L74.7962 26.8065L79.7458 26.8065C80.6215 26.8065 81.2035 26.3592 81.2978 25.3353C81.3355 24.9393 81.737 20.4072 81.7639 20.0058C81.8259 19.122 81.1227 18.5508 80.2497 18.5508L77.3424 18.5508L77.3424 18.5535Z" fill="white"/>
<path d="M50.4534 28.019L49.152 28.019L49.4107 25.0524L50.7121 25.0524L50.4534 28.019ZM49.6289 22.5682L49.734 21.3557L56.1171 21.3557L56.3623 18.5508L44.8814 18.5508L43.8359 30.5032L45.749 30.5032C45.749 30.5032 53.3903 30.5032 54.0047 30.5032C54.619 30.5032 55.3519 30.1206 55.4435 29.121C55.5108 28.3719 55.8261 24.818 55.8827 24.1713C55.9581 23.3091 55.4112 22.5655 54.3388 22.5655L49.6262 22.5655L49.6289 22.5682Z" fill="white"/>
</svg>
