<svg width="462" height="352" viewBox="0 0 462 352" fill="none" xmlns="http://www.w3.org/2000/svg">
<path d="M308.648 351.5V0.5H430C447.397 0.5 461.5 14.603 461.5 32V320C461.5 337.397 447.397 351.5 430 351.5H308.648Z" fill="#008C95" stroke="#77E2C3"/>
<path d="M155.23 351.5L155.23 0.5H308.082V351.5H155.23Z" fill="white" stroke="#77E2C3"/>
<path d="M32 351.5C14.603 351.5 0.5 337.397 0.5 320L0.5 32C0.5 14.603 14.603 0.5 32 0.5H154.23L154.23 351.5H32Z" fill="black" stroke="#77E2C3"/>
<path d="M30.6973 323.434V334H28.3438V323.434H30.6973ZM29.7012 328.111V329.977C29.4147 330.1 29.0924 330.214 28.7344 330.318C28.3828 330.416 28.0117 330.497 27.6211 330.562C27.2305 330.621 26.8366 330.65 26.4395 330.65C25.5085 330.65 24.7044 330.507 24.0273 330.221C23.3568 329.934 22.8392 329.495 22.4746 328.902C22.1165 328.303 21.9375 327.545 21.9375 326.627V323.424H24.2812V326.627C24.2812 327.154 24.3594 327.574 24.5156 327.887C24.6784 328.199 24.9193 328.424 25.2383 328.561C25.5573 328.697 25.9577 328.766 26.4395 328.766C26.8431 328.766 27.224 328.74 27.582 328.688C27.9401 328.629 28.2949 328.551 28.6465 328.453C28.998 328.355 29.3496 328.242 29.7012 328.111ZM37.8652 334.195C37.084 334.195 36.3776 334.068 35.7461 333.814C35.1211 333.554 34.5872 333.193 34.1445 332.73C33.7083 332.268 33.373 331.725 33.1387 331.1C32.9043 330.475 32.7871 329.801 32.7871 329.078V328.688C32.7871 327.861 32.9076 327.112 33.1484 326.441C33.3893 325.771 33.7246 325.198 34.1543 324.723C34.584 324.241 35.0918 323.873 35.6777 323.619C36.2637 323.365 36.8984 323.238 37.582 323.238C38.3372 323.238 38.998 323.365 39.5645 323.619C40.1309 323.873 40.5996 324.231 40.9707 324.693C41.3483 325.149 41.6283 325.693 41.8105 326.324C41.9993 326.956 42.0938 327.652 42.0938 328.414V329.42H33.9297V327.73H39.7695V327.545C39.7565 327.122 39.6719 326.725 39.5156 326.354C39.3659 325.982 39.1348 325.683 38.8223 325.455C38.5098 325.227 38.0931 325.113 37.5723 325.113C37.1816 325.113 36.8333 325.198 36.5273 325.367C36.2279 325.53 35.9772 325.768 35.7754 326.08C35.5736 326.393 35.4173 326.77 35.3066 327.213C35.2025 327.649 35.1504 328.141 35.1504 328.688V329.078C35.1504 329.54 35.2122 329.97 35.3359 330.367C35.4661 330.758 35.6549 331.1 35.9023 331.393C36.1497 331.686 36.4492 331.917 36.8008 332.086C37.1523 332.249 37.5527 332.33 38.002 332.33C38.5684 332.33 39.0729 332.216 39.5156 331.988C39.9583 331.76 40.3424 331.438 40.668 331.021L41.9082 332.223C41.6803 332.555 41.3841 332.874 41.0195 333.18C40.6549 333.479 40.209 333.723 39.6816 333.912C39.1608 334.101 38.5553 334.195 37.8652 334.195ZM46.293 325.465V338.062H43.9395V323.434H46.1074L46.293 325.465ZM53.1777 328.619V328.824C53.1777 329.592 53.0866 330.305 52.9043 330.963C52.7285 331.614 52.4648 332.184 52.1133 332.672C51.7682 333.154 51.3418 333.528 50.834 333.795C50.3262 334.062 49.7402 334.195 49.0762 334.195C48.4186 334.195 47.8424 334.075 47.3477 333.834C46.8594 333.587 46.446 333.238 46.1074 332.789C45.7689 332.34 45.4954 331.812 45.2871 331.207C45.0853 330.595 44.9421 329.924 44.8574 329.195V328.404C44.9421 327.63 45.0853 326.926 45.2871 326.295C45.4954 325.663 45.7689 325.12 46.1074 324.664C46.446 324.208 46.8594 323.857 47.3477 323.609C47.8359 323.362 48.4056 323.238 49.0566 323.238C49.7207 323.238 50.3099 323.368 50.8242 323.629C51.3385 323.883 51.7715 324.247 52.123 324.723C52.4746 325.191 52.7383 325.758 52.9141 326.422C53.0898 327.079 53.1777 327.812 53.1777 328.619ZM50.8242 328.824V328.619C50.8242 328.131 50.7786 327.678 50.6875 327.262C50.5964 326.839 50.4531 326.467 50.2578 326.148C50.0625 325.829 49.8118 325.582 49.5059 325.406C49.2064 325.224 48.8451 325.133 48.4219 325.133C48.0052 325.133 47.6471 325.204 47.3477 325.348C47.0482 325.484 46.7975 325.676 46.5957 325.924C46.3939 326.171 46.2376 326.461 46.127 326.793C46.0163 327.118 45.9382 327.473 45.8926 327.857V329.752C45.9707 330.221 46.1042 330.65 46.293 331.041C46.4818 331.432 46.7487 331.744 47.0938 331.979C47.4453 332.206 47.8945 332.32 48.4414 332.32C48.8646 332.32 49.2259 332.229 49.5254 332.047C49.8249 331.865 50.069 331.614 50.2578 331.295C50.4531 330.969 50.5964 330.595 50.6875 330.172C50.7786 329.749 50.8242 329.299 50.8242 328.824ZM62.3965 327.848V329.703H56.9277V327.848H62.3965ZM57.6113 323.434V334H55.2578V323.434H57.6113ZM64.0957 323.434V334H61.7422V323.434H64.0957ZM68.3535 326.793H71.4688C72.3802 326.793 73.1549 326.946 73.793 327.252C74.431 327.558 74.916 327.984 75.248 328.531C75.5866 329.072 75.7559 329.69 75.7559 330.387C75.7559 330.901 75.6615 331.38 75.4727 331.822C75.2839 332.258 75.0039 332.639 74.6328 332.965C74.2682 333.29 73.819 333.544 73.2852 333.727C72.7578 333.909 72.1523 334 71.4688 334H66.791V323.434H69.1543V332.135H71.4688C71.9375 332.135 72.3118 332.053 72.5918 331.891C72.8717 331.728 73.0736 331.516 73.1973 331.256C73.3275 330.995 73.3926 330.719 73.3926 330.426C73.3926 330.126 73.3275 329.843 73.1973 329.576C73.0736 329.309 72.8717 329.091 72.5918 328.922C72.3118 328.753 71.9375 328.668 71.4688 328.668H68.3535V326.793ZM79.916 323.434V334H77.5625V323.434H79.916ZM85.1309 330.562L89.2812 323.434H91.6348V334H89.2812V326.861L85.1309 334H82.7773V323.434H85.1309V330.562ZM88.6562 319.371H90.4043C90.4043 319.911 90.2741 320.39 90.0137 320.807C89.7598 321.217 89.3952 321.539 88.9199 321.773C88.4512 322.008 87.8913 322.125 87.2402 322.125C86.2572 322.125 85.4792 321.871 84.9062 321.363C84.3398 320.849 84.0566 320.185 84.0566 319.371H85.8047C85.8047 319.736 85.9121 320.058 86.127 320.338C86.3483 320.611 86.7194 320.748 87.2402 320.748C87.7546 320.748 88.1191 320.611 88.334 320.338C88.5488 320.058 88.6562 319.736 88.6562 319.371Z" fill="white"/>
<path d="M336.842 318.805H338.746C338.746 319.384 338.665 319.863 338.502 320.24C338.346 320.611 338.111 320.917 337.799 321.158C337.493 321.393 337.112 321.581 336.656 321.725C336.207 321.868 335.686 321.998 335.094 322.115C334.547 322.232 334.052 322.418 333.609 322.672C333.173 322.919 332.805 323.268 332.506 323.717C332.213 324.16 332.001 324.729 331.871 325.426C331.741 326.122 331.702 326.972 331.754 327.975V328.639L329.889 328.805V328.141C329.889 326.897 330.003 325.813 330.23 324.889C330.458 323.964 330.781 323.186 331.197 322.555C331.62 321.917 332.122 321.409 332.701 321.031C333.287 320.654 333.938 320.393 334.654 320.25C335.143 320.146 335.549 320.042 335.875 319.938C336.201 319.827 336.441 319.687 336.598 319.518C336.76 319.342 336.842 319.104 336.842 318.805ZM335.191 324.029C335.895 324.029 336.52 324.153 337.066 324.4C337.613 324.641 338.076 324.98 338.453 325.416C338.831 325.852 339.117 326.367 339.312 326.959C339.514 327.551 339.615 328.196 339.615 328.893V329.107C339.615 329.837 339.508 330.51 339.293 331.129C339.078 331.747 338.762 332.288 338.346 332.75C337.929 333.206 337.418 333.564 336.812 333.824C336.214 334.078 335.527 334.205 334.752 334.205C333.984 334.205 333.297 334.072 332.691 333.805C332.086 333.538 331.575 333.167 331.158 332.691C330.742 332.21 330.426 331.646 330.211 331.002C329.996 330.357 329.889 329.654 329.889 328.893V328.678C329.882 328.541 329.918 328.408 329.996 328.277C330.081 328.147 330.182 328.007 330.299 327.857C330.416 327.708 330.52 327.535 330.611 327.34C330.937 326.682 331.321 326.106 331.764 325.611C332.206 325.117 332.711 324.729 333.277 324.449C333.85 324.169 334.488 324.029 335.191 324.029ZM334.732 325.895C334.146 325.895 333.668 326.035 333.297 326.314C332.932 326.588 332.662 326.952 332.486 327.408C332.317 327.864 332.232 328.359 332.232 328.893V329.107C332.232 329.544 332.281 329.957 332.379 330.348C332.477 330.738 332.623 331.083 332.818 331.383C333.02 331.676 333.281 331.907 333.6 332.076C333.925 332.245 334.309 332.33 334.752 332.33C335.201 332.33 335.582 332.245 335.895 332.076C336.214 331.907 336.471 331.676 336.666 331.383C336.868 331.083 337.014 330.738 337.105 330.348C337.203 329.957 337.252 329.544 337.252 329.107V328.893C337.252 328.489 337.203 328.108 337.105 327.75C337.014 327.392 336.868 327.076 336.666 326.803C336.464 326.523 336.204 326.301 335.885 326.139C335.566 325.976 335.182 325.895 334.732 325.895ZM343.717 330.562L347.867 323.434H350.221V334H347.867V326.861L343.717 334H341.363V323.434H343.717V330.562ZM355.074 325.465V338.062H352.721V323.434H354.889L355.074 325.465ZM361.959 328.619V328.824C361.959 329.592 361.868 330.305 361.686 330.963C361.51 331.614 361.246 332.184 360.895 332.672C360.549 333.154 360.123 333.528 359.615 333.795C359.107 334.062 358.521 334.195 357.857 334.195C357.2 334.195 356.624 334.075 356.129 333.834C355.641 333.587 355.227 333.238 354.889 332.789C354.55 332.34 354.277 331.812 354.068 331.207C353.867 330.595 353.723 329.924 353.639 329.195V328.404C353.723 327.63 353.867 326.926 354.068 326.295C354.277 325.663 354.55 325.12 354.889 324.664C355.227 324.208 355.641 323.857 356.129 323.609C356.617 323.362 357.187 323.238 357.838 323.238C358.502 323.238 359.091 323.368 359.605 323.629C360.12 323.883 360.553 324.247 360.904 324.723C361.256 325.191 361.52 325.758 361.695 326.422C361.871 327.079 361.959 327.812 361.959 328.619ZM359.605 328.824V328.619C359.605 328.131 359.56 327.678 359.469 327.262C359.378 326.839 359.234 326.467 359.039 326.148C358.844 325.829 358.593 325.582 358.287 325.406C357.988 325.224 357.626 325.133 357.203 325.133C356.786 325.133 356.428 325.204 356.129 325.348C355.829 325.484 355.579 325.676 355.377 325.924C355.175 326.171 355.019 326.461 354.908 326.793C354.798 327.118 354.719 327.473 354.674 327.857V329.752C354.752 330.221 354.885 330.65 355.074 331.041C355.263 331.432 355.53 331.744 355.875 331.979C356.227 332.206 356.676 332.32 357.223 332.32C357.646 332.32 358.007 332.229 358.307 332.047C358.606 331.865 358.85 331.614 359.039 331.295C359.234 330.969 359.378 330.595 359.469 330.172C359.56 329.749 359.605 329.299 359.605 328.824ZM370.182 327.701V329.576H364.518V327.701H370.182ZM366.529 323.434V334H364.176V323.434H366.529ZM368.443 328.834V328.609C368.443 327.848 368.554 327.141 368.775 326.49C368.997 325.833 369.319 325.263 369.742 324.781C370.165 324.293 370.68 323.915 371.285 323.648C371.891 323.375 372.577 323.238 373.346 323.238C374.127 323.238 374.82 323.375 375.426 323.648C376.038 323.915 376.555 324.293 376.979 324.781C377.402 325.263 377.724 325.833 377.945 326.49C378.167 327.141 378.277 327.848 378.277 328.609V328.834C378.277 329.596 378.167 330.302 377.945 330.953C377.724 331.604 377.402 332.174 376.979 332.662C376.562 333.144 376.048 333.521 375.436 333.795C374.83 334.062 374.14 334.195 373.365 334.195C372.59 334.195 371.9 334.062 371.295 333.795C370.689 333.521 370.172 333.144 369.742 332.662C369.319 332.174 368.997 331.604 368.775 330.953C368.554 330.302 368.443 329.596 368.443 328.834ZM370.807 328.609V328.834C370.807 329.309 370.855 329.758 370.953 330.182C371.051 330.605 371.204 330.976 371.412 331.295C371.62 331.614 371.887 331.865 372.213 332.047C372.538 332.229 372.923 332.32 373.365 332.32C373.808 332.32 374.189 332.229 374.508 332.047C374.833 331.865 375.1 331.614 375.309 331.295C375.517 330.976 375.67 330.605 375.768 330.182C375.872 329.758 375.924 329.309 375.924 328.834V328.609C375.924 328.141 375.872 327.698 375.768 327.281C375.67 326.858 375.517 326.484 375.309 326.158C375.1 325.833 374.833 325.579 374.508 325.396C374.182 325.208 373.795 325.113 373.346 325.113C372.91 325.113 372.529 325.208 372.203 325.396C371.884 325.579 371.62 325.833 371.412 326.158C371.204 326.484 371.051 326.858 370.953 327.281C370.855 327.698 370.807 328.141 370.807 328.609ZM384.605 328.951H382.574V327.76H384.215C384.632 327.76 384.964 327.704 385.211 327.594C385.465 327.483 385.644 327.33 385.748 327.135C385.859 326.933 385.914 326.699 385.914 326.432C385.914 326.197 385.859 325.976 385.748 325.768C385.644 325.553 385.465 325.377 385.211 325.24C384.957 325.104 384.612 325.035 384.176 325.035C383.818 325.035 383.495 325.094 383.209 325.211C382.929 325.328 382.708 325.491 382.545 325.699C382.382 325.908 382.301 326.148 382.301 326.422H379.947C379.947 325.764 380.133 325.198 380.504 324.723C380.882 324.247 381.386 323.883 382.018 323.629C382.649 323.375 383.342 323.248 384.098 323.248C384.742 323.248 385.322 323.316 385.836 323.453C386.35 323.583 386.786 323.779 387.145 324.039C387.509 324.293 387.786 324.612 387.975 324.996C388.17 325.374 388.268 325.813 388.268 326.314C388.268 326.673 388.183 327.011 388.014 327.33C387.844 327.649 387.6 327.932 387.281 328.18C386.962 328.421 386.575 328.609 386.119 328.746C385.67 328.883 385.165 328.951 384.605 328.951ZM382.574 328.268H384.605C385.23 328.268 385.784 328.329 386.266 328.453C386.747 328.57 387.151 328.746 387.477 328.98C387.802 329.215 388.046 329.505 388.209 329.85C388.378 330.188 388.463 330.579 388.463 331.021C388.463 331.516 388.355 331.962 388.141 332.359C387.932 332.75 387.633 333.082 387.242 333.355C386.858 333.629 386.399 333.837 385.865 333.98C385.331 334.124 384.742 334.195 384.098 334.195C383.395 334.195 382.711 334.078 382.047 333.844C381.389 333.609 380.846 333.248 380.416 332.76C379.993 332.265 379.781 331.637 379.781 330.875H382.135C382.135 331.142 382.216 331.393 382.379 331.627C382.542 331.861 382.776 332.053 383.082 332.203C383.388 332.346 383.756 332.418 384.186 332.418C384.628 332.418 384.99 332.35 385.27 332.213C385.549 332.07 385.758 331.884 385.895 331.656C386.031 331.422 386.1 331.174 386.1 330.914C386.1 330.562 386.031 330.279 385.895 330.064C385.758 329.85 385.549 329.693 385.27 329.596C384.99 329.492 384.638 329.439 384.215 329.439H382.574V328.268ZM390.016 328.834V328.609C390.016 327.848 390.126 327.141 390.348 326.49C390.569 325.833 390.888 325.263 391.305 324.781C391.728 324.293 392.242 323.915 392.848 323.648C393.46 323.375 394.15 323.238 394.918 323.238C395.693 323.238 396.383 323.375 396.988 323.648C397.6 323.915 398.118 324.293 398.541 324.781C398.964 325.263 399.286 325.833 399.508 326.49C399.729 327.141 399.84 327.848 399.84 328.609V328.834C399.84 329.596 399.729 330.302 399.508 330.953C399.286 331.604 398.964 332.174 398.541 332.662C398.118 333.144 397.604 333.521 396.998 333.795C396.393 334.062 395.706 334.195 394.938 334.195C394.163 334.195 393.469 334.062 392.857 333.795C392.252 333.521 391.738 333.144 391.314 332.662C390.891 332.174 390.569 331.604 390.348 330.953C390.126 330.302 390.016 329.596 390.016 328.834ZM392.369 328.609V328.834C392.369 329.309 392.418 329.758 392.516 330.182C392.613 330.605 392.766 330.976 392.975 331.295C393.183 331.614 393.45 331.865 393.775 332.047C394.101 332.229 394.488 332.32 394.938 332.32C395.374 332.32 395.751 332.229 396.07 332.047C396.396 331.865 396.663 331.614 396.871 331.295C397.079 330.976 397.232 330.605 397.33 330.182C397.434 329.758 397.486 329.309 397.486 328.834V328.609C397.486 328.141 397.434 327.698 397.33 327.281C397.232 326.858 397.076 326.484 396.861 326.158C396.653 325.833 396.386 325.579 396.061 325.396C395.742 325.208 395.361 325.113 394.918 325.113C394.475 325.113 394.091 325.208 393.766 325.396C393.447 325.579 393.183 325.833 392.975 326.158C392.766 326.484 392.613 326.858 392.516 327.281C392.418 327.698 392.369 328.141 392.369 328.609ZM406.949 329.479H403.57L403.551 327.818H406.324C406.78 327.818 407.154 327.773 407.447 327.682C407.747 327.59 407.968 327.454 408.111 327.271C408.255 327.083 408.326 326.855 408.326 326.588C408.326 326.367 408.284 326.174 408.199 326.012C408.115 325.842 407.984 325.706 407.809 325.602C407.639 325.491 407.424 325.413 407.164 325.367C406.91 325.315 406.614 325.289 406.275 325.289H404.352V334H401.998V323.434H406.275C406.952 323.434 407.561 323.492 408.102 323.609C408.648 323.727 409.114 323.906 409.498 324.146C409.882 324.387 410.175 324.693 410.377 325.064C410.585 325.429 410.689 325.859 410.689 326.354C410.689 326.679 410.618 326.985 410.475 327.271C410.338 327.558 410.133 327.812 409.859 328.033C409.586 328.255 409.251 328.437 408.854 328.58C408.456 328.717 408.001 328.801 407.486 328.834L406.949 329.479ZM406.949 334H402.887L403.824 332.145H406.949C407.366 332.145 407.711 332.092 407.984 331.988C408.258 331.884 408.46 331.734 408.59 331.539C408.727 331.337 408.795 331.1 408.795 330.826C408.795 330.546 408.73 330.305 408.6 330.104C408.469 329.902 408.268 329.749 407.994 329.645C407.727 329.534 407.379 329.479 406.949 329.479H404.264L404.283 327.818H407.477L408.15 328.463C408.821 328.508 409.378 328.652 409.82 328.893C410.263 329.133 410.595 329.436 410.816 329.801C411.038 330.165 411.148 330.562 411.148 330.992C411.148 331.487 411.054 331.923 410.865 332.301C410.683 332.678 410.41 332.994 410.045 333.248C409.687 333.495 409.247 333.684 408.727 333.814C408.206 333.938 407.613 334 406.949 334ZM414.928 326.793H418.043C418.954 326.793 419.729 326.946 420.367 327.252C421.005 327.558 421.49 327.984 421.822 328.531C422.161 329.072 422.33 329.69 422.33 330.387C422.33 330.901 422.236 331.38 422.047 331.822C421.858 332.258 421.578 332.639 421.207 332.965C420.842 333.29 420.393 333.544 419.859 333.727C419.332 333.909 418.727 334 418.043 334H413.365V323.434H415.729V332.135H418.043C418.512 332.135 418.886 332.053 419.166 331.891C419.446 331.728 419.648 331.516 419.771 331.256C419.902 330.995 419.967 330.719 419.967 330.426C419.967 330.126 419.902 329.843 419.771 329.576C419.648 329.309 419.446 329.091 419.166 328.922C418.886 328.753 418.512 328.668 418.043 328.668H414.928V326.793ZM426.49 323.434V334H424.137V323.434H426.49ZM431.705 330.562L435.855 323.434H438.209V334H435.855V326.861L431.705 334H429.352V323.434H431.705V330.562ZM435.23 319.371H436.979C436.979 319.911 436.848 320.39 436.588 320.807C436.334 321.217 435.969 321.539 435.494 321.773C435.025 322.008 434.465 322.125 433.814 322.125C432.831 322.125 432.053 321.871 431.48 321.363C430.914 320.849 430.631 320.185 430.631 319.371H432.379C432.379 319.736 432.486 320.058 432.701 320.338C432.923 320.611 433.294 320.748 433.814 320.748C434.329 320.748 434.693 320.611 434.908 320.338C435.123 320.058 435.23 319.736 435.23 319.371Z" fill="white"/>
<path d="M183.842 318.805H185.746C185.746 319.384 185.665 319.863 185.502 320.24C185.346 320.611 185.111 320.917 184.799 321.158C184.493 321.393 184.112 321.581 183.656 321.725C183.207 321.868 182.686 321.998 182.094 322.115C181.547 322.232 181.052 322.418 180.609 322.672C180.173 322.919 179.805 323.268 179.506 323.717C179.213 324.16 179.001 324.729 178.871 325.426C178.741 326.122 178.702 326.972 178.754 327.975V328.639L176.889 328.805V328.141C176.889 326.897 177.003 325.813 177.23 324.889C177.458 323.964 177.781 323.186 178.197 322.555C178.62 321.917 179.122 321.409 179.701 321.031C180.287 320.654 180.938 320.393 181.654 320.25C182.143 320.146 182.549 320.042 182.875 319.938C183.201 319.827 183.441 319.687 183.598 319.518C183.76 319.342 183.842 319.104 183.842 318.805ZM182.191 324.029C182.895 324.029 183.52 324.153 184.066 324.4C184.613 324.641 185.076 324.98 185.453 325.416C185.831 325.852 186.117 326.367 186.312 326.959C186.514 327.551 186.615 328.196 186.615 328.893V329.107C186.615 329.837 186.508 330.51 186.293 331.129C186.078 331.747 185.762 332.288 185.346 332.75C184.929 333.206 184.418 333.564 183.812 333.824C183.214 334.078 182.527 334.205 181.752 334.205C180.984 334.205 180.297 334.072 179.691 333.805C179.086 333.538 178.575 333.167 178.158 332.691C177.742 332.21 177.426 331.646 177.211 331.002C176.996 330.357 176.889 329.654 176.889 328.893V328.678C176.882 328.541 176.918 328.408 176.996 328.277C177.081 328.147 177.182 328.007 177.299 327.857C177.416 327.708 177.52 327.535 177.611 327.34C177.937 326.682 178.321 326.106 178.764 325.611C179.206 325.117 179.711 324.729 180.277 324.449C180.85 324.169 181.488 324.029 182.191 324.029ZM181.732 325.895C181.146 325.895 180.668 326.035 180.297 326.314C179.932 326.588 179.662 326.952 179.486 327.408C179.317 327.864 179.232 328.359 179.232 328.893V329.107C179.232 329.544 179.281 329.957 179.379 330.348C179.477 330.738 179.623 331.083 179.818 331.383C180.02 331.676 180.281 331.907 180.6 332.076C180.925 332.245 181.309 332.33 181.752 332.33C182.201 332.33 182.582 332.245 182.895 332.076C183.214 331.907 183.471 331.676 183.666 331.383C183.868 331.083 184.014 330.738 184.105 330.348C184.203 329.957 184.252 329.544 184.252 329.107V328.893C184.252 328.489 184.203 328.108 184.105 327.75C184.014 327.392 183.868 327.076 183.666 326.803C183.464 326.523 183.204 326.301 182.885 326.139C182.566 325.976 182.182 325.895 181.732 325.895ZM193.119 334.195C192.338 334.195 191.632 334.068 191 333.814C190.375 333.554 189.841 333.193 189.398 332.73C188.962 332.268 188.627 331.725 188.393 331.1C188.158 330.475 188.041 329.801 188.041 329.078V328.688C188.041 327.861 188.161 327.112 188.402 326.441C188.643 325.771 188.979 325.198 189.408 324.723C189.838 324.241 190.346 323.873 190.932 323.619C191.518 323.365 192.152 323.238 192.836 323.238C193.591 323.238 194.252 323.365 194.818 323.619C195.385 323.873 195.854 324.231 196.225 324.693C196.602 325.149 196.882 325.693 197.064 326.324C197.253 326.956 197.348 327.652 197.348 328.414V329.42H189.184V327.73H195.023V327.545C195.01 327.122 194.926 326.725 194.77 326.354C194.62 325.982 194.389 325.683 194.076 325.455C193.764 325.227 193.347 325.113 192.826 325.113C192.436 325.113 192.087 325.198 191.781 325.367C191.482 325.53 191.231 325.768 191.029 326.08C190.827 326.393 190.671 326.77 190.561 327.213C190.456 327.649 190.404 328.141 190.404 328.688V329.078C190.404 329.54 190.466 329.97 190.59 330.367C190.72 330.758 190.909 331.1 191.156 331.393C191.404 331.686 191.703 331.917 192.055 332.086C192.406 332.249 192.807 332.33 193.256 332.33C193.822 332.33 194.327 332.216 194.77 331.988C195.212 331.76 195.596 331.438 195.922 331.021L197.162 332.223C196.934 332.555 196.638 332.874 196.273 333.18C195.909 333.479 195.463 333.723 194.936 333.912C194.415 334.101 193.809 334.195 193.119 334.195ZM206.283 323.434V325.309H201.127V323.434H206.283ZM208.129 323.434V334H205.775V323.434H208.129ZM200.551 323.434H202.875L202.592 328.658C202.553 329.433 202.475 330.117 202.357 330.709C202.247 331.295 202.097 331.799 201.908 332.223C201.719 332.639 201.488 332.978 201.215 333.238C200.941 333.499 200.622 333.691 200.258 333.814C199.893 333.938 199.483 334 199.027 334H198.295L198.285 332.066L198.656 332.037C198.897 332.018 199.105 331.956 199.281 331.852C199.457 331.741 199.607 331.585 199.73 331.383C199.861 331.181 199.965 330.921 200.043 330.602C200.128 330.283 200.193 329.905 200.238 329.469C200.29 329.033 200.329 328.525 200.355 327.945L200.551 323.434ZM212.377 326.793H215.492C216.404 326.793 217.178 326.946 217.816 327.252C218.454 327.558 218.939 327.984 219.271 328.531C219.61 329.072 219.779 329.69 219.779 330.387C219.779 330.901 219.685 331.38 219.496 331.822C219.307 332.258 219.027 332.639 218.656 332.965C218.292 333.29 217.842 333.544 217.309 333.727C216.781 333.909 216.176 334 215.492 334H210.814V323.434H213.178V332.135H215.492C215.961 332.135 216.335 332.053 216.615 331.891C216.895 331.728 217.097 331.516 217.221 331.256C217.351 330.995 217.416 330.719 217.416 330.426C217.416 330.126 217.351 329.843 217.221 329.576C217.097 329.309 216.895 329.091 216.615 328.922C216.335 328.753 215.961 328.668 215.492 328.668H212.377V326.793ZM223.939 323.434V334H221.586V323.434H223.939ZM229.154 330.562L233.305 323.434H235.658V334H233.305V326.861L229.154 334H226.801V323.434H229.154V330.562ZM232.68 319.371H234.428C234.428 319.911 234.298 320.39 234.037 320.807C233.783 321.217 233.419 321.539 232.943 321.773C232.475 322.008 231.915 322.125 231.264 322.125C230.281 322.125 229.503 321.871 228.93 321.363C228.363 320.849 228.08 320.185 228.08 319.371H229.828C229.828 319.736 229.936 320.058 230.15 320.338C230.372 320.611 230.743 320.748 231.264 320.748C231.778 320.748 232.143 320.611 232.357 320.338C232.572 320.058 232.68 319.736 232.68 319.371Z" fill="#00323D"/>
</svg>
