<svg width="162" height="171" viewBox="0 0 162 171" fill="none" xmlns="http://www.w3.org/2000/svg">
<path d="M108.797 171L108.797 0H146.257C154.839 0 161.797 6.95749 161.797 15.54V155.46C161.797 164.043 154.839 171 146.257 171H108.797Z" fill="#999999"/>
<path d="M54.7969 171L54.7969 -6.07967e-06H108.797V171H54.7969Z" fill="#603A25"/>
<path d="M16.3369 171C7.75437 171 0.796875 164.043 0.796875 155.46L0.796875 15.54C0.796875 6.95749 7.75437 0 16.3369 0H54.7969L54.7969 171H16.3369Z" fill="#77E2C3"/>
<path d="M15.793 85.8594L17.0508 82.7734H17.8672L16.1133 87H15.4727L13.7227 82.7734H14.5391L15.793 85.8594ZM14.2969 82.7734V87H13.3555V82.7734H14.2969ZM17.2891 87V82.7734H18.2344V87H17.2891ZM20.1797 84.9336H21.1562L19.957 87H18.9844L20.1797 84.9336ZM20.8672 82.7734H22.6797V87H21.7422V83.5156H20.8672C20.6901 83.5156 20.5443 83.5469 20.4297 83.6094C20.3151 83.6693 20.2305 83.7487 20.1758 83.8477C20.1211 83.944 20.0938 84.043 20.0938 84.1445C20.0938 84.2461 20.1185 84.3438 20.168 84.4375C20.2201 84.5312 20.2995 84.6081 20.4062 84.668C20.5156 84.7279 20.6523 84.7578 20.8164 84.7578H22.0586V85.4453H20.8164C20.556 85.4453 20.3229 85.4128 20.1172 85.3477C19.9115 85.2799 19.737 85.1875 19.5938 85.0703C19.4505 84.9505 19.3411 84.8112 19.2656 84.6523C19.1901 84.4909 19.1523 84.3151 19.1523 84.125C19.1523 83.9297 19.1914 83.75 19.2695 83.5859C19.3477 83.4219 19.4596 83.2786 19.6055 83.1562C19.7539 83.0339 19.9336 82.9401 20.1445 82.875C20.3581 82.8073 20.599 82.7734 20.8672 82.7734ZM25.6875 82.7734V87H24.7422V82.7734H25.6875ZM27.0742 82.7734V83.5156H23.3789V82.7734H27.0742ZM30.5898 84.5391V85.2812H28.4023V84.5391H30.5898ZM28.6758 82.7734V87H27.7344V82.7734H28.6758ZM31.2695 82.7734V87H30.3281V82.7734H31.2695ZM32.9727 84.1172H34.2188C34.5833 84.1172 34.8932 84.1784 35.1484 84.3008C35.4036 84.4232 35.5977 84.5938 35.7305 84.8125C35.8659 85.0286 35.9336 85.276 35.9336 85.5547C35.9336 85.7604 35.8958 85.9518 35.8203 86.1289C35.7448 86.3034 35.6328 86.4557 35.4844 86.5859C35.3385 86.7161 35.1589 86.8177 34.9453 86.8906C34.7344 86.9635 34.4922 87 34.2188 87H32.3477V82.7734H33.293V86.2539H34.2188C34.4062 86.2539 34.556 86.2214 34.668 86.1562C34.7799 86.0911 34.8607 86.0065 34.9102 85.9023C34.9622 85.7982 34.9883 85.6875 34.9883 85.5703C34.9883 85.4505 34.9622 85.3372 34.9102 85.2305C34.8607 85.1237 34.7799 85.0365 34.668 84.9688C34.556 84.901 34.4062 84.8672 34.2188 84.8672H32.9727V84.1172ZM37.5977 82.7734V87H36.6562V82.7734H37.5977ZM39.6836 85.625L41.3438 82.7734H42.2852V87H41.3438V84.1445L39.6836 87H38.7422V82.7734H39.6836V85.625ZM41.0938 81.1484H41.793C41.793 81.3646 41.7409 81.556 41.6367 81.7227C41.5352 81.8867 41.3893 82.0156 41.1992 82.1094C41.0117 82.2031 40.7878 82.25 40.5273 82.25C40.1341 82.25 39.8229 82.1484 39.5938 81.9453C39.3672 81.7396 39.2539 81.474 39.2539 81.1484H39.9531C39.9531 81.2943 39.9961 81.4232 40.082 81.5352C40.1706 81.6445 40.319 81.6992 40.5273 81.6992C40.7331 81.6992 40.8789 81.6445 40.9648 81.5352C41.0508 81.4232 41.0938 81.2943 41.0938 81.1484Z" fill="white"/>
<path d="M59.2969 82.7734V87H58.3555V82.7734H59.2969ZM62.0547 82.7734L60.1523 85.3164H59.0781L58.9531 84.4648H59.7383L60.8789 82.7734H62.0547ZM60.9531 87L59.6797 85.1562L60.4219 84.6211L62.1914 87H60.9531ZM62.3828 84.9336V84.8438C62.3828 84.5391 62.4271 84.2565 62.5156 83.9961C62.6042 83.7331 62.7318 83.5052 62.8984 83.3125C63.0677 83.1172 63.2734 82.9661 63.5156 82.8594C63.7604 82.75 64.0365 82.6953 64.3438 82.6953C64.6536 82.6953 64.9297 82.75 65.1719 82.8594C65.4167 82.9661 65.6237 83.1172 65.793 83.3125C65.9622 83.5052 66.0911 83.7331 66.1797 83.9961C66.2682 84.2565 66.3125 84.5391 66.3125 84.8438V84.9336C66.3125 85.2383 66.2682 85.5208 66.1797 85.7812C66.0911 86.0417 65.9622 86.2695 65.793 86.4648C65.6237 86.6576 65.418 86.8086 65.1758 86.918C64.9336 87.0247 64.6589 87.0781 64.3516 87.0781C64.0417 87.0781 63.7643 87.0247 63.5195 86.918C63.2773 86.8086 63.0716 86.6576 62.9023 86.4648C62.7331 86.2695 62.6042 86.0417 62.5156 85.7812C62.4271 85.5208 62.3828 85.2383 62.3828 84.9336ZM63.3242 84.8438V84.9336C63.3242 85.1237 63.3438 85.3034 63.3828 85.4727C63.4219 85.6419 63.4831 85.7904 63.5664 85.918C63.6497 86.0456 63.7565 86.1458 63.8867 86.2188C64.0169 86.2917 64.1719 86.3281 64.3516 86.3281C64.526 86.3281 64.6771 86.2917 64.8047 86.2188C64.9349 86.1458 65.0417 86.0456 65.125 85.918C65.2083 85.7904 65.2695 85.6419 65.3086 85.4727C65.3503 85.3034 65.3711 85.1237 65.3711 84.9336V84.8438C65.3711 84.6562 65.3503 84.4792 65.3086 84.3125C65.2695 84.1432 65.207 83.9935 65.1211 83.8633C65.0378 83.7331 64.931 83.6315 64.8008 83.5586C64.6732 83.4831 64.5208 83.4453 64.3438 83.4453C64.1667 83.4453 64.013 83.4831 63.8828 83.5586C63.7552 83.6315 63.6497 83.7331 63.5664 83.8633C63.4831 83.9935 63.4219 84.1432 63.3828 84.3125C63.3438 84.4792 63.3242 84.6562 63.3242 84.8438ZM68.0469 83.5859V88.625H67.1055V82.7734H67.9727L68.0469 83.5859ZM70.8008 84.8477V84.9297C70.8008 85.237 70.7643 85.5221 70.6914 85.7852C70.6211 86.0456 70.5156 86.2734 70.375 86.4688C70.237 86.6615 70.0664 86.8112 69.8633 86.918C69.6602 87.0247 69.4258 87.0781 69.1602 87.0781C68.8971 87.0781 68.6667 87.0299 68.4688 86.9336C68.2734 86.8346 68.1081 86.6953 67.9727 86.5156C67.8372 86.3359 67.7279 86.125 67.6445 85.8828C67.5638 85.638 67.5065 85.3698 67.4727 85.0781V84.7617C67.5065 84.4518 67.5638 84.1706 67.6445 83.918C67.7279 83.6654 67.8372 83.4479 67.9727 83.2656C68.1081 83.0833 68.2734 82.9427 68.4688 82.8438C68.6641 82.7448 68.8919 82.6953 69.1523 82.6953C69.418 82.6953 69.6536 82.7474 69.8594 82.8516C70.0651 82.9531 70.2383 83.099 70.3789 83.2891C70.5195 83.4766 70.625 83.7031 70.6953 83.9688C70.7656 84.2318 70.8008 84.5247 70.8008 84.8477ZM69.8594 84.9297V84.8477C69.8594 84.6523 69.8411 84.4714 69.8047 84.3047C69.7682 84.1354 69.7109 83.987 69.6328 83.8594C69.5547 83.7318 69.4544 83.6328 69.332 83.5625C69.2122 83.4896 69.0677 83.4531 68.8984 83.4531C68.7318 83.4531 68.5885 83.4818 68.4688 83.5391C68.349 83.5938 68.2487 83.6706 68.168 83.7695C68.0872 83.8685 68.0247 83.9844 67.9805 84.1172C67.9362 84.2474 67.9049 84.3893 67.8867 84.543V85.3008C67.918 85.4883 67.9714 85.6602 68.0469 85.8164C68.1224 85.9727 68.2292 86.0977 68.3672 86.1914C68.5078 86.2826 68.6875 86.3281 68.9062 86.3281C69.0755 86.3281 69.2201 86.2917 69.3398 86.2188C69.4596 86.1458 69.5573 86.0456 69.6328 85.918C69.7109 85.7878 69.7682 85.638 69.8047 85.4688C69.8411 85.2995 69.8594 85.1198 69.8594 84.9297ZM72.5742 85.625L74.2344 82.7734H75.1758V87H74.2344V84.1445L72.5742 87H71.6328V82.7734H72.5742V85.625ZM79.5664 82.7734V87H78.625V82.7734H79.5664ZM79.168 84.6445V85.3906C79.0534 85.4401 78.9245 85.4857 78.7812 85.5273C78.6406 85.5664 78.4922 85.599 78.3359 85.625C78.1797 85.6484 78.0221 85.6602 77.8633 85.6602C77.4909 85.6602 77.1693 85.6029 76.8984 85.4883C76.6302 85.3737 76.4232 85.1979 76.2773 84.9609C76.1341 84.7214 76.0625 84.418 76.0625 84.0508V82.7695H77V84.0508C77 84.2617 77.0312 84.4297 77.0938 84.5547C77.1589 84.6797 77.2552 84.7695 77.3828 84.8242C77.5104 84.8789 77.6706 84.9062 77.8633 84.9062C78.0247 84.9062 78.1771 84.8958 78.3203 84.875C78.4635 84.8516 78.6055 84.8203 78.7461 84.7812C78.8867 84.7422 79.0273 84.6966 79.168 84.6445ZM83.457 84.5391V85.2812H81.2695V84.5391H83.457ZM81.543 82.7734V87H80.6016V82.7734H81.543ZM84.1367 82.7734V87H83.1953V82.7734H84.1367ZM87.0039 87.0781C86.6914 87.0781 86.4089 87.0273 86.1562 86.9258C85.9062 86.8216 85.6927 86.6771 85.5156 86.4922C85.3411 86.3073 85.207 86.0898 85.1133 85.8398C85.0195 85.5898 84.9727 85.3203 84.9727 85.0312V84.875C84.9727 84.5443 85.0208 84.2448 85.1172 83.9766C85.2135 83.7083 85.3477 83.4792 85.5195 83.2891C85.6914 83.0964 85.8945 82.9492 86.1289 82.8477C86.3633 82.7461 86.6172 82.6953 86.8906 82.6953C87.1927 82.6953 87.457 82.7461 87.6836 82.8477C87.9102 82.9492 88.0977 83.0924 88.2461 83.2773C88.3971 83.4596 88.5091 83.6771 88.582 83.9297C88.6576 84.1823 88.6953 84.4609 88.6953 84.7656V85.168H85.4297V84.4922H87.7656V84.418C87.7604 84.2487 87.7266 84.0898 87.6641 83.9414C87.6042 83.793 87.5117 83.6732 87.3867 83.582C87.2617 83.4909 87.0951 83.4453 86.8867 83.4453C86.7305 83.4453 86.5911 83.4792 86.4688 83.5469C86.349 83.612 86.2487 83.707 86.168 83.832C86.0872 83.957 86.0247 84.1081 85.9805 84.2852C85.9388 84.4596 85.918 84.6562 85.918 84.875V85.0312C85.918 85.2161 85.9427 85.388 85.9922 85.5469C86.0443 85.7031 86.1198 85.8398 86.2188 85.957C86.3177 86.0742 86.4375 86.1667 86.5781 86.2344C86.7188 86.2995 86.8789 86.332 87.0586 86.332C87.2852 86.332 87.487 86.2865 87.6641 86.1953C87.8411 86.1042 87.9948 85.9753 88.125 85.8086L88.6211 86.2891C88.5299 86.4219 88.4115 86.5495 88.2656 86.6719C88.1198 86.7917 87.9414 86.8893 87.7305 86.9648C87.5221 87.0404 87.2799 87.0781 87.0039 87.0781ZM91.4844 85.1914H90.1328L90.125 84.5273H91.2344C91.4167 84.5273 91.5664 84.5091 91.6836 84.4727C91.8034 84.4362 91.8919 84.3815 91.9492 84.3086C92.0065 84.2331 92.0352 84.1419 92.0352 84.0352C92.0352 83.9466 92.0182 83.8698 91.9844 83.8047C91.9505 83.737 91.8984 83.6823 91.8281 83.6406C91.7604 83.5964 91.6745 83.5651 91.5703 83.5469C91.4688 83.526 91.3503 83.5156 91.2148 83.5156H90.4453V87H89.5039V82.7734H91.2148C91.4857 82.7734 91.7292 82.7969 91.9453 82.8438C92.1641 82.8906 92.3503 82.9622 92.5039 83.0586C92.6576 83.1549 92.7747 83.2773 92.8555 83.4258C92.9388 83.5716 92.9805 83.7435 92.9805 83.9414C92.9805 84.0716 92.9518 84.194 92.8945 84.3086C92.8398 84.4232 92.7578 84.5247 92.6484 84.6133C92.5391 84.7018 92.4049 84.7747 92.2461 84.832C92.0872 84.8867 91.9049 84.9206 91.6992 84.9336L91.4844 85.1914ZM91.4844 87H89.8594L90.2344 86.2578H91.4844C91.651 86.2578 91.7891 86.237 91.8984 86.1953C92.0078 86.1536 92.0885 86.0938 92.1406 86.0156C92.1953 85.9349 92.2227 85.8398 92.2227 85.7305C92.2227 85.6185 92.1966 85.5221 92.1445 85.4414C92.0924 85.3607 92.0117 85.2995 91.9023 85.2578C91.7956 85.2135 91.6562 85.1914 91.4844 85.1914H90.4102L90.418 84.5273H91.6953L91.9648 84.7852C92.2331 84.8034 92.4557 84.8607 92.6328 84.957C92.8099 85.0534 92.9427 85.1745 93.0312 85.3203C93.1198 85.4661 93.1641 85.625 93.1641 85.7969C93.1641 85.9948 93.1263 86.1693 93.0508 86.3203C92.9779 86.4714 92.8685 86.5977 92.7227 86.6992C92.5794 86.7982 92.4036 86.8737 92.1953 86.9258C91.987 86.9753 91.75 87 91.4844 87ZM94.6758 84.1172H95.9219C96.2865 84.1172 96.5964 84.1784 96.8516 84.3008C97.1068 84.4232 97.3008 84.5938 97.4336 84.8125C97.569 85.0286 97.6367 85.276 97.6367 85.5547C97.6367 85.7604 97.599 85.9518 97.5234 86.1289C97.4479 86.3034 97.3359 86.4557 97.1875 86.5859C97.0417 86.7161 96.862 86.8177 96.6484 86.8906C96.4375 86.9635 96.1953 87 95.9219 87H94.0508V82.7734H94.9961V86.2539H95.9219C96.1094 86.2539 96.2591 86.2214 96.3711 86.1562C96.4831 86.0911 96.5638 86.0065 96.6133 85.9023C96.6654 85.7982 96.6914 85.6875 96.6914 85.5703C96.6914 85.4505 96.6654 85.3372 96.6133 85.2305C96.5638 85.1237 96.4831 85.0365 96.3711 84.9688C96.2591 84.901 96.1094 84.8672 95.9219 84.8672H94.6758V84.1172ZM99.3008 82.7734V87H98.3594V82.7734H99.3008ZM101.387 85.625L103.047 82.7734H103.988V87H103.047V84.1445L101.387 87H100.445V82.7734H101.387V85.625ZM102.797 81.1484H103.496C103.496 81.3646 103.444 81.556 103.34 81.7227C103.238 81.8867 103.092 82.0156 102.902 82.1094C102.715 82.2031 102.491 82.25 102.23 82.25C101.837 82.25 101.526 82.1484 101.297 81.9453C101.07 81.7396 100.957 81.474 100.957 81.1484H101.656C101.656 81.2943 101.699 81.4232 101.785 81.5352C101.874 81.6445 102.022 81.6992 102.23 81.6992C102.436 81.6992 102.582 81.6445 102.668 81.5352C102.754 81.4232 102.797 81.2943 102.797 81.1484Z" fill="white"/>
<path d="M126.008 86.3281C126.161 86.3281 126.299 86.2982 126.422 86.2383C126.547 86.1758 126.647 86.0898 126.723 85.9805C126.801 85.8711 126.844 85.7448 126.852 85.6016H127.738C127.733 85.875 127.652 86.1237 127.496 86.3477C127.34 86.5716 127.133 86.75 126.875 86.8828C126.617 87.013 126.332 87.0781 126.02 87.0781C125.697 87.0781 125.415 87.0234 125.176 86.9141C124.936 86.8021 124.737 86.6484 124.578 86.4531C124.419 86.2578 124.299 86.0326 124.219 85.7773C124.141 85.5221 124.102 85.2487 124.102 84.957V84.8203C124.102 84.5286 124.141 84.2552 124.219 84C124.299 83.7422 124.419 83.5156 124.578 83.3203C124.737 83.125 124.936 82.9727 125.176 82.8633C125.415 82.7513 125.695 82.6953 126.016 82.6953C126.354 82.6953 126.651 82.763 126.906 82.8984C127.161 83.0312 127.362 83.2174 127.508 83.457C127.656 83.694 127.733 83.9701 127.738 84.2852H126.852C126.844 84.1289 126.805 83.9883 126.734 83.8633C126.667 83.7357 126.57 83.6341 126.445 83.5586C126.323 83.4831 126.176 83.4453 126.004 83.4453C125.814 83.4453 125.656 83.4844 125.531 83.5625C125.406 83.638 125.309 83.7422 125.238 83.875C125.168 84.0052 125.117 84.1523 125.086 84.3164C125.057 84.4779 125.043 84.6458 125.043 84.8203V84.957C125.043 85.1315 125.057 85.3008 125.086 85.4648C125.115 85.6289 125.164 85.776 125.234 85.9062C125.307 86.0339 125.406 86.1367 125.531 86.2148C125.656 86.2904 125.815 86.3281 126.008 86.3281ZM130.324 87.0781C130.012 87.0781 129.729 87.0273 129.477 86.9258C129.227 86.8216 129.013 86.6771 128.836 86.4922C128.661 86.3073 128.527 86.0898 128.434 85.8398C128.34 85.5898 128.293 85.3203 128.293 85.0312V84.875C128.293 84.5443 128.341 84.2448 128.438 83.9766C128.534 83.7083 128.668 83.4792 128.84 83.2891C129.012 83.0964 129.215 82.9492 129.449 82.8477C129.684 82.7461 129.938 82.6953 130.211 82.6953C130.513 82.6953 130.777 82.7461 131.004 82.8477C131.23 82.9492 131.418 83.0924 131.566 83.2773C131.717 83.4596 131.829 83.6771 131.902 83.9297C131.978 84.1823 132.016 84.4609 132.016 84.7656V85.168H128.75V84.4922H131.086V84.418C131.081 84.2487 131.047 84.0898 130.984 83.9414C130.924 83.793 130.832 83.6732 130.707 83.582C130.582 83.4909 130.415 83.4453 130.207 83.4453C130.051 83.4453 129.911 83.4792 129.789 83.5469C129.669 83.612 129.569 83.707 129.488 83.832C129.408 83.957 129.345 84.1081 129.301 84.2852C129.259 84.4596 129.238 84.6562 129.238 84.875V85.0312C129.238 85.2161 129.263 85.388 129.312 85.5469C129.365 85.7031 129.44 85.8398 129.539 85.957C129.638 86.0742 129.758 86.1667 129.898 86.2344C130.039 86.2995 130.199 86.332 130.379 86.332C130.605 86.332 130.807 86.2865 130.984 86.1953C131.161 86.1042 131.315 85.9753 131.445 85.8086L131.941 86.2891C131.85 86.4219 131.732 86.5495 131.586 86.6719C131.44 86.7917 131.262 86.8893 131.051 86.9648C130.842 87.0404 130.6 87.0781 130.324 87.0781ZM133.695 83.5859V88.625H132.754V82.7734H133.621L133.695 83.5859ZM136.449 84.8477V84.9297C136.449 85.237 136.413 85.5221 136.34 85.7852C136.27 86.0456 136.164 86.2734 136.023 86.4688C135.885 86.6615 135.715 86.8112 135.512 86.918C135.309 87.0247 135.074 87.0781 134.809 87.0781C134.546 87.0781 134.315 87.0299 134.117 86.9336C133.922 86.8346 133.757 86.6953 133.621 86.5156C133.486 86.3359 133.376 86.125 133.293 85.8828C133.212 85.638 133.155 85.3698 133.121 85.0781V84.7617C133.155 84.4518 133.212 84.1706 133.293 83.918C133.376 83.6654 133.486 83.4479 133.621 83.2656C133.757 83.0833 133.922 82.9427 134.117 82.8438C134.312 82.7448 134.54 82.6953 134.801 82.6953C135.066 82.6953 135.302 82.7474 135.508 82.8516C135.714 82.9531 135.887 83.099 136.027 83.2891C136.168 83.4766 136.273 83.7031 136.344 83.9688C136.414 84.2318 136.449 84.5247 136.449 84.8477ZM135.508 84.9297V84.8477C135.508 84.6523 135.49 84.4714 135.453 84.3047C135.417 84.1354 135.359 83.987 135.281 83.8594C135.203 83.7318 135.103 83.6328 134.98 83.5625C134.861 83.4896 134.716 83.4531 134.547 83.4531C134.38 83.4531 134.237 83.4818 134.117 83.5391C133.997 83.5938 133.897 83.6706 133.816 83.7695C133.736 83.8685 133.673 83.9844 133.629 84.1172C133.585 84.2474 133.553 84.3893 133.535 84.543V85.3008C133.566 85.4883 133.62 85.6602 133.695 85.8164C133.771 85.9727 133.878 86.0977 134.016 86.1914C134.156 86.2826 134.336 86.3281 134.555 86.3281C134.724 86.3281 134.868 86.2917 134.988 86.2188C135.108 86.1458 135.206 86.0456 135.281 85.918C135.359 85.7878 135.417 85.638 135.453 85.4688C135.49 85.2995 135.508 85.1198 135.508 84.9297ZM137.949 84.1172H139.195C139.56 84.1172 139.87 84.1784 140.125 84.3008C140.38 84.4232 140.574 84.5938 140.707 84.8125C140.842 85.0286 140.91 85.276 140.91 85.5547C140.91 85.7604 140.872 85.9518 140.797 86.1289C140.721 86.3034 140.609 86.4557 140.461 86.5859C140.315 86.7161 140.135 86.8177 139.922 86.8906C139.711 86.9635 139.469 87 139.195 87H137.324V82.7734H138.27V86.2539H139.195C139.383 86.2539 139.533 86.2214 139.645 86.1562C139.757 86.0911 139.837 86.0065 139.887 85.9023C139.939 85.7982 139.965 85.6875 139.965 85.5703C139.965 85.4505 139.939 85.3372 139.887 85.2305C139.837 85.1237 139.757 85.0365 139.645 84.9688C139.533 84.901 139.383 84.8672 139.195 84.8672H137.949V84.1172ZM142.574 82.7734V87H141.633V82.7734H142.574ZM144.66 85.625L146.32 82.7734H147.262V87H146.32V84.1445L144.66 87H143.719V82.7734H144.66V85.625ZM146.07 81.1484H146.77C146.77 81.3646 146.717 81.556 146.613 81.7227C146.512 81.8867 146.366 82.0156 146.176 82.1094C145.988 82.2031 145.764 82.25 145.504 82.25C145.111 82.25 144.799 82.1484 144.57 81.9453C144.344 81.7396 144.23 81.474 144.23 81.1484H144.93C144.93 81.2943 144.973 81.4232 145.059 81.5352C145.147 81.6445 145.296 81.6992 145.504 81.6992C145.71 81.6992 145.855 81.6445 145.941 81.5352C146.027 81.4232 146.07 81.2943 146.07 81.1484Z" fill="white"/>
</svg>
