<svg width="162" height="171" viewBox="0 0 162 171" fill="none" xmlns="http://www.w3.org/2000/svg">
<path d="M108.797 171L108.797 0H146.257C154.839 0 161.797 6.95749 161.797 15.54V155.46C161.797 164.043 154.839 171 146.257 171H108.797Z" fill="#008C95"/>
<path d="M54.7969 171L54.7969 -6.07967e-06H108.797V171H54.7969Z" fill="white"/>
<path d="M16.3369 171C7.75437 171 0.796875 164.043 0.796875 155.46L0.796875 15.54C0.796875 6.95749 7.75437 0 16.3369 0H54.7969L54.7969 171H16.3369Z" fill="black"/>
<path d="M16.6758 86.7734V91H15.7344V86.7734H16.6758ZM16.2773 88.6445V89.3906C16.1628 89.4401 16.0339 89.4857 15.8906 89.5273C15.75 89.5664 15.6016 89.599 15.4453 89.625C15.2891 89.6484 15.1315 89.6602 14.9727 89.6602C14.6003 89.6602 14.2786 89.6029 14.0078 89.4883C13.7396 89.3737 13.5326 89.1979 13.3867 88.9609C13.2435 88.7214 13.1719 88.418 13.1719 88.0508V86.7695H14.1094V88.0508C14.1094 88.2617 14.1406 88.4297 14.2031 88.5547C14.2682 88.6797 14.3646 88.7695 14.4922 88.8242C14.6198 88.8789 14.7799 88.9062 14.9727 88.9062C15.1341 88.9062 15.2865 88.8958 15.4297 88.875C15.5729 88.8516 15.7148 88.8203 15.8555 88.7812C15.9961 88.7422 16.1367 88.6966 16.2773 88.6445ZM19.543 91.0781C19.2305 91.0781 18.9479 91.0273 18.6953 90.9258C18.4453 90.8216 18.2318 90.6771 18.0547 90.4922C17.8802 90.3073 17.7461 90.0898 17.6523 89.8398C17.5586 89.5898 17.5117 89.3203 17.5117 89.0312V88.875C17.5117 88.5443 17.5599 88.2448 17.6562 87.9766C17.7526 87.7083 17.8867 87.4792 18.0586 87.2891C18.2305 87.0964 18.4336 86.9492 18.668 86.8477C18.9023 86.7461 19.1562 86.6953 19.4297 86.6953C19.7318 86.6953 19.9961 86.7461 20.2227 86.8477C20.4492 86.9492 20.6367 87.0924 20.7852 87.2773C20.9362 87.4596 21.0482 87.6771 21.1211 87.9297C21.1966 88.1823 21.2344 88.4609 21.2344 88.7656V89.168H17.9688V88.4922H20.3047V88.418C20.2995 88.2487 20.2656 88.0898 20.2031 87.9414C20.1432 87.793 20.0508 87.6732 19.9258 87.582C19.8008 87.4909 19.6341 87.4453 19.4258 87.4453C19.2695 87.4453 19.1302 87.4792 19.0078 87.5469C18.888 87.612 18.7878 87.707 18.707 87.832C18.6263 87.957 18.5638 88.1081 18.5195 88.2852C18.4779 88.4596 18.457 88.6562 18.457 88.875V89.0312C18.457 89.2161 18.4818 89.388 18.5312 89.5469C18.5833 89.7031 18.6589 89.8398 18.7578 89.957C18.8568 90.0742 18.9766 90.1667 19.1172 90.2344C19.2578 90.2995 19.418 90.332 19.5977 90.332C19.8242 90.332 20.026 90.2865 20.2031 90.1953C20.3802 90.1042 20.5339 89.9753 20.6641 89.8086L21.1602 90.2891C21.069 90.4219 20.9505 90.5495 20.8047 90.6719C20.6589 90.7917 20.4805 90.8893 20.2695 90.9648C20.0612 91.0404 19.819 91.0781 19.543 91.0781ZM22.9141 87.5859V92.625H21.9727V86.7734H22.8398L22.9141 87.5859ZM25.668 88.8477V88.9297C25.668 89.237 25.6315 89.5221 25.5586 89.7852C25.4883 90.0456 25.3828 90.2734 25.2422 90.4688C25.1042 90.6615 24.9336 90.8112 24.7305 90.918C24.5273 91.0247 24.293 91.0781 24.0273 91.0781C23.7643 91.0781 23.5339 91.0299 23.3359 90.9336C23.1406 90.8346 22.9753 90.6953 22.8398 90.5156C22.7044 90.3359 22.5951 90.125 22.5117 89.8828C22.431 89.638 22.3737 89.3698 22.3398 89.0781V88.7617C22.3737 88.4518 22.431 88.1706 22.5117 87.918C22.5951 87.6654 22.7044 87.4479 22.8398 87.2656C22.9753 87.0833 23.1406 86.9427 23.3359 86.8438C23.5312 86.7448 23.7591 86.6953 24.0195 86.6953C24.2852 86.6953 24.5208 86.7474 24.7266 86.8516C24.9323 86.9531 25.1055 87.099 25.2461 87.2891C25.3867 87.4766 25.4922 87.7031 25.5625 87.9688C25.6328 88.2318 25.668 88.5247 25.668 88.8477ZM24.7266 88.9297V88.8477C24.7266 88.6523 24.7083 88.4714 24.6719 88.3047C24.6354 88.1354 24.5781 87.987 24.5 87.8594C24.4219 87.7318 24.3216 87.6328 24.1992 87.5625C24.0794 87.4896 23.9349 87.4531 23.7656 87.4531C23.599 87.4531 23.4557 87.4818 23.3359 87.5391C23.2161 87.5938 23.1159 87.6706 23.0352 87.7695C22.9544 87.8685 22.8919 87.9844 22.8477 88.1172C22.8034 88.2474 22.7721 88.3893 22.7539 88.543V89.3008C22.7852 89.4883 22.8385 89.6602 22.9141 89.8164C22.9896 89.9727 23.0964 90.0977 23.2344 90.1914C23.375 90.2826 23.5547 90.3281 23.7734 90.3281C23.9427 90.3281 24.0872 90.2917 24.207 90.2188C24.3268 90.1458 24.4245 90.0456 24.5 89.918C24.5781 89.7878 24.6354 89.638 24.6719 89.4688C24.7083 89.2995 24.7266 89.1198 24.7266 88.9297ZM29.3555 88.5391V89.2812H27.168V88.5391H29.3555ZM27.4414 86.7734V91H26.5V86.7734H27.4414ZM30.0352 86.7734V91H29.0938V86.7734H30.0352ZM31.7383 88.1172H32.9844C33.349 88.1172 33.6589 88.1784 33.9141 88.3008C34.1693 88.4232 34.3633 88.5938 34.4961 88.8125C34.6315 89.0286 34.6992 89.276 34.6992 89.5547C34.6992 89.7604 34.6615 89.9518 34.5859 90.1289C34.5104 90.3034 34.3984 90.4557 34.25 90.5859C34.1042 90.7161 33.9245 90.8177 33.7109 90.8906C33.5 90.9635 33.2578 91 32.9844 91H31.1133V86.7734H32.0586V90.2539H32.9844C33.1719 90.2539 33.3216 90.2214 33.4336 90.1562C33.5456 90.0911 33.6263 90.0065 33.6758 89.9023C33.7279 89.7982 33.7539 89.6875 33.7539 89.5703C33.7539 89.4505 33.7279 89.3372 33.6758 89.2305C33.6263 89.1237 33.5456 89.0365 33.4336 88.9688C33.3216 88.901 33.1719 88.8672 32.9844 88.8672H31.7383V88.1172ZM36.3633 86.7734V91H35.4219V86.7734H36.3633ZM38.4492 89.625L40.1094 86.7734H41.0508V91H40.1094V88.1445L38.4492 91H37.5078V86.7734H38.4492V89.625ZM39.8594 85.1484H40.5586C40.5586 85.3646 40.5065 85.556 40.4023 85.7227C40.3008 85.8867 40.1549 86.0156 39.9648 86.1094C39.7773 86.2031 39.5534 86.25 39.293 86.25C38.8997 86.25 38.5885 86.1484 38.3594 85.9453C38.1328 85.7396 38.0195 85.474 38.0195 85.1484H38.7188C38.7188 85.2943 38.7617 85.4232 38.8477 85.5352C38.9362 85.6445 39.0846 85.6992 39.293 85.6992C39.4987 85.6992 39.6445 85.6445 39.7305 85.5352C39.8164 85.4232 39.8594 85.2943 39.8594 85.1484Z" fill="white"/>
<path d="M71.9336 84.9219H72.6953C72.6953 85.1536 72.6628 85.3451 72.5977 85.4961C72.5352 85.6445 72.4414 85.7669 72.3164 85.8633C72.194 85.957 72.0417 86.0326 71.8594 86.0898C71.6797 86.1471 71.4714 86.1992 71.2344 86.2461C71.0156 86.293 70.8177 86.3672 70.6406 86.4688C70.4661 86.5677 70.319 86.707 70.1992 86.8867C70.082 87.0638 69.9974 87.2917 69.9453 87.5703C69.8932 87.849 69.8776 88.1888 69.8984 88.5898V88.8555L69.1523 88.9219V88.6562C69.1523 88.1589 69.1979 87.7253 69.2891 87.3555C69.3802 86.9857 69.5091 86.6745 69.6758 86.4219C69.8451 86.1667 70.0456 85.9635 70.2773 85.8125C70.5117 85.6615 70.7721 85.5573 71.0586 85.5C71.2539 85.4583 71.4167 85.4167 71.5469 85.375C71.6771 85.3307 71.7734 85.2747 71.8359 85.207C71.901 85.1367 71.9336 85.0417 71.9336 84.9219ZM71.2734 87.0117C71.5547 87.0117 71.8047 87.0612 72.0234 87.1602C72.2422 87.2565 72.4271 87.3919 72.5781 87.5664C72.7292 87.7409 72.8438 87.9466 72.9219 88.1836C73.0026 88.4206 73.043 88.6784 73.043 88.957V89.043C73.043 89.3346 73 89.6042 72.9141 89.8516C72.8281 90.099 72.7018 90.3151 72.5352 90.5C72.3685 90.6823 72.1641 90.8255 71.9219 90.9297C71.6823 91.0312 71.4076 91.082 71.0977 91.082C70.7904 91.082 70.5156 91.0286 70.2734 90.9219C70.0312 90.8151 69.8268 90.6667 69.6602 90.4766C69.4935 90.2839 69.3672 90.0586 69.2812 89.8008C69.1953 89.543 69.1523 89.2617 69.1523 88.957V88.8711C69.1497 88.8164 69.1641 88.763 69.1953 88.7109C69.2292 88.6589 69.2695 88.6029 69.3164 88.543C69.3633 88.4831 69.4049 88.4141 69.4414 88.3359C69.5716 88.0729 69.7253 87.8424 69.9023 87.6445C70.0794 87.4466 70.2812 87.2917 70.5078 87.1797C70.737 87.0677 70.9922 87.0117 71.2734 87.0117ZM71.0898 87.7578C70.8555 87.7578 70.6641 87.8138 70.5156 87.9258C70.3698 88.0352 70.2617 88.181 70.1914 88.3633C70.1237 88.5456 70.0898 88.7435 70.0898 88.957V89.043C70.0898 89.2174 70.1094 89.3828 70.1484 89.5391C70.1875 89.6953 70.2461 89.8333 70.3242 89.9531C70.4049 90.0703 70.5091 90.1628 70.6367 90.2305C70.7669 90.2982 70.9206 90.332 71.0977 90.332C71.2773 90.332 71.4297 90.2982 71.5547 90.2305C71.6823 90.1628 71.7852 90.0703 71.8633 89.9531C71.944 89.8333 72.0026 89.6953 72.0391 89.5391C72.0781 89.3828 72.0977 89.2174 72.0977 89.043V88.957C72.0977 88.7956 72.0781 88.6432 72.0391 88.5C72.0026 88.3568 71.944 88.2305 71.8633 88.1211C71.7826 88.0091 71.6784 87.9206 71.5508 87.8555C71.4232 87.7904 71.2695 87.7578 71.0898 87.7578ZM75.6445 91.0781C75.332 91.0781 75.0495 91.0273 74.7969 90.9258C74.5469 90.8216 74.3333 90.6771 74.1562 90.4922C73.9818 90.3073 73.8477 90.0898 73.7539 89.8398C73.6602 89.5898 73.6133 89.3203 73.6133 89.0312V88.875C73.6133 88.5443 73.6615 88.2448 73.7578 87.9766C73.8542 87.7083 73.9883 87.4792 74.1602 87.2891C74.332 87.0964 74.5352 86.9492 74.7695 86.8477C75.0039 86.7461 75.2578 86.6953 75.5312 86.6953C75.8333 86.6953 76.0977 86.7461 76.3242 86.8477C76.5508 86.9492 76.7383 87.0924 76.8867 87.2773C77.0378 87.4596 77.1497 87.6771 77.2227 87.9297C77.2982 88.1823 77.3359 88.4609 77.3359 88.7656V89.168H74.0703V88.4922H76.4062V88.418C76.401 88.2487 76.3672 88.0898 76.3047 87.9414C76.2448 87.793 76.1523 87.6732 76.0273 87.582C75.9023 87.4909 75.7357 87.4453 75.5273 87.4453C75.3711 87.4453 75.2318 87.4792 75.1094 87.5469C74.9896 87.612 74.8893 87.707 74.8086 87.832C74.7279 87.957 74.6654 88.1081 74.6211 88.2852C74.5794 88.4596 74.5586 88.6562 74.5586 88.875V89.0312C74.5586 89.2161 74.5833 89.388 74.6328 89.5469C74.6849 89.7031 74.7604 89.8398 74.8594 89.957C74.9583 90.0742 75.0781 90.1667 75.2188 90.2344C75.3594 90.2995 75.5195 90.332 75.6992 90.332C75.9258 90.332 76.1276 90.2865 76.3047 90.1953C76.4818 90.1042 76.6354 89.9753 76.7656 89.8086L77.2617 90.2891C77.1706 90.4219 77.0521 90.5495 76.9062 90.6719C76.7604 90.7917 76.582 90.8893 76.3711 90.9648C76.1628 91.0404 75.9206 91.0781 75.6445 91.0781ZM80.9102 86.7734V87.5234H78.8477V86.7734H80.9102ZM81.6484 86.7734V91H80.707V86.7734H81.6484ZM78.6172 86.7734H79.5469L79.4336 88.8633C79.418 89.1732 79.3867 89.4466 79.3398 89.6836C79.2956 89.918 79.2357 90.1198 79.1602 90.2891C79.0846 90.4557 78.9922 90.5911 78.8828 90.6953C78.7734 90.7995 78.6458 90.8763 78.5 90.9258C78.3542 90.9753 78.1901 91 78.0078 91H77.7148L77.7109 90.2266L77.8594 90.2148C77.9557 90.207 78.0391 90.1823 78.1094 90.1406C78.1797 90.0964 78.2396 90.0339 78.2891 89.9531C78.3411 89.8724 78.3828 89.7682 78.4141 89.6406C78.4479 89.513 78.474 89.362 78.4922 89.1875C78.513 89.013 78.5286 88.8099 78.5391 88.5781L78.6172 86.7734ZM83.3477 88.1172H84.5938C84.9583 88.1172 85.2682 88.1784 85.5234 88.3008C85.7786 88.4232 85.9727 88.5938 86.1055 88.8125C86.2409 89.0286 86.3086 89.276 86.3086 89.5547C86.3086 89.7604 86.2708 89.9518 86.1953 90.1289C86.1198 90.3034 86.0078 90.4557 85.8594 90.5859C85.7135 90.7161 85.5339 90.8177 85.3203 90.8906C85.1094 90.9635 84.8672 91 84.5938 91H82.7227V86.7734H83.668V90.2539H84.5938C84.7812 90.2539 84.931 90.2214 85.043 90.1562C85.1549 90.0911 85.2357 90.0065 85.2852 89.9023C85.3372 89.7982 85.3633 89.6875 85.3633 89.5703C85.3633 89.4505 85.3372 89.3372 85.2852 89.2305C85.2357 89.1237 85.1549 89.0365 85.043 88.9688C84.931 88.901 84.7812 88.8672 84.5938 88.8672H83.3477V88.1172ZM87.9727 86.7734V91H87.0312V86.7734H87.9727ZM90.0586 89.625L91.7188 86.7734H92.6602V91H91.7188V88.1445L90.0586 91H89.1172V86.7734H90.0586V89.625ZM91.4688 85.1484H92.168C92.168 85.3646 92.1159 85.556 92.0117 85.7227C91.9102 85.8867 91.7643 86.0156 91.5742 86.1094C91.3867 86.2031 91.1628 86.25 90.9023 86.25C90.5091 86.25 90.1979 86.1484 89.9688 85.9453C89.7422 85.7396 89.6289 85.474 89.6289 85.1484H90.3281C90.3281 85.2943 90.3711 85.4232 90.457 85.5352C90.5456 85.6445 90.694 85.6992 90.9023 85.6992C91.1081 85.6992 91.2539 85.6445 91.3398 85.5352C91.4258 85.4232 91.4688 85.2943 91.4688 85.1484Z" fill="#00323D"/>
<path d="M115.934 84.9219H116.695C116.695 85.1536 116.663 85.3451 116.598 85.4961C116.535 85.6445 116.441 85.7669 116.316 85.8633C116.194 85.957 116.042 86.0326 115.859 86.0898C115.68 86.1471 115.471 86.1992 115.234 86.2461C115.016 86.293 114.818 86.3672 114.641 86.4688C114.466 86.5677 114.319 86.707 114.199 86.8867C114.082 87.0638 113.997 87.2917 113.945 87.5703C113.893 87.849 113.878 88.1888 113.898 88.5898V88.8555L113.152 88.9219V88.6562C113.152 88.1589 113.198 87.7253 113.289 87.3555C113.38 86.9857 113.509 86.6745 113.676 86.4219C113.845 86.1667 114.046 85.9635 114.277 85.8125C114.512 85.6615 114.772 85.5573 115.059 85.5C115.254 85.4583 115.417 85.4167 115.547 85.375C115.677 85.3307 115.773 85.2747 115.836 85.207C115.901 85.1367 115.934 85.0417 115.934 84.9219ZM115.273 87.0117C115.555 87.0117 115.805 87.0612 116.023 87.1602C116.242 87.2565 116.427 87.3919 116.578 87.5664C116.729 87.7409 116.844 87.9466 116.922 88.1836C117.003 88.4206 117.043 88.6784 117.043 88.957V89.043C117.043 89.3346 117 89.6042 116.914 89.8516C116.828 90.099 116.702 90.3151 116.535 90.5C116.368 90.6823 116.164 90.8255 115.922 90.9297C115.682 91.0312 115.408 91.082 115.098 91.082C114.79 91.082 114.516 91.0286 114.273 90.9219C114.031 90.8151 113.827 90.6667 113.66 90.4766C113.493 90.2839 113.367 90.0586 113.281 89.8008C113.195 89.543 113.152 89.2617 113.152 88.957V88.8711C113.15 88.8164 113.164 88.763 113.195 88.7109C113.229 88.6589 113.27 88.6029 113.316 88.543C113.363 88.4831 113.405 88.4141 113.441 88.3359C113.572 88.0729 113.725 87.8424 113.902 87.6445C114.079 87.4466 114.281 87.2917 114.508 87.1797C114.737 87.0677 114.992 87.0117 115.273 87.0117ZM115.09 87.7578C114.855 87.7578 114.664 87.8138 114.516 87.9258C114.37 88.0352 114.262 88.181 114.191 88.3633C114.124 88.5456 114.09 88.7435 114.09 88.957V89.043C114.09 89.2174 114.109 89.3828 114.148 89.5391C114.188 89.6953 114.246 89.8333 114.324 89.9531C114.405 90.0703 114.509 90.1628 114.637 90.2305C114.767 90.2982 114.921 90.332 115.098 90.332C115.277 90.332 115.43 90.2982 115.555 90.2305C115.682 90.1628 115.785 90.0703 115.863 89.9531C115.944 89.8333 116.003 89.6953 116.039 89.5391C116.078 89.3828 116.098 89.2174 116.098 89.043V88.957C116.098 88.7956 116.078 88.6432 116.039 88.5C116.003 88.3568 115.944 88.2305 115.863 88.1211C115.783 88.0091 115.678 87.9206 115.551 87.8555C115.423 87.7904 115.27 87.7578 115.09 87.7578ZM118.684 89.625L120.344 86.7734H121.285V91H120.344V88.1445L118.684 91H117.742V86.7734H118.684V89.625ZM123.227 87.5859V92.625H122.285V86.7734H123.152L123.227 87.5859ZM125.98 88.8477V88.9297C125.98 89.237 125.944 89.5221 125.871 89.7852C125.801 90.0456 125.695 90.2734 125.555 90.4688C125.417 90.6615 125.246 90.8112 125.043 90.918C124.84 91.0247 124.605 91.0781 124.34 91.0781C124.077 91.0781 123.846 91.0299 123.648 90.9336C123.453 90.8346 123.288 90.6953 123.152 90.5156C123.017 90.3359 122.908 90.125 122.824 89.8828C122.743 89.638 122.686 89.3698 122.652 89.0781V88.7617C122.686 88.4518 122.743 88.1706 122.824 87.918C122.908 87.6654 123.017 87.4479 123.152 87.2656C123.288 87.0833 123.453 86.9427 123.648 86.8438C123.844 86.7448 124.072 86.6953 124.332 86.6953C124.598 86.6953 124.833 86.7474 125.039 86.8516C125.245 86.9531 125.418 87.099 125.559 87.2891C125.699 87.4766 125.805 87.7031 125.875 87.9688C125.945 88.2318 125.98 88.5247 125.98 88.8477ZM125.039 88.9297V88.8477C125.039 88.6523 125.021 88.4714 124.984 88.3047C124.948 88.1354 124.891 87.987 124.812 87.8594C124.734 87.7318 124.634 87.6328 124.512 87.5625C124.392 87.4896 124.247 87.4531 124.078 87.4531C123.911 87.4531 123.768 87.4818 123.648 87.5391C123.529 87.5938 123.428 87.6706 123.348 87.7695C123.267 87.8685 123.204 87.9844 123.16 88.1172C123.116 88.2474 123.085 88.3893 123.066 88.543V89.3008C123.098 89.4883 123.151 89.6602 123.227 89.8164C123.302 89.9727 123.409 90.0977 123.547 90.1914C123.688 90.2826 123.867 90.3281 124.086 90.3281C124.255 90.3281 124.4 90.2917 124.52 90.2188C124.639 90.1458 124.737 90.0456 124.812 89.918C124.891 89.7878 124.948 89.638 124.984 89.4688C125.021 89.2995 125.039 89.1198 125.039 88.9297ZM129.27 88.4805V89.2305H127.004V88.4805H129.27ZM127.809 86.7734V91H126.867V86.7734H127.809ZM128.574 88.9336V88.8438C128.574 88.5391 128.618 88.2565 128.707 87.9961C128.796 87.7331 128.924 87.5052 129.094 87.3125C129.263 87.1172 129.469 86.9661 129.711 86.8594C129.953 86.75 130.228 86.6953 130.535 86.6953C130.848 86.6953 131.125 86.75 131.367 86.8594C131.612 86.9661 131.819 87.1172 131.988 87.3125C132.158 87.5052 132.286 87.7331 132.375 87.9961C132.464 88.2565 132.508 88.5391 132.508 88.8438V88.9336C132.508 89.2383 132.464 89.5208 132.375 89.7812C132.286 90.0417 132.158 90.2695 131.988 90.4648C131.822 90.6576 131.616 90.8086 131.371 90.918C131.129 91.0247 130.853 91.0781 130.543 91.0781C130.233 91.0781 129.957 91.0247 129.715 90.918C129.473 90.8086 129.266 90.6576 129.094 90.4648C128.924 90.2695 128.796 90.0417 128.707 89.7812C128.618 89.5208 128.574 89.2383 128.574 88.9336ZM129.52 88.8438V88.9336C129.52 89.1237 129.539 89.3034 129.578 89.4727C129.617 89.6419 129.678 89.7904 129.762 89.918C129.845 90.0456 129.952 90.1458 130.082 90.2188C130.212 90.2917 130.366 90.3281 130.543 90.3281C130.72 90.3281 130.872 90.2917 131 90.2188C131.13 90.1458 131.237 90.0456 131.32 89.918C131.404 89.7904 131.465 89.6419 131.504 89.4727C131.546 89.3034 131.566 89.1237 131.566 88.9336V88.8438C131.566 88.6562 131.546 88.4792 131.504 88.3125C131.465 88.1432 131.404 87.9935 131.32 87.8633C131.237 87.7331 131.13 87.6315 131 87.5586C130.87 87.4831 130.715 87.4453 130.535 87.4453C130.361 87.4453 130.208 87.4831 130.078 87.5586C129.951 87.6315 129.845 87.7331 129.762 87.8633C129.678 87.9935 129.617 88.1432 129.578 88.3125C129.539 88.4792 129.52 88.6562 129.52 88.8438ZM135.039 88.9805H134.227V88.5039H134.883C135.049 88.5039 135.182 88.4818 135.281 88.4375C135.383 88.3932 135.454 88.332 135.496 88.2539C135.54 88.1732 135.562 88.0794 135.562 87.9727C135.562 87.8789 135.54 87.7904 135.496 87.707C135.454 87.6211 135.383 87.5508 135.281 87.4961C135.18 87.4414 135.042 87.4141 134.867 87.4141C134.724 87.4141 134.595 87.4375 134.48 87.4844C134.368 87.5312 134.28 87.5964 134.215 87.6797C134.15 87.763 134.117 87.8594 134.117 87.9688H133.176C133.176 87.7057 133.25 87.4792 133.398 87.2891C133.549 87.099 133.751 86.9531 134.004 86.8516C134.257 86.75 134.534 86.6992 134.836 86.6992C135.094 86.6992 135.326 86.7266 135.531 86.7812C135.737 86.8333 135.911 86.9115 136.055 87.0156C136.201 87.1172 136.311 87.2448 136.387 87.3984C136.465 87.5495 136.504 87.7253 136.504 87.9258C136.504 88.069 136.47 88.2044 136.402 88.332C136.335 88.4596 136.237 88.5729 136.109 88.6719C135.982 88.7682 135.827 88.8438 135.645 88.8984C135.465 88.9531 135.263 88.9805 135.039 88.9805ZM134.227 88.707H135.039C135.289 88.707 135.51 88.7318 135.703 88.7812C135.896 88.8281 136.057 88.8984 136.188 88.9922C136.318 89.0859 136.415 89.2018 136.48 89.3398C136.548 89.4753 136.582 89.6315 136.582 89.8086C136.582 90.0065 136.539 90.1849 136.453 90.3438C136.37 90.5 136.25 90.6328 136.094 90.7422C135.94 90.8516 135.757 90.9349 135.543 90.9922C135.329 91.0495 135.094 91.0781 134.836 91.0781C134.555 91.0781 134.281 91.0312 134.016 90.9375C133.753 90.8438 133.535 90.6992 133.363 90.5039C133.194 90.306 133.109 90.0547 133.109 89.75H134.051C134.051 89.8568 134.083 89.957 134.148 90.0508C134.214 90.1445 134.307 90.2214 134.43 90.2812C134.552 90.3385 134.699 90.3672 134.871 90.3672C135.048 90.3672 135.193 90.3398 135.305 90.2852C135.417 90.2279 135.5 90.1536 135.555 90.0625C135.609 89.9688 135.637 89.8698 135.637 89.7656C135.637 89.625 135.609 89.5117 135.555 89.4258C135.5 89.3398 135.417 89.2773 135.305 89.2383C135.193 89.1966 135.052 89.1758 134.883 89.1758H134.227V88.707ZM137.203 88.9336V88.8438C137.203 88.5391 137.247 88.2565 137.336 87.9961C137.424 87.7331 137.552 87.5052 137.719 87.3125C137.888 87.1172 138.094 86.9661 138.336 86.8594C138.581 86.75 138.857 86.6953 139.164 86.6953C139.474 86.6953 139.75 86.75 139.992 86.8594C140.237 86.9661 140.444 87.1172 140.613 87.3125C140.783 87.5052 140.911 87.7331 141 87.9961C141.089 88.2565 141.133 88.5391 141.133 88.8438V88.9336C141.133 89.2383 141.089 89.5208 141 89.7812C140.911 90.0417 140.783 90.2695 140.613 90.4648C140.444 90.6576 140.238 90.8086 139.996 90.918C139.754 91.0247 139.479 91.0781 139.172 91.0781C138.862 91.0781 138.585 91.0247 138.34 90.918C138.098 90.8086 137.892 90.6576 137.723 90.4648C137.553 90.2695 137.424 90.0417 137.336 89.7812C137.247 89.5208 137.203 89.2383 137.203 88.9336ZM138.145 88.8438V88.9336C138.145 89.1237 138.164 89.3034 138.203 89.4727C138.242 89.6419 138.303 89.7904 138.387 89.918C138.47 90.0456 138.577 90.1458 138.707 90.2188C138.837 90.2917 138.992 90.3281 139.172 90.3281C139.346 90.3281 139.497 90.2917 139.625 90.2188C139.755 90.1458 139.862 90.0456 139.945 89.918C140.029 89.7904 140.09 89.6419 140.129 89.4727C140.171 89.3034 140.191 89.1237 140.191 88.9336V88.8438C140.191 88.6562 140.171 88.4792 140.129 88.3125C140.09 88.1432 140.027 87.9935 139.941 87.8633C139.858 87.7331 139.751 87.6315 139.621 87.5586C139.493 87.4831 139.341 87.4453 139.164 87.4453C138.987 87.4453 138.833 87.4831 138.703 87.5586C138.576 87.6315 138.47 87.7331 138.387 87.8633C138.303 87.9935 138.242 88.1432 138.203 88.3125C138.164 88.4792 138.145 88.6562 138.145 88.8438ZM143.977 89.1914H142.625L142.617 88.5273H143.727C143.909 88.5273 144.059 88.5091 144.176 88.4727C144.296 88.4362 144.384 88.3815 144.441 88.3086C144.499 88.2331 144.527 88.1419 144.527 88.0352C144.527 87.9466 144.51 87.8698 144.477 87.8047C144.443 87.737 144.391 87.6823 144.32 87.6406C144.253 87.5964 144.167 87.5651 144.062 87.5469C143.961 87.526 143.842 87.5156 143.707 87.5156H142.938V91H141.996V86.7734H143.707C143.978 86.7734 144.221 86.7969 144.438 86.8438C144.656 86.8906 144.842 86.9622 144.996 87.0586C145.15 87.1549 145.267 87.2773 145.348 87.4258C145.431 87.5716 145.473 87.7435 145.473 87.9414C145.473 88.0716 145.444 88.194 145.387 88.3086C145.332 88.4232 145.25 88.5247 145.141 88.6133C145.031 88.7018 144.897 88.7747 144.738 88.832C144.579 88.8867 144.397 88.9206 144.191 88.9336L143.977 89.1914ZM143.977 91H142.352L142.727 90.2578H143.977C144.143 90.2578 144.281 90.237 144.391 90.1953C144.5 90.1536 144.581 90.0938 144.633 90.0156C144.688 89.9349 144.715 89.8398 144.715 89.7305C144.715 89.6185 144.689 89.5221 144.637 89.4414C144.585 89.3607 144.504 89.2995 144.395 89.2578C144.288 89.2135 144.148 89.1914 143.977 89.1914H142.902L142.91 88.5273H144.188L144.457 88.7852C144.725 88.8034 144.948 88.8607 145.125 88.957C145.302 89.0534 145.435 89.1745 145.523 89.3203C145.612 89.4661 145.656 89.625 145.656 89.7969C145.656 89.9948 145.618 90.1693 145.543 90.3203C145.47 90.4714 145.361 90.5977 145.215 90.6992C145.072 90.7982 144.896 90.8737 144.688 90.9258C144.479 90.9753 144.242 91 143.977 91ZM147.168 88.1172H148.414C148.779 88.1172 149.089 88.1784 149.344 88.3008C149.599 88.4232 149.793 88.5938 149.926 88.8125C150.061 89.0286 150.129 89.276 150.129 89.5547C150.129 89.7604 150.091 89.9518 150.016 90.1289C149.94 90.3034 149.828 90.4557 149.68 90.5859C149.534 90.7161 149.354 90.8177 149.141 90.8906C148.93 90.9635 148.688 91 148.414 91H146.543V86.7734H147.488V90.2539H148.414C148.602 90.2539 148.751 90.2214 148.863 90.1562C148.975 90.0911 149.056 90.0065 149.105 89.9023C149.158 89.7982 149.184 89.6875 149.184 89.5703C149.184 89.4505 149.158 89.3372 149.105 89.2305C149.056 89.1237 148.975 89.0365 148.863 88.9688C148.751 88.901 148.602 88.8672 148.414 88.8672H147.168V88.1172ZM151.793 86.7734V91H150.852V86.7734H151.793ZM153.879 89.625L155.539 86.7734H156.48V91H155.539V88.1445L153.879 91H152.938V86.7734H153.879V89.625ZM155.289 85.1484H155.988C155.988 85.3646 155.936 85.556 155.832 85.7227C155.73 85.8867 155.585 86.0156 155.395 86.1094C155.207 86.2031 154.983 86.25 154.723 86.25C154.329 86.25 154.018 86.1484 153.789 85.9453C153.562 85.7396 153.449 85.474 153.449 85.1484H154.148C154.148 85.2943 154.191 85.4232 154.277 85.5352C154.366 85.6445 154.514 85.6992 154.723 85.6992C154.928 85.6992 155.074 85.6445 155.16 85.5352C155.246 85.4232 155.289 85.2943 155.289 85.1484Z" fill="white"/>
</svg>
