<svg width="163" height="81" viewBox="0 0 163 81" fill="none" xmlns="http://www.w3.org/2000/svg">
<path d="M163 0.84375H0V80.8438H163V0.84375Z" fill="#F0F0F0"/>
<path d="M50.6092 39.9424C50.6092 39.9424 51.0732 34.6893 51.1173 34.1754C51.1886 33.3476 50.5252 31.8438 48.9255 31.8438H35.7097C34.1099 31.8459 33.3331 32.9348 33.2324 33.9753C33.1736 34.5924 32.0798 47.2912 32.0105 48.0242C31.8971 49.1995 32.7075 50.5349 34.1792 50.5349H47.3173C49.0619 50.5349 49.7379 49.6081 49.887 48.18C49.9752 47.3249 50.4076 42.1561 50.4076 42.1561H42.4656L42.1213 46.1517H40.11L40.975 36.2311H42.9841L42.665 39.9445H50.6071L50.6092 39.9424Z" fill="black"/>
<path d="M62.8642 33.4487C62.5808 34.266 60.2693 41.5263 60.2693 41.5263L61.2959 31.8459H53.358L51.6953 50.5349H57.6786C59.1818 50.5349 59.6962 49.6797 59.946 48.9931C60.2441 48.1737 62.4485 42.0676 62.4485 42.0676L61.6381 50.5327H69.5823L71.2199 31.8438C71.2199 31.8438 65.5262 31.8438 64.9846 31.8438C63.6095 31.8438 63.0657 32.8653 62.8663 33.4466" fill="black"/>
<path d="M103.099 31.8459L102.356 40.3679H100.342L101.085 31.8459H93.1433C93.1433 31.8459 92.3812 40.8691 92.3014 41.739C92.2049 42.7795 92.7927 44.2539 94.552 44.2539H102.018L101.852 46.1496H91.9173L91.5352 50.5328H107.34C108.41 50.5328 109.443 49.8314 109.584 48.3317C109.674 47.3691 111.041 31.8438 111.041 31.8438H103.099V31.8459Z" fill="black"/>
<path d="M120.194 40.8667L120.599 36.2308H122.59L122.184 40.8667H120.194ZM123.824 31.8477H113.039L111.41 50.5345H119.352L119.856 44.7528H127.571C128.936 44.7528 129.843 44.0556 129.99 42.4528C130.047 41.8314 130.674 34.748 130.716 34.1224C130.811 32.7407 129.715 31.8498 128.357 31.8498H123.826L123.824 31.8477Z" fill="black"/>
<path d="M81.9232 46.6467H79.8973L80.3004 42.0108H82.3263L81.9211 46.6467H81.9232ZM80.6405 38.1226L80.8063 36.2269H90.7554L91.1375 31.8438H73.2463L71.6172 50.5328H74.6005C74.6005 50.5328 86.5062 50.5328 87.4678 50.5328C88.4293 50.5328 89.5651 49.9346 89.7078 48.3717C89.8149 47.1985 90.3041 41.6422 90.3922 40.6354C90.5098 39.2873 89.6574 38.1247 87.9863 38.1247H80.6426L80.6405 38.1226Z" fill="black"/>
</svg>
