<svg width="462" height="352" viewBox="0 0 462 352" fill="none" xmlns="http://www.w3.org/2000/svg">
<path d="M308.148 352V0H430C447.673 0 462 14.3269 462 32V320C462 337.673 447.673 352 430 352H308.148Z" fill="#999999"/>
<path d="M154.73 352L154.73 0H308.582V352H154.73Z" fill="#603A25"/>
<path d="M32 352C14.3269 352 0 337.673 0 320L0 32C0 14.3269 14.3269 0 32 0H154.73L154.73 352H32Z" fill="#77E2C3"/>
<path d="M28.4902 331.148L31.6348 323.434H33.6758L29.291 334H27.6895L23.3145 323.434H25.3555L28.4902 331.148ZM24.75 323.434V334H22.3965V323.434H24.75ZM32.2305 334V323.434H34.5938V334H32.2305ZM39.457 328.834H41.8984L38.9004 334H36.4688L39.457 328.834ZM41.1758 323.434H45.707V334H43.3633V325.289H41.1758C40.7331 325.289 40.3685 325.367 40.082 325.523C39.7956 325.673 39.584 325.872 39.4473 326.119C39.3105 326.36 39.2422 326.607 39.2422 326.861C39.2422 327.115 39.304 327.359 39.4277 327.594C39.5579 327.828 39.7565 328.02 40.0234 328.17C40.2969 328.32 40.6387 328.395 41.0488 328.395H44.1543V330.113H41.0488C40.3978 330.113 39.8151 330.032 39.3008 329.869C38.7865 329.7 38.3503 329.469 37.9922 329.176C37.6341 328.876 37.3607 328.528 37.1719 328.131C36.9831 327.727 36.8887 327.288 36.8887 326.812C36.8887 326.324 36.9863 325.875 37.1816 325.465C37.377 325.055 37.6569 324.697 38.0215 324.391C38.3926 324.085 38.8418 323.85 39.3691 323.688C39.903 323.518 40.5052 323.434 41.1758 323.434ZM53.2266 323.434V334H50.8633V323.434H53.2266ZM56.6934 323.434V325.289H47.4551V323.434H56.6934ZM65.4824 327.848V329.703H60.0137V327.848H65.4824ZM60.6973 323.434V334H58.3438V323.434H60.6973ZM67.1816 323.434V334H64.8281V323.434H67.1816ZM71.4395 326.793H74.5547C75.4661 326.793 76.2409 326.946 76.8789 327.252C77.5169 327.558 78.002 327.984 78.334 328.531C78.6725 329.072 78.8418 329.69 78.8418 330.387C78.8418 330.901 78.7474 331.38 78.5586 331.822C78.3698 332.258 78.0898 332.639 77.7188 332.965C77.3542 333.29 76.9049 333.544 76.3711 333.727C75.8438 333.909 75.2383 334 74.5547 334H69.877V323.434H72.2402V332.135H74.5547C75.0234 332.135 75.3978 332.053 75.6777 331.891C75.9577 331.728 76.1595 331.516 76.2832 331.256C76.4134 330.995 76.4785 330.719 76.4785 330.426C76.4785 330.126 76.4134 329.843 76.2832 329.576C76.1595 329.309 75.9577 329.091 75.6777 328.922C75.3978 328.753 75.0234 328.668 74.5547 328.668H71.4395V326.793ZM83.002 323.434V334H80.6484V323.434H83.002ZM88.2168 330.562L92.3672 323.434H94.7207V334H92.3672V326.861L88.2168 334H85.8633V323.434H88.2168V330.562ZM91.7422 319.371H93.4902C93.4902 319.911 93.36 320.39 93.0996 320.807C92.8457 321.217 92.4811 321.539 92.0059 321.773C91.5371 322.008 90.9772 322.125 90.3262 322.125C89.3431 322.125 88.5651 321.871 87.9922 321.363C87.4258 320.849 87.1426 320.185 87.1426 319.371H88.8906C88.8906 319.736 88.998 320.058 89.2129 320.338C89.4342 320.611 89.8053 320.748 90.3262 320.748C90.8405 320.748 91.2051 320.611 91.4199 320.338C91.6348 320.058 91.7422 319.736 91.7422 319.371Z" fill="white"/>
<path d="M334.527 332.32C334.911 332.32 335.257 332.245 335.562 332.096C335.875 331.939 336.126 331.725 336.314 331.451C336.51 331.178 336.617 330.862 336.637 330.504H338.854C338.84 331.188 338.639 331.809 338.248 332.369C337.857 332.929 337.34 333.375 336.695 333.707C336.051 334.033 335.338 334.195 334.557 334.195C333.749 334.195 333.046 334.059 332.447 333.785C331.848 333.505 331.35 333.121 330.953 332.633C330.556 332.145 330.257 331.581 330.055 330.943C329.859 330.305 329.762 329.622 329.762 328.893V328.551C329.762 327.822 329.859 327.138 330.055 326.5C330.257 325.855 330.556 325.289 330.953 324.801C331.35 324.312 331.848 323.932 332.447 323.658C333.046 323.378 333.746 323.238 334.547 323.238C335.393 323.238 336.135 323.408 336.773 323.746C337.411 324.078 337.913 324.544 338.277 325.143C338.648 325.735 338.84 326.425 338.854 327.213H336.637C336.617 326.822 336.52 326.471 336.344 326.158C336.174 325.839 335.934 325.585 335.621 325.396C335.315 325.208 334.947 325.113 334.518 325.113C334.042 325.113 333.648 325.211 333.336 325.406C333.023 325.595 332.779 325.855 332.604 326.188C332.428 326.513 332.301 326.881 332.223 327.291C332.151 327.695 332.115 328.115 332.115 328.551V328.893C332.115 329.329 332.151 329.752 332.223 330.162C332.294 330.572 332.418 330.94 332.594 331.266C332.776 331.585 333.023 331.842 333.336 332.037C333.648 332.226 334.046 332.32 334.527 332.32ZM345.318 334.195C344.537 334.195 343.831 334.068 343.199 333.814C342.574 333.554 342.04 333.193 341.598 332.73C341.161 332.268 340.826 331.725 340.592 331.1C340.357 330.475 340.24 329.801 340.24 329.078V328.688C340.24 327.861 340.361 327.112 340.602 326.441C340.842 325.771 341.178 325.198 341.607 324.723C342.037 324.241 342.545 323.873 343.131 323.619C343.717 323.365 344.352 323.238 345.035 323.238C345.79 323.238 346.451 323.365 347.018 323.619C347.584 323.873 348.053 324.231 348.424 324.693C348.801 325.149 349.081 325.693 349.264 326.324C349.452 326.956 349.547 327.652 349.547 328.414V329.42H341.383V327.73H347.223V327.545C347.21 327.122 347.125 326.725 346.969 326.354C346.819 325.982 346.588 325.683 346.275 325.455C345.963 325.227 345.546 325.113 345.025 325.113C344.635 325.113 344.286 325.198 343.98 325.367C343.681 325.53 343.43 325.768 343.229 326.08C343.027 326.393 342.87 326.77 342.76 327.213C342.656 327.649 342.604 328.141 342.604 328.688V329.078C342.604 329.54 342.665 329.97 342.789 330.367C342.919 330.758 343.108 331.1 343.355 331.393C343.603 331.686 343.902 331.917 344.254 332.086C344.605 332.249 345.006 332.33 345.455 332.33C346.021 332.33 346.526 332.216 346.969 331.988C347.411 331.76 347.796 331.438 348.121 331.021L349.361 332.223C349.133 332.555 348.837 332.874 348.473 333.18C348.108 333.479 347.662 333.723 347.135 333.912C346.614 334.101 346.008 334.195 345.318 334.195ZM353.746 325.465V338.062H351.393V323.434H353.561L353.746 325.465ZM360.631 328.619V328.824C360.631 329.592 360.54 330.305 360.357 330.963C360.182 331.614 359.918 332.184 359.566 332.672C359.221 333.154 358.795 333.528 358.287 333.795C357.779 334.062 357.193 334.195 356.529 334.195C355.872 334.195 355.296 334.075 354.801 333.834C354.312 333.587 353.899 333.238 353.561 332.789C353.222 332.34 352.949 331.812 352.74 331.207C352.538 330.595 352.395 329.924 352.311 329.195V328.404C352.395 327.63 352.538 326.926 352.74 326.295C352.949 325.663 353.222 325.12 353.561 324.664C353.899 324.208 354.312 323.857 354.801 323.609C355.289 323.362 355.859 323.238 356.51 323.238C357.174 323.238 357.763 323.368 358.277 323.629C358.792 323.883 359.225 324.247 359.576 324.723C359.928 325.191 360.191 325.758 360.367 326.422C360.543 327.079 360.631 327.812 360.631 328.619ZM358.277 328.824V328.619C358.277 328.131 358.232 327.678 358.141 327.262C358.049 326.839 357.906 326.467 357.711 326.148C357.516 325.829 357.265 325.582 356.959 325.406C356.66 325.224 356.298 325.133 355.875 325.133C355.458 325.133 355.1 325.204 354.801 325.348C354.501 325.484 354.251 325.676 354.049 325.924C353.847 326.171 353.691 326.461 353.58 326.793C353.469 327.118 353.391 327.473 353.346 327.857V329.752C353.424 330.221 353.557 330.65 353.746 331.041C353.935 331.432 354.202 331.744 354.547 331.979C354.898 332.206 355.348 332.32 355.895 332.32C356.318 332.32 356.679 332.229 356.979 332.047C357.278 331.865 357.522 331.614 357.711 331.295C357.906 330.969 358.049 330.595 358.141 330.172C358.232 329.749 358.277 329.299 358.277 328.824ZM364.381 326.793H367.496C368.408 326.793 369.182 326.946 369.82 327.252C370.458 327.558 370.943 327.984 371.275 328.531C371.614 329.072 371.783 329.69 371.783 330.387C371.783 330.901 371.689 331.38 371.5 331.822C371.311 332.258 371.031 332.639 370.66 332.965C370.296 333.29 369.846 333.544 369.312 333.727C368.785 333.909 368.18 334 367.496 334H362.818V323.434H365.182V332.135H367.496C367.965 332.135 368.339 332.053 368.619 331.891C368.899 331.728 369.101 331.516 369.225 331.256C369.355 330.995 369.42 330.719 369.42 330.426C369.42 330.126 369.355 329.843 369.225 329.576C369.101 329.309 368.899 329.091 368.619 328.922C368.339 328.753 367.965 328.668 367.496 328.668H364.381V326.793ZM375.943 323.434V334H373.59V323.434H375.943ZM381.158 330.562L385.309 323.434H387.662V334H385.309V326.861L381.158 334H378.805V323.434H381.158V330.562ZM384.684 319.371H386.432C386.432 319.911 386.301 320.39 386.041 320.807C385.787 321.217 385.423 321.539 384.947 321.773C384.479 322.008 383.919 322.125 383.268 322.125C382.285 322.125 381.507 321.871 380.934 321.363C380.367 320.849 380.084 320.185 380.084 319.371H381.832C381.832 319.736 381.939 320.058 382.154 320.338C382.376 320.611 382.747 320.748 383.268 320.748C383.782 320.748 384.146 320.611 384.361 320.338C384.576 320.058 384.684 319.736 384.684 319.371Z" fill="white"/>
<path d="M179.75 323.434V334H177.396V323.434H179.75ZM186.645 323.434L181.889 329.791H179.203L178.891 327.662H180.854L183.705 323.434H186.645ZM183.891 334L180.707 329.391L182.562 328.053L186.986 334H183.891ZM187.465 328.834V328.609C187.465 327.848 187.576 327.141 187.797 326.49C188.018 325.833 188.337 325.263 188.754 324.781C189.177 324.293 189.691 323.915 190.297 323.648C190.909 323.375 191.599 323.238 192.367 323.238C193.142 323.238 193.832 323.375 194.438 323.648C195.049 323.915 195.567 324.293 195.99 324.781C196.413 325.263 196.736 325.833 196.957 326.49C197.178 327.141 197.289 327.848 197.289 328.609V328.834C197.289 329.596 197.178 330.302 196.957 330.953C196.736 331.604 196.413 332.174 195.99 332.662C195.567 333.144 195.053 333.521 194.447 333.795C193.842 334.062 193.155 334.195 192.387 334.195C191.612 334.195 190.919 334.062 190.307 333.795C189.701 333.521 189.187 333.144 188.764 332.662C188.34 332.174 188.018 331.604 187.797 330.953C187.576 330.302 187.465 329.596 187.465 328.834ZM189.818 328.609V328.834C189.818 329.309 189.867 329.758 189.965 330.182C190.062 330.605 190.215 330.976 190.424 331.295C190.632 331.614 190.899 331.865 191.225 332.047C191.55 332.229 191.938 332.32 192.387 332.32C192.823 332.32 193.201 332.229 193.52 332.047C193.845 331.865 194.112 331.614 194.32 331.295C194.529 330.976 194.682 330.605 194.779 330.182C194.883 329.758 194.936 329.309 194.936 328.834V328.609C194.936 328.141 194.883 327.698 194.779 327.281C194.682 326.858 194.525 326.484 194.311 326.158C194.102 325.833 193.835 325.579 193.51 325.396C193.191 325.208 192.81 325.113 192.367 325.113C191.924 325.113 191.54 325.208 191.215 325.396C190.896 325.579 190.632 325.833 190.424 326.158C190.215 326.484 190.062 326.858 189.965 327.281C189.867 327.698 189.818 328.141 189.818 328.609ZM201.625 325.465V338.062H199.271V323.434H201.439L201.625 325.465ZM208.51 328.619V328.824C208.51 329.592 208.419 330.305 208.236 330.963C208.061 331.614 207.797 332.184 207.445 332.672C207.1 333.154 206.674 333.528 206.166 333.795C205.658 334.062 205.072 334.195 204.408 334.195C203.751 334.195 203.174 334.075 202.68 333.834C202.191 333.587 201.778 333.238 201.439 332.789C201.101 332.34 200.827 331.812 200.619 331.207C200.417 330.595 200.274 329.924 200.189 329.195V328.404C200.274 327.63 200.417 326.926 200.619 326.295C200.827 325.663 201.101 325.12 201.439 324.664C201.778 324.208 202.191 323.857 202.68 323.609C203.168 323.362 203.738 323.238 204.389 323.238C205.053 323.238 205.642 323.368 206.156 323.629C206.671 323.883 207.104 324.247 207.455 324.723C207.807 325.191 208.07 325.758 208.246 326.422C208.422 327.079 208.51 327.812 208.51 328.619ZM206.156 328.824V328.619C206.156 328.131 206.111 327.678 206.02 327.262C205.928 326.839 205.785 326.467 205.59 326.148C205.395 325.829 205.144 325.582 204.838 325.406C204.538 325.224 204.177 325.133 203.754 325.133C203.337 325.133 202.979 325.204 202.68 325.348C202.38 325.484 202.13 325.676 201.928 325.924C201.726 326.171 201.57 326.461 201.459 326.793C201.348 327.118 201.27 327.473 201.225 327.857V329.752C201.303 330.221 201.436 330.65 201.625 331.041C201.814 331.432 202.081 331.744 202.426 331.979C202.777 332.206 203.227 332.32 203.773 332.32C204.197 332.32 204.558 332.229 204.857 332.047C205.157 331.865 205.401 331.614 205.59 331.295C205.785 330.969 205.928 330.595 206.02 330.172C206.111 329.749 206.156 329.299 206.156 328.824ZM212.943 330.562L217.094 323.434H219.447V334H217.094V326.861L212.943 334H210.59V323.434H212.943V330.562ZM230.424 323.434V334H228.07V323.434H230.424ZM229.428 328.111V329.977C229.141 330.1 228.819 330.214 228.461 330.318C228.109 330.416 227.738 330.497 227.348 330.562C226.957 330.621 226.563 330.65 226.166 330.65C225.235 330.65 224.431 330.507 223.754 330.221C223.083 329.934 222.566 329.495 222.201 328.902C221.843 328.303 221.664 327.545 221.664 326.627V323.424H224.008V326.627C224.008 327.154 224.086 327.574 224.242 327.887C224.405 328.199 224.646 328.424 224.965 328.561C225.284 328.697 225.684 328.766 226.166 328.766C226.57 328.766 226.951 328.74 227.309 328.688C227.667 328.629 228.021 328.551 228.373 328.453C228.725 328.355 229.076 328.242 229.428 328.111ZM240.15 327.848V329.703H234.682V327.848H240.15ZM235.365 323.434V334H233.012V323.434H235.365ZM241.85 323.434V334H239.496V323.434H241.85ZM249.018 334.195C248.236 334.195 247.53 334.068 246.898 333.814C246.273 333.554 245.74 333.193 245.297 332.73C244.861 332.268 244.525 331.725 244.291 331.1C244.057 330.475 243.939 329.801 243.939 329.078V328.688C243.939 327.861 244.06 327.112 244.301 326.441C244.542 325.771 244.877 325.198 245.307 324.723C245.736 324.241 246.244 323.873 246.83 323.619C247.416 323.365 248.051 323.238 248.734 323.238C249.49 323.238 250.15 323.365 250.717 323.619C251.283 323.873 251.752 324.231 252.123 324.693C252.501 325.149 252.781 325.693 252.963 326.324C253.152 326.956 253.246 327.652 253.246 328.414V329.42H245.082V327.73H250.922V327.545C250.909 327.122 250.824 326.725 250.668 326.354C250.518 325.982 250.287 325.683 249.975 325.455C249.662 325.227 249.245 325.113 248.725 325.113C248.334 325.113 247.986 325.198 247.68 325.367C247.38 325.53 247.13 325.768 246.928 326.08C246.726 326.393 246.57 326.77 246.459 327.213C246.355 327.649 246.303 328.141 246.303 328.688V329.078C246.303 329.54 246.365 329.97 246.488 330.367C246.618 330.758 246.807 331.1 247.055 331.393C247.302 331.686 247.602 331.917 247.953 332.086C248.305 332.249 248.705 332.33 249.154 332.33C249.721 332.33 250.225 332.216 250.668 331.988C251.111 331.76 251.495 331.438 251.82 331.021L253.061 332.223C252.833 332.555 252.536 332.874 252.172 333.18C251.807 333.479 251.361 333.723 250.834 333.912C250.313 334.101 249.708 334.195 249.018 334.195ZM260.219 329.479H256.84L256.82 327.818H259.594C260.049 327.818 260.424 327.773 260.717 327.682C261.016 327.59 261.238 327.454 261.381 327.271C261.524 327.083 261.596 326.855 261.596 326.588C261.596 326.367 261.553 326.174 261.469 326.012C261.384 325.842 261.254 325.706 261.078 325.602C260.909 325.491 260.694 325.413 260.434 325.367C260.18 325.315 259.883 325.289 259.545 325.289H257.621V334H255.268V323.434H259.545C260.222 323.434 260.831 323.492 261.371 323.609C261.918 323.727 262.383 323.906 262.768 324.146C263.152 324.387 263.445 324.693 263.646 325.064C263.855 325.429 263.959 325.859 263.959 326.354C263.959 326.679 263.887 326.985 263.744 327.271C263.607 327.558 263.402 327.812 263.129 328.033C262.855 328.255 262.52 328.437 262.123 328.58C261.726 328.717 261.27 328.801 260.756 328.834L260.219 329.479ZM260.219 334H256.156L257.094 332.145H260.219C260.635 332.145 260.98 332.092 261.254 331.988C261.527 331.884 261.729 331.734 261.859 331.539C261.996 331.337 262.064 331.1 262.064 330.826C262.064 330.546 261.999 330.305 261.869 330.104C261.739 329.902 261.537 329.749 261.264 329.645C260.997 329.534 260.648 329.479 260.219 329.479H257.533L257.553 327.818H260.746L261.42 328.463C262.09 328.508 262.647 328.652 263.09 328.893C263.533 329.133 263.865 329.436 264.086 329.801C264.307 330.165 264.418 330.562 264.418 330.992C264.418 331.487 264.324 331.923 264.135 332.301C263.952 332.678 263.679 332.994 263.314 333.248C262.956 333.495 262.517 333.684 261.996 333.814C261.475 333.938 260.883 334 260.219 334ZM268.197 326.793H271.312C272.224 326.793 272.999 326.946 273.637 327.252C274.275 327.558 274.76 327.984 275.092 328.531C275.43 329.072 275.6 329.69 275.6 330.387C275.6 330.901 275.505 331.38 275.316 331.822C275.128 332.258 274.848 332.639 274.477 332.965C274.112 333.29 273.663 333.544 273.129 333.727C272.602 333.909 271.996 334 271.312 334H266.635V323.434H268.998V332.135H271.312C271.781 332.135 272.156 332.053 272.436 331.891C272.715 331.728 272.917 331.516 273.041 331.256C273.171 330.995 273.236 330.719 273.236 330.426C273.236 330.126 273.171 329.843 273.041 329.576C272.917 329.309 272.715 329.091 272.436 328.922C272.156 328.753 271.781 328.668 271.312 328.668H268.197V326.793ZM279.76 323.434V334H277.406V323.434H279.76ZM284.975 330.562L289.125 323.434H291.479V334H289.125V326.861L284.975 334H282.621V323.434H284.975V330.562ZM288.5 319.371H290.248C290.248 319.911 290.118 320.39 289.857 320.807C289.604 321.217 289.239 321.539 288.764 321.773C288.295 322.008 287.735 322.125 287.084 322.125C286.101 322.125 285.323 321.871 284.75 321.363C284.184 320.849 283.9 320.185 283.9 319.371H285.648C285.648 319.736 285.756 320.058 285.971 320.338C286.192 320.611 286.563 320.748 287.084 320.748C287.598 320.748 287.963 320.611 288.178 320.338C288.393 320.058 288.5 319.736 288.5 319.371Z" fill="white"/>
</svg>
