<svg width="234" height="44" viewBox="0 0 234 44" fill="none" xmlns="http://www.w3.org/2000/svg">
<g clip-path="url(#clip0_713_2909)">
<path d="M44.1116 19.0659C44.1116 19.0659 45.2109 6.70125 45.3148 5.48849C45.4834 3.54163 43.9107 0 40.1186 0H28.9226H8.79364C5.00157 0 3.15864 2.56589 2.92077 5.01443C2.77989 6.46882 0.191033 36.3621 0.0247546 38.0858C-0.243138 40.8473 1.67599 43.9954 5.16553 43.9954H36.3127C40.4466 43.9954 42.0516 41.8138 42.4027 38.454C42.6128 36.4427 43.6359 24.2713 43.6359 24.2713H24.8072L23.9942 33.6743H19.223L21.2738 10.3188H26.0358L25.2806 19.0636L44.1116 19.0659Z" fill="#008C95"/>
<path d="M73.1661 3.77866C72.4964 5.70481 67.0184 22.7939 67.0184 22.7939L69.4526 0.0115035H50.6331L46.707 44H60.8869C64.4503 44 65.6674 41.9841 66.2609 40.3732C66.9676 38.4448 72.1915 24.0711 72.1915 24.0711L70.2632 44H89.0919L92.9694 0H78.1891C74.9305 0 73.6442 2.40482 73.1661 3.77406" fill="#008C95"/>
<path d="M168.524 0L166.762 20.0647H161.99L163.752 0H144.926C144.926 0 143.122 21.2406 142.931 23.291C142.7 25.7419 144.085 29.2145 148.265 29.2145H165.958L165.565 33.6766H142.009L141.102 43.9954H178.572C181.112 43.9954 183.56 42.3431 183.884 38.8153C184.098 36.5508 187.348 0 187.348 0H168.524Z" fill="#008C95"/>
<path d="M209.061 21.2383L210.02 10.3257H214.736L213.777 21.2383H209.061ZM217.657 0H192.092L188.23 44H207.055L208.251 30.3881H226.537C229.77 30.3881 231.92 28.745 232.267 24.9709C232.403 23.5073 233.883 6.83243 233.989 5.35733C234.22 2.10566 231.618 0.00691051 228.394 0.00691051L217.657 0Z" fill="#008C95"/>
<path d="M118.336 34.8479H113.532L114.489 23.9331H119.292L118.336 34.8479ZM115.297 14.7833L115.689 10.3211H139.269L140.169 0H97.7637L93.9023 43.9931H131.463C133.848 43.9931 136.437 42.5824 136.774 38.905C137.026 36.1435 138.186 23.0632 138.391 20.6906C138.671 17.5195 136.65 14.7787 132.687 14.7787L115.297 14.7833Z" fill="#008C95"/>
</g>
<defs>
<clipPath id="clip0_713_2909">
<rect width="234" height="44" fill="white"/>
</clipPath>
</defs>
</svg>
