<svg viewBox="0 0 235 46" fill="none" xmlns="http://www.w3.org/2000/svg">
<path d="M44.771 20.0705C44.771 20.0705 45.8685 7.70326 45.9699 6.49513C46.1359 4.54921 44.5681 1.00781 40.7777 1.00781H9.50468C5.71429 1.00781 3.87905 3.58085 3.63927 6.02478C3.50094 7.48191 0.918662 37.3716 0.743438 39.0961C0.475989 41.8629 2.39425 45.0077 5.8803 45.0077H36.9689C41.1005 45.0077 42.696 42.8312 43.0556 39.4651C43.2677 37.4546 44.2822 25.2811 44.2822 25.2811H25.487L24.6755 34.6879H19.9168L21.9641 11.3369H26.7228L25.9666 20.0796H44.7618L44.771 20.0705Z" stroke="#008C94" stroke-width="0.922236"/>
<path d="M73.775 4.77978C73.1018 6.70726 67.6329 23.7963 67.6329 23.7963L70.0676 1.00781H51.2817L47.3438 44.9985H61.5C65.0599 44.9985 66.268 42.988 66.8675 41.3741C67.5776 39.4466 72.7882 25.069 72.7882 25.069L70.87 44.9985H89.6743L93.5477 1.00781C93.5477 1.00781 80.0739 1.00781 78.792 1.00781C75.5365 1.00781 74.2546 3.41487 73.775 4.77978V4.77978Z" stroke="#008C94" stroke-width="0.922236"/>
<path d="M168.988 1.00781L167.226 21.0757H162.458L164.22 1.00781H145.425C145.425 1.00781 143.626 22.2469 143.433 24.3035C143.202 26.7566 144.595 30.2242 148.754 30.2242H166.424L166.037 34.6879H142.529L141.625 45.0077H179.031C181.558 45.0077 184.011 43.3569 184.343 39.8247C184.555 37.556 187.792 1.00781 187.792 1.00781H168.997H168.988Z" stroke="#008C94" stroke-width="0.922236"/>
<path d="M209.443 22.2455L210.403 11.3354H215.106L214.147 22.2455H209.443ZM218.039 1.01562H192.511L188.656 45.0063H207.451L208.641 31.3941H226.901C230.129 31.3941 232.278 29.7525 232.619 25.9806C232.758 24.5234 234.242 7.84016 234.335 6.36458C234.556 3.10909 231.964 1.01562 228.746 1.01562H218.02H218.039Z" stroke="#008C94" stroke-width="0.922236"/>
<path d="M118.87 35.8513H114.074L115.033 24.9413H119.829L118.87 35.8513ZM115.836 15.7835L116.223 11.3198H139.768L140.671 1H98.3315L94.4766 44.9907H101.532C101.532 44.9907 129.706 44.9907 131.984 44.9907C134.262 44.9907 136.955 43.5797 137.287 39.9C137.536 37.1425 138.698 24.0559 138.91 21.6858C139.187 18.5133 137.167 15.7742 133.22 15.7742H115.836V15.7835Z" stroke="#008C94" stroke-width="0.922236"/>
</svg>
