<svg width="149" height="25" viewBox="0 0 149 25" fill="none" xmlns="http://www.w3.org/2000/svg">
<path d="M5.38046 24.48C4.82046 24.48 4.30046 24.35 3.82046 24.09C3.36046 23.83 2.96046 23.48 2.62046 23.04C2.32046 22.62 2.05046 22.09 1.81046 21.45C1.57046 20.79 1.39046 20.11 1.27046 19.41C1.03046 18.23 0.87046 16.68 0.79046 14.76C0.77046 14.3 0.76046 13.51 0.76046 12.39V10.5C0.78046 9.96 0.79046 9.4 0.79046 8.82C0.79046 7.64 0.86046 6.71 1.00046 6.03C0.94046 5.73 0.91046 5.42 0.91046 5.1C0.91046 3.9 1.36046 2.93 2.26046 2.19C3.16046 1.45 4.30046 1.08 5.68046 1.08C6.20046 1.08 6.68046 1.22 7.12046 1.5C7.56046 1.78 7.78046 2.13 7.78046 2.55C7.78046 2.75 7.70046 2.91 7.54046 3.03C7.38046 3.15 7.18046 3.21 6.94046 3.21C6.74046 3.21 6.52046 3.18 6.28046 3.12C6.06046 3.06 5.92046 2.97 5.86046 2.85H5.47046V2.79C4.73046 2.79 4.11046 2.95 3.61046 3.27C3.25046 3.53 2.97046 3.96 2.77046 4.56C2.69046 4.78 2.63046 5.06 2.59046 5.4C2.55046 5.74 2.53046 6.05 2.53046 6.33C2.51046 6.49 2.50046 6.81 2.50046 7.29L2.56046 8.34L2.59046 9.36C2.59046 9.66 2.55046 10.01 2.47046 10.41C2.37046 10.91 2.32046 11.26 2.32046 11.46V12.18C2.32046 12.96 2.35046 14.03 2.41046 15.39C2.43046 16.53 2.56046 17.67 2.80046 18.81C2.98046 19.87 3.32046 20.77 3.82046 21.51C4.30046 22.27 4.95046 22.65 5.77046 22.65C6.11046 22.65 6.53046 22.47 7.03046 22.11C7.57046 21.75 7.95046 21.57 8.17046 21.57C8.45046 21.57 8.74046 21.72 9.04046 22.02C9.04046 22.76 8.76046 23.33 8.20046 23.73C7.68046 24.09 7.06046 24.32 6.34046 24.42C5.94046 24.46 5.62046 24.48 5.38046 24.48ZM12.6765 24.3C12.3765 24.3 12.1065 24.17 11.8665 23.91C11.6265 23.65 11.5165 23.36 11.5365 23.04C11.5965 22.02 11.6265 20.98 11.6265 19.92C11.6265 19 11.6065 17.6 11.5665 15.72C11.5465 14.86 11.4765 13.57 11.3565 11.85C11.3365 11.51 11.3065 11.02 11.2665 10.38C11.2265 9.72 11.1965 9.14 11.1765 8.64C11.1565 8.3 11.1465 7.79 11.1465 7.11L11.1765 4.05C11.1765 3.87 11.1565 3.62 11.1165 3.3L11.0865 2.61C11.0865 2.29 11.1665 2.04 11.3265 1.86C11.5065 1.68 11.7365 1.59 12.0165 1.59C12.5965 1.59 12.9265 1.86 13.0065 2.4C13.0865 3 13.1265 3.45 13.1265 3.75C13.1265 4.11 13.0965 4.47 13.0365 4.83C12.9365 5.57 12.8865 6.24 12.8865 6.84L12.9165 7.74C12.9965 9.58 13.0365 11.27 13.0365 12.81V16.38C13.0365 17 13.0565 17.93 13.0965 19.17L13.2765 19.2L13.6365 18.03C14.2365 16.01 14.8065 14.17 15.3465 12.51C15.6265 11.73 15.9265 10.52 16.2465 8.88C16.3865 8.16 16.5165 7.58 16.6365 7.14L18.1365 1.74C18.2765 1.48 18.4465 1.29 18.6465 1.17C18.8465 1.03 19.0465 0.97 19.2465 0.989999C19.4865 1.05 19.7165 1.22 19.9365 1.5C20.1565 1.76 20.2565 2.02 20.2365 2.28C20.2165 2.98 20.1565 3.71 20.0565 4.47C19.8765 6.97 19.7765 8.54 19.7565 9.18C19.6765 11.86 19.6365 13.87 19.6365 15.21C19.6365 15.85 19.6865 16.86 19.7865 18.24C19.8865 19.6 19.9465 20.5 19.9665 20.94L20.0865 22.44C20.1065 22.86 20.0065 23.19 19.7865 23.43C19.5665 23.67 19.2765 23.79 18.9165 23.79C18.6965 23.79 18.5065 23.72 18.3465 23.58C18.1865 23.42 18.0965 23.21 18.0765 22.95V22.68L18.1065 16.65V15.57C18.0665 14.53 18.0265 12.93 17.9865 10.77V9.54V7.56C17.9665 7.54 17.9165 7.53 17.8365 7.53C17.7165 7.55 17.5365 8.01 17.2965 8.91C17.0765 9.79 16.8665 10.68 16.6665 11.58C16.4665 12.46 16.3365 13.02 16.2765 13.26C16.0965 14.12 15.9865 14.61 15.9465 14.73C15.3865 16.63 14.9365 18.22 14.5965 19.5C14.2565 20.76 13.9765 22.04 13.7565 23.34C13.6365 23.98 13.2765 24.3 12.6765 24.3ZM25.7948 24C25.1548 24 24.6748 23.95 24.3548 23.85C24.1548 23.79 24.0148 23.68 23.9348 23.52C23.8748 23.36 23.8448 23.14 23.8448 22.86C23.8248 22.44 23.8148 21.85 23.8148 21.09C23.8148 20.49 23.8348 19.67 23.8748 18.63L23.9048 16.23C23.9248 15.79 23.9348 15.14 23.9348 14.28C23.9348 13.64 23.9248 13.16 23.9048 12.84L23.8448 9.12C23.8448 7.2 23.8248 5.76 23.7848 4.8C23.7648 4.26 23.7548 3.46 23.7548 2.4C23.7548 2.02 23.8148 1.77 23.9348 1.65C24.0748 1.53 24.3448 1.46 24.7448 1.44L25.7948 1.41C26.6348 1.35 27.4548 1.32 28.2548 1.32C28.5548 1.32 28.8348 1.42 29.0948 1.62C29.2348 1.74 29.3048 1.9 29.3048 2.1C29.3048 2.32 29.1948 2.49 28.9748 2.61C28.6148 2.79 28.2648 2.88 27.9248 2.88C26.6248 2.88 25.8548 2.92 25.6148 3C25.3948 3.08 25.2848 3.28 25.2848 3.6C25.2848 3.9 25.2848 4.14 25.2848 4.32L25.3148 5.58C25.3548 6.7 25.3748 7.54 25.3748 8.1C25.3748 8.8 25.3648 9.33 25.3448 9.69C25.3248 9.81 25.3148 9.92 25.3148 10.02C25.3348 10.12 25.3448 10.21 25.3448 10.29C25.3648 10.43 25.3748 10.69 25.3748 11.07C26.4348 11.01 27.2748 11.23 27.8948 11.73C28.4948 12.23 29.0148 13.06 29.4548 14.22C29.8948 15.38 30.1148 16.59 30.1148 17.85C30.1148 18.23 30.1048 18.51 30.0848 18.69C29.9448 19.87 29.5848 20.91 29.0048 21.81C28.5448 22.47 28.0448 22.96 27.5048 23.28C27.4048 23.34 27.2448 23.44 27.0248 23.58C26.8048 23.7 26.5948 23.8 26.3948 23.88C26.1948 23.96 25.9948 24 25.7948 24ZM25.6148 22.23C26.2748 22.13 26.8348 21.85 27.2948 21.39C27.7748 20.93 28.0848 20.34 28.2248 19.62C28.4048 18.98 28.4948 18.26 28.4948 17.46C28.4948 16.56 28.3848 15.67 28.1648 14.79C28.0848 14.47 27.9548 14.16 27.7748 13.86C27.5948 13.56 27.4048 13.28 27.2048 13.02C27.0248 12.76 26.8948 12.57 26.8148 12.45C26.5948 12.37 26.3748 12.33 26.1548 12.33L25.4048 12.36C25.4448 13.6 25.4848 15.48 25.5248 18L25.6148 22.23ZM33.7902 24.18C33.5102 24.18 33.2902 24.1 33.1302 23.94C32.9902 23.76 32.9402 23.54 32.9802 23.28L34.0902 19.32C34.1102 19.24 34.1202 19.13 34.1202 18.99C34.1202 18.85 34.1102 18.75 34.0902 18.69L33.9102 17.91C33.8502 17.65 33.7502 17.23 33.6102 16.65C33.4902 16.05 33.3902 15.52 33.3102 15.06C33.1702 14.44 32.9502 13.14 32.6502 11.16C32.3502 9.16 32.0902 7.37 31.8702 5.79L31.7202 4.86C31.5002 3.62 31.3902 2.76 31.3902 2.28C31.3902 1.88 31.4402 1.62 31.5402 1.5C31.6402 1.4 31.7902 1.35 31.9902 1.35C32.1502 1.35 32.3102 1.38 32.4702 1.44C32.6502 1.48 32.7902 1.54 32.8902 1.62C33.0102 1.74 33.0702 1.94 33.0702 2.22L33.0402 2.82C33.0402 2.92 33.1602 3.65 33.4002 5.01L33.7002 6.96C33.6802 7.54 33.7002 8.13 33.7602 8.73C33.8402 9.33 33.9602 10.05 34.1202 10.89C34.1602 11.05 34.2002 11.25 34.2402 11.49C34.3602 12.19 34.4802 13.2 34.6002 14.52C34.6202 14.76 34.6502 15.04 34.6902 15.36C34.7302 15.68 34.7602 15.92 34.7802 16.08C34.9802 15.06 35.1502 13.83 35.2902 12.39C35.2902 12.23 35.3102 12.01 35.3502 11.73C35.4702 10.55 35.6102 8.85 35.7702 6.63C35.8102 6.29 35.8502 5.68 35.8902 4.8L35.9502 3.72C35.9902 3.44 36.0102 3.17 36.0102 2.91C36.0102 2.85 36.0102 2.71 36.0102 2.49C36.0302 2.25 36.0602 2.05 36.1002 1.89C36.1402 1.73 36.2002 1.6 36.2802 1.5C36.4002 1.32 36.6102 1.23 36.9102 1.23C37.2702 1.23 37.5702 1.33 37.8102 1.53C37.9502 1.65 38.0202 1.85 38.0202 2.13C38.0202 2.31 38.0102 2.48 37.9902 2.64C37.9702 2.78 37.9502 2.91 37.9302 3.03C37.8102 4.07 37.6802 5.32 37.5402 6.78L37.1802 10.11C37.1202 10.57 37.0302 11.3 36.9102 12.3C36.6102 15.06 36.3402 17.06 36.1002 18.3C36.0202 18.82 35.8202 19.74 35.5002 21.06C35.1802 22.38 34.9802 23.14 34.9002 23.34C34.8402 23.58 34.7102 23.78 34.5102 23.94C34.3102 24.1 34.0702 24.18 33.7902 24.18ZM41.889 24.15C41.669 24.15 41.489 24.06 41.349 23.88C41.229 23.68 41.169 23.44 41.169 23.16L41.229 18.12C41.289 15.68 41.319 13.79 41.319 12.45C41.319 7.79 41.059 4.22 40.539 1.74C40.839 1.28 41.219 1.05 41.679 1.05C42.419 1.05 43.089 1.22 43.689 1.56C44.309 1.88 44.819 2.32 45.219 2.88C45.999 4.04 46.389 5.34 46.389 6.78C46.389 8.28 46.069 9.62 45.429 10.8C44.789 11.98 43.859 12.9 42.639 13.56L42.699 16.59L42.759 18.18C42.779 18.52 42.789 19.01 42.789 19.65C42.849 20.99 42.879 22.08 42.879 22.92C42.879 23.3 42.799 23.6 42.639 23.82C42.479 24.04 42.229 24.15 41.889 24.15ZM42.579 12.12C43.359 11.38 43.929 10.61 44.289 9.81C44.669 8.99 44.859 8.07 44.859 7.05V7.02C44.859 6.56 44.809 5.98 44.709 5.28C44.649 5.04 44.539 4.8 44.379 4.56C44.219 4.32 44.129 4.18 44.109 4.14C43.969 3.94 43.599 3.63 42.999 3.21L42.219 2.64C42.219 3.66 42.279 5.24 42.399 7.38L42.579 12.12ZM55.1272 24.66C54.9672 24.66 54.8272 24.61 54.7072 24.51C54.5872 24.41 54.4972 24.28 54.4372 24.12C54.4172 24.08 54.4072 24.02 54.4072 23.94C54.4072 23.68 54.5472 23.47 54.8272 23.31C55.3872 23.07 55.8072 22.71 56.0872 22.23C56.3872 21.73 56.5972 21.15 56.7172 20.49C57.0772 18.53 57.2572 16.4 57.2572 14.1C57.2572 13.24 57.2472 12.59 57.2272 12.15C57.0872 8.77 56.9672 6.39 56.8672 5.01V4.89C56.8672 4.71 56.9072 4.57 56.9872 4.47C57.0672 4.37 57.2072 4.3 57.4072 4.26C58.6872 4.02 59.7072 3.9 60.4672 3.9C60.8672 3.9 61.1672 3.91 61.3672 3.93C61.8272 3.95 62.1772 4.09 62.4172 4.35C62.6572 4.61 62.7772 4.97 62.7772 5.43L62.8072 7.02C62.8472 8.42 62.8672 9.47 62.8672 10.17L62.8372 11.61C62.8372 13.73 62.9172 16.41 63.0772 19.65C63.1572 21.11 63.2272 22.24 63.2872 23.04C63.3072 23.4 63.2472 23.66 63.1072 23.82C62.9872 23.98 62.7772 24.08 62.4772 24.12C61.8172 24.16 61.4672 23.85 61.4272 23.19C61.4872 22.61 61.5172 22.03 61.5172 21.45C61.5172 20.87 61.5072 20.39 61.4872 20.01L61.4572 16.59C61.4572 14.93 61.4272 13.23 61.3672 11.49C61.3272 10.05 61.2672 8.69 61.1872 7.41C61.1072 6.13 61.0272 5.35 60.9472 5.07C60.8272 5.09 60.5772 5.14 60.1972 5.22C59.8172 5.3 59.2972 5.37 58.6372 5.43C58.5772 6.35 58.5472 7.01 58.5472 7.41C58.5472 7.87 58.5772 8.27 58.6372 8.61C58.6772 9.15 58.7172 9.94 58.7572 10.98V11.64C58.7572 14.88 58.7272 17.07 58.6672 18.21C58.6272 18.53 58.6072 18.78 58.6072 18.96C58.5272 19.8 58.4472 20.44 58.3672 20.88C58.1672 21.94 57.5572 23.02 56.5372 24.12C56.2572 24.44 55.8072 24.62 55.1872 24.66H55.1272ZM74.8339 24.21C74.3539 24.21 73.8939 24.06 73.4539 23.76C73.0139 23.46 72.6539 23.03 72.3739 22.47C72.1339 21.99 71.9639 21.48 71.8639 20.94C71.7839 20.38 71.7139 19.7 71.6539 18.9L71.3839 15.21H68.8039V18.15V19.35L69.1039 23.04C69.1439 23.38 69.0939 23.62 68.9539 23.76C68.8339 23.9 68.5839 23.97 68.2039 23.97C67.9239 23.97 67.7239 23.93 67.6039 23.85C67.4839 23.77 67.4039 23.62 67.3639 23.4C67.3239 23.08 67.3039 22.59 67.3039 21.93L67.2739 19.65C67.2339 17.65 67.2139 16.14 67.2139 15.12C67.2139 14.3 67.2239 13.69 67.2439 13.29L67.2739 11.4C67.2739 10.92 67.2539 10.08 67.2139 8.88L67.1839 6.69C67.1839 6.45 67.2039 6.09 67.2439 5.61L67.2739 4.56C67.2739 4.3 67.3239 4.13 67.4239 4.05C67.5439 3.97 67.7639 3.93 68.0839 3.93C68.4039 3.93 68.6639 4.03 68.8639 4.23C69.0839 4.41 69.1739 4.64 69.1339 4.92C69.0739 5.3 69.0439 5.7 69.0439 6.12C69.0439 6.54 69.0539 6.86 69.0739 7.08L69.1039 8.07C69.1039 9.07 69.0639 10.03 68.9839 10.95C68.9039 11.91 68.8639 12.96 68.8639 14.1C69.1839 14.14 69.4239 14.16 69.5839 14.16C69.9439 14.16 70.5439 14.08 71.3839 13.92C71.4439 12.76 71.5539 11.46 71.7139 10.02C71.8739 8.54 72.0639 7.23 72.2839 6.09C72.3639 5.67 72.6039 5.13 73.0039 4.47C73.1039 4.27 73.2639 4.12 73.4839 4.02C73.7039 3.92 73.9439 3.87 74.2039 3.87C74.5639 3.87 75.0439 4.02 75.6439 4.32C76.2639 4.62 76.7539 4.96 77.1139 5.34C77.7339 6.02 78.2239 6.88 78.5839 7.92C78.9639 8.96 79.1539 10.11 79.1539 11.37C79.1539 11.99 79.1139 12.57 79.0339 13.11C78.9539 13.69 78.9139 14.57 78.9139 15.75C78.9139 16.83 78.8839 17.64 78.8239 18.18C78.6439 19.92 78.2139 21.4 77.5339 22.62C77.2739 23.12 76.8839 23.51 76.3639 23.79C75.8439 24.07 75.3339 24.21 74.8339 24.21ZM74.8339 23.01C75.2139 23.01 75.5239 22.83 75.7639 22.47C76.3039 21.37 76.6739 20.4 76.8739 19.56C77.0939 18.72 77.2139 17.61 77.2339 16.23C77.3139 14.43 77.3539 12.93 77.3539 11.73L77.3239 10.44C77.2839 9.24 77.0939 8.1 76.7539 7.02C76.6539 6.68 76.4639 6.34 76.1839 6C75.9239 5.64 75.6339 5.35 75.3139 5.13C75.0139 4.93 74.7639 4.83 74.5639 4.83C74.4039 4.83 74.2839 4.9 74.2039 5.04C74.1239 5.18 74.0439 5.4 73.9639 5.7C73.9039 6 73.8439 6.24 73.7839 6.42C73.7039 6.7 73.6239 7.12 73.5439 7.68C73.5239 7.92 73.4739 8.23 73.3939 8.61C73.0739 10.45 72.9139 12.51 72.9139 14.79V15.75L72.9439 16.62C72.9639 16.88 72.9839 17.4 73.0039 18.18C73.0439 18.94 73.1039 19.62 73.1839 20.22C73.2439 20.76 73.4939 21.51 73.9339 22.47C74.1539 22.83 74.4539 23.01 74.8339 23.01ZM83.7482 24C83.1082 24.04 82.8082 23.72 82.8482 23.04L82.8782 20.97C82.8982 20.53 82.9082 19.85 82.9082 18.93V16.71C82.9082 15.73 82.8982 14.99 82.8782 14.49C82.8582 13.85 82.8482 12.9 82.8482 11.64V8.82V8.07C82.8482 7.53 82.8282 7.08 82.7882 6.72C82.7682 6.36 82.6982 5.98 82.5782 5.58C82.5382 5.42 82.5182 5.3 82.5182 5.22C82.5182 4.88 82.6382 4.58 82.8782 4.32C83.1382 4.06 83.4582 3.92 83.8382 3.9C84.3782 3.88 84.8982 3.85 85.3982 3.81C85.9182 3.77 86.4182 3.7 86.8982 3.6C87.0782 3.52 87.2782 3.57 87.4982 3.75C87.7182 3.91 87.8482 4.09 87.8882 4.29C87.9282 4.45 87.8882 4.61 87.7682 4.77C87.6482 4.91 87.4882 5.01 87.2882 5.07C86.8682 5.19 85.9582 5.33 84.5582 5.49L84.2882 12.9C85.2082 13 85.9182 13.26 86.4182 13.68C86.9182 14.1 87.2582 14.83 87.4382 15.87C87.6582 16.69 87.7682 17.57 87.7682 18.51C87.7682 19.11 87.7082 19.73 87.5882 20.37C87.3082 21.67 86.6382 22.63 85.5782 23.25C85.4582 23.33 85.2782 23.44 85.0382 23.58C84.8182 23.72 84.5982 23.83 84.3782 23.91C84.1782 23.97 83.9682 24 83.7482 24ZM84.3482 22.38C84.7482 22.26 85.1082 22.02 85.4282 21.66C85.7482 21.3 85.9582 20.91 86.0582 20.49C86.2382 19.71 86.3282 18.95 86.3282 18.21C86.3282 17.43 86.2382 16.67 86.0582 15.93C85.9382 15.45 85.7482 15.08 85.4882 14.82C85.2482 14.54 84.8682 14.39 84.3482 14.37V22.38ZM91.8414 23.94C91.5814 23.86 91.4414 23.69 91.4214 23.43V22.98C91.3814 22.14 91.3414 20.88 91.3014 19.2C91.2214 17.74 91.1714 16.62 91.1514 15.84C91.0914 14.62 91.0214 12.79 90.9414 10.35C90.9214 9.93 90.9014 9.35 90.8814 8.61C90.8614 7.87 90.8514 7.31 90.8514 6.93C90.8314 6.71 90.8214 6.4 90.8214 6C90.8214 5.54 90.8414 5.2 90.8814 4.98C90.9614 4.36 91.3014 4.07 91.9014 4.11C92.4614 4.11 92.7614 4.43 92.8014 5.07V5.43L92.7714 12.99V16.56V18.36C92.7714 18.64 92.7914 18.97 92.8314 19.35C92.8714 19.71 92.9014 19.97 92.9214 20.13C93.0214 19.55 93.1814 18.96 93.4014 18.36C93.6414 17.74 93.7914 17.36 93.8514 17.22C94.1514 16.5 94.3714 15.91 94.5114 15.45C94.9914 13.91 95.6114 12.02 96.3714 9.78C96.5314 9.32 96.7114 8.76 96.9114 8.1C97.4514 6.4 97.8214 5.3 98.0214 4.8C98.2014 4.32 98.4714 4.02 98.8314 3.9C99.0114 3.84 99.1914 3.81 99.3714 3.81C99.6514 3.81 99.9414 3.9 100.241 4.08V5.52C100.241 7.02 100.271 8.57 100.331 10.17C100.351 10.51 100.361 11.02 100.361 11.7V12.57C100.361 12.75 100.351 12.99 100.331 13.29C100.331 13.59 100.341 13.94 100.361 14.34L100.451 22.44C100.451 22.74 100.381 23.07 100.241 23.43C100.181 23.59 100.081 23.72 99.9414 23.82C99.8014 23.9 99.6514 23.94 99.4914 23.94C98.9314 23.94 98.6514 23.68 98.6514 23.16C98.6514 22.56 98.6814 21.98 98.7414 21.42C98.7814 20.66 98.8014 20.08 98.8014 19.68C98.7614 15.72 98.7114 12.76 98.6514 10.8C98.6514 10.5 98.6114 10.01 98.5314 9.33L98.4414 8.25C98.2614 8.45 98.1614 8.58 98.1414 8.64L97.6614 10.11C97.3414 11.15 97.0914 11.92 96.9114 12.42L94.3014 19.68L92.9514 23.37C92.7914 23.79 92.5514 24 92.2314 24C92.1714 24 92.0414 23.98 91.8414 23.94ZM105.904 23.52L105.874 22.35C105.854 22.01 105.844 21.63 105.844 21.21L105.874 20.19C105.814 19.97 105.664 17.78 105.424 13.62C105.184 9.46 105.044 6.79 105.004 5.61C103.844 5.57 103.104 5.45 102.784 5.25C102.564 5.09 102.454 4.91 102.454 4.71C102.454 4.55 102.554 4.41 102.754 4.29C102.974 4.15 103.194 4.08 103.414 4.08C103.974 4.08 104.654 4.12 105.454 4.2C106.214 4.3 106.894 4.35 107.494 4.35H107.734H107.974C108.594 4.35 108.904 4.59 108.904 5.07C108.904 5.31 108.804 5.51 108.604 5.67C108.404 5.81 108.174 5.88 107.914 5.88C107.734 5.88 107.474 5.85 107.134 5.79L106.534 5.67L106.504 5.82L106.474 5.97C106.474 7.75 106.644 10.59 106.984 14.49C107.304 18.15 107.464 20.99 107.464 23.01C107.464 23.25 107.354 23.46 107.134 23.64C106.934 23.82 106.704 23.91 106.444 23.91L105.904 23.52ZM119.375 23.52L119.345 22.35C119.325 22.01 119.315 21.63 119.315 21.21L119.345 20.19C119.285 19.97 119.135 17.78 118.895 13.62C118.655 9.46 118.515 6.79 118.475 5.61C117.315 5.57 116.575 5.45 116.255 5.25C116.035 5.09 115.925 4.91 115.925 4.71C115.925 4.55 116.025 4.41 116.225 4.29C116.445 4.15 116.665 4.08 116.885 4.08C117.445 4.08 118.125 4.12 118.925 4.2C119.685 4.3 120.365 4.35 120.965 4.35H121.205H121.445C122.065 4.35 122.375 4.59 122.375 5.07C122.375 5.31 122.275 5.51 122.075 5.67C121.875 5.81 121.645 5.88 121.385 5.88C121.205 5.88 120.945 5.85 120.605 5.79L120.005 5.67L119.975 5.82L119.945 5.97C119.945 7.75 120.115 10.59 120.455 14.49C120.775 18.15 120.935 20.99 120.935 23.01C120.935 23.25 120.825 23.46 120.605 23.64C120.405 23.82 120.175 23.91 119.915 23.91L119.375 23.52ZM126.909 24.39C126.649 24.39 126.409 24.3 126.189 24.12C125.989 23.94 125.879 23.72 125.859 23.46V22.68V22.08C125.839 21.9 125.829 21.69 125.829 21.45C125.829 21.03 125.799 20.39 125.739 19.53L125.679 17.61C125.679 16.63 125.709 15.17 125.769 13.23C125.849 11.49 125.889 10.03 125.889 8.85C125.889 8.57 125.859 8.15 125.799 7.59C125.739 7.01 125.709 6.59 125.709 6.33C125.709 4.91 126.129 4.2 126.969 4.2C127.629 4.2 128.389 4.33 129.249 4.59C130.129 4.85 130.569 5.16 130.569 5.52C130.569 5.72 130.479 5.91 130.299 6.09C130.139 6.25 129.939 6.38 129.699 6.48C128.859 6.18 128.099 5.98 127.419 5.88C127.439 6.18 127.449 6.61 127.449 7.17C127.449 7.97 127.439 8.69 127.419 9.33C127.359 10.29 127.329 11.01 127.329 11.49L127.419 11.97L127.899 11.94C128.059 11.92 128.259 11.91 128.499 11.91C129.459 11.91 129.939 12.19 129.939 12.75C129.939 12.97 129.849 13.16 129.669 13.32C129.489 13.46 129.259 13.53 128.979 13.53C128.619 13.53 128.339 13.51 128.139 13.47H127.389C127.429 13.99 127.449 14.75 127.449 15.75C127.449 16.75 127.439 17.65 127.419 18.45C127.359 19.67 127.329 20.58 127.329 21.18C127.329 22.3 127.349 22.86 127.389 22.86L128.379 22.83C128.719 22.81 129.129 22.8 129.609 22.8C130.369 22.8 130.749 23.04 130.749 23.52C130.749 23.8 130.619 24.01 130.359 24.15C130.119 24.31 129.819 24.39 129.459 24.39H126.909ZM135.383 24C134.743 24.04 134.443 23.72 134.483 23.04L134.513 20.97C134.533 20.53 134.543 19.85 134.543 18.93V16.71C134.543 15.73 134.533 14.99 134.513 14.49C134.493 13.85 134.483 12.9 134.483 11.64V8.82V8.07C134.483 7.53 134.463 7.08 134.423 6.72C134.403 6.36 134.333 5.98 134.213 5.58C134.173 5.42 134.153 5.3 134.153 5.22C134.153 4.88 134.273 4.58 134.513 4.32C134.773 4.06 135.093 3.92 135.473 3.9C136.013 3.88 136.533 3.85 137.033 3.81C137.553 3.77 138.053 3.7 138.533 3.6C138.713 3.52 138.913 3.57 139.133 3.75C139.353 3.91 139.483 4.09 139.523 4.29C139.563 4.45 139.523 4.61 139.403 4.77C139.283 4.91 139.123 5.01 138.923 5.07C138.503 5.19 137.593 5.33 136.193 5.49L135.923 12.9C136.843 13 137.553 13.26 138.053 13.68C138.553 14.1 138.893 14.83 139.073 15.87C139.293 16.69 139.403 17.57 139.403 18.51C139.403 19.11 139.343 19.73 139.223 20.37C138.943 21.67 138.273 22.63 137.213 23.25C137.093 23.33 136.913 23.44 136.673 23.58C136.453 23.72 136.233 23.83 136.013 23.91C135.813 23.97 135.603 24 135.383 24ZM135.983 22.38C136.383 22.26 136.743 22.02 137.063 21.66C137.383 21.3 137.593 20.91 137.693 20.49C137.873 19.71 137.963 18.95 137.963 18.21C137.963 17.43 137.873 16.67 137.693 15.93C137.573 15.45 137.383 15.08 137.123 14.82C136.883 14.54 136.503 14.39 135.983 14.37V22.38ZM141.887 24.27C141.707 24.23 141.557 24.17 141.437 24.09C141.337 24.03 141.277 23.91 141.257 23.73C141.277 23.61 141.327 23.48 141.407 23.34C141.487 23.2 141.567 23.12 141.647 23.1C141.827 23.08 141.957 23.02 142.037 22.92C142.117 22.82 142.187 22.68 142.247 22.5C142.267 22.38 142.327 22.08 142.427 21.6C142.527 21.12 142.587 20.66 142.607 20.22L142.637 19.71C142.637 19.47 142.617 19.13 142.577 18.69C142.537 18.25 142.517 17.93 142.517 17.73C142.517 16.57 142.947 15.43 143.807 14.31C142.647 13.25 142.067 12.09 142.067 10.83V9.87C142.067 8.83 142.147 8.05 142.307 7.53C142.447 6.99 142.707 6.4 143.087 5.76C143.227 5.46 143.417 5.23 143.657 5.07C143.897 4.89 144.157 4.73 144.437 4.59C144.737 4.45 144.967 4.34 145.127 4.26C145.247 4.2 145.417 4.14 145.637 4.08C145.877 4.02 146.067 3.91 146.207 3.75C146.467 3.65 146.727 3.6 146.987 3.6C147.367 3.6 147.697 3.69 147.977 3.87C148.277 4.05 148.427 4.26 148.427 4.5C148.427 5.36 148.407 6.71 148.367 8.55L148.277 12.81L148.247 14.49L148.277 16.17C148.317 17.09 148.397 18.39 148.517 20.07L148.637 22.02C148.657 22.2 148.687 22.4 148.727 22.62C148.767 22.84 148.787 23.02 148.787 23.16C148.787 23.7 148.507 23.97 147.947 23.97C147.707 23.97 147.487 23.91 147.287 23.79C147.107 23.67 147.007 23.5 146.987 23.28C146.927 22.82 146.897 22.35 146.897 21.87L146.807 14.4C146.107 14.52 145.587 14.65 145.247 14.79C144.907 14.93 144.657 15.12 144.497 15.36C144.357 15.58 144.247 15.9 144.167 16.32C144.107 16.58 144.077 16.97 144.077 17.49C144.077 17.75 144.097 18.12 144.137 18.6L144.167 19.74C144.167 20.6 144.117 21.33 144.017 21.93C143.917 22.51 143.697 23.06 143.357 23.58C143.197 23.84 142.977 24.03 142.697 24.15C142.417 24.27 142.147 24.31 141.887 24.27ZM144.857 13.5C144.937 13.52 145.067 13.53 145.247 13.53C145.667 13.53 146.207 13.44 146.867 13.26C146.867 12.74 146.847 11.94 146.807 10.86C146.747 9.84 146.717 8.83 146.717 7.83C146.717 6.99 146.747 6.14 146.807 5.28C146.267 5.36 145.787 5.5 145.367 5.7C144.947 5.9 144.667 6.12 144.527 6.36C144.007 7.34 143.737 8.3 143.717 9.24C143.717 10.3 143.737 11.08 143.777 11.58C143.797 12.02 143.897 12.43 144.077 12.81C144.257 13.19 144.517 13.42 144.857 13.5Z" fill="#00323D"/>
</svg>
