<svg width="33" height="33" viewBox="0 0 33 33" fill="none" xmlns="http://www.w3.org/2000/svg">
<circle cx="16.5" cy="16.5" r="12.375" fill="white"/>
<path d="M16.5 0C7.40215 0 0 7.40152 0 16.5C0 25.5985 7.40215 33 16.5 33C25.5978 33 33 25.5985 33 16.5C33 7.40152 25.5978 0 16.5 0ZM25.6987 10.9972L15.5449 22.4203C15.2949 22.7015 14.9465 22.8462 14.5955 22.8462C14.3169 22.8462 14.0371 22.7548 13.8029 22.5682L7.45673 17.4913C6.90969 17.054 6.82085 16.255 7.25873 15.7074C7.69598 15.1597 8.4956 15.0708 9.04263 15.5087L14.4477 19.8324L23.8013 9.30981C24.2658 8.78561 25.0692 8.73865 25.5928 9.20446C26.117 9.6709 26.1646 10.4731 25.6987 10.9972Z" fill="#77E2C3"/>
</svg>
