<svg width="1314" height="922" viewBox="0 0 1314 922" fill="none" xmlns="http://www.w3.org/2000/svg">
<g filter="url(#filter0_f_929_388)">
<ellipse cx="656.965" cy="492.496" rx="426.973" ry="262.55" fill="#008C95" fill-opacity="0.24"/>
</g>
<path d="M871.495 84.1577L840.988 64.3242L821.259 94.9908L851.765 114.824L871.495 84.1577Z" fill="#77E2C3"/>
<path d="M871.62 84.1792L856.372 87.4673C855.828 84.9387 854.331 82.6132 851.998 81.096C847.333 78.0633 841.102 79.407 838.085 84.0962C836.576 86.4421 836.158 89.1826 836.695 91.7105L821.448 94.9985L841.151 64.3737L871.615 84.1801L871.62 84.1792Z" fill="#008C95"/>
<path d="M856.378 87.4615C855.833 84.9329 854.337 82.6075 852.003 81.0903C847.338 78.0576 841.108 79.4013 838.091 84.0905C836.581 86.4364 836.165 89.1743 836.701 91.7048C837.242 94.2317 838.742 96.5588 841.075 98.076C845.74 101.109 851.971 99.765 854.988 95.0758C856.497 92.7299 856.915 89.9894 856.378 87.4615Z" fill="#00313C"/>
<g filter="url(#filter1_f_929_388)">
<path d="M402.384 73.3163L380.805 88.2969L395.707 109.989L417.286 95.0089L402.384 73.3163Z" fill="#77E2C3"/>
<path d="M391.635 80.824L388.301 99.1371L406.444 102.475L409.778 84.1619L391.635 80.824ZM394.792 85.4197L405.206 87.3357L403.287 97.8793L392.873 95.9633L394.792 85.4197Z" fill="#008C95"/>
</g>
<g filter="url(#filter2_f_929_388)">
<path d="M1016.63 310.266L995.047 325.246L1009.95 346.939L1031.53 331.958L1016.63 310.266Z" fill="#77E2C3"/>
<path d="M1005.88 317.773L1002.54 336.086L1020.69 339.424L1024.02 321.111L1005.88 317.773ZM1009.03 322.369L1019.45 324.285L1017.53 334.829L1007.11 332.913L1009.03 322.369Z" fill="#008C95"/>
</g>
<g filter="url(#filter3_f_929_388)">
<path d="M980.718 400.624L888.18 470.703L957.892 563.728L1050.43 493.649L980.718 400.624Z" fill="#008C95"/>
<path d="M944.053 448.612C925.599 462.587 921.908 488.959 935.81 507.51C949.712 526.061 975.946 529.771 994.4 515.795C1012.85 501.82 1016.54 475.449 1002.64 456.898C988.74 438.347 962.507 434.637 944.053 448.612ZM956.583 465.333C965.838 458.324 979.037 460.191 986.009 469.494C992.981 478.798 991.124 492.066 981.869 499.075C972.615 506.083 959.415 504.217 952.443 494.913C945.471 485.61 947.328 472.341 956.583 465.333Z" fill="#00313C"/>
</g>
<g filter="url(#filter4_f_929_388)">
<path d="M314.35 69.5231L284.145 53.2344L267.941 83.5988L298.147 99.8875L314.35 69.5231Z" fill="#00313C"/>
<path d="M291.289 76.6683L268.023 83.6446L298.19 99.9125L291.289 76.6683Z" fill="#008C95"/>
<path d="M299.379 61.5042L276.112 68.4831L306.279 84.7511L299.379 61.5042Z" fill="#008C95"/>
</g>
<path d="M402.736 165.686L346.848 202.32L383.29 258.503L439.179 221.868L402.736 165.686Z" fill="#008C95"/>
<path d="M384.04 217.883C387.246 222.827 393.83 224.221 398.748 220.997C403.666 217.774 405.052 211.156 401.846 206.212C398.639 201.268 392.055 199.874 387.137 203.098C382.219 206.322 380.833 212.939 384.04 217.883Z" fill="#77E2C3"/>
<path d="M381.96 195.131C372.676 201.216 370.049 213.756 376.102 223.089C382.156 232.421 394.63 235.062 403.914 228.977C413.198 222.892 415.821 210.355 409.767 201.022C403.713 191.689 391.239 189.048 381.96 195.131ZM408.279 235.706C395.305 244.21 377.868 240.518 369.408 227.476C360.949 214.435 364.621 196.906 377.595 188.402C390.569 179.898 408.006 183.589 416.466 196.631C424.925 209.673 421.253 227.202 408.279 235.706Z" fill="#77E2C3"/>
<g filter="url(#filter5_f_929_388)">
<path d="M301.535 358.458L261.949 384.406L287.761 424.2L327.347 398.252L301.535 358.458Z" fill="#008C95"/>
<path d="M288.299 395.433C290.571 398.935 295.234 399.922 298.717 397.638C302.201 395.355 303.183 390.668 300.911 387.166C298.64 383.664 293.977 382.677 290.493 384.96C287.01 387.244 286.028 391.931 288.299 395.433Z" fill="#77E2C3"/>
<path d="M286.823 379.315C280.247 383.625 278.387 392.507 282.674 399.118C286.962 405.728 295.798 407.599 302.373 403.288C308.949 398.978 310.807 390.098 306.519 383.488C302.231 376.878 293.396 375.007 286.823 379.315ZM305.465 408.054C296.276 414.078 283.925 411.463 277.933 402.225C271.941 392.988 274.542 380.572 283.732 374.549C292.921 368.526 305.272 371.14 311.264 380.378C317.255 389.615 314.654 402.031 305.465 408.054Z" fill="#77E2C3"/>
</g>
<path d="M936.552 203.84H893.176V247.444H936.552V203.84Z" fill="#77E2C3"/>
<path d="M922.979 217.861C918.771 216.725 914.093 217.824 910.789 221.145C907.486 224.466 906.392 229.164 907.523 233.399C905.45 232.845 903.492 231.753 901.862 230.115C896.937 225.164 896.937 217.13 901.862 212.174C906.795 207.223 914.784 207.223 919.713 212.174C921.342 213.813 922.429 215.781 922.979 217.865" fill="#00313C"/>
<path d="M919.715 230.117C916.412 233.438 911.734 234.537 907.525 233.401C906.394 229.17 907.488 224.468 910.791 221.147C914.095 217.826 918.773 216.727 922.981 217.863C924.112 222.094 923.018 226.797 919.715 230.117Z" fill="#008C95"/>
<path d="M928.637 239.088C923.704 244.039 915.715 244.039 910.786 239.088C909.156 237.449 908.07 235.481 907.52 233.397C911.728 234.534 916.406 233.434 919.709 230.113C923.013 226.793 924.107 222.094 922.976 217.859C925.049 218.413 927.007 219.505 928.637 221.143C933.562 226.094 933.562 234.129 928.637 239.084" fill="#00313C"/>
<g filter="url(#filter6_f_929_388)">
<path d="M1014.24 86.9782L978.676 61.2695L953.102 97.018L988.663 122.727L1014.24 86.9782Z" fill="#77E2C3"/>
<path d="M953.288 97.1131C960.34 87.2556 974.008 85.0083 983.817 92.0996C993.626 99.1909 995.858 112.928 988.804 122.789L953.291 97.1153L953.288 97.1131Z" fill="#00313C"/>
<path d="M966.057 79.2655C973.109 69.4079 986.777 67.1607 996.586 74.252C1006.4 81.3433 1008.63 95.0807 1001.57 104.941L966.06 79.2677L966.057 79.2655Z" fill="#00313C"/>
</g>
<defs>
<filter id="filter0_f_929_388" x="0.593613" y="0.546738" width="1312.74" height="983.899" filterUnits="userSpaceOnUse" color-interpolation-filters="sRGB">
<feFlood flood-opacity="0" result="BackgroundImageFix"/>
<feBlend mode="normal" in="SourceGraphic" in2="BackgroundImageFix" result="shape"/>
<feGaussianBlur stdDeviation="114.699" result="effect1_foregroundBlur_929_388"/>
</filter>
<filter id="filter1_f_929_388" x="360.805" y="53.3164" width="76.4805" height="76.6719" filterUnits="userSpaceOnUse" color-interpolation-filters="sRGB">
<feFlood flood-opacity="0" result="BackgroundImageFix"/>
<feBlend mode="normal" in="SourceGraphic" in2="BackgroundImageFix" result="shape"/>
<feGaussianBlur stdDeviation="10" result="effect1_foregroundBlur_929_388"/>
</filter>
<filter id="filter2_f_929_388" x="975.047" y="290.266" width="76.4805" height="76.6719" filterUnits="userSpaceOnUse" color-interpolation-filters="sRGB">
<feFlood flood-opacity="0" result="BackgroundImageFix"/>
<feBlend mode="normal" in="SourceGraphic" in2="BackgroundImageFix" result="shape"/>
<feGaussianBlur stdDeviation="10" result="effect1_foregroundBlur_929_388"/>
</filter>
<filter id="filter3_f_929_388" x="868.18" y="380.625" width="202.25" height="203.102" filterUnits="userSpaceOnUse" color-interpolation-filters="sRGB">
<feFlood flood-opacity="0" result="BackgroundImageFix"/>
<feBlend mode="normal" in="SourceGraphic" in2="BackgroundImageFix" result="shape"/>
<feGaussianBlur stdDeviation="10" result="effect1_foregroundBlur_929_388"/>
</filter>
<filter id="filter4_f_929_388" x="247.941" y="33.2344" width="86.4082" height="86.6797" filterUnits="userSpaceOnUse" color-interpolation-filters="sRGB">
<feFlood flood-opacity="0" result="BackgroundImageFix"/>
<feBlend mode="normal" in="SourceGraphic" in2="BackgroundImageFix" result="shape"/>
<feGaussianBlur stdDeviation="10" result="effect1_foregroundBlur_929_388"/>
</filter>
<filter id="filter5_f_929_388" x="241.949" y="338.457" width="105.398" height="105.742" filterUnits="userSpaceOnUse" color-interpolation-filters="sRGB">
<feFlood flood-opacity="0" result="BackgroundImageFix"/>
<feBlend mode="normal" in="SourceGraphic" in2="BackgroundImageFix" result="shape"/>
<feGaussianBlur stdDeviation="10" result="effect1_foregroundBlur_929_388"/>
</filter>
<filter id="filter6_f_929_388" x="933.102" y="41.2695" width="101.137" height="101.52" filterUnits="userSpaceOnUse" color-interpolation-filters="sRGB">
<feFlood flood-opacity="0" result="BackgroundImageFix"/>
<feBlend mode="normal" in="SourceGraphic" in2="BackgroundImageFix" result="shape"/>
<feGaussianBlur stdDeviation="10" result="effect1_foregroundBlur_929_388"/>
</filter>
</defs>
</svg>
