<svg width="491" height="246" viewBox="0 0 491 246" fill="none" xmlns="http://www.w3.org/2000/svg">
<path d="M245.5 0.000488281H0V245.489H245.5V0.000488281Z" fill="#008291"/>
<path d="M76.8037 166.536C88.9133 169.778 101.663 169.776 113.772 166.53C125.88 163.285 136.921 156.91 145.786 148.046C154.65 139.182 161.025 128.141 164.271 116.033C167.517 103.925 167.519 91.1759 164.277 79.0669C176.404 82.2865 187.459 88.667 196.313 97.5567C224.2 125.443 224.2 170.66 196.313 198.574C168.398 226.46 123.177 226.46 95.2909 198.574C86.4019 189.719 80.0223 178.663 76.8037 166.536Z" fill="white"/>
<path d="M95.2961 97.5535C104.152 88.6752 115.194 82.2905 127.307 79.0441C139.42 75.7977 152.174 75.8044 164.284 79.0637C167.525 91.1727 167.523 103.922 164.277 116.029C161.031 128.137 154.656 139.177 145.791 148.041C136.927 156.905 125.886 163.28 113.778 166.526C101.67 169.772 88.9202 169.774 76.8107 166.533C73.5514 154.424 73.5448 141.67 76.7913 129.558C80.0379 117.446 86.4228 106.405 95.3013 97.55" fill="#9CD1C2"/>
<path d="M44.7685 47.0309C72.6837 19.1447 117.905 19.1447 145.789 47.0309C154.68 55.8836 161.061 66.9376 164.281 79.0636C152.172 75.8223 139.422 75.8247 127.314 79.0706C115.205 82.3165 104.165 88.6915 95.3004 97.5553C86.4362 106.419 80.0608 117.46 76.8148 129.567C73.5688 141.675 73.5664 154.424 76.8079 166.533C64.6773 163.316 53.6188 156.935 44.7633 148.043C16.8758 120.157 16.8758 74.9413 44.7633 47.0274" fill="#00323D"/>
<path d="M491 0H245.5V245.489H491V0Z" fill="#9CD1C2"/>
<path d="M446.943 245.49L245.5 33.2332V6.36377L472.442 245.49H446.943Z" fill="white"/>
<path d="M396.025 245.49L245.5 86.8834V60.0156L421.524 245.49H396.025Z" fill="white"/>
<path d="M345.107 245.49L245.5 140.535V113.667L370.606 245.49H345.107Z" fill="white"/>
<path d="M294.189 245.49L245.5 194.188V167.319L319.688 245.49H294.189Z" fill="white"/>
<path d="M245.5 245.491V220.972L268.77 245.491H245.5Z" fill="white"/>
<path d="M491 0V24.7391L467.522 0H491Z" fill="white"/>
<path d="M442.103 0L491 51.5219V78.3914L416.604 0H442.103Z" fill="white"/>
<path d="M391.183 0L490.998 105.174V132.042L365.685 0H391.183Z" fill="white"/>
<path d="M340.267 0L491 158.827V185.694L314.767 0H340.267Z" fill="white"/>
<path d="M289.346 0L490.997 212.477V239.347L263.846 0H289.346Z" fill="white"/>
</svg>
