<svg viewBox="0 0 27 27" fill="none" xmlns="http://www.w3.org/2000/svg">
<path d="M26.1163 24.2678L19.6723 17.8238C22.9123 13.6118 22.5883 7.52781 18.7003 3.67581C16.5763 1.55181 13.8403 0.507812 11.0683 0.507812C8.29634 0.507812 5.56034 1.55181 3.43634 3.67581C-0.775656 7.88781 -0.775656 14.7278 3.43634 18.9398C5.56034 21.0638 8.29634 22.1078 11.0683 22.1078C13.3723 22.1078 15.6763 21.3878 17.5843 19.9118L24.0643 26.3198C24.3523 26.6078 24.7123 26.7518 25.1083 26.7518C25.4683 26.7518 25.8643 26.6078 26.1523 26.3198C26.6923 25.7798 26.6923 24.8438 26.1163 24.2678ZM11.1043 19.1918C8.98034 19.1918 7.03634 18.3638 5.52434 16.8878C2.46434 13.8278 2.46434 8.82381 5.52434 5.72781C7.00034 4.25181 8.98034 3.42381 11.1043 3.42381C13.2283 3.42381 15.1723 4.25181 16.6843 5.72781C18.1963 7.20381 18.9883 9.18381 18.9883 11.3078C18.9883 13.4318 18.1603 15.3758 16.6843 16.8878C15.2083 18.3998 13.1923 19.1918 11.1043 19.1918Z" fill="white"/>
</svg>
