<svg viewBox="0 0 45 36" fill="none" xmlns="http://www.w3.org/2000/svg">
<path d="M24.8313 8.5768V0H0V18.869H3.96308V25.6713L11.3332 18.869H19.8272V8.5768H24.8313Z" fill="#77E2C3"/>
<path d="M24.8283 8.5752V18.8674H19.8242V27.6807H33.9375L40.3612 35.1219V27.6807H44.3953V8.5752H24.8283Z" fill="#77E2C3"/>
<path d="M24.8283 8.5752H19.8242V18.8791H24.8283V8.5752Z" fill="#008C95"/>
<path d="M7.65545 9.87762C7.65545 10.824 6.88649 11.6048 5.94009 11.6048C4.99368 11.6048 4.21289 10.8359 4.21289 9.87762C4.21289 8.93121 4.98185 8.16224 5.94009 8.16224C6.87466 8.15041 7.65545 8.93121 7.65545 9.87762Z" fill="white"/>
<path d="M13.0479 9.87748C13.0479 10.8239 12.2789 11.6047 11.3325 11.6047C10.3861 11.6047 9.61719 10.8357 9.61719 9.87748C9.61719 8.93108 10.3861 8.16211 11.3325 8.16211C12.2789 8.16211 13.0479 8.93108 13.0479 9.87748Z" fill="white"/>
<path d="M18.3703 9.87748C18.3703 10.8239 17.6013 11.6047 16.6549 11.6047C15.7085 11.6047 14.9277 10.8357 14.9277 9.87748C14.9277 8.93108 15.6967 8.16211 16.6549 8.16211C17.6132 8.16211 18.3703 8.93108 18.3703 9.87748Z" fill="white"/>
<path d="M28.9015 18.5269C28.9015 19.4733 28.1326 20.2541 27.1862 20.2541C26.2398 20.2541 25.459 19.4851 25.459 18.5269C25.459 17.5805 26.228 16.8115 27.1862 16.8115C28.1444 16.8115 28.9015 17.5687 28.9015 18.5269Z" fill="white"/>
<path d="M34.3078 18.527C34.3078 19.4734 33.5388 20.2542 32.5806 20.2542C31.6342 20.2542 30.8652 19.4853 30.8652 18.527C30.8652 17.5806 31.6342 16.8117 32.5806 16.8117C33.527 16.7998 34.3078 17.5688 34.3078 18.527Z" fill="white"/>
<path d="M39.6319 18.527C39.6319 19.4734 38.8629 20.2542 37.9165 20.2542C36.9701 20.2542 36.2012 19.4853 36.2012 18.527C36.2012 17.5806 36.9701 16.8117 37.9165 16.8117C38.8511 16.7998 39.6319 17.5688 39.6319 18.527Z" fill="white"/>
</svg>
