<svg width="1313" height="638" viewBox="0 0 1313 638" fill="none" xmlns="http://www.w3.org/2000/svg">
<g clip-path="url(#clip0_432_565)">
<path d="M286.289 0.200195H45.1992V341.16H286.289V0.200195Z" fill="white"/>
<path d="M286.289 0.200195H45.1992V341.16H286.289V0.200195Z" stroke="black" stroke-width="0.41" stroke-miterlimit="10"/>
<path d="M653.081 241.29H615.191V201.11H653.081V241.29ZM653.081 201.11H615.191V160.93H653.081V201.11ZM653.081 160.93H615.191V120.75H653.081V160.93ZM615.191 241.29H577.311V201.11H615.191V241.29ZM615.191 201.11H577.311V160.93H615.191V201.11ZM615.191 160.93H577.311V120.75H615.191V160.93ZM577.301 241.29H539.411V201.11H577.301V241.29ZM577.301 201.11H539.411V160.93H577.301V201.11ZM577.301 160.93H539.411V120.75H577.301V160.93ZM653.071 120.75H615.181V80.5702H653.071V120.75ZM653.071 80.5702H615.181V40.3802H653.071V80.5602V80.5702ZM653.071 40.3902H615.181V0.200195H653.071V40.3802V40.3902ZM615.181 120.75H577.301V80.5702H615.181V120.75ZM615.181 80.5702H577.301V40.3802H615.181V80.5602V80.5702ZM615.181 40.3902H577.301V0.200195H615.181V40.3802V40.3902ZM577.291 120.75H539.401V80.5702H577.291V120.75ZM577.291 80.5702H539.401V40.3802H577.291V80.5602V80.5702ZM577.291 40.3902H539.401V0.200195H577.291V40.3802V40.3902ZM539.411 241.3H501.521V201.12H539.411V241.3ZM539.411 201.12H501.521V160.94H539.411V201.12ZM539.411 160.94H501.521V120.76H539.411V160.94ZM501.521 241.3H463.631V201.12H501.521V241.3ZM501.521 201.12H463.631V160.94H501.521V201.12ZM501.521 160.94H463.631V120.76H501.521V160.94ZM463.631 241.3H425.741V201.12H463.631V241.3ZM463.631 201.12H425.741V160.94H463.631V201.12ZM463.631 160.94H425.741V120.76H463.631V160.94ZM539.401 120.76H501.511V80.5802H539.401V120.76ZM539.401 80.5802H501.511V40.3802H539.401V80.5602V80.5802ZM539.401 40.4002H501.511V0.200195H539.401V40.3802V40.4002ZM501.511 120.76H463.621V80.5802H501.511V120.76ZM501.511 80.5802H463.621V40.3802H501.511V80.5602V80.5802ZM501.511 40.4002H463.621V0.200195H501.511V40.3802V40.4002ZM463.621 120.76H425.731V80.5802H463.621V120.76ZM463.621 80.5802H425.731V40.3802H463.621V80.5602V80.5802ZM463.621 40.4002H425.731V0.200195H463.621V40.3802V40.4002ZM425.731 241.31H387.841V201.13H425.731V241.31ZM425.731 201.13H387.841V160.95H425.731V201.13ZM425.731 160.95H387.841V120.77H425.731V160.95ZM387.841 241.31H349.951V201.13H387.841V241.31ZM387.841 201.13H349.951V160.95H387.841V201.13ZM387.841 160.95H349.951V120.77H387.841V160.95ZM349.951 241.31H312.061V201.13H349.951V241.31ZM349.951 201.13H312.061V160.95H349.951V201.13ZM349.951 160.95H312.061V120.77H349.951V160.95ZM425.721 120.77H387.831V80.5902H425.721V120.77ZM425.721 80.5902H387.831V40.3802H425.721V80.5602V80.5902ZM425.721 40.4102H387.831V0.200195H425.721V40.3802V40.4102ZM387.831 120.77H349.941V80.5902H387.831V120.77ZM387.831 80.5902H349.941V40.3802H387.831V80.5602V80.5902ZM387.831 40.4102H349.941V0.200195H387.831V40.3802V40.4102ZM349.941 120.77H312.051V80.5902H349.941V120.77ZM349.941 80.5902H312.051V40.3802H349.941V80.5602V80.5902ZM349.941 40.4102H312.051V0.200195H349.941V40.3802V40.4102Z" stroke="black" stroke-width="0.41" stroke-miterlimit="10"/>
<path d="M641.03 12.6201H324.17V229.24H641.03V12.6201Z" stroke="#E5007D" stroke-width="1.22" stroke-miterlimit="10"/>
<path d="M849.46 172.41H840.85V163.8H849.46V172.41V172.41ZM685.87 8.8102H677.26V0.200195H685.87V8.8102Z" stroke="black" stroke-width="0.41" stroke-miterlimit="10"/>
<path d="M840.851 8.80957H685.871V163.79H840.851V8.80957Z" stroke="#E5007D" stroke-width="1.22" stroke-miterlimit="10"/>
<path d="M849.459 172.41H820.759V143.71H849.459V172.41ZM820.759 172.41H792.059V143.71H820.759V172.41ZM792.059 172.41H763.359V143.71H792.059V172.41ZM849.459 143.71H820.759V115.01H849.459V143.71ZM820.759 143.71H792.059V115.01H820.759V143.71ZM792.059 143.71H763.359V115.01H792.059V143.71ZM849.459 115.01H820.759V86.3102H849.459V115.01ZM820.759 115.01H792.059V86.3102H820.759V115.01ZM792.059 115.01H763.359V86.3102H792.059V115.01ZM763.359 172.41H734.659V143.71H763.359V172.41ZM734.659 172.41H705.959V143.71H734.659V172.41ZM705.959 172.41H677.259V143.71H705.959V172.41ZM763.359 143.71H734.659V115.01H763.359V143.71ZM734.659 143.71H705.959V115.01H734.659V143.71ZM705.959 143.71H677.259V115.01H705.959V143.71ZM763.359 115.01H734.659V86.3102H763.359V115.01ZM734.659 115.01H705.959V86.3102H734.659V115.01ZM705.959 115.01H677.259V86.3102H705.959V115.01ZM849.469 86.3102H820.769V57.6102H849.469V86.3102ZM820.769 86.3102H792.069V57.6102H820.769V86.3102ZM792.069 86.3102H763.369V57.6102H792.069V86.3102ZM849.469 57.6102H820.769V28.9002H849.469V57.6002V57.6102ZM820.769 57.6102H792.069V28.9002H820.769V57.6002V57.6102ZM792.069 57.6102H763.369V28.9002H792.069V57.6002V57.6102ZM849.469 28.9102H820.769V0.200195H849.469V28.9002V28.9102ZM820.769 28.9102H792.069V0.200195H820.769V28.9002V28.9102ZM792.069 28.9102H763.369V0.200195H792.069V28.9002V28.9102ZM763.369 86.3102H734.669V57.6102H763.369V86.3102ZM734.669 86.3102H705.969V57.6102H734.669V86.3102ZM705.969 86.3102H677.269V57.6102H705.969V86.3102ZM763.369 57.6102H734.669V28.9002H763.369V57.6002V57.6102ZM734.669 57.6102H705.969V28.9002H734.669V57.6002V57.6102ZM705.969 57.6102H677.269V28.9002H705.969V57.6002V57.6102ZM763.369 28.9102H734.669V0.200195H763.369V28.9002V28.9102ZM734.669 28.9102H705.969V0.200195H734.669V28.9002V28.9102ZM705.969 28.9102H677.269V0.200195H705.969V28.9002V28.9102ZM45.1992 303.28H85.3792V341.17H45.1992V303.28ZM85.3792 303.28H125.559V341.17H85.3792V303.28ZM125.559 303.28H165.739V341.17H125.559V303.28ZM45.1992 265.4H85.3792V303.29H45.1992V265.4ZM85.3792 265.4H125.559V303.29H85.3792V265.4ZM125.559 265.4H165.739V303.29H125.559V265.4ZM45.1992 227.51H85.3792V265.4H45.1992V227.51ZM85.3792 227.51H125.559V265.4H85.3792V227.51ZM125.559 227.51H165.739V265.4H125.559V227.51ZM165.739 303.28H205.919V341.17H165.739V303.28ZM205.919 303.28H246.099V341.17H205.919V303.28ZM246.099 303.28H286.279V341.17H246.099V303.28ZM165.739 265.4H205.919V303.29H165.739V265.4ZM205.919 265.4H246.099V303.29H205.919V265.4ZM246.099 265.4H286.279V303.29H246.099V265.4ZM165.739 227.51H205.919V265.4H165.739V227.51ZM205.919 227.51H246.099V265.4H205.919V227.51ZM246.099 227.51H286.279V265.4H246.099V227.51ZM45.1992 189.63H85.3792V227.52H45.1992V189.63ZM85.3792 189.63H125.559V227.52H85.3792V189.63ZM125.559 189.63H165.739V227.52H125.559V189.63ZM45.1992 151.74H85.3792V189.63H45.1992V151.74ZM85.3792 151.74H125.559V189.63H85.3792V151.74ZM125.559 151.74H165.739V189.63H125.559V151.74ZM45.1992 113.86H85.3792V151.75H45.1992V113.86ZM85.3792 113.86H125.559V151.75H85.3792V113.86ZM125.559 113.86H165.739V151.75H125.559V113.86ZM165.739 189.63H205.919V227.52H165.739V189.63ZM205.919 189.63H246.099V227.52H205.919V189.63ZM246.099 189.63H286.279V227.52H246.099V189.63ZM165.739 151.74H205.919V189.63H165.739V151.74ZM205.919 151.74H246.099V189.63H205.919V151.74ZM246.099 151.74H286.279V189.63H246.099V151.74ZM165.739 113.85H205.919V151.74H165.739V113.85ZM205.919 113.85H246.099V151.74H205.919V113.85ZM246.099 113.85H286.279V151.74H246.099V113.85ZM45.1992 75.9702H85.3792V113.86H45.1992V75.9702ZM85.3792 75.9702H125.559V113.86H85.3792V75.9702ZM125.559 75.9702H165.739V113.86H125.559V75.9702ZM45.1992 38.0902H85.3792V75.9802H45.1992V38.0902ZM85.3792 38.0902H125.559V75.9802H85.3792V38.0902ZM125.559 38.0902H165.739V75.9802H125.559V38.0902ZM45.1992 0.200195H85.3792V38.0902H45.1992V0.200195ZM85.3792 0.200195H125.559V38.0902H85.3792V0.200195ZM125.559 0.200195H165.739V38.0902H125.559V0.200195ZM165.739 75.9702H205.919V113.86H165.739V75.9702ZM205.919 75.9702H246.099V113.86H205.919V75.9702ZM246.099 75.9702H286.279V113.86H246.099V75.9702ZM165.739 38.0802H205.919V75.9702H165.739V38.0902V38.0802ZM205.919 38.0802H246.099V75.9702H205.919V38.0902V38.0802ZM246.099 38.0802H286.279V75.9702H246.099V38.0902V38.0802ZM165.749 0.200195H205.929V38.0902H165.749V0.200195ZM205.929 0.200195H246.109V38.0902H205.929V0.200195ZM246.109 0.200195H286.289V38.0902H246.109V0.200195Z" stroke="black" stroke-width="0.41" stroke-miterlimit="10"/>
<path d="M273.88 12.2598H57.2598V329.12H273.88V12.2598Z" stroke="#E5007D" stroke-width="1.22" stroke-miterlimit="10"/>
<path d="M1312.73 437.23H1239.89V364.39H1312.73V437.23ZM1312.73 364.39H1239.89V291.55H1312.73V364.39ZM1312.73 291.55H1239.89V218.71H1312.73V291.55ZM1239.89 437.23H1167.05V364.39H1239.89V437.23V437.23ZM1239.89 364.39H1167.05V291.55H1239.89V364.39ZM1239.89 291.55H1167.05V218.71H1239.89V291.55ZM1167.05 437.23H1094.21V364.39H1167.05V437.23V437.23ZM1167.05 364.39H1094.21V291.55H1167.05V364.39ZM1167.05 291.55H1094.21V218.71H1167.05V291.55ZM1094.21 437.23H1021.37V364.39H1094.21V437.23V437.23ZM1094.21 364.39H1021.37V291.55H1094.21V364.39ZM1094.21 291.55H1021.37V218.71H1094.21V291.55ZM1021.37 437.23H948.53V364.39H1021.37V437.23V437.23ZM1021.37 364.39H948.53V291.55H1021.37V364.39ZM1021.37 291.55H948.53V218.71H1021.37V291.55ZM948.53 437.23H875.69V364.39H948.53V437.23V437.23ZM948.53 364.39H875.69V291.55H948.53V364.39ZM948.53 291.55H875.69V218.71H948.53V291.55ZM1312.72 218.71H1239.88V145.87H1312.72V218.71ZM1312.72 145.87H1239.88V73.0402H1312.72V145.88V145.87ZM1312.72 73.0302H1239.88V0.200195H1312.72V73.0402V73.0302ZM1239.88 218.71H1167.04V145.87H1239.88V218.71ZM1239.88 145.87H1167.04V73.0402H1239.88V145.88V145.87ZM1239.88 73.0302H1167.04V0.200195H1239.88V73.0402V73.0302ZM1167.04 218.71H1094.2V145.87H1167.04V218.71ZM1167.04 145.87H1094.2V73.0402H1167.04V145.88V145.87ZM1167.04 73.0302H1094.2V0.200195H1167.04V73.0402V73.0302ZM1094.2 218.71H1021.36V145.87H1094.2V218.71ZM1094.2 145.87H1021.36V73.0402H1094.2V145.88V145.87ZM1094.2 73.0302H1021.36V0.200195H1094.2V73.0402V73.0302ZM1021.36 218.71H948.52V145.87H1021.36V218.71ZM1021.36 145.87H948.52V73.0402H1021.36V145.88V145.87ZM1021.36 73.0302H948.52V0.200195H1021.36V73.0402V73.0302ZM948.52 218.71H875.68V145.87H948.52V218.71ZM948.52 145.87H875.68V73.0402H948.52V145.88V145.87ZM948.52 73.0302H875.68V0.200195H948.52V73.0402V73.0302Z" stroke="black" stroke-width="0.41" stroke-miterlimit="10"/>
<path d="M1291.29 22.0098H897.51V415.78H1291.29V22.0098Z" stroke="#E5007D" stroke-width="1.22" stroke-miterlimit="10"/>
<path d="M1075.46 509.51H45.0801V637.23H1075.46V509.51Z" fill="white"/>
<path d="M1075.46 552.08H1032.53V509.51H1075.46V552.08ZM1075.46 594.65H1032.53V552.08H1075.46V594.65ZM1075.46 637.22H1032.53V594.65H1075.46V637.22ZM1032.53 552.07H989.6V509.5H1032.53V552.07ZM1032.53 594.64H989.6V552.07H1032.53V594.64ZM1032.53 637.21H989.6V594.64H1032.53V637.21ZM989.6 552.06H946.67V509.49H989.6V552.06ZM989.6 594.63H946.67V552.06H989.6V594.63ZM989.6 637.2H946.67V594.63H989.6V637.2ZM946.67 552.05H903.74V509.48H946.67V552.05ZM946.67 594.62H903.74V552.05H946.67V594.62ZM946.67 637.19H903.74V594.62H946.67V637.19ZM903.74 552.04H860.81V509.47H903.74V552.04ZM903.74 594.61H860.81V552.04H903.74V594.61ZM903.74 637.18H860.81V594.61H903.74V637.18ZM860.81 552.03H817.88V509.46H860.81V552.03ZM860.81 594.6H817.88V552.03H860.81V594.6ZM860.81 637.17H817.88V594.6H860.81V637.17ZM817.88 552.02H774.95V509.45H817.88V552.02ZM817.88 594.59H774.95V552.02H817.88V594.59ZM817.88 637.16H774.95V594.59H817.88V637.16ZM774.95 552.01H732.02V509.44H774.95V552.01ZM774.95 594.58H732.02V552.01H774.95V594.58ZM774.95 637.15H732.02V594.58H774.95V637.15ZM732.02 552H689.09V509.43H732.02V552ZM732.02 594.57H689.09V552H732.02V594.57ZM732.02 637.14H689.09V594.57H732.02V637.14ZM689.09 551.99H646.16V509.42H689.09V551.99ZM689.09 594.56H646.16V551.99H689.09V594.56ZM689.09 637.13H646.16V594.56H689.09V637.13ZM646.16 551.98H603.23V509.41H646.16V551.98ZM646.16 594.55H603.23V551.98H646.16V594.55ZM646.16 637.12H603.23V594.55H646.16V637.12ZM603.23 551.97H560.3V509.4H603.23V551.97ZM603.23 594.54H560.3V551.97H603.23V594.54ZM603.23 637.11H560.3V594.54H603.23V637.11ZM560.3 551.96H517.37V509.39H560.3V551.96ZM560.3 594.53H517.37V551.96H560.3V594.53ZM560.3 637.1H517.37V594.53H560.3V637.1ZM517.37 551.95H474.44V509.38H517.37V551.95ZM517.37 594.52H474.44V551.95H517.37V594.52ZM517.37 637.09H474.44V594.52H517.37V637.09ZM474.44 551.94H431.51V509.37H474.44V551.94ZM474.44 594.51H431.51V551.94H474.44V594.51ZM474.44 637.08H431.51V594.51H474.44V637.08ZM431.51 551.93H388.58V509.36H431.51V551.93ZM431.51 594.5H388.58V551.93H431.51V594.5ZM431.51 637.07H388.58V594.5H431.51V637.07ZM388.58 551.92H345.65V509.35H388.58V551.92ZM388.58 594.49H345.65V551.92H388.58V594.49ZM388.58 637.06H345.65V594.49H388.58V637.06ZM345.65 551.91H302.72V509.34H345.65V551.91ZM345.65 594.48H302.72V551.91H345.65V594.48ZM345.65 637.05H302.72V594.48H345.65V637.05ZM302.72 551.9H259.79V509.33H302.72V551.9ZM302.72 594.47H259.79V551.9H302.72V594.47ZM302.72 637.04H259.79V594.47H302.72V637.04ZM259.79 551.89H216.86V509.32H259.79V551.89ZM259.79 594.46H216.86V551.89H259.79V594.46ZM259.79 637.03H216.86V594.46H259.79V637.03ZM216.86 551.88H173.93V509.31H216.86V551.88ZM216.86 594.45H173.93V551.88H216.86V594.45ZM216.86 637.02H173.93V594.45H216.86V637.02ZM173.93 551.87H131V509.3H173.93V551.87ZM173.93 594.44H131V551.87H173.93V594.44ZM173.93 637.01H131V594.44H173.93V637.01ZM131 551.86H88.0701V509.29H131V551.86ZM131 594.43H88.0701V551.86H131V594.43ZM131 637H88.0701V594.43H131V637ZM88.0701 551.85H45.0801V509.28H88.0101V551.85H88.0701ZM88.0701 594.42H45.0801V551.85H88.0101V594.42H88.0701ZM88.0701 636.99H45.0801V594.42H88.0101V636.99H88.0701Z" stroke="black" stroke-width="0.41" stroke-miterlimit="10"/>
<path d="M1056.32 528.6H64.2188V618.09H1056.32V528.6Z" stroke="#E5007D" stroke-width="0.82" stroke-miterlimit="10"/>
<path d="M62 31.2402H0" stroke="#E5007D" stroke-width="1.22" stroke-miterlimit="10"/>
<path d="M62 12.2598H0" stroke="#E5007D" stroke-width="1.22" stroke-miterlimit="10"/>
<path d="M1.72266 18.5889L3.77344 21.8584L5.82422 18.5889H7.14258L4.44727 22.8135L7.20703 27.1201H5.87695L3.77344 23.7861L1.66992 27.1201H0.339844L3.09961 22.8135L0.404297 18.5889H1.72266Z" fill="#E6007E"/>
<path d="M75.9806 20.5499C75.9806 20.5499 76.4306 15.4199 76.4806 14.9099C76.5506 14.0999 75.9006 12.6299 74.3306 12.6299H61.3706C59.8006 12.6299 59.0406 13.6999 58.9406 14.7199C58.8806 15.3199 57.8106 27.7399 57.7406 28.4499C57.6306 29.5999 58.4206 30.8999 59.8706 30.8999H72.7606C74.4706 30.8999 75.1306 29.9999 75.2806 28.5999C75.3706 27.7699 75.7906 22.7099 75.7906 22.7099H68.0006L67.6606 26.6199H65.6906L66.5406 16.9199H68.5106L68.2006 20.5499H75.9906H75.9806Z" fill="#008C95"/>
<path d="M87.9986 14.1996C87.7186 14.9996 85.4586 22.0996 85.4586 22.0996L86.4686 12.6396H78.6886L77.0586 30.9096H82.9286C84.3986 30.9096 84.9086 30.0696 85.1486 29.3996C85.4386 28.5996 87.5986 22.6296 87.5986 22.6296L86.8086 30.9096H94.5986L96.2086 12.6396C96.2086 12.6396 90.6286 12.6396 90.0886 12.6396C88.7386 12.6396 88.2086 13.6396 88.0086 14.2096" fill="#008C95"/>
<path d="M127.461 12.6301L126.731 20.9601H124.761L125.491 12.6301H117.701C117.701 12.6301 116.951 21.4501 116.871 22.3001C116.781 23.3201 117.351 24.7601 119.081 24.7601H126.401L126.241 26.6101H116.501L116.121 30.8901H131.621C132.671 30.8901 133.681 30.2001 133.821 28.7401C133.911 27.8001 135.251 12.6201 135.251 12.6201H127.461V12.6301Z" fill="#008C95"/>
<path d="M144.22 21.4499L144.62 16.9199H146.57L146.17 21.4499H144.22ZM147.78 12.6299H137.2L135.6 30.8999H143.39L143.88 25.2499H151.45C152.79 25.2499 153.68 24.5699 153.82 22.9999C153.88 22.3899 154.49 15.4699 154.53 14.8599C154.62 13.5099 153.55 12.6399 152.21 12.6399H147.77L147.78 12.6299Z" fill="#008C95"/>
<path d="M106.69 27.0996H104.7L105.1 22.5696H107.09L106.69 27.0996ZM105.43 18.7696L105.59 16.9196H115.35L115.72 12.6396H98.1801L96.5801 30.9096H99.5001C99.5001 30.9096 111.18 30.9096 112.12 30.9096C113.06 30.9096 114.18 30.3296 114.32 28.7996C114.42 27.6496 114.9 22.2196 114.99 21.2396C115.11 19.9196 114.27 18.7796 112.63 18.7796H105.43V18.7696Z" fill="#008C95"/>
<path d="M342.06 20.7502C342.06 20.7502 342.51 15.7202 342.55 15.2202C342.62 14.4302 341.98 12.9902 340.44 12.9902H327.74C326.2 12.9902 325.45 14.0402 325.36 15.0302C325.3 15.6202 324.25 27.7902 324.18 28.4902C324.07 29.6202 324.85 30.8902 326.27 30.8902H338.9C340.58 30.8902 341.23 30.0002 341.37 28.6302C341.46 27.8102 341.87 22.8602 341.87 22.8602H334.24L333.91 26.6902H331.98L332.81 17.1802H334.74L334.43 20.7402H342.06V20.7502Z" fill="#008C95"/>
<path d="M353.839 14.53C353.569 15.31 351.349 22.27 351.349 22.27L352.339 13H344.709L343.109 30.9H348.859C350.309 30.9 350.799 30.08 351.039 29.42C351.329 28.64 353.449 22.79 353.449 22.79L352.669 30.9H360.309L361.879 13C361.879 13 356.409 13 355.889 13C354.569 13 354.049 13.98 353.849 14.53" fill="#008C95"/>
<path d="M392.509 13L391.799 21.17H389.859L390.569 13H382.939C382.939 13 382.209 21.64 382.129 22.48C382.039 23.48 382.599 24.89 384.289 24.89H391.459L391.299 26.71H381.749L381.379 30.91H396.569C397.599 30.91 398.589 30.24 398.729 28.8C398.819 27.88 400.129 13 400.129 13H392.499H392.509Z" fill="#008C95"/>
<path d="M408.95 21.64L409.34 17.2H411.25L410.86 21.64H408.95ZM412.44 13H402.07L400.5 30.9H408.13L408.61 25.36H416.02C417.33 25.36 418.2 24.69 418.34 23.16C418.39 22.56 419 15.78 419.04 15.18C419.13 13.86 418.08 13 416.77 13H412.42H412.44Z" fill="#008C95"/>
<path d="M372.16 27.1802H370.21L370.6 22.7402H372.55L372.16 27.1802ZM370.93 19.0102L371.09 17.1902H380.65L381.02 12.9902H363.82L362.25 30.8902H365.12C365.12 30.8902 376.56 30.8902 377.49 30.8902C378.42 30.8902 379.51 30.3202 379.64 28.8202C379.74 27.7002 380.21 22.3702 380.3 21.4102C380.41 20.1202 379.6 19.0002 377.99 19.0002H370.93V19.0102Z" fill="#008C95"/>
<path d="M697.22 14.6204C697.22 14.6204 697.52 11.2604 697.55 10.9304C697.6 10.4004 697.17 9.44043 696.14 9.44043H687.65C686.62 9.44043 686.12 10.1404 686.06 10.8104C686.02 11.2104 685.32 19.3404 685.28 19.8104C685.21 20.5604 685.73 21.4204 686.67 21.4204H695.11C696.23 21.4204 696.67 20.8304 696.76 19.9104C696.82 19.3604 697.09 16.0504 697.09 16.0504H691.99L691.77 18.6104H690.48L691.04 12.2604H692.33L692.13 14.6404H697.23L697.22 14.6204Z" fill="#008C95"/>
<path d="M705.09 10.4597C704.91 10.9797 703.42 15.6297 703.42 15.6297L704.08 9.42969H698.98L697.91 21.3997H701.75C702.72 21.3997 703.05 20.8497 703.21 20.4097C703.4 19.8897 704.82 15.9797 704.82 15.9797L704.3 21.3997H709.4L710.45 9.42969C710.45 9.42969 706.79 9.42969 706.44 9.42969C705.56 9.42969 705.21 10.0797 705.08 10.4597" fill="#008C95"/>
<path d="M730.951 9.44043L730.471 14.9004H729.181L729.661 9.44043H724.561C724.561 9.44043 724.071 15.2204 724.021 15.7804C723.961 16.4504 724.341 17.3904 725.471 17.3904H730.271L730.161 18.6004H723.781L723.531 21.4104H733.691C734.381 21.4104 735.041 20.9604 735.131 20.0004C735.191 19.3804 736.071 9.44043 736.071 9.44043H730.971H730.951Z" fill="#008C95"/>
<path d="M741.931 15.2204L742.191 12.2504H743.471L743.211 15.2204H741.931ZM744.261 9.44043H737.331L736.281 21.4104H741.381L741.701 17.7104H746.661C747.541 17.7104 748.121 17.2604 748.211 16.2404C748.251 15.8404 748.651 11.3104 748.681 10.9004C748.741 10.0104 748.041 9.44043 747.161 9.44043H744.251H744.261Z" fill="#008C95"/>
<path d="M717.339 18.9204H716.039L716.299 15.9504H717.599L717.339 18.9204ZM716.519 13.4604L716.629 12.2504H723.019L723.269 9.44043H711.769L710.719 21.4104H712.639C712.639 21.4104 720.289 21.4104 720.909 21.4104C721.529 21.4104 722.259 21.0304 722.349 20.0304C722.419 19.2804 722.729 15.7204 722.789 15.0704C722.869 14.2104 722.319 13.4604 721.239 13.4604H716.519Z" fill="#008C95"/>
<path d="M927.2 36.2504C927.2 36.2504 927.95 27.7304 928.03 26.8904C928.15 25.5504 927.07 23.1104 924.46 23.1104H902.95C900.35 23.1104 899.08 24.8804 898.92 26.5704C898.82 27.5704 897.04 48.1804 896.93 49.3604C896.74 51.2704 898.06 53.4304 900.46 53.4304H921.85C924.69 53.4304 925.79 51.9304 926.03 49.6104C926.17 48.2204 926.88 39.8304 926.88 39.8304H913.95L913.39 46.3104H910.12L911.53 30.2104H914.8L914.28 36.2404H927.21L927.2 36.2504Z" fill="#008C95"/>
<path d="M947.16 25.7096C946.7 27.0396 942.94 38.8196 942.94 38.8196L944.61 23.1096H931.69L928.98 53.4296H938.72C941.17 53.4296 942 52.0396 942.41 50.9296C942.9 49.5996 946.48 39.6896 946.48 39.6896L945.16 53.4196H958.091L960.76 23.0996C960.76 23.0996 951.49 23.0996 950.61 23.0996C948.37 23.0996 947.49 24.7596 947.16 25.6996" fill="#008C95"/>
<path d="M1012.65 23.1104L1011.44 36.9403H1008.16L1009.37 23.1104H996.44C996.44 23.1104 995.2 37.7504 995.07 39.1604C994.91 40.8504 995.87 43.2404 998.73 43.2404H1010.88L1010.61 46.3204H994.44L993.82 53.4304H1019.55C1021.29 53.4304 1022.97 52.2904 1023.2 49.8604C1023.35 48.3004 1025.57 23.1104 1025.57 23.1104H1012.64H1012.65Z" fill="#008C95"/>
<path d="M1040.48 37.7404L1041.14 30.2204H1044.38L1043.72 37.7404H1040.48ZM1046.39 23.1104H1028.83L1026.18 53.4304H1039.11L1039.93 44.0504H1052.49C1054.71 44.0504 1056.19 42.9204 1056.43 40.3204C1056.52 39.3104 1057.54 27.8204 1057.61 26.8004C1057.77 24.5604 1055.98 23.1104 1053.77 23.1104H1046.39Z" fill="#008C95"/>
<path d="M978.18 47.1203H974.88L975.54 39.6003H978.84L978.18 47.1203ZM976.09 33.2904L976.36 30.2204H992.56L993.18 23.1104H964.06L961.41 53.4304H966.27C966.27 53.4304 985.65 53.4304 987.22 53.4304C988.79 53.4304 990.64 52.4604 990.87 49.9203C991.04 48.0203 991.84 39.0003 991.99 37.3703C992.18 35.1803 990.79 33.2904 988.07 33.2904H976.11H976.09Z" fill="#008C95"/>
<path d="M85.0991 537.46C85.0991 537.46 85.6091 531.73 85.6491 531.17C85.7291 530.27 84.9991 528.63 83.2491 528.63H68.7991C67.0491 528.63 66.1991 529.82 66.0891 530.95C66.0191 531.62 64.8291 545.47 64.7491 546.26C64.6291 547.54 65.5091 549 67.1191 549H81.4891C83.3991 549 84.1391 547.99 84.2991 546.43C84.3991 545.5 84.8691 539.86 84.8691 539.86H76.1791L75.7991 544.22H73.5991L74.5491 533.4H76.7491L76.3991 537.45H85.0891L85.0991 537.46Z" fill="#008C95"/>
<path d="M98.5091 530.38C98.1991 531.27 95.6691 539.19 95.6691 539.19L96.7891 528.64H88.1091L86.2891 549.01H92.8291C94.4691 549.01 95.0391 548.08 95.3091 547.33C95.6391 546.44 98.0491 539.78 98.0491 539.78L97.1591 549.01H105.849L107.639 528.64C107.639 528.64 101.409 528.64 100.819 528.64C99.3091 528.64 98.7191 529.75 98.4991 530.39" fill="#008C95"/>
<path d="M142.509 528.63L141.699 537.92H139.499L140.309 528.63H131.619C131.619 528.63 130.789 538.47 130.699 539.42C130.599 540.56 131.239 542.16 133.159 542.16H141.319L141.139 544.23H130.279L129.859 549.01H147.149C148.319 549.01 149.449 548.25 149.609 546.61C149.709 545.56 151.199 528.64 151.199 528.64H142.509V528.63Z" fill="#008C95"/>
<path d="M161.21 538.47L161.65 533.42H163.83L163.39 538.47H161.21ZM165.18 528.64H153.38L151.6 549.01H160.29L160.84 542.71H169.28C170.77 542.71 171.76 541.95 171.92 540.2C171.98 539.52 172.67 531.8 172.72 531.12C172.82 529.61 171.62 528.64 170.14 528.64H165.19H165.18Z" fill="#008C95"/>
<path d="M119.35 544.77H117.13L117.57 539.72H119.79L119.35 544.77ZM117.95 535.48L118.13 533.41H129.01L129.43 528.63H109.86L108.08 549H111.34C111.34 549 124.36 549 125.41 549C126.46 549 127.7 548.35 127.86 546.64C127.98 545.36 128.51 539.3 128.61 538.21C128.74 536.74 127.81 535.47 125.98 535.47H117.95V535.48Z" fill="#008C95"/>
<path d="M50.2132 356.229L46.6641 366H45.2135L49.3002 355.279H50.2353L50.2132 356.229ZM53.188 366L49.6315 356.229L49.6094 355.279H50.5446L54.6459 366H53.188ZM53.0039 362.031V363.195H46.9807V362.031H53.0039ZM62.9738 362.392V363.511H55.2276V362.709L60.0285 355.279H61.1403L59.9475 357.429L56.7739 362.392H62.9738ZM61.479 355.279V366H60.1168V355.279H61.479ZM72.1263 360.986H69.4093L69.3946 359.844H71.8612C72.2687 359.844 72.6246 359.776 72.9289 359.638C73.2333 359.501 73.4689 359.304 73.6358 359.049C73.8076 358.789 73.8935 358.48 73.8935 358.121C73.8935 357.729 73.8174 357.41 73.6653 357.164C73.518 356.914 73.2897 356.732 72.9805 356.619C72.6761 356.501 72.2883 356.442 71.8171 356.442H69.7259V366H68.3048V355.279H71.8171C72.3669 355.279 72.8577 355.336 73.2897 355.448C73.7217 355.556 74.0874 355.728 74.3869 355.964C74.6912 356.195 74.9219 356.489 75.079 356.847C75.2361 357.206 75.3146 357.635 75.3146 358.136C75.3146 358.578 75.2017 358.978 74.9759 359.336C74.7501 359.69 74.4359 359.979 74.0334 360.205C73.6358 360.431 73.1695 360.576 72.6344 360.64L72.1263 360.986ZM72.0601 366H68.8497L69.6523 364.844H72.0601C72.5117 364.844 72.8946 364.765 73.2087 364.608C73.5278 364.451 73.7708 364.23 73.9377 363.946C74.1046 363.656 74.188 363.315 74.188 362.922C74.188 362.525 74.1169 362.181 73.9745 361.891C73.8322 361.602 73.6088 361.378 73.3045 361.221C73.0001 361.064 72.6074 360.986 72.1263 360.986H70.1014L70.1162 359.844H72.8847L73.1866 360.257C73.7021 360.301 74.139 360.448 74.4973 360.698C74.8557 360.944 75.1281 361.258 75.3146 361.641C75.5061 362.024 75.6018 362.446 75.6018 362.907C75.6018 363.575 75.4545 364.14 75.16 364.601C74.8704 365.058 74.4605 365.406 73.9303 365.647C73.4002 365.882 72.7768 366 72.0601 366ZM84.5114 364.844V366H78.8343V364.844H84.5114ZM79.1214 355.279V366H77.7003V355.279H79.1214ZM83.7603 359.888V361.045H78.8343V359.888H83.7603ZM84.4377 355.279V356.442H78.8343V355.279H84.4377ZM90.2253 361.796H87.361V360.64H90.2253C90.78 360.64 91.2291 360.551 91.5728 360.374C91.9164 360.198 92.1667 359.952 92.3238 359.638C92.4858 359.324 92.5668 358.966 92.5668 358.563C92.5668 358.195 92.4858 357.849 92.3238 357.525C92.1667 357.201 91.9164 356.941 91.5728 356.744C91.2291 356.543 90.78 356.442 90.2253 356.442H87.6923V366H86.2712V355.279H90.2253C91.0352 355.279 91.72 355.419 92.2796 355.699C92.8392 355.979 93.2639 356.366 93.5535 356.862C93.8431 357.353 93.9879 357.915 93.9879 358.548C93.9879 359.236 93.8431 359.822 93.5535 360.308C93.2639 360.794 92.8392 361.165 92.2796 361.42C91.72 361.67 91.0352 361.796 90.2253 361.796ZM99.746 355.279V366H98.347V355.279H99.746ZM103.192 355.279V356.442H94.9083V355.279H103.192ZM106.262 363.541L111.542 355.279H112.963V366H111.542V357.731L106.262 366H104.849V355.279H106.262V363.541ZM117.035 355.279V366H115.614V355.279H117.035ZM123.64 355.279L118.986 361.177H116.468L116.247 359.999H118.139L121.88 355.279H123.64ZM122.211 366L118.184 360.993L118.979 359.749L123.949 366H122.211ZM129.206 356.229L125.657 366H124.207L128.293 355.279H129.229L129.206 356.229ZM132.181 366L128.625 356.229L128.603 355.279H129.538L133.639 366H132.181ZM131.997 362.031V363.195H125.974V362.031H131.997ZM142.1 355.279V356.442H137.196V355.279H142.1ZM143.322 355.279V366H141.901V355.279H143.322ZM136.71 355.279H138.123L137.88 360.529C137.846 361.285 137.787 361.96 137.704 362.554C137.625 363.143 137.512 363.656 137.365 364.093C137.218 364.525 137.026 364.883 136.791 365.168C136.555 365.448 136.265 365.656 135.922 365.794C135.583 365.931 135.176 366 134.699 366H134.317V364.844L134.611 364.822C134.886 364.802 135.122 364.741 135.318 364.638C135.519 364.53 135.689 364.368 135.826 364.152C135.968 363.936 136.084 363.656 136.172 363.312C136.261 362.969 136.329 362.549 136.378 362.053C136.432 361.553 136.474 360.968 136.503 360.301L136.71 355.279ZM146.923 359.645H149.846C150.631 359.645 151.294 359.778 151.834 360.043C152.374 360.303 152.784 360.669 153.064 361.14C153.343 361.611 153.483 362.164 153.483 362.797C153.483 363.268 153.405 363.7 153.248 364.093C153.091 364.481 152.857 364.819 152.548 365.109C152.239 365.394 151.858 365.615 151.407 365.772C150.955 365.924 150.435 366 149.846 366H145.84V355.279H147.261V364.844H149.846C150.371 364.844 150.796 364.748 151.12 364.557C151.449 364.36 151.689 364.105 151.841 363.791C151.993 363.477 152.069 363.141 152.069 362.782C152.069 362.424 151.993 362.095 151.841 361.796C151.689 361.496 151.449 361.258 151.12 361.081C150.796 360.9 150.371 360.809 149.846 360.809H146.923V359.645ZM162.356 359.888V361.045H156.554V359.888H162.356ZM156.775 355.279V366H155.353V355.279H156.775ZM163.593 355.279V366H162.179V355.279H163.593ZM170.22 356.229L166.671 366H165.22L169.307 355.279H170.242L170.22 356.229ZM173.195 366L169.638 356.229L169.616 355.279H170.551L174.653 366H173.195ZM173.011 362.031V363.195H166.987V362.031H173.011ZM182.038 361.825H179.026L178.327 361.538C177.551 361.292 176.955 360.917 176.538 360.411C176.12 359.901 175.912 359.268 175.912 358.512C175.912 357.819 176.064 357.233 176.368 356.752C176.678 356.271 177.114 355.905 177.679 355.655C178.248 355.404 178.921 355.279 179.697 355.279H183.128V366H181.707V356.442H179.697C178.911 356.442 178.32 356.629 177.922 357.002C177.529 357.375 177.333 357.878 177.333 358.512C177.333 358.924 177.419 359.292 177.591 359.616C177.767 359.94 178.027 360.195 178.371 360.382C178.715 360.568 179.142 360.662 179.652 360.662H182.045L182.038 361.825ZM179.623 361.089L177.016 366H175.507L178.187 361.089H179.623ZM54.4986 378.301V378.978C54.4986 379.783 54.398 380.505 54.1967 381.143C53.9955 381.781 53.7059 382.324 53.3279 382.77C52.9499 383.217 52.4958 383.558 51.9657 383.794C51.4404 384.029 50.8514 384.147 50.1985 384.147C49.5652 384.147 48.9835 384.029 48.4534 383.794C47.9281 383.558 47.4716 383.217 47.0838 382.77C46.7009 382.324 46.4039 381.781 46.1929 381.143C45.9818 380.505 45.8762 379.783 45.8762 378.978V378.301C45.8762 377.496 45.9793 376.777 46.1855 376.143C46.3966 375.505 46.6936 374.963 47.0764 374.516C47.4593 374.064 47.9134 373.721 48.4387 373.485C48.9688 373.25 49.5505 373.132 50.1837 373.132C50.8366 373.132 51.4257 373.25 51.9509 373.485C52.4811 373.721 52.9352 374.064 53.3131 374.516C53.696 374.963 53.9881 375.505 54.1894 376.143C54.3955 376.777 54.4986 377.496 54.4986 378.301ZM53.0922 378.978V378.286C53.0922 377.648 53.026 377.083 52.8934 376.593C52.7658 376.102 52.5768 375.689 52.3265 375.356C52.0761 375.022 51.7693 374.769 51.4061 374.597C51.0477 374.425 50.6403 374.339 50.1837 374.339C49.742 374.339 49.3419 374.425 48.9835 374.597C48.6301 374.769 48.3257 375.022 48.0705 375.356C47.8201 375.689 47.6262 376.102 47.4888 376.593C47.3513 377.083 47.2826 377.648 47.2826 378.286V378.978C47.2826 379.621 47.3513 380.191 47.4888 380.687C47.6262 381.177 47.8226 381.592 48.0779 381.931C48.338 382.265 48.6448 382.518 48.9983 382.689C49.3566 382.861 49.7567 382.947 50.1985 382.947C50.6599 382.947 51.0698 382.861 51.4281 382.689C51.7865 382.518 52.0884 382.265 52.3338 381.931C52.5842 381.592 52.7732 381.177 52.9008 380.687C53.0284 380.191 53.0922 379.621 53.0922 378.978ZM60.5807 379.796H57.7164V378.64H60.5807C61.1354 378.64 61.5846 378.551 61.9282 378.374C62.2718 378.198 62.5222 377.952 62.6792 377.638C62.8412 377.324 62.9222 376.966 62.9222 376.563C62.9222 376.195 62.8412 375.849 62.6792 375.525C62.5222 375.201 62.2718 374.941 61.9282 374.744C61.5846 374.543 61.1354 374.442 60.5807 374.442H58.0477V384H56.6266V373.279H60.5807C61.3907 373.279 62.0754 373.419 62.6351 373.699C63.1947 373.979 63.6193 374.366 63.9089 374.862C64.1985 375.353 64.3433 375.915 64.3433 376.548C64.3433 377.236 64.1985 377.822 63.9089 378.308C63.6193 378.794 63.1947 379.165 62.6351 379.42C62.0754 379.67 61.3907 379.796 60.5807 379.796ZM67.62 381.541L72.8995 373.279H74.3206V384H72.8995V375.731L67.62 384H66.2063V373.279H67.62V381.541ZM83.7161 382.844V384H78.039V382.844H83.7161ZM78.3262 373.279V384H76.9051V373.279H78.3262ZM82.9651 377.888V379.045H78.039V377.888H82.9651ZM83.6425 373.279V374.442H78.039V373.279H83.6425ZM92.4784 377.888V379.045H86.6762V377.888H92.4784ZM86.8971 373.279V384H85.476V373.279H86.8971ZM93.7155 373.279V384H92.3017V373.279H93.7155ZM99.9816 373.279V384H98.5826V373.279H99.9816ZM103.428 373.279V374.442H95.1439V373.279H103.428ZM108.398 374.229L104.849 384H103.398L107.485 373.279H108.42L108.398 374.229ZM111.373 384L107.816 374.229L107.794 373.279H108.729L112.831 384H111.373ZM111.189 380.031V381.195H105.165V380.031H111.189ZM123.566 382.807L123.434 386.585H122.16V384H121.107V382.807H123.566ZM114.311 384V373.279H115.739V382.844H121.019V373.279H122.44V384H114.311ZM126.777 381.541L132.056 373.279H133.477V384H132.056V375.731L126.777 384H125.363V373.279H126.777V381.541ZM142.011 379.825H139L138.3 379.538C137.525 379.292 136.928 378.917 136.511 378.411C136.094 377.901 135.885 377.268 135.885 376.512C135.885 375.819 136.037 375.233 136.342 374.752C136.651 374.271 137.088 373.905 137.652 373.655C138.222 373.404 138.894 373.279 139.67 373.279H143.101V384H141.68V374.442H139.67C138.884 374.442 138.293 374.629 137.895 375.002C137.502 375.375 137.306 375.878 137.306 376.512C137.306 376.924 137.392 377.292 137.564 377.616C137.741 377.94 138.001 378.195 138.344 378.382C138.688 378.568 139.115 378.662 139.626 378.662H142.019L142.011 379.825ZM139.596 379.089L136.989 384H135.48L138.16 379.089H139.596ZM149.146 379.715V379.641C149.146 378.571 149.267 377.604 149.507 376.74C149.748 375.871 150.054 375.11 150.427 374.457C150.801 373.804 151.193 373.264 151.606 372.837C152.018 372.405 152.398 372.094 152.747 371.902L153.034 372.8C152.744 373.021 152.45 373.326 152.15 373.713C151.856 374.101 151.583 374.577 151.333 375.142C151.088 375.706 150.889 376.362 150.737 377.108C150.585 377.854 150.508 378.694 150.508 379.626V379.729C150.508 380.662 150.585 381.504 150.737 382.255C150.889 383.001 151.088 383.659 151.333 384.228C151.583 384.798 151.856 385.281 152.15 385.679C152.45 386.081 152.744 386.4 153.034 386.636L152.747 387.461C152.398 387.269 152.018 386.958 151.606 386.526C151.193 386.099 150.801 385.559 150.427 384.906C150.054 384.258 149.748 383.499 149.507 382.63C149.267 381.762 149.146 380.79 149.146 379.715ZM161.244 382.881V384H154.227V383.021L157.739 379.111C158.171 378.63 158.505 378.222 158.741 377.888C158.981 377.55 159.148 377.248 159.241 376.983C159.339 376.713 159.389 376.438 159.389 376.158C159.389 375.805 159.315 375.486 159.168 375.201C159.025 374.911 158.814 374.681 158.534 374.509C158.255 374.337 157.916 374.251 157.518 374.251C157.042 374.251 156.645 374.344 156.325 374.531C156.011 374.712 155.776 374.968 155.619 375.297C155.461 375.625 155.383 376.003 155.383 376.431H154.021C154.021 375.827 154.153 375.275 154.418 374.774C154.683 374.273 155.076 373.875 155.596 373.581C156.117 373.282 156.757 373.132 157.518 373.132C158.196 373.132 158.775 373.252 159.256 373.493C159.737 373.728 160.105 374.062 160.361 374.494C160.621 374.921 160.751 375.422 160.751 375.996C160.751 376.31 160.697 376.629 160.589 376.953C160.486 377.272 160.341 377.591 160.154 377.911C159.973 378.23 159.759 378.544 159.514 378.853C159.273 379.162 159.015 379.467 158.741 379.766L155.869 382.881H161.244ZM167.179 373.22V384H165.817V374.921L163.07 375.922V374.693L166.965 373.22H167.179ZM176.199 373.279L178.776 377.388L181.353 373.279H183.01L179.623 378.588L183.091 384H181.42L178.776 379.81L176.133 384H174.461L177.929 378.588L174.542 373.279H176.199ZM195.145 382.881V384H188.127V383.021L191.64 379.111C192.072 378.63 192.406 378.222 192.641 377.888C192.882 377.55 193.049 377.248 193.142 376.983C193.24 376.713 193.289 376.438 193.289 376.158C193.289 375.805 193.215 375.486 193.068 375.201C192.926 374.911 192.715 374.681 192.435 374.509C192.155 374.337 191.816 374.251 191.419 374.251C190.943 374.251 190.545 374.344 190.226 374.531C189.912 374.712 189.676 374.968 189.519 375.297C189.362 375.625 189.283 376.003 189.283 376.431H187.921C187.921 375.827 188.054 375.275 188.319 374.774C188.584 374.273 188.977 373.875 189.497 373.581C190.017 373.282 190.658 373.132 191.419 373.132C192.096 373.132 192.676 373.252 193.157 373.493C193.638 373.728 194.006 374.062 194.261 374.494C194.521 374.921 194.651 375.422 194.651 375.996C194.651 376.31 194.597 376.629 194.489 376.953C194.386 377.272 194.241 377.591 194.055 377.911C193.873 378.23 193.66 378.544 193.414 378.853C193.174 379.162 192.916 379.467 192.641 379.766L189.769 382.881H195.145ZM197.957 382.859H198.097C198.883 382.859 199.521 382.748 200.012 382.527C200.503 382.306 200.881 382.009 201.146 381.636C201.411 381.263 201.592 380.844 201.691 380.377C201.789 379.906 201.838 379.422 201.838 378.927V377.285C201.838 376.799 201.781 376.367 201.669 375.989C201.561 375.611 201.408 375.294 201.212 375.039C201.021 374.784 200.802 374.59 200.557 374.457C200.311 374.325 200.051 374.258 199.776 374.258C199.462 374.258 199.18 374.322 198.929 374.45C198.684 374.573 198.475 374.747 198.304 374.973C198.137 375.198 198.009 375.464 197.921 375.768C197.832 376.072 197.788 376.404 197.788 376.762C197.788 377.081 197.827 377.39 197.906 377.69C197.984 377.989 198.105 378.259 198.267 378.5C198.429 378.74 198.63 378.932 198.87 379.074C199.116 379.211 199.403 379.28 199.732 379.28C200.036 379.28 200.321 379.221 200.586 379.103C200.856 378.981 201.094 378.816 201.3 378.61C201.511 378.399 201.678 378.161 201.801 377.896C201.929 377.631 202.002 377.353 202.022 377.064H202.67C202.67 377.471 202.589 377.874 202.427 378.271C202.27 378.664 202.049 379.022 201.764 379.346C201.48 379.67 201.146 379.931 200.763 380.127C200.38 380.318 199.963 380.414 199.511 380.414C198.981 380.414 198.522 380.311 198.134 380.105C197.746 379.899 197.427 379.624 197.177 379.28C196.931 378.937 196.747 378.554 196.625 378.131C196.507 377.704 196.448 377.272 196.448 376.836C196.448 376.325 196.519 375.846 196.662 375.4C196.804 374.953 197.015 374.56 197.295 374.222C197.575 373.878 197.921 373.61 198.333 373.419C198.75 373.228 199.231 373.132 199.776 373.132C200.39 373.132 200.913 373.255 201.345 373.5C201.777 373.745 202.128 374.074 202.397 374.487C202.672 374.899 202.874 375.363 203.001 375.878C203.129 376.394 203.193 376.924 203.193 377.469V377.962C203.193 378.517 203.156 379.081 203.082 379.656C203.014 380.225 202.879 380.77 202.677 381.29C202.481 381.811 202.194 382.277 201.816 382.689C201.438 383.097 200.944 383.421 200.336 383.661C199.732 383.897 198.986 384.015 198.097 384.015H197.957V382.859ZM206.469 382.38V383.477C206.469 383.924 206.356 384.395 206.131 384.891C205.905 385.392 205.588 385.809 205.181 386.143L204.408 385.605C204.565 385.389 204.697 385.168 204.805 384.942C204.913 384.722 204.994 384.491 205.048 384.25C205.107 384.015 205.137 383.764 205.137 383.499V382.38H206.469ZM214.989 373.279V374.045L210.549 384H209.113L213.546 374.398H207.743V373.279H214.989ZM227.109 380.591H228.522C228.449 381.268 228.255 381.874 227.941 382.41C227.627 382.945 227.182 383.369 226.608 383.683C226.034 383.993 225.317 384.147 224.458 384.147C223.83 384.147 223.258 384.029 222.742 383.794C222.232 383.558 221.792 383.224 221.424 382.792C221.056 382.356 220.771 381.833 220.57 381.224C220.374 380.61 220.276 379.928 220.276 379.177V378.109C220.276 377.358 220.374 376.678 220.57 376.07C220.771 375.456 221.059 374.931 221.432 374.494C221.81 374.057 222.264 373.721 222.794 373.485C223.324 373.25 223.92 373.132 224.583 373.132C225.393 373.132 226.078 373.284 226.637 373.588C227.197 373.893 227.631 374.315 227.941 374.855C228.255 375.39 228.449 376.011 228.522 376.718H227.109C227.04 376.217 226.912 375.787 226.726 375.429C226.539 375.066 226.274 374.786 225.931 374.59C225.587 374.393 225.138 374.295 224.583 374.295C224.107 374.295 223.687 374.386 223.324 374.568C222.966 374.749 222.664 375.007 222.418 375.341C222.178 375.675 221.996 376.075 221.873 376.541C221.751 377.007 221.689 377.525 221.689 378.095V379.177C221.689 379.702 221.743 380.196 221.851 380.657C221.964 381.119 222.134 381.523 222.359 381.872C222.585 382.221 222.872 382.495 223.221 382.697C223.569 382.893 223.982 382.991 224.458 382.991C225.062 382.991 225.543 382.896 225.901 382.704C226.259 382.513 226.529 382.238 226.711 381.879C226.898 381.521 227.03 381.092 227.109 380.591ZM230.908 373.279H232.285L235.797 382.019L239.302 373.279H240.687L236.327 384H235.252L230.908 373.279ZM230.459 373.279H231.674L231.873 379.818V384H230.459V373.279ZM239.913 373.279H241.128V384H239.715V379.818L239.913 373.279ZM246.555 379.641V379.715C246.555 380.79 246.435 381.762 246.194 382.63C245.954 383.499 245.647 384.258 245.274 384.906C244.901 385.559 244.508 386.099 244.096 386.526C243.683 386.958 243.303 387.269 242.954 387.461L242.667 386.636C242.957 386.415 243.249 386.106 243.544 385.708C243.838 385.316 244.11 384.83 244.361 384.25C244.611 383.676 244.812 383.013 244.965 382.262C245.117 381.506 245.193 380.662 245.193 379.729V379.626C245.193 378.694 245.112 377.852 244.95 377.101C244.788 376.345 244.577 375.679 244.317 375.105C244.061 374.531 243.786 374.047 243.492 373.655C243.202 373.257 242.927 372.95 242.667 372.734L242.954 371.902C243.303 372.094 243.683 372.405 244.096 372.837C244.508 373.264 244.901 373.804 245.274 374.457C245.647 375.11 245.954 375.871 246.194 376.74C246.435 377.604 246.555 378.571 246.555 379.641Z" fill="black"/>
<path d="M317.213 256.229L313.664 266H312.214L316.3 255.279H317.235L317.213 256.229ZM320.188 266L316.632 256.229L316.609 255.279H317.545L321.646 266H320.188ZM320.004 262.031V263.195H313.981V262.031H320.004ZM329.974 262.392V263.511H322.228V262.709L327.028 255.279H328.14L326.947 257.429L323.774 262.392H329.974ZM328.479 255.279V266H327.117V255.279H328.479ZM341.954 255.279V256.442H336.785V266H335.371V255.279H341.954ZM351.452 260.301V260.978C351.452 261.783 351.352 262.505 351.151 263.143C350.949 263.781 350.66 264.324 350.282 264.77C349.904 265.217 349.45 265.558 348.919 265.794C348.394 266.029 347.805 266.147 347.152 266.147C346.519 266.147 345.937 266.029 345.407 265.794C344.882 265.558 344.425 265.217 344.038 264.77C343.655 264.324 343.358 263.781 343.147 263.143C342.936 262.505 342.83 261.783 342.83 260.978V260.301C342.83 259.496 342.933 258.777 343.139 258.143C343.35 257.505 343.647 256.963 344.03 256.516C344.413 256.064 344.867 255.721 345.392 255.485C345.923 255.25 346.504 255.132 347.138 255.132C347.79 255.132 348.38 255.25 348.905 255.485C349.435 255.721 349.889 256.064 350.267 256.516C350.65 256.963 350.942 257.505 351.143 258.143C351.349 258.777 351.452 259.496 351.452 260.301ZM350.046 260.978V260.286C350.046 259.648 349.98 259.083 349.847 258.593C349.72 258.102 349.531 257.689 349.28 257.356C349.03 257.022 348.723 256.769 348.36 256.597C348.002 256.425 347.594 256.339 347.138 256.339C346.696 256.339 346.296 256.425 345.937 256.597C345.584 256.769 345.28 257.022 345.024 257.356C344.774 257.689 344.58 258.102 344.443 258.593C344.305 259.083 344.236 259.648 344.236 260.286V260.978C344.236 261.621 344.305 262.191 344.443 262.687C344.58 263.177 344.776 263.592 345.032 263.931C345.292 264.265 345.599 264.518 345.952 264.689C346.31 264.861 346.711 264.947 347.152 264.947C347.614 264.947 348.024 264.861 348.382 264.689C348.74 264.518 349.042 264.265 349.288 263.931C349.538 263.592 349.727 263.177 349.855 262.687C349.982 262.191 350.046 261.621 350.046 260.978ZM357.535 261.796H354.67V260.64H357.535C358.089 260.64 358.538 260.551 358.882 260.374C359.226 260.198 359.476 259.952 359.633 259.638C359.795 259.324 359.876 258.966 359.876 258.563C359.876 258.195 359.795 257.849 359.633 257.525C359.476 257.201 359.226 256.941 358.882 256.744C358.538 256.543 358.089 256.442 357.535 256.442H355.002V266H353.58V255.279H357.535C358.344 255.279 359.029 255.419 359.589 255.699C360.148 255.979 360.573 256.366 360.863 256.862C361.152 257.353 361.297 257.915 361.297 258.548C361.297 259.236 361.152 259.822 360.863 260.308C360.573 260.794 360.148 261.165 359.589 261.42C359.029 261.67 358.344 261.796 357.535 261.796ZM364.574 263.541L369.853 255.279H371.274V266H369.853V257.731L364.574 266H363.16V255.279H364.574V263.541ZM377.143 260.853H375.869V259.947H377.091C377.631 259.947 378.068 259.871 378.402 259.719C378.736 259.567 378.979 259.356 379.131 259.086C379.283 258.816 379.359 258.504 379.359 258.151C379.359 257.812 379.276 257.503 379.109 257.223C378.942 256.938 378.684 256.712 378.336 256.546C377.987 256.374 377.538 256.288 376.988 256.288C376.576 256.288 376.203 256.366 375.869 256.523C375.535 256.676 375.27 256.889 375.074 257.164C374.878 257.434 374.779 257.746 374.779 258.099H373.358C373.358 257.643 373.454 257.233 373.645 256.87C373.837 256.501 374.099 256.19 374.433 255.934C374.767 255.674 375.152 255.475 375.589 255.338C376.031 255.201 376.497 255.132 376.988 255.132C377.563 255.132 378.083 255.198 378.549 255.331C379.016 255.458 379.416 255.65 379.75 255.905C380.083 256.16 380.339 256.477 380.515 256.855C380.692 257.233 380.78 257.672 380.78 258.173C380.78 258.541 380.695 258.887 380.523 259.211C380.351 259.535 380.105 259.82 379.786 260.065C379.467 260.311 379.084 260.505 378.638 260.647C378.191 260.784 377.693 260.853 377.143 260.853ZM375.869 260.227H377.143C377.747 260.227 378.284 260.289 378.756 260.411C379.227 260.534 379.624 260.713 379.948 260.949C380.272 261.184 380.518 261.476 380.685 261.825C380.856 262.169 380.942 262.564 380.942 263.011C380.942 263.511 380.844 263.955 380.648 264.343C380.456 264.731 380.184 265.06 379.831 265.33C379.477 265.6 379.057 265.804 378.571 265.941C378.09 266.079 377.563 266.147 376.988 266.147C376.527 266.147 376.07 266.088 375.619 265.971C375.172 265.848 374.767 265.661 374.404 265.411C374.041 265.156 373.748 264.832 373.528 264.439C373.312 264.046 373.204 263.575 373.204 263.025H374.625C374.625 263.384 374.723 263.712 374.919 264.012C375.121 264.311 375.398 264.552 375.751 264.734C376.105 264.91 376.517 264.999 376.988 264.999C377.528 264.999 377.985 264.915 378.358 264.748C378.736 264.576 379.023 264.343 379.219 264.049C379.421 263.749 379.521 263.413 379.521 263.04C379.521 262.711 379.467 262.426 379.359 262.186C379.256 261.94 379.102 261.739 378.895 261.582C378.694 261.425 378.441 261.31 378.137 261.236C377.838 261.157 377.489 261.118 377.091 261.118H375.869V260.227ZM391.067 260.301V260.978C391.067 261.783 390.966 262.505 390.765 263.143C390.564 263.781 390.274 264.324 389.896 264.77C389.518 265.217 389.064 265.558 388.534 265.794C388.009 266.029 387.42 266.147 386.767 266.147C386.134 266.147 385.552 266.029 385.022 265.794C384.496 265.558 384.04 265.217 383.652 264.77C383.269 264.324 382.972 263.781 382.761 263.143C382.55 262.505 382.445 261.783 382.445 260.978V260.301C382.445 259.496 382.548 258.777 382.754 258.143C382.965 257.505 383.262 256.963 383.645 256.516C384.028 256.064 384.482 255.721 385.007 255.485C385.537 255.25 386.119 255.132 386.752 255.132C387.405 255.132 387.994 255.25 388.519 255.485C389.049 255.721 389.503 256.064 389.881 256.516C390.264 256.963 390.556 257.505 390.758 258.143C390.964 258.777 391.067 259.496 391.067 260.301ZM389.661 260.978V260.286C389.661 259.648 389.594 259.083 389.462 258.593C389.334 258.102 389.145 257.689 388.895 257.356C388.644 257.022 388.338 256.769 387.974 256.597C387.616 256.425 387.209 256.339 386.752 256.339C386.31 256.339 385.91 256.425 385.552 256.597C385.198 256.769 384.894 257.022 384.639 257.356C384.388 257.689 384.195 258.102 384.057 258.593C383.92 259.083 383.851 259.648 383.851 260.286V260.978C383.851 261.621 383.92 262.191 384.057 262.687C384.195 263.177 384.391 263.592 384.646 263.931C384.906 264.265 385.213 264.518 385.567 264.689C385.925 264.861 386.325 264.947 386.767 264.947C387.228 264.947 387.638 264.861 387.996 264.689C388.355 264.518 388.657 264.265 388.902 263.931C389.152 263.592 389.341 263.177 389.469 262.687C389.597 262.191 389.661 261.621 389.661 260.978ZM400.197 259.888V261.045H394.395V259.888H400.197ZM394.616 255.279V266H393.195V255.279H394.616ZM401.434 255.279V266H400.021V255.279H401.434ZM407.701 255.279V266H406.302V255.279H407.701ZM411.147 255.279V256.442H402.863V255.279H411.147ZM416.117 256.229L412.568 266H411.117L415.204 255.279H416.139L416.117 256.229ZM419.092 266L415.535 256.229L415.513 255.279H416.448L420.549 266H419.092ZM418.907 262.031V263.195H412.884V262.031H418.907ZM429.01 255.279V256.442H424.106V255.279H429.01ZM430.232 255.279V266H428.811V255.279H430.232ZM423.62 255.279H425.034L424.791 260.529C424.756 261.285 424.697 261.96 424.614 262.554C424.535 263.143 424.423 263.656 424.275 264.093C424.128 264.525 423.937 264.883 423.701 265.168C423.465 265.448 423.176 265.656 422.832 265.794C422.493 265.931 422.086 266 421.61 266H421.227V264.844L421.521 264.822C421.796 264.802 422.032 264.741 422.228 264.638C422.43 264.53 422.599 264.368 422.736 264.152C422.879 263.936 422.994 263.656 423.082 263.312C423.171 262.969 423.24 262.549 423.289 262.053C423.343 261.553 423.384 260.968 423.414 260.301L423.62 255.279ZM433.833 259.645H436.756C437.541 259.645 438.204 259.778 438.744 260.043C439.284 260.303 439.694 260.669 439.974 261.14C440.254 261.611 440.394 262.164 440.394 262.797C440.394 263.268 440.315 263.7 440.158 264.093C440.001 264.481 439.768 264.819 439.458 265.109C439.149 265.394 438.769 265.615 438.317 265.772C437.865 265.924 437.345 266 436.756 266H432.75V255.279H434.172V264.844H436.756C437.281 264.844 437.706 264.748 438.03 264.557C438.359 264.36 438.599 264.105 438.752 263.791C438.904 263.477 438.98 263.141 438.98 262.782C438.98 262.424 438.904 262.095 438.752 261.796C438.599 261.496 438.359 261.258 438.03 261.081C437.706 260.9 437.281 260.809 436.756 260.809H433.833V259.645ZM449.266 259.888V261.045H443.464V259.888H449.266ZM443.685 255.279V266H442.264V255.279H443.685ZM450.503 255.279V266H449.09V255.279H450.503ZM457.13 256.229L453.581 266H452.131L456.217 255.279H457.152L457.13 256.229ZM460.105 266L456.549 256.229L456.526 255.279H457.462L461.563 266H460.105ZM459.921 262.031V263.195H453.898V262.031H459.921ZM468.948 261.825H465.937L465.237 261.538C464.462 261.292 463.865 260.917 463.448 260.411C463.031 259.901 462.822 259.268 462.822 258.512C462.822 257.819 462.974 257.233 463.279 256.752C463.588 256.271 464.025 255.905 464.589 255.655C465.159 255.404 465.831 255.279 466.607 255.279H470.038V266H468.617V256.442H466.607C465.821 256.442 465.23 256.629 464.832 257.002C464.44 257.375 464.243 257.878 464.243 258.512C464.243 258.924 464.329 259.292 464.501 259.616C464.678 259.94 464.938 260.195 465.281 260.382C465.625 260.568 466.052 260.662 466.563 260.662H468.956L468.948 261.825ZM466.533 261.089L463.927 266H462.417L465.097 261.089H466.533ZM321.499 278.301V278.978C321.499 279.783 321.398 280.505 321.197 281.143C320.995 281.781 320.706 282.324 320.328 282.77C319.95 283.217 319.496 283.558 318.966 283.794C318.44 284.029 317.851 284.147 317.198 284.147C316.565 284.147 315.984 284.029 315.453 283.794C314.928 283.558 314.472 283.217 314.084 282.77C313.701 282.324 313.404 281.781 313.193 281.143C312.982 280.505 312.876 279.783 312.876 278.978V278.301C312.876 277.496 312.979 276.777 313.185 276.143C313.397 275.505 313.694 274.963 314.076 274.516C314.459 274.064 314.913 273.721 315.439 273.485C315.969 273.25 316.551 273.132 317.184 273.132C317.837 273.132 318.426 273.25 318.951 273.485C319.481 273.721 319.935 274.064 320.313 274.516C320.696 274.963 320.988 275.505 321.189 276.143C321.396 276.777 321.499 277.496 321.499 278.301ZM320.092 278.978V278.286C320.092 277.648 320.026 277.083 319.893 276.593C319.766 276.102 319.577 275.689 319.326 275.356C319.076 275.022 318.769 274.769 318.406 274.597C318.048 274.425 317.64 274.339 317.184 274.339C316.742 274.339 316.342 274.425 315.984 274.597C315.63 274.769 315.326 275.022 315.07 275.356C314.82 275.689 314.626 276.102 314.489 276.593C314.351 277.083 314.283 277.648 314.283 278.286V278.978C314.283 279.621 314.351 280.191 314.489 280.687C314.626 281.177 314.823 281.592 315.078 281.931C315.338 282.265 315.645 282.518 315.998 282.689C316.357 282.861 316.757 282.947 317.198 282.947C317.66 282.947 318.07 282.861 318.428 282.689C318.786 282.518 319.088 282.265 319.334 281.931C319.584 281.592 319.773 281.177 319.901 280.687C320.028 280.191 320.092 279.621 320.092 278.978ZM327.581 279.796H324.716V278.64H327.581C328.135 278.64 328.585 278.551 328.928 278.374C329.272 278.198 329.522 277.952 329.679 277.638C329.841 277.324 329.922 276.966 329.922 276.563C329.922 276.195 329.841 275.849 329.679 275.525C329.522 275.201 329.272 274.941 328.928 274.744C328.585 274.543 328.135 274.442 327.581 274.442H325.048V284H323.627V273.279H327.581C328.391 273.279 329.075 273.419 329.635 273.699C330.195 273.979 330.619 274.366 330.909 274.862C331.199 275.353 331.343 275.915 331.343 276.548C331.343 277.236 331.199 277.822 330.909 278.308C330.619 278.794 330.195 279.165 329.635 279.42C329.075 279.67 328.391 279.796 327.581 279.796ZM334.62 281.541L339.899 273.279H341.321V284H339.899V275.731L334.62 284H333.206V273.279H334.62V281.541ZM350.716 282.844V284H345.039V282.844H350.716ZM345.326 273.279V284H343.905V273.279H345.326ZM349.965 277.888V279.045H345.039V277.888H349.965ZM350.642 273.279V274.442H345.039V273.279H350.642ZM359.478 277.888V279.045H353.676V277.888H359.478ZM353.897 273.279V284H352.476V273.279H353.897ZM360.715 273.279V284H359.302V273.279H360.715ZM366.982 273.279V284H365.583V273.279H366.982ZM370.428 273.279V274.442H362.144V273.279H370.428ZM375.398 274.229L371.849 284H370.398L374.485 273.279H375.42L375.398 274.229ZM378.373 284L374.816 274.229L374.794 273.279H375.729L379.831 284H378.373ZM378.189 280.031V281.195H372.165V280.031H378.189ZM390.566 282.807L390.434 286.585H389.16V284H388.107V282.807H390.566ZM381.311 284V273.279H382.739V282.844H388.019V273.279H389.44V284H381.311ZM393.777 281.541L399.056 273.279H400.477V284H399.056V275.731L393.777 284H392.363V273.279H393.777V281.541ZM409.011 279.825H406L405.3 279.538C404.525 279.292 403.928 278.917 403.511 278.411C403.094 277.901 402.885 277.268 402.885 276.512C402.885 275.819 403.037 275.233 403.342 274.752C403.651 274.271 404.088 273.905 404.652 273.655C405.222 273.404 405.894 273.279 406.67 273.279H410.101V284H408.68V274.442H406.67C405.884 274.442 405.293 274.629 404.895 275.002C404.502 275.375 404.306 275.878 404.306 276.512C404.306 276.924 404.392 277.292 404.564 277.616C404.741 277.94 405.001 278.195 405.344 278.382C405.688 278.568 406.115 278.662 406.626 278.662H409.019L409.011 279.825ZM406.596 279.089L403.989 284H402.48L405.16 279.089H406.596ZM416.146 279.715V279.641C416.146 278.571 416.267 277.604 416.507 276.74C416.748 275.871 417.054 275.11 417.427 274.457C417.801 273.804 418.193 273.264 418.606 272.837C419.018 272.405 419.398 272.094 419.747 271.902L420.034 272.8C419.744 273.021 419.45 273.326 419.15 273.713C418.856 274.101 418.583 274.577 418.333 275.142C418.088 275.706 417.889 276.362 417.737 277.108C417.585 277.854 417.508 278.694 417.508 279.626V279.729C417.508 280.662 417.585 281.504 417.737 282.255C417.889 283.001 418.088 283.659 418.333 284.228C418.583 284.798 418.856 285.281 419.15 285.679C419.45 286.081 419.744 286.4 420.034 286.636L419.747 287.461C419.398 287.269 419.018 286.958 418.606 286.526C418.193 286.099 417.801 285.559 417.427 284.906C417.054 284.258 416.748 283.499 416.507 282.63C416.267 281.762 416.146 280.79 416.146 279.715ZM428.244 282.881V284H421.227V283.021L424.739 279.111C425.171 278.63 425.505 278.222 425.741 277.888C425.981 277.55 426.148 277.248 426.241 276.983C426.339 276.713 426.389 276.438 426.389 276.158C426.389 275.805 426.315 275.486 426.168 275.201C426.025 274.911 425.814 274.681 425.534 274.509C425.255 274.337 424.916 274.251 424.518 274.251C424.042 274.251 423.645 274.344 423.325 274.531C423.011 274.712 422.776 274.968 422.619 275.297C422.461 275.625 422.383 276.003 422.383 276.431H421.021C421.021 275.827 421.153 275.275 421.418 274.774C421.683 274.273 422.076 273.875 422.596 273.581C423.117 273.282 423.757 273.132 424.518 273.132C425.196 273.132 425.775 273.252 426.256 273.493C426.737 273.728 427.105 274.062 427.361 274.494C427.621 274.921 427.751 275.422 427.751 275.996C427.751 276.31 427.697 276.629 427.589 276.953C427.486 277.272 427.341 277.591 427.154 277.911C426.973 278.23 426.759 278.544 426.514 278.853C426.273 279.162 426.015 279.467 425.741 279.766L422.869 282.881H428.244ZM434.179 273.22V284H432.817V274.921L430.07 275.922V274.693L433.965 273.22H434.179ZM443.199 273.279L445.776 277.388L448.353 273.279H450.01L446.623 278.588L450.091 284H448.42L445.776 279.81L443.133 284H441.461L444.929 278.588L441.542 273.279H443.199ZM462.145 282.881V284H455.127V283.021L458.64 279.111C459.072 278.63 459.406 278.222 459.641 277.888C459.882 277.55 460.049 277.248 460.142 276.983C460.24 276.713 460.289 276.438 460.289 276.158C460.289 275.805 460.215 275.486 460.068 275.201C459.926 274.911 459.715 274.681 459.435 274.509C459.155 274.337 458.816 274.251 458.419 274.251C457.943 274.251 457.545 274.344 457.226 274.531C456.912 274.712 456.676 274.968 456.519 275.297C456.362 275.625 456.283 276.003 456.283 276.431H454.921C454.921 275.827 455.054 275.275 455.319 274.774C455.584 274.273 455.977 273.875 456.497 273.581C457.017 273.282 457.658 273.132 458.419 273.132C459.096 273.132 459.676 273.252 460.157 273.493C460.638 273.728 461.006 274.062 461.261 274.494C461.521 274.921 461.651 275.422 461.651 275.996C461.651 276.31 461.597 276.629 461.489 276.953C461.386 277.272 461.241 277.591 461.055 277.911C460.873 278.23 460.66 278.544 460.414 278.853C460.174 279.162 459.916 279.467 459.641 279.766L456.769 282.881H462.145ZM464.957 282.859H465.097C465.883 282.859 466.521 282.748 467.012 282.527C467.503 282.306 467.881 282.009 468.146 281.636C468.411 281.263 468.592 280.844 468.691 280.377C468.789 279.906 468.838 279.422 468.838 278.927V277.285C468.838 276.799 468.781 276.367 468.669 275.989C468.561 275.611 468.408 275.294 468.212 275.039C468.021 274.784 467.802 274.59 467.557 274.457C467.311 274.325 467.051 274.258 466.776 274.258C466.462 274.258 466.18 274.322 465.929 274.45C465.684 274.573 465.475 274.747 465.304 274.973C465.137 275.198 465.009 275.464 464.921 275.768C464.832 276.072 464.788 276.404 464.788 276.762C464.788 277.081 464.827 277.39 464.906 277.69C464.984 277.989 465.105 278.259 465.267 278.5C465.429 278.74 465.63 278.932 465.87 279.074C466.116 279.211 466.403 279.28 466.732 279.28C467.036 279.28 467.321 279.221 467.586 279.103C467.856 278.981 468.094 278.816 468.3 278.61C468.511 278.399 468.678 278.161 468.801 277.896C468.929 277.631 469.002 277.353 469.022 277.064H469.67C469.67 277.471 469.589 277.874 469.427 278.271C469.27 278.664 469.049 279.022 468.764 279.346C468.48 279.67 468.146 279.931 467.763 280.127C467.38 280.318 466.963 280.414 466.511 280.414C465.981 280.414 465.522 280.311 465.134 280.105C464.746 279.899 464.427 279.624 464.177 279.28C463.931 278.937 463.747 278.554 463.625 278.131C463.507 277.704 463.448 277.272 463.448 276.836C463.448 276.325 463.519 275.846 463.662 275.4C463.804 274.953 464.015 274.56 464.295 274.222C464.575 273.878 464.921 273.61 465.333 273.419C465.75 273.228 466.231 273.132 466.776 273.132C467.39 273.132 467.913 273.255 468.345 273.5C468.777 273.745 469.128 274.074 469.397 274.487C469.672 274.899 469.874 275.363 470.001 275.878C470.129 276.394 470.193 276.924 470.193 277.469V277.962C470.193 278.517 470.156 279.081 470.082 279.656C470.014 280.225 469.879 280.77 469.677 281.29C469.481 281.811 469.194 282.277 468.816 282.689C468.438 283.097 467.944 283.421 467.336 283.661C466.732 283.897 465.986 284.015 465.097 284.015H464.957V282.859ZM473.469 282.38V283.477C473.469 283.924 473.356 284.395 473.131 284.891C472.905 285.392 472.588 285.809 472.181 286.143L471.408 285.605C471.565 285.389 471.697 285.168 471.805 284.942C471.913 284.722 471.994 284.491 472.048 284.25C472.107 284.015 472.137 283.764 472.137 283.499V282.38H473.469ZM481.989 273.279V274.045L477.549 284H476.113L480.546 274.398H474.743V273.279H481.989ZM494.109 280.591H495.522C495.449 281.268 495.255 281.874 494.941 282.41C494.627 282.945 494.182 283.369 493.608 283.683C493.034 283.993 492.317 284.147 491.458 284.147C490.83 284.147 490.258 284.029 489.742 283.794C489.232 283.558 488.792 283.224 488.424 282.792C488.056 282.356 487.771 281.833 487.57 281.224C487.374 280.61 487.276 279.928 487.276 279.177V278.109C487.276 277.358 487.374 276.678 487.57 276.07C487.771 275.456 488.059 274.931 488.432 274.494C488.81 274.057 489.264 273.721 489.794 273.485C490.324 273.25 490.92 273.132 491.583 273.132C492.393 273.132 493.078 273.284 493.637 273.588C494.197 273.893 494.631 274.315 494.941 274.855C495.255 275.39 495.449 276.011 495.522 276.718H494.109C494.04 276.217 493.912 275.787 493.726 275.429C493.539 275.066 493.274 274.786 492.931 274.59C492.587 274.393 492.138 274.295 491.583 274.295C491.107 274.295 490.687 274.386 490.324 274.568C489.966 274.749 489.664 275.007 489.418 275.341C489.178 275.675 488.996 276.075 488.873 276.541C488.751 277.007 488.689 277.525 488.689 278.095V279.177C488.689 279.702 488.743 280.196 488.851 280.657C488.964 281.119 489.134 281.523 489.359 281.872C489.585 282.221 489.872 282.495 490.221 282.697C490.569 282.893 490.982 282.991 491.458 282.991C492.062 282.991 492.543 282.896 492.901 282.704C493.259 282.513 493.529 282.238 493.711 281.879C493.898 281.521 494.03 281.092 494.109 280.591ZM497.908 273.279H499.285L502.797 282.019L506.302 273.279H507.687L503.327 284H502.252L497.908 273.279ZM497.459 273.279H498.674L498.873 279.818V284H497.459V273.279ZM506.913 273.279H508.128V284H506.715V279.818L506.913 273.279ZM513.555 279.641V279.715C513.555 280.79 513.435 281.762 513.194 282.63C512.954 283.499 512.647 284.258 512.274 284.906C511.901 285.559 511.508 286.099 511.096 286.526C510.683 286.958 510.303 287.269 509.954 287.461L509.667 286.636C509.957 286.415 510.249 286.106 510.544 285.708C510.838 285.316 511.11 284.83 511.361 284.25C511.611 283.676 511.812 283.013 511.965 282.262C512.117 281.506 512.193 280.662 512.193 279.729V279.626C512.193 278.694 512.112 277.852 511.95 277.101C511.788 276.345 511.577 275.679 511.317 275.105C511.061 274.531 510.786 274.047 510.492 273.655C510.202 273.257 509.927 272.95 509.667 272.734L509.954 271.902C510.303 272.094 510.683 272.405 511.096 272.837C511.508 273.264 511.901 273.804 512.274 274.457C512.647 275.11 512.954 275.871 513.194 276.74C513.435 277.604 513.555 278.571 513.555 279.641Z" fill="black"/>
<path d="M679.732 186.279V197H678.311V186.279H679.732ZM686.337 186.279L681.683 192.177H679.165L678.944 190.999H680.836L684.577 186.279H686.337ZM684.908 197L680.88 191.993L681.676 190.749L686.646 197H684.908ZM691.903 187.229L688.354 197H686.904L690.99 186.279H691.925L691.903 187.229ZM694.878 197L691.322 187.229L691.299 186.279H692.235L696.336 197H694.878ZM694.694 193.031V194.195H688.671V193.031H694.694ZM701.726 192.796H698.862V191.64H701.726C702.281 191.64 702.73 191.551 703.073 191.374C703.417 191.198 703.667 190.952 703.824 190.638C703.986 190.324 704.067 189.966 704.067 189.563C704.067 189.195 703.986 188.849 703.824 188.525C703.667 188.201 703.417 187.941 703.073 187.744C702.73 187.543 702.281 187.442 701.726 187.442H699.193V197H697.772V186.279H701.726C702.536 186.279 703.221 186.419 703.78 186.699C704.34 186.979 704.764 187.366 705.054 187.862C705.344 188.353 705.489 188.915 705.489 189.548C705.489 190.236 705.344 190.822 705.054 191.308C704.764 191.794 704.34 192.165 703.78 192.42C703.221 192.67 702.536 192.796 701.726 192.796ZM711.247 186.279V197H709.848V186.279H711.247ZM714.693 186.279V187.442H706.409V186.279H714.693ZM724.331 191.301V191.978C724.331 192.783 724.231 193.505 724.029 194.143C723.828 194.781 723.538 195.324 723.16 195.77C722.782 196.217 722.328 196.558 721.798 196.794C721.273 197.029 720.684 197.147 720.031 197.147C719.398 197.147 718.816 197.029 718.286 196.794C717.761 196.558 717.304 196.217 716.916 195.77C716.533 195.324 716.236 194.781 716.025 194.143C715.814 193.505 715.709 192.783 715.709 191.978V191.301C715.709 190.496 715.812 189.777 716.018 189.143C716.229 188.505 716.526 187.963 716.909 187.516C717.292 187.064 717.746 186.721 718.271 186.485C718.801 186.25 719.383 186.132 720.016 186.132C720.669 186.132 721.258 186.25 721.783 186.485C722.314 186.721 722.768 187.064 723.146 187.516C723.529 187.963 723.821 188.505 724.022 189.143C724.228 189.777 724.331 190.496 724.331 191.301ZM722.925 191.978V191.286C722.925 190.648 722.859 190.083 722.726 189.593C722.598 189.102 722.409 188.689 722.159 188.356C721.909 188.022 721.602 187.769 721.239 187.597C720.88 187.425 720.473 187.339 720.016 187.339C719.574 187.339 719.174 187.425 718.816 187.597C718.463 187.769 718.158 188.022 717.903 188.356C717.653 188.689 717.459 189.102 717.321 189.593C717.184 190.083 717.115 190.648 717.115 191.286V191.978C717.115 192.621 717.184 193.191 717.321 193.687C717.459 194.177 717.655 194.592 717.91 194.931C718.171 195.265 718.477 195.518 718.831 195.689C719.189 195.861 719.589 195.947 720.031 195.947C720.492 195.947 720.902 195.861 721.261 195.689C721.619 195.518 721.921 195.265 722.166 194.931C722.417 194.592 722.606 194.177 722.733 193.687C722.861 193.191 722.925 192.621 722.925 191.978ZM726.327 186.279H727.748V189.629C727.748 190.184 727.829 190.618 727.991 190.933C728.153 191.247 728.398 191.468 728.727 191.595C729.056 191.723 729.466 191.787 729.957 191.787C730.251 191.787 730.536 191.775 730.811 191.75C731.091 191.725 731.363 191.691 731.628 191.647C731.893 191.603 732.153 191.549 732.409 191.485C732.669 191.421 732.924 191.352 733.174 191.279V192.442C732.934 192.516 732.693 192.584 732.453 192.648C732.217 192.712 731.972 192.766 731.717 192.81C731.466 192.854 731.196 192.889 730.907 192.913C730.622 192.938 730.305 192.95 729.957 192.95C729.201 192.95 728.55 192.842 728.005 192.626C727.465 192.405 727.051 192.052 726.761 191.566C726.471 191.08 726.327 190.434 726.327 189.629V186.279ZM732.814 186.279H734.235V197H732.814V186.279ZM738.27 186.279V197H736.849V186.279H738.27ZM744.875 186.279L740.221 192.177H737.703L737.482 190.999H739.374L743.115 186.279H744.875ZM743.446 197L739.419 191.993L740.214 190.749L745.184 197H743.446ZM750.441 187.229L746.892 197H745.442L749.528 186.279H750.463L750.441 187.229ZM753.416 197L749.86 187.229L749.838 186.279H750.773L754.874 197H753.416ZM753.232 193.031V194.195H747.209V193.031H753.232ZM677.987 210.715V210.641C677.987 209.571 678.107 208.604 678.347 207.74C678.588 206.871 678.895 206.11 679.268 205.457C679.641 204.804 680.034 204.264 680.446 203.837C680.858 203.405 681.239 203.094 681.587 202.902L681.874 203.8C681.585 204.021 681.29 204.326 680.991 204.713C680.696 205.101 680.424 205.577 680.174 206.142C679.928 206.706 679.729 207.362 679.577 208.108C679.425 208.854 679.349 209.694 679.349 210.626V210.729C679.349 211.662 679.425 212.504 679.577 213.255C679.729 214.001 679.928 214.659 680.174 215.228C680.424 215.798 680.696 216.281 680.991 216.679C681.29 217.081 681.585 217.4 681.874 217.636L681.587 218.461C681.239 218.269 680.858 217.958 680.446 217.526C680.034 217.099 679.641 216.559 679.268 215.906C678.895 215.258 678.588 214.499 678.347 213.63C678.107 212.762 677.987 211.79 677.987 210.715ZM687.537 204.22V215H686.175V205.921L683.428 206.922V205.693L687.323 204.22H687.537ZM693.265 209.897L692.176 209.617L692.713 204.279H698.214V205.538H693.869L693.545 208.454C693.742 208.341 693.99 208.236 694.289 208.137C694.593 208.039 694.942 207.99 695.335 207.99C695.83 207.99 696.275 208.076 696.667 208.248C697.06 208.415 697.394 208.655 697.669 208.969C697.949 209.284 698.162 209.662 698.309 210.103C698.457 210.545 698.53 211.039 698.53 211.583C698.53 212.099 698.459 212.573 698.317 213.005C698.179 213.437 697.971 213.815 697.691 214.138C697.411 214.458 697.058 214.705 696.631 214.882C696.208 215.059 695.71 215.147 695.136 215.147C694.704 215.147 694.294 215.088 693.906 214.971C693.523 214.848 693.18 214.664 692.875 214.418C692.576 214.168 692.33 213.859 692.139 213.491C691.952 213.117 691.835 212.681 691.785 212.18H693.081C693.14 212.582 693.258 212.921 693.435 213.196C693.612 213.471 693.842 213.68 694.127 213.822C694.417 213.959 694.753 214.028 695.136 214.028C695.46 214.028 695.747 213.972 695.997 213.859C696.248 213.746 696.459 213.584 696.631 213.373C696.802 213.162 696.932 212.906 697.021 212.607C697.114 212.307 697.161 211.971 697.161 211.598C697.161 211.259 697.114 210.945 697.021 210.656C696.927 210.366 696.788 210.113 696.601 209.897C696.419 209.681 696.196 209.514 695.931 209.397C695.666 209.274 695.362 209.212 695.018 209.212C694.561 209.212 694.215 209.274 693.98 209.397C693.749 209.519 693.511 209.686 693.265 209.897ZM705.039 204.279L707.617 208.388L710.194 204.279H711.85L708.463 209.588L711.931 215H710.26L707.617 210.81L704.973 215H703.302L706.77 209.588L703.383 204.279H705.039ZM721.437 204.22V215H720.075V205.921L717.329 206.922V205.693L721.224 204.22H721.437ZM727.166 209.897L726.076 209.617L726.614 204.279H732.114V205.538H727.77L727.446 208.454C727.642 208.341 727.89 208.236 728.19 208.137C728.494 208.039 728.842 207.99 729.235 207.99C729.731 207.99 730.175 208.076 730.568 208.248C730.961 208.415 731.294 208.655 731.569 208.969C731.849 209.284 732.063 209.662 732.21 210.103C732.357 210.545 732.431 211.039 732.431 211.583C732.431 212.099 732.36 212.573 732.217 213.005C732.08 213.437 731.871 213.815 731.591 214.138C731.312 214.458 730.958 214.705 730.531 214.882C730.109 215.059 729.611 215.147 729.036 215.147C728.604 215.147 728.194 215.088 727.807 214.971C727.424 214.848 727.08 214.664 726.776 214.418C726.476 214.168 726.231 213.859 726.039 213.491C725.853 213.117 725.735 212.681 725.686 212.18H726.982C727.041 212.582 727.159 212.921 727.335 213.196C727.512 213.471 727.743 213.68 728.028 213.822C728.317 213.959 728.653 214.028 729.036 214.028C729.36 214.028 729.647 213.972 729.898 213.859C730.148 213.746 730.359 213.584 730.531 213.373C730.703 213.162 730.833 212.906 730.921 212.607C731.015 212.307 731.061 211.971 731.061 211.598C731.061 211.259 731.015 210.945 730.921 210.656C730.828 210.366 730.688 210.113 730.502 209.897C730.32 209.681 730.097 209.514 729.832 209.397C729.566 209.274 729.262 209.212 728.918 209.212C728.462 209.212 728.116 209.274 727.88 209.397C727.65 209.519 727.411 209.686 727.166 209.897ZM744.492 211.591H745.906C745.832 212.268 745.638 212.874 745.324 213.41C745.01 213.945 744.565 214.369 743.991 214.683C743.417 214.993 742.7 215.147 741.841 215.147C741.213 215.147 740.641 215.029 740.125 214.794C739.615 214.558 739.176 214.224 738.807 213.792C738.439 213.356 738.155 212.833 737.953 212.224C737.757 211.61 737.659 210.928 737.659 210.177V209.109C737.659 208.358 737.757 207.678 737.953 207.07C738.155 206.456 738.442 205.931 738.815 205.494C739.193 205.057 739.647 204.721 740.177 204.485C740.707 204.25 741.304 204.132 741.966 204.132C742.776 204.132 743.461 204.284 744.021 204.588C744.58 204.893 745.015 205.315 745.324 205.855C745.638 206.39 745.832 207.011 745.906 207.718H744.492C744.423 207.217 744.295 206.787 744.109 206.429C743.922 206.066 743.657 205.786 743.314 205.59C742.97 205.393 742.521 205.295 741.966 205.295C741.49 205.295 741.07 205.386 740.707 205.568C740.349 205.749 740.047 206.007 739.801 206.341C739.561 206.675 739.379 207.075 739.257 207.541C739.134 208.007 739.072 208.525 739.072 209.095V210.177C739.072 210.702 739.126 211.196 739.234 211.657C739.347 212.119 739.517 212.523 739.743 212.872C739.968 213.221 740.255 213.495 740.604 213.697C740.953 213.893 741.365 213.991 741.841 213.991C742.445 213.991 742.926 213.896 743.284 213.704C743.643 213.513 743.913 213.238 744.094 212.879C744.281 212.521 744.413 212.092 744.492 211.591ZM748.291 204.279H749.668L753.181 213.019L756.685 204.279H758.07L753.711 215H752.636L748.291 204.279ZM747.842 204.279H749.057L749.256 210.818V215H747.842V204.279ZM757.297 204.279H758.512V215H757.098V210.818L757.297 204.279ZM763.938 210.641V210.715C763.938 211.79 763.818 212.762 763.577 213.63C763.337 214.499 763.03 215.258 762.657 215.906C762.284 216.559 761.891 217.099 761.479 217.526C761.067 217.958 760.686 218.269 760.338 218.461L760.05 217.636C760.34 217.415 760.632 217.106 760.927 216.708C761.221 216.316 761.494 215.83 761.744 215.25C761.994 214.676 762.196 214.013 762.348 213.262C762.5 212.506 762.576 211.662 762.576 210.729V210.626C762.576 209.694 762.495 208.852 762.333 208.101C762.171 207.345 761.96 206.679 761.7 206.105C761.445 205.531 761.17 205.047 760.875 204.655C760.586 204.257 760.311 203.95 760.05 203.734L760.338 202.902C760.686 203.094 761.067 203.405 761.479 203.837C761.891 204.264 762.284 204.804 762.657 205.457C763.03 206.11 763.337 206.871 763.577 207.74C763.818 208.604 763.938 209.571 763.938 210.641Z" fill="black"/>
<path d="M882.432 451.279V462H881.019V452.442H875.732V462H874.311V451.279H882.432ZM893.264 456.301V456.978C893.264 457.783 893.163 458.505 892.962 459.143C892.761 459.781 892.471 460.324 892.093 460.77C891.715 461.217 891.261 461.558 890.731 461.794C890.206 462.029 889.616 462.147 888.964 462.147C888.33 462.147 887.749 462.029 887.218 461.794C886.693 461.558 886.237 461.217 885.849 460.77C885.466 460.324 885.169 459.781 884.958 459.143C884.747 458.505 884.641 457.783 884.641 456.978V456.301C884.641 455.496 884.744 454.777 884.951 454.143C885.162 453.505 885.459 452.963 885.842 452.516C886.224 452.064 886.679 451.721 887.204 451.485C887.734 451.25 888.316 451.132 888.949 451.132C889.602 451.132 890.191 451.25 890.716 451.485C891.246 451.721 891.7 452.064 892.078 452.516C892.461 452.963 892.753 453.505 892.954 454.143C893.161 454.777 893.264 455.496 893.264 456.301ZM891.857 456.978V456.286C891.857 455.648 891.791 455.083 891.659 454.593C891.531 454.102 891.342 453.689 891.092 453.356C890.841 453.022 890.534 452.769 890.171 452.597C889.813 452.425 889.405 452.339 888.949 452.339C888.507 452.339 888.107 452.425 887.749 452.597C887.395 452.769 887.091 453.022 886.836 453.356C886.585 453.689 886.391 454.102 886.254 454.593C886.116 455.083 886.048 455.648 886.048 456.286V456.978C886.048 457.621 886.116 458.191 886.254 458.687C886.391 459.177 886.588 459.592 886.843 459.931C887.103 460.265 887.41 460.518 887.763 460.689C888.122 460.861 888.522 460.947 888.964 460.947C889.425 460.947 889.835 460.861 890.193 460.689C890.552 460.518 890.854 460.265 891.099 459.931C891.349 459.592 891.538 459.177 891.666 458.687C891.794 458.191 891.857 457.621 891.857 456.978ZM901.864 458.591H903.278C903.204 459.268 903.01 459.874 902.696 460.41C902.382 460.945 901.938 461.369 901.363 461.683C900.789 461.993 900.072 462.147 899.213 462.147C898.585 462.147 898.013 462.029 897.498 461.794C896.987 461.558 896.548 461.224 896.18 460.792C895.811 460.356 895.527 459.833 895.325 459.224C895.129 458.61 895.031 457.928 895.031 457.177V456.109C895.031 455.358 895.129 454.678 895.325 454.07C895.527 453.456 895.814 452.931 896.187 452.494C896.565 452.057 897.019 451.721 897.549 451.485C898.079 451.25 898.676 451.132 899.338 451.132C900.148 451.132 900.833 451.284 901.393 451.588C901.952 451.893 902.387 452.315 902.696 452.855C903.01 453.39 903.204 454.011 903.278 454.718H901.864C901.795 454.217 901.668 453.787 901.481 453.429C901.295 453.066 901.03 452.786 900.686 452.59C900.342 452.393 899.893 452.295 899.338 452.295C898.862 452.295 898.443 452.386 898.079 452.568C897.721 452.749 897.419 453.007 897.174 453.341C896.933 453.675 896.751 454.075 896.629 454.541C896.506 455.007 896.445 455.525 896.445 456.095V457.177C896.445 457.702 896.499 458.196 896.607 458.657C896.72 459.119 896.889 459.523 897.115 459.872C897.341 460.221 897.628 460.495 897.976 460.697C898.325 460.893 898.737 460.991 899.213 460.991C899.817 460.991 900.298 460.896 900.656 460.704C901.015 460.513 901.285 460.238 901.466 459.879C901.653 459.521 901.786 459.092 901.864 458.591ZM908.955 451.279V462H907.556V451.279H908.955ZM912.401 451.279V452.442H904.117V451.279H912.401ZM921.259 456.986H918.542L918.527 455.844H920.994C921.401 455.844 921.757 455.776 922.062 455.638C922.366 455.501 922.602 455.304 922.768 455.049C922.94 454.789 923.026 454.48 923.026 454.121C923.026 453.729 922.95 453.41 922.798 453.164C922.651 452.914 922.422 452.732 922.113 452.619C921.809 452.501 921.421 452.442 920.95 452.442H918.859V462H917.437V451.279H920.95C921.499 451.279 921.99 451.336 922.422 451.448C922.854 451.556 923.22 451.728 923.519 451.964C923.824 452.195 924.055 452.489 924.212 452.847C924.369 453.206 924.447 453.635 924.447 454.136C924.447 454.578 924.334 454.978 924.109 455.336C923.883 455.69 923.569 455.979 923.166 456.205C922.768 456.431 922.302 456.576 921.767 456.64L921.259 456.986ZM921.193 462H917.982L918.785 460.844H921.193C921.644 460.844 922.027 460.765 922.341 460.608C922.66 460.451 922.903 460.23 923.07 459.946C923.237 459.656 923.321 459.315 923.321 458.922C923.321 458.525 923.249 458.181 923.107 457.891C922.965 457.602 922.741 457.378 922.437 457.221C922.133 457.064 921.74 456.986 921.259 456.986H919.234L919.249 455.844H922.017L922.319 456.257C922.835 456.301 923.272 456.448 923.63 456.698C923.988 456.944 924.261 457.258 924.447 457.641C924.639 458.024 924.734 458.446 924.734 458.907C924.734 459.575 924.587 460.14 924.293 460.601C924.003 461.058 923.593 461.406 923.063 461.647C922.533 461.882 921.909 462 921.193 462ZM932.054 459.541L937.333 451.279H938.754V462H937.333V453.731L932.054 462H930.64V451.279H932.054V459.541ZM948.341 455.888V457.045H942.539V455.888H948.341ZM942.76 451.279V462H941.339V451.279H942.76ZM949.578 451.279V462H948.164V451.279H949.578ZM958.576 458.591H959.99C959.916 459.268 959.722 459.874 959.408 460.41C959.094 460.945 958.65 461.369 958.075 461.683C957.501 461.993 956.784 462.147 955.925 462.147C955.297 462.147 954.725 462.029 954.21 461.794C953.699 461.558 953.26 461.224 952.892 460.792C952.523 460.356 952.239 459.833 952.037 459.224C951.841 458.61 951.743 457.928 951.743 457.177V456.109C951.743 455.358 951.841 454.678 952.037 454.07C952.239 453.456 952.526 452.931 952.899 452.494C953.277 452.057 953.731 451.721 954.261 451.485C954.791 451.25 955.388 451.132 956.05 451.132C956.86 451.132 957.545 451.284 958.105 451.588C958.664 451.893 959.099 452.315 959.408 452.855C959.722 453.39 959.916 454.011 959.99 454.718H958.576C958.507 454.217 958.38 453.787 958.193 453.429C958.007 453.066 957.742 452.786 957.398 452.59C957.054 452.393 956.605 452.295 956.05 452.295C955.574 452.295 955.155 452.386 954.791 452.568C954.433 452.749 954.131 453.007 953.886 453.341C953.645 453.675 953.463 454.075 953.341 454.541C953.218 455.007 953.157 455.525 953.157 456.095V457.177C953.157 457.702 953.211 458.196 953.319 458.657C953.432 459.119 953.601 459.523 953.827 459.872C954.053 460.221 954.34 460.495 954.688 460.697C955.037 460.893 955.449 460.991 955.925 460.991C956.529 460.991 957.01 460.896 957.368 460.704C957.727 460.513 957.997 460.238 958.178 459.879C958.365 459.521 958.498 459.092 958.576 458.591ZM965.667 451.279V462H964.268V451.279H965.667ZM969.113 451.279V452.442H960.829V451.279H969.113ZM974.083 452.229L970.534 462H969.083L973.17 451.279H974.105L974.083 452.229ZM977.058 462L973.501 452.229L973.479 451.279H974.414L978.516 462H977.058ZM976.874 458.031V459.195H970.851V458.031H976.874ZM986.601 451.279V452.442H981.432V462H980.018V451.279H986.601ZM992.3 457.796H989.436V456.64H992.3C992.855 456.64 993.304 456.551 993.647 456.374C993.991 456.198 994.241 455.952 994.398 455.638C994.56 455.324 994.641 454.966 994.641 454.563C994.641 454.195 994.56 453.849 994.398 453.525C994.241 453.201 993.991 452.941 993.647 452.744C993.304 452.543 992.855 452.442 992.3 452.442H989.767V462H988.346V451.279H992.3C993.11 451.279 993.795 451.419 994.354 451.699C994.914 451.979 995.338 452.366 995.628 452.862C995.918 453.353 996.063 453.915 996.063 454.548C996.063 455.236 995.918 455.822 995.628 456.308C995.338 456.794 994.914 457.165 994.354 457.42C993.795 457.67 993.11 457.796 992.3 457.796ZM1000.81 452.229L997.263 462H995.812L999.899 451.279H1000.83L1000.81 452.229ZM1003.79 462L1000.23 452.229L1000.21 451.279H1001.14L1005.24 462H1003.79ZM1003.6 458.031V459.195H997.579V458.031H1003.6ZM1007.13 451.279H1008.51L1012.02 460.019L1015.52 451.279H1016.91L1012.55 462H1011.47L1007.13 451.279ZM1006.68 451.279H1007.9L1008.09 457.818V462H1006.68V451.279ZM1016.13 451.279H1017.35V462H1015.94V457.818L1016.13 451.279ZM873.987 475.715V475.641C873.987 474.571 874.107 473.604 874.347 472.74C874.588 471.871 874.895 471.11 875.268 470.457C875.641 469.804 876.034 469.264 876.446 468.837C876.858 468.405 877.239 468.094 877.587 467.902L877.874 468.8C877.585 469.021 877.29 469.326 876.991 469.713C876.696 470.101 876.424 470.577 876.174 471.142C875.928 471.706 875.729 472.362 875.577 473.108C875.425 473.854 875.349 474.694 875.349 475.626V475.729C875.349 476.662 875.425 477.504 875.577 478.255C875.729 479.001 875.928 479.659 876.174 480.228C876.424 480.798 876.696 481.281 876.991 481.679C877.29 482.081 877.585 482.4 877.874 482.636L877.587 483.461C877.239 483.269 876.858 482.958 876.446 482.526C876.034 482.099 875.641 481.559 875.268 480.906C874.895 480.258 874.588 479.499 874.347 478.63C874.107 477.762 873.987 476.79 873.987 475.715ZM883.537 469.22V480H882.175V470.921L879.428 471.922V470.693L883.323 469.22H883.537ZM894.273 473.785V475.42C894.273 476.299 894.194 477.04 894.037 477.644C893.88 478.248 893.654 478.734 893.359 479.102C893.065 479.47 892.709 479.737 892.292 479.904C891.879 480.066 891.413 480.147 890.893 480.147C890.48 480.147 890.1 480.096 889.751 479.993C889.403 479.89 889.089 479.725 888.809 479.499C888.534 479.269 888.298 478.969 888.102 478.601C887.906 478.233 887.756 477.786 887.653 477.261C887.55 476.736 887.498 476.122 887.498 475.42V473.785C887.498 472.907 887.577 472.17 887.734 471.576C887.896 470.982 888.124 470.506 888.419 470.148C888.713 469.785 889.067 469.525 889.479 469.367C889.896 469.21 890.363 469.132 890.878 469.132C891.295 469.132 891.678 469.183 892.027 469.286C892.38 469.385 892.694 469.544 892.969 469.765C893.244 469.981 893.477 470.271 893.669 470.634C893.865 470.992 894.015 471.432 894.118 471.952C894.221 472.472 894.273 473.083 894.273 473.785ZM892.903 475.641V473.557C892.903 473.076 892.873 472.654 892.815 472.291C892.761 471.922 892.68 471.608 892.572 471.348C892.464 471.088 892.326 470.877 892.159 470.715C891.997 470.553 891.808 470.435 891.592 470.361C891.381 470.283 891.143 470.244 890.878 470.244C890.554 470.244 890.267 470.305 890.017 470.428C889.766 470.546 889.555 470.735 889.383 470.995C889.216 471.255 889.089 471.596 889 472.018C888.912 472.44 888.868 472.953 888.868 473.557V475.641C888.868 476.122 888.895 476.547 888.949 476.915C889.008 477.283 889.094 477.602 889.207 477.872C889.319 478.137 889.457 478.356 889.619 478.527C889.781 478.699 889.967 478.827 890.179 478.91C890.395 478.989 890.633 479.028 890.893 479.028C891.227 479.028 891.519 478.964 891.769 478.837C892.019 478.709 892.228 478.51 892.395 478.24C892.567 477.965 892.694 477.614 892.778 477.187C892.861 476.755 892.903 476.24 892.903 475.641ZM902.784 477.099C902.784 477.752 902.632 478.306 902.328 478.763C902.029 479.215 901.621 479.558 901.106 479.794C900.595 480.029 900.018 480.147 899.375 480.147C898.732 480.147 898.153 480.029 897.638 479.794C897.122 479.558 896.715 479.215 896.415 478.763C896.116 478.306 895.966 477.752 895.966 477.099C895.966 476.672 896.047 476.282 896.209 475.928C896.376 475.57 896.609 475.258 896.909 474.993C897.213 474.728 897.571 474.524 897.984 474.382C898.401 474.235 898.86 474.161 899.361 474.161C900.018 474.161 900.605 474.289 901.12 474.544C901.636 474.794 902.041 475.14 902.335 475.582C902.635 476.024 902.784 476.529 902.784 477.099ZM901.415 477.069C901.415 476.672 901.329 476.321 901.157 476.016C900.985 475.707 900.745 475.467 900.436 475.295C900.126 475.123 899.768 475.037 899.361 475.037C898.943 475.037 898.582 475.123 898.278 475.295C897.979 475.467 897.746 475.707 897.579 476.016C897.412 476.321 897.328 476.672 897.328 477.069C897.328 477.482 897.409 477.835 897.571 478.13C897.738 478.419 897.974 478.643 898.278 478.8C898.587 478.952 898.953 479.028 899.375 479.028C899.797 479.028 900.161 478.952 900.465 478.8C900.769 478.643 901.003 478.419 901.165 478.13C901.331 477.835 901.415 477.482 901.415 477.069ZM902.534 472.07C902.534 472.59 902.397 473.059 902.122 473.476C901.847 473.893 901.471 474.222 900.995 474.463C900.519 474.703 899.979 474.824 899.375 474.824C898.762 474.824 898.214 474.703 897.733 474.463C897.257 474.222 896.884 473.893 896.614 473.476C896.344 473.059 896.209 472.59 896.209 472.07C896.209 471.446 896.344 470.916 896.614 470.479C896.889 470.042 897.264 469.709 897.741 469.478C898.217 469.247 898.759 469.132 899.368 469.132C899.982 469.132 900.526 469.247 901.003 469.478C901.479 469.709 901.852 470.042 902.122 470.479C902.397 470.916 902.534 471.446 902.534 472.07ZM901.172 472.092C901.172 471.733 901.096 471.417 900.944 471.142C900.791 470.867 900.58 470.651 900.31 470.494C900.04 470.332 899.726 470.251 899.368 470.251C899.01 470.251 898.695 470.327 898.425 470.479C898.16 470.627 897.952 470.838 897.8 471.113C897.652 471.387 897.579 471.714 897.579 472.092C897.579 472.46 897.652 472.782 897.8 473.056C897.952 473.331 898.163 473.545 898.433 473.697C898.703 473.849 899.017 473.925 899.375 473.925C899.734 473.925 900.045 473.849 900.31 473.697C900.58 473.545 900.791 473.331 900.944 473.056C901.096 472.782 901.172 472.46 901.172 472.092ZM911.238 473.785V475.42C911.238 476.299 911.159 477.04 911.002 477.644C910.845 478.248 910.619 478.734 910.324 479.102C910.03 479.47 909.674 479.737 909.257 479.904C908.844 480.066 908.378 480.147 907.858 480.147C907.445 480.147 907.065 480.096 906.716 479.993C906.368 479.89 906.054 479.725 905.774 479.499C905.499 479.269 905.263 478.969 905.067 478.601C904.871 478.233 904.721 477.786 904.618 477.261C904.515 476.736 904.463 476.122 904.463 475.42V473.785C904.463 472.907 904.542 472.17 904.699 471.576C904.861 470.982 905.089 470.506 905.384 470.148C905.678 469.785 906.032 469.525 906.444 469.367C906.861 469.21 907.328 469.132 907.843 469.132C908.26 469.132 908.643 469.183 908.992 469.286C909.345 469.385 909.659 469.544 909.934 469.765C910.209 469.981 910.442 470.271 910.634 470.634C910.83 470.992 910.98 471.432 911.083 471.952C911.186 472.472 911.238 473.083 911.238 473.785ZM909.868 475.641V473.557C909.868 473.076 909.838 472.654 909.78 472.291C909.726 471.922 909.645 471.608 909.537 471.348C909.429 471.088 909.291 470.877 909.124 470.715C908.962 470.553 908.773 470.435 908.557 470.361C908.346 470.283 908.108 470.244 907.843 470.244C907.519 470.244 907.232 470.305 906.982 470.428C906.731 470.546 906.52 470.735 906.348 470.995C906.181 471.255 906.054 471.596 905.965 472.018C905.877 472.44 905.833 472.953 905.833 473.557V475.641C905.833 476.122 905.86 476.547 905.914 476.915C905.973 477.283 906.059 477.602 906.172 477.872C906.284 478.137 906.422 478.356 906.584 478.527C906.746 478.699 906.932 478.827 907.144 478.91C907.36 478.989 907.598 479.028 907.858 479.028C908.192 479.028 908.484 478.964 908.734 478.837C908.984 478.709 909.193 478.51 909.36 478.24C909.532 477.965 909.659 477.614 909.743 477.187C909.826 476.755 909.868 476.24 909.868 475.641ZM918.004 469.279L920.582 473.388L923.159 469.279H924.815L921.428 474.588L924.896 480H923.225L920.582 475.81L917.938 480H916.267L919.735 474.588L916.348 469.279H918.004ZM934.402 469.22V480H933.04V470.921L930.294 471.922V470.693L934.189 469.22H934.402ZM945.138 473.785V475.42C945.138 476.299 945.06 477.04 944.902 477.644C944.745 478.248 944.52 478.734 944.225 479.102C943.93 479.47 943.575 479.737 943.157 479.904C942.745 480.066 942.279 480.147 941.758 480.147C941.346 480.147 940.966 480.096 940.617 479.993C940.268 479.89 939.954 479.725 939.675 479.499C939.4 479.269 939.164 478.969 938.968 478.601C938.771 478.233 938.622 477.786 938.518 477.261C938.415 476.736 938.364 476.122 938.364 475.42V473.785C938.364 472.907 938.442 472.17 938.599 471.576C938.761 470.982 938.99 470.506 939.284 470.148C939.579 469.785 939.932 469.525 940.345 469.367C940.762 469.21 941.228 469.132 941.744 469.132C942.161 469.132 942.544 469.183 942.892 469.286C943.246 469.385 943.56 469.544 943.835 469.765C944.11 469.981 944.343 470.271 944.534 470.634C944.731 470.992 944.88 471.432 944.983 471.952C945.087 472.472 945.138 473.083 945.138 473.785ZM943.769 475.641V473.557C943.769 473.076 943.739 472.654 943.68 472.291C943.626 471.922 943.545 471.608 943.437 471.348C943.329 471.088 943.192 470.877 943.025 470.715C942.863 470.553 942.674 470.435 942.458 470.361C942.247 470.283 942.009 470.244 941.744 470.244C941.42 470.244 941.132 470.305 940.882 470.428C940.632 470.546 940.421 470.735 940.249 470.995C940.082 471.255 939.954 471.596 939.866 472.018C939.778 472.44 939.733 472.953 939.733 473.557V475.641C939.733 476.122 939.76 476.547 939.814 476.915C939.873 477.283 939.959 477.602 940.072 477.872C940.185 478.137 940.322 478.356 940.484 478.527C940.646 478.699 940.833 478.827 941.044 478.91C941.26 478.989 941.498 479.028 941.758 479.028C942.092 479.028 942.384 478.964 942.635 478.837C942.885 478.709 943.094 478.51 943.26 478.24C943.432 477.965 943.56 477.614 943.643 477.187C943.727 476.755 943.769 476.24 943.769 475.641ZM953.65 477.099C953.65 477.752 953.498 478.306 953.193 478.763C952.894 479.215 952.487 479.558 951.971 479.794C951.461 480.029 950.884 480.147 950.241 480.147C949.598 480.147 949.019 480.029 948.503 479.794C947.988 479.558 947.58 479.215 947.281 478.763C946.981 478.306 946.832 477.752 946.832 477.099C946.832 476.672 946.913 476.282 947.075 475.928C947.242 475.57 947.475 475.258 947.774 474.993C948.078 474.728 948.437 474.524 948.849 474.382C949.266 474.235 949.725 474.161 950.226 474.161C950.884 474.161 951.47 474.289 951.986 474.544C952.501 474.794 952.906 475.14 953.201 475.582C953.5 476.024 953.65 476.529 953.65 477.099ZM952.28 477.069C952.28 476.672 952.195 476.321 952.023 476.016C951.851 475.707 951.61 475.467 951.301 475.295C950.992 475.123 950.634 475.037 950.226 475.037C949.809 475.037 949.448 475.123 949.144 475.295C948.844 475.467 948.611 475.707 948.444 476.016C948.277 476.321 948.194 476.672 948.194 477.069C948.194 477.482 948.275 477.835 948.437 478.13C948.604 478.419 948.839 478.643 949.144 478.8C949.453 478.952 949.819 479.028 950.241 479.028C950.663 479.028 951.026 478.952 951.331 478.8C951.635 478.643 951.868 478.419 952.03 478.13C952.197 477.835 952.28 477.482 952.28 477.069ZM953.4 472.07C953.4 472.59 953.262 473.059 952.987 473.476C952.712 473.893 952.337 474.222 951.861 474.463C951.385 474.703 950.845 474.824 950.241 474.824C949.627 474.824 949.08 474.703 948.599 474.463C948.123 474.222 947.75 473.893 947.48 473.476C947.21 473.059 947.075 472.59 947.075 472.07C947.075 471.446 947.21 470.916 947.48 470.479C947.754 470.042 948.13 469.709 948.606 469.478C949.082 469.247 949.625 469.132 950.233 469.132C950.847 469.132 951.392 469.247 951.868 469.478C952.344 469.709 952.717 470.042 952.987 470.479C953.262 470.916 953.4 471.446 953.4 472.07ZM952.037 472.092C952.037 471.733 951.961 471.417 951.809 471.142C951.657 470.867 951.446 470.651 951.176 470.494C950.906 470.332 950.592 470.251 950.233 470.251C949.875 470.251 949.561 470.327 949.291 470.479C949.026 470.627 948.817 470.838 948.665 471.113C948.518 471.387 948.444 471.714 948.444 472.092C948.444 472.46 948.518 472.782 948.665 473.056C948.817 473.331 949.028 473.545 949.298 473.697C949.568 473.849 949.882 473.925 950.241 473.925C950.599 473.925 950.911 473.849 951.176 473.697C951.446 473.545 951.657 473.331 951.809 473.056C951.961 472.782 952.037 472.46 952.037 472.092ZM962.103 473.785V475.42C962.103 476.299 962.025 477.04 961.867 477.644C961.71 478.248 961.485 478.734 961.19 479.102C960.895 479.47 960.54 479.737 960.122 479.904C959.71 480.066 959.244 480.147 958.723 480.147C958.311 480.147 957.931 480.096 957.582 479.993C957.233 479.89 956.919 479.725 956.64 479.499C956.365 479.269 956.129 478.969 955.933 478.601C955.736 478.233 955.587 477.786 955.483 477.261C955.38 476.736 955.329 476.122 955.329 475.42V473.785C955.329 472.907 955.407 472.17 955.564 471.576C955.726 470.982 955.955 470.506 956.249 470.148C956.544 469.785 956.897 469.525 957.31 469.367C957.727 469.21 958.193 469.132 958.709 469.132C959.126 469.132 959.509 469.183 959.857 469.286C960.211 469.385 960.525 469.544 960.8 469.765C961.075 469.981 961.308 470.271 961.499 470.634C961.696 470.992 961.845 471.432 961.948 471.952C962.052 472.472 962.103 473.083 962.103 473.785ZM960.733 475.641V473.557C960.733 473.076 960.704 472.654 960.645 472.291C960.591 471.922 960.51 471.608 960.402 471.348C960.294 471.088 960.157 470.877 959.99 470.715C959.828 470.553 959.639 470.435 959.423 470.361C959.212 470.283 958.974 470.244 958.709 470.244C958.385 470.244 958.097 470.305 957.847 470.428C957.597 470.546 957.386 470.735 957.214 470.995C957.047 471.255 956.919 471.596 956.831 472.018C956.743 472.44 956.698 472.953 956.698 473.557V475.641C956.698 476.122 956.725 476.547 956.779 476.915C956.838 477.283 956.924 477.602 957.037 477.872C957.15 478.137 957.287 478.356 957.449 478.527C957.611 478.699 957.798 478.827 958.009 478.91C958.225 478.989 958.463 479.028 958.723 479.028C959.057 479.028 959.349 478.964 959.6 478.837C959.85 478.709 960.059 478.51 960.225 478.24C960.397 477.965 960.525 477.614 960.608 477.187C960.692 476.755 960.733 476.24 960.733 475.641ZM976.137 469.279V480H974.724V470.442H969.437V480H968.016V469.279H976.137ZM980.195 477.541L985.474 469.279H986.895V480H985.474V471.731L980.195 480H978.781V469.279H980.195V477.541ZM990.967 469.279V480H989.546V469.279H990.967ZM997.572 469.279L992.918 475.177H990.4L990.179 473.999H992.072L995.812 469.279H997.572ZM996.144 480L992.116 474.993L992.911 473.749L997.881 480H996.144ZM1005.41 476.591H1006.82C1006.75 477.268 1006.55 477.874 1006.24 478.41C1005.92 478.945 1005.48 479.369 1004.91 479.683C1004.33 479.993 1003.61 480.147 1002.76 480.147C1002.13 480.147 1001.56 480.029 1001.04 479.794C1000.53 479.558 1000.09 479.224 999.722 478.792C999.354 478.356 999.069 477.833 998.868 477.224C998.672 476.61 998.573 475.928 998.573 475.177V474.109C998.573 473.358 998.672 472.678 998.868 472.07C999.069 471.456 999.356 470.931 999.729 470.494C1000.11 470.057 1000.56 469.721 1001.09 469.485C1001.62 469.25 1002.22 469.132 1002.88 469.132C1003.69 469.132 1004.38 469.284 1004.94 469.588C1005.49 469.893 1005.93 470.315 1006.24 470.855C1006.55 471.39 1006.75 472.011 1006.82 472.718H1005.41C1005.34 472.217 1005.21 471.787 1005.02 471.429C1004.84 471.066 1004.57 470.786 1004.23 470.59C1003.88 470.393 1003.44 470.295 1002.88 470.295C1002.4 470.295 1001.99 470.386 1001.62 470.568C1001.26 470.749 1000.96 471.007 1000.72 471.341C1000.48 471.675 1000.29 472.075 1000.17 472.541C1000.05 473.007 999.987 473.525 999.987 474.095V475.177C999.987 475.702 1000.04 476.196 1000.15 476.657C1000.26 477.119 1000.43 477.523 1000.66 477.872C1000.88 478.221 1001.17 478.495 1001.52 478.697C1001.87 478.893 1002.28 478.991 1002.76 478.991C1003.36 478.991 1003.84 478.896 1004.2 478.704C1004.56 478.513 1004.83 478.238 1005.01 477.879C1005.2 477.521 1005.33 477.092 1005.41 476.591ZM1008.57 479.278C1008.57 479.048 1008.64 478.854 1008.79 478.697C1008.93 478.535 1009.14 478.454 1009.42 478.454C1009.69 478.454 1009.9 478.535 1010.05 478.697C1010.19 478.854 1010.27 479.048 1010.27 479.278C1010.27 479.504 1010.19 479.696 1010.05 479.853C1009.9 480.01 1009.69 480.088 1009.42 480.088C1009.14 480.088 1008.93 480.01 1008.79 479.853C1008.64 479.696 1008.57 479.504 1008.57 479.278ZM1015.66 475.641V475.715C1015.66 476.79 1015.54 477.762 1015.3 478.63C1015.06 479.499 1014.76 480.258 1014.38 480.906C1014.01 481.559 1013.62 482.099 1013.2 482.526C1012.79 482.958 1012.41 483.269 1012.06 483.461L1011.78 482.636C1012.07 482.415 1012.36 482.106 1012.65 481.708C1012.95 481.316 1013.22 480.83 1013.47 480.25C1013.72 479.676 1013.92 479.013 1014.07 478.262C1014.23 477.506 1014.3 476.662 1014.3 475.729V475.626C1014.3 474.694 1014.22 473.852 1014.06 473.101C1013.9 472.345 1013.69 471.679 1013.43 471.105C1013.17 470.531 1012.89 470.047 1012.6 469.655C1012.31 469.257 1012.04 468.95 1011.78 468.734L1012.06 467.902C1012.41 468.094 1012.79 468.405 1013.2 468.837C1013.62 469.264 1014.01 469.804 1014.38 470.457C1014.76 471.11 1015.06 471.871 1015.3 472.74C1015.54 473.604 1015.66 474.571 1015.66 475.641Z" fill="black"/>
</g>
<defs>
<clipPath id="clip0_432_565">
<rect width="1312.93" height="637.43" fill="white"/>
</clipPath>
</defs>
</svg>
