<svg width="817" height="206" viewBox="0 0 817 206" fill="none" xmlns="http://www.w3.org/2000/svg">
<path d="M15.4453 13.0352V13.9141C15.4453 15.2031 15.2734 16.3633 14.9297 17.3945C14.5859 18.418 14.0977 19.2891 13.4648 20.0078C12.832 20.7266 12.0781 21.2773 11.2031 21.6602C10.3281 22.043 9.35547 22.2344 8.28516 22.2344C7.23047 22.2344 6.26172 22.043 5.37891 21.6602C4.50391 21.2773 3.74609 20.7266 3.10547 20.0078C2.46484 19.2891 1.96875 18.418 1.61719 17.3945C1.26562 16.3633 1.08984 15.2031 1.08984 13.9141V13.0352C1.08984 11.7383 1.26562 10.5781 1.61719 9.55469C1.96875 8.53125 2.46094 7.66016 3.09375 6.94141C3.72656 6.21484 4.48047 5.66016 5.35547 5.27734C6.23828 4.89453 7.20703 4.70312 8.26172 4.70312C9.33203 4.70312 10.3047 4.89453 11.1797 5.27734C12.0547 5.66016 12.8086 6.21484 13.4414 6.94141C14.082 7.66016 14.5742 8.53125 14.918 9.55469C15.2695 10.5781 15.4453 11.7383 15.4453 13.0352ZM12.1875 13.9141V13.0117C12.1875 12.082 12.1016 11.2656 11.9297 10.5625C11.7578 9.85156 11.5039 9.25391 11.168 8.76953C10.832 8.28516 10.418 7.92188 9.92578 7.67969C9.43359 7.42969 8.87891 7.30469 8.26172 7.30469C7.63672 7.30469 7.08203 7.42969 6.59766 7.67969C6.12109 7.92188 5.71484 8.28516 5.37891 8.76953C5.04297 9.25391 4.78516 9.85156 4.60547 10.5625C4.43359 11.2656 4.34766 12.082 4.34766 13.0117V13.9141C4.34766 14.8359 4.43359 15.6523 4.60547 16.3633C4.78516 17.0742 5.04297 17.6758 5.37891 18.168C5.72266 18.6523 6.13672 19.0195 6.62109 19.2695C7.10547 19.5195 7.66016 19.6445 8.28516 19.6445C8.91016 19.6445 9.46484 19.5195 9.94922 19.2695C10.4336 19.0195 10.8398 18.6523 11.168 18.168C11.5039 17.6758 11.7578 17.0742 11.9297 16.3633C12.1016 15.6523 12.1875 14.8359 12.1875 13.9141ZM20.3672 9.32031L22.6289 13.3516L24.9258 9.32031H28.2891L24.5625 15.5312L28.4414 22H25.0781L22.6523 17.7695L20.2148 22H16.8516L20.7188 15.5312L17.0156 9.32031H20.3672ZM33.1758 11.7578V26.875H30.0703V9.32031H32.9414L33.1758 11.7578ZM41.3203 15.5312V15.7773C41.3203 16.6992 41.2109 17.5547 40.9922 18.3438C40.7812 19.125 40.4688 19.8086 40.0547 20.3945C39.6406 20.9727 39.125 21.4258 38.5078 21.7539C37.8984 22.0742 37.1953 22.2344 36.3984 22.2344C35.6172 22.2344 34.9375 22.0859 34.3594 21.7891C33.7812 21.4844 33.293 21.0547 32.8945 20.5C32.4961 19.9453 32.1758 19.3008 31.9336 18.5664C31.6992 17.8242 31.5234 17.0156 31.4062 16.1406V15.3555C31.5234 14.4258 31.6992 13.582 31.9336 12.8242C32.1758 12.0586 32.4961 11.3984 32.8945 10.8438C33.293 10.2812 33.7773 9.84766 34.3477 9.54297C34.9258 9.23828 35.6016 9.08594 36.375 9.08594C37.1797 9.08594 37.8867 9.23828 38.4961 9.54297C39.1133 9.84766 39.6328 10.2852 40.0547 10.8555C40.4766 11.4258 40.793 12.1055 41.0039 12.8945C41.2148 13.6836 41.3203 14.5625 41.3203 15.5312ZM38.2148 15.7773V15.5312C38.2148 14.9688 38.1641 14.4492 38.0625 13.9727C37.9609 13.4883 37.8047 13.0664 37.5938 12.707C37.3828 12.3398 37.1094 12.0547 36.7734 11.8516C36.4375 11.6484 36.0312 11.5469 35.5547 11.5469C35.0781 11.5469 34.668 11.625 34.3242 11.7812C33.9805 11.9375 33.6992 12.1602 33.4805 12.4492C33.2617 12.7383 33.0898 13.082 32.9648 13.4805C32.8477 13.8711 32.7695 14.3047 32.7305 14.7812V16.7266C32.8008 17.3047 32.9375 17.8242 33.1406 18.2852C33.3438 18.7461 33.6406 19.1133 34.0312 19.3867C34.4297 19.6602 34.9453 19.7969 35.5781 19.7969C36.0547 19.7969 36.4609 19.6914 36.7969 19.4805C37.1328 19.2695 37.4062 18.9805 37.6172 18.6133C37.8281 18.2383 37.9805 17.8086 38.0742 17.3242C38.168 16.8398 38.2148 16.3242 38.2148 15.7773ZM50.5664 19.3047V13.457C50.5664 13.0273 50.4922 12.6562 50.3438 12.3438C50.1953 12.0312 49.9688 11.7891 49.6641 11.6172C49.3594 11.4453 48.9727 11.3594 48.5039 11.3594C48.0898 11.3594 47.7266 11.4297 47.4141 11.5703C47.1094 11.7109 46.875 11.9102 46.7109 12.168C46.5469 12.418 46.4648 12.707 46.4648 13.0352H43.3594C43.3594 12.5117 43.4844 12.0156 43.7344 11.5469C43.9844 11.0703 44.3398 10.6484 44.8008 10.2812C45.2695 9.90625 45.8281 9.61328 46.4766 9.40234C47.1328 9.19141 47.8672 9.08594 48.6797 9.08594C49.6406 9.08594 50.4961 9.25 51.2461 9.57812C52.0039 9.89844 52.5977 10.3828 53.0273 11.0312C53.4648 11.6797 53.6836 12.4961 53.6836 13.4805V19.0117C53.6836 19.6445 53.7227 20.1875 53.8008 20.6406C53.8867 21.0859 54.0117 21.4727 54.1758 21.8008V22H51.0234C50.875 21.6797 50.7617 21.2734 50.6836 20.7812C50.6055 20.2812 50.5664 19.7891 50.5664 19.3047ZM51 14.2773L51.0234 16.1172H49.0664C48.582 16.1172 48.1562 16.168 47.7891 16.2695C47.4219 16.3633 47.1211 16.5039 46.8867 16.6914C46.6523 16.8711 46.4766 17.0898 46.3594 17.3477C46.2422 17.5977 46.1836 17.8828 46.1836 18.2031C46.1836 18.5156 46.2539 18.7969 46.3945 19.0469C46.543 19.2969 46.7539 19.4961 47.0273 19.6445C47.3086 19.7852 47.6367 19.8555 48.0117 19.8555C48.5586 19.8555 49.0352 19.7461 49.4414 19.5273C49.8477 19.3008 50.1641 19.0273 50.3906 18.707C50.6172 18.3867 50.7383 18.082 50.7539 17.793L51.6445 19.1289C51.5352 19.4492 51.3711 19.7891 51.1523 20.1484C50.9336 20.5078 50.6523 20.8438 50.3086 21.1562C49.9648 21.4688 49.5508 21.7266 49.0664 21.9297C48.582 22.1328 48.0195 22.2344 47.3789 22.2344C46.5586 22.2344 45.8242 22.0703 45.1758 21.7422C44.5273 21.4141 44.0156 20.9648 43.6406 20.3945C43.2656 19.8242 43.0781 19.1758 43.0781 18.4492C43.0781 17.7773 43.2031 17.1836 43.4531 16.668C43.7031 16.1523 44.0742 15.7188 44.5664 15.3672C45.0586 15.0078 45.668 14.7383 46.3945 14.5586C47.1289 14.3711 47.9688 14.2773 48.9141 14.2773H51ZM65.1328 14.5234V16.9492H58.6289V14.5234H65.1328ZM59.6016 9.32031V22H56.4961V9.32031H59.6016ZM67.3008 9.32031V22H64.1836V9.32031H67.3008ZM78.7734 14.5234V16.9492H72.2695V14.5234H78.7734ZM73.2422 9.32031V22H70.1367V9.32031H73.2422ZM80.9414 9.32031V22H77.8242V9.32031H80.9414ZM83.2031 15.7891V15.543C83.2031 14.6133 83.3359 13.7578 83.6016 12.9766C83.8672 12.1875 84.2539 11.5039 84.7617 10.9258C85.2695 10.3477 85.8906 9.89844 86.625 9.57812C87.3594 9.25 88.1953 9.08594 89.1328 9.08594C90.0859 9.08594 90.9297 9.25 91.6641 9.57812C92.4062 9.89844 93.0312 10.3477 93.5391 10.9258C94.0469 11.5039 94.4336 12.1875 94.6992 12.9766C94.9648 13.7578 95.0977 14.6133 95.0977 15.543V15.7891C95.0977 16.7109 94.9648 17.5664 94.6992 18.3555C94.4336 19.1367 94.0469 19.8203 93.5391 20.4062C93.0312 20.9844 92.4102 21.4336 91.6758 21.7539C90.9414 22.0742 90.1016 22.2344 89.1562 22.2344C88.2188 22.2344 87.3789 22.0742 86.6367 21.7539C85.8945 21.4336 85.2695 20.9844 84.7617 20.4062C84.2539 19.8203 83.8672 19.1367 83.6016 18.3555C83.3359 17.5664 83.2031 16.7109 83.2031 15.7891ZM86.2969 15.543V15.7891C86.2969 16.3438 86.3516 16.8633 86.4609 17.3477C86.5703 17.832 86.7383 18.2578 86.9648 18.625C87.1914 18.9922 87.4844 19.2812 87.8438 19.4922C88.2109 19.6953 88.6484 19.7969 89.1562 19.7969C89.6562 19.7969 90.0859 19.6953 90.4453 19.4922C90.8047 19.2812 91.0977 18.9922 91.3242 18.625C91.5586 18.2578 91.7305 17.832 91.8398 17.3477C91.9492 16.8633 92.0039 16.3438 92.0039 15.7891V15.543C92.0039 14.9961 91.9492 14.4844 91.8398 14.0078C91.7305 13.5234 91.5586 13.0977 91.3242 12.7305C91.0977 12.3555 90.8008 12.0625 90.4336 11.8516C90.0742 11.6328 89.6406 11.5234 89.1328 11.5234C88.6328 11.5234 88.2031 11.6328 87.8438 11.8516C87.4844 12.0625 87.1914 12.3555 86.9648 12.7305C86.7383 13.0977 86.5703 13.5234 86.4609 14.0078C86.3516 14.4844 86.2969 14.9961 86.2969 15.543ZM103.043 22.2344C102.082 22.2344 101.219 22.0781 100.453 21.7656C99.6875 21.4531 99.0352 21.0195 98.4961 20.4648C97.9648 19.9023 97.5547 19.25 97.2656 18.5078C96.9844 17.7578 96.8438 16.9531 96.8438 16.0938V15.625C96.8438 14.6484 96.9844 13.7617 97.2656 12.9648C97.5469 12.1602 97.9453 11.4688 98.4609 10.8906C98.9766 10.3125 99.5938 9.86719 100.312 9.55469C101.031 9.24219 101.824 9.08594 102.691 9.08594C103.59 9.08594 104.383 9.23828 105.07 9.54297C105.758 9.83984 106.332 10.2617 106.793 10.8086C107.254 11.3555 107.602 12.0117 107.836 12.7773C108.07 13.5352 108.188 14.375 108.188 15.2969V16.5977H98.25V14.4648H105.141V14.2305C105.125 13.7383 105.031 13.2891 104.859 12.8828C104.688 12.4688 104.422 12.1406 104.062 11.8984C103.703 11.6484 103.238 11.5234 102.668 11.5234C102.207 11.5234 101.805 11.625 101.461 11.8281C101.125 12.0234 100.844 12.3047 100.617 12.6719C100.398 13.0312 100.234 13.4609 100.125 13.9609C100.016 14.4609 99.9609 15.0156 99.9609 15.625V16.0938C99.9609 16.625 100.031 17.1172 100.172 17.5703C100.32 18.0234 100.535 18.418 100.816 18.7539C101.105 19.082 101.449 19.3398 101.848 19.5273C102.254 19.707 102.715 19.7969 103.23 19.7969C103.879 19.7969 104.465 19.6719 104.988 19.4219C105.52 19.1641 105.98 18.7852 106.371 18.2852L107.93 19.9023C107.664 20.293 107.305 20.668 106.852 21.0273C106.406 21.3867 105.867 21.6797 105.234 21.9062C104.602 22.125 103.871 22.2344 103.043 22.2344ZM124.746 9.32031V11.7695H118.547V9.32031H124.746ZM119.367 9.32031V22H116.262V9.32031H119.367ZM127.09 9.32031V22H123.973V9.32031H127.09ZM129.352 15.7891V15.543C129.352 14.6133 129.484 13.7578 129.75 12.9766C130.016 12.1875 130.402 11.5039 130.91 10.9258C131.418 10.3477 132.039 9.89844 132.773 9.57812C133.508 9.25 134.344 9.08594 135.281 9.08594C136.234 9.08594 137.078 9.25 137.812 9.57812C138.555 9.89844 139.18 10.3477 139.688 10.9258C140.195 11.5039 140.582 12.1875 140.848 12.9766C141.113 13.7578 141.246 14.6133 141.246 15.543V15.7891C141.246 16.7109 141.113 17.5664 140.848 18.3555C140.582 19.1367 140.195 19.8203 139.688 20.4062C139.18 20.9844 138.559 21.4336 137.824 21.7539C137.09 22.0742 136.25 22.2344 135.305 22.2344C134.367 22.2344 133.527 22.0742 132.785 21.7539C132.043 21.4336 131.418 20.9844 130.91 20.4062C130.402 19.8203 130.016 19.1367 129.75 18.3555C129.484 17.5664 129.352 16.7109 129.352 15.7891ZM132.445 15.543V15.7891C132.445 16.3438 132.5 16.8633 132.609 17.3477C132.719 17.832 132.887 18.2578 133.113 18.625C133.34 18.9922 133.633 19.2812 133.992 19.4922C134.359 19.6953 134.797 19.7969 135.305 19.7969C135.805 19.7969 136.234 19.6953 136.594 19.4922C136.953 19.2812 137.246 18.9922 137.473 18.625C137.707 18.2578 137.879 17.832 137.988 17.3477C138.098 16.8633 138.152 16.3438 138.152 15.7891V15.543C138.152 14.9961 138.098 14.4844 137.988 14.0078C137.879 13.5234 137.707 13.0977 137.473 12.7305C137.246 12.3555 136.949 12.0625 136.582 11.8516C136.223 11.6328 135.789 11.5234 135.281 11.5234C134.781 11.5234 134.352 11.6328 133.992 11.8516C133.633 12.0625 133.34 12.3555 133.113 12.7305C132.887 13.0977 132.719 13.5234 132.609 14.0078C132.5 14.4844 132.445 14.9961 132.445 15.543ZM151.828 9.32031V11.7695H145.617V9.32031H151.828ZM154.16 9.32031V22H151.066V9.32031H154.16ZM144.844 9.32031H147.902L147.562 15.6484C147.508 16.5781 147.41 17.3945 147.27 18.0977C147.129 18.793 146.941 19.3906 146.707 19.8906C146.473 20.3828 146.188 20.7852 145.852 21.0977C145.516 21.4102 145.125 21.6406 144.68 21.7891C144.242 21.9297 143.75 22 143.203 22H142.254L142.219 19.5039L142.664 19.4688C142.938 19.4453 143.172 19.3711 143.367 19.2461C143.57 19.1211 143.742 18.9414 143.883 18.707C144.031 18.4727 144.152 18.1719 144.246 17.8047C144.348 17.4297 144.426 16.9922 144.48 16.4922C144.543 15.9844 144.586 15.3984 144.609 14.7344L144.844 9.32031ZM162.691 22.2344C161.73 22.2344 160.867 22.0781 160.102 21.7656C159.336 21.4531 158.684 21.0195 158.145 20.4648C157.613 19.9023 157.203 19.25 156.914 18.5078C156.633 17.7578 156.492 16.9531 156.492 16.0938V15.625C156.492 14.6484 156.633 13.7617 156.914 12.9648C157.195 12.1602 157.594 11.4688 158.109 10.8906C158.625 10.3125 159.242 9.86719 159.961 9.55469C160.68 9.24219 161.473 9.08594 162.34 9.08594C163.238 9.08594 164.031 9.23828 164.719 9.54297C165.406 9.83984 165.98 10.2617 166.441 10.8086C166.902 11.3555 167.25 12.0117 167.484 12.7773C167.719 13.5352 167.836 14.375 167.836 15.2969V16.5977H157.898V14.4648H164.789V14.2305C164.773 13.7383 164.68 13.2891 164.508 12.8828C164.336 12.4688 164.07 12.1406 163.711 11.8984C163.352 11.6484 162.887 11.5234 162.316 11.5234C161.855 11.5234 161.453 11.625 161.109 11.8281C160.773 12.0234 160.492 12.3047 160.266 12.6719C160.047 13.0312 159.883 13.4609 159.773 13.9609C159.664 14.4609 159.609 15.0156 159.609 15.625V16.0938C159.609 16.625 159.68 17.1172 159.82 17.5703C159.969 18.0234 160.184 18.418 160.465 18.7539C160.754 19.082 161.098 19.3398 161.496 19.5273C161.902 19.707 162.363 19.7969 162.879 19.7969C163.527 19.7969 164.113 19.6719 164.637 19.4219C165.168 19.1641 165.629 18.7852 166.02 18.2852L167.578 19.9023C167.312 20.293 166.953 20.668 166.5 21.0273C166.055 21.3867 165.516 21.6797 164.883 21.9062C164.25 22.125 163.52 22.2344 162.691 22.2344Z" fill="black"/>
<path d="M365.852 79H1.19531V204.636H365.852V79Z" stroke="#008C95" stroke-width="0.8"/>
<path d="M334.247 110.516H32.7188V173.114H334.247V110.516Z" stroke="#008C95" stroke-width="0.8"/>
<path d="M15.9332 92.1471L18.1207 95.6346L20.3082 92.1471H21.7145L18.8395 96.6533L21.7832 101.247H20.3645L18.1207 97.6908L15.877 101.247H14.4582L17.402 96.6533L14.527 92.1471H15.9332Z" fill="#008C95"/>
<path d="M349.039 92.1471L351.226 95.6346L353.414 92.1471H354.82L351.945 96.6533L354.889 101.247H353.47L351.226 97.6908L348.982 101.247H347.564L350.507 96.6533L347.632 92.1471H349.039Z" fill="#008C95"/>
<path d="M15.9332 186.176L18.1207 189.664L20.3082 186.176H21.7145L18.8395 190.683L21.7832 195.276H20.3645L18.1207 191.72L15.877 195.276H14.4582L17.402 190.683L14.527 186.176H15.9332Z" fill="#008C95"/>
<path d="M349.039 186.176L351.226 189.664L353.414 186.176H354.82L351.945 190.683L354.889 195.276H353.47L351.226 191.72L348.982 195.276H347.564L350.507 190.683L347.632 186.176H349.039Z" fill="#008C95"/>
<path d="M100.055 173.421H119.795C126.167 173.421 127.284 169.233 127.647 165.422C127.975 161.973 132.491 110.278 132.491 110.278H112.863C107.279 110.278 105.311 113.482 104.843 118.745C104.613 121.363 100.055 173.393 100.055 173.393" fill="#008C95"/>
<path d="M236.455 158.616H229.58L233.768 110.3H206.894C206.894 110.3 202.301 163.754 202.008 166.406C201.715 169.059 204.368 173.421 208.988 173.421H255.609C257.35 173.416 259.028 172.765 260.318 171.594C261.607 170.424 262.416 168.816 262.589 167.083C262.861 163.977 267.545 110.3 267.545 110.3H240.629L236.455 158.616Z" fill="#008C95"/>
<path d="M45.0667 110.306C40.2574 110.306 37.6329 112.798 37.1373 118.683C36.886 121.607 35.2037 140.572 34.9874 143.309C34.771 146.045 35.7901 148.439 39.1755 148.439H68.3804L67.3403 160.305H60.423L60.9047 154.833H33.9613C33.9613 154.833 33.2004 164.277 32.8514 167.502C32.5024 170.727 33.5495 173.4 37.7375 173.4H85.5516C93.125 173.4 93.5089 167.816 93.9277 163.628C94.3396 159.733 95.8891 141.361 96.0916 139.044C96.294 136.726 94.6537 135.267 92.441 135.267H62.5868L63.6199 123.401H70.6001L70.1254 128.867H97.0339C97.0339 128.867 97.8924 118.292 98.1926 115.318C98.4927 112.345 96.9641 110.271 93.83 110.271H45.0667" fill="#008C95"/>
<path d="M162.905 148.425H169.781L168.741 160.291H161.872L162.905 148.425ZM171.98 123.429L170.947 135.295H164.071L165.111 123.429H171.98ZM139.347 110.299L133.826 173.421H187.671C192.208 173.421 194.77 170.594 195.182 165.742C195.349 163.767 195.949 157.073 196.431 151.573C196.606 149.597 196.138 147.859 194.435 146.61L188.097 141.933C188.097 141.933 194.184 137.947 195.775 136.914C197.366 135.881 197.932 134.618 198.12 132.175C198.567 126.682 199.153 120.399 199.286 118.661C199.642 114.11 197.087 110.285 191.608 110.285L139.347 110.299Z" fill="#008C95"/>
<path d="M298.705 140.767L300.101 125.111H306.934L305.538 140.767H298.705ZM327.631 110.299H274.463L268.941 173.413H295.85L297.56 153.869H304.394L302.69 173.413H329.599C329.599 173.413 330.779 159.53 330.995 157.485C331.211 155.44 330.793 153.297 328.838 151.852L322.703 147.329C322.703 147.329 328.161 143.804 329.892 142.631C331.623 141.458 332.517 140.209 332.824 136.621C333.131 133.033 334.269 120.225 334.45 117.838C334.508 116.892 334.377 115.944 334.064 115.05C333.751 114.156 333.263 113.333 332.628 112.63C331.992 111.927 331.223 111.358 330.365 110.957C329.507 110.555 328.577 110.329 327.631 110.292" fill="#008C95"/>
<path d="M32.7191 79.0625H1.17578V110.606H32.7191V79.0625Z" stroke="#008C95" stroke-width="0.8"/>
<path d="M365.819 79.0625H334.275V110.606H365.819V79.0625Z" stroke="#008C95" stroke-width="0.8"/>
<path d="M32.7191 173.093H1.17578V204.636H32.7191V173.093Z" stroke="#008C95" stroke-width="0.8"/>
<path d="M365.819 173.093H334.275V204.636H365.819V173.093Z" stroke="#008C95" stroke-width="0.8"/>
<path d="M815.695 79H422.859V204.636H815.695V79Z" stroke="#008C95" stroke-width="0.8"/>
<path d="M784.117 110.516H454.305V173.114H784.117V110.516Z" stroke="#008C95" stroke-width="0.8"/>
<path d="M437.591 92.1471L439.779 95.6346L441.966 92.1471H443.373L440.498 96.6533L443.441 101.247H442.023L439.779 97.6908L437.535 101.247H436.116L439.06 96.6533L436.185 92.1471H437.591Z" fill="#008C95"/>
<path d="M798.904 92.1471L801.091 95.6346L803.279 92.1471H804.685L801.81 96.6533L804.754 101.247H803.335L801.091 97.6908L798.848 101.247H797.429L800.373 96.6533L797.498 92.1471H798.904Z" fill="#008C95"/>
<path d="M437.591 186.176L439.779 189.664L441.966 186.176H443.373L440.498 190.683L443.441 195.276H442.023L439.779 191.72L437.535 195.276H436.116L439.06 190.683L436.185 186.176H437.591Z" fill="#008C95"/>
<path d="M798.904 186.176L801.091 189.664L803.279 186.176H804.685L801.81 190.683L804.754 195.276H803.335L801.091 191.72L798.848 195.276H797.429L800.373 190.683L797.498 186.176H798.904Z" fill="#008C95"/>
<path d="M454.375 79.0625H422.832V110.606H454.375V79.0625Z" stroke="#008C95" stroke-width="0.8"/>
<path d="M815.688 79.0625H784.145V110.606H815.688V79.0625Z" stroke="#008C95" stroke-width="0.8"/>
<path d="M454.375 173.093H422.832V204.636H454.375V173.093Z" stroke="#008C95" stroke-width="0.8"/>
<path d="M815.688 173.093H784.145V204.636H815.688V173.093Z" stroke="#008C95" stroke-width="0.8"/>
<path d="M516.464 137.801C516.464 137.801 518.013 120.301 518.16 118.584C518.397 115.834 516.178 110.822 510.831 110.822H466.667C461.321 110.822 458.724 114.452 458.389 117.921C458.186 119.973 454.536 162.28 454.305 164.688C453.922 168.611 456.63 173.064 461.551 173.064H505.463C511.291 173.064 513.56 169.979 514.056 165.226C514.349 162.378 515.794 145.151 515.794 145.151H489.269L488.124 158.462H481.402L484.299 125.411H491.014L489.946 137.78L516.464 137.801Z" fill="#008C95"/>
<path d="M557.41 116.169C556.461 118.891 548.741 143.077 548.741 143.077L552.175 110.829H525.651L520.066 173.085H540.065C545.09 173.085 546.807 170.237 547.638 167.955C548.636 165.225 556.014 144.92 556.014 144.92L553.306 173.12H579.83L585.303 110.864H564.467C559.867 110.864 558.052 114.27 557.382 116.204" fill="#008C95"/>
<path d="M691.896 110.829L689.411 139.224H682.682L685.167 110.829H658.643C658.643 110.829 656.095 140.886 655.851 143.789C655.53 147.279 657.491 152.166 663.368 152.166H688.322L687.764 158.448H654.559L653.24 173.085H706.087C709.661 173.085 713.123 170.747 713.591 165.756C713.891 162.552 718.477 110.829 718.477 110.829H691.896Z" fill="#008C95"/>
<path d="M749.034 140.879L750.388 125.432H757.041L755.693 140.879H749.034ZM761.166 110.829H725.12L719.676 173.085H746.2L747.89 153.82H773.674C778.232 153.82 781.269 151.489 781.757 146.142C781.946 144.048 784.047 120.476 784.186 118.389C784.5 113.789 780.843 110.815 776.299 110.815L761.166 110.829Z" fill="#008C95"/>
<path d="M621.117 160.137H614.346L615.7 144.69H622.471L621.117 160.137ZM616.831 131.742L617.383 125.46H650.636L651.906 110.857H592.114L586.67 173.113H639.642C643.007 173.113 646.622 171.117 647.132 165.91C647.488 162.001 649.121 143.49 649.421 140.139C649.812 135.651 646.964 131.763 641.38 131.763L616.831 131.742Z" fill="#008C95"/>
</svg>
