<svg width="831" height="251" viewBox="0 0 831 251" fill="none" xmlns="http://www.w3.org/2000/svg">
<path d="M10.168 14.3945H5.80859L5.78516 12.1211H9.52344C10.1641 12.1211 10.6992 12.0312 11.1289 11.8516C11.5586 11.6719 11.8828 11.4102 12.1016 11.0664C12.3281 10.7227 12.4414 10.3047 12.4414 9.8125C12.4414 9.26562 12.3359 8.82031 12.125 8.47656C11.9219 8.13281 11.6016 7.88281 11.1641 7.72656C10.7266 7.5625 10.1719 7.48047 9.5 7.48047H6.85156V22H3.62891V4.9375H9.5C10.4688 4.9375 11.332 5.03125 12.0898 5.21875C12.8555 5.39844 13.5039 5.67969 14.0352 6.0625C14.5664 6.44531 14.9688 6.92578 15.2422 7.50391C15.5234 8.08203 15.6641 8.76953 15.6641 9.56641C15.6641 10.2695 15.5 10.918 15.1719 11.5117C14.8516 12.0977 14.3555 12.5742 13.6836 12.9414C13.0195 13.3086 12.1758 13.5195 11.1523 13.5742L10.168 14.3945ZM10.0273 22H4.85938L6.20703 19.4688H10.0273C10.668 19.4688 11.1953 19.3633 11.6094 19.1523C12.0312 18.9414 12.3438 18.6523 12.5469 18.2852C12.7578 17.9102 12.8633 17.4805 12.8633 16.9961C12.8633 16.4648 12.7695 16.0039 12.582 15.6133C12.4023 15.2227 12.1133 14.9219 11.7148 14.7109C11.3242 14.5 10.8086 14.3945 10.168 14.3945H6.81641L6.83984 12.1211H11.1055L11.8438 13C12.8281 13.0078 13.6289 13.2031 14.2461 13.5859C14.8711 13.9688 15.332 14.4609 15.6289 15.0625C15.9258 15.6641 16.0742 16.3125 16.0742 17.0078C16.0742 18.1016 15.8359 19.0195 15.3594 19.7617C14.8906 20.5039 14.2031 21.0625 13.2969 21.4375C12.3984 21.8125 11.3086 22 10.0273 22ZM25.6133 19.3047V13.457C25.6133 13.0273 25.5391 12.6562 25.3906 12.3438C25.2422 12.0312 25.0156 11.7891 24.7109 11.6172C24.4062 11.4453 24.0195 11.3594 23.5508 11.3594C23.1367 11.3594 22.7734 11.4297 22.4609 11.5703C22.1562 11.7109 21.9219 11.9102 21.7578 12.168C21.5938 12.418 21.5117 12.707 21.5117 13.0352H18.4062C18.4062 12.5117 18.5312 12.0156 18.7812 11.5469C19.0312 11.0703 19.3867 10.6484 19.8477 10.2812C20.3164 9.90625 20.875 9.61328 21.5234 9.40234C22.1797 9.19141 22.9141 9.08594 23.7266 9.08594C24.6875 9.08594 25.543 9.25 26.293 9.57812C27.0508 9.89844 27.6445 10.3828 28.0742 11.0312C28.5117 11.6797 28.7305 12.4961 28.7305 13.4805V19.0117C28.7305 19.6445 28.7695 20.1875 28.8477 20.6406C28.9336 21.0859 29.0586 21.4727 29.2227 21.8008V22H26.0703C25.9219 21.6797 25.8086 21.2734 25.7305 20.7812C25.6523 20.2812 25.6133 19.7891 25.6133 19.3047ZM26.0469 14.2773L26.0703 16.1172H24.1133C23.6289 16.1172 23.2031 16.168 22.8359 16.2695C22.4688 16.3633 22.168 16.5039 21.9336 16.6914C21.6992 16.8711 21.5234 17.0898 21.4062 17.3477C21.2891 17.5977 21.2305 17.8828 21.2305 18.2031C21.2305 18.5156 21.3008 18.7969 21.4414 19.0469C21.5898 19.2969 21.8008 19.4961 22.0742 19.6445C22.3555 19.7852 22.6836 19.8555 23.0586 19.8555C23.6055 19.8555 24.082 19.7461 24.4883 19.5273C24.8945 19.3008 25.2109 19.0273 25.4375 18.707C25.6641 18.3867 25.7852 18.082 25.8008 17.793L26.6914 19.1289C26.582 19.4492 26.418 19.7891 26.1992 20.1484C25.9805 20.5078 25.6992 20.8438 25.3555 21.1562C25.0117 21.4688 24.5977 21.7266 24.1133 21.9297C23.6289 22.1328 23.0664 22.2344 22.4258 22.2344C21.6055 22.2344 20.8711 22.0703 20.2227 21.7422C19.5742 21.4141 19.0625 20.9648 18.6875 20.3945C18.3125 19.8242 18.125 19.1758 18.125 18.4492C18.125 17.7773 18.25 17.1836 18.5 16.668C18.75 16.1523 19.1211 15.7188 19.6133 15.3672C20.1055 15.0078 20.7148 14.7383 21.4414 14.5586C22.1758 14.3711 23.0156 14.2773 23.9609 14.2773H26.0469ZM34.6133 11.7578V26.875H31.5078V9.32031H34.3789L34.6133 11.7578ZM42.7578 15.5312V15.7773C42.7578 16.6992 42.6484 17.5547 42.4297 18.3438C42.2188 19.125 41.9062 19.8086 41.4922 20.3945C41.0781 20.9727 40.5625 21.4258 39.9453 21.7539C39.3359 22.0742 38.6328 22.2344 37.8359 22.2344C37.0547 22.2344 36.375 22.0859 35.7969 21.7891C35.2188 21.4844 34.7305 21.0547 34.332 20.5C33.9336 19.9453 33.6133 19.3008 33.3711 18.5664C33.1367 17.8242 32.9609 17.0156 32.8438 16.1406V15.3555C32.9609 14.4258 33.1367 13.582 33.3711 12.8242C33.6133 12.0586 33.9336 11.3984 34.332 10.8438C34.7305 10.2812 35.2148 9.84766 35.7852 9.54297C36.3633 9.23828 37.0391 9.08594 37.8125 9.08594C38.6172 9.08594 39.3242 9.23828 39.9336 9.54297C40.5508 9.84766 41.0703 10.2852 41.4922 10.8555C41.9141 11.4258 42.2305 12.1055 42.4414 12.8945C42.6523 13.6836 42.7578 14.5625 42.7578 15.5312ZM39.6523 15.7773V15.5312C39.6523 14.9688 39.6016 14.4492 39.5 13.9727C39.3984 13.4883 39.2422 13.0664 39.0312 12.707C38.8203 12.3398 38.5469 12.0547 38.2109 11.8516C37.875 11.6484 37.4688 11.5469 36.9922 11.5469C36.5156 11.5469 36.1055 11.625 35.7617 11.7812C35.418 11.9375 35.1367 12.1602 34.918 12.4492C34.6992 12.7383 34.5273 13.082 34.4023 13.4805C34.2852 13.8711 34.207 14.3047 34.168 14.7812V16.7266C34.2383 17.3047 34.375 17.8242 34.5781 18.2852C34.7812 18.7461 35.0781 19.1133 35.4688 19.3867C35.8672 19.6602 36.3828 19.7969 37.0156 19.7969C37.4922 19.7969 37.8984 19.6914 38.2344 19.4805C38.5703 19.2695 38.8438 18.9805 39.0547 18.6133C39.2656 18.2383 39.418 17.8086 39.5117 17.3242C39.6055 16.8398 39.6523 16.3242 39.6523 15.7773ZM48.1484 17.582L52.7656 9.32031H55.8711V22H52.7656V13.7266L48.1484 22H45.043V9.32031H48.1484V17.582ZM65.668 19.3047V13.457C65.668 13.0273 65.5938 12.6562 65.4453 12.3438C65.2969 12.0312 65.0703 11.7891 64.7656 11.6172C64.4609 11.4453 64.0742 11.3594 63.6055 11.3594C63.1914 11.3594 62.8281 11.4297 62.5156 11.5703C62.2109 11.7109 61.9766 11.9102 61.8125 12.168C61.6484 12.418 61.5664 12.707 61.5664 13.0352H58.4609C58.4609 12.5117 58.5859 12.0156 58.8359 11.5469C59.0859 11.0703 59.4414 10.6484 59.9023 10.2812C60.3711 9.90625 60.9297 9.61328 61.5781 9.40234C62.2344 9.19141 62.9688 9.08594 63.7812 9.08594C64.7422 9.08594 65.5977 9.25 66.3477 9.57812C67.1055 9.89844 67.6992 10.3828 68.1289 11.0312C68.5664 11.6797 68.7852 12.4961 68.7852 13.4805V19.0117C68.7852 19.6445 68.8242 20.1875 68.9023 20.6406C68.9883 21.0859 69.1133 21.4727 69.2773 21.8008V22H66.125C65.9766 21.6797 65.8633 21.2734 65.7852 20.7812C65.707 20.2812 65.668 19.7891 65.668 19.3047ZM66.1016 14.2773L66.125 16.1172H64.168C63.6836 16.1172 63.2578 16.168 62.8906 16.2695C62.5234 16.3633 62.2227 16.5039 61.9883 16.6914C61.7539 16.8711 61.5781 17.0898 61.4609 17.3477C61.3438 17.5977 61.2852 17.8828 61.2852 18.2031C61.2852 18.5156 61.3555 18.7969 61.4961 19.0469C61.6445 19.2969 61.8555 19.4961 62.1289 19.6445C62.4102 19.7852 62.7383 19.8555 63.1133 19.8555C63.6602 19.8555 64.1367 19.7461 64.543 19.5273C64.9492 19.3008 65.2656 19.0273 65.4922 18.707C65.7188 18.3867 65.8398 18.082 65.8555 17.793L66.7461 19.1289C66.6367 19.4492 66.4727 19.7891 66.2539 20.1484C66.0352 20.5078 65.7539 20.8438 65.4102 21.1562C65.0664 21.4688 64.6523 21.7266 64.168 21.9297C63.6836 22.1328 63.1211 22.2344 62.4805 22.2344C61.6602 22.2344 60.9258 22.0703 60.2773 21.7422C59.6289 21.4141 59.1172 20.9648 58.7422 20.3945C58.3672 19.8242 58.1797 19.1758 58.1797 18.4492C58.1797 17.7773 58.3047 17.1836 58.5547 16.668C58.8047 16.1523 59.1758 15.7188 59.668 15.3672C60.1602 15.0078 60.7695 14.7383 61.4961 14.5586C62.2305 14.3711 63.0703 14.2773 64.0156 14.2773H66.1016ZM80.2344 14.5234V16.9492H73.7305V14.5234H80.2344ZM74.7031 9.32031V22H71.5977V9.32031H74.7031ZM82.4023 9.32031V22H79.2852V9.32031H82.4023ZM91.3672 9.32031V22H88.2617V9.32031H91.3672ZM95.4922 9.32031V11.7344H84.207V9.32031H95.4922ZM111.945 14.5234V16.9492H105.441V14.5234H111.945ZM106.414 9.32031V22H103.309V9.32031H106.414ZM114.113 9.32031V22H110.996V9.32031H114.113ZM123.91 19.3047V13.457C123.91 13.0273 123.836 12.6562 123.688 12.3438C123.539 12.0312 123.312 11.7891 123.008 11.6172C122.703 11.4453 122.316 11.3594 121.848 11.3594C121.434 11.3594 121.07 11.4297 120.758 11.5703C120.453 11.7109 120.219 11.9102 120.055 12.168C119.891 12.418 119.809 12.707 119.809 13.0352H116.703C116.703 12.5117 116.828 12.0156 117.078 11.5469C117.328 11.0703 117.684 10.6484 118.145 10.2812C118.613 9.90625 119.172 9.61328 119.82 9.40234C120.477 9.19141 121.211 9.08594 122.023 9.08594C122.984 9.08594 123.84 9.25 124.59 9.57812C125.348 9.89844 125.941 10.3828 126.371 11.0312C126.809 11.6797 127.027 12.4961 127.027 13.4805V19.0117C127.027 19.6445 127.066 20.1875 127.145 20.6406C127.23 21.0859 127.355 21.4727 127.52 21.8008V22H124.367C124.219 21.6797 124.105 21.2734 124.027 20.7812C123.949 20.2812 123.91 19.7891 123.91 19.3047ZM124.344 14.2773L124.367 16.1172H122.41C121.926 16.1172 121.5 16.168 121.133 16.2695C120.766 16.3633 120.465 16.5039 120.23 16.6914C119.996 16.8711 119.82 17.0898 119.703 17.3477C119.586 17.5977 119.527 17.8828 119.527 18.2031C119.527 18.5156 119.598 18.7969 119.738 19.0469C119.887 19.2969 120.098 19.4961 120.371 19.6445C120.652 19.7852 120.98 19.8555 121.355 19.8555C121.902 19.8555 122.379 19.7461 122.785 19.5273C123.191 19.3008 123.508 19.0273 123.734 18.707C123.961 18.3867 124.082 18.082 124.098 17.793L124.988 19.1289C124.879 19.4492 124.715 19.7891 124.496 20.1484C124.277 20.5078 123.996 20.8438 123.652 21.1562C123.309 21.4688 122.895 21.7266 122.41 21.9297C121.926 22.1328 121.363 22.2344 120.723 22.2344C119.902 22.2344 119.168 22.0703 118.52 21.7422C117.871 21.4141 117.359 20.9648 116.984 20.3945C116.609 19.8242 116.422 19.1758 116.422 18.4492C116.422 17.7773 116.547 17.1836 116.797 16.668C117.047 16.1523 117.418 15.7188 117.91 15.3672C118.402 15.0078 119.012 14.7383 119.738 14.5586C120.473 14.3711 121.312 14.2773 122.258 14.2773H124.344ZM144.312 9.32031V11.7695H138.102V9.32031H144.312ZM146.645 9.32031V22H143.551V9.32031H146.645ZM137.328 9.32031H140.387L140.047 15.6484C139.992 16.5781 139.895 17.3945 139.754 18.0977C139.613 18.793 139.426 19.3906 139.191 19.8906C138.957 20.3828 138.672 20.7852 138.336 21.0977C138 21.4102 137.609 21.6406 137.164 21.7891C136.727 21.9297 136.234 22 135.688 22H134.738L134.703 19.5039L135.148 19.4688C135.422 19.4453 135.656 19.3711 135.852 19.2461C136.055 19.1211 136.227 18.9414 136.367 18.707C136.516 18.4727 136.637 18.1719 136.73 17.8047C136.832 17.4297 136.91 16.9922 136.965 16.4922C137.027 15.9844 137.07 15.3984 137.094 14.7344L137.328 9.32031ZM156.465 19.3047V13.457C156.465 13.0273 156.391 12.6562 156.242 12.3438C156.094 12.0312 155.867 11.7891 155.562 11.6172C155.258 11.4453 154.871 11.3594 154.402 11.3594C153.988 11.3594 153.625 11.4297 153.312 11.5703C153.008 11.7109 152.773 11.9102 152.609 12.168C152.445 12.418 152.363 12.707 152.363 13.0352H149.258C149.258 12.5117 149.383 12.0156 149.633 11.5469C149.883 11.0703 150.238 10.6484 150.699 10.2812C151.168 9.90625 151.727 9.61328 152.375 9.40234C153.031 9.19141 153.766 9.08594 154.578 9.08594C155.539 9.08594 156.395 9.25 157.145 9.57812C157.902 9.89844 158.496 10.3828 158.926 11.0312C159.363 11.6797 159.582 12.4961 159.582 13.4805V19.0117C159.582 19.6445 159.621 20.1875 159.699 20.6406C159.785 21.0859 159.91 21.4727 160.074 21.8008V22H156.922C156.773 21.6797 156.66 21.2734 156.582 20.7812C156.504 20.2812 156.465 19.7891 156.465 19.3047ZM156.898 14.2773L156.922 16.1172H154.965C154.48 16.1172 154.055 16.168 153.688 16.2695C153.32 16.3633 153.02 16.5039 152.785 16.6914C152.551 16.8711 152.375 17.0898 152.258 17.3477C152.141 17.5977 152.082 17.8828 152.082 18.2031C152.082 18.5156 152.152 18.7969 152.293 19.0469C152.441 19.2969 152.652 19.4961 152.926 19.6445C153.207 19.7852 153.535 19.8555 153.91 19.8555C154.457 19.8555 154.934 19.7461 155.34 19.5273C155.746 19.3008 156.062 19.0273 156.289 18.707C156.516 18.3867 156.637 18.082 156.652 17.793L157.543 19.1289C157.434 19.4492 157.27 19.7891 157.051 20.1484C156.832 20.5078 156.551 20.8438 156.207 21.1562C155.863 21.4688 155.449 21.7266 154.965 21.9297C154.48 22.1328 153.918 22.2344 153.277 22.2344C152.457 22.2344 151.723 22.0703 151.074 21.7422C150.426 21.4141 149.914 20.9648 149.539 20.3945C149.164 19.8242 148.977 19.1758 148.977 18.4492C148.977 17.7773 149.102 17.1836 149.352 16.668C149.602 16.1523 149.973 15.7188 150.465 15.3672C150.957 15.0078 151.566 14.7383 152.293 14.5586C153.027 14.3711 153.867 14.2773 154.812 14.2773H156.898ZM168.336 9.32031V22H165.23V9.32031H168.336ZM172.461 9.32031V11.7344H161.176V9.32031H172.461ZM177.406 17.582L182.023 9.32031H185.129V22H182.023V13.7266L177.406 22H174.301V9.32031H177.406V17.582ZM196.602 14.5234V16.9492H190.098V14.5234H196.602ZM191.07 9.32031V22H187.965V9.32031H191.07ZM198.77 9.32031V22H195.652V9.32031H198.77ZM204.711 17.582L209.328 9.32031H212.434V22H209.328V13.7266L204.711 22H201.605V9.32031H204.711V17.582ZM215.27 22V9.32031H218.375V19.5625H222.98V9.32031H226.098V22H215.27ZM227.902 19.5742L227.68 25.7617H224.809V22H223.344V19.5742H227.902ZM235.473 22.2344C234.512 22.2344 233.648 22.0781 232.883 21.7656C232.117 21.4531 231.465 21.0195 230.926 20.4648C230.395 19.9023 229.984 19.25 229.695 18.5078C229.414 17.7578 229.273 16.9531 229.273 16.0938V15.625C229.273 14.6484 229.414 13.7617 229.695 12.9648C229.977 12.1602 230.375 11.4688 230.891 10.8906C231.406 10.3125 232.023 9.86719 232.742 9.55469C233.461 9.24219 234.254 9.08594 235.121 9.08594C236.02 9.08594 236.812 9.23828 237.5 9.54297C238.188 9.83984 238.762 10.2617 239.223 10.8086C239.684 11.3555 240.031 12.0117 240.266 12.7773C240.5 13.5352 240.617 14.375 240.617 15.2969V16.5977H230.68V14.4648H237.57V14.2305C237.555 13.7383 237.461 13.2891 237.289 12.8828C237.117 12.4688 236.852 12.1406 236.492 11.8984C236.133 11.6484 235.668 11.5234 235.098 11.5234C234.637 11.5234 234.234 11.625 233.891 11.8281C233.555 12.0234 233.273 12.3047 233.047 12.6719C232.828 13.0312 232.664 13.4609 232.555 13.9609C232.445 14.4609 232.391 15.0156 232.391 15.625V16.0938C232.391 16.625 232.461 17.1172 232.602 17.5703C232.75 18.0234 232.965 18.418 233.246 18.7539C233.535 19.082 233.879 19.3398 234.277 19.5273C234.684 19.707 235.145 19.7969 235.66 19.7969C236.309 19.7969 236.895 19.6719 237.418 19.4219C237.949 19.1641 238.41 18.7852 238.801 18.2852L240.359 19.9023C240.094 20.293 239.734 20.668 239.281 21.0273C238.836 21.3867 238.297 21.6797 237.664 21.9062C237.031 22.125 236.301 22.2344 235.473 22.2344Z" fill="black"/>
<path d="M185.96 250.522H240.235C257.757 250.522 260.826 239.02 261.824 228.509C262.724 219.038 275.147 76.9209 275.147 76.9209H221.134C205.757 76.9209 200.372 85.7536 199.104 100.21C198.465 107.414 185.928 250.522 185.928 250.522" fill="#008C95"/>
<path d="M560.999 209.804H542.111L553.732 76.9121H479.734C479.734 76.9121 467.115 223.917 466.362 231.227C465.609 238.537 472.852 250.513 485.635 250.513H613.826C618.613 250.494 623.223 248.703 626.767 245.485C630.311 242.266 632.537 237.849 633.017 233.085C633.762 224.53 646.635 76.9121 646.635 76.9121H572.637L560.999 209.804Z" fill="#008C95"/>
<path d="M34.7162 76.9209C21.4994 76.9209 14.2568 83.7808 12.9064 99.9236C12.219 107.962 7.59518 160.132 6.99776 167.663C6.40034 175.194 9.20736 181.776 18.586 181.776H98.8853L96.0292 214.421H76.9119L78.2294 199.375H4.22344C4.22344 199.375 2.11203 225.366 1.16271 234.322C0.213394 243.277 3.02861 250.53 14.6578 250.53H146.122C166.934 250.53 167.997 235.238 169.209 223.663C170.33 212.948 174.594 162.424 175.15 156.055C175.707 149.686 171.206 145.675 165.109 145.675H82.9269L85.7749 113.021H104.9L103.599 128.067H177.589C177.589 128.067 179.946 98.9822 180.789 90.788C181.632 82.5938 177.401 76.9209 168.775 76.9209H34.7162" fill="#008C95"/>
<path d="M358.794 181.775H377.698L374.834 214.421H355.938L358.794 181.775ZM383.705 113.013L380.857 145.659H361.961L364.817 113.013H383.705ZM293.978 76.9043L278.789 250.505H426.85C439.322 250.505 446.352 242.737 447.498 229.352C447.956 223.917 449.609 205.515 450.935 190.379C451.41 184.951 450.117 180.179 445.444 176.725L428.004 163.856C428.004 163.856 444.756 152.895 449.118 150.071C453.48 147.247 455.052 143.743 455.583 137.039C456.811 121.919 458.415 104.639 458.783 99.8497C459.757 87.3333 452.727 76.9289 437.628 76.9289L293.978 76.9043Z" fill="#008C95"/>
<path d="M732.171 160.713L735.935 117.646H754.758L750.985 160.713H732.171ZM811.693 76.9125H665.497L650.316 250.513H724.314L729.012 196.805H747.834L743.145 250.505H817.086C817.086 250.505 820.359 212.326 820.908 206.702C821.456 201.078 820.351 195.168 814.983 191.206L798.108 178.763C798.108 178.763 813.125 169.062 817.871 165.837C822.618 162.612 825.106 159.19 825.932 149.318C826.759 139.445 829.918 104.229 830.409 97.6477C831.227 86.3018 821.693 76.9043 811.66 76.9043" fill="#008C95"/>
</svg>
