<svg width="216" height="170" viewBox="0 0 216 170" fill="none" xmlns="http://www.w3.org/2000/svg">
<path d="M4.77832 111.515H2.21484V110.038H4.77832C5.19759 110.038 5.53711 109.97 5.79688 109.833C6.0612 109.692 6.25488 109.5 6.37793 109.259C6.50098 109.013 6.5625 108.732 6.5625 108.418C6.5625 108.113 6.50098 107.828 6.37793 107.563C6.25488 107.299 6.0612 107.085 5.79688 106.921C5.53711 106.757 5.19759 106.675 4.77832 106.675H2.83008V115.145H0.950195V105.191H4.77832C5.55306 105.191 6.21387 105.33 6.76074 105.608C7.31217 105.882 7.73145 106.262 8.01855 106.75C8.31022 107.233 8.45605 107.785 8.45605 108.404C8.45605 109.047 8.31022 109.601 8.01855 110.065C7.73145 110.53 7.31217 110.888 6.76074 111.139C6.21387 111.389 5.55306 111.515 4.77832 111.515ZM12.0723 114.324L14.0547 107.748H15.9893L13.0225 116.266C12.9541 116.448 12.8652 116.646 12.7559 116.86C12.651 117.075 12.5098 117.277 12.332 117.469C12.1543 117.665 11.931 117.824 11.6621 117.947C11.3978 118.07 11.0765 118.132 10.6982 118.132C10.5342 118.132 10.3883 118.12 10.2607 118.098C10.1331 118.075 9.9987 118.045 9.85742 118.009V116.655C9.90299 116.66 9.9554 116.662 10.0146 116.662C10.0785 116.667 10.1331 116.669 10.1787 116.669C10.443 116.669 10.6618 116.637 10.835 116.573C11.0081 116.514 11.1471 116.416 11.252 116.279C11.3613 116.147 11.4525 115.974 11.5254 115.76L12.0723 114.324ZM11.0947 107.748L12.7695 113.196L13.0635 115.104L11.8193 115.329L9.14648 107.748H11.0947ZM19.8037 113.859C20.0589 113.859 20.2868 113.809 20.4873 113.709C20.6878 113.609 20.8473 113.467 20.9658 113.285C21.0889 113.103 21.1549 112.891 21.1641 112.649H22.8662C22.8571 113.151 22.7158 113.6 22.4424 113.996C22.1689 114.393 21.8044 114.707 21.3486 114.939C20.8975 115.167 20.3916 115.281 19.8311 115.281C19.2614 115.281 18.7646 115.186 18.3408 114.994C17.917 114.803 17.5638 114.536 17.2812 114.194C17.0033 113.853 16.7936 113.456 16.6523 113.005C16.5156 112.554 16.4473 112.071 16.4473 111.556V111.337C16.4473 110.822 16.5156 110.339 16.6523 109.888C16.7936 109.437 17.0033 109.04 17.2812 108.698C17.5638 108.356 17.917 108.09 18.3408 107.898C18.7646 107.707 19.2591 107.611 19.8242 107.611C20.4212 107.611 20.9453 107.728 21.3965 107.96C21.8522 108.192 22.2077 108.521 22.4629 108.944C22.7227 109.368 22.8571 109.867 22.8662 110.441H21.1641C21.1549 110.177 21.0957 109.94 20.9863 109.73C20.877 109.521 20.722 109.352 20.5215 109.225C20.321 109.097 20.0771 109.033 19.79 109.033C19.4847 109.033 19.2295 109.097 19.0244 109.225C18.8239 109.352 18.6667 109.528 18.5527 109.751C18.4434 109.97 18.3659 110.216 18.3203 110.489C18.2793 110.758 18.2588 111.041 18.2588 111.337V111.556C18.2588 111.856 18.2793 112.144 18.3203 112.417C18.3659 112.69 18.4434 112.937 18.5527 113.155C18.6667 113.369 18.8239 113.54 19.0244 113.668C19.2295 113.796 19.4893 113.859 19.8037 113.859ZM27.1045 113.859C27.3597 113.859 27.5876 113.809 27.7881 113.709C27.9886 113.609 28.1481 113.467 28.2666 113.285C28.3896 113.103 28.4557 112.891 28.4648 112.649H30.167C30.1579 113.151 30.0166 113.6 29.7432 113.996C29.4697 114.393 29.1051 114.707 28.6494 114.939C28.1982 115.167 27.6924 115.281 27.1318 115.281C26.5622 115.281 26.0654 115.186 25.6416 114.994C25.2178 114.803 24.8646 114.536 24.582 114.194C24.304 113.853 24.0944 113.456 23.9531 113.005C23.8164 112.554 23.748 112.071 23.748 111.556V111.337C23.748 110.822 23.8164 110.339 23.9531 109.888C24.0944 109.437 24.304 109.04 24.582 108.698C24.8646 108.356 25.2178 108.09 25.6416 107.898C26.0654 107.707 26.5599 107.611 27.125 107.611C27.722 107.611 28.2461 107.728 28.6973 107.96C29.153 108.192 29.5085 108.521 29.7637 108.944C30.0234 109.368 30.1579 109.867 30.167 110.441H28.4648C28.4557 110.177 28.3965 109.94 28.2871 109.73C28.1777 109.521 28.0228 109.352 27.8223 109.225C27.6217 109.097 27.3779 109.033 27.0908 109.033C26.7855 109.033 26.5303 109.097 26.3252 109.225C26.1247 109.352 25.9674 109.528 25.8535 109.751C25.7441 109.97 25.6667 110.216 25.6211 110.489C25.5801 110.758 25.5596 111.041 25.5596 111.337V111.556C25.5596 111.856 25.5801 112.144 25.6211 112.417C25.6667 112.69 25.7441 112.937 25.8535 113.155C25.9674 113.369 26.1247 113.54 26.3252 113.668C26.5303 113.796 26.79 113.859 27.1045 113.859ZM33.2979 107.748V115.145H31.4932V107.748H33.2979ZM38.1172 107.748L34.8564 112.287H32.9355L32.71 110.633H34.043L35.8408 107.748H38.1172ZM35.9502 115.145L33.9268 111.973L35.4307 111.029L38.3496 115.145H35.9502ZM38.582 111.521V111.378C38.582 110.836 38.6595 110.337 38.8145 109.881C38.9694 109.421 39.195 109.022 39.4912 108.685C39.7874 108.347 40.1497 108.085 40.5781 107.898C41.0065 107.707 41.4941 107.611 42.041 107.611C42.597 107.611 43.0892 107.707 43.5176 107.898C43.9505 108.085 44.3151 108.347 44.6113 108.685C44.9076 109.022 45.1331 109.421 45.2881 109.881C45.443 110.337 45.5205 110.836 45.5205 111.378V111.521C45.5205 112.059 45.443 112.558 45.2881 113.019C45.1331 113.474 44.9076 113.873 44.6113 114.215C44.3151 114.552 43.9528 114.814 43.5244 115.001C43.096 115.188 42.6061 115.281 42.0547 115.281C41.5078 115.281 41.0179 115.188 40.585 115.001C40.152 114.814 39.7874 114.552 39.4912 114.215C39.195 113.873 38.9694 113.474 38.8145 113.019C38.6595 112.558 38.582 112.059 38.582 111.521ZM40.3867 111.378V111.521C40.3867 111.845 40.4186 112.148 40.4824 112.431C40.5462 112.713 40.6442 112.962 40.7764 113.176C40.9085 113.39 41.0794 113.559 41.2891 113.682C41.5033 113.8 41.7585 113.859 42.0547 113.859C42.3464 113.859 42.597 113.8 42.8066 113.682C43.0163 113.559 43.1872 113.39 43.3193 113.176C43.4561 112.962 43.5563 112.713 43.6201 112.431C43.6839 112.148 43.7158 111.845 43.7158 111.521V111.378C43.7158 111.059 43.6839 110.76 43.6201 110.482C43.5563 110.2 43.4561 109.951 43.3193 109.737C43.1872 109.519 43.014 109.348 42.7998 109.225C42.5902 109.097 42.3372 109.033 42.041 109.033C41.7493 109.033 41.4987 109.097 41.2891 109.225C41.0794 109.348 40.9085 109.519 40.7764 109.737C40.6442 109.951 40.5462 110.2 40.4824 110.482C40.4186 110.76 40.3867 111.059 40.3867 111.378ZM48.4053 111.494H50.2578L48.1797 115.145H46.3271L48.4053 111.494ZM49.6631 107.748H52.876V115.145H51.0713V109.156H49.6631C49.376 109.156 49.1367 109.209 48.9453 109.313C48.7585 109.418 48.6195 109.553 48.5283 109.717C48.4372 109.876 48.3916 110.04 48.3916 110.209C48.3916 110.373 48.4349 110.533 48.5215 110.688C48.6081 110.842 48.7402 110.97 48.918 111.07C49.1003 111.171 49.3281 111.221 49.6016 111.221H51.7139V112.492H49.6016C49.1322 112.492 48.7106 112.435 48.3369 112.321C47.9678 112.203 47.651 112.039 47.3867 111.829C47.127 111.619 46.9287 111.373 46.792 111.091C46.6553 110.804 46.5869 110.492 46.5869 110.154C46.5869 109.808 46.6553 109.489 46.792 109.197C46.9333 108.906 47.1361 108.65 47.4004 108.432C47.6693 108.213 47.9928 108.044 48.3711 107.926C48.7539 107.807 49.1846 107.748 49.6631 107.748ZM57.8115 111.617H56.3691V110.756H57.4697C57.7386 110.756 57.9528 110.719 58.1123 110.646C58.2764 110.574 58.3926 110.471 58.4609 110.339C58.5339 110.207 58.5703 110.054 58.5703 109.881C58.5703 109.726 58.5361 109.58 58.4678 109.443C58.3994 109.302 58.2855 109.188 58.126 109.102C57.9665 109.01 57.7454 108.965 57.4629 108.965C57.2305 108.965 57.0231 109.001 56.8408 109.074C56.6585 109.147 56.515 109.25 56.4102 109.382C56.3053 109.514 56.2529 109.671 56.2529 109.854H54.4414C54.4414 109.389 54.5736 108.99 54.8379 108.657C55.1068 108.325 55.4645 108.069 55.9111 107.892C56.3577 107.709 56.8477 107.618 57.3809 107.618C57.8411 107.618 58.2559 107.666 58.625 107.762C58.9941 107.853 59.3086 107.99 59.5684 108.172C59.8281 108.354 60.0286 108.58 60.1699 108.849C60.3112 109.113 60.3818 109.421 60.3818 109.771C60.3818 110.022 60.3226 110.259 60.2041 110.482C60.0856 110.706 59.9147 110.904 59.6914 111.077C59.4681 111.246 59.1969 111.378 58.8779 111.474C58.5635 111.569 58.208 111.617 57.8115 111.617ZM56.3691 111.125H57.8115C58.2536 111.125 58.641 111.168 58.9736 111.255C59.3109 111.337 59.5934 111.46 59.8213 111.624C60.0492 111.788 60.2201 111.991 60.334 112.232C60.4525 112.469 60.5117 112.743 60.5117 113.053C60.5117 113.404 60.4342 113.718 60.2793 113.996C60.1289 114.27 59.9147 114.502 59.6367 114.693C59.3587 114.885 59.0283 115.031 58.6455 115.131C58.2627 115.231 57.8411 115.281 57.3809 115.281C56.8841 115.281 56.401 115.199 55.9316 115.035C55.4668 114.871 55.0817 114.618 54.7764 114.276C54.4756 113.935 54.3252 113.495 54.3252 112.957H56.1367C56.1367 113.13 56.1891 113.292 56.2939 113.442C56.3988 113.593 56.5492 113.714 56.7451 113.805C56.9456 113.891 57.1872 113.935 57.4697 113.935C57.7568 113.935 57.9915 113.889 58.1738 113.798C58.3561 113.707 58.4883 113.586 58.5703 113.436C58.6569 113.281 58.7002 113.119 58.7002 112.95C58.7002 112.718 58.6546 112.531 58.5635 112.39C58.4769 112.244 58.3402 112.137 58.1533 112.068C57.971 112 57.7432 111.966 57.4697 111.966H56.3691V111.125ZM63.1025 110.024H65.2627C65.9189 110.024 66.4772 110.134 66.9375 110.353C67.4023 110.567 67.7555 110.868 67.9971 111.255C68.2432 111.638 68.3662 112.082 68.3662 112.588C68.3662 112.952 68.2956 113.292 68.1543 113.606C68.0176 113.916 67.8171 114.188 67.5527 114.42C67.2884 114.648 66.9626 114.826 66.5752 114.953C66.1924 115.081 65.7549 115.145 65.2627 115.145H61.9404V107.748H63.752V113.729H65.2627C65.5771 113.729 65.8278 113.677 66.0146 113.572C66.2061 113.463 66.3428 113.324 66.4248 113.155C66.5114 112.982 66.5547 112.798 66.5547 112.602C66.5547 112.401 66.5114 112.214 66.4248 112.041C66.3428 111.863 66.2061 111.72 66.0146 111.61C65.8278 111.501 65.5771 111.446 65.2627 111.446H63.1025V110.024ZM71.4014 107.748V115.145H69.5898V107.748H71.4014ZM79.3311 107.748V115.145H77.5195V107.748H79.3311ZM78.5107 110.968V112.39C78.3376 112.472 78.1279 112.549 77.8818 112.622C77.6403 112.69 77.3851 112.745 77.1162 112.786C76.8519 112.827 76.5944 112.848 76.3438 112.848C75.6647 112.848 75.0791 112.747 74.5869 112.547C74.0993 112.346 73.7233 112.039 73.459 111.624C73.1947 111.205 73.0625 110.669 73.0625 110.018V107.741H74.8672V110.018C74.8672 110.368 74.9196 110.646 75.0244 110.852C75.1292 111.057 75.291 111.202 75.5098 111.289C75.7285 111.376 76.0065 111.419 76.3438 111.419C76.6035 111.419 76.8519 111.401 77.0889 111.364C77.3258 111.323 77.5605 111.271 77.793 111.207C78.0299 111.139 78.2692 111.059 78.5107 110.968ZM86.0234 110.783V112.198H82.2295V110.783H86.0234ZM82.7969 107.748V115.145H80.9854V107.748H82.7969ZM87.2881 107.748V115.145H85.4697V107.748H87.2881ZM90.2139 110.024H92.374C93.0303 110.024 93.5885 110.134 94.0488 110.353C94.5137 110.567 94.8669 110.868 95.1084 111.255C95.3545 111.638 95.4775 112.082 95.4775 112.588C95.4775 112.952 95.4069 113.292 95.2656 113.606C95.1289 113.916 94.9284 114.188 94.6641 114.42C94.3997 114.648 94.0739 114.826 93.6865 114.953C93.3037 115.081 92.8662 115.145 92.374 115.145H89.0518V107.748H90.8633V113.729H92.374C92.6885 113.729 92.9391 113.677 93.126 113.572C93.3174 113.463 93.4541 113.324 93.5361 113.155C93.6227 112.982 93.666 112.798 93.666 112.602C93.666 112.401 93.6227 112.214 93.5361 112.041C93.4541 111.863 93.3174 111.72 93.126 111.61C92.9391 111.501 92.6885 111.446 92.374 111.446H90.2139V110.024ZM98.5127 107.748V115.145H96.7012V107.748H98.5127ZM102.184 112.567L104.877 107.748H106.688V115.145H104.877V110.318L102.184 115.145H100.372V107.748H102.184V112.567ZM104.542 104.843H105.854C105.854 105.226 105.761 105.565 105.574 105.861C105.387 106.158 105.121 106.39 104.774 106.559C104.433 106.723 104.027 106.805 103.558 106.805C102.851 106.805 102.291 106.622 101.876 106.258C101.461 105.893 101.254 105.422 101.254 104.843H102.566C102.566 105.084 102.642 105.301 102.792 105.492C102.942 105.684 103.198 105.779 103.558 105.779C103.918 105.779 104.171 105.684 104.316 105.492C104.467 105.301 104.542 105.084 104.542 104.843ZM115.452 112.014H113.107L113.094 110.79H115.021C115.309 110.79 115.543 110.76 115.726 110.701C115.908 110.642 116.042 110.553 116.129 110.435C116.22 110.316 116.266 110.173 116.266 110.004C116.266 109.858 116.238 109.733 116.184 109.628C116.129 109.519 116.047 109.43 115.938 109.361C115.833 109.293 115.698 109.243 115.534 109.211C115.375 109.174 115.188 109.156 114.974 109.156H113.75V115.145H111.938V107.748H114.974C115.452 107.748 115.883 107.791 116.266 107.878C116.648 107.96 116.974 108.085 117.243 108.254C117.512 108.423 117.717 108.637 117.858 108.896C118.004 109.152 118.077 109.452 118.077 109.799C118.077 110.027 118.027 110.241 117.927 110.441C117.826 110.642 117.678 110.82 117.482 110.975C117.286 111.13 117.045 111.257 116.758 111.357C116.471 111.453 116.143 111.512 115.773 111.535L115.452 112.014ZM115.452 115.145H112.622L113.292 113.736H115.452C115.716 113.736 115.935 113.704 116.108 113.641C116.282 113.572 116.409 113.474 116.491 113.347C116.578 113.219 116.621 113.064 116.621 112.882C116.621 112.704 116.58 112.551 116.498 112.424C116.421 112.292 116.295 112.191 116.122 112.123C115.953 112.05 115.73 112.014 115.452 112.014H113.586L113.6 110.79H115.767L116.245 111.275C116.737 111.307 117.145 111.408 117.469 111.576C117.792 111.74 118.034 111.95 118.193 112.205C118.353 112.456 118.433 112.731 118.433 113.032C118.433 113.383 118.367 113.691 118.234 113.955C118.102 114.219 117.909 114.44 117.653 114.618C117.398 114.791 117.086 114.924 116.717 115.015C116.348 115.101 115.926 115.145 115.452 115.145ZM123.819 113.572V110.161C123.819 109.91 123.776 109.694 123.689 109.512C123.603 109.329 123.471 109.188 123.293 109.088C123.115 108.988 122.89 108.938 122.616 108.938C122.375 108.938 122.163 108.979 121.98 109.061C121.803 109.143 121.666 109.259 121.57 109.409C121.475 109.555 121.427 109.724 121.427 109.915H119.615C119.615 109.61 119.688 109.32 119.834 109.047C119.98 108.769 120.187 108.523 120.456 108.309C120.729 108.09 121.055 107.919 121.434 107.796C121.816 107.673 122.245 107.611 122.719 107.611C123.279 107.611 123.778 107.707 124.216 107.898C124.658 108.085 125.004 108.368 125.255 108.746C125.51 109.124 125.638 109.601 125.638 110.175V113.401C125.638 113.771 125.66 114.087 125.706 114.352C125.756 114.611 125.829 114.837 125.925 115.028V115.145H124.086C123.999 114.958 123.933 114.721 123.888 114.434C123.842 114.142 123.819 113.855 123.819 113.572ZM124.072 110.64L124.086 111.713H122.944C122.662 111.713 122.413 111.743 122.199 111.802C121.985 111.856 121.81 111.938 121.673 112.048C121.536 112.153 121.434 112.28 121.365 112.431C121.297 112.576 121.263 112.743 121.263 112.93C121.263 113.112 121.304 113.276 121.386 113.422C121.472 113.568 121.595 113.684 121.755 113.771C121.919 113.853 122.11 113.894 122.329 113.894C122.648 113.894 122.926 113.83 123.163 113.702C123.4 113.57 123.585 113.41 123.717 113.224C123.849 113.037 123.92 112.859 123.929 112.69L124.448 113.47C124.384 113.657 124.289 113.855 124.161 114.064C124.034 114.274 123.869 114.47 123.669 114.652C123.468 114.835 123.227 114.985 122.944 115.104C122.662 115.222 122.334 115.281 121.96 115.281C121.481 115.281 121.053 115.186 120.675 114.994C120.297 114.803 119.998 114.541 119.779 114.208C119.561 113.875 119.451 113.497 119.451 113.073C119.451 112.681 119.524 112.335 119.67 112.034C119.816 111.733 120.032 111.48 120.319 111.275C120.606 111.066 120.962 110.909 121.386 110.804C121.814 110.694 122.304 110.64 122.855 110.64H124.072ZM129.069 109.17V117.988H127.258V107.748H128.933L129.069 109.17ZM133.82 111.371V111.515C133.82 112.052 133.757 112.551 133.629 113.012C133.506 113.467 133.324 113.866 133.082 114.208C132.84 114.545 132.54 114.81 132.18 115.001C131.824 115.188 131.414 115.281 130.949 115.281C130.493 115.281 130.097 115.195 129.76 115.021C129.423 114.844 129.138 114.593 128.905 114.27C128.673 113.946 128.486 113.57 128.345 113.142C128.208 112.709 128.105 112.237 128.037 111.727V111.269C128.105 110.726 128.208 110.234 128.345 109.792C128.486 109.345 128.673 108.96 128.905 108.637C129.138 108.309 129.42 108.056 129.753 107.878C130.09 107.7 130.484 107.611 130.936 107.611C131.405 107.611 131.817 107.7 132.173 107.878C132.533 108.056 132.836 108.311 133.082 108.644C133.328 108.976 133.513 109.373 133.636 109.833C133.759 110.293 133.82 110.806 133.82 111.371ZM132.009 111.515V111.371C132.009 111.043 131.979 110.74 131.92 110.462C131.861 110.179 131.77 109.933 131.646 109.724C131.523 109.509 131.364 109.343 131.168 109.225C130.972 109.106 130.735 109.047 130.457 109.047C130.179 109.047 129.94 109.092 129.739 109.184C129.539 109.275 129.375 109.405 129.247 109.573C129.119 109.742 129.019 109.942 128.946 110.175C128.878 110.403 128.832 110.656 128.81 110.934V112.068C128.851 112.406 128.93 112.709 129.049 112.978C129.167 113.246 129.34 113.461 129.568 113.62C129.801 113.78 130.102 113.859 130.471 113.859C130.749 113.859 130.986 113.798 131.182 113.675C131.378 113.552 131.537 113.383 131.66 113.169C131.783 112.95 131.872 112.7 131.927 112.417C131.981 112.134 132.009 111.834 132.009 111.515ZM136.965 112.567L139.658 107.748H141.47V115.145H139.658V110.318L136.965 115.145H135.153V107.748H136.965V112.567ZM147.185 113.572V110.161C147.185 109.91 147.141 109.694 147.055 109.512C146.968 109.329 146.836 109.188 146.658 109.088C146.48 108.988 146.255 108.938 145.981 108.938C145.74 108.938 145.528 108.979 145.346 109.061C145.168 109.143 145.031 109.259 144.936 109.409C144.84 109.555 144.792 109.724 144.792 109.915H142.98C142.98 109.61 143.053 109.32 143.199 109.047C143.345 108.769 143.552 108.523 143.821 108.309C144.095 108.09 144.421 107.919 144.799 107.796C145.182 107.673 145.61 107.611 146.084 107.611C146.645 107.611 147.144 107.707 147.581 107.898C148.023 108.085 148.369 108.368 148.62 108.746C148.875 109.124 149.003 109.601 149.003 110.175V113.401C149.003 113.771 149.026 114.087 149.071 114.352C149.121 114.611 149.194 114.837 149.29 115.028V115.145H147.451C147.365 114.958 147.299 114.721 147.253 114.434C147.207 114.142 147.185 113.855 147.185 113.572ZM147.438 110.64L147.451 111.713H146.31C146.027 111.713 145.779 111.743 145.564 111.802C145.35 111.856 145.175 111.938 145.038 112.048C144.901 112.153 144.799 112.28 144.73 112.431C144.662 112.576 144.628 112.743 144.628 112.93C144.628 113.112 144.669 113.276 144.751 113.422C144.838 113.568 144.961 113.684 145.12 113.771C145.284 113.853 145.476 113.894 145.694 113.894C146.013 113.894 146.291 113.83 146.528 113.702C146.765 113.57 146.95 113.41 147.082 113.224C147.214 113.037 147.285 112.859 147.294 112.69L147.813 113.47C147.75 113.657 147.654 113.855 147.526 114.064C147.399 114.274 147.235 114.47 147.034 114.652C146.834 114.835 146.592 114.985 146.31 115.104C146.027 115.222 145.699 115.281 145.325 115.281C144.847 115.281 144.418 115.186 144.04 114.994C143.662 114.803 143.363 114.541 143.145 114.208C142.926 113.875 142.816 113.497 142.816 113.073C142.816 112.681 142.889 112.335 143.035 112.034C143.181 111.733 143.397 111.48 143.685 111.275C143.972 111.066 144.327 110.909 144.751 110.804C145.179 110.694 145.669 110.64 146.221 110.64H147.438ZM155.682 110.783V112.198H151.888V110.783H155.682ZM152.455 107.748V115.145H150.644V107.748H152.455ZM156.946 107.748V115.145H155.128V107.748H156.946ZM162.176 107.748V115.145H160.364V107.748H162.176ZM164.582 107.748V109.156H157.999V107.748H164.582Z" fill="black"/>
<path d="M40.891 146.65C40.891 146.65 41.9047 135.204 42.0006 134.081C42.156 132.279 40.7057 129 37.2086 129H26.8835H8.32048C4.82341 129 3.12385 131.375 2.90448 133.642C2.77457 134.988 0.387109 162.662 0.233766 164.257C-0.0132862 166.814 1.75655 169.728 4.97462 169.728H33.6987C37.511 169.728 38.9912 167.708 39.3149 164.598C39.5087 162.736 40.4522 151.469 40.4522 151.469H23.0883L22.3386 160.173H17.9385L19.8297 138.552H24.2213L23.5249 146.648L40.891 146.65Z" fill="#008C95"/>
<path d="M67.678 132.498C67.0604 134.281 62.0086 150.101 62.0086 150.101L64.2534 129.011H46.8979L43.2773 169.732H56.3541C59.6403 169.732 60.7627 167.866 61.31 166.375C61.9618 164.589 66.7793 151.283 66.7793 151.283L65.0009 169.732H82.3649L85.9407 129H72.3103C69.3052 129 68.1189 131.226 67.678 132.494" fill="#008C95"/>
<path d="M155.625 129L154 147.574H149.6L151.225 129H133.863C133.863 129 132.199 148.663 132.023 150.561C131.81 152.83 133.088 156.045 136.942 156.045H153.259L152.897 160.175H131.173L130.336 169.728H164.891C167.234 169.728 169.492 168.198 169.79 164.932C169.988 162.836 172.984 129 172.984 129H155.625Z" fill="#008C95"/>
<path d="M192.996 148.661L193.879 138.559H198.228L197.345 148.661H192.996ZM200.923 129H177.346L173.785 169.732H191.145L192.248 157.131H209.112C212.093 157.131 214.076 155.61 214.395 152.116C214.521 150.761 215.886 135.325 215.984 133.959C216.197 130.949 213.797 129.006 210.824 129.006L200.923 129Z" fill="#008C95"/>
<path d="M109.338 161.26H104.908L105.789 151.156H110.219L109.338 161.26ZM106.535 142.685L106.897 138.555H128.642L129.472 129H90.3656L86.8047 169.726H121.443C123.643 169.726 126.031 168.42 126.342 165.016C126.574 162.459 127.643 150.35 127.832 148.154C128.09 145.218 126.227 142.681 122.572 142.681L106.535 142.685Z" fill="#008C95"/>
<path d="M4.76465 8.56348H2.22168L2.20801 7.2373H4.38867C4.76237 7.2373 5.07454 7.1849 5.3252 7.08008C5.57585 6.97526 5.76497 6.82259 5.89258 6.62207C6.02474 6.42155 6.09082 6.17773 6.09082 5.89062C6.09082 5.57161 6.0293 5.31185 5.90625 5.11133C5.78776 4.91081 5.60091 4.76497 5.3457 4.67383C5.09049 4.57812 4.76693 4.53027 4.375 4.53027H2.83008V13H0.950195V3.04688H4.375C4.9401 3.04688 5.44368 3.10156 5.88574 3.21094C6.33236 3.31576 6.71061 3.47982 7.02051 3.70312C7.3304 3.92643 7.5651 4.20671 7.72461 4.54395C7.88867 4.88118 7.9707 5.28223 7.9707 5.74707C7.9707 6.15723 7.875 6.53548 7.68359 6.88184C7.49674 7.22363 7.20736 7.50163 6.81543 7.71582C6.42806 7.93001 5.93587 8.05306 5.33887 8.08496L4.76465 8.56348ZM4.68262 13H1.66797L2.4541 11.5234H4.68262C5.05632 11.5234 5.36393 11.4619 5.60547 11.3389C5.85156 11.2158 6.03385 11.0472 6.15234 10.833C6.27539 10.6143 6.33691 10.3636 6.33691 10.0811C6.33691 9.77116 6.28223 9.50228 6.17285 9.27441C6.06803 9.04655 5.89941 8.87109 5.66699 8.74805C5.43913 8.625 5.13835 8.56348 4.76465 8.56348H2.80957L2.82324 7.2373H5.31152L5.74219 7.75C6.31641 7.75456 6.78353 7.86849 7.14355 8.0918C7.50814 8.3151 7.77702 8.60221 7.9502 8.95312C8.12337 9.30404 8.20996 9.68229 8.20996 10.0879C8.20996 10.7259 8.07096 11.2614 7.79297 11.6943C7.51953 12.1273 7.11849 12.4531 6.58984 12.6719C6.06576 12.8906 5.43001 13 4.68262 13ZM13.7744 11.4277V8.0166C13.7744 7.76595 13.7311 7.54948 13.6445 7.36719C13.5579 7.1849 13.4258 7.04362 13.248 6.94336C13.0703 6.8431 12.8447 6.79297 12.5713 6.79297C12.3298 6.79297 12.1178 6.83398 11.9355 6.91602C11.7578 6.99805 11.6211 7.11426 11.5254 7.26465C11.4297 7.41048 11.3818 7.5791 11.3818 7.77051H9.57031C9.57031 7.46517 9.64323 7.17578 9.78906 6.90234C9.9349 6.62435 10.1423 6.37826 10.4111 6.16406C10.6846 5.94531 11.0104 5.77441 11.3887 5.65137C11.7715 5.52832 12.1999 5.4668 12.6738 5.4668C13.2344 5.4668 13.7334 5.5625 14.1709 5.75391C14.613 5.94076 14.9593 6.22331 15.21 6.60156C15.4652 6.97982 15.5928 7.45605 15.5928 8.03027V11.2568C15.5928 11.626 15.6156 11.9427 15.6611 12.207C15.7113 12.4668 15.7842 12.6924 15.8799 12.8838V13H14.041C13.9544 12.8132 13.8883 12.5762 13.8428 12.2891C13.7972 11.9974 13.7744 11.7103 13.7744 11.4277ZM14.0273 8.49512L14.041 9.56836H12.8994C12.6169 9.56836 12.3685 9.59798 12.1543 9.65723C11.9401 9.71191 11.7646 9.79395 11.6279 9.90332C11.4912 10.0081 11.3887 10.1357 11.3203 10.2861C11.252 10.432 11.2178 10.5983 11.2178 10.7852C11.2178 10.9674 11.2588 11.1315 11.3408 11.2773C11.4274 11.4232 11.5505 11.5394 11.71 11.626C11.874 11.708 12.0654 11.749 12.2842 11.749C12.6032 11.749 12.8812 11.6852 13.1182 11.5576C13.3551 11.4255 13.5397 11.266 13.6719 11.0791C13.804 10.8923 13.8747 10.7145 13.8838 10.5459L14.4033 11.3252C14.3395 11.512 14.2438 11.7103 14.1162 11.9199C13.9886 12.1296 13.8245 12.3255 13.624 12.5078C13.4235 12.6901 13.182 12.8405 12.8994 12.959C12.6169 13.0775 12.2887 13.1367 11.915 13.1367C11.4365 13.1367 11.0081 13.041 10.6299 12.8496C10.2516 12.6582 9.95312 12.3962 9.73438 12.0635C9.51562 11.7308 9.40625 11.3525 9.40625 10.9287C9.40625 10.5368 9.47917 10.1904 9.625 9.88965C9.77083 9.58887 9.9873 9.33594 10.2744 9.13086C10.5615 8.92122 10.917 8.764 11.3408 8.65918C11.7692 8.5498 12.2591 8.49512 12.8105 8.49512H14.0273ZM19.0244 7.02539V15.8438H17.2129V5.60352H18.8877L19.0244 7.02539ZM23.7754 9.22656V9.37012C23.7754 9.90788 23.7116 10.4069 23.584 10.8672C23.4609 11.3229 23.2786 11.7217 23.0371 12.0635C22.7956 12.4007 22.4948 12.665 22.1348 12.8564C21.7793 13.0433 21.3691 13.1367 20.9043 13.1367C20.4486 13.1367 20.0521 13.0501 19.7148 12.877C19.3776 12.6992 19.0928 12.4486 18.8604 12.125C18.6279 11.8014 18.4411 11.4255 18.2998 10.9971C18.1631 10.5641 18.0605 10.0924 17.9922 9.58203V9.12402C18.0605 8.58171 18.1631 8.08952 18.2998 7.64746C18.4411 7.20085 18.6279 6.81576 18.8604 6.49219C19.0928 6.16406 19.3753 5.91113 19.708 5.7334C20.0452 5.55566 20.4395 5.4668 20.8906 5.4668C21.36 5.4668 21.7725 5.55566 22.1279 5.7334C22.488 5.91113 22.791 6.16634 23.0371 6.49902C23.2832 6.83171 23.4678 7.22819 23.5908 7.68848C23.7139 8.14876 23.7754 8.66146 23.7754 9.22656ZM21.9639 9.37012V9.22656C21.9639 8.89844 21.9342 8.59538 21.875 8.31738C21.8158 8.03483 21.7246 7.78874 21.6016 7.5791C21.4785 7.36491 21.319 7.19857 21.123 7.08008C20.9271 6.96159 20.6901 6.90234 20.4121 6.90234C20.1341 6.90234 19.8949 6.94792 19.6943 7.03906C19.4938 7.13021 19.3298 7.26009 19.2021 7.42871C19.0745 7.59733 18.9743 7.79785 18.9014 8.03027C18.833 8.25814 18.7874 8.51107 18.7646 8.78906V9.92383C18.8057 10.2611 18.8854 10.5641 19.0039 10.833C19.1224 11.1019 19.2956 11.3161 19.5234 11.4756C19.7559 11.6351 20.0566 11.7148 20.4258 11.7148C20.7038 11.7148 20.9408 11.6533 21.1367 11.5303C21.3327 11.4072 21.4922 11.2386 21.6152 11.0244C21.7383 10.8057 21.8271 10.555 21.8818 10.2725C21.9365 9.98991 21.9639 9.68913 21.9639 9.37012ZM26.9199 10.4229L29.6133 5.60352H31.4248V13H29.6133V8.17383L26.9199 13H25.1084V5.60352H26.9199V10.4229ZM37.1396 11.4277V8.0166C37.1396 7.76595 37.0964 7.54948 37.0098 7.36719C36.9232 7.1849 36.791 7.04362 36.6133 6.94336C36.4355 6.8431 36.21 6.79297 35.9365 6.79297C35.695 6.79297 35.4831 6.83398 35.3008 6.91602C35.123 6.99805 34.9863 7.11426 34.8906 7.26465C34.7949 7.41048 34.7471 7.5791 34.7471 7.77051H32.9355C32.9355 7.46517 33.0085 7.17578 33.1543 6.90234C33.3001 6.62435 33.5075 6.37826 33.7764 6.16406C34.0498 5.94531 34.3757 5.77441 34.7539 5.65137C35.1367 5.52832 35.5651 5.4668 36.0391 5.4668C36.5996 5.4668 37.0986 5.5625 37.5361 5.75391C37.9782 5.94076 38.3245 6.22331 38.5752 6.60156C38.8304 6.97982 38.958 7.45605 38.958 8.03027V11.2568C38.958 11.626 38.9808 11.9427 39.0264 12.207C39.0765 12.4668 39.1494 12.6924 39.2451 12.8838V13H37.4062C37.3197 12.8132 37.2536 12.5762 37.208 12.2891C37.1624 11.9974 37.1396 11.7103 37.1396 11.4277ZM37.3926 8.49512L37.4062 9.56836H36.2646C35.9821 9.56836 35.7337 9.59798 35.5195 9.65723C35.3053 9.71191 35.1299 9.79395 34.9932 9.90332C34.8564 10.0081 34.7539 10.1357 34.6855 10.2861C34.6172 10.432 34.583 10.5983 34.583 10.7852C34.583 10.9674 34.624 11.1315 34.7061 11.2773C34.7926 11.4232 34.9157 11.5394 35.0752 11.626C35.2393 11.708 35.4307 11.749 35.6494 11.749C35.9684 11.749 36.2464 11.6852 36.4834 11.5576C36.7204 11.4255 36.9049 11.266 37.0371 11.0791C37.1693 10.8923 37.2399 10.7145 37.249 10.5459L37.7686 11.3252C37.7048 11.512 37.609 11.7103 37.4814 11.9199C37.3538 12.1296 37.1898 12.3255 36.9893 12.5078C36.7887 12.6901 36.5472 12.8405 36.2646 12.959C35.9821 13.0775 35.654 13.1367 35.2803 13.1367C34.8018 13.1367 34.3734 13.041 33.9951 12.8496C33.6169 12.6582 33.3184 12.3962 33.0996 12.0635C32.8809 11.7308 32.7715 11.3525 32.7715 10.9287C32.7715 10.5368 32.8444 10.1904 32.9902 9.88965C33.1361 9.58887 33.3525 9.33594 33.6396 9.13086C33.9268 8.92122 34.2822 8.764 34.7061 8.65918C35.1344 8.5498 35.6243 8.49512 36.1758 8.49512H37.3926ZM45.6367 8.63867V10.0537H41.8428V8.63867H45.6367ZM42.4102 5.60352V13H40.5986V5.60352H42.4102ZM46.9014 5.60352V13H45.083V5.60352H46.9014ZM52.1309 5.60352V13H50.3193V5.60352H52.1309ZM54.5371 5.60352V7.01172H47.9541V5.60352H54.5371ZM64.1348 8.63867V10.0537H60.3408V8.63867H64.1348ZM60.9082 5.60352V13H59.0967V5.60352H60.9082ZM65.3994 5.60352V13H63.5811V5.60352H65.3994ZM71.1143 11.4277V8.0166C71.1143 7.76595 71.071 7.54948 70.9844 7.36719C70.8978 7.1849 70.7656 7.04362 70.5879 6.94336C70.4102 6.8431 70.1846 6.79297 69.9111 6.79297C69.6696 6.79297 69.4577 6.83398 69.2754 6.91602C69.0977 6.99805 68.9609 7.11426 68.8652 7.26465C68.7695 7.41048 68.7217 7.5791 68.7217 7.77051H66.9102C66.9102 7.46517 66.9831 7.17578 67.1289 6.90234C67.2747 6.62435 67.4821 6.37826 67.751 6.16406C68.0244 5.94531 68.3503 5.77441 68.7285 5.65137C69.1113 5.52832 69.5397 5.4668 70.0137 5.4668C70.5742 5.4668 71.0732 5.5625 71.5107 5.75391C71.9528 5.94076 72.2992 6.22331 72.5498 6.60156C72.805 6.97982 72.9326 7.45605 72.9326 8.03027V11.2568C72.9326 11.626 72.9554 11.9427 73.001 12.207C73.0511 12.4668 73.124 12.6924 73.2197 12.8838V13H71.3809C71.2943 12.8132 71.2282 12.5762 71.1826 12.2891C71.137 11.9974 71.1143 11.7103 71.1143 11.4277ZM71.3672 8.49512L71.3809 9.56836H70.2393C69.9567 9.56836 69.7083 9.59798 69.4941 9.65723C69.2799 9.71191 69.1045 9.79395 68.9678 9.90332C68.8311 10.0081 68.7285 10.1357 68.6602 10.2861C68.5918 10.432 68.5576 10.5983 68.5576 10.7852C68.5576 10.9674 68.5986 11.1315 68.6807 11.2773C68.7673 11.4232 68.8903 11.5394 69.0498 11.626C69.2139 11.708 69.4053 11.749 69.624 11.749C69.943 11.749 70.221 11.6852 70.458 11.5576C70.695 11.4255 70.8796 11.266 71.0117 11.0791C71.1439 10.8923 71.2145 10.7145 71.2236 10.5459L71.7432 11.3252C71.6794 11.512 71.5837 11.7103 71.4561 11.9199C71.3285 12.1296 71.1644 12.3255 70.9639 12.5078C70.7633 12.6901 70.5218 12.8405 70.2393 12.959C69.9567 13.0775 69.6286 13.1367 69.2549 13.1367C68.7764 13.1367 68.348 13.041 67.9697 12.8496C67.5915 12.6582 67.293 12.3962 67.0742 12.0635C66.8555 11.7308 66.7461 11.3525 66.7461 10.9287C66.7461 10.5368 66.819 10.1904 66.9648 9.88965C67.1107 9.58887 67.3271 9.33594 67.6143 9.13086C67.9014 8.92122 68.2568 8.764 68.6807 8.65918C69.109 8.5498 69.599 8.49512 70.1504 8.49512H71.3672ZM83.0156 5.60352V7.03223H79.3926V5.60352H83.0156ZM84.376 5.60352V13H82.5713V5.60352H84.376ZM78.9414 5.60352H80.7256L80.5273 9.29492C80.4954 9.83724 80.4385 10.3135 80.3564 10.7236C80.2744 11.1292 80.165 11.4779 80.0283 11.7695C79.8916 12.0566 79.7253 12.2913 79.5293 12.4736C79.3333 12.6559 79.1055 12.7904 78.8457 12.877C78.5905 12.959 78.3034 13 77.9844 13H77.4307L77.4102 11.5439L77.6699 11.5234C77.8294 11.5098 77.9661 11.4665 78.0801 11.3936C78.1986 11.3206 78.2988 11.2158 78.3809 11.0791C78.4674 10.9424 78.5381 10.7669 78.5928 10.5527C78.652 10.334 78.6976 10.0788 78.7295 9.78711C78.766 9.49089 78.791 9.14909 78.8047 8.76172L78.9414 5.60352ZM90.1045 11.4277V8.0166C90.1045 7.76595 90.0612 7.54948 89.9746 7.36719C89.888 7.1849 89.7559 7.04362 89.5781 6.94336C89.4004 6.8431 89.1748 6.79297 88.9014 6.79297C88.6598 6.79297 88.4479 6.83398 88.2656 6.91602C88.0879 6.99805 87.9512 7.11426 87.8555 7.26465C87.7598 7.41048 87.7119 7.5791 87.7119 7.77051H85.9004C85.9004 7.46517 85.9733 7.17578 86.1191 6.90234C86.265 6.62435 86.4723 6.37826 86.7412 6.16406C87.0146 5.94531 87.3405 5.77441 87.7188 5.65137C88.1016 5.52832 88.5299 5.4668 89.0039 5.4668C89.5645 5.4668 90.0635 5.5625 90.501 5.75391C90.943 5.94076 91.2894 6.22331 91.54 6.60156C91.7952 6.97982 91.9229 7.45605 91.9229 8.03027V11.2568C91.9229 11.626 91.9456 11.9427 91.9912 12.207C92.0413 12.4668 92.1143 12.6924 92.21 12.8838V13H90.3711C90.2845 12.8132 90.2184 12.5762 90.1729 12.2891C90.1273 11.9974 90.1045 11.7103 90.1045 11.4277ZM90.3574 8.49512L90.3711 9.56836H89.2295C88.9469 9.56836 88.6986 9.59798 88.4844 9.65723C88.2702 9.71191 88.0947 9.79395 87.958 9.90332C87.8213 10.0081 87.7188 10.1357 87.6504 10.2861C87.582 10.432 87.5479 10.5983 87.5479 10.7852C87.5479 10.9674 87.5889 11.1315 87.6709 11.2773C87.7575 11.4232 87.8805 11.5394 88.04 11.626C88.2041 11.708 88.3955 11.749 88.6143 11.749C88.9333 11.749 89.2113 11.6852 89.4482 11.5576C89.6852 11.4255 89.8698 11.266 90.002 11.0791C90.1341 10.8923 90.2048 10.7145 90.2139 10.5459L90.7334 11.3252C90.6696 11.512 90.5739 11.7103 90.4463 11.9199C90.3187 12.1296 90.1546 12.3255 89.9541 12.5078C89.7536 12.6901 89.512 12.8405 89.2295 12.959C88.9469 13.0775 88.6188 13.1367 88.2451 13.1367C87.7666 13.1367 87.3382 13.041 86.96 12.8496C86.5817 12.6582 86.2832 12.3962 86.0645 12.0635C85.8457 11.7308 85.7363 11.3525 85.7363 10.9287C85.7363 10.5368 85.8092 10.1904 85.9551 9.88965C86.1009 9.58887 86.3174 9.33594 86.6045 9.13086C86.8916 8.92122 87.2471 8.764 87.6709 8.65918C88.0993 8.5498 88.5892 8.49512 89.1406 8.49512H90.3574ZM97.0293 5.60352V13H95.2178V5.60352H97.0293ZM99.4355 5.60352V7.01172H92.8525V5.60352H99.4355ZM102.32 10.4229L105.014 5.60352H106.825V13H105.014V8.17383L102.32 13H100.509V5.60352H102.32V10.4229ZM113.518 8.63867V10.0537H109.724V8.63867H113.518ZM110.291 5.60352V13H108.479V5.60352H110.291ZM114.782 5.60352V13H112.964V5.60352H114.782ZM118.248 10.4229L120.941 5.60352H122.753V13H120.941V8.17383L118.248 13H116.437V5.60352H118.248V10.4229ZM124.407 13V5.60352H126.219V11.5781H128.905V5.60352H130.724V13H124.407ZM131.776 11.585L131.646 15.1943H129.972V13H129.117V11.585H131.776ZM136.192 13.1367C135.632 13.1367 135.128 13.0456 134.682 12.8633C134.235 12.681 133.854 12.4281 133.54 12.1045C133.23 11.7764 132.991 11.3958 132.822 10.9629C132.658 10.5254 132.576 10.056 132.576 9.55469V9.28125C132.576 8.71159 132.658 8.19434 132.822 7.72949C132.986 7.26009 133.219 6.85677 133.52 6.51953C133.82 6.18229 134.18 5.92253 134.6 5.74023C135.019 5.55794 135.481 5.4668 135.987 5.4668C136.511 5.4668 136.974 5.55566 137.375 5.7334C137.776 5.90658 138.111 6.15267 138.38 6.47168C138.649 6.79069 138.852 7.1735 138.988 7.62012C139.125 8.06217 139.193 8.55208 139.193 9.08984V9.84863H133.396V8.60449H137.416V8.46777C137.407 8.18066 137.352 7.91862 137.252 7.68164C137.152 7.4401 136.997 7.2487 136.787 7.10742C136.577 6.96159 136.306 6.88867 135.974 6.88867C135.705 6.88867 135.47 6.94792 135.27 7.06641C135.074 7.18034 134.91 7.3444 134.777 7.55859C134.65 7.76823 134.554 8.01888 134.49 8.31055C134.426 8.60221 134.395 8.92578 134.395 9.28125V9.55469C134.395 9.86458 134.436 10.1517 134.518 10.416C134.604 10.6803 134.729 10.9105 134.894 11.1064C135.062 11.2979 135.263 11.4482 135.495 11.5576C135.732 11.6624 136.001 11.7148 136.302 11.7148C136.68 11.7148 137.022 11.6419 137.327 11.4961C137.637 11.3457 137.906 11.1247 138.134 10.833L139.043 11.7764C138.888 12.0042 138.678 12.223 138.414 12.4326C138.154 12.6423 137.84 12.8132 137.471 12.9453C137.102 13.0729 136.675 13.1367 136.192 13.1367Z" fill="black"/>
<path d="M48.1335 72.1828H62.2581C66.8179 72.1828 67.6166 69.1897 67.8764 66.4543C68.1107 63.9895 71.3437 27.0046 71.3437 27.0046H57.2872C53.2854 27.0046 51.884 29.3033 51.5539 33.0655C51.3878 34.9402 48.125 72.1828 48.125 72.1828" fill="#008C95"/>
<path d="M145.736 61.5859H140.821L143.845 27.002H124.588C124.588 27.002 121.304 65.2586 121.108 67.161C120.912 69.0634 122.797 72.1801 126.123 72.1801H159.484C160.73 72.1753 161.929 71.7092 162.852 70.8716C163.774 70.034 164.353 68.8844 164.478 67.6446C164.672 65.4184 168.022 27.002 168.022 27.002H148.765L145.736 61.5859Z" fill="#008C95"/>
<path d="M8.77641 27.0046C5.33684 27.0046 3.45199 28.7899 3.10058 32.9909C2.92168 35.0829 1.71837 48.6596 1.5629 50.6195C1.40743 52.5794 2.13793 54.2922 4.57864 54.2922H25.4759L24.7326 62.788H19.7575L20.1004 58.8724H0.840907C0.840907 58.8724 0.29143 65.6363 0.0443779 67.9668C-0.202675 70.2974 0.529962 72.1849 3.55635 72.1849H37.7689C43.1849 72.1849 43.4617 68.2054 43.7769 65.1931C44.0687 62.4045 45.1783 49.2561 45.3231 47.5987C45.468 45.9412 44.2966 44.8974 42.7099 44.8974H21.3228L22.064 36.3994H27.0413L26.7026 40.315H45.9578C45.9578 40.315 46.5712 32.7459 46.7905 30.6134C47.0099 28.481 45.9088 27.0046 43.6641 27.0046H8.77641Z" fill="#008C95"/>
<path d="M93.1135 54.2918H98.0333L97.2879 62.7876H92.3702L93.1135 54.2918ZM99.5965 36.3969L98.8554 44.8927H93.9377L94.681 36.3969H99.5965ZM76.2458 27L72.293 72.1782H110.825C114.07 72.1782 115.9 70.1565 116.198 66.6733C116.317 65.2588 116.748 60.4698 117.093 56.5308C117.216 55.1184 116.88 53.8764 115.663 52.9774L111.125 49.6285C111.125 49.6285 115.485 46.776 116.62 46.041C117.755 45.306 118.164 44.3942 118.302 42.6495C118.622 38.7147 119.039 34.2176 119.135 32.9713C119.388 29.7141 117.559 27.0064 113.63 27.0064L76.2458 27Z" fill="#008C95"/>
<path d="M190.286 48.8104L191.266 37.6027H196.164L195.183 48.8104H190.286ZM210.981 27.0021H172.935L168.984 72.1803H188.242L189.464 58.2031H194.363L193.142 72.1782H212.385C212.385 72.1782 213.237 62.2422 213.379 60.7787C213.522 59.3152 213.234 57.777 211.837 56.746L207.446 53.5078C207.446 53.5078 211.354 50.9834 212.589 50.144C213.824 49.3047 214.472 48.4142 214.687 45.845C214.902 43.2758 215.724 34.1111 215.852 32.3983C216.065 29.4456 213.584 27 210.973 27" fill="#008C95"/>
</svg>
