<svg width="292" height="496" viewBox="0 0 292 496" fill="none" xmlns="http://www.w3.org/2000/svg">
<path d="M8.125 3.04688V4.12695H3.32617V13H2.01367V3.04688H8.125ZM9.5127 10.9971L12.9238 5.60352H14.1953V13H12.9238V7.60645L9.5127 13H8.25488V5.60352H9.5127V10.9971ZM20.9697 2.38379H22.0088C22.0088 2.8304 21.9404 3.18587 21.8037 3.4502C21.667 3.70996 21.4801 3.91048 21.2432 4.05176C21.0107 4.19303 20.7464 4.30013 20.4502 4.37305C20.1585 4.44596 19.8555 4.5166 19.541 4.58496C19.1491 4.66699 18.7845 4.79688 18.4473 4.97461C18.1146 5.14779 17.8275 5.39388 17.5859 5.71289C17.349 6.0319 17.1735 6.44661 17.0596 6.95703C16.9502 7.46745 16.9206 8.09863 16.9707 8.85059V9.47949H15.9316V8.85059C15.9316 8.00749 16.0114 7.27148 16.1709 6.64258C16.335 6.01367 16.5651 5.48275 16.8613 5.0498C17.1576 4.61686 17.5085 4.27279 17.9141 4.01758C18.3242 3.76237 18.7754 3.58691 19.2676 3.49121C19.623 3.42285 19.9284 3.34993 20.1836 3.27246C20.4388 3.19043 20.6325 3.08105 20.7646 2.94434C20.9014 2.80762 20.9697 2.62077 20.9697 2.38379ZM19.4727 6.02734C19.9557 6.02734 20.3864 6.11165 20.7646 6.28027C21.1429 6.44889 21.4642 6.68359 21.7285 6.98438C21.9928 7.28516 22.1934 7.64062 22.3301 8.05078C22.4714 8.45638 22.542 8.89844 22.542 9.37695V9.52734C22.542 10.0423 22.4668 10.5208 22.3164 10.9629C22.1706 11.4004 21.9541 11.7832 21.667 12.1113C21.3844 12.4349 21.0381 12.6878 20.6279 12.8701C20.2223 13.0524 19.7598 13.1436 19.2402 13.1436C18.7207 13.1436 18.2559 13.0524 17.8457 12.8701C17.4401 12.6878 17.0938 12.4349 16.8066 12.1113C16.5195 11.7832 16.3008 11.4004 16.1504 10.9629C16.0046 10.5208 15.9316 10.0423 15.9316 9.52734V9.37695C15.9316 9.26302 15.9521 9.15137 15.9932 9.04199C16.0342 8.93262 16.0843 8.82096 16.1436 8.70703C16.2074 8.5931 16.2643 8.47233 16.3145 8.34473C16.4831 7.93457 16.7132 7.55404 17.0049 7.20312C17.3011 6.85221 17.6543 6.56966 18.0645 6.35547C18.4792 6.13672 18.9486 6.02734 19.4727 6.02734ZM19.2266 7.05957C18.7617 7.05957 18.3789 7.16667 18.0781 7.38086C17.7819 7.59505 17.5609 7.87988 17.415 8.23535C17.2692 8.58626 17.1963 8.9668 17.1963 9.37695V9.52734C17.1963 9.8737 17.2373 10.2018 17.3193 10.5117C17.4014 10.8216 17.5244 11.0973 17.6885 11.3389C17.8571 11.5758 18.069 11.7627 18.3242 11.8994C18.584 12.0361 18.8893 12.1045 19.2402 12.1045C19.5911 12.1045 19.8942 12.0361 20.1494 11.8994C20.4046 11.7627 20.6143 11.5758 20.7783 11.3389C20.9424 11.0973 21.0654 10.8216 21.1475 10.5117C21.2295 10.2018 21.2705 9.8737 21.2705 9.52734V9.37695C21.2705 9.06706 21.2295 8.77311 21.1475 8.49512C21.0654 8.21712 20.9401 7.97103 20.7715 7.75684C20.6074 7.54264 20.3955 7.37402 20.1357 7.25098C19.8805 7.12337 19.5775 7.05957 19.2266 7.05957ZM25.2285 5.60352V13H23.9639V5.60352H25.2285ZM30.082 5.60352L26.5752 9.8418H24.8047L24.6133 8.73438H26.0625L28.5439 5.60352H30.082ZM28.7217 13L26.001 9.65039L26.8145 8.73438L30.3281 13H28.7217ZM35.79 11.7354V7.92773C35.79 7.63607 35.7308 7.38314 35.6123 7.16895C35.4984 6.9502 35.3252 6.78158 35.0928 6.66309C34.8604 6.5446 34.5732 6.48535 34.2314 6.48535C33.9124 6.48535 33.6322 6.54004 33.3906 6.64941C33.1536 6.75879 32.9668 6.90234 32.8301 7.08008C32.6979 7.25781 32.6318 7.44922 32.6318 7.6543H31.3672C31.3672 7.38997 31.4355 7.12793 31.5723 6.86816C31.709 6.6084 31.9049 6.3737 32.1602 6.16406C32.4199 5.94987 32.7298 5.78125 33.0898 5.6582C33.4544 5.5306 33.86 5.4668 34.3066 5.4668C34.8444 5.4668 35.3184 5.55794 35.7285 5.74023C36.1432 5.92253 36.4668 6.19824 36.6992 6.56738C36.9362 6.93197 37.0547 7.38997 37.0547 7.94141V11.3867C37.0547 11.6328 37.0752 11.8949 37.1162 12.1729C37.1618 12.4508 37.2279 12.6901 37.3145 12.8906V13H35.9951C35.9313 12.8542 35.8812 12.6605 35.8447 12.4189C35.8083 12.1729 35.79 11.945 35.79 11.7354ZM36.0088 8.51562L36.0225 9.4043H34.7441C34.3841 9.4043 34.0628 9.43392 33.7803 9.49316C33.4977 9.54785 33.2607 9.63216 33.0693 9.74609C32.8779 9.86003 32.7321 10.0036 32.6318 10.1768C32.5316 10.3454 32.4814 10.5436 32.4814 10.7715C32.4814 11.0039 32.5339 11.2158 32.6387 11.4072C32.7435 11.5986 32.9007 11.7513 33.1104 11.8652C33.3245 11.9746 33.5866 12.0293 33.8965 12.0293C34.2839 12.0293 34.6257 11.9473 34.9219 11.7832C35.2181 11.6191 35.4528 11.4186 35.626 11.1816C35.8037 10.9447 35.8994 10.7145 35.9131 10.4912L36.4531 11.0996C36.4212 11.291 36.3346 11.5029 36.1934 11.7354C36.0521 11.9678 35.863 12.1911 35.626 12.4053C35.3936 12.6149 35.1156 12.7904 34.792 12.9316C34.473 13.0684 34.113 13.1367 33.7119 13.1367C33.2106 13.1367 32.7708 13.0387 32.3926 12.8428C32.0189 12.6468 31.7272 12.3848 31.5176 12.0566C31.3125 11.724 31.21 11.3525 31.21 10.9424C31.21 10.5459 31.2874 10.1973 31.4424 9.89648C31.5973 9.59115 31.8206 9.33822 32.1123 9.1377C32.404 8.93262 32.7549 8.77767 33.165 8.67285C33.5752 8.56803 34.0332 8.51562 34.5391 8.51562H36.0088ZM40.541 9.47266H41.9082L39.7686 13H38.4014L40.541 9.47266ZM41.6006 5.60352H44.6904V13H43.4258V6.62891H41.6006C41.2406 6.62891 40.9466 6.69043 40.7188 6.81348C40.4909 6.93197 40.3245 7.08691 40.2197 7.27832C40.1149 7.46973 40.0625 7.66797 40.0625 7.87305C40.0625 8.07357 40.1104 8.26725 40.2061 8.4541C40.3018 8.63639 40.4521 8.78678 40.6572 8.90527C40.8623 9.02376 41.1266 9.08301 41.4502 9.08301H43.7676V10.1221H41.4502C41.0264 10.1221 40.6504 10.0651 40.3223 9.95117C39.9941 9.83724 39.7161 9.68001 39.4883 9.47949C39.2604 9.27441 39.0872 9.03516 38.9688 8.76172C38.8503 8.48372 38.791 8.18294 38.791 7.85938C38.791 7.53581 38.8525 7.2373 38.9756 6.96387C39.1032 6.69043 39.2855 6.45117 39.5225 6.24609C39.764 6.04102 40.0579 5.88379 40.4043 5.77441C40.7552 5.66048 41.154 5.60352 41.6006 5.60352ZM52.2783 12.2344L54.3359 5.60352H55.6895L52.7227 14.1416C52.6543 14.3239 52.5632 14.5199 52.4492 14.7295C52.3398 14.9437 52.1986 15.1465 52.0254 15.3379C51.8522 15.5293 51.6426 15.6842 51.3965 15.8027C51.1549 15.9258 50.8656 15.9873 50.5283 15.9873C50.4281 15.9873 50.3005 15.9736 50.1455 15.9463C49.9906 15.9189 49.8812 15.8962 49.8174 15.8779L49.8105 14.8525C49.847 14.8571 49.904 14.8617 49.9814 14.8662C50.0635 14.8753 50.1204 14.8799 50.1523 14.8799C50.4395 14.8799 50.6833 14.8411 50.8838 14.7637C51.0843 14.6908 51.2529 14.5654 51.3896 14.3877C51.5309 14.2145 51.6517 13.9753 51.752 13.6699L52.2783 12.2344ZM50.7676 5.60352L52.6885 11.3457L53.0166 12.6787L52.1074 13.1436L49.3867 5.60352H50.7676ZM61.7598 5.60352V6.64941H58.0205V5.60352H61.7598ZM58.2051 5.60352V13H56.9404V5.60352H58.2051ZM62.8809 5.60352V13H61.6094V5.60352H62.8809ZM69.2725 11.7354V7.92773C69.2725 7.63607 69.2132 7.38314 69.0947 7.16895C68.9808 6.9502 68.8076 6.78158 68.5752 6.66309C68.3428 6.5446 68.0557 6.48535 67.7139 6.48535C67.3949 6.48535 67.1146 6.54004 66.873 6.64941C66.6361 6.75879 66.4492 6.90234 66.3125 7.08008C66.1803 7.25781 66.1143 7.44922 66.1143 7.6543H64.8496C64.8496 7.38997 64.918 7.12793 65.0547 6.86816C65.1914 6.6084 65.3874 6.3737 65.6426 6.16406C65.9023 5.94987 66.2122 5.78125 66.5723 5.6582C66.9368 5.5306 67.3424 5.4668 67.7891 5.4668C68.3268 5.4668 68.8008 5.55794 69.2109 5.74023C69.6257 5.92253 69.9492 6.19824 70.1816 6.56738C70.4186 6.93197 70.5371 7.38997 70.5371 7.94141V11.3867C70.5371 11.6328 70.5576 11.8949 70.5986 12.1729C70.6442 12.4508 70.7103 12.6901 70.7969 12.8906V13H69.4775C69.4137 12.8542 69.3636 12.6605 69.3271 12.4189C69.2907 12.1729 69.2725 11.945 69.2725 11.7354ZM69.4912 8.51562L69.5049 9.4043H68.2266C67.8665 9.4043 67.5452 9.43392 67.2627 9.49316C66.9801 9.54785 66.7432 9.63216 66.5518 9.74609C66.3604 9.86003 66.2145 10.0036 66.1143 10.1768C66.014 10.3454 65.9639 10.5436 65.9639 10.7715C65.9639 11.0039 66.0163 11.2158 66.1211 11.4072C66.2259 11.5986 66.3831 11.7513 66.5928 11.8652C66.807 11.9746 67.069 12.0293 67.3789 12.0293C67.7663 12.0293 68.1081 11.9473 68.4043 11.7832C68.7005 11.6191 68.9352 11.4186 69.1084 11.1816C69.2861 10.9447 69.3818 10.7145 69.3955 10.4912L69.9355 11.0996C69.9036 11.291 69.8171 11.5029 69.6758 11.7354C69.5345 11.9678 69.3454 12.1911 69.1084 12.4053C68.876 12.6149 68.598 12.7904 68.2744 12.9316C67.9554 13.0684 67.5954 13.1367 67.1943 13.1367C66.693 13.1367 66.2533 13.0387 65.875 12.8428C65.5013 12.6468 65.2096 12.3848 65 12.0566C64.7949 11.724 64.6924 11.3525 64.6924 10.9424C64.6924 10.5459 64.7699 10.1973 64.9248 9.89648C65.0798 9.59115 65.3031 9.33822 65.5947 9.1377C65.8864 8.93262 66.2373 8.77767 66.6475 8.67285C67.0576 8.56803 67.5156 8.51562 68.0215 8.51562H69.4912ZM73.9004 5.60352V13H72.6357V5.60352H73.9004ZM78.7539 5.60352L75.2471 9.8418H73.4766L73.2852 8.73438H74.7344L77.2158 5.60352H78.7539ZM77.3936 13L74.6729 9.65039L75.4863 8.73438L79 13H77.3936ZM79.6152 9.38379V9.22656C79.6152 8.69336 79.6927 8.19889 79.8477 7.74316C80.0026 7.28288 80.2259 6.88411 80.5176 6.54688C80.8092 6.20508 81.1624 5.94076 81.5771 5.75391C81.9919 5.5625 82.4567 5.4668 82.9717 5.4668C83.4912 5.4668 83.9583 5.5625 84.373 5.75391C84.7923 5.94076 85.1478 6.20508 85.4395 6.54688C85.7357 6.88411 85.9613 7.28288 86.1162 7.74316C86.2712 8.19889 86.3486 8.69336 86.3486 9.22656V9.38379C86.3486 9.91699 86.2712 10.4115 86.1162 10.8672C85.9613 11.3229 85.7357 11.7217 85.4395 12.0635C85.1478 12.4007 84.7946 12.665 84.3799 12.8564C83.9697 13.0433 83.5049 13.1367 82.9854 13.1367C82.4658 13.1367 81.9987 13.0433 81.584 12.8564C81.1693 12.665 80.8138 12.4007 80.5176 12.0635C80.2259 11.7217 80.0026 11.3229 79.8477 10.8672C79.6927 10.4115 79.6152 9.91699 79.6152 9.38379ZM80.8799 9.22656V9.38379C80.8799 9.75293 80.9232 10.1016 81.0098 10.4297C81.0964 10.7533 81.2262 11.0404 81.3994 11.291C81.5771 11.5417 81.7982 11.7399 82.0625 11.8857C82.3268 12.027 82.6344 12.0977 82.9854 12.0977C83.3317 12.0977 83.6348 12.027 83.8945 11.8857C84.1589 11.7399 84.3776 11.5417 84.5508 11.291C84.724 11.0404 84.8538 10.7533 84.9404 10.4297C85.0316 10.1016 85.0771 9.75293 85.0771 9.38379V9.22656C85.0771 8.86198 85.0316 8.5179 84.9404 8.19434C84.8538 7.86621 84.7217 7.57682 84.5439 7.32617C84.3708 7.07096 84.152 6.87044 83.8877 6.72461C83.6279 6.57878 83.3226 6.50586 82.9717 6.50586C82.6253 6.50586 82.32 6.57878 82.0557 6.72461C81.7959 6.87044 81.5771 7.07096 81.3994 7.32617C81.2262 7.57682 81.0964 7.86621 81.0098 8.19434C80.9232 8.5179 80.8799 8.86198 80.8799 9.22656ZM91.4072 9.74609H88.9805L88.9668 8.73438H90.9492C91.3411 8.73438 91.667 8.69564 91.9268 8.61816C92.1911 8.54069 92.3893 8.42448 92.5215 8.26953C92.6536 8.11458 92.7197 7.92318 92.7197 7.69531C92.7197 7.51758 92.681 7.36263 92.6035 7.23047C92.5306 7.09375 92.4189 6.9821 92.2686 6.89551C92.1182 6.80436 91.9313 6.73828 91.708 6.69727C91.4893 6.65169 91.2318 6.62891 90.9355 6.62891H89.3154V13H88.0508V5.60352H90.9355C91.4049 5.60352 91.8265 5.64453 92.2002 5.72656C92.5785 5.80859 92.8997 5.93392 93.1641 6.10254C93.4329 6.2666 93.638 6.47624 93.7793 6.73145C93.9206 6.98665 93.9912 7.28743 93.9912 7.63379C93.9912 7.8571 93.9456 8.06901 93.8545 8.26953C93.7633 8.47005 93.6289 8.64779 93.4512 8.80273C93.2734 8.95768 93.0547 9.08529 92.7949 9.18555C92.5352 9.28125 92.2367 9.34277 91.8994 9.37012L91.4072 9.74609ZM91.4072 13H88.5225L89.1514 11.9746H91.4072C91.7581 11.9746 92.0498 11.9313 92.2822 11.8447C92.5146 11.7536 92.6878 11.626 92.8018 11.4619C92.9202 11.2933 92.9795 11.0928 92.9795 10.8604C92.9795 10.6279 92.9202 10.4297 92.8018 10.2656C92.6878 10.097 92.5146 9.9694 92.2822 9.88281C92.0498 9.79167 91.7581 9.74609 91.4072 9.74609H89.4863L89.5 8.73438H91.8994L92.3574 9.11719C92.763 9.14909 93.1071 9.24935 93.3896 9.41797C93.6722 9.58659 93.8864 9.80078 94.0322 10.0605C94.1781 10.3158 94.251 10.5938 94.251 10.8945C94.251 11.2409 94.1849 11.5462 94.0527 11.8105C93.9251 12.0749 93.7383 12.2959 93.4922 12.4736C93.2461 12.6468 92.9476 12.779 92.5967 12.8701C92.2458 12.9567 91.8493 13 91.4072 13ZM97.3203 5.60352V13H96.0557V5.60352H97.3203ZM102.174 5.60352L98.667 9.8418H96.8965L96.7051 8.73438H98.1543L100.636 5.60352H102.174ZM100.813 13L98.0928 9.65039L98.9062 8.73438L102.42 13H100.813ZM107.882 11.7354V7.92773C107.882 7.63607 107.823 7.38314 107.704 7.16895C107.59 6.9502 107.417 6.78158 107.185 6.66309C106.952 6.5446 106.665 6.48535 106.323 6.48535C106.004 6.48535 105.724 6.54004 105.482 6.64941C105.245 6.75879 105.059 6.90234 104.922 7.08008C104.79 7.25781 104.724 7.44922 104.724 7.6543H103.459C103.459 7.38997 103.527 7.12793 103.664 6.86816C103.801 6.6084 103.997 6.3737 104.252 6.16406C104.512 5.94987 104.822 5.78125 105.182 5.6582C105.546 5.5306 105.952 5.4668 106.398 5.4668C106.936 5.4668 107.41 5.55794 107.82 5.74023C108.235 5.92253 108.559 6.19824 108.791 6.56738C109.028 6.93197 109.146 7.38997 109.146 7.94141V11.3867C109.146 11.6328 109.167 11.8949 109.208 12.1729C109.254 12.4508 109.32 12.6901 109.406 12.8906V13H108.087C108.023 12.8542 107.973 12.6605 107.937 12.4189C107.9 12.1729 107.882 11.945 107.882 11.7354ZM108.101 8.51562L108.114 9.4043H106.836C106.476 9.4043 106.155 9.43392 105.872 9.49316C105.59 9.54785 105.353 9.63216 105.161 9.74609C104.97 9.86003 104.824 10.0036 104.724 10.1768C104.623 10.3454 104.573 10.5436 104.573 10.7715C104.573 11.0039 104.626 11.2158 104.73 11.4072C104.835 11.5986 104.993 11.7513 105.202 11.8652C105.416 11.9746 105.678 12.0293 105.988 12.0293C106.376 12.0293 106.717 11.9473 107.014 11.7832C107.31 11.6191 107.545 11.4186 107.718 11.1816C107.896 10.9447 107.991 10.7145 108.005 10.4912L108.545 11.0996C108.513 11.291 108.426 11.5029 108.285 11.7354C108.144 11.9678 107.955 12.1911 107.718 12.4053C107.485 12.6149 107.207 12.7904 106.884 12.9316C106.565 13.0684 106.205 13.1367 105.804 13.1367C105.302 13.1367 104.863 13.0387 104.484 12.8428C104.111 12.6468 103.819 12.3848 103.609 12.0566C103.404 11.724 103.302 11.3525 103.302 10.9424C103.302 10.5459 103.379 10.1973 103.534 9.89648C103.689 9.59115 103.912 9.33822 104.204 9.1377C104.496 8.93262 104.847 8.77767 105.257 8.67285C105.667 8.56803 106.125 8.51562 106.631 8.51562H108.101Z" fill="#008C95"/>
<path d="M119.134 90.6217L106.84 102.916L115.711 111.787L128.005 99.4926L119.134 90.6217Z" fill="#77E2C3"/>
<path d="M121.942 93.4242L110.699 104.667L113.96 107.928L125.203 96.6851L121.942 93.4242Z" fill="#008C95"/>
<path d="M132.267 96.7224L130.717 96.8015L130.678 96.762L130.757 95.2116L129.214 95.2907L129.293 93.7482L127.743 93.8273L127.822 92.2769L126.272 92.356L126.351 90.8056L124.808 90.8847L124.887 89.3422L123.337 89.4214L123.416 87.8709L121.866 87.95L121.945 86.3997L121.842 86.4076L121.082 87.1669L119.991 88.2586L119.145 90.6237L128.012 99.491L130.377 98.6446L131.469 97.553L132.267 96.7541V96.7224Z" fill="#008C95"/>
<path d="M113.991 114.986L114.07 113.444L114.03 113.404L112.488 113.483L112.567 111.933L111.016 112.012L111.096 110.461L109.545 110.54L109.624 108.998L108.082 109.077L108.161 107.527L106.61 107.606L106.69 106.055L105.139 106.135L105.218 104.592L103.676 104.671L103.684 104.56L104.435 103.801L105.535 102.709L107.892 101.863L116.767 110.73L115.921 113.095L114.821 114.187L114.022 114.986H113.991Z" fill="#008C95"/>
<path d="M68.6954 106.934H59.1953V89.46H74.8179V100.811L68.6954 106.934Z" fill="#77E2C3"/>
<path d="M68.6953 106.933V100.81H74.8178L68.6953 106.933Z" fill="#008C95"/>
<path d="M53.5391 95.0289V106.364C53.5391 109.441 56.0703 111.933 59.1948 111.933C62.3194 111.933 64.8506 109.441 64.8506 106.364V95.0289H53.5391Z" fill="#008C95"/>
<path d="M64.8506 95.0287C64.8506 98.1058 62.3194 100.597 59.1948 100.597C56.0703 100.597 53.5391 98.1058 53.5391 95.0287C53.5391 91.9517 56.0703 89.46 59.1948 89.46C62.3194 89.46 64.8506 91.9517 64.8506 95.0287Z" fill="white"/>
<path d="M62.2111 95.0291C62.2111 96.6665 60.8585 97.9954 59.1974 97.9954C57.5362 97.9954 56.1836 96.6665 56.1836 95.0291C56.1836 93.3917 57.5362 92.0627 59.1974 92.0627C60.8664 92.0627 62.2111 93.3917 62.2111 95.0291Z" fill="#77E2C3"/>
<path d="M8.98059 32.9729H4.22656V36.2794H8.98059V32.9729Z" fill="#008C95"/>
<path d="M0.796875 60.106L1.5246 60.8337H2.98009L3.6999 60.106H5.15539L5.88312 60.8337H7.33069L8.05842 60.106H9.51389L10.2337 60.8337H11.6892L12.4169 60.106V54.3711H0.796875V60.106Z" fill="#77E2C3"/>
<path d="M9.64045 36.2794H3.57336C1.76984 38.7553 0.804785 40.9385 0.796875 43.9998H12.409C12.409 40.9385 11.4361 38.7553 9.64045 36.2794Z" fill="#77E2C3"/>
<path d="M0.808594 44C0.808594 44.0079 0.808594 44.0158 0.808594 44.0237V53.4843V54.3703H19.9908V53.4843V44.0237C19.9908 44.0158 19.9908 44.0079 19.9908 44H0.808594Z" fill="#008C95"/>
<path d="M67.2861 34.0886H58.0312V56.0789H74.9828V41.7931L67.2861 34.0886Z" fill="#77E2C3"/>
<path d="M67.2852 34.0886V41.7931H74.9818L67.2852 34.0886Z" fill="#008C95"/>
<path d="M53.3867 38.6692V55.1461C53.3867 57.6694 55.4671 59.7182 58.03 59.7182C60.5929 59.7182 62.6733 57.6694 62.6733 55.1461V38.6692H53.3867Z" fill="#008C95"/>
<path d="M62.6733 38.6607C62.6733 41.1841 60.5929 43.2328 58.03 43.2328C55.4671 43.2328 53.3867 41.1841 53.3867 38.6607C53.3867 36.1374 55.4671 34.0886 58.03 34.0886C60.5929 34.0886 62.6733 36.1374 62.6733 38.6607Z" fill="white"/>
<path d="M60.5065 38.66C60.5065 40.0047 59.399 41.0963 58.0306 41.0963C56.6621 41.0963 55.5547 40.0047 55.5547 38.66C55.5547 37.3152 56.6621 36.2236 58.0306 36.2236C59.399 36.2315 60.5065 37.3152 60.5065 38.66Z" fill="#77E2C3"/>
<path d="M118.72 38.1642L109.223 47.6616L117.199 55.6377L126.696 46.1402L118.72 38.1642Z" fill="#77E2C3"/>
<path d="M117.199 55.6426L115.142 59.0361L105.832 49.7258L109.225 47.6692L117.199 55.6426Z" fill="#77E2C3"/>
<path d="M105.831 49.7279L103.297 52.2617L112.604 61.569L115.138 59.0352L105.831 49.7279Z" fill="#008C95"/>
<path d="M118.727 38.1689L120.791 34.7676L130.101 44.0779L126.7 46.1424L118.727 38.1689Z" fill="#77E2C3"/>
<path d="M123.319 32.2387L120.785 34.7725L130.092 44.0797L132.626 41.5459L123.319 32.2387Z" fill="#008C95"/>
<path d="M167.409 32L165.906 33.2498H168.92L167.409 32Z" fill="#77E2C3"/>
<path d="M164.394 32L162.891 33.2498H165.904L164.394 32Z" fill="#77E2C3"/>
<path d="M170.425 32L168.922 33.2498H171.936L170.425 32Z" fill="#77E2C3"/>
<path d="M173.44 32L171.938 33.2498H174.943L173.44 32Z" fill="#77E2C3"/>
<path d="M176.448 32L174.945 33.2498H177.951L176.448 32Z" fill="#77E2C3"/>
<path d="M179.464 32L177.953 33.2498H180.967L179.464 32Z" fill="#77E2C3"/>
<path d="M171.6 44.7514L180.965 33.25H162.891L171.6 44.7514Z" fill="#77E2C3"/>
<path d="M180.728 45.7241V59.124C180.728 60.6032 179.518 61.8135 178.039 61.8135H165.24C163.761 61.8135 162.551 60.6032 162.551 59.124V45.7241C162.551 44.2449 163.761 43.0347 165.24 43.0347H178.039C179.518 43.0347 180.728 44.2449 180.728 45.7241Z" fill="#77E2C3"/>
<path d="M178.431 47.5047C178.431 46.7532 177.814 46.1362 177.062 46.1362H166.415C165.664 46.1362 165.047 46.7532 165.047 47.5047C165.047 48.0505 165.379 48.5488 165.885 48.7624L165.877 49.1579V50.1704V58.8479C165.877 59.3067 166.249 59.6785 166.708 59.6785H176.928C177.387 59.6785 177.759 59.3067 177.759 58.8479V49.9568V49.1104L177.782 48.6596C178.186 48.4144 178.431 47.9793 178.431 47.5047Z" fill="#008C95"/>
<path d="M171.132 56.0317C171.132 56.7199 170.579 57.2736 169.89 57.2736C169.202 57.2736 168.648 56.7199 168.648 56.0317C168.648 55.3435 169.202 54.7898 169.89 54.7898C170.579 54.7898 171.132 55.3435 171.132 56.0317Z" fill="#77E2C3"/>
<path d="M175.66 53.5627C175.66 54.0848 175.233 54.512 174.711 54.512C174.189 54.512 173.762 54.0848 173.762 53.5627C173.762 53.0407 174.189 52.6135 174.711 52.6135C175.233 52.6135 175.66 53.0407 175.66 53.5627Z" fill="#77E2C3"/>
<path d="M172.378 50.2258C172.378 50.914 171.825 51.4677 171.136 51.4677C170.448 51.4677 169.895 50.914 169.895 50.2258C169.895 49.5376 170.448 48.9839 171.136 48.9839C171.825 48.9918 172.378 49.5455 172.378 50.2258Z" fill="#77E2C3"/>
<path d="M237.515 48.3586L238.187 44.6883V44.3482C238.156 41.8327 237.428 39.7998 235.719 37.4268V34.6977C235.719 33.7406 234.881 32.9575 233.853 32.9575H229.027C228.102 32.9575 227.271 33.5191 226.986 34.3339C226.789 34.9113 226.275 35.204 225.752 35.2357C225.745 35.2357 225.737 35.2357 225.729 35.2357C225.658 35.2357 225.586 35.2356 225.515 35.2277V35.2357C224.787 35.2198 224.242 34.9746 224.099 34.3339C223.815 33.5112 222.992 32.9575 222.058 32.9575H217.233C216.205 32.9575 215.366 33.7327 215.366 34.6977V37.4268C213.658 39.7998 212.93 41.8327 212.898 44.3482V44.6883L213.571 48.3586L212.906 53.6506L212.898 58.8871L214.884 60.8409H223.182L223.735 60.3109C224.234 59.8363 224.874 59.5753 225.523 59.5199C226.188 59.5674 226.836 59.8284 227.342 60.3109L227.896 60.8409H228.339H232.009H236.194L238.179 58.8871L238.171 53.6506L237.515 48.3586Z" fill="#77E2C3"/>
<path d="M221.871 35.0217H217.758V37.7508H221.871V35.0217Z" fill="#008C95"/>
<path d="M215.336 58.3727L215.898 58.9343H217.013L217.575 58.3727H218.698L219.251 58.9343H220.375L220.928 58.3727H222.052L222.605 58.9343H223.729L224.282 58.3727V54.2515H215.336V58.3727Z" fill="white"/>
<path d="M222.143 38.9309H217.476C216.091 40.8452 215.34 42.53 215.34 44.8952H224.286C224.278 42.53 223.527 40.8452 222.143 38.9309Z" fill="white"/>
<path d="M215.34 44.8943C215.34 44.9022 215.34 44.9022 215.34 44.9101L216.02 48.6754L215.34 54.2441H224.286L223.614 48.6754L224.286 44.9101C224.286 44.9022 224.286 44.9022 224.286 44.8943H215.34Z" fill="#008C95"/>
<path d="M233.047 34.9829H228.934V37.7119H233.047V34.9829Z" fill="#008C95"/>
<path d="M226.52 58.3405L227.073 58.9022H228.196L228.75 58.3405H229.873L230.435 58.9022H231.55L232.112 58.3405H233.227L233.789 58.9022H234.904L235.466 58.3405V54.2114H226.52V58.3405Z" fill="white"/>
<path d="M233.322 38.8899H228.655C227.271 40.8042 226.52 42.489 226.52 44.8542H235.466C235.458 42.4969 234.714 40.8042 233.322 38.8899Z" fill="white"/>
<path d="M226.52 44.8635C226.52 44.8714 226.52 44.8715 226.52 44.8794L227.2 48.6446L226.52 54.2134H235.466L234.794 48.6446L235.466 44.8794C235.466 44.8715 235.466 44.8714 235.466 44.8635H226.52Z" fill="#008C95"/>
<path d="M289.898 42.156H268.77V59.6771H289.898V42.156Z" fill="#77E2C3"/>
<path d="M291.8 40.6368H266.875V44.9004H291.8V40.6368Z" fill="#77E2C3"/>
<path d="M273.332 34.1287L277.066 34.358L279.905 40.6783L278.395 40.8207L274.906 35.6395L273.332 34.1287Z" fill="#008C95"/>
<path d="M271.469 38.4476L273.336 34.1287L275.036 35.5367L273.873 37.4747L278.762 40.6387H275.25L271.469 38.4476Z" fill="#008C95"/>
<path d="M285.921 34.1287L282.188 34.358L279.34 40.6783L280.859 40.8207L284.339 35.6395L285.921 34.1287Z" fill="#008C95"/>
<path d="M287.781 38.4476L285.923 34.1287L284.214 35.5367L285.385 37.4747L280.488 40.6387H284L287.781 38.4476Z" fill="#008C95"/>
<path d="M280.994 40.637H277.688V59.6768H280.994V40.637Z" fill="#008C95"/>
<path d="M4.80273 150.44L1.24805 145.033H2.79297L5.43848 149.347H7.31152L7.09961 150.44H4.80273ZM5.51367 150.338L2.62207 154.986H0.981445L4.67969 149.203L5.51367 150.338ZM7.87891 145.033V154.986H6.57324V145.033H7.87891ZM13.1562 145.033L9.58789 150.44H7.35938L7.1543 149.347H8.95898L11.6045 145.033H13.1562ZM11.7754 154.986L8.89062 150.338L9.73145 149.203L13.416 154.986H11.7754ZM17.3672 155.123C16.8522 155.123 16.3851 155.036 15.9658 154.863C15.5511 154.686 15.1934 154.437 14.8926 154.118C14.5964 153.799 14.3685 153.421 14.209 152.983C14.0495 152.546 13.9697 152.067 13.9697 151.548V151.261C13.9697 150.659 14.0586 150.124 14.2363 149.654C14.4141 149.18 14.6556 148.779 14.9609 148.451C15.2663 148.123 15.6126 147.875 16 147.706C16.3874 147.537 16.7884 147.453 17.2031 147.453C17.7318 147.453 18.1875 147.544 18.5703 147.727C18.9577 147.909 19.2744 148.164 19.5205 148.492C19.7666 148.816 19.9489 149.199 20.0674 149.641C20.1859 150.078 20.2451 150.557 20.2451 151.076V151.644H14.7217V150.611H18.9805V150.516C18.9622 150.188 18.8939 149.868 18.7754 149.559C18.6615 149.249 18.4792 148.993 18.2285 148.793C17.9779 148.592 17.6361 148.492 17.2031 148.492C16.916 148.492 16.6517 148.554 16.4102 148.677C16.1686 148.795 15.9613 148.973 15.7881 149.21C15.6149 149.447 15.4805 149.736 15.3848 150.078C15.2891 150.42 15.2412 150.814 15.2412 151.261V151.548C15.2412 151.899 15.2891 152.229 15.3848 152.539C15.485 152.844 15.6286 153.113 15.8154 153.346C16.0068 153.578 16.237 153.76 16.5059 153.893C16.7793 154.025 17.0892 154.091 17.4355 154.091C17.8822 154.091 18.2604 154 18.5703 153.817C18.8802 153.635 19.1514 153.391 19.3838 153.086L20.1494 153.694C19.9899 153.936 19.7871 154.166 19.541 154.385C19.2949 154.604 18.9919 154.781 18.6318 154.918C18.2764 155.055 17.8548 155.123 17.3672 155.123ZM24.6816 154.084C24.9824 154.084 25.2604 154.022 25.5156 153.899C25.7708 153.776 25.9805 153.608 26.1445 153.394C26.3086 153.175 26.402 152.926 26.4248 152.648H27.6279C27.6051 153.086 27.457 153.494 27.1836 153.872C26.9147 154.246 26.5615 154.549 26.124 154.781C25.6865 155.009 25.2057 155.123 24.6816 155.123C24.1257 155.123 23.6403 155.025 23.2256 154.829C22.8154 154.633 22.4736 154.364 22.2002 154.022C21.9313 153.681 21.7285 153.289 21.5918 152.847C21.4596 152.4 21.3936 151.928 21.3936 151.432V151.145C21.3936 150.648 21.4596 150.178 21.5918 149.736C21.7285 149.29 21.9313 148.896 22.2002 148.554C22.4736 148.212 22.8154 147.943 23.2256 147.747C23.6403 147.551 24.1257 147.453 24.6816 147.453C25.2604 147.453 25.7663 147.572 26.1992 147.809C26.6322 148.041 26.9717 148.36 27.2178 148.766C27.4684 149.167 27.6051 149.622 27.6279 150.133H26.4248C26.402 149.827 26.3154 149.552 26.165 149.306C26.0192 149.06 25.8187 148.864 25.5635 148.718C25.3128 148.567 25.0189 148.492 24.6816 148.492C24.2943 148.492 23.9684 148.57 23.7041 148.725C23.4443 148.875 23.237 149.08 23.082 149.34C22.9316 149.595 22.8223 149.88 22.7539 150.194C22.6901 150.504 22.6582 150.821 22.6582 151.145V151.432C22.6582 151.755 22.6901 152.074 22.7539 152.389C22.8177 152.703 22.9248 152.988 23.0752 153.243C23.2301 153.498 23.4375 153.703 23.6973 153.858C23.9616 154.009 24.2897 154.084 24.6816 154.084ZM32.0645 147.59V154.986H30.793V147.59H32.0645ZM34.5459 147.59V148.615H28.3594V147.59H34.5459ZM37.1641 147.59V154.986H35.8994V147.59H37.1641ZM42.0176 147.59L38.5107 151.828H36.7402L36.5488 150.721H37.998L40.4795 147.59H42.0176ZM40.6572 154.986L37.9365 151.637L38.75 150.721L42.2637 154.986H40.6572ZM47.7256 153.722V149.914C47.7256 149.622 47.6663 149.369 47.5479 149.155C47.4339 148.937 47.2607 148.768 47.0283 148.649C46.7959 148.531 46.5088 148.472 46.167 148.472C45.848 148.472 45.5677 148.526 45.3262 148.636C45.0892 148.745 44.9023 148.889 44.7656 149.066C44.6335 149.244 44.5674 149.436 44.5674 149.641H43.3027C43.3027 149.376 43.3711 149.114 43.5078 148.854C43.6445 148.595 43.8405 148.36 44.0957 148.15C44.3555 147.936 44.6654 147.768 45.0254 147.645C45.39 147.517 45.7956 147.453 46.2422 147.453C46.7799 147.453 47.2539 147.544 47.6641 147.727C48.0788 147.909 48.4023 148.185 48.6348 148.554C48.8717 148.918 48.9902 149.376 48.9902 149.928V153.373C48.9902 153.619 49.0107 153.881 49.0518 154.159C49.0973 154.437 49.1634 154.676 49.25 154.877V154.986H47.9307C47.8669 154.84 47.8167 154.647 47.7803 154.405C47.7438 154.159 47.7256 153.931 47.7256 153.722ZM47.9443 150.502L47.958 151.391H46.6797C46.3197 151.391 45.9984 151.42 45.7158 151.479C45.4333 151.534 45.1963 151.618 45.0049 151.732C44.8135 151.846 44.6676 151.99 44.5674 152.163C44.4671 152.332 44.417 152.53 44.417 152.758C44.417 152.99 44.4694 153.202 44.5742 153.394C44.679 153.585 44.8363 153.738 45.0459 153.852C45.2601 153.961 45.5221 154.016 45.832 154.016C46.2194 154.016 46.5612 153.934 46.8574 153.77C47.1536 153.605 47.3883 153.405 47.5615 153.168C47.7393 152.931 47.835 152.701 47.8486 152.478L48.3887 153.086C48.3568 153.277 48.2702 153.489 48.1289 153.722C47.9876 153.954 47.7985 154.177 47.5615 154.392C47.3291 154.601 47.0511 154.777 46.7275 154.918C46.4085 155.055 46.0485 155.123 45.6475 155.123C45.1462 155.123 44.7064 155.025 44.3281 154.829C43.9544 154.633 43.6628 154.371 43.4531 154.043C43.248 153.71 43.1455 153.339 43.1455 152.929C43.1455 152.532 43.223 152.184 43.3779 151.883C43.5329 151.577 43.7562 151.325 44.0479 151.124C44.3395 150.919 44.6904 150.764 45.1006 150.659C45.5107 150.554 45.9688 150.502 46.4746 150.502H47.9443ZM52.4766 151.459H53.8438L51.7041 154.986H50.3369L52.4766 151.459ZM53.5361 147.59H56.626V154.986H55.3613V148.615H53.5361C53.1761 148.615 52.8822 148.677 52.6543 148.8C52.4264 148.918 52.2601 149.073 52.1553 149.265C52.0505 149.456 51.998 149.654 51.998 149.859C51.998 150.06 52.0459 150.254 52.1416 150.44C52.2373 150.623 52.3877 150.773 52.5928 150.892C52.7979 151.01 53.0622 151.069 53.3857 151.069H55.7031V152.108H53.3857C52.9619 152.108 52.5859 152.051 52.2578 151.938C51.9297 151.824 51.6517 151.666 51.4238 151.466C51.196 151.261 51.0228 151.021 50.9043 150.748C50.7858 150.47 50.7266 150.169 50.7266 149.846C50.7266 149.522 50.7881 149.224 50.9111 148.95C51.0387 148.677 51.221 148.438 51.458 148.232C51.6995 148.027 51.9935 147.87 52.3398 147.761C52.6908 147.647 53.0895 147.59 53.5361 147.59ZM64.2139 154.221L66.2715 147.59H67.625L64.6582 156.128C64.5898 156.31 64.4987 156.506 64.3848 156.716C64.2754 156.93 64.1341 157.133 63.9609 157.324C63.7878 157.516 63.5781 157.671 63.332 157.789C63.0905 157.912 62.8011 157.974 62.4639 157.974C62.3636 157.974 62.236 157.96 62.0811 157.933C61.9261 157.905 61.8167 157.882 61.7529 157.864L61.7461 156.839C61.7826 156.843 61.8395 156.848 61.917 156.853C61.999 156.862 62.056 156.866 62.0879 156.866C62.375 156.866 62.6188 156.827 62.8193 156.75C63.0199 156.677 63.1885 156.552 63.3252 156.374C63.4665 156.201 63.5872 155.962 63.6875 155.656L64.2139 154.221ZM62.7031 147.59L64.624 153.332L64.9521 154.665L64.043 155.13L61.3223 147.59H62.7031ZM73.6953 147.59V148.636H69.9561V147.59H73.6953ZM70.1406 147.59V154.986H68.876V147.59H70.1406ZM74.8164 147.59V154.986H73.5449V147.59H74.8164ZM81.208 153.722V149.914C81.208 149.622 81.1488 149.369 81.0303 149.155C80.9163 148.937 80.7432 148.768 80.5107 148.649C80.2783 148.531 79.9912 148.472 79.6494 148.472C79.3304 148.472 79.0501 148.526 78.8086 148.636C78.5716 148.745 78.3848 148.889 78.248 149.066C78.1159 149.244 78.0498 149.436 78.0498 149.641H76.7852C76.7852 149.376 76.8535 149.114 76.9902 148.854C77.127 148.595 77.3229 148.36 77.5781 148.15C77.8379 147.936 78.1478 147.768 78.5078 147.645C78.8724 147.517 79.278 147.453 79.7246 147.453C80.2624 147.453 80.7363 147.544 81.1465 147.727C81.5612 147.909 81.8848 148.185 82.1172 148.554C82.3542 148.918 82.4727 149.376 82.4727 149.928V153.373C82.4727 153.619 82.4932 153.881 82.5342 154.159C82.5798 154.437 82.6458 154.676 82.7324 154.877V154.986H81.4131C81.3493 154.84 81.2992 154.647 81.2627 154.405C81.2262 154.159 81.208 153.931 81.208 153.722ZM81.4268 150.502L81.4404 151.391H80.1621C79.8021 151.391 79.4808 151.42 79.1982 151.479C78.9157 151.534 78.6787 151.618 78.4873 151.732C78.2959 151.846 78.1501 151.99 78.0498 152.163C77.9495 152.332 77.8994 152.53 77.8994 152.758C77.8994 152.99 77.9518 153.202 78.0566 153.394C78.1615 153.585 78.3187 153.738 78.5283 153.852C78.7425 153.961 79.0046 154.016 79.3145 154.016C79.7018 154.016 80.0436 153.934 80.3398 153.77C80.6361 153.605 80.8708 153.405 81.0439 153.168C81.2217 152.931 81.3174 152.701 81.3311 152.478L81.8711 153.086C81.8392 153.277 81.7526 153.489 81.6113 153.722C81.4701 153.954 81.2809 154.177 81.0439 154.392C80.8115 154.601 80.5335 154.777 80.21 154.918C79.891 155.055 79.5309 155.123 79.1299 155.123C78.6286 155.123 78.1888 155.025 77.8105 154.829C77.4368 154.633 77.1452 154.371 76.9355 154.043C76.7305 153.71 76.6279 153.339 76.6279 152.929C76.6279 152.532 76.7054 152.184 76.8604 151.883C77.0153 151.577 77.2386 151.325 77.5303 151.124C77.8219 150.919 78.1729 150.764 78.583 150.659C78.9932 150.554 79.4512 150.502 79.957 150.502H81.4268ZM85.8359 147.59V154.986H84.5713V147.59H85.8359ZM90.6895 147.59L87.1826 151.828H85.4121L85.2207 150.721H86.6699L89.1514 147.59H90.6895ZM89.3291 154.986L86.6084 151.637L87.4219 150.721L90.9355 154.986H89.3291ZM91.5508 151.37V151.213C91.5508 150.68 91.6283 150.185 91.7832 149.729C91.9382 149.269 92.1615 148.87 92.4531 148.533C92.7448 148.191 93.098 147.927 93.5127 147.74C93.9274 147.549 94.3923 147.453 94.9072 147.453C95.4268 147.453 95.8939 147.549 96.3086 147.74C96.7279 147.927 97.0833 148.191 97.375 148.533C97.6712 148.87 97.8968 149.269 98.0518 149.729C98.2067 150.185 98.2842 150.68 98.2842 151.213V151.37C98.2842 151.903 98.2067 152.398 98.0518 152.854C97.8968 153.309 97.6712 153.708 97.375 154.05C97.0833 154.387 96.7301 154.651 96.3154 154.843C95.9053 155.03 95.4404 155.123 94.9209 155.123C94.4014 155.123 93.9342 155.03 93.5195 154.843C93.1048 154.651 92.7493 154.387 92.4531 154.05C92.1615 153.708 91.9382 153.309 91.7832 152.854C91.6283 152.398 91.5508 151.903 91.5508 151.37ZM92.8154 151.213V151.37C92.8154 151.739 92.8587 152.088 92.9453 152.416C93.0319 152.74 93.1618 153.027 93.335 153.277C93.5127 153.528 93.7337 153.726 93.998 153.872C94.2624 154.013 94.57 154.084 94.9209 154.084C95.2673 154.084 95.5703 154.013 95.8301 153.872C96.0944 153.726 96.3132 153.528 96.4863 153.277C96.6595 153.027 96.7894 152.74 96.876 152.416C96.9671 152.088 97.0127 151.739 97.0127 151.37V151.213C97.0127 150.848 96.9671 150.504 96.876 150.181C96.7894 149.853 96.6572 149.563 96.4795 149.312C96.3063 149.057 96.0876 148.857 95.8232 148.711C95.5635 148.565 95.2581 148.492 94.9072 148.492C94.5609 148.492 94.2555 148.565 93.9912 148.711C93.7314 148.857 93.5127 149.057 93.335 149.312C93.1618 149.563 93.0319 149.853 92.9453 150.181C92.8587 150.504 92.8154 150.848 92.8154 151.213ZM103.343 151.732H100.916L100.902 150.721H102.885C103.277 150.721 103.603 150.682 103.862 150.604C104.127 150.527 104.325 150.411 104.457 150.256C104.589 150.101 104.655 149.91 104.655 149.682C104.655 149.504 104.617 149.349 104.539 149.217C104.466 149.08 104.354 148.968 104.204 148.882C104.054 148.791 103.867 148.725 103.644 148.684C103.425 148.638 103.167 148.615 102.871 148.615H101.251V154.986H99.9863V147.59H102.871C103.34 147.59 103.762 147.631 104.136 147.713C104.514 147.795 104.835 147.92 105.1 148.089C105.368 148.253 105.574 148.463 105.715 148.718C105.856 148.973 105.927 149.274 105.927 149.62C105.927 149.843 105.881 150.055 105.79 150.256C105.699 150.456 105.564 150.634 105.387 150.789C105.209 150.944 104.99 151.072 104.73 151.172C104.471 151.268 104.172 151.329 103.835 151.356L103.343 151.732ZM103.343 154.986H100.458L101.087 153.961H103.343C103.694 153.961 103.985 153.918 104.218 153.831C104.45 153.74 104.623 153.612 104.737 153.448C104.856 153.28 104.915 153.079 104.915 152.847C104.915 152.614 104.856 152.416 104.737 152.252C104.623 152.083 104.45 151.956 104.218 151.869C103.985 151.778 103.694 151.732 103.343 151.732H101.422L101.436 150.721H103.835L104.293 151.104C104.699 151.135 105.043 151.236 105.325 151.404C105.608 151.573 105.822 151.787 105.968 152.047C106.114 152.302 106.187 152.58 106.187 152.881C106.187 153.227 106.12 153.533 105.988 153.797C105.861 154.061 105.674 154.282 105.428 154.46C105.182 154.633 104.883 154.765 104.532 154.856C104.181 154.943 103.785 154.986 103.343 154.986ZM109.256 147.59V154.986H107.991V147.59H109.256ZM114.109 147.59L110.603 151.828H108.832L108.641 150.721H110.09L112.571 147.59H114.109ZM112.749 154.986L110.028 151.637L110.842 150.721L114.355 154.986H112.749ZM119.817 153.722V149.914C119.817 149.622 119.758 149.369 119.64 149.155C119.526 148.937 119.353 148.768 119.12 148.649C118.888 148.531 118.601 148.472 118.259 148.472C117.94 148.472 117.66 148.526 117.418 148.636C117.181 148.745 116.994 148.889 116.857 149.066C116.725 149.244 116.659 149.436 116.659 149.641H115.395C115.395 149.376 115.463 149.114 115.6 148.854C115.736 148.595 115.932 148.36 116.188 148.15C116.447 147.936 116.757 147.768 117.117 147.645C117.482 147.517 117.887 147.453 118.334 147.453C118.872 147.453 119.346 147.544 119.756 147.727C120.171 147.909 120.494 148.185 120.727 148.554C120.964 148.918 121.082 149.376 121.082 149.928V153.373C121.082 153.619 121.103 153.881 121.144 154.159C121.189 154.437 121.255 154.676 121.342 154.877V154.986H120.022C119.959 154.84 119.909 154.647 119.872 154.405C119.836 154.159 119.817 153.931 119.817 153.722ZM120.036 150.502L120.05 151.391H118.771C118.411 151.391 118.09 151.42 117.808 151.479C117.525 151.534 117.288 151.618 117.097 151.732C116.905 151.846 116.759 151.99 116.659 152.163C116.559 152.332 116.509 152.53 116.509 152.758C116.509 152.99 116.561 153.202 116.666 153.394C116.771 153.585 116.928 153.738 117.138 153.852C117.352 153.961 117.614 154.016 117.924 154.016C118.311 154.016 118.653 153.934 118.949 153.77C119.245 153.605 119.48 153.405 119.653 153.168C119.831 152.931 119.927 152.701 119.94 152.478L120.48 153.086C120.449 153.277 120.362 153.489 120.221 153.722C120.079 153.954 119.89 154.177 119.653 154.392C119.421 154.601 119.143 154.777 118.819 154.918C118.5 155.055 118.14 155.123 117.739 155.123C117.238 155.123 116.798 155.025 116.42 154.829C116.046 154.633 115.755 154.371 115.545 154.043C115.34 153.71 115.237 153.339 115.237 152.929C115.237 152.532 115.315 152.184 115.47 151.883C115.625 151.577 115.848 151.325 116.14 151.124C116.431 150.919 116.782 150.764 117.192 150.659C117.603 150.554 118.061 150.502 118.566 150.502H120.036Z" fill="#008C95"/>
<path d="M285.219 295.846V291.005L289.346 288.589V293.437L285.219 295.846Z" fill="#008C95"/>
<path d="M284.057 296.521L279.93 298.93V294.089L284.057 291.68V296.521Z" fill="#008C95"/>
<path d="M285.219 297.187L289.346 294.778V299.384L285.219 301.792V297.187Z" fill="#008C95"/>
<path d="M284.057 297.863V302.477L279.93 304.885V300.28L284.057 297.863Z" fill="#008C95"/>
<path d="M285.219 295.846V291.005L289.346 288.589V293.437L285.219 295.846Z" fill="#77E2C3"/>
<path d="M284.057 296.521L279.93 298.93V294.089L284.057 291.68V296.521Z" fill="#77E2C3"/>
<path d="M285.219 297.187L289.346 294.778V299.384L285.219 301.792V297.187Z" fill="#77E2C3"/>
<path d="M284.057 297.863V302.477L279.93 304.885V300.28L284.057 297.863Z" fill="#77E2C3"/>
<path d="M273.459 295.846V291.005L269.332 288.589V293.437L273.459 295.846Z" fill="#008C95"/>
<path d="M274.621 296.521L278.748 298.93V294.089L274.621 291.68V296.521Z" fill="#008C95"/>
<path d="M273.459 297.187L269.332 294.778V299.384L273.459 301.792V297.187Z" fill="#008C95"/>
<path d="M274.621 297.863V302.477L278.748 304.885V300.28L274.621 297.863Z" fill="#008C95"/>
<path d="M278.172 287.545L274.1 289.891L269.949 287.49L274.021 285.152L278.172 287.545Z" fill="#77E2C3"/>
<path d="M279.318 286.886L275.16 284.493L279.232 282.147L283.391 284.548L279.318 286.886Z" fill="#77E2C3"/>
<path d="M280.461 287.545L284.533 285.207L288.683 287.6L284.611 289.945L280.461 287.545Z" fill="#77E2C3"/>
<path d="M279.318 288.204L283.476 290.605L279.404 292.943L275.246 290.55L279.318 288.204Z" fill="#77E2C3"/>
<path d="M229.127 252.403L228.555 242.383H236.644L236.063 252.403H229.127Z" fill="#008C95"/>
<path d="M237.798 241.121H227.395V243.035H237.798V241.121Z" fill="#77E2C3"/>
<path d="M222.85 227.775H218.629V230.71H222.85V227.775Z" fill="#008C95"/>
<path d="M215.578 251.862L216.221 252.505H217.516L218.159 251.862H219.446L220.09 252.505H221.384L222.027 251.862H223.314L223.958 252.505H225.244L225.895 251.862V246.762H215.578V251.862Z" fill="#77E2C3"/>
<path d="M223.428 230.708H218.046C216.445 232.905 215.59 234.843 215.582 237.558H225.892C225.884 234.843 225.021 232.905 223.428 230.708Z" fill="#77E2C3"/>
<path d="M215.582 237.558C215.582 237.565 215.582 237.573 215.582 237.573V245.976V246.761H225.892V245.976V237.573C225.892 237.565 225.892 237.558 225.892 237.558H215.582Z" fill="#008C95"/>
<path d="M223.666 174.525H219.477V177.436H223.666V174.525Z" fill="#008C95"/>
<path d="M234.033 180.087H229.844V182.997H234.033V180.087Z" fill="#008C95"/>
<path d="M216.453 198.432L217.089 199.076H218.368L219.011 198.432H220.29L220.933 199.076H222.212L222.848 198.432H224.126L224.77 199.076H226.049L226.684 198.432V193.38H216.453V198.432Z" fill="#77E2C3"/>
<path d="M224.244 177.436H218.901C217.316 179.617 216.461 181.54 216.453 184.239H226.684C226.684 181.54 225.829 179.617 224.244 177.436Z" fill="#77E2C3"/>
<path d="M216.453 184.238C216.453 184.246 216.453 184.254 216.453 184.254V192.594V193.378H226.692V192.594V184.254C226.692 184.246 226.692 184.238 226.692 184.238H216.453Z" fill="#008C95"/>
<path d="M228.328 198.596L228.775 199.075H229.678L230.133 198.596H231.027L231.482 199.075H232.384L232.832 198.596H233.734L234.189 199.075H235.083L235.539 198.596V194.838H228.328V198.596Z" fill="#77E2C3"/>
<path d="M233.812 182.998H230.046C228.932 184.622 228.328 186.05 228.328 188.051H235.539C235.531 186.05 234.934 184.622 233.812 182.998Z" fill="#77E2C3"/>
<path d="M228.328 188.051C228.328 188.059 228.328 188.059 228.328 188.067L228.877 189.848L228.328 194.846H235.539L234.989 189.848L235.539 188.067C235.539 188.059 235.539 188.059 235.539 188.051H228.328Z" fill="#008C95"/>
<path d="M20.5687 250.762H4.73569L2.59375 243.317H22.7028L20.5687 250.762Z" fill="#008C95"/>
<path d="M16.8641 229.516L1.99609 234.977L2.56883 242.729L21.4461 235.793L16.8641 229.516Z" fill="#77E2C3"/>
<path d="M24.3817 241.466H0.796875V244.032H24.3817V241.466Z" fill="#77E2C3"/>
<path d="M22.8596 233.111L0.8125 241.49L1.72128 243.881L23.7684 235.502L22.8596 233.111Z" fill="#77E2C3"/>
<path d="M5.7459 235.595L3.875 236.282L5.09708 239.612L6.96798 238.925L5.7459 235.595Z" fill="white"/>
<path d="M9.23807 234.309L7.36719 234.995L8.58927 238.325L10.4601 237.638L9.23807 234.309Z" fill="white"/>
<path d="M12.7303 233.028L10.8594 233.715L12.0815 237.044L13.9524 236.357L12.7303 233.028Z" fill="white"/>
<path d="M16.2225 231.749L14.3516 232.436L15.5736 235.765L17.4445 235.078L16.2225 231.749Z" fill="white"/>
<path d="M8.00459 245.585H6.01172V249.132H8.00459V245.585Z" fill="white"/>
<path d="M11.7194 245.585H9.72656V249.132H11.7194V245.585Z" fill="white"/>
<path d="M15.4421 245.585H13.4492V249.132H15.4421V245.585Z" fill="white"/>
<path d="M19.1647 245.585H17.1719V249.132H19.1647V245.585Z" fill="white"/>
<path d="M74.2406 183.729C74.2406 184.082 74.2249 184.427 74.1857 184.772C73.6836 189.794 69.6037 193.756 64.5353 194.077C64.3156 194.093 64.0959 194.101 63.8683 194.101C63.6487 194.101 63.4211 194.093 63.2093 194.077C57.7956 193.732 53.5039 189.236 53.5039 183.736C53.5039 178.237 57.7878 173.733 63.2093 173.396H63.2171C63.429 173.38 63.6487 173.372 63.8683 173.372C64.088 173.372 64.3077 173.38 64.5274 173.396H64.5353C69.8548 173.733 74.0916 178.08 74.2328 183.454C74.2406 183.533 74.2406 183.634 74.2406 183.729Z" fill="#77E2C3"/>
<path d="M69.4893 183.728C69.4893 183.916 69.4814 184.104 69.4579 184.292C69.1833 187.015 66.9707 189.165 64.2247 189.337C64.107 189.345 63.9893 189.345 63.8638 189.345C63.7382 189.345 63.6206 189.337 63.5029 189.337C60.5685 189.149 58.2461 186.709 58.2461 183.728C58.2461 180.746 60.5685 178.306 63.5029 178.126H63.5107C63.6284 178.118 63.7461 178.11 63.8638 178.11C63.9815 178.11 64.0992 178.118 64.2168 178.126H64.2247C67.112 178.306 69.403 180.668 69.4814 183.578C69.4893 183.626 69.4893 183.673 69.4893 183.728Z" fill="white"/>
<path d="M69.5476 197.505L65.656 201.397C65.1618 201.561 64.5968 200.706 64.9185 199.396C65.3344 198.031 65.6403 197.411 66.6839 196.265C69.0376 193.872 71.7994 192.185 72.5761 191.738L78.8686 185.446L80.2338 186.811L74.1139 192.931L69.5476 197.505Z" fill="#77E2C3"/>
<path d="M76.7814 183.617L75.9419 182.778L71.8306 186.889L71.2186 186.277L75.3299 182.166L74.4904 181.326L70.3791 185.445L69.6573 184.723L73.7685 180.612L72.929 179.773L68.8178 183.892L67.9234 184.786C67.1858 185.524 67.1074 186.669 67.6958 187.493L59.3242 195.865L60.6894 197.238L69.0688 188.866C69.8927 189.447 71.0382 189.376 71.7757 188.639L71.9483 188.466L72.6701 187.744L76.7814 183.617Z" fill="#77E2C3"/>
<path d="M74.2029 184.512L71.8256 186.889L71.2136 186.277L74.2265 183.264C74.2029 182.754 74.148 182.252 74.0539 181.766L70.382 185.438L69.6602 184.716L73.7714 180.604C73.7714 180.597 73.7636 180.589 73.7636 180.581L72.9397 179.757L68.8285 183.868L67.9341 184.763C67.1965 185.5 67.1181 186.646 67.7065 187.47L61.4062 193.77C61.9947 193.911 62.5988 194.013 63.2265 194.052C63.4305 194.068 63.6345 194.068 63.8463 194.068L69.0717 188.843C69.8955 189.423 71.041 189.353 71.7785 188.615L71.9512 188.443L72.673 187.721L73.8577 186.536C74.0225 185.963 74.1323 185.367 74.1951 184.755C74.1951 184.684 74.1951 184.598 74.2029 184.512Z" fill="#008C95"/>
<path d="M130.048 184.668H108.55C108.26 184.959 108.103 185.115 107.812 185.406V195.692H130.777V185.406C130.495 185.123 130.338 184.959 130.048 184.668Z" fill="#77E2C3"/>
<path d="M123.867 193.206C123.867 195.497 125.311 197.349 127.092 197.349C128.873 197.349 130.317 195.497 130.317 193.206C130.317 190.915 128.873 189.064 127.092 189.064C125.311 189.056 123.867 190.915 123.867 193.206Z" fill="white"/>
<path d="M116.066 193.206C116.066 195.497 117.51 197.349 119.291 197.349C121.072 197.349 122.516 195.497 122.516 193.206C122.516 190.915 121.072 189.064 119.291 189.064C117.51 189.056 116.066 190.915 116.066 193.206Z" fill="white"/>
<path d="M108.293 193.206C108.293 195.497 109.737 197.349 111.518 197.349C113.299 197.349 114.742 195.497 114.742 193.206C114.742 190.915 113.299 189.064 111.518 189.064C109.737 189.056 108.293 190.915 108.293 193.206Z" fill="white"/>
<path d="M124.136 197.882H130.052C130.342 197.591 130.499 197.434 130.789 197.144V193.504H123.398V197.144C123.689 197.434 123.846 197.599 124.136 197.882Z" fill="#008C95"/>
<path d="M116.374 197.882H122.298C122.588 197.591 122.745 197.434 123.035 197.144V193.504H115.645V197.144C115.927 197.434 116.084 197.599 116.374 197.882Z" fill="#008C95"/>
<path d="M108.558 197.882H114.481C114.772 197.591 114.929 197.434 115.219 197.144V193.504H107.828V197.144C108.111 197.434 108.267 197.599 108.558 197.882Z" fill="#008C95"/>
<path d="M125.64 193.504H111.047V196.501H125.64V193.504Z" fill="#008C95"/>
<path d="M132.152 193.504H106.441V194.61H132.152V193.504Z" fill="#008C95"/>
<path d="M114.481 175.717H108.558C108.268 176.007 108.111 176.164 107.82 176.455V180.095H115.219V176.455L114.481 175.717Z" fill="#008C95"/>
<path d="M122.566 175.717H115.984C115.686 176.015 115.513 176.188 115.215 176.486V180.095H123.335V176.486C123.037 176.188 122.872 176.015 122.566 175.717Z" fill="#008C95"/>
<path d="M130.17 175.717H124.027C123.736 176.007 123.572 176.172 123.281 176.462V180.095H130.915V176.462C130.625 176.172 130.46 176.007 130.17 175.717Z" fill="#008C95"/>
<path d="M127.562 177.099H112.969V180.096H127.562V177.099Z" fill="#008C95"/>
<path d="M123.867 181.602C123.867 183.893 125.311 185.744 127.092 185.744C128.873 185.744 130.317 183.893 130.317 181.602C130.317 179.311 128.873 177.459 127.092 177.459C125.311 177.459 123.867 179.311 123.867 181.602Z" fill="white"/>
<path d="M116.066 181.602C116.066 183.893 117.51 185.744 119.291 185.744C121.072 185.744 122.516 183.893 122.516 181.602C122.516 179.311 121.072 177.459 119.291 177.459C117.51 177.459 116.066 179.311 116.066 181.602Z" fill="white"/>
<path d="M108.293 181.602C108.293 183.893 109.737 185.744 111.518 185.744C113.299 185.744 114.742 183.893 114.742 181.602C114.742 179.311 113.299 177.459 111.518 177.459C109.737 177.459 108.293 179.311 108.293 181.602Z" fill="white"/>
<path d="M125.64 181.908H111.047V184.905H125.64V181.908Z" fill="#008C95"/>
<path d="M132.152 181.908H106.441V183.014H132.152V181.908Z" fill="#008C95"/>
<path d="M114.481 187.391H108.558C108.268 187.101 108.111 186.944 107.82 186.654V183.013H115.219V186.654C114.929 186.944 114.764 187.101 114.481 187.391Z" fill="#008C95"/>
<path d="M122.566 187.391H115.984C115.686 187.093 115.513 186.921 115.215 186.623V183.013H123.335V186.623C123.037 186.921 122.872 187.093 122.566 187.391Z" fill="#008C95"/>
<path d="M130.17 187.391H124.027C123.736 187.101 123.572 186.936 123.281 186.646V183.013H130.915V186.646C130.625 186.936 130.46 187.101 130.17 187.391Z" fill="#008C95"/>
<path d="M176.183 193.818L176.175 179.319L174.684 176.542H164.948L163.473 179.319L163.465 193.818C163.465 195.38 164.728 196.643 166.289 196.643H173.366C174.92 196.643 176.183 195.38 176.183 193.818Z" fill="#77E2C3"/>
<path d="M163.465 179.319H176.175L174.677 176.542H164.948L163.465 179.319Z" fill="#008C95"/>
<path d="M174.403 175.569H165.223C164.674 175.569 164.234 175.13 164.234 174.58V174.361C164.234 173.819 164.674 173.372 165.223 173.372H174.403C174.952 173.372 175.391 173.811 175.391 174.361V174.58C175.391 175.122 174.944 175.569 174.403 175.569Z" fill="#008C95"/>
<path d="M170.252 185.83H174.802V184.284C174.802 183.852 175.116 183.499 175.501 183.499H179.651C180.035 183.499 180.349 183.852 180.349 184.284V185.79H180.53C181.244 185.79 181.824 186.371 181.824 187.085V198.563C181.824 199.458 181.103 200.188 180.208 200.188L170.581 200.219C169.687 200.219 168.957 199.497 168.957 198.595V187.116C168.949 186.41 169.53 185.83 170.252 185.83ZM178.906 184.582H176.215V185.79H178.906V184.582Z" fill="#77E2C3"/>
<path d="M173.718 183.344H170.281V185.038H173.718V183.344Z" fill="#008C95"/>
<path d="M173.359 196.641C174.92 196.641 176.183 195.378 176.183 193.817L176.175 183.499H175.493C175.108 183.499 174.802 183.852 174.802 184.284V185.83H170.252C169.538 185.83 168.957 186.41 168.957 187.124V196.633H173.359V196.641Z" fill="#008C95"/>
<path d="M18.9043 186.451H5.57406L3.77734 178.174H20.701L18.9043 186.451Z" fill="#77E2C3"/>
<path d="M22.104 176.839H2.26172V179.507H22.104V176.839Z" fill="#008C95"/>
<path d="M20.5056 196.76H4.79028L2.67188 187H22.6319L20.5056 196.76Z" fill="#77E2C3"/>
<path d="M24.2872 185.667H0.882812V188.334H24.2872V185.667Z" fill="#008C95"/>
<path d="M165.129 233.4H180.138L178.341 229.383H166.918L165.129 233.4Z" fill="#77E2C3"/>
<path d="M180.18 235.078H165.092C165.092 235.078 165.076 245.929 165.084 246.141H180.188L180.18 235.078Z" fill="#77E2C3"/>
<path d="M167.404 253.132H177.863C178.953 253.132 179.871 252.096 179.958 250.747L180.154 247.836H165.121C165.121 247.859 165.215 249.342 165.302 250.739C165.396 252.088 166.306 253.132 167.404 253.132Z" fill="#77E2C3"/>
<path d="M178.342 229.383H166.919C166.307 229.383 165.805 228.88 165.805 228.268C165.805 227.649 166.307 227.154 166.919 227.154H178.342C178.954 227.154 179.457 227.656 179.457 228.268C179.457 228.88 178.954 229.383 178.342 229.383Z" fill="#008C95"/>
<path d="M279.344 195.12H278.441V196.023H280.238V195.12H279.344Z" fill="white"/>
<path d="M289.65 198.187H287.242V196.297H271.44V198.187H269.031V193.896H289.65V198.187Z" fill="#008C95"/>
<path d="M280.542 195.097H278.133V198.188H280.542V195.097Z" fill="#008C95"/>
<path d="M278.443 177.207H270.832V184.818H278.443V177.207Z" fill="#77E2C3"/>
<path d="M287.849 177.207H280.238V184.818H287.849V177.207Z" fill="#008C95"/>
<path d="M278.443 186.615H270.832V193.896H278.443V186.615Z" fill="#008C95"/>
<path d="M287.849 186.615H280.238V193.896H287.849V186.615Z" fill="#77E2C3"/>
<path d="M289.373 244.056L291.797 245.476L279.346 252.765L266.887 245.476L269.28 244.079V244.817L279.346 250.678L289.373 244.817V244.056Z" fill="#008C95"/>
<path d="M285.227 241.263V236.406L289.369 233.982V238.846L285.227 241.263Z" fill="#008C95"/>
<path d="M284.057 241.944L279.914 244.361V239.504L284.057 237.08V241.944Z" fill="#008C95"/>
<path d="M285.227 242.612L289.369 240.196V244.817L285.227 247.241V242.612Z" fill="#008C95"/>
<path d="M284.057 243.294V247.923L279.914 250.339V245.71L284.057 243.294Z" fill="#008C95"/>
<path d="M285.227 241.263V236.406L289.369 233.982V238.846L285.227 241.263Z" fill="#77E2C3"/>
<path d="M284.057 241.944L279.914 244.361V239.504L284.057 237.08V241.944Z" fill="#77E2C3"/>
<path d="M285.227 242.612L289.369 240.196V244.817L285.227 247.241V242.612Z" fill="#77E2C3"/>
<path d="M284.057 243.294V247.923L279.914 250.339V245.71L284.057 243.294Z" fill="#77E2C3"/>
<path d="M273.424 241.263V236.406L269.281 233.982V238.846L273.424 241.263Z" fill="#008C95"/>
<path d="M274.594 241.944L278.736 244.361V239.504L274.594 237.08V241.944Z" fill="#008C95"/>
<path d="M274.594 243.294V247.923L278.736 250.339V245.71L274.594 243.294Z" fill="#008C95"/>
<path d="M278.152 232.939L274.065 235.285L269.898 232.884L273.986 230.53L278.152 232.939Z" fill="#77E2C3"/>
<path d="M279.307 232.271L275.133 229.87L279.221 227.516L283.387 229.925L279.307 232.271Z" fill="#77E2C3"/>
<path d="M280.449 232.939L284.537 230.585L288.703 232.994L284.615 235.34L280.449 232.939Z" fill="#77E2C3"/>
<path d="M279.302 233.597L283.477 236.006L279.389 238.352L275.223 235.951L279.302 233.597Z" fill="#77E2C3"/>
<path d="M273.424 242.612L269.281 240.196V244.817L273.424 247.241V242.612Z" fill="#008C95"/>
<path d="M288.086 347.009L291.797 349.182L279.346 356.471L266.887 349.182L270.606 347.009V349.01L279.346 354.07L288.086 349.01V347.009Z" fill="#77E2C3"/>
<path d="M266.887 349.181V350.115V351.096V352.704L269.382 354.164V352.555L271.869 354.015V355.623L274.364 357.082V355.474L276.851 356.925V358.534L279.346 359.993V358.385V357.396V356.47L266.887 349.181Z" fill="#008C95"/>
<path d="M291.799 349.181V350.115V351.096V352.704L289.312 354.164V352.555L286.817 354.015V355.623L284.33 357.082V355.474L281.835 356.925V358.534L279.348 359.993V358.385V357.396V356.47L291.799 349.181Z" fill="#008C95"/>
<path d="M287.491 338.544L279.347 333.828L271.211 338.544L279.347 343.251L287.491 338.544Z" fill="#77E2C3"/>
<path d="M279.348 344.647V354.07L288.088 349.01V339.595L279.348 344.647Z" fill="#008C95"/>
<path d="M270.602 339.587V349.01L279.342 354.071V344.648L270.602 339.587Z" fill="#008C95"/>
<path d="M8.31641 393.497V394.577H4.23535V393.497H8.31641ZM1.80859 395.835H3.12109C3.19401 396.304 3.31478 396.705 3.4834 397.038C3.65658 397.371 3.90951 397.626 4.24219 397.804C4.57487 397.977 5.02148 398.063 5.58203 398.063C6.02409 398.063 6.4069 397.972 6.73047 397.79C7.05404 397.603 7.32064 397.348 7.53027 397.024C7.73991 396.701 7.89486 396.325 7.99512 395.896C8.09993 395.468 8.15234 395.01 8.15234 394.522V393.524C8.15234 393.101 8.11589 392.709 8.04297 392.349C7.97005 391.984 7.86068 391.658 7.71484 391.371C7.56901 391.079 7.38672 390.831 7.16797 390.626C6.95378 390.421 6.70312 390.264 6.41602 390.154C6.13346 390.045 5.81673 389.99 5.46582 389.99C4.9554 389.99 4.53841 390.081 4.21484 390.264C3.89583 390.446 3.64974 390.706 3.47656 391.043C3.30794 391.376 3.18945 391.774 3.12109 392.239H1.80859C1.87695 391.583 2.05697 391.007 2.34863 390.51C2.6403 390.008 3.04362 389.617 3.55859 389.334C4.07812 389.051 4.71387 388.91 5.46582 388.91C6.08105 388.91 6.63477 389.02 7.12695 389.238C7.61914 389.457 8.03841 389.769 8.38477 390.175C8.73568 390.58 9.00228 391.068 9.18457 391.638C9.37142 392.207 9.46484 392.841 9.46484 393.538V394.522C9.46484 395.22 9.37142 395.853 9.18457 396.423C9.00228 396.988 8.74023 397.473 8.39844 397.879C8.05664 398.28 7.64648 398.59 7.16797 398.809C6.69401 399.027 6.16536 399.137 5.58203 399.137C4.78451 399.137 4.11914 398.993 3.58594 398.706C3.05273 398.414 2.6403 398.02 2.34863 397.523C2.06152 397.027 1.88151 396.464 1.80859 395.835ZM14.9473 394.345H12.4248L12.4111 393.285H14.7012C15.0794 393.285 15.4098 393.221 15.6924 393.094C15.9749 392.966 16.1937 392.784 16.3486 392.547C16.5081 392.305 16.5879 392.018 16.5879 391.686C16.5879 391.321 16.5173 391.025 16.376 390.797C16.2393 390.564 16.0273 390.396 15.7402 390.291C15.4577 390.182 15.0977 390.127 14.6602 390.127H12.7188V399H11.3994V389.047H14.6602C15.1706 389.047 15.6263 389.099 16.0273 389.204C16.4284 389.304 16.7679 389.464 17.0459 389.683C17.3285 389.897 17.5426 390.17 17.6885 390.503C17.8343 390.836 17.9072 391.234 17.9072 391.699C17.9072 392.109 17.8024 392.481 17.5928 392.813C17.3831 393.142 17.0915 393.41 16.7178 393.62C16.3486 393.83 15.9157 393.964 15.4189 394.023L14.9473 394.345ZM14.8857 399H11.9053L12.6504 397.927H14.8857C15.305 397.927 15.6605 397.854 15.9521 397.708C16.2484 397.562 16.474 397.357 16.6289 397.093C16.7839 396.824 16.8613 396.507 16.8613 396.143C16.8613 395.773 16.7952 395.454 16.6631 395.186C16.5309 394.917 16.3236 394.709 16.041 394.563C15.7585 394.418 15.3939 394.345 14.9473 394.345H13.0674L13.0811 393.285H15.6514L15.9316 393.668C16.4102 393.709 16.8158 393.846 17.1484 394.078C17.4811 394.306 17.734 394.598 17.9072 394.953C18.085 395.309 18.1738 395.701 18.1738 396.129C18.1738 396.749 18.0371 397.273 17.7637 397.701C17.4948 398.125 17.1143 398.449 16.6221 398.672C16.1299 398.891 15.5511 399 14.8857 399ZM23.8066 389.929L20.5117 399H19.165L22.959 389.047H23.8271L23.8066 389.929ZM26.5684 399L23.2666 389.929L23.2461 389.047H24.1143L27.9219 399H26.5684ZM26.3975 395.315V396.396H20.8057V395.315H26.3975ZM30.2119 397.496V398.515C30.2119 398.929 30.1071 399.367 29.8975 399.827C29.6878 400.292 29.3939 400.679 29.0156 400.989L28.2979 400.49C28.4437 400.29 28.5667 400.085 28.667 399.875C28.7673 399.67 28.8424 399.456 28.8926 399.232C28.9473 399.014 28.9746 398.781 28.9746 398.535V397.496H30.2119ZM41.498 395.835H42.8105C42.7422 396.464 42.5622 397.027 42.2705 397.523C41.9788 398.02 41.5664 398.414 41.0332 398.706C40.5 398.993 39.8346 399.137 39.0371 399.137C38.4538 399.137 37.9229 399.027 37.4443 398.809C36.9704 398.59 36.5625 398.28 36.2207 397.879C35.8789 397.473 35.6146 396.988 35.4277 396.423C35.2454 395.853 35.1543 395.22 35.1543 394.522V393.531C35.1543 392.834 35.2454 392.203 35.4277 391.638C35.6146 391.068 35.8812 390.58 36.2275 390.175C36.5785 389.769 37 389.457 37.4922 389.238C37.9844 389.02 38.5381 388.91 39.1533 388.91C39.9053 388.91 40.541 389.051 41.0605 389.334C41.5801 389.617 41.9834 390.008 42.2705 390.51C42.5622 391.007 42.7422 391.583 42.8105 392.239H41.498C41.4342 391.774 41.3158 391.376 41.1426 391.043C40.9694 390.706 40.7233 390.446 40.4043 390.264C40.0853 390.081 39.6683 389.99 39.1533 389.99C38.7113 389.99 38.3216 390.075 37.9844 390.243C37.6517 390.412 37.3714 390.651 37.1436 390.961C36.9202 391.271 36.7516 391.642 36.6377 392.075C36.5238 392.508 36.4668 392.989 36.4668 393.518V394.522C36.4668 395.01 36.5169 395.468 36.6172 395.896C36.722 396.325 36.8792 396.701 37.0889 397.024C37.2985 397.348 37.5651 397.603 37.8887 397.79C38.2122 397.972 38.5951 398.063 39.0371 398.063C39.5977 398.063 40.0443 397.975 40.377 397.797C40.7096 397.619 40.9603 397.364 41.1289 397.031C41.3021 396.699 41.4251 396.3 41.498 395.835ZM50.6787 389.047V390.127H45.8799V399H44.5674V389.047H50.6787ZM45.5723 393.101H48.2861C49.0153 393.101 49.6305 393.224 50.1318 393.47C50.6331 393.711 51.0137 394.051 51.2734 394.488C51.5332 394.926 51.6631 395.438 51.6631 396.026C51.6631 396.464 51.5902 396.865 51.4443 397.229C51.2985 397.59 51.082 397.904 50.7949 398.173C50.5078 398.437 50.1546 398.642 49.7354 398.788C49.3161 398.929 48.833 399 48.2861 399H44.5674V389.047H45.8867V397.927H48.2861C48.7738 397.927 49.168 397.838 49.4688 397.66C49.7741 397.478 49.9974 397.241 50.1387 396.949C50.2799 396.658 50.3506 396.345 50.3506 396.013C50.3506 395.68 50.2799 395.375 50.1387 395.097C49.9974 394.819 49.7741 394.598 49.4688 394.434C49.168 394.265 48.7738 394.181 48.2861 394.181H45.5723V393.101ZM59.4492 395.835H60.7617C60.6934 396.464 60.5133 397.027 60.2217 397.523C59.93 398.02 59.5176 398.414 58.9844 398.706C58.4512 398.993 57.7858 399.137 56.9883 399.137C56.4049 399.137 55.874 399.027 55.3955 398.809C54.9215 398.59 54.5137 398.28 54.1719 397.879C53.8301 397.473 53.5658 396.988 53.3789 396.423C53.1966 395.853 53.1055 395.22 53.1055 394.522V393.531C53.1055 392.834 53.1966 392.203 53.3789 391.638C53.5658 391.068 53.8324 390.58 54.1787 390.175C54.5296 389.769 54.9512 389.457 55.4434 389.238C55.9355 389.02 56.4893 388.91 57.1045 388.91C57.8564 388.91 58.4922 389.051 59.0117 389.334C59.5312 389.617 59.9346 390.008 60.2217 390.51C60.5133 391.007 60.6934 391.583 60.7617 392.239H59.4492C59.3854 391.774 59.2669 391.376 59.0938 391.043C58.9206 390.706 58.6745 390.446 58.3555 390.264C58.0365 390.081 57.6195 389.99 57.1045 389.99C56.6624 389.99 56.2728 390.075 55.9355 390.243C55.6029 390.412 55.3226 390.651 55.0947 390.961C54.8714 391.271 54.7028 391.642 54.5889 392.075C54.4749 392.508 54.418 392.989 54.418 393.518V394.522C54.418 395.01 54.4681 395.468 54.5684 395.896C54.6732 396.325 54.8304 396.701 55.04 397.024C55.2497 397.348 55.5163 397.603 55.8398 397.79C56.1634 397.972 56.5462 398.063 56.9883 398.063C57.5488 398.063 57.9954 397.975 58.3281 397.797C58.6608 397.619 58.9115 397.364 59.0801 397.031C59.2533 396.699 59.3763 396.3 59.4492 395.835ZM63.5166 397.496V398.515C63.5166 398.929 63.4118 399.367 63.2021 399.827C62.9925 400.292 62.6986 400.679 62.3203 400.989L61.6025 400.49C61.7484 400.29 61.8714 400.085 61.9717 399.875C62.0719 399.67 62.1471 399.456 62.1973 399.232C62.252 399.014 62.2793 398.781 62.2793 398.535V397.496H63.5166ZM76.3955 389.047V399H75.083V390.127H70.1748V399H68.8555V389.047H76.3955ZM82.3359 394.345H79.8135L79.7998 393.285H82.0898C82.4681 393.285 82.7985 393.221 83.0811 393.094C83.3636 392.966 83.5824 392.784 83.7373 392.547C83.8968 392.305 83.9766 392.018 83.9766 391.686C83.9766 391.321 83.9059 391.025 83.7646 390.797C83.6279 390.564 83.416 390.396 83.1289 390.291C82.8464 390.182 82.4863 390.127 82.0488 390.127H80.1074V399H78.7881V389.047H82.0488C82.5592 389.047 83.015 389.099 83.416 389.204C83.8171 389.304 84.1566 389.464 84.4346 389.683C84.7171 389.897 84.9313 390.17 85.0771 390.503C85.223 390.836 85.2959 391.234 85.2959 391.699C85.2959 392.109 85.1911 392.481 84.9814 392.813C84.7718 393.142 84.4801 393.41 84.1064 393.62C83.7373 393.83 83.3044 393.964 82.8076 394.023L82.3359 394.345ZM82.2744 399H79.2939L80.0391 397.927H82.2744C82.6937 397.927 83.0492 397.854 83.3408 397.708C83.637 397.562 83.8626 397.357 84.0176 397.093C84.1725 396.824 84.25 396.507 84.25 396.143C84.25 395.773 84.1839 395.454 84.0518 395.186C83.9196 394.917 83.7122 394.709 83.4297 394.563C83.1471 394.418 82.7826 394.345 82.3359 394.345H80.4561L80.4697 393.285H83.04L83.3203 393.668C83.7988 393.709 84.2044 393.846 84.5371 394.078C84.8698 394.306 85.1227 394.598 85.2959 394.953C85.4736 395.309 85.5625 395.701 85.5625 396.129C85.5625 396.749 85.4258 397.273 85.1523 397.701C84.8835 398.125 84.5029 398.449 84.0107 398.672C83.5186 398.891 82.9398 399 82.2744 399ZM88.3652 389.047L90.7578 392.861L93.1504 389.047H94.6885L91.5439 393.976L94.7637 399H93.2119L90.7578 395.11L88.3037 399H86.752L89.9717 393.976L86.8271 389.047H88.3652Z" fill="#008C95"/>
<path d="M20.1329 417.699H0.796875V439.634H20.1329V417.699Z" fill="#77E2C3"/>
<path d="M5.85351 426.026H3.60702C2.99725 426.026 2.50781 425.537 2.50781 424.927V422.681C2.50781 422.071 2.99725 421.582 3.60702 421.582H5.85351C6.46328 421.582 6.95269 422.079 6.95269 422.681V424.927C6.95269 425.537 6.46328 426.026 5.85351 426.026Z" fill="white"/>
<path d="M11.5527 426.026H9.30621C8.69644 426.026 8.20703 425.537 8.20703 424.927V422.681C8.20703 422.071 8.69644 421.582 9.30621 421.582H11.5527C12.1625 421.582 12.6519 422.079 12.6519 422.681V424.927C12.6519 425.537 12.1625 426.026 11.5527 426.026Z" fill="white"/>
<path d="M17.2559 426.026H15.0094C14.3996 426.026 13.9102 425.537 13.9102 424.927V422.681C13.9102 422.071 14.3996 421.582 15.0094 421.582H17.2559C17.8656 421.582 18.355 422.079 18.355 422.681V424.927C18.3631 425.537 17.8656 426.026 17.2559 426.026Z" fill="white"/>
<path d="M5.85351 431.652H3.60702C2.99725 431.652 2.50781 431.162 2.50781 430.553V428.306C2.50781 427.696 2.99725 427.207 3.60702 427.207H5.85351C6.46328 427.207 6.95269 427.696 6.95269 428.306V430.553C6.95269 431.154 6.46328 431.652 5.85351 431.652Z" fill="white"/>
<path d="M11.5527 431.652H9.30621C8.69644 431.652 8.20703 431.162 8.20703 430.553V428.306C8.20703 427.696 8.69644 427.207 9.30621 427.207H11.5527C12.1625 427.207 12.6519 427.696 12.6519 428.306V430.553C12.6519 431.154 12.1625 431.652 11.5527 431.652Z" fill="white"/>
<path d="M17.2559 431.652H15.0094C14.3996 431.652 13.9102 431.162 13.9102 430.553V428.306C13.9102 427.696 14.3996 427.207 15.0094 427.207H17.2559C17.8656 427.207 18.355 427.696 18.355 428.306V430.553C18.3631 431.154 17.8656 431.652 17.2559 431.652Z" fill="white"/>
<path d="M5.85351 437.275H3.60702C2.99725 437.275 2.50781 436.786 2.50781 436.176V433.93C2.50781 433.32 2.99725 432.83 3.60702 432.83H5.85351C6.46328 432.83 6.95269 433.32 6.95269 433.93V436.176C6.95269 436.778 6.46328 437.275 5.85351 437.275Z" fill="white"/>
<path d="M11.5527 437.275H9.30621C8.69644 437.275 8.20703 436.786 8.20703 436.176V433.93C8.20703 433.32 8.69644 432.83 9.30621 432.83H11.5527C12.1625 432.83 12.6519 433.32 12.6519 433.93V436.176C12.6519 436.778 12.1625 437.275 11.5527 437.275Z" fill="white"/>
<path d="M5.35731 425.642H4.09766V427.792H5.35731V425.642Z" fill="white"/>
<path d="M8.68928 423.171H6.53906V424.431H8.68928V423.171Z" fill="white"/>
<path d="M8.55647 428.69H6.40625V429.95H8.55647V428.69Z" fill="white"/>
<path d="M8.55647 434.427H6.40625V435.687H8.55647V434.427Z" fill="white"/>
<path d="M14.4901 423.171H12.3398V424.431H14.4901V423.171Z" fill="white"/>
<path d="M14.3533 428.69H12.2031V429.95H14.3533V428.69Z" fill="white"/>
<path d="M11.0682 425.642H9.80859V427.792H11.0682V425.642Z" fill="white"/>
<path d="M8.07422 417.699V419.127C8.07422 419.713 8.5476 420.186 9.13329 420.186H9.86341V425.088H10.9947V420.186H11.6606C12.2463 420.186 12.7197 419.713 12.7197 419.127V417.699H8.07422Z" fill="white"/>
<path d="M16.7753 425.642H15.5156V427.792H16.7753V425.642Z" fill="white"/>
<path d="M5.35731 431.194H4.09766V433.344H5.35731V431.194Z" fill="white"/>
<path d="M11.0682 431.194H9.80859V433.344H11.0682V431.194Z" fill="white"/>
<path d="M25.1193 439.883L23.5628 440.91L21.3323 439.634L23.5628 438.351L25.1193 439.378L25.7772 438.383L24.7261 437.669L25.6328 437.147L25.031 436.096L24.1164 436.634L24.0442 435.366L22.8407 435.43L22.953 437.3L20.7386 438.591V436.024L22.4074 435.189L21.8618 434.098L20.7386 434.668V433.617H19.5351V434.668L18.3878 434.098L17.8502 435.189L19.5351 436.024V438.591L17.3046 437.3L17.417 435.43L16.2135 435.366L16.1333 436.634L15.2266 436.096L14.6169 437.147L15.5315 437.669L14.4805 438.383L15.1384 439.378L16.6949 438.351L18.9253 439.634L16.6949 440.91L15.1384 439.883L14.4805 440.886L15.5315 441.6L14.6169 442.114L15.2266 443.165L16.1333 442.635L16.2135 443.903L17.417 443.839L17.3046 441.961L19.5351 440.669V443.245L17.8502 444.079L18.3878 445.17L19.5351 444.601V445.652H20.7386V444.601L21.8618 445.17L22.4074 444.079L20.7386 443.245V440.669L22.953 441.961L22.8407 443.839L24.0442 443.903L24.1164 442.635L25.031 443.165L25.6328 442.114L24.7261 441.6L25.7772 440.886L25.1193 439.883Z" fill="#77E2C3"/>
<path d="M19.5351 433.617V434.668L18.3878 434.098L17.8502 435.189L19.5351 436.024V438.591L17.3046 437.3L17.417 435.43L16.2135 435.366L16.1333 436.634L15.2266 436.096L14.6169 437.147L15.5315 437.669L14.4805 438.383L15.1384 439.378L16.6949 438.351L18.9253 439.634H20.1288V433.617H19.5351Z" fill="#008C95"/>
<path d="M177.186 443.011H169.893C169.331 442.458 169.026 442.145 168.465 441.583V425.753L175.052 420.265C177.018 420.265 178.614 422.255 178.614 424.221V441.583C178.053 442.145 177.74 442.458 177.186 443.011Z" fill="#77E2C3"/>
<path d="M170.053 416.133L167.891 417.925L169.723 420.136L171.885 418.345L170.053 416.133Z" fill="#77E2C3"/>
<path d="M184.905 432.413C182.554 432.413 180.637 430.496 180.637 428.145H181.896C181.896 429.806 183.244 431.154 184.905 431.154V432.413Z" fill="#008C95"/>
<path d="M174.695 429.958V433.159L174.792 444.785C175.265 445.258 175.53 445.523 176.003 445.988H185.583L186.794 444.777V439.754L178.603 433.159V429.958H174.695Z" fill="#77E2C3"/>
<path d="M181.03 429.966H173.93V428.322C174.772 427.479 175.246 427.006 176.088 426.163H184.528V428.611H182.386C181.632 428.611 181.03 429.22 181.03 429.966Z" fill="#77E2C3"/>
<path d="M184.978 426.163H182.531V428.611H184.978V426.163Z" fill="#008C95"/>
<path d="M178.603 433.16V429.966H178.611V426.163H176.084C175.242 427.006 174.768 427.479 173.926 428.322V429.966H174.704V433.16L174.784 443.02H177.191C177.745 442.467 178.058 442.154 178.619 441.592V433.168L178.603 433.16Z" fill="#008C95"/>
<path d="M178.595 429.958H174.695V433.159H178.595V429.958Z" fill="#008C95"/>
<path d="M172.09 417.076L168.414 420.122L170.247 422.333L173.923 419.287L172.09 417.076Z" fill="#008C95"/>
<path d="M75.5495 443.678L77.1381 442.363H73.9609L75.5495 443.678Z" fill="#77E2C3"/>
<path d="M72.3661 443.678L73.9548 442.363H70.7695L72.3661 443.678Z" fill="#77E2C3"/>
<path d="M69.1824 443.678L70.771 442.363H67.5938L69.1824 443.678Z" fill="#77E2C3"/>
<path d="M66.0068 443.678L67.5954 442.363H64.4102L66.0068 443.678Z" fill="#77E2C3"/>
<path d="M77.135 442.362V425.762L69.9783 431.723L64.4102 428.442V442.362H77.135Z" fill="#77E2C3"/>
<path d="M69.9778 418.485H64.8991C60.9437 418.485 57.7344 421.743 57.7344 425.762C57.7344 429.782 60.9437 433.039 64.8991 433.039H69.9778L64.2252 425.762L69.9778 418.485Z" fill="#008C95"/>
<path d="M69.9787 418.485C69.9707 418.485 69.9707 418.485 69.9787 418.485V421.887C72.0888 421.887 73.7897 423.62 73.7897 425.762C73.7897 427.905 72.0808 429.638 69.9787 429.638V433.039C73.9341 433.039 77.1434 429.782 77.1434 425.762C77.1354 421.743 73.9341 418.485 69.9787 418.485Z" fill="#77E2C3"/>
<path d="M69.9772 418.485V421.887C67.8671 421.887 66.1662 423.62 66.1662 425.762C66.1662 427.905 67.8752 429.638 69.9772 429.638V433.039C66.0218 433.039 62.8125 429.782 62.8125 425.762C62.8125 421.743 66.0218 418.485 69.9772 418.485Z" fill="#77E2C3"/>
<path d="M55.25 493.752L56.5658 495.341V492.163L55.25 493.752Z" fill="#77E2C3"/>
<path d="M55.25 490.573L56.5658 492.162V488.985L55.25 490.573Z" fill="#77E2C3"/>
<path d="M55.25 487.39L56.5658 488.978V485.801L55.25 487.39Z" fill="#77E2C3"/>
<path d="M55.25 484.212L56.5658 485.8V482.623L55.25 484.212Z" fill="#77E2C3"/>
<path d="M56.5664 495.34H73.1665L67.2052 488.183L70.4787 482.623H56.5664V495.34Z" fill="#77E2C3"/>
<path d="M80.437 488.183V483.104C80.437 479.148 77.1795 475.939 73.1599 475.939C69.1403 475.939 65.8828 479.148 65.8828 483.104V488.183L73.1599 482.43L80.437 488.183Z" fill="#008C95"/>
<path d="M80.437 488.182H77.0351C77.0351 490.292 75.3021 491.993 73.1599 491.993C71.0177 491.993 69.2847 490.284 69.2847 488.182H65.8828C65.8828 492.138 69.1403 495.347 73.1599 495.347C77.1795 495.347 80.437 492.138 80.437 488.182Z" fill="#77E2C3"/>
<path d="M80.437 488.183H77.0351C77.0351 486.073 75.3021 484.372 73.1599 484.372C71.0177 484.372 69.2847 486.081 69.2847 488.183H65.8828C65.8828 484.227 69.1403 481.018 73.1599 481.018C77.1795 481.018 80.437 484.227 80.437 488.183Z" fill="#77E2C3"/>
<path d="M132.795 425.113H119.043V442.403H132.795V425.113Z" fill="#77E2C3"/>
<path d="M122.218 430.103C121.32 430.103 120.598 429.365 120.598 428.45C120.598 427.536 121.328 426.797 122.218 426.797C123.109 426.797 123.839 427.536 123.839 428.45C123.839 429.365 123.109 430.103 122.218 430.103Z" fill="white"/>
<path d="M129.484 430.103C128.585 430.103 127.863 429.365 127.863 428.45C127.863 427.536 128.593 426.797 129.484 426.797C130.383 426.797 131.105 427.536 131.105 428.45C131.105 429.365 130.375 430.103 129.484 430.103Z" fill="white"/>
<path d="M122.218 435.215C121.32 435.215 120.598 434.476 120.598 433.562C120.598 432.647 121.328 431.909 122.218 431.909C123.109 431.909 123.839 432.647 123.839 433.562C123.839 434.476 123.109 435.215 122.218 435.215Z" fill="white"/>
<path d="M129.484 435.215C128.585 435.215 127.863 434.476 127.863 433.562C127.863 432.647 128.593 431.909 129.484 431.909C130.383 431.909 131.105 432.647 131.105 433.562C131.105 434.476 130.375 435.215 129.484 435.215Z" fill="white"/>
<path d="M129.484 440.621C128.585 440.621 127.863 439.883 127.863 438.969C127.863 438.054 128.593 437.316 129.484 437.316C130.383 437.316 131.105 438.054 131.105 438.969C131.105 439.883 130.375 440.621 129.484 440.621Z" fill="white"/>
<path d="M126.056 440.325C125.776 440.325 125.543 440.1 125.543 439.812V427.303C125.543 427.023 125.768 426.79 126.056 426.79C126.345 426.79 126.57 427.015 126.57 427.303V439.812C126.562 440.1 126.337 440.325 126.056 440.325Z" fill="white"/>
<path d="M125.545 419.753H111.199V437.348H125.545V419.753Z" fill="#77E2C3"/>
<path d="M114.878 425.04C113.98 425.04 113.258 424.302 113.258 423.388C113.258 422.473 113.988 421.735 114.878 421.735C115.777 421.735 116.499 422.473 116.499 423.388C116.499 424.294 115.777 425.04 114.878 425.04Z" fill="white"/>
<path d="M122.16 425.04C121.261 425.04 120.539 424.302 120.539 423.388C120.539 422.473 121.269 421.735 122.16 421.735C123.05 421.735 123.78 422.473 123.78 423.388C123.788 424.294 123.058 425.04 122.16 425.04Z" fill="white"/>
<path d="M114.878 430.152C113.98 430.152 113.258 429.414 113.258 428.499C113.258 427.584 113.988 426.846 114.878 426.846C115.777 426.846 116.499 427.584 116.499 428.499C116.499 429.414 115.777 430.152 114.878 430.152Z" fill="white"/>
<path d="M122.16 430.152C121.261 430.152 120.539 429.414 120.539 428.499C120.539 427.584 121.269 426.846 122.16 426.846C123.05 426.846 123.78 427.584 123.78 428.499C123.788 429.414 123.058 430.152 122.16 430.152Z" fill="white"/>
<path d="M114.878 435.262C113.98 435.262 113.258 434.523 113.258 433.609C113.258 432.694 113.988 431.956 114.878 431.956C115.777 431.956 116.499 432.694 116.499 433.609C116.499 434.523 115.777 435.262 114.878 435.262Z" fill="white"/>
<path d="M122.16 435.262C121.261 435.262 120.539 434.523 120.539 433.609C120.539 432.694 121.269 431.956 122.16 431.956C123.05 431.956 123.78 432.694 123.78 433.609C123.78 434.523 123.058 435.262 122.16 435.262Z" fill="white"/>
<path d="M118.529 435.262C118.248 435.262 118.016 435.037 118.016 434.748V422.24C118.016 421.959 118.24 421.727 118.529 421.727C118.818 421.727 119.043 421.951 119.043 422.24V434.748C119.035 435.037 118.81 435.262 118.529 435.262Z" fill="white"/>
<path d="M125.55 425.113H119.043V437.34H125.55V425.113Z" fill="#008C95"/>
<path d="M122.218 430.103C121.32 430.103 120.598 429.365 120.598 428.45C120.598 427.536 121.328 426.797 122.218 426.797C123.109 426.797 123.839 427.536 123.839 428.45C123.839 429.365 123.109 430.103 122.218 430.103Z" fill="white"/>
<path d="M122.218 435.215C121.32 435.215 120.598 434.476 120.598 433.562C120.598 432.647 121.328 431.909 122.218 431.909C123.109 431.909 123.839 432.647 123.839 433.562C123.839 434.476 123.109 435.215 122.218 435.215Z" fill="white"/>
<path d="M122.218 440.621C121.32 440.621 120.598 439.883 120.598 438.969C120.598 438.054 121.328 437.316 122.218 437.316C123.109 437.316 123.839 438.054 123.839 438.969C123.839 439.883 123.109 440.621 122.218 440.621Z" fill="white"/>
</svg>
