<svg viewBox="0 0 1660 344" fill="none" xmlns="http://www.w3.org/2000/svg">
<path d="M14.1328 5.80469V7.8877H4.87793V25H2.34668V5.80469H14.1328ZM16.8091 21.1372L23.3877 10.7354H25.8398V25H23.3877V14.5981L16.8091 25H14.3833V10.7354H16.8091V21.1372ZM38.9048 4.52588H40.9087C40.9087 5.38721 40.7769 6.07275 40.5132 6.58252C40.2495 7.0835 39.8892 7.47021 39.4321 7.74268C38.9839 8.01514 38.4741 8.22168 37.9028 8.3623C37.3403 8.50293 36.7559 8.63916 36.1494 8.771C35.3936 8.9292 34.6904 9.17969 34.04 9.52246C33.3984 9.85645 32.8447 10.3311 32.3789 10.9463C31.9219 11.5615 31.5835 12.3613 31.3638 13.3457C31.1528 14.3301 31.0957 15.5474 31.1924 16.9976V18.2104H29.1885V16.9976C29.1885 15.3716 29.3423 13.9521 29.6499 12.7393C29.9663 11.5264 30.4102 10.5024 30.9814 9.66748C31.5527 8.83252 32.2295 8.16895 33.0117 7.67676C33.8027 7.18457 34.6729 6.84619 35.6221 6.66162C36.3076 6.52979 36.8965 6.38916 37.3887 6.23975C37.8809 6.08154 38.2544 5.87061 38.5093 5.60693C38.7729 5.34326 38.9048 4.98291 38.9048 4.52588ZM36.0176 11.5527C36.9492 11.5527 37.7798 11.7153 38.5093 12.0405C39.2388 12.3657 39.8584 12.8184 40.3682 13.3984C40.8779 13.9785 41.2646 14.6641 41.5283 15.4551C41.8008 16.2373 41.937 17.0898 41.937 18.0127V18.3027C41.937 19.2959 41.792 20.2188 41.502 21.0713C41.2207 21.915 40.8032 22.6533 40.2495 23.2861C39.7046 23.9102 39.0366 24.3979 38.2456 24.7495C37.4634 25.1011 36.5713 25.2769 35.5693 25.2769C34.5674 25.2769 33.6709 25.1011 32.8799 24.7495C32.0977 24.3979 31.4297 23.9102 30.876 23.2861C30.3223 22.6533 29.9004 21.915 29.6104 21.0713C29.3291 20.2188 29.1885 19.2959 29.1885 18.3027V18.0127C29.1885 17.793 29.228 17.5776 29.3071 17.3667C29.3862 17.1558 29.4829 16.9404 29.5972 16.7207C29.7202 16.501 29.8301 16.2681 29.9268 16.022C30.252 15.231 30.6958 14.4971 31.2583 13.8203C31.8296 13.1436 32.5107 12.5986 33.3018 12.1855C34.1016 11.7637 35.0068 11.5527 36.0176 11.5527ZM35.543 13.5435C34.6465 13.5435 33.9082 13.75 33.3281 14.1631C32.7568 14.5762 32.3306 15.1255 32.0493 15.811C31.7681 16.4878 31.6274 17.2217 31.6274 18.0127V18.3027C31.6274 18.9707 31.7065 19.6035 31.8647 20.2012C32.0229 20.7988 32.2603 21.3306 32.5767 21.7964C32.9019 22.2534 33.3105 22.6138 33.8027 22.8774C34.3037 23.1411 34.8926 23.2729 35.5693 23.2729C36.2461 23.2729 36.8306 23.1411 37.3228 22.8774C37.8149 22.6138 38.2192 22.2534 38.5356 21.7964C38.8521 21.3306 39.0894 20.7988 39.2476 20.2012C39.4058 19.6035 39.4849 18.9707 39.4849 18.3027V18.0127C39.4849 17.415 39.4058 16.8481 39.2476 16.312C39.0894 15.7759 38.8477 15.3013 38.5225 14.8882C38.2061 14.4751 37.7974 14.1499 37.2964 13.9126C36.8042 13.6665 36.2197 13.5435 35.543 13.5435ZM47.1182 10.7354V25H44.6792V10.7354H47.1182ZM56.4785 10.7354L49.7153 18.9092H46.3008L45.9316 16.7734H48.7266L53.5122 10.7354H56.4785ZM53.855 25L48.6079 18.54L50.1768 16.7734L56.9531 25H53.855ZM67.4868 22.561V15.2178C67.4868 14.6553 67.3726 14.1675 67.144 13.7544C66.9243 13.3325 66.5903 13.0073 66.1421 12.7788C65.6938 12.5503 65.1401 12.436 64.481 12.436C63.8657 12.436 63.3252 12.5415 62.8594 12.7524C62.4023 12.9634 62.042 13.2402 61.7783 13.583C61.5234 13.9258 61.396 14.2949 61.396 14.6904H58.957C58.957 14.1807 59.0889 13.6753 59.3525 13.1743C59.6162 12.6733 59.9941 12.2207 60.4863 11.8164C60.9873 11.4033 61.585 11.0781 62.2793 10.8408C62.9824 10.5947 63.7646 10.4717 64.626 10.4717C65.6631 10.4717 66.5771 10.6475 67.3682 10.999C68.168 11.3506 68.792 11.8823 69.2402 12.5942C69.6973 13.2974 69.9258 14.1807 69.9258 15.2441V21.8887C69.9258 22.3633 69.9653 22.8687 70.0444 23.4048C70.1323 23.9409 70.2598 24.4023 70.4268 24.7891V25H67.8823C67.7593 24.7188 67.6626 24.3452 67.5923 23.8794C67.522 23.4048 67.4868 22.9653 67.4868 22.561ZM67.9087 16.3516L67.9351 18.0654H65.4697C64.7754 18.0654 64.1558 18.1226 63.6108 18.2368C63.0659 18.3423 62.6089 18.5049 62.2397 18.7246C61.8706 18.9443 61.5894 19.2212 61.396 19.5552C61.2026 19.8804 61.106 20.2627 61.106 20.7021C61.106 21.1504 61.207 21.5591 61.4092 21.9282C61.6113 22.2974 61.9146 22.5918 62.3188 22.8115C62.7319 23.0225 63.2373 23.1279 63.835 23.1279C64.582 23.1279 65.2412 22.9697 65.8125 22.6533C66.3838 22.3369 66.8364 21.9502 67.1704 21.4932C67.5132 21.0361 67.6978 20.5923 67.7241 20.1616L68.7656 21.335C68.7041 21.7041 68.5371 22.1128 68.2646 22.561C67.9922 23.0093 67.6274 23.4399 67.1704 23.853C66.7222 24.2573 66.186 24.5957 65.562 24.8682C64.9468 25.1318 64.2524 25.2637 63.479 25.2637C62.5122 25.2637 61.6641 25.0747 60.9346 24.6968C60.2139 24.3188 59.6514 23.8135 59.2471 23.1807C58.8516 22.5391 58.6538 21.8228 58.6538 21.0317C58.6538 20.2671 58.8032 19.5947 59.1021 19.0146C59.4009 18.4258 59.8315 17.938 60.394 17.5513C60.9565 17.1558 61.6333 16.8569 62.4243 16.6548C63.2153 16.4526 64.0986 16.3516 65.0742 16.3516H67.9087ZM76.6494 18.1973H79.2861L75.1597 25H72.5229L76.6494 18.1973ZM78.6929 10.7354H84.6519V25H82.2129V12.7129H78.6929C77.9985 12.7129 77.4316 12.8315 76.9922 13.0688C76.5527 13.2974 76.2319 13.5962 76.0298 13.9653C75.8276 14.3345 75.7266 14.7168 75.7266 15.1123C75.7266 15.499 75.8188 15.8726 76.0034 16.2329C76.188 16.5845 76.478 16.8745 76.8735 17.103C77.269 17.3315 77.7788 17.4458 78.4028 17.4458H82.8721V19.4497H78.4028C77.5854 19.4497 76.8604 19.3398 76.2275 19.1201C75.5947 18.9004 75.0586 18.5972 74.6191 18.2104C74.1797 17.8149 73.8457 17.3535 73.6172 16.8262C73.3887 16.29 73.2744 15.71 73.2744 15.0859C73.2744 14.4619 73.3931 13.8862 73.6304 13.3589C73.8765 12.8315 74.228 12.3701 74.6851 11.9746C75.1509 11.5791 75.7178 11.2759 76.3857 11.0649C77.0625 10.8452 77.8315 10.7354 78.6929 10.7354ZM99.2856 23.5234L103.254 10.7354H105.864L100.143 27.2017C100.011 27.5532 99.835 27.9312 99.6152 28.3354C99.4043 28.7485 99.1318 29.1396 98.7979 29.5088C98.4639 29.8779 98.0596 30.1768 97.585 30.4053C97.1191 30.6426 96.561 30.7612 95.9106 30.7612C95.7173 30.7612 95.4712 30.7349 95.1724 30.6821C94.8735 30.6294 94.6626 30.5854 94.5396 30.5503L94.5264 28.5728C94.5967 28.5815 94.7065 28.5903 94.856 28.5991C95.0142 28.6167 95.124 28.6255 95.1855 28.6255C95.7393 28.6255 96.2095 28.5508 96.5962 28.4014C96.9829 28.2607 97.3081 28.019 97.5718 27.6763C97.8442 27.3423 98.0771 26.8809 98.2705 26.292L99.2856 23.5234ZM96.3721 10.7354L100.077 21.8096L100.709 24.3804L98.9561 25.2769L93.709 10.7354H96.3721ZM117.571 10.7354V12.7524H110.36V10.7354H117.571ZM110.716 10.7354V25H108.277V10.7354H110.716ZM119.733 10.7354V25H117.281V10.7354H119.733ZM132.06 22.561V15.2178C132.06 14.6553 131.946 14.1675 131.717 13.7544C131.498 13.3325 131.164 13.0073 130.715 12.7788C130.267 12.5503 129.713 12.436 129.054 12.436C128.439 12.436 127.898 12.5415 127.433 12.7524C126.976 12.9634 126.615 13.2402 126.352 13.583C126.097 13.9258 125.969 14.2949 125.969 14.6904H123.53C123.53 14.1807 123.662 13.6753 123.926 13.1743C124.189 12.6733 124.567 12.2207 125.06 11.8164C125.561 11.4033 126.158 11.0781 126.853 10.8408C127.556 10.5947 128.338 10.4717 129.199 10.4717C130.236 10.4717 131.15 10.6475 131.941 10.999C132.741 11.3506 133.365 11.8823 133.813 12.5942C134.271 13.2974 134.499 14.1807 134.499 15.2441V21.8887C134.499 22.3633 134.539 22.8687 134.618 23.4048C134.706 23.9409 134.833 24.4023 135 24.7891V25H132.456C132.333 24.7188 132.236 24.3452 132.166 23.8794C132.095 23.4048 132.06 22.9653 132.06 22.561ZM132.482 16.3516L132.508 18.0654H130.043C129.349 18.0654 128.729 18.1226 128.184 18.2368C127.639 18.3423 127.182 18.5049 126.813 18.7246C126.444 18.9443 126.163 19.2212 125.969 19.5552C125.776 19.8804 125.679 20.2627 125.679 20.7021C125.679 21.1504 125.78 21.5591 125.982 21.9282C126.185 22.2974 126.488 22.5918 126.892 22.8115C127.305 23.0225 127.811 23.1279 128.408 23.1279C129.155 23.1279 129.814 22.9697 130.386 22.6533C130.957 22.3369 131.41 21.9502 131.744 21.4932C132.086 21.0361 132.271 20.5923 132.297 20.1616L133.339 21.335C133.277 21.7041 133.11 22.1128 132.838 22.561C132.565 23.0093 132.201 23.4399 131.744 23.853C131.295 24.2573 130.759 24.5957 130.135 24.8682C129.52 25.1318 128.826 25.2637 128.052 25.2637C127.085 25.2637 126.237 25.0747 125.508 24.6968C124.787 24.3188 124.225 23.8135 123.82 23.1807C123.425 22.5391 123.227 21.8228 123.227 21.0317C123.227 20.2671 123.376 19.5947 123.675 19.0146C123.974 18.4258 124.405 17.938 124.967 17.5513C125.53 17.1558 126.207 16.8569 126.998 16.6548C127.789 16.4526 128.672 16.3516 129.647 16.3516H132.482ZM140.985 10.7354V25H138.546V10.7354H140.985ZM150.346 10.7354L143.583 18.9092H140.168L139.799 16.7734H142.594L147.379 10.7354H150.346ZM147.722 25L142.475 18.54L144.044 16.7734L150.82 25H147.722ZM152.007 18.0259V17.7227C152.007 16.6943 152.156 15.7407 152.455 14.8618C152.754 13.9741 153.185 13.2051 153.747 12.5547C154.31 11.8955 154.991 11.3857 155.791 11.0254C156.59 10.6562 157.487 10.4717 158.48 10.4717C159.482 10.4717 160.383 10.6562 161.183 11.0254C161.991 11.3857 162.677 11.8955 163.239 12.5547C163.811 13.2051 164.246 13.9741 164.544 14.8618C164.843 15.7407 164.993 16.6943 164.993 17.7227V18.0259C164.993 19.0542 164.843 20.0078 164.544 20.8867C164.246 21.7656 163.811 22.5347 163.239 23.1938C162.677 23.8442 161.996 24.354 161.196 24.7231C160.405 25.0835 159.508 25.2637 158.506 25.2637C157.504 25.2637 156.604 25.0835 155.804 24.7231C155.004 24.354 154.318 23.8442 153.747 23.1938C153.185 22.5347 152.754 21.7656 152.455 20.8867C152.156 20.0078 152.007 19.0542 152.007 18.0259ZM154.446 17.7227V18.0259C154.446 18.7378 154.529 19.4102 154.696 20.043C154.863 20.667 155.114 21.2207 155.448 21.7041C155.791 22.1875 156.217 22.5698 156.727 22.8511C157.236 23.1235 157.83 23.2598 158.506 23.2598C159.174 23.2598 159.759 23.1235 160.26 22.8511C160.77 22.5698 161.191 22.1875 161.525 21.7041C161.859 21.2207 162.11 20.667 162.277 20.043C162.453 19.4102 162.541 18.7378 162.541 18.0259V17.7227C162.541 17.0195 162.453 16.356 162.277 15.7319C162.11 15.0991 161.855 14.541 161.512 14.0576C161.178 13.5654 160.756 13.1787 160.247 12.8975C159.746 12.6162 159.157 12.4756 158.48 12.4756C157.812 12.4756 157.223 12.6162 156.713 12.8975C156.212 13.1787 155.791 13.5654 155.448 14.0576C155.114 14.541 154.863 15.0991 154.696 15.7319C154.529 16.356 154.446 17.0195 154.446 17.7227ZM174.749 18.7246H170.068L170.042 16.7734H173.865C174.621 16.7734 175.25 16.6987 175.75 16.5493C176.26 16.3999 176.643 16.1758 176.897 15.877C177.152 15.5781 177.28 15.209 177.28 14.7695C177.28 14.4268 177.205 14.1279 177.056 13.873C176.915 13.6094 176.7 13.394 176.41 13.2271C176.12 13.0513 175.759 12.9238 175.329 12.8447C174.907 12.7568 174.41 12.7129 173.839 12.7129H170.714V25H168.275V10.7354H173.839C174.744 10.7354 175.557 10.8145 176.278 10.9727C177.007 11.1309 177.627 11.3726 178.137 11.6978C178.655 12.0142 179.051 12.4185 179.323 12.9106C179.596 13.4028 179.732 13.9829 179.732 14.6509C179.732 15.0815 179.644 15.4902 179.468 15.877C179.292 16.2637 179.033 16.6064 178.69 16.9053C178.348 17.2041 177.926 17.4502 177.425 17.6436C176.924 17.8281 176.348 17.9468 175.698 17.9995L174.749 18.7246ZM174.749 25H169.185L170.398 23.0225H174.749C175.425 23.0225 175.988 22.939 176.436 22.772C176.884 22.5962 177.218 22.3501 177.438 22.0337C177.667 21.7085 177.781 21.3218 177.781 20.8735C177.781 20.4253 177.667 20.043 177.438 19.7266C177.218 19.4014 176.884 19.1553 176.436 18.9883C175.988 18.8125 175.425 18.7246 174.749 18.7246H171.044L171.07 16.7734H175.698L176.581 17.5117C177.363 17.5732 178.027 17.7666 178.572 18.0918C179.117 18.417 179.53 18.8301 179.811 19.3311C180.092 19.8232 180.233 20.3594 180.233 20.9395C180.233 21.6074 180.105 22.1963 179.851 22.7061C179.604 23.2158 179.244 23.6421 178.77 23.9849C178.295 24.3188 177.719 24.5737 177.042 24.7495C176.366 24.9165 175.601 25 174.749 25ZM186.152 10.7354V25H183.713V10.7354H186.152ZM195.513 10.7354L188.75 18.9092H185.335L184.966 16.7734H187.761L192.546 10.7354H195.513ZM192.889 25L187.642 18.54L189.211 16.7734L195.987 25H192.889ZM206.521 22.561V15.2178C206.521 14.6553 206.407 14.1675 206.178 13.7544C205.958 13.3325 205.625 13.0073 205.176 12.7788C204.728 12.5503 204.174 12.436 203.515 12.436C202.9 12.436 202.359 12.5415 201.894 12.7524C201.437 12.9634 201.076 13.2402 200.812 13.583C200.558 13.9258 200.43 14.2949 200.43 14.6904H197.991C197.991 14.1807 198.123 13.6753 198.387 13.1743C198.65 12.6733 199.028 12.2207 199.521 11.8164C200.021 11.4033 200.619 11.0781 201.313 10.8408C202.017 10.5947 202.799 10.4717 203.66 10.4717C204.697 10.4717 205.611 10.6475 206.402 10.999C207.202 11.3506 207.826 11.8823 208.274 12.5942C208.731 13.2974 208.96 14.1807 208.96 15.2441V21.8887C208.96 22.3633 209 22.8687 209.079 23.4048C209.167 23.9409 209.294 24.4023 209.461 24.7891V25H206.917C206.793 24.7188 206.697 24.3452 206.626 23.8794C206.556 23.4048 206.521 22.9653 206.521 22.561ZM206.943 16.3516L206.969 18.0654H204.504C203.81 18.0654 203.19 18.1226 202.645 18.2368C202.1 18.3423 201.643 18.5049 201.274 18.7246C200.905 18.9443 200.624 19.2212 200.43 19.5552C200.237 19.8804 200.14 20.2627 200.14 20.7021C200.14 21.1504 200.241 21.5591 200.443 21.9282C200.646 22.2974 200.949 22.5918 201.353 22.8115C201.766 23.0225 202.271 23.1279 202.869 23.1279C203.616 23.1279 204.275 22.9697 204.847 22.6533C205.418 22.3369 205.871 21.9502 206.205 21.4932C206.547 21.0361 206.732 20.5923 206.758 20.1616L207.8 21.335C207.738 21.7041 207.571 22.1128 207.299 22.561C207.026 23.0093 206.662 23.4399 206.205 23.853C205.756 24.2573 205.22 24.5957 204.596 24.8682C203.981 25.1318 203.287 25.2637 202.513 25.2637C201.546 25.2637 200.698 25.0747 199.969 24.6968C199.248 24.3188 198.686 23.8135 198.281 23.1807C197.886 22.5391 197.688 21.8228 197.688 21.0317C197.688 20.2671 197.837 19.5947 198.136 19.0146C198.435 18.4258 198.866 17.938 199.428 17.5513C199.991 17.1558 200.667 16.8569 201.458 16.6548C202.25 16.4526 203.133 16.3516 204.108 16.3516H206.943Z" fill="#008C95"/>
<path d="M179.378 146.771L160.742 165.406L174.189 178.853L192.824 160.217L179.378 146.771Z" fill="#77E2C3"/>
<path d="M183.635 151.019L166.594 168.061L171.537 173.003L188.578 155.962L183.635 151.019Z" fill="#008C95"/>
<path d="M199.282 156.018L196.932 156.138L196.872 156.078L196.992 153.728L194.654 153.848L194.774 151.51L192.424 151.63L192.544 149.28L190.194 149.4L190.314 147.05L187.976 147.17L188.096 144.831L185.745 144.951L185.865 142.601L183.515 142.721L183.635 140.371L183.479 140.383L182.328 141.534L180.674 143.189L179.391 146.774L192.832 160.215L196.417 158.932L198.071 157.277L199.282 156.066V156.018Z" fill="#008C95"/>
<path d="M171.581 183.702L171.701 181.364L171.641 181.304L169.302 181.424L169.422 179.074L167.072 179.194L167.192 176.844L164.842 176.964L164.962 174.626L162.624 174.746L162.744 172.396L160.394 172.515L160.514 170.165L158.164 170.285L158.283 167.947L155.945 168.067L155.957 167.899L157.096 166.748L158.763 165.094L162.336 163.811L175.789 177.252L174.506 180.837L172.84 182.491L171.629 183.702H171.581Z" fill="#008C95"/>
<path d="M102.924 171.496H88.5234V145.01H112.204V162.216L102.924 171.496Z" fill="#77E2C3"/>
<path d="M102.926 171.495V162.215H112.206L102.926 171.495Z" fill="#008C95"/>
<path d="M79.9531 153.451V170.633C79.9531 175.297 83.79 179.074 88.5262 179.074C93.2623 179.074 97.0992 175.297 97.0992 170.633V153.451H79.9531Z" fill="#008C95"/>
<path d="M97.0992 153.451C97.0992 158.115 93.2623 161.892 88.5262 161.892C83.79 161.892 79.9531 158.115 79.9531 153.451C79.9531 148.787 83.79 145.01 88.5262 145.01C93.2623 145.01 97.0992 148.787 97.0992 153.451Z" fill="white"/>
<path d="M93.0936 153.451C93.0936 155.933 91.0433 157.948 88.5253 157.948C86.0074 157.948 83.957 155.933 83.957 153.451C83.957 150.969 86.0074 148.955 88.5253 148.955C91.0553 148.955 93.0936 150.969 93.0936 153.451Z" fill="#77E2C3"/>
<path d="M12.4093 59.3867H5.20312V64.3986H12.4093V59.3867Z" fill="#008C95"/>
<path d="M0 100.515L1.10308 101.618H3.30932L4.40041 100.515H6.60665L7.70973 101.618H9.90397L11.0071 100.515H13.2133L14.3044 101.618H16.5106L17.6137 100.515V91.8223H0V100.515Z" fill="#77E2C3"/>
<path d="M13.4051 64.3984H4.20859C1.47481 68.1514 0.0119903 71.4607 0 76.1009H17.6017C17.6017 71.4607 16.1269 68.1514 13.4051 64.3984Z" fill="#77E2C3"/>
<path d="M0.015625 76.1016C0.015625 76.1136 0.015625 76.1255 0.015625 76.1375V90.4779V91.8208H29.092V90.4779V76.1375C29.092 76.1255 29.092 76.1136 29.092 76.1016H0.015625Z" fill="#008C95"/>
<path d="M100.779 61.0781H86.75V94.4111H112.445V72.7566L100.779 61.0781Z" fill="#77E2C3"/>
<path d="M100.777 61.0781V72.7566H112.444L100.777 61.0781Z" fill="#008C95"/>
<path d="M79.7109 68.0215V92.9972C79.7109 96.8221 82.8644 99.9276 86.7492 99.9276C90.6341 99.9276 93.7875 96.8221 93.7875 92.9972V68.0215H79.7109Z" fill="#008C95"/>
<path d="M93.7875 68.0085C93.7875 71.8334 90.6341 74.9389 86.7492 74.9389C82.8644 74.9389 79.7109 71.8334 79.7109 68.0085C79.7109 64.1836 82.8644 61.0781 86.7492 61.0781C90.6341 61.0781 93.7875 64.1836 93.7875 68.0085Z" fill="white"/>
<path d="M90.4981 68.0074C90.4981 70.0458 88.8195 71.7005 86.7451 71.7005C84.6708 71.7005 82.9922 70.0458 82.9922 68.0074C82.9922 65.9691 84.6708 64.3145 86.7451 64.3145C88.8195 64.3264 90.4981 65.9691 90.4981 68.0074Z" fill="#77E2C3"/>
<path d="M178.756 67.2561L164.359 81.6523L176.449 93.7424L190.846 79.3462L178.756 67.2561Z" fill="#77E2C3"/>
<path d="M176.449 93.7502L173.331 98.8941L159.219 84.7815L164.363 81.6641L176.449 93.7502Z" fill="#77E2C3"/>
<path d="M159.216 84.7843L155.375 88.625L169.483 102.733L173.324 98.8922L159.216 84.7843Z" fill="#008C95"/>
<path d="M178.766 67.2632L181.895 62.1074L196.008 76.2199L190.852 79.3494L178.766 67.2632Z" fill="#77E2C3"/>
<path d="M185.723 58.2746L181.883 62.1152L195.991 76.2231L199.831 72.3825L185.723 58.2746Z" fill="#008C95"/>
<path d="M252.552 57.9121L250.273 59.8066H254.842L252.552 57.9121Z" fill="#77E2C3"/>
<path d="M247.981 57.9121L245.703 59.8066H250.271L247.981 57.9121Z" fill="#77E2C3"/>
<path d="M257.118 57.9121L254.84 59.8066H259.408L257.118 57.9121Z" fill="#77E2C3"/>
<path d="M261.692 57.9121L259.414 59.8066H263.97L261.692 57.9121Z" fill="#77E2C3"/>
<path d="M266.255 57.9121L263.977 59.8066H268.533L266.255 57.9121Z" fill="#77E2C3"/>
<path d="M270.825 57.9121L268.535 59.8066H273.103L270.825 57.9121Z" fill="#77E2C3"/>
<path d="M258.904 77.2405L273.101 59.8066H245.703L258.904 77.2405Z" fill="#77E2C3"/>
<path d="M272.741 78.7154V99.0269C272.741 101.269 270.907 103.104 268.664 103.104H249.264C247.022 103.104 245.188 101.269 245.188 99.0269V78.7154C245.188 76.4732 247.022 74.6387 249.264 74.6387H268.664C270.907 74.6387 272.741 76.4732 272.741 78.7154Z" fill="#77E2C3"/>
<path d="M269.264 81.4141C269.264 80.2751 268.329 79.3398 267.19 79.3398H251.051C249.912 79.3398 248.977 80.2751 248.977 81.4141C248.977 82.2415 249.48 82.9969 250.248 83.3206L250.236 83.9201V85.4549V98.6082C250.236 99.3036 250.799 99.8672 251.494 99.8672H266.986C267.681 99.8672 268.245 99.3036 268.245 98.6082V85.1311V83.8482L268.281 83.1647C268.892 82.793 269.264 82.1336 269.264 81.4141Z" fill="#008C95"/>
<path d="M258.199 94.3395C258.199 95.3826 257.359 96.222 256.316 96.222C255.273 96.222 254.434 95.3826 254.434 94.3395C254.434 93.2963 255.273 92.457 256.316 92.457C257.359 92.457 258.199 93.2963 258.199 94.3395Z" fill="#77E2C3"/>
<path d="M265.057 90.597C265.057 91.3884 264.41 92.0359 263.619 92.0359C262.827 92.0359 262.18 91.3884 262.18 90.597C262.18 89.8057 262.827 89.1582 263.619 89.1582C264.41 89.1582 265.057 89.8057 265.057 90.597Z" fill="#77E2C3"/>
<path d="M260.081 85.5387C260.081 86.5818 259.242 87.4212 258.199 87.4212C257.156 87.4212 256.316 86.5818 256.316 85.5387C256.316 84.4955 257.156 83.6562 258.199 83.6562C259.242 83.6682 260.081 84.5075 260.081 85.5387Z" fill="#77E2C3"/>
<path d="M358.822 82.7083L359.841 77.1448V76.6292C359.793 72.8163 358.69 69.7348 356.1 66.1378V62.0011C356.1 60.5503 354.829 59.3633 353.27 59.3633H345.956C344.553 59.3633 343.294 60.2146 342.862 61.4496C342.563 62.3249 341.783 62.7685 340.992 62.8165C340.98 62.8165 340.968 62.8165 340.956 62.8165C340.848 62.8165 340.74 62.8165 340.632 62.8045V62.8165C339.529 62.7925 338.702 62.4208 338.486 61.4496C338.054 60.2026 336.807 59.3633 335.393 59.3633H328.079C326.52 59.3633 325.249 60.5383 325.249 62.0011V66.1378C322.659 69.7348 321.556 72.8163 321.508 76.6292V77.1448L322.527 82.7083L321.52 90.7298L321.508 98.6674L324.517 101.629H337.095L337.934 100.826C338.69 100.106 339.661 99.7105 340.644 99.6266C341.651 99.6985 342.635 100.094 343.402 100.826L344.241 101.629H344.913H350.476H356.819L359.829 98.6674L359.817 90.7298L358.822 82.7083Z" fill="#77E2C3"/>
<path d="M335.106 62.4922H328.871V66.6288H335.106V62.4922Z" fill="#008C95"/>
<path d="M325.199 97.8876L326.051 98.7389H327.741L328.592 97.8876H330.295L331.134 98.7389H332.837L333.676 97.8876H335.379L336.218 98.7389H337.921L338.76 97.8876V91.6406H325.199V97.8876Z" fill="white"/>
<path d="M335.523 68.418H328.448C326.35 71.3196 325.211 73.8735 325.211 77.4586H338.772C338.76 73.8735 337.621 71.3196 335.523 68.418Z" fill="white"/>
<path d="M325.211 77.457C325.211 77.469 325.211 77.469 325.211 77.481L326.242 83.1884L325.211 91.6295H338.772L337.753 83.1884L338.772 77.481C338.772 77.469 338.772 77.469 338.772 77.457H325.211Z" fill="#008C95"/>
<path d="M352.047 62.4336H345.812V66.5702H352.047V62.4336Z" fill="#008C95"/>
<path d="M342.156 97.839L342.996 98.6903H344.698L345.538 97.839H347.24L348.091 98.6903H349.782L350.633 97.839H352.324L353.175 98.6903H354.866L355.717 97.839V91.5801H342.156V97.839Z" fill="white"/>
<path d="M352.468 68.3555H345.394C343.295 71.2571 342.156 73.811 342.156 77.3961H355.717C355.705 73.823 354.578 71.2571 352.468 68.3555Z" fill="white"/>
<path d="M342.156 77.4102C342.156 77.4221 342.156 77.4222 342.156 77.4342L343.187 83.1415L342.156 91.5827H355.717L354.698 83.1415L355.717 77.4342C355.717 77.4222 355.717 77.4221 355.717 77.4102H342.156Z" fill="#008C95"/>
<path d="M438.221 73.3066H406.195V99.8651H438.221V73.3066Z" fill="#77E2C3"/>
<path d="M441.102 71.0039H403.32V77.4667H441.102V71.0039Z" fill="#77E2C3"/>
<path d="M413.113 61.1387L418.773 61.4864L423.077 71.0666L420.787 71.2824L415.499 63.4288L413.113 61.1387Z" fill="#008C95"/>
<path d="M410.285 67.6853L413.115 61.1387L415.693 63.2729L413.93 66.2105L421.34 71.0066H416.016L410.285 67.6853Z" fill="#008C95"/>
<path d="M432.191 61.1387L426.531 61.4864L422.215 71.0666L424.517 71.2824L429.793 63.4288L432.191 61.1387Z" fill="#008C95"/>
<path d="M435.008 67.6853L432.19 61.1387L429.601 63.2729L431.375 66.2105L423.953 71.0066H429.277L435.008 67.6853Z" fill="#008C95"/>
<path d="M424.723 71.0039H419.711V99.8645H424.723V71.0039Z" fill="#008C95"/>
<path d="M693.726 16.2329L686.87 5.80469H689.85L694.952 14.1235H698.564L698.155 16.2329H693.726ZM695.097 16.0352L689.52 25H686.356L693.488 13.8467L695.097 16.0352ZM699.658 5.80469V25H697.14V5.80469H699.658ZM709.836 5.80469L702.954 16.2329H698.656L698.261 14.1235H701.741L706.843 5.80469H709.836ZM707.173 25L701.609 16.0352L703.231 13.8467L710.337 25H707.173ZM717.957 25.2637C716.964 25.2637 716.063 25.0967 715.254 24.7627C714.455 24.4199 713.765 23.9409 713.185 23.3257C712.613 22.7104 712.174 21.981 711.866 21.1372C711.559 20.2935 711.405 19.3706 711.405 18.3687V17.8149C711.405 16.6548 711.576 15.6221 711.919 14.7168C712.262 13.8027 712.728 13.0293 713.316 12.3965C713.905 11.7637 714.573 11.2847 715.32 10.9595C716.067 10.6343 716.841 10.4717 717.641 10.4717C718.66 10.4717 719.539 10.6475 720.277 10.999C721.024 11.3506 721.635 11.8428 722.11 12.4756C722.584 13.0996 722.936 13.8379 723.165 14.6904C723.393 15.5342 723.507 16.457 723.507 17.459V18.5532H712.855V16.5625H721.068V16.3779C721.033 15.7451 720.901 15.1299 720.673 14.5322C720.453 13.9346 720.102 13.4424 719.618 13.0557C719.135 12.6689 718.476 12.4756 717.641 12.4756C717.087 12.4756 716.577 12.5942 716.111 12.8315C715.646 13.0601 715.246 13.4028 714.912 13.8599C714.578 14.3169 714.318 14.875 714.134 15.5342C713.949 16.1934 713.857 16.9536 713.857 17.8149V18.3687C713.857 19.0454 713.949 19.6826 714.134 20.2803C714.327 20.8691 714.604 21.3877 714.964 21.8359C715.333 22.2842 715.777 22.6357 716.296 22.8906C716.823 23.1455 717.421 23.2729 718.089 23.2729C718.95 23.2729 719.68 23.0972 720.277 22.7456C720.875 22.394 721.398 21.9238 721.846 21.335L723.323 22.5083C723.015 22.9741 722.624 23.418 722.149 23.8398C721.675 24.2617 721.09 24.6045 720.396 24.8682C719.71 25.1318 718.897 25.2637 717.957 25.2637ZM732.063 23.2598C732.644 23.2598 733.18 23.1411 733.672 22.9038C734.164 22.6665 734.568 22.3413 734.885 21.9282C735.201 21.5063 735.381 21.0273 735.425 20.4912H737.746C737.702 21.335 737.416 22.1216 736.889 22.8511C736.37 23.5718 735.689 24.1562 734.845 24.6045C734.001 25.0439 733.074 25.2637 732.063 25.2637C730.991 25.2637 730.055 25.0747 729.255 24.6968C728.464 24.3188 727.805 23.8003 727.278 23.1411C726.759 22.4819 726.368 21.7261 726.104 20.8735C725.85 20.0122 725.722 19.1025 725.722 18.1445V17.5908C725.722 16.6328 725.85 15.7275 726.104 14.875C726.368 14.0137 726.759 13.2534 727.278 12.5942C727.805 11.9351 728.464 11.4165 729.255 11.0386C730.055 10.6606 730.991 10.4717 732.063 10.4717C733.18 10.4717 734.155 10.7002 734.99 11.1572C735.825 11.6055 736.48 12.2207 736.955 13.0029C737.438 13.7764 737.702 14.6553 737.746 15.6396H735.425C735.381 15.0508 735.214 14.519 734.924 14.0444C734.643 13.5698 734.256 13.1919 733.764 12.9106C733.281 12.6206 732.714 12.4756 732.063 12.4756C731.316 12.4756 730.688 12.625 730.178 12.9238C729.677 13.2139 729.277 13.6094 728.979 14.1104C728.688 14.6025 728.478 15.1519 728.346 15.7583C728.223 16.356 728.161 16.9668 728.161 17.5908V18.1445C728.161 18.7686 728.223 19.3838 728.346 19.9902C728.469 20.5967 728.675 21.146 728.965 21.6382C729.264 22.1304 729.664 22.5259 730.165 22.8247C730.675 23.1147 731.308 23.2598 732.063 23.2598ZM746.302 10.7354V25H743.85V10.7354H746.302ZM751.087 10.7354V12.7129H739.156V10.7354H751.087ZM756.137 10.7354V25H753.698V10.7354H756.137ZM765.497 10.7354L758.734 18.9092H755.319L754.95 16.7734H757.745L762.531 10.7354H765.497ZM762.874 25L757.626 18.54L759.195 16.7734L765.972 25H762.874ZM776.505 22.561V15.2178C776.505 14.6553 776.391 14.1675 776.163 13.7544C775.943 13.3325 775.609 13.0073 775.161 12.7788C774.712 12.5503 774.159 12.436 773.5 12.436C772.884 12.436 772.344 12.5415 771.878 12.7524C771.421 12.9634 771.061 13.2402 770.797 13.583C770.542 13.9258 770.415 14.2949 770.415 14.6904H767.976C767.976 14.1807 768.107 13.6753 768.371 13.1743C768.635 12.6733 769.013 12.2207 769.505 11.8164C770.006 11.4033 770.604 11.0781 771.298 10.8408C772.001 10.5947 772.783 10.4717 773.645 10.4717C774.682 10.4717 775.596 10.6475 776.387 10.999C777.187 11.3506 777.811 11.8823 778.259 12.5942C778.716 13.2974 778.944 14.1807 778.944 15.2441V21.8887C778.944 22.3633 778.984 22.8687 779.063 23.4048C779.151 23.9409 779.278 24.4023 779.445 24.7891V25H776.901C776.778 24.7188 776.681 24.3452 776.611 23.8794C776.541 23.4048 776.505 22.9653 776.505 22.561ZM776.927 16.3516L776.954 18.0654H774.488C773.794 18.0654 773.174 18.1226 772.629 18.2368C772.084 18.3423 771.627 18.5049 771.258 18.7246C770.889 18.9443 770.608 19.2212 770.415 19.5552C770.221 19.8804 770.125 20.2627 770.125 20.7021C770.125 21.1504 770.226 21.5591 770.428 21.9282C770.63 22.2974 770.933 22.5918 771.337 22.8115C771.75 23.0225 772.256 23.1279 772.854 23.1279C773.601 23.1279 774.26 22.9697 774.831 22.6533C775.402 22.3369 775.855 21.9502 776.189 21.4932C776.532 21.0361 776.716 20.5923 776.743 20.1616L777.784 21.335C777.723 21.7041 777.556 22.1128 777.283 22.561C777.011 23.0093 776.646 23.4399 776.189 23.853C775.741 24.2573 775.205 24.5957 774.581 24.8682C773.965 25.1318 773.271 25.2637 772.498 25.2637C771.531 25.2637 770.683 25.0747 769.953 24.6968C769.232 24.3188 768.67 23.8135 768.266 23.1807C767.87 22.5391 767.672 21.8228 767.672 21.0317C767.672 20.2671 767.822 19.5947 768.121 19.0146C768.419 18.4258 768.85 17.938 769.413 17.5513C769.975 17.1558 770.652 16.8569 771.443 16.6548C772.234 16.4526 773.117 16.3516 774.093 16.3516H776.927ZM785.668 18.1973H788.305L784.178 25H781.542L785.668 18.1973ZM787.711 10.7354H793.67V25H791.231V12.7129H787.711C787.017 12.7129 786.45 12.8315 786.011 13.0688C785.571 13.2974 785.25 13.5962 785.048 13.9653C784.846 14.3345 784.745 14.7168 784.745 15.1123C784.745 15.499 784.837 15.8726 785.022 16.2329C785.207 16.5845 785.497 16.8745 785.892 17.103C786.288 17.3315 786.797 17.4458 787.421 17.4458H791.891V19.4497H787.421C786.604 19.4497 785.879 19.3398 785.246 19.1201C784.613 18.9004 784.077 18.5972 783.638 18.2104C783.198 17.8149 782.864 17.3535 782.636 16.8262C782.407 16.29 782.293 15.71 782.293 15.0859C782.293 14.4619 782.412 13.8862 782.649 13.3589C782.895 12.8315 783.247 12.3701 783.704 11.9746C784.169 11.5791 784.736 11.2759 785.404 11.0649C786.081 10.8452 786.85 10.7354 787.711 10.7354ZM808.304 23.5234L812.272 10.7354H814.883L809.161 27.2017C809.029 27.5532 808.854 27.9312 808.634 28.3354C808.423 28.7485 808.15 29.1396 807.816 29.5088C807.482 29.8779 807.078 30.1768 806.604 30.4053C806.138 30.6426 805.58 30.7612 804.929 30.7612C804.736 30.7612 804.49 30.7349 804.191 30.6821C803.892 30.6294 803.681 30.5854 803.558 30.5503L803.545 28.5728C803.615 28.5815 803.725 28.5903 803.875 28.5991C804.033 28.6167 804.143 28.6255 804.204 28.6255C804.758 28.6255 805.228 28.5508 805.615 28.4014C806.001 28.2607 806.327 28.019 806.59 27.6763C806.863 27.3423 807.096 26.8809 807.289 26.292L808.304 23.5234ZM805.391 10.7354L809.095 21.8096L809.728 24.3804L807.975 25.2769L802.728 10.7354H805.391ZM826.59 10.7354V12.7524H819.378V10.7354H826.59ZM819.734 10.7354V25H817.295V10.7354H819.734ZM828.752 10.7354V25H826.3V10.7354H828.752ZM841.079 22.561V15.2178C841.079 14.6553 840.964 14.1675 840.736 13.7544C840.516 13.3325 840.182 13.0073 839.734 12.7788C839.286 12.5503 838.732 12.436 838.073 12.436C837.458 12.436 836.917 12.5415 836.451 12.7524C835.994 12.9634 835.634 13.2402 835.37 13.583C835.115 13.9258 834.988 14.2949 834.988 14.6904H832.549C832.549 14.1807 832.681 13.6753 832.944 13.1743C833.208 12.6733 833.586 12.2207 834.078 11.8164C834.579 11.4033 835.177 11.0781 835.871 10.8408C836.574 10.5947 837.356 10.4717 838.218 10.4717C839.255 10.4717 840.169 10.6475 840.96 10.999C841.76 11.3506 842.384 11.8823 842.832 12.5942C843.289 13.2974 843.518 14.1807 843.518 15.2441V21.8887C843.518 22.3633 843.557 22.8687 843.636 23.4048C843.724 23.9409 843.852 24.4023 844.019 24.7891V25H841.474C841.351 24.7188 841.254 24.3452 841.184 23.8794C841.114 23.4048 841.079 22.9653 841.079 22.561ZM841.5 16.3516L841.527 18.0654H839.062C838.367 18.0654 837.748 18.1226 837.203 18.2368C836.658 18.3423 836.201 18.5049 835.832 18.7246C835.462 18.9443 835.181 19.2212 834.988 19.5552C834.794 19.8804 834.698 20.2627 834.698 20.7021C834.698 21.1504 834.799 21.5591 835.001 21.9282C835.203 22.2974 835.506 22.5918 835.911 22.8115C836.324 23.0225 836.829 23.1279 837.427 23.1279C838.174 23.1279 838.833 22.9697 839.404 22.6533C839.976 22.3369 840.428 21.9502 840.762 21.4932C841.105 21.0361 841.29 20.5923 841.316 20.1616L842.357 21.335C842.296 21.7041 842.129 22.1128 841.856 22.561C841.584 23.0093 841.219 23.4399 840.762 23.853C840.314 24.2573 839.778 24.5957 839.154 24.8682C838.539 25.1318 837.844 25.2637 837.071 25.2637C836.104 25.2637 835.256 25.0747 834.526 24.6968C833.806 24.3188 833.243 23.8135 832.839 23.1807C832.443 22.5391 832.246 21.8228 832.246 21.0317C832.246 20.2671 832.395 19.5947 832.694 19.0146C832.993 18.4258 833.423 17.938 833.986 17.5513C834.548 17.1558 835.225 16.8569 836.016 16.6548C836.807 16.4526 837.69 16.3516 838.666 16.3516H841.5ZM850.004 10.7354V25H847.565V10.7354H850.004ZM859.364 10.7354L852.601 18.9092H849.187L848.817 16.7734H851.612L856.398 10.7354H859.364ZM856.741 25L851.494 18.54L853.062 16.7734L859.839 25H856.741ZM861.025 18.0259V17.7227C861.025 16.6943 861.175 15.7407 861.474 14.8618C861.772 13.9741 862.203 13.2051 862.766 12.5547C863.328 11.8955 864.009 11.3857 864.809 11.0254C865.609 10.6562 866.505 10.4717 867.499 10.4717C868.5 10.4717 869.401 10.6562 870.201 11.0254C871.01 11.3857 871.695 11.8955 872.258 12.5547C872.829 13.2051 873.264 13.9741 873.563 14.8618C873.862 15.7407 874.011 16.6943 874.011 17.7227V18.0259C874.011 19.0542 873.862 20.0078 873.563 20.8867C873.264 21.7656 872.829 22.5347 872.258 23.1938C871.695 23.8442 871.014 24.354 870.214 24.7231C869.423 25.0835 868.527 25.2637 867.525 25.2637C866.523 25.2637 865.622 25.0835 864.822 24.7231C864.022 24.354 863.337 23.8442 862.766 23.1938C862.203 22.5347 861.772 21.7656 861.474 20.8867C861.175 20.0078 861.025 19.0542 861.025 18.0259ZM863.464 17.7227V18.0259C863.464 18.7378 863.548 19.4102 863.715 20.043C863.882 20.667 864.132 21.2207 864.466 21.7041C864.809 22.1875 865.235 22.5698 865.745 22.8511C866.255 23.1235 866.848 23.2598 867.525 23.2598C868.193 23.2598 868.777 23.1235 869.278 22.8511C869.788 22.5698 870.21 22.1875 870.544 21.7041C870.878 21.2207 871.128 20.667 871.295 20.043C871.471 19.4102 871.559 18.7378 871.559 18.0259V17.7227C871.559 17.0195 871.471 16.356 871.295 15.7319C871.128 15.0991 870.874 14.541 870.531 14.0576C870.197 13.5654 869.775 13.1787 869.265 12.8975C868.764 12.6162 868.175 12.4756 867.499 12.4756C866.831 12.4756 866.242 12.6162 865.732 12.8975C865.231 13.1787 864.809 13.5654 864.466 14.0576C864.132 14.541 863.882 15.0991 863.715 15.7319C863.548 16.356 863.464 17.0195 863.464 17.7227ZM883.767 18.7246H879.087L879.061 16.7734H882.884C883.64 16.7734 884.268 16.6987 884.769 16.5493C885.279 16.3999 885.661 16.1758 885.916 15.877C886.171 15.5781 886.298 15.209 886.298 14.7695C886.298 14.4268 886.224 14.1279 886.074 13.873C885.934 13.6094 885.718 13.394 885.428 13.2271C885.138 13.0513 884.778 12.9238 884.347 12.8447C883.925 12.7568 883.429 12.7129 882.857 12.7129H879.733V25H877.294V10.7354H882.857C883.763 10.7354 884.576 10.8145 885.296 10.9727C886.026 11.1309 886.646 11.3726 887.155 11.6978C887.674 12.0142 888.069 12.4185 888.342 12.9106C888.614 13.4028 888.75 13.9829 888.75 14.6509C888.75 15.0815 888.663 15.4902 888.487 15.877C888.311 16.2637 888.052 16.6064 887.709 16.9053C887.366 17.2041 886.944 17.4502 886.443 17.6436C885.942 17.8281 885.367 17.9468 884.716 17.9995L883.767 18.7246ZM883.767 25H878.204L879.417 23.0225H883.767C884.444 23.0225 885.006 22.939 885.455 22.772C885.903 22.5962 886.237 22.3501 886.457 22.0337C886.685 21.7085 886.799 21.3218 886.799 20.8735C886.799 20.4253 886.685 20.043 886.457 19.7266C886.237 19.4014 885.903 19.1553 885.455 18.9883C885.006 18.8125 884.444 18.7246 883.767 18.7246H880.062L880.089 16.7734H884.716L885.6 17.5117C886.382 17.5732 887.045 17.7666 887.59 18.0918C888.135 18.417 888.548 18.8301 888.83 19.3311C889.111 19.8232 889.251 20.3594 889.251 20.9395C889.251 21.6074 889.124 22.1963 888.869 22.7061C888.623 23.2158 888.263 23.6421 887.788 23.9849C887.313 24.3188 886.738 24.5737 886.061 24.7495C885.384 24.9165 884.62 25 883.767 25ZM895.171 10.7354V25H892.732V10.7354H895.171ZM904.531 10.7354L897.768 18.9092H894.354L893.984 16.7734H896.779L901.565 10.7354H904.531ZM901.908 25L896.661 18.54L898.229 16.7734L905.006 25H901.908ZM915.54 22.561V15.2178C915.54 14.6553 915.425 14.1675 915.197 13.7544C914.977 13.3325 914.643 13.0073 914.195 12.7788C913.747 12.5503 913.193 12.436 912.534 12.436C911.918 12.436 911.378 12.5415 910.912 12.7524C910.455 12.9634 910.095 13.2402 909.831 13.583C909.576 13.9258 909.449 14.2949 909.449 14.6904H907.01C907.01 14.1807 907.142 13.6753 907.405 13.1743C907.669 12.6733 908.047 12.2207 908.539 11.8164C909.04 11.4033 909.638 11.0781 910.332 10.8408C911.035 10.5947 911.817 10.4717 912.679 10.4717C913.716 10.4717 914.63 10.6475 915.421 10.999C916.221 11.3506 916.845 11.8823 917.293 12.5942C917.75 13.2974 917.979 14.1807 917.979 15.2441V21.8887C917.979 22.3633 918.018 22.8687 918.097 23.4048C918.185 23.9409 918.312 24.4023 918.479 24.7891V25H915.935C915.812 24.7188 915.715 24.3452 915.645 23.8794C915.575 23.4048 915.54 22.9653 915.54 22.561ZM915.961 16.3516L915.988 18.0654H913.522C912.828 18.0654 912.208 18.1226 911.664 18.2368C911.119 18.3423 910.662 18.5049 910.292 18.7246C909.923 18.9443 909.642 19.2212 909.449 19.5552C909.255 19.8804 909.159 20.2627 909.159 20.7021C909.159 21.1504 909.26 21.5591 909.462 21.9282C909.664 22.2974 909.967 22.5918 910.372 22.8115C910.785 23.0225 911.29 23.1279 911.888 23.1279C912.635 23.1279 913.294 22.9697 913.865 22.6533C914.437 22.3369 914.889 21.9502 915.223 21.4932C915.566 21.0361 915.75 20.5923 915.777 20.1616L916.818 21.335C916.757 21.7041 916.59 22.1128 916.317 22.561C916.045 23.0093 915.68 23.4399 915.223 23.853C914.775 24.2573 914.239 24.5957 913.615 24.8682C913 25.1318 912.305 25.2637 911.532 25.2637C910.565 25.2637 909.717 25.0747 908.987 24.6968C908.267 24.3188 907.704 23.8135 907.3 23.1807C906.904 22.5391 906.707 21.8228 906.707 21.0317C906.707 20.2671 906.856 19.5947 907.155 19.0146C907.454 18.4258 907.884 17.938 908.447 17.5513C909.009 17.1558 909.686 16.8569 910.477 16.6548C911.268 16.4526 912.151 16.3516 913.127 16.3516H915.961Z" fill="#008C95"/>
<path d="M1123.67 245.792V238.394L1129.98 234.701V242.111L1123.67 245.792Z" fill="#008C95"/>
<path d="M1121.89 246.824L1115.59 250.505V243.107L1121.89 239.426V246.824Z" fill="#008C95"/>
<path d="M1123.67 247.841L1129.98 244.16V251.198L1123.67 254.879V247.841Z" fill="#008C95"/>
<path d="M1121.89 248.875V255.925L1115.59 259.606V252.568L1121.89 248.875Z" fill="#008C95"/>
<path d="M1123.67 245.792V238.394L1129.98 234.701V242.111L1123.67 245.792Z" fill="#77E2C3"/>
<path d="M1121.89 246.824L1115.59 250.505V243.107L1121.89 239.426V246.824Z" fill="#77E2C3"/>
<path d="M1123.67 247.841L1129.98 244.16V251.198L1123.67 254.879V247.841Z" fill="#77E2C3"/>
<path d="M1121.89 248.875V255.925L1115.59 259.606V252.568L1121.89 248.875Z" fill="#77E2C3"/>
<path d="M1105.7 245.792V238.394L1099.39 234.701V242.111L1105.7 245.792Z" fill="#008C95"/>
<path d="M1107.47 246.824L1113.78 250.505V243.107L1107.47 239.426V246.824Z" fill="#008C95"/>
<path d="M1105.7 247.841L1099.39 244.16V251.198L1105.7 254.879V247.841Z" fill="#008C95"/>
<path d="M1107.47 248.875V255.925L1113.78 259.606V252.568L1107.47 248.875Z" fill="#008C95"/>
<path d="M1112.9 233.106L1106.68 236.691L1100.34 233.022L1106.56 229.449L1112.9 233.106Z" fill="#77E2C3"/>
<path d="M1114.65 232.1L1108.3 228.443L1114.52 224.857L1120.87 228.526L1114.65 232.1Z" fill="#77E2C3"/>
<path d="M1116.4 233.106L1122.62 229.533L1128.96 233.19L1122.74 236.775L1116.4 233.106Z" fill="#77E2C3"/>
<path d="M1114.65 234.113L1121.01 237.782L1114.78 241.355L1108.43 237.698L1114.65 234.113Z" fill="#77E2C3"/>
<path d="M1037.94 179.401L1037.07 164.09H1049.43L1048.54 179.401H1037.94Z" fill="#008C95"/>
<path d="M1051.19 162.16H1035.29V165.086H1051.19V162.16Z" fill="#77E2C3"/>
<path d="M1028.35 141.766H1021.9V146.25H1028.35V141.766Z" fill="#008C95"/>
<path d="M1017.23 178.575L1018.22 179.558H1020.2L1021.18 178.575H1023.15L1024.13 179.558H1026.11L1027.09 178.575H1029.06L1030.04 179.558H1032.01L1033 178.575V170.781H1017.23V178.575Z" fill="#77E2C3"/>
<path d="M1029.23 146.248H1021.01C1018.56 149.605 1017.25 152.567 1017.24 156.716H1033C1032.99 152.567 1031.67 149.605 1029.23 146.248Z" fill="#77E2C3"/>
<path d="M1017.24 156.715C1017.24 156.727 1017.24 156.739 1017.24 156.739V169.58V170.779H1033V169.58V156.739C1033 156.727 1033 156.715 1033 156.715H1017.24Z" fill="#008C95"/>
<path d="M1029.59 60.3867H1023.19V64.8351H1029.59V60.3867Z" fill="#008C95"/>
<path d="M1045.43 68.8867H1039.03V73.3351H1045.43V68.8867Z" fill="#008C95"/>
<path d="M1018.57 96.9229L1019.54 97.906H1021.5L1022.48 96.9229H1024.43L1025.42 97.906H1027.37L1028.34 96.9229H1030.3L1031.28 97.906H1033.23L1034.21 96.9229V89.2012H1018.57V96.9229Z" fill="#77E2C3"/>
<path d="M1030.48 64.8359H1022.31C1019.89 68.1692 1018.58 71.1068 1018.57 75.2315H1034.21C1034.21 71.1068 1032.9 68.1692 1030.48 64.8359Z" fill="#77E2C3"/>
<path d="M1018.57 75.2305C1018.57 75.2425 1018.57 75.2545 1018.57 75.2545V88.0001V89.1992H1034.22V88.0001V75.2545C1034.22 75.2425 1034.22 75.2305 1034.22 75.2305H1018.57Z" fill="#008C95"/>
<path d="M1036.71 97.173L1037.4 97.9044H1038.78L1039.47 97.173H1040.84L1041.53 97.9044H1042.91L1043.6 97.173H1044.98L1045.67 97.9044H1047.04L1047.73 97.173V91.4297H1036.71V97.173Z" fill="#77E2C3"/>
<path d="M1045.1 73.3359H1039.34C1037.64 75.8179 1036.71 78.0002 1036.71 81.0577H1047.73C1047.72 78.0002 1046.81 75.8179 1045.1 73.3359Z" fill="#77E2C3"/>
<path d="M1036.71 81.0586C1036.71 81.0706 1036.71 81.0706 1036.71 81.0826L1037.55 83.8044L1036.71 91.4422H1047.73L1046.89 83.8044L1047.73 81.0826C1047.73 81.0706 1047.73 81.0706 1047.73 81.0586H1036.71Z" fill="#008C95"/>
<path d="M719.212 176.894H695.016L691.742 165.516H722.473L719.212 176.894Z" fill="#008C95"/>
<path d="M713.554 144.426L690.832 152.771L691.707 164.617L720.556 154.018L713.554 144.426Z" fill="#77E2C3"/>
<path d="M725.043 162.688H689V166.608H725.043V162.688Z" fill="#77E2C3"/>
<path d="M722.72 149.919L689.027 162.725L690.416 166.379L724.109 153.573L722.72 149.919Z" fill="#77E2C3"/>
<path d="M696.566 153.716L693.707 154.766L695.575 159.854L698.434 158.804L696.566 153.716Z" fill="white"/>
<path d="M701.898 151.749L699.039 152.799L700.907 157.887L703.766 156.837L701.898 151.749Z" fill="white"/>
<path d="M707.234 149.792L704.375 150.842L706.243 155.93L709.102 154.88L707.234 149.792Z" fill="white"/>
<path d="M712.57 147.837L709.711 148.887L711.579 153.975L714.438 152.925L712.57 147.837Z" fill="white"/>
<path d="M700.014 168.982H696.969V174.402H700.014V168.982Z" fill="white"/>
<path d="M705.698 168.982H702.652V174.402H705.698V168.982Z" fill="white"/>
<path d="M711.381 168.982H708.336V174.402H711.381V168.982Z" fill="white"/>
<path d="M717.065 168.982H714.02V174.402H717.065V168.982Z" fill="white"/>
<path d="M801.241 74.4521C801.241 74.9916 801.217 75.5192 801.157 76.0468C800.39 83.7206 794.155 89.7756 786.409 90.2672C786.073 90.2912 785.738 90.3032 785.39 90.3032C785.054 90.3032 784.706 90.2912 784.383 90.2672C776.109 89.7397 769.551 82.8693 769.551 74.4641C769.551 66.0589 776.097 59.1765 784.383 58.6609H784.395C784.718 58.637 785.054 58.625 785.39 58.625C785.726 58.625 786.061 58.637 786.397 58.6609H786.409C794.538 59.1765 801.013 65.8191 801.229 74.0325C801.241 74.1524 801.241 74.3082 801.241 74.4521Z" fill="#77E2C3"/>
<path d="M793.983 74.4502C793.983 74.738 793.971 75.0258 793.935 75.3136C793.515 79.4742 790.134 82.7595 785.937 83.0233C785.758 83.0353 785.578 83.0353 785.386 83.0353C785.194 83.0353 785.014 83.0233 784.834 83.0233C780.35 82.7355 776.801 79.0065 776.801 74.4502C776.801 69.8939 780.35 66.165 784.834 65.8892H784.846C785.026 65.8772 785.206 65.8652 785.386 65.8652C785.566 65.8652 785.746 65.8772 785.925 65.8892H785.937C790.35 66.165 793.851 69.774 793.971 74.2224C793.983 74.2944 793.983 74.3663 793.983 74.4502Z" fill="white"/>
<path d="M794.07 95.5052L788.123 101.452C787.367 101.704 786.504 100.397 786.996 98.3949C787.631 96.3086 788.099 95.3614 789.693 93.6108C793.291 89.9538 797.511 87.3758 798.698 86.6924L808.314 77.0762L810.401 79.1625L801.048 88.5149L794.07 95.5052Z" fill="#77E2C3"/>
<path d="M805.124 74.2815L803.841 72.9985L797.558 79.2814L796.623 78.3462L802.905 72.0633L801.623 70.7803L795.34 77.0752L794.237 75.9721L800.519 69.6892L799.236 68.4062L792.954 74.7011L791.587 76.068C790.46 77.1951 790.34 78.9457 791.239 80.2047L778.445 92.9983L780.532 95.0966L793.337 82.303C794.596 83.1903 796.347 83.0823 797.474 81.9552L797.738 81.6915L798.841 80.5884L805.124 74.2815Z" fill="#77E2C3"/>
<path d="M801.189 75.6489L797.556 79.282L796.621 78.3467L801.225 73.7425C801.189 72.9631 801.105 72.1957 800.961 71.4523L795.35 77.0638L794.247 75.9607L800.529 69.6778C800.529 69.6658 800.517 69.6538 800.517 69.6418L799.259 68.3828L792.976 74.6658L791.609 76.0326C790.482 77.1597 790.362 78.9103 791.261 80.1693L781.633 89.7975C782.532 90.0133 783.455 90.1692 784.415 90.2291C784.726 90.2531 785.038 90.2531 785.362 90.2531L793.347 82.2676C794.606 83.1548 796.357 83.0469 797.484 81.9199L797.748 81.656L798.851 80.553L800.661 78.7424C800.913 77.8671 801.081 76.9558 801.177 76.0206C801.177 75.9127 801.177 75.7808 801.189 75.6489Z" fill="#008C95"/>
<path d="M886.523 75.8887H853.67C853.226 76.3323 852.987 76.5721 852.543 77.0158V92.735H887.638V77.0158C887.207 76.5841 886.967 76.3323 886.523 75.8887Z" fill="#77E2C3"/>
<path d="M877.078 88.9363C877.078 92.4375 879.284 95.2672 882.006 95.2672C884.728 95.2672 886.934 92.4375 886.934 88.9363C886.934 85.4352 884.728 82.6055 882.006 82.6055C879.284 82.5935 877.078 85.4352 877.078 88.9363Z" fill="white"/>
<path d="M865.156 88.9363C865.156 92.4375 867.362 95.2672 870.084 95.2672C872.806 95.2672 875.012 92.4375 875.012 88.9363C875.012 85.4352 872.806 82.6055 870.084 82.6055C867.362 82.5935 865.156 85.4352 865.156 88.9363Z" fill="white"/>
<path d="M853.273 88.9363C853.273 92.4375 855.48 95.2672 858.201 95.2672C860.923 95.2672 863.129 92.4375 863.129 88.9363C863.129 85.4352 860.923 82.6055 858.201 82.6055C855.48 82.5935 853.273 85.4352 853.273 88.9363Z" fill="white"/>
<path d="M877.483 96.0812H886.523C886.967 95.6376 887.207 95.3978 887.65 94.9541V89.3906H876.355V94.9541C876.799 95.3978 877.039 95.6496 877.483 96.0812Z" fill="#008C95"/>
<path d="M865.623 96.0812H874.676C875.119 95.6376 875.359 95.3978 875.803 94.9541V89.3906H864.508V94.9541C864.939 95.3978 865.179 95.6496 865.623 96.0812Z" fill="#008C95"/>
<path d="M853.681 96.0812H862.734C863.178 95.6376 863.418 95.3978 863.861 94.9541V89.3906H852.566V94.9541C852.998 95.3978 853.238 95.6496 853.681 96.0812Z" fill="#008C95"/>
<path d="M879.786 89.3906H857.484V93.9709H879.786V89.3906Z" fill="#008C95"/>
<path d="M889.737 89.3906H850.445V91.0813H889.737V89.3906Z" fill="#008C95"/>
<path d="M862.734 62.209H853.682C853.238 62.6526 852.998 62.8924 852.555 63.3361V68.8996H863.861V63.3361L862.734 62.209Z" fill="#008C95"/>
<path d="M875.086 62.209H865.027C864.571 62.6646 864.307 62.9284 863.852 63.384V68.8996H876.261V63.384C875.806 62.9284 875.554 62.6646 875.086 62.209Z" fill="#008C95"/>
<path d="M886.707 62.209H877.319C876.875 62.6526 876.623 62.9044 876.18 63.3481V68.8996H887.846V63.3481C887.403 62.9044 887.151 62.6526 886.707 62.209Z" fill="#008C95"/>
<path d="M882.724 64.3203H860.422V68.9006H882.724V64.3203Z" fill="#008C95"/>
<path d="M877.078 71.202C877.078 74.7031 879.284 77.5328 882.006 77.5328C884.728 77.5328 886.934 74.7031 886.934 71.202C886.934 67.7008 884.728 64.8711 882.006 64.8711C879.284 64.8711 877.078 67.7008 877.078 71.202Z" fill="white"/>
<path d="M865.156 71.202C865.156 74.7031 867.362 77.5328 870.084 77.5328C872.806 77.5328 875.012 74.7031 875.012 71.202C875.012 67.7008 872.806 64.8711 870.084 64.8711C867.362 64.8711 865.156 67.7008 865.156 71.202Z" fill="white"/>
<path d="M853.273 71.202C853.273 74.7031 855.48 77.5328 858.201 77.5328C860.923 77.5328 863.129 74.7031 863.129 71.202C863.129 67.7008 860.923 64.8711 858.201 64.8711C855.48 64.8711 853.273 67.7008 853.273 71.202Z" fill="white"/>
<path d="M879.786 71.6699H857.484V76.2501H879.786V71.6699Z" fill="#008C95"/>
<path d="M889.737 71.6699H850.445V73.3605H889.737V71.6699Z" fill="#008C95"/>
<path d="M862.734 80.05H853.682C853.238 79.6063 852.998 79.3665 852.555 78.9229V73.3594H863.861V78.9229C863.418 79.3665 863.166 79.6063 862.734 80.05Z" fill="#008C95"/>
<path d="M875.086 80.05H865.027C864.571 79.5943 864.307 79.3305 863.852 78.8749V73.3594H876.261V78.8749C875.806 79.3305 875.554 79.5943 875.086 80.05Z" fill="#008C95"/>
<path d="M886.707 80.05H877.319C876.875 79.6063 876.623 79.3545 876.18 78.9109V73.3594H887.846V78.9109C887.403 79.3545 887.151 79.6063 886.707 80.05Z" fill="#008C95"/>
<path d="M957.03 89.8713L957.018 67.7133L954.74 63.4688H939.86L937.606 67.7133L937.594 89.8713C937.594 92.2574 939.524 94.1878 941.91 94.1878H952.725C955.1 94.1878 957.03 92.2574 957.03 89.8713Z" fill="#77E2C3"/>
<path d="M937.594 67.7133H957.018L954.728 63.4688H939.86L937.594 67.7133Z" fill="#008C95"/>
<path d="M954.309 61.9823H940.28C939.441 61.9823 938.77 61.3108 938.77 60.4715V60.1357C938.77 59.3084 939.441 58.625 940.28 58.625H954.309C955.148 58.625 955.82 59.2964 955.82 60.1357V60.4715C955.82 61.2988 955.136 61.9823 954.309 61.9823Z" fill="#008C95"/>
<path d="M947.963 77.6627H954.917V75.3006C954.917 74.6411 955.397 74.1016 955.984 74.1016H962.327C962.915 74.1016 963.394 74.6411 963.394 75.3006V77.6027H963.67C964.761 77.6027 965.648 78.49 965.648 79.5811V97.1229C965.648 98.4898 964.545 99.6049 963.178 99.6049L948.466 99.6528C947.1 99.6528 945.984 98.5497 945.984 97.1708V79.6291C945.973 78.5499 946.86 77.6627 947.963 77.6627ZM961.188 75.7562H957.075V77.6027H961.188V75.7562Z" fill="#77E2C3"/>
<path d="M953.267 73.8633H948.016V76.4532H953.267V73.8633Z" fill="#008C95"/>
<path d="M952.711 94.1852C955.097 94.1852 957.027 92.2548 957.027 89.8688L957.015 74.1016H955.972C955.385 74.1016 954.917 74.6411 954.917 75.3006V77.6627H947.963C946.872 77.6627 945.984 78.5499 945.984 79.6411V94.1732H952.711V94.1852Z" fill="#008C95"/>
<path d="M716.672 78.6126H696.3L693.555 65.9629H719.418L716.672 78.6126Z" fill="#77E2C3"/>
<path d="M721.566 63.9238H691.242V68.0005H721.566V63.9238Z" fill="#008C95"/>
<path d="M719.117 94.3671H695.101L691.863 79.4512H722.367L719.117 94.3671Z" fill="#77E2C3"/>
<path d="M724.9 77.4141H689.133V81.4908H724.9V77.4141Z" fill="#008C95"/>
<path d="M940.145 150.362H963.082L960.336 144.223H942.878L940.145 150.362Z" fill="#77E2C3"/>
<path d="M963.143 152.926H940.086C940.086 152.926 940.062 169.508 940.074 169.832H963.155L963.143 152.926Z" fill="#77E2C3"/>
<path d="M943.622 180.515H959.605C961.272 180.515 962.674 178.933 962.806 176.87L963.106 172.422H940.133C940.133 172.458 940.277 174.724 940.409 176.858C940.552 178.921 941.943 180.515 943.622 180.515Z" fill="#77E2C3"/>
<path d="M960.332 144.222H942.874C941.939 144.222 941.172 143.454 941.172 142.519C941.172 141.572 941.939 140.816 942.874 140.816H960.332C961.268 140.816 962.035 141.584 962.035 142.519C962.035 143.454 961.268 144.222 960.332 144.222Z" fill="#008C95"/>
<path d="M1114.69 91.8613H1113.31V93.2402H1116.05V91.8613H1114.69Z" fill="white"/>
<path d="M1130.44 96.5489H1126.76V93.6593H1102.61V96.5489H1098.93V89.9902H1130.44V96.5489Z" fill="#008C95"/>
<path d="M1116.52 91.8262H1112.84V96.5503H1116.52V91.8262Z" fill="#008C95"/>
<path d="M1113.31 64.4863H1101.68V76.1169H1113.31V64.4863Z" fill="#77E2C3"/>
<path d="M1127.69 64.4863H1116.05V76.1169H1127.69V64.4863Z" fill="#008C95"/>
<path d="M1113.31 78.8633H1101.68V89.9902H1113.31V78.8633Z" fill="#008C95"/>
<path d="M1127.69 78.8633H1116.05V89.9902H1127.69V78.8633Z" fill="#77E2C3"/>
<path d="M1130.01 166.645L1133.72 168.815L1114.69 179.954L1095.65 168.815L1099.31 166.681V167.808L1114.69 176.764L1130.01 167.808V166.645Z" fill="#008C95"/>
<path d="M1123.68 162.377V154.955L1130.01 151.25V158.684L1123.68 162.377Z" fill="#008C95"/>
<path d="M1121.89 163.418L1115.56 167.111V159.689L1121.89 155.984V163.418Z" fill="#008C95"/>
<path d="M1123.68 164.439L1130.01 160.746V167.808L1123.68 171.513V164.439Z" fill="#008C95"/>
<path d="M1121.89 165.48V172.555L1115.56 176.248V169.173L1121.89 165.48Z" fill="#008C95"/>
<path d="M1123.68 162.377V154.955L1130.01 151.25V158.684L1123.68 162.377Z" fill="#77E2C3"/>
<path d="M1121.89 163.418L1115.56 167.111V159.689L1121.89 155.984V163.418Z" fill="#77E2C3"/>
<path d="M1123.68 164.439L1130.01 160.746V167.808L1123.68 171.513V164.439Z" fill="#77E2C3"/>
<path d="M1121.89 165.48V172.555L1115.56 176.248V169.173L1121.89 165.48Z" fill="#77E2C3"/>
<path d="M1105.64 162.377V154.955L1099.3 151.25V158.684L1105.64 162.377Z" fill="#008C95"/>
<path d="M1107.42 163.418L1113.75 167.111V159.689L1107.42 155.984V163.418Z" fill="#008C95"/>
<path d="M1107.42 165.48V172.555L1113.75 176.248V169.173L1107.42 165.48Z" fill="#008C95"/>
<path d="M1112.86 149.656L1106.62 153.241L1100.25 149.572L1106.5 145.975L1112.86 149.656Z" fill="#77E2C3"/>
<path d="M1114.63 148.635L1108.25 144.966L1114.5 141.369L1120.86 145.05L1114.63 148.635Z" fill="#77E2C3"/>
<path d="M1116.38 149.656L1122.62 146.059L1128.99 149.74L1122.74 153.325L1116.38 149.656Z" fill="#77E2C3"/>
<path d="M1114.62 150.662L1121 154.343L1114.75 157.928L1108.38 154.259L1114.62 150.662Z" fill="#77E2C3"/>
<path d="M1105.64 164.439L1099.3 160.746V167.808L1105.64 171.513V164.439Z" fill="#008C95"/>
<path d="M1128.05 323.98L1133.72 327.302L1114.69 338.441L1095.65 327.302L1101.33 323.98V327.038L1114.69 334.772L1128.05 327.038V323.98Z" fill="#77E2C3"/>
<path d="M1095.65 327.301V328.728V330.226V332.684L1099.46 334.915V332.457L1103.26 334.687V337.145L1107.08 339.375V336.917L1110.88 339.135V341.593L1114.69 343.823V341.365V339.855V338.44L1095.65 327.301Z" fill="#008C95"/>
<path d="M1133.72 327.301V328.728V330.226V332.684L1129.92 334.915V332.457L1126.1 334.687V337.145L1122.3 339.375V336.917L1118.49 339.135V341.593L1114.69 343.823V341.365V339.855V338.44L1133.72 327.301Z" fill="#008C95"/>
<path d="M1127.14 311.044L1114.69 303.838L1102.26 311.044L1114.69 318.238L1127.14 311.044Z" fill="#77E2C3"/>
<path d="M1114.69 320.372V334.772L1128.04 327.039V312.65L1114.69 320.372Z" fill="#008C95"/>
<path d="M1101.33 312.639V327.039L1114.69 334.773V320.372L1101.33 312.639Z" fill="#008C95"/>
<path d="M1393.5 14.3872V16.4702H1385.63V14.3872H1393.5ZM1380.95 18.896H1383.48C1383.62 19.8013 1383.86 20.5747 1384.18 21.2163C1384.52 21.8579 1385 22.3501 1385.64 22.6929C1386.29 23.0269 1387.15 23.1938 1388.23 23.1938C1389.08 23.1938 1389.82 23.0181 1390.44 22.6665C1391.07 22.3062 1391.58 21.814 1391.99 21.1899C1392.39 20.5659 1392.69 19.8408 1392.88 19.0146C1393.08 18.1885 1393.19 17.3052 1393.19 16.3647V14.4399C1393.19 13.6226 1393.12 12.8667 1392.97 12.1724C1392.83 11.4692 1392.62 10.8408 1392.34 10.2871C1392.06 9.72461 1391.71 9.24561 1391.29 8.8501C1390.87 8.45459 1390.39 8.15137 1389.84 7.94043C1389.29 7.72949 1388.68 7.62402 1388 7.62402C1387.02 7.62402 1386.22 7.7998 1385.59 8.15137C1384.98 8.50293 1384.5 9.00391 1384.17 9.6543C1383.84 10.2959 1383.61 11.0649 1383.48 11.9614H1380.95C1381.08 10.6958 1381.43 9.58398 1381.99 8.62598C1382.56 7.65918 1383.33 6.90332 1384.33 6.3584C1385.33 5.81348 1386.55 5.54102 1388 5.54102C1389.19 5.54102 1390.26 5.75195 1391.21 6.17383C1392.16 6.5957 1392.97 7.19775 1393.63 7.97998C1394.31 8.76221 1394.82 9.70264 1395.18 10.8013C1395.54 11.8999 1395.72 13.1216 1395.72 14.4663V16.3647C1395.72 17.7095 1395.54 18.9312 1395.18 20.0298C1394.82 21.1196 1394.32 22.0557 1393.66 22.8379C1393 23.6113 1392.21 24.209 1391.29 24.6309C1390.37 25.0527 1389.35 25.2637 1388.23 25.2637C1386.69 25.2637 1385.41 24.9868 1384.38 24.4331C1383.35 23.8706 1382.56 23.1104 1381.99 22.1523C1381.44 21.1943 1381.09 20.1089 1380.95 18.896ZM1406.29 16.022H1401.43L1401.4 13.9785H1405.82C1406.54 13.9785 1407.18 13.8555 1407.73 13.6094C1408.27 13.3633 1408.69 13.0117 1408.99 12.5547C1409.3 12.0889 1409.45 11.5352 1409.45 10.8936C1409.45 10.1904 1409.32 9.61914 1409.05 9.17969C1408.78 8.73145 1408.37 8.40625 1407.82 8.2041C1407.27 7.99316 1406.58 7.8877 1405.74 7.8877H1401.99V25H1399.45V5.80469H1405.74C1406.72 5.80469 1407.6 5.90576 1408.37 6.10791C1409.15 6.30127 1409.8 6.60889 1410.34 7.03076C1410.88 7.44385 1411.3 7.97119 1411.58 8.61279C1411.86 9.25439 1412 10.0234 1412 10.9199C1412 11.7109 1411.8 12.4272 1411.39 13.0688C1410.99 13.7017 1410.43 14.2202 1409.7 14.6245C1408.99 15.0288 1408.16 15.2881 1407.2 15.4023L1406.29 16.022ZM1406.17 25H1400.42L1401.86 22.9302H1406.17C1406.98 22.9302 1407.67 22.7896 1408.23 22.5083C1408.8 22.2271 1409.23 21.8315 1409.53 21.3218C1409.83 20.8032 1409.98 20.1924 1409.98 19.4893C1409.98 18.7773 1409.85 18.1621 1409.6 17.6436C1409.34 17.125 1408.94 16.7251 1408.4 16.4438C1407.85 16.1626 1407.15 16.022 1406.29 16.022H1402.66L1402.69 13.9785H1407.65L1408.19 14.7168C1409.11 14.7959 1409.89 15.0596 1410.54 15.5078C1411.18 15.9473 1411.66 16.5098 1412 17.1953C1412.34 17.8809 1412.51 18.6367 1412.51 19.4629C1412.51 20.6582 1412.25 21.6689 1411.72 22.4951C1411.2 23.3125 1410.47 23.9365 1409.52 24.3672C1408.57 24.7891 1407.45 25 1406.17 25ZM1423.38 7.50537L1417.02 25H1414.42L1421.74 5.80469H1423.42L1423.38 7.50537ZM1428.7 25L1422.33 7.50537L1422.29 5.80469H1423.97L1431.31 25H1428.7ZM1428.37 17.894V19.9771H1417.59V17.894H1428.37ZM1435.73 22.0996V24.064C1435.73 24.8638 1435.53 25.7075 1435.12 26.5952C1434.72 27.4917 1434.15 28.2388 1433.42 28.8364L1432.04 27.874C1432.32 27.4873 1432.56 27.0918 1432.75 26.6875C1432.94 26.292 1433.09 25.8789 1433.18 25.4482C1433.29 25.0264 1433.34 24.5781 1433.34 24.1035V22.0996H1435.73ZM1457.5 18.896H1460.03C1459.89 20.1089 1459.55 21.1943 1458.98 22.1523C1458.42 23.1104 1457.63 23.8706 1456.6 24.4331C1455.57 24.9868 1454.29 25.2637 1452.75 25.2637C1451.62 25.2637 1450.6 25.0527 1449.68 24.6309C1448.76 24.209 1447.98 23.6113 1447.32 22.8379C1446.66 22.0557 1446.15 21.1196 1445.79 20.0298C1445.44 18.9312 1445.26 17.7095 1445.26 16.3647V14.4531C1445.26 13.1084 1445.44 11.8911 1445.79 10.8013C1446.15 9.70264 1446.66 8.76221 1447.33 7.97998C1448.01 7.19775 1448.82 6.5957 1449.77 6.17383C1450.72 5.75195 1451.79 5.54102 1452.97 5.54102C1454.42 5.54102 1455.65 5.81348 1456.65 6.3584C1457.65 6.90332 1458.43 7.65918 1458.98 8.62598C1459.55 9.58398 1459.89 10.6958 1460.03 11.9614H1457.5C1457.37 11.0649 1457.14 10.2959 1456.81 9.6543C1456.48 9.00391 1456 8.50293 1455.39 8.15137C1454.77 7.7998 1453.97 7.62402 1452.97 7.62402C1452.12 7.62402 1451.37 7.78662 1450.72 8.11182C1450.08 8.43701 1449.54 8.89844 1449.1 9.49609C1448.67 10.0937 1448.34 10.8101 1448.12 11.645C1447.9 12.48 1447.79 13.4072 1447.79 14.4268V16.3647C1447.79 17.3052 1447.89 18.1885 1448.08 19.0146C1448.28 19.8408 1448.59 20.5659 1448.99 21.1899C1449.4 21.814 1449.91 22.3062 1450.53 22.6665C1451.16 23.0181 1451.9 23.1938 1452.75 23.1938C1453.83 23.1938 1454.69 23.0225 1455.33 22.6797C1455.97 22.3369 1456.46 21.8447 1456.78 21.2031C1457.12 20.5615 1457.35 19.7925 1457.5 18.896ZM1475.2 5.80469V7.8877H1465.95V25H1463.41V5.80469H1475.2ZM1465.35 13.6226H1470.59C1471.99 13.6226 1473.18 13.8599 1474.15 14.3345C1475.11 14.8003 1475.85 15.4551 1476.35 16.2988C1476.85 17.1426 1477.1 18.1313 1477.1 19.2651C1477.1 20.1089 1476.96 20.8823 1476.68 21.5854C1476.4 22.2798 1475.98 22.8862 1475.42 23.4048C1474.87 23.9146 1474.19 24.3101 1473.38 24.5913C1472.57 24.8638 1471.64 25 1470.59 25H1463.41V5.80469H1465.96V22.9302H1470.59C1471.53 22.9302 1472.29 22.7588 1472.87 22.416C1473.46 22.0645 1473.89 21.6074 1474.16 21.0449C1474.43 20.4824 1474.57 19.8804 1474.57 19.2388C1474.57 18.5972 1474.43 18.0083 1474.16 17.4722C1473.89 16.936 1473.46 16.5098 1472.87 16.1934C1472.29 15.8682 1471.53 15.7056 1470.59 15.7056H1465.35V13.6226ZM1492.12 18.896H1494.65C1494.51 20.1089 1494.17 21.1943 1493.6 22.1523C1493.04 23.1104 1492.25 23.8706 1491.22 24.4331C1490.19 24.9868 1488.91 25.2637 1487.37 25.2637C1486.24 25.2637 1485.22 25.0527 1484.3 24.6309C1483.38 24.209 1482.6 23.6113 1481.94 22.8379C1481.28 22.0557 1480.77 21.1196 1480.41 20.0298C1480.06 18.9312 1479.88 17.7095 1479.88 16.3647V14.4531C1479.88 13.1084 1480.06 11.8911 1480.41 10.8013C1480.77 9.70264 1481.28 8.76221 1481.95 7.97998C1482.63 7.19775 1483.44 6.5957 1484.39 6.17383C1485.34 5.75195 1486.41 5.54102 1487.59 5.54102C1489.04 5.54102 1490.27 5.81348 1491.27 6.3584C1492.27 6.90332 1493.05 7.65918 1493.6 8.62598C1494.17 9.58398 1494.51 10.6958 1494.65 11.9614H1492.12C1491.99 11.0649 1491.76 10.2959 1491.43 9.6543C1491.1 9.00391 1490.62 8.50293 1490.01 8.15137C1489.39 7.7998 1488.59 7.62402 1487.59 7.62402C1486.74 7.62402 1485.99 7.78662 1485.34 8.11182C1484.7 8.43701 1484.16 8.89844 1483.72 9.49609C1483.29 10.0937 1482.96 10.8101 1482.74 11.645C1482.52 12.48 1482.41 13.4072 1482.41 14.4268V16.3647C1482.41 17.3052 1482.51 18.1885 1482.7 19.0146C1482.9 19.8408 1483.21 20.5659 1483.61 21.1899C1484.02 21.814 1484.53 22.3062 1485.15 22.6665C1485.78 23.0181 1486.52 23.1938 1487.37 23.1938C1488.45 23.1938 1489.31 23.0225 1489.95 22.6797C1490.59 22.3369 1491.08 21.8447 1491.4 21.2031C1491.74 20.5615 1491.97 19.7925 1492.12 18.896ZM1499.96 22.0996V24.064C1499.96 24.8638 1499.76 25.7075 1499.35 26.5952C1498.95 27.4917 1498.38 28.2388 1497.65 28.8364L1496.27 27.874C1496.55 27.4873 1496.79 27.0918 1496.98 26.6875C1497.17 26.292 1497.32 25.8789 1497.42 25.4482C1497.52 25.0264 1497.57 24.5781 1497.57 24.1035V22.0996H1499.96ZM1524.8 5.80469V25H1522.27V7.8877H1512.8V25H1510.26V5.80469H1524.8ZM1536.25 16.022H1531.39L1531.36 13.9785H1535.78C1536.51 13.9785 1537.15 13.8555 1537.69 13.6094C1538.24 13.3633 1538.66 13.0117 1538.96 12.5547C1539.26 12.0889 1539.42 11.5352 1539.42 10.8936C1539.42 10.1904 1539.28 9.61914 1539.01 9.17969C1538.75 8.73145 1538.34 8.40625 1537.78 8.2041C1537.24 7.99316 1536.54 7.8877 1535.7 7.8877H1531.96V25H1529.41V5.80469H1535.7C1536.68 5.80469 1537.56 5.90576 1538.34 6.10791C1539.11 6.30127 1539.77 6.60889 1540.3 7.03076C1540.85 7.44385 1541.26 7.97119 1541.54 8.61279C1541.82 9.25439 1541.96 10.0234 1541.96 10.9199C1541.96 11.7109 1541.76 12.4272 1541.36 13.0688C1540.95 13.7017 1540.39 14.2202 1539.67 14.6245C1538.96 15.0288 1538.12 15.2881 1537.16 15.4023L1536.25 16.022ZM1536.14 25H1530.39L1531.82 22.9302H1536.14C1536.94 22.9302 1537.63 22.7896 1538.19 22.5083C1538.76 22.2271 1539.2 21.8315 1539.5 21.3218C1539.8 20.8032 1539.95 20.1924 1539.95 19.4893C1539.95 18.7773 1539.82 18.1621 1539.56 17.6436C1539.31 17.125 1538.91 16.7251 1538.36 16.4438C1537.82 16.1626 1537.12 16.022 1536.25 16.022H1532.63L1532.65 13.9785H1537.61L1538.15 14.7168C1539.08 14.7959 1539.86 15.0596 1540.5 15.5078C1541.14 15.9473 1541.63 16.5098 1541.96 17.1953C1542.31 17.8809 1542.48 18.6367 1542.48 19.4629C1542.48 20.6582 1542.21 21.6689 1541.69 22.4951C1541.17 23.3125 1540.43 23.9365 1539.48 24.3672C1538.53 24.7891 1537.42 25 1536.14 25ZM1547.88 5.80469L1552.5 13.1611L1557.11 5.80469H1560.08L1554.01 15.3101L1560.22 25H1557.23L1552.5 17.4985L1547.76 25H1544.77L1550.98 15.3101L1544.92 5.80469H1547.88Z" fill="#008C95"/>
<path d="M1410.9 59.4062H1382V92.1877H1410.9V59.4062Z" fill="#77E2C3"/>
<path d="M1389.55 71.8516H1386.2C1385.29 71.8516 1384.55 71.1202 1384.55 70.2089V66.8516C1384.55 65.9404 1385.29 65.209 1386.2 65.209H1389.55C1390.47 65.209 1391.2 65.9524 1391.2 66.8516V70.2089C1391.2 71.1202 1390.47 71.8516 1389.55 71.8516Z" fill="white"/>
<path d="M1398.08 71.8516H1394.72C1393.81 71.8516 1393.08 71.1202 1393.08 70.2089V66.8516C1393.08 65.9404 1393.81 65.209 1394.72 65.209H1398.08C1398.99 65.209 1399.72 65.9524 1399.72 66.8516V70.2089C1399.72 71.1202 1398.99 71.8516 1398.08 71.8516Z" fill="white"/>
<path d="M1406.6 71.8516H1403.24C1402.33 71.8516 1401.6 71.1202 1401.6 70.2089V66.8516C1401.6 65.9404 1402.33 65.209 1403.24 65.209H1406.6C1407.51 65.209 1408.24 65.9524 1408.24 66.8516V70.2089C1408.26 71.1202 1407.51 71.8516 1406.6 71.8516Z" fill="white"/>
<path d="M1389.55 80.2579H1386.2C1385.29 80.2579 1384.55 79.5265 1384.55 78.6152V75.2579C1384.55 74.3466 1385.29 73.6152 1386.2 73.6152H1389.55C1390.47 73.6152 1391.2 74.3466 1391.2 75.2579V78.6152C1391.2 79.5145 1390.47 80.2579 1389.55 80.2579Z" fill="white"/>
<path d="M1398.08 80.2579H1394.72C1393.81 80.2579 1393.08 79.5265 1393.08 78.6152V75.2579C1393.08 74.3466 1393.81 73.6152 1394.72 73.6152H1398.08C1398.99 73.6152 1399.72 74.3466 1399.72 75.2579V78.6152C1399.72 79.5145 1398.99 80.2579 1398.08 80.2579Z" fill="white"/>
<path d="M1406.6 80.2579H1403.24C1402.33 80.2579 1401.6 79.5265 1401.6 78.6152V75.2579C1401.6 74.3466 1402.33 73.6152 1403.24 73.6152H1406.6C1407.51 73.6152 1408.24 74.3466 1408.24 75.2579V78.6152C1408.26 79.5145 1407.51 80.2579 1406.6 80.2579Z" fill="white"/>
<path d="M1389.55 88.6622H1386.2C1385.29 88.6622 1384.55 87.9308 1384.55 87.0195V83.6622C1384.55 82.7509 1385.29 82.0195 1386.2 82.0195H1389.55C1390.47 82.0195 1391.2 82.7509 1391.2 83.6622V87.0195C1391.2 87.9188 1390.47 88.6622 1389.55 88.6622Z" fill="white"/>
<path d="M1398.08 88.6622H1394.72C1393.81 88.6622 1393.08 87.9308 1393.08 87.0195V83.6622C1393.08 82.7509 1393.81 82.0195 1394.72 82.0195H1398.08C1398.99 82.0195 1399.72 82.7509 1399.72 83.6622V87.0195C1399.72 87.9188 1398.99 88.6622 1398.08 88.6622Z" fill="white"/>
<path d="M1388.81 71.2773H1386.93V74.4907H1388.81V71.2773Z" fill="white"/>
<path d="M1393.8 67.584H1390.59V69.4665H1393.8V67.584Z" fill="white"/>
<path d="M1393.59 75.832H1390.38V77.7145H1393.59V75.832Z" fill="white"/>
<path d="M1393.59 84.4062H1390.38V86.2887H1393.59V84.4062Z" fill="white"/>
<path d="M1402.47 67.584H1399.25V69.4665H1402.47V67.584Z" fill="white"/>
<path d="M1402.26 75.832H1399.05V77.7145H1402.26V75.832Z" fill="white"/>
<path d="M1397.35 71.2773H1395.46V74.4907H1397.35V71.2773Z" fill="white"/>
<path d="M1392.88 59.4062V61.5406C1392.88 62.4158 1393.58 63.1232 1394.46 63.1232H1395.55V70.4493H1397.24V63.1232H1398.23C1399.11 63.1232 1399.82 62.4158 1399.82 61.5406V59.4062H1392.88Z" fill="white"/>
<path d="M1405.87 71.2773H1403.99V74.4907H1405.87V71.2773Z" fill="white"/>
<path d="M1388.81 79.5742H1386.93V82.7876H1388.81V79.5742Z" fill="white"/>
<path d="M1397.35 79.5742H1395.46V82.7876H1397.35V79.5742Z" fill="white"/>
<path d="M1418.35 92.5597L1416.03 94.0944L1412.69 92.188L1416.03 90.2695L1418.35 91.8043L1419.34 90.3175L1417.76 89.2504L1419.12 88.471L1418.22 86.9003L1416.85 87.7036L1416.75 85.8092L1414.95 85.9051L1415.11 88.6988L1411.81 90.6292V86.7924L1414.3 85.5454L1413.48 83.9147L1411.81 84.766V83.1953H1410.01V84.766L1408.29 83.9147L1407.49 85.5454L1410.01 86.7924V90.6292L1406.67 88.6988L1406.84 85.9051L1405.04 85.8092L1404.92 87.7036L1403.57 86.9003L1402.66 88.471L1404.02 89.2504L1402.45 90.3175L1403.44 91.8043L1405.76 90.2695L1409.1 92.188L1405.76 94.0944L1403.44 92.5597L1402.45 94.0585L1404.02 95.1256L1402.66 95.893L1403.57 97.4637L1404.92 96.6724L1405.04 98.5668L1406.84 98.4709L1406.67 95.6651L1410.01 93.7347V97.5836L1407.49 98.8306L1408.29 100.461L1410.01 99.61V101.181H1411.81V99.61L1413.48 100.461L1414.3 98.8306L1411.81 97.5836V93.7347L1415.11 95.6651L1414.95 98.4709L1416.75 98.5668L1416.85 96.6724L1418.22 97.4637L1419.12 95.893L1417.76 95.1256L1419.34 94.0585L1418.35 92.5597Z" fill="#77E2C3"/>
<path d="M1410.01 83.1953V84.766L1408.29 83.9147L1407.49 85.5454L1410.01 86.7924V90.6292L1406.67 88.6988L1406.84 85.9051L1405.04 85.8092L1404.92 87.7036L1403.57 86.9003L1402.66 88.471L1404.02 89.2504L1402.45 90.3175L1403.44 91.8043L1405.76 90.2695L1409.1 92.188H1410.89V83.1953H1410.01Z" fill="#008C95"/>
<path d="M1645.61 97.2346H1634.71C1633.87 96.4072 1633.42 95.9396 1632.58 95.1003V71.4435L1642.42 63.2422C1645.36 63.2422 1647.75 66.2158 1647.75 69.1534V95.1003C1646.91 95.9396 1646.44 96.4072 1645.61 97.2346Z" fill="#77E2C3"/>
<path d="M1634.95 57.0667L1631.72 59.7441L1634.46 63.0494L1637.69 60.372L1634.95 57.0667Z" fill="#77E2C3"/>
<path d="M1657.14 81.3964C1653.63 81.3964 1650.77 78.5307 1650.77 75.0176H1652.65C1652.65 77.4996 1654.66 79.5139 1657.14 79.5139V81.3964Z" fill="#008C95"/>
<path d="M1641.89 77.7266V82.5107L1642.03 99.8845C1642.74 100.592 1643.14 100.988 1643.85 101.683H1658.16L1659.97 99.8725V92.3666L1647.73 82.5107V77.7266H1641.89Z" fill="#77E2C3"/>
<path d="M1651.35 77.74H1640.74V75.282C1642 74.023 1642.71 73.3156 1643.97 72.0566H1656.58V75.7137H1653.38C1652.25 75.7137 1651.35 76.6249 1651.35 77.74Z" fill="#77E2C3"/>
<path d="M1657.25 72.0566H1653.59V75.7137H1657.25V72.0566Z" fill="#008C95"/>
<path d="M1647.72 82.5122V77.74H1647.74V72.0566H1643.96C1642.7 73.3156 1641.99 74.023 1640.73 75.282V77.74H1641.9V82.5122L1642.02 97.2482H1645.61C1646.44 96.4209 1646.91 95.9533 1647.75 95.114V82.5242L1647.72 82.5122Z" fill="#008C95"/>
<path d="M1647.72 77.7266H1641.89V82.5107H1647.72V77.7266Z" fill="#008C95"/>
<path d="M1637.99 58.475L1632.5 63.0273L1635.24 66.3326L1640.73 61.7802L1637.99 58.475Z" fill="#008C95"/>
<path d="M1493.71 98.232L1496.09 96.2656H1491.34L1493.71 98.232Z" fill="#77E2C3"/>
<path d="M1488.96 98.232L1491.34 96.2656H1486.58L1488.96 98.232Z" fill="#77E2C3"/>
<path d="M1484.2 98.232L1486.58 96.2656H1481.83L1484.2 98.232Z" fill="#77E2C3"/>
<path d="M1479.46 98.232L1481.83 96.2656H1477.07L1479.46 98.232Z" fill="#77E2C3"/>
<path d="M1496.09 96.2649V71.457L1485.39 80.3658L1477.07 75.4618V96.2649H1496.09Z" fill="#77E2C3"/>
<path d="M1485.39 60.582H1477.8C1471.89 60.582 1467.09 65.4501 1467.09 71.4572C1467.09 77.4643 1471.89 82.3324 1477.8 82.3324H1485.39L1476.79 71.4572L1485.39 60.582Z" fill="#008C95"/>
<path d="M1485.39 60.582C1485.38 60.582 1485.38 60.582 1485.39 60.582V65.6659C1488.55 65.6659 1491.09 68.2558 1491.09 71.4572C1491.09 74.6586 1488.53 77.2485 1485.39 77.2485V82.3324C1491.3 82.3324 1496.1 77.4643 1496.1 71.4572C1496.09 65.4501 1491.3 60.582 1485.39 60.582Z" fill="#77E2C3"/>
<path d="M1485.39 60.582V65.6659C1482.24 65.6659 1479.7 68.2558 1479.7 71.4572C1479.7 74.6586 1482.25 77.2485 1485.39 77.2485V82.3324C1479.48 82.3324 1474.69 77.4643 1474.69 71.4572C1474.69 65.4501 1479.48 60.582 1485.39 60.582Z" fill="#77E2C3"/>
<path d="M1463.38 173.064L1465.35 175.438V170.689L1463.38 173.064Z" fill="#77E2C3"/>
<path d="M1463.38 168.314L1465.35 170.688V165.939L1463.38 168.314Z" fill="#77E2C3"/>
<path d="M1463.38 163.556L1465.35 165.93V161.182L1463.38 163.556Z" fill="#77E2C3"/>
<path d="M1463.38 158.806L1465.35 161.18V156.432L1463.38 158.806Z" fill="#77E2C3"/>
<path d="M1465.34 175.436H1490.15L1481.24 164.741L1486.13 156.432H1465.34V175.436Z" fill="#77E2C3"/>
<path d="M1501.02 164.74V157.151C1501.02 151.239 1496.16 146.443 1490.15 146.443C1484.14 146.443 1479.27 151.239 1479.27 157.151V164.74L1490.15 156.143L1501.02 164.74Z" fill="#008C95"/>
<path d="M1501.02 164.74H1495.94C1495.94 167.894 1493.35 170.436 1490.15 170.436C1486.95 170.436 1484.36 167.882 1484.36 164.74H1479.27C1479.27 170.651 1484.14 175.448 1490.15 175.448C1496.16 175.448 1501.02 170.651 1501.02 164.74Z" fill="#77E2C3"/>
<path d="M1501.02 164.74H1495.94C1495.94 161.587 1493.35 159.045 1490.15 159.045C1486.95 159.045 1484.36 161.599 1484.36 164.74H1479.27C1479.27 158.829 1484.14 154.033 1490.15 154.033C1496.16 154.033 1501.02 158.829 1501.02 164.74Z" fill="#77E2C3"/>
<path d="M1579.25 70.4863H1558.7V96.3253H1579.25V70.4863Z" fill="#77E2C3"/>
<path d="M1563.45 77.9439C1562.11 77.9439 1561.03 76.8408 1561.03 75.4739C1561.03 74.107 1562.12 73.0039 1563.45 73.0039C1564.78 73.0039 1565.88 74.107 1565.88 75.4739C1565.88 76.8408 1564.78 77.9439 1563.45 77.9439Z" fill="white"/>
<path d="M1574.31 77.9439C1572.97 77.9439 1571.89 76.8408 1571.89 75.4739C1571.89 74.107 1572.98 73.0039 1574.31 73.0039C1575.66 73.0039 1576.73 74.107 1576.73 75.4739C1576.73 76.8408 1575.64 77.9439 1574.31 77.9439Z" fill="white"/>
<path d="M1563.45 85.5826C1562.11 85.5826 1561.03 84.4795 1561.03 83.1126C1561.03 81.7457 1562.12 80.6426 1563.45 80.6426C1564.78 80.6426 1565.88 81.7457 1565.88 83.1126C1565.88 84.4795 1564.78 85.5826 1563.45 85.5826Z" fill="white"/>
<path d="M1574.31 85.5826C1572.97 85.5826 1571.89 84.4795 1571.89 83.1126C1571.89 81.7457 1572.98 80.6426 1574.31 80.6426C1575.66 80.6426 1576.73 81.7457 1576.73 83.1126C1576.73 84.4795 1575.64 85.5826 1574.31 85.5826Z" fill="white"/>
<path d="M1574.31 93.6626C1572.97 93.6626 1571.89 92.5595 1571.89 91.1926C1571.89 89.8258 1572.98 88.7227 1574.31 88.7227C1575.66 88.7227 1576.73 89.8258 1576.73 91.1926C1576.73 92.5595 1575.64 93.6626 1574.31 93.6626Z" fill="white"/>
<path d="M1569.19 93.2198C1568.77 93.2198 1568.42 92.884 1568.42 92.4524V73.7595C1568.42 73.3398 1568.76 72.9922 1569.19 72.9922C1569.62 72.9922 1569.96 73.3279 1569.96 73.7595V92.4524C1569.94 92.884 1569.61 93.2198 1569.19 93.2198Z" fill="white"/>
<path d="M1568.42 62.4766H1546.98V88.7712H1568.42V62.4766Z" fill="#77E2C3"/>
<path d="M1552.48 70.3775C1551.14 70.3775 1550.06 69.2744 1550.06 67.9075C1550.06 66.5406 1551.15 65.4375 1552.48 65.4375C1553.83 65.4375 1554.91 66.5406 1554.91 67.9075C1554.91 69.2624 1553.83 70.3775 1552.48 70.3775Z" fill="white"/>
<path d="M1563.36 70.3775C1562.02 70.3775 1560.94 69.2744 1560.94 67.9075C1560.94 66.5406 1562.03 65.4375 1563.36 65.4375C1564.69 65.4375 1565.78 66.5406 1565.78 67.9075C1565.79 69.2624 1564.7 70.3775 1563.36 70.3775Z" fill="white"/>
<path d="M1552.48 78.0162C1551.14 78.0162 1550.06 76.9131 1550.06 75.5462C1550.06 74.1793 1551.15 73.0762 1552.48 73.0762C1553.83 73.0762 1554.91 74.1793 1554.91 75.5462C1554.91 76.9131 1553.83 78.0162 1552.48 78.0162Z" fill="white"/>
<path d="M1563.36 78.0162C1562.02 78.0162 1560.94 76.9131 1560.94 75.5462C1560.94 74.1793 1562.03 73.0762 1563.36 73.0762C1564.69 73.0762 1565.78 74.1793 1565.78 75.5462C1565.79 76.9131 1564.7 78.0162 1563.36 78.0162Z" fill="white"/>
<path d="M1552.48 85.6529C1551.14 85.6529 1550.06 84.5498 1550.06 83.1829C1550.06 81.816 1551.15 80.7129 1552.48 80.7129C1553.83 80.7129 1554.91 81.816 1554.91 83.1829C1554.91 84.5498 1553.83 85.6529 1552.48 85.6529Z" fill="white"/>
<path d="M1563.36 85.6529C1562.02 85.6529 1560.94 84.5498 1560.94 83.1829C1560.94 81.816 1562.03 80.7129 1563.36 80.7129C1564.69 80.7129 1565.78 81.816 1565.78 83.1829C1565.78 84.5498 1564.7 85.6529 1563.36 85.6529Z" fill="white"/>
<path d="M1557.94 85.6533C1557.52 85.6533 1557.17 85.3176 1557.17 84.886V66.1931C1557.17 65.7734 1557.51 65.4258 1557.94 65.4258C1558.37 65.4258 1558.71 65.7615 1558.71 66.1931V84.886C1558.69 85.3176 1558.36 85.6533 1557.94 85.6533Z" fill="white"/>
<path d="M1568.43 70.4863H1558.7V88.7595H1568.43V70.4863Z" fill="#008C95"/>
<path d="M1563.45 77.9439C1562.11 77.9439 1561.03 76.8408 1561.03 75.4739C1561.03 74.107 1562.12 73.0039 1563.45 73.0039C1564.78 73.0039 1565.88 74.107 1565.88 75.4739C1565.88 76.8408 1564.78 77.9439 1563.45 77.9439Z" fill="white"/>
<path d="M1563.45 85.5826C1562.11 85.5826 1561.03 84.4795 1561.03 83.1126C1561.03 81.7457 1562.12 80.6426 1563.45 80.6426C1564.78 80.6426 1565.88 81.7457 1565.88 83.1126C1565.88 84.4795 1564.78 85.5826 1563.45 85.5826Z" fill="white"/>
<path d="M1563.45 93.6626C1562.11 93.6626 1561.03 92.5595 1561.03 91.1926C1561.03 89.8258 1562.12 88.7227 1563.45 88.7227C1564.78 88.7227 1565.88 89.8258 1565.88 91.1926C1565.88 92.5595 1564.78 93.6626 1563.45 93.6626Z" fill="white"/>
</svg>
