<svg width="448" height="748" viewBox="0 0 448 748" fill="none" xmlns="http://www.w3.org/2000/svg">
<path d="M17.1328 5.80469V7.8877H7.87793V25H5.34668V5.80469H17.1328ZM19.8091 21.1372L26.3877 10.7354H28.8398V25H26.3877V14.5981L19.8091 25H17.3833V10.7354H19.8091V21.1372ZM41.9048 4.52588H43.9087C43.9087 5.38721 43.7769 6.07275 43.5132 6.58252C43.2495 7.0835 42.8892 7.47021 42.4321 7.74268C41.9839 8.01514 41.4741 8.22168 40.9028 8.3623C40.3403 8.50293 39.7559 8.63916 39.1494 8.771C38.3936 8.9292 37.6904 9.17969 37.04 9.52246C36.3984 9.85645 35.8447 10.3311 35.3789 10.9463C34.9219 11.5615 34.5835 12.3613 34.3638 13.3457C34.1528 14.3301 34.0957 15.5474 34.1924 16.9976V18.2104H32.1885V16.9976C32.1885 15.3716 32.3423 13.9521 32.6499 12.7393C32.9663 11.5264 33.4102 10.5024 33.9814 9.66748C34.5527 8.83252 35.2295 8.16895 36.0117 7.67676C36.8027 7.18457 37.6729 6.84619 38.6221 6.66162C39.3076 6.52979 39.8965 6.38916 40.3887 6.23975C40.8809 6.08154 41.2544 5.87061 41.5093 5.60693C41.7729 5.34326 41.9048 4.98291 41.9048 4.52588ZM39.0176 11.5527C39.9492 11.5527 40.7798 11.7153 41.5093 12.0405C42.2388 12.3657 42.8584 12.8184 43.3682 13.3984C43.8779 13.9785 44.2646 14.6641 44.5283 15.4551C44.8008 16.2373 44.937 17.0898 44.937 18.0127V18.3027C44.937 19.2959 44.792 20.2188 44.502 21.0713C44.2207 21.915 43.8032 22.6533 43.2495 23.2861C42.7046 23.9102 42.0366 24.3979 41.2456 24.7495C40.4634 25.1011 39.5713 25.2769 38.5693 25.2769C37.5674 25.2769 36.6709 25.1011 35.8799 24.7495C35.0977 24.3979 34.4297 23.9102 33.876 23.2861C33.3223 22.6533 32.9004 21.915 32.6104 21.0713C32.3291 20.2188 32.1885 19.2959 32.1885 18.3027V18.0127C32.1885 17.793 32.228 17.5776 32.3071 17.3667C32.3862 17.1558 32.4829 16.9404 32.5972 16.7207C32.7202 16.501 32.8301 16.2681 32.9268 16.022C33.252 15.231 33.6958 14.4971 34.2583 13.8203C34.8296 13.1436 35.5107 12.5986 36.3018 12.1855C37.1016 11.7637 38.0068 11.5527 39.0176 11.5527ZM38.543 13.5435C37.6465 13.5435 36.9082 13.75 36.3281 14.1631C35.7568 14.5762 35.3306 15.1255 35.0493 15.811C34.7681 16.4878 34.6274 17.2217 34.6274 18.0127V18.3027C34.6274 18.9707 34.7065 19.6035 34.8647 20.2012C35.0229 20.7988 35.2603 21.3306 35.5767 21.7964C35.9019 22.2534 36.3105 22.6138 36.8027 22.8774C37.3037 23.1411 37.8926 23.2729 38.5693 23.2729C39.2461 23.2729 39.8306 23.1411 40.3228 22.8774C40.8149 22.6138 41.2192 22.2534 41.5356 21.7964C41.8521 21.3306 42.0894 20.7988 42.2476 20.2012C42.4058 19.6035 42.4849 18.9707 42.4849 18.3027V18.0127C42.4849 17.415 42.4058 16.8481 42.2476 16.312C42.0894 15.7759 41.8477 15.3013 41.5225 14.8882C41.2061 14.4751 40.7974 14.1499 40.2964 13.9126C39.8042 13.6665 39.2197 13.5435 38.543 13.5435ZM50.1182 10.7354V25H47.6792V10.7354H50.1182ZM59.4785 10.7354L52.7153 18.9092H49.3008L48.9316 16.7734H51.7266L56.5122 10.7354H59.4785ZM56.855 25L51.6079 18.54L53.1768 16.7734L59.9531 25H56.855ZM70.4868 22.561V15.2178C70.4868 14.6553 70.3726 14.1675 70.144 13.7544C69.9243 13.3325 69.5903 13.0073 69.1421 12.7788C68.6938 12.5503 68.1401 12.436 67.481 12.436C66.8657 12.436 66.3252 12.5415 65.8594 12.7524C65.4023 12.9634 65.042 13.2402 64.7783 13.583C64.5234 13.9258 64.396 14.2949 64.396 14.6904H61.957C61.957 14.1807 62.0889 13.6753 62.3525 13.1743C62.6162 12.6733 62.9941 12.2207 63.4863 11.8164C63.9873 11.4033 64.585 11.0781 65.2793 10.8408C65.9824 10.5947 66.7646 10.4717 67.626 10.4717C68.6631 10.4717 69.5771 10.6475 70.3682 10.999C71.168 11.3506 71.792 11.8823 72.2402 12.5942C72.6973 13.2974 72.9258 14.1807 72.9258 15.2441V21.8887C72.9258 22.3633 72.9653 22.8687 73.0444 23.4048C73.1323 23.9409 73.2598 24.4023 73.4268 24.7891V25H70.8823C70.7593 24.7188 70.6626 24.3452 70.5923 23.8794C70.522 23.4048 70.4868 22.9653 70.4868 22.561ZM70.9087 16.3516L70.9351 18.0654H68.4697C67.7754 18.0654 67.1558 18.1226 66.6108 18.2368C66.0659 18.3423 65.6089 18.5049 65.2397 18.7246C64.8706 18.9443 64.5894 19.2212 64.396 19.5552C64.2026 19.8804 64.106 20.2627 64.106 20.7021C64.106 21.1504 64.207 21.5591 64.4092 21.9282C64.6113 22.2974 64.9146 22.5918 65.3188 22.8115C65.7319 23.0225 66.2373 23.1279 66.835 23.1279C67.582 23.1279 68.2412 22.9697 68.8125 22.6533C69.3838 22.3369 69.8364 21.9502 70.1704 21.4932C70.5132 21.0361 70.6978 20.5923 70.7241 20.1616L71.7656 21.335C71.7041 21.7041 71.5371 22.1128 71.2646 22.561C70.9922 23.0093 70.6274 23.4399 70.1704 23.853C69.7222 24.2573 69.186 24.5957 68.562 24.8682C67.9468 25.1318 67.2524 25.2637 66.479 25.2637C65.5122 25.2637 64.6641 25.0747 63.9346 24.6968C63.2139 24.3188 62.6514 23.8135 62.2471 23.1807C61.8516 22.5391 61.6538 21.8228 61.6538 21.0317C61.6538 20.2671 61.8032 19.5947 62.1021 19.0146C62.4009 18.4258 62.8315 17.938 63.394 17.5513C63.9565 17.1558 64.6333 16.8569 65.4243 16.6548C66.2153 16.4526 67.0986 16.3516 68.0742 16.3516H70.9087ZM79.6494 18.1973H82.2861L78.1597 25H75.5229L79.6494 18.1973ZM81.6929 10.7354H87.6519V25H85.2129V12.7129H81.6929C80.9985 12.7129 80.4316 12.8315 79.9922 13.0688C79.5527 13.2974 79.2319 13.5962 79.0298 13.9653C78.8276 14.3345 78.7266 14.7168 78.7266 15.1123C78.7266 15.499 78.8188 15.8726 79.0034 16.2329C79.188 16.5845 79.478 16.8745 79.8735 17.103C80.269 17.3315 80.7788 17.4458 81.4028 17.4458H85.8721V19.4497H81.4028C80.5854 19.4497 79.8604 19.3398 79.2275 19.1201C78.5947 18.9004 78.0586 18.5972 77.6191 18.2104C77.1797 17.8149 76.8457 17.3535 76.6172 16.8262C76.3887 16.29 76.2744 15.71 76.2744 15.0859C76.2744 14.4619 76.3931 13.8862 76.6304 13.3589C76.8765 12.8315 77.228 12.3701 77.6851 11.9746C78.1509 11.5791 78.7178 11.2759 79.3857 11.0649C80.0625 10.8452 80.8315 10.7354 81.6929 10.7354ZM102.286 23.5234L106.254 10.7354H108.864L103.143 27.2017C103.011 27.5532 102.835 27.9312 102.615 28.3354C102.404 28.7485 102.132 29.1396 101.798 29.5088C101.464 29.8779 101.06 30.1768 100.585 30.4053C100.119 30.6426 99.561 30.7612 98.9106 30.7612C98.7173 30.7612 98.4712 30.7349 98.1724 30.6821C97.8735 30.6294 97.6626 30.5854 97.5396 30.5503L97.5264 28.5728C97.5967 28.5815 97.7065 28.5903 97.856 28.5991C98.0142 28.6167 98.124 28.6255 98.1855 28.6255C98.7393 28.6255 99.2095 28.5508 99.5962 28.4014C99.9829 28.2607 100.308 28.019 100.572 27.6763C100.844 27.3423 101.077 26.8809 101.271 26.292L102.286 23.5234ZM99.3721 10.7354L103.077 21.8096L103.709 24.3804L101.956 25.2769L96.709 10.7354H99.3721ZM120.571 10.7354V12.7524H113.36V10.7354H120.571ZM113.716 10.7354V25H111.277V10.7354H113.716ZM122.733 10.7354V25H120.281V10.7354H122.733ZM135.06 22.561V15.2178C135.06 14.6553 134.946 14.1675 134.717 13.7544C134.498 13.3325 134.164 13.0073 133.715 12.7788C133.267 12.5503 132.713 12.436 132.054 12.436C131.439 12.436 130.898 12.5415 130.433 12.7524C129.976 12.9634 129.615 13.2402 129.352 13.583C129.097 13.9258 128.969 14.2949 128.969 14.6904H126.53C126.53 14.1807 126.662 13.6753 126.926 13.1743C127.189 12.6733 127.567 12.2207 128.06 11.8164C128.561 11.4033 129.158 11.0781 129.853 10.8408C130.556 10.5947 131.338 10.4717 132.199 10.4717C133.236 10.4717 134.15 10.6475 134.941 10.999C135.741 11.3506 136.365 11.8823 136.813 12.5942C137.271 13.2974 137.499 14.1807 137.499 15.2441V21.8887C137.499 22.3633 137.539 22.8687 137.618 23.4048C137.706 23.9409 137.833 24.4023 138 24.7891V25H135.456C135.333 24.7188 135.236 24.3452 135.166 23.8794C135.095 23.4048 135.06 22.9653 135.06 22.561ZM135.482 16.3516L135.508 18.0654H133.043C132.349 18.0654 131.729 18.1226 131.184 18.2368C130.639 18.3423 130.182 18.5049 129.813 18.7246C129.444 18.9443 129.163 19.2212 128.969 19.5552C128.776 19.8804 128.679 20.2627 128.679 20.7021C128.679 21.1504 128.78 21.5591 128.982 21.9282C129.185 22.2974 129.488 22.5918 129.892 22.8115C130.305 23.0225 130.811 23.1279 131.408 23.1279C132.155 23.1279 132.814 22.9697 133.386 22.6533C133.957 22.3369 134.41 21.9502 134.744 21.4932C135.086 21.0361 135.271 20.5923 135.297 20.1616L136.339 21.335C136.277 21.7041 136.11 22.1128 135.838 22.561C135.565 23.0093 135.201 23.4399 134.744 23.853C134.295 24.2573 133.759 24.5957 133.135 24.8682C132.52 25.1318 131.826 25.2637 131.052 25.2637C130.085 25.2637 129.237 25.0747 128.508 24.6968C127.787 24.3188 127.225 23.8135 126.82 23.1807C126.425 22.5391 126.227 21.8228 126.227 21.0317C126.227 20.2671 126.376 19.5947 126.675 19.0146C126.974 18.4258 127.405 17.938 127.967 17.5513C128.53 17.1558 129.207 16.8569 129.998 16.6548C130.789 16.4526 131.672 16.3516 132.647 16.3516H135.482ZM143.985 10.7354V25H141.546V10.7354H143.985ZM153.346 10.7354L146.583 18.9092H143.168L142.799 16.7734H145.594L150.379 10.7354H153.346ZM150.722 25L145.475 18.54L147.044 16.7734L153.82 25H150.722ZM155.007 18.0259V17.7227C155.007 16.6943 155.156 15.7407 155.455 14.8618C155.754 13.9741 156.185 13.2051 156.747 12.5547C157.31 11.8955 157.991 11.3857 158.791 11.0254C159.59 10.6562 160.487 10.4717 161.48 10.4717C162.482 10.4717 163.383 10.6562 164.183 11.0254C164.991 11.3857 165.677 11.8955 166.239 12.5547C166.811 13.2051 167.246 13.9741 167.544 14.8618C167.843 15.7407 167.993 16.6943 167.993 17.7227V18.0259C167.993 19.0542 167.843 20.0078 167.544 20.8867C167.246 21.7656 166.811 22.5347 166.239 23.1938C165.677 23.8442 164.996 24.354 164.196 24.7231C163.405 25.0835 162.508 25.2637 161.506 25.2637C160.504 25.2637 159.604 25.0835 158.804 24.7231C158.004 24.354 157.318 23.8442 156.747 23.1938C156.185 22.5347 155.754 21.7656 155.455 20.8867C155.156 20.0078 155.007 19.0542 155.007 18.0259ZM157.446 17.7227V18.0259C157.446 18.7378 157.529 19.4102 157.696 20.043C157.863 20.667 158.114 21.2207 158.448 21.7041C158.791 22.1875 159.217 22.5698 159.727 22.8511C160.236 23.1235 160.83 23.2598 161.506 23.2598C162.174 23.2598 162.759 23.1235 163.26 22.8511C163.77 22.5698 164.191 22.1875 164.525 21.7041C164.859 21.2207 165.11 20.667 165.277 20.043C165.453 19.4102 165.541 18.7378 165.541 18.0259V17.7227C165.541 17.0195 165.453 16.356 165.277 15.7319C165.11 15.0991 164.855 14.541 164.512 14.0576C164.178 13.5654 163.756 13.1787 163.247 12.8975C162.746 12.6162 162.157 12.4756 161.48 12.4756C160.812 12.4756 160.223 12.6162 159.713 12.8975C159.212 13.1787 158.791 13.5654 158.448 14.0576C158.114 14.541 157.863 15.0991 157.696 15.7319C157.529 16.356 157.446 17.0195 157.446 17.7227ZM177.749 18.7246H173.068L173.042 16.7734H176.865C177.621 16.7734 178.25 16.6987 178.75 16.5493C179.26 16.3999 179.643 16.1758 179.897 15.877C180.152 15.5781 180.28 15.209 180.28 14.7695C180.28 14.4268 180.205 14.1279 180.056 13.873C179.915 13.6094 179.7 13.394 179.41 13.2271C179.12 13.0513 178.759 12.9238 178.329 12.8447C177.907 12.7568 177.41 12.7129 176.839 12.7129H173.714V25H171.275V10.7354H176.839C177.744 10.7354 178.557 10.8145 179.278 10.9727C180.007 11.1309 180.627 11.3726 181.137 11.6978C181.655 12.0142 182.051 12.4185 182.323 12.9106C182.596 13.4028 182.732 13.9829 182.732 14.6509C182.732 15.0815 182.644 15.4902 182.468 15.877C182.292 16.2637 182.033 16.6064 181.69 16.9053C181.348 17.2041 180.926 17.4502 180.425 17.6436C179.924 17.8281 179.348 17.9468 178.698 17.9995L177.749 18.7246ZM177.749 25H172.185L173.398 23.0225H177.749C178.425 23.0225 178.988 22.939 179.436 22.772C179.884 22.5962 180.218 22.3501 180.438 22.0337C180.667 21.7085 180.781 21.3218 180.781 20.8735C180.781 20.4253 180.667 20.043 180.438 19.7266C180.218 19.4014 179.884 19.1553 179.436 18.9883C178.988 18.8125 178.425 18.7246 177.749 18.7246H174.044L174.07 16.7734H178.698L179.581 17.5117C180.363 17.5732 181.027 17.7666 181.572 18.0918C182.117 18.417 182.53 18.8301 182.811 19.3311C183.092 19.8232 183.233 20.3594 183.233 20.9395C183.233 21.6074 183.105 22.1963 182.851 22.7061C182.604 23.2158 182.244 23.6421 181.77 23.9849C181.295 24.3188 180.719 24.5737 180.042 24.7495C179.366 24.9165 178.601 25 177.749 25ZM189.152 10.7354V25H186.713V10.7354H189.152ZM198.513 10.7354L191.75 18.9092H188.335L187.966 16.7734H190.761L195.546 10.7354H198.513ZM195.889 25L190.642 18.54L192.211 16.7734L198.987 25H195.889ZM209.521 22.561V15.2178C209.521 14.6553 209.407 14.1675 209.178 13.7544C208.958 13.3325 208.625 13.0073 208.176 12.7788C207.728 12.5503 207.174 12.436 206.515 12.436C205.9 12.436 205.359 12.5415 204.894 12.7524C204.437 12.9634 204.076 13.2402 203.812 13.583C203.558 13.9258 203.43 14.2949 203.43 14.6904H200.991C200.991 14.1807 201.123 13.6753 201.387 13.1743C201.65 12.6733 202.028 12.2207 202.521 11.8164C203.021 11.4033 203.619 11.0781 204.313 10.8408C205.017 10.5947 205.799 10.4717 206.66 10.4717C207.697 10.4717 208.611 10.6475 209.402 10.999C210.202 11.3506 210.826 11.8823 211.274 12.5942C211.731 13.2974 211.96 14.1807 211.96 15.2441V21.8887C211.96 22.3633 212 22.8687 212.079 23.4048C212.167 23.9409 212.294 24.4023 212.461 24.7891V25H209.917C209.793 24.7188 209.697 24.3452 209.626 23.8794C209.556 23.4048 209.521 22.9653 209.521 22.561ZM209.943 16.3516L209.969 18.0654H207.504C206.81 18.0654 206.19 18.1226 205.645 18.2368C205.1 18.3423 204.643 18.5049 204.274 18.7246C203.905 18.9443 203.624 19.2212 203.43 19.5552C203.237 19.8804 203.14 20.2627 203.14 20.7021C203.14 21.1504 203.241 21.5591 203.443 21.9282C203.646 22.2974 203.949 22.5918 204.353 22.8115C204.766 23.0225 205.271 23.1279 205.869 23.1279C206.616 23.1279 207.275 22.9697 207.847 22.6533C208.418 22.3369 208.871 21.9502 209.205 21.4932C209.547 21.0361 209.732 20.5923 209.758 20.1616L210.8 21.335C210.738 21.7041 210.571 22.1128 210.299 22.561C210.026 23.0093 209.662 23.4399 209.205 23.853C208.756 24.2573 208.22 24.5957 207.596 24.8682C206.981 25.1318 206.287 25.2637 205.513 25.2637C204.546 25.2637 203.698 25.0747 202.969 24.6968C202.248 24.3188 201.686 23.8135 201.281 23.1807C200.886 22.5391 200.688 21.8228 200.688 21.0317C200.688 20.2671 200.837 19.5947 201.136 19.0146C201.435 18.4258 201.866 17.938 202.428 17.5513C202.991 17.1558 203.667 16.8569 204.458 16.6548C205.25 16.4526 206.133 16.3516 207.108 16.3516H209.943Z" fill="#008C95"/>
<path d="M7.72559 262.233L0.870117 251.805H3.84961L8.95166 260.124H12.564L12.1553 262.233H7.72559ZM9.09668 262.035L3.52002 271H0.355957L7.48828 259.847L9.09668 262.035ZM13.6582 251.805V271H11.1401V251.805H13.6582ZM23.8359 251.805L16.9541 262.233H12.6562L12.2607 260.124H15.7412L20.8433 251.805H23.8359ZM21.1729 271L15.6094 262.035L17.231 259.847L24.3369 271H21.1729ZM31.957 271.264C30.9639 271.264 30.063 271.097 29.2544 270.763C28.4546 270.42 27.7646 269.941 27.1846 269.326C26.6133 268.71 26.1738 267.981 25.8662 267.137C25.5586 266.293 25.4048 265.371 25.4048 264.369V263.815C25.4048 262.655 25.5762 261.622 25.9189 260.717C26.2617 259.803 26.7275 259.029 27.3164 258.396C27.9053 257.764 28.5732 257.285 29.3203 256.959C30.0674 256.634 30.8408 256.472 31.6406 256.472C32.6602 256.472 33.5391 256.647 34.2773 256.999C35.0244 257.351 35.6353 257.843 36.1099 258.476C36.5845 259.1 36.936 259.838 37.1646 260.69C37.3931 261.534 37.5073 262.457 37.5073 263.459V264.553H26.855V262.562H35.0684V262.378C35.0332 261.745 34.9014 261.13 34.6729 260.532C34.4531 259.935 34.1016 259.442 33.6182 259.056C33.1348 258.669 32.4756 258.476 31.6406 258.476C31.0869 258.476 30.5771 258.594 30.1113 258.832C29.6455 259.06 29.2456 259.403 28.9116 259.86C28.5776 260.317 28.3184 260.875 28.1338 261.534C27.9492 262.193 27.8569 262.954 27.8569 263.815V264.369C27.8569 265.045 27.9492 265.683 28.1338 266.28C28.3271 266.869 28.604 267.388 28.9644 267.836C29.3335 268.284 29.7773 268.636 30.2959 268.891C30.8232 269.146 31.4209 269.273 32.0889 269.273C32.9502 269.273 33.6797 269.097 34.2773 268.746C34.875 268.394 35.3979 267.924 35.8462 267.335L37.3228 268.508C37.0151 268.974 36.624 269.418 36.1494 269.84C35.6748 270.262 35.0903 270.604 34.396 270.868C33.7104 271.132 32.8975 271.264 31.957 271.264ZM46.0635 269.26C46.6436 269.26 47.1797 269.141 47.6719 268.904C48.1641 268.667 48.5684 268.341 48.8848 267.928C49.2012 267.506 49.3813 267.027 49.4253 266.491H51.7456C51.7017 267.335 51.416 268.122 50.8887 268.851C50.3701 269.572 49.689 270.156 48.8452 270.604C48.0015 271.044 47.0742 271.264 46.0635 271.264C44.9912 271.264 44.0552 271.075 43.2554 270.697C42.4644 270.319 41.8052 269.8 41.2778 269.141C40.7593 268.482 40.3682 267.726 40.1045 266.874C39.8496 266.012 39.7222 265.103 39.7222 264.145V263.591C39.7222 262.633 39.8496 261.728 40.1045 260.875C40.3682 260.014 40.7593 259.253 41.2778 258.594C41.8052 257.935 42.4644 257.417 43.2554 257.039C44.0552 256.661 44.9912 256.472 46.0635 256.472C47.1797 256.472 48.1553 256.7 48.9902 257.157C49.8252 257.605 50.48 258.221 50.9546 259.003C51.438 259.776 51.7017 260.655 51.7456 261.64H49.4253C49.3813 261.051 49.2144 260.519 48.9243 260.044C48.6431 259.57 48.2563 259.192 47.7642 258.911C47.2808 258.621 46.7139 258.476 46.0635 258.476C45.3164 258.476 44.688 258.625 44.1782 258.924C43.6772 259.214 43.2773 259.609 42.9785 260.11C42.6885 260.603 42.4775 261.152 42.3457 261.758C42.2227 262.356 42.1611 262.967 42.1611 263.591V264.145C42.1611 264.769 42.2227 265.384 42.3457 265.99C42.4688 266.597 42.6753 267.146 42.9653 267.638C43.2642 268.13 43.6641 268.526 44.165 268.825C44.6748 269.115 45.3076 269.26 46.0635 269.26ZM60.3018 256.735V271H57.8496V256.735H60.3018ZM65.0874 256.735V258.713H53.1562V256.735H65.0874ZM70.1367 256.735V271H67.6978V256.735H70.1367ZM79.4971 256.735L72.7339 264.909H69.3193L68.9502 262.773H71.7451L76.5308 256.735H79.4971ZM76.8735 271L71.6265 264.54L73.1953 262.773L79.9717 271H76.8735ZM90.5054 268.561V261.218C90.5054 260.655 90.3911 260.167 90.1626 259.754C89.9429 259.333 89.6089 259.007 89.1606 258.779C88.7124 258.55 88.1587 258.436 87.4995 258.436C86.8843 258.436 86.3438 258.542 85.8779 258.752C85.4209 258.963 85.0605 259.24 84.7969 259.583C84.542 259.926 84.4146 260.295 84.4146 260.69H81.9756C81.9756 260.181 82.1074 259.675 82.3711 259.174C82.6348 258.673 83.0127 258.221 83.5049 257.816C84.0059 257.403 84.6035 257.078 85.2979 256.841C86.001 256.595 86.7832 256.472 87.6445 256.472C88.6816 256.472 89.5957 256.647 90.3867 256.999C91.1865 257.351 91.8105 257.882 92.2588 258.594C92.7158 259.297 92.9443 260.181 92.9443 261.244V267.889C92.9443 268.363 92.9839 268.869 93.063 269.405C93.1509 269.941 93.2783 270.402 93.4453 270.789V271H90.9009C90.7778 270.719 90.6812 270.345 90.6108 269.879C90.5405 269.405 90.5054 268.965 90.5054 268.561ZM90.9272 262.352L90.9536 264.065H88.4883C87.7939 264.065 87.1743 264.123 86.6294 264.237C86.0845 264.342 85.6274 264.505 85.2583 264.725C84.8892 264.944 84.6079 265.221 84.4146 265.555C84.2212 265.88 84.1245 266.263 84.1245 266.702C84.1245 267.15 84.2256 267.559 84.4277 267.928C84.6299 268.297 84.9331 268.592 85.3374 268.812C85.7505 269.022 86.2559 269.128 86.8535 269.128C87.6006 269.128 88.2598 268.97 88.8311 268.653C89.4023 268.337 89.855 267.95 90.189 267.493C90.5317 267.036 90.7163 266.592 90.7427 266.162L91.7842 267.335C91.7227 267.704 91.5557 268.113 91.2832 268.561C91.0107 269.009 90.646 269.44 90.189 269.853C89.7407 270.257 89.2046 270.596 88.5806 270.868C87.9653 271.132 87.271 271.264 86.4976 271.264C85.5308 271.264 84.6826 271.075 83.9531 270.697C83.2324 270.319 82.6699 269.813 82.2656 269.181C81.8701 268.539 81.6724 267.823 81.6724 267.032C81.6724 266.267 81.8218 265.595 82.1206 265.015C82.4194 264.426 82.8501 263.938 83.4126 263.551C83.9751 263.156 84.6519 262.857 85.4429 262.655C86.2339 262.453 87.1172 262.352 88.0928 262.352H90.9272ZM99.668 264.197H102.305L98.1782 271H95.5415L99.668 264.197ZM101.711 256.735H107.67V271H105.231V258.713H101.711C101.017 258.713 100.45 258.832 100.011 259.069C99.5713 259.297 99.2505 259.596 99.0483 259.965C98.8462 260.334 98.7451 260.717 98.7451 261.112C98.7451 261.499 98.8374 261.873 99.022 262.233C99.2065 262.584 99.4966 262.875 99.8921 263.103C100.288 263.332 100.797 263.446 101.421 263.446H105.891V265.45H101.421C100.604 265.45 99.8789 265.34 99.2461 265.12C98.6133 264.9 98.0771 264.597 97.6377 264.21C97.1982 263.815 96.8643 263.354 96.6357 262.826C96.4072 262.29 96.293 261.71 96.293 261.086C96.293 260.462 96.4116 259.886 96.6489 259.359C96.895 258.832 97.2466 258.37 97.7036 257.975C98.1694 257.579 98.7363 257.276 99.4043 257.065C100.081 256.845 100.85 256.735 101.711 256.735ZM122.304 269.523L126.272 256.735H128.883L123.161 273.202C123.029 273.553 122.854 273.931 122.634 274.335C122.423 274.749 122.15 275.14 121.816 275.509C121.482 275.878 121.078 276.177 120.604 276.405C120.138 276.643 119.58 276.761 118.929 276.761C118.736 276.761 118.49 276.735 118.191 276.682C117.892 276.629 117.681 276.585 117.558 276.55L117.545 274.573C117.615 274.582 117.725 274.59 117.875 274.599C118.033 274.617 118.143 274.625 118.204 274.625C118.758 274.625 119.228 274.551 119.615 274.401C120.001 274.261 120.327 274.019 120.59 273.676C120.863 273.342 121.096 272.881 121.289 272.292L122.304 269.523ZM119.391 256.735L123.095 267.81L123.728 270.38L121.975 271.277L116.728 256.735H119.391ZM140.59 256.735V258.752H133.378V256.735H140.59ZM133.734 256.735V271H131.295V256.735H133.734ZM142.752 256.735V271H140.3V256.735H142.752ZM155.079 268.561V261.218C155.079 260.655 154.964 260.167 154.736 259.754C154.516 259.333 154.182 259.007 153.734 258.779C153.286 258.55 152.732 258.436 152.073 258.436C151.458 258.436 150.917 258.542 150.451 258.752C149.994 258.963 149.634 259.24 149.37 259.583C149.115 259.926 148.988 260.295 148.988 260.69H146.549C146.549 260.181 146.681 259.675 146.944 259.174C147.208 258.673 147.586 258.221 148.078 257.816C148.579 257.403 149.177 257.078 149.871 256.841C150.574 256.595 151.356 256.472 152.218 256.472C153.255 256.472 154.169 256.647 154.96 256.999C155.76 257.351 156.384 257.882 156.832 258.594C157.289 259.297 157.518 260.181 157.518 261.244V267.889C157.518 268.363 157.557 268.869 157.636 269.405C157.724 269.941 157.852 270.402 158.019 270.789V271H155.474C155.351 270.719 155.254 270.345 155.184 269.879C155.114 269.405 155.079 268.965 155.079 268.561ZM155.5 262.352L155.527 264.065H153.062C152.367 264.065 151.748 264.123 151.203 264.237C150.658 264.342 150.201 264.505 149.832 264.725C149.462 264.944 149.181 265.221 148.988 265.555C148.794 265.88 148.698 266.263 148.698 266.702C148.698 267.15 148.799 267.559 149.001 267.928C149.203 268.297 149.506 268.592 149.911 268.812C150.324 269.022 150.829 269.128 151.427 269.128C152.174 269.128 152.833 268.97 153.404 268.653C153.976 268.337 154.428 267.95 154.762 267.493C155.105 267.036 155.29 266.592 155.316 266.162L156.357 267.335C156.296 267.704 156.129 268.113 155.856 268.561C155.584 269.009 155.219 269.44 154.762 269.853C154.314 270.257 153.778 270.596 153.154 270.868C152.539 271.132 151.844 271.264 151.071 271.264C150.104 271.264 149.256 271.075 148.526 270.697C147.806 270.319 147.243 269.813 146.839 269.181C146.443 268.539 146.246 267.823 146.246 267.032C146.246 266.267 146.395 265.595 146.694 265.015C146.993 264.426 147.423 263.938 147.986 263.551C148.548 263.156 149.225 262.857 150.016 262.655C150.807 262.453 151.69 262.352 152.666 262.352H155.5ZM164.004 256.735V271H161.565V256.735H164.004ZM173.364 256.735L166.601 264.909H163.187L162.817 262.773H165.612L170.398 256.735H173.364ZM170.741 271L165.494 264.54L167.062 262.773L173.839 271H170.741ZM175.025 264.026V263.723C175.025 262.694 175.175 261.741 175.474 260.862C175.772 259.974 176.203 259.205 176.766 258.555C177.328 257.896 178.009 257.386 178.809 257.025C179.609 256.656 180.505 256.472 181.499 256.472C182.5 256.472 183.401 256.656 184.201 257.025C185.01 257.386 185.695 257.896 186.258 258.555C186.829 259.205 187.264 259.974 187.563 260.862C187.862 261.741 188.011 262.694 188.011 263.723V264.026C188.011 265.054 187.862 266.008 187.563 266.887C187.264 267.766 186.829 268.535 186.258 269.194C185.695 269.844 185.014 270.354 184.214 270.723C183.423 271.083 182.527 271.264 181.525 271.264C180.523 271.264 179.622 271.083 178.822 270.723C178.022 270.354 177.337 269.844 176.766 269.194C176.203 268.535 175.772 267.766 175.474 266.887C175.175 266.008 175.025 265.054 175.025 264.026ZM177.464 263.723V264.026C177.464 264.738 177.548 265.41 177.715 266.043C177.882 266.667 178.132 267.221 178.466 267.704C178.809 268.188 179.235 268.57 179.745 268.851C180.255 269.124 180.848 269.26 181.525 269.26C182.193 269.26 182.777 269.124 183.278 268.851C183.788 268.57 184.21 268.188 184.544 267.704C184.878 267.221 185.128 266.667 185.295 266.043C185.471 265.41 185.559 264.738 185.559 264.026V263.723C185.559 263.02 185.471 262.356 185.295 261.732C185.128 261.099 184.874 260.541 184.531 260.058C184.197 259.565 183.775 259.179 183.265 258.897C182.764 258.616 182.175 258.476 181.499 258.476C180.831 258.476 180.242 258.616 179.732 258.897C179.231 259.179 178.809 259.565 178.466 260.058C178.132 260.541 177.882 261.099 177.715 261.732C177.548 262.356 177.464 263.02 177.464 263.723ZM197.767 264.725H193.087L193.061 262.773H196.884C197.64 262.773 198.268 262.699 198.769 262.549C199.279 262.4 199.661 262.176 199.916 261.877C200.171 261.578 200.298 261.209 200.298 260.77C200.298 260.427 200.224 260.128 200.074 259.873C199.934 259.609 199.718 259.394 199.428 259.227C199.138 259.051 198.778 258.924 198.347 258.845C197.925 258.757 197.429 258.713 196.857 258.713H193.733V271H191.294V256.735H196.857C197.763 256.735 198.576 256.814 199.296 256.973C200.026 257.131 200.646 257.373 201.155 257.698C201.674 258.014 202.069 258.418 202.342 258.911C202.614 259.403 202.75 259.983 202.75 260.651C202.75 261.082 202.663 261.49 202.487 261.877C202.311 262.264 202.052 262.606 201.709 262.905C201.366 263.204 200.944 263.45 200.443 263.644C199.942 263.828 199.367 263.947 198.716 264L197.767 264.725ZM197.767 271H192.204L193.417 269.022H197.767C198.444 269.022 199.006 268.939 199.455 268.772C199.903 268.596 200.237 268.35 200.457 268.034C200.685 267.708 200.799 267.322 200.799 266.874C200.799 266.425 200.685 266.043 200.457 265.727C200.237 265.401 199.903 265.155 199.455 264.988C199.006 264.812 198.444 264.725 197.767 264.725H194.062L194.089 262.773H198.716L199.6 263.512C200.382 263.573 201.045 263.767 201.59 264.092C202.135 264.417 202.548 264.83 202.83 265.331C203.111 265.823 203.251 266.359 203.251 266.939C203.251 267.607 203.124 268.196 202.869 268.706C202.623 269.216 202.263 269.642 201.788 269.985C201.313 270.319 200.738 270.574 200.061 270.75C199.384 270.917 198.62 271 197.767 271ZM209.171 256.735V271H206.732V256.735H209.171ZM218.531 256.735L211.768 264.909H208.354L207.984 262.773H210.779L215.565 256.735H218.531ZM215.908 271L210.661 264.54L212.229 262.773L219.006 271H215.908ZM229.54 268.561V261.218C229.54 260.655 229.425 260.167 229.197 259.754C228.977 259.333 228.643 259.007 228.195 258.779C227.747 258.55 227.193 258.436 226.534 258.436C225.918 258.436 225.378 258.542 224.912 258.752C224.455 258.963 224.095 259.24 223.831 259.583C223.576 259.926 223.449 260.295 223.449 260.69H221.01C221.01 260.181 221.142 259.675 221.405 259.174C221.669 258.673 222.047 258.221 222.539 257.816C223.04 257.403 223.638 257.078 224.332 256.841C225.035 256.595 225.817 256.472 226.679 256.472C227.716 256.472 228.63 256.647 229.421 256.999C230.221 257.351 230.845 257.882 231.293 258.594C231.75 259.297 231.979 260.181 231.979 261.244V267.889C231.979 268.363 232.018 268.869 232.097 269.405C232.185 269.941 232.312 270.402 232.479 270.789V271H229.935C229.812 270.719 229.715 270.345 229.645 269.879C229.575 269.405 229.54 268.965 229.54 268.561ZM229.961 262.352L229.988 264.065H227.522C226.828 264.065 226.208 264.123 225.664 264.237C225.119 264.342 224.662 264.505 224.292 264.725C223.923 264.944 223.642 265.221 223.449 265.555C223.255 265.88 223.159 266.263 223.159 266.702C223.159 267.15 223.26 267.559 223.462 267.928C223.664 268.297 223.967 268.592 224.372 268.812C224.785 269.022 225.29 269.128 225.888 269.128C226.635 269.128 227.294 268.97 227.865 268.653C228.437 268.337 228.889 267.95 229.223 267.493C229.566 267.036 229.75 266.592 229.777 266.162L230.818 267.335C230.757 267.704 230.59 268.113 230.317 268.561C230.045 269.009 229.68 269.44 229.223 269.853C228.775 270.257 228.239 270.596 227.615 270.868C227 271.132 226.305 271.264 225.532 271.264C224.565 271.264 223.717 271.075 222.987 270.697C222.267 270.319 221.704 269.813 221.3 269.181C220.904 268.539 220.707 267.823 220.707 267.032C220.707 266.267 220.856 265.595 221.155 265.015C221.454 264.426 221.884 263.938 222.447 263.551C223.009 263.156 223.686 262.857 224.477 262.655C225.268 262.453 226.151 262.352 227.127 262.352H229.961Z" fill="#008C95"/>
<path d="M14.502 586.387V588.47H6.63135V586.387H14.502ZM1.95117 590.896H4.48242C4.62305 591.801 4.85596 592.575 5.18115 593.216C5.51514 593.858 6.00293 594.35 6.64453 594.693C7.28613 595.027 8.14746 595.194 9.22852 595.194C10.0811 595.194 10.8193 595.018 11.4434 594.667C12.0674 594.306 12.5815 593.814 12.9858 593.19C13.3901 592.566 13.689 591.841 13.8823 591.015C14.0845 590.188 14.1855 589.305 14.1855 588.365V586.44C14.1855 585.623 14.1152 584.867 13.9746 584.172C13.834 583.469 13.623 582.841 13.3418 582.287C13.0605 581.725 12.709 581.246 12.2871 580.85C11.874 580.455 11.3906 580.151 10.8369 579.94C10.292 579.729 9.68115 579.624 9.00439 579.624C8.02002 579.624 7.21582 579.8 6.5918 580.151C5.97656 580.503 5.50195 581.004 5.16797 581.654C4.84277 582.296 4.61426 583.065 4.48242 583.961H1.95117C2.08301 582.696 2.43018 581.584 2.99268 580.626C3.55518 579.659 4.33301 578.903 5.32617 578.358C6.32812 577.813 7.5542 577.541 9.00439 577.541C10.1909 577.541 11.2588 577.752 12.208 578.174C13.1572 578.596 13.9658 579.198 14.6338 579.98C15.3105 580.762 15.8247 581.703 16.1763 582.801C16.5366 583.9 16.7168 585.122 16.7168 586.466V588.365C16.7168 589.709 16.5366 590.931 16.1763 592.03C15.8247 593.12 15.3193 594.056 14.6602 594.838C14.001 595.611 13.21 596.209 12.2871 596.631C11.373 597.053 10.3535 597.264 9.22852 597.264C7.69043 597.264 6.40723 596.987 5.37891 596.433C4.35059 595.871 3.55518 595.11 2.99268 594.152C2.43896 593.194 2.0918 592.109 1.95117 590.896ZM27.29 588.022H22.4253L22.3989 585.979H26.8154C27.5449 585.979 28.1821 585.855 28.7271 585.609C29.272 585.363 29.6938 585.012 29.9927 584.555C30.3003 584.089 30.4541 583.535 30.4541 582.894C30.4541 582.19 30.3179 581.619 30.0454 581.18C29.7817 580.731 29.373 580.406 28.8193 580.204C28.2744 579.993 27.5801 579.888 26.7363 579.888H22.9922V597H20.4478V577.805H26.7363C27.7207 577.805 28.5996 577.906 29.373 578.108C30.1465 578.301 30.8013 578.609 31.3374 579.031C31.8823 579.444 32.2954 579.971 32.5767 580.613C32.8579 581.254 32.9985 582.023 32.9985 582.92C32.9985 583.711 32.7964 584.427 32.3921 585.069C31.9878 585.702 31.4253 586.22 30.7046 586.625C29.9927 587.029 29.1577 587.288 28.1997 587.402L27.29 588.022ZM27.1714 597H21.4233L22.8604 594.93H27.1714C27.98 594.93 28.6655 594.79 29.228 594.508C29.7993 594.227 30.2344 593.832 30.5332 593.322C30.832 592.803 30.9814 592.192 30.9814 591.489C30.9814 590.777 30.854 590.162 30.5991 589.644C30.3442 589.125 29.9443 588.725 29.3994 588.444C28.8545 588.163 28.1514 588.022 27.29 588.022H23.6646L23.6909 585.979H28.6479L29.1885 586.717C30.1113 586.796 30.8936 587.06 31.5352 587.508C32.1768 587.947 32.6646 588.51 32.9985 589.195C33.3413 589.881 33.5127 590.637 33.5127 591.463C33.5127 592.658 33.249 593.669 32.7217 594.495C32.2031 595.312 31.4692 595.937 30.52 596.367C29.5708 596.789 28.4546 597 27.1714 597ZM44.376 579.505L38.0215 597H35.4243L42.7412 577.805H44.4155L44.376 579.505ZM49.7021 597L43.3345 579.505L43.2949 577.805H44.9692L52.3125 597H49.7021ZM49.3726 589.894V591.977H38.5884V589.894H49.3726ZM56.729 594.1V596.064C56.729 596.864 56.5269 597.708 56.1226 598.595C55.7183 599.492 55.1514 600.239 54.4219 600.836L53.0376 599.874C53.3188 599.487 53.5562 599.092 53.7495 598.688C53.9429 598.292 54.0879 597.879 54.1846 597.448C54.29 597.026 54.3428 596.578 54.3428 596.104V594.1H56.729ZM78.4951 590.896H81.0264C80.8945 592.109 80.5474 593.194 79.9849 594.152C79.4224 595.11 78.627 595.871 77.5986 596.433C76.5703 596.987 75.2871 597.264 73.749 597.264C72.624 597.264 71.6001 597.053 70.6772 596.631C69.7632 596.209 68.9766 595.611 68.3174 594.838C67.6582 594.056 67.1484 593.12 66.7881 592.03C66.4365 590.931 66.2607 589.709 66.2607 588.365V586.453C66.2607 585.108 66.4365 583.891 66.7881 582.801C67.1484 581.703 67.6626 580.762 68.3306 579.98C69.0073 579.198 69.8203 578.596 70.7695 578.174C71.7188 577.752 72.7866 577.541 73.9731 577.541C75.4233 577.541 76.6494 577.813 77.6514 578.358C78.6533 578.903 79.4312 579.659 79.9849 580.626C80.5474 581.584 80.8945 582.696 81.0264 583.961H78.4951C78.3721 583.065 78.1436 582.296 77.8096 581.654C77.4756 581.004 77.001 580.503 76.3857 580.151C75.7705 579.8 74.9663 579.624 73.9731 579.624C73.1206 579.624 72.3691 579.787 71.7188 580.112C71.0771 580.437 70.5366 580.898 70.0972 581.496C69.6665 582.094 69.3413 582.81 69.1216 583.645C68.9019 584.48 68.792 585.407 68.792 586.427V588.365C68.792 589.305 68.8887 590.188 69.082 591.015C69.2842 591.841 69.5874 592.566 69.9917 593.19C70.396 593.814 70.9102 594.306 71.5342 594.667C72.1582 595.018 72.8965 595.194 73.749 595.194C74.8301 595.194 75.6914 595.022 76.333 594.68C76.9746 594.337 77.458 593.845 77.7832 593.203C78.1172 592.562 78.3545 591.792 78.4951 590.896ZM96.2007 577.805V579.888H86.9458V597H84.4146V577.805H96.2007ZM86.3525 585.623H91.5864C92.9927 585.623 94.1792 585.86 95.146 586.334C96.1128 586.8 96.8467 587.455 97.3477 588.299C97.8486 589.143 98.0991 590.131 98.0991 591.265C98.0991 592.109 97.9585 592.882 97.6772 593.585C97.396 594.28 96.9785 594.886 96.4248 595.405C95.8711 595.915 95.1899 596.31 94.3813 596.591C93.5728 596.864 92.6411 597 91.5864 597H84.4146V577.805H86.959V594.93H91.5864C92.5269 594.93 93.2871 594.759 93.8672 594.416C94.4561 594.064 94.8867 593.607 95.1592 593.045C95.4316 592.482 95.5679 591.88 95.5679 591.239C95.5679 590.597 95.4316 590.008 95.1592 589.472C94.8867 588.936 94.4561 588.51 93.8672 588.193C93.2871 587.868 92.5269 587.706 91.5864 587.706H86.3525V585.623ZM113.115 590.896H115.646C115.515 592.109 115.167 593.194 114.605 594.152C114.042 595.11 113.247 595.871 112.219 596.433C111.19 596.987 109.907 597.264 108.369 597.264C107.244 597.264 106.22 597.053 105.297 596.631C104.383 596.209 103.597 595.611 102.938 594.838C102.278 594.056 101.769 593.12 101.408 592.03C101.057 590.931 100.881 589.709 100.881 588.365V586.453C100.881 585.108 101.057 583.891 101.408 582.801C101.769 581.703 102.283 580.762 102.951 579.98C103.627 579.198 104.44 578.596 105.39 578.174C106.339 577.752 107.407 577.541 108.593 577.541C110.043 577.541 111.27 577.813 112.271 578.358C113.273 578.903 114.051 579.659 114.605 580.626C115.167 581.584 115.515 582.696 115.646 583.961H113.115C112.992 583.065 112.764 582.296 112.43 581.654C112.096 581.004 111.621 580.503 111.006 580.151C110.391 579.8 109.586 579.624 108.593 579.624C107.741 579.624 106.989 579.787 106.339 580.112C105.697 580.437 105.157 580.898 104.717 581.496C104.287 582.094 103.961 582.81 103.742 583.645C103.522 584.48 103.412 585.407 103.412 586.427V588.365C103.412 589.305 103.509 590.188 103.702 591.015C103.904 591.841 104.208 592.566 104.612 593.19C105.016 593.814 105.53 594.306 106.154 594.667C106.778 595.018 107.517 595.194 108.369 595.194C109.45 595.194 110.312 595.022 110.953 594.68C111.595 594.337 112.078 593.845 112.403 593.203C112.737 592.562 112.975 591.792 113.115 590.896ZM120.959 594.1V596.064C120.959 596.864 120.757 597.708 120.353 598.595C119.949 599.492 119.382 600.239 118.652 600.836L117.268 599.874C117.549 599.487 117.787 599.092 117.98 598.688C118.173 598.292 118.318 597.879 118.415 597.448C118.521 597.026 118.573 596.578 118.573 596.104V594.1H120.959ZM145.797 577.805V597H143.266V579.888H133.8V597H131.256V577.805H145.797ZM157.254 588.022H152.389L152.363 585.979H156.779C157.509 585.979 158.146 585.855 158.691 585.609C159.236 585.363 159.658 585.012 159.957 584.555C160.264 584.089 160.418 583.535 160.418 582.894C160.418 582.19 160.282 581.619 160.009 581.18C159.746 580.731 159.337 580.406 158.783 580.204C158.238 579.993 157.544 579.888 156.7 579.888H152.956V597H150.412V577.805H156.7C157.685 577.805 158.563 577.906 159.337 578.108C160.11 578.301 160.765 578.609 161.301 579.031C161.846 579.444 162.259 579.971 162.541 580.613C162.822 581.254 162.962 582.023 162.962 582.92C162.962 583.711 162.76 584.427 162.356 585.069C161.952 585.702 161.389 586.22 160.668 586.625C159.957 587.029 159.122 587.288 158.164 587.402L157.254 588.022ZM157.135 597H151.387L152.824 594.93H157.135C157.944 594.93 158.629 594.79 159.192 594.508C159.763 594.227 160.198 593.832 160.497 593.322C160.796 592.803 160.945 592.192 160.945 591.489C160.945 590.777 160.818 590.162 160.563 589.644C160.308 589.125 159.908 588.725 159.363 588.444C158.818 588.163 158.115 588.022 157.254 588.022H153.628L153.655 585.979H158.612L159.152 586.717C160.075 586.796 160.857 587.06 161.499 587.508C162.141 587.947 162.628 588.51 162.962 589.195C163.305 589.881 163.477 590.637 163.477 591.463C163.477 592.658 163.213 593.669 162.686 594.495C162.167 595.312 161.433 595.937 160.484 596.367C159.535 596.789 158.418 597 157.135 597ZM168.882 577.805L173.496 585.161L178.11 577.805H181.077L175.012 587.31L181.222 597H178.229L173.496 589.499L168.763 597H165.771L171.98 587.31L165.916 577.805H168.882Z" fill="#008C95"/>
<path d="M182.376 146.771L163.74 165.406L177.187 178.853L195.822 160.217L182.376 146.771Z" fill="#77E2C3"/>
<path d="M186.631 151.019L169.59 168.061L174.533 173.003L191.574 155.962L186.631 151.019Z" fill="#008C95"/>
<path d="M202.279 156.018L199.928 156.138L199.868 156.078L199.988 153.728L197.65 153.848L197.77 151.51L195.42 151.63L195.54 149.28L193.19 149.4L193.31 147.05L190.972 147.17L191.092 144.831L188.742 144.951L188.861 142.601L186.511 142.721L186.631 140.371L186.475 140.383L185.324 141.534L183.67 143.189L182.387 146.774L195.828 160.215L199.413 158.932L201.067 157.277L202.279 156.066V156.018Z" fill="#008C95"/>
<path d="M174.579 183.702L174.699 181.364L174.639 181.304L172.301 181.424L172.42 179.074L170.07 179.194L170.19 176.844L167.84 176.964L167.96 174.626L165.622 174.746L165.742 172.396L163.392 172.515L163.512 170.165L161.162 170.285L161.281 167.947L158.943 168.067L158.955 167.899L160.094 166.748L161.761 165.094L165.334 163.811L178.787 177.252L177.504 180.837L175.838 182.491L174.627 183.702H174.579Z" fill="#008C95"/>
<path d="M105.922 171.496H91.5215V145.01H115.202V162.216L105.922 171.496Z" fill="#77E2C3"/>
<path d="M105.924 171.495V162.215H115.204L105.924 171.495Z" fill="#008C95"/>
<path d="M82.9512 153.451V170.633C82.9512 175.297 86.788 179.074 91.5242 179.074C96.2604 179.074 100.097 175.297 100.097 170.633V153.451H82.9512Z" fill="#008C95"/>
<path d="M100.097 153.451C100.097 158.115 96.2604 161.892 91.5242 161.892C86.788 161.892 82.9512 158.115 82.9512 153.451C82.9512 148.787 86.788 145.01 91.5242 145.01C96.2604 145.01 100.097 148.787 100.097 153.451Z" fill="white"/>
<path d="M96.0917 153.451C96.0917 155.933 94.0413 157.948 91.5234 157.948C89.0054 157.948 86.9551 155.933 86.9551 153.451C86.9551 150.969 89.0054 148.955 91.5234 148.955C94.0533 148.955 96.0917 150.969 96.0917 153.451Z" fill="#77E2C3"/>
<path d="M15.4112 59.3867H8.20508V64.3986H15.4112V59.3867Z" fill="#008C95"/>
<path d="M3 100.515L4.10308 101.618H6.30932L7.40041 100.515H9.60665L10.7097 101.618H12.904L14.0071 100.515H16.2133L17.3044 101.618H19.5106L20.6137 100.515V91.8223H3V100.515Z" fill="#77E2C3"/>
<path d="M16.4051 64.3984H7.20859C4.47481 68.1514 3.01199 71.4607 3 76.1009H20.6017C20.6017 71.4607 19.1269 68.1514 16.4051 64.3984Z" fill="#77E2C3"/>
<path d="M3.01367 76.1016C3.01367 76.1136 3.01367 76.1255 3.01367 76.1375V90.4779V91.8208H32.0901V90.4779V76.1375C32.0901 76.1255 32.0901 76.1136 32.0901 76.1016H3.01367Z" fill="#008C95"/>
<path d="M103.781 61.0781H89.752V94.4111H115.447V72.7566L103.781 61.0781Z" fill="#77E2C3"/>
<path d="M103.779 61.0781V72.7566H115.446L103.779 61.0781Z" fill="#008C95"/>
<path d="M82.7129 68.0215V92.9972C82.7129 96.8221 85.8663 99.9276 89.7512 99.9276C93.636 99.9276 96.7894 96.8221 96.7894 92.9972V68.0215H82.7129Z" fill="#008C95"/>
<path d="M96.7894 68.0085C96.7894 71.8334 93.636 74.9389 89.7512 74.9389C85.8663 74.9389 82.7129 71.8334 82.7129 68.0085C82.7129 64.1836 85.8663 61.0781 89.7512 61.0781C93.636 61.0781 96.7894 64.1836 96.7894 68.0085Z" fill="white"/>
<path d="M93.502 68.0074C93.502 70.0458 91.8234 71.7005 89.7491 71.7005C87.6747 71.7005 85.9961 70.0458 85.9961 68.0074C85.9961 65.9691 87.6747 64.3145 89.7491 64.3145C91.8234 64.3264 93.502 65.9691 93.502 68.0074Z" fill="#77E2C3"/>
<path d="M181.752 67.2571L167.355 81.6533L179.446 93.7434L193.842 79.3472L181.752 67.2571Z" fill="#77E2C3"/>
<path d="M179.449 93.7512L176.331 98.895L162.219 84.7825L167.363 81.665L179.449 93.7512Z" fill="#77E2C3"/>
<path d="M162.214 84.7853L158.373 88.626L172.481 102.734L176.322 98.8932L162.214 84.7853Z" fill="#008C95"/>
<path d="M181.764 67.2642L184.893 62.1084L199.006 76.2209L193.85 79.3504L181.764 67.2642Z" fill="#77E2C3"/>
<path d="M188.723 58.2756L184.883 62.1162L198.991 76.2241L202.831 72.3835L188.723 58.2756Z" fill="#008C95"/>
<path d="M255.552 57.9121L253.273 59.8066H257.842L255.552 57.9121Z" fill="#77E2C3"/>
<path d="M250.981 57.9121L248.703 59.8066H253.271L250.981 57.9121Z" fill="#77E2C3"/>
<path d="M260.118 57.9121L257.84 59.8066H262.408L260.118 57.9121Z" fill="#77E2C3"/>
<path d="M264.69 57.9121L262.412 59.8066H266.968L264.69 57.9121Z" fill="#77E2C3"/>
<path d="M269.257 57.9121L266.979 59.8066H271.535L269.257 57.9121Z" fill="#77E2C3"/>
<path d="M273.825 57.9121L271.535 59.8066H276.103L273.825 57.9121Z" fill="#77E2C3"/>
<path d="M261.904 77.2405L276.101 59.8066H248.703L261.904 77.2405Z" fill="#77E2C3"/>
<path d="M275.741 78.7154V99.0269C275.741 101.269 273.907 103.104 271.664 103.104H252.264C250.022 103.104 248.188 101.269 248.188 99.0269V78.7154C248.188 76.4732 250.022 74.6387 252.264 74.6387H271.664C273.907 74.6387 275.741 76.4732 275.741 78.7154Z" fill="#77E2C3"/>
<path d="M272.264 81.4141C272.264 80.2751 271.329 79.3398 270.19 79.3398H254.051C252.912 79.3398 251.977 80.2751 251.977 81.4141C251.977 82.2415 252.48 82.9969 253.248 83.3206L253.236 83.9201V85.4549V98.6082C253.236 99.3036 253.799 99.8672 254.494 99.8672H269.986C270.681 99.8672 271.245 99.3036 271.245 98.6082V85.1311V83.8482L271.281 83.1647C271.892 82.793 272.264 82.1336 272.264 81.4141Z" fill="#008C95"/>
<path d="M261.199 94.3395C261.199 95.3826 260.359 96.222 259.316 96.222C258.273 96.222 257.434 95.3826 257.434 94.3395C257.434 93.2963 258.273 92.457 259.316 92.457C260.359 92.457 261.199 93.2963 261.199 94.3395Z" fill="#77E2C3"/>
<path d="M268.057 90.597C268.057 91.3884 267.41 92.0359 266.619 92.0359C265.827 92.0359 265.18 91.3884 265.18 90.597C265.18 89.8057 265.827 89.1582 266.619 89.1582C267.41 89.1582 268.057 89.8057 268.057 90.597Z" fill="#77E2C3"/>
<path d="M263.081 85.5387C263.081 86.5818 262.242 87.4212 261.199 87.4212C260.156 87.4212 259.316 86.5818 259.316 85.5387C259.316 84.4955 260.156 83.6562 261.199 83.6562C262.242 83.6682 263.081 84.5075 263.081 85.5387Z" fill="#77E2C3"/>
<path d="M361.822 82.7083L362.841 77.1448V76.6292C362.793 72.8163 361.69 69.7348 359.1 66.1378V62.0011C359.1 60.5503 357.829 59.3633 356.27 59.3633H348.956C347.553 59.3633 346.294 60.2146 345.862 61.4496C345.563 62.3249 344.783 62.7685 343.992 62.8165C343.98 62.8165 343.968 62.8165 343.956 62.8165C343.848 62.8165 343.74 62.8165 343.632 62.8045V62.8165C342.529 62.7925 341.702 62.4208 341.486 61.4496C341.054 60.2026 339.807 59.3633 338.393 59.3633H331.079C329.52 59.3633 328.249 60.5383 328.249 62.0011V66.1378C325.659 69.7348 324.556 72.8163 324.508 76.6292V77.1448L325.527 82.7083L324.52 90.7298L324.508 98.6674L327.517 101.629H340.095L340.934 100.826C341.69 100.106 342.661 99.7105 343.644 99.6266C344.651 99.6985 345.635 100.094 346.402 100.826L347.241 101.629H347.913H353.476H359.819L362.829 98.6674L362.817 90.7298L361.822 82.7083Z" fill="#77E2C3"/>
<path d="M338.106 62.4922H331.871V66.6288H338.106V62.4922Z" fill="#008C95"/>
<path d="M328.199 97.8876L329.051 98.7389H330.741L331.592 97.8876H333.295L334.134 98.7389H335.837L336.676 97.8876H338.379L339.218 98.7389H340.921L341.76 97.8876V91.6406H328.199V97.8876Z" fill="white"/>
<path d="M338.524 68.418H331.45C329.352 71.3196 328.213 73.8735 328.213 77.4586H341.774C341.762 73.8735 340.623 71.3196 338.524 68.418Z" fill="white"/>
<path d="M328.213 77.457C328.213 77.469 328.213 77.469 328.213 77.481L329.244 83.1884L328.213 91.6295H341.774L340.755 83.1884L341.774 77.481C341.774 77.469 341.774 77.469 341.774 77.457H328.213Z" fill="#008C95"/>
<path d="M355.047 62.4336H348.812V66.5702H355.047V62.4336Z" fill="#008C95"/>
<path d="M345.154 97.839L345.994 98.6903H347.696L348.536 97.839H350.238L351.089 98.6903H352.78L353.631 97.839H355.322L356.173 98.6903H357.864L358.715 97.839V91.5801H345.154V97.839Z" fill="white"/>
<path d="M355.466 68.3555H348.392C346.293 71.2571 345.154 73.811 345.154 77.3961H358.715C358.703 73.823 357.576 71.2571 355.466 68.3555Z" fill="white"/>
<path d="M345.154 77.4102C345.154 77.4221 345.154 77.4222 345.154 77.4342L346.185 83.1415L345.154 91.5827H358.715L357.696 83.1415L358.715 77.4342C358.715 77.4222 358.715 77.4221 358.715 77.4102H345.154Z" fill="#008C95"/>
<path d="M441.219 73.3066H409.193V99.8651H441.219V73.3066Z" fill="#77E2C3"/>
<path d="M444.1 71.0039H406.318V77.4667H444.1V71.0039Z" fill="#77E2C3"/>
<path d="M416.111 61.1387L421.771 61.4864L426.075 71.0666L423.785 71.2824L418.497 63.4288L416.111 61.1387Z" fill="#008C95"/>
<path d="M413.283 67.6853L416.113 61.1387L418.691 63.2729L416.928 66.2105L424.338 71.0066H419.015L413.283 67.6853Z" fill="#008C95"/>
<path d="M435.189 61.1387L429.529 61.4864L425.213 71.0666L427.515 71.2824L432.791 63.4288L435.189 61.1387Z" fill="#008C95"/>
<path d="M438.004 67.6853L435.187 61.1387L432.597 63.2729L434.371 66.2105L426.949 71.0066H432.273L438.004 67.6853Z" fill="#008C95"/>
<path d="M427.719 71.0039H422.707V99.8645H427.719V71.0039Z" fill="#008C95"/>
<path d="M437.67 491.792V484.394L443.977 480.701V488.111L437.67 491.792Z" fill="#008C95"/>
<path d="M435.893 492.824L429.586 496.505V489.107L435.893 485.426V492.824Z" fill="#008C95"/>
<path d="M437.67 493.841L443.977 490.16V497.198L437.67 500.879V493.841Z" fill="#008C95"/>
<path d="M435.893 494.875V501.925L429.586 505.606V498.568L435.893 494.875Z" fill="#008C95"/>
<path d="M437.67 491.792V484.394L443.977 480.701V488.111L437.67 491.792Z" fill="#77E2C3"/>
<path d="M435.893 492.824L429.586 496.505V489.107L435.893 485.426V492.824Z" fill="#77E2C3"/>
<path d="M437.67 493.841L443.977 490.16V497.198L437.67 500.879V493.841Z" fill="#77E2C3"/>
<path d="M435.893 494.875V501.925L429.586 505.606V498.568L435.893 494.875Z" fill="#77E2C3"/>
<path d="M419.697 491.792V484.394L413.391 480.701V488.111L419.697 491.792Z" fill="#008C95"/>
<path d="M421.469 492.824L427.776 496.505V489.107L421.469 485.426V492.824Z" fill="#008C95"/>
<path d="M419.697 493.841L413.391 490.16V497.198L419.697 500.879V493.841Z" fill="#008C95"/>
<path d="M421.469 494.875V501.925L427.776 505.606V498.568L421.469 494.875Z" fill="#008C95"/>
<path d="M426.902 479.106L420.679 482.691L414.336 479.022L420.559 475.449L426.902 479.106Z" fill="#77E2C3"/>
<path d="M428.654 478.1L422.299 474.443L428.522 470.857L434.877 474.526L428.654 478.1Z" fill="#77E2C3"/>
<path d="M430.4 479.106L436.623 475.533L442.966 479.19L436.743 482.775L430.4 479.106Z" fill="#77E2C3"/>
<path d="M428.653 480.113L435.007 483.782L428.785 487.355L422.43 483.698L428.653 480.113Z" fill="#77E2C3"/>
<path d="M351.94 425.401L351.064 410.09H363.426L362.539 425.401H351.94Z" fill="#008C95"/>
<path d="M365.188 408.16H349.289V411.086H365.188V408.16Z" fill="#77E2C3"/>
<path d="M342.345 387.766H335.895V392.25H342.345V387.766Z" fill="#008C95"/>
<path d="M331.232 424.575L332.216 425.558H334.194L335.177 424.575H337.144L338.127 425.558H340.105L341.088 424.575H343.055L344.038 425.558H346.004L347 424.575V416.781H331.232V424.575Z" fill="#77E2C3"/>
<path d="M343.232 392.248H335.007C332.561 395.605 331.254 398.567 331.242 402.716H346.997C346.985 398.567 345.666 395.605 343.232 392.248Z" fill="#77E2C3"/>
<path d="M331.242 402.715C331.242 402.727 331.242 402.739 331.242 402.739V415.58V416.779H346.997V415.58V402.739C346.997 402.727 346.997 402.715 346.997 402.715H331.242Z" fill="#008C95"/>
<path d="M343.594 306.387H337.191V310.835H343.594V306.387Z" fill="#008C95"/>
<path d="M359.434 314.887H353.031V319.335H359.434V314.887Z" fill="#008C95"/>
<path d="M332.572 342.923L333.543 343.906H335.498L336.481 342.923H338.436L339.419 343.906H341.373L342.344 342.923H344.299L345.282 343.906H347.236L348.208 342.923V335.201H332.572V342.923Z" fill="#77E2C3"/>
<path d="M344.479 310.836H336.313C333.891 314.169 332.584 317.107 332.572 321.231H348.208C348.208 317.107 346.901 314.169 344.479 310.836Z" fill="#77E2C3"/>
<path d="M332.572 321.23C332.572 321.242 332.572 321.254 332.572 321.254V334V335.199H348.22V334V321.254C348.22 321.242 348.22 321.23 348.22 321.23H332.572Z" fill="#008C95"/>
<path d="M350.717 343.173L351.4 343.904H352.779L353.475 343.173H354.841L355.537 343.904H356.916L357.599 343.173H358.978L359.673 343.904H361.04L361.736 343.173V337.43H350.717V343.173Z" fill="#77E2C3"/>
<path d="M359.098 319.336H353.343C351.64 321.818 350.717 324 350.717 327.058H361.736C361.724 324 360.813 321.818 359.098 319.336Z" fill="#77E2C3"/>
<path d="M350.717 327.059C350.717 327.071 350.717 327.071 350.717 327.083L351.556 329.804L350.717 337.442H361.736L360.897 329.804L361.736 327.083C361.736 327.071 361.736 327.071 361.736 327.059H350.717Z" fill="#008C95"/>
<path d="M33.2138 422.894H9.0175L5.74414 411.516H36.4752L33.2138 422.894Z" fill="#008C95"/>
<path d="M27.5536 390.426L4.83203 398.771L5.7073 410.617L34.5559 400.018L27.5536 390.426Z" fill="#77E2C3"/>
<path d="M39.0427 408.688H3V412.608H39.0427V408.688Z" fill="#77E2C3"/>
<path d="M36.7201 395.919L3.02734 408.725L4.41615 412.379L38.1089 399.573L36.7201 395.919Z" fill="#77E2C3"/>
<path d="M10.5662 399.716L7.70703 400.766L9.57463 405.854L12.4338 404.804L10.5662 399.716Z" fill="white"/>
<path d="M15.8962 397.749L13.0371 398.799L14.9047 403.887L17.7638 402.837L15.8962 397.749Z" fill="white"/>
<path d="M21.2361 395.792L18.377 396.842L20.2446 401.93L23.1037 400.88L21.2361 395.792Z" fill="white"/>
<path d="M26.5701 393.837L23.7109 394.887L25.5785 399.975L28.4377 398.925L26.5701 393.837Z" fill="white"/>
<path d="M14.0162 414.982H10.9707V420.402H14.0162V414.982Z" fill="white"/>
<path d="M19.6979 414.982H16.6523V420.402H19.6979V414.982Z" fill="white"/>
<path d="M25.3834 414.982H22.3379V420.402H25.3834V414.982Z" fill="white"/>
<path d="M31.0651 414.982H28.0195V420.402H31.0651V414.982Z" fill="white"/>
<path d="M115.241 320.452C115.241 320.992 115.217 321.519 115.157 322.047C114.39 329.721 108.155 335.776 100.409 336.267C100.073 336.291 99.7376 336.303 99.3899 336.303C99.0542 336.303 98.7065 336.291 98.3827 336.267C90.1094 335.74 83.5508 328.869 83.5508 320.464C83.5508 312.059 90.0975 305.177 98.3827 304.661H98.3947C98.7185 304.637 99.0542 304.625 99.3899 304.625C99.7256 304.625 100.061 304.637 100.397 304.661H100.409C108.538 305.177 115.013 311.819 115.229 320.032C115.241 320.152 115.241 320.308 115.241 320.452Z" fill="#77E2C3"/>
<path d="M107.983 320.45C107.983 320.738 107.971 321.026 107.935 321.314C107.515 325.474 104.134 328.76 99.9374 329.023C99.7575 329.035 99.5777 329.035 99.3858 329.035C99.194 329.035 99.0141 329.023 98.8343 329.023C94.3499 328.736 90.8008 325.007 90.8008 320.45C90.8008 315.894 94.3499 312.165 98.8343 311.889H98.8463C99.0261 311.877 99.206 311.865 99.3858 311.865C99.5657 311.865 99.7455 311.877 99.9254 311.889H99.9374C104.35 312.165 107.851 315.774 107.971 320.222C107.983 320.294 107.983 320.366 107.983 320.45Z" fill="white"/>
<path d="M108.07 341.505L102.123 347.452C101.367 347.704 100.504 346.397 100.996 344.395C101.631 342.309 102.099 341.361 103.693 339.611C107.291 335.954 111.511 333.376 112.698 332.692L122.314 323.076L124.401 325.163L115.048 334.515L108.07 341.505Z" fill="#77E2C3"/>
<path d="M119.124 320.282L117.841 318.999L111.558 325.281L110.623 324.346L116.905 318.063L115.623 316.78L109.34 323.075L108.237 321.972L114.519 315.689L113.236 314.406L106.954 320.701L105.587 322.068C104.46 323.195 104.34 324.946 105.239 326.205L92.4453 338.998L94.5316 341.097L107.337 328.303C108.596 329.19 110.347 329.082 111.474 327.955L111.738 327.691L112.841 326.588L119.124 320.282Z" fill="#77E2C3"/>
<path d="M115.191 321.649L111.558 325.282L110.623 324.347L115.227 319.742C115.191 318.963 115.107 318.196 114.963 317.452L109.352 323.064L108.249 321.961L114.531 315.678C114.531 315.666 114.519 315.654 114.519 315.642L113.26 314.383L106.978 320.666L105.611 322.033C104.484 323.16 104.364 324.91 105.263 326.169L95.6348 335.797C96.534 336.013 97.4573 336.169 98.4165 336.229C98.7283 336.253 99.04 336.253 99.3638 336.253L107.349 328.268C108.608 329.155 110.359 329.047 111.486 327.92L111.75 327.656L112.853 326.553L114.663 324.742C114.915 323.867 115.083 322.956 115.179 322.021C115.179 321.913 115.179 321.781 115.191 321.649Z" fill="#008C95"/>
<path d="M200.525 321.889H167.672C167.228 322.332 166.989 322.572 166.545 323.016V338.735H201.64V323.016C201.209 322.584 200.969 322.332 200.525 321.889Z" fill="#77E2C3"/>
<path d="M191.078 334.936C191.078 338.437 193.284 341.267 196.006 341.267C198.728 341.267 200.934 338.437 200.934 334.936C200.934 331.435 198.728 328.606 196.006 328.606C193.284 328.594 191.078 331.435 191.078 334.936Z" fill="white"/>
<path d="M179.158 334.936C179.158 338.437 181.364 341.267 184.086 341.267C186.808 341.267 189.014 338.437 189.014 334.936C189.014 331.435 186.808 328.606 184.086 328.606C181.364 328.594 179.158 331.435 179.158 334.936Z" fill="white"/>
<path d="M167.275 334.936C167.275 338.437 169.482 341.267 172.203 341.267C174.925 341.267 177.131 338.437 177.131 334.936C177.131 331.435 174.925 328.606 172.203 328.606C169.482 328.594 167.275 331.435 167.275 334.936Z" fill="white"/>
<path d="M191.485 342.081H200.525C200.969 341.638 201.209 341.398 201.652 340.954V335.391H190.357V340.954C190.801 341.398 191.041 341.65 191.485 342.081Z" fill="#008C95"/>
<path d="M179.627 342.081H188.679C189.123 341.638 189.363 341.398 189.807 340.954V335.391H178.512V340.954C178.943 341.398 179.183 341.65 179.627 342.081Z" fill="#008C95"/>
<path d="M167.683 342.081H176.736C177.18 341.638 177.42 341.398 177.863 340.954V335.391H166.568V340.954C167 341.398 167.24 341.65 167.683 342.081Z" fill="#008C95"/>
<path d="M193.788 335.391H171.486V339.971H193.788V335.391Z" fill="#008C95"/>
<path d="M203.739 335.391H164.447V337.081H203.739V335.391Z" fill="#008C95"/>
<path d="M176.738 308.209H167.686C167.242 308.653 167.002 308.892 166.559 309.336V314.9H177.865V309.336L176.738 308.209Z" fill="#008C95"/>
<path d="M189.086 308.209H179.027C178.571 308.665 178.307 308.928 177.852 309.384V314.9H190.261V309.384C189.806 308.928 189.554 308.665 189.086 308.209Z" fill="#008C95"/>
<path d="M200.707 308.209H191.319C190.875 308.653 190.623 308.904 190.18 309.348V314.9H201.846V309.348C201.403 308.904 201.151 308.653 200.707 308.209Z" fill="#008C95"/>
<path d="M196.726 310.32H174.424V314.901H196.726V310.32Z" fill="#008C95"/>
<path d="M191.078 317.202C191.078 320.703 193.284 323.533 196.006 323.533C198.728 323.533 200.934 320.703 200.934 317.202C200.934 313.701 198.728 310.871 196.006 310.871C193.284 310.871 191.078 313.701 191.078 317.202Z" fill="white"/>
<path d="M179.158 317.202C179.158 320.703 181.364 323.533 184.086 323.533C186.808 323.533 189.014 320.703 189.014 317.202C189.014 313.701 186.808 310.871 184.086 310.871C181.364 310.871 179.158 313.701 179.158 317.202Z" fill="white"/>
<path d="M167.275 317.202C167.275 320.703 169.482 323.533 172.203 323.533C174.925 323.533 177.131 320.703 177.131 317.202C177.131 313.701 174.925 310.871 172.203 310.871C169.482 310.871 167.275 313.701 167.275 317.202Z" fill="white"/>
<path d="M193.788 317.67H171.486V322.25H193.788V317.67Z" fill="#008C95"/>
<path d="M203.739 317.67H164.447V319.361H203.739V317.67Z" fill="#008C95"/>
<path d="M176.738 326.05H167.686C167.242 325.606 167.002 325.367 166.559 324.923V319.359H177.865V324.923C177.422 325.367 177.17 325.606 176.738 326.05Z" fill="#008C95"/>
<path d="M189.086 326.05H179.027C178.571 325.594 178.307 325.33 177.852 324.875V319.359H190.261V324.875C189.806 325.33 189.554 325.594 189.086 326.05Z" fill="#008C95"/>
<path d="M200.707 326.05H191.319C190.875 325.606 190.623 325.355 190.18 324.911V319.359H201.846V324.911C201.403 325.355 201.151 325.606 200.707 326.05Z" fill="#008C95"/>
<path d="M271.028 335.871L271.016 313.713L268.738 309.469H253.858L251.604 313.713L251.592 335.871C251.592 338.257 253.522 340.188 255.908 340.188H266.724C269.098 340.188 271.028 338.257 271.028 335.871Z" fill="#77E2C3"/>
<path d="M251.592 313.713H271.016L268.726 309.469H253.858L251.592 313.713Z" fill="#008C95"/>
<path d="M268.307 307.982H254.278C253.439 307.982 252.768 307.311 252.768 306.471V306.136C252.768 305.308 253.439 304.625 254.278 304.625H268.307C269.146 304.625 269.818 305.296 269.818 306.136V306.471C269.818 307.299 269.134 307.982 268.307 307.982Z" fill="#008C95"/>
<path d="M261.963 323.663H268.917V321.301C268.917 320.641 269.397 320.102 269.984 320.102H276.327C276.915 320.102 277.394 320.641 277.394 321.301V323.603H277.67C278.761 323.603 279.648 324.49 279.648 325.581V343.123C279.648 344.49 278.545 345.605 277.178 345.605L262.466 345.653C261.1 345.653 259.984 344.55 259.984 343.171V325.629C259.973 324.55 260.86 323.663 261.963 323.663ZM275.188 321.756H271.075V323.603H275.188V321.756Z" fill="#77E2C3"/>
<path d="M267.265 319.863H262.014V322.453H267.265V319.863Z" fill="#008C95"/>
<path d="M266.711 340.185C269.097 340.185 271.027 338.255 271.027 335.869L271.015 320.102H269.972C269.385 320.102 268.917 320.641 268.917 321.301V323.663H261.963C260.872 323.663 259.984 324.55 259.984 325.641V340.173H266.711V340.185Z" fill="#008C95"/>
<path d="M30.67 324.613H10.2985L7.55273 311.963H33.4157L30.67 324.613Z" fill="#77E2C3"/>
<path d="M35.5617 309.924H5.23828V314.001H35.5617V309.924Z" fill="#008C95"/>
<path d="M33.1152 340.367H9.09871L5.86133 325.451H36.3646L33.1152 340.367Z" fill="#77E2C3"/>
<path d="M38.8978 323.414H3.13086V327.491H38.8978V323.414Z" fill="#008C95"/>
<path d="M254.145 396.362H277.082L274.336 390.223H256.878L254.145 396.362Z" fill="#77E2C3"/>
<path d="M277.143 398.926H254.086C254.086 398.926 254.062 415.508 254.074 415.832H277.155L277.143 398.926Z" fill="#77E2C3"/>
<path d="M257.624 426.515H273.607C275.274 426.515 276.676 424.933 276.808 422.87L277.108 418.422H254.135C254.135 418.458 254.279 420.724 254.411 422.858C254.554 424.921 255.945 426.515 257.624 426.515Z" fill="#77E2C3"/>
<path d="M274.334 390.222H256.876C255.941 390.222 255.174 389.454 255.174 388.519C255.174 387.572 255.941 386.816 256.876 386.816H274.334C275.269 386.816 276.037 387.584 276.037 388.519C276.037 389.454 275.269 390.222 274.334 390.222Z" fill="#008C95"/>
<path d="M428.689 337.861H427.311V339.24H430.056V337.861H428.689Z" fill="white"/>
<path d="M444.442 342.549H440.761V339.659H416.613V342.549H412.932V335.99H444.442V342.549Z" fill="#008C95"/>
<path d="M430.523 337.826H426.842V342.55H430.523V337.826Z" fill="#008C95"/>
<path d="M427.31 310.486H415.68V322.117H427.31V310.486Z" fill="#77E2C3"/>
<path d="M441.685 310.486H430.055V322.117H441.685V310.486Z" fill="#008C95"/>
<path d="M427.31 324.863H415.68V335.99H427.31V324.863Z" fill="#008C95"/>
<path d="M441.685 324.863H430.055V335.99H441.685V324.863Z" fill="#77E2C3"/>
<path d="M444.013 412.645L447.718 414.815L428.689 425.954L409.648 414.815L413.306 412.681V413.808L428.689 422.764L444.013 413.808V412.645Z" fill="#008C95"/>
<path d="M437.68 408.377V400.955L444.011 397.25V404.684L437.68 408.377Z" fill="#008C95"/>
<path d="M435.893 409.418L429.562 413.111V405.689L435.893 401.984V409.418Z" fill="#008C95"/>
<path d="M437.68 410.439L444.011 406.746V413.808L437.68 417.513V410.439Z" fill="#008C95"/>
<path d="M435.893 411.48V418.555L429.562 422.248V415.173L435.893 411.48Z" fill="#008C95"/>
<path d="M437.68 408.377V400.955L444.011 397.25V404.684L437.68 408.377Z" fill="#77E2C3"/>
<path d="M435.893 409.418L429.562 413.111V405.689L435.893 401.984V409.418Z" fill="#77E2C3"/>
<path d="M437.68 410.439L444.011 406.746V413.808L437.68 417.513V410.439Z" fill="#77E2C3"/>
<path d="M435.893 411.48V418.555L429.562 422.248V415.173L435.893 411.48Z" fill="#77E2C3"/>
<path d="M419.637 408.377V400.955L413.307 397.25V404.684L419.637 408.377Z" fill="#008C95"/>
<path d="M421.422 409.418L427.753 413.111V405.689L421.422 401.984V409.418Z" fill="#008C95"/>
<path d="M421.422 411.48V418.555L427.753 422.248V415.173L421.422 411.48Z" fill="#008C95"/>
<path d="M426.866 395.656L420.619 399.241L414.252 395.572L420.499 391.975L426.866 395.656Z" fill="#77E2C3"/>
<path d="M428.631 394.635L422.252 390.966L428.499 387.369L434.866 391.05L428.631 394.635Z" fill="#77E2C3"/>
<path d="M430.377 395.656L436.624 392.059L442.991 395.74L436.744 399.325L430.377 395.656Z" fill="#77E2C3"/>
<path d="M428.618 396.662L434.997 400.343L428.75 403.928L422.383 400.259L428.618 396.662Z" fill="#77E2C3"/>
<path d="M419.637 410.439L413.307 406.746V413.808L419.637 417.513V410.439Z" fill="#008C95"/>
<path d="M442.046 569.98L447.718 573.302L428.689 584.441L409.648 573.302L415.332 569.98V573.038L428.689 580.772L442.046 573.038V569.98Z" fill="#77E2C3"/>
<path d="M409.648 573.301V574.728V576.226V578.684L413.461 580.915V578.457L417.262 580.687V583.145L421.075 585.375V582.917L424.876 585.135V587.593L428.689 589.823V587.365V585.855V584.44L409.648 573.301Z" fill="#008C95"/>
<path d="M447.716 573.301V574.728V576.226V578.684L443.915 580.915V578.457L440.102 580.687V583.145L436.301 585.375V582.917L432.488 585.135V587.593L428.688 589.823V587.365V585.855V584.44L447.716 573.301Z" fill="#008C95"/>
<path d="M441.136 557.044L428.69 549.838L416.256 557.044L428.69 564.238L441.136 557.044Z" fill="#77E2C3"/>
<path d="M428.688 566.372V580.772L442.045 573.039V558.65L428.688 566.372Z" fill="#008C95"/>
<path d="M415.328 558.639V573.039L428.685 580.773V566.372L415.328 558.639Z" fill="#008C95"/>
<path d="M31.8965 631.406H3V664.188H31.8965V631.406Z" fill="#77E2C3"/>
<path d="M10.5527 643.852H7.19543C6.28417 643.852 5.55273 643.12 5.55273 642.209V638.852C5.55273 637.94 6.28417 637.209 7.19543 637.209H10.5527C11.4639 637.209 12.1953 637.952 12.1953 638.852V642.209C12.1953 643.12 11.4639 643.852 10.5527 643.852Z" fill="white"/>
<path d="M19.0761 643.852H15.7188C14.8076 643.852 14.0762 643.12 14.0762 642.209V638.852C14.0762 637.94 14.8076 637.209 15.7188 637.209H19.0761C19.9874 637.209 20.7188 637.952 20.7188 638.852V642.209C20.7188 643.12 19.9874 643.852 19.0761 643.852Z" fill="white"/>
<path d="M27.6015 643.852H24.2443C23.333 643.852 22.6016 643.12 22.6016 642.209V638.852C22.6016 637.94 23.333 637.209 24.2443 637.209H27.6015C28.5128 637.209 29.2442 637.952 29.2442 638.852V642.209C29.2562 643.12 28.5128 643.852 27.6015 643.852Z" fill="white"/>
<path d="M10.5527 652.258H7.19543C6.28417 652.258 5.55273 651.526 5.55273 650.615V647.258C5.55273 646.347 6.28417 645.615 7.19543 645.615H10.5527C11.4639 645.615 12.1953 646.347 12.1953 647.258V650.615C12.1953 651.514 11.4639 652.258 10.5527 652.258Z" fill="white"/>
<path d="M19.0761 652.258H15.7188C14.8076 652.258 14.0762 651.526 14.0762 650.615V647.258C14.0762 646.347 14.8076 645.615 15.7188 645.615H19.0761C19.9874 645.615 20.7188 646.347 20.7188 647.258V650.615C20.7188 651.514 19.9874 652.258 19.0761 652.258Z" fill="white"/>
<path d="M27.6015 652.258H24.2443C23.333 652.258 22.6016 651.526 22.6016 650.615V647.258C22.6016 646.347 23.333 645.615 24.2443 645.615H27.6015C28.5128 645.615 29.2442 646.347 29.2442 647.258V650.615C29.2562 651.514 28.5128 652.258 27.6015 652.258Z" fill="white"/>
<path d="M10.5527 660.662H7.19543C6.28417 660.662 5.55273 659.931 5.55273 659.02V655.662C5.55273 654.751 6.28417 654.02 7.19543 654.02H10.5527C11.4639 654.02 12.1953 654.751 12.1953 655.662V659.02C12.1953 659.919 11.4639 660.662 10.5527 660.662Z" fill="white"/>
<path d="M19.0761 660.662H15.7188C14.8076 660.662 14.0762 659.931 14.0762 659.02V655.662C14.0762 654.751 14.8076 654.02 15.7188 654.02H19.0761C19.9874 654.02 20.7188 654.751 20.7188 655.662V659.02C20.7188 659.919 19.9874 660.662 19.0761 660.662Z" fill="white"/>
<path d="M9.81021 643.277H7.92773V646.491H9.81021V643.277Z" fill="white"/>
<path d="M14.7974 639.584H11.584V641.466H14.7974V639.584Z" fill="white"/>
<path d="M14.5923 647.832H11.3789V649.715H14.5923V647.832Z" fill="white"/>
<path d="M14.5923 656.406H11.3789V658.289H14.5923V656.406Z" fill="white"/>
<path d="M23.4673 639.584H20.2539V641.466H23.4673V639.584Z" fill="white"/>
<path d="M23.2622 647.832H20.0488V649.715H23.2622V647.832Z" fill="white"/>
<path d="M18.3473 643.277H16.4648V646.491H18.3473V643.277Z" fill="white"/>
<path d="M13.875 631.406V633.541C13.875 634.416 14.5824 635.123 15.4577 635.123H16.5488V642.449H18.2395V635.123H19.2346C20.1099 635.123 20.8174 634.416 20.8174 633.541V631.406H13.875Z" fill="white"/>
<path d="M26.8727 643.277H24.9902V646.491H26.8727V643.277Z" fill="white"/>
<path d="M9.81021 651.574H7.92773V654.788H9.81021V651.574Z" fill="white"/>
<path d="M18.3473 651.574H16.4648V654.788H18.3473V651.574Z" fill="white"/>
<path d="M39.3522 664.56L37.0261 666.094L33.6928 664.188L37.0261 662.27L39.3522 663.804L40.3354 662.318L38.7647 661.25L40.1196 660.471L39.2203 658.9L37.8534 659.704L37.7455 657.809L35.947 657.905L36.1148 660.699L32.8055 662.629V658.792L35.2995 657.545L34.4841 655.915L32.8055 656.766V655.195H31.007V656.766L29.2924 655.915L28.489 657.545L31.007 658.792V662.629L27.6737 660.699L27.8416 657.905L26.043 657.809L25.9231 659.704L24.5682 658.9L23.6569 660.471L25.0238 661.25L23.4531 662.318L24.4363 663.804L26.7624 662.27L30.0957 664.188L26.7624 666.094L24.4363 664.56L23.4531 666.058L25.0238 667.126L23.6569 667.893L24.5682 669.464L25.9231 668.672L26.043 670.567L27.8416 670.471L27.6737 667.665L31.007 665.735V669.584L28.489 670.831L29.2924 672.461L31.007 671.61V673.181H32.8055V671.61L34.4841 672.461L35.2995 670.831L32.8055 669.584V665.735L36.1148 667.665L35.947 670.471L37.7455 670.567L37.8534 668.672L39.2203 669.464L40.1196 667.893L38.7647 667.126L40.3354 666.058L39.3522 664.56Z" fill="#77E2C3"/>
<path d="M31.007 655.195V656.766L29.2924 655.915L28.489 657.545L31.007 658.792V662.629L27.6737 660.699L27.8416 657.905L26.043 657.809L25.9231 659.704L24.5682 658.9L23.6569 660.471L25.0238 661.25L23.4531 662.318L24.4363 663.804L26.7624 662.27L30.0957 664.188H31.8942V655.195H31.007Z" fill="#008C95"/>
<path d="M266.606 669.234H255.706C254.867 668.407 254.412 667.939 253.572 667.1V643.443L263.416 635.242C266.354 635.242 268.74 638.215 268.74 641.153V667.1C267.901 667.939 267.433 668.407 266.606 669.234Z" fill="#77E2C3"/>
<path d="M255.946 629.066L252.715 631.744L255.453 635.049L258.685 632.371L255.946 629.066Z" fill="#77E2C3"/>
<path d="M278.139 653.396C274.625 653.396 271.76 650.53 271.76 647.017H273.642C273.642 649.499 275.657 651.513 278.139 651.513V653.396Z" fill="#008C95"/>
<path d="M262.889 649.726V654.51L263.033 671.884C263.74 672.591 264.136 672.987 264.843 673.683H279.159L280.97 671.872V664.366L268.728 654.51V649.726H262.889Z" fill="#77E2C3"/>
<path d="M272.348 649.74H261.736V647.282C262.995 646.023 263.703 645.315 264.962 644.056H277.575V647.713H274.374C273.247 647.713 272.348 648.624 272.348 649.74Z" fill="#77E2C3"/>
<path d="M278.245 644.056H274.588V647.713H278.245V644.056Z" fill="#008C95"/>
<path d="M268.717 654.512V649.74H268.729V644.056H264.952C263.693 645.315 262.986 646.023 261.727 647.282V649.74H262.89V654.512L263.01 669.248H266.607C267.434 668.42 267.902 667.953 268.741 667.113V654.524L268.717 654.512Z" fill="#008C95"/>
<path d="M268.716 649.726H262.889V654.51H268.716V649.726Z" fill="#008C95"/>
<path d="M258.991 630.475L253.498 635.027L256.237 638.332L261.73 633.78L258.991 630.475Z" fill="#008C95"/>
<path d="M114.714 670.232L117.088 668.266H112.34L114.714 670.232Z" fill="#77E2C3"/>
<path d="M109.962 670.232L112.336 668.266H107.576L109.962 670.232Z" fill="#77E2C3"/>
<path d="M105.202 670.232L107.576 668.266H102.828L105.202 670.232Z" fill="#77E2C3"/>
<path d="M100.454 670.232L102.828 668.266H98.0684L100.454 670.232Z" fill="#77E2C3"/>
<path d="M117.085 668.265V643.457L106.39 652.366L98.0684 647.462V668.265H117.085Z" fill="#77E2C3"/>
<path d="M106.391 632.582H98.801C92.8898 632.582 88.0938 637.45 88.0938 643.457C88.0938 649.464 92.8898 654.332 98.801 654.332H106.391L97.7939 643.457L106.391 632.582Z" fill="#008C95"/>
<path d="M106.392 632.582C106.38 632.582 106.38 632.582 106.392 632.582V637.666C109.545 637.666 112.087 640.256 112.087 643.457C112.087 646.659 109.533 649.249 106.392 649.249V654.332C112.303 654.332 117.099 649.464 117.099 643.457C117.087 637.45 112.303 632.582 106.392 632.582Z" fill="#77E2C3"/>
<path d="M106.393 632.582V637.666C103.239 637.666 100.697 640.256 100.697 643.457C100.697 646.659 103.251 649.249 106.393 649.249V654.332C100.482 654.332 95.6855 649.464 95.6855 643.457C95.6855 637.45 100.482 632.582 106.393 632.582Z" fill="#77E2C3"/>
<path d="M84.3789 745.064L86.3453 747.438V742.689L84.3789 745.064Z" fill="#77E2C3"/>
<path d="M84.3789 740.314L86.3453 742.688V737.939L84.3789 740.314Z" fill="#77E2C3"/>
<path d="M84.3789 735.556L86.3453 737.93V733.182L84.3789 735.556Z" fill="#77E2C3"/>
<path d="M84.3789 730.806L86.3453 733.18V728.432L84.3789 730.806Z" fill="#77E2C3"/>
<path d="M86.3418 747.436H111.15L102.241 736.741L107.133 728.432H86.3418V747.436Z" fill="#77E2C3"/>
<path d="M122.026 736.74V729.151C122.026 723.239 117.158 718.443 111.151 718.443C105.143 718.443 100.275 723.239 100.275 729.151V736.74L111.151 728.143L122.026 736.74Z" fill="#008C95"/>
<path d="M122.026 736.74H116.942C116.942 739.894 114.352 742.436 111.151 742.436C107.949 742.436 105.359 739.882 105.359 736.74H100.275C100.275 742.651 105.143 747.448 111.151 747.448C117.158 747.448 122.026 742.651 122.026 736.74Z" fill="#77E2C3"/>
<path d="M122.026 736.74H116.942C116.942 733.587 114.352 731.045 111.151 731.045C107.949 731.045 105.359 733.599 105.359 736.74H100.275C100.275 730.829 105.143 726.033 111.151 726.033C117.158 726.033 122.026 730.829 122.026 736.74Z" fill="#77E2C3"/>
<path d="M200.252 642.486H179.701V668.325H200.252V642.486Z" fill="#77E2C3"/>
<path d="M184.447 649.944C183.105 649.944 182.025 648.841 182.025 647.474C182.025 646.107 183.117 645.004 184.447 645.004C185.778 645.004 186.87 646.107 186.87 647.474C186.87 648.841 185.778 649.944 184.447 649.944Z" fill="white"/>
<path d="M195.313 649.944C193.97 649.944 192.891 648.841 192.891 647.474C192.891 646.107 193.982 645.004 195.313 645.004C196.656 645.004 197.735 646.107 197.735 647.474C197.735 648.841 196.644 649.944 195.313 649.944Z" fill="white"/>
<path d="M184.447 657.583C183.105 657.583 182.025 656.479 182.025 655.113C182.025 653.746 183.117 652.643 184.447 652.643C185.778 652.643 186.87 653.746 186.87 655.113C186.87 656.479 185.778 657.583 184.447 657.583Z" fill="white"/>
<path d="M195.313 657.583C193.97 657.583 192.891 656.479 192.891 655.113C192.891 653.746 193.982 652.643 195.313 652.643C196.656 652.643 197.735 653.746 197.735 655.113C197.735 656.479 196.644 657.583 195.313 657.583Z" fill="white"/>
<path d="M195.313 665.663C193.97 665.663 192.891 664.56 192.891 663.193C192.891 661.826 193.982 660.723 195.313 660.723C196.656 660.723 197.735 661.826 197.735 663.193C197.735 664.56 196.644 665.663 195.313 665.663Z" fill="white"/>
<path d="M190.191 665.22C189.771 665.22 189.424 664.884 189.424 664.452V645.76C189.424 645.34 189.759 644.992 190.191 644.992C190.623 644.992 190.959 645.328 190.959 645.76V664.452C190.947 664.884 190.611 665.22 190.191 665.22Z" fill="white"/>
<path d="M189.421 634.477H167.982V660.771H189.421V634.477Z" fill="#77E2C3"/>
<path d="M173.486 642.377C172.144 642.377 171.064 641.274 171.064 639.907C171.064 638.541 172.156 637.438 173.486 637.438C174.829 637.438 175.908 638.541 175.908 639.907C175.908 641.262 174.829 642.377 173.486 642.377Z" fill="white"/>
<path d="M184.354 642.377C183.011 642.377 181.932 641.274 181.932 639.907C181.932 638.541 183.023 637.438 184.354 637.438C185.685 637.438 186.776 638.541 186.776 639.907C186.788 641.262 185.697 642.377 184.354 642.377Z" fill="white"/>
<path d="M173.486 650.016C172.144 650.016 171.064 648.913 171.064 647.546C171.064 646.179 172.156 645.076 173.486 645.076C174.829 645.076 175.908 646.179 175.908 647.546C175.908 648.913 174.829 650.016 173.486 650.016Z" fill="white"/>
<path d="M184.354 650.016C183.011 650.016 181.932 648.913 181.932 647.546C181.932 646.179 183.023 645.076 184.354 645.076C185.685 645.076 186.776 646.179 186.776 647.546C186.788 648.913 185.697 650.016 184.354 650.016Z" fill="white"/>
<path d="M173.486 657.653C172.144 657.653 171.064 656.55 171.064 655.183C171.064 653.816 172.156 652.713 173.486 652.713C174.829 652.713 175.908 653.816 175.908 655.183C175.908 656.55 174.829 657.653 173.486 657.653Z" fill="white"/>
<path d="M184.354 657.653C183.011 657.653 181.932 656.55 181.932 655.183C181.932 653.816 183.023 652.713 184.354 652.713C185.685 652.713 186.776 653.816 186.776 655.183C186.776 656.55 185.697 657.653 184.354 657.653Z" fill="white"/>
<path d="M178.941 657.653C178.521 657.653 178.174 657.318 178.174 656.886V638.193C178.174 637.773 178.509 637.426 178.941 637.426C179.373 637.426 179.709 637.761 179.709 638.193V656.886C179.697 657.318 179.361 657.653 178.941 657.653Z" fill="white"/>
<path d="M189.425 642.486H179.701V660.759H189.425V642.486Z" fill="#008C95"/>
<path d="M184.447 649.944C183.105 649.944 182.025 648.841 182.025 647.474C182.025 646.107 183.117 645.004 184.447 645.004C185.778 645.004 186.87 646.107 186.87 647.474C186.87 648.841 185.778 649.944 184.447 649.944Z" fill="white"/>
<path d="M184.447 657.583C183.105 657.583 182.025 656.479 182.025 655.113C182.025 653.746 183.117 652.643 184.447 652.643C185.778 652.643 186.87 653.746 186.87 655.113C186.87 656.479 185.778 657.583 184.447 657.583Z" fill="white"/>
<path d="M184.447 665.663C183.105 665.663 182.025 664.56 182.025 663.193C182.025 661.826 183.117 660.723 184.447 660.723C185.778 660.723 186.87 661.826 186.87 663.193C186.87 664.56 185.778 665.663 184.447 665.663Z" fill="white"/>
</svg>
