<svg width="465" height="755" viewBox="0 0 465 755" fill="none" xmlns="http://www.w3.org/2000/svg">
<path d="M221.041 156.621C221.041 172.478 208.197 185.322 192.34 185.322C176.482 185.322 163.639 172.478 163.639 156.621C163.639 140.776 176.482 127.92 192.34 127.92C208.197 127.92 221.041 140.776 221.041 156.621Z" fill="white"/>
<path d="M194.1 141.398L175.514 159.984L188.925 173.396L207.511 154.809L194.1 141.398Z" fill="#77E2C3"/>
<path d="M198.344 145.634L181.348 162.631L186.278 167.561L203.274 150.564L198.344 145.634Z" fill="#008C95"/>
<path d="M213.951 150.62L211.607 150.739L211.547 150.68L211.667 148.336L209.335 148.455L209.454 146.123L207.11 146.243L207.23 143.899L204.886 144.019L205.006 141.675L202.674 141.794L202.793 139.462L200.449 139.582L200.569 137.238L198.225 137.358L198.345 135.014L198.189 135.026L197.041 136.174L195.391 137.824L194.111 141.4L207.517 154.805L211.093 153.526L212.743 151.876L213.951 150.668V150.62Z" fill="#008C95"/>
<path d="M186.325 178.23L186.444 175.898L186.385 175.838L184.053 175.958L184.172 173.614L181.828 173.734L181.948 171.39L179.604 171.509L179.723 169.177L177.392 169.297L177.511 166.953L175.167 167.073L175.287 164.729L172.943 164.848L173.062 162.516L170.73 162.636L170.742 162.469L171.879 161.32L173.541 159.67L177.105 158.391L190.522 171.796L189.243 175.372L187.58 177.022L186.373 178.23H186.325Z" fill="#008C95"/>
<path d="M465 481.961C465 497.818 452.156 510.662 436.299 510.662C420.441 510.662 407.598 497.818 407.598 481.961C407.598 466.103 420.441 453.26 436.299 453.26C452.156 453.26 465 466.115 465 481.961Z" fill="white"/>
<path d="M445.258 485.513V478.134L451.548 474.451V481.842L445.258 485.513Z" fill="#008C95"/>
<path d="M443.486 486.541L437.195 490.212V482.833L443.486 479.162V486.541Z" fill="#008C95"/>
<path d="M445.258 487.556L451.548 483.885V490.905L445.258 494.576V487.556Z" fill="#008C95"/>
<path d="M443.486 488.586V495.618L437.195 499.289V492.269L443.486 488.586Z" fill="#008C95"/>
<path d="M445.258 485.513V478.134L451.548 474.451V481.842L445.258 485.513Z" fill="#77E2C3"/>
<path d="M443.486 486.541L437.195 490.212V482.833L443.486 479.162V486.541Z" fill="#77E2C3"/>
<path d="M445.258 487.556L451.548 483.885V490.905L445.258 494.576V487.556Z" fill="#77E2C3"/>
<path d="M443.486 488.586V495.618L437.195 499.289V492.269L443.486 488.586Z" fill="#77E2C3"/>
<path d="M427.333 485.513V478.134L421.043 474.451V481.842L427.333 485.513Z" fill="#008C95"/>
<path d="M429.1 486.541L435.39 490.212V482.833L429.1 479.162V486.541Z" fill="#008C95"/>
<path d="M427.333 487.556L421.043 483.885V490.905L427.333 494.576V487.556Z" fill="#008C95"/>
<path d="M429.1 488.586V495.618L435.39 499.289V492.269L429.1 488.586Z" fill="#008C95"/>
<path d="M434.519 472.858L428.312 476.434L421.986 472.775L428.193 469.211L434.519 472.858Z" fill="#77E2C3"/>
<path d="M436.266 471.856L429.928 468.209L436.134 464.633L442.472 468.292L436.266 471.856Z" fill="#77E2C3"/>
<path d="M438.008 472.861L444.214 469.297L450.541 472.944L444.334 476.52L438.008 472.861Z" fill="#77E2C3"/>
<path d="M436.265 473.865L442.603 477.525L436.397 481.088L430.059 477.441L436.265 473.865Z" fill="#77E2C3"/>
<path d="M139.722 156.621C139.722 172.478 126.867 185.322 111.021 185.322C95.164 185.322 82.3203 172.478 82.3203 156.621C82.3203 140.776 95.164 127.92 111.021 127.92C126.867 127.92 139.722 140.776 139.722 156.621Z" fill="white"/>
<path d="M117.849 166.058H103.486V139.641H127.105V156.801L117.849 166.058Z" fill="#77E2C3"/>
<path d="M117.85 166.057V156.801H127.106L117.85 166.057Z" fill="#008C95"/>
<path d="M94.9375 148.061V165.197C94.9375 169.849 98.7643 173.616 103.488 173.616C108.212 173.616 112.039 169.849 112.039 165.197V148.061H94.9375Z" fill="#008C95"/>
<path d="M112.039 148.06C112.039 152.712 108.212 156.479 103.488 156.479C98.7643 156.479 94.9375 152.712 94.9375 148.06C94.9375 143.408 98.7643 139.641 103.488 139.641C108.212 139.641 112.039 143.408 112.039 148.06Z" fill="white"/>
<path d="M108.044 148.061C108.044 150.536 105.999 152.545 103.488 152.545C100.977 152.545 98.9316 150.536 98.9316 148.061C98.9316 145.585 100.977 143.576 103.488 143.576C106.011 143.576 108.044 145.585 108.044 148.061Z" fill="#77E2C3"/>
<path d="M383.681 400.605C383.681 416.463 370.838 429.306 354.98 429.306C339.123 429.306 326.279 416.463 326.279 400.605C326.279 384.748 339.123 371.904 354.98 371.904C370.838 371.904 383.681 384.748 383.681 400.605Z" fill="white"/>
<path d="M359.754 419.297L358.881 404.025H371.21L370.325 419.297H359.754Z" fill="#008C95"/>
<path d="M372.967 402.102H357.109V405.02H372.967V402.102Z" fill="#77E2C3"/>
<path d="M350.184 381.758H343.75V386.23H350.184V381.758Z" fill="#008C95"/>
<path d="M339.102 418.472L340.082 419.453H342.055L343.036 418.472H344.997L345.978 419.453H347.951L348.932 418.472H350.893L351.874 419.453H353.835L354.827 418.472V410.699H339.102V418.472Z" fill="#77E2C3"/>
<path d="M351.07 386.23H342.866C340.427 389.579 339.123 392.533 339.111 396.671H354.825C354.813 392.533 353.498 389.579 351.07 386.23Z" fill="#77E2C3"/>
<path d="M339.111 396.67C339.111 396.682 339.111 396.694 339.111 396.694V409.502V410.698H354.825V409.502V396.694C354.825 396.682 354.825 396.67 354.825 396.67H339.111Z" fill="#008C95"/>
<path d="M383.681 319.299C383.681 335.156 370.838 348 354.98 348C339.123 348 326.279 335.156 326.279 319.299C326.279 303.441 339.123 290.598 354.98 290.598C370.838 290.598 383.681 303.453 383.681 319.299Z" fill="white"/>
<path d="M351.429 300.594H345.043V305.03H351.429V300.594Z" fill="#008C95"/>
<path d="M367.228 309.072H360.842V313.509H367.228V309.072Z" fill="#008C95"/>
<path d="M340.438 337.033L341.406 338.014H343.355L344.336 337.033H346.285L347.266 338.014H349.215L350.184 337.033H352.133L353.114 338.014H355.063L356.032 337.033V329.332H340.438V337.033Z" fill="#77E2C3"/>
<path d="M352.313 305.031H344.169C341.753 308.356 340.449 311.286 340.438 315.399H356.032C356.032 311.286 354.728 308.356 352.313 305.031Z" fill="#77E2C3"/>
<path d="M340.438 315.398C340.438 315.41 340.438 315.422 340.438 315.422V328.135V329.33H356.044V328.135V315.422C356.044 315.41 356.044 315.398 356.044 315.398H340.438Z" fill="#008C95"/>
<path d="M358.535 337.283L359.217 338.012H360.592L361.286 337.283H362.649L363.343 338.012H364.718L365.399 337.283H366.775L367.468 338.012H368.832L369.525 337.283V331.555H358.535V337.283Z" fill="#77E2C3"/>
<path d="M366.894 313.51H361.154C359.456 315.985 358.535 318.162 358.535 321.211H369.525C369.513 318.162 368.604 315.985 366.894 313.51Z" fill="#77E2C3"/>
<path d="M358.535 321.211C358.535 321.223 358.535 321.223 358.535 321.235L359.372 323.95L358.535 331.567H369.525L368.688 323.95L369.525 321.235C369.525 321.223 369.525 321.223 369.525 321.211H358.535Z" fill="#008C95"/>
<path d="M58.4021 75.3026C58.4021 91.1599 45.5583 104.004 29.701 104.004C13.8437 104.004 1 91.1599 1 75.3026C1 59.4572 13.8437 46.6016 29.701 46.6016C45.5583 46.6016 58.4021 59.4572 58.4021 75.3026Z" fill="white"/>
<path d="M27.5739 54.2422H20.3867V59.2409H27.5739V54.2422Z" fill="#008C95"/>
<path d="M15.1973 95.2639L16.2975 96.364H18.4979L19.5861 95.2639H21.7866L22.8867 96.364H25.0752L26.1754 95.2639H28.3758L29.4641 96.364H31.6645L32.7647 95.2639V86.5938H15.1973V95.2639Z" fill="#77E2C3"/>
<path d="M28.5672 59.2422H19.3948C16.6682 62.9853 15.2092 66.2859 15.1973 70.914H32.7527C32.7527 66.2859 31.2818 62.9853 28.5672 59.2422Z" fill="#77E2C3"/>
<path d="M15.2109 70.9141C15.2109 70.926 15.2109 70.938 15.2109 70.9499V85.2526V86.592H44.2109V85.2526V70.9499C44.2109 70.938 44.2109 70.926 44.2109 70.9141H15.2109Z" fill="#008C95"/>
<path d="M139.722 75.3026C139.722 91.1599 126.867 104.004 111.021 104.004C95.164 104.004 82.3203 91.1599 82.3203 75.3026C82.3203 59.4572 95.164 46.6016 111.021 46.6016C126.867 46.6016 139.722 59.4572 139.722 75.3026Z" fill="white"/>
<path d="M115.712 55.9297H101.721V89.1751H127.348V67.5775L115.712 55.9297Z" fill="#77E2C3"/>
<path d="M115.711 55.9297V67.5775H127.347L115.711 55.9297Z" fill="#008C95"/>
<path d="M94.6992 62.8555V87.7656C94.6992 91.5804 97.8444 94.6777 101.719 94.6777C105.594 94.6777 108.739 91.5804 108.739 87.7656V62.8555H94.6992Z" fill="#008C95"/>
<path d="M108.739 62.8419C108.739 66.6567 105.594 69.754 101.719 69.754C97.8444 69.754 94.6992 66.6567 94.6992 62.8419C94.6992 59.027 97.8444 55.9297 101.719 55.9297C105.594 55.9297 108.739 59.027 108.739 62.8419Z" fill="white"/>
<path d="M105.459 62.8395C105.459 64.8725 103.785 66.5229 101.716 66.5229C99.6469 66.5229 97.9727 64.8725 97.9727 62.8395C97.9727 60.8065 99.6469 59.1562 101.716 59.1562C103.785 59.1682 105.459 60.8065 105.459 62.8395Z" fill="#77E2C3"/>
<path d="M221.041 75.3026C221.041 91.1599 208.197 104.004 192.34 104.004C176.482 104.004 163.639 91.1599 163.639 75.3026C163.639 59.4572 176.482 46.6016 192.34 46.6016C208.197 46.6016 221.041 59.4572 221.041 75.3026Z" fill="white"/>
<path d="M193.479 62.0928L179.121 76.4512L191.179 88.5095L205.538 74.1511L193.479 62.0928Z" fill="#77E2C3"/>
<path d="M191.181 88.5173L188.072 93.6476L173.996 79.5721L179.126 76.4629L191.181 88.5173Z" fill="#77E2C3"/>
<path d="M173.991 79.5737L170.16 83.4043L184.231 97.4752L188.062 93.6445L173.991 79.5737Z" fill="#008C95"/>
<path d="M193.49 62.0993L196.611 56.957L210.687 71.0325L205.545 74.1537L193.49 62.0993Z" fill="#77E2C3"/>
<path d="M200.43 53.1343L196.6 56.9648L210.67 71.0357L214.501 67.2051L200.43 53.1343Z" fill="#008C95"/>
<path d="M302.361 75.3026C302.361 91.1599 289.517 104.004 273.66 104.004C257.803 104.004 244.959 91.1599 244.959 75.3026C244.959 59.4572 257.803 46.6016 273.66 46.6016C289.517 46.6016 302.361 59.4572 302.361 75.3026Z" fill="white"/>
<path d="M267.085 52.7715L264.812 54.661H269.369L267.085 52.7715Z" fill="#77E2C3"/>
<path d="M262.524 52.7715L260.252 54.661H264.808L262.524 52.7715Z" fill="#77E2C3"/>
<path d="M271.639 52.7715L269.367 54.661H273.923L271.639 52.7715Z" fill="#77E2C3"/>
<path d="M276.198 52.7715L273.926 54.661H278.47L276.198 52.7715Z" fill="#77E2C3"/>
<path d="M280.753 52.7715L278.48 54.661H283.025L280.753 52.7715Z" fill="#77E2C3"/>
<path d="M285.31 52.7715L283.025 54.661H287.582L285.31 52.7715Z" fill="#77E2C3"/>
<path d="M273.419 72.0482L287.578 54.6602H260.252L273.419 72.0482Z" fill="#77E2C3"/>
<path d="M287.219 73.521V93.7792C287.219 96.0155 285.39 97.8452 283.153 97.8452H263.804C261.568 97.8452 259.738 96.0155 259.738 93.7792V73.521C259.738 71.2848 261.568 69.4551 263.804 69.4551H283.153C285.39 69.4551 287.219 71.2848 287.219 73.521Z" fill="#77E2C3"/>
<path d="M283.752 76.2134C283.752 75.0773 282.819 74.1445 281.683 74.1445H265.586C264.45 74.1445 263.518 75.0773 263.518 76.2134C263.518 77.0385 264.02 77.792 264.785 78.1148L264.773 78.7128V80.2435V93.3623C264.773 94.0559 265.335 94.6179 266.029 94.6179H281.48C282.173 94.6179 282.735 94.0559 282.735 93.3623V79.9206V78.641L282.771 77.9594C283.381 77.5887 283.752 76.9309 283.752 76.2134Z" fill="#008C95"/>
<path d="M272.716 89.1041C272.716 90.1445 271.879 90.9816 270.838 90.9816C269.798 90.9816 268.961 90.1445 268.961 89.1041C268.961 88.0636 269.798 87.2266 270.838 87.2266C271.879 87.2266 272.716 88.0636 272.716 89.1041Z" fill="#77E2C3"/>
<path d="M279.558 85.3725C279.558 86.1618 278.912 86.8076 278.123 86.8076C277.333 86.8076 276.688 86.1618 276.688 85.3725C276.688 84.5833 277.333 83.9375 278.123 83.9375C278.912 83.9375 279.558 84.5833 279.558 85.3725Z" fill="#77E2C3"/>
<path d="M274.593 80.3267C274.593 81.3671 273.756 82.2043 272.715 82.2043C271.675 82.2043 270.838 81.3671 270.838 80.3267C270.838 79.2863 271.675 78.4492 272.715 78.4492C273.756 78.4612 274.593 79.2983 274.593 80.3267Z" fill="#77E2C3"/>
<path d="M58.4021 400.605C58.4021 416.463 45.5583 429.306 29.701 429.306C13.8437 429.306 1 416.463 1 400.605C1 384.748 13.8437 371.904 29.701 371.904C45.5583 371.904 58.4021 384.748 58.4021 400.605Z" fill="white"/>
<path d="M41.8643 416.796H17.7316L14.4668 405.447H45.1171L41.8643 416.796Z" fill="#008C95"/>
<path d="M36.2185 384.412L13.5566 392.735L14.4296 404.551L43.2024 393.979L36.2185 384.412Z" fill="#77E2C3"/>
<path d="M47.6785 402.625H11.7305V406.536H47.6785V402.625Z" fill="#77E2C3"/>
<path d="M45.3621 389.892L11.7578 402.664L13.143 406.308L46.7472 393.536L45.3621 389.892Z" fill="#77E2C3"/>
<path d="M19.2774 393.678L16.4258 394.725L18.2885 399.799L21.1401 398.752L19.2774 393.678Z" fill="white"/>
<path d="M24.5918 391.715L21.7402 392.762L23.6029 397.836L26.4545 396.79L24.5918 391.715Z" fill="white"/>
<path d="M29.918 389.766L27.0664 390.812L28.9291 395.887L31.7807 394.84L29.918 389.766Z" fill="white"/>
<path d="M35.2384 387.817L32.3867 388.863L34.2494 393.938L37.1011 392.891L35.2384 387.817Z" fill="white"/>
<path d="M22.7192 408.904H19.6816V414.31H22.7192V408.904Z" fill="white"/>
<path d="M28.3852 408.904H25.3477V414.31H28.3852V408.904Z" fill="white"/>
<path d="M34.0551 408.904H31.0176V414.31H34.0551V408.904Z" fill="white"/>
<path d="M39.7231 408.904H36.6855V414.31H39.7231V408.904Z" fill="white"/>
<path d="M383.681 75.3026C383.681 91.1599 370.838 104.004 354.98 104.004C339.123 104.004 326.279 91.1599 326.279 75.3026C326.279 59.4572 339.123 46.6016 354.98 46.6016C370.838 46.6016 383.681 59.4572 383.681 75.3026Z" fill="white"/>
<path d="M373.075 77.5025L374.092 71.9536V71.4394C374.044 67.6365 372.944 64.5631 370.36 60.9754V56.8497C370.36 55.4026 369.093 54.2188 367.538 54.2188H360.243C358.844 54.2188 357.588 55.0678 357.158 56.2996C356.859 57.1726 356.082 57.615 355.292 57.6629C355.28 57.6629 355.268 57.6629 355.257 57.6629C355.149 57.6629 355.041 57.6629 354.934 57.6509V57.6629C353.833 57.639 353.008 57.2682 352.793 56.2996C352.363 55.0559 351.119 54.2188 349.708 54.2188H342.413C340.858 54.2188 339.591 55.3907 339.591 56.8497V60.9754C337.007 64.5631 335.907 67.6365 335.859 71.4394V71.9536L336.876 77.5025L335.871 85.5029L335.859 93.4196L338.861 96.3734H351.406L352.243 95.5721C352.996 94.8546 353.965 94.46 354.946 94.3763C355.95 94.448 356.931 94.8427 357.696 95.5721L358.533 96.3734H359.203H364.752H371.078L374.08 93.4196L374.068 85.5029L373.075 77.5025Z" fill="#77E2C3"/>
<path d="M349.422 57.3398H343.203V61.4656H349.422V57.3398Z" fill="#008C95"/>
<path d="M339.541 92.6446L340.39 93.4937H342.076L342.925 92.6446H344.623L345.461 93.4937H347.159L347.996 92.6446H349.694L350.531 93.4937H352.229L353.066 92.6446V86.4141H339.541V92.6446Z" fill="white"/>
<path d="M349.839 63.25H342.784C340.691 66.144 339.555 68.6912 339.555 72.2669H353.08C353.068 68.6912 351.932 66.144 349.839 63.25Z" fill="white"/>
<path d="M339.555 72.2656C339.555 72.2776 339.555 72.2776 339.555 72.2895L340.583 77.9819L339.555 86.4009H353.08L352.064 77.9819L353.08 72.2895C353.08 72.2776 353.08 72.2776 353.08 72.2656H339.555Z" fill="#008C95"/>
<path d="M366.318 57.2812H360.1V61.407H366.318V57.2812Z" fill="#008C95"/>
<path d="M356.451 92.594L357.288 93.4431H358.986L359.824 92.594H361.522L362.371 93.4431H364.057L364.906 92.594H366.592L367.441 93.4431H369.127L369.977 92.594V86.3516H356.451V92.594Z" fill="white"/>
<path d="M366.736 63.1875H359.68C357.587 66.0815 356.451 68.6287 356.451 72.2044H369.977C369.965 68.6407 368.84 66.0815 366.736 63.1875Z" fill="white"/>
<path d="M356.451 72.2188C356.451 72.2307 356.451 72.2307 356.451 72.2427L357.48 77.935L356.451 86.354H369.977L368.96 77.935L369.977 72.2427C369.977 72.2307 369.977 72.2307 369.977 72.2188H356.451Z" fill="#008C95"/>
<path d="M139.722 319.299C139.722 335.156 126.867 348 111.021 348C95.164 348 82.3203 335.156 82.3203 319.299C82.3203 303.441 95.164 290.598 111.021 290.598C126.867 290.598 139.722 303.453 139.722 319.299Z" fill="white"/>
<path d="M123.675 314.621C123.675 315.16 123.651 315.686 123.592 316.212C122.826 323.866 116.608 329.905 108.882 330.395C108.548 330.419 108.213 330.431 107.866 330.431C107.531 330.431 107.184 330.419 106.861 330.395C98.6098 329.869 92.0684 323.017 92.0684 314.633C92.0684 306.25 98.5978 299.386 106.861 298.872H106.873C107.196 298.848 107.531 298.836 107.866 298.836C108.201 298.836 108.536 298.848 108.87 298.872H108.882C116.99 299.386 123.448 306.011 123.663 314.203C123.675 314.323 123.675 314.478 123.675 314.621Z" fill="#77E2C3"/>
<path d="M116.438 314.621C116.438 314.908 116.426 315.195 116.39 315.482C115.971 319.632 112.599 322.908 108.413 323.172C108.234 323.184 108.055 323.184 107.863 323.184C107.672 323.184 107.493 323.172 107.313 323.172C102.841 322.885 99.3008 319.165 99.3008 314.621C99.3008 310.077 102.841 306.358 107.313 306.083H107.325C107.505 306.071 107.684 306.059 107.863 306.059C108.043 306.059 108.222 306.071 108.401 306.083H108.413C112.814 306.358 116.306 309.957 116.426 314.394C116.438 314.466 116.438 314.537 116.438 314.621Z" fill="white"/>
<path d="M116.524 335.621L110.592 341.552C109.839 341.804 108.978 340.5 109.468 338.503C110.102 336.422 110.568 335.477 112.159 333.731C115.746 330.084 119.956 327.513 121.14 326.831L130.731 317.24L132.811 319.321L123.484 328.649L116.524 335.621Z" fill="#77E2C3"/>
<path d="M127.548 314.454L126.268 313.174L120.002 319.44L119.069 318.508L125.335 312.241L124.056 310.962L117.789 317.24L116.689 316.14L122.956 309.873L121.676 308.594L115.41 314.872L114.046 316.235C112.922 317.36 112.803 319.106 113.699 320.361L100.939 333.121L103.02 335.214L115.792 322.454C117.048 323.339 118.794 323.231 119.918 322.107L120.181 321.844L121.281 320.744L127.548 314.454Z" fill="#77E2C3"/>
<path d="M123.626 315.817L120.002 319.441L119.07 318.508L123.662 313.916C123.626 313.139 123.542 312.373 123.399 311.632L117.802 317.229L116.702 316.128L122.968 309.862C122.968 309.85 122.956 309.838 122.956 309.826L121.7 308.57L115.434 314.837L114.071 316.2C112.947 317.324 112.827 319.07 113.724 320.326L104.121 329.929C105.018 330.144 105.939 330.299 106.896 330.359C107.206 330.383 107.517 330.383 107.84 330.383L115.805 322.419C117.06 323.304 118.806 323.196 119.931 322.072L120.194 321.809L121.294 320.708L123.1 318.903C123.351 318.03 123.518 317.121 123.614 316.188C123.614 316.08 123.614 315.949 123.626 315.817Z" fill="#008C95"/>
<path d="M221.041 319.299C221.041 335.156 208.197 348 192.34 348C176.482 348 163.639 335.156 163.639 319.299C163.639 303.441 176.482 290.598 192.34 290.598C208.197 290.598 221.041 303.453 221.041 319.299Z" fill="white"/>
<path d="M208.737 316.055H175.97C175.527 316.497 175.288 316.736 174.846 317.179V332.857H209.849V317.179C209.419 316.748 209.179 316.497 208.737 316.055Z" fill="#77E2C3"/>
<path d="M199.314 329.068C199.314 332.56 201.515 335.382 204.229 335.382C206.944 335.382 209.145 332.56 209.145 329.068C209.145 325.576 206.944 322.754 204.229 322.754C201.515 322.742 199.314 325.576 199.314 329.068Z" fill="white"/>
<path d="M187.426 329.068C187.426 332.56 189.626 335.382 192.341 335.382C195.055 335.382 197.256 332.56 197.256 329.068C197.256 325.576 195.055 322.754 192.341 322.754C189.626 322.742 187.426 325.576 187.426 329.068Z" fill="white"/>
<path d="M175.574 329.068C175.574 332.56 177.775 335.382 180.489 335.382C183.204 335.382 185.404 332.56 185.404 329.068C185.404 325.576 183.204 322.754 180.489 322.754C177.775 322.742 175.574 325.576 175.574 329.068Z" fill="white"/>
<path d="M199.72 336.194H208.737C209.179 335.752 209.418 335.513 209.861 335.07V329.521H198.596V335.07C199.038 335.513 199.277 335.764 199.72 336.194Z" fill="#008C95"/>
<path d="M187.893 336.194H196.922C197.365 335.752 197.604 335.513 198.046 335.07V329.521H186.781V335.07C187.212 335.513 187.451 335.764 187.893 336.194Z" fill="#008C95"/>
<path d="M175.981 336.194H185.01C185.453 335.752 185.692 335.513 186.134 335.07V329.521H174.869V335.07C175.3 335.513 175.539 335.764 175.981 336.194Z" fill="#008C95"/>
<path d="M202.017 329.521H179.773V334.09H202.017V329.521Z" fill="#008C95"/>
<path d="M211.943 329.521H172.754V331.208H211.943V329.521Z" fill="#008C95"/>
<path d="M185.012 302.41H175.984C175.541 302.853 175.302 303.092 174.859 303.534V309.083H186.136V303.534L185.012 302.41Z" fill="#008C95"/>
<path d="M197.328 302.41H187.295C186.841 302.865 186.577 303.128 186.123 303.582V309.083H198.5V303.582C198.046 303.128 197.795 302.865 197.328 302.41Z" fill="#008C95"/>
<path d="M208.918 302.41H199.554C199.112 302.853 198.86 303.104 198.418 303.546V309.083H210.054V303.546C209.611 303.104 209.36 302.853 208.918 302.41Z" fill="#008C95"/>
<path d="M204.946 304.518H182.703V309.086H204.946V304.518Z" fill="#008C95"/>
<path d="M199.314 311.381C199.314 314.873 201.515 317.695 204.229 317.695C206.944 317.695 209.145 314.873 209.145 311.381C209.145 307.889 206.944 305.066 204.229 305.066C201.515 305.066 199.314 307.889 199.314 311.381Z" fill="white"/>
<path d="M187.426 311.381C187.426 314.873 189.626 317.695 192.341 317.695C195.055 317.695 197.256 314.873 197.256 311.381C197.256 307.889 195.055 305.066 192.341 305.066C189.626 305.066 187.426 307.889 187.426 311.381Z" fill="white"/>
<path d="M175.574 311.381C175.574 314.873 177.775 317.695 180.489 317.695C183.204 317.695 185.404 314.873 185.404 311.381C185.404 307.889 183.204 305.066 180.489 305.066C177.775 305.066 175.574 307.889 175.574 311.381Z" fill="white"/>
<path d="M202.017 311.848H179.773V316.416H202.017V311.848Z" fill="#008C95"/>
<path d="M211.943 311.848H172.754V313.534H211.943V311.848Z" fill="#008C95"/>
<path d="M185.012 320.206H175.984C175.541 319.764 175.302 319.525 174.859 319.082V313.533H186.136V319.082C185.694 319.525 185.443 319.764 185.012 320.206Z" fill="#008C95"/>
<path d="M197.328 320.206H187.295C186.841 319.752 186.577 319.489 186.123 319.034V313.533H198.5V319.034C198.046 319.489 197.795 319.752 197.328 320.206Z" fill="#008C95"/>
<path d="M208.918 320.206H199.554C199.112 319.764 198.86 319.513 198.418 319.07V313.533H210.054V319.07C209.611 319.513 209.36 319.764 208.918 320.206Z" fill="#008C95"/>
<path d="M302.361 319.299C302.361 335.156 289.517 348 273.66 348C257.803 348 244.959 335.156 244.959 319.299C244.959 303.441 257.803 290.598 273.66 290.598C289.517 290.598 302.361 303.453 302.361 319.299Z" fill="white"/>
<path d="M279.055 330.001L279.043 307.901L276.771 303.668H261.93L259.682 307.901L259.67 330.001C259.67 332.381 261.595 334.306 263.975 334.306H274.762C277.13 334.306 279.055 332.381 279.055 330.001Z" fill="#77E2C3"/>
<path d="M259.67 307.901H279.043L276.759 303.668H261.93L259.67 307.901Z" fill="#008C95"/>
<path d="M276.34 302.184H262.349C261.511 302.184 260.842 301.515 260.842 300.678V300.343C260.842 299.518 261.511 298.836 262.349 298.836H276.34C277.177 298.836 277.847 299.506 277.847 300.343V300.678C277.847 301.503 277.166 302.184 276.34 302.184Z" fill="#008C95"/>
<path d="M270.014 317.825H276.95V315.469C276.95 314.812 277.429 314.273 278.015 314.273H284.341C284.927 314.273 285.405 314.812 285.405 315.469V317.765H285.68C286.769 317.765 287.653 318.65 287.653 319.739V337.234C287.653 338.598 286.553 339.71 285.19 339.71L270.517 339.758C269.153 339.758 268.041 338.657 268.041 337.282V319.786C268.029 318.71 268.914 317.825 270.014 317.825ZM283.205 315.924H279.103V317.765H283.205V315.924Z" fill="#77E2C3"/>
<path d="M275.3 314.035H270.062V316.618H275.3V314.035Z" fill="#008C95"/>
<path d="M274.75 334.304C277.13 334.304 279.055 332.379 279.055 329.999L279.043 314.273H278.003C277.417 314.273 276.95 314.812 276.95 315.469V317.825H270.014C268.926 317.825 268.041 318.71 268.041 319.798V334.292H274.75V334.304Z" fill="#008C95"/>
<path d="M58.4021 319.299C58.4021 335.156 45.5583 348 29.701 348C13.8437 348 1 335.156 1 319.299C1 303.441 13.8437 290.598 29.701 290.598C45.5583 290.598 58.4021 303.453 58.4021 319.299Z" fill="white"/>
<path d="M39.328 318.773H19.0101L16.2715 306.156H42.0665L39.328 318.773Z" fill="#77E2C3"/>
<path d="M44.2066 304.123H13.9629V308.189H44.2066V304.123Z" fill="#008C95"/>
<path d="M41.7663 334.486H17.8129L14.584 319.609H45.0071L41.7663 334.486Z" fill="#77E2C3"/>
<path d="M47.5343 317.576H11.8613V321.642H47.5343V317.576Z" fill="#008C95"/>
<path d="M59.0134 644.707C59.0134 660.564 46.1577 673.408 30.3124 673.408C14.455 673.408 1.61133 660.564 1.61133 644.707C1.61133 628.85 14.455 616.006 30.3124 616.006C46.1577 616.006 59.0134 628.85 59.0134 644.707Z" fill="white"/>
<path d="M40.5139 624.76H11.6934V657.455H40.5139V624.76Z" fill="#77E2C3"/>
<path d="M19.2251 637.172H15.8767C14.9678 637.172 14.2383 636.443 14.2383 635.534V632.185C14.2383 631.276 14.9678 630.547 15.8767 630.547H19.2251C20.134 630.547 20.8634 631.288 20.8634 632.185V635.534C20.8634 636.443 20.134 637.172 19.2251 637.172Z" fill="white"/>
<path d="M27.7271 637.172H24.3786C23.4697 637.172 22.7402 636.443 22.7402 635.534V632.185C22.7402 631.276 23.4697 630.547 24.3786 630.547H27.7271C28.6359 630.547 29.3654 631.288 29.3654 632.185V635.534C29.3654 636.443 28.6359 637.172 27.7271 637.172Z" fill="white"/>
<path d="M36.229 637.172H32.8806C31.9717 637.172 31.2422 636.443 31.2422 635.534V632.185C31.2422 631.276 31.9717 630.547 32.8806 630.547H36.229C37.1379 630.547 37.8674 631.288 37.8674 632.185V635.534C37.8793 636.443 37.1379 637.172 36.229 637.172Z" fill="white"/>
<path d="M19.2251 645.555H15.8767C14.9678 645.555 14.2383 644.825 14.2383 643.917V640.568C14.2383 639.659 14.9678 638.93 15.8767 638.93H19.2251C20.134 638.93 20.8634 639.659 20.8634 640.568V643.917C20.8634 644.813 20.134 645.555 19.2251 645.555Z" fill="white"/>
<path d="M27.7271 645.555H24.3786C23.4697 645.555 22.7402 644.825 22.7402 643.917V640.568C22.7402 639.659 23.4697 638.93 24.3786 638.93H27.7271C28.6359 638.93 29.3654 639.659 29.3654 640.568V643.917C29.3654 644.813 28.6359 645.555 27.7271 645.555Z" fill="white"/>
<path d="M36.229 645.555H32.8806C31.9717 645.555 31.2422 644.825 31.2422 643.917V640.568C31.2422 639.659 31.9717 638.93 32.8806 638.93H36.229C37.1379 638.93 37.8674 639.659 37.8674 640.568V643.917C37.8793 644.813 37.1379 645.555 36.229 645.555Z" fill="white"/>
<path d="M19.2251 653.938H15.8767C14.9678 653.938 14.2383 653.208 14.2383 652.299V648.951C14.2383 648.042 14.9678 647.312 15.8767 647.312H19.2251C20.134 647.312 20.8634 648.042 20.8634 648.951V652.299C20.8634 653.196 20.134 653.938 19.2251 653.938Z" fill="white"/>
<path d="M27.7271 653.938H24.3786C23.4697 653.938 22.7402 653.208 22.7402 652.299V648.951C22.7402 648.042 23.4697 647.312 24.3786 647.312H27.7271C28.6359 647.312 29.3654 648.042 29.3654 648.951V652.299C29.3654 653.196 28.6359 653.938 27.7271 653.938Z" fill="white"/>
<path d="M18.485 636.6H16.6074V639.805H18.485V636.6Z" fill="white"/>
<path d="M23.4608 632.916H20.2559V634.794H23.4608V632.916Z" fill="white"/>
<path d="M23.2557 641.143H20.0508V643.02H23.2557V641.143Z" fill="white"/>
<path d="M23.2557 649.693H20.0508V651.571H23.2557V649.693Z" fill="white"/>
<path d="M32.1073 632.916H28.9023V634.794H32.1073V632.916Z" fill="white"/>
<path d="M31.9022 641.143H28.6973V643.02H31.9022V641.143Z" fill="white"/>
<path d="M27.0006 636.6H25.123V639.805H27.0006V636.6Z" fill="white"/>
<path d="M22.5391 624.76V626.888C22.5391 627.761 23.2446 628.467 24.1176 628.467H25.2059V635.774H26.8921V628.467H27.8846C28.7576 628.467 29.4632 627.761 29.4632 626.888V624.76H22.5391Z" fill="white"/>
<path d="M35.5025 636.6H33.625V639.805H35.5025V636.6Z" fill="white"/>
<path d="M18.485 644.875H16.6074V648.08H18.485V644.875Z" fill="white"/>
<path d="M27.0006 644.875H25.123V648.08H27.0006V644.875Z" fill="white"/>
<path d="M47.951 657.826L45.631 659.357L42.3065 657.455L45.631 655.542L47.951 657.073L48.9317 655.59L47.3651 654.525L48.7164 653.748L47.8195 652.182L46.4562 652.983L46.3486 651.093L44.5548 651.189L44.7222 653.975L41.4216 655.901V652.074L43.909 650.83L43.0958 649.204L41.4216 650.053V648.486H39.6278V650.053L37.9177 649.204L37.1164 650.83L39.6278 652.074V655.901L36.3032 653.975L36.4707 651.189L34.6768 651.093L34.5573 652.983L33.2059 652.182L32.297 653.748L33.6603 654.525L32.0938 655.59L33.0743 657.073L35.3943 655.542L38.7189 657.455L35.3943 659.357L33.0743 657.826L32.0938 659.321L33.6603 660.385L32.297 661.151L33.2059 662.717L34.5573 661.928L34.6768 663.817L36.4707 663.722L36.3032 660.923L39.6278 658.998V662.837L37.1164 664.081L37.9177 665.707L39.6278 664.858V666.424H41.4216V664.858L43.0958 665.707L43.909 664.081L41.4216 662.837V658.998L44.7222 660.923L44.5548 663.722L46.3486 663.817L46.4562 661.928L47.8195 662.717L48.7164 661.151L47.3651 660.385L48.9317 659.321L47.951 657.826Z" fill="#77E2C3"/>
<path d="M39.6278 648.486V650.053L37.9177 649.204L37.1164 650.83L39.6278 652.074V655.901L36.3032 653.975L36.4707 651.189L34.6768 651.093L34.5573 652.983L33.2059 652.182L32.297 653.748L33.6603 654.525L32.0938 655.59L33.0743 657.073L35.3943 655.542L38.7189 657.455H40.5127V648.486H39.6278Z" fill="#008C95"/>
<path d="M302.361 644.707C302.361 660.564 289.517 673.408 273.66 673.408C257.803 673.408 244.959 660.564 244.959 644.707C244.959 628.85 257.803 616.006 273.66 616.006C289.517 616.006 302.361 628.85 302.361 644.707Z" fill="white"/>
<path d="M274.607 662.489H263.736C262.899 661.664 262.445 661.197 261.607 660.36V636.766L271.426 628.586C274.355 628.586 276.735 631.552 276.735 634.482V660.36C275.898 661.197 275.432 661.664 274.607 662.489Z" fill="#77E2C3"/>
<path d="M263.975 622.427L260.752 625.098L263.483 628.394L266.706 625.724L263.975 622.427Z" fill="#77E2C3"/>
<path d="M286.108 646.692C282.604 646.692 279.746 643.834 279.746 640.33H281.624C281.624 642.806 283.633 644.815 286.108 644.815V646.692Z" fill="#008C95"/>
<path d="M270.898 643.031V647.803L271.042 665.131C271.748 665.837 272.142 666.231 272.848 666.925H287.126L288.932 665.119V657.633L276.722 647.803V643.031H270.898Z" fill="#77E2C3"/>
<path d="M280.333 643.047H269.75V640.596C271.006 639.34 271.711 638.635 272.967 637.379H285.547V641.026H282.355C281.23 641.026 280.333 641.935 280.333 643.047Z" fill="#77E2C3"/>
<path d="M286.216 637.379H282.568V641.026H286.216V637.379Z" fill="#008C95"/>
<path d="M276.712 647.807V643.047H276.724V637.379H272.957C271.701 638.635 270.996 639.34 269.74 640.596V643.047H270.9V647.807L271.02 662.504H274.607C275.433 661.679 275.899 661.213 276.736 660.376V647.819L276.712 647.807Z" fill="#008C95"/>
<path d="M276.71 643.031H270.898V647.803H276.71V643.031Z" fill="#008C95"/>
<path d="M267.012 623.831L261.533 628.371L264.265 631.668L269.744 627.127L267.012 623.831Z" fill="#008C95"/>
<path d="M465 75.3026C465 91.1599 452.156 104.004 436.299 104.004C420.441 104.004 407.598 91.1599 407.598 75.3026C407.598 59.4572 420.441 46.6016 436.299 46.6016C452.156 46.6016 465 59.4572 465 75.3026Z" fill="white"/>
<path d="M452.264 68.127H420.322V94.6156H452.264V68.127Z" fill="#77E2C3"/>
<path d="M455.137 65.8301H417.455V72.2759H455.137V65.8301Z" fill="#77E2C3"/>
<path d="M427.223 55.9902L432.867 56.337L437.16 65.8921L434.876 66.1073L429.602 58.2743L427.223 55.9902Z" fill="#008C95"/>
<path d="M424.4 62.5197L427.223 55.9902L429.794 58.1189L428.036 61.0488L435.426 65.8323H430.117L424.4 62.5197Z" fill="#008C95"/>
<path d="M446.249 55.9902L440.604 56.337L436.299 65.8921L438.595 66.1073L443.857 58.2743L446.249 55.9902Z" fill="#008C95"/>
<path d="M449.057 62.5197L446.247 55.9902L443.664 58.1189L445.434 61.0488L438.031 65.8323H443.341L449.057 62.5197Z" fill="#008C95"/>
<path d="M438.8 65.8301H433.801V94.6148H438.8V65.8301Z" fill="#008C95"/>
<path d="M302.361 400.605C302.361 416.463 289.517 429.306 273.66 429.306C257.803 429.306 244.959 416.463 244.959 400.605C244.959 384.748 257.803 371.904 273.66 371.904C289.517 371.904 302.361 384.748 302.361 400.605Z" fill="white"/>
<path d="M262.215 390.332H285.092L282.353 384.209H264.941L262.215 390.332Z" fill="#77E2C3"/>
<path d="M285.153 392.891H262.156C262.156 392.891 262.132 409.43 262.144 409.753H285.165L285.153 392.891Z" fill="#77E2C3"/>
<path d="M265.685 420.408H281.626C283.288 420.408 284.688 418.83 284.819 416.773L285.118 412.336H262.205C262.205 412.372 262.349 414.632 262.48 416.761C262.624 418.818 264.011 420.408 265.685 420.408Z" fill="#77E2C3"/>
<path d="M282.352 384.209H264.94C264.008 384.209 263.242 383.443 263.242 382.511C263.242 381.566 264.008 380.812 264.94 380.812H282.352C283.285 380.812 284.05 381.578 284.05 382.511C284.05 383.443 283.285 384.209 282.352 384.209Z" fill="#008C95"/>
<path d="M465 319.299C465 335.156 452.156 348 436.299 348C420.441 348 407.598 335.156 407.598 319.299C407.598 303.441 420.441 290.598 436.299 290.598C452.156 290.598 465 303.453 465 319.299Z" fill="white"/>
<path d="M436.301 331.984H434.926V333.36H437.664V331.984H436.301Z" fill="white"/>
<path d="M452.012 336.661H448.34V333.779H424.255V336.661H420.584V330.119H452.012V336.661Z" fill="#008C95"/>
<path d="M438.13 331.949H434.459V336.661H438.13V331.949Z" fill="#008C95"/>
<path d="M434.926 304.684H423.326V316.284H434.926V304.684Z" fill="#77E2C3"/>
<path d="M449.262 304.684H437.662V316.284H449.262V304.684Z" fill="#008C95"/>
<path d="M434.926 319.023H423.326V330.121H434.926V319.023Z" fill="#008C95"/>
<path d="M449.262 319.023H437.662V330.121H449.262V319.023Z" fill="#77E2C3"/>
<path d="M465 400.605C465 416.463 452.156 429.306 436.299 429.306C420.441 429.306 407.598 416.463 407.598 400.605C407.598 384.748 420.441 371.904 436.299 371.904C452.156 371.904 465 384.748 465 400.605Z" fill="white"/>
<path d="M451.584 406.574L455.28 408.739L436.301 419.848L417.311 408.739L420.958 406.61V407.734L436.301 416.667L451.584 407.734V406.574Z" fill="#008C95"/>
<path d="M445.268 402.316V394.914L451.582 391.219V398.633L445.268 402.316Z" fill="#008C95"/>
<path d="M443.486 403.356L437.172 407.039V399.637L443.486 395.941V403.356Z" fill="#008C95"/>
<path d="M445.268 404.373L451.582 400.689V407.733L445.268 411.428V404.373Z" fill="#008C95"/>
<path d="M443.486 405.414V412.47L437.172 416.153V409.097L443.486 405.414Z" fill="#008C95"/>
<path d="M445.268 402.316V394.914L451.582 391.219V398.633L445.268 402.316Z" fill="#77E2C3"/>
<path d="M443.486 403.356L437.172 407.039V399.637L443.486 395.941V403.356Z" fill="#77E2C3"/>
<path d="M445.268 404.373L451.582 400.689V407.733L445.268 411.428V404.373Z" fill="#77E2C3"/>
<path d="M443.486 405.414V412.47L437.172 416.153V409.097L443.486 405.414Z" fill="#77E2C3"/>
<path d="M427.273 402.316V394.914L420.959 391.219V398.633L427.273 402.316Z" fill="#008C95"/>
<path d="M429.053 403.356L435.367 407.039V399.637L429.053 395.941V403.356Z" fill="#008C95"/>
<path d="M429.053 405.414V412.47L435.367 416.153V409.097L429.053 405.414Z" fill="#008C95"/>
<path d="M434.483 389.628L428.252 393.204L421.902 389.545L428.133 385.957L434.483 389.628Z" fill="#77E2C3"/>
<path d="M436.243 388.61L429.881 384.951L436.111 381.363L442.462 385.035L436.243 388.61Z" fill="#77E2C3"/>
<path d="M437.984 389.627L444.215 386.039L450.565 389.71L444.334 393.286L437.984 389.627Z" fill="#77E2C3"/>
<path d="M436.23 390.633L442.592 394.304L436.362 397.88L430.012 394.22L436.23 390.633Z" fill="#77E2C3"/>
<path d="M427.273 404.373L420.959 400.689V407.733L427.273 411.428V404.373Z" fill="#008C95"/>
<path d="M465 563.353C465 579.211 452.156 592.054 436.299 592.054C420.441 592.054 407.598 579.211 407.598 563.353C407.598 547.508 420.441 534.652 436.299 534.652C452.156 534.652 465 547.496 465 563.353Z" fill="white"/>
<path d="M449.623 563.496L455.28 566.809L436.301 577.918L417.311 566.809L422.979 563.496V566.546L436.301 574.259L449.623 566.546V563.496Z" fill="#77E2C3"/>
<path d="M417.311 566.807V568.23V569.725V572.176L421.113 574.4V571.949L424.904 574.173V576.625L428.707 578.849V576.398L432.498 578.61V581.062L436.301 583.286V580.834V579.328V577.916L417.311 566.807Z" fill="#008C95"/>
<path d="M455.277 566.807V568.23V569.725V572.176L451.486 574.4V571.949L447.684 574.173V576.625L443.893 578.849V576.398L440.09 578.61V581.062L436.299 583.286V580.834V579.328V577.916L455.277 566.807Z" fill="#008C95"/>
<path d="M448.715 550.593L436.302 543.406L423.9 550.593L436.302 557.769L448.715 550.593Z" fill="#77E2C3"/>
<path d="M436.299 559.897V574.259L449.621 566.546V552.195L436.299 559.897Z" fill="#008C95"/>
<path d="M422.977 552.184V566.546L436.299 574.259V559.897L422.977 552.184Z" fill="#008C95"/>
<path d="M139.722 644.707C139.722 660.564 126.867 673.408 111.021 673.408C95.164 673.408 82.3203 660.564 82.3203 644.707C82.3203 628.85 95.164 616.006 111.021 616.006C126.867 616.006 139.722 628.85 139.722 644.707Z" fill="white"/>
<path d="M123.114 663.483L125.482 661.521H120.746L123.114 663.483Z" fill="#77E2C3"/>
<path d="M118.376 663.483L120.744 661.521H115.996L118.376 663.483Z" fill="#77E2C3"/>
<path d="M113.628 663.483L115.995 661.521H111.26L113.628 663.483Z" fill="#77E2C3"/>
<path d="M108.893 663.483L111.261 661.521H106.514L108.893 663.483Z" fill="#77E2C3"/>
<path d="M125.48 661.522V636.779L114.813 645.665L106.514 640.774V661.522H125.48Z" fill="#77E2C3"/>
<path d="M114.812 625.934H107.242C101.346 625.934 96.5625 630.789 96.5625 636.78C96.5625 642.772 101.346 647.627 107.242 647.627H114.812L106.237 636.78L114.812 625.934Z" fill="#008C95"/>
<path d="M114.814 625.934C114.802 625.934 114.802 625.934 114.814 625.934V631.004C117.959 631.004 120.494 633.587 120.494 636.78C120.494 639.973 117.947 642.556 114.814 642.556V647.627C120.709 647.627 125.493 642.772 125.493 636.78C125.481 630.789 120.709 625.934 114.814 625.934Z" fill="#77E2C3"/>
<path d="M114.814 625.934V631.004C111.669 631.004 109.134 633.587 109.134 636.78C109.134 639.973 111.681 642.556 114.814 642.556V647.627C108.918 647.627 104.135 642.772 104.135 636.78C104.135 630.789 108.918 625.934 114.814 625.934Z" fill="#77E2C3"/>
<path d="M140.334 726.025C140.334 741.883 127.478 754.726 111.633 754.726C95.7754 754.726 82.9316 741.883 82.9316 726.025C82.9316 710.18 95.7754 697.324 111.633 697.324C127.478 697.324 140.334 710.18 140.334 726.025Z" fill="white"/>
<path d="M92.8574 738.118L94.8186 740.486V735.75L92.8574 738.118Z" fill="#77E2C3"/>
<path d="M92.8574 733.382L94.8186 735.749V731.014L92.8574 733.382Z" fill="#77E2C3"/>
<path d="M92.8574 728.635L94.8186 731.003V726.268L92.8574 728.635Z" fill="#77E2C3"/>
<path d="M92.8574 723.899L94.8186 726.267V721.531L92.8574 723.899Z" fill="#77E2C3"/>
<path d="M94.8164 740.486H119.559L110.674 729.819L115.553 721.531H94.8164V740.486Z" fill="#77E2C3"/>
<path d="M130.406 729.817V722.248C130.406 716.352 125.551 711.568 119.559 711.568C113.568 711.568 108.713 716.352 108.713 722.248V729.817L119.559 721.243L130.406 729.817Z" fill="#008C95"/>
<path d="M130.406 729.816H125.336C125.336 732.962 122.752 735.497 119.559 735.497C116.367 735.497 113.783 732.95 113.783 729.816H108.713C108.713 735.712 113.568 740.496 119.559 740.496C125.551 740.496 130.406 735.712 130.406 729.816Z" fill="#77E2C3"/>
<path d="M130.406 729.818H125.336C125.336 726.673 122.752 724.137 119.559 724.137C116.367 724.137 113.783 726.685 113.783 729.818H108.713C108.713 723.922 113.568 719.139 119.559 719.139C125.551 719.139 130.406 723.922 130.406 729.818Z" fill="#77E2C3"/>
<path d="M221.041 644.707C221.041 660.564 208.197 673.408 192.34 673.408C176.482 673.408 163.639 660.564 163.639 644.707C163.639 628.85 176.482 616.006 192.34 616.006C208.197 616.006 221.041 628.85 221.041 644.707Z" fill="white"/>
<path d="M208.427 635.811H187.93V661.582H208.427V635.811Z" fill="#77E2C3"/>
<path d="M192.664 643.247C191.324 643.247 190.248 642.147 190.248 640.784C190.248 639.421 191.336 638.32 192.664 638.32C193.991 638.32 195.079 639.421 195.079 640.784C195.079 642.147 193.991 643.247 192.664 643.247Z" fill="white"/>
<path d="M203.502 643.247C202.162 643.247 201.086 642.147 201.086 640.784C201.086 639.421 202.174 638.32 203.502 638.32C204.841 638.32 205.917 639.421 205.917 640.784C205.917 642.147 204.829 643.247 203.502 643.247Z" fill="white"/>
<path d="M192.664 650.868C191.324 650.868 190.248 649.768 190.248 648.405C190.248 647.042 191.336 645.941 192.664 645.941C193.991 645.941 195.079 647.042 195.079 648.405C195.079 649.768 193.991 650.868 192.664 650.868Z" fill="white"/>
<path d="M203.502 650.868C202.162 650.868 201.086 649.768 201.086 648.405C201.086 647.042 202.174 645.941 203.502 645.941C204.841 645.941 205.917 647.042 205.917 648.405C205.917 649.768 204.829 650.868 203.502 650.868Z" fill="white"/>
<path d="M203.502 658.925C202.162 658.925 201.086 657.825 201.086 656.462C201.086 655.098 202.174 653.998 203.502 653.998C204.841 653.998 205.917 655.098 205.917 656.462C205.917 657.825 204.829 658.925 203.502 658.925Z" fill="white"/>
<path d="M198.394 658.483C197.976 658.483 197.629 658.148 197.629 657.718V639.074C197.629 638.655 197.964 638.309 198.394 638.309C198.825 638.309 199.16 638.643 199.16 639.074V657.718C199.148 658.148 198.813 658.483 198.394 658.483Z" fill="white"/>
<path d="M197.624 627.822H176.242V654.048H197.624V627.822Z" fill="#77E2C3"/>
<path d="M181.732 635.7C180.393 635.7 179.316 634.6 179.316 633.237C179.316 631.874 180.405 630.773 181.732 630.773C183.071 630.773 184.148 631.874 184.148 633.237C184.148 634.588 183.071 635.7 181.732 635.7Z" fill="white"/>
<path d="M192.57 635.7C191.231 635.7 190.154 634.6 190.154 633.237C190.154 631.874 191.242 630.773 192.57 630.773C193.897 630.773 194.986 631.874 194.986 633.237C194.998 634.588 193.909 635.7 192.57 635.7Z" fill="white"/>
<path d="M181.732 643.322C180.393 643.322 179.316 642.221 179.316 640.858C179.316 639.495 180.405 638.395 181.732 638.395C183.071 638.395 184.148 639.495 184.148 640.858C184.148 642.221 183.071 643.322 181.732 643.322Z" fill="white"/>
<path d="M192.57 643.322C191.231 643.322 190.154 642.221 190.154 640.858C190.154 639.495 191.242 638.395 192.57 638.395C193.897 638.395 194.986 639.495 194.986 640.858C194.998 642.221 193.909 643.322 192.57 643.322Z" fill="white"/>
<path d="M181.732 650.939C180.393 650.939 179.316 649.839 179.316 648.475C179.316 647.112 180.405 646.012 181.732 646.012C183.071 646.012 184.148 647.112 184.148 648.475C184.148 649.839 183.071 650.939 181.732 650.939Z" fill="white"/>
<path d="M192.57 650.939C191.231 650.939 190.154 649.839 190.154 648.475C190.154 647.112 191.242 646.012 192.57 646.012C193.897 646.012 194.986 647.112 194.986 648.475C194.986 649.839 193.909 650.939 192.57 650.939Z" fill="white"/>
<path d="M187.174 650.936C186.755 650.936 186.408 650.601 186.408 650.171V631.527C186.408 631.108 186.743 630.762 187.174 630.762C187.604 630.762 187.939 631.097 187.939 631.527V650.171C187.927 650.601 187.592 650.936 187.174 650.936Z" fill="white"/>
<path d="M197.628 635.811H187.93V654.036H197.628V635.811Z" fill="#008C95"/>
<path d="M192.664 643.247C191.324 643.247 190.248 642.147 190.248 640.784C190.248 639.421 191.336 638.32 192.664 638.32C193.991 638.32 195.079 639.421 195.079 640.784C195.079 642.147 193.991 643.247 192.664 643.247Z" fill="white"/>
<path d="M192.664 650.868C191.324 650.868 190.248 649.768 190.248 648.405C190.248 647.042 191.336 645.941 192.664 645.941C193.991 645.941 195.079 647.042 195.079 648.405C195.079 649.768 193.991 650.868 192.664 650.868Z" fill="white"/>
<path d="M192.664 658.925C191.324 658.925 190.248 657.825 190.248 656.462C190.248 655.098 191.336 653.998 192.664 653.998C193.991 653.998 195.079 655.098 195.079 656.462C195.079 657.825 193.991 658.925 192.664 658.925Z" fill="white"/>
<path d="M17.1328 5.80469V7.8877H7.87793V25H5.34668V5.80469H17.1328ZM19.8091 21.1372L26.3877 10.7354H28.8398V25H26.3877V14.5981L19.8091 25H17.3833V10.7354H19.8091V21.1372ZM41.9048 4.52588H43.9087C43.9087 5.38721 43.7769 6.07275 43.5132 6.58252C43.2495 7.0835 42.8892 7.47021 42.4321 7.74268C41.9839 8.01514 41.4741 8.22168 40.9028 8.3623C40.3403 8.50293 39.7559 8.63916 39.1494 8.771C38.3936 8.9292 37.6904 9.17969 37.04 9.52246C36.3984 9.85645 35.8447 10.3311 35.3789 10.9463C34.9219 11.5615 34.5835 12.3613 34.3638 13.3457C34.1528 14.3301 34.0957 15.5474 34.1924 16.9976V18.2104H32.1885V16.9976C32.1885 15.3716 32.3423 13.9521 32.6499 12.7393C32.9663 11.5264 33.4102 10.5024 33.9814 9.66748C34.5527 8.83252 35.2295 8.16895 36.0117 7.67676C36.8027 7.18457 37.6729 6.84619 38.6221 6.66162C39.3076 6.52979 39.8965 6.38916 40.3887 6.23975C40.8809 6.08154 41.2544 5.87061 41.5093 5.60693C41.7729 5.34326 41.9048 4.98291 41.9048 4.52588ZM39.0176 11.5527C39.9492 11.5527 40.7798 11.7153 41.5093 12.0405C42.2388 12.3657 42.8584 12.8184 43.3682 13.3984C43.8779 13.9785 44.2646 14.6641 44.5283 15.4551C44.8008 16.2373 44.937 17.0898 44.937 18.0127V18.3027C44.937 19.2959 44.792 20.2188 44.502 21.0713C44.2207 21.915 43.8032 22.6533 43.2495 23.2861C42.7046 23.9102 42.0366 24.3979 41.2456 24.7495C40.4634 25.1011 39.5713 25.2769 38.5693 25.2769C37.5674 25.2769 36.6709 25.1011 35.8799 24.7495C35.0977 24.3979 34.4297 23.9102 33.876 23.2861C33.3223 22.6533 32.9004 21.915 32.6104 21.0713C32.3291 20.2188 32.1885 19.2959 32.1885 18.3027V18.0127C32.1885 17.793 32.228 17.5776 32.3071 17.3667C32.3862 17.1558 32.4829 16.9404 32.5972 16.7207C32.7202 16.501 32.8301 16.2681 32.9268 16.022C33.252 15.231 33.6958 14.4971 34.2583 13.8203C34.8296 13.1436 35.5107 12.5986 36.3018 12.1855C37.1016 11.7637 38.0068 11.5527 39.0176 11.5527ZM38.543 13.5435C37.6465 13.5435 36.9082 13.75 36.3281 14.1631C35.7568 14.5762 35.3306 15.1255 35.0493 15.811C34.7681 16.4878 34.6274 17.2217 34.6274 18.0127V18.3027C34.6274 18.9707 34.7065 19.6035 34.8647 20.2012C35.0229 20.7988 35.2603 21.3306 35.5767 21.7964C35.9019 22.2534 36.3105 22.6138 36.8027 22.8774C37.3037 23.1411 37.8926 23.2729 38.5693 23.2729C39.2461 23.2729 39.8306 23.1411 40.3228 22.8774C40.8149 22.6138 41.2192 22.2534 41.5356 21.7964C41.8521 21.3306 42.0894 20.7988 42.2476 20.2012C42.4058 19.6035 42.4849 18.9707 42.4849 18.3027V18.0127C42.4849 17.415 42.4058 16.8481 42.2476 16.312C42.0894 15.7759 41.8477 15.3013 41.5225 14.8882C41.2061 14.4751 40.7974 14.1499 40.2964 13.9126C39.8042 13.6665 39.2197 13.5435 38.543 13.5435ZM50.1182 10.7354V25H47.6792V10.7354H50.1182ZM59.4785 10.7354L52.7153 18.9092H49.3008L48.9316 16.7734H51.7266L56.5122 10.7354H59.4785ZM56.855 25L51.6079 18.54L53.1768 16.7734L59.9531 25H56.855ZM70.4868 22.561V15.2178C70.4868 14.6553 70.3726 14.1675 70.144 13.7544C69.9243 13.3325 69.5903 13.0073 69.1421 12.7788C68.6938 12.5503 68.1401 12.436 67.481 12.436C66.8657 12.436 66.3252 12.5415 65.8594 12.7524C65.4023 12.9634 65.042 13.2402 64.7783 13.583C64.5234 13.9258 64.396 14.2949 64.396 14.6904H61.957C61.957 14.1807 62.0889 13.6753 62.3525 13.1743C62.6162 12.6733 62.9941 12.2207 63.4863 11.8164C63.9873 11.4033 64.585 11.0781 65.2793 10.8408C65.9824 10.5947 66.7646 10.4717 67.626 10.4717C68.6631 10.4717 69.5771 10.6475 70.3682 10.999C71.168 11.3506 71.792 11.8823 72.2402 12.5942C72.6973 13.2974 72.9258 14.1807 72.9258 15.2441V21.8887C72.9258 22.3633 72.9653 22.8687 73.0444 23.4048C73.1323 23.9409 73.2598 24.4023 73.4268 24.7891V25H70.8823C70.7593 24.7188 70.6626 24.3452 70.5923 23.8794C70.522 23.4048 70.4868 22.9653 70.4868 22.561ZM70.9087 16.3516L70.9351 18.0654H68.4697C67.7754 18.0654 67.1558 18.1226 66.6108 18.2368C66.0659 18.3423 65.6089 18.5049 65.2397 18.7246C64.8706 18.9443 64.5894 19.2212 64.396 19.5552C64.2026 19.8804 64.106 20.2627 64.106 20.7021C64.106 21.1504 64.207 21.5591 64.4092 21.9282C64.6113 22.2974 64.9146 22.5918 65.3188 22.8115C65.7319 23.0225 66.2373 23.1279 66.835 23.1279C67.582 23.1279 68.2412 22.9697 68.8125 22.6533C69.3838 22.3369 69.8364 21.9502 70.1704 21.4932C70.5132 21.0361 70.6978 20.5923 70.7241 20.1616L71.7656 21.335C71.7041 21.7041 71.5371 22.1128 71.2646 22.561C70.9922 23.0093 70.6274 23.4399 70.1704 23.853C69.7222 24.2573 69.186 24.5957 68.562 24.8682C67.9468 25.1318 67.2524 25.2637 66.479 25.2637C65.5122 25.2637 64.6641 25.0747 63.9346 24.6968C63.2139 24.3188 62.6514 23.8135 62.2471 23.1807C61.8516 22.5391 61.6538 21.8228 61.6538 21.0317C61.6538 20.2671 61.8032 19.5947 62.1021 19.0146C62.4009 18.4258 62.8315 17.938 63.394 17.5513C63.9565 17.1558 64.6333 16.8569 65.4243 16.6548C66.2153 16.4526 67.0986 16.3516 68.0742 16.3516H70.9087ZM79.6494 18.1973H82.2861L78.1597 25H75.5229L79.6494 18.1973ZM81.6929 10.7354H87.6519V25H85.2129V12.7129H81.6929C80.9985 12.7129 80.4316 12.8315 79.9922 13.0688C79.5527 13.2974 79.2319 13.5962 79.0298 13.9653C78.8276 14.3345 78.7266 14.7168 78.7266 15.1123C78.7266 15.499 78.8188 15.8726 79.0034 16.2329C79.188 16.5845 79.478 16.8745 79.8735 17.103C80.269 17.3315 80.7788 17.4458 81.4028 17.4458H85.8721V19.4497H81.4028C80.5854 19.4497 79.8604 19.3398 79.2275 19.1201C78.5947 18.9004 78.0586 18.5972 77.6191 18.2104C77.1797 17.8149 76.8457 17.3535 76.6172 16.8262C76.3887 16.29 76.2744 15.71 76.2744 15.0859C76.2744 14.4619 76.3931 13.8862 76.6304 13.3589C76.8765 12.8315 77.228 12.3701 77.6851 11.9746C78.1509 11.5791 78.7178 11.2759 79.3857 11.0649C80.0625 10.8452 80.8315 10.7354 81.6929 10.7354ZM102.286 23.5234L106.254 10.7354H108.864L103.143 27.2017C103.011 27.5532 102.835 27.9312 102.615 28.3354C102.404 28.7485 102.132 29.1396 101.798 29.5088C101.464 29.8779 101.06 30.1768 100.585 30.4053C100.119 30.6426 99.561 30.7612 98.9106 30.7612C98.7173 30.7612 98.4712 30.7349 98.1724 30.6821C97.8735 30.6294 97.6626 30.5854 97.5396 30.5503L97.5264 28.5728C97.5967 28.5815 97.7065 28.5903 97.856 28.5991C98.0142 28.6167 98.124 28.6255 98.1855 28.6255C98.7393 28.6255 99.2095 28.5508 99.5962 28.4014C99.9829 28.2607 100.308 28.019 100.572 27.6763C100.844 27.3423 101.077 26.8809 101.271 26.292L102.286 23.5234ZM99.3721 10.7354L103.077 21.8096L103.709 24.3804L101.956 25.2769L96.709 10.7354H99.3721ZM120.571 10.7354V12.7524H113.36V10.7354H120.571ZM113.716 10.7354V25H111.277V10.7354H113.716ZM122.733 10.7354V25H120.281V10.7354H122.733ZM135.06 22.561V15.2178C135.06 14.6553 134.946 14.1675 134.717 13.7544C134.498 13.3325 134.164 13.0073 133.715 12.7788C133.267 12.5503 132.713 12.436 132.054 12.436C131.439 12.436 130.898 12.5415 130.433 12.7524C129.976 12.9634 129.615 13.2402 129.352 13.583C129.097 13.9258 128.969 14.2949 128.969 14.6904H126.53C126.53 14.1807 126.662 13.6753 126.926 13.1743C127.189 12.6733 127.567 12.2207 128.06 11.8164C128.561 11.4033 129.158 11.0781 129.853 10.8408C130.556 10.5947 131.338 10.4717 132.199 10.4717C133.236 10.4717 134.15 10.6475 134.941 10.999C135.741 11.3506 136.365 11.8823 136.813 12.5942C137.271 13.2974 137.499 14.1807 137.499 15.2441V21.8887C137.499 22.3633 137.539 22.8687 137.618 23.4048C137.706 23.9409 137.833 24.4023 138 24.7891V25H135.456C135.333 24.7188 135.236 24.3452 135.166 23.8794C135.095 23.4048 135.06 22.9653 135.06 22.561ZM135.482 16.3516L135.508 18.0654H133.043C132.349 18.0654 131.729 18.1226 131.184 18.2368C130.639 18.3423 130.182 18.5049 129.813 18.7246C129.444 18.9443 129.163 19.2212 128.969 19.5552C128.776 19.8804 128.679 20.2627 128.679 20.7021C128.679 21.1504 128.78 21.5591 128.982 21.9282C129.185 22.2974 129.488 22.5918 129.892 22.8115C130.305 23.0225 130.811 23.1279 131.408 23.1279C132.155 23.1279 132.814 22.9697 133.386 22.6533C133.957 22.3369 134.41 21.9502 134.744 21.4932C135.086 21.0361 135.271 20.5923 135.297 20.1616L136.339 21.335C136.277 21.7041 136.11 22.1128 135.838 22.561C135.565 23.0093 135.201 23.4399 134.744 23.853C134.295 24.2573 133.759 24.5957 133.135 24.8682C132.52 25.1318 131.826 25.2637 131.052 25.2637C130.085 25.2637 129.237 25.0747 128.508 24.6968C127.787 24.3188 127.225 23.8135 126.82 23.1807C126.425 22.5391 126.227 21.8228 126.227 21.0317C126.227 20.2671 126.376 19.5947 126.675 19.0146C126.974 18.4258 127.405 17.938 127.967 17.5513C128.53 17.1558 129.207 16.8569 129.998 16.6548C130.789 16.4526 131.672 16.3516 132.647 16.3516H135.482ZM143.985 10.7354V25H141.546V10.7354H143.985ZM153.346 10.7354L146.583 18.9092H143.168L142.799 16.7734H145.594L150.379 10.7354H153.346ZM150.722 25L145.475 18.54L147.044 16.7734L153.82 25H150.722ZM155.007 18.0259V17.7227C155.007 16.6943 155.156 15.7407 155.455 14.8618C155.754 13.9741 156.185 13.2051 156.747 12.5547C157.31 11.8955 157.991 11.3857 158.791 11.0254C159.59 10.6562 160.487 10.4717 161.48 10.4717C162.482 10.4717 163.383 10.6562 164.183 11.0254C164.991 11.3857 165.677 11.8955 166.239 12.5547C166.811 13.2051 167.246 13.9741 167.544 14.8618C167.843 15.7407 167.993 16.6943 167.993 17.7227V18.0259C167.993 19.0542 167.843 20.0078 167.544 20.8867C167.246 21.7656 166.811 22.5347 166.239 23.1938C165.677 23.8442 164.996 24.354 164.196 24.7231C163.405 25.0835 162.508 25.2637 161.506 25.2637C160.504 25.2637 159.604 25.0835 158.804 24.7231C158.004 24.354 157.318 23.8442 156.747 23.1938C156.185 22.5347 155.754 21.7656 155.455 20.8867C155.156 20.0078 155.007 19.0542 155.007 18.0259ZM157.446 17.7227V18.0259C157.446 18.7378 157.529 19.4102 157.696 20.043C157.863 20.667 158.114 21.2207 158.448 21.7041C158.791 22.1875 159.217 22.5698 159.727 22.8511C160.236 23.1235 160.83 23.2598 161.506 23.2598C162.174 23.2598 162.759 23.1235 163.26 22.8511C163.77 22.5698 164.191 22.1875 164.525 21.7041C164.859 21.2207 165.11 20.667 165.277 20.043C165.453 19.4102 165.541 18.7378 165.541 18.0259V17.7227C165.541 17.0195 165.453 16.356 165.277 15.7319C165.11 15.0991 164.855 14.541 164.512 14.0576C164.178 13.5654 163.756 13.1787 163.247 12.8975C162.746 12.6162 162.157 12.4756 161.48 12.4756C160.812 12.4756 160.223 12.6162 159.713 12.8975C159.212 13.1787 158.791 13.5654 158.448 14.0576C158.114 14.541 157.863 15.0991 157.696 15.7319C157.529 16.356 157.446 17.0195 157.446 17.7227ZM177.749 18.7246H173.068L173.042 16.7734H176.865C177.621 16.7734 178.25 16.6987 178.75 16.5493C179.26 16.3999 179.643 16.1758 179.897 15.877C180.152 15.5781 180.28 15.209 180.28 14.7695C180.28 14.4268 180.205 14.1279 180.056 13.873C179.915 13.6094 179.7 13.394 179.41 13.2271C179.12 13.0513 178.759 12.9238 178.329 12.8447C177.907 12.7568 177.41 12.7129 176.839 12.7129H173.714V25H171.275V10.7354H176.839C177.744 10.7354 178.557 10.8145 179.278 10.9727C180.007 11.1309 180.627 11.3726 181.137 11.6978C181.655 12.0142 182.051 12.4185 182.323 12.9106C182.596 13.4028 182.732 13.9829 182.732 14.6509C182.732 15.0815 182.644 15.4902 182.468 15.877C182.292 16.2637 182.033 16.6064 181.69 16.9053C181.348 17.2041 180.926 17.4502 180.425 17.6436C179.924 17.8281 179.348 17.9468 178.698 17.9995L177.749 18.7246ZM177.749 25H172.185L173.398 23.0225H177.749C178.425 23.0225 178.988 22.939 179.436 22.772C179.884 22.5962 180.218 22.3501 180.438 22.0337C180.667 21.7085 180.781 21.3218 180.781 20.8735C180.781 20.4253 180.667 20.043 180.438 19.7266C180.218 19.4014 179.884 19.1553 179.436 18.9883C178.988 18.8125 178.425 18.7246 177.749 18.7246H174.044L174.07 16.7734H178.698L179.581 17.5117C180.363 17.5732 181.027 17.7666 181.572 18.0918C182.117 18.417 182.53 18.8301 182.811 19.3311C183.092 19.8232 183.233 20.3594 183.233 20.9395C183.233 21.6074 183.105 22.1963 182.851 22.7061C182.604 23.2158 182.244 23.6421 181.77 23.9849C181.295 24.3188 180.719 24.5737 180.042 24.7495C179.366 24.9165 178.601 25 177.749 25ZM189.152 10.7354V25H186.713V10.7354H189.152ZM198.513 10.7354L191.75 18.9092H188.335L187.966 16.7734H190.761L195.546 10.7354H198.513ZM195.889 25L190.642 18.54L192.211 16.7734L198.987 25H195.889ZM209.521 22.561V15.2178C209.521 14.6553 209.407 14.1675 209.178 13.7544C208.958 13.3325 208.625 13.0073 208.176 12.7788C207.728 12.5503 207.174 12.436 206.515 12.436C205.9 12.436 205.359 12.5415 204.894 12.7524C204.437 12.9634 204.076 13.2402 203.812 13.583C203.558 13.9258 203.43 14.2949 203.43 14.6904H200.991C200.991 14.1807 201.123 13.6753 201.387 13.1743C201.65 12.6733 202.028 12.2207 202.521 11.8164C203.021 11.4033 203.619 11.0781 204.313 10.8408C205.017 10.5947 205.799 10.4717 206.66 10.4717C207.697 10.4717 208.611 10.6475 209.402 10.999C210.202 11.3506 210.826 11.8823 211.274 12.5942C211.731 13.2974 211.96 14.1807 211.96 15.2441V21.8887C211.96 22.3633 212 22.8687 212.079 23.4048C212.167 23.9409 212.294 24.4023 212.461 24.7891V25H209.917C209.793 24.7188 209.697 24.3452 209.626 23.8794C209.556 23.4048 209.521 22.9653 209.521 22.561ZM209.943 16.3516L209.969 18.0654H207.504C206.81 18.0654 206.19 18.1226 205.645 18.2368C205.1 18.3423 204.643 18.5049 204.274 18.7246C203.905 18.9443 203.624 19.2212 203.43 19.5552C203.237 19.8804 203.14 20.2627 203.14 20.7021C203.14 21.1504 203.241 21.5591 203.443 21.9282C203.646 22.2974 203.949 22.5918 204.353 22.8115C204.766 23.0225 205.271 23.1279 205.869 23.1279C206.616 23.1279 207.275 22.9697 207.847 22.6533C208.418 22.3369 208.871 21.9502 209.205 21.4932C209.547 21.0361 209.732 20.5923 209.758 20.1616L210.8 21.335C210.738 21.7041 210.571 22.1128 210.299 22.561C210.026 23.0093 209.662 23.4399 209.205 23.853C208.756 24.2573 208.22 24.5957 207.596 24.8682C206.981 25.1318 206.287 25.2637 205.513 25.2637C204.546 25.2637 203.698 25.0747 202.969 24.6968C202.248 24.3188 201.686 23.8135 201.281 23.1807C200.886 22.5391 200.688 21.8228 200.688 21.0317C200.688 20.2671 200.837 19.5947 201.136 19.0146C201.435 18.4258 201.866 17.938 202.428 17.5513C202.991 17.1558 203.667 16.8569 204.458 16.6548C205.25 16.4526 206.133 16.3516 207.108 16.3516H209.943Z" fill="#008C95"/>
<path d="M7.72559 262.233L0.870117 251.805H3.84961L8.95166 260.124H12.564L12.1553 262.233H7.72559ZM9.09668 262.035L3.52002 271H0.355957L7.48828 259.847L9.09668 262.035ZM13.6582 251.805V271H11.1401V251.805H13.6582ZM23.8359 251.805L16.9541 262.233H12.6562L12.2607 260.124H15.7412L20.8433 251.805H23.8359ZM21.1729 271L15.6094 262.035L17.231 259.847L24.3369 271H21.1729ZM31.957 271.264C30.9639 271.264 30.063 271.097 29.2544 270.763C28.4546 270.42 27.7646 269.941 27.1846 269.326C26.6133 268.71 26.1738 267.981 25.8662 267.137C25.5586 266.293 25.4048 265.371 25.4048 264.369V263.815C25.4048 262.655 25.5762 261.622 25.9189 260.717C26.2617 259.803 26.7275 259.029 27.3164 258.396C27.9053 257.764 28.5732 257.285 29.3203 256.959C30.0674 256.634 30.8408 256.472 31.6406 256.472C32.6602 256.472 33.5391 256.647 34.2773 256.999C35.0244 257.351 35.6353 257.843 36.1099 258.476C36.5845 259.1 36.936 259.838 37.1646 260.69C37.3931 261.534 37.5073 262.457 37.5073 263.459V264.553H26.855V262.562H35.0684V262.378C35.0332 261.745 34.9014 261.13 34.6729 260.532C34.4531 259.935 34.1016 259.442 33.6182 259.056C33.1348 258.669 32.4756 258.476 31.6406 258.476C31.0869 258.476 30.5771 258.594 30.1113 258.832C29.6455 259.06 29.2456 259.403 28.9116 259.86C28.5776 260.317 28.3184 260.875 28.1338 261.534C27.9492 262.193 27.8569 262.954 27.8569 263.815V264.369C27.8569 265.045 27.9492 265.683 28.1338 266.28C28.3271 266.869 28.604 267.388 28.9644 267.836C29.3335 268.284 29.7773 268.636 30.2959 268.891C30.8232 269.146 31.4209 269.273 32.0889 269.273C32.9502 269.273 33.6797 269.097 34.2773 268.746C34.875 268.394 35.3979 267.924 35.8462 267.335L37.3228 268.508C37.0151 268.974 36.624 269.418 36.1494 269.84C35.6748 270.262 35.0903 270.604 34.396 270.868C33.7104 271.132 32.8975 271.264 31.957 271.264ZM46.0635 269.26C46.6436 269.26 47.1797 269.141 47.6719 268.904C48.1641 268.667 48.5684 268.341 48.8848 267.928C49.2012 267.506 49.3813 267.027 49.4253 266.491H51.7456C51.7017 267.335 51.416 268.122 50.8887 268.851C50.3701 269.572 49.689 270.156 48.8452 270.604C48.0015 271.044 47.0742 271.264 46.0635 271.264C44.9912 271.264 44.0552 271.075 43.2554 270.697C42.4644 270.319 41.8052 269.8 41.2778 269.141C40.7593 268.482 40.3682 267.726 40.1045 266.874C39.8496 266.012 39.7222 265.103 39.7222 264.145V263.591C39.7222 262.633 39.8496 261.728 40.1045 260.875C40.3682 260.014 40.7593 259.253 41.2778 258.594C41.8052 257.935 42.4644 257.417 43.2554 257.039C44.0552 256.661 44.9912 256.472 46.0635 256.472C47.1797 256.472 48.1553 256.7 48.9902 257.157C49.8252 257.605 50.48 258.221 50.9546 259.003C51.438 259.776 51.7017 260.655 51.7456 261.64H49.4253C49.3813 261.051 49.2144 260.519 48.9243 260.044C48.6431 259.57 48.2563 259.192 47.7642 258.911C47.2808 258.621 46.7139 258.476 46.0635 258.476C45.3164 258.476 44.688 258.625 44.1782 258.924C43.6772 259.214 43.2773 259.609 42.9785 260.11C42.6885 260.603 42.4775 261.152 42.3457 261.758C42.2227 262.356 42.1611 262.967 42.1611 263.591V264.145C42.1611 264.769 42.2227 265.384 42.3457 265.99C42.4688 266.597 42.6753 267.146 42.9653 267.638C43.2642 268.13 43.6641 268.526 44.165 268.825C44.6748 269.115 45.3076 269.26 46.0635 269.26ZM60.3018 256.735V271H57.8496V256.735H60.3018ZM65.0874 256.735V258.713H53.1562V256.735H65.0874ZM70.1367 256.735V271H67.6978V256.735H70.1367ZM79.4971 256.735L72.7339 264.909H69.3193L68.9502 262.773H71.7451L76.5308 256.735H79.4971ZM76.8735 271L71.6265 264.54L73.1953 262.773L79.9717 271H76.8735ZM90.5054 268.561V261.218C90.5054 260.655 90.3911 260.167 90.1626 259.754C89.9429 259.333 89.6089 259.007 89.1606 258.779C88.7124 258.55 88.1587 258.436 87.4995 258.436C86.8843 258.436 86.3438 258.542 85.8779 258.752C85.4209 258.963 85.0605 259.24 84.7969 259.583C84.542 259.926 84.4146 260.295 84.4146 260.69H81.9756C81.9756 260.181 82.1074 259.675 82.3711 259.174C82.6348 258.673 83.0127 258.221 83.5049 257.816C84.0059 257.403 84.6035 257.078 85.2979 256.841C86.001 256.595 86.7832 256.472 87.6445 256.472C88.6816 256.472 89.5957 256.647 90.3867 256.999C91.1865 257.351 91.8105 257.882 92.2588 258.594C92.7158 259.297 92.9443 260.181 92.9443 261.244V267.889C92.9443 268.363 92.9839 268.869 93.063 269.405C93.1509 269.941 93.2783 270.402 93.4453 270.789V271H90.9009C90.7778 270.719 90.6812 270.345 90.6108 269.879C90.5405 269.405 90.5054 268.965 90.5054 268.561ZM90.9272 262.352L90.9536 264.065H88.4883C87.7939 264.065 87.1743 264.123 86.6294 264.237C86.0845 264.342 85.6274 264.505 85.2583 264.725C84.8892 264.944 84.6079 265.221 84.4146 265.555C84.2212 265.88 84.1245 266.263 84.1245 266.702C84.1245 267.15 84.2256 267.559 84.4277 267.928C84.6299 268.297 84.9331 268.592 85.3374 268.812C85.7505 269.022 86.2559 269.128 86.8535 269.128C87.6006 269.128 88.2598 268.97 88.8311 268.653C89.4023 268.337 89.855 267.95 90.189 267.493C90.5317 267.036 90.7163 266.592 90.7427 266.162L91.7842 267.335C91.7227 267.704 91.5557 268.113 91.2832 268.561C91.0107 269.009 90.646 269.44 90.189 269.853C89.7407 270.257 89.2046 270.596 88.5806 270.868C87.9653 271.132 87.271 271.264 86.4976 271.264C85.5308 271.264 84.6826 271.075 83.9531 270.697C83.2324 270.319 82.6699 269.813 82.2656 269.181C81.8701 268.539 81.6724 267.823 81.6724 267.032C81.6724 266.267 81.8218 265.595 82.1206 265.015C82.4194 264.426 82.8501 263.938 83.4126 263.551C83.9751 263.156 84.6519 262.857 85.4429 262.655C86.2339 262.453 87.1172 262.352 88.0928 262.352H90.9272ZM99.668 264.197H102.305L98.1782 271H95.5415L99.668 264.197ZM101.711 256.735H107.67V271H105.231V258.713H101.711C101.017 258.713 100.45 258.832 100.011 259.069C99.5713 259.297 99.2505 259.596 99.0483 259.965C98.8462 260.334 98.7451 260.717 98.7451 261.112C98.7451 261.499 98.8374 261.873 99.022 262.233C99.2065 262.584 99.4966 262.875 99.8921 263.103C100.288 263.332 100.797 263.446 101.421 263.446H105.891V265.45H101.421C100.604 265.45 99.8789 265.34 99.2461 265.12C98.6133 264.9 98.0771 264.597 97.6377 264.21C97.1982 263.815 96.8643 263.354 96.6357 262.826C96.4072 262.29 96.293 261.71 96.293 261.086C96.293 260.462 96.4116 259.886 96.6489 259.359C96.895 258.832 97.2466 258.37 97.7036 257.975C98.1694 257.579 98.7363 257.276 99.4043 257.065C100.081 256.845 100.85 256.735 101.711 256.735ZM122.304 269.523L126.272 256.735H128.883L123.161 273.202C123.029 273.553 122.854 273.931 122.634 274.335C122.423 274.749 122.15 275.14 121.816 275.509C121.482 275.878 121.078 276.177 120.604 276.405C120.138 276.643 119.58 276.761 118.929 276.761C118.736 276.761 118.49 276.735 118.191 276.682C117.892 276.629 117.681 276.585 117.558 276.55L117.545 274.573C117.615 274.582 117.725 274.59 117.875 274.599C118.033 274.617 118.143 274.625 118.204 274.625C118.758 274.625 119.228 274.551 119.615 274.401C120.001 274.261 120.327 274.019 120.59 273.676C120.863 273.342 121.096 272.881 121.289 272.292L122.304 269.523ZM119.391 256.735L123.095 267.81L123.728 270.38L121.975 271.277L116.728 256.735H119.391ZM140.59 256.735V258.752H133.378V256.735H140.59ZM133.734 256.735V271H131.295V256.735H133.734ZM142.752 256.735V271H140.3V256.735H142.752ZM155.079 268.561V261.218C155.079 260.655 154.964 260.167 154.736 259.754C154.516 259.333 154.182 259.007 153.734 258.779C153.286 258.55 152.732 258.436 152.073 258.436C151.458 258.436 150.917 258.542 150.451 258.752C149.994 258.963 149.634 259.24 149.37 259.583C149.115 259.926 148.988 260.295 148.988 260.69H146.549C146.549 260.181 146.681 259.675 146.944 259.174C147.208 258.673 147.586 258.221 148.078 257.816C148.579 257.403 149.177 257.078 149.871 256.841C150.574 256.595 151.356 256.472 152.218 256.472C153.255 256.472 154.169 256.647 154.96 256.999C155.76 257.351 156.384 257.882 156.832 258.594C157.289 259.297 157.518 260.181 157.518 261.244V267.889C157.518 268.363 157.557 268.869 157.636 269.405C157.724 269.941 157.852 270.402 158.019 270.789V271H155.474C155.351 270.719 155.254 270.345 155.184 269.879C155.114 269.405 155.079 268.965 155.079 268.561ZM155.5 262.352L155.527 264.065H153.062C152.367 264.065 151.748 264.123 151.203 264.237C150.658 264.342 150.201 264.505 149.832 264.725C149.462 264.944 149.181 265.221 148.988 265.555C148.794 265.88 148.698 266.263 148.698 266.702C148.698 267.15 148.799 267.559 149.001 267.928C149.203 268.297 149.506 268.592 149.911 268.812C150.324 269.022 150.829 269.128 151.427 269.128C152.174 269.128 152.833 268.97 153.404 268.653C153.976 268.337 154.428 267.95 154.762 267.493C155.105 267.036 155.29 266.592 155.316 266.162L156.357 267.335C156.296 267.704 156.129 268.113 155.856 268.561C155.584 269.009 155.219 269.44 154.762 269.853C154.314 270.257 153.778 270.596 153.154 270.868C152.539 271.132 151.844 271.264 151.071 271.264C150.104 271.264 149.256 271.075 148.526 270.697C147.806 270.319 147.243 269.813 146.839 269.181C146.443 268.539 146.246 267.823 146.246 267.032C146.246 266.267 146.395 265.595 146.694 265.015C146.993 264.426 147.423 263.938 147.986 263.551C148.548 263.156 149.225 262.857 150.016 262.655C150.807 262.453 151.69 262.352 152.666 262.352H155.5ZM164.004 256.735V271H161.565V256.735H164.004ZM173.364 256.735L166.601 264.909H163.187L162.817 262.773H165.612L170.398 256.735H173.364ZM170.741 271L165.494 264.54L167.062 262.773L173.839 271H170.741ZM175.025 264.026V263.723C175.025 262.694 175.175 261.741 175.474 260.862C175.772 259.974 176.203 259.205 176.766 258.555C177.328 257.896 178.009 257.386 178.809 257.025C179.609 256.656 180.505 256.472 181.499 256.472C182.5 256.472 183.401 256.656 184.201 257.025C185.01 257.386 185.695 257.896 186.258 258.555C186.829 259.205 187.264 259.974 187.563 260.862C187.862 261.741 188.011 262.694 188.011 263.723V264.026C188.011 265.054 187.862 266.008 187.563 266.887C187.264 267.766 186.829 268.535 186.258 269.194C185.695 269.844 185.014 270.354 184.214 270.723C183.423 271.083 182.527 271.264 181.525 271.264C180.523 271.264 179.622 271.083 178.822 270.723C178.022 270.354 177.337 269.844 176.766 269.194C176.203 268.535 175.772 267.766 175.474 266.887C175.175 266.008 175.025 265.054 175.025 264.026ZM177.464 263.723V264.026C177.464 264.738 177.548 265.41 177.715 266.043C177.882 266.667 178.132 267.221 178.466 267.704C178.809 268.188 179.235 268.57 179.745 268.851C180.255 269.124 180.848 269.26 181.525 269.26C182.193 269.26 182.777 269.124 183.278 268.851C183.788 268.57 184.21 268.188 184.544 267.704C184.878 267.221 185.128 266.667 185.295 266.043C185.471 265.41 185.559 264.738 185.559 264.026V263.723C185.559 263.02 185.471 262.356 185.295 261.732C185.128 261.099 184.874 260.541 184.531 260.058C184.197 259.565 183.775 259.179 183.265 258.897C182.764 258.616 182.175 258.476 181.499 258.476C180.831 258.476 180.242 258.616 179.732 258.897C179.231 259.179 178.809 259.565 178.466 260.058C178.132 260.541 177.882 261.099 177.715 261.732C177.548 262.356 177.464 263.02 177.464 263.723ZM197.767 264.725H193.087L193.061 262.773H196.884C197.64 262.773 198.268 262.699 198.769 262.549C199.279 262.4 199.661 262.176 199.916 261.877C200.171 261.578 200.298 261.209 200.298 260.77C200.298 260.427 200.224 260.128 200.074 259.873C199.934 259.609 199.718 259.394 199.428 259.227C199.138 259.051 198.778 258.924 198.347 258.845C197.925 258.757 197.429 258.713 196.857 258.713H193.733V271H191.294V256.735H196.857C197.763 256.735 198.576 256.814 199.296 256.973C200.026 257.131 200.646 257.373 201.155 257.698C201.674 258.014 202.069 258.418 202.342 258.911C202.614 259.403 202.75 259.983 202.75 260.651C202.75 261.082 202.663 261.49 202.487 261.877C202.311 262.264 202.052 262.606 201.709 262.905C201.366 263.204 200.944 263.45 200.443 263.644C199.942 263.828 199.367 263.947 198.716 264L197.767 264.725ZM197.767 271H192.204L193.417 269.022H197.767C198.444 269.022 199.006 268.939 199.455 268.772C199.903 268.596 200.237 268.35 200.457 268.034C200.685 267.708 200.799 267.322 200.799 266.874C200.799 266.425 200.685 266.043 200.457 265.727C200.237 265.401 199.903 265.155 199.455 264.988C199.006 264.812 198.444 264.725 197.767 264.725H194.062L194.089 262.773H198.716L199.6 263.512C200.382 263.573 201.045 263.767 201.59 264.092C202.135 264.417 202.548 264.83 202.83 265.331C203.111 265.823 203.251 266.359 203.251 266.939C203.251 267.607 203.124 268.196 202.869 268.706C202.623 269.216 202.263 269.642 201.788 269.985C201.313 270.319 200.738 270.574 200.061 270.75C199.384 270.917 198.62 271 197.767 271ZM209.171 256.735V271H206.732V256.735H209.171ZM218.531 256.735L211.768 264.909H208.354L207.984 262.773H210.779L215.565 256.735H218.531ZM215.908 271L210.661 264.54L212.229 262.773L219.006 271H215.908ZM229.54 268.561V261.218C229.54 260.655 229.425 260.167 229.197 259.754C228.977 259.333 228.643 259.007 228.195 258.779C227.747 258.55 227.193 258.436 226.534 258.436C225.918 258.436 225.378 258.542 224.912 258.752C224.455 258.963 224.095 259.24 223.831 259.583C223.576 259.926 223.449 260.295 223.449 260.69H221.01C221.01 260.181 221.142 259.675 221.405 259.174C221.669 258.673 222.047 258.221 222.539 257.816C223.04 257.403 223.638 257.078 224.332 256.841C225.035 256.595 225.817 256.472 226.679 256.472C227.716 256.472 228.63 256.647 229.421 256.999C230.221 257.351 230.845 257.882 231.293 258.594C231.75 259.297 231.979 260.181 231.979 261.244V267.889C231.979 268.363 232.018 268.869 232.097 269.405C232.185 269.941 232.312 270.402 232.479 270.789V271H229.935C229.812 270.719 229.715 270.345 229.645 269.879C229.575 269.405 229.54 268.965 229.54 268.561ZM229.961 262.352L229.988 264.065H227.522C226.828 264.065 226.208 264.123 225.664 264.237C225.119 264.342 224.662 264.505 224.292 264.725C223.923 264.944 223.642 265.221 223.449 265.555C223.255 265.88 223.159 266.263 223.159 266.702C223.159 267.15 223.26 267.559 223.462 267.928C223.664 268.297 223.967 268.592 224.372 268.812C224.785 269.022 225.29 269.128 225.888 269.128C226.635 269.128 227.294 268.97 227.865 268.653C228.437 268.337 228.889 267.95 229.223 267.493C229.566 267.036 229.75 266.592 229.777 266.162L230.818 267.335C230.757 267.704 230.59 268.113 230.317 268.561C230.045 269.009 229.68 269.44 229.223 269.853C228.775 270.257 228.239 270.596 227.615 270.868C227 271.132 226.305 271.264 225.532 271.264C224.565 271.264 223.717 271.075 222.987 270.697C222.267 270.319 221.704 269.813 221.3 269.181C220.904 268.539 220.707 267.823 220.707 267.032C220.707 266.267 220.856 265.595 221.155 265.015C221.454 264.426 221.884 263.938 222.447 263.551C223.009 263.156 223.686 262.857 224.477 262.655C225.268 262.453 226.151 262.352 227.127 262.352H229.961Z" fill="#008C95"/>
<path d="M14.502 586.387V588.47H6.63135V586.387H14.502ZM1.95117 590.896H4.48242C4.62305 591.801 4.85596 592.575 5.18115 593.216C5.51514 593.858 6.00293 594.35 6.64453 594.693C7.28613 595.027 8.14746 595.194 9.22852 595.194C10.0811 595.194 10.8193 595.018 11.4434 594.667C12.0674 594.306 12.5815 593.814 12.9858 593.19C13.3901 592.566 13.689 591.841 13.8823 591.015C14.0845 590.188 14.1855 589.305 14.1855 588.365V586.44C14.1855 585.623 14.1152 584.867 13.9746 584.172C13.834 583.469 13.623 582.841 13.3418 582.287C13.0605 581.725 12.709 581.246 12.2871 580.85C11.874 580.455 11.3906 580.151 10.8369 579.94C10.292 579.729 9.68115 579.624 9.00439 579.624C8.02002 579.624 7.21582 579.8 6.5918 580.151C5.97656 580.503 5.50195 581.004 5.16797 581.654C4.84277 582.296 4.61426 583.065 4.48242 583.961H1.95117C2.08301 582.696 2.43018 581.584 2.99268 580.626C3.55518 579.659 4.33301 578.903 5.32617 578.358C6.32812 577.813 7.5542 577.541 9.00439 577.541C10.1909 577.541 11.2588 577.752 12.208 578.174C13.1572 578.596 13.9658 579.198 14.6338 579.98C15.3105 580.762 15.8247 581.703 16.1763 582.801C16.5366 583.9 16.7168 585.122 16.7168 586.466V588.365C16.7168 589.709 16.5366 590.931 16.1763 592.03C15.8247 593.12 15.3193 594.056 14.6602 594.838C14.001 595.611 13.21 596.209 12.2871 596.631C11.373 597.053 10.3535 597.264 9.22852 597.264C7.69043 597.264 6.40723 596.987 5.37891 596.433C4.35059 595.871 3.55518 595.11 2.99268 594.152C2.43896 593.194 2.0918 592.109 1.95117 590.896ZM27.29 588.022H22.4253L22.3989 585.979H26.8154C27.5449 585.979 28.1821 585.855 28.7271 585.609C29.272 585.363 29.6938 585.012 29.9927 584.555C30.3003 584.089 30.4541 583.535 30.4541 582.894C30.4541 582.19 30.3179 581.619 30.0454 581.18C29.7817 580.731 29.373 580.406 28.8193 580.204C28.2744 579.993 27.5801 579.888 26.7363 579.888H22.9922V597H20.4478V577.805H26.7363C27.7207 577.805 28.5996 577.906 29.373 578.108C30.1465 578.301 30.8013 578.609 31.3374 579.031C31.8823 579.444 32.2954 579.971 32.5767 580.613C32.8579 581.254 32.9985 582.023 32.9985 582.92C32.9985 583.711 32.7964 584.427 32.3921 585.069C31.9878 585.702 31.4253 586.22 30.7046 586.625C29.9927 587.029 29.1577 587.288 28.1997 587.402L27.29 588.022ZM27.1714 597H21.4233L22.8604 594.93H27.1714C27.98 594.93 28.6655 594.79 29.228 594.508C29.7993 594.227 30.2344 593.832 30.5332 593.322C30.832 592.803 30.9814 592.192 30.9814 591.489C30.9814 590.777 30.854 590.162 30.5991 589.644C30.3442 589.125 29.9443 588.725 29.3994 588.444C28.8545 588.163 28.1514 588.022 27.29 588.022H23.6646L23.6909 585.979H28.6479L29.1885 586.717C30.1113 586.796 30.8936 587.06 31.5352 587.508C32.1768 587.947 32.6646 588.51 32.9985 589.195C33.3413 589.881 33.5127 590.637 33.5127 591.463C33.5127 592.658 33.249 593.669 32.7217 594.495C32.2031 595.312 31.4692 595.937 30.52 596.367C29.5708 596.789 28.4546 597 27.1714 597ZM44.376 579.505L38.0215 597H35.4243L42.7412 577.805H44.4155L44.376 579.505ZM49.7021 597L43.3345 579.505L43.2949 577.805H44.9692L52.3125 597H49.7021ZM49.3726 589.894V591.977H38.5884V589.894H49.3726ZM56.729 594.1V596.064C56.729 596.864 56.5269 597.708 56.1226 598.595C55.7183 599.492 55.1514 600.239 54.4219 600.836L53.0376 599.874C53.3188 599.487 53.5562 599.092 53.7495 598.688C53.9429 598.292 54.0879 597.879 54.1846 597.448C54.29 597.026 54.3428 596.578 54.3428 596.104V594.1H56.729ZM78.4951 590.896H81.0264C80.8945 592.109 80.5474 593.194 79.9849 594.152C79.4224 595.11 78.627 595.871 77.5986 596.433C76.5703 596.987 75.2871 597.264 73.749 597.264C72.624 597.264 71.6001 597.053 70.6772 596.631C69.7632 596.209 68.9766 595.611 68.3174 594.838C67.6582 594.056 67.1484 593.12 66.7881 592.03C66.4365 590.931 66.2607 589.709 66.2607 588.365V586.453C66.2607 585.108 66.4365 583.891 66.7881 582.801C67.1484 581.703 67.6626 580.762 68.3306 579.98C69.0073 579.198 69.8203 578.596 70.7695 578.174C71.7188 577.752 72.7866 577.541 73.9731 577.541C75.4233 577.541 76.6494 577.813 77.6514 578.358C78.6533 578.903 79.4312 579.659 79.9849 580.626C80.5474 581.584 80.8945 582.696 81.0264 583.961H78.4951C78.3721 583.065 78.1436 582.296 77.8096 581.654C77.4756 581.004 77.001 580.503 76.3857 580.151C75.7705 579.8 74.9663 579.624 73.9731 579.624C73.1206 579.624 72.3691 579.787 71.7188 580.112C71.0771 580.437 70.5366 580.898 70.0972 581.496C69.6665 582.094 69.3413 582.81 69.1216 583.645C68.9019 584.48 68.792 585.407 68.792 586.427V588.365C68.792 589.305 68.8887 590.188 69.082 591.015C69.2842 591.841 69.5874 592.566 69.9917 593.19C70.396 593.814 70.9102 594.306 71.5342 594.667C72.1582 595.018 72.8965 595.194 73.749 595.194C74.8301 595.194 75.6914 595.022 76.333 594.68C76.9746 594.337 77.458 593.845 77.7832 593.203C78.1172 592.562 78.3545 591.792 78.4951 590.896ZM96.2007 577.805V579.888H86.9458V597H84.4146V577.805H96.2007ZM86.3525 585.623H91.5864C92.9927 585.623 94.1792 585.86 95.146 586.334C96.1128 586.8 96.8467 587.455 97.3477 588.299C97.8486 589.143 98.0991 590.131 98.0991 591.265C98.0991 592.109 97.9585 592.882 97.6772 593.585C97.396 594.28 96.9785 594.886 96.4248 595.405C95.8711 595.915 95.1899 596.31 94.3813 596.591C93.5728 596.864 92.6411 597 91.5864 597H84.4146V577.805H86.959V594.93H91.5864C92.5269 594.93 93.2871 594.759 93.8672 594.416C94.4561 594.064 94.8867 593.607 95.1592 593.045C95.4316 592.482 95.5679 591.88 95.5679 591.239C95.5679 590.597 95.4316 590.008 95.1592 589.472C94.8867 588.936 94.4561 588.51 93.8672 588.193C93.2871 587.868 92.5269 587.706 91.5864 587.706H86.3525V585.623ZM113.115 590.896H115.646C115.515 592.109 115.167 593.194 114.605 594.152C114.042 595.11 113.247 595.871 112.219 596.433C111.19 596.987 109.907 597.264 108.369 597.264C107.244 597.264 106.22 597.053 105.297 596.631C104.383 596.209 103.597 595.611 102.938 594.838C102.278 594.056 101.769 593.12 101.408 592.03C101.057 590.931 100.881 589.709 100.881 588.365V586.453C100.881 585.108 101.057 583.891 101.408 582.801C101.769 581.703 102.283 580.762 102.951 579.98C103.627 579.198 104.44 578.596 105.39 578.174C106.339 577.752 107.407 577.541 108.593 577.541C110.043 577.541 111.27 577.813 112.271 578.358C113.273 578.903 114.051 579.659 114.605 580.626C115.167 581.584 115.515 582.696 115.646 583.961H113.115C112.992 583.065 112.764 582.296 112.43 581.654C112.096 581.004 111.621 580.503 111.006 580.151C110.391 579.8 109.586 579.624 108.593 579.624C107.741 579.624 106.989 579.787 106.339 580.112C105.697 580.437 105.157 580.898 104.717 581.496C104.287 582.094 103.961 582.81 103.742 583.645C103.522 584.48 103.412 585.407 103.412 586.427V588.365C103.412 589.305 103.509 590.188 103.702 591.015C103.904 591.841 104.208 592.566 104.612 593.19C105.016 593.814 105.53 594.306 106.154 594.667C106.778 595.018 107.517 595.194 108.369 595.194C109.45 595.194 110.312 595.022 110.953 594.68C111.595 594.337 112.078 593.845 112.403 593.203C112.737 592.562 112.975 591.792 113.115 590.896ZM120.959 594.1V596.064C120.959 596.864 120.757 597.708 120.353 598.595C119.949 599.492 119.382 600.239 118.652 600.836L117.268 599.874C117.549 599.487 117.787 599.092 117.98 598.688C118.173 598.292 118.318 597.879 118.415 597.448C118.521 597.026 118.573 596.578 118.573 596.104V594.1H120.959ZM145.797 577.805V597H143.266V579.888H133.8V597H131.256V577.805H145.797ZM157.254 588.022H152.389L152.363 585.979H156.779C157.509 585.979 158.146 585.855 158.691 585.609C159.236 585.363 159.658 585.012 159.957 584.555C160.264 584.089 160.418 583.535 160.418 582.894C160.418 582.19 160.282 581.619 160.009 581.18C159.746 580.731 159.337 580.406 158.783 580.204C158.238 579.993 157.544 579.888 156.7 579.888H152.956V597H150.412V577.805H156.7C157.685 577.805 158.563 577.906 159.337 578.108C160.11 578.301 160.765 578.609 161.301 579.031C161.846 579.444 162.259 579.971 162.541 580.613C162.822 581.254 162.962 582.023 162.962 582.92C162.962 583.711 162.76 584.427 162.356 585.069C161.952 585.702 161.389 586.22 160.668 586.625C159.957 587.029 159.122 587.288 158.164 587.402L157.254 588.022ZM157.135 597H151.387L152.824 594.93H157.135C157.944 594.93 158.629 594.79 159.192 594.508C159.763 594.227 160.198 593.832 160.497 593.322C160.796 592.803 160.945 592.192 160.945 591.489C160.945 590.777 160.818 590.162 160.563 589.644C160.308 589.125 159.908 588.725 159.363 588.444C158.818 588.163 158.115 588.022 157.254 588.022H153.628L153.655 585.979H158.612L159.152 586.717C160.075 586.796 160.857 587.06 161.499 587.508C162.141 587.947 162.628 588.51 162.962 589.195C163.305 589.881 163.477 590.637 163.477 591.463C163.477 592.658 163.213 593.669 162.686 594.495C162.167 595.312 161.433 595.937 160.484 596.367C159.535 596.789 158.418 597 157.135 597ZM168.882 577.805L173.496 585.161L178.11 577.805H181.077L175.012 587.31L181.222 597H178.229L173.496 589.499L168.763 597H165.771L171.98 587.31L165.916 577.805H168.882Z" fill="#008C95"/>
</svg>
