<svg width="292" height="511" viewBox="0 0 292 511" fill="none" xmlns="http://www.w3.org/2000/svg">
<path d="M138.797 100.999C138.797 110.944 130.742 118.999 120.797 118.999C110.852 118.999 102.797 110.944 102.797 100.999C102.797 91.0614 110.852 82.999 120.797 82.999C130.742 82.999 138.797 91.0614 138.797 100.999Z" fill="white"/>
<path d="M121.899 91.4517L110.242 103.108L118.653 111.519L130.31 99.8626L121.899 91.4517Z" fill="#77E2C3"/>
<path d="M124.566 94.1086L113.906 104.768L116.998 107.86L127.658 97.2004L124.566 94.1086Z" fill="#008C95"/>
<path d="M134.349 97.2352L132.879 97.3102L132.841 97.2727L132.916 95.8027L131.454 95.8777L131.529 94.4152L130.059 94.4902L130.134 93.0202L128.664 93.0952L128.739 91.6252L127.276 91.7002L127.351 90.2377L125.881 90.3127L125.956 88.8427L124.486 88.9177L124.561 87.4478L124.464 87.4553L123.744 88.1752L122.709 89.2102L121.906 91.4527L130.314 99.8602L132.556 99.0577L133.591 98.0227L134.349 97.2652V97.2352Z" fill="#008C95"/>
<path d="M117.026 114.551L117.101 113.089L117.064 113.051L115.601 113.126L115.676 111.656L114.206 111.731L114.281 110.261L112.811 110.336L112.886 108.874L111.424 108.949L111.499 107.479L110.029 107.554L110.104 106.084L108.634 106.159L108.709 104.696L107.246 104.771L107.254 104.666L107.966 103.946L109.009 102.911L111.244 102.109L119.659 110.516L118.856 112.759L117.814 113.794L117.056 114.551H117.026Z" fill="#008C95"/>
<path d="M87.7966 100.999C87.7966 110.944 79.7342 118.999 69.7967 118.999C59.8518 118.999 51.7969 110.944 51.7969 100.999C51.7969 91.0614 59.8518 82.999 69.7967 82.999C79.7342 82.999 87.7966 91.0614 87.7966 100.999Z" fill="white"/>
<path d="M74.0778 106.917H65.0703V90.3496H79.8827V101.112L74.0778 106.917Z" fill="#77E2C3"/>
<path d="M74.082 106.917V101.112H79.887L74.082 106.917Z" fill="#008C95"/>
<path d="M59.707 95.6304V106.378C59.707 109.295 62.107 111.658 65.0695 111.658C68.032 111.658 70.432 109.295 70.432 106.378V95.6304H59.707Z" fill="#008C95"/>
<path d="M70.432 95.6296C70.432 98.5471 68.032 100.91 65.0695 100.91C62.107 100.91 59.707 98.5471 59.707 95.6296C59.707 92.7121 62.107 90.3496 65.0695 90.3496C68.032 90.3496 70.432 92.7121 70.432 95.6296Z" fill="white"/>
<path d="M67.9298 95.6303C67.9298 97.1828 66.6473 98.4428 65.0723 98.4428C63.4973 98.4428 62.2148 97.1828 62.2148 95.6303C62.2148 94.0779 63.4973 92.8179 65.0723 92.8179C66.6548 92.8179 67.9298 94.0779 67.9298 95.6303Z" fill="#77E2C3"/>
<path d="M36.7966 50C36.7966 59.9449 28.7417 67.9998 18.7967 67.9998C8.85181 67.9998 0.796875 59.9449 0.796875 50C0.796875 40.0626 8.85181 32.0001 18.7967 32.0001C28.7417 32.0001 36.7966 40.0626 36.7966 50Z" fill="white"/>
<path d="M17.4606 36.7919H12.9531V39.9268H17.4606V36.7919Z" fill="#008C95"/>
<path d="M9.69922 62.5188L10.3892 63.2087H11.7692L12.4517 62.5188H13.8317L14.5217 63.2087H15.8942L16.5842 62.5188H17.9641L18.6466 63.2087H20.0266L20.7166 62.5188V57.0813H9.69922V62.5188Z" fill="#77E2C3"/>
<path d="M18.0841 39.9276H12.3317C10.6217 42.2751 9.70672 44.3451 9.69922 47.2476H20.7091C20.7091 44.3451 19.7866 42.2751 18.0841 39.9276Z" fill="#77E2C3"/>
<path d="M9.71094 47.2479C9.71094 47.2554 9.71094 47.2629 9.71094 47.2704V56.2403V57.0804H27.8983V56.2403V47.2704C27.8983 47.2629 27.8983 47.2554 27.8983 47.2479H9.71094Z" fill="#008C95"/>
<path d="M87.7966 49.9999C87.7966 59.9448 79.7342 67.9997 69.7967 67.9997C59.8518 67.9997 51.7969 59.9448 51.7969 49.9999C51.7969 40.0624 59.8518 32 69.7967 32C79.7342 32 87.7966 40.0624 87.7966 49.9999Z" fill="white"/>
<path d="M72.7359 37.8503H63.9609V58.7002H80.0333V45.1553L72.7359 37.8503Z" fill="#77E2C3"/>
<path d="M72.7383 37.8503V45.1553H80.0357L72.7383 37.8503Z" fill="#008C95"/>
<path d="M59.5625 42.1936V57.816C59.5625 60.2085 61.535 62.1509 63.965 62.1509C66.3949 62.1509 68.3674 60.2085 68.3674 57.816V42.1936H59.5625Z" fill="#008C95"/>
<path d="M68.3674 42.1853C68.3674 44.5778 66.3949 46.5203 63.965 46.5203C61.535 46.5203 59.5625 44.5778 59.5625 42.1853C59.5625 39.7928 61.535 37.8503 63.965 37.8503C66.3949 37.8503 68.3674 39.7928 68.3674 42.1853Z" fill="white"/>
<path d="M66.3083 42.1838C66.3083 43.4587 65.2583 44.4937 63.9608 44.4937C62.6633 44.4937 61.6133 43.4587 61.6133 42.1838C61.6133 40.9088 62.6633 39.8738 63.9608 39.8738C65.2583 39.8813 66.3083 40.9088 66.3083 42.1838Z" fill="#77E2C3"/>
<path d="M138.797 49.9999C138.797 59.9448 130.742 67.9997 120.797 67.9997C110.852 67.9997 102.797 59.9448 102.797 49.9999C102.797 40.0624 110.852 32 120.797 32C130.742 32 138.797 40.0624 138.797 49.9999Z" fill="white"/>
<path d="M121.513 41.7153L112.508 50.7202L120.07 58.2826L129.075 49.2777L121.513 41.7153Z" fill="#77E2C3"/>
<path d="M120.07 58.2875L118.12 61.505L109.293 52.6775L112.51 50.7275L120.07 58.2875Z" fill="#77E2C3"/>
<path d="M109.293 52.6784L106.891 55.0808L115.715 63.9054L118.118 61.503L109.293 52.6784Z" fill="#008C95"/>
<path d="M121.52 41.7196L123.477 38.4946L132.304 47.3221L129.079 49.2795L121.52 41.7196Z" fill="#77E2C3"/>
<path d="M125.871 36.0969L123.469 38.4993L132.293 47.3238L134.696 44.9215L125.871 36.0969Z" fill="#008C95"/>
<path d="M189.797 49.9999C189.797 59.9448 181.742 67.9997 171.797 67.9997C161.852 67.9997 153.797 59.9448 153.797 49.9999C153.797 40.0624 161.852 32 171.797 32C181.742 32 189.797 40.0624 189.797 49.9999Z" fill="white"/>
<path d="M167.671 35.8694L166.246 37.0544H169.104L167.671 35.8694Z" fill="#77E2C3"/>
<path d="M164.812 35.8694L163.387 37.0544H166.244L164.812 35.8694Z" fill="#77E2C3"/>
<path d="M170.53 35.8694L169.105 37.0544H171.963L170.53 35.8694Z" fill="#77E2C3"/>
<path d="M173.386 35.8694L171.961 37.0544H174.811L173.386 35.8694Z" fill="#77E2C3"/>
<path d="M176.245 35.8694L174.82 37.0544H177.67L176.245 35.8694Z" fill="#77E2C3"/>
<path d="M179.1 35.8694L177.668 37.0544H180.525L179.1 35.8694Z" fill="#77E2C3"/>
<path d="M171.644 47.9589L180.524 37.054H163.387L171.644 47.9589Z" fill="#77E2C3"/>
<path d="M180.301 48.8827V61.5876C180.301 62.9901 179.154 64.1376 177.751 64.1376H165.616C164.214 64.1376 163.066 62.9901 163.066 61.5876V48.8827C163.066 47.4803 164.214 46.3328 165.616 46.3328H177.751C179.154 46.3328 180.301 47.4803 180.301 48.8827Z" fill="#77E2C3"/>
<path d="M178.123 50.5712C178.123 49.8587 177.539 49.2737 176.826 49.2737H166.731C166.019 49.2737 165.434 49.8587 165.434 50.5712C165.434 51.0887 165.749 51.5612 166.229 51.7637L166.221 52.1387V53.0987V61.3261C166.221 61.7611 166.574 62.1136 167.009 62.1136H176.699C177.134 62.1136 177.486 61.7611 177.486 61.3261V52.8961V52.0936L177.508 51.6662C177.891 51.4337 178.123 51.0212 178.123 50.5712Z" fill="#008C95"/>
<path d="M171.203 58.6555C171.203 59.308 170.678 59.833 170.025 59.833C169.373 59.833 168.848 59.308 168.848 58.6555C168.848 58.003 169.373 57.478 170.025 57.478C170.678 57.478 171.203 58.003 171.203 58.6555Z" fill="#77E2C3"/>
<path d="M175.495 56.3153C175.495 56.8103 175.09 57.2153 174.595 57.2153C174.1 57.2153 173.695 56.8103 173.695 56.3153C173.695 55.8203 174.1 55.4153 174.595 55.4153C175.09 55.4153 175.495 55.8203 175.495 56.3153Z" fill="#77E2C3"/>
<path d="M172.382 53.1509C172.382 53.8034 171.857 54.3284 171.205 54.3284C170.552 54.3284 170.027 53.8034 170.027 53.1509C170.027 52.4984 170.552 51.9734 171.205 51.9734C171.857 51.9809 172.382 52.5059 172.382 53.1509Z" fill="#77E2C3"/>
<path d="M240.797 49.9999C240.797 59.9448 232.742 67.9997 222.797 67.9997C212.852 67.9997 204.797 59.9448 204.797 49.9999C204.797 40.0624 212.852 32 222.797 32C232.742 32 240.797 40.0624 240.797 49.9999Z" fill="white"/>
<path d="M234.141 51.3795L234.778 47.8995V47.577C234.748 45.192 234.058 43.2645 232.438 41.0146V38.4271C232.438 37.5196 231.643 36.7771 230.668 36.7771H226.093C225.216 36.7771 224.428 37.3096 224.158 38.0821C223.971 38.6296 223.483 38.9071 222.988 38.9371C222.981 38.9371 222.973 38.9371 222.966 38.9371C222.898 38.9371 222.831 38.9371 222.763 38.9296V38.9371C222.073 38.9221 221.556 38.6896 221.421 38.0821C221.151 37.3021 220.371 36.7771 219.486 36.7771H214.911C213.936 36.7771 213.141 37.5121 213.141 38.4271V41.0146C211.521 43.2645 210.831 45.192 210.801 47.577V47.8995L211.438 51.3795L210.808 56.397L210.801 61.3619L212.683 63.2144H220.551L221.076 62.7119C221.548 62.2619 222.156 62.0144 222.771 61.9619C223.401 62.0069 224.016 62.2544 224.496 62.7119L225.021 63.2144H225.441H228.921H232.888L234.771 61.3619L234.763 56.397L234.141 51.3795Z" fill="#77E2C3"/>
<path d="M219.31 38.7344H215.41V41.3219H219.31V38.7344Z" fill="#008C95"/>
<path d="M213.117 60.876L213.65 61.4085H214.707L215.24 60.876H216.305L216.83 61.4085H217.895L218.42 60.876H219.485L220.01 61.4085H221.075L221.6 60.876V56.9685H213.117V60.876Z" fill="white"/>
<path d="M219.571 42.4409H215.146C213.834 44.2559 213.121 45.8534 213.121 48.0959H221.604C221.596 45.8534 220.884 44.2559 219.571 42.4409Z" fill="white"/>
<path d="M213.121 48.0952C213.121 48.1027 213.121 48.1027 213.121 48.1102L213.766 51.6802L213.121 56.9602H221.604L220.966 51.6802L221.604 48.1102C221.604 48.1027 221.604 48.1027 221.604 48.0952H213.121Z" fill="#008C95"/>
<path d="M229.908 38.6978H226.008V41.2852H229.908V38.6978Z" fill="#008C95"/>
<path d="M223.719 60.8442L224.244 61.3767H225.309L225.834 60.8442H226.899L227.431 61.3767H228.489L229.021 60.8442H230.079L230.611 61.3767H231.669L232.201 60.8442V56.9292H223.719V60.8442Z" fill="white"/>
<path d="M230.169 42.4019H225.744C224.431 44.2168 223.719 45.8143 223.719 48.0568H232.201C232.194 45.8218 231.489 44.2168 230.169 42.4019Z" fill="white"/>
<path d="M223.719 48.0657C223.719 48.0732 223.719 48.0732 223.719 48.0807L224.364 51.6506L223.719 56.9306H232.201L231.564 51.6506L232.201 48.0807C232.201 48.0732 232.201 48.0732 232.201 48.0657H223.719Z" fill="#008C95"/>
<path d="M291.797 49.9999C291.797 59.9448 283.742 67.9997 273.797 67.9997C263.852 67.9997 255.797 59.9448 255.797 49.9999C255.797 40.0624 263.852 32 273.797 32C283.742 32 291.797 40.0624 291.797 49.9999Z" fill="white"/>
<path d="M283.81 45.4995H263.777V62.1119H283.81V45.4995Z" fill="#77E2C3"/>
<path d="M285.613 44.0593H261.98V48.1018H285.613V44.0593Z" fill="#77E2C3"/>
<path d="M268.102 37.8882L271.642 38.1057L274.334 44.0981L272.901 44.2331L269.594 39.3207L268.102 37.8882Z" fill="#008C95"/>
<path d="M266.332 41.9831L268.102 37.8882L269.714 39.2232L268.612 41.0606L273.247 44.0606H269.917L266.332 41.9831Z" fill="#008C95"/>
<path d="M280.033 37.8882L276.493 38.1057L273.793 44.0981L275.233 44.2331L278.533 39.3207L280.033 37.8882Z" fill="#008C95"/>
<path d="M281.802 41.9831L280.039 37.8882L278.419 39.2232L279.529 41.0606L274.887 44.0606H278.217L281.802 41.9831Z" fill="#008C95"/>
<path d="M275.365 44.0593H272.23V62.1117H275.365V44.0593Z" fill="#008C95"/>
<path d="M9.39844 3.04688V4.12695H4.59961V13H3.28711V3.04688H9.39844ZM10.7861 10.9971L14.1973 5.60352H15.4688V13H14.1973V7.60645L10.7861 13H9.52832V5.60352H10.7861V10.9971ZM22.2432 2.38379H23.2822C23.2822 2.8304 23.2139 3.18587 23.0771 3.4502C22.9404 3.70996 22.7536 3.91048 22.5166 4.05176C22.2842 4.19303 22.0199 4.30013 21.7236 4.37305C21.432 4.44596 21.1289 4.5166 20.8145 4.58496C20.4225 4.66699 20.0579 4.79688 19.7207 4.97461C19.388 5.14779 19.1009 5.39388 18.8594 5.71289C18.6224 6.0319 18.4469 6.44661 18.333 6.95703C18.2236 7.46745 18.194 8.09863 18.2441 8.85059V9.47949H17.2051V8.85059C17.2051 8.00749 17.2848 7.27148 17.4443 6.64258C17.6084 6.01367 17.8385 5.48275 18.1348 5.0498C18.431 4.61686 18.7819 4.27279 19.1875 4.01758C19.5977 3.76237 20.0488 3.58691 20.541 3.49121C20.8965 3.42285 21.2018 3.34993 21.457 3.27246C21.7122 3.19043 21.9059 3.08105 22.0381 2.94434C22.1748 2.80762 22.2432 2.62077 22.2432 2.38379ZM20.7461 6.02734C21.2292 6.02734 21.6598 6.11165 22.0381 6.28027C22.4163 6.44889 22.7376 6.68359 23.002 6.98438C23.2663 7.28516 23.4668 7.64062 23.6035 8.05078C23.7448 8.45638 23.8154 8.89844 23.8154 9.37695V9.52734C23.8154 10.0423 23.7402 10.5208 23.5898 10.9629C23.444 11.4004 23.2275 11.7832 22.9404 12.1113C22.6579 12.4349 22.3115 12.6878 21.9014 12.8701C21.4958 13.0524 21.0332 13.1436 20.5137 13.1436C19.9941 13.1436 19.5293 13.0524 19.1191 12.8701C18.7135 12.6878 18.3672 12.4349 18.0801 12.1113C17.793 11.7832 17.5742 11.4004 17.4238 10.9629C17.278 10.5208 17.2051 10.0423 17.2051 9.52734V9.37695C17.2051 9.26302 17.2256 9.15137 17.2666 9.04199C17.3076 8.93262 17.3577 8.82096 17.417 8.70703C17.4808 8.5931 17.5378 8.47233 17.5879 8.34473C17.7565 7.93457 17.9867 7.55404 18.2783 7.20312C18.5745 6.85221 18.9277 6.56966 19.3379 6.35547C19.7526 6.13672 20.222 6.02734 20.7461 6.02734ZM20.5 7.05957C20.0352 7.05957 19.6523 7.16667 19.3516 7.38086C19.0553 7.59505 18.8343 7.87988 18.6885 8.23535C18.5426 8.58626 18.4697 8.9668 18.4697 9.37695V9.52734C18.4697 9.8737 18.5107 10.2018 18.5928 10.5117C18.6748 10.8216 18.7979 11.0973 18.9619 11.3389C19.1305 11.5758 19.3424 11.7627 19.5977 11.8994C19.8574 12.0361 20.1628 12.1045 20.5137 12.1045C20.8646 12.1045 21.1676 12.0361 21.4229 11.8994C21.6781 11.7627 21.8877 11.5758 22.0518 11.3389C22.2158 11.0973 22.3389 10.8216 22.4209 10.5117C22.5029 10.2018 22.5439 9.8737 22.5439 9.52734V9.37695C22.5439 9.06706 22.5029 8.77311 22.4209 8.49512C22.3389 8.21712 22.2135 7.97103 22.0449 7.75684C21.8809 7.54264 21.6689 7.37402 21.4092 7.25098C21.154 7.12337 20.8509 7.05957 20.5 7.05957ZM26.502 5.60352V13H25.2373V5.60352H26.502ZM31.3555 5.60352L27.8486 9.8418H26.0781L25.8867 8.73438H27.3359L29.8174 5.60352H31.3555ZM29.9951 13L27.2744 9.65039L28.0879 8.73438L31.6016 13H29.9951ZM37.0635 11.7354V7.92773C37.0635 7.63607 37.0042 7.38314 36.8857 7.16895C36.7718 6.9502 36.5986 6.78158 36.3662 6.66309C36.1338 6.5446 35.8467 6.48535 35.5049 6.48535C35.1859 6.48535 34.9056 6.54004 34.6641 6.64941C34.4271 6.75879 34.2402 6.90234 34.1035 7.08008C33.9714 7.25781 33.9053 7.44922 33.9053 7.6543H32.6406C32.6406 7.38997 32.709 7.12793 32.8457 6.86816C32.9824 6.6084 33.1784 6.3737 33.4336 6.16406C33.6934 5.94987 34.0033 5.78125 34.3633 5.6582C34.7279 5.5306 35.1335 5.4668 35.5801 5.4668C36.1178 5.4668 36.5918 5.55794 37.002 5.74023C37.4167 5.92253 37.7402 6.19824 37.9727 6.56738C38.2096 6.93197 38.3281 7.38997 38.3281 7.94141V11.3867C38.3281 11.6328 38.3486 11.8949 38.3896 12.1729C38.4352 12.4508 38.5013 12.6901 38.5879 12.8906V13H37.2686C37.2048 12.8542 37.1546 12.6605 37.1182 12.4189C37.0817 12.1729 37.0635 11.945 37.0635 11.7354ZM37.2822 8.51562L37.2959 9.4043H36.0176C35.6576 9.4043 35.3363 9.43392 35.0537 9.49316C34.7712 9.54785 34.5342 9.63216 34.3428 9.74609C34.1514 9.86003 34.0055 10.0036 33.9053 10.1768C33.805 10.3454 33.7549 10.5436 33.7549 10.7715C33.7549 11.0039 33.8073 11.2158 33.9121 11.4072C34.0169 11.5986 34.1742 11.7513 34.3838 11.8652C34.598 11.9746 34.86 12.0293 35.1699 12.0293C35.5573 12.0293 35.8991 11.9473 36.1953 11.7832C36.4915 11.6191 36.7262 11.4186 36.8994 11.1816C37.0771 10.9447 37.1729 10.7145 37.1865 10.4912L37.7266 11.0996C37.6947 11.291 37.6081 11.5029 37.4668 11.7354C37.3255 11.9678 37.1364 12.1911 36.8994 12.4053C36.667 12.6149 36.389 12.7904 36.0654 12.9316C35.7464 13.0684 35.3864 13.1367 34.9854 13.1367C34.484 13.1367 34.0443 13.0387 33.666 12.8428C33.2923 12.6468 33.0007 12.3848 32.791 12.0566C32.5859 11.724 32.4834 11.3525 32.4834 10.9424C32.4834 10.5459 32.5609 10.1973 32.7158 9.89648C32.8708 9.59115 33.0941 9.33822 33.3857 9.1377C33.6774 8.93262 34.0283 8.77767 34.4385 8.67285C34.8486 8.56803 35.3066 8.51562 35.8125 8.51562H37.2822ZM41.8145 9.47266H43.1816L41.042 13H39.6748L41.8145 9.47266ZM42.874 5.60352H45.9639V13H44.6992V6.62891H42.874C42.514 6.62891 42.2201 6.69043 41.9922 6.81348C41.7643 6.93197 41.598 7.08691 41.4932 7.27832C41.3883 7.46973 41.3359 7.66797 41.3359 7.87305C41.3359 8.07357 41.3838 8.26725 41.4795 8.4541C41.5752 8.63639 41.7256 8.78678 41.9307 8.90527C42.1357 9.02376 42.4001 9.08301 42.7236 9.08301H45.041V10.1221H42.7236C42.2998 10.1221 41.9238 10.0651 41.5957 9.95117C41.2676 9.83724 40.9896 9.68001 40.7617 9.47949C40.5339 9.27441 40.3607 9.03516 40.2422 8.76172C40.1237 8.48372 40.0645 8.18294 40.0645 7.85938C40.0645 7.53581 40.126 7.2373 40.249 6.96387C40.3766 6.69043 40.5589 6.45117 40.7959 6.24609C41.0374 6.04102 41.3314 5.88379 41.6777 5.77441C42.0286 5.66048 42.4274 5.60352 42.874 5.60352ZM53.5518 12.2344L55.6094 5.60352H56.9629L53.9961 14.1416C53.9277 14.3239 53.8366 14.5199 53.7227 14.7295C53.6133 14.9437 53.472 15.1465 53.2988 15.3379C53.1257 15.5293 52.916 15.6842 52.6699 15.8027C52.4284 15.9258 52.139 15.9873 51.8018 15.9873C51.7015 15.9873 51.5739 15.9736 51.4189 15.9463C51.264 15.9189 51.1546 15.8962 51.0908 15.8779L51.084 14.8525C51.1204 14.8571 51.1774 14.8617 51.2549 14.8662C51.3369 14.8753 51.3939 14.8799 51.4258 14.8799C51.7129 14.8799 51.9567 14.8411 52.1572 14.7637C52.3577 14.6908 52.5264 14.5654 52.6631 14.3877C52.8044 14.2145 52.9251 13.9753 53.0254 13.6699L53.5518 12.2344ZM52.041 5.60352L53.9619 11.3457L54.29 12.6787L53.3809 13.1436L50.6602 5.60352H52.041ZM63.0332 5.60352V6.64941H59.2939V5.60352H63.0332ZM59.4785 5.60352V13H58.2139V5.60352H59.4785ZM64.1543 5.60352V13H62.8828V5.60352H64.1543ZM70.5459 11.7354V7.92773C70.5459 7.63607 70.4867 7.38314 70.3682 7.16895C70.2542 6.9502 70.0811 6.78158 69.8486 6.66309C69.6162 6.5446 69.3291 6.48535 68.9873 6.48535C68.6683 6.48535 68.388 6.54004 68.1465 6.64941C67.9095 6.75879 67.7227 6.90234 67.5859 7.08008C67.4538 7.25781 67.3877 7.44922 67.3877 7.6543H66.123C66.123 7.38997 66.1914 7.12793 66.3281 6.86816C66.4648 6.6084 66.6608 6.3737 66.916 6.16406C67.1758 5.94987 67.4857 5.78125 67.8457 5.6582C68.2103 5.5306 68.6159 5.4668 69.0625 5.4668C69.6003 5.4668 70.0742 5.55794 70.4844 5.74023C70.8991 5.92253 71.2227 6.19824 71.4551 6.56738C71.6921 6.93197 71.8105 7.38997 71.8105 7.94141V11.3867C71.8105 11.6328 71.8311 11.8949 71.8721 12.1729C71.9176 12.4508 71.9837 12.6901 72.0703 12.8906V13H70.751C70.6872 12.8542 70.637 12.6605 70.6006 12.4189C70.5641 12.1729 70.5459 11.945 70.5459 11.7354ZM70.7646 8.51562L70.7783 9.4043H69.5C69.14 9.4043 68.8187 9.43392 68.5361 9.49316C68.2536 9.54785 68.0166 9.63216 67.8252 9.74609C67.6338 9.86003 67.488 10.0036 67.3877 10.1768C67.2874 10.3454 67.2373 10.5436 67.2373 10.7715C67.2373 11.0039 67.2897 11.2158 67.3945 11.4072C67.4993 11.5986 67.6566 11.7513 67.8662 11.8652C68.0804 11.9746 68.3424 12.0293 68.6523 12.0293C69.0397 12.0293 69.3815 11.9473 69.6777 11.7832C69.974 11.6191 70.2087 11.4186 70.3818 11.1816C70.5596 10.9447 70.6553 10.7145 70.6689 10.4912L71.209 11.0996C71.1771 11.291 71.0905 11.5029 70.9492 11.7354C70.8079 11.9678 70.6188 12.1911 70.3818 12.4053C70.1494 12.6149 69.8714 12.7904 69.5479 12.9316C69.2288 13.0684 68.8688 13.1367 68.4678 13.1367C67.9665 13.1367 67.5267 13.0387 67.1484 12.8428C66.7747 12.6468 66.4831 12.3848 66.2734 12.0566C66.0684 11.724 65.9658 11.3525 65.9658 10.9424C65.9658 10.5459 66.0433 10.1973 66.1982 9.89648C66.3532 9.59115 66.5765 9.33822 66.8682 9.1377C67.1598 8.93262 67.5107 8.77767 67.9209 8.67285C68.3311 8.56803 68.7891 8.51562 69.2949 8.51562H70.7646ZM75.1738 5.60352V13H73.9092V5.60352H75.1738ZM80.0273 5.60352L76.5205 9.8418H74.75L74.5586 8.73438H76.0078L78.4893 5.60352H80.0273ZM78.667 13L75.9463 9.65039L76.7598 8.73438L80.2734 13H78.667ZM80.8887 9.38379V9.22656C80.8887 8.69336 80.9661 8.19889 81.1211 7.74316C81.276 7.28288 81.4993 6.88411 81.791 6.54688C82.0827 6.20508 82.4359 5.94076 82.8506 5.75391C83.2653 5.5625 83.7301 5.4668 84.2451 5.4668C84.7646 5.4668 85.2318 5.5625 85.6465 5.75391C86.0658 5.94076 86.4212 6.20508 86.7129 6.54688C87.0091 6.88411 87.2347 7.28288 87.3896 7.74316C87.5446 8.19889 87.6221 8.69336 87.6221 9.22656V9.38379C87.6221 9.91699 87.5446 10.4115 87.3896 10.8672C87.2347 11.3229 87.0091 11.7217 86.7129 12.0635C86.4212 12.4007 86.068 12.665 85.6533 12.8564C85.2432 13.0433 84.7783 13.1367 84.2588 13.1367C83.7393 13.1367 83.2721 13.0433 82.8574 12.8564C82.4427 12.665 82.0872 12.4007 81.791 12.0635C81.4993 11.7217 81.276 11.3229 81.1211 10.8672C80.9661 10.4115 80.8887 9.91699 80.8887 9.38379ZM82.1533 9.22656V9.38379C82.1533 9.75293 82.1966 10.1016 82.2832 10.4297C82.3698 10.7533 82.4997 11.0404 82.6729 11.291C82.8506 11.5417 83.0716 11.7399 83.3359 11.8857C83.6003 12.027 83.9079 12.0977 84.2588 12.0977C84.6051 12.0977 84.9082 12.027 85.168 11.8857C85.4323 11.7399 85.651 11.5417 85.8242 11.291C85.9974 11.0404 86.1273 10.7533 86.2139 10.4297C86.305 10.1016 86.3506 9.75293 86.3506 9.38379V9.22656C86.3506 8.86198 86.305 8.5179 86.2139 8.19434C86.1273 7.86621 85.9951 7.57682 85.8174 7.32617C85.6442 7.07096 85.4255 6.87044 85.1611 6.72461C84.9014 6.57878 84.596 6.50586 84.2451 6.50586C83.8988 6.50586 83.5934 6.57878 83.3291 6.72461C83.0693 6.87044 82.8506 7.07096 82.6729 7.32617C82.4997 7.57682 82.3698 7.86621 82.2832 8.19434C82.1966 8.5179 82.1533 8.86198 82.1533 9.22656ZM92.6807 9.74609H90.2539L90.2402 8.73438H92.2227C92.6146 8.73438 92.9404 8.69564 93.2002 8.61816C93.4645 8.54069 93.6628 8.42448 93.7949 8.26953C93.9271 8.11458 93.9932 7.92318 93.9932 7.69531C93.9932 7.51758 93.9544 7.36263 93.877 7.23047C93.804 7.09375 93.6924 6.9821 93.542 6.89551C93.3916 6.80436 93.2048 6.73828 92.9814 6.69727C92.7627 6.65169 92.5052 6.62891 92.209 6.62891H90.5889V13H89.3242V5.60352H92.209C92.6784 5.60352 93.0999 5.64453 93.4736 5.72656C93.8519 5.80859 94.1732 5.93392 94.4375 6.10254C94.7064 6.2666 94.9115 6.47624 95.0527 6.73145C95.194 6.98665 95.2646 7.28743 95.2646 7.63379C95.2646 7.8571 95.2191 8.06901 95.1279 8.26953C95.0368 8.47005 94.9023 8.64779 94.7246 8.80273C94.5469 8.95768 94.3281 9.08529 94.0684 9.18555C93.8086 9.28125 93.5101 9.34277 93.1729 9.37012L92.6807 9.74609ZM92.6807 13H89.7959L90.4248 11.9746H92.6807C93.0316 11.9746 93.3232 11.9313 93.5557 11.8447C93.7881 11.7536 93.9613 11.626 94.0752 11.4619C94.1937 11.2933 94.2529 11.0928 94.2529 10.8604C94.2529 10.6279 94.1937 10.4297 94.0752 10.2656C93.9613 10.097 93.7881 9.9694 93.5557 9.88281C93.3232 9.79167 93.0316 9.74609 92.6807 9.74609H90.7598L90.7734 8.73438H93.1729L93.6309 9.11719C94.0365 9.14909 94.3805 9.24935 94.6631 9.41797C94.9456 9.58659 95.1598 9.80078 95.3057 10.0605C95.4515 10.3158 95.5244 10.5938 95.5244 10.8945C95.5244 11.2409 95.4583 11.5462 95.3262 11.8105C95.1986 12.0749 95.0117 12.2959 94.7656 12.4736C94.5195 12.6468 94.221 12.779 93.8701 12.8701C93.5192 12.9567 93.1227 13 92.6807 13ZM98.5938 5.60352V13H97.3291V5.60352H98.5938ZM103.447 5.60352L99.9404 9.8418H98.1699L97.9785 8.73438H99.4277L101.909 5.60352H103.447ZM102.087 13L99.3662 9.65039L100.18 8.73438L103.693 13H102.087ZM109.155 11.7354V7.92773C109.155 7.63607 109.096 7.38314 108.978 7.16895C108.864 6.9502 108.69 6.78158 108.458 6.66309C108.226 6.5446 107.938 6.48535 107.597 6.48535C107.278 6.48535 106.997 6.54004 106.756 6.64941C106.519 6.75879 106.332 6.90234 106.195 7.08008C106.063 7.25781 105.997 7.44922 105.997 7.6543H104.732C104.732 7.38997 104.801 7.12793 104.938 6.86816C105.074 6.6084 105.27 6.3737 105.525 6.16406C105.785 5.94987 106.095 5.78125 106.455 5.6582C106.82 5.5306 107.225 5.4668 107.672 5.4668C108.21 5.4668 108.684 5.55794 109.094 5.74023C109.508 5.92253 109.832 6.19824 110.064 6.56738C110.301 6.93197 110.42 7.38997 110.42 7.94141V11.3867C110.42 11.6328 110.44 11.8949 110.481 12.1729C110.527 12.4508 110.593 12.6901 110.68 12.8906V13H109.36C109.297 12.8542 109.246 12.6605 109.21 12.4189C109.174 12.1729 109.155 11.945 109.155 11.7354ZM109.374 8.51562L109.388 9.4043H108.109C107.749 9.4043 107.428 9.43392 107.146 9.49316C106.863 9.54785 106.626 9.63216 106.435 9.74609C106.243 9.86003 106.097 10.0036 105.997 10.1768C105.897 10.3454 105.847 10.5436 105.847 10.7715C105.847 11.0039 105.899 11.2158 106.004 11.4072C106.109 11.5986 106.266 11.7513 106.476 11.8652C106.69 11.9746 106.952 12.0293 107.262 12.0293C107.649 12.0293 107.991 11.9473 108.287 11.7832C108.583 11.6191 108.818 11.4186 108.991 11.1816C109.169 10.9447 109.265 10.7145 109.278 10.4912L109.818 11.0996C109.786 11.291 109.7 11.5029 109.559 11.7354C109.417 11.9678 109.228 12.1911 108.991 12.4053C108.759 12.6149 108.481 12.7904 108.157 12.9316C107.838 13.0684 107.478 13.1367 107.077 13.1367C106.576 13.1367 106.136 13.0387 105.758 12.8428C105.384 12.6468 105.092 12.3848 104.883 12.0566C104.678 11.724 104.575 11.3525 104.575 10.9424C104.575 10.5459 104.653 10.1973 104.808 9.89648C104.963 9.59115 105.186 9.33822 105.478 9.1377C105.769 8.93262 106.12 8.77767 106.53 8.67285C106.94 8.56803 107.398 8.51562 107.904 8.51562H109.374Z" fill="white"/>
<path d="M291.798 297.6C291.798 307.511 283.771 315.538 273.86 315.538C263.949 315.538 255.922 307.511 255.922 297.6C255.922 287.689 263.949 279.662 273.86 279.662C283.771 279.662 291.798 287.697 291.798 297.6Z" fill="white"/>
<path d="M279.457 299.82V295.209L283.388 292.907V297.526L279.457 299.82Z" fill="#008C95"/>
<path d="M278.349 300.463L274.418 302.757V298.146L278.349 295.851V300.463Z" fill="#008C95"/>
<path d="M279.457 301.097L283.388 298.802V303.19L279.457 305.484V301.097Z" fill="#008C95"/>
<path d="M278.349 301.741V306.136L274.418 308.43V304.043L278.349 301.741Z" fill="#008C95"/>
<path d="M279.457 299.82V295.209L283.388 292.907V297.526L279.457 299.82Z" fill="#77E2C3"/>
<path d="M278.349 300.463L274.418 302.757V298.146L278.349 295.851V300.463Z" fill="#77E2C3"/>
<path d="M279.457 301.097L283.388 298.802V303.19L279.457 305.484V301.097Z" fill="#77E2C3"/>
<path d="M278.349 301.741V306.136L274.418 308.43V304.043L278.349 301.741Z" fill="#77E2C3"/>
<path d="M268.26 299.82V295.209L264.328 292.907V297.526L268.26 299.82Z" fill="#008C95"/>
<path d="M269.363 300.463L273.295 302.757V298.146L269.363 295.851V300.463Z" fill="#008C95"/>
<path d="M268.26 301.097L264.328 298.802V303.19L268.26 305.484V301.097Z" fill="#008C95"/>
<path d="M269.363 301.741V306.136L273.295 308.43V304.043L269.363 301.741Z" fill="#008C95"/>
<path d="M272.747 291.911L268.868 294.146L264.914 291.859L268.793 289.632L272.747 291.911Z" fill="#77E2C3"/>
<path d="M273.84 291.285L269.879 289.005L273.758 286.77L277.719 289.057L273.84 291.285Z" fill="#77E2C3"/>
<path d="M274.93 291.913L278.809 289.685L282.763 291.965L278.884 294.2L274.93 291.913Z" fill="#77E2C3"/>
<path d="M273.84 292.541L277.801 294.828L273.922 297.055L269.961 294.775L273.84 292.541Z" fill="#77E2C3"/>
<path d="M240.978 246.753C240.978 256.664 232.95 264.691 223.04 264.691C213.129 264.691 205.102 256.664 205.102 246.753C205.102 236.843 213.129 228.815 223.04 228.815C232.95 228.815 240.978 236.843 240.978 246.753Z" fill="white"/>
<path d="M226.018 258.436L225.473 248.891H233.179L232.625 258.436H226.018Z" fill="#008C95"/>
<path d="M234.282 247.689H224.371V249.512H234.282V247.689Z" fill="#77E2C3"/>
<path d="M220.037 234.974H216.016V237.769H220.037V234.974Z" fill="#008C95"/>
<path d="M213.117 257.92L213.73 258.533H214.963L215.576 257.92H216.802L217.415 258.533H218.648L219.261 257.92H220.487L221.1 258.533H222.325L222.946 257.92V253.062H213.117V257.92Z" fill="#77E2C3"/>
<path d="M220.599 237.769H215.472C213.947 239.862 213.132 241.708 213.125 244.294H222.946C222.939 241.708 222.116 239.862 220.599 237.769Z" fill="#77E2C3"/>
<path d="M213.125 244.294C213.125 244.301 213.125 244.309 213.125 244.309V252.313V253.061H222.946V252.313V244.309C222.946 244.301 222.946 244.294 222.946 244.294H213.125Z" fill="#008C95"/>
<path d="M240.978 195.937C240.978 205.848 232.95 213.875 223.04 213.875C213.129 213.875 205.102 205.848 205.102 195.937C205.102 186.026 213.129 177.999 223.04 177.999C232.95 177.999 240.978 186.034 240.978 195.937Z" fill="white"/>
<path d="M220.823 184.247H216.832V187.02H220.823V184.247Z" fill="#008C95"/>
<path d="M230.694 189.546H226.703V192.319H230.694V189.546Z" fill="#008C95"/>
<path d="M213.949 207.021L214.555 207.634H215.773L216.386 207.021H217.604L218.217 207.634H219.435L220.041 207.021H221.259L221.872 207.634H223.09L223.696 207.021V202.208H213.949V207.021Z" fill="#77E2C3"/>
<path d="M221.371 187.02H216.281C214.771 189.098 213.957 190.929 213.949 193.5H223.696C223.696 190.929 222.881 189.098 221.371 187.02Z" fill="#77E2C3"/>
<path d="M213.949 193.499C213.949 193.507 213.949 193.514 213.949 193.514V201.459V202.207H223.703V201.459V193.514C223.703 193.507 223.703 193.499 223.703 193.499H213.949Z" fill="#008C95"/>
<path d="M225.262 207.177L225.688 207.633H226.547L226.981 207.177H227.833L228.266 207.633H229.126L229.552 207.177H230.411L230.845 207.633H231.697L232.13 207.177V203.597H225.262V207.177Z" fill="#77E2C3"/>
<path d="M230.486 192.319H226.899C225.837 193.866 225.262 195.227 225.262 197.132H232.13C232.123 195.227 231.555 193.866 230.486 192.319Z" fill="#77E2C3"/>
<path d="M225.262 197.132C225.262 197.14 225.262 197.14 225.262 197.147L225.785 198.844L225.262 203.605H232.13L231.607 198.844L232.13 197.147C232.13 197.14 232.13 197.14 232.13 197.132H225.262Z" fill="#008C95"/>
<path d="M37.6729 246.753C37.6729 256.664 29.6456 264.691 19.7349 264.691C9.82413 264.691 1.79688 256.664 1.79688 246.753C1.79688 236.843 9.82413 228.815 19.7349 228.815C29.6456 228.815 37.6729 236.843 37.6729 246.753Z" fill="white"/>
<path d="M27.3382 256.873H12.2553L10.2148 249.78H29.3711L27.3382 256.873Z" fill="#008C95"/>
<path d="M23.8042 236.633L9.64062 241.835L10.1862 249.219L28.1691 242.612L23.8042 236.633Z" fill="#77E2C3"/>
<path d="M30.9752 248.016H8.50781V250.46H30.9752V248.016Z" fill="#77E2C3"/>
<path d="M29.5259 240.058L8.52344 248.04L9.38916 250.318L30.3917 242.335L29.5259 240.058Z" fill="#77E2C3"/>
<path d="M13.2198 242.424L11.4375 243.078L12.6017 246.249L14.3839 245.595L13.2198 242.424Z" fill="white"/>
<path d="M16.544 241.197L14.7617 241.851L15.9259 245.023L17.7081 244.369L16.544 241.197Z" fill="white"/>
<path d="M19.8721 239.979L18.0898 240.633L19.254 243.804L21.0363 243.15L19.8721 239.979Z" fill="white"/>
<path d="M23.1963 238.761L21.4141 239.415L22.5782 242.586L24.3605 241.932L23.1963 238.761Z" fill="white"/>
<path d="M15.3711 251.94H13.4727V255.319H15.3711V251.94Z" fill="white"/>
<path d="M18.9141 251.94H17.0156V255.319H18.9141V251.94Z" fill="white"/>
<path d="M22.457 251.94H20.5586V255.319H22.457V251.94Z" fill="white"/>
<path d="M26 251.94H24.1016V255.319H26V251.94Z" fill="white"/>
<path d="M88.4932 195.937C88.4932 205.848 80.4585 213.875 70.5552 213.875C60.6444 213.875 52.6172 205.848 52.6172 195.937C52.6172 186.026 60.6444 177.999 70.5552 177.999C80.4585 177.999 88.4932 186.034 88.4932 195.937Z" fill="white"/>
<path d="M78.4613 193.014C78.4613 193.35 78.4463 193.679 78.4089 194.008C77.9306 198.791 74.044 202.566 69.2157 202.872C69.0064 202.887 68.7972 202.894 68.5804 202.894C68.3711 202.894 68.1544 202.887 67.9526 202.872C62.7954 202.543 58.707 198.26 58.707 193.021C58.707 187.782 62.7879 183.491 67.9526 183.17H67.9601C68.1619 183.155 68.3711 183.148 68.5804 183.148C68.7897 183.148 68.999 183.155 69.2082 183.17H69.2157C74.2832 183.491 78.3192 187.632 78.4538 192.752C78.4612 192.827 78.4613 192.924 78.4613 193.014Z" fill="#77E2C3"/>
<path d="M73.941 193.014C73.941 193.193 73.9335 193.372 73.9111 193.552C73.6495 196.145 71.5417 198.193 68.9258 198.358C68.8137 198.365 68.7016 198.365 68.582 198.365C68.4624 198.365 68.3503 198.358 68.2382 198.358C65.4428 198.178 63.2305 195.854 63.2305 193.014C63.2305 190.173 65.4428 187.849 68.2382 187.677H68.2457C68.3578 187.67 68.4699 187.662 68.582 187.662C68.6941 187.662 68.8062 187.67 68.9183 187.677H68.9258C71.6763 187.849 73.8587 190.099 73.9335 192.872C73.941 192.916 73.941 192.961 73.941 193.014Z" fill="white"/>
<path d="M73.9918 206.138L70.2846 209.845C69.8137 210.002 69.2756 209.188 69.582 207.939C69.9782 206.639 70.2696 206.049 71.2637 204.957C73.506 202.678 76.1369 201.071 76.8768 200.645L82.8711 194.65L84.1716 195.951L78.3418 201.781L73.9918 206.138Z" fill="#77E2C3"/>
<path d="M80.8839 192.909L80.0842 192.109L76.1677 196.026L75.5848 195.443L79.5012 191.526L78.7015 190.726L74.785 194.65L74.0974 193.963L78.0139 190.046L77.2141 189.247L73.2977 193.171L72.4456 194.023C71.743 194.725 71.6683 195.816 72.2289 196.601L64.2539 204.576L65.5544 205.884L73.5368 197.909C74.3216 198.462 75.4129 198.395 76.1154 197.692L76.2799 197.528L76.9675 196.84L80.8839 192.909Z" fill="#77E2C3"/>
<path d="M78.4326 193.761L76.1679 196.026L75.5849 195.443L78.455 192.573C78.4326 192.087 78.3803 191.609 78.2906 191.145L74.7926 194.643L74.105 193.956L78.0215 190.039C78.0215 190.032 78.014 190.024 78.014 190.017L77.2292 189.232L73.3128 193.148L72.4607 194C71.7581 194.703 71.6834 195.794 72.2439 196.579L66.2422 202.581C66.8028 202.715 67.3783 202.813 67.9762 202.85C68.1705 202.865 68.3649 202.865 68.5667 202.865L73.5445 197.887C74.3293 198.44 75.4205 198.373 76.123 197.67L76.2875 197.506L76.9751 196.818L78.1037 195.69C78.2607 195.144 78.3653 194.576 78.4251 193.993C78.4251 193.926 78.4251 193.843 78.4326 193.761Z" fill="#008C95"/>
<path d="M139.325 195.937C139.325 205.848 131.298 213.875 121.387 213.875C111.476 213.875 103.449 205.848 103.449 195.937C103.449 186.026 111.476 177.999 121.387 177.999C131.298 177.999 139.325 186.034 139.325 195.937Z" fill="white"/>
<path d="M131.635 193.909H111.156C110.879 194.186 110.73 194.335 110.453 194.612V204.411H132.33V194.612C132.061 194.343 131.911 194.186 131.635 193.909Z" fill="#77E2C3"/>
<path d="M125.746 202.043C125.746 204.225 127.121 205.989 128.818 205.989C130.515 205.989 131.89 204.225 131.89 202.043C131.89 199.861 130.515 198.097 128.818 198.097C127.121 198.089 125.746 199.861 125.746 202.043Z" fill="white"/>
<path d="M118.316 202.043C118.316 204.225 119.692 205.989 121.388 205.989C123.085 205.989 124.46 204.225 124.46 202.043C124.46 199.861 123.085 198.097 121.388 198.097C119.692 198.089 118.316 199.861 118.316 202.043Z" fill="white"/>
<path d="M110.91 202.043C110.91 204.225 112.285 205.989 113.982 205.989C115.679 205.989 117.054 204.225 117.054 202.043C117.054 199.861 115.679 198.097 113.982 198.097C112.285 198.089 110.91 199.861 110.91 202.043Z" fill="white"/>
<path d="M125.999 206.497H131.635C131.912 206.22 132.061 206.071 132.338 205.794V202.326H125.297V205.794C125.573 206.071 125.723 206.228 125.999 206.497Z" fill="#008C95"/>
<path d="M118.605 206.497H124.248C124.525 206.22 124.674 206.071 124.951 205.794V202.326H117.91V205.794C118.179 206.071 118.329 206.228 118.605 206.497Z" fill="#008C95"/>
<path d="M111.164 206.497H116.807C117.083 206.22 117.233 206.071 117.509 205.794V202.326H110.469V205.794C110.738 206.071 110.887 206.228 111.164 206.497Z" fill="#008C95"/>
<path d="M127.433 202.326H113.531V205.181H127.433V202.326Z" fill="#008C95"/>
<path d="M133.637 202.326H109.145V203.38H133.637V202.326Z" fill="#008C95"/>
<path d="M116.806 185.382H111.164C110.887 185.658 110.737 185.808 110.461 186.084V189.552H117.509V186.084L116.806 185.382Z" fill="#008C95"/>
<path d="M124.507 185.382H118.236C117.952 185.666 117.788 185.83 117.504 186.114V189.552H125.24V186.114C124.956 185.83 124.799 185.666 124.507 185.382Z" fill="#008C95"/>
<path d="M131.75 185.382H125.898C125.621 185.658 125.464 185.815 125.188 186.092V189.552H132.46V186.092C132.183 185.815 132.026 185.658 131.75 185.382Z" fill="#008C95"/>
<path d="M129.265 186.699H115.363V189.554H129.265V186.699Z" fill="#008C95"/>
<path d="M125.746 190.988C125.746 193.171 127.121 194.935 128.818 194.935C130.515 194.935 131.89 193.171 131.89 190.988C131.89 188.806 130.515 187.042 128.818 187.042C127.121 187.042 125.746 188.806 125.746 190.988Z" fill="white"/>
<path d="M118.316 190.988C118.316 193.171 119.692 194.935 121.388 194.935C123.085 194.935 124.46 193.171 124.46 190.988C124.46 188.806 123.085 187.042 121.388 187.042C119.692 187.042 118.316 188.806 118.316 190.988Z" fill="white"/>
<path d="M110.91 190.988C110.91 193.171 112.285 194.935 113.982 194.935C115.679 194.935 117.054 193.171 117.054 190.988C117.054 188.806 115.679 187.042 113.982 187.042C112.285 187.042 110.91 188.806 110.91 190.988Z" fill="white"/>
<path d="M127.433 191.28H113.531V194.135H127.433V191.28Z" fill="#008C95"/>
<path d="M133.637 191.28H109.145V192.334H133.637V191.28Z" fill="#008C95"/>
<path d="M116.806 196.504H111.164C110.887 196.228 110.737 196.078 110.461 195.802V192.334H117.509V195.802C117.233 196.078 117.076 196.228 116.806 196.504Z" fill="#008C95"/>
<path d="M124.507 196.504H118.236C117.952 196.22 117.788 196.056 117.504 195.772V192.334H125.24V195.772C124.956 196.056 124.799 196.22 124.507 196.504Z" fill="#008C95"/>
<path d="M131.75 196.504H125.898C125.621 196.228 125.464 196.071 125.188 195.794V192.334H132.46V195.794C132.183 196.071 132.026 196.228 131.75 196.504Z" fill="#008C95"/>
<path d="M190.146 195.937C190.146 205.848 182.118 213.875 172.208 213.875C162.297 213.875 154.27 205.848 154.27 195.937C154.27 186.026 162.297 177.999 172.208 177.999C182.118 177.999 190.146 186.034 190.146 195.937Z" fill="white"/>
<path d="M175.577 202.626L175.569 188.814L174.149 186.168H164.874L163.468 188.814L163.461 202.626C163.461 204.113 164.664 205.317 166.152 205.317H172.893C174.373 205.317 175.577 204.113 175.577 202.626Z" fill="#77E2C3"/>
<path d="M163.461 188.814H175.569L174.142 186.168H164.874L163.461 188.814Z" fill="#008C95"/>
<path d="M173.882 185.24H165.137C164.614 185.24 164.195 184.822 164.195 184.299V184.089C164.195 183.574 164.614 183.148 165.137 183.148H173.882C174.405 183.148 174.824 183.566 174.824 184.089V184.299C174.824 184.814 174.398 185.24 173.882 185.24Z" fill="#008C95"/>
<path d="M169.929 195.016H174.264V193.544C174.264 193.132 174.563 192.796 174.929 192.796H178.883C179.249 192.796 179.548 193.132 179.548 193.544V194.979H179.72C180.4 194.979 180.953 195.532 180.953 196.212V207.147C180.953 207.999 180.265 208.694 179.413 208.694L170.243 208.724C169.39 208.724 168.695 208.036 168.695 207.176V196.242C168.688 195.569 169.241 195.016 169.929 195.016ZM178.173 193.828H175.609V194.979H178.173V193.828Z" fill="#77E2C3"/>
<path d="M173.231 192.647H169.957V194.262H173.231V192.647Z" fill="#008C95"/>
<path d="M172.888 205.315C174.376 205.315 175.579 204.112 175.579 202.625L175.572 192.796H174.921C174.555 192.796 174.264 193.132 174.264 193.544V195.016H169.929C169.248 195.016 168.695 195.569 168.695 196.249V205.308H172.888V205.315Z" fill="#008C95"/>
<path d="M37.6729 195.937C37.6729 205.848 29.6456 213.875 19.7349 213.875C9.82413 213.875 1.79688 205.848 1.79688 195.937C1.79688 186.026 9.82413 177.999 19.7349 177.999C29.6456 177.999 37.6729 186.034 37.6729 195.937Z" fill="white"/>
<path d="M25.75 195.608H13.0514L11.3398 187.723H27.4616L25.75 195.608Z" fill="#77E2C3"/>
<path d="M28.8045 186.452H9.90234V188.994H28.8045V186.452Z" fill="#008C95"/>
<path d="M27.2779 205.429H12.3071L10.2891 196.131H29.3034L27.2779 205.429Z" fill="#77E2C3"/>
<path d="M30.8814 194.86H8.58594V197.402H30.8814V194.86Z" fill="#008C95"/>
<path d="M190.146 246.753C190.146 256.664 182.118 264.691 172.208 264.691C162.297 264.691 154.27 256.664 154.27 246.753C154.27 236.843 162.297 228.815 172.208 228.815C182.118 228.815 190.146 236.843 190.146 246.753Z" fill="white"/>
<path d="M165.055 240.332H179.353L177.641 236.506H166.759L165.055 240.332Z" fill="#77E2C3"/>
<path d="M179.39 241.932H165.017C165.017 241.932 165.002 252.268 165.01 252.47H179.398L179.39 241.932Z" fill="#77E2C3"/>
<path d="M167.222 259.13H177.185C178.224 259.13 179.098 258.143 179.181 256.858L179.367 254.085H165.047C165.047 254.107 165.137 255.52 165.219 256.85C165.308 258.136 166.175 259.13 167.222 259.13Z" fill="#77E2C3"/>
<path d="M177.639 236.506H166.757C166.174 236.506 165.695 236.027 165.695 235.444C165.695 234.854 166.174 234.383 166.757 234.383H177.639C178.222 234.383 178.7 234.861 178.7 235.444C178.7 236.027 178.222 236.506 177.639 236.506Z" fill="#008C95"/>
<path d="M291.798 195.937C291.798 205.848 283.771 213.875 273.86 213.875C263.949 213.875 255.922 205.848 255.922 195.937C255.922 186.026 263.949 177.999 273.86 177.999C283.771 177.999 291.798 186.034 291.798 195.937Z" fill="white"/>
<path d="M273.863 203.865H273.004V204.725H274.715V203.865H273.863Z" fill="white"/>
<path d="M283.685 206.788H281.39V204.987H266.337V206.788H264.043V202.7H283.685V206.788Z" fill="#008C95"/>
<path d="M275.006 203.844H272.711V206.788H275.006V203.844Z" fill="#008C95"/>
<path d="M273.008 186.802H265.758V194.052H273.008V186.802Z" fill="#77E2C3"/>
<path d="M281.965 186.802H274.715V194.052H281.965V186.802Z" fill="#008C95"/>
<path d="M273.008 195.765H265.758V202.701H273.008V195.765Z" fill="#008C95"/>
<path d="M281.965 195.765H274.715V202.701H281.965V195.765Z" fill="#77E2C3"/>
<path d="M291.798 246.753C291.798 256.664 283.771 264.691 273.86 264.691C263.949 264.691 255.922 256.664 255.922 246.753C255.922 236.843 263.949 228.815 273.86 228.815C283.771 228.815 291.798 236.843 291.798 246.753Z" fill="white"/>
<path d="M283.413 250.484L285.723 251.837L273.861 258.78L261.992 251.837L264.272 250.507V251.209L273.861 256.792L283.413 251.209V250.484Z" fill="#008C95"/>
<path d="M279.461 247.823V243.196L283.407 240.887V245.521L279.461 247.823Z" fill="#008C95"/>
<path d="M278.349 248.473L274.402 250.775V246.148L278.349 243.839V248.473Z" fill="#008C95"/>
<path d="M279.461 249.108L283.407 246.806V251.208L279.461 253.518V249.108Z" fill="#008C95"/>
<path d="M278.349 249.759V254.169L274.402 256.471V252.061L278.349 249.759Z" fill="#008C95"/>
<path d="M279.461 247.823V243.196L283.407 240.887V245.521L279.461 247.823Z" fill="#77E2C3"/>
<path d="M278.349 248.473L274.402 250.775V246.148L278.349 243.839V248.473Z" fill="#77E2C3"/>
<path d="M279.461 249.108L283.407 246.806V251.208L279.461 253.518V249.108Z" fill="#77E2C3"/>
<path d="M278.349 249.759V254.169L274.402 256.471V252.061L278.349 249.759Z" fill="#77E2C3"/>
<path d="M268.22 247.823V243.196L264.273 240.887V245.521L268.22 247.823Z" fill="#008C95"/>
<path d="M269.332 248.473L273.278 250.775V246.148L269.332 243.839V248.473Z" fill="#008C95"/>
<path d="M269.332 249.759V254.169L273.278 256.471V252.061L269.332 249.759Z" fill="#008C95"/>
<path d="M272.726 239.893L268.832 242.127L264.863 239.84L268.757 237.598L272.726 239.893Z" fill="#77E2C3"/>
<path d="M273.828 239.256L269.852 236.969L273.746 234.727L277.714 237.022L273.828 239.256Z" fill="#77E2C3"/>
<path d="M274.914 239.892L278.808 237.65L282.777 239.944L278.883 242.179L274.914 239.892Z" fill="#77E2C3"/>
<path d="M273.82 240.521L277.796 242.815L273.902 245.05L269.934 242.763L273.82 240.521Z" fill="#77E2C3"/>
<path d="M268.22 249.108L264.273 246.806V251.208L268.22 253.518V249.108Z" fill="#008C95"/>
<path d="M291.798 348.47C291.798 358.381 283.771 366.408 273.86 366.408C263.949 366.408 255.922 358.381 255.922 348.47C255.922 338.567 263.949 330.532 273.86 330.532C283.771 330.532 291.798 338.559 291.798 348.47Z" fill="white"/>
<path d="M282.187 348.559L285.723 350.63L273.861 357.573L261.992 350.63L265.535 348.559V350.465L273.861 355.286L282.187 350.465V348.559Z" fill="#77E2C3"/>
<path d="M261.992 350.629V351.518V352.452V353.985L264.369 355.375V353.843L266.738 355.233V356.765L269.115 358.155V356.623L271.484 358.006V359.538L273.861 360.928V359.396V358.454V357.572L261.992 350.629Z" fill="#008C95"/>
<path d="M285.717 350.629V351.518V352.452V353.985L283.348 355.375V353.843L280.971 355.233V356.765L278.602 358.155V356.623L276.225 358.006V359.538L273.855 360.928V359.396V358.454V357.572L285.717 350.629Z" fill="#008C95"/>
<path d="M281.622 340.495L273.864 336.003L266.113 340.495L273.864 344.98L281.622 340.495Z" fill="#77E2C3"/>
<path d="M273.855 346.31V355.287L282.182 350.466V341.497L273.855 346.31Z" fill="#008C95"/>
<path d="M265.531 341.489V350.466L273.857 355.287V346.31L265.531 341.489Z" fill="#008C95"/>
<path d="M5.80273 154.453L2.24805 149.046H3.79297L6.43848 153.359H8.31152L8.09961 154.453H5.80273ZM6.51367 154.351L3.62207 158.999H1.98145L5.67969 153.216L6.51367 154.351ZM8.87891 149.046V158.999H7.57324V149.046H8.87891ZM14.1562 149.046L10.5879 154.453H8.35938L8.1543 153.359H9.95898L12.6045 149.046H14.1562ZM12.7754 158.999L9.89062 154.351L10.7314 153.216L14.416 158.999H12.7754ZM18.3672 159.136C17.8522 159.136 17.3851 159.049 16.9658 158.876C16.5511 158.698 16.1934 158.45 15.8926 158.131C15.5964 157.812 15.3685 157.434 15.209 156.996C15.0495 156.559 14.9697 156.08 14.9697 155.561V155.273C14.9697 154.672 15.0586 154.136 15.2363 153.667C15.4141 153.193 15.6556 152.792 15.9609 152.464C16.2663 152.136 16.6126 151.887 17 151.719C17.3874 151.55 17.7884 151.466 18.2031 151.466C18.7318 151.466 19.1875 151.557 19.5703 151.739C19.9577 151.922 20.2744 152.177 20.5205 152.505C20.7666 152.828 20.9489 153.211 21.0674 153.653C21.1859 154.091 21.2451 154.569 21.2451 155.089V155.656H15.7217V154.624H19.9805V154.528C19.9622 154.2 19.8939 153.881 19.7754 153.571C19.6615 153.261 19.4792 153.006 19.2285 152.806C18.9779 152.605 18.6361 152.505 18.2031 152.505C17.916 152.505 17.6517 152.566 17.4102 152.689C17.1686 152.808 16.9613 152.986 16.7881 153.223C16.6149 153.46 16.4805 153.749 16.3848 154.091C16.2891 154.433 16.2412 154.827 16.2412 155.273V155.561C16.2412 155.911 16.2891 156.242 16.3848 156.552C16.485 156.857 16.6286 157.126 16.8154 157.358C17.0068 157.591 17.237 157.773 17.5059 157.905C17.7793 158.037 18.0892 158.104 18.4355 158.104C18.8822 158.104 19.2604 158.012 19.5703 157.83C19.8802 157.648 20.1514 157.404 20.3838 157.099L21.1494 157.707C20.9899 157.949 20.7871 158.179 20.541 158.397C20.2949 158.616 19.9919 158.794 19.6318 158.931C19.2764 159.067 18.8548 159.136 18.3672 159.136ZM25.6816 158.097C25.9824 158.097 26.2604 158.035 26.5156 157.912C26.7708 157.789 26.9805 157.62 27.1445 157.406C27.3086 157.188 27.402 156.939 27.4248 156.661H28.6279C28.6051 157.099 28.457 157.507 28.1836 157.885C27.9147 158.258 27.5615 158.562 27.124 158.794C26.6865 159.022 26.2057 159.136 25.6816 159.136C25.1257 159.136 24.6403 159.038 24.2256 158.842C23.8154 158.646 23.4736 158.377 23.2002 158.035C22.9313 157.693 22.7285 157.301 22.5918 156.859C22.4596 156.413 22.3936 155.941 22.3936 155.444V155.157C22.3936 154.66 22.4596 154.191 22.5918 153.749C22.7285 153.302 22.9313 152.908 23.2002 152.566C23.4736 152.225 23.8154 151.956 24.2256 151.76C24.6403 151.564 25.1257 151.466 25.6816 151.466C26.2604 151.466 26.7663 151.584 27.1992 151.821C27.6322 152.054 27.9717 152.373 28.2178 152.778C28.4684 153.179 28.6051 153.635 28.6279 154.146H27.4248C27.402 153.84 27.3154 153.564 27.165 153.318C27.0192 153.072 26.8187 152.876 26.5635 152.73C26.3128 152.58 26.0189 152.505 25.6816 152.505C25.2943 152.505 24.9684 152.582 24.7041 152.737C24.4443 152.888 24.237 153.093 24.082 153.353C23.9316 153.608 23.8223 153.893 23.7539 154.207C23.6901 154.517 23.6582 154.834 23.6582 155.157V155.444C23.6582 155.768 23.6901 156.087 23.7539 156.401C23.8177 156.716 23.9248 157.001 24.0752 157.256C24.2301 157.511 24.4375 157.716 24.6973 157.871C24.9616 158.021 25.2897 158.097 25.6816 158.097ZM33.0645 151.603V158.999H31.793V151.603H33.0645ZM35.5459 151.603V152.628H29.3594V151.603H35.5459ZM38.1641 151.603V158.999H36.8994V151.603H38.1641ZM43.0176 151.603L39.5107 155.841H37.7402L37.5488 154.733H38.998L41.4795 151.603H43.0176ZM41.6572 158.999L38.9365 155.649L39.75 154.733L43.2637 158.999H41.6572ZM48.7256 157.734V153.927C48.7256 153.635 48.6663 153.382 48.5479 153.168C48.4339 152.949 48.2607 152.781 48.0283 152.662C47.7959 152.544 47.5088 152.484 47.167 152.484C46.848 152.484 46.5677 152.539 46.3262 152.648C46.0892 152.758 45.9023 152.901 45.7656 153.079C45.6335 153.257 45.5674 153.448 45.5674 153.653H44.3027C44.3027 153.389 44.3711 153.127 44.5078 152.867C44.6445 152.607 44.8405 152.373 45.0957 152.163C45.3555 151.949 45.6654 151.78 46.0254 151.657C46.39 151.53 46.7956 151.466 47.2422 151.466C47.7799 151.466 48.2539 151.557 48.6641 151.739C49.0788 151.922 49.4023 152.197 49.6348 152.566C49.8717 152.931 49.9902 153.389 49.9902 153.94V157.386C49.9902 157.632 50.0107 157.894 50.0518 158.172C50.0973 158.45 50.1634 158.689 50.25 158.89V158.999H48.9307C48.8669 158.853 48.8167 158.66 48.7803 158.418C48.7438 158.172 48.7256 157.944 48.7256 157.734ZM48.9443 154.515L48.958 155.403H47.6797C47.3197 155.403 46.9984 155.433 46.7158 155.492C46.4333 155.547 46.1963 155.631 46.0049 155.745C45.8135 155.859 45.6676 156.003 45.5674 156.176C45.4671 156.344 45.417 156.543 45.417 156.771C45.417 157.003 45.4694 157.215 45.5742 157.406C45.679 157.598 45.8363 157.75 46.0459 157.864C46.2601 157.974 46.5221 158.028 46.832 158.028C47.2194 158.028 47.5612 157.946 47.8574 157.782C48.1536 157.618 48.3883 157.418 48.5615 157.181C48.7393 156.944 48.835 156.714 48.8486 156.49L49.3887 157.099C49.3568 157.29 49.2702 157.502 49.1289 157.734C48.9876 157.967 48.7985 158.19 48.5615 158.404C48.3291 158.614 48.0511 158.789 47.7275 158.931C47.4085 159.067 47.0485 159.136 46.6475 159.136C46.1462 159.136 45.7064 159.038 45.3281 158.842C44.9544 158.646 44.6628 158.384 44.4531 158.056C44.248 157.723 44.1455 157.352 44.1455 156.941C44.1455 156.545 44.223 156.196 44.3779 155.896C44.5329 155.59 44.7562 155.337 45.0479 155.137C45.3395 154.932 45.6904 154.777 46.1006 154.672C46.5107 154.567 46.9688 154.515 47.4746 154.515H48.9443ZM53.4766 155.472H54.8438L52.7041 158.999H51.3369L53.4766 155.472ZM54.5361 151.603H57.626V158.999H56.3613V152.628H54.5361C54.1761 152.628 53.8822 152.689 53.6543 152.812C53.4264 152.931 53.2601 153.086 53.1553 153.277C53.0505 153.469 52.998 153.667 52.998 153.872C52.998 154.073 53.0459 154.266 53.1416 154.453C53.2373 154.635 53.3877 154.786 53.5928 154.904C53.7979 155.023 54.0622 155.082 54.3857 155.082H56.7031V156.121H54.3857C53.9619 156.121 53.5859 156.064 53.2578 155.95C52.9297 155.836 52.6517 155.679 52.4238 155.479C52.196 155.273 52.0228 155.034 51.9043 154.761C51.7858 154.483 51.7266 154.182 51.7266 153.858C51.7266 153.535 51.7881 153.236 51.9111 152.963C52.0387 152.689 52.221 152.45 52.458 152.245C52.6995 152.04 52.9935 151.883 53.3398 151.773C53.6908 151.66 54.0895 151.603 54.5361 151.603ZM65.2139 158.233L67.2715 151.603H68.625L65.6582 160.141C65.5898 160.323 65.4987 160.519 65.3848 160.729C65.2754 160.943 65.1341 161.146 64.9609 161.337C64.7878 161.528 64.5781 161.683 64.332 161.802C64.0905 161.925 63.8011 161.986 63.4639 161.986C63.3636 161.986 63.236 161.973 63.0811 161.945C62.9261 161.918 62.8167 161.895 62.7529 161.877L62.7461 160.852C62.7826 160.856 62.8395 160.861 62.917 160.865C62.999 160.874 63.056 160.879 63.0879 160.879C63.375 160.879 63.6188 160.84 63.8193 160.763C64.0199 160.69 64.1885 160.564 64.3252 160.387C64.4665 160.214 64.5872 159.974 64.6875 159.669L65.2139 158.233ZM63.7031 151.603L65.624 157.345L65.9521 158.678L65.043 159.143L62.3223 151.603H63.7031ZM74.6953 151.603V152.648H70.9561V151.603H74.6953ZM71.1406 151.603V158.999H69.876V151.603H71.1406ZM75.8164 151.603V158.999H74.5449V151.603H75.8164ZM82.208 157.734V153.927C82.208 153.635 82.1488 153.382 82.0303 153.168C81.9163 152.949 81.7432 152.781 81.5107 152.662C81.2783 152.544 80.9912 152.484 80.6494 152.484C80.3304 152.484 80.0501 152.539 79.8086 152.648C79.5716 152.758 79.3848 152.901 79.248 153.079C79.1159 153.257 79.0498 153.448 79.0498 153.653H77.7852C77.7852 153.389 77.8535 153.127 77.9902 152.867C78.127 152.607 78.3229 152.373 78.5781 152.163C78.8379 151.949 79.1478 151.78 79.5078 151.657C79.8724 151.53 80.278 151.466 80.7246 151.466C81.2624 151.466 81.7363 151.557 82.1465 151.739C82.5612 151.922 82.8848 152.197 83.1172 152.566C83.3542 152.931 83.4727 153.389 83.4727 153.94V157.386C83.4727 157.632 83.4932 157.894 83.5342 158.172C83.5798 158.45 83.6458 158.689 83.7324 158.89V158.999H82.4131C82.3493 158.853 82.2992 158.66 82.2627 158.418C82.2262 158.172 82.208 157.944 82.208 157.734ZM82.4268 154.515L82.4404 155.403H81.1621C80.8021 155.403 80.4808 155.433 80.1982 155.492C79.9157 155.547 79.6787 155.631 79.4873 155.745C79.2959 155.859 79.1501 156.003 79.0498 156.176C78.9495 156.344 78.8994 156.543 78.8994 156.771C78.8994 157.003 78.9518 157.215 79.0566 157.406C79.1615 157.598 79.3187 157.75 79.5283 157.864C79.7425 157.974 80.0046 158.028 80.3145 158.028C80.7018 158.028 81.0436 157.946 81.3398 157.782C81.6361 157.618 81.8708 157.418 82.0439 157.181C82.2217 156.944 82.3174 156.714 82.3311 156.49L82.8711 157.099C82.8392 157.29 82.7526 157.502 82.6113 157.734C82.4701 157.967 82.2809 158.19 82.0439 158.404C81.8115 158.614 81.5335 158.789 81.21 158.931C80.891 159.067 80.5309 159.136 80.1299 159.136C79.6286 159.136 79.1888 159.038 78.8105 158.842C78.4368 158.646 78.1452 158.384 77.9355 158.056C77.7305 157.723 77.6279 157.352 77.6279 156.941C77.6279 156.545 77.7054 156.196 77.8604 155.896C78.0153 155.59 78.2386 155.337 78.5303 155.137C78.8219 154.932 79.1729 154.777 79.583 154.672C79.9932 154.567 80.4512 154.515 80.957 154.515H82.4268ZM86.8359 151.603V158.999H85.5713V151.603H86.8359ZM91.6895 151.603L88.1826 155.841H86.4121L86.2207 154.733H87.6699L90.1514 151.603H91.6895ZM90.3291 158.999L87.6084 155.649L88.4219 154.733L91.9355 158.999H90.3291ZM92.5508 155.383V155.226C92.5508 154.692 92.6283 154.198 92.7832 153.742C92.9382 153.282 93.1615 152.883 93.4531 152.546C93.7448 152.204 94.098 151.94 94.5127 151.753C94.9274 151.562 95.3923 151.466 95.9072 151.466C96.4268 151.466 96.8939 151.562 97.3086 151.753C97.7279 151.94 98.0833 152.204 98.375 152.546C98.6712 152.883 98.8968 153.282 99.0518 153.742C99.2067 154.198 99.2842 154.692 99.2842 155.226V155.383C99.2842 155.916 99.2067 156.41 99.0518 156.866C98.8968 157.322 98.6712 157.721 98.375 158.062C98.0833 158.4 97.7301 158.664 97.3154 158.855C96.9053 159.042 96.4404 159.136 95.9209 159.136C95.4014 159.136 94.9342 159.042 94.5195 158.855C94.1048 158.664 93.7493 158.4 93.4531 158.062C93.1615 157.721 92.9382 157.322 92.7832 156.866C92.6283 156.41 92.5508 155.916 92.5508 155.383ZM93.8154 155.226V155.383C93.8154 155.752 93.8587 156.101 93.9453 156.429C94.0319 156.752 94.1618 157.039 94.335 157.29C94.5127 157.541 94.7337 157.739 94.998 157.885C95.2624 158.026 95.57 158.097 95.9209 158.097C96.2673 158.097 96.5703 158.026 96.8301 157.885C97.0944 157.739 97.3132 157.541 97.4863 157.29C97.6595 157.039 97.7894 156.752 97.876 156.429C97.9671 156.101 98.0127 155.752 98.0127 155.383V155.226C98.0127 154.861 97.9671 154.517 97.876 154.193C97.7894 153.865 97.6572 153.576 97.4795 153.325C97.3063 153.07 97.0876 152.869 96.8232 152.724C96.5635 152.578 96.2581 152.505 95.9072 152.505C95.5609 152.505 95.2555 152.578 94.9912 152.724C94.7314 152.869 94.5127 153.07 94.335 153.325C94.1618 153.576 94.0319 153.865 93.9453 154.193C93.8587 154.517 93.8154 154.861 93.8154 155.226ZM104.343 155.745H101.916L101.902 154.733H103.885C104.277 154.733 104.603 154.695 104.862 154.617C105.127 154.54 105.325 154.424 105.457 154.269C105.589 154.114 105.655 153.922 105.655 153.694C105.655 153.517 105.617 153.362 105.539 153.229C105.466 153.093 105.354 152.981 105.204 152.895C105.054 152.803 104.867 152.737 104.644 152.696C104.425 152.651 104.167 152.628 103.871 152.628H102.251V158.999H100.986V151.603H103.871C104.34 151.603 104.762 151.644 105.136 151.726C105.514 151.808 105.835 151.933 106.1 152.102C106.368 152.266 106.574 152.475 106.715 152.73C106.856 152.986 106.927 153.286 106.927 153.633C106.927 153.856 106.881 154.068 106.79 154.269C106.699 154.469 106.564 154.647 106.387 154.802C106.209 154.957 105.99 155.084 105.73 155.185C105.471 155.28 105.172 155.342 104.835 155.369L104.343 155.745ZM104.343 158.999H101.458L102.087 157.974H104.343C104.694 157.974 104.985 157.93 105.218 157.844C105.45 157.753 105.623 157.625 105.737 157.461C105.856 157.292 105.915 157.092 105.915 156.859C105.915 156.627 105.856 156.429 105.737 156.265C105.623 156.096 105.45 155.968 105.218 155.882C104.985 155.791 104.694 155.745 104.343 155.745H102.422L102.436 154.733H104.835L105.293 155.116C105.699 155.148 106.043 155.248 106.325 155.417C106.608 155.586 106.822 155.8 106.968 156.06C107.114 156.315 107.187 156.593 107.187 156.894C107.187 157.24 107.12 157.545 106.988 157.81C106.861 158.074 106.674 158.295 106.428 158.473C106.182 158.646 105.883 158.778 105.532 158.869C105.181 158.956 104.785 158.999 104.343 158.999ZM110.256 151.603V158.999H108.991V151.603H110.256ZM115.109 151.603L111.603 155.841H109.832L109.641 154.733H111.09L113.571 151.603H115.109ZM113.749 158.999L111.028 155.649L111.842 154.733L115.355 158.999H113.749ZM120.817 157.734V153.927C120.817 153.635 120.758 153.382 120.64 153.168C120.526 152.949 120.353 152.781 120.12 152.662C119.888 152.544 119.601 152.484 119.259 152.484C118.94 152.484 118.66 152.539 118.418 152.648C118.181 152.758 117.994 152.901 117.857 153.079C117.725 153.257 117.659 153.448 117.659 153.653H116.395C116.395 153.389 116.463 153.127 116.6 152.867C116.736 152.607 116.932 152.373 117.188 152.163C117.447 151.949 117.757 151.78 118.117 151.657C118.482 151.53 118.887 151.466 119.334 151.466C119.872 151.466 120.346 151.557 120.756 151.739C121.171 151.922 121.494 152.197 121.727 152.566C121.964 152.931 122.082 153.389 122.082 153.94V157.386C122.082 157.632 122.103 157.894 122.144 158.172C122.189 158.45 122.255 158.689 122.342 158.89V158.999H121.022C120.959 158.853 120.909 158.66 120.872 158.418C120.836 158.172 120.817 157.944 120.817 157.734ZM121.036 154.515L121.05 155.403H119.771C119.411 155.403 119.09 155.433 118.808 155.492C118.525 155.547 118.288 155.631 118.097 155.745C117.905 155.859 117.759 156.003 117.659 156.176C117.559 156.344 117.509 156.543 117.509 156.771C117.509 157.003 117.561 157.215 117.666 157.406C117.771 157.598 117.928 157.75 118.138 157.864C118.352 157.974 118.614 158.028 118.924 158.028C119.311 158.028 119.653 157.946 119.949 157.782C120.245 157.618 120.48 157.418 120.653 157.181C120.831 156.944 120.927 156.714 120.94 156.49L121.48 157.099C121.449 157.29 121.362 157.502 121.221 157.734C121.079 157.967 120.89 158.19 120.653 158.404C120.421 158.614 120.143 158.789 119.819 158.931C119.5 159.067 119.14 159.136 118.739 159.136C118.238 159.136 117.798 159.038 117.42 158.842C117.046 158.646 116.755 158.384 116.545 158.056C116.34 157.723 116.237 157.352 116.237 156.941C116.237 156.545 116.315 156.196 116.47 155.896C116.625 155.59 116.848 155.337 117.14 155.137C117.431 154.932 117.782 154.777 118.192 154.672C118.603 154.567 119.061 154.515 119.566 154.515H121.036Z" fill="white"/>
<path d="M37.6855 441.349C37.6855 451.261 29.6497 459.289 19.7451 459.289C9.83302 459.289 1.80469 451.261 1.80469 441.349C1.80469 431.437 9.83302 423.408 19.7451 423.408C29.6497 423.408 37.6855 431.437 37.6855 441.349Z" fill="white"/>
<path d="M26.1245 428.88H8.10938V449.317H26.1245V428.88Z" fill="#77E2C3"/>
<path d="M12.8164 436.639H10.7233C10.1552 436.639 9.69922 436.183 9.69922 435.615V433.522C9.69922 432.954 10.1552 432.498 10.7233 432.498H12.8164C13.3845 432.498 13.8405 432.961 13.8405 433.522V435.615C13.8405 436.183 13.3845 436.639 12.8164 436.639Z" fill="white"/>
<path d="M18.1289 436.639H16.0358C15.4677 436.639 15.0117 436.183 15.0117 435.615V433.522C15.0117 432.954 15.4677 432.498 16.0358 432.498H18.1289C18.697 432.498 19.153 432.961 19.153 433.522V435.615C19.153 436.183 18.697 436.639 18.1289 436.639Z" fill="white"/>
<path d="M23.4453 436.639H21.3522C20.7841 436.639 20.3281 436.183 20.3281 435.615V433.522C20.3281 432.954 20.7841 432.498 21.3522 432.498H23.4453C24.0134 432.498 24.4694 432.961 24.4694 433.522V435.615C24.4768 436.183 24.0134 436.639 23.4453 436.639Z" fill="white"/>
<path d="M12.8164 441.879H10.7233C10.1552 441.879 9.69922 441.423 9.69922 440.854V438.761C9.69922 438.193 10.1552 437.737 10.7233 437.737H12.8164C13.3845 437.737 13.8405 438.193 13.8405 438.761V440.854C13.8405 441.415 13.3845 441.879 12.8164 441.879Z" fill="white"/>
<path d="M18.1289 441.879H16.0358C15.4677 441.879 15.0117 441.423 15.0117 440.854V438.761C15.0117 438.193 15.4677 437.737 16.0358 437.737H18.1289C18.697 437.737 19.153 438.193 19.153 438.761V440.854C19.153 441.415 18.697 441.879 18.1289 441.879Z" fill="white"/>
<path d="M23.4453 441.879H21.3522C20.7841 441.879 20.3281 441.423 20.3281 440.854V438.761C20.3281 438.193 20.7841 437.737 21.3522 437.737H23.4453C24.0134 437.737 24.4694 438.193 24.4694 438.761V440.854C24.4768 441.415 24.0134 441.879 23.4453 441.879Z" fill="white"/>
<path d="M12.8164 447.119H10.7233C10.1552 447.119 9.69922 446.663 9.69922 446.094V444.001C9.69922 443.433 10.1552 442.977 10.7233 442.977H12.8164C13.3845 442.977 13.8405 443.433 13.8405 444.001V446.094C13.8405 446.655 13.3845 447.119 12.8164 447.119Z" fill="white"/>
<path d="M18.1289 447.119H16.0358C15.4677 447.119 15.0117 446.663 15.0117 446.094V444.001C15.0117 443.433 15.4677 442.977 16.0358 442.977H18.1289C18.697 442.977 19.153 443.433 19.153 444.001V446.094C19.153 446.655 18.697 447.119 18.1289 447.119Z" fill="white"/>
<path d="M12.3533 436.281H11.1797V438.284H12.3533V436.281Z" fill="white"/>
<path d="M15.4604 433.979H13.457V435.152H15.4604V433.979Z" fill="white"/>
<path d="M15.3315 439.121H13.3281V440.294H15.3315V439.121Z" fill="white"/>
<path d="M15.3315 444.466H13.3281V445.639H15.3315V444.466Z" fill="white"/>
<path d="M20.8666 433.979H18.8633V435.152H20.8666V433.979Z" fill="white"/>
<path d="M20.7377 439.121H18.7344V440.294H20.7377V439.121Z" fill="white"/>
<path d="M17.6775 436.281H16.5039V438.284H17.6775V436.281Z" fill="white"/>
<path d="M14.8867 428.88V430.211C14.8867 430.756 15.3278 431.197 15.8734 431.197H16.5537V435.765H17.6077V431.197H18.2281C18.7738 431.197 19.2148 430.756 19.2148 430.211V428.88H14.8867Z" fill="white"/>
<path d="M22.99 436.281H21.8164V438.284H22.99V436.281Z" fill="white"/>
<path d="M12.3533 441.454H11.1797V443.457H12.3533V441.454Z" fill="white"/>
<path d="M17.6775 441.454H16.5039V443.457H17.6775V441.454Z" fill="white"/>
<path d="M30.7714 449.549L29.3212 450.506L27.2432 449.318L29.3212 448.122L30.7714 449.078L31.3844 448.151L30.4052 447.486L31.2499 447L30.6892 446.021L29.837 446.522L29.7698 445.341L28.6485 445.401L28.7531 447.142L26.69 448.346V445.954L28.2448 445.176L27.7365 444.16L26.69 444.69V443.711H25.5687V444.69L24.4998 444.16L23.9989 445.176L25.5687 445.954V448.346L23.4906 447.142L23.5953 445.401L22.474 445.341L22.3993 446.522L21.5546 446.021L20.9864 447L21.8386 447.486L20.8594 448.151L21.4723 449.078L22.9225 448.122L25.0006 449.318L22.9225 450.506L21.4723 449.549L20.8594 450.484L21.8386 451.149L20.9864 451.627L21.5546 452.607L22.3993 452.113L22.474 453.294L23.5953 453.235L23.4906 451.485L25.5687 450.282V452.681L23.9989 453.459L24.4998 454.475L25.5687 453.945V454.924H26.69V453.945L27.7365 454.475L28.2448 453.459L26.69 452.681V450.282L28.7531 451.485L28.6485 453.235L29.7698 453.294L29.837 452.113L30.6892 452.607L31.2499 451.627L30.4052 451.149L31.3844 450.484L30.7714 449.549Z" fill="#77E2C3"/>
<path d="M25.5687 443.711V444.69L24.4998 444.16L23.9989 445.176L25.5687 445.954V448.346L23.4906 447.142L23.5953 445.401L22.474 445.341L22.3993 446.522L21.5546 446.021L20.9864 447L21.8386 447.486L20.8594 448.151L21.4723 449.078L22.9225 448.122L25.0006 449.318H26.1219V443.711H25.5687Z" fill="#008C95"/>
<path d="M189.795 441.349C189.795 451.261 181.767 459.289 171.854 459.289C161.942 459.289 153.914 451.261 153.914 441.349C153.914 431.437 161.942 423.408 171.854 423.408C181.767 423.408 189.795 431.437 189.795 441.349Z" fill="white"/>
<path d="M172.446 452.464H165.651C165.128 451.948 164.844 451.657 164.32 451.133V436.385L170.457 431.272C172.289 431.272 173.776 433.126 173.776 434.957V451.133C173.253 451.657 172.962 451.948 172.446 452.464Z" fill="#77E2C3"/>
<path d="M165.796 427.422L163.781 429.091L165.489 431.152L167.503 429.483L165.796 427.422Z" fill="#77E2C3"/>
<path d="M179.633 442.59C177.443 442.59 175.656 440.803 175.656 438.613H176.83C176.83 440.16 178.086 441.416 179.633 441.416V442.59Z" fill="#008C95"/>
<path d="M170.129 440.301V443.284L170.219 454.115C170.66 454.556 170.906 454.803 171.347 455.237H180.273L181.401 454.108V449.428L173.769 443.284V440.301H170.129Z" fill="#77E2C3"/>
<path d="M176.026 440.311H169.41V438.779C170.195 437.994 170.636 437.553 171.421 436.768H179.285V439.048H177.289C176.586 439.048 176.026 439.616 176.026 440.311Z" fill="#77E2C3"/>
<path d="M179.702 436.768H177.422V439.048H179.702V436.768Z" fill="#008C95"/>
<path d="M173.764 443.286V440.311H173.772V436.768H171.417C170.632 437.553 170.191 437.994 169.406 438.779V440.311H170.131V443.286L170.206 452.473H172.449C172.964 451.958 173.256 451.666 173.779 451.143V443.294L173.764 443.286Z" fill="#008C95"/>
<path d="M173.762 440.301H170.129V443.284H173.762V440.301Z" fill="#008C95"/>
<path d="M167.698 428.299L164.273 431.137L165.981 433.198L169.406 430.36L167.698 428.299Z" fill="#008C95"/>
<path d="M88.1308 441.349C88.1308 451.261 80.095 459.289 70.1904 459.289C60.2783 459.289 52.25 451.261 52.25 441.349C52.25 431.437 60.2783 423.408 70.1904 423.408C80.095 423.408 88.1308 431.437 88.1308 441.349Z" fill="white"/>
<path d="M77.7496 453.085L79.2297 451.859H76.2695L77.7496 453.085Z" fill="#77E2C3"/>
<path d="M74.7883 453.085L76.2684 451.859H73.3008L74.7883 453.085Z" fill="#77E2C3"/>
<path d="M71.816 453.085L73.2961 451.859H70.3359L71.816 453.085Z" fill="#77E2C3"/>
<path d="M68.8587 453.085L70.3387 451.859H67.3711L68.8587 453.085Z" fill="#77E2C3"/>
<path d="M79.2267 451.859V436.393L72.5589 441.947L67.3711 438.89V451.859H79.2267Z" fill="#77E2C3"/>
<path d="M72.5594 429.614H67.8277C64.1424 429.614 61.1523 432.649 61.1523 436.394C61.1523 440.139 64.1424 443.174 67.8277 443.174H72.5594L67.1998 436.394L72.5594 429.614Z" fill="#008C95"/>
<path d="M72.5603 429.614C72.5528 429.614 72.5528 429.614 72.5603 429.614V432.783C74.5263 432.783 76.111 434.398 76.111 436.394C76.111 438.39 74.5188 440.004 72.5603 440.004V443.174C76.2456 443.174 79.2356 440.139 79.2356 436.394C79.2282 432.649 76.2456 429.614 72.5603 429.614Z" fill="#77E2C3"/>
<path d="M72.5581 429.614V432.783C70.5922 432.783 69.0074 434.398 69.0074 436.394C69.0074 438.39 70.5996 440.004 72.5581 440.004V443.174C68.8729 443.174 65.8828 440.139 65.8828 436.394C65.8828 432.649 68.8729 429.614 72.5581 429.614Z" fill="#77E2C3"/>
<path d="M88.5136 492.179C88.5136 502.091 80.4778 510.12 70.5732 510.12C60.6611 510.12 52.6328 502.091 52.6328 492.179C52.6328 482.275 60.6611 474.239 70.5732 474.239C80.4778 474.239 88.5136 482.275 88.5136 492.179Z" fill="white"/>
<path d="M58.8359 499.738L60.0619 501.218V498.258L58.8359 499.738Z" fill="#77E2C3"/>
<path d="M58.8359 496.777L60.0619 498.258V495.297L58.8359 496.777Z" fill="#77E2C3"/>
<path d="M58.8359 493.811L60.0619 495.291V492.331L58.8359 493.811Z" fill="#77E2C3"/>
<path d="M58.8359 490.85L60.0619 492.33V489.37L58.8359 490.85Z" fill="#77E2C3"/>
<path d="M60.0625 501.218H75.5286L69.9746 494.55L73.0244 489.37H60.0625V501.218Z" fill="#77E2C3"/>
<path d="M82.3061 494.549V489.818C82.3061 486.132 79.2711 483.142 75.5261 483.142C71.781 483.142 68.7461 486.132 68.7461 489.818V494.549L75.5261 489.19L82.3061 494.549Z" fill="#008C95"/>
<path d="M82.3061 494.549H79.1366C79.1366 496.515 77.5219 498.1 75.5261 498.1C73.5302 498.1 71.9156 496.507 71.9156 494.549H68.7461C68.7461 498.234 71.781 501.224 75.5261 501.224C79.2711 501.224 82.3061 498.234 82.3061 494.549Z" fill="#77E2C3"/>
<path d="M82.3061 494.55H79.1366C79.1366 492.584 77.5219 490.999 75.5261 490.999C73.5302 490.999 71.9156 492.591 71.9156 494.55H68.7461C68.7461 490.865 71.781 487.875 75.5261 487.875C79.2711 487.875 82.3061 490.865 82.3061 494.55Z" fill="#77E2C3"/>
<path d="M138.971 441.349C138.971 451.261 130.942 459.289 121.03 459.289C111.118 459.289 103.09 451.261 103.09 441.349C103.09 431.437 111.118 423.408 121.03 423.408C130.942 423.408 138.971 431.437 138.971 441.349Z" fill="white"/>
<path d="M131.086 435.788H118.273V451.897H131.086V435.788Z" fill="#77E2C3"/>
<path d="M121.233 440.436C120.395 440.436 119.723 439.748 119.723 438.896C119.723 438.044 120.403 437.356 121.233 437.356C122.062 437.356 122.743 438.044 122.743 438.896C122.743 439.748 122.062 440.436 121.233 440.436Z" fill="white"/>
<path d="M128.006 440.436C127.169 440.436 126.496 439.748 126.496 438.896C126.496 438.044 127.176 437.356 128.006 437.356C128.843 437.356 129.516 438.044 129.516 438.896C129.516 439.748 128.836 440.436 128.006 440.436Z" fill="white"/>
<path d="M121.233 445.2C120.395 445.2 119.723 444.512 119.723 443.66C119.723 442.808 120.403 442.12 121.233 442.12C122.062 442.12 122.743 442.808 122.743 443.66C122.743 444.512 122.062 445.2 121.233 445.2Z" fill="white"/>
<path d="M128.006 445.2C127.169 445.2 126.496 444.512 126.496 443.66C126.496 442.808 127.176 442.12 128.006 442.12C128.843 442.12 129.516 442.808 129.516 443.66C129.516 444.512 128.836 445.2 128.006 445.2Z" fill="white"/>
<path d="M128.006 450.236C127.169 450.236 126.496 449.548 126.496 448.696C126.496 447.844 127.176 447.156 128.006 447.156C128.843 447.156 129.516 447.844 129.516 448.696C129.516 449.548 128.836 450.236 128.006 450.236Z" fill="white"/>
<path d="M124.814 449.96C124.553 449.96 124.336 449.75 124.336 449.481V437.827C124.336 437.566 124.545 437.349 124.814 437.349C125.083 437.349 125.293 437.558 125.293 437.827V449.481C125.285 449.75 125.076 449.96 124.814 449.96Z" fill="white"/>
<path d="M124.334 430.794H110.969V447.187H124.334V430.794Z" fill="#77E2C3"/>
<path d="M114.401 435.719C113.563 435.719 112.891 435.031 112.891 434.179C112.891 433.327 113.571 432.639 114.401 432.639C115.238 432.639 115.911 433.327 115.911 434.179C115.911 435.023 115.238 435.719 114.401 435.719Z" fill="white"/>
<path d="M121.174 435.719C120.337 435.719 119.664 435.031 119.664 434.179C119.664 433.327 120.344 432.639 121.174 432.639C122.004 432.639 122.684 433.327 122.684 434.179C122.691 435.023 122.011 435.719 121.174 435.719Z" fill="white"/>
<path d="M114.401 440.483C113.563 440.483 112.891 439.795 112.891 438.943C112.891 438.091 113.571 437.403 114.401 437.403C115.238 437.403 115.911 438.091 115.911 438.943C115.911 439.795 115.238 440.483 114.401 440.483Z" fill="white"/>
<path d="M121.174 440.483C120.337 440.483 119.664 439.795 119.664 438.943C119.664 438.091 120.344 437.403 121.174 437.403C122.004 437.403 122.684 438.091 122.684 438.943C122.691 439.795 122.011 440.483 121.174 440.483Z" fill="white"/>
<path d="M114.401 445.244C113.563 445.244 112.891 444.556 112.891 443.704C112.891 442.852 113.571 442.164 114.401 442.164C115.238 442.164 115.911 442.852 115.911 443.704C115.911 444.556 115.238 445.244 114.401 445.244Z" fill="white"/>
<path d="M121.174 445.244C120.337 445.244 119.664 444.556 119.664 443.704C119.664 442.852 120.344 442.164 121.174 442.164C122.004 442.164 122.684 442.852 122.684 443.704C122.684 444.556 122.011 445.244 121.174 445.244Z" fill="white"/>
<path d="M117.799 445.242C117.537 445.242 117.32 445.033 117.32 444.764V433.11C117.32 432.849 117.53 432.632 117.799 432.632C118.068 432.632 118.277 432.841 118.277 433.11V444.764C118.27 445.033 118.06 445.242 117.799 445.242Z" fill="white"/>
<path d="M124.336 435.788H118.273V447.18H124.336V435.788Z" fill="#008C95"/>
<path d="M121.233 440.436C120.395 440.436 119.723 439.748 119.723 438.896C119.723 438.044 120.403 437.356 121.233 437.356C122.062 437.356 122.743 438.044 122.743 438.896C122.743 439.748 122.062 440.436 121.233 440.436Z" fill="white"/>
<path d="M121.233 445.2C120.395 445.2 119.723 444.512 119.723 443.66C119.723 442.808 120.403 442.12 121.233 442.12C122.062 442.12 122.743 442.808 122.743 443.66C122.743 444.512 122.062 445.2 121.233 445.2Z" fill="white"/>
<path d="M121.233 450.236C120.395 450.236 119.723 449.548 119.723 448.696C119.723 447.844 120.403 447.156 121.233 447.156C122.062 447.156 122.743 447.844 122.743 448.696C122.743 449.548 122.062 450.236 121.233 450.236Z" fill="white"/>
<path d="M8.31641 400.905V401.985H4.23535V400.905H8.31641ZM1.80859 403.243H3.12109C3.19401 403.713 3.31478 404.114 3.4834 404.446C3.65658 404.779 3.90951 405.034 4.24219 405.212C4.57487 405.385 5.02148 405.472 5.58203 405.472C6.02409 405.472 6.4069 405.381 6.73047 405.198C7.05404 405.011 7.32064 404.756 7.53027 404.433C7.73991 404.109 7.89486 403.733 7.99512 403.305C8.09993 402.876 8.15234 402.418 8.15234 401.931V400.933C8.15234 400.509 8.11589 400.117 8.04297 399.757C7.97005 399.392 7.86068 399.066 7.71484 398.779C7.56901 398.488 7.38672 398.239 7.16797 398.034C6.95378 397.829 6.70312 397.672 6.41602 397.562C6.13346 397.453 5.81673 397.398 5.46582 397.398C4.9554 397.398 4.53841 397.49 4.21484 397.672C3.89583 397.854 3.64974 398.114 3.47656 398.451C3.30794 398.784 3.18945 399.183 3.12109 399.647H1.80859C1.87695 398.991 2.05697 398.415 2.34863 397.918C2.6403 397.417 3.04362 397.025 3.55859 396.742C4.07812 396.46 4.71387 396.318 5.46582 396.318C6.08105 396.318 6.63477 396.428 7.12695 396.646C7.61914 396.865 8.03841 397.177 8.38477 397.583C8.73568 397.989 9.00228 398.476 9.18457 399.046C9.37142 399.616 9.46484 400.249 9.46484 400.946V401.931C9.46484 402.628 9.37142 403.261 9.18457 403.831C9.00228 404.396 8.74023 404.882 8.39844 405.287C8.05664 405.688 7.64648 405.998 7.16797 406.217C6.69401 406.436 6.16536 406.545 5.58203 406.545C4.78451 406.545 4.11914 406.401 3.58594 406.114C3.05273 405.823 2.6403 405.428 2.34863 404.932C2.06152 404.435 1.88151 403.872 1.80859 403.243ZM14.9473 401.753H12.4248L12.4111 400.693H14.7012C15.0794 400.693 15.4098 400.63 15.6924 400.502C15.9749 400.374 16.1937 400.192 16.3486 399.955C16.5081 399.714 16.5879 399.426 16.5879 399.094C16.5879 398.729 16.5173 398.433 16.376 398.205C16.2393 397.973 16.0273 397.804 15.7402 397.699C15.4577 397.59 15.0977 397.535 14.6602 397.535H12.7188V406.408H11.3994V396.455H14.6602C15.1706 396.455 15.6263 396.507 16.0273 396.612C16.4284 396.713 16.7679 396.872 17.0459 397.091C17.3285 397.305 17.5426 397.578 17.6885 397.911C17.8343 398.244 17.9072 398.643 17.9072 399.107C17.9072 399.518 17.8024 399.889 17.5928 400.222C17.3831 400.55 17.0915 400.819 16.7178 401.028C16.3486 401.238 15.9157 401.372 15.4189 401.432L14.9473 401.753ZM14.8857 406.408H11.9053L12.6504 405.335H14.8857C15.305 405.335 15.6605 405.262 15.9521 405.116C16.2484 404.97 16.474 404.765 16.6289 404.501C16.7839 404.232 16.8613 403.915 16.8613 403.551C16.8613 403.182 16.7952 402.863 16.6631 402.594C16.5309 402.325 16.3236 402.118 16.041 401.972C15.7585 401.826 15.3939 401.753 14.9473 401.753H13.0674L13.0811 400.693H15.6514L15.9316 401.076C16.4102 401.117 16.8158 401.254 17.1484 401.486C17.4811 401.714 17.734 402.006 17.9072 402.361C18.085 402.717 18.1738 403.109 18.1738 403.537C18.1738 404.157 18.0371 404.681 17.7637 405.109C17.4948 405.533 17.1143 405.857 16.6221 406.08C16.1299 406.299 15.5511 406.408 14.8857 406.408ZM23.8066 397.337L20.5117 406.408H19.165L22.959 396.455H23.8271L23.8066 397.337ZM26.5684 406.408L23.2666 397.337L23.2461 396.455H24.1143L27.9219 406.408H26.5684ZM26.3975 402.724V403.804H20.8057V402.724H26.3975ZM30.2119 404.904V405.923C30.2119 406.338 30.1071 406.775 29.8975 407.235C29.6878 407.7 29.3939 408.088 29.0156 408.397L28.2979 407.898C28.4437 407.698 28.5667 407.493 28.667 407.283C28.7673 407.078 28.8424 406.864 28.8926 406.641C28.9473 406.422 28.9746 406.189 28.9746 405.943V404.904H30.2119ZM41.498 403.243H42.8105C42.7422 403.872 42.5622 404.435 42.2705 404.932C41.9788 405.428 41.5664 405.823 41.0332 406.114C40.5 406.401 39.8346 406.545 39.0371 406.545C38.4538 406.545 37.9229 406.436 37.4443 406.217C36.9704 405.998 36.5625 405.688 36.2207 405.287C35.8789 404.882 35.6146 404.396 35.4277 403.831C35.2454 403.261 35.1543 402.628 35.1543 401.931V400.939C35.1543 400.242 35.2454 399.611 35.4277 399.046C35.6146 398.476 35.8812 397.989 36.2275 397.583C36.5785 397.177 37 396.865 37.4922 396.646C37.9844 396.428 38.5381 396.318 39.1533 396.318C39.9053 396.318 40.541 396.46 41.0605 396.742C41.5801 397.025 41.9834 397.417 42.2705 397.918C42.5622 398.415 42.7422 398.991 42.8105 399.647H41.498C41.4342 399.183 41.3158 398.784 41.1426 398.451C40.9694 398.114 40.7233 397.854 40.4043 397.672C40.0853 397.49 39.6683 397.398 39.1533 397.398C38.7113 397.398 38.3216 397.483 37.9844 397.651C37.6517 397.82 37.3714 398.059 37.1436 398.369C36.9202 398.679 36.7516 399.05 36.6377 399.483C36.5238 399.916 36.4668 400.397 36.4668 400.926V401.931C36.4668 402.418 36.5169 402.876 36.6172 403.305C36.722 403.733 36.8792 404.109 37.0889 404.433C37.2985 404.756 37.5651 405.011 37.8887 405.198C38.2122 405.381 38.5951 405.472 39.0371 405.472C39.5977 405.472 40.0443 405.383 40.377 405.205C40.7096 405.027 40.9603 404.772 41.1289 404.439C41.3021 404.107 41.4251 403.708 41.498 403.243ZM50.6787 396.455V397.535H45.8799V406.408H44.5674V396.455H50.6787ZM45.5723 400.509H48.2861C49.0153 400.509 49.6305 400.632 50.1318 400.878C50.6331 401.119 51.0137 401.459 51.2734 401.896C51.5332 402.334 51.6631 402.847 51.6631 403.435C51.6631 403.872 51.5902 404.273 51.4443 404.638C51.2985 404.998 51.082 405.312 50.7949 405.581C50.5078 405.845 50.1546 406.05 49.7354 406.196C49.3161 406.338 48.833 406.408 48.2861 406.408H44.5674V396.455H45.8867V405.335H48.2861C48.7738 405.335 49.168 405.246 49.4688 405.068C49.7741 404.886 49.9974 404.649 50.1387 404.357C50.2799 404.066 50.3506 403.754 50.3506 403.421C50.3506 403.088 50.2799 402.783 50.1387 402.505C49.9974 402.227 49.7741 402.006 49.4688 401.842C49.168 401.673 48.7738 401.589 48.2861 401.589H45.5723V400.509ZM59.4492 403.243H60.7617C60.6934 403.872 60.5133 404.435 60.2217 404.932C59.93 405.428 59.5176 405.823 58.9844 406.114C58.4512 406.401 57.7858 406.545 56.9883 406.545C56.4049 406.545 55.874 406.436 55.3955 406.217C54.9215 405.998 54.5137 405.688 54.1719 405.287C53.8301 404.882 53.5658 404.396 53.3789 403.831C53.1966 403.261 53.1055 402.628 53.1055 401.931V400.939C53.1055 400.242 53.1966 399.611 53.3789 399.046C53.5658 398.476 53.8324 397.989 54.1787 397.583C54.5296 397.177 54.9512 396.865 55.4434 396.646C55.9355 396.428 56.4893 396.318 57.1045 396.318C57.8564 396.318 58.4922 396.46 59.0117 396.742C59.5312 397.025 59.9346 397.417 60.2217 397.918C60.5133 398.415 60.6934 398.991 60.7617 399.647H59.4492C59.3854 399.183 59.2669 398.784 59.0938 398.451C58.9206 398.114 58.6745 397.854 58.3555 397.672C58.0365 397.49 57.6195 397.398 57.1045 397.398C56.6624 397.398 56.2728 397.483 55.9355 397.651C55.6029 397.82 55.3226 398.059 55.0947 398.369C54.8714 398.679 54.7028 399.05 54.5889 399.483C54.4749 399.916 54.418 400.397 54.418 400.926V401.931C54.418 402.418 54.4681 402.876 54.5684 403.305C54.6732 403.733 54.8304 404.109 55.04 404.433C55.2497 404.756 55.5163 405.011 55.8398 405.198C56.1634 405.381 56.5462 405.472 56.9883 405.472C57.5488 405.472 57.9954 405.383 58.3281 405.205C58.6608 405.027 58.9115 404.772 59.0801 404.439C59.2533 404.107 59.3763 403.708 59.4492 403.243ZM63.5166 404.904V405.923C63.5166 406.338 63.4118 406.775 63.2021 407.235C62.9925 407.7 62.6986 408.088 62.3203 408.397L61.6025 407.898C61.7484 407.698 61.8714 407.493 61.9717 407.283C62.0719 407.078 62.1471 406.864 62.1973 406.641C62.252 406.422 62.2793 406.189 62.2793 405.943V404.904H63.5166ZM76.3955 396.455V406.408H75.083V397.535H70.1748V406.408H68.8555V396.455H76.3955ZM82.3359 401.753H79.8135L79.7998 400.693H82.0898C82.4681 400.693 82.7985 400.63 83.0811 400.502C83.3636 400.374 83.5824 400.192 83.7373 399.955C83.8968 399.714 83.9766 399.426 83.9766 399.094C83.9766 398.729 83.9059 398.433 83.7646 398.205C83.6279 397.973 83.416 397.804 83.1289 397.699C82.8464 397.59 82.4863 397.535 82.0488 397.535H80.1074V406.408H78.7881V396.455H82.0488C82.5592 396.455 83.015 396.507 83.416 396.612C83.8171 396.713 84.1566 396.872 84.4346 397.091C84.7171 397.305 84.9313 397.578 85.0771 397.911C85.223 398.244 85.2959 398.643 85.2959 399.107C85.2959 399.518 85.1911 399.889 84.9814 400.222C84.7718 400.55 84.4801 400.819 84.1064 401.028C83.7373 401.238 83.3044 401.372 82.8076 401.432L82.3359 401.753ZM82.2744 406.408H79.2939L80.0391 405.335H82.2744C82.6937 405.335 83.0492 405.262 83.3408 405.116C83.637 404.97 83.8626 404.765 84.0176 404.501C84.1725 404.232 84.25 403.915 84.25 403.551C84.25 403.182 84.1839 402.863 84.0518 402.594C83.9196 402.325 83.7122 402.118 83.4297 401.972C83.1471 401.826 82.7826 401.753 82.3359 401.753H80.4561L80.4697 400.693H83.04L83.3203 401.076C83.7988 401.117 84.2044 401.254 84.5371 401.486C84.8698 401.714 85.1227 402.006 85.2959 402.361C85.4736 402.717 85.5625 403.109 85.5625 403.537C85.5625 404.157 85.4258 404.681 85.1523 405.109C84.8835 405.533 84.5029 405.857 84.0107 406.08C83.5186 406.299 82.9398 406.408 82.2744 406.408ZM88.3652 396.455L90.7578 400.27L93.1504 396.455H94.6885L91.5439 401.384L94.7637 406.408H93.2119L90.7578 402.519L88.3037 406.408H86.752L89.9717 401.384L86.8271 396.455H88.3652Z" fill="white"/>
</svg>
