<svg viewBox="0 0 1664 347" fill="none" xmlns="http://www.w3.org/2000/svg">
<path d="M220.043 156.621C220.043 172.478 207.199 185.322 191.342 185.322C175.484 185.322 162.641 172.478 162.641 156.621C162.641 140.776 175.484 127.92 191.342 127.92C207.199 127.92 220.043 140.776 220.043 156.621Z" fill="white"/>
<path d="M193.102 141.398L174.516 159.984L187.927 173.396L206.513 154.809L193.102 141.398Z" fill="#77E2C3"/>
<path d="M197.348 145.634L180.352 162.631L185.281 167.561L202.278 150.564L197.348 145.634Z" fill="#008C95"/>
<path d="M212.953 150.62L210.609 150.739L210.549 150.68L210.669 148.336L208.337 148.455L208.456 146.123L206.112 146.243L206.232 143.899L203.888 144.019L204.008 141.675L201.676 141.794L201.795 139.462L199.451 139.582L199.571 137.238L197.227 137.358L197.347 135.014L197.191 135.026L196.043 136.174L194.393 137.824L193.113 141.4L206.519 154.805L210.095 153.526L211.745 151.876L212.953 150.668V150.62Z" fill="#008C95"/>
<path d="M185.329 178.23L185.448 175.898L185.388 175.838L183.056 175.958L183.176 173.614L180.832 173.734L180.952 171.39L178.608 171.509L178.727 169.177L176.395 169.297L176.515 166.953L174.171 167.073L174.291 164.729L171.947 164.848L172.066 162.516L169.734 162.636L169.746 162.469L170.882 161.32L172.545 159.67L176.108 158.391L189.526 171.796L188.247 175.372L186.584 177.022L185.376 178.23H185.329Z" fill="#008C95"/>
<path d="M138.722 156.621C138.722 172.478 125.867 185.322 110.021 185.322C94.164 185.322 81.3203 172.478 81.3203 156.621C81.3203 140.776 94.164 127.92 110.021 127.92C125.867 127.92 138.722 140.776 138.722 156.621Z" fill="white"/>
<path d="M116.847 166.058H102.484V139.641H126.103V156.801L116.847 166.058Z" fill="#77E2C3"/>
<path d="M116.852 166.057V156.801H126.108L116.852 166.057Z" fill="#008C95"/>
<path d="M93.9375 148.061V165.197C93.9375 169.849 97.7643 173.616 102.488 173.616C107.212 173.616 111.039 169.849 111.039 165.197V148.061H93.9375Z" fill="#008C95"/>
<path d="M111.039 148.06C111.039 152.712 107.212 156.479 102.488 156.479C97.7643 156.479 93.9375 152.712 93.9375 148.06C93.9375 143.408 97.7643 139.641 102.488 139.641C107.212 139.641 111.039 143.408 111.039 148.06Z" fill="white"/>
<path d="M107.042 148.061C107.042 150.536 104.997 152.545 102.486 152.545C99.9746 152.545 97.9297 150.536 97.9297 148.061C97.9297 145.585 99.9746 143.576 102.486 143.576C105.009 143.576 107.042 145.585 107.042 148.061Z" fill="#77E2C3"/>
<path d="M57.4021 75.3026C57.4021 91.1599 44.5583 104.004 28.701 104.004C12.8437 104.004 0 91.1599 0 75.3026C0 59.4572 12.8437 46.6016 28.701 46.6016C44.5583 46.6016 57.4021 59.4572 57.4021 75.3026Z" fill="white"/>
<path d="M26.5739 54.2422H19.3867V59.2409H26.5739V54.2422Z" fill="#008C95"/>
<path d="M14.1953 95.2639L15.2955 96.364H17.4959L18.5842 95.2639H20.7846L21.8848 96.364H24.0733L25.1734 95.2639H27.3739L28.4621 96.364H30.6625L31.7627 95.2639V86.5938H14.1953V95.2639Z" fill="#77E2C3"/>
<path d="M27.5652 59.2422H18.3928C15.6663 62.9853 14.2073 66.2859 14.1953 70.914H31.7508C31.7508 66.2859 30.2798 62.9853 27.5652 59.2422Z" fill="#77E2C3"/>
<path d="M14.2109 70.9141C14.2109 70.926 14.2109 70.938 14.2109 70.9499V85.2526V86.592H43.2109V85.2526V70.9499C43.2109 70.938 43.2109 70.926 43.2109 70.9141H14.2109Z" fill="#008C95"/>
<path d="M138.722 75.3026C138.722 91.1599 125.867 104.004 110.021 104.004C94.164 104.004 81.3203 91.1599 81.3203 75.3026C81.3203 59.4572 94.164 46.6016 110.021 46.6016C125.867 46.6016 138.722 59.4572 138.722 75.3026Z" fill="white"/>
<path d="M114.71 55.9297H100.719V89.1751H126.346V67.5775L114.71 55.9297Z" fill="#77E2C3"/>
<path d="M114.711 55.9297V67.5775H126.347L114.711 55.9297Z" fill="#008C95"/>
<path d="M93.6992 62.8555V87.7656C93.6992 91.5804 96.8444 94.6777 100.719 94.6777C104.594 94.6777 107.739 91.5804 107.739 87.7656V62.8555H93.6992Z" fill="#008C95"/>
<path d="M107.739 62.8419C107.739 66.6567 104.594 69.754 100.719 69.754C96.8444 69.754 93.6992 66.6567 93.6992 62.8419C93.6992 59.027 96.8444 55.9297 100.719 55.9297C104.594 55.9297 107.739 59.027 107.739 62.8419Z" fill="white"/>
<path d="M104.459 62.8395C104.459 64.8725 102.785 66.5229 100.716 66.5229C98.6469 66.5229 96.9727 64.8725 96.9727 62.8395C96.9727 60.8065 98.6469 59.1562 100.716 59.1562C102.785 59.1682 104.459 60.8065 104.459 62.8395Z" fill="#77E2C3"/>
<path d="M220.043 75.3026C220.043 91.1599 207.199 104.004 191.342 104.004C175.484 104.004 162.641 91.1599 162.641 75.3026C162.641 59.4572 175.484 46.6016 191.342 46.6016C207.199 46.6016 220.043 59.4572 220.043 75.3026Z" fill="white"/>
<path d="M192.483 62.0928L178.125 76.4512L190.183 88.5095L204.542 74.1511L192.483 62.0928Z" fill="#77E2C3"/>
<path d="M190.185 88.5173L187.075 93.6476L173 79.5721L178.13 76.4629L190.185 88.5173Z" fill="#77E2C3"/>
<path d="M172.995 79.5737L169.164 83.4043L183.235 97.4752L187.066 93.6445L172.995 79.5737Z" fill="#008C95"/>
<path d="M192.492 62.0993L195.613 56.957L209.689 71.0325L204.547 74.1537L192.492 62.0993Z" fill="#77E2C3"/>
<path d="M199.432 53.1343L195.602 56.9648L209.672 71.0357L213.503 67.2051L199.432 53.1343Z" fill="#008C95"/>
<path d="M301.363 75.3026C301.363 91.1599 288.519 104.004 272.662 104.004C256.805 104.004 243.961 91.1599 243.961 75.3026C243.961 59.4572 256.805 46.6016 272.662 46.6016C288.519 46.6016 301.363 59.4572 301.363 75.3026Z" fill="white"/>
<path d="M266.085 52.7715L263.812 54.661H268.369L266.085 52.7715Z" fill="#77E2C3"/>
<path d="M261.526 52.7715L259.254 54.661H263.81L261.526 52.7715Z" fill="#77E2C3"/>
<path d="M270.639 52.7715L268.367 54.661H272.923L270.639 52.7715Z" fill="#77E2C3"/>
<path d="M275.202 52.7715L272.93 54.661H277.474L275.202 52.7715Z" fill="#77E2C3"/>
<path d="M279.756 52.7715L277.484 54.661H282.029L279.756 52.7715Z" fill="#77E2C3"/>
<path d="M284.312 52.7715L282.027 54.661H286.584L284.312 52.7715Z" fill="#77E2C3"/>
<path d="M272.421 72.0482L286.58 54.6602H259.254L272.421 72.0482Z" fill="#77E2C3"/>
<path d="M286.223 73.521V93.7792C286.223 96.0155 284.394 97.8452 282.157 97.8452H262.808C260.572 97.8452 258.742 96.0155 258.742 93.7792V73.521C258.742 71.2848 260.572 69.4551 262.808 69.4551H282.157C284.394 69.4551 286.223 71.2848 286.223 73.521Z" fill="#77E2C3"/>
<path d="M282.754 76.2134C282.754 75.0773 281.821 74.1445 280.685 74.1445H264.588C263.452 74.1445 262.52 75.0773 262.52 76.2134C262.52 77.0385 263.022 77.792 263.787 78.1148L263.775 78.7128V80.2435V93.3623C263.775 94.0559 264.337 94.6179 265.031 94.6179H280.482C281.175 94.6179 281.737 94.0559 281.737 93.3623V79.9206V78.641L281.773 77.9594C282.383 77.5887 282.754 76.9309 282.754 76.2134Z" fill="#008C95"/>
<path d="M271.716 89.1041C271.716 90.1445 270.879 90.9816 269.838 90.9816C268.798 90.9816 267.961 90.1445 267.961 89.1041C267.961 88.0636 268.798 87.2266 269.838 87.2266C270.879 87.2266 271.716 88.0636 271.716 89.1041Z" fill="#77E2C3"/>
<path d="M278.558 85.3725C278.558 86.1618 277.912 86.8076 277.123 86.8076C276.333 86.8076 275.688 86.1618 275.688 85.3725C275.688 84.5833 276.333 83.9375 277.123 83.9375C277.912 83.9375 278.558 84.5833 278.558 85.3725Z" fill="#77E2C3"/>
<path d="M273.595 80.3267C273.595 81.3671 272.758 82.2043 271.717 82.2043C270.677 82.2043 269.84 81.3671 269.84 80.3267C269.84 79.2863 270.677 78.4492 271.717 78.4492C272.758 78.4612 273.595 79.2983 273.595 80.3267Z" fill="#77E2C3"/>
<path d="M382.683 75.3026C382.683 91.1599 369.84 104.004 353.982 104.004C338.125 104.004 325.281 91.1599 325.281 75.3026C325.281 59.4572 338.125 46.6016 353.982 46.6016C369.84 46.6016 382.683 59.4572 382.683 75.3026Z" fill="white"/>
<path d="M372.075 77.5025L373.092 71.9536V71.4394C373.044 67.6365 371.944 64.5631 369.36 60.9754V56.8497C369.36 55.4026 368.093 54.2188 366.538 54.2188H359.243C357.844 54.2188 356.588 55.0678 356.158 56.2996C355.859 57.1726 355.082 57.615 354.292 57.6629C354.28 57.6629 354.268 57.6629 354.257 57.6629C354.149 57.6629 354.041 57.6629 353.934 57.6509V57.6629C352.833 57.639 352.008 57.2682 351.793 56.2996C351.363 55.0559 350.119 54.2188 348.708 54.2188H341.413C339.858 54.2188 338.591 55.3907 338.591 56.8497V60.9754C336.007 64.5631 334.907 67.6365 334.859 71.4394V71.9536L335.876 77.5025L334.871 85.5029L334.859 93.4196L337.861 96.3734H350.406L351.243 95.5721C351.996 94.8546 352.965 94.46 353.946 94.3763C354.95 94.448 355.931 94.8427 356.696 95.5721L357.533 96.3734H358.203H363.752H370.078L373.08 93.4196L373.068 85.5029L372.075 77.5025Z" fill="#77E2C3"/>
<path d="M348.422 57.3398H342.203V61.4656H348.422V57.3398Z" fill="#008C95"/>
<path d="M338.543 92.6446L339.392 93.4937H341.078L341.927 92.6446H343.625L344.463 93.4937H346.161L346.998 92.6446H348.696L349.533 93.4937H351.231L352.068 92.6446V86.4141H338.543V92.6446Z" fill="white"/>
<path d="M348.839 63.25H341.784C339.691 66.144 338.555 68.6912 338.555 72.2669H352.08C352.068 68.6912 350.932 66.144 348.839 63.25Z" fill="white"/>
<path d="M338.555 72.2656C338.555 72.2776 338.555 72.2776 338.555 72.2895L339.583 77.9819L338.555 86.4009H352.08L351.064 77.9819L352.08 72.2895C352.08 72.2776 352.08 72.2776 352.08 72.2656H338.555Z" fill="#008C95"/>
<path d="M365.32 57.2812H359.102V61.407H365.32V57.2812Z" fill="#008C95"/>
<path d="M355.453 92.594L356.29 93.4431H357.988L358.826 92.594H360.524L361.373 93.4431H363.059L363.908 92.594H365.594L366.443 93.4431H368.129L368.978 92.594V86.3516H355.453V92.594Z" fill="white"/>
<path d="M365.738 63.1875H358.682C356.589 66.0815 355.453 68.6287 355.453 72.2044H368.978C368.967 68.6407 367.842 66.0815 365.738 63.1875Z" fill="white"/>
<path d="M355.453 72.2188C355.453 72.2307 355.453 72.2307 355.453 72.2427L356.482 77.935L355.453 86.354H368.978L367.962 77.935L368.978 72.2427C368.978 72.2307 368.978 72.2307 368.978 72.2188H355.453Z" fill="#008C95"/>
<path d="M464 75.3026C464 91.1599 451.156 104.004 435.299 104.004C419.441 104.004 406.598 91.1599 406.598 75.3026C406.598 59.4572 419.441 46.6016 435.299 46.6016C451.156 46.6016 464 59.4572 464 75.3026Z" fill="white"/>
<path d="M451.262 68.127H419.32V94.6156H451.262V68.127Z" fill="#77E2C3"/>
<path d="M454.135 65.8301H416.453V72.2759H454.135V65.8301Z" fill="#77E2C3"/>
<path d="M426.223 55.9902L431.867 56.337L436.16 65.8921L433.876 66.1073L428.602 58.2743L426.223 55.9902Z" fill="#008C95"/>
<path d="M423.398 62.5197L426.221 55.9902L428.792 58.1189L427.034 61.0488L434.424 65.8323H429.115L423.398 62.5197Z" fill="#008C95"/>
<path d="M445.247 55.9902L439.602 56.337L435.297 65.8921L437.593 66.1073L442.855 58.2743L445.247 55.9902Z" fill="#008C95"/>
<path d="M448.057 62.5197L445.247 55.9902L442.664 58.1189L444.434 61.0488L437.031 65.8323H442.341L448.057 62.5197Z" fill="#008C95"/>
<path d="M437.8 65.8301H432.801V94.6148H437.8V65.8301Z" fill="#008C95"/>
<path d="M16.1328 5.80469V7.8877H6.87793V25H4.34668V5.80469H16.1328ZM18.8091 21.1372L25.3877 10.7354H27.8398V25H25.3877V14.5981L18.8091 25H16.3833V10.7354H18.8091V21.1372ZM40.9048 4.52588H42.9087C42.9087 5.38721 42.7769 6.07275 42.5132 6.58252C42.2495 7.0835 41.8892 7.47021 41.4321 7.74268C40.9839 8.01514 40.4741 8.22168 39.9028 8.3623C39.3403 8.50293 38.7559 8.63916 38.1494 8.771C37.3936 8.9292 36.6904 9.17969 36.04 9.52246C35.3984 9.85645 34.8447 10.3311 34.3789 10.9463C33.9219 11.5615 33.5835 12.3613 33.3638 13.3457C33.1528 14.3301 33.0957 15.5474 33.1924 16.9976V18.2104H31.1885V16.9976C31.1885 15.3716 31.3423 13.9521 31.6499 12.7393C31.9663 11.5264 32.4102 10.5024 32.9814 9.66748C33.5527 8.83252 34.2295 8.16895 35.0117 7.67676C35.8027 7.18457 36.6729 6.84619 37.6221 6.66162C38.3076 6.52979 38.8965 6.38916 39.3887 6.23975C39.8809 6.08154 40.2544 5.87061 40.5093 5.60693C40.7729 5.34326 40.9048 4.98291 40.9048 4.52588ZM38.0176 11.5527C38.9492 11.5527 39.7798 11.7153 40.5093 12.0405C41.2388 12.3657 41.8584 12.8184 42.3682 13.3984C42.8779 13.9785 43.2646 14.6641 43.5283 15.4551C43.8008 16.2373 43.937 17.0898 43.937 18.0127V18.3027C43.937 19.2959 43.792 20.2188 43.502 21.0713C43.2207 21.915 42.8032 22.6533 42.2495 23.2861C41.7046 23.9102 41.0366 24.3979 40.2456 24.7495C39.4634 25.1011 38.5713 25.2769 37.5693 25.2769C36.5674 25.2769 35.6709 25.1011 34.8799 24.7495C34.0977 24.3979 33.4297 23.9102 32.876 23.2861C32.3223 22.6533 31.9004 21.915 31.6104 21.0713C31.3291 20.2188 31.1885 19.2959 31.1885 18.3027V18.0127C31.1885 17.793 31.228 17.5776 31.3071 17.3667C31.3862 17.1558 31.4829 16.9404 31.5972 16.7207C31.7202 16.501 31.8301 16.2681 31.9268 16.022C32.252 15.231 32.6958 14.4971 33.2583 13.8203C33.8296 13.1436 34.5107 12.5986 35.3018 12.1855C36.1016 11.7637 37.0068 11.5527 38.0176 11.5527ZM37.543 13.5435C36.6465 13.5435 35.9082 13.75 35.3281 14.1631C34.7568 14.5762 34.3306 15.1255 34.0493 15.811C33.7681 16.4878 33.6274 17.2217 33.6274 18.0127V18.3027C33.6274 18.9707 33.7065 19.6035 33.8647 20.2012C34.0229 20.7988 34.2603 21.3306 34.5767 21.7964C34.9019 22.2534 35.3105 22.6138 35.8027 22.8774C36.3037 23.1411 36.8926 23.2729 37.5693 23.2729C38.2461 23.2729 38.8306 23.1411 39.3228 22.8774C39.8149 22.6138 40.2192 22.2534 40.5356 21.7964C40.8521 21.3306 41.0894 20.7988 41.2476 20.2012C41.4058 19.6035 41.4849 18.9707 41.4849 18.3027V18.0127C41.4849 17.415 41.4058 16.8481 41.2476 16.312C41.0894 15.7759 40.8477 15.3013 40.5225 14.8882C40.2061 14.4751 39.7974 14.1499 39.2964 13.9126C38.8042 13.6665 38.2197 13.5435 37.543 13.5435ZM49.1182 10.7354V25H46.6792V10.7354H49.1182ZM58.4785 10.7354L51.7153 18.9092H48.3008L47.9316 16.7734H50.7266L55.5122 10.7354H58.4785ZM55.855 25L50.6079 18.54L52.1768 16.7734L58.9531 25H55.855ZM69.4868 22.561V15.2178C69.4868 14.6553 69.3726 14.1675 69.144 13.7544C68.9243 13.3325 68.5903 13.0073 68.1421 12.7788C67.6938 12.5503 67.1401 12.436 66.481 12.436C65.8657 12.436 65.3252 12.5415 64.8594 12.7524C64.4023 12.9634 64.042 13.2402 63.7783 13.583C63.5234 13.9258 63.396 14.2949 63.396 14.6904H60.957C60.957 14.1807 61.0889 13.6753 61.3525 13.1743C61.6162 12.6733 61.9941 12.2207 62.4863 11.8164C62.9873 11.4033 63.585 11.0781 64.2793 10.8408C64.9824 10.5947 65.7646 10.4717 66.626 10.4717C67.6631 10.4717 68.5771 10.6475 69.3682 10.999C70.168 11.3506 70.792 11.8823 71.2402 12.5942C71.6973 13.2974 71.9258 14.1807 71.9258 15.2441V21.8887C71.9258 22.3633 71.9653 22.8687 72.0444 23.4048C72.1323 23.9409 72.2598 24.4023 72.4268 24.7891V25H69.8823C69.7593 24.7188 69.6626 24.3452 69.5923 23.8794C69.522 23.4048 69.4868 22.9653 69.4868 22.561ZM69.9087 16.3516L69.9351 18.0654H67.4697C66.7754 18.0654 66.1558 18.1226 65.6108 18.2368C65.0659 18.3423 64.6089 18.5049 64.2397 18.7246C63.8706 18.9443 63.5894 19.2212 63.396 19.5552C63.2026 19.8804 63.106 20.2627 63.106 20.7021C63.106 21.1504 63.207 21.5591 63.4092 21.9282C63.6113 22.2974 63.9146 22.5918 64.3188 22.8115C64.7319 23.0225 65.2373 23.1279 65.835 23.1279C66.582 23.1279 67.2412 22.9697 67.8125 22.6533C68.3838 22.3369 68.8364 21.9502 69.1704 21.4932C69.5132 21.0361 69.6978 20.5923 69.7241 20.1616L70.7656 21.335C70.7041 21.7041 70.5371 22.1128 70.2646 22.561C69.9922 23.0093 69.6274 23.4399 69.1704 23.853C68.7222 24.2573 68.186 24.5957 67.562 24.8682C66.9468 25.1318 66.2524 25.2637 65.479 25.2637C64.5122 25.2637 63.6641 25.0747 62.9346 24.6968C62.2139 24.3188 61.6514 23.8135 61.2471 23.1807C60.8516 22.5391 60.6538 21.8228 60.6538 21.0317C60.6538 20.2671 60.8032 19.5947 61.1021 19.0146C61.4009 18.4258 61.8315 17.938 62.394 17.5513C62.9565 17.1558 63.6333 16.8569 64.4243 16.6548C65.2153 16.4526 66.0986 16.3516 67.0742 16.3516H69.9087ZM78.6494 18.1973H81.2861L77.1597 25H74.5229L78.6494 18.1973ZM80.6929 10.7354H86.6519V25H84.2129V12.7129H80.6929C79.9985 12.7129 79.4316 12.8315 78.9922 13.0688C78.5527 13.2974 78.2319 13.5962 78.0298 13.9653C77.8276 14.3345 77.7266 14.7168 77.7266 15.1123C77.7266 15.499 77.8188 15.8726 78.0034 16.2329C78.188 16.5845 78.478 16.8745 78.8735 17.103C79.269 17.3315 79.7788 17.4458 80.4028 17.4458H84.8721V19.4497H80.4028C79.5854 19.4497 78.8604 19.3398 78.2275 19.1201C77.5947 18.9004 77.0586 18.5972 76.6191 18.2104C76.1797 17.8149 75.8457 17.3535 75.6172 16.8262C75.3887 16.29 75.2744 15.71 75.2744 15.0859C75.2744 14.4619 75.3931 13.8862 75.6304 13.3589C75.8765 12.8315 76.228 12.3701 76.6851 11.9746C77.1509 11.5791 77.7178 11.2759 78.3857 11.0649C79.0625 10.8452 79.8315 10.7354 80.6929 10.7354ZM101.286 23.5234L105.254 10.7354H107.864L102.143 27.2017C102.011 27.5532 101.835 27.9312 101.615 28.3354C101.404 28.7485 101.132 29.1396 100.798 29.5088C100.464 29.8779 100.06 30.1768 99.585 30.4053C99.1191 30.6426 98.561 30.7612 97.9106 30.7612C97.7173 30.7612 97.4712 30.7349 97.1724 30.6821C96.8735 30.6294 96.6626 30.5854 96.5396 30.5503L96.5264 28.5728C96.5967 28.5815 96.7065 28.5903 96.856 28.5991C97.0142 28.6167 97.124 28.6255 97.1855 28.6255C97.7393 28.6255 98.2095 28.5508 98.5962 28.4014C98.9829 28.2607 99.3081 28.019 99.5718 27.6763C99.8442 27.3423 100.077 26.8809 100.271 26.292L101.286 23.5234ZM98.3721 10.7354L102.077 21.8096L102.709 24.3804L100.956 25.2769L95.709 10.7354H98.3721ZM119.571 10.7354V12.7524H112.36V10.7354H119.571ZM112.716 10.7354V25H110.277V10.7354H112.716ZM121.733 10.7354V25H119.281V10.7354H121.733ZM134.06 22.561V15.2178C134.06 14.6553 133.946 14.1675 133.717 13.7544C133.498 13.3325 133.164 13.0073 132.715 12.7788C132.267 12.5503 131.713 12.436 131.054 12.436C130.439 12.436 129.898 12.5415 129.433 12.7524C128.976 12.9634 128.615 13.2402 128.352 13.583C128.097 13.9258 127.969 14.2949 127.969 14.6904H125.53C125.53 14.1807 125.662 13.6753 125.926 13.1743C126.189 12.6733 126.567 12.2207 127.06 11.8164C127.561 11.4033 128.158 11.0781 128.853 10.8408C129.556 10.5947 130.338 10.4717 131.199 10.4717C132.236 10.4717 133.15 10.6475 133.941 10.999C134.741 11.3506 135.365 11.8823 135.813 12.5942C136.271 13.2974 136.499 14.1807 136.499 15.2441V21.8887C136.499 22.3633 136.539 22.8687 136.618 23.4048C136.706 23.9409 136.833 24.4023 137 24.7891V25H134.456C134.333 24.7188 134.236 24.3452 134.166 23.8794C134.095 23.4048 134.06 22.9653 134.06 22.561ZM134.482 16.3516L134.508 18.0654H132.043C131.349 18.0654 130.729 18.1226 130.184 18.2368C129.639 18.3423 129.182 18.5049 128.813 18.7246C128.444 18.9443 128.163 19.2212 127.969 19.5552C127.776 19.8804 127.679 20.2627 127.679 20.7021C127.679 21.1504 127.78 21.5591 127.982 21.9282C128.185 22.2974 128.488 22.5918 128.892 22.8115C129.305 23.0225 129.811 23.1279 130.408 23.1279C131.155 23.1279 131.814 22.9697 132.386 22.6533C132.957 22.3369 133.41 21.9502 133.744 21.4932C134.086 21.0361 134.271 20.5923 134.297 20.1616L135.339 21.335C135.277 21.7041 135.11 22.1128 134.838 22.561C134.565 23.0093 134.201 23.4399 133.744 23.853C133.295 24.2573 132.759 24.5957 132.135 24.8682C131.52 25.1318 130.826 25.2637 130.052 25.2637C129.085 25.2637 128.237 25.0747 127.508 24.6968C126.787 24.3188 126.225 23.8135 125.82 23.1807C125.425 22.5391 125.227 21.8228 125.227 21.0317C125.227 20.2671 125.376 19.5947 125.675 19.0146C125.974 18.4258 126.405 17.938 126.967 17.5513C127.53 17.1558 128.207 16.8569 128.998 16.6548C129.789 16.4526 130.672 16.3516 131.647 16.3516H134.482ZM142.985 10.7354V25H140.546V10.7354H142.985ZM152.346 10.7354L145.583 18.9092H142.168L141.799 16.7734H144.594L149.379 10.7354H152.346ZM149.722 25L144.475 18.54L146.044 16.7734L152.82 25H149.722ZM154.007 18.0259V17.7227C154.007 16.6943 154.156 15.7407 154.455 14.8618C154.754 13.9741 155.185 13.2051 155.747 12.5547C156.31 11.8955 156.991 11.3857 157.791 11.0254C158.59 10.6562 159.487 10.4717 160.48 10.4717C161.482 10.4717 162.383 10.6562 163.183 11.0254C163.991 11.3857 164.677 11.8955 165.239 12.5547C165.811 13.2051 166.246 13.9741 166.544 14.8618C166.843 15.7407 166.993 16.6943 166.993 17.7227V18.0259C166.993 19.0542 166.843 20.0078 166.544 20.8867C166.246 21.7656 165.811 22.5347 165.239 23.1938C164.677 23.8442 163.996 24.354 163.196 24.7231C162.405 25.0835 161.508 25.2637 160.506 25.2637C159.504 25.2637 158.604 25.0835 157.804 24.7231C157.004 24.354 156.318 23.8442 155.747 23.1938C155.185 22.5347 154.754 21.7656 154.455 20.8867C154.156 20.0078 154.007 19.0542 154.007 18.0259ZM156.446 17.7227V18.0259C156.446 18.7378 156.529 19.4102 156.696 20.043C156.863 20.667 157.114 21.2207 157.448 21.7041C157.791 22.1875 158.217 22.5698 158.727 22.8511C159.236 23.1235 159.83 23.2598 160.506 23.2598C161.174 23.2598 161.759 23.1235 162.26 22.8511C162.77 22.5698 163.191 22.1875 163.525 21.7041C163.859 21.2207 164.11 20.667 164.277 20.043C164.453 19.4102 164.541 18.7378 164.541 18.0259V17.7227C164.541 17.0195 164.453 16.356 164.277 15.7319C164.11 15.0991 163.855 14.541 163.512 14.0576C163.178 13.5654 162.756 13.1787 162.247 12.8975C161.746 12.6162 161.157 12.4756 160.48 12.4756C159.812 12.4756 159.223 12.6162 158.713 12.8975C158.212 13.1787 157.791 13.5654 157.448 14.0576C157.114 14.541 156.863 15.0991 156.696 15.7319C156.529 16.356 156.446 17.0195 156.446 17.7227ZM176.749 18.7246H172.068L172.042 16.7734H175.865C176.621 16.7734 177.25 16.6987 177.75 16.5493C178.26 16.3999 178.643 16.1758 178.897 15.877C179.152 15.5781 179.28 15.209 179.28 14.7695C179.28 14.4268 179.205 14.1279 179.056 13.873C178.915 13.6094 178.7 13.394 178.41 13.2271C178.12 13.0513 177.759 12.9238 177.329 12.8447C176.907 12.7568 176.41 12.7129 175.839 12.7129H172.714V25H170.275V10.7354H175.839C176.744 10.7354 177.557 10.8145 178.278 10.9727C179.007 11.1309 179.627 11.3726 180.137 11.6978C180.655 12.0142 181.051 12.4185 181.323 12.9106C181.596 13.4028 181.732 13.9829 181.732 14.6509C181.732 15.0815 181.644 15.4902 181.468 15.877C181.292 16.2637 181.033 16.6064 180.69 16.9053C180.348 17.2041 179.926 17.4502 179.425 17.6436C178.924 17.8281 178.348 17.9468 177.698 17.9995L176.749 18.7246ZM176.749 25H171.185L172.398 23.0225H176.749C177.425 23.0225 177.988 22.939 178.436 22.772C178.884 22.5962 179.218 22.3501 179.438 22.0337C179.667 21.7085 179.781 21.3218 179.781 20.8735C179.781 20.4253 179.667 20.043 179.438 19.7266C179.218 19.4014 178.884 19.1553 178.436 18.9883C177.988 18.8125 177.425 18.7246 176.749 18.7246H173.044L173.07 16.7734H177.698L178.581 17.5117C179.363 17.5732 180.027 17.7666 180.572 18.0918C181.117 18.417 181.53 18.8301 181.811 19.3311C182.092 19.8232 182.233 20.3594 182.233 20.9395C182.233 21.6074 182.105 22.1963 181.851 22.7061C181.604 23.2158 181.244 23.6421 180.77 23.9849C180.295 24.3188 179.719 24.5737 179.042 24.7495C178.366 24.9165 177.601 25 176.749 25ZM188.152 10.7354V25H185.713V10.7354H188.152ZM197.513 10.7354L190.75 18.9092H187.335L186.966 16.7734H189.761L194.546 10.7354H197.513ZM194.889 25L189.642 18.54L191.211 16.7734L197.987 25H194.889ZM208.521 22.561V15.2178C208.521 14.6553 208.407 14.1675 208.178 13.7544C207.958 13.3325 207.625 13.0073 207.176 12.7788C206.728 12.5503 206.174 12.436 205.515 12.436C204.9 12.436 204.359 12.5415 203.894 12.7524C203.437 12.9634 203.076 13.2402 202.812 13.583C202.558 13.9258 202.43 14.2949 202.43 14.6904H199.991C199.991 14.1807 200.123 13.6753 200.387 13.1743C200.65 12.6733 201.028 12.2207 201.521 11.8164C202.021 11.4033 202.619 11.0781 203.313 10.8408C204.017 10.5947 204.799 10.4717 205.66 10.4717C206.697 10.4717 207.611 10.6475 208.402 10.999C209.202 11.3506 209.826 11.8823 210.274 12.5942C210.731 13.2974 210.96 14.1807 210.96 15.2441V21.8887C210.96 22.3633 211 22.8687 211.079 23.4048C211.167 23.9409 211.294 24.4023 211.461 24.7891V25H208.917C208.793 24.7188 208.697 24.3452 208.626 23.8794C208.556 23.4048 208.521 22.9653 208.521 22.561ZM208.943 16.3516L208.969 18.0654H206.504C205.81 18.0654 205.19 18.1226 204.645 18.2368C204.1 18.3423 203.643 18.5049 203.274 18.7246C202.905 18.9443 202.624 19.2212 202.43 19.5552C202.237 19.8804 202.14 20.2627 202.14 20.7021C202.14 21.1504 202.241 21.5591 202.443 21.9282C202.646 22.2974 202.949 22.5918 203.353 22.8115C203.766 23.0225 204.271 23.1279 204.869 23.1279C205.616 23.1279 206.275 22.9697 206.847 22.6533C207.418 22.3369 207.871 21.9502 208.205 21.4932C208.547 21.0361 208.732 20.5923 208.758 20.1616L209.8 21.335C209.738 21.7041 209.571 22.1128 209.299 22.561C209.026 23.0093 208.662 23.4399 208.205 23.853C207.756 24.2573 207.22 24.5957 206.596 24.8682C205.981 25.1318 205.287 25.2637 204.513 25.2637C203.546 25.2637 202.698 25.0747 201.969 24.6968C201.248 24.3188 200.686 23.8135 200.281 23.1807C199.886 22.5391 199.688 21.8228 199.688 21.0317C199.688 20.2671 199.837 19.5947 200.136 19.0146C200.435 18.4258 200.866 17.938 201.428 17.5513C201.991 17.1558 202.667 16.8569 203.458 16.6548C204.25 16.4526 205.133 16.3516 206.108 16.3516H208.943Z" fill="#008C95"/>
<path d="M1145 235.961C1145 251.818 1132.16 264.662 1116.3 264.662C1100.44 264.662 1087.6 251.818 1087.6 235.961C1087.6 220.103 1100.44 207.26 1116.3 207.26C1132.16 207.26 1145 220.115 1145 235.961Z" fill="white"/>
<path d="M1125.26 239.513V232.134L1131.55 228.451V235.842L1125.26 239.513Z" fill="#008C95"/>
<path d="M1123.49 240.541L1117.2 244.212V236.833L1123.49 233.162V240.541Z" fill="#008C95"/>
<path d="M1125.26 241.556L1131.55 237.885V244.905L1125.26 248.576V241.556Z" fill="#008C95"/>
<path d="M1123.49 242.586V249.618L1117.2 253.289V246.269L1123.49 242.586Z" fill="#008C95"/>
<path d="M1125.26 239.513V232.134L1131.55 228.451V235.842L1125.26 239.513Z" fill="#77E2C3"/>
<path d="M1123.49 240.541L1117.2 244.212V236.833L1123.49 233.162V240.541Z" fill="#77E2C3"/>
<path d="M1125.26 241.556L1131.55 237.885V244.905L1125.26 248.576V241.556Z" fill="#77E2C3"/>
<path d="M1123.49 242.586V249.618L1117.2 253.289V246.269L1123.49 242.586Z" fill="#77E2C3"/>
<path d="M1107.33 239.513V232.134L1101.04 228.451V235.842L1107.33 239.513Z" fill="#008C95"/>
<path d="M1109.1 240.541L1115.39 244.212V236.833L1109.1 233.162V240.541Z" fill="#008C95"/>
<path d="M1107.33 241.556L1101.04 237.885V244.905L1107.33 248.576V241.556Z" fill="#008C95"/>
<path d="M1109.1 242.586V249.618L1115.39 253.289V246.269L1109.1 242.586Z" fill="#008C95"/>
<path d="M1114.52 226.858L1108.31 230.434L1101.98 226.775L1108.19 223.211L1114.52 226.858Z" fill="#77E2C3"/>
<path d="M1116.27 225.856L1109.93 222.209L1116.14 218.633L1122.47 222.292L1116.27 225.856Z" fill="#77E2C3"/>
<path d="M1118.01 226.861L1124.21 223.297L1130.54 226.944L1124.33 230.52L1118.01 226.861Z" fill="#77E2C3"/>
<path d="M1116.27 227.865L1122.6 231.525L1116.4 235.088L1110.06 231.441L1116.27 227.865Z" fill="#77E2C3"/>
<path d="M1063.68 154.605C1063.68 170.463 1050.84 183.306 1034.98 183.306C1019.12 183.306 1006.28 170.463 1006.28 154.605C1006.28 138.748 1019.12 125.904 1034.98 125.904C1050.84 125.904 1063.68 138.748 1063.68 154.605Z" fill="white"/>
<path d="M1039.76 173.297L1038.88 158.025H1051.21L1050.33 173.297H1039.76Z" fill="#008C95"/>
<path d="M1052.97 156.102H1037.11V159.02H1052.97V156.102Z" fill="#77E2C3"/>
<path d="M1030.18 135.758H1023.75V140.23H1030.18V135.758Z" fill="#008C95"/>
<path d="M1019.1 172.472L1020.08 173.453H1022.06L1023.04 172.472H1025L1025.98 173.453H1027.95L1028.93 172.472H1030.89L1031.87 173.453H1033.83L1034.83 172.472V164.699H1019.1V172.472Z" fill="#77E2C3"/>
<path d="M1031.07 140.23H1022.87C1020.43 143.579 1019.13 146.533 1019.11 150.671H1034.83C1034.82 146.533 1033.5 143.579 1031.07 140.23Z" fill="#77E2C3"/>
<path d="M1019.11 150.67C1019.11 150.682 1019.11 150.694 1019.11 150.694V163.502V164.698H1034.83V163.502V150.694C1034.83 150.682 1034.83 150.67 1034.83 150.67H1019.11Z" fill="#008C95"/>
<path d="M1063.68 73.2987C1063.68 89.156 1050.84 102 1034.98 102C1019.12 102 1006.28 89.156 1006.28 73.2987C1006.28 57.4414 1019.12 44.5977 1034.98 44.5977C1050.84 44.5977 1063.68 57.4533 1063.68 73.2987Z" fill="white"/>
<path d="M1031.43 54.5938H1025.05V59.0305H1031.43V54.5938Z" fill="#008C95"/>
<path d="M1047.23 63.0723H1040.84V67.5089H1047.23V63.0723Z" fill="#008C95"/>
<path d="M1020.44 91.0335L1021.41 92.014H1023.36L1024.34 91.0335H1026.29L1027.27 92.014H1029.22L1030.18 91.0335H1032.13L1033.11 92.014H1035.06L1036.03 91.0335V83.332H1020.44V91.0335Z" fill="#77E2C3"/>
<path d="M1032.31 59.0312H1024.17C1021.75 62.3558 1020.45 65.2857 1020.44 69.3995H1036.03C1036.03 65.2857 1034.73 62.3558 1032.31 59.0312Z" fill="#77E2C3"/>
<path d="M1020.44 69.3984C1020.44 69.4104 1020.44 69.4224 1020.44 69.4224V82.1345V83.3304H1036.04V82.1345V69.4224C1036.04 69.4104 1036.04 69.3984 1036.04 69.3984H1020.44Z" fill="#008C95"/>
<path d="M1038.54 91.2829L1039.22 92.0124H1040.6L1041.29 91.2829H1042.65L1043.35 92.0124H1044.72L1045.4 91.2829H1046.78L1047.47 92.0124H1048.84L1049.53 91.2829V85.5547H1038.54V91.2829Z" fill="#77E2C3"/>
<path d="M1046.9 67.5098H1041.16C1039.46 69.9852 1038.54 72.1617 1038.54 75.2112H1049.53C1049.52 72.1617 1048.61 69.9852 1046.9 67.5098Z" fill="#77E2C3"/>
<path d="M1038.54 75.2109C1038.54 75.2229 1038.54 75.2229 1038.54 75.2349L1039.38 77.9495L1038.54 85.5673H1049.53L1048.69 77.9495L1049.53 75.2349C1049.53 75.2229 1049.53 75.2229 1049.53 75.2109H1038.54Z" fill="#008C95"/>
<path d="M738.402 154.605C738.402 170.463 725.558 183.306 709.701 183.306C693.844 183.306 681 170.463 681 154.605C681 138.748 693.844 125.904 709.701 125.904C725.558 125.904 738.402 138.748 738.402 154.605Z" fill="white"/>
<path d="M721.866 170.796H697.734L694.469 159.447H725.119L721.866 170.796Z" fill="#008C95"/>
<path d="M716.217 138.412L693.555 146.735L694.428 158.551L723.2 147.979L716.217 138.412Z" fill="#77E2C3"/>
<path d="M727.679 156.625H691.73V160.536H727.679V156.625Z" fill="#77E2C3"/>
<path d="M725.362 143.892L691.758 156.664L693.143 160.308L726.747 147.536L725.362 143.892Z" fill="#77E2C3"/>
<path d="M699.277 147.678L696.426 148.725L698.288 153.799L701.14 152.752L699.277 147.678Z" fill="white"/>
<path d="M704.594 145.715L701.742 146.762L703.605 151.836L706.456 150.79L704.594 145.715Z" fill="white"/>
<path d="M709.918 143.766L707.066 144.812L708.929 149.887L711.781 148.84L709.918 143.766Z" fill="white"/>
<path d="M715.238 141.817L712.387 142.863L714.249 147.938L717.101 146.891L715.238 141.817Z" fill="white"/>
<path d="M702.717 162.904H699.68V168.31H702.717V162.904Z" fill="white"/>
<path d="M708.385 162.904H705.348V168.31H708.385V162.904Z" fill="white"/>
<path d="M714.053 162.904H711.016V168.31H714.053V162.904Z" fill="white"/>
<path d="M719.725 162.904H716.688V168.31H719.725V162.904Z" fill="white"/>
<path d="M819.722 73.2987C819.722 89.156 806.867 102 791.021 102C775.164 102 762.32 89.156 762.32 73.2987C762.32 57.4414 775.164 44.5977 791.021 44.5977C806.867 44.5977 819.722 57.4533 819.722 73.2987Z" fill="white"/>
<path d="M803.677 68.6214C803.677 69.1596 803.653 69.6858 803.594 70.212C802.828 77.8656 796.61 83.9047 788.884 84.3951C788.549 84.419 788.215 84.431 787.868 84.431C787.533 84.431 787.186 84.419 786.863 84.3951C778.612 83.8689 772.07 77.0165 772.07 68.6334C772.07 60.2503 778.6 53.386 786.863 52.8718H786.875C787.198 52.8479 787.533 52.8359 787.868 52.8359C788.203 52.8359 788.538 52.8479 788.872 52.8718H788.884C796.992 53.386 803.45 60.0112 803.665 68.2029C803.677 68.3225 803.677 68.4779 803.677 68.6214Z" fill="#77E2C3"/>
<path d="M796.438 68.621C796.438 68.908 796.426 69.1951 796.39 69.4821C795.971 73.6318 792.599 76.9085 788.413 77.1716C788.234 77.1835 788.055 77.1836 787.863 77.1836C787.672 77.1836 787.493 77.1716 787.313 77.1716C782.841 76.8846 779.301 73.1654 779.301 68.621C779.301 64.0767 782.841 60.3576 787.313 60.0825H787.325C787.505 60.0706 787.684 60.0586 787.863 60.0586C788.043 60.0586 788.222 60.0706 788.401 60.0825H788.413C792.814 60.3576 796.306 63.9571 796.426 68.3938C796.438 68.4656 796.438 68.5373 796.438 68.621Z" fill="white"/>
<path d="M796.524 89.6208L790.592 95.5524C789.839 95.8036 788.978 94.5001 789.468 92.5029C790.102 90.4221 790.568 89.4774 792.159 87.7314C795.746 84.084 799.956 81.5128 801.14 80.8312L810.731 71.2402L812.811 73.3211L803.484 82.6489L796.524 89.6208Z" fill="#77E2C3"/>
<path d="M807.546 68.4536L806.266 67.174L800 73.4404L799.067 72.5075L805.333 66.2412L804.054 64.9616L797.787 71.2399L796.687 70.1397L802.954 63.8733L801.674 62.5938L795.408 68.8721L794.044 70.2354C792.92 71.3595 792.801 73.1055 793.698 74.3612L780.938 87.1212L783.018 89.214L795.79 76.454C797.046 77.3389 798.792 77.2313 799.916 76.1071L800.179 75.8441L801.279 74.7439L807.546 68.4536Z" fill="#77E2C3"/>
<path d="M803.626 69.8173L800.002 73.4409L799.07 72.508L803.662 67.9159C803.626 67.1386 803.542 66.3732 803.399 65.6318L797.802 71.2285L796.702 70.1283L802.968 63.8619C802.968 63.8499 802.956 63.838 802.956 63.826L801.7 62.5703L795.434 68.8368L794.071 70.2C792.947 71.3241 792.827 73.0701 793.724 74.3258L784.121 83.9287C785.018 84.144 785.939 84.2994 786.896 84.3592C787.206 84.3831 787.517 84.3832 787.84 84.3832L795.805 76.4186C797.06 77.3035 798.806 77.1959 799.931 76.0718L800.194 75.8087L801.294 74.7085L803.1 72.9027C803.351 72.0297 803.518 71.1208 803.614 70.188C803.614 70.0804 803.614 69.9489 803.626 69.8173Z" fill="#008C95"/>
<path d="M901.043 73.2987C901.043 89.156 888.199 102 872.342 102C856.484 102 843.641 89.156 843.641 73.2987C843.641 57.4414 856.484 44.5977 872.342 44.5977C888.199 44.5977 901.043 57.4533 901.043 73.2987Z" fill="white"/>
<path d="M888.739 70.0547H855.972C855.529 70.4972 855.29 70.7363 854.848 71.1788V86.8567H889.851V71.1788C889.42 70.7483 889.181 70.4972 888.739 70.0547Z" fill="#77E2C3"/>
<path d="M879.316 83.0681C879.316 86.5601 881.517 89.3824 884.231 89.3824C886.946 89.3824 889.147 86.5601 889.147 83.0681C889.147 79.5762 886.946 76.7539 884.231 76.7539C881.517 76.742 879.316 79.5762 879.316 83.0681Z" fill="white"/>
<path d="M867.43 83.0681C867.43 86.5601 869.63 89.3824 872.345 89.3824C875.059 89.3824 877.26 86.5601 877.26 83.0681C877.26 79.5762 875.059 76.7539 872.345 76.7539C869.63 76.742 867.43 79.5762 867.43 83.0681Z" fill="white"/>
<path d="M855.578 83.0681C855.578 86.5601 857.779 89.3824 860.493 89.3824C863.208 89.3824 865.408 86.5601 865.408 83.0681C865.408 79.5762 863.208 76.7539 860.493 76.7539C857.779 76.742 855.578 79.5762 855.578 83.0681Z" fill="white"/>
<path d="M879.722 90.1945H888.739C889.181 89.752 889.42 89.5128 889.863 89.0704V83.5215H878.598V89.0704C879.04 89.5128 879.279 89.764 879.722 90.1945Z" fill="#008C95"/>
<path d="M867.893 90.1945H876.922C877.365 89.752 877.604 89.5128 878.046 89.0704V83.5215H866.781V89.0704C867.212 89.5128 867.451 89.764 867.893 90.1945Z" fill="#008C95"/>
<path d="M855.983 90.1945H865.012C865.455 89.752 865.694 89.5128 866.136 89.0704V83.5215H854.871V89.0704C855.302 89.5128 855.541 89.764 855.983 90.1945Z" fill="#008C95"/>
<path d="M882.017 83.5215H859.773V88.0897H882.017V83.5215Z" fill="#008C95"/>
<path d="M891.947 83.5215H852.758V85.2077H891.947V83.5215Z" fill="#008C95"/>
<path d="M865.012 56.4102H855.984C855.541 56.8526 855.302 57.0918 854.859 57.5343V63.0832H866.136V57.5343L865.012 56.4102Z" fill="#008C95"/>
<path d="M877.33 56.4102H867.297C866.843 56.8646 866.579 57.1277 866.125 57.5821V63.0832H878.502V57.5821C878.048 57.1277 877.797 56.8646 877.33 56.4102Z" fill="#008C95"/>
<path d="M888.922 56.4102H879.558C879.115 56.8526 878.864 57.1038 878.422 57.5463V63.0832H890.058V57.5463C889.615 57.1038 889.364 56.8526 888.922 56.4102Z" fill="#008C95"/>
<path d="M884.946 58.5176H862.703V63.0858H884.946V58.5176Z" fill="#008C95"/>
<path d="M879.316 65.3807C879.316 68.8726 881.517 71.6949 884.231 71.6949C886.946 71.6949 889.147 68.8726 889.147 65.3807C889.147 61.8887 886.946 59.0664 884.231 59.0664C881.517 59.0664 879.316 61.8887 879.316 65.3807Z" fill="white"/>
<path d="M867.43 65.3807C867.43 68.8726 869.63 71.6949 872.345 71.6949C875.059 71.6949 877.26 68.8726 877.26 65.3807C877.26 61.8887 875.059 59.0664 872.345 59.0664C869.63 59.0664 867.43 61.8887 867.43 65.3807Z" fill="white"/>
<path d="M855.578 65.3807C855.578 68.8726 857.779 71.6949 860.493 71.6949C863.208 71.6949 865.408 68.8726 865.408 65.3807C865.408 61.8887 863.208 59.0664 860.493 59.0664C857.779 59.0664 855.578 61.8887 855.578 65.3807Z" fill="white"/>
<path d="M882.017 65.8477H859.773V70.4158H882.017V65.8477Z" fill="#008C95"/>
<path d="M891.947 65.8477H852.758V67.5338H891.947V65.8477Z" fill="#008C95"/>
<path d="M865.012 74.2062H855.984C855.541 73.7637 855.302 73.5246 854.859 73.0821V67.5332H866.136V73.0821C865.694 73.5246 865.443 73.7637 865.012 74.2062Z" fill="#008C95"/>
<path d="M877.33 74.2062H867.297C866.843 73.7518 866.579 73.4886 866.125 73.0342V67.5332H878.502V73.0342C878.048 73.4886 877.797 73.7518 877.33 74.2062Z" fill="#008C95"/>
<path d="M888.922 74.2062H879.558C879.115 73.7637 878.864 73.5126 878.422 73.0701V67.5332H890.058V73.0701C889.615 73.5126 889.364 73.7637 888.922 74.2062Z" fill="#008C95"/>
<path d="M982.363 73.2987C982.363 89.156 969.519 102 953.662 102C937.805 102 924.961 89.156 924.961 73.2987C924.961 57.4414 937.805 44.5977 953.662 44.5977C969.519 44.5977 982.363 57.4533 982.363 73.2987Z" fill="white"/>
<path d="M959.057 84.0012L959.045 61.9013L956.773 57.668H941.932L939.684 61.9013L939.672 84.0012C939.672 86.381 941.597 88.3063 943.977 88.3063H954.764C957.132 88.3063 959.057 86.381 959.057 84.0012Z" fill="#77E2C3"/>
<path d="M939.672 61.9013H959.045L956.761 57.668H941.932L939.672 61.9013Z" fill="#008C95"/>
<path d="M956.342 56.1844H942.351C941.513 56.1844 940.844 55.5147 940.844 54.6776V54.3427C940.844 53.5175 941.513 52.8359 942.351 52.8359H956.342C957.179 52.8359 957.849 53.5056 957.849 54.3427V54.6776C957.849 55.5027 957.167 56.1844 956.342 56.1844Z" fill="#008C95"/>
<path d="M950.016 71.8252H956.952V69.4693C956.952 68.8116 957.431 68.2734 958.017 68.2734H964.343C964.929 68.2734 965.407 68.8116 965.407 69.4693V71.7654H965.682C966.771 71.7654 967.655 72.6504 967.655 73.7386V91.2343C967.655 92.5976 966.555 93.7098 965.192 93.7098L950.518 93.7576C949.155 93.7576 948.043 92.6573 948.043 91.2821V73.7864C948.031 72.7101 948.916 71.8252 950.016 71.8252ZM963.207 69.9238H959.105V71.7654H963.207V69.9238Z" fill="#77E2C3"/>
<path d="M955.3 68.0352H950.062V70.6183H955.3V68.0352Z" fill="#008C95"/>
<path d="M954.752 88.3044C957.132 88.3044 959.057 86.379 959.057 83.9992L959.045 68.2734H958.005C957.419 68.2734 956.952 68.8116 956.952 69.4693V71.8252H950.016C948.928 71.8252 948.043 72.7101 948.043 73.7984V88.2924H954.752V88.3044Z" fill="#008C95"/>
<path d="M738.402 73.2987C738.402 89.156 725.558 102 709.701 102C693.844 102 681 89.156 681 73.2987C681 57.4414 693.844 44.5977 709.701 44.5977C725.558 44.5977 738.402 57.4533 738.402 73.2987Z" fill="white"/>
<path d="M719.33 72.7727H699.012L696.273 60.1562H722.068L719.33 72.7727Z" fill="#77E2C3"/>
<path d="M724.205 58.123H693.961V62.1891H724.205V58.123Z" fill="#008C95"/>
<path d="M721.768 88.4861H697.815L694.586 73.6094H725.009L721.768 88.4861Z" fill="#77E2C3"/>
<path d="M727.532 71.5762H691.859V75.6422H727.532V71.5762Z" fill="#008C95"/>
<path d="M982.363 154.605C982.363 170.463 969.519 183.306 953.662 183.306C937.805 183.306 924.961 170.463 924.961 154.605C924.961 138.748 937.805 125.904 953.662 125.904C969.519 125.904 982.363 138.748 982.363 154.605Z" fill="white"/>
<path d="M942.219 144.332H965.096L962.357 138.209H944.945L942.219 144.332Z" fill="#77E2C3"/>
<path d="M965.153 146.891H942.156C942.156 146.891 942.132 163.43 942.144 163.753H965.165L965.153 146.891Z" fill="#77E2C3"/>
<path d="M945.687 174.408H961.628C963.29 174.408 964.689 172.83 964.821 170.773L965.12 166.336H942.207C942.207 166.372 942.351 168.632 942.482 170.761C942.626 172.818 944.013 174.408 945.687 174.408Z" fill="#77E2C3"/>
<path d="M962.352 138.209H944.94C944.008 138.209 943.242 137.443 943.242 136.511C943.242 135.566 944.008 134.812 944.94 134.812H962.352C963.285 134.812 964.05 135.578 964.05 136.511C964.05 137.443 963.285 138.209 962.352 138.209Z" fill="#008C95"/>
<path d="M1145 73.2987C1145 89.156 1132.16 102 1116.3 102C1100.44 102 1087.6 89.156 1087.6 73.2987C1087.6 57.4414 1100.44 44.5977 1116.3 44.5977C1132.16 44.5977 1145 57.4533 1145 73.2987Z" fill="white"/>
<path d="M1116.3 85.9844H1114.93V87.3597H1117.66V85.9844H1116.3Z" fill="white"/>
<path d="M1132.01 90.6606H1128.34V87.7785H1104.26V90.6606H1100.59V84.1191H1132.01V90.6606Z" fill="#008C95"/>
<path d="M1118.13 85.9492H1114.46V90.661H1118.13V85.9492Z" fill="#008C95"/>
<path d="M1114.93 58.6836H1103.33V70.2836H1114.93V58.6836Z" fill="#77E2C3"/>
<path d="M1129.26 58.6836H1117.66V70.2836H1129.26V58.6836Z" fill="#008C95"/>
<path d="M1114.93 73.0234H1103.33V84.1211H1114.93V73.0234Z" fill="#008C95"/>
<path d="M1129.26 73.0234H1117.66V84.1211H1129.26V73.0234Z" fill="#77E2C3"/>
<path d="M1145 154.605C1145 170.463 1132.16 183.306 1116.3 183.306C1100.44 183.306 1087.6 170.463 1087.6 154.605C1087.6 138.748 1100.44 125.904 1116.3 125.904C1132.16 125.904 1145 138.748 1145 154.605Z" fill="white"/>
<path d="M1131.59 160.574L1135.28 162.739L1116.3 173.848L1097.31 162.739L1100.96 160.61V161.734L1116.3 170.667L1131.59 161.734V160.574Z" fill="#008C95"/>
<path d="M1125.27 156.316V148.914L1131.58 145.219V152.633L1125.27 156.316Z" fill="#008C95"/>
<path d="M1123.49 157.356L1117.17 161.039V153.637L1123.49 149.941V157.356Z" fill="#008C95"/>
<path d="M1125.27 158.373L1131.58 154.689V161.733L1125.27 165.428V158.373Z" fill="#008C95"/>
<path d="M1123.49 159.414V166.47L1117.17 170.153V163.097L1123.49 159.414Z" fill="#008C95"/>
<path d="M1125.27 156.316V148.914L1131.58 145.219V152.633L1125.27 156.316Z" fill="#77E2C3"/>
<path d="M1123.49 157.356L1117.17 161.039V153.637L1123.49 149.941V157.356Z" fill="#77E2C3"/>
<path d="M1125.27 158.373L1131.58 154.689V161.733L1125.27 165.428V158.373Z" fill="#77E2C3"/>
<path d="M1123.49 159.414V166.47L1117.17 170.153V163.097L1123.49 159.414Z" fill="#77E2C3"/>
<path d="M1107.28 156.316V148.914L1100.96 145.219V152.633L1107.28 156.316Z" fill="#008C95"/>
<path d="M1109.05 157.356L1115.37 161.039V153.637L1109.05 149.941V157.356Z" fill="#008C95"/>
<path d="M1109.05 159.414V166.47L1115.37 170.153V163.097L1109.05 159.414Z" fill="#008C95"/>
<path d="M1114.48 143.628L1108.25 147.204L1101.9 143.545L1108.13 139.957L1114.48 143.628Z" fill="#77E2C3"/>
<path d="M1116.24 142.61L1109.88 138.951L1116.11 135.363L1122.46 139.035L1116.24 142.61Z" fill="#77E2C3"/>
<path d="M1117.98 143.627L1124.21 140.039L1130.56 143.71L1124.33 147.286L1117.98 143.627Z" fill="#77E2C3"/>
<path d="M1116.23 144.633L1122.59 148.304L1116.36 151.88L1110.01 148.22L1116.23 144.633Z" fill="#77E2C3"/>
<path d="M1107.28 158.373L1100.96 154.689V161.733L1107.28 165.428V158.373Z" fill="#008C95"/>
<path d="M1145 317.353C1145 333.211 1132.16 346.054 1116.3 346.054C1100.44 346.054 1087.6 333.211 1087.6 317.353C1087.6 301.508 1100.44 288.652 1116.3 288.652C1132.16 288.652 1145 301.496 1145 317.353Z" fill="white"/>
<path d="M1129.63 317.496L1135.28 320.809L1116.3 331.918L1097.31 320.809L1102.98 317.496V320.546L1116.3 328.259L1129.63 320.546V317.496Z" fill="#77E2C3"/>
<path d="M1097.31 320.807V322.23V323.725V326.176L1101.12 328.4V325.949L1104.91 328.173V330.625L1108.71 332.849V330.398L1112.5 332.61V335.062L1116.3 337.286V334.834V333.328V331.916L1097.31 320.807Z" fill="#008C95"/>
<path d="M1135.28 320.807V322.23V323.725V326.176L1131.48 328.4V325.949L1127.68 328.173V330.625L1123.89 332.849V330.398L1120.09 332.61V335.062L1116.3 337.286V334.834V333.328V331.916L1135.28 320.807Z" fill="#008C95"/>
<path d="M1128.71 304.593L1116.3 297.406L1103.9 304.593L1116.3 311.769L1128.71 304.593Z" fill="#77E2C3"/>
<path d="M1116.3 313.897V328.259L1129.62 320.546V306.195L1116.3 313.897Z" fill="#008C95"/>
<path d="M1102.98 306.184V320.546L1116.3 328.259V313.897L1102.98 306.184Z" fill="#008C95"/>
<path d="M687.726 16.2329L680.87 5.80469H683.85L688.952 14.1235H692.564L692.155 16.2329H687.726ZM689.097 16.0352L683.52 25H680.356L687.488 13.8467L689.097 16.0352ZM693.658 5.80469V25H691.14V5.80469H693.658ZM703.836 5.80469L696.954 16.2329H692.656L692.261 14.1235H695.741L700.843 5.80469H703.836ZM701.173 25L695.609 16.0352L697.231 13.8467L704.337 25H701.173ZM711.957 25.2637C710.964 25.2637 710.063 25.0967 709.254 24.7627C708.455 24.4199 707.765 23.9409 707.185 23.3257C706.613 22.7104 706.174 21.981 705.866 21.1372C705.559 20.2935 705.405 19.3706 705.405 18.3687V17.8149C705.405 16.6548 705.576 15.6221 705.919 14.7168C706.262 13.8027 706.728 13.0293 707.316 12.3965C707.905 11.7637 708.573 11.2847 709.32 10.9595C710.067 10.6343 710.841 10.4717 711.641 10.4717C712.66 10.4717 713.539 10.6475 714.277 10.999C715.024 11.3506 715.635 11.8428 716.11 12.4756C716.584 13.0996 716.936 13.8379 717.165 14.6904C717.393 15.5342 717.507 16.457 717.507 17.459V18.5532H706.855V16.5625H715.068V16.3779C715.033 15.7451 714.901 15.1299 714.673 14.5322C714.453 13.9346 714.102 13.4424 713.618 13.0557C713.135 12.6689 712.476 12.4756 711.641 12.4756C711.087 12.4756 710.577 12.5942 710.111 12.8315C709.646 13.0601 709.246 13.4028 708.912 13.8599C708.578 14.3169 708.318 14.875 708.134 15.5342C707.949 16.1934 707.857 16.9536 707.857 17.8149V18.3687C707.857 19.0454 707.949 19.6826 708.134 20.2803C708.327 20.8691 708.604 21.3877 708.964 21.8359C709.333 22.2842 709.777 22.6357 710.296 22.8906C710.823 23.1455 711.421 23.2729 712.089 23.2729C712.95 23.2729 713.68 23.0972 714.277 22.7456C714.875 22.394 715.398 21.9238 715.846 21.335L717.323 22.5083C717.015 22.9741 716.624 23.418 716.149 23.8398C715.675 24.2617 715.09 24.6045 714.396 24.8682C713.71 25.1318 712.897 25.2637 711.957 25.2637ZM726.063 23.2598C726.644 23.2598 727.18 23.1411 727.672 22.9038C728.164 22.6665 728.568 22.3413 728.885 21.9282C729.201 21.5063 729.381 21.0273 729.425 20.4912H731.746C731.702 21.335 731.416 22.1216 730.889 22.8511C730.37 23.5718 729.689 24.1562 728.845 24.6045C728.001 25.0439 727.074 25.2637 726.063 25.2637C724.991 25.2637 724.055 25.0747 723.255 24.6968C722.464 24.3188 721.805 23.8003 721.278 23.1411C720.759 22.4819 720.368 21.7261 720.104 20.8735C719.85 20.0122 719.722 19.1025 719.722 18.1445V17.5908C719.722 16.6328 719.85 15.7275 720.104 14.875C720.368 14.0137 720.759 13.2534 721.278 12.5942C721.805 11.9351 722.464 11.4165 723.255 11.0386C724.055 10.6606 724.991 10.4717 726.063 10.4717C727.18 10.4717 728.155 10.7002 728.99 11.1572C729.825 11.6055 730.48 12.2207 730.955 13.0029C731.438 13.7764 731.702 14.6553 731.746 15.6396H729.425C729.381 15.0508 729.214 14.519 728.924 14.0444C728.643 13.5698 728.256 13.1919 727.764 12.9106C727.281 12.6206 726.714 12.4756 726.063 12.4756C725.316 12.4756 724.688 12.625 724.178 12.9238C723.677 13.2139 723.277 13.6094 722.979 14.1104C722.688 14.6025 722.478 15.1519 722.346 15.7583C722.223 16.356 722.161 16.9668 722.161 17.5908V18.1445C722.161 18.7686 722.223 19.3838 722.346 19.9902C722.469 20.5967 722.675 21.146 722.965 21.6382C723.264 22.1304 723.664 22.5259 724.165 22.8247C724.675 23.1147 725.308 23.2598 726.063 23.2598ZM740.302 10.7354V25H737.85V10.7354H740.302ZM745.087 10.7354V12.7129H733.156V10.7354H745.087ZM750.137 10.7354V25H747.698V10.7354H750.137ZM759.497 10.7354L752.734 18.9092H749.319L748.95 16.7734H751.745L756.531 10.7354H759.497ZM756.874 25L751.626 18.54L753.195 16.7734L759.972 25H756.874ZM770.505 22.561V15.2178C770.505 14.6553 770.391 14.1675 770.163 13.7544C769.943 13.3325 769.609 13.0073 769.161 12.7788C768.712 12.5503 768.159 12.436 767.5 12.436C766.884 12.436 766.344 12.5415 765.878 12.7524C765.421 12.9634 765.061 13.2402 764.797 13.583C764.542 13.9258 764.415 14.2949 764.415 14.6904H761.976C761.976 14.1807 762.107 13.6753 762.371 13.1743C762.635 12.6733 763.013 12.2207 763.505 11.8164C764.006 11.4033 764.604 11.0781 765.298 10.8408C766.001 10.5947 766.783 10.4717 767.645 10.4717C768.682 10.4717 769.596 10.6475 770.387 10.999C771.187 11.3506 771.811 11.8823 772.259 12.5942C772.716 13.2974 772.944 14.1807 772.944 15.2441V21.8887C772.944 22.3633 772.984 22.8687 773.063 23.4048C773.151 23.9409 773.278 24.4023 773.445 24.7891V25H770.901C770.778 24.7188 770.681 24.3452 770.611 23.8794C770.541 23.4048 770.505 22.9653 770.505 22.561ZM770.927 16.3516L770.954 18.0654H768.488C767.794 18.0654 767.174 18.1226 766.629 18.2368C766.084 18.3423 765.627 18.5049 765.258 18.7246C764.889 18.9443 764.608 19.2212 764.415 19.5552C764.221 19.8804 764.125 20.2627 764.125 20.7021C764.125 21.1504 764.226 21.5591 764.428 21.9282C764.63 22.2974 764.933 22.5918 765.337 22.8115C765.75 23.0225 766.256 23.1279 766.854 23.1279C767.601 23.1279 768.26 22.9697 768.831 22.6533C769.402 22.3369 769.855 21.9502 770.189 21.4932C770.532 21.0361 770.716 20.5923 770.743 20.1616L771.784 21.335C771.723 21.7041 771.556 22.1128 771.283 22.561C771.011 23.0093 770.646 23.4399 770.189 23.853C769.741 24.2573 769.205 24.5957 768.581 24.8682C767.965 25.1318 767.271 25.2637 766.498 25.2637C765.531 25.2637 764.683 25.0747 763.953 24.6968C763.232 24.3188 762.67 23.8135 762.266 23.1807C761.87 22.5391 761.672 21.8228 761.672 21.0317C761.672 20.2671 761.822 19.5947 762.121 19.0146C762.419 18.4258 762.85 17.938 763.413 17.5513C763.975 17.1558 764.652 16.8569 765.443 16.6548C766.234 16.4526 767.117 16.3516 768.093 16.3516H770.927ZM779.668 18.1973H782.305L778.178 25H775.542L779.668 18.1973ZM781.711 10.7354H787.67V25H785.231V12.7129H781.711C781.017 12.7129 780.45 12.8315 780.011 13.0688C779.571 13.2974 779.25 13.5962 779.048 13.9653C778.846 14.3345 778.745 14.7168 778.745 15.1123C778.745 15.499 778.837 15.8726 779.022 16.2329C779.207 16.5845 779.497 16.8745 779.892 17.103C780.288 17.3315 780.797 17.4458 781.421 17.4458H785.891V19.4497H781.421C780.604 19.4497 779.879 19.3398 779.246 19.1201C778.613 18.9004 778.077 18.5972 777.638 18.2104C777.198 17.8149 776.864 17.3535 776.636 16.8262C776.407 16.29 776.293 15.71 776.293 15.0859C776.293 14.4619 776.412 13.8862 776.649 13.3589C776.895 12.8315 777.247 12.3701 777.704 11.9746C778.169 11.5791 778.736 11.2759 779.404 11.0649C780.081 10.8452 780.85 10.7354 781.711 10.7354ZM802.304 23.5234L806.272 10.7354H808.883L803.161 27.2017C803.029 27.5532 802.854 27.9312 802.634 28.3354C802.423 28.7485 802.15 29.1396 801.816 29.5088C801.482 29.8779 801.078 30.1768 800.604 30.4053C800.138 30.6426 799.58 30.7612 798.929 30.7612C798.736 30.7612 798.49 30.7349 798.191 30.6821C797.892 30.6294 797.681 30.5854 797.558 30.5503L797.545 28.5728C797.615 28.5815 797.725 28.5903 797.875 28.5991C798.033 28.6167 798.143 28.6255 798.204 28.6255C798.758 28.6255 799.228 28.5508 799.615 28.4014C800.001 28.2607 800.327 28.019 800.59 27.6763C800.863 27.3423 801.096 26.8809 801.289 26.292L802.304 23.5234ZM799.391 10.7354L803.095 21.8096L803.728 24.3804L801.975 25.2769L796.728 10.7354H799.391ZM820.59 10.7354V12.7524H813.378V10.7354H820.59ZM813.734 10.7354V25H811.295V10.7354H813.734ZM822.752 10.7354V25H820.3V10.7354H822.752ZM835.079 22.561V15.2178C835.079 14.6553 834.964 14.1675 834.736 13.7544C834.516 13.3325 834.182 13.0073 833.734 12.7788C833.286 12.5503 832.732 12.436 832.073 12.436C831.458 12.436 830.917 12.5415 830.451 12.7524C829.994 12.9634 829.634 13.2402 829.37 13.583C829.115 13.9258 828.988 14.2949 828.988 14.6904H826.549C826.549 14.1807 826.681 13.6753 826.944 13.1743C827.208 12.6733 827.586 12.2207 828.078 11.8164C828.579 11.4033 829.177 11.0781 829.871 10.8408C830.574 10.5947 831.356 10.4717 832.218 10.4717C833.255 10.4717 834.169 10.6475 834.96 10.999C835.76 11.3506 836.384 11.8823 836.832 12.5942C837.289 13.2974 837.518 14.1807 837.518 15.2441V21.8887C837.518 22.3633 837.557 22.8687 837.636 23.4048C837.724 23.9409 837.852 24.4023 838.019 24.7891V25H835.474C835.351 24.7188 835.254 24.3452 835.184 23.8794C835.114 23.4048 835.079 22.9653 835.079 22.561ZM835.5 16.3516L835.527 18.0654H833.062C832.367 18.0654 831.748 18.1226 831.203 18.2368C830.658 18.3423 830.201 18.5049 829.832 18.7246C829.462 18.9443 829.181 19.2212 828.988 19.5552C828.794 19.8804 828.698 20.2627 828.698 20.7021C828.698 21.1504 828.799 21.5591 829.001 21.9282C829.203 22.2974 829.506 22.5918 829.911 22.8115C830.324 23.0225 830.829 23.1279 831.427 23.1279C832.174 23.1279 832.833 22.9697 833.404 22.6533C833.976 22.3369 834.428 21.9502 834.762 21.4932C835.105 21.0361 835.29 20.5923 835.316 20.1616L836.357 21.335C836.296 21.7041 836.129 22.1128 835.856 22.561C835.584 23.0093 835.219 23.4399 834.762 23.853C834.314 24.2573 833.778 24.5957 833.154 24.8682C832.539 25.1318 831.844 25.2637 831.071 25.2637C830.104 25.2637 829.256 25.0747 828.526 24.6968C827.806 24.3188 827.243 23.8135 826.839 23.1807C826.443 22.5391 826.246 21.8228 826.246 21.0317C826.246 20.2671 826.395 19.5947 826.694 19.0146C826.993 18.4258 827.423 17.938 827.986 17.5513C828.548 17.1558 829.225 16.8569 830.016 16.6548C830.807 16.4526 831.69 16.3516 832.666 16.3516H835.5ZM844.004 10.7354V25H841.565V10.7354H844.004ZM853.364 10.7354L846.601 18.9092H843.187L842.817 16.7734H845.612L850.398 10.7354H853.364ZM850.741 25L845.494 18.54L847.062 16.7734L853.839 25H850.741ZM855.025 18.0259V17.7227C855.025 16.6943 855.175 15.7407 855.474 14.8618C855.772 13.9741 856.203 13.2051 856.766 12.5547C857.328 11.8955 858.009 11.3857 858.809 11.0254C859.609 10.6562 860.505 10.4717 861.499 10.4717C862.5 10.4717 863.401 10.6562 864.201 11.0254C865.01 11.3857 865.695 11.8955 866.258 12.5547C866.829 13.2051 867.264 13.9741 867.563 14.8618C867.862 15.7407 868.011 16.6943 868.011 17.7227V18.0259C868.011 19.0542 867.862 20.0078 867.563 20.8867C867.264 21.7656 866.829 22.5347 866.258 23.1938C865.695 23.8442 865.014 24.354 864.214 24.7231C863.423 25.0835 862.527 25.2637 861.525 25.2637C860.523 25.2637 859.622 25.0835 858.822 24.7231C858.022 24.354 857.337 23.8442 856.766 23.1938C856.203 22.5347 855.772 21.7656 855.474 20.8867C855.175 20.0078 855.025 19.0542 855.025 18.0259ZM857.464 17.7227V18.0259C857.464 18.7378 857.548 19.4102 857.715 20.043C857.882 20.667 858.132 21.2207 858.466 21.7041C858.809 22.1875 859.235 22.5698 859.745 22.8511C860.255 23.1235 860.848 23.2598 861.525 23.2598C862.193 23.2598 862.777 23.1235 863.278 22.8511C863.788 22.5698 864.21 22.1875 864.544 21.7041C864.878 21.2207 865.128 20.667 865.295 20.043C865.471 19.4102 865.559 18.7378 865.559 18.0259V17.7227C865.559 17.0195 865.471 16.356 865.295 15.7319C865.128 15.0991 864.874 14.541 864.531 14.0576C864.197 13.5654 863.775 13.1787 863.265 12.8975C862.764 12.6162 862.175 12.4756 861.499 12.4756C860.831 12.4756 860.242 12.6162 859.732 12.8975C859.231 13.1787 858.809 13.5654 858.466 14.0576C858.132 14.541 857.882 15.0991 857.715 15.7319C857.548 16.356 857.464 17.0195 857.464 17.7227ZM877.767 18.7246H873.087L873.061 16.7734H876.884C877.64 16.7734 878.268 16.6987 878.769 16.5493C879.279 16.3999 879.661 16.1758 879.916 15.877C880.171 15.5781 880.298 15.209 880.298 14.7695C880.298 14.4268 880.224 14.1279 880.074 13.873C879.934 13.6094 879.718 13.394 879.428 13.2271C879.138 13.0513 878.778 12.9238 878.347 12.8447C877.925 12.7568 877.429 12.7129 876.857 12.7129H873.733V25H871.294V10.7354H876.857C877.763 10.7354 878.576 10.8145 879.296 10.9727C880.026 11.1309 880.646 11.3726 881.155 11.6978C881.674 12.0142 882.069 12.4185 882.342 12.9106C882.614 13.4028 882.75 13.9829 882.75 14.6509C882.75 15.0815 882.663 15.4902 882.487 15.877C882.311 16.2637 882.052 16.6064 881.709 16.9053C881.366 17.2041 880.944 17.4502 880.443 17.6436C879.942 17.8281 879.367 17.9468 878.716 17.9995L877.767 18.7246ZM877.767 25H872.204L873.417 23.0225H877.767C878.444 23.0225 879.006 22.939 879.455 22.772C879.903 22.5962 880.237 22.3501 880.457 22.0337C880.685 21.7085 880.799 21.3218 880.799 20.8735C880.799 20.4253 880.685 20.043 880.457 19.7266C880.237 19.4014 879.903 19.1553 879.455 18.9883C879.006 18.8125 878.444 18.7246 877.767 18.7246H874.062L874.089 16.7734H878.716L879.6 17.5117C880.382 17.5732 881.045 17.7666 881.59 18.0918C882.135 18.417 882.548 18.8301 882.83 19.3311C883.111 19.8232 883.251 20.3594 883.251 20.9395C883.251 21.6074 883.124 22.1963 882.869 22.7061C882.623 23.2158 882.263 23.6421 881.788 23.9849C881.313 24.3188 880.738 24.5737 880.061 24.7495C879.384 24.9165 878.62 25 877.767 25ZM889.171 10.7354V25H886.732V10.7354H889.171ZM898.531 10.7354L891.768 18.9092H888.354L887.984 16.7734H890.779L895.565 10.7354H898.531ZM895.908 25L890.661 18.54L892.229 16.7734L899.006 25H895.908ZM909.54 22.561V15.2178C909.54 14.6553 909.425 14.1675 909.197 13.7544C908.977 13.3325 908.643 13.0073 908.195 12.7788C907.747 12.5503 907.193 12.436 906.534 12.436C905.918 12.436 905.378 12.5415 904.912 12.7524C904.455 12.9634 904.095 13.2402 903.831 13.583C903.576 13.9258 903.449 14.2949 903.449 14.6904H901.01C901.01 14.1807 901.142 13.6753 901.405 13.1743C901.669 12.6733 902.047 12.2207 902.539 11.8164C903.04 11.4033 903.638 11.0781 904.332 10.8408C905.035 10.5947 905.817 10.4717 906.679 10.4717C907.716 10.4717 908.63 10.6475 909.421 10.999C910.221 11.3506 910.845 11.8823 911.293 12.5942C911.75 13.2974 911.979 14.1807 911.979 15.2441V21.8887C911.979 22.3633 912.018 22.8687 912.097 23.4048C912.185 23.9409 912.312 24.4023 912.479 24.7891V25H909.935C909.812 24.7188 909.715 24.3452 909.645 23.8794C909.575 23.4048 909.54 22.9653 909.54 22.561ZM909.961 16.3516L909.988 18.0654H907.522C906.828 18.0654 906.208 18.1226 905.664 18.2368C905.119 18.3423 904.662 18.5049 904.292 18.7246C903.923 18.9443 903.642 19.2212 903.449 19.5552C903.255 19.8804 903.159 20.2627 903.159 20.7021C903.159 21.1504 903.26 21.5591 903.462 21.9282C903.664 22.2974 903.967 22.5918 904.372 22.8115C904.785 23.0225 905.29 23.1279 905.888 23.1279C906.635 23.1279 907.294 22.9697 907.865 22.6533C908.437 22.3369 908.889 21.9502 909.223 21.4932C909.566 21.0361 909.75 20.5923 909.777 20.1616L910.818 21.335C910.757 21.7041 910.59 22.1128 910.317 22.561C910.045 23.0093 909.68 23.4399 909.223 23.853C908.775 24.2573 908.239 24.5957 907.615 24.8682C907 25.1318 906.305 25.2637 905.532 25.2637C904.565 25.2637 903.717 25.0747 902.987 24.6968C902.267 24.3188 901.704 23.8135 901.3 23.1807C900.904 22.5391 900.707 21.8228 900.707 21.0317C900.707 20.2671 900.856 19.5947 901.155 19.0146C901.454 18.4258 901.884 17.938 902.447 17.5513C903.009 17.1558 903.686 16.8569 904.477 16.6548C905.268 16.4526 906.151 16.3516 907.127 16.3516H909.961Z" fill="#008C95"/>
<path d="M1420.01 72.7069C1420.01 88.5642 1407.16 101.408 1391.31 101.408C1375.45 101.408 1362.61 88.5642 1362.61 72.7069C1362.61 56.8496 1375.45 44.0059 1391.31 44.0059C1407.16 44.0059 1420.01 56.8496 1420.01 72.7069Z" fill="white"/>
<path d="M1401.51 52.7598H1372.69V85.4551H1401.51V52.7598Z" fill="#77E2C3"/>
<path d="M1380.22 65.172H1376.87C1375.96 65.172 1375.23 64.4425 1375.23 63.5337V60.1852C1375.23 59.2764 1375.96 58.5469 1376.87 58.5469H1380.22C1381.13 58.5469 1381.86 59.2883 1381.86 60.1852V63.5337C1381.86 64.4425 1381.13 65.172 1380.22 65.172Z" fill="white"/>
<path d="M1388.73 65.172H1385.38C1384.47 65.172 1383.74 64.4425 1383.74 63.5337V60.1852C1383.74 59.2764 1384.47 58.5469 1385.38 58.5469H1388.73C1389.63 58.5469 1390.36 59.2883 1390.36 60.1852V63.5337C1390.36 64.4425 1389.63 65.172 1388.73 65.172Z" fill="white"/>
<path d="M1397.23 65.172H1393.88C1392.97 65.172 1392.24 64.4425 1392.24 63.5337V60.1852C1392.24 59.2764 1392.97 58.5469 1393.88 58.5469H1397.23C1398.14 58.5469 1398.87 59.2883 1398.87 60.1852V63.5337C1398.88 64.4425 1398.14 65.172 1397.23 65.172Z" fill="white"/>
<path d="M1380.22 73.5549H1376.87C1375.96 73.5549 1375.23 72.8254 1375.23 71.9165V68.568C1375.23 67.6592 1375.96 66.9297 1376.87 66.9297H1380.22C1381.13 66.9297 1381.86 67.6592 1381.86 68.568V71.9165C1381.86 72.8135 1381.13 73.5549 1380.22 73.5549Z" fill="white"/>
<path d="M1388.73 73.5549H1385.38C1384.47 73.5549 1383.74 72.8254 1383.74 71.9165V68.568C1383.74 67.6592 1384.47 66.9297 1385.38 66.9297H1388.73C1389.63 66.9297 1390.36 67.6592 1390.36 68.568V71.9165C1390.36 72.8135 1389.63 73.5549 1388.73 73.5549Z" fill="white"/>
<path d="M1397.23 73.5549H1393.88C1392.97 73.5549 1392.24 72.8254 1392.24 71.9165V68.568C1392.24 67.6592 1392.97 66.9297 1393.88 66.9297H1397.23C1398.14 66.9297 1398.87 67.6592 1398.87 68.568V71.9165C1398.88 72.8135 1398.14 73.5549 1397.23 73.5549Z" fill="white"/>
<path d="M1380.22 81.9377H1376.87C1375.96 81.9377 1375.23 81.2082 1375.23 80.2994V76.9508C1375.23 76.042 1375.96 75.3125 1376.87 75.3125H1380.22C1381.13 75.3125 1381.86 76.042 1381.86 76.9508V80.2994C1381.86 81.1963 1381.13 81.9377 1380.22 81.9377Z" fill="white"/>
<path d="M1388.73 81.9377H1385.38C1384.47 81.9377 1383.74 81.2082 1383.74 80.2994V76.9508C1383.74 76.042 1384.47 75.3125 1385.38 75.3125H1388.73C1389.63 75.3125 1390.36 76.042 1390.36 76.9508V80.2994C1390.36 81.1963 1389.63 81.9377 1388.73 81.9377Z" fill="white"/>
<path d="M1379.48 64.5996H1377.61V67.8045H1379.48V64.5996Z" fill="white"/>
<path d="M1384.46 60.916H1381.25V62.7936H1384.46V60.916Z" fill="white"/>
<path d="M1384.25 69.1426H1381.05V71.0201H1384.25V69.1426Z" fill="white"/>
<path d="M1384.25 77.6934H1381.05V79.5709H1384.25V77.6934Z" fill="white"/>
<path d="M1393.1 60.916H1389.9V62.7936H1393.1V60.916Z" fill="white"/>
<path d="M1392.9 69.1426H1389.7V71.0201H1392.9V69.1426Z" fill="white"/>
<path d="M1388 64.5996H1386.12V67.8045H1388V64.5996Z" fill="white"/>
<path d="M1383.54 52.7598V54.8885C1383.54 55.7615 1384.24 56.467 1385.12 56.467H1386.21V63.7738H1387.89V56.467H1388.88C1389.76 56.467 1390.46 55.7615 1390.46 54.8885V52.7598H1383.54Z" fill="white"/>
<path d="M1396.5 64.5996H1394.62V67.8045H1396.5V64.5996Z" fill="white"/>
<path d="M1379.48 72.875H1377.61V76.0799H1379.48V72.875Z" fill="white"/>
<path d="M1388 72.875H1386.12V76.0799H1388V72.875Z" fill="white"/>
<path d="M1408.95 85.8261L1406.63 87.3568L1403.31 85.4554L1406.63 83.542L1408.95 85.0727L1409.93 83.5898L1408.37 82.5255L1409.72 81.7481L1408.82 80.1815L1407.46 80.9828L1407.35 79.0933L1405.55 79.1889L1405.72 81.9754L1402.42 83.9007V80.074L1404.91 78.8302L1404.1 77.2038L1402.42 78.0529V76.4863H1400.63V78.0529L1398.92 77.2038L1398.12 78.8302L1400.63 80.074V83.9007L1397.3 81.9754L1397.47 79.1889L1395.68 79.0933L1395.56 80.9828L1394.21 80.1815L1393.3 81.7481L1394.66 82.5255L1393.09 83.5898L1394.07 85.0727L1396.39 83.542L1399.72 85.4554L1396.39 87.3568L1394.07 85.8261L1393.09 87.321L1394.66 88.3852L1393.3 89.1506L1394.21 90.7172L1395.56 89.928L1395.68 91.8174L1397.47 91.7218L1397.3 88.9234L1400.63 86.9981V90.8368L1398.12 92.0805L1398.92 93.7069L1400.63 92.8579V94.4245H1402.42V92.8579L1404.1 93.7069L1404.91 92.0805L1402.42 90.8368V86.9981L1405.72 88.9234L1405.55 91.7218L1407.35 91.8174L1407.46 89.928L1408.82 90.7172L1409.72 89.1506L1408.37 88.3852L1409.93 87.321L1408.95 85.8261Z" fill="#77E2C3"/>
<path d="M1400.63 76.4863V78.0529L1398.92 77.2038L1398.12 78.8302L1400.63 80.074V83.9007L1397.3 81.9754L1397.47 79.1889L1395.68 79.0933L1395.56 80.9828L1394.21 80.1815L1393.3 81.7481L1394.66 82.5255L1393.09 83.5898L1394.07 85.0727L1396.39 83.542L1399.72 85.4554H1401.51V76.4863H1400.63Z" fill="#008C95"/>
<path d="M1663.36 72.7069C1663.36 88.5642 1650.52 101.408 1634.66 101.408C1618.8 101.408 1605.96 88.5642 1605.96 72.7069C1605.96 56.8496 1618.8 44.0059 1634.66 44.0059C1650.52 44.0059 1663.36 56.8496 1663.36 72.7069Z" fill="white"/>
<path d="M1635.61 90.489H1624.74C1623.9 89.6638 1623.45 89.1975 1622.61 88.3604V64.7657L1632.43 56.5859C1635.36 56.5859 1637.74 59.5517 1637.74 62.4816V88.3604C1636.9 89.1975 1636.43 89.6638 1635.61 90.489Z" fill="#77E2C3"/>
<path d="M1624.97 50.4273L1621.75 53.0977L1624.48 56.3942L1627.7 53.7238L1624.97 50.4273Z" fill="#77E2C3"/>
<path d="M1647.11 74.6921C1643.61 74.6921 1640.75 71.834 1640.75 68.3301H1642.63C1642.63 70.8055 1644.64 72.8146 1647.11 72.8146V74.6921Z" fill="#008C95"/>
<path d="M1631.9 71.0312V75.8028L1632.04 93.131C1632.75 93.8366 1633.14 94.2312 1633.85 94.9248H1648.13L1649.93 93.1191V85.6329L1637.72 75.8028V71.0312H1631.9Z" fill="#77E2C3"/>
<path d="M1641.33 71.0473H1630.75V68.5958C1632.01 67.3401 1632.71 66.6346 1633.97 65.3789H1646.55V69.0263H1643.35C1642.23 69.0263 1641.33 69.9352 1641.33 71.0473Z" fill="#77E2C3"/>
<path d="M1647.22 65.3789H1643.57V69.0263H1647.22V65.3789Z" fill="#008C95"/>
<path d="M1637.71 75.807V71.0473H1637.73V65.3789H1633.96C1632.7 66.6346 1632 67.3401 1630.74 68.5958V71.0473H1631.9V75.807L1632.02 90.5043H1635.61C1636.43 89.6791 1636.9 89.2128 1637.74 88.3757V75.819L1637.71 75.807Z" fill="#008C95"/>
<path d="M1637.71 71.0312H1631.9V75.8028H1637.71V71.0312Z" fill="#008C95"/>
<path d="M1628.01 51.8307L1622.53 56.3711L1625.26 59.6677L1630.74 55.1273L1628.01 51.8307Z" fill="#008C95"/>
<path d="M1500.72 72.7069C1500.72 88.5642 1487.87 101.408 1472.02 101.408C1456.16 101.408 1443.32 88.5642 1443.32 72.7069C1443.32 56.8496 1456.16 44.0059 1472.02 44.0059C1487.87 44.0059 1500.72 56.8496 1500.72 72.7069Z" fill="white"/>
<path d="M1484.11 91.4827L1486.48 89.5215H1481.75L1484.11 91.4827Z" fill="#77E2C3"/>
<path d="M1479.38 91.4827L1481.74 89.5215H1477L1479.38 91.4827Z" fill="#77E2C3"/>
<path d="M1474.63 91.4827L1476.99 89.5215H1472.26L1474.63 91.4827Z" fill="#77E2C3"/>
<path d="M1469.9 91.4827L1472.26 89.5215H1467.52L1469.9 91.4827Z" fill="#77E2C3"/>
<path d="M1486.48 89.522V64.7793L1475.82 73.6646L1467.52 68.7736V89.522H1486.48Z" fill="#77E2C3"/>
<path d="M1475.81 53.9336H1468.24C1462.35 53.9336 1457.56 58.7889 1457.56 64.7802C1457.56 70.7715 1462.35 75.6268 1468.24 75.6268H1475.81L1467.24 64.7802L1475.81 53.9336Z" fill="#008C95"/>
<path d="M1475.81 53.9336C1475.8 53.9336 1475.8 53.9336 1475.81 53.9336V59.0041C1478.96 59.0041 1481.49 61.5872 1481.49 64.7802C1481.49 67.9732 1478.95 70.5563 1475.81 70.5563V75.6268C1481.71 75.6268 1486.49 70.7715 1486.49 64.7802C1486.48 58.7889 1481.71 53.9336 1475.81 53.9336Z" fill="#77E2C3"/>
<path d="M1475.81 53.9336V59.0041C1472.67 59.0041 1470.13 61.5872 1470.13 64.7802C1470.13 67.9732 1472.68 70.5563 1475.81 70.5563V75.6268C1469.92 75.6268 1465.13 70.7715 1465.13 64.7802C1465.13 58.7889 1469.92 53.9336 1475.81 53.9336Z" fill="#77E2C3"/>
<path d="M1501.33 154.025C1501.33 169.883 1488.48 182.726 1472.63 182.726C1456.77 182.726 1443.93 169.883 1443.93 154.025C1443.93 138.18 1456.77 125.324 1472.63 125.324C1488.48 125.324 1501.33 138.18 1501.33 154.025Z" fill="white"/>
<path d="M1453.86 166.118L1455.82 168.486V163.75L1453.86 166.118Z" fill="#77E2C3"/>
<path d="M1453.86 161.382L1455.82 163.749V159.014L1453.86 161.382Z" fill="#77E2C3"/>
<path d="M1453.86 156.635L1455.82 159.003V154.268L1453.86 156.635Z" fill="#77E2C3"/>
<path d="M1453.86 151.899L1455.82 154.267V149.531L1453.86 151.899Z" fill="#77E2C3"/>
<path d="M1455.81 168.486H1480.56L1471.67 157.819L1476.55 149.531H1455.81V168.486Z" fill="#77E2C3"/>
<path d="M1491.4 157.817V150.248C1491.4 144.352 1486.55 139.568 1480.56 139.568C1474.57 139.568 1469.71 144.352 1469.71 150.248V157.817L1480.56 149.243L1491.4 157.817Z" fill="#008C95"/>
<path d="M1491.4 157.816H1486.33C1486.33 160.962 1483.75 163.497 1480.56 163.497C1477.36 163.497 1474.78 160.95 1474.78 157.816H1469.71C1469.71 163.712 1474.57 168.496 1480.56 168.496C1486.55 168.496 1491.4 163.712 1491.4 157.816Z" fill="#77E2C3"/>
<path d="M1491.4 157.818H1486.33C1486.33 154.673 1483.75 152.137 1480.56 152.137C1477.36 152.137 1474.78 154.685 1474.78 157.818H1469.71C1469.71 151.922 1474.57 147.139 1480.56 147.139C1486.55 147.139 1491.4 151.922 1491.4 157.818Z" fill="#77E2C3"/>
<path d="M1582.04 72.7069C1582.04 88.5642 1569.2 101.408 1553.34 101.408C1537.48 101.408 1524.64 88.5642 1524.64 72.7069C1524.64 56.8496 1537.48 44.0059 1553.34 44.0059C1569.2 44.0059 1582.04 56.8496 1582.04 72.7069Z" fill="white"/>
<path d="M1569.43 63.8105H1548.93V89.5817H1569.43V63.8105Z" fill="#77E2C3"/>
<path d="M1553.67 71.2473C1552.33 71.2473 1551.25 70.1471 1551.25 68.7838C1551.25 67.4205 1552.34 66.3203 1553.67 66.3203C1554.99 66.3203 1556.08 67.4205 1556.08 68.7838C1556.08 70.1471 1554.99 71.2473 1553.67 71.2473Z" fill="white"/>
<path d="M1564.5 71.2473C1563.16 71.2473 1562.09 70.1471 1562.09 68.7838C1562.09 67.4205 1563.17 66.3203 1564.5 66.3203C1565.84 66.3203 1566.92 67.4205 1566.92 68.7838C1566.92 70.1471 1565.83 71.2473 1564.5 71.2473Z" fill="white"/>
<path d="M1553.67 78.8684C1552.33 78.8684 1551.25 77.7682 1551.25 76.4049C1551.25 75.0416 1552.34 73.9414 1553.67 73.9414C1554.99 73.9414 1556.08 75.0416 1556.08 76.4049C1556.08 77.7682 1554.99 78.8684 1553.67 78.8684Z" fill="white"/>
<path d="M1564.5 78.8684C1563.16 78.8684 1562.09 77.7682 1562.09 76.4049C1562.09 75.0416 1563.17 73.9414 1564.5 73.9414C1565.84 73.9414 1566.92 75.0416 1566.92 76.4049C1566.92 77.7682 1565.83 78.8684 1564.5 78.8684Z" fill="white"/>
<path d="M1564.5 86.9251C1563.16 86.9251 1562.09 85.8248 1562.09 84.4615C1562.09 83.0983 1563.17 81.998 1564.5 81.998C1565.84 81.998 1566.92 83.0983 1566.92 84.4615C1566.92 85.8248 1565.83 86.9251 1564.5 86.9251Z" fill="white"/>
<path d="M1559.4 86.483C1558.98 86.483 1558.63 86.1482 1558.63 85.7176V67.0739C1558.63 66.6553 1558.97 66.3086 1559.4 66.3086C1559.83 66.3086 1560.16 66.6434 1560.16 67.0739V85.7176C1560.15 86.1482 1559.82 86.483 1559.4 86.483Z" fill="white"/>
<path d="M1558.62 55.8223H1537.24V82.0478H1558.62V55.8223Z" fill="#77E2C3"/>
<path d="M1542.74 63.7004C1541.4 63.7004 1540.32 62.6002 1540.32 61.2369C1540.32 59.8736 1541.41 58.7734 1542.74 58.7734C1544.08 58.7734 1545.15 59.8736 1545.15 61.2369C1545.15 62.5883 1544.08 63.7004 1542.74 63.7004Z" fill="white"/>
<path d="M1553.57 63.7004C1552.23 63.7004 1551.16 62.6002 1551.16 61.2369C1551.16 59.8736 1552.24 58.7734 1553.57 58.7734C1554.9 58.7734 1555.99 59.8736 1555.99 61.2369C1556 62.5883 1554.91 63.7004 1553.57 63.7004Z" fill="white"/>
<path d="M1542.74 71.3215C1541.4 71.3215 1540.32 70.2213 1540.32 68.858C1540.32 67.4947 1541.41 66.3945 1542.74 66.3945C1544.08 66.3945 1545.15 67.4947 1545.15 68.858C1545.15 70.2213 1544.08 71.3215 1542.74 71.3215Z" fill="white"/>
<path d="M1553.57 71.3215C1552.23 71.3215 1551.16 70.2213 1551.16 68.858C1551.16 67.4947 1552.24 66.3945 1553.57 66.3945C1554.9 66.3945 1555.99 67.4947 1555.99 68.858C1556 70.2213 1554.91 71.3215 1553.57 71.3215Z" fill="white"/>
<path d="M1542.74 78.9387C1541.4 78.9387 1540.32 77.8385 1540.32 76.4752C1540.32 75.1119 1541.41 74.0117 1542.74 74.0117C1544.08 74.0117 1545.15 75.1119 1545.15 76.4752C1545.15 77.8385 1544.08 78.9387 1542.74 78.9387Z" fill="white"/>
<path d="M1553.57 78.9387C1552.23 78.9387 1551.16 77.8385 1551.16 76.4752C1551.16 75.1119 1552.24 74.0117 1553.57 74.0117C1554.9 74.0117 1555.99 75.1119 1555.99 76.4752C1555.99 77.8385 1554.91 78.9387 1553.57 78.9387Z" fill="white"/>
<path d="M1548.17 78.9361C1547.75 78.9361 1547.41 78.6013 1547.41 78.1708V59.527C1547.41 59.1085 1547.74 58.7617 1548.17 58.7617C1548.6 58.7617 1548.94 59.0965 1548.94 59.527V78.1708C1548.92 78.6013 1548.59 78.9361 1548.17 78.9361Z" fill="white"/>
<path d="M1558.63 63.8105H1548.93V82.0357H1558.63V63.8105Z" fill="#008C95"/>
<path d="M1553.67 71.2473C1552.33 71.2473 1551.25 70.1471 1551.25 68.7838C1551.25 67.4205 1552.34 66.3203 1553.67 66.3203C1554.99 66.3203 1556.08 67.4205 1556.08 68.7838C1556.08 70.1471 1554.99 71.2473 1553.67 71.2473Z" fill="white"/>
<path d="M1553.67 78.8684C1552.33 78.8684 1551.25 77.7682 1551.25 76.4049C1551.25 75.0416 1552.34 73.9414 1553.67 73.9414C1554.99 73.9414 1556.08 75.0416 1556.08 76.4049C1556.08 77.7682 1554.99 78.8684 1553.67 78.8684Z" fill="white"/>
<path d="M1553.67 86.9251C1552.33 86.9251 1551.25 85.8248 1551.25 84.4615C1551.25 83.0983 1552.34 81.998 1553.67 81.998C1554.99 81.998 1556.08 83.0983 1556.08 84.4615C1556.08 85.8248 1554.99 86.9251 1553.67 86.9251Z" fill="white"/>
<path d="M1375.5 14.3872V16.4702H1367.63V14.3872H1375.5ZM1362.95 18.896H1365.48C1365.62 19.8013 1365.86 20.5747 1366.18 21.2163C1366.52 21.8579 1367 22.3501 1367.64 22.6929C1368.29 23.0269 1369.15 23.1938 1370.23 23.1938C1371.08 23.1938 1371.82 23.0181 1372.44 22.6665C1373.07 22.3062 1373.58 21.814 1373.99 21.1899C1374.39 20.5659 1374.69 19.8408 1374.88 19.0146C1375.08 18.1885 1375.19 17.3052 1375.19 16.3647V14.4399C1375.19 13.6226 1375.12 12.8667 1374.97 12.1724C1374.83 11.4692 1374.62 10.8408 1374.34 10.2871C1374.06 9.72461 1373.71 9.24561 1373.29 8.8501C1372.87 8.45459 1372.39 8.15137 1371.84 7.94043C1371.29 7.72949 1370.68 7.62402 1370 7.62402C1369.02 7.62402 1368.22 7.7998 1367.59 8.15137C1366.98 8.50293 1366.5 9.00391 1366.17 9.6543C1365.84 10.2959 1365.61 11.0649 1365.48 11.9614H1362.95C1363.08 10.6958 1363.43 9.58398 1363.99 8.62598C1364.56 7.65918 1365.33 6.90332 1366.33 6.3584C1367.33 5.81348 1368.55 5.54102 1370 5.54102C1371.19 5.54102 1372.26 5.75195 1373.21 6.17383C1374.16 6.5957 1374.97 7.19775 1375.63 7.97998C1376.31 8.76221 1376.82 9.70264 1377.18 10.8013C1377.54 11.8999 1377.72 13.1216 1377.72 14.4663V16.3647C1377.72 17.7095 1377.54 18.9312 1377.18 20.0298C1376.82 21.1196 1376.32 22.0557 1375.66 22.8379C1375 23.6113 1374.21 24.209 1373.29 24.6309C1372.37 25.0527 1371.35 25.2637 1370.23 25.2637C1368.69 25.2637 1367.41 24.9868 1366.38 24.4331C1365.35 23.8706 1364.56 23.1104 1363.99 22.1523C1363.44 21.1943 1363.09 20.1089 1362.95 18.896ZM1388.29 16.022H1383.43L1383.4 13.9785H1387.82C1388.54 13.9785 1389.18 13.8555 1389.73 13.6094C1390.27 13.3633 1390.69 13.0117 1390.99 12.5547C1391.3 12.0889 1391.45 11.5352 1391.45 10.8936C1391.45 10.1904 1391.32 9.61914 1391.05 9.17969C1390.78 8.73145 1390.37 8.40625 1389.82 8.2041C1389.27 7.99316 1388.58 7.8877 1387.74 7.8877H1383.99V25H1381.45V5.80469H1387.74C1388.72 5.80469 1389.6 5.90576 1390.37 6.10791C1391.15 6.30127 1391.8 6.60889 1392.34 7.03076C1392.88 7.44385 1393.3 7.97119 1393.58 8.61279C1393.86 9.25439 1394 10.0234 1394 10.9199C1394 11.7109 1393.8 12.4272 1393.39 13.0688C1392.99 13.7017 1392.43 14.2202 1391.7 14.6245C1390.99 15.0288 1390.16 15.2881 1389.2 15.4023L1388.29 16.022ZM1388.17 25H1382.42L1383.86 22.9302H1388.17C1388.98 22.9302 1389.67 22.7896 1390.23 22.5083C1390.8 22.2271 1391.23 21.8315 1391.53 21.3218C1391.83 20.8032 1391.98 20.1924 1391.98 19.4893C1391.98 18.7773 1391.85 18.1621 1391.6 17.6436C1391.34 17.125 1390.94 16.7251 1390.4 16.4438C1389.85 16.1626 1389.15 16.022 1388.29 16.022H1384.66L1384.69 13.9785H1389.65L1390.19 14.7168C1391.11 14.7959 1391.89 15.0596 1392.54 15.5078C1393.18 15.9473 1393.66 16.5098 1394 17.1953C1394.34 17.8809 1394.51 18.6367 1394.51 19.4629C1394.51 20.6582 1394.25 21.6689 1393.72 22.4951C1393.2 23.3125 1392.47 23.9365 1391.52 24.3672C1390.57 24.7891 1389.45 25 1388.17 25ZM1405.38 7.50537L1399.02 25H1396.42L1403.74 5.80469H1405.42L1405.38 7.50537ZM1410.7 25L1404.33 7.50537L1404.29 5.80469H1405.97L1413.31 25H1410.7ZM1410.37 17.894V19.9771H1399.59V17.894H1410.37ZM1417.73 22.0996V24.064C1417.73 24.8638 1417.53 25.7075 1417.12 26.5952C1416.72 27.4917 1416.15 28.2388 1415.42 28.8364L1414.04 27.874C1414.32 27.4873 1414.56 27.0918 1414.75 26.6875C1414.94 26.292 1415.09 25.8789 1415.18 25.4482C1415.29 25.0264 1415.34 24.5781 1415.34 24.1035V22.0996H1417.73ZM1439.5 18.896H1442.03C1441.89 20.1089 1441.55 21.1943 1440.98 22.1523C1440.42 23.1104 1439.63 23.8706 1438.6 24.4331C1437.57 24.9868 1436.29 25.2637 1434.75 25.2637C1433.62 25.2637 1432.6 25.0527 1431.68 24.6309C1430.76 24.209 1429.98 23.6113 1429.32 22.8379C1428.66 22.0557 1428.15 21.1196 1427.79 20.0298C1427.44 18.9312 1427.26 17.7095 1427.26 16.3647V14.4531C1427.26 13.1084 1427.44 11.8911 1427.79 10.8013C1428.15 9.70264 1428.66 8.76221 1429.33 7.97998C1430.01 7.19775 1430.82 6.5957 1431.77 6.17383C1432.72 5.75195 1433.79 5.54102 1434.97 5.54102C1436.42 5.54102 1437.65 5.81348 1438.65 6.3584C1439.65 6.90332 1440.43 7.65918 1440.98 8.62598C1441.55 9.58398 1441.89 10.6958 1442.03 11.9614H1439.5C1439.37 11.0649 1439.14 10.2959 1438.81 9.6543C1438.48 9.00391 1438 8.50293 1437.39 8.15137C1436.77 7.7998 1435.97 7.62402 1434.97 7.62402C1434.12 7.62402 1433.37 7.78662 1432.72 8.11182C1432.08 8.43701 1431.54 8.89844 1431.1 9.49609C1430.67 10.0937 1430.34 10.8101 1430.12 11.645C1429.9 12.48 1429.79 13.4072 1429.79 14.4268V16.3647C1429.79 17.3052 1429.89 18.1885 1430.08 19.0146C1430.28 19.8408 1430.59 20.5659 1430.99 21.1899C1431.4 21.814 1431.91 22.3062 1432.53 22.6665C1433.16 23.0181 1433.9 23.1938 1434.75 23.1938C1435.83 23.1938 1436.69 23.0225 1437.33 22.6797C1437.97 22.3369 1438.46 21.8447 1438.78 21.2031C1439.12 20.5615 1439.35 19.7925 1439.5 18.896ZM1457.2 5.80469V7.8877H1447.95V25H1445.41V5.80469H1457.2ZM1447.35 13.6226H1452.59C1453.99 13.6226 1455.18 13.8599 1456.15 14.3345C1457.11 14.8003 1457.85 15.4551 1458.35 16.2988C1458.85 17.1426 1459.1 18.1313 1459.1 19.2651C1459.1 20.1089 1458.96 20.8823 1458.68 21.5854C1458.4 22.2798 1457.98 22.8862 1457.42 23.4048C1456.87 23.9146 1456.19 24.3101 1455.38 24.5913C1454.57 24.8638 1453.64 25 1452.59 25H1445.41V5.80469H1447.96V22.9302H1452.59C1453.53 22.9302 1454.29 22.7588 1454.87 22.416C1455.46 22.0645 1455.89 21.6074 1456.16 21.0449C1456.43 20.4824 1456.57 19.8804 1456.57 19.2388C1456.57 18.5972 1456.43 18.0083 1456.16 17.4722C1455.89 16.936 1455.46 16.5098 1454.87 16.1934C1454.29 15.8682 1453.53 15.7056 1452.59 15.7056H1447.35V13.6226ZM1474.12 18.896H1476.65C1476.51 20.1089 1476.17 21.1943 1475.6 22.1523C1475.04 23.1104 1474.25 23.8706 1473.22 24.4331C1472.19 24.9868 1470.91 25.2637 1469.37 25.2637C1468.24 25.2637 1467.22 25.0527 1466.3 24.6309C1465.38 24.209 1464.6 23.6113 1463.94 22.8379C1463.28 22.0557 1462.77 21.1196 1462.41 20.0298C1462.06 18.9312 1461.88 17.7095 1461.88 16.3647V14.4531C1461.88 13.1084 1462.06 11.8911 1462.41 10.8013C1462.77 9.70264 1463.28 8.76221 1463.95 7.97998C1464.63 7.19775 1465.44 6.5957 1466.39 6.17383C1467.34 5.75195 1468.41 5.54102 1469.59 5.54102C1471.04 5.54102 1472.27 5.81348 1473.27 6.3584C1474.27 6.90332 1475.05 7.65918 1475.6 8.62598C1476.17 9.58398 1476.51 10.6958 1476.65 11.9614H1474.12C1473.99 11.0649 1473.76 10.2959 1473.43 9.6543C1473.1 9.00391 1472.62 8.50293 1472.01 8.15137C1471.39 7.7998 1470.59 7.62402 1469.59 7.62402C1468.74 7.62402 1467.99 7.78662 1467.34 8.11182C1466.7 8.43701 1466.16 8.89844 1465.72 9.49609C1465.29 10.0937 1464.96 10.8101 1464.74 11.645C1464.52 12.48 1464.41 13.4072 1464.41 14.4268V16.3647C1464.41 17.3052 1464.51 18.1885 1464.7 19.0146C1464.9 19.8408 1465.21 20.5659 1465.61 21.1899C1466.02 21.814 1466.53 22.3062 1467.15 22.6665C1467.78 23.0181 1468.52 23.1938 1469.37 23.1938C1470.45 23.1938 1471.31 23.0225 1471.95 22.6797C1472.59 22.3369 1473.08 21.8447 1473.4 21.2031C1473.74 20.5615 1473.97 19.7925 1474.12 18.896ZM1481.96 22.0996V24.064C1481.96 24.8638 1481.76 25.7075 1481.35 26.5952C1480.95 27.4917 1480.38 28.2388 1479.65 28.8364L1478.27 27.874C1478.55 27.4873 1478.79 27.0918 1478.98 26.6875C1479.17 26.292 1479.32 25.8789 1479.42 25.4482C1479.52 25.0264 1479.57 24.5781 1479.57 24.1035V22.0996H1481.96ZM1506.8 5.80469V25H1504.27V7.8877H1494.8V25H1492.26V5.80469H1506.8ZM1518.25 16.022H1513.39L1513.36 13.9785H1517.78C1518.51 13.9785 1519.15 13.8555 1519.69 13.6094C1520.24 13.3633 1520.66 13.0117 1520.96 12.5547C1521.26 12.0889 1521.42 11.5352 1521.42 10.8936C1521.42 10.1904 1521.28 9.61914 1521.01 9.17969C1520.75 8.73145 1520.34 8.40625 1519.78 8.2041C1519.24 7.99316 1518.54 7.8877 1517.7 7.8877H1513.96V25H1511.41V5.80469H1517.7C1518.68 5.80469 1519.56 5.90576 1520.34 6.10791C1521.11 6.30127 1521.77 6.60889 1522.3 7.03076C1522.85 7.44385 1523.26 7.97119 1523.54 8.61279C1523.82 9.25439 1523.96 10.0234 1523.96 10.9199C1523.96 11.7109 1523.76 12.4272 1523.36 13.0688C1522.95 13.7017 1522.39 14.2202 1521.67 14.6245C1520.96 15.0288 1520.12 15.2881 1519.16 15.4023L1518.25 16.022ZM1518.14 25H1512.39L1513.82 22.9302H1518.14C1518.94 22.9302 1519.63 22.7896 1520.19 22.5083C1520.76 22.2271 1521.2 21.8315 1521.5 21.3218C1521.8 20.8032 1521.95 20.1924 1521.95 19.4893C1521.95 18.7773 1521.82 18.1621 1521.56 17.6436C1521.31 17.125 1520.91 16.7251 1520.36 16.4438C1519.82 16.1626 1519.12 16.022 1518.25 16.022H1514.63L1514.65 13.9785H1519.61L1520.15 14.7168C1521.08 14.7959 1521.86 15.0596 1522.5 15.5078C1523.14 15.9473 1523.63 16.5098 1523.96 17.1953C1524.31 17.8809 1524.48 18.6367 1524.48 19.4629C1524.48 20.6582 1524.21 21.6689 1523.69 22.4951C1523.17 23.3125 1522.43 23.9365 1521.48 24.3672C1520.53 24.7891 1519.42 25 1518.14 25ZM1529.88 5.80469L1534.5 13.1611L1539.11 5.80469H1542.08L1536.01 15.3101L1542.22 25H1539.23L1534.5 17.4985L1529.76 25H1526.77L1532.98 15.3101L1526.92 5.80469H1529.88Z" fill="#008C95"/>
</svg>
