<svg width="359" height="104" viewBox="0 0 359 104" fill="none" xmlns="http://www.w3.org/2000/svg">
<path d="M262.097 100.156C261.621 101.12 260.46 101.526 259.485 101.062C258.51 100.598 258.115 99.4367 258.591 98.4615L260.402 94.4216L247.946 100.145C247.133 100.516 246.169 100.168 245.786 99.3554C245.415 98.5428 245.763 97.5793 246.576 97.2078L253.947 93.8296L253.715 93.3071L244.126 97.707C243.314 98.0785 242.35 97.7302 241.979 96.9176C241.607 96.1049 241.955 95.1414 242.768 94.7583L252.392 90.3352L252.16 89.8128L245.438 92.8892C244.626 93.2607 243.662 92.9124 243.279 92.0998C242.907 91.2872 243.256 90.3236 244.068 89.9405L250.825 86.8409L250.581 86.2837L246.019 88.4081C245.206 88.7796 244.242 88.4314 243.859 87.6187C243.488 86.8061 243.836 85.8425 244.649 85.4594L249.246 83.3118L256.85 79.8058L256.861 79.7943L261.517 79.4343L270.305 75.3828L275.68 87.0383L267.031 91.0318L262.097 100.156Z" fill="#77E2C3"/>
<path d="M264.871 63.2754C265.347 62.3119 266.508 61.9055 267.483 62.3699C268.458 62.8343 268.853 63.9951 268.377 64.9703L266.287 69.5326L278.604 63.7862C279.417 63.4147 280.38 63.763 280.763 64.5756C281.135 65.3882 280.787 66.3518 279.974 66.7349L272.742 70.1247L272.974 70.6471L282.424 66.2357C283.236 65.8642 284.2 66.2125 284.583 67.0251C284.954 67.8378 284.606 68.8013 283.793 69.1728L274.297 73.6074L274.529 74.1298L281.112 71.0418C281.924 70.6703 282.888 71.0186 283.271 71.8312C283.642 72.6439 283.294 73.6074 282.482 73.9905L275.853 77.1017L276.097 77.659L280.357 75.6622C281.17 75.2907 282.133 75.639 282.516 76.4516C282.888 77.2643 282.54 78.2278 281.727 78.6109L277.42 80.6193L269.816 84.1252L269.805 84.1368L265.149 84.4967L256.361 88.5482L250.986 76.9044L259.635 72.9109L264.871 63.2754Z" fill="#77E2C3"/>
<path d="M270.329 75.3828L261.541 79.446L256.886 79.8058H256.875L253.113 81.5472L256.352 88.5591L265.152 84.5075L269.795 84.1476L269.807 84.136L273.568 82.4063L270.329 75.3828Z" fill="#008C95"/>
<path d="M203.355 79.0038L200.72 79.9558L195.693 66.1991L198.329 65.2471C202.125 63.8657 206.339 65.8276 207.72 69.6238C209.113 73.4083 207.152 77.6107 203.355 79.0038ZM201.73 77.7849L202.775 77.4134C205.689 76.3454 207.198 73.1065 206.13 70.1926C205.062 67.2787 201.823 65.7696 198.909 66.8376L197.864 67.2091L201.73 77.7849Z" fill="#77E2C3"/>
<path d="M181.871 86.8289L179.34 87.7111C175.544 89.0926 171.33 87.1307 169.948 83.3345C168.567 79.5384 170.529 75.3243 174.325 73.9428L176.856 73.0605L181.871 86.8289ZM174.905 75.5449C171.992 76.6129 170.482 79.8518 171.55 82.7657C172.618 85.6796 175.857 87.1887 178.771 86.1207L179.7 85.8305L175.846 75.2547L174.905 75.5449Z" fill="#008C95"/>
<path d="M175.078 73.7574L185.712 67.5349L197.855 65.4453L202.87 79.1904L192.26 85.4941L180.082 87.5024L175.078 73.7574Z" fill="#77E2C3"/>
<path d="M196.705 69.2074L187.07 71.2739L178.328 75.7782L177.898 74.5824L186.628 70.0433L196.275 68.0117L196.705 69.2074Z" fill="white"/>
<path d="M181.229 83.7426L190.899 81.7574L199.617 77.1719L200.047 78.356L191.352 82.988L181.67 84.9383L181.229 83.7426Z" fill="white"/>
<path d="M194.974 89.162L191.63 90.439L186.615 76.6823L189.959 75.4053C193.755 74.0239 197.969 75.9858 199.35 79.782C200.732 83.5665 198.77 87.7689 194.974 89.162ZM192.64 88.2565L194.393 87.56C197.307 86.492 198.816 83.2646 197.748 80.3392C196.68 77.4253 193.453 75.9162 190.527 76.9842L188.775 77.6807L192.64 88.2565Z" fill="#008C95"/>
<path d="M172.78 97.3113L170.342 98.1935C166.546 99.575 162.332 97.6131 160.95 93.817C159.569 90.0208 161.531 85.8067 165.327 84.4253L167.765 83.543L172.78 97.3113ZM165.896 86.0157C162.982 87.0837 161.473 90.3226 162.541 93.2365C163.609 96.1504 166.836 97.6595 169.762 96.5915L170.609 96.3013L166.755 85.7255L165.896 86.0157Z" fill="#77E2C3"/>
<path d="M165.977 84.2417L176.622 78.0077L188.765 75.9297L193.769 89.6632L183.17 95.9785L170.992 97.9752L165.977 84.2417Z" fill="#77E2C3"/>
<path d="M188.764 75.9297L176.621 78.0077L180.081 87.5039L192.258 85.4955L188.764 75.9297Z" fill="#008C95"/>
<path d="M187.613 79.6783L177.978 81.7563L169.236 86.2606L168.807 85.0648L177.537 80.5141L187.184 78.4941L187.613 79.6783Z" fill="white"/>
<path d="M172.141 94.2249L181.811 92.2282L190.518 87.6426L190.959 88.8383L182.252 93.4703L172.582 95.409L172.141 94.2249Z" fill="white"/>
<path d="M188.805 82.9649L170.811 89.5293L171.252 90.7398L189.246 84.1754L188.805 82.9649Z" fill="white"/>
<path d="M102.996 89.3819L92.4316 78.8176V76.7512L109.23 59.9414H111.296L121.861 70.5172V72.5836L105.062 89.3819H102.996Z" fill="#77E2C3"/>
<path d="M117.254 72.2619H114.363C113.806 72.2619 113.342 71.8092 113.342 71.2403C113.342 70.6715 113.795 70.2188 114.363 70.2188H117.254C117.811 70.2188 118.276 70.6715 118.276 71.2403C118.276 71.8092 117.823 72.2619 117.254 72.2619Z" fill="white"/>
<path d="M113.014 76.51H110.123C109.566 76.51 109.102 76.0572 109.102 75.4884C109.102 74.9196 109.566 74.4668 110.123 74.4668H113.014C113.571 74.4668 114.035 74.9196 114.035 75.4884C114.035 76.0572 113.571 76.51 113.014 76.51Z" fill="white"/>
<path d="M108.766 80.76H105.875C105.318 80.76 104.854 80.3072 104.854 79.7384C104.854 79.1696 105.306 78.7168 105.875 78.7168H108.766C109.323 78.7168 109.787 79.1696 109.787 79.7384C109.787 80.3072 109.323 80.76 108.766 80.76Z" fill="white"/>
<path d="M104.516 85.0061H101.625C101.068 85.0061 100.604 84.5533 100.604 83.9845C100.604 83.4156 101.068 82.9629 101.625 82.9629H104.516C105.073 82.9629 105.537 83.4156 105.537 83.9845C105.537 84.5533 105.073 85.0061 104.516 85.0061Z" fill="white"/>
<path d="M112.158 67.1643H109.268C108.71 67.1643 108.246 66.7115 108.246 66.1427C108.246 65.5739 108.699 65.1211 109.268 65.1211H112.158C112.716 65.1211 113.18 65.5739 113.18 66.1427C113.18 66.7115 112.727 67.1643 112.158 67.1643Z" fill="white"/>
<path d="M107.92 71.4123H105.018C104.46 71.4123 103.996 70.9596 103.996 70.3907C103.996 69.8219 104.46 69.3691 105.018 69.3691H107.908C108.466 69.3691 108.93 69.8219 108.93 70.3907C108.93 70.9596 108.477 71.4123 107.92 71.4123Z" fill="white"/>
<path d="M103.668 75.6623H100.777C100.22 75.6623 99.7559 75.2096 99.7559 74.6407C99.7559 74.0719 100.209 73.6191 100.777 73.6191H103.668C104.225 73.6191 104.69 74.0719 104.69 74.6407C104.69 75.2096 104.225 75.6623 103.668 75.6623Z" fill="white"/>
<path d="M99.42 79.9006H96.5294C95.9722 79.9006 95.5078 79.4479 95.5078 78.879C95.5078 78.3102 95.9722 77.8574 96.5294 77.8574H99.42C99.9773 77.8574 100.442 78.3102 100.442 78.879C100.442 79.4479 99.9773 79.9006 99.42 79.9006Z" fill="white"/>
<path d="M99.3062 103.477L88.9277 93.0871V91.0207L105.54 74.4082H107.607L117.997 84.7867V86.8647L101.373 103.477H99.3062Z" fill="#77E2C3"/>
<path d="M107.603 74.4082C106.79 74.4082 106.337 74.4082 105.536 74.4082L96.7715 83.173L102.994 89.3955C103.807 89.3955 104.248 89.3955 105.06 89.3955L113.825 80.6306L107.603 74.4082Z" fill="#008C95"/>
<path d="M113.967 85.8772H111.076C110.519 85.8772 110.055 85.4244 110.055 84.8556C110.055 84.2867 110.519 83.834 111.076 83.834H113.967C114.524 83.834 114.989 84.2867 114.989 84.8556C114.989 85.4244 114.524 85.8772 113.967 85.8772Z" fill="white"/>
<path d="M109.717 90.1252H106.826C106.269 90.1252 105.805 89.6725 105.805 89.1036C105.805 88.5348 106.257 88.082 106.826 88.082H109.717C110.274 88.082 110.739 88.5348 110.739 89.1036C110.739 89.6725 110.286 90.1252 109.717 90.1252Z" fill="white"/>
<path d="M105.483 94.3752H102.592C102.035 94.3752 101.57 93.9225 101.57 93.3536C101.57 92.7848 102.035 92.332 102.592 92.332H105.483C106.04 92.332 106.504 92.7848 106.504 93.3536C106.504 93.9225 106.04 94.3752 105.483 94.3752Z" fill="white"/>
<path d="M101.233 98.6232H98.3419C97.7847 98.6232 97.3203 98.1705 97.3203 97.6017C97.3203 97.0328 97.7731 96.5801 98.3419 96.5801H101.233C101.79 96.5801 102.254 97.0328 102.254 97.6017C102.254 98.1705 101.79 98.6232 101.233 98.6232Z" fill="white"/>
<path d="M108.766 80.6779H105.875C105.318 80.6779 104.854 80.2252 104.854 79.6563C104.854 79.0875 105.306 78.6348 105.875 78.6348H108.766C109.323 78.6348 109.787 79.0875 109.787 79.6563C109.787 80.2252 109.323 80.6779 108.766 80.6779Z" fill="white"/>
<path d="M104.516 84.926H101.625C101.068 84.926 100.604 84.4733 100.604 83.9044C100.604 83.3356 101.056 82.8828 101.625 82.8828H104.516C105.073 82.8828 105.537 83.3356 105.537 83.9044C105.537 84.4733 105.073 84.926 104.516 84.926Z" fill="white"/>
<path d="M100.268 89.1623H97.3771C96.8198 89.1623 96.3555 88.7095 96.3555 88.1407C96.3555 87.5719 96.8198 87.1191 97.3771 87.1191H100.268C100.825 87.1191 101.289 87.5719 101.289 88.1407C101.289 88.7095 100.825 89.1623 100.268 89.1623Z" fill="white"/>
<path d="M96.0177 93.4104H93.1271C92.5698 93.4104 92.1055 92.9576 92.1055 92.3888C92.1055 91.8199 92.5582 91.3672 93.1271 91.3672H96.0177C96.5749 91.3672 97.0393 91.8199 97.0393 92.3888C97.0393 92.9576 96.5865 93.4104 96.0177 93.4104Z" fill="white"/>
<path d="M340.065 60.5586H329.129V63.3215H340.065V60.5586Z" fill="#77E2C3"/>
<path d="M343.012 66.166H325.447V68.929H343.012V66.166Z" fill="#77E2C3"/>
<path d="M335.963 61.9395H333.119V66.9545H335.963V61.9395Z" fill="#77E2C3"/>
<path d="M335.55 92.6699H332.961V102.863H335.55V92.6699Z" fill="#77E2C3"/>
<path d="M339.6 68.3828H329.129V92.0884H339.6V68.3828Z" fill="#77E2C3"/>
<path d="M337.405 75.9863H331.102V92.6685H337.405V75.9863Z" fill="#008C95"/>
<path d="M338.162 89.8594H330.559V95.4666H338.162V89.8594Z" fill="#77E2C3"/>
<path d="M357.62 77.7969H344.467V92.0876H357.62V77.7969Z" fill="#77E2C3"/>
<path d="M359.001 72.6211H343.016V77.7987H359.001V72.6211Z" fill="#008C95"/>
<path d="M38.6374 90.4398C38.6374 97.2659 32.1247 102.803 24.1028 102.803C16.0694 102.803 9.56836 97.2659 9.56836 90.4398C9.56836 83.6137 16.081 78.0762 24.1028 78.0762C32.1247 78.0878 38.6374 83.6137 38.6374 90.4398Z" fill="#77E2C3"/>
<path d="M38.6374 84.1605C38.6374 90.9866 32.1247 96.5241 24.1028 96.5241C16.0694 96.5241 9.56836 90.9866 9.56836 84.1605C9.56836 77.3344 16.081 71.7969 24.1028 71.7969C32.1247 71.7969 38.6374 77.3344 38.6374 84.1605Z" fill="#77E2C3"/>
<path d="M24.0898 78.0879C17.3333 78.0879 11.6565 82.0001 10.0312 87.3054C11.6681 92.6107 17.345 96.523 24.0898 96.523C30.8462 96.523 36.523 92.6107 38.1483 87.3054C36.523 82.0001 30.8462 78.0879 24.0898 78.0879Z" fill="white"/>
<path d="M35.1865 92.9591C35.1865 96.1516 32.5745 98.7288 29.3471 98.7288C26.1198 98.7288 23.5078 96.1516 23.5078 92.9591C23.5078 89.7667 26.1198 87.1895 29.3471 87.1895C32.5628 87.1895 35.1865 89.7667 35.1865 92.9591Z" fill="#008C95"/>
<path d="M23.5 92.9591C23.5 94.2942 23.9644 95.5247 24.7306 96.4999C28.8866 96.349 32.5899 94.7121 35.1206 92.1929C34.7375 89.3719 32.2996 87.1895 29.3393 87.1895C26.112 87.1895 23.5 89.7667 23.5 92.9591Z" fill="#77E2C3"/>
<path d="M22.6844 87.7695C22.6844 90.0565 20.8154 91.9023 18.4936 91.9023C16.1834 91.9023 14.3027 90.0565 14.3027 87.7695C14.3027 85.4825 16.1718 83.6367 18.4936 83.6367C20.8038 83.6367 22.6844 85.4942 22.6844 87.7695Z" fill="#77E2C3"/>
<path d="M34.0406 66.5371L25.1945 75.4761L24.8231 78.0533L22.3387 80.5376C21.7699 81.1064 21.7699 82.0235 22.3387 82.5808C22.9076 83.138 23.8247 83.1496 24.3819 82.5808L26.8663 80.0964L29.4435 79.7249L38.2895 70.7976L34.0406 66.5371Z" fill="#77E2C3"/>
<path d="M28.3143 72.332L25.1799 75.4665L24.8084 78.0437L22.3705 80.4816C21.8713 80.9808 21.7436 81.7934 22.1499 82.3738C22.6839 83.14 23.7403 83.2097 24.3672 82.5828L26.8516 80.0985L29.4288 79.727L34.0143 75.1414C32.4123 73.8644 30.4736 72.8893 28.3143 72.332Z" fill="#008C95"/>
<path d="M32.8673 65.3748L39.4496 71.9572C40.0765 72.1197 40.7614 71.9572 41.2606 71.4696C41.992 70.7382 41.992 69.5425 41.2606 68.7995L40.6918 68.2306L43.2574 65.6651C44.4183 64.5042 44.4183 62.6351 43.2574 61.4742C42.0964 60.3133 40.2274 60.3133 39.0665 61.4742L36.5009 64.0398L36.025 63.5638C35.282 62.8325 34.0978 62.8325 33.3549 63.5638C32.8557 64.063 32.7048 64.748 32.8673 65.3748Z" fill="#008C95"/>
<path d="M10.0307 83.1367L9.55469 84.1583V90.4388L10.7504 90.8451L10.0307 87.3044V83.1367Z" fill="#77E2C3"/>
<path d="M37.4531 83.6367L38.1613 87.3051L37.4531 91.4147L38.6373 90.4396V84.1591L37.4531 83.6367Z" fill="#77E2C3"/>
<path d="M9.30762 17.4722H4.1792V15.4023H9.30762C10.3008 15.4023 11.105 15.2441 11.7202 14.9277C12.3354 14.6113 12.7837 14.1719 13.0649 13.6094C13.355 13.0469 13.5 12.4053 13.5 11.6846C13.5 11.0254 13.355 10.4058 13.0649 9.82568C12.7837 9.24561 12.3354 8.77979 11.7202 8.42822C11.105 8.06787 10.3008 7.8877 9.30762 7.8877H4.77246V25H2.22803V5.80469H9.30762C10.7578 5.80469 11.9839 6.05518 12.9858 6.55615C13.9878 7.05713 14.748 7.75146 15.2666 8.63916C15.7852 9.51807 16.0444 10.5244 16.0444 11.6582C16.0444 12.8887 15.7852 13.939 15.2666 14.8091C14.748 15.6792 13.9878 16.3428 12.9858 16.7998C11.9839 17.248 10.7578 17.4722 9.30762 17.4722ZM24.627 25.2637C23.6338 25.2637 22.7329 25.0967 21.9243 24.7627C21.1245 24.4199 20.4346 23.9409 19.8545 23.3257C19.2832 22.7104 18.8438 21.981 18.5361 21.1372C18.2285 20.2935 18.0747 19.3706 18.0747 18.3687V17.8149C18.0747 16.6548 18.2461 15.6221 18.5889 14.7168C18.9316 13.8027 19.3975 13.0293 19.9863 12.3965C20.5752 11.7637 21.2432 11.2847 21.9902 10.9595C22.7373 10.6343 23.5107 10.4717 24.3105 10.4717C25.3301 10.4717 26.209 10.6475 26.9473 10.999C27.6943 11.3506 28.3052 11.8428 28.7798 12.4756C29.2544 13.0996 29.606 13.8379 29.8345 14.6904C30.063 15.5342 30.1772 16.457 30.1772 17.459V18.5532H19.5249V16.5625H27.7383V16.3779C27.7031 15.7451 27.5713 15.1299 27.3428 14.5322C27.123 13.9346 26.7715 13.4424 26.2881 13.0557C25.8047 12.6689 25.1455 12.4756 24.3105 12.4756C23.7568 12.4756 23.2471 12.5942 22.7812 12.8315C22.3154 13.0601 21.9155 13.4028 21.5815 13.8599C21.2476 14.3169 20.9883 14.875 20.8037 15.5342C20.6191 16.1934 20.5269 16.9536 20.5269 17.8149V18.3687C20.5269 19.0454 20.6191 19.6826 20.8037 20.2803C20.9971 20.8691 21.2739 21.3877 21.6343 21.8359C22.0034 22.2842 22.4473 22.6357 22.9658 22.8906C23.4932 23.1455 24.0908 23.2729 24.7588 23.2729C25.6201 23.2729 26.3496 23.0972 26.9473 22.7456C27.5449 22.394 28.0679 21.9238 28.5161 21.335L29.9927 22.5083C29.6851 22.9741 29.2939 23.418 28.8193 23.8398C28.3447 24.2617 27.7603 24.6045 27.0659 24.8682C26.3804 25.1318 25.5674 25.2637 24.627 25.2637ZM33.2358 10.7354H35.6748V22.9961H40.8955V10.7354H43.3477V22.9961H48.5552V10.7354H50.9941V25H33.2358V10.7354ZM60.8027 25.2637C59.8096 25.2637 58.9087 25.0967 58.1001 24.7627C57.3003 24.4199 56.6104 23.9409 56.0303 23.3257C55.459 22.7104 55.0195 21.981 54.7119 21.1372C54.4043 20.2935 54.2505 19.3706 54.2505 18.3687V17.8149C54.2505 16.6548 54.4219 15.6221 54.7646 14.7168C55.1074 13.8027 55.5732 13.0293 56.1621 12.3965C56.751 11.7637 57.4189 11.2847 58.166 10.9595C58.9131 10.6343 59.6865 10.4717 60.4863 10.4717C61.5059 10.4717 62.3848 10.6475 63.123 10.999C63.8701 11.3506 64.481 11.8428 64.9556 12.4756C65.4302 13.0996 65.7817 13.8379 66.0103 14.6904C66.2388 15.5342 66.353 16.457 66.353 17.459V18.5532H55.7007V16.5625H63.9141V16.3779C63.8789 15.7451 63.7471 15.1299 63.5186 14.5322C63.2988 13.9346 62.9473 13.4424 62.4639 13.0557C61.9805 12.6689 61.3213 12.4756 60.4863 12.4756C59.9326 12.4756 59.4229 12.5942 58.957 12.8315C58.4912 13.0601 58.0913 13.4028 57.7573 13.8599C57.4233 14.3169 57.1641 14.875 56.9795 15.5342C56.7949 16.1934 56.7026 16.9536 56.7026 17.8149V18.3687C56.7026 19.0454 56.7949 19.6826 56.9795 20.2803C57.1729 20.8691 57.4497 21.3877 57.8101 21.8359C58.1792 22.2842 58.623 22.6357 59.1416 22.8906C59.6689 23.1455 60.2666 23.2729 60.9346 23.2729C61.7959 23.2729 62.5254 23.0972 63.123 22.7456C63.7207 22.394 64.2437 21.9238 64.6919 21.335L66.1685 22.5083C65.8608 22.9741 65.4697 23.418 64.9951 23.8398C64.5205 24.2617 63.936 24.6045 63.2417 24.8682C62.5562 25.1318 61.7432 25.2637 60.8027 25.2637ZM78.8774 16.9185V18.896H71.3364V16.9185H78.8774ZM71.8506 10.7354V25H69.4116V10.7354H71.8506ZM80.855 10.7354V25H78.4028V10.7354H80.855ZM87.4204 21.1372L93.999 10.7354H96.4512V25H93.999V14.5981L87.4204 25H84.9946V10.7354H87.4204V21.1372ZM103.254 18.1973H105.891L101.764 25H99.1274L103.254 18.1973ZM105.297 10.7354H111.256V25H108.817V12.7129H105.297C104.603 12.7129 104.036 12.8315 103.597 13.0688C103.157 13.2974 102.836 13.5962 102.634 13.9653C102.432 14.3345 102.331 14.7168 102.331 15.1123C102.331 15.499 102.423 15.8726 102.608 16.2329C102.792 16.5845 103.083 16.8745 103.478 17.103C103.874 17.3315 104.383 17.4458 105.007 17.4458H109.477V19.4497H105.007C104.19 19.4497 103.465 19.3398 102.832 19.1201C102.199 18.9004 101.663 18.5972 101.224 18.2104C100.784 17.8149 100.45 17.3535 100.222 16.8262C99.9932 16.29 99.8789 15.71 99.8789 15.0859C99.8789 14.4619 99.9976 13.8862 100.235 13.3589C100.481 12.8315 100.833 12.3701 101.29 11.9746C101.755 11.5791 102.322 11.2759 102.99 11.0649C103.667 10.8452 104.436 10.7354 105.297 10.7354Z" fill="#008C95"/>
</svg>
