<svg width="227" height="60" viewBox="0 0 227 60" fill="none" xmlns="http://www.w3.org/2000/svg">
<path d="M5.62305 9.09668H2.96387V8.02344H5.62305C6.13802 8.02344 6.55501 7.94141 6.87402 7.77734C7.19303 7.61328 7.42546 7.38542 7.57129 7.09375C7.72168 6.80208 7.79688 6.4694 7.79688 6.0957C7.79688 5.75391 7.72168 5.43262 7.57129 5.13184C7.42546 4.83105 7.19303 4.58952 6.87402 4.40723C6.55501 4.22038 6.13802 4.12695 5.62305 4.12695H3.27148V13H1.95215V3.04688H5.62305C6.375 3.04688 7.01074 3.17676 7.53027 3.43652C8.0498 3.69629 8.44401 4.05632 8.71289 4.5166C8.98177 4.97233 9.11621 5.49414 9.11621 6.08203C9.11621 6.72005 8.98177 7.26465 8.71289 7.71582C8.44401 8.16699 8.0498 8.51107 7.53027 8.74805C7.01074 8.98047 6.375 9.09668 5.62305 9.09668ZM13.5664 13.1367C13.0514 13.1367 12.5843 13.0501 12.165 12.877C11.7503 12.6992 11.3926 12.4508 11.0918 12.1318C10.7956 11.8128 10.5677 11.4346 10.4082 10.9971C10.2487 10.5596 10.1689 10.0811 10.1689 9.56152V9.27441C10.1689 8.67285 10.2578 8.13737 10.4355 7.66797C10.6133 7.19401 10.8548 6.79297 11.1602 6.46484C11.4655 6.13672 11.8118 5.88835 12.1992 5.71973C12.5866 5.55111 12.9876 5.4668 13.4023 5.4668C13.931 5.4668 14.3867 5.55794 14.7695 5.74023C15.1569 5.92253 15.4736 6.17773 15.7197 6.50586C15.9658 6.82943 16.1481 7.21224 16.2666 7.6543C16.3851 8.0918 16.4443 8.57031 16.4443 9.08984V9.65723H10.9209V8.625H15.1797V8.5293C15.1615 8.20117 15.0931 7.88216 14.9746 7.57227C14.8607 7.26237 14.6784 7.00716 14.4277 6.80664C14.1771 6.60612 13.8353 6.50586 13.4023 6.50586C13.1152 6.50586 12.8509 6.56738 12.6094 6.69043C12.3678 6.80892 12.1605 6.98665 11.9873 7.22363C11.8141 7.46061 11.6797 7.75 11.584 8.0918C11.4883 8.43359 11.4404 8.8278 11.4404 9.27441V9.56152C11.4404 9.91243 11.4883 10.2428 11.584 10.5527C11.6842 10.8581 11.8278 11.127 12.0146 11.3594C12.2061 11.5918 12.4362 11.7741 12.7051 11.9062C12.9785 12.0384 13.2884 12.1045 13.6348 12.1045C14.0814 12.1045 14.4596 12.0133 14.7695 11.8311C15.0794 11.6488 15.3506 11.4049 15.583 11.0996L16.3486 11.708C16.1891 11.9495 15.9863 12.1797 15.7402 12.3984C15.4941 12.6172 15.1911 12.7949 14.8311 12.9316C14.4756 13.0684 14.054 13.1367 13.5664 13.1367ZM18.0303 5.60352H19.2949V11.9609H22.002V5.60352H23.2734V11.9609H25.9736V5.60352H27.2383V13H18.0303V5.60352ZM32.3242 13.1367C31.8092 13.1367 31.3421 13.0501 30.9229 12.877C30.5081 12.6992 30.1504 12.4508 29.8496 12.1318C29.5534 11.8128 29.3255 11.4346 29.166 10.9971C29.0065 10.5596 28.9268 10.0811 28.9268 9.56152V9.27441C28.9268 8.67285 29.0156 8.13737 29.1934 7.66797C29.3711 7.19401 29.6126 6.79297 29.918 6.46484C30.2233 6.13672 30.5697 5.88835 30.957 5.71973C31.3444 5.55111 31.7454 5.4668 32.1602 5.4668C32.6888 5.4668 33.1445 5.55794 33.5273 5.74023C33.9147 5.92253 34.2314 6.17773 34.4775 6.50586C34.7236 6.82943 34.9059 7.21224 35.0244 7.6543C35.1429 8.0918 35.2021 8.57031 35.2021 9.08984V9.65723H29.6787V8.625H33.9375V8.5293C33.9193 8.20117 33.8509 7.88216 33.7324 7.57227C33.6185 7.26237 33.4362 7.00716 33.1855 6.80664C32.9349 6.60612 32.5931 6.50586 32.1602 6.50586C31.873 6.50586 31.6087 6.56738 31.3672 6.69043C31.1257 6.80892 30.9183 6.98665 30.7451 7.22363C30.5719 7.46061 30.4375 7.75 30.3418 8.0918C30.2461 8.43359 30.1982 8.8278 30.1982 9.27441V9.56152C30.1982 9.91243 30.2461 10.2428 30.3418 10.5527C30.4421 10.8581 30.5856 11.127 30.7725 11.3594C30.9639 11.5918 31.194 11.7741 31.4629 11.9062C31.7363 12.0384 32.0462 12.1045 32.3926 12.1045C32.8392 12.1045 33.2174 12.0133 33.5273 11.8311C33.8372 11.6488 34.1084 11.4049 34.3408 11.0996L35.1064 11.708C34.9469 11.9495 34.7441 12.1797 34.498 12.3984C34.252 12.6172 33.9489 12.7949 33.5889 12.9316C33.2334 13.0684 32.8118 13.1367 32.3242 13.1367ZM41.6963 8.80957V9.83496H37.7861V8.80957H41.6963ZM38.0527 5.60352V13H36.7881V5.60352H38.0527ZM42.7217 5.60352V13H41.4502V5.60352H42.7217ZM46.126 10.9971L49.5371 5.60352H50.8086V13H49.5371V7.60645L46.126 13H44.8682V5.60352H46.126V10.9971ZM54.3359 9.47266H55.7031L53.5635 13H52.1963L54.3359 9.47266ZM55.3955 5.60352H58.4854V13H57.2207V6.62891H55.3955C55.0355 6.62891 54.7415 6.69043 54.5137 6.81348C54.2858 6.93197 54.1195 7.08691 54.0146 7.27832C53.9098 7.46973 53.8574 7.66797 53.8574 7.87305C53.8574 8.07357 53.9053 8.26725 54.001 8.4541C54.0967 8.63639 54.2471 8.78678 54.4521 8.90527C54.6572 9.02376 54.9215 9.08301 55.2451 9.08301H57.5625V10.1221H55.2451C54.8213 10.1221 54.4453 10.0651 54.1172 9.95117C53.7891 9.83724 53.5111 9.68001 53.2832 9.47949C53.0553 9.27441 52.8822 9.03516 52.7637 8.76172C52.6452 8.48372 52.5859 8.18294 52.5859 7.85938C52.5859 7.53581 52.6475 7.2373 52.7705 6.96387C52.8981 6.69043 53.0804 6.45117 53.3174 6.24609C53.5589 6.04102 53.8529 5.88379 54.1992 5.77441C54.5501 5.66048 54.9489 5.60352 55.3955 5.60352Z" fill="#008C95"/>
<path d="M164.123 57.8093C163.815 58.4325 163.065 58.6952 162.434 58.3949C161.803 58.0946 161.548 57.3438 161.856 56.7131L163.027 54.1003L154.971 57.8018C154.445 58.0421 153.822 57.8168 153.574 57.2912C153.334 56.7657 153.559 56.1425 154.085 55.9023L158.852 53.7174L158.702 53.3795L152.501 56.2251C151.975 56.4654 151.352 56.2401 151.112 55.7146C150.871 55.189 151.097 54.5658 151.622 54.3181L157.846 51.4575L157.696 51.1196L153.349 53.1093C152.824 53.3495 152.2 53.1243 151.953 52.5987C151.712 52.0731 151.938 51.45 152.463 51.2022L156.833 49.1976L156.675 48.8372L153.725 50.2111C153.199 50.4514 152.576 50.2262 152.328 49.7006C152.088 49.175 152.313 48.5519 152.839 48.3041L155.812 46.9151L160.729 44.6477L160.737 44.6402L163.748 44.4074L169.431 41.7871L172.908 49.3252L167.314 51.908L164.123 57.8093Z" fill="#77E2C3"/>
<path d="M165.917 33.957C166.225 33.3338 166.976 33.071 167.606 33.3714C168.237 33.6717 168.492 34.4225 168.185 35.0531L166.833 38.0038L174.799 34.2873C175.325 34.0471 175.948 34.2723 176.196 34.7979C176.436 35.3234 176.211 35.9466 175.685 36.1944L171.008 38.3867L171.158 38.7246L177.269 35.8715C177.795 35.6313 178.418 35.8565 178.666 36.3821C178.906 36.9077 178.681 37.5308 178.155 37.7711L172.014 40.6391L172.164 40.977L176.421 38.9799C176.946 38.7396 177.57 38.9648 177.817 39.4904C178.058 40.016 177.832 40.6392 177.307 40.8869L173.02 42.8991L173.177 43.2594L175.933 41.9681C176.458 41.7278 177.082 41.9531 177.329 42.4786C177.57 43.0042 177.344 43.6273 176.819 43.8751L174.033 45.174L169.116 47.4414L169.108 47.4489L166.097 47.6817L160.414 50.302L156.938 42.7714L162.531 40.1887L165.917 33.957Z" fill="#77E2C3"/>
<path d="M169.443 41.7871L163.759 44.4149L160.749 44.6477H160.741L158.309 45.7739L160.403 50.3088L166.094 47.6885L169.098 47.4557L169.105 47.4482L171.538 46.3295L169.443 41.7871Z" fill="#008C95"/>
<path d="M126.135 44.1285L124.431 44.7442L121.18 35.8471L122.884 35.2315C125.339 34.338 128.065 35.6069 128.958 38.062C129.859 40.5096 128.59 43.2275 126.135 44.1285ZM125.084 43.3402L125.76 43.0999C127.644 42.4092 128.62 40.3144 127.929 38.4299C127.239 36.5454 125.144 35.5693 123.259 36.2601L122.584 36.5003L125.084 43.3402Z" fill="#77E2C3"/>
<path d="M112.239 49.1897L110.602 49.7603C108.147 50.6538 105.422 49.3849 104.528 46.9298C103.635 44.4747 104.904 41.7492 107.359 40.8558L108.996 40.2852L112.239 49.1897ZM107.734 41.8919C105.85 42.5826 104.874 44.6774 105.564 46.5619C106.255 48.4464 108.35 49.4225 110.234 48.7317L110.835 48.544L108.342 41.7042L107.734 41.8919Z" fill="#008C95"/>
<path d="M107.844 40.7356L114.721 36.7113L122.575 35.3599L125.818 44.2494L118.956 48.3263L111.08 49.6252L107.844 40.7356Z" fill="#77E2C3"/>
<path d="M121.835 37.7929L115.603 39.1293L109.95 42.0424L109.672 41.2691L115.318 38.3334L121.557 37.0195L121.835 37.7929Z" fill="white"/>
<path d="M111.82 47.1934L118.074 45.9095L123.713 42.9438L123.991 43.7097L118.367 46.7054L112.106 47.9667L111.82 47.1934Z" fill="white"/>
<path d="M120.714 50.6983L118.552 51.5242L115.309 42.6272L117.471 41.8013C119.926 40.9078 122.651 42.1767 123.545 44.6318C124.438 47.0795 123.17 49.7974 120.714 50.6983ZM119.205 50.1127L120.339 49.6622C122.224 48.9715 123.2 46.8842 122.509 44.9922C121.818 43.1077 119.731 42.1317 117.839 42.8224L116.705 43.2729L119.205 50.1127Z" fill="#008C95"/>
<path d="M106.359 55.969L104.782 56.5396C102.327 57.4331 99.6015 56.1642 98.708 53.7091C97.8146 51.254 99.0834 48.5285 101.539 47.6351L103.115 47.0645L106.359 55.969ZM101.906 48.6637C100.022 49.3544 99.0459 51.4492 99.7366 53.3337C100.427 55.2182 102.515 56.1942 104.407 55.5035L104.955 55.3158L102.462 48.476L101.906 48.6637Z" fill="#77E2C3"/>
<path d="M101.961 47.5159L108.846 43.4841L116.699 42.1401L119.935 51.0222L113.08 55.1065L105.204 56.3979L101.961 47.5159Z" fill="#77E2C3"/>
<path d="M116.697 42.1401L108.844 43.4841L111.081 49.6257L118.957 48.3268L116.697 42.1401Z" fill="#008C95"/>
<path d="M115.948 44.5647L109.716 45.9086L104.063 48.8217L103.785 48.0484L109.431 45.1052L115.67 43.7988L115.948 44.5647Z" fill="white"/>
<path d="M105.945 53.9729L112.2 52.6815L117.831 49.7158L118.116 50.4891L112.485 53.4849L106.231 54.7387L105.945 53.9729Z" fill="white"/>
<path d="M116.723 46.6906L105.086 50.936L105.372 51.7189L117.009 47.4734L116.723 46.6906Z" fill="white"/>
<path d="M61.2269 50.8412L54.3945 44.0089V42.6724L65.2587 31.8008H66.5951L73.4275 38.6406V39.977L62.5633 50.8412H61.2269Z" fill="#77E2C3"/>
<path d="M70.4482 39.7687H68.5787C68.2183 39.7687 67.918 39.4758 67.918 39.108C67.918 38.7401 68.2108 38.4473 68.5787 38.4473H70.4482C70.8086 38.4473 71.1089 38.7401 71.1089 39.108C71.1089 39.4758 70.8161 39.7687 70.4482 39.7687Z" fill="white"/>
<path d="M67.706 42.5162H65.8365C65.4761 42.5162 65.1758 42.2234 65.1758 41.8555C65.1758 41.4876 65.4761 41.1948 65.8365 41.1948H67.706C68.0664 41.1948 68.3667 41.4876 68.3667 41.8555C68.3667 42.2234 68.0664 42.5162 67.706 42.5162Z" fill="white"/>
<path d="M64.9599 45.2648H63.0904C62.73 45.2648 62.4297 44.972 62.4297 44.6041C62.4297 44.2362 62.7225 43.9434 63.0904 43.9434H64.9599C65.3203 43.9434 65.6206 44.2362 65.6206 44.6041C65.6206 44.972 65.3203 45.2648 64.9599 45.2648Z" fill="white"/>
<path d="M62.2099 48.0114H60.3404C59.98 48.0114 59.6797 47.7185 59.6797 47.3507C59.6797 46.9828 59.98 46.6899 60.3404 46.6899H62.2099C62.5703 46.6899 62.8706 46.9828 62.8706 47.3507C62.8706 47.7185 62.5703 48.0114 62.2099 48.0114Z" fill="white"/>
<path d="M67.1552 36.4723H65.2857C64.9253 36.4723 64.625 36.1795 64.625 35.8116C64.625 35.4437 64.9178 35.1509 65.2857 35.1509H67.1552C67.5156 35.1509 67.8159 35.4437 67.8159 35.8116C67.8159 36.1795 67.5231 36.4723 67.1552 36.4723Z" fill="white"/>
<path d="M64.4127 39.2194H62.5357C62.1753 39.2194 61.875 38.9266 61.875 38.5587C61.875 38.1908 62.1753 37.8979 62.5357 37.8979H64.4052C64.7656 37.8979 65.0659 38.1908 65.0659 38.5587C65.0659 38.9266 64.7731 39.2194 64.4127 39.2194Z" fill="white"/>
<path d="M61.6591 41.9684H59.7896C59.4292 41.9684 59.1289 41.6756 59.1289 41.3077C59.1289 40.9398 59.4217 40.647 59.7896 40.647H61.6591C62.0195 40.647 62.3198 40.9398 62.3198 41.3077C62.3198 41.6756 62.0195 41.9684 61.6591 41.9684Z" fill="white"/>
<path d="M58.913 44.7091H57.0435C56.6831 44.7091 56.3828 44.4163 56.3828 44.0484C56.3828 43.6805 56.6831 43.3877 57.0435 43.3877H58.913C59.2734 43.3877 59.5737 43.6805 59.5737 44.0484C59.5737 44.4163 59.2734 44.7091 58.913 44.7091Z" fill="white"/>
<path d="M58.8411 59.9574L52.1289 53.2377V51.9012L62.8729 41.1572H64.2094L70.9291 47.8694V49.2134L60.1775 59.9574H58.8411Z" fill="#77E2C3"/>
<path d="M64.2042 41.1572C63.6787 41.1572 63.3859 41.1572 62.8678 41.1572L57.1992 46.8258L61.2235 50.8501C61.7491 50.8501 62.0344 50.8501 62.56 50.8501L68.2286 45.1815L64.2042 41.1572Z" fill="#008C95"/>
<path d="M68.3193 48.5744H66.4498C66.0894 48.5744 65.7891 48.2815 65.7891 47.9136C65.7891 47.5457 66.0894 47.2529 66.4498 47.2529H68.3193C68.6797 47.2529 68.98 47.5457 68.98 47.9136C68.98 48.2815 68.6797 48.5744 68.3193 48.5744Z" fill="white"/>
<path d="M65.5693 51.3219H63.6998C63.3394 51.3219 63.0391 51.0291 63.0391 50.6612C63.0391 50.2933 63.3319 50.0005 63.6998 50.0005H65.5693C65.9297 50.0005 66.23 50.2933 66.23 50.6612C66.23 51.0291 65.9372 51.3219 65.5693 51.3219Z" fill="white"/>
<path d="M62.8349 54.0704H60.9654C60.605 54.0704 60.3047 53.7776 60.3047 53.4097C60.3047 53.0418 60.605 52.749 60.9654 52.749H62.8349C63.1953 52.749 63.4956 53.0418 63.4956 53.4097C63.4956 53.7776 63.1953 54.0704 62.8349 54.0704Z" fill="white"/>
<path d="M60.0888 56.818H58.2193C57.8589 56.818 57.5586 56.5252 57.5586 56.1573C57.5586 55.7894 57.8514 55.4966 58.2193 55.4966H60.0888C60.4492 55.4966 60.7495 55.7894 60.7495 56.1573C60.7495 56.5252 60.4492 56.818 60.0888 56.818Z" fill="white"/>
<path d="M64.9599 45.212H63.0904C62.73 45.212 62.4297 44.9192 62.4297 44.5513C62.4297 44.1834 62.7225 43.8906 63.0904 43.8906H64.9599C65.3203 43.8906 65.6206 44.1834 65.6206 44.5513C65.6206 44.9192 65.3203 45.212 64.9599 45.212Z" fill="white"/>
<path d="M62.2099 47.9591H60.3404C59.98 47.9591 59.6797 47.6663 59.6797 47.2984C59.6797 46.9305 59.9725 46.6377 60.3404 46.6377H62.2099C62.5703 46.6377 62.8706 46.9305 62.8706 47.2984C62.8706 47.6663 62.5703 47.9591 62.2099 47.9591Z" fill="white"/>
<path d="M59.4638 50.6993H57.5943C57.2339 50.6993 56.9336 50.4065 56.9336 50.0386C56.9336 49.6707 57.2339 49.3779 57.5943 49.3779H59.4638C59.8242 49.3779 60.1245 49.6707 60.1245 50.0386C60.1245 50.4065 59.8242 50.6993 59.4638 50.6993Z" fill="white"/>
<path d="M56.7138 53.4464H54.8443C54.4839 53.4464 54.1836 53.1536 54.1836 52.7857C54.1836 52.4178 54.4764 52.125 54.8443 52.125H56.7138C57.0742 52.125 57.3745 52.4178 57.3745 52.7857C57.3745 53.1536 57.0817 53.4464 56.7138 53.4464Z" fill="white"/>
<path d="M214.549 32.1997H207.477V33.9866H214.549V32.1997Z" fill="#77E2C3"/>
<path d="M216.453 35.8262H205.094V37.6131H216.453V35.8262Z" fill="#77E2C3"/>
<path d="M211.894 33.0928H210.055V36.3362H211.894V33.0928Z" fill="#77E2C3"/>
<path d="M211.631 52.9673H209.957V59.5594H211.631V52.9673Z" fill="#77E2C3"/>
<path d="M214.249 37.2598H207.477V52.5912H214.249V37.2598Z" fill="#77E2C3"/>
<path d="M212.827 42.1777H208.75V52.9668H212.827V42.1777Z" fill="#008C95"/>
<path d="M213.316 51.1499H208.398V54.7763H213.316V51.1499Z" fill="#77E2C3"/>
<path d="M225.901 43.3486H217.395V52.591H225.901V43.3486Z" fill="#77E2C3"/>
<path d="M226.796 40.001H216.457V43.3496H226.796V40.001Z" fill="#008C95"/>
<path d="M19.6088 51.5249C19.6088 55.9396 15.3967 59.521 10.2087 59.521C5.0131 59.521 0.808594 55.9396 0.808594 51.5249C0.808594 47.1101 5.0206 43.5288 10.2087 43.5288C15.3967 43.5363 19.6088 47.1101 19.6088 51.5249Z" fill="#77E2C3"/>
<path d="M19.6088 47.4634C19.6088 51.8781 15.3967 55.4594 10.2087 55.4594C5.0131 55.4594 0.808594 51.8781 0.808594 47.4634C0.808594 43.0486 5.0206 39.4673 10.2087 39.4673C15.3967 39.4673 19.6088 43.0486 19.6088 47.4634Z" fill="#77E2C3"/>
<path d="M10.1977 43.5361C5.82805 43.5361 2.1566 46.0663 1.10547 49.4975C2.1641 52.9287 5.83555 55.4589 10.1977 55.4589C14.5674 55.4589 18.2388 52.9287 19.29 49.4975C18.2388 46.0663 14.5674 43.5361 10.1977 43.5361Z" fill="white"/>
<path d="M17.3773 53.1544C17.3773 55.2191 15.688 56.8859 13.6008 56.8859C11.5135 56.8859 9.82422 55.2191 9.82422 53.1544C9.82422 51.0896 11.5135 49.4229 13.6008 49.4229C15.6805 49.4229 17.3773 51.0896 17.3773 53.1544Z" fill="#008C95"/>
<path d="M9.81641 53.1544C9.81641 54.0178 10.1167 54.8136 10.6123 55.4443C13.3001 55.3467 15.6952 54.2881 17.332 52.6588C17.0842 50.8344 15.5075 49.4229 13.593 49.4229C11.5057 49.4229 9.81641 51.0896 9.81641 53.1544Z" fill="#77E2C3"/>
<path d="M9.288 49.7979C9.288 51.277 8.07922 52.4707 6.57761 52.4707C5.0835 52.4707 3.86719 51.277 3.86719 49.7979C3.86719 48.3188 5.076 47.125 6.57761 47.125C8.07171 47.125 9.288 48.3263 9.288 49.7979Z" fill="#77E2C3"/>
<path d="M16.6331 36.0659L10.912 41.8471L10.6717 43.5139L9.06498 45.1206C8.69709 45.4885 8.69709 46.0817 9.06498 46.4421C9.43288 46.8024 10.026 46.8099 10.3864 46.4421L11.9931 44.8353L13.6599 44.5951L19.381 38.8214L16.6331 36.0659Z" fill="#77E2C3"/>
<path d="M12.9282 39.8135L10.9011 41.8407L10.6608 43.5074L9.08413 45.0841C8.76128 45.407 8.67869 45.9325 8.94147 46.3079C9.28684 46.8035 9.97008 46.8485 10.3755 46.4431L11.9822 44.8364L13.649 44.5961L16.6147 41.6304C15.5786 40.8045 14.3247 40.1739 12.9282 39.8135Z" fill="#008C95"/>
<path d="M15.8725 35.3143L20.1296 39.5714C20.535 39.6765 20.978 39.5714 21.3008 39.2561C21.7738 38.7831 21.7738 38.0097 21.3008 37.5292L20.9329 37.1613L22.5922 35.502C23.343 34.7512 23.343 33.5424 22.5922 32.7916C21.8414 32.0408 20.6326 32.0408 19.8818 32.7916L18.2226 34.4509L17.9147 34.1431C17.4342 33.6701 16.6684 33.6701 16.1879 34.1431C15.865 34.4659 15.7674 34.9089 15.8725 35.3143Z" fill="#008C95"/>
<path d="M1.10471 46.8018L0.796875 47.4625V51.5243L1.5702 51.7871L1.10471 49.4971V46.8018Z" fill="#77E2C3"/>
<path d="M18.8398 47.125L19.2978 49.4975L18.8398 52.1554L19.6057 51.5247V47.4628L18.8398 47.125Z" fill="#77E2C3"/>
</svg>
