<svg width="366" height="100" viewBox="0 0 366 100" fill="none" xmlns="http://www.w3.org/2000/svg">
<path d="M288.862 72.307C288.862 87.3488 276.679 99.532 261.637 99.532C246.595 99.532 234.412 87.3488 234.412 72.307C234.412 57.2766 246.595 45.082 261.637 45.082C276.679 45.082 288.862 57.2766 288.862 72.307Z" fill="white"/>
<path d="M260.491 90.3326C260.026 91.2741 258.892 91.6711 257.939 91.2174C256.986 90.7636 256.6 89.6293 257.066 88.6764L258.835 84.7287L246.663 90.3212C245.869 90.6842 244.928 90.3439 244.553 89.5498C244.19 88.7558 244.531 87.8143 245.325 87.4513L252.528 84.1502L252.301 83.6398L242.931 87.939C242.137 88.302 241.196 87.9617 240.833 87.1677C240.47 86.3736 240.81 85.4321 241.604 85.0577L251.008 80.7358L250.781 80.2253L244.213 83.2314C243.419 83.5944 242.477 83.2541 242.103 82.46C241.74 81.6659 242.08 80.7244 242.875 80.3501L249.477 77.3213L249.238 76.7768L244.78 78.8527C243.986 79.2157 243.045 78.8754 242.67 78.0813C242.307 77.2873 242.648 76.3457 243.442 75.9714L247.934 73.8728L255.364 70.447L255.375 70.4356L259.924 70.084L268.511 66.125L273.764 77.5141L265.312 81.4164L260.491 90.3326Z" fill="#77E2C3"/>
<path d="M263.2 54.2952C263.665 53.3537 264.799 52.9567 265.752 53.4104C266.705 53.8642 267.091 54.9985 266.626 55.9514L264.584 60.4095L276.62 54.7944C277.414 54.4314 278.355 54.7717 278.73 55.5657C279.093 56.3598 278.752 57.3013 277.958 57.6757L270.891 60.988L271.118 61.4985L280.352 57.1879C281.146 56.8249 282.087 57.1652 282.462 57.9593C282.825 58.7533 282.484 59.6948 281.69 60.0578L272.411 64.3912L272.638 64.9017L279.07 61.8842C279.864 61.5212 280.805 61.8615 281.18 62.6556C281.543 63.4496 281.202 64.3912 280.408 64.7655L273.931 67.8057L274.169 68.3501L278.332 66.399C279.127 66.036 280.068 66.3763 280.442 67.1704C280.805 67.9645 280.465 68.906 279.671 69.2803L275.463 71.2428L268.032 74.6686L268.021 74.68L263.472 75.0316L254.885 78.9906L249.633 67.6128L258.084 63.7105L263.2 54.2952Z" fill="#77E2C3"/>
<path d="M268.536 66.125L259.948 70.0953L255.4 70.447H255.388L251.713 72.1485L254.878 79.0002L263.476 75.0412L268.014 74.6896L268.025 74.6782L271.701 72.988L268.536 66.125Z" fill="#008C95"/>
<path d="M211.725 72.307C211.725 87.3488 199.542 99.532 184.5 99.532C169.459 99.532 157.275 87.3488 157.275 72.307C157.275 57.2766 169.459 45.082 184.5 45.082C199.542 45.082 211.725 57.2766 211.725 72.307Z" fill="white"/>
<path d="M203.092 69.6638L200.517 70.5939L195.605 57.1516L198.181 56.2214C201.89 54.8715 206.008 56.7886 207.358 60.498C208.719 64.1961 206.802 68.3025 203.092 69.6638ZM201.504 68.4727L202.525 68.1097C205.372 67.066 206.847 63.9011 205.803 61.0538C204.76 58.2066 201.595 56.7319 198.748 57.7755L197.727 58.1385L201.504 68.4727Z" fill="#77E2C3"/>
<path d="M182.096 77.3111L179.623 78.1732C175.914 79.5231 171.796 77.6061 170.446 73.8966C169.096 70.1872 171.013 66.0695 174.723 64.7196L177.196 63.8574L182.096 77.3111ZM175.29 66.285C172.443 67.3286 170.968 70.4935 172.011 73.3408C173.055 76.1881 176.22 77.6628 179.067 76.6191L179.975 76.3355L176.209 66.0014L175.29 66.285Z" fill="#008C95"/>
<path d="M175.461 64.5381L185.852 58.4579L197.717 56.416L202.618 69.847L192.25 76.0067L180.35 77.9691L175.461 64.5381Z" fill="#77E2C3"/>
<path d="M196.594 60.0903L187.178 62.1095L178.637 66.5108L178.217 65.3424L186.747 60.907L196.174 58.9219L196.594 60.0903Z" fill="white"/>
<path d="M181.469 74.2956L190.918 72.3558L199.437 67.875L199.857 69.0321L191.36 73.5582L181.9 75.464L181.469 74.2956Z" fill="white"/>
<path d="M194.9 79.5895L191.633 80.8373L186.732 67.395L189.999 66.1472C193.709 64.7973 197.827 66.7144 199.177 70.4238C200.526 74.1219 198.609 78.2283 194.9 79.5895ZM192.62 78.7047L194.333 78.0241C197.18 76.9805 198.655 73.8269 197.611 70.9683C196.567 68.121 193.414 66.6463 190.555 67.6899L188.842 68.3706L192.62 78.7047Z" fill="#008C95"/>
<path d="M173.214 87.5533L170.832 88.4154C167.123 89.7653 163.005 87.8482 161.655 84.1388C160.305 80.4294 162.222 76.3117 165.932 74.9617L168.314 74.0996L173.214 87.5533ZM166.487 76.5158C163.64 77.5595 162.165 80.7244 163.209 83.5716C164.253 86.4189 167.406 87.8936 170.265 86.85L171.093 86.5664L167.327 76.2322L166.487 76.5158Z" fill="#77E2C3"/>
<path d="M166.566 74.7823L176.969 68.6907L188.834 66.6602L193.723 80.0798L183.366 86.2508L171.467 88.2019L166.566 74.7823Z" fill="#77E2C3"/>
<path d="M188.834 66.6602L176.969 68.6907L180.349 77.9699L192.249 76.0074L188.834 66.6602Z" fill="#008C95"/>
<path d="M187.709 70.3211L178.294 72.3517L169.752 76.753L169.332 75.5846L177.862 71.1379L187.289 69.1641L187.709 70.3211Z" fill="white"/>
<path d="M172.588 84.5374L182.037 82.5863L190.545 78.1055L190.976 79.2739L182.468 83.8001L173.019 85.6944L172.588 84.5374Z" fill="white"/>
<path d="M188.874 73.5348L171.291 79.9492L171.723 81.1321L189.305 74.7177L188.874 73.5348Z" fill="white"/>
<path d="M134.589 72.307C134.589 87.3488 122.394 99.532 107.364 99.532C92.3219 99.532 80.1387 87.3488 80.1387 72.307C80.1387 57.2766 92.3219 45.082 107.364 45.082C122.405 45.082 134.589 57.2766 134.589 72.307Z" fill="white"/>
<path d="M105.024 79.8068L94.7012 69.484V67.4648L111.116 51.0391H113.135L123.458 61.3732V63.3924L107.043 79.8068H105.024Z" fill="#77E2C3"/>
<path d="M118.958 63.0766H116.133C115.588 63.0766 115.135 62.6341 115.135 62.0783C115.135 61.5225 115.577 61.0801 116.133 61.0801H118.958C119.502 61.0801 119.956 61.5225 119.956 62.0783C119.956 62.6341 119.513 63.0766 118.958 63.0766Z" fill="white"/>
<path d="M114.813 67.227H111.988C111.444 67.227 110.99 66.7846 110.99 66.2287C110.99 65.6729 111.444 65.2305 111.988 65.2305H114.813C115.358 65.2305 115.811 65.6729 115.811 66.2287C115.811 66.7846 115.358 67.227 114.813 67.227Z" fill="white"/>
<path d="M110.663 71.3793H107.838C107.294 71.3793 106.84 70.9369 106.84 70.3811C106.84 69.8252 107.282 69.3828 107.838 69.3828H110.663C111.207 69.3828 111.661 69.8252 111.661 70.3811C111.661 70.9369 111.207 71.3793 110.663 71.3793Z" fill="white"/>
<path d="M106.51 75.5297H103.686C103.141 75.5297 102.688 75.0873 102.688 74.5315C102.688 73.9756 103.141 73.5332 103.686 73.5332H106.51C107.055 73.5332 107.509 73.9756 107.509 74.5315C107.509 75.0873 107.055 75.5297 106.51 75.5297Z" fill="white"/>
<path d="M113.977 58.0942H111.153C110.608 58.0942 110.154 57.6518 110.154 57.0959C110.154 56.5401 110.597 56.0977 111.153 56.0977H113.977C114.522 56.0977 114.975 56.5401 114.975 57.0959C114.975 57.6518 114.533 58.0942 113.977 58.0942Z" fill="white"/>
<path d="M109.836 62.2465H107C106.456 62.2465 106.002 61.8041 106.002 61.2483C106.002 60.6924 106.456 60.25 107 60.25H109.825C110.369 60.25 110.823 60.6924 110.823 61.2483C110.823 61.8041 110.381 62.2465 109.836 62.2465Z" fill="white"/>
<path d="M105.682 66.3969H102.858C102.313 66.3969 101.859 65.9545 101.859 65.3986C101.859 64.8428 102.302 64.4004 102.858 64.4004H105.682C106.227 64.4004 106.68 64.8428 106.68 65.3986C106.68 65.9545 106.227 66.3969 105.682 66.3969Z" fill="white"/>
<path d="M101.53 70.5395H98.7053C98.1608 70.5395 97.707 70.0971 97.707 69.5412C97.707 68.9854 98.1608 68.543 98.7053 68.543H101.53C102.074 68.543 102.528 68.9854 102.528 69.5412C102.528 70.0971 102.074 70.5395 101.53 70.5395Z" fill="white"/>
<path d="M101.419 93.5786L91.2773 83.4259V81.4067L107.51 65.1738H109.529L119.682 75.3151V77.3457L103.438 93.5786H101.419Z" fill="#77E2C3"/>
<path d="M109.527 65.1738C108.733 65.1738 108.291 65.1738 107.508 65.1738L98.9434 73.7383L105.024 79.8186C105.818 79.8186 106.249 79.8186 107.043 79.8186L115.607 71.2541L109.527 65.1738Z" fill="#008C95"/>
<path d="M115.745 76.3793H112.92C112.376 76.3793 111.922 75.9369 111.922 75.3811C111.922 74.8252 112.376 74.3828 112.92 74.3828H115.745C116.289 74.3828 116.743 74.8252 116.743 75.3811C116.743 75.9369 116.289 76.3793 115.745 76.3793Z" fill="white"/>
<path d="M111.592 80.5317H108.768C108.223 80.5317 107.77 80.0893 107.77 79.5334C107.77 78.9776 108.212 78.5352 108.768 78.5352H111.592C112.137 78.5352 112.591 78.9776 112.591 79.5334C112.591 80.0893 112.148 80.5317 111.592 80.5317Z" fill="white"/>
<path d="M107.456 84.684H104.631C104.087 84.684 103.633 84.2416 103.633 83.6858C103.633 83.1299 104.087 82.6875 104.631 82.6875H107.456C108 82.6875 108.454 83.1299 108.454 83.6858C108.454 84.2416 108 84.684 107.456 84.684Z" fill="white"/>
<path d="M103.303 88.8363H100.479C99.9342 88.8363 99.4805 88.3939 99.4805 87.8381C99.4805 87.2823 99.9229 86.8398 100.479 86.8398H103.303C103.848 86.8398 104.302 87.2823 104.302 87.8381C104.302 88.3939 103.848 88.8363 103.303 88.8363Z" fill="white"/>
<path d="M110.663 71.2992H107.838C107.294 71.2992 106.84 70.8568 106.84 70.301C106.84 69.7451 107.282 69.3027 107.838 69.3027H110.663C111.207 69.3027 111.661 69.7451 111.661 70.301C111.661 70.8568 111.207 71.2992 110.663 71.2992Z" fill="white"/>
<path d="M106.51 75.4516H103.686C103.141 75.4516 102.688 75.0092 102.688 74.4533C102.688 73.8975 103.13 73.4551 103.686 73.4551H106.51C107.055 73.4551 107.509 73.8975 107.509 74.4533C107.509 75.0092 107.055 75.4516 106.51 75.4516Z" fill="white"/>
<path d="M102.358 79.5902H99.5334C98.9889 79.5902 98.5352 79.1478 98.5352 78.592C98.5352 78.0361 98.9889 77.5938 99.5334 77.5938H102.358C102.902 77.5938 103.356 78.0361 103.356 78.592C103.356 79.1478 102.902 79.5902 102.358 79.5902Z" fill="white"/>
<path d="M98.2057 83.7426H95.3811C94.8366 83.7426 94.3828 83.3002 94.3828 82.7443C94.3828 82.1885 94.8252 81.7461 95.3811 81.7461H98.2057C98.7502 81.7461 99.2039 82.1885 99.2039 82.7443C99.2039 83.3002 98.7615 83.7426 98.2057 83.7426Z" fill="white"/>
<path d="M365.999 72.307C365.999 87.3488 353.816 99.532 338.774 99.532C323.732 99.532 311.549 87.3488 311.549 72.307C311.549 57.2766 323.732 45.082 338.774 45.082C353.816 45.082 365.999 57.2766 365.999 72.307Z" fill="white"/>
<path d="M336.676 51.6387H325.99V54.3385H336.676V51.6387Z" fill="#77E2C3"/>
<path d="M339.556 57.1211H322.393V59.8209H339.556V57.1211Z" fill="#77E2C3"/>
<path d="M332.668 52.9902H329.889V57.8907H332.668V52.9902Z" fill="#77E2C3"/>
<path d="M332.266 83.0176H329.736V92.9774H332.266V83.0176Z" fill="#77E2C3"/>
<path d="M336.222 59.2871H325.99V82.4511H336.222V59.2871Z" fill="#77E2C3"/>
<path d="M334.078 66.7148H327.918V83.0158H334.078V66.7148Z" fill="#008C95"/>
<path d="M334.817 80.2715H327.387V85.7505H334.817V80.2715Z" fill="#77E2C3"/>
<path d="M353.829 68.4863H340.977V82.4505H353.829V68.4863Z" fill="#77E2C3"/>
<path d="M355.179 63.4277H339.559V68.4871H355.179V63.4277Z" fill="#008C95"/>
<path d="M57.45 72.307C57.45 87.3488 45.2668 99.532 30.225 99.532C15.1832 99.532 3 87.3488 3 72.307C3 57.2766 15.1832 45.082 30.225 45.082C45.2668 45.082 57.45 57.2766 57.45 72.307Z" fill="white"/>
<path d="M42.1372 80.8389C42.1372 87.509 35.7733 92.92 27.9348 92.92C20.0849 92.92 13.7324 87.509 13.7324 80.8389C13.7324 74.1688 20.0963 68.7578 27.9348 68.7578C35.7733 68.7692 42.1372 74.1688 42.1372 80.8389Z" fill="#77E2C3"/>
<path d="M42.1372 74.7022C42.1372 81.3723 35.7733 86.7833 27.9348 86.7833C20.0849 86.7833 13.7324 81.3723 13.7324 74.7022C13.7324 68.0321 20.0963 62.6211 27.9348 62.6211C35.7733 62.6211 42.1372 68.0321 42.1372 74.7022Z" fill="#77E2C3"/>
<path d="M27.9209 68.7695C21.3188 68.7695 15.7717 72.5923 14.1836 77.7764C15.7831 82.9605 21.3302 86.7834 27.9209 86.7834C34.523 86.7834 40.07 82.9605 41.6582 77.7764C40.07 72.5923 34.523 68.7695 27.9209 68.7695Z" fill="white"/>
<path d="M38.7653 83.3C38.7653 86.4195 36.213 88.9378 33.0594 88.9378C29.9059 88.9378 27.3535 86.4195 27.3535 83.3C27.3535 80.1804 29.9059 77.6621 33.0594 77.6621C36.2016 77.6621 38.7653 80.1804 38.7653 83.3Z" fill="#008C95"/>
<path d="M27.3438 83.3C27.3438 84.6045 27.7975 85.8069 28.5462 86.7598C32.6072 86.6123 36.2259 85.0129 38.6989 82.5513C38.3245 79.7947 35.9423 77.6621 33.0497 77.6621C29.8961 77.6621 27.3438 80.1804 27.3438 83.3Z" fill="#77E2C3"/>
<path d="M26.5496 78.2278C26.5496 80.4625 24.7232 82.2662 22.4545 82.2662C20.1971 82.2662 18.3594 80.4625 18.3594 78.2278C18.3594 75.9931 20.1857 74.1895 22.4545 74.1895C24.7119 74.1895 26.5496 76.0045 26.5496 78.2278Z" fill="#77E2C3"/>
<path d="M37.6443 57.4824L29.0004 66.2171L28.6374 68.7354L26.2099 71.163C25.654 71.7188 25.654 72.615 26.2099 73.1595C26.7657 73.704 27.6619 73.7153 28.2064 73.1595L30.6339 70.7319L33.1522 70.3689L41.7962 61.6456L37.6443 57.4824Z" fill="#77E2C3"/>
<path d="M32.0488 63.1426L28.986 66.2054L28.623 68.7237L26.2408 71.1059C25.753 71.5937 25.6282 72.3877 26.0252 72.9549C26.547 73.7036 27.5793 73.7717 28.1919 73.1591L30.6195 70.7315L33.1378 70.3685L37.6185 65.8878C36.0531 64.64 34.1587 63.6871 32.0488 63.1426Z" fill="#008C95"/>
<path d="M36.4987 56.3478L42.9306 62.7798C43.5431 62.9386 44.2124 62.7798 44.7002 62.3033C45.4148 61.5887 45.4148 60.4203 44.7002 59.6943L44.1444 59.1384L46.6513 56.6314C47.7857 55.4971 47.7857 53.6707 46.6513 52.5363C45.5169 51.402 43.6906 51.402 42.5562 52.5363L40.0493 55.0433L39.5842 54.5782C38.8582 53.8636 37.7011 53.8636 36.9751 54.5782C36.4873 55.066 36.3399 55.7353 36.4987 56.3478Z" fill="#008C95"/>
<path d="M14.1838 73.7031L13.7188 74.7014V80.8384L14.8872 81.2354L14.1838 77.7755V73.7031Z" fill="#77E2C3"/>
<path d="M40.9785 74.1895L41.6705 77.774L40.9785 81.7897L42.1356 80.8369V74.6999L40.9785 74.1895Z" fill="#77E2C3"/>
<path d="M9.30762 17.4722H4.1792V15.4023H9.30762C10.3008 15.4023 11.105 15.2441 11.7202 14.9277C12.3354 14.6113 12.7837 14.1719 13.0649 13.6094C13.355 13.0469 13.5 12.4053 13.5 11.6846C13.5 11.0254 13.355 10.4058 13.0649 9.82568C12.7837 9.24561 12.3354 8.77979 11.7202 8.42822C11.105 8.06787 10.3008 7.8877 9.30762 7.8877H4.77246V25H2.22803V5.80469H9.30762C10.7578 5.80469 11.9839 6.05518 12.9858 6.55615C13.9878 7.05713 14.748 7.75146 15.2666 8.63916C15.7852 9.51807 16.0444 10.5244 16.0444 11.6582C16.0444 12.8887 15.7852 13.939 15.2666 14.8091C14.748 15.6792 13.9878 16.3428 12.9858 16.7998C11.9839 17.248 10.7578 17.4722 9.30762 17.4722ZM24.627 25.2637C23.6338 25.2637 22.7329 25.0967 21.9243 24.7627C21.1245 24.4199 20.4346 23.9409 19.8545 23.3257C19.2832 22.7104 18.8438 21.981 18.5361 21.1372C18.2285 20.2935 18.0747 19.3706 18.0747 18.3687V17.8149C18.0747 16.6548 18.2461 15.6221 18.5889 14.7168C18.9316 13.8027 19.3975 13.0293 19.9863 12.3965C20.5752 11.7637 21.2432 11.2847 21.9902 10.9595C22.7373 10.6343 23.5107 10.4717 24.3105 10.4717C25.3301 10.4717 26.209 10.6475 26.9473 10.999C27.6943 11.3506 28.3052 11.8428 28.7798 12.4756C29.2544 13.0996 29.606 13.8379 29.8345 14.6904C30.063 15.5342 30.1772 16.457 30.1772 17.459V18.5532H19.5249V16.5625H27.7383V16.3779C27.7031 15.7451 27.5713 15.1299 27.3428 14.5322C27.123 13.9346 26.7715 13.4424 26.2881 13.0557C25.8047 12.6689 25.1455 12.4756 24.3105 12.4756C23.7568 12.4756 23.2471 12.5942 22.7812 12.8315C22.3154 13.0601 21.9155 13.4028 21.5815 13.8599C21.2476 14.3169 20.9883 14.875 20.8037 15.5342C20.6191 16.1934 20.5269 16.9536 20.5269 17.8149V18.3687C20.5269 19.0454 20.6191 19.6826 20.8037 20.2803C20.9971 20.8691 21.2739 21.3877 21.6343 21.8359C22.0034 22.2842 22.4473 22.6357 22.9658 22.8906C23.4932 23.1455 24.0908 23.2729 24.7588 23.2729C25.6201 23.2729 26.3496 23.0972 26.9473 22.7456C27.5449 22.394 28.0679 21.9238 28.5161 21.335L29.9927 22.5083C29.6851 22.9741 29.2939 23.418 28.8193 23.8398C28.3447 24.2617 27.7603 24.6045 27.0659 24.8682C26.3804 25.1318 25.5674 25.2637 24.627 25.2637ZM33.2358 10.7354H35.6748V22.9961H40.8955V10.7354H43.3477V22.9961H48.5552V10.7354H50.9941V25H33.2358V10.7354ZM60.8027 25.2637C59.8096 25.2637 58.9087 25.0967 58.1001 24.7627C57.3003 24.4199 56.6104 23.9409 56.0303 23.3257C55.459 22.7104 55.0195 21.981 54.7119 21.1372C54.4043 20.2935 54.2505 19.3706 54.2505 18.3687V17.8149C54.2505 16.6548 54.4219 15.6221 54.7646 14.7168C55.1074 13.8027 55.5732 13.0293 56.1621 12.3965C56.751 11.7637 57.4189 11.2847 58.166 10.9595C58.9131 10.6343 59.6865 10.4717 60.4863 10.4717C61.5059 10.4717 62.3848 10.6475 63.123 10.999C63.8701 11.3506 64.481 11.8428 64.9556 12.4756C65.4302 13.0996 65.7817 13.8379 66.0103 14.6904C66.2388 15.5342 66.353 16.457 66.353 17.459V18.5532H55.7007V16.5625H63.9141V16.3779C63.8789 15.7451 63.7471 15.1299 63.5186 14.5322C63.2988 13.9346 62.9473 13.4424 62.4639 13.0557C61.9805 12.6689 61.3213 12.4756 60.4863 12.4756C59.9326 12.4756 59.4229 12.5942 58.957 12.8315C58.4912 13.0601 58.0913 13.4028 57.7573 13.8599C57.4233 14.3169 57.1641 14.875 56.9795 15.5342C56.7949 16.1934 56.7026 16.9536 56.7026 17.8149V18.3687C56.7026 19.0454 56.7949 19.6826 56.9795 20.2803C57.1729 20.8691 57.4497 21.3877 57.8101 21.8359C58.1792 22.2842 58.623 22.6357 59.1416 22.8906C59.6689 23.1455 60.2666 23.2729 60.9346 23.2729C61.7959 23.2729 62.5254 23.0972 63.123 22.7456C63.7207 22.394 64.2437 21.9238 64.6919 21.335L66.1685 22.5083C65.8608 22.9741 65.4697 23.418 64.9951 23.8398C64.5205 24.2617 63.936 24.6045 63.2417 24.8682C62.5562 25.1318 61.7432 25.2637 60.8027 25.2637ZM78.8774 16.9185V18.896H71.3364V16.9185H78.8774ZM71.8506 10.7354V25H69.4116V10.7354H71.8506ZM80.855 10.7354V25H78.4028V10.7354H80.855ZM87.4204 21.1372L93.999 10.7354H96.4512V25H93.999V14.5981L87.4204 25H84.9946V10.7354H87.4204V21.1372ZM103.254 18.1973H105.891L101.764 25H99.1274L103.254 18.1973ZM105.297 10.7354H111.256V25H108.817V12.7129H105.297C104.603 12.7129 104.036 12.8315 103.597 13.0688C103.157 13.2974 102.836 13.5962 102.634 13.9653C102.432 14.3345 102.331 14.7168 102.331 15.1123C102.331 15.499 102.423 15.8726 102.608 16.2329C102.792 16.5845 103.083 16.8745 103.478 17.103C103.874 17.3315 104.383 17.4458 105.007 17.4458H109.477V19.4497H105.007C104.19 19.4497 103.465 19.3398 102.832 19.1201C102.199 18.9004 101.663 18.5972 101.224 18.2104C100.784 17.8149 100.45 17.3535 100.222 16.8262C99.9932 16.29 99.8789 15.71 99.8789 15.0859C99.8789 14.4619 99.9976 13.8862 100.235 13.3589C100.481 12.8315 100.833 12.3701 101.29 11.9746C101.755 11.5791 102.322 11.2759 102.99 11.0649C103.667 10.8452 104.436 10.7354 105.297 10.7354Z" fill="#008C95"/>
</svg>
