<svg width="241" height="65" viewBox="0 0 241 65" fill="none" xmlns="http://www.w3.org/2000/svg">
<path d="M190.01 46.1028C190.01 56.0063 181.989 64.0278 172.085 64.0278C162.182 64.0278 154.16 56.0063 154.16 46.1028C154.16 36.2067 162.182 28.1777 172.085 28.1777C181.989 28.1777 190.01 36.2067 190.01 46.1028Z" fill="white"/>
<path d="M171.328 57.9711C171.022 58.591 170.275 58.8524 169.648 58.5536C169.02 58.2549 168.766 57.508 169.072 56.8806L170.238 54.2815L162.224 57.9636C161.701 58.2026 161.081 57.9785 160.834 57.4557C160.595 56.9329 160.819 56.313 161.342 56.074L166.085 53.9006L165.936 53.5645L159.766 56.3952C159.244 56.6342 158.624 56.4101 158.385 55.8873C158.146 55.3645 158.37 54.7445 158.892 54.4981L165.084 51.6525L164.935 51.3164L160.61 53.2956C160.088 53.5346 159.468 53.3105 159.221 52.7877C158.982 52.2649 159.206 51.645 159.729 51.3985L164.076 49.4044L163.919 49.0459L160.984 50.4127C160.461 50.6517 159.841 50.4276 159.595 49.9048C159.356 49.382 159.58 48.7621 160.102 48.5156L163.06 47.1339L167.952 44.8783L167.96 44.8709L170.955 44.6393L176.608 42.0327L180.066 49.5314L174.502 52.1006L171.328 57.9711Z" fill="#77E2C3"/>
<path d="M173.112 34.2438C173.419 33.6239 174.165 33.3625 174.793 33.6612C175.42 33.96 175.674 34.7068 175.368 35.3342L174.024 38.2694L181.948 34.5724C182.471 34.3334 183.091 34.5575 183.337 35.0803C183.576 35.6031 183.352 36.223 182.829 36.4695L178.176 38.6504L178.326 38.9865L184.405 36.1483C184.928 35.9093 185.548 36.1334 185.794 36.6562C186.033 37.179 185.809 37.7989 185.286 38.0379L179.177 40.891L179.326 41.2271L183.561 39.2404C184.084 39.0014 184.704 39.2255 184.95 39.7483C185.189 40.2711 184.965 40.891 184.442 41.1375L180.178 43.1391L180.335 43.4976L183.076 42.2129C183.598 41.9739 184.218 42.198 184.465 42.7208C184.704 43.2437 184.48 43.8636 183.957 44.11L181.186 45.4021L176.294 47.6577L176.287 47.6652L173.292 47.8967L167.638 50.5033L164.18 43.0121L169.744 40.4429L173.112 34.2438Z" fill="#77E2C3"/>
<path d="M176.627 42.0327L170.973 44.6468L167.978 44.8783H167.971L165.551 45.9986L167.635 50.5098L173.296 47.9032L176.283 47.6716L176.291 47.6642L178.711 46.5513L176.627 42.0327Z" fill="#008C95"/>
<path d="M139.221 46.1028C139.221 56.0063 131.2 64.0278 121.296 64.0278C111.393 64.0278 103.371 56.0063 103.371 46.1028C103.371 36.2067 111.393 28.1777 121.296 28.1777C131.2 28.1777 139.221 36.2067 139.221 46.1028Z" fill="white"/>
<path d="M133.535 44.3622L131.839 44.9746L128.605 36.1241L130.301 35.5117C132.743 34.6229 135.454 35.8852 136.343 38.3274C137.239 40.7623 135.977 43.4659 133.535 44.3622ZM132.489 43.578L133.161 43.339C135.036 42.6518 136.007 40.5681 135.32 38.6934C134.633 36.8187 132.549 35.8478 130.674 36.5349L130.002 36.7739L132.489 43.578Z" fill="#77E2C3"/>
<path d="M119.713 49.3975L118.085 49.9651C115.642 50.8539 112.931 49.5917 112.042 47.1494C111.154 44.7071 112.416 41.996 114.858 41.1072L116.486 40.5396L119.713 49.3975ZM115.232 42.1379C113.357 42.825 112.386 44.9088 113.073 46.7834C113.76 48.6581 115.844 49.629 117.719 48.9419L118.316 48.7552L115.837 41.9512L115.232 42.1379Z" fill="#008C95"/>
<path d="M115.348 40.9873L122.189 36.984L130.001 35.6396L133.228 44.4827L126.401 48.5382L118.567 49.8303L115.348 40.9873Z" fill="#77E2C3"/>
<path d="M129.256 38.0588L123.057 39.3883L117.433 42.2862L117.156 41.5169L122.773 38.5966L128.979 37.2896L129.256 38.0588Z" fill="white"/>
<path d="M119.301 47.4119L125.522 46.1347L131.131 43.1846L131.408 43.9464L125.814 46.9264L119.585 48.1812L119.301 47.4119Z" fill="white"/>
<path d="M128.143 50.8978L125.992 51.7194L122.766 42.8689L124.917 42.0473C127.359 41.1586 130.07 42.4208 130.959 44.8631C131.848 47.2979 130.585 50.0016 128.143 50.8978ZM126.642 50.3153L127.77 49.8671C129.644 49.18 130.615 47.1037 129.928 45.2216C129.241 43.3469 127.165 42.376 125.283 43.0631L124.155 43.5112L126.642 50.3153Z" fill="#008C95"/>
<path d="M113.864 56.1412L112.296 56.7088C109.853 57.5976 107.142 56.3353 106.253 53.8931C105.365 51.4508 106.627 48.7396 109.069 47.8508L110.638 47.2832L113.864 56.1412ZM109.435 48.8741C107.56 49.5612 106.589 51.645 107.277 53.5196C107.964 55.3943 110.04 56.3652 111.922 55.6781L112.467 55.4914L109.988 48.6873L109.435 48.8741Z" fill="#77E2C3"/>
<path d="M109.484 47.7324L116.333 43.7217L124.146 42.3848L127.365 51.2203L120.546 55.2833L112.711 56.5679L109.484 47.7324Z" fill="#77E2C3"/>
<path d="M124.152 42.3848L116.34 43.7217L118.566 49.8311L126.4 48.539L124.152 42.3848Z" fill="#008C95"/>
<path d="M123.408 44.7955L117.209 46.1324L111.585 49.0303L111.309 48.261L116.925 45.3333L123.132 44.0337L123.408 44.7955Z" fill="white"/>
<path d="M113.453 54.1552L119.675 52.8706L125.276 49.9204L125.56 50.6897L119.958 53.6697L113.737 54.917L113.453 54.1552Z" fill="white"/>
<path d="M124.178 46.9115L112.602 51.1348L112.886 51.9135L124.462 47.6903L124.178 46.9115Z" fill="white"/>
<path d="M88.4321 46.1028C88.4321 56.0063 80.4032 64.0278 70.5071 64.0278C60.6035 64.0278 52.582 56.0063 52.582 46.1028C52.582 36.2067 60.6035 28.1777 70.5071 28.1777C80.4106 28.1777 88.4321 36.2067 88.4321 46.1028Z" fill="white"/>
<path d="M68.9645 51.0409L62.168 44.2443V42.9149L72.9753 32.1001H74.3047L81.1013 38.9041V40.2336L70.294 51.0409H68.9645Z" fill="#77E2C3"/>
<path d="M78.142 40.0254H76.2822C75.9237 40.0254 75.625 39.7341 75.625 39.3682C75.625 39.0022 75.9163 38.7109 76.2822 38.7109H78.142C78.5005 38.7109 78.7992 39.0022 78.7992 39.3682C78.7992 39.7341 78.5079 40.0254 78.142 40.0254Z" fill="white"/>
<path d="M75.4115 42.7579H73.5518C73.1933 42.7579 72.8945 42.4666 72.8945 42.1006C72.8945 41.7346 73.1933 41.4434 73.5518 41.4434H75.4115C75.77 41.4434 76.0688 41.7346 76.0688 42.1006C76.0688 42.4666 75.77 42.7579 75.4115 42.7579Z" fill="white"/>
<path d="M72.6811 45.4918H70.8213C70.4628 45.4918 70.1641 45.2005 70.1641 44.8345C70.1641 44.4685 70.4553 44.1772 70.8213 44.1772H72.6811C73.0396 44.1772 73.3383 44.4685 73.3383 44.8345C73.3383 45.2005 73.0396 45.4918 72.6811 45.4918Z" fill="white"/>
<path d="M69.9467 48.2247H68.0869C67.7284 48.2247 67.4297 47.9334 67.4297 47.5674C67.4297 47.2014 67.7284 46.9102 68.0869 46.9102H69.9467C70.3052 46.9102 70.6039 47.2014 70.6039 47.5674C70.6039 47.9334 70.3052 48.2247 69.9467 48.2247Z" fill="white"/>
<path d="M74.8568 36.7447H72.9971C72.6386 36.7447 72.3398 36.4534 72.3398 36.0874C72.3398 35.7215 72.6311 35.4302 72.9971 35.4302H74.8568C75.2153 35.4302 75.5141 35.7215 75.5141 36.0874C75.5141 36.4534 75.2228 36.7447 74.8568 36.7447Z" fill="white"/>
<path d="M72.1377 39.4786H70.2705C69.912 39.4786 69.6133 39.1873 69.6133 38.8213C69.6133 38.4553 69.912 38.1641 70.2705 38.1641H72.1303C72.4888 38.1641 72.7875 38.4553 72.7875 38.8213C72.7875 39.1873 72.4962 39.4786 72.1377 39.4786Z" fill="white"/>
<path d="M69.3998 42.2115H67.5401C67.1816 42.2115 66.8828 41.9202 66.8828 41.5542C66.8828 41.1883 67.1741 40.897 67.5401 40.897H69.3998C69.7583 40.897 70.057 41.1883 70.057 41.5542C70.057 41.9202 69.7583 42.2115 69.3998 42.2115Z" fill="white"/>
<path d="M66.6654 44.939H64.8057C64.4472 44.939 64.1484 44.6477 64.1484 44.2818C64.1484 43.9158 64.4472 43.6245 64.8057 43.6245H66.6654C67.0239 43.6245 67.3227 43.9158 67.3227 44.2818C67.3227 44.6477 67.0239 44.939 66.6654 44.939Z" fill="white"/>
<path d="M66.5911 60.108L59.9141 53.4235V52.094L70.6019 41.4062H71.9313L78.6158 48.0833V49.4202L67.9206 60.108H66.5911Z" fill="#77E2C3"/>
<path d="M71.9293 41.4062C71.4065 41.4062 71.1152 41.4062 70.5999 41.4062L64.9609 47.0452L68.9642 51.0484C69.487 51.0484 69.7708 51.0484 70.2936 51.0484L75.9326 45.4095L71.9293 41.4062Z" fill="#008C95"/>
<path d="M76.0248 48.7837H74.1651C73.8066 48.7837 73.5078 48.4925 73.5078 48.1265C73.5078 47.7605 73.8066 47.4692 74.1651 47.4692H76.0248C76.3833 47.4692 76.682 47.7605 76.682 48.1265C76.682 48.4925 76.3833 48.7837 76.0248 48.7837Z" fill="white"/>
<path d="M73.2904 51.5181H71.4307C71.0722 51.5181 70.7734 51.2268 70.7734 50.8609C70.7734 50.4949 71.0647 50.2036 71.4307 50.2036H73.2904C73.6489 50.2036 73.9477 50.4949 73.9477 50.8609C73.9477 51.2268 73.6564 51.5181 73.2904 51.5181Z" fill="white"/>
<path d="M70.5678 54.252H68.708C68.3495 54.252 68.0508 53.9607 68.0508 53.5948C68.0508 53.2288 68.3495 52.9375 68.708 52.9375H70.5678C70.9263 52.9375 71.225 53.2288 71.225 53.5948C71.225 53.9607 70.9263 54.252 70.5678 54.252Z" fill="white"/>
<path d="M67.8334 56.9859H65.9737C65.6152 56.9859 65.3164 56.6946 65.3164 56.3286C65.3164 55.9627 65.6077 55.6714 65.9737 55.6714H67.8334C68.1919 55.6714 68.4906 55.9627 68.4906 56.3286C68.4906 56.6946 68.1919 56.9859 67.8334 56.9859Z" fill="white"/>
<path d="M72.6811 45.4395H70.8213C70.4628 45.4395 70.1641 45.1482 70.1641 44.7822C70.1641 44.4163 70.4553 44.125 70.8213 44.125H72.6811C73.0396 44.125 73.3383 44.4163 73.3383 44.7822C73.3383 45.1482 73.0396 45.4395 72.6811 45.4395Z" fill="white"/>
<path d="M69.9467 48.1729H68.0869C67.7284 48.1729 67.4297 47.8816 67.4297 47.5157C67.4297 47.1497 67.721 46.8584 68.0869 46.8584H69.9467C70.3052 46.8584 70.6039 47.1497 70.6039 47.5157C70.6039 47.8816 70.3052 48.1729 69.9467 48.1729Z" fill="white"/>
<path d="M67.2123 50.898H65.3526C64.9941 50.898 64.6953 50.6067 64.6953 50.2407C64.6953 49.8748 64.9941 49.5835 65.3526 49.5835H67.2123C67.5708 49.5835 67.8695 49.8748 67.8695 50.2407C67.8695 50.6067 67.5708 50.898 67.2123 50.898Z" fill="white"/>
<path d="M64.4779 53.6319H62.6182C62.2597 53.6319 61.9609 53.3406 61.9609 52.9746C61.9609 52.6087 62.2522 52.3174 62.6182 52.3174H64.4779C64.8364 52.3174 65.1352 52.6087 65.1352 52.9746C65.1352 53.3406 64.8439 53.6319 64.4779 53.6319Z" fill="white"/>
<path d="M240.795 46.1028C240.795 56.0063 232.774 64.0278 222.87 64.0278C212.967 64.0278 204.945 56.0063 204.945 46.1028C204.945 36.2067 212.967 28.1777 222.87 28.1777C232.774 28.1777 240.795 36.2067 240.795 46.1028Z" fill="white"/>
<path d="M221.489 32.4951H214.453V34.2727H221.489V32.4951Z" fill="#77E2C3"/>
<path d="M223.386 36.1045H212.086V37.8821H223.386V36.1045Z" fill="#77E2C3"/>
<path d="M218.853 33.3848H217.023V36.6113H218.853V33.3848Z" fill="#77E2C3"/>
<path d="M218.587 53.1548H216.922V59.7124H218.587V53.1548Z" fill="#77E2C3"/>
<path d="M221.19 37.5303H214.453V52.7815H221.19V37.5303Z" fill="#77E2C3"/>
<path d="M219.782 42.4209H215.727V53.1535H219.782V42.4209Z" fill="#008C95"/>
<path d="M220.263 51.3467H215.371V54.9541H220.263V51.3467Z" fill="#77E2C3"/>
<path d="M232.786 43.5874H224.324V52.7814H232.786V43.5874Z" fill="#77E2C3"/>
<path d="M233.671 40.2568H223.387V43.5879H233.671V40.2568Z" fill="#008C95"/>
<path d="M37.6469 46.1028C37.6469 56.0063 29.6255 64.0278 19.7219 64.0278C9.81833 64.0278 1.79688 56.0063 1.79688 46.1028C1.79688 36.2067 9.81833 28.1777 19.7219 28.1777C29.6255 28.1777 37.6469 36.2067 37.6469 46.1028Z" fill="white"/>
<path d="M27.5651 51.7203C27.5651 56.112 23.3751 59.6746 18.2142 59.6746C13.0458 59.6746 8.86328 56.112 8.86328 51.7203C8.86328 47.3287 13.0532 43.7661 18.2142 43.7661C23.3751 43.7736 27.5651 47.3287 27.5651 51.7203Z" fill="#77E2C3"/>
<path d="M27.5651 47.6798C27.5651 52.0714 23.3751 55.634 18.2142 55.634C13.0458 55.634 8.86328 52.0714 8.86328 47.6798C8.86328 43.2882 13.0532 39.7256 18.2142 39.7256C23.3751 39.7256 27.5651 43.2882 27.5651 47.6798Z" fill="#77E2C3"/>
<path d="M18.2009 43.7734C13.8541 43.7734 10.2019 46.2904 9.15625 49.7036C10.2093 53.1168 13.8616 55.6338 18.2009 55.6338C22.5478 55.6338 26.2 53.1168 27.2456 49.7036C26.2 46.2904 22.5478 43.7734 18.2009 43.7734Z" fill="white"/>
<path d="M25.3456 53.3404C25.3456 55.3943 23.6651 57.0524 21.5888 57.0524C19.5125 57.0524 17.832 55.3943 17.832 53.3404C17.832 51.2865 19.5125 49.6284 21.5888 49.6284C23.6577 49.6284 25.3456 51.2865 25.3456 53.3404Z" fill="#008C95"/>
<path d="M17.8281 53.3404C17.8281 54.1993 18.1269 54.991 18.6198 55.6184C21.2936 55.5213 23.6762 54.4682 25.3044 52.8475C25.0579 51.0325 23.4894 49.6284 21.5849 49.6284C19.5086 49.6284 17.8281 51.2865 17.8281 53.3404Z" fill="#77E2C3"/>
<path d="M17.3026 50.0012C17.3026 51.4725 16.1001 52.66 14.6064 52.66C13.1201 52.66 11.9102 51.4725 11.9102 50.0012C11.9102 48.5298 13.1126 47.3423 14.6064 47.3423C16.0927 47.3423 17.3026 48.5373 17.3026 50.0012Z" fill="#77E2C3"/>
<path d="M24.6077 36.3423L18.9165 42.0932L18.6775 43.7513L17.0792 45.3496C16.7132 45.7156 16.7132 46.3056 17.0792 46.6641C17.4451 47.0226 18.0352 47.0301 18.3937 46.6641L19.992 45.0658L21.65 44.8268L27.3412 39.0833L24.6077 36.3423Z" fill="#77E2C3"/>
<path d="M20.9261 40.0688L18.9095 42.0854L18.6705 43.7435L17.1021 45.3119C16.7809 45.6331 16.6988 46.1559 16.9602 46.5293C17.3037 47.0223 17.9834 47.0671 18.3867 46.6638L19.985 45.0655L21.6431 44.8264L24.5933 41.8763C23.5626 41.0547 22.3153 40.4273 20.9261 40.0688Z" fill="#008C95"/>
<path d="M23.8567 35.5951L28.0915 39.8299C28.4948 39.9344 28.9354 39.8299 29.2566 39.5162C29.7271 39.0456 29.7271 38.2764 29.2566 37.7984L28.8906 37.4324L30.5412 35.7818C31.2881 35.0349 31.2881 33.8324 30.5412 33.0855C29.7943 32.3387 28.5919 32.3387 27.845 33.0855L26.1944 34.7362L25.8882 34.4299C25.4102 33.9594 24.6484 33.9594 24.1704 34.4299C23.8492 34.7511 23.7521 35.1918 23.8567 35.5951Z" fill="#008C95"/>
<path d="M9.16169 47.0225L8.85547 47.6797V51.7203L9.62475 51.9817L9.16169 49.7037V47.0225Z" fill="#77E2C3"/>
<path d="M26.8008 47.3423L27.2564 49.7024L26.8008 52.3463L27.5626 51.719V47.6784L26.8008 47.3423Z" fill="#77E2C3"/>
<path d="M5.62305 9.09668H2.96387V8.02344H5.62305C6.13802 8.02344 6.55501 7.94141 6.87402 7.77734C7.19303 7.61328 7.42546 7.38542 7.57129 7.09375C7.72168 6.80208 7.79688 6.4694 7.79688 6.0957C7.79688 5.75391 7.72168 5.43262 7.57129 5.13184C7.42546 4.83105 7.19303 4.58952 6.87402 4.40723C6.55501 4.22038 6.13802 4.12695 5.62305 4.12695H3.27148V13H1.95215V3.04688H5.62305C6.375 3.04688 7.01074 3.17676 7.53027 3.43652C8.0498 3.69629 8.44401 4.05632 8.71289 4.5166C8.98177 4.97233 9.11621 5.49414 9.11621 6.08203C9.11621 6.72005 8.98177 7.26465 8.71289 7.71582C8.44401 8.16699 8.0498 8.51107 7.53027 8.74805C7.01074 8.98047 6.375 9.09668 5.62305 9.09668ZM13.5664 13.1367C13.0514 13.1367 12.5843 13.0501 12.165 12.877C11.7503 12.6992 11.3926 12.4508 11.0918 12.1318C10.7956 11.8128 10.5677 11.4346 10.4082 10.9971C10.2487 10.5596 10.1689 10.0811 10.1689 9.56152V9.27441C10.1689 8.67285 10.2578 8.13737 10.4355 7.66797C10.6133 7.19401 10.8548 6.79297 11.1602 6.46484C11.4655 6.13672 11.8118 5.88835 12.1992 5.71973C12.5866 5.55111 12.9876 5.4668 13.4023 5.4668C13.931 5.4668 14.3867 5.55794 14.7695 5.74023C15.1569 5.92253 15.4736 6.17773 15.7197 6.50586C15.9658 6.82943 16.1481 7.21224 16.2666 7.6543C16.3851 8.0918 16.4443 8.57031 16.4443 9.08984V9.65723H10.9209V8.625H15.1797V8.5293C15.1615 8.20117 15.0931 7.88216 14.9746 7.57227C14.8607 7.26237 14.6784 7.00716 14.4277 6.80664C14.1771 6.60612 13.8353 6.50586 13.4023 6.50586C13.1152 6.50586 12.8509 6.56738 12.6094 6.69043C12.3678 6.80892 12.1605 6.98665 11.9873 7.22363C11.8141 7.46061 11.6797 7.75 11.584 8.0918C11.4883 8.43359 11.4404 8.8278 11.4404 9.27441V9.56152C11.4404 9.91243 11.4883 10.2428 11.584 10.5527C11.6842 10.8581 11.8278 11.127 12.0146 11.3594C12.2061 11.5918 12.4362 11.7741 12.7051 11.9062C12.9785 12.0384 13.2884 12.1045 13.6348 12.1045C14.0814 12.1045 14.4596 12.0133 14.7695 11.8311C15.0794 11.6488 15.3506 11.4049 15.583 11.0996L16.3486 11.708C16.1891 11.9495 15.9863 12.1797 15.7402 12.3984C15.4941 12.6172 15.1911 12.7949 14.8311 12.9316C14.4756 13.0684 14.054 13.1367 13.5664 13.1367ZM18.0303 5.60352H19.2949V11.9609H22.002V5.60352H23.2734V11.9609H25.9736V5.60352H27.2383V13H18.0303V5.60352ZM32.3242 13.1367C31.8092 13.1367 31.3421 13.0501 30.9229 12.877C30.5081 12.6992 30.1504 12.4508 29.8496 12.1318C29.5534 11.8128 29.3255 11.4346 29.166 10.9971C29.0065 10.5596 28.9268 10.0811 28.9268 9.56152V9.27441C28.9268 8.67285 29.0156 8.13737 29.1934 7.66797C29.3711 7.19401 29.6126 6.79297 29.918 6.46484C30.2233 6.13672 30.5697 5.88835 30.957 5.71973C31.3444 5.55111 31.7454 5.4668 32.1602 5.4668C32.6888 5.4668 33.1445 5.55794 33.5273 5.74023C33.9147 5.92253 34.2314 6.17773 34.4775 6.50586C34.7236 6.82943 34.9059 7.21224 35.0244 7.6543C35.1429 8.0918 35.2021 8.57031 35.2021 9.08984V9.65723H29.6787V8.625H33.9375V8.5293C33.9193 8.20117 33.8509 7.88216 33.7324 7.57227C33.6185 7.26237 33.4362 7.00716 33.1855 6.80664C32.9349 6.60612 32.5931 6.50586 32.1602 6.50586C31.873 6.50586 31.6087 6.56738 31.3672 6.69043C31.1257 6.80892 30.9183 6.98665 30.7451 7.22363C30.5719 7.46061 30.4375 7.75 30.3418 8.0918C30.2461 8.43359 30.1982 8.8278 30.1982 9.27441V9.56152C30.1982 9.91243 30.2461 10.2428 30.3418 10.5527C30.4421 10.8581 30.5856 11.127 30.7725 11.3594C30.9639 11.5918 31.194 11.7741 31.4629 11.9062C31.7363 12.0384 32.0462 12.1045 32.3926 12.1045C32.8392 12.1045 33.2174 12.0133 33.5273 11.8311C33.8372 11.6488 34.1084 11.4049 34.3408 11.0996L35.1064 11.708C34.9469 11.9495 34.7441 12.1797 34.498 12.3984C34.252 12.6172 33.9489 12.7949 33.5889 12.9316C33.2334 13.0684 32.8118 13.1367 32.3242 13.1367ZM41.6963 8.80957V9.83496H37.7861V8.80957H41.6963ZM38.0527 5.60352V13H36.7881V5.60352H38.0527ZM42.7217 5.60352V13H41.4502V5.60352H42.7217ZM46.126 10.9971L49.5371 5.60352H50.8086V13H49.5371V7.60645L46.126 13H44.8682V5.60352H46.126V10.9971ZM54.3359 9.47266H55.7031L53.5635 13H52.1963L54.3359 9.47266ZM55.3955 5.60352H58.4854V13H57.2207V6.62891H55.3955C55.0355 6.62891 54.7415 6.69043 54.5137 6.81348C54.2858 6.93197 54.1195 7.08691 54.0146 7.27832C53.9098 7.46973 53.8574 7.66797 53.8574 7.87305C53.8574 8.07357 53.9053 8.26725 54.001 8.4541C54.0967 8.63639 54.2471 8.78678 54.4521 8.90527C54.6572 9.02376 54.9215 9.08301 55.2451 9.08301H57.5625V10.1221H55.2451C54.8213 10.1221 54.4453 10.0651 54.1172 9.95117C53.7891 9.83724 53.5111 9.68001 53.2832 9.47949C53.0553 9.27441 52.8822 9.03516 52.7637 8.76172C52.6452 8.48372 52.5859 8.18294 52.5859 7.85938C52.5859 7.53581 52.6475 7.2373 52.7705 6.96387C52.8981 6.69043 53.0804 6.45117 53.3174 6.24609C53.5589 6.04102 53.8529 5.88379 54.1992 5.77441C54.5501 5.66048 54.9489 5.60352 55.3955 5.60352Z" fill="white"/>
</svg>
