<svg viewBox="0 0 1664 274" fill="none" xmlns="http://www.w3.org/2000/svg">
<path d="M99.3077 88.293H88.3672V103.015H99.3077V88.293Z" fill="#77E2C3"/>
<path d="M110.245 80.791H99.3047V91.9028H110.245V80.791Z" fill="#008C95"/>
<path d="M121.19 69.8516H110.25V103.016H121.19V69.8516Z" fill="#77E2C3"/>
<path d="M121.19 91.9043H110.25V103.016H121.19V91.9043Z" fill="#008C95"/>
<path d="M121.19 69.8516H110.25V80.9634H121.19V69.8516Z" fill="#008C95"/>
<path d="M14.1346 91.0196L12.6094 93.2383L23.3096 100.594L24.8348 98.3751L14.1346 91.0196Z" fill="#77E2C3"/>
<path d="M23.2778 83.418L12.582 90.293L14.0378 92.5577L24.7335 85.6828L23.2778 83.418Z" fill="#77E2C3"/>
<path d="M37.1532 80.9746H34.4609V89.1372H37.1532V80.9746Z" fill="#77E2C3"/>
<path d="M40.9088 89.1387H30.8984V97.9008H40.9088V89.1387Z" fill="#008C95"/>
<path d="M25.3681 104.459H22.6881V80.9384H14.0361V104.459H11.3438V78.2461H25.3681V104.459Z" fill="#77E2C3"/>
<path d="M39.8926 80.9763V76.6442L15.0746 68.4082L2.26172 75.2123V80.9763H39.8926Z" fill="#77E2C3"/>
<path d="M15.0763 68.4082L11.3438 70.3907V80.9763H25.3681V71.8225L15.0763 68.4082Z" fill="#008C95"/>
<path d="M17.0068 14.7959V16.0088C17.0068 17.4502 16.8267 18.7422 16.4663 19.8848C16.106 21.0273 15.5874 21.9985 14.9106 22.7983C14.2339 23.5981 13.4209 24.209 12.4717 24.6309C11.5312 25.0527 10.4766 25.2637 9.30762 25.2637C8.17383 25.2637 7.13232 25.0527 6.18311 24.6309C5.24268 24.209 4.42529 23.5981 3.73096 22.7983C3.04541 21.9985 2.51367 21.0273 2.13574 19.8848C1.75781 18.7422 1.56885 17.4502 1.56885 16.0088V14.7959C1.56885 13.3545 1.75342 12.0669 2.12256 10.9331C2.50049 9.79053 3.03223 8.81934 3.71777 8.01953C4.40332 7.21094 5.21631 6.5957 6.15674 6.17383C7.10596 5.75195 8.14746 5.54102 9.28125 5.54102C10.4502 5.54102 11.5049 5.75195 12.4453 6.17383C13.3945 6.5957 14.2075 7.21094 14.8843 8.01953C15.5698 8.81934 16.0928 9.79053 16.4531 10.9331C16.8223 12.0669 17.0068 13.3545 17.0068 14.7959ZM14.4888 16.0088V14.7695C14.4888 13.627 14.3701 12.6162 14.1328 11.7373C13.9043 10.8584 13.5659 10.1201 13.1177 9.52246C12.6694 8.9248 12.1201 8.47217 11.4697 8.16455C10.8281 7.85693 10.0986 7.70312 9.28125 7.70312C8.49023 7.70312 7.77393 7.85693 7.13232 8.16455C6.49951 8.47217 5.95459 8.9248 5.49756 9.52246C5.04932 10.1201 4.70215 10.8584 4.45605 11.7373C4.20996 12.6162 4.08691 13.627 4.08691 14.7695V16.0088C4.08691 17.1602 4.20996 18.1797 4.45605 19.0674C4.70215 19.9463 5.05371 20.689 5.51074 21.2954C5.97656 21.8931 6.52588 22.3457 7.15869 22.6533C7.80029 22.9609 8.5166 23.1147 9.30762 23.1147C10.1338 23.1147 10.8677 22.9609 11.5093 22.6533C12.1509 22.3457 12.6914 21.8931 13.1309 21.2954C13.5791 20.689 13.9175 19.9463 14.146 19.0674C14.3745 18.1797 14.4888 17.1602 14.4888 16.0088ZM29.5972 4.52588H31.6011C31.6011 5.38721 31.4692 6.07275 31.2056 6.58252C30.9419 7.0835 30.5815 7.47021 30.1245 7.74268C29.6763 8.01514 29.1665 8.22168 28.5952 8.3623C28.0327 8.50293 27.4482 8.63916 26.8418 8.771C26.0859 8.9292 25.3828 9.17969 24.7324 9.52246C24.0908 9.85645 23.5371 10.3311 23.0713 10.9463C22.6143 11.5615 22.2759 12.3613 22.0562 13.3457C21.8452 14.3301 21.7881 15.5474 21.8848 16.9976V18.2104H19.8809V16.9976C19.8809 15.3716 20.0347 13.9521 20.3423 12.7393C20.6587 11.5264 21.1025 10.5024 21.6738 9.66748C22.2451 8.83252 22.9219 8.16895 23.7041 7.67676C24.4951 7.18457 25.3652 6.84619 26.3145 6.66162C27 6.52979 27.5889 6.38916 28.0811 6.23975C28.5732 6.08154 28.9468 5.87061 29.2017 5.60693C29.4653 5.34326 29.5972 4.98291 29.5972 4.52588ZM26.71 11.5527C27.6416 11.5527 28.4722 11.7153 29.2017 12.0405C29.9312 12.3657 30.5508 12.8184 31.0605 13.3984C31.5703 13.9785 31.957 14.6641 32.2207 15.4551C32.4932 16.2373 32.6294 17.0898 32.6294 18.0127V18.3027C32.6294 19.2959 32.4844 20.2188 32.1943 21.0713C31.9131 21.915 31.4956 22.6533 30.9419 23.2861C30.397 23.9102 29.729 24.3979 28.938 24.7495C28.1558 25.1011 27.2637 25.2769 26.2617 25.2769C25.2598 25.2769 24.3633 25.1011 23.5723 24.7495C22.79 24.3979 22.1221 23.9102 21.5684 23.2861C21.0146 22.6533 20.5928 21.915 20.3027 21.0713C20.0215 20.2188 19.8809 19.2959 19.8809 18.3027V18.0127C19.8809 17.793 19.9204 17.5776 19.9995 17.3667C20.0786 17.1558 20.1753 16.9404 20.2896 16.7207C20.4126 16.501 20.5225 16.2681 20.6191 16.022C20.9443 15.231 21.3882 14.4971 21.9507 13.8203C22.522 13.1436 23.2031 12.5986 23.9941 12.1855C24.7939 11.7637 25.6992 11.5527 26.71 11.5527ZM26.2354 13.5435C25.3389 13.5435 24.6006 13.75 24.0205 14.1631C23.4492 14.5762 23.0229 15.1255 22.7417 15.811C22.4604 16.4878 22.3198 17.2217 22.3198 18.0127V18.3027C22.3198 18.9707 22.3989 19.6035 22.5571 20.2012C22.7153 20.7988 22.9526 21.3306 23.269 21.7964C23.5942 22.2534 24.0029 22.6138 24.4951 22.8774C24.9961 23.1411 25.585 23.2729 26.2617 23.2729C26.9385 23.2729 27.5229 23.1411 28.0151 22.8774C28.5073 22.6138 28.9116 22.2534 29.228 21.7964C29.5444 21.3306 29.7817 20.7988 29.9399 20.2012C30.0981 19.6035 30.1772 18.9707 30.1772 18.3027V18.0127C30.1772 17.415 30.0981 16.8481 29.9399 16.312C29.7817 15.7759 29.54 15.3013 29.2148 14.8882C28.8984 14.4751 28.4897 14.1499 27.9888 13.9126C27.4966 13.6665 26.9121 13.5435 26.2354 13.5435ZM41.4492 18.0259V17.7227C41.4492 16.6943 41.5986 15.7407 41.8975 14.8618C42.1963 13.9741 42.627 13.2051 43.1895 12.5547C43.752 11.8955 44.4331 11.3857 45.2329 11.0254C46.0327 10.6562 46.9292 10.4717 47.9224 10.4717C48.9243 10.4717 49.8252 10.6562 50.625 11.0254C51.4336 11.3857 52.1191 11.8955 52.6816 12.5547C53.2529 13.2051 53.688 13.9741 53.9868 14.8618C54.2856 15.7407 54.4351 16.6943 54.4351 17.7227V18.0259C54.4351 19.0542 54.2856 20.0078 53.9868 20.8867C53.688 21.7656 53.2529 22.5347 52.6816 23.1938C52.1191 23.8442 51.438 24.354 50.6382 24.7231C49.8472 25.0835 48.9507 25.2637 47.9487 25.2637C46.9468 25.2637 46.0459 25.0835 45.2461 24.7231C44.4463 24.354 43.7607 23.8442 43.1895 23.1938C42.627 22.5347 42.1963 21.7656 41.8975 20.8867C41.5986 20.0078 41.4492 19.0542 41.4492 18.0259ZM43.8882 17.7227V18.0259C43.8882 18.7378 43.9717 19.4102 44.1387 20.043C44.3057 20.667 44.5562 21.2207 44.8901 21.7041C45.2329 22.1875 45.6592 22.5698 46.1689 22.8511C46.6787 23.1235 47.272 23.2598 47.9487 23.2598C48.6167 23.2598 49.2012 23.1235 49.7021 22.8511C50.2119 22.5698 50.6338 22.1875 50.9678 21.7041C51.3018 21.2207 51.5522 20.667 51.7192 20.043C51.895 19.4102 51.9829 18.7378 51.9829 18.0259V17.7227C51.9829 17.0195 51.895 16.356 51.7192 15.7319C51.5522 15.0991 51.2974 14.541 50.9546 14.0576C50.6206 13.5654 50.1987 13.1787 49.689 12.8975C49.188 12.6162 48.5991 12.4756 47.9224 12.4756C47.2544 12.4756 46.6655 12.6162 46.1558 12.8975C45.6548 13.1787 45.2329 13.5654 44.8901 14.0576C44.5562 14.541 44.3057 15.0991 44.1387 15.7319C43.9717 16.356 43.8882 17.0195 43.8882 17.7227ZM63.0176 10.7354V25H60.5654V10.7354H63.0176ZM67.8032 10.7354V12.7129H55.8721V10.7354H67.8032ZM72.6416 13.4775V30.4844H70.1895V10.7354H72.4307L72.6416 13.4775ZM82.2524 17.749V18.0259C82.2524 19.063 82.1294 20.0254 81.8833 20.9131C81.6372 21.792 81.2769 22.5566 80.8022 23.207C80.3364 23.8574 79.7607 24.3628 79.0752 24.7231C78.3896 25.0835 77.603 25.2637 76.7153 25.2637C75.8101 25.2637 75.0103 25.1143 74.3159 24.8154C73.6216 24.5166 73.0327 24.0815 72.5493 23.5103C72.0659 22.939 71.6792 22.2534 71.3892 21.4536C71.1079 20.6538 70.9146 19.7529 70.8091 18.751V17.2744C70.9146 16.2197 71.1123 15.2749 71.4023 14.4399C71.6924 13.605 72.0747 12.8931 72.5493 12.3042C73.0327 11.7065 73.6172 11.2539 74.3027 10.9463C74.9883 10.6299 75.7793 10.4717 76.6758 10.4717C77.5723 10.4717 78.3677 10.6475 79.062 10.999C79.7563 11.3418 80.3408 11.834 80.8154 12.4756C81.29 13.1172 81.646 13.8862 81.8833 14.7827C82.1294 15.6704 82.2524 16.6592 82.2524 17.749ZM79.8003 18.0259V17.749C79.8003 17.0371 79.7256 16.3691 79.5762 15.7451C79.4268 15.1123 79.1938 14.5586 78.8774 14.084C78.5698 13.6006 78.1743 13.2227 77.6909 12.9502C77.2075 12.6689 76.6318 12.5283 75.9639 12.5283C75.3486 12.5283 74.8125 12.6338 74.3555 12.8447C73.9072 13.0557 73.5249 13.3413 73.2085 13.7017C72.8921 14.0532 72.6328 14.4575 72.4307 14.9146C72.2373 15.3628 72.0923 15.8286 71.9956 16.312V19.7266C72.1714 20.3418 72.4175 20.9219 72.7339 21.4668C73.0503 22.0029 73.4722 22.438 73.9995 22.772C74.5269 23.0972 75.1904 23.2598 75.9902 23.2598C76.6494 23.2598 77.2163 23.1235 77.6909 22.8511C78.1743 22.5698 78.5698 22.1875 78.8774 21.7041C79.1938 21.2207 79.4268 20.667 79.5762 20.043C79.7256 19.4102 79.8003 18.7378 79.8003 18.0259ZM93.7749 22.561V15.2178C93.7749 14.6553 93.6606 14.1675 93.4321 13.7544C93.2124 13.3325 92.8784 13.0073 92.4302 12.7788C91.9819 12.5503 91.4282 12.436 90.769 12.436C90.1538 12.436 89.6133 12.5415 89.1475 12.7524C88.6904 12.9634 88.3301 13.2402 88.0664 13.583C87.8115 13.9258 87.6841 14.2949 87.6841 14.6904H85.2451C85.2451 14.1807 85.377 13.6753 85.6406 13.1743C85.9043 12.6733 86.2822 12.2207 86.7744 11.8164C87.2754 11.4033 87.873 11.0781 88.5674 10.8408C89.2705 10.5947 90.0527 10.4717 90.9141 10.4717C91.9512 10.4717 92.8652 10.6475 93.6562 10.999C94.4561 11.3506 95.0801 11.8823 95.5283 12.5942C95.9854 13.2974 96.2139 14.1807 96.2139 15.2441V21.8887C96.2139 22.3633 96.2534 22.8687 96.3325 23.4048C96.4204 23.9409 96.5479 24.4023 96.7148 24.7891V25H94.1704C94.0474 24.7188 93.9507 24.3452 93.8804 23.8794C93.8101 23.4048 93.7749 22.9653 93.7749 22.561ZM94.1968 16.3516L94.2231 18.0654H91.7578C91.0635 18.0654 90.4438 18.1226 89.8989 18.2368C89.354 18.3423 88.897 18.5049 88.5278 18.7246C88.1587 18.9443 87.8774 19.2212 87.6841 19.5552C87.4907 19.8804 87.394 20.2627 87.394 20.7021C87.394 21.1504 87.4951 21.5591 87.6973 21.9282C87.8994 22.2974 88.2026 22.5918 88.6069 22.8115C89.02 23.0225 89.5254 23.1279 90.123 23.1279C90.8701 23.1279 91.5293 22.9697 92.1006 22.6533C92.6719 22.3369 93.1245 21.9502 93.4585 21.4932C93.8013 21.0361 93.9858 20.5923 94.0122 20.1616L95.0537 21.335C94.9922 21.7041 94.8252 22.1128 94.5527 22.561C94.2803 23.0093 93.9155 23.4399 93.4585 23.853C93.0103 24.2573 92.4741 24.5957 91.8501 24.8682C91.2349 25.1318 90.5405 25.2637 89.7671 25.2637C88.8003 25.2637 87.9521 25.0747 87.2227 24.6968C86.502 24.3188 85.9395 23.8135 85.5352 23.1807C85.1396 22.5391 84.9419 21.8228 84.9419 21.0317C84.9419 20.2671 85.0913 19.5947 85.3901 19.0146C85.689 18.4258 86.1196 17.938 86.6821 17.5513C87.2446 17.1558 87.9214 16.8569 88.7124 16.6548C89.5034 16.4526 90.3867 16.3516 91.3623 16.3516H94.1968ZM105.759 23.2598C106.339 23.2598 106.875 23.1411 107.367 22.9038C107.859 22.6665 108.264 22.3413 108.58 21.9282C108.896 21.5063 109.077 21.0273 109.121 20.4912H111.441C111.397 21.335 111.111 22.1216 110.584 22.8511C110.065 23.5718 109.384 24.1562 108.541 24.6045C107.697 25.0439 106.77 25.2637 105.759 25.2637C104.687 25.2637 103.75 25.0747 102.951 24.6968C102.16 24.3188 101.5 23.8003 100.973 23.1411C100.455 22.4819 100.063 21.7261 99.7998 20.8735C99.5449 20.0122 99.4175 19.1025 99.4175 18.1445V17.5908C99.4175 16.6328 99.5449 15.7275 99.7998 14.875C100.063 14.0137 100.455 13.2534 100.973 12.5942C101.5 11.9351 102.16 11.4165 102.951 11.0386C103.75 10.6606 104.687 10.4717 105.759 10.4717C106.875 10.4717 107.851 10.7002 108.686 11.1572C109.521 11.6055 110.175 12.2207 110.65 13.0029C111.133 13.7764 111.397 14.6553 111.441 15.6396H109.121C109.077 15.0508 108.91 14.519 108.62 14.0444C108.338 13.5698 107.952 13.1919 107.459 12.9106C106.976 12.6206 106.409 12.4756 105.759 12.4756C105.012 12.4756 104.383 12.625 103.874 12.9238C103.373 13.2139 102.973 13.6094 102.674 14.1104C102.384 14.6025 102.173 15.1519 102.041 15.7583C101.918 16.356 101.856 16.9668 101.856 17.5908V18.1445C101.856 18.7686 101.918 19.3838 102.041 19.9902C102.164 20.5967 102.371 21.146 102.661 21.6382C102.959 22.1304 103.359 22.5259 103.86 22.8247C104.37 23.1147 105.003 23.2598 105.759 23.2598ZM123.715 10.7354V12.7524H116.82V10.7354H123.715ZM125.864 10.7354V25H123.425V10.7354H125.864ZM116.227 10.7354H118.679L118.31 17.6172C118.248 18.6807 118.147 19.6211 118.006 20.4385C117.875 21.2471 117.69 21.9414 117.453 22.5215C117.224 23.1016 116.934 23.5762 116.583 23.9453C116.24 24.3057 115.827 24.5737 115.343 24.7495C114.86 24.9165 114.302 25 113.669 25H112.904V22.8511L113.432 22.8115C113.81 22.7852 114.13 22.6973 114.394 22.5479C114.667 22.3984 114.895 22.1787 115.08 21.8887C115.264 21.5898 115.414 21.2075 115.528 20.7417C115.651 20.2759 115.743 19.7222 115.805 19.0806C115.875 18.439 115.928 17.6919 115.963 16.8394L116.227 10.7354ZM132.429 21.1372L139.008 10.7354H141.46V25H139.008V14.5981L132.429 25H130.003V10.7354H132.429V21.1372Z" fill="#008C95"/>
<path d="M688.059 270.672V235.109L702.169 238.034V267.368L688.059 270.672ZM693.174 241.338V264.284L697.078 263.293V242.232L693.174 241.338Z" fill="#77E2C3"/>
<path d="M710.723 270.501H688.059V235.049H710.723V270.501ZM693.174 265.398H705.62V240.164H693.174V265.398Z" fill="#77E2C3"/>
<path d="M702.181 267.368V265.398H693.174V264.284V241.338V240.163H702.181V238.034L688.059 235.109V270.501H688.781L702.181 267.368Z" fill="#008C95"/>
<path d="M725.532 270.501H705.621V235.049H725.532V270.501ZM710.724 265.398H720.417V240.164H710.724V265.398Z" fill="#77E2C3"/>
<path d="M710.724 235.722V235.049H705.621V235.722V239.491V240.164H710.724V239.491V235.722Z" fill="#008C95"/>
<path d="M710.724 266.07V265.396H705.621V266.07V269.839V270.5H710.724V269.839V266.07Z" fill="#008C95"/>
<path d="M646.269 85.2702L625.881 71.1602L600.867 88.452L615.724 98.7683V98.7316L621.476 102.758L646.269 85.2702Z" fill="#77E2C3"/>
<path d="M629.576 85.3457L622.711 92.1988L629.576 96.9593V85.3457Z" fill="#008C95"/>
<path d="M622.713 80.5488L615.848 87.4019L622.713 92.1746V80.5488Z" fill="#008C95"/>
<path d="M615.85 75.7852L608.984 82.6383L615.85 87.3987V75.7852Z" fill="#008C95"/>
<path d="M622.713 80.5456L615.848 75.7852V87.3987L622.713 80.5456Z" fill="#77E2C3"/>
<path d="M629.576 85.3215L622.711 80.5488V92.1746L629.576 85.3215Z" fill="#77E2C3"/>
<path d="M638.134 79.6289L631.195 86.433L638.024 91.0956L638.134 79.6289Z" fill="#008C95"/>
<path d="M631.264 74.8691L624.398 81.7222L631.264 86.4827V74.8691Z" fill="#008C95"/>
<path d="M624.4 70.0957L617.535 76.961L624.4 81.7215V70.0957Z" fill="#008C95"/>
<path d="M631.264 74.8684L624.398 70.0957V81.7215L631.264 74.8684Z" fill="#77E2C3"/>
<path d="M638.131 79.6296L631.266 74.8691V86.4827L638.131 79.6296Z" fill="#77E2C3"/>
<path d="M629.624 97.0083L621.449 91.1465V102.772L629.624 97.0083Z" fill="#77E2C3"/>
<path d="M621.451 91.1465L614.586 98.0118L621.451 102.772V91.1465Z" fill="#008C95"/>
<path d="M614.584 86.3594L607.719 93.2124L614.584 97.9852V86.3594Z" fill="#008C95"/>
<path d="M621.451 91.1321L614.586 86.3594V97.9852L621.451 91.1321Z" fill="#77E2C3"/>
<path d="M607.72 81.5879L600.867 88.4532L607.72 93.2137V81.5879Z" fill="#008C95"/>
<path d="M614.584 86.3606L607.719 81.5879V93.2137L614.584 86.3606Z" fill="#77E2C3"/>
<path d="M545.689 184.677H524.738V179.231H545.689C547.5 179.231 548.969 177.763 548.969 175.951C548.969 174.14 547.5 172.672 545.689 172.672H536.119C531.31 172.672 527.394 168.756 527.394 163.946V163.347C527.394 158.537 531.31 154.621 536.119 154.621H556.067V160.067H536.119C534.308 160.067 532.84 161.535 532.84 163.347V163.946C532.84 165.757 534.308 167.226 536.119 167.226H545.689C550.499 167.226 554.415 171.142 554.415 175.951C554.415 180.761 550.499 184.677 545.689 184.677Z" fill="#77E2C3"/>
<path d="M543.954 164.436H538.508V175.535H543.954V164.436Z" fill="#77E2C3"/>
<path d="M543.954 167.229H538.508V172.674H543.954V167.229Z" fill="#008C95"/>
<path d="M551.297 151.809H545.852V162.908H551.297V151.809Z" fill="#77E2C3"/>
<path d="M551.297 154.633H545.852V160.079H551.297V154.633Z" fill="#008C95"/>
<path d="M535.692 176.404H530.246V187.504H535.692V176.404Z" fill="#77E2C3"/>
<path d="M535.692 179.23H530.246V184.676H535.692V179.23Z" fill="#008C95"/>
<path d="M698.672 104.532H714.936V78.6738H698.672V104.532ZM710.616 100.212H702.98V82.9815H710.616V100.212Z" fill="#77E2C3"/>
<path d="M687.195 104.532H702.994V78.6738H687.195V104.532ZM698.674 100.212H691.503V82.9815H698.674V100.212Z" fill="#77E2C3"/>
<path d="M710.613 94.2039H726.412V68.3457H710.613V94.2039ZM722.092 89.884H714.921V72.6533H722.092V89.884Z" fill="#77E2C3"/>
<path d="M698.672 94.2039H714.936V68.3457H698.672V94.2039ZM710.616 89.884H702.98V72.6533H710.616V89.884Z" fill="#77E2C3"/>
<path d="M702.98 78.6738V82.9815V94.2034H698.672V78.6738H702.98Z" fill="#008C95"/>
<path d="M710.613 89.8835V82.9815V78.6738H714.933V94.2034H710.613V89.8835Z" fill="#008C95"/>
<path d="M792.752 75.2266H779.303C773.111 75.2266 768.105 80.244 768.105 86.4363C768.105 92.6285 773.123 97.646 779.303 97.646H792.752V75.2266Z" fill="#77E2C3"/>
<path d="M792.753 97.646C787.075 97.646 782.461 92.6285 782.461 86.4363C782.461 80.244 787.075 75.2266 792.753 75.2266C798.431 75.2266 803.045 80.244 803.045 86.4363C803.045 92.6285 798.431 97.646 792.753 97.646Z" fill="#008C95"/>
<path d="M799.79 79.3242H793.487C789.89 79.3242 786.965 82.506 786.965 86.4343C786.965 90.3626 789.89 93.5444 793.487 93.5444C793.61 93.5444 793.732 93.5321 793.855 93.5199H799.79V79.3242Z" fill="white"/>
<path d="M799.952 93.5444C796.355 93.5444 793.43 90.3626 793.43 86.4343C793.43 82.506 796.355 79.3242 799.952 79.3242C803.55 79.3242 806.475 82.506 806.475 86.4343C806.487 90.3626 803.563 93.5444 799.952 93.5444Z" fill="#77E2C3"/>
<path d="M810.671 85.0371H804.442C804.442 85.0371 804.442 85.0371 804.43 85.0371C804.418 85.0371 804.43 85.0371 804.418 85.0371H800.33C800.33 85.0371 800.33 85.0371 800.318 85.0371C800.318 85.0371 800.318 85.0371 800.306 85.0371H795.986C795.986 85.0371 795.986 85.0371 795.974 85.0371C795.974 85.0371 795.974 85.0371 795.961 85.0371H795.839V85.0494C795.178 85.1228 794.664 85.7102 794.664 86.4322C794.664 87.1542 795.178 87.7539 795.839 87.8151V87.8273H810.622C811.344 87.8273 811.931 87.2032 811.931 86.42C811.931 85.6368 811.393 85.0371 810.671 85.0371Z" fill="#77E2C3"/>
<path d="M804.441 85.0376H800.354C800.354 85.0376 800.354 85.0376 800.341 85.0376C800.341 85.0376 800.341 85.0376 800.329 85.0376H796.009C796.009 85.0376 796.009 85.0376 795.997 85.0376C795.997 85.0376 795.997 85.0376 795.985 85.0376H795.862V85.0499C795.202 85.1233 794.688 85.7107 794.688 86.4327C794.688 87.1547 795.202 87.7544 795.862 87.8156V87.8278H806.326C806.411 87.375 806.46 86.91 806.46 86.4205C806.46 85.9432 806.411 85.4782 806.326 85.0254L804.441 85.0376Z" fill="#008C95"/>
<path d="M808.789 89.4199H797.909C797.579 89.4199 797.236 89.5545 796.979 89.836C796.465 90.3867 796.465 91.2678 796.979 91.8185C797.236 92.0877 797.567 92.2346 797.909 92.2346H808.789C809.511 92.2346 810.098 91.6105 810.098 90.8272C810.098 90.044 809.511 89.4199 808.789 89.4199Z" fill="#77E2C3"/>
<path d="M797.909 89.4199C797.579 89.4199 797.236 89.5545 796.979 89.836C796.465 90.3867 796.465 91.2678 796.979 91.8185C797.236 92.0877 797.567 92.2346 797.909 92.2346H803.734C804.652 91.5248 805.387 90.558 805.876 89.4321H797.909V89.4199Z" fill="#008C95"/>
<path d="M797.907 83.4489C797.944 83.4489 797.98 83.4367 798.029 83.4367V83.4489H808.799C809.521 83.4489 810.108 82.8248 810.108 82.0538C810.108 81.2828 809.521 80.6465 808.799 80.6465H798.029V80.6587C797.993 80.6587 797.956 80.6465 797.907 80.6465C797.185 80.6465 796.598 81.2706 796.598 82.0538C796.598 82.837 797.185 83.4489 797.907 83.4489Z" fill="#77E2C3"/>
<path d="M798.014 80.6587C797.977 80.6587 797.94 80.6465 797.891 80.6465C797.169 80.6465 796.582 81.2706 796.582 82.0416C796.582 82.8126 797.169 83.4489 797.891 83.4489C797.928 83.4489 797.965 83.4367 798.014 83.4367V83.4489H805.87C805.393 82.3231 804.647 81.3563 803.729 80.6465L798.014 80.6587Z" fill="#008C95"/>
<path d="M857.195 100.752V78.834H881.756V100.752L871.917 102.098L857.195 100.752Z" fill="#008C95"/>
<path d="M885.564 92.6141C885.564 96.2364 882.627 99.1735 879.005 99.1735C875.382 99.1735 872.445 96.2364 872.445 92.6141C872.445 88.9917 875.382 86.0547 879.005 86.0547C882.627 86.0547 885.564 89.0039 885.564 92.6141Z" fill="white"/>
<path d="M889.284 78.8331C889.284 73.4241 884.903 69.043 879.482 69.043C874.073 69.043 869.68 73.4241 869.68 78.8331V91.7683L878.283 83.1653L889.297 91.7683V78.8331H889.284Z" fill="#77E2C3"/>
<path d="M880.438 91.7683C880.524 94.6564 878.309 94.5096 878.309 94.5096C876.571 94.4484 875.849 93.3592 875.898 91.7683L875.017 90.6914L872.704 90.9851C872.704 90.9851 871.945 92.4781 871.945 92.625C871.945 92.7718 872.937 95.9781 872.937 95.9781L874.87 98.1319L877.526 98.0095C877.526 98.034 877.538 98.0585 877.538 98.0585C877.648 98.1075 878.896 98.1931 878.896 98.1931L881.76 97.2875L883.057 95.6599L883.742 91.7683H880.438Z" fill="#008C95"/>
<path d="M877.415 103.837H857.211V100.754H877.342C885.908 100.325 886.251 93.2274 886.227 91.8078V91.7589C886.227 88.0631 883.216 85.0526 879.52 85.0526C875.825 85.0526 872.814 88.0631 872.814 91.7589H869.73C869.73 86.3621 874.124 81.9688 879.52 81.9688C884.917 81.9688 889.31 86.3621 889.31 91.7589C889.323 92.9459 889.127 103.275 877.452 103.837H877.415Z" fill="white"/>
<path d="M877.955 100.665C875.789 100.665 873.782 99.8569 872.276 98.3884C871.114 97.2503 869.719 95.1699 869.719 91.7556H872.803C872.803 93.6157 873.366 95.1454 874.43 96.1734C875.36 97.079 876.609 97.5685 877.955 97.5685C880.537 97.5685 883.131 95.7696 883.131 91.7434C883.131 89.7486 881.504 88.121 879.509 88.121C877.514 88.121 875.886 89.7486 875.886 91.7434H872.803C872.803 88.0476 875.813 85.0371 879.509 85.0371C883.205 85.0371 886.215 88.0476 886.215 91.7434C886.215 97.6052 882.067 100.665 877.955 100.665Z" fill="#77E2C3"/>
<path d="M877.449 100.752C877.412 100.752 877.375 100.764 877.326 100.764H857.195V103.848H877.4H877.436C877.436 103.848 877.436 103.848 877.449 103.848V100.752Z" fill="#77E2C3"/>
<path d="M886.227 91.8185C886.251 93.2381 885.909 100.336 877.342 100.764H870.93V103.848H877.416H877.452C889.127 103.285 889.323 92.9566 889.311 91.7695H886.227V91.8185Z" fill="#008C95"/>
<path d="M967.604 66.8906H948.746V85.7489H967.604V66.8906Z" fill="#008C95"/>
<path d="M963.177 85.748H965.379L966.236 87.1309H962.332L963.177 85.748Z" fill="#008C95"/>
<path d="M957.083 85.748H959.285L960.13 87.1309H956.238L957.083 85.748Z" fill="#008C95"/>
<path d="M950.977 85.748H953.18L954.037 87.1309H950.133L950.977 85.748Z" fill="#008C95"/>
<path d="M963.177 85.748H965.379L966.236 87.1309H962.332L963.177 85.748Z" fill="#008C95"/>
<path d="M957.083 85.748H959.285L960.13 87.1309H956.238L957.083 85.748Z" fill="#008C95"/>
<path d="M950.977 85.748H953.18L954.037 87.1309H950.133L950.977 85.748Z" fill="#008C95"/>
<path d="M967.605 71.3187V69.1159L969.001 68.2715V72.1631L967.605 71.3187Z" fill="#008C95"/>
<path d="M967.605 77.4144V75.2116L969.001 74.3672V78.2588L967.605 77.4144Z" fill="#008C95"/>
<path d="M967.605 83.5204V81.3176L969.001 80.4609V84.3648L967.605 83.5204Z" fill="#008C95"/>
<path d="M953.18 66.8912H950.977L950.133 65.4961H954.037L953.18 66.8912Z" fill="#008C95"/>
<path d="M959.274 66.8912H957.083L956.227 65.4961H960.13L959.274 66.8912Z" fill="#008C95"/>
<path d="M965.379 66.8912H963.177L962.332 65.4961H966.224L965.379 66.8912Z" fill="#008C95"/>
<path d="M948.747 81.6608V83.8636L947.352 84.708V80.8164L948.747 81.6608Z" fill="#008C95"/>
<path d="M948.747 75.5676V77.7704L947.352 78.6148V74.7109L948.747 75.5676Z" fill="#008C95"/>
<path d="M948.747 69.4596V71.6624L947.352 72.5191V68.6152L948.747 69.4596Z" fill="#008C95"/>
<path d="M964.276 87.1289H945.418V105.987H964.276V87.1289Z" fill="#77E2C3"/>
<path d="M962.332 87.1431H960.142L959.285 85.748H963.189L962.332 87.1431Z" fill="#77E2C3"/>
<path d="M956.239 87.1309H954.036L953.18 85.748H957.084L956.239 87.1309Z" fill="#77E2C3"/>
<path d="M950.13 87.1309H947.927L947.07 85.748H950.974L950.13 87.1309Z" fill="#77E2C3"/>
<path d="M964.277 103.762V101.559L965.672 100.715V104.606L964.277 103.762Z" fill="#77E2C3"/>
<path d="M964.277 97.6565V95.4538L965.672 94.6094V98.5009L964.277 97.6565Z" fill="#77E2C3"/>
<path d="M964.277 91.5491V89.3464L965.672 88.502V92.4058L964.277 91.5491Z" fill="#77E2C3"/>
<path d="M947.646 105.988H949.848L950.693 107.371H946.789L947.646 105.988Z" fill="#77E2C3"/>
<path d="M953.751 105.988H955.954L956.798 107.371H952.895L953.751 105.988Z" fill="#77E2C3"/>
<path d="M959.86 105.988H962.063L962.908 107.371H959.004L959.86 105.988Z" fill="#77E2C3"/>
<path d="M945.422 89.1125V91.3153L944.039 92.1597V88.2559L945.422 89.1125Z" fill="#77E2C3"/>
<path d="M945.422 95.2199V97.4105L944.039 98.2671V94.3633L945.422 95.2199Z" fill="#77E2C3"/>
<path d="M945.422 101.315V103.518L944.039 104.375V100.471L945.422 101.315Z" fill="#77E2C3"/>
<path d="M546.081 108.657H540.844V89.5664L546.094 84.3164H561.929V89.5541H548.26L546.081 91.7324V108.657Z" fill="#77E2C3"/>
<path d="M538.994 83.9136H518.875V78.6759H536.828L539.006 76.5098V64.2109H544.244V78.6759L538.994 83.9136Z" fill="#77E2C3"/>
<path d="M547.304 68.4551H536.082V72.3099H547.304V68.4551Z" fill="#77E2C3"/>
<path d="M544.245 68.4551H539.008V72.3099H544.245V68.4551Z" fill="#008C95"/>
<path d="M531.214 87.8789H518.891V92.4925H531.214V87.8789Z" fill="#77E2C3"/>
<path d="M556.128 81.4277H552.273V92.4416H556.128V81.4277Z" fill="#77E2C3"/>
<path d="M556.128 84.3164H552.273V89.5541H556.128V84.3164Z" fill="#008C95"/>
<path d="M561.925 102.674H527.672L522.422 97.424V64.2109H527.66V95.2579L529.838 97.4362H561.925V102.674Z" fill="#77E2C3"/>
<path d="M527.66 87.8789H522.422V92.4925H527.66V87.8789Z" fill="#008C95"/>
<path d="M713.945 149.75H689.445V181.678H713.945V149.75Z" fill="#77E2C3"/>
<path d="M724.148 157.633H699.648V189.561H724.148V157.633Z" fill="#77E2C3"/>
<path d="M713.954 157.633H699.648V181.68H713.954V157.633Z" fill="#008C95"/>
<path d="M519.726 16.2329L512.87 5.80469H515.85L520.952 14.1235H524.564L524.155 16.2329H519.726ZM521.097 16.0352L515.52 25H512.356L519.488 13.8467L521.097 16.0352ZM525.658 5.80469V25H523.14V5.80469H525.658ZM535.836 5.80469L528.954 16.2329H524.656L524.261 14.1235H527.741L532.843 5.80469H535.836ZM533.173 25L527.609 16.0352L529.231 13.8467L536.337 25H533.173ZM541.017 21.1372L547.596 10.7354H550.048V25H547.596V14.5981L541.017 25H538.591V10.7354H541.017V21.1372ZM563.495 10.7354V12.7524H556.6V10.7354H563.495ZM565.644 10.7354V25H563.205V10.7354H565.644ZM556.007 10.7354H558.459L558.09 17.6172C558.028 18.6807 557.927 19.6211 557.787 20.4385C557.655 21.2471 557.47 21.9414 557.233 22.5215C557.004 23.1016 556.714 23.5762 556.363 23.9453C556.02 24.3057 555.607 24.5737 555.124 24.7495C554.64 24.9165 554.082 25 553.449 25H552.685V22.8511L553.212 22.8115C553.59 22.7852 553.911 22.6973 554.174 22.5479C554.447 22.3984 554.675 22.1787 554.86 21.8887C555.044 21.5898 555.194 21.2075 555.308 20.7417C555.431 20.2759 555.523 19.7222 555.585 19.0806C555.655 18.439 555.708 17.6919 555.743 16.8394L556.007 10.7354ZM572.209 21.1372L578.788 10.7354H581.24V25H578.788V14.5981L572.209 25H569.784V10.7354H572.209V21.1372ZM604.984 22.9961L604.747 29.2319H602.571V25H600.712V22.9961H604.984ZM585.222 10.7354H587.661V22.9961H592.881V10.7354H595.333V22.9961H600.541V10.7354H602.98V25H585.222V10.7354ZM617.192 16.9185V18.896H609.651V16.9185H617.192ZM610.165 10.7354V25H607.726V10.7354H610.165ZM619.169 10.7354V25H616.717V10.7354H619.169ZM622.452 18.0259V17.7227C622.452 16.6943 622.602 15.7407 622.9 14.8618C623.199 13.9741 623.63 13.2051 624.192 12.5547C624.755 11.8955 625.436 11.3857 626.236 11.0254C627.036 10.6562 627.932 10.4717 628.925 10.4717C629.927 10.4717 630.828 10.6562 631.628 11.0254C632.437 11.3857 633.122 11.8955 633.685 12.5547C634.256 13.2051 634.691 13.9741 634.99 14.8618C635.289 15.7407 635.438 16.6943 635.438 17.7227V18.0259C635.438 19.0542 635.289 20.0078 634.99 20.8867C634.691 21.7656 634.256 22.5347 633.685 23.1938C633.122 23.8442 632.441 24.354 631.641 24.7231C630.85 25.0835 629.954 25.2637 628.952 25.2637C627.95 25.2637 627.049 25.0835 626.249 24.7231C625.449 24.354 624.764 23.8442 624.192 23.1938C623.63 22.5347 623.199 21.7656 622.9 20.8867C622.602 20.0078 622.452 19.0542 622.452 18.0259ZM624.891 17.7227V18.0259C624.891 18.7378 624.975 19.4102 625.142 20.043C625.309 20.667 625.559 21.2207 625.893 21.7041C626.236 22.1875 626.662 22.5698 627.172 22.8511C627.682 23.1235 628.275 23.2598 628.952 23.2598C629.62 23.2598 630.204 23.1235 630.705 22.8511C631.215 22.5698 631.637 22.1875 631.971 21.7041C632.305 21.2207 632.555 20.667 632.722 20.043C632.898 19.4102 632.986 18.7378 632.986 18.0259V17.7227C632.986 17.0195 632.898 16.356 632.722 15.7319C632.555 15.0991 632.3 14.541 631.958 14.0576C631.624 13.5654 631.202 13.1787 630.692 12.8975C630.191 12.6162 629.602 12.4756 628.925 12.4756C628.257 12.4756 627.668 12.6162 627.159 12.8975C626.658 13.1787 626.236 13.5654 625.893 14.0576C625.559 14.541 625.309 15.0991 625.142 15.7319C624.975 16.356 624.891 17.0195 624.891 17.7227ZM644.416 25.2637C643.423 25.2637 642.522 25.0967 641.713 24.7627C640.914 24.4199 640.224 23.9409 639.644 23.3257C639.072 22.7104 638.633 21.981 638.325 21.1372C638.018 20.2935 637.864 19.3706 637.864 18.3687V17.8149C637.864 16.6548 638.035 15.6221 638.378 14.7168C638.721 13.8027 639.187 13.0293 639.775 12.3965C640.364 11.7637 641.032 11.2847 641.779 10.9595C642.526 10.6343 643.3 10.4717 644.1 10.4717C645.119 10.4717 645.998 10.6475 646.736 10.999C647.483 11.3506 648.094 11.8428 648.569 12.4756C649.043 13.0996 649.395 13.8379 649.624 14.6904C649.852 15.5342 649.966 16.457 649.966 17.459V18.5532H639.314V16.5625H647.527V16.3779C647.492 15.7451 647.36 15.1299 647.132 14.5322C646.912 13.9346 646.561 13.4424 646.077 13.0557C645.594 12.6689 644.935 12.4756 644.1 12.4756C643.546 12.4756 643.036 12.5942 642.57 12.8315C642.104 13.0601 641.705 13.4028 641.371 13.8599C641.037 14.3169 640.777 14.875 640.593 15.5342C640.408 16.1934 640.316 16.9536 640.316 17.8149V18.3687C640.316 19.0454 640.408 19.6826 640.593 20.2803C640.786 20.8691 641.063 21.3877 641.423 21.8359C641.792 22.2842 642.236 22.6357 642.755 22.8906C643.282 23.1455 643.88 23.2729 644.548 23.2729C645.409 23.2729 646.139 23.0972 646.736 22.7456C647.334 22.394 647.857 21.9238 648.305 21.335L649.782 22.5083C649.474 22.9741 649.083 23.418 648.608 23.8398C648.134 24.2617 647.549 24.6045 646.855 24.8682C646.169 25.1318 645.356 25.2637 644.416 25.2637ZM665.22 23.2598C665.8 23.2598 666.336 23.1411 666.828 22.9038C667.32 22.6665 667.725 22.3413 668.041 21.9282C668.357 21.5063 668.538 21.0273 668.582 20.4912H670.902C670.858 21.335 670.572 22.1216 670.045 22.8511C669.526 23.5718 668.845 24.1562 668.001 24.6045C667.158 25.0439 666.23 25.2637 665.22 25.2637C664.147 25.2637 663.211 25.0747 662.412 24.6968C661.621 24.3188 660.961 23.8003 660.434 23.1411C659.916 22.4819 659.524 21.7261 659.261 20.8735C659.006 20.0122 658.878 19.1025 658.878 18.1445V17.5908C658.878 16.6328 659.006 15.7275 659.261 14.875C659.524 14.0137 659.916 13.2534 660.434 12.5942C660.961 11.9351 661.621 11.4165 662.412 11.0386C663.211 10.6606 664.147 10.4717 665.22 10.4717C666.336 10.4717 667.312 10.7002 668.146 11.1572C668.981 11.6055 669.636 12.2207 670.111 13.0029C670.594 13.7764 670.858 14.6553 670.902 15.6396H668.582C668.538 15.0508 668.371 14.519 668.081 14.0444C667.799 13.5698 667.413 13.1919 666.92 12.9106C666.437 12.6206 665.87 12.4756 665.22 12.4756C664.473 12.4756 663.844 12.625 663.334 12.9238C662.833 13.2139 662.434 13.6094 662.135 14.1104C661.845 14.6025 661.634 15.1519 661.502 15.7583C661.379 16.356 661.317 16.9668 661.317 17.5908V18.1445C661.317 18.7686 661.379 19.3838 661.502 19.9902C661.625 20.5967 661.832 21.146 662.122 21.6382C662.42 22.1304 662.82 22.5259 663.321 22.8247C663.831 23.1147 664.464 23.2598 665.22 23.2598ZM679.458 10.7354V25H677.006V10.7354H679.458ZM684.244 10.7354V12.7129H672.312V10.7354H684.244ZM689.082 13.4775V30.4844H686.63V10.7354H688.871L689.082 13.4775ZM698.693 17.749V18.0259C698.693 19.063 698.57 20.0254 698.324 20.9131C698.078 21.792 697.717 22.5566 697.243 23.207C696.777 23.8574 696.201 24.3628 695.516 24.7231C694.83 25.0835 694.043 25.2637 693.156 25.2637C692.25 25.2637 691.451 25.1143 690.756 24.8154C690.062 24.5166 689.473 24.0815 688.99 23.5103C688.506 22.939 688.12 22.2534 687.83 21.4536C687.548 20.6538 687.355 19.7529 687.25 18.751V17.2744C687.355 16.2197 687.553 15.2749 687.843 14.4399C688.133 13.605 688.515 12.8931 688.99 12.3042C689.473 11.7065 690.058 11.2539 690.743 10.9463C691.429 10.6299 692.22 10.4717 693.116 10.4717C694.013 10.4717 694.808 10.6475 695.502 10.999C696.197 11.3418 696.781 11.834 697.256 12.4756C697.73 13.1172 698.086 13.8862 698.324 14.7827C698.57 15.6704 698.693 16.6592 698.693 17.749ZM696.241 18.0259V17.749C696.241 17.0371 696.166 16.3691 696.017 15.7451C695.867 15.1123 695.634 14.5586 695.318 14.084C695.01 13.6006 694.615 13.2227 694.131 12.9502C693.648 12.6689 693.072 12.5283 692.404 12.5283C691.789 12.5283 691.253 12.6338 690.796 12.8447C690.348 13.0557 689.965 13.3413 689.649 13.7017C689.333 14.0532 689.073 14.4575 688.871 14.9146C688.678 15.3628 688.533 15.8286 688.436 16.312V19.7266C688.612 20.3418 688.858 20.9219 689.174 21.4668C689.491 22.0029 689.913 22.438 690.44 22.772C690.967 23.0972 691.631 23.2598 692.431 23.2598C693.09 23.2598 693.657 23.1235 694.131 22.8511C694.615 22.5698 695.01 22.1875 695.318 21.7041C695.634 21.2207 695.867 20.667 696.017 20.043C696.166 19.4102 696.241 18.7378 696.241 18.0259ZM701.158 18.0259V17.7227C701.158 16.6943 701.308 15.7407 701.606 14.8618C701.905 13.9741 702.336 13.2051 702.898 12.5547C703.461 11.8955 704.142 11.3857 704.942 11.0254C705.742 10.6562 706.638 10.4717 707.631 10.4717C708.633 10.4717 709.534 10.6562 710.334 11.0254C711.143 11.3857 711.828 11.8955 712.391 12.5547C712.962 13.2051 713.397 13.9741 713.696 14.8618C713.995 15.7407 714.144 16.6943 714.144 17.7227V18.0259C714.144 19.0542 713.995 20.0078 713.696 20.8867C713.397 21.7656 712.962 22.5347 712.391 23.1938C711.828 23.8442 711.147 24.354 710.347 24.7231C709.556 25.0835 708.66 25.2637 707.658 25.2637C706.656 25.2637 705.755 25.0835 704.955 24.7231C704.155 24.354 703.47 23.8442 702.898 23.1938C702.336 22.5347 701.905 21.7656 701.606 20.8867C701.308 20.0078 701.158 19.0542 701.158 18.0259ZM703.597 17.7227V18.0259C703.597 18.7378 703.681 19.4102 703.848 20.043C704.015 20.667 704.265 21.2207 704.599 21.7041C704.942 22.1875 705.368 22.5698 705.878 22.8511C706.388 23.1235 706.981 23.2598 707.658 23.2598C708.326 23.2598 708.91 23.1235 709.411 22.8511C709.921 22.5698 710.343 22.1875 710.677 21.7041C711.011 21.2207 711.261 20.667 711.428 20.043C711.604 19.4102 711.692 18.7378 711.692 18.0259V17.7227C711.692 17.0195 711.604 16.356 711.428 15.7319C711.261 15.0991 711.006 14.541 710.664 14.0576C710.33 13.5654 709.908 13.1787 709.398 12.8975C708.897 12.6162 708.308 12.4756 707.631 12.4756C706.963 12.4756 706.375 12.6162 705.865 12.8975C705.364 13.1787 704.942 13.5654 704.599 14.0576C704.265 14.541 704.015 15.0991 703.848 15.7319C703.681 16.356 703.597 17.0195 703.597 17.7227ZM719.839 21.1372L726.418 10.7354H728.87V25H726.418V14.5981L719.839 25H717.414V10.7354H719.839V21.1372ZM738.6 10.7354V25H736.147V10.7354H738.6ZM743.385 10.7354V12.7129H731.454V10.7354H743.385ZM750.649 25.2637C749.656 25.2637 748.755 25.0967 747.947 24.7627C747.147 24.4199 746.457 23.9409 745.877 23.3257C745.306 22.7104 744.866 21.981 744.559 21.1372C744.251 20.2935 744.097 19.3706 744.097 18.3687V17.8149C744.097 16.6548 744.269 15.6221 744.611 14.7168C744.954 13.8027 745.42 13.0293 746.009 12.3965C746.598 11.7637 747.266 11.2847 748.013 10.9595C748.76 10.6343 749.533 10.4717 750.333 10.4717C751.353 10.4717 752.231 10.6475 752.97 10.999C753.717 11.3506 754.328 11.8428 754.802 12.4756C755.277 13.0996 755.628 13.8379 755.857 14.6904C756.085 15.5342 756.2 16.457 756.2 17.459V18.5532H745.547V16.5625H753.761V16.3779C753.726 15.7451 753.594 15.1299 753.365 14.5322C753.146 13.9346 752.794 13.4424 752.311 13.0557C751.827 12.6689 751.168 12.4756 750.333 12.4756C749.779 12.4756 749.27 12.5942 748.804 12.8315C748.338 13.0601 747.938 13.4028 747.604 13.8599C747.27 14.3169 747.011 14.875 746.826 15.5342C746.642 16.1934 746.549 16.9536 746.549 17.8149V18.3687C746.549 19.0454 746.642 19.6826 746.826 20.2803C747.02 20.8691 747.296 21.3877 747.657 21.8359C748.026 22.2842 748.47 22.6357 748.988 22.8906C749.516 23.1455 750.113 23.2729 750.781 23.2729C751.643 23.2729 752.372 23.0972 752.97 22.7456C753.567 22.394 754.09 21.9238 754.539 21.335L756.015 22.5083C755.708 22.9741 755.316 23.418 754.842 23.8398C754.367 24.2617 753.783 24.6045 753.088 24.8682C752.403 25.1318 751.59 25.2637 750.649 25.2637ZM768.579 10.7354V12.7524H761.684V10.7354H768.579ZM770.728 10.7354V25H768.289V10.7354H770.728ZM761.091 10.7354H763.543L763.174 17.6172C763.112 18.6807 763.011 19.6211 762.871 20.4385C762.739 21.2471 762.554 21.9414 762.317 22.5215C762.088 23.1016 761.798 23.5762 761.447 23.9453C761.104 24.3057 760.691 24.5737 760.208 24.7495C759.724 24.9165 759.166 25 758.533 25H757.769V22.8511L758.296 22.8115C758.674 22.7852 758.995 22.6973 759.258 22.5479C759.531 22.3984 759.759 22.1787 759.944 21.8887C760.128 21.5898 760.278 21.2075 760.392 20.7417C760.515 20.2759 760.607 19.7222 760.669 19.0806C760.739 18.439 760.792 17.6919 760.827 16.8394L761.091 10.7354ZM776.661 15.6396H780.945C782.097 15.6396 783.068 15.8418 783.859 16.2461C784.65 16.6416 785.248 17.1909 785.652 17.894C786.065 18.5884 786.271 19.3794 786.271 20.2671C786.271 20.9263 786.157 21.5459 785.929 22.126C785.7 22.6973 785.357 23.1982 784.9 23.6289C784.452 24.0596 783.894 24.3979 783.226 24.644C782.567 24.8813 781.807 25 780.945 25H774.881V10.7354H777.32V22.9961H780.945C781.648 22.9961 782.211 22.8687 782.633 22.6138C783.055 22.3589 783.358 22.0293 783.542 21.625C783.727 21.2207 783.819 20.7988 783.819 20.3594C783.819 19.9287 783.727 19.5068 783.542 19.0938C783.358 18.6807 783.055 18.3379 782.633 18.0654C782.211 17.7842 781.648 17.6436 780.945 17.6436H776.661V15.6396ZM795.025 23.2598C795.605 23.2598 796.142 23.1411 796.634 22.9038C797.126 22.6665 797.53 22.3413 797.847 21.9282C798.163 21.5063 798.343 21.0273 798.387 20.4912H800.708C800.664 21.335 800.378 22.1216 799.851 22.8511C799.332 23.5718 798.651 24.1562 797.807 24.6045C796.963 25.0439 796.036 25.2637 795.025 25.2637C793.953 25.2637 793.017 25.0747 792.217 24.6968C791.426 24.3188 790.767 23.8003 790.24 23.1411C789.721 22.4819 789.33 21.7261 789.066 20.8735C788.812 20.0122 788.684 19.1025 788.684 18.1445V17.5908C788.684 16.6328 788.812 15.7275 789.066 14.875C789.33 14.0137 789.721 13.2534 790.24 12.5942C790.767 11.9351 791.426 11.4165 792.217 11.0386C793.017 10.6606 793.953 10.4717 795.025 10.4717C796.142 10.4717 797.117 10.7002 797.952 11.1572C798.787 11.6055 799.442 12.2207 799.917 13.0029C800.4 13.7764 800.664 14.6553 800.708 15.6396H798.387C798.343 15.0508 798.176 14.519 797.886 14.0444C797.605 13.5698 797.218 13.1919 796.726 12.9106C796.243 12.6206 795.676 12.4756 795.025 12.4756C794.278 12.4756 793.65 12.625 793.14 12.9238C792.639 13.2139 792.239 13.6094 791.94 14.1104C791.65 14.6025 791.439 15.1519 791.308 15.7583C791.185 16.356 791.123 16.9668 791.123 17.5908V18.1445C791.123 18.7686 791.185 19.3838 791.308 19.9902C791.431 20.5967 791.637 21.146 791.927 21.6382C792.226 22.1304 792.626 22.5259 793.127 22.8247C793.637 23.1147 794.27 23.2598 795.025 23.2598ZM809.264 10.7354V25H806.812V10.7354H809.264ZM814.049 10.7354V12.7129H802.118V10.7354H814.049ZM823.146 18.7246H818.466L818.439 16.7734H822.263C823.019 16.7734 823.647 16.6987 824.148 16.5493C824.658 16.3999 825.04 16.1758 825.295 15.877C825.55 15.5781 825.677 15.209 825.677 14.7695C825.677 14.4268 825.603 14.1279 825.453 13.873C825.312 13.6094 825.097 13.394 824.807 13.2271C824.517 13.0513 824.157 12.9238 823.726 12.8447C823.304 12.7568 822.808 12.7129 822.236 12.7129H819.112V25H816.673V10.7354H822.236C823.142 10.7354 823.955 10.8145 824.675 10.9727C825.405 11.1309 826.024 11.3726 826.534 11.6978C827.053 12.0142 827.448 12.4185 827.721 12.9106C827.993 13.4028 828.129 13.9829 828.129 14.6509C828.129 15.0815 828.042 15.4902 827.866 15.877C827.69 16.2637 827.431 16.6064 827.088 16.9053C826.745 17.2041 826.323 17.4502 825.822 17.6436C825.321 17.8281 824.746 17.9468 824.095 17.9995L823.146 18.7246ZM823.146 25H817.583L818.795 23.0225H823.146C823.823 23.0225 824.385 22.939 824.833 22.772C825.282 22.5962 825.616 22.3501 825.835 22.0337C826.064 21.7085 826.178 21.3218 826.178 20.8735C826.178 20.4253 826.064 20.043 825.835 19.7266C825.616 19.4014 825.282 19.1553 824.833 18.9883C824.385 18.8125 823.823 18.7246 823.146 18.7246H819.441L819.468 16.7734H824.095L824.979 17.5117C825.761 17.5732 826.424 17.7666 826.969 18.0918C827.514 18.417 827.927 18.8301 828.208 19.3311C828.49 19.8232 828.63 20.3594 828.63 20.9395C828.63 21.6074 828.503 22.1963 828.248 22.7061C828.002 23.2158 827.642 23.6421 827.167 23.9849C826.692 24.3188 826.117 24.5737 825.44 24.7495C824.763 24.9165 823.999 25 823.146 25ZM831.254 18.0259V17.7227C831.254 16.6943 831.403 15.7407 831.702 14.8618C832.001 13.9741 832.432 13.2051 832.994 12.5547C833.557 11.8955 834.238 11.3857 835.038 11.0254C835.837 10.6562 836.734 10.4717 837.727 10.4717C838.729 10.4717 839.63 10.6562 840.43 11.0254C841.238 11.3857 841.924 11.8955 842.486 12.5547C843.058 13.2051 843.493 13.9741 843.792 14.8618C844.09 15.7407 844.24 16.6943 844.24 17.7227V18.0259C844.24 19.0542 844.09 20.0078 843.792 20.8867C843.493 21.7656 843.058 22.5347 842.486 23.1938C841.924 23.8442 841.243 24.354 840.443 24.7231C839.652 25.0835 838.755 25.2637 837.753 25.2637C836.751 25.2637 835.851 25.0835 835.051 24.7231C834.251 24.354 833.565 23.8442 832.994 23.1938C832.432 22.5347 832.001 21.7656 831.702 20.8867C831.403 20.0078 831.254 19.0542 831.254 18.0259ZM833.693 17.7227V18.0259C833.693 18.7378 833.776 19.4102 833.943 20.043C834.11 20.667 834.361 21.2207 834.695 21.7041C835.038 22.1875 835.464 22.5698 835.974 22.8511C836.483 23.1235 837.077 23.2598 837.753 23.2598C838.421 23.2598 839.006 23.1235 839.507 22.8511C840.017 22.5698 840.438 22.1875 840.772 21.7041C841.106 21.2207 841.357 20.667 841.524 20.043C841.7 19.4102 841.788 18.7378 841.788 18.0259V17.7227C841.788 17.0195 841.7 16.356 841.524 15.7319C841.357 15.0991 841.102 14.541 840.759 14.0576C840.425 13.5654 840.003 13.1787 839.494 12.8975C838.993 12.6162 838.404 12.4756 837.727 12.4756C837.059 12.4756 836.47 12.6162 835.96 12.8975C835.459 13.1787 835.038 13.5654 834.695 14.0576C834.361 14.541 834.11 15.0991 833.943 15.7319C833.776 16.356 833.693 17.0195 833.693 17.7227Z" fill="#008C95"/>
<path d="M1433.62 89.06H1429.52L1426.84 93.5145L1428.89 96.9166L1426.84 100.319L1429.52 104.773H1433.57L1435.64 108.212H1439.77L1441.8 111.577H1447.07L1449.75 107.135L1447.71 103.733L1449.1 101.408H1453.2L1455.88 96.9533L1453.84 93.5512L1455.88 90.1492L1453.2 85.6946H1449.15L1447.08 82.2559H1441.8L1439.73 85.6946H1435.64L1433.62 89.06ZM1445.9 102.681H1442.99L1441.58 100.331L1443.01 97.9568H1445.87L1447.32 100.355L1445.9 102.681ZM1445.86 91.1526L1447.31 93.5512L1445.91 95.8764H1443L1441.59 93.5267L1443.02 91.1526H1444.47H1445.86ZM1438.29 94.5915H1439.74L1441.15 96.9411L1439.72 99.3152H1438.27H1436.85L1435.41 96.9166L1436.81 94.5915H1438.29ZM1430.71 91.1526H1433.59L1435.03 93.5512L1433.64 95.8764H1430.72L1429.3 93.5145L1430.71 91.1526ZM1430.7 102.668L1429.28 100.306L1430.7 97.9446H1433.57L1435.02 100.343L1433.62 102.668H1430.7ZM1436.83 106.119L1435.41 103.757L1436.83 101.396H1438.29H1439.74L1441.15 103.745L1439.72 106.119H1436.83ZM1445.9 109.485H1442.99L1441.58 107.135L1443.01 104.761H1445.91L1447.33 107.123L1445.9 109.485ZM1452.02 99.3152H1449.14L1447.7 96.9166L1449.09 94.5915H1450.55H1452L1453.42 96.9533L1452.02 99.3152ZM1452.03 87.7872L1453.45 90.1492L1452.03 92.511H1450.57H1449.15L1447.71 90.1124L1449.1 87.7872H1452.03ZM1445.91 84.3485L1447.33 86.7104L1445.91 89.0723H1444.45H1443L1441.58 86.7104L1443 84.3485H1445.91ZM1439.75 87.7872L1441.16 90.1369L1439.73 92.511H1438.29H1436.87L1435.42 90.1124L1436.82 87.7872H1439.75Z" fill="#77E2C3"/>
<path d="M1441.23 80.774C1446.39 75.6097 1454.77 75.6097 1459.94 80.7863C1465.1 85.9506 1465.1 94.3334 1459.93 99.4977C1454.76 104.662 1446.38 104.662 1441.21 99.4855C1436.05 94.3212 1436.06 85.9383 1441.23 80.774Z" fill="#77E2C3"/>
<path d="M1453.5 98.0433C1456.06 95.4856 1460.2 95.4856 1462.76 98.0433C1465.31 100.601 1465.3 104.737 1462.76 107.295C1460.2 109.853 1456.06 109.84 1453.5 107.295C1450.95 104.737 1450.95 100.601 1453.5 98.0433Z" fill="#77E2C3"/>
<path d="M1465.36 93.7827C1466.51 92.6323 1468.37 92.6323 1469.52 93.7827C1470.67 94.933 1470.67 96.8054 1469.52 97.9435C1468.37 99.0939 1466.51 99.0939 1465.36 97.9435C1464.21 96.7932 1464.21 94.933 1465.36 93.7827Z" fill="#77E2C3"/>
<path d="M1453.22 85.6946H1449.17L1447.1 82.2559H1441.83L1439.76 85.6946H1438.13C1437.89 86.38 1437.7 87.0775 1437.58 87.7872H1439.77L1441.18 90.1369L1439.75 92.511H1438.3H1437.57C1437.69 93.2208 1437.89 93.9183 1438.12 94.6036H1438.29H1439.75L1441.16 96.9533L1440.26 98.434C1440.56 98.8012 1440.87 99.156 1441.22 99.4987C1441.4 99.6823 1441.58 99.8536 1441.77 100.013L1443 97.969H1445.86L1447.3 100.368L1445.98 102.558C1446.66 102.815 1447.36 103.011 1448.07 103.146L1449.11 101.42H1453.21L1455.89 96.9655L1453.85 93.5635L1455.89 90.1613L1453.22 85.6946ZM1445.9 95.8641H1442.99L1441.58 93.5145L1443.02 91.1404H1444.46H1445.88L1447.32 93.539L1445.9 95.8641ZM1445.9 89.06H1444.45H1442.99L1441.57 86.6981L1442.99 84.3363H1445.9L1447.32 86.6981L1445.9 89.06ZM1452.02 99.3152H1449.16L1447.72 96.9166L1449.11 94.5915H1450.57H1452.02L1453.44 96.9533L1452.02 99.3152ZM1452.04 92.511H1450.58H1449.17L1447.73 90.1124L1449.12 87.7872H1452.04L1453.45 90.1492L1452.04 92.511Z" fill="#008C95"/>
<path d="M1515.39 109.448L1527.6 84.2754H1541.04L1554.5 109.448H1515.39Z" fill="#77E2C3"/>
<path d="M1536.31 84.2754H1532.95V86.4415H1536.31V84.2754Z" fill="white"/>
<path d="M1536.31 103.306H1532.95V98.5578H1536.31V103.306ZM1536.31 94.299H1532.95V89.5508H1536.31V94.299Z" fill="white"/>
<path d="M1536.31 107.283H1532.95V109.449H1536.31V107.283Z" fill="white"/>
<path d="M1519.14 91.6056L1515.39 88.6074L1511.63 91.6056L1510.12 89.7332L1515.39 85.5234L1520.64 89.7332L1519.14 91.6056Z" fill="#77E2C3"/>
<path d="M1520.7 98.5072L1515.39 94.2363L1509.86 98.6785L1508.35 96.8062L1515.39 91.1523L1521.78 96.2799L1520.7 98.5072Z" fill="#77E2C3"/>
<path d="M1520.92 105.225L1515.39 100.783L1509.86 105.225L1508.35 103.353L1515.39 97.6992L1522.42 103.353L1520.92 105.225Z" fill="#77E2C3"/>
<path d="M1516.6 86.9551H1514.19V106.658H1516.6V86.9551Z" fill="#77E2C3"/>
<path d="M1514.19 101.75L1515.39 100.783L1516.59 101.75V98.666L1515.39 97.6992L1514.19 98.666V101.75Z" fill="#008C95"/>
<path d="M1514.19 95.2031L1515.39 94.2363L1516.59 95.2031V92.1192L1515.39 91.1523L1514.19 92.1192V95.2031Z" fill="#008C95"/>
<path d="M1514.19 89.5755L1515.39 88.6088L1516.59 89.5755V86.4916L1515.39 85.5371L1514.19 86.4916V89.5755Z" fill="#008C95"/>
<path d="M1544.52 85.1211L1548.28 82.1107L1552.03 85.1211L1553.54 83.2366L1548.28 79.0391L1543.02 83.2366L1544.52 85.1211Z" fill="#77E2C3"/>
<path d="M1544.51 90.7731L1548.28 87.7505L1553.81 92.1927L1555.32 90.3203L1548.28 84.6543L1543.36 88.6194L1544.51 90.7731Z" fill="#77E2C3"/>
<path d="M1549.49 80.457H1547.08V95.4482H1549.49V80.457Z" fill="#77E2C3"/>
<path d="M1549.48 88.7167L1548.28 87.7499L1547.08 88.7167V85.6206L1548.28 84.666L1549.48 85.6206V88.7167Z" fill="#008C95"/>
<path d="M1549.48 83.0775L1548.28 82.1107L1547.08 83.0775V79.9936L1548.28 79.0391L1549.48 79.9936V83.0775Z" fill="#008C95"/>
<path d="M1355.45 177.539L1361.41 183.486L1368.09 190.168L1370.64 192.725L1384.68 178.689L1369.49 163.502L1355.45 177.539Z" fill="#77E2C3"/>
<path d="M1368.75 160.117L1352.06 176.801L1354.35 179.085L1371.03 162.402L1368.75 160.117Z" fill="#77E2C3"/>
<path d="M1369.57 170.803L1359.14 181.238L1366.7 188.801L1377.14 178.365L1369.57 170.803Z" fill="#008C95"/>
<path d="M1355.34 187.661L1351.78 178.666L1348.07 187.208C1348.36 188.97 1349.88 190.316 1351.72 190.341C1353.43 190.341 1354.87 189.215 1355.34 187.661Z" fill="#77E2C3"/>
<path d="M1353.39 192.174L1349.83 183.18L1346.12 191.722C1346.41 193.484 1347.93 194.83 1349.76 194.854C1351.48 194.867 1352.92 193.729 1353.39 192.174Z" fill="#77E2C3"/>
<path d="M1351.73 190.327C1352.04 190.327 1352.33 190.29 1352.61 190.229L1349.82 183.18L1348.07 187.206C1348.36 188.968 1349.88 190.314 1351.73 190.327Z" fill="#008C95"/>
<path d="M1377.31 99.2283C1377.31 105.653 1371.97 110.854 1365.4 110.854C1358.83 110.854 1353.49 105.641 1353.49 99.2283C1353.49 92.8157 1358.82 91.9102 1365.4 91.9102C1371.97 91.9102 1377.31 92.8035 1377.31 99.2283Z" fill="#008C95"/>
<path d="M1377.31 99.2296H1353.49L1353.82 88.0566H1377.01L1377.31 99.2296Z" fill="#008C95"/>
<path d="M1365.65 105.042H1365.6C1364.49 105.042 1363.6 104.149 1363.6 103.048V95.5215H1367.64V103.048C1367.64 104.149 1366.75 105.042 1365.65 105.042Z" fill="#008C95"/>
<path d="M1370.22 106.89H1370.16C1368.77 106.89 1367.64 105.764 1367.64 104.369V90.2832H1372.74V104.369C1372.74 105.764 1371.62 106.89 1370.22 106.89Z" fill="#77E2C3"/>
<path d="M1365.4 77.6191C1358.83 77.6191 1353.49 82.8202 1353.49 89.2449C1353.49 95.6697 1358.82 100.871 1365.4 100.871C1371.97 100.871 1377.31 95.6697 1377.31 89.2449C1377.31 82.8202 1371.97 77.6191 1365.4 77.6191Z" fill="#77E2C3"/>
<path d="M1365.65 105.042H1365.6C1364.49 105.042 1363.6 104.149 1363.6 103.048V95.5215H1367.64V103.048C1367.64 104.149 1366.75 105.042 1365.65 105.042Z" fill="#77E2C3"/>
<path d="M1372.74 91.0801C1372.1 93.5643 1370.14 95.5591 1367.64 96.3178V100.662C1369.54 100.307 1371.28 99.5119 1372.74 98.3983V91.0801Z" fill="white"/>
<path d="M1367.64 100.672V96.3281C1366.93 96.5484 1366.18 96.6585 1365.4 96.6585C1364.78 96.6585 1364.18 96.5851 1363.6 96.4505V100.758C1364.19 100.844 1364.79 100.893 1365.4 100.893C1366.17 100.881 1366.92 100.807 1367.64 100.672Z" fill="white"/>
<path d="M1365.4 81.8516C1369.58 81.8516 1372.98 85.168 1372.98 89.2553C1372.98 93.3305 1369.58 96.6591 1365.4 96.6591C1361.23 96.6591 1357.83 93.3427 1357.83 89.2553C1357.83 85.168 1361.23 81.8516 1365.4 81.8516Z" fill="#008C95"/>
<path d="M1626.58 77.2148H1603.51V111.272H1626.58V77.2148Z" fill="#77E2C3"/>
<path d="M1628.47 82.1953H1601.64V85.9155H1628.47V82.1953Z" fill="#77E2C3"/>
<path d="M1626.58 82.1953H1603.51V85.9155H1626.58V82.1953Z" fill="#008C95"/>
<path d="M1628.47 102.547H1601.64V106.267H1628.47V102.547Z" fill="#77E2C3"/>
<path d="M1626.58 102.547H1603.51V106.267H1626.58V102.547Z" fill="#008C95"/>
<path d="M1619.2 96.171C1619.2 98.4595 1617.34 100.32 1615.05 100.32C1612.77 100.32 1610.91 98.4595 1610.91 96.171C1610.91 93.8826 1615.05 88.1309 1615.05 88.1309C1615.05 88.1309 1619.2 93.8703 1619.2 96.171Z" fill="#008C95"/>
<path d="M1550.68 194.01C1539.2 194.01 1533.94 191.354 1529.29 189.004C1525.06 186.875 1521.4 185.027 1513.19 185.407L1512.97 180.634C1522.43 180.206 1527.01 182.506 1531.44 184.746C1535.82 186.961 1540.35 189.237 1550.68 189.237V194.01Z" fill="#008C95"/>
<path d="M1550.68 181.514C1539.11 181.514 1534.63 179.018 1530.69 176.803C1527.11 174.796 1523.73 172.911 1513.08 172.911V164.639C1525.88 164.639 1530.58 167.27 1534.73 169.583C1538.24 171.541 1541.27 173.242 1550.68 173.242V181.514Z" fill="#008C95"/>
<path d="M1550.65 173.732C1540.34 173.634 1536.41 171.468 1532.6 169.363C1528.65 167.184 1524.92 165.129 1513.08 165.129V160.992C1525.98 160.992 1530.36 163.403 1534.6 165.74C1538.11 167.674 1541.42 169.497 1550.7 169.595L1550.65 173.732Z" fill="#77E2C3"/>
<path d="M1548.06 247.648H1515.61V252.911H1548.06V247.648Z" fill="#77E2C3"/>
<path d="M1548.06 268.475H1515.61V273.737H1548.06V268.475Z" fill="#008C95"/>
<path d="M1548.06 252.9H1515.61V261.883H1548.06V252.9Z" fill="#008C95"/>
<path d="M1354.32 22.9302V25H1339.79V22.9302H1354.32ZM1340.2 22.9302V29.7197H1337.69L1337.67 22.9302H1340.2ZM1356.54 22.9302L1356.51 29.7065H1353.99V22.9302H1356.54ZM1351.83 5.80469V7.8877H1343.42V5.80469H1351.83ZM1354.02 5.80469V25H1351.49V5.80469H1354.02ZM1342.55 5.80469H1345.09L1344.7 13.5303C1344.65 14.6904 1344.54 15.7627 1344.37 16.7471C1344.2 17.7227 1344 18.6147 1343.75 19.4233C1343.5 20.2319 1343.22 20.957 1342.91 21.5986C1342.59 22.2314 1342.25 22.7808 1341.89 23.2466C1341.53 23.7036 1341.15 24.0815 1340.76 24.3804C1340.37 24.6704 1339.98 24.877 1339.58 25H1338.42V22.9302H1339.24C1339.47 22.6841 1339.73 22.3281 1340.02 21.8623C1340.32 21.3965 1340.61 20.7944 1340.9 20.0562C1341.2 19.3091 1341.46 18.3994 1341.68 17.3271C1341.91 16.2549 1342.06 14.9893 1342.14 13.5303L1342.55 5.80469ZM1358.52 18.0259V17.7227C1358.52 16.6943 1358.67 15.7407 1358.96 14.8618C1359.26 13.9741 1359.69 13.2051 1360.26 12.5547C1360.82 11.8955 1361.5 11.3857 1362.3 11.0254C1363.1 10.6562 1364 10.4717 1364.99 10.4717C1365.99 10.4717 1366.89 10.6562 1367.69 11.0254C1368.5 11.3857 1369.19 11.8955 1369.75 12.5547C1370.32 13.2051 1370.75 13.9741 1371.05 14.8618C1371.35 15.7407 1371.5 16.6943 1371.5 17.7227V18.0259C1371.5 19.0542 1371.35 20.0078 1371.05 20.8867C1370.75 21.7656 1370.32 22.5347 1369.75 23.1938C1369.19 23.8442 1368.5 24.354 1367.7 24.7231C1366.91 25.0835 1366.02 25.2637 1365.02 25.2637C1364.01 25.2637 1363.11 25.0835 1362.31 24.7231C1361.51 24.354 1360.83 23.8442 1360.26 23.1938C1359.69 22.5347 1359.26 21.7656 1358.96 20.8867C1358.67 20.0078 1358.52 19.0542 1358.52 18.0259ZM1360.95 17.7227V18.0259C1360.95 18.7378 1361.04 19.4102 1361.21 20.043C1361.37 20.667 1361.62 21.2207 1361.96 21.7041C1362.3 22.1875 1362.73 22.5698 1363.24 22.8511C1363.75 23.1235 1364.34 23.2598 1365.02 23.2598C1365.68 23.2598 1366.27 23.1235 1366.77 22.8511C1367.28 22.5698 1367.7 22.1875 1368.03 21.7041C1368.37 21.2207 1368.62 20.667 1368.79 20.043C1368.96 19.4102 1369.05 18.7378 1369.05 18.0259V17.7227C1369.05 17.0195 1368.96 16.356 1368.79 15.7319C1368.62 15.0991 1368.36 14.541 1368.02 14.0576C1367.69 13.5654 1367.27 13.1787 1366.76 12.8975C1366.25 12.6162 1365.67 12.4756 1364.99 12.4756C1364.32 12.4756 1363.73 12.6162 1363.22 12.8975C1362.72 13.1787 1362.3 13.5654 1361.96 14.0576C1361.62 14.541 1361.37 15.0991 1361.21 15.7319C1361.04 16.356 1360.95 17.0195 1360.95 17.7227ZM1377 13.4775V30.4844H1374.55V10.7354H1376.79L1377 13.4775ZM1386.61 17.749V18.0259C1386.61 19.063 1386.49 20.0254 1386.24 20.9131C1385.99 21.792 1385.63 22.5566 1385.16 23.207C1384.69 23.8574 1384.12 24.3628 1383.43 24.7231C1382.75 25.0835 1381.96 25.2637 1381.07 25.2637C1380.17 25.2637 1379.37 25.1143 1378.67 24.8154C1377.98 24.5166 1377.39 24.0815 1376.91 23.5103C1376.42 22.939 1376.04 22.2534 1375.75 21.4536C1375.47 20.6538 1375.27 19.7529 1375.17 18.751V17.2744C1375.27 16.2197 1375.47 15.2749 1375.76 14.4399C1376.05 13.605 1376.43 12.8931 1376.91 12.3042C1377.39 11.7065 1377.97 11.2539 1378.66 10.9463C1379.35 10.6299 1380.14 10.4717 1381.03 10.4717C1381.93 10.4717 1382.73 10.6475 1383.42 10.999C1384.11 11.3418 1384.7 11.834 1385.17 12.4756C1385.65 13.1172 1386 13.8862 1386.24 14.7827C1386.49 15.6704 1386.61 16.6592 1386.61 17.749ZM1384.16 18.0259V17.749C1384.16 17.0371 1384.08 16.3691 1383.93 15.7451C1383.78 15.1123 1383.55 14.5586 1383.23 14.084C1382.93 13.6006 1382.53 13.2227 1382.05 12.9502C1381.56 12.6689 1380.99 12.5283 1380.32 12.5283C1379.71 12.5283 1379.17 12.6338 1378.71 12.8447C1378.26 13.0557 1377.88 13.3413 1377.57 13.7017C1377.25 14.0532 1376.99 14.4575 1376.79 14.9146C1376.59 15.3628 1376.45 15.8286 1376.35 16.312V19.7266C1376.53 20.3418 1376.77 20.9219 1377.09 21.4668C1377.41 22.0029 1377.83 22.438 1378.36 22.772C1378.88 23.0972 1379.55 23.2598 1380.35 23.2598C1381.01 23.2598 1381.57 23.1235 1382.05 22.8511C1382.53 22.5698 1382.93 22.1875 1383.23 21.7041C1383.55 21.2207 1383.78 20.667 1383.93 20.043C1384.08 19.4102 1384.16 18.7378 1384.16 18.0259ZM1389.08 18.0259V17.7227C1389.08 16.6943 1389.22 15.7407 1389.52 14.8618C1389.82 13.9741 1390.25 13.2051 1390.82 12.5547C1391.38 11.8955 1392.06 11.3857 1392.86 11.0254C1393.66 10.6562 1394.56 10.4717 1395.55 10.4717C1396.55 10.4717 1397.45 10.6562 1398.25 11.0254C1399.06 11.3857 1399.75 11.8955 1400.31 12.5547C1400.88 13.2051 1401.31 13.9741 1401.61 14.8618C1401.91 15.7407 1402.06 16.6943 1402.06 17.7227V18.0259C1402.06 19.0542 1401.91 20.0078 1401.61 20.8867C1401.31 21.7656 1400.88 22.5347 1400.31 23.1938C1399.75 23.8442 1399.06 24.354 1398.26 24.7231C1397.47 25.0835 1396.58 25.2637 1395.57 25.2637C1394.57 25.2637 1393.67 25.0835 1392.87 24.7231C1392.07 24.354 1391.39 23.8442 1390.82 23.1938C1390.25 22.5347 1389.82 21.7656 1389.52 20.8867C1389.22 20.0078 1389.08 19.0542 1389.08 18.0259ZM1391.51 17.7227V18.0259C1391.51 18.7378 1391.6 19.4102 1391.76 20.043C1391.93 20.667 1392.18 21.2207 1392.52 21.7041C1392.86 22.1875 1393.29 22.5698 1393.79 22.8511C1394.3 23.1235 1394.9 23.2598 1395.57 23.2598C1396.24 23.2598 1396.83 23.1235 1397.33 22.8511C1397.84 22.5698 1398.26 22.1875 1398.59 21.7041C1398.93 21.2207 1399.18 20.667 1399.35 20.043C1399.52 19.4102 1399.61 18.7378 1399.61 18.0259V17.7227C1399.61 17.0195 1399.52 16.356 1399.35 15.7319C1399.18 15.0991 1398.92 14.541 1398.58 14.0576C1398.25 13.5654 1397.82 13.1787 1397.31 12.8975C1396.81 12.6162 1396.23 12.4756 1395.55 12.4756C1394.88 12.4756 1394.29 12.6162 1393.78 12.8975C1393.28 13.1787 1392.86 13.5654 1392.52 14.0576C1392.18 14.541 1391.93 15.0991 1391.76 15.7319C1391.6 16.356 1391.51 17.0195 1391.51 17.7227ZM1409.15 18.7905L1403.75 10.7354H1406.69L1410.38 16.6416H1413.23L1412.87 18.7905H1409.15ZM1410.49 18.54L1406.35 25H1403.26L1408.94 16.7734L1410.49 18.54ZM1414.48 10.7354V25H1412.04V10.7354H1414.48ZM1422.8 10.7354L1417.39 18.7905H1413.68L1413.29 16.6416H1416.15L1419.85 10.7354H1422.8ZM1420.19 25L1416.04 18.54L1417.6 16.7734L1423.27 25H1420.19ZM1435.2 16.9185V18.896H1427.66V16.9185H1435.2ZM1428.18 10.7354V25H1425.74V10.7354H1428.18ZM1437.18 10.7354V25H1434.73V10.7354H1437.18ZM1440.46 18.0259V17.7227C1440.46 16.6943 1440.61 15.7407 1440.91 14.8618C1441.21 13.9741 1441.64 13.2051 1442.21 12.5547C1442.77 11.8955 1443.45 11.3857 1444.25 11.0254C1445.05 10.6562 1445.94 10.4717 1446.94 10.4717C1447.94 10.4717 1448.84 10.6562 1449.64 11.0254C1450.45 11.3857 1451.13 11.8955 1451.7 12.5547C1452.27 13.2051 1452.7 13.9741 1453 14.8618C1453.3 15.7407 1453.45 16.6943 1453.45 17.7227V18.0259C1453.45 19.0542 1453.3 20.0078 1453 20.8867C1452.7 21.7656 1452.27 22.5347 1451.7 23.1938C1451.13 23.8442 1450.45 24.354 1449.65 24.7231C1448.86 25.0835 1447.97 25.2637 1446.96 25.2637C1445.96 25.2637 1445.06 25.0835 1444.26 24.7231C1443.46 24.354 1442.78 23.8442 1442.21 23.1938C1441.64 22.5347 1441.21 21.7656 1440.91 20.8867C1440.61 20.0078 1440.46 19.0542 1440.46 18.0259ZM1442.9 17.7227V18.0259C1442.9 18.7378 1442.99 19.4102 1443.15 20.043C1443.32 20.667 1443.57 21.2207 1443.91 21.7041C1444.25 22.1875 1444.67 22.5698 1445.18 22.8511C1445.69 23.1235 1446.29 23.2598 1446.96 23.2598C1447.63 23.2598 1448.22 23.1235 1448.72 22.8511C1449.23 22.5698 1449.65 22.1875 1449.98 21.7041C1450.32 21.2207 1450.57 20.667 1450.73 20.043C1450.91 19.4102 1451 18.7378 1451 18.0259V17.7227C1451 17.0195 1450.91 16.356 1450.73 15.7319C1450.57 15.0991 1450.31 14.541 1449.97 14.0576C1449.64 13.5654 1449.21 13.1787 1448.7 12.8975C1448.2 12.6162 1447.61 12.4756 1446.94 12.4756C1446.27 12.4756 1445.68 12.6162 1445.17 12.8975C1444.67 13.1787 1444.25 13.5654 1443.91 14.0576C1443.57 14.541 1443.32 15.0991 1443.15 15.7319C1442.99 16.356 1442.9 17.0195 1442.9 17.7227ZM1462.43 25.2637C1461.44 25.2637 1460.53 25.0967 1459.73 24.7627C1458.93 24.4199 1458.24 23.9409 1457.66 23.3257C1457.08 22.7104 1456.65 21.981 1456.34 21.1372C1456.03 20.2935 1455.88 19.3706 1455.88 18.3687V17.8149C1455.88 16.6548 1456.05 15.6221 1456.39 14.7168C1456.73 13.8027 1457.2 13.0293 1457.79 12.3965C1458.38 11.7637 1459.04 11.2847 1459.79 10.9595C1460.54 10.6343 1461.31 10.4717 1462.11 10.4717C1463.13 10.4717 1464.01 10.6475 1464.75 10.999C1465.5 11.3506 1466.11 11.8428 1466.58 12.4756C1467.06 13.0996 1467.41 13.8379 1467.64 14.6904C1467.86 15.5342 1467.98 16.457 1467.98 17.459V18.5532H1457.33V16.5625H1465.54V16.3779C1465.5 15.7451 1465.37 15.1299 1465.14 14.5322C1464.92 13.9346 1464.57 13.4424 1464.09 13.0557C1463.61 12.6689 1462.95 12.4756 1462.11 12.4756C1461.56 12.4756 1461.05 12.5942 1460.58 12.8315C1460.12 13.0601 1459.72 13.4028 1459.38 13.8599C1459.05 14.3169 1458.79 14.875 1458.61 15.5342C1458.42 16.1934 1458.33 16.9536 1458.33 17.8149V18.3687C1458.33 19.0454 1458.42 19.6826 1458.61 20.2803C1458.8 20.8691 1459.08 21.3877 1459.44 21.8359C1459.81 22.2842 1460.25 22.6357 1460.77 22.8906C1461.29 23.1455 1461.89 23.2729 1462.56 23.2729C1463.42 23.2729 1464.15 23.0972 1464.75 22.7456C1465.35 22.394 1465.87 21.9238 1466.32 21.335L1467.79 22.5083C1467.49 22.9741 1467.1 23.418 1466.62 23.8398C1466.15 24.2617 1465.56 24.6045 1464.87 24.8682C1464.18 25.1318 1463.37 25.2637 1462.43 25.2637ZM1483.23 23.2598C1483.81 23.2598 1484.35 23.1411 1484.84 22.9038C1485.33 22.6665 1485.74 22.3413 1486.05 21.9282C1486.37 21.5063 1486.55 21.0273 1486.59 20.4912H1488.91C1488.87 21.335 1488.58 22.1216 1488.06 22.8511C1487.54 23.5718 1486.86 24.1562 1486.01 24.6045C1485.17 25.0439 1484.24 25.2637 1483.23 25.2637C1482.16 25.2637 1481.22 25.0747 1480.42 24.6968C1479.63 24.3188 1478.97 23.8003 1478.45 23.1411C1477.93 22.4819 1477.54 21.7261 1477.27 20.8735C1477.02 20.0122 1476.89 19.1025 1476.89 18.1445V17.5908C1476.89 16.6328 1477.02 15.7275 1477.27 14.875C1477.54 14.0137 1477.93 13.2534 1478.45 12.5942C1478.97 11.9351 1479.63 11.4165 1480.42 11.0386C1481.22 10.6606 1482.16 10.4717 1483.23 10.4717C1484.35 10.4717 1485.32 10.7002 1486.16 11.1572C1486.99 11.6055 1487.65 12.2207 1488.12 13.0029C1488.61 13.7764 1488.87 14.6553 1488.91 15.6396H1486.59C1486.55 15.0508 1486.38 14.519 1486.09 14.0444C1485.81 13.5698 1485.43 13.1919 1484.93 12.9106C1484.45 12.6206 1483.88 12.4756 1483.23 12.4756C1482.49 12.4756 1481.86 12.625 1481.35 12.9238C1480.85 13.2139 1480.45 13.6094 1480.15 14.1104C1479.86 14.6025 1479.65 15.1519 1479.51 15.7583C1479.39 16.356 1479.33 16.9668 1479.33 17.5908V18.1445C1479.33 18.7686 1479.39 19.3838 1479.51 19.9902C1479.64 20.5967 1479.84 21.146 1480.13 21.6382C1480.43 22.1304 1480.83 22.5259 1481.33 22.8247C1481.84 23.1147 1482.48 23.2598 1483.23 23.2598ZM1497.47 10.7354V25H1495.02V10.7354H1497.47ZM1502.26 10.7354V12.7129H1490.33V10.7354H1502.26ZM1507.09 13.4775V30.4844H1504.64V10.7354H1506.88L1507.09 13.4775ZM1516.71 17.749V18.0259C1516.71 19.063 1516.58 20.0254 1516.34 20.9131C1516.09 21.792 1515.73 22.5566 1515.26 23.207C1514.79 23.8574 1514.21 24.3628 1513.53 24.7231C1512.84 25.0835 1512.06 25.2637 1511.17 25.2637C1510.26 25.2637 1509.46 25.1143 1508.77 24.8154C1508.07 24.5166 1507.49 24.0815 1507 23.5103C1506.52 22.939 1506.13 22.2534 1505.84 21.4536C1505.56 20.6538 1505.37 19.7529 1505.26 18.751V17.2744C1505.37 16.2197 1505.57 15.2749 1505.86 14.4399C1506.15 13.605 1506.53 12.8931 1507 12.3042C1507.49 11.7065 1508.07 11.2539 1508.76 10.9463C1509.44 10.6299 1510.23 10.4717 1511.13 10.4717C1512.03 10.4717 1512.82 10.6475 1513.52 10.999C1514.21 11.3418 1514.79 11.834 1515.27 12.4756C1515.74 13.1172 1516.1 13.8862 1516.34 14.7827C1516.58 15.6704 1516.71 16.6592 1516.71 17.749ZM1514.25 18.0259V17.749C1514.25 17.0371 1514.18 16.3691 1514.03 15.7451C1513.88 15.1123 1513.65 14.5586 1513.33 14.084C1513.02 13.6006 1512.63 13.2227 1512.14 12.9502C1511.66 12.6689 1511.08 12.5283 1510.42 12.5283C1509.8 12.5283 1509.27 12.6338 1508.81 12.8447C1508.36 13.0557 1507.98 13.3413 1507.66 13.7017C1507.35 14.0532 1507.09 14.4575 1506.88 14.9146C1506.69 15.3628 1506.55 15.8286 1506.45 16.312V19.7266C1506.62 20.3418 1506.87 20.9219 1507.19 21.4668C1507.5 22.0029 1507.93 22.438 1508.45 22.772C1508.98 23.0972 1509.64 23.2598 1510.44 23.2598C1511.1 23.2598 1511.67 23.1235 1512.14 22.8511C1512.63 22.5698 1513.02 22.1875 1513.33 21.7041C1513.65 21.2207 1513.88 20.667 1514.03 20.043C1514.18 19.4102 1514.25 18.7378 1514.25 18.0259ZM1519.17 18.0259V17.7227C1519.17 16.6943 1519.32 15.7407 1519.62 14.8618C1519.92 13.9741 1520.35 13.2051 1520.91 12.5547C1521.47 11.8955 1522.15 11.3857 1522.95 11.0254C1523.75 10.6562 1524.65 10.4717 1525.64 10.4717C1526.65 10.4717 1527.55 10.6562 1528.35 11.0254C1529.16 11.3857 1529.84 11.8955 1530.4 12.5547C1530.97 13.2051 1531.41 13.9741 1531.71 14.8618C1532.01 15.7407 1532.16 16.6943 1532.16 17.7227V18.0259C1532.16 19.0542 1532.01 20.0078 1531.71 20.8867C1531.41 21.7656 1530.97 22.5347 1530.4 23.1938C1529.84 23.8442 1529.16 24.354 1528.36 24.7231C1527.57 25.0835 1526.67 25.2637 1525.67 25.2637C1524.67 25.2637 1523.77 25.0835 1522.97 24.7231C1522.17 24.354 1521.48 23.8442 1520.91 23.1938C1520.35 22.5347 1519.92 21.7656 1519.62 20.8867C1519.32 20.0078 1519.17 19.0542 1519.17 18.0259ZM1521.61 17.7227V18.0259C1521.61 18.7378 1521.69 19.4102 1521.86 20.043C1522.03 20.667 1522.28 21.2207 1522.61 21.7041C1522.95 22.1875 1523.38 22.5698 1523.89 22.8511C1524.4 23.1235 1524.99 23.2598 1525.67 23.2598C1526.34 23.2598 1526.92 23.1235 1527.42 22.8511C1527.93 22.5698 1528.36 22.1875 1528.69 21.7041C1529.02 21.2207 1529.27 20.667 1529.44 20.043C1529.62 19.4102 1529.7 18.7378 1529.7 18.0259V17.7227C1529.7 17.0195 1529.62 16.356 1529.44 15.7319C1529.27 15.0991 1529.02 14.541 1528.68 14.0576C1528.34 13.5654 1527.92 13.1787 1527.41 12.8975C1526.91 12.6162 1526.32 12.4756 1525.64 12.4756C1524.98 12.4756 1524.39 12.6162 1523.88 12.8975C1523.38 13.1787 1522.95 13.5654 1522.61 14.0576C1522.28 14.541 1522.03 15.0991 1521.86 15.7319C1521.69 16.356 1521.61 17.0195 1521.61 17.7227ZM1537.85 21.1372L1544.43 10.7354H1546.88V25H1544.43V14.5981L1537.85 25H1535.43V10.7354H1537.85V21.1372ZM1556.61 10.7354V25H1554.16V10.7354H1556.61ZM1561.4 10.7354V12.7129H1549.47V10.7354H1561.4ZM1568.66 25.2637C1567.67 25.2637 1566.77 25.0967 1565.96 24.7627C1565.16 24.4199 1564.47 23.9409 1563.89 23.3257C1563.32 22.7104 1562.88 21.981 1562.57 21.1372C1562.26 20.2935 1562.11 19.3706 1562.11 18.3687V17.8149C1562.11 16.6548 1562.28 15.6221 1562.62 14.7168C1562.97 13.8027 1563.43 13.0293 1564.02 12.3965C1564.61 11.7637 1565.28 11.2847 1566.03 10.9595C1566.77 10.6343 1567.55 10.4717 1568.35 10.4717C1569.37 10.4717 1570.24 10.6475 1570.98 10.999C1571.73 11.3506 1572.34 11.8428 1572.81 12.4756C1573.29 13.0996 1573.64 13.8379 1573.87 14.6904C1574.1 15.5342 1574.21 16.457 1574.21 17.459V18.5532H1563.56V16.5625H1571.77V16.3779C1571.74 15.7451 1571.61 15.1299 1571.38 14.5322C1571.16 13.9346 1570.81 13.4424 1570.32 13.0557C1569.84 12.6689 1569.18 12.4756 1568.35 12.4756C1567.79 12.4756 1567.28 12.5942 1566.82 12.8315C1566.35 13.0601 1565.95 13.4028 1565.62 13.8599C1565.28 14.3169 1565.02 14.875 1564.84 15.5342C1564.65 16.1934 1564.56 16.9536 1564.56 17.8149V18.3687C1564.56 19.0454 1564.65 19.6826 1564.84 20.2803C1565.03 20.8691 1565.31 21.3877 1565.67 21.8359C1566.04 22.2842 1566.48 22.6357 1567 22.8906C1567.53 23.1455 1568.13 23.2729 1568.79 23.2729C1569.66 23.2729 1570.38 23.0972 1570.98 22.7456C1571.58 22.394 1572.1 21.9238 1572.55 21.335L1574.03 22.5083C1573.72 22.9741 1573.33 23.418 1572.85 23.8398C1572.38 24.2617 1571.8 24.6045 1571.1 24.8682C1570.42 25.1318 1569.6 25.2637 1568.66 25.2637ZM1586.59 10.7354V12.7524H1579.7V10.7354H1586.59ZM1588.74 10.7354V25H1586.3V10.7354H1588.74ZM1579.1 10.7354H1581.56L1581.19 17.6172C1581.12 18.6807 1581.02 19.6211 1580.88 20.4385C1580.75 21.2471 1580.57 21.9414 1580.33 22.5215C1580.1 23.1016 1579.81 23.5762 1579.46 23.9453C1579.12 24.3057 1578.7 24.5737 1578.22 24.7495C1577.74 24.9165 1577.18 25 1576.55 25H1575.78V22.8511L1576.31 22.8115C1576.69 22.7852 1577.01 22.6973 1577.27 22.5479C1577.54 22.3984 1577.77 22.1787 1577.96 21.8887C1578.14 21.5898 1578.29 21.2075 1578.4 20.7417C1578.53 20.2759 1578.62 19.7222 1578.68 19.0806C1578.75 18.439 1578.8 17.6919 1578.84 16.8394L1579.1 10.7354ZM1594.67 15.6396H1598.96C1600.11 15.6396 1601.08 15.8418 1601.87 16.2461C1602.66 16.6416 1603.26 17.1909 1603.66 17.894C1604.08 18.5884 1604.28 19.3794 1604.28 20.2671C1604.28 20.9263 1604.17 21.5459 1603.94 22.126C1603.71 22.6973 1603.37 23.1982 1602.91 23.6289C1602.46 24.0596 1601.91 24.3979 1601.24 24.644C1600.58 24.8813 1599.82 25 1598.96 25H1592.89V10.7354H1595.33V22.9961H1598.96C1599.66 22.9961 1600.22 22.8687 1600.65 22.6138C1601.07 22.3589 1601.37 22.0293 1601.56 21.625C1601.74 21.2207 1601.83 20.7988 1601.83 20.3594C1601.83 19.9287 1601.74 19.5068 1601.56 19.0938C1601.37 18.6807 1601.07 18.3379 1600.65 18.0654C1600.22 17.7842 1599.66 17.6436 1598.96 17.6436H1594.67V15.6396ZM1613.04 23.2598C1613.62 23.2598 1614.15 23.1411 1614.65 22.9038C1615.14 22.6665 1615.54 22.3413 1615.86 21.9282C1616.18 21.5063 1616.36 21.0273 1616.4 20.4912H1618.72C1618.68 21.335 1618.39 22.1216 1617.86 22.8511C1617.34 23.5718 1616.66 24.1562 1615.82 24.6045C1614.98 25.0439 1614.05 25.2637 1613.04 25.2637C1611.97 25.2637 1611.03 25.0747 1610.23 24.6968C1609.44 24.3188 1608.78 23.8003 1608.25 23.1411C1607.73 22.4819 1607.34 21.7261 1607.08 20.8735C1606.82 20.0122 1606.7 19.1025 1606.7 18.1445V17.5908C1606.7 16.6328 1606.82 15.7275 1607.08 14.875C1607.34 14.0137 1607.73 13.2534 1608.25 12.5942C1608.78 11.9351 1609.44 11.4165 1610.23 11.0386C1611.03 10.6606 1611.97 10.4717 1613.04 10.4717C1614.15 10.4717 1615.13 10.7002 1615.96 11.1572C1616.8 11.6055 1617.45 12.2207 1617.93 13.0029C1618.41 13.7764 1618.68 14.6553 1618.72 15.6396H1616.4C1616.36 15.0508 1616.19 14.519 1615.9 14.0444C1615.62 13.5698 1615.23 13.1919 1614.74 12.9106C1614.26 12.6206 1613.69 12.4756 1613.04 12.4756C1612.29 12.4756 1611.66 12.625 1611.15 12.9238C1610.65 13.2139 1610.25 13.6094 1609.95 14.1104C1609.66 14.6025 1609.45 15.1519 1609.32 15.7583C1609.2 16.356 1609.14 16.9668 1609.14 17.5908V18.1445C1609.14 18.7686 1609.2 19.3838 1609.32 19.9902C1609.44 20.5967 1609.65 21.146 1609.94 21.6382C1610.24 22.1304 1610.64 22.5259 1611.14 22.8247C1611.65 23.1147 1612.28 23.2598 1613.04 23.2598ZM1627.28 10.7354V25H1624.82V10.7354H1627.28ZM1632.06 10.7354V12.7129H1620.13V10.7354H1632.06ZM1641.16 18.7246H1636.48L1636.45 16.7734H1640.28C1641.03 16.7734 1641.66 16.6987 1642.16 16.5493C1642.67 16.3999 1643.05 16.1758 1643.31 15.877C1643.56 15.5781 1643.69 15.209 1643.69 14.7695C1643.69 14.4268 1643.62 14.1279 1643.47 13.873C1643.33 13.6094 1643.11 13.394 1642.82 13.2271C1642.53 13.0513 1642.17 12.9238 1641.74 12.8447C1641.32 12.7568 1640.82 12.7129 1640.25 12.7129H1637.12V25H1634.69V10.7354H1640.25C1641.15 10.7354 1641.97 10.8145 1642.69 10.9727C1643.42 11.1309 1644.04 11.3726 1644.55 11.6978C1645.07 12.0142 1645.46 12.4185 1645.73 12.9106C1646.01 13.4028 1646.14 13.9829 1646.14 14.6509C1646.14 15.0815 1646.05 15.4902 1645.88 15.877C1645.7 16.2637 1645.44 16.6064 1645.1 16.9053C1644.76 17.2041 1644.34 17.4502 1643.83 17.6436C1643.33 17.8281 1642.76 17.9468 1642.11 17.9995L1641.16 18.7246ZM1641.16 25H1635.6L1636.81 23.0225H1641.16C1641.84 23.0225 1642.4 22.939 1642.85 22.772C1643.29 22.5962 1643.63 22.3501 1643.85 22.0337C1644.08 21.7085 1644.19 21.3218 1644.19 20.8735C1644.19 20.4253 1644.08 20.043 1643.85 19.7266C1643.63 19.4014 1643.29 19.1553 1642.85 18.9883C1642.4 18.8125 1641.84 18.7246 1641.16 18.7246H1637.45L1637.48 16.7734H1642.11L1642.99 17.5117C1643.77 17.5732 1644.44 17.7666 1644.98 18.0918C1645.53 18.417 1645.94 18.8301 1646.22 19.3311C1646.5 19.8232 1646.64 20.3594 1646.64 20.9395C1646.64 21.6074 1646.52 22.1963 1646.26 22.7061C1646.01 23.2158 1645.65 23.6421 1645.18 23.9849C1644.71 24.3188 1644.13 24.5737 1643.45 24.7495C1642.78 24.9165 1642.01 25 1641.16 25ZM1649.27 18.0259V17.7227C1649.27 16.6943 1649.42 15.7407 1649.71 14.8618C1650.01 13.9741 1650.44 13.2051 1651.01 12.5547C1651.57 11.8955 1652.25 11.3857 1653.05 11.0254C1653.85 10.6562 1654.75 10.4717 1655.74 10.4717C1656.74 10.4717 1657.64 10.6562 1658.44 11.0254C1659.25 11.3857 1659.94 11.8955 1660.5 12.5547C1661.07 13.2051 1661.51 13.9741 1661.8 14.8618C1662.1 15.7407 1662.25 16.6943 1662.25 17.7227V18.0259C1662.25 19.0542 1662.1 20.0078 1661.8 20.8867C1661.51 21.7656 1661.07 22.5347 1660.5 23.1938C1659.94 23.8442 1659.26 24.354 1658.46 24.7231C1657.66 25.0835 1656.77 25.2637 1655.77 25.2637C1654.76 25.2637 1653.86 25.0835 1653.06 24.7231C1652.26 24.354 1651.58 23.8442 1651.01 23.1938C1650.44 22.5347 1650.01 21.7656 1649.71 20.8867C1649.42 20.0078 1649.27 19.0542 1649.27 18.0259ZM1651.71 17.7227V18.0259C1651.71 18.7378 1651.79 19.4102 1651.96 20.043C1652.12 20.667 1652.37 21.2207 1652.71 21.7041C1653.05 22.1875 1653.48 22.5698 1653.99 22.8511C1654.5 23.1235 1655.09 23.2598 1655.77 23.2598C1656.43 23.2598 1657.02 23.1235 1657.52 22.8511C1658.03 22.5698 1658.45 22.1875 1658.79 21.7041C1659.12 21.2207 1659.37 20.667 1659.54 20.043C1659.71 19.4102 1659.8 18.7378 1659.8 18.0259V17.7227C1659.8 17.0195 1659.71 16.356 1659.54 15.7319C1659.37 15.0991 1659.11 14.541 1658.77 14.0576C1658.44 13.5654 1658.02 13.1787 1657.51 12.8975C1657.01 12.6162 1656.42 12.4756 1655.74 12.4756C1655.07 12.4756 1654.48 12.6162 1653.97 12.8975C1653.47 13.1787 1653.05 13.5654 1652.71 14.0576C1652.37 14.541 1652.12 15.0991 1651.96 15.7319C1651.79 16.356 1651.71 17.0195 1651.71 17.7227Z" fill="#008C95"/>
</svg>
