<svg width="783" height="599" viewBox="0 0 783 599" fill="none" xmlns="http://www.w3.org/2000/svg">
<path d="M502.059 270.672V235.109L516.169 238.034V267.368L502.059 270.672ZM507.174 241.338V264.284L511.078 263.293V242.232L507.174 241.338Z" fill="#77E2C3"/>
<path d="M524.723 270.501H502.059V235.049H524.723V270.501ZM507.174 265.398H519.62V240.164H507.174V265.398Z" fill="#77E2C3"/>
<path d="M516.181 267.368V265.398H507.174V264.284V241.338V240.163H516.181V238.034L502.059 235.109V270.501H502.781L516.181 267.368Z" fill="#008C95"/>
<path d="M539.532 270.501H519.621V235.049H539.532V270.501ZM524.724 265.398H534.417V240.164H524.724V265.398Z" fill="#77E2C3"/>
<path d="M524.724 235.722V235.049H519.621V235.722V239.491V240.164H524.724V239.491V235.722Z" fill="#008C95"/>
<path d="M524.724 266.07V265.396H519.621V266.07V269.839V270.5H524.724V269.839V266.07Z" fill="#008C95"/>
<path d="M99.3096 88.293H88.3691V103.015H99.3096V88.293Z" fill="#77E2C3"/>
<path d="M110.245 80.791H99.3047V91.9028H110.245V80.791Z" fill="#008C95"/>
<path d="M121.189 69.8516H110.248V103.016H121.189V69.8516Z" fill="#77E2C3"/>
<path d="M121.189 91.9043H110.248V103.016H121.189V91.9043Z" fill="#008C95"/>
<path d="M121.189 69.8516H110.248V80.9634H121.189V69.8516Z" fill="#008C95"/>
<path d="M460.269 85.2702L439.881 71.1602L414.867 88.452L429.724 98.7683V98.7316L435.476 102.758L460.269 85.2702Z" fill="#77E2C3"/>
<path d="M443.578 85.3457L436.713 92.1988L443.578 96.9593V85.3457Z" fill="#008C95"/>
<path d="M436.713 80.5488L429.848 87.4019L436.713 92.1746V80.5488Z" fill="#008C95"/>
<path d="M429.848 75.7852L422.982 82.6383L429.848 87.3987V75.7852Z" fill="#008C95"/>
<path d="M436.713 80.5456L429.848 75.7852V87.3987L436.713 80.5456Z" fill="#77E2C3"/>
<path d="M443.578 85.3215L436.713 80.5488V92.1746L443.578 85.3215Z" fill="#77E2C3"/>
<path d="M452.132 79.6289L445.193 86.433L452.022 91.0956L452.132 79.6289Z" fill="#008C95"/>
<path d="M445.264 74.8691L438.398 81.7222L445.264 86.4827V74.8691Z" fill="#008C95"/>
<path d="M438.4 70.0957L431.535 76.961L438.4 81.7215V70.0957Z" fill="#008C95"/>
<path d="M445.264 74.8684L438.398 70.0957V81.7215L445.264 74.8684Z" fill="#77E2C3"/>
<path d="M452.129 79.6296L445.264 74.8691V86.4827L452.129 79.6296Z" fill="#77E2C3"/>
<path d="M443.624 97.0083L435.449 91.1465V102.772L443.624 97.0083Z" fill="#77E2C3"/>
<path d="M435.451 91.1465L428.586 98.0118L435.451 102.772V91.1465Z" fill="#008C95"/>
<path d="M428.586 86.3594L421.721 93.2124L428.586 97.9852V86.3594Z" fill="#008C95"/>
<path d="M435.451 91.1321L428.586 86.3594V97.9852L435.451 91.1321Z" fill="#77E2C3"/>
<path d="M421.72 81.5879L414.867 88.4532L421.72 93.2137V81.5879Z" fill="#008C95"/>
<path d="M428.586 86.3606L421.721 81.5879V93.2137L428.586 86.3606Z" fill="#77E2C3"/>
<path d="M359.689 184.677H338.738V179.231H359.689C361.5 179.231 362.969 177.763 362.969 175.951C362.969 174.14 361.5 172.672 359.689 172.672H350.119C345.31 172.672 341.394 168.756 341.394 163.946V163.347C341.394 158.537 345.31 154.621 350.119 154.621H370.067V160.067H350.119C348.308 160.067 346.84 161.535 346.84 163.347V163.946C346.84 165.757 348.308 167.226 350.119 167.226H359.689C364.499 167.226 368.415 171.142 368.415 175.951C368.415 180.761 364.499 184.677 359.689 184.677Z" fill="#77E2C3"/>
<path d="M357.952 164.436H352.506V175.535H357.952V164.436Z" fill="#77E2C3"/>
<path d="M357.952 167.229H352.506V172.674H357.952V167.229Z" fill="#008C95"/>
<path d="M365.295 151.809H359.85V162.908H365.295V151.809Z" fill="#77E2C3"/>
<path d="M365.295 154.633H359.85V160.079H365.295V154.633Z" fill="#008C95"/>
<path d="M349.692 176.404H344.246V187.504H349.692V176.404Z" fill="#77E2C3"/>
<path d="M349.692 179.23H344.246V184.676H349.692V179.23Z" fill="#008C95"/>
<path d="M512.672 104.532H528.936V78.6738H512.672V104.532ZM524.616 100.212H516.98V82.9815H524.616V100.212Z" fill="#77E2C3"/>
<path d="M501.193 104.532H516.992V78.6738H501.193V104.532ZM512.672 100.212H505.501V82.9815H512.672V100.212Z" fill="#77E2C3"/>
<path d="M524.613 94.2039H540.412V68.3457H524.613V94.2039ZM536.092 89.884H528.921V72.6533H536.092V89.884Z" fill="#77E2C3"/>
<path d="M512.672 94.2039H528.936V68.3457H512.672V94.2039ZM524.616 89.884H516.98V72.6533H524.616V89.884Z" fill="#77E2C3"/>
<path d="M516.98 78.6738V82.9815V94.2034H512.672V78.6738H516.98Z" fill="#008C95"/>
<path d="M524.613 89.8835V82.9815V78.6738H528.933V94.2034H524.613V89.8835Z" fill="#008C95"/>
<path d="M606.752 75.2266H593.303C587.111 75.2266 582.105 80.244 582.105 86.4363C582.105 92.6285 587.123 97.646 593.303 97.646H606.752V75.2266Z" fill="#77E2C3"/>
<path d="M606.753 97.646C601.075 97.646 596.461 92.6285 596.461 86.4363C596.461 80.244 601.075 75.2266 606.753 75.2266C612.431 75.2266 617.045 80.244 617.045 86.4363C617.045 92.6285 612.431 97.646 606.753 97.646Z" fill="#008C95"/>
<path d="M613.79 79.3242H607.487C603.89 79.3242 600.965 82.506 600.965 86.4343C600.965 90.3626 603.89 93.5444 607.487 93.5444C607.61 93.5444 607.732 93.5321 607.855 93.5199H613.79V79.3242Z" fill="white"/>
<path d="M613.951 93.5444C610.353 93.5444 607.428 90.3626 607.428 86.4343C607.428 82.506 610.353 79.3242 613.951 79.3242C617.548 79.3242 620.473 82.506 620.473 86.4343C620.485 90.3626 617.561 93.5444 613.951 93.5444Z" fill="#77E2C3"/>
<path d="M624.669 85.0371H618.44C618.44 85.0371 618.44 85.0371 618.428 85.0371C618.416 85.0371 618.428 85.0371 618.416 85.0371H614.328C614.328 85.0371 614.328 85.0371 614.316 85.0371C614.316 85.0371 614.316 85.0371 614.304 85.0371H609.984C609.984 85.0371 609.984 85.0371 609.972 85.0371C609.972 85.0371 609.972 85.0371 609.959 85.0371H609.837V85.0494C609.176 85.1228 608.662 85.7102 608.662 86.4322C608.662 87.1542 609.176 87.7539 609.837 87.8151V87.8273H624.62C625.342 87.8273 625.929 87.2032 625.929 86.42C625.929 85.6368 625.391 85.0371 624.669 85.0371Z" fill="#77E2C3"/>
<path d="M618.443 85.0376H614.356C614.356 85.0376 614.355 85.0376 614.343 85.0376C614.343 85.0376 614.343 85.0376 614.331 85.0376H610.011C610.011 85.0376 610.011 85.0376 609.999 85.0376C609.999 85.0376 609.999 85.0376 609.987 85.0376H609.864V85.0499C609.204 85.1233 608.689 85.7107 608.689 86.4327C608.689 87.1547 609.204 87.7544 609.864 87.8156V87.8278H620.327C620.413 87.375 620.462 86.91 620.462 86.4205C620.462 85.9432 620.413 85.4782 620.327 85.0254L618.443 85.0376Z" fill="#008C95"/>
<path d="M622.787 89.4199H611.907C611.577 89.4199 611.234 89.5545 610.977 89.836C610.463 90.3867 610.463 91.2678 610.977 91.8185C611.234 92.0877 611.565 92.2346 611.907 92.2346H622.787C623.509 92.2346 624.096 91.6105 624.096 90.8272C624.096 90.044 623.509 89.4199 622.787 89.4199Z" fill="#77E2C3"/>
<path d="M611.907 89.4199C611.577 89.4199 611.234 89.5545 610.977 89.836C610.463 90.3867 610.463 91.2678 610.977 91.8185C611.234 92.0877 611.565 92.2346 611.907 92.2346H617.733C618.65 91.5248 619.385 90.558 619.874 89.4321H611.907V89.4199Z" fill="#008C95"/>
<path d="M611.907 83.4489C611.944 83.4489 611.98 83.4367 612.029 83.4367V83.4489H622.799C623.521 83.4489 624.108 82.8248 624.108 82.0538C624.108 81.2828 623.521 80.6465 622.799 80.6465H612.029V80.6587C611.993 80.6587 611.956 80.6465 611.907 80.6465C611.185 80.6465 610.598 81.2706 610.598 82.0538C610.598 82.837 611.185 83.4489 611.907 83.4489Z" fill="#77E2C3"/>
<path d="M612.014 80.6587C611.977 80.6587 611.94 80.6465 611.891 80.6465C611.169 80.6465 610.582 81.2706 610.582 82.0416C610.582 82.8126 611.169 83.4489 611.891 83.4489C611.928 83.4489 611.965 83.4367 612.014 83.4367V83.4489H619.87C619.393 82.3231 618.647 81.3563 617.729 80.6465L612.014 80.6587Z" fill="#008C95"/>
<path d="M671.197 100.752V78.834H695.758V100.752L685.919 102.098L671.197 100.752Z" fill="#008C95"/>
<path d="M699.564 92.6141C699.564 96.2364 696.627 99.1735 693.005 99.1735C689.382 99.1735 686.445 96.2364 686.445 92.6141C686.445 88.9917 689.382 86.0547 693.005 86.0547C696.627 86.0547 699.564 89.0039 699.564 92.6141Z" fill="white"/>
<path d="M703.284 78.8331C703.284 73.4241 698.903 69.043 693.482 69.043C688.073 69.043 683.68 73.4241 683.68 78.8331V91.7683L692.283 83.1653L703.297 91.7683V78.8331H703.284Z" fill="#77E2C3"/>
<path d="M694.436 91.7683C694.522 94.6564 692.307 94.5096 692.307 94.5096C690.569 94.4484 689.847 93.3592 689.896 91.7683L689.015 90.6914L686.702 90.9851C686.702 90.9851 685.943 92.4781 685.943 92.625C685.943 92.7718 686.935 95.9781 686.935 95.9781L688.868 98.1319L691.524 98.0095C691.524 98.034 691.536 98.0585 691.536 98.0585C691.646 98.1075 692.894 98.1931 692.894 98.1931L695.758 97.2875L697.055 95.6599L697.74 91.7683H694.436Z" fill="#008C95"/>
<path d="M691.415 103.837H671.211V100.754H691.342C699.908 100.325 700.251 93.2274 700.227 91.8078V91.7589C700.227 88.0631 697.216 85.0526 693.52 85.0526C689.825 85.0526 686.814 88.0631 686.814 91.7589H683.73C683.73 86.3621 688.124 81.9688 693.52 81.9688C698.917 81.9688 703.31 86.3621 703.31 91.7589C703.323 92.9459 703.127 103.275 691.452 103.837H691.415Z" fill="white"/>
<path d="M691.953 100.665C689.787 100.665 687.78 99.8569 686.274 98.3884C685.112 97.2503 683.717 95.1699 683.717 91.7556H686.801C686.801 93.6157 687.364 95.1454 688.428 96.1734C689.358 97.079 690.607 97.5685 691.953 97.5685C694.535 97.5685 697.129 95.7696 697.129 91.7434C697.129 89.7486 695.502 88.121 693.507 88.121C691.512 88.121 689.884 89.7486 689.884 91.7434H686.801C686.801 88.0476 689.811 85.0371 693.507 85.0371C697.203 85.0371 700.213 88.0476 700.213 91.7434C700.213 97.6052 696.065 100.665 691.953 100.665Z" fill="#77E2C3"/>
<path d="M691.451 100.752C691.414 100.752 691.377 100.764 691.328 100.764H671.197V103.848H691.402H691.438C691.438 103.848 691.438 103.848 691.451 103.848V100.752Z" fill="#77E2C3"/>
<path d="M700.225 91.8185C700.249 93.2381 699.907 100.336 691.34 100.764H684.928V103.848H691.414H691.45C703.125 103.285 703.321 92.9566 703.309 91.7695H700.225V91.8185Z" fill="#008C95"/>
<path d="M422.625 414.06H418.526L415.846 418.515L417.889 421.917L415.846 425.319L418.526 429.773H422.576L424.645 433.212H428.769L430.8 436.577H436.075L438.755 432.135L436.711 428.733L438.106 426.408H442.206L444.886 421.953L442.842 418.551L444.886 415.149L442.206 410.695H438.155L436.087 407.256H430.8L428.732 410.695H424.645L422.625 414.06ZM434.9 427.681H431.987L430.58 425.331L432.012 422.957H434.875L436.319 425.355L434.9 427.681ZM434.863 416.153L436.307 418.551L434.912 420.876H431.999L430.592 418.527L432.024 416.153H433.468H434.863ZM427.288 419.591H428.744L430.151 421.941L428.72 424.315H427.276H425.856L424.412 421.917L425.807 419.591H427.288ZM419.713 416.153H422.589L424.033 418.551L422.638 420.876H419.725L418.305 418.515L419.713 416.153ZM419.701 427.668L418.281 425.306L419.701 422.945H422.576L424.02 425.343L422.625 427.668H419.701ZM425.832 431.119L424.412 428.757L425.832 426.396H427.288H428.744L430.151 428.745L428.72 431.119H425.832ZM434.9 434.485H431.987L430.58 432.135L432.012 429.761H434.912L436.332 432.123L434.9 434.485ZM441.019 424.315H438.143L436.699 421.917L438.094 419.591H439.55H441.006L442.426 421.953L441.019 424.315ZM441.031 412.787L442.45 415.149L441.031 417.511H439.575H438.155L436.711 415.112L438.106 412.787H441.031ZM434.912 409.348L436.332 411.71L434.912 414.072H433.456H431.999L430.58 411.71L431.999 409.348H434.912ZM428.756 412.787L430.164 415.137L428.732 417.511H427.288H425.868L424.424 415.112L425.819 412.787H428.756Z" fill="#77E2C3"/>
<path d="M430.227 405.774C435.391 400.61 443.774 400.61 448.938 405.786C454.103 410.951 454.103 419.333 448.926 424.498C443.762 429.662 435.379 429.662 430.215 424.485C425.05 419.321 425.063 410.938 430.227 405.774Z" fill="#77E2C3"/>
<path d="M442.502 423.043C445.06 420.486 449.196 420.486 451.754 423.043C454.312 425.601 454.299 429.737 451.754 432.295C449.196 434.853 445.06 434.84 442.502 432.295C439.945 429.737 439.945 425.601 442.502 423.043Z" fill="#77E2C3"/>
<path d="M454.359 418.783C455.509 417.632 457.369 417.632 458.52 418.783C459.67 419.933 459.67 421.805 458.52 422.944C457.369 424.094 455.509 424.094 454.359 422.944C453.209 421.793 453.209 419.933 454.359 418.783Z" fill="#77E2C3"/>
<path d="M442.22 410.695H438.17L436.101 407.256H430.827L428.759 410.695H427.131C426.886 411.38 426.703 412.077 426.581 412.787H428.771L430.178 415.137L428.747 417.511H427.303H426.568C426.691 418.221 426.886 418.918 427.119 419.604H427.29H428.747L430.154 421.953L429.261 423.434C429.554 423.801 429.873 424.156 430.215 424.499C430.399 424.682 430.582 424.854 430.766 425.013L432.002 422.969H434.853L436.297 425.368L434.976 427.558C435.661 427.815 436.358 428.011 437.068 428.146L438.108 426.42H442.208L444.888 421.965L442.844 418.563L444.888 415.161L442.22 410.695ZM434.902 420.864H431.99L430.582 418.515L432.014 416.14H433.458H434.878L436.322 418.539L434.902 420.864ZM434.902 414.06H433.446H431.99L430.57 411.698L431.99 409.336H434.902L436.322 411.698L434.902 414.06ZM441.021 424.315H438.157L436.713 421.917L438.108 419.591H439.565H441.021L442.441 421.953L441.021 424.315ZM441.033 417.511H439.577H438.17L436.726 415.112L438.121 412.787H441.033L442.453 415.149L441.033 417.511Z" fill="#008C95"/>
<path d="M14.1346 91.0196L12.6094 93.2383L23.3096 100.594L24.8348 98.3751L14.1346 91.0196Z" fill="#77E2C3"/>
<path d="M23.2778 83.418L12.582 90.293L14.0378 92.5577L24.7335 85.6828L23.2778 83.418Z" fill="#77E2C3"/>
<path d="M37.1532 80.9746H34.4609V89.1372H37.1532V80.9746Z" fill="#77E2C3"/>
<path d="M40.9088 89.1387H30.8984V97.9008H40.9088V89.1387Z" fill="#008C95"/>
<path d="M25.3681 104.459H22.6881V80.9384H14.0361V104.459H11.3438V78.2461H25.3681V104.459Z" fill="#77E2C3"/>
<path d="M39.8926 80.9763V76.6442L15.0746 68.4082L2.26172 75.2123V80.9763H39.8926Z" fill="#77E2C3"/>
<path d="M15.0763 68.4082L11.3438 70.3907V80.9763H25.3681V71.8225L15.0763 68.4082Z" fill="#008C95"/>
<path d="M504.387 434.448L516.6 409.275H530.037L543.498 434.448H504.387Z" fill="#77E2C3"/>
<path d="M525.313 409.275H521.947V411.441H525.313V409.275Z" fill="white"/>
<path d="M525.313 428.306H521.947V423.558H525.313V428.306ZM525.313 419.299H521.947V414.551H525.313V419.299Z" fill="white"/>
<path d="M525.313 432.283H521.947V434.449H525.313V432.283Z" fill="white"/>
<path d="M508.144 416.606L504.387 413.607L500.63 416.606L499.125 414.733L504.387 410.523L509.637 414.733L508.144 416.606Z" fill="#77E2C3"/>
<path d="M509.697 423.507L504.386 419.236L498.855 423.679L497.35 421.806L504.386 416.152L510.774 421.28L509.697 423.507Z" fill="#77E2C3"/>
<path d="M509.918 430.225L504.386 425.783L498.855 430.225L497.35 428.353L504.386 422.699L511.423 428.353L509.918 430.225Z" fill="#77E2C3"/>
<path d="M505.598 411.955H503.188V431.658H505.598V411.955Z" fill="#77E2C3"/>
<path d="M503.188 426.75L504.387 425.783L505.586 426.75V423.666L504.387 422.699L503.188 423.666V426.75Z" fill="#008C95"/>
<path d="M503.188 420.203L504.387 419.236L505.586 420.203V417.119L504.387 416.152L503.188 417.119V420.203Z" fill="#008C95"/>
<path d="M503.188 414.576L504.387 413.609L505.586 414.576V411.492L504.387 410.537L503.188 411.492V414.576Z" fill="#008C95"/>
<path d="M533.523 410.121L537.28 407.111L541.037 410.121L542.542 408.237L537.28 404.039L532.018 408.237L533.523 410.121Z" fill="#77E2C3"/>
<path d="M533.514 415.773L537.283 412.75L542.814 417.193L544.32 415.32L537.283 409.654L532.363 413.619L533.514 415.773Z" fill="#77E2C3"/>
<path d="M538.491 405.457H536.08V420.448H538.491V405.457Z" fill="#77E2C3"/>
<path d="M538.479 413.717L537.279 412.75L536.08 413.717V410.621L537.279 409.666L538.479 410.621V413.717Z" fill="#008C95"/>
<path d="M538.479 408.077L537.279 407.111L536.08 408.077V404.994L537.279 404.039L538.479 404.994V408.077Z" fill="#008C95"/>
<path d="M344.453 502.539L350.413 508.486L357.095 515.168L359.64 517.725L373.677 503.689L358.49 488.502L344.453 502.539Z" fill="#77E2C3"/>
<path d="M357.744 485.117L341.061 501.801L343.345 504.085L360.028 487.402L357.744 485.117Z" fill="#77E2C3"/>
<path d="M358.572 495.803L348.137 506.238L355.7 513.801L366.135 503.365L358.572 495.803Z" fill="#008C95"/>
<path d="M344.339 512.661L340.778 503.666L337.07 512.208C337.364 513.97 338.881 515.316 340.717 515.341C342.43 515.341 343.874 514.215 344.339 512.661Z" fill="#77E2C3"/>
<path d="M342.384 517.174L338.823 508.18L335.115 516.722C335.409 518.484 336.926 519.83 338.762 519.854C340.475 519.867 341.919 518.729 342.384 517.174Z" fill="#77E2C3"/>
<path d="M340.729 515.327C341.035 515.327 341.329 515.29 341.61 515.229L338.82 508.18L337.07 512.206C337.364 513.968 338.881 515.314 340.729 515.327Z" fill="#008C95"/>
<path d="M366.305 424.228C366.305 430.653 360.969 435.854 354.398 435.854C347.826 435.854 342.49 430.641 342.49 424.228C342.49 417.816 347.814 416.91 354.398 416.91C360.969 416.91 366.305 417.803 366.305 424.228Z" fill="#008C95"/>
<path d="M366.305 424.23H342.49L342.821 413.057H366.011L366.305 424.23Z" fill="#008C95"/>
<path d="M354.645 430.042H354.596C353.495 430.042 352.602 429.149 352.602 428.048V420.521H356.64V428.048C356.64 429.149 355.747 430.042 354.645 430.042Z" fill="#008C95"/>
<path d="M359.223 431.89H359.162C357.766 431.89 356.641 430.764 356.641 429.369V415.283H361.744V429.369C361.744 430.764 360.618 431.89 359.223 431.89Z" fill="#77E2C3"/>
<path d="M354.398 402.619C347.826 402.619 342.49 407.82 342.49 414.245C342.49 420.67 347.814 425.871 354.398 425.871C360.969 425.871 366.305 420.67 366.305 414.245C366.305 407.82 360.969 402.619 354.398 402.619Z" fill="#77E2C3"/>
<path d="M354.645 430.042H354.596C353.495 430.042 352.602 429.149 352.602 428.048V420.521H356.64V428.048C356.64 429.149 355.747 430.042 354.645 430.042Z" fill="#77E2C3"/>
<path d="M361.744 416.08C361.095 418.564 359.137 420.559 356.641 421.318V425.662C358.537 425.307 360.275 424.512 361.744 423.398V416.08Z" fill="white"/>
<path d="M356.64 425.672V421.328C355.93 421.548 355.184 421.658 354.401 421.658C353.776 421.658 353.177 421.585 352.602 421.45V425.758C353.189 425.844 353.789 425.893 354.401 425.893C355.172 425.881 355.918 425.807 356.64 425.672Z" fill="white"/>
<path d="M354.401 406.852C358.574 406.852 361.976 410.168 361.976 414.255C361.976 418.33 358.574 421.659 354.401 421.659C350.228 421.659 346.826 418.343 346.826 414.255C346.826 410.168 350.228 406.852 354.401 406.852Z" fill="#008C95"/>
<path d="M615.576 402.215H592.508V436.272H615.576V402.215Z" fill="#77E2C3"/>
<path d="M617.464 407.195H590.639V410.916H617.464V407.195Z" fill="#77E2C3"/>
<path d="M615.576 407.195H592.508V410.916H615.576V407.195Z" fill="#008C95"/>
<path d="M617.464 427.547H590.639V431.267H617.464V427.547Z" fill="#77E2C3"/>
<path d="M615.576 427.547H592.508V431.267H615.576V427.547Z" fill="#008C95"/>
<path d="M608.201 421.171C608.201 423.459 606.341 425.32 604.053 425.32C601.764 425.32 599.904 423.459 599.904 421.171C599.904 418.883 604.053 413.131 604.053 413.131C604.053 413.131 608.201 418.87 608.201 421.171Z" fill="#008C95"/>
<path d="M781.604 66.8906H762.746V85.7489H781.604V66.8906Z" fill="#008C95"/>
<path d="M777.177 85.748H779.379L780.236 87.1309H776.332L777.177 85.748Z" fill="#008C95"/>
<path d="M771.083 85.748H773.285L774.13 87.1309H770.238L771.083 85.748Z" fill="#008C95"/>
<path d="M764.975 85.748H767.178L768.035 87.1309H764.131L764.975 85.748Z" fill="#008C95"/>
<path d="M777.177 85.748H779.379L780.236 87.1309H776.332L777.177 85.748Z" fill="#008C95"/>
<path d="M771.083 85.748H773.285L774.13 87.1309H770.238L771.083 85.748Z" fill="#008C95"/>
<path d="M764.975 85.748H767.178L768.035 87.1309H764.131L764.975 85.748Z" fill="#008C95"/>
<path d="M781.605 71.3187V69.1159L783.001 68.2715V72.1631L781.605 71.3187Z" fill="#008C95"/>
<path d="M781.605 77.4144V75.2116L783.001 74.3672V78.2588L781.605 77.4144Z" fill="#008C95"/>
<path d="M781.605 83.5204V81.3176L783.001 80.4609V84.3648L781.605 83.5204Z" fill="#008C95"/>
<path d="M767.178 66.8912H764.975L764.131 65.4961H768.035L767.178 66.8912Z" fill="#008C95"/>
<path d="M773.274 66.8912H771.083L770.227 65.4961H774.13L773.274 66.8912Z" fill="#008C95"/>
<path d="M779.379 66.8912H777.177L776.332 65.4961H780.224L779.379 66.8912Z" fill="#008C95"/>
<path d="M762.749 81.6608V83.8636L761.354 84.708V80.8164L762.749 81.6608Z" fill="#008C95"/>
<path d="M762.749 75.5676V77.7704L761.354 78.6148V74.7109L762.749 75.5676Z" fill="#008C95"/>
<path d="M762.749 69.4596V71.6624L761.354 72.5191V68.6152L762.749 69.4596Z" fill="#008C95"/>
<path d="M778.276 87.1289H759.418V105.987H778.276V87.1289Z" fill="#77E2C3"/>
<path d="M776.332 87.1431H774.142L773.285 85.748H777.189L776.332 87.1431Z" fill="#77E2C3"/>
<path d="M770.237 87.1309H768.034L767.178 85.748H771.082L770.237 87.1309Z" fill="#77E2C3"/>
<path d="M764.132 87.1309H761.929L761.072 85.748H764.976L764.132 87.1309Z" fill="#77E2C3"/>
<path d="M778.277 103.762V101.559L779.672 100.715V104.606L778.277 103.762Z" fill="#77E2C3"/>
<path d="M778.277 97.6565V95.4538L779.672 94.6094V98.5009L778.277 97.6565Z" fill="#77E2C3"/>
<path d="M778.277 91.5491V89.3464L779.672 88.502V92.4058L778.277 91.5491Z" fill="#77E2C3"/>
<path d="M761.646 105.988H763.848L764.693 107.371H760.789L761.646 105.988Z" fill="#77E2C3"/>
<path d="M767.751 105.988H769.954L770.798 107.371H766.895L767.751 105.988Z" fill="#77E2C3"/>
<path d="M773.86 105.988H776.063L776.908 107.371H773.004L773.86 105.988Z" fill="#77E2C3"/>
<path d="M759.42 89.1125V91.3153L758.037 92.1597V88.2559L759.42 89.1125Z" fill="#77E2C3"/>
<path d="M759.42 95.2199V97.4105L758.037 98.2671V94.3633L759.42 95.2199Z" fill="#77E2C3"/>
<path d="M759.42 101.315V103.518L758.037 104.375V100.471L759.42 101.315Z" fill="#77E2C3"/>
<path d="M539.677 519.01C528.198 519.01 522.936 516.354 518.285 514.004C514.063 511.875 510.404 510.027 502.193 510.407L501.973 505.634C511.432 505.206 516.009 507.506 520.439 509.746C524.82 511.961 529.348 514.237 539.677 514.237V519.01Z" fill="#008C95"/>
<path d="M539.676 506.514C528.112 506.514 523.633 504.018 519.692 501.803C516.106 499.796 512.729 497.911 502.082 497.911V489.639C514.883 489.639 519.582 492.27 523.731 494.583C527.243 496.541 530.265 498.242 539.676 498.242V506.514Z" fill="#008C95"/>
<path d="M539.652 498.732C529.335 498.634 525.407 496.468 521.601 494.363C517.648 492.184 513.916 490.129 502.082 490.129V485.992C514.981 485.992 519.362 488.403 523.596 490.74C527.108 492.674 530.424 494.497 539.701 494.595L539.652 498.732Z" fill="#77E2C3"/>
<path d="M537.06 572.648H504.605V577.911H537.06V572.648Z" fill="#77E2C3"/>
<path d="M537.06 593.475H504.605V598.737H537.06V593.475Z" fill="#008C95"/>
<path d="M537.06 577.9H504.605V586.883H537.06V577.9Z" fill="#008C95"/>
<path d="M360.083 108.657H354.846V89.5664L360.096 84.3164H375.931V89.5541H362.262L360.083 91.7324V108.657Z" fill="#77E2C3"/>
<path d="M352.992 83.9136H332.873V78.6759H350.826L353.004 76.5098V64.2109H358.242V78.6759L352.992 83.9136Z" fill="#77E2C3"/>
<path d="M361.304 68.4551H350.082V72.3099H361.304V68.4551Z" fill="#77E2C3"/>
<path d="M358.245 68.4551H353.008V72.3099H358.245V68.4551Z" fill="#008C95"/>
<path d="M345.212 87.8789H332.889V92.4925H345.212V87.8789Z" fill="#77E2C3"/>
<path d="M370.128 81.4277H366.273V92.4416H370.128V81.4277Z" fill="#77E2C3"/>
<path d="M370.128 84.3164H366.273V89.5541H370.128V84.3164Z" fill="#008C95"/>
<path d="M375.927 102.674H341.674L336.424 97.424V64.2109H341.662V95.2579L343.84 97.4362H375.927V102.674Z" fill="#77E2C3"/>
<path d="M341.662 87.8789H336.424V92.4925H341.662V87.8789Z" fill="#008C95"/>
<path d="M527.945 149.75H503.445V181.678H527.945V149.75Z" fill="#77E2C3"/>
<path d="M538.15 157.633H513.65V189.561H538.15V157.633Z" fill="#77E2C3"/>
<path d="M527.956 157.633H513.65V181.68H527.956V157.633Z" fill="#008C95"/>
<path d="M17.0068 14.7959V16.0088C17.0068 17.4502 16.8267 18.7422 16.4663 19.8848C16.106 21.0273 15.5874 21.9985 14.9106 22.7983C14.2339 23.5981 13.4209 24.209 12.4717 24.6309C11.5312 25.0527 10.4766 25.2637 9.30762 25.2637C8.17383 25.2637 7.13232 25.0527 6.18311 24.6309C5.24268 24.209 4.42529 23.5981 3.73096 22.7983C3.04541 21.9985 2.51367 21.0273 2.13574 19.8848C1.75781 18.7422 1.56885 17.4502 1.56885 16.0088V14.7959C1.56885 13.3545 1.75342 12.0669 2.12256 10.9331C2.50049 9.79053 3.03223 8.81934 3.71777 8.01953C4.40332 7.21094 5.21631 6.5957 6.15674 6.17383C7.10596 5.75195 8.14746 5.54102 9.28125 5.54102C10.4502 5.54102 11.5049 5.75195 12.4453 6.17383C13.3945 6.5957 14.2075 7.21094 14.8843 8.01953C15.5698 8.81934 16.0928 9.79053 16.4531 10.9331C16.8223 12.0669 17.0068 13.3545 17.0068 14.7959ZM14.4888 16.0088V14.7695C14.4888 13.627 14.3701 12.6162 14.1328 11.7373C13.9043 10.8584 13.5659 10.1201 13.1177 9.52246C12.6694 8.9248 12.1201 8.47217 11.4697 8.16455C10.8281 7.85693 10.0986 7.70312 9.28125 7.70312C8.49023 7.70312 7.77393 7.85693 7.13232 8.16455C6.49951 8.47217 5.95459 8.9248 5.49756 9.52246C5.04932 10.1201 4.70215 10.8584 4.45605 11.7373C4.20996 12.6162 4.08691 13.627 4.08691 14.7695V16.0088C4.08691 17.1602 4.20996 18.1797 4.45605 19.0674C4.70215 19.9463 5.05371 20.689 5.51074 21.2954C5.97656 21.8931 6.52588 22.3457 7.15869 22.6533C7.80029 22.9609 8.5166 23.1147 9.30762 23.1147C10.1338 23.1147 10.8677 22.9609 11.5093 22.6533C12.1509 22.3457 12.6914 21.8931 13.1309 21.2954C13.5791 20.689 13.9175 19.9463 14.146 19.0674C14.3745 18.1797 14.4888 17.1602 14.4888 16.0088ZM29.5972 4.52588H31.6011C31.6011 5.38721 31.4692 6.07275 31.2056 6.58252C30.9419 7.0835 30.5815 7.47021 30.1245 7.74268C29.6763 8.01514 29.1665 8.22168 28.5952 8.3623C28.0327 8.50293 27.4482 8.63916 26.8418 8.771C26.0859 8.9292 25.3828 9.17969 24.7324 9.52246C24.0908 9.85645 23.5371 10.3311 23.0713 10.9463C22.6143 11.5615 22.2759 12.3613 22.0562 13.3457C21.8452 14.3301 21.7881 15.5474 21.8848 16.9976V18.2104H19.8809V16.9976C19.8809 15.3716 20.0347 13.9521 20.3423 12.7393C20.6587 11.5264 21.1025 10.5024 21.6738 9.66748C22.2451 8.83252 22.9219 8.16895 23.7041 7.67676C24.4951 7.18457 25.3652 6.84619 26.3145 6.66162C27 6.52979 27.5889 6.38916 28.0811 6.23975C28.5732 6.08154 28.9468 5.87061 29.2017 5.60693C29.4653 5.34326 29.5972 4.98291 29.5972 4.52588ZM26.71 11.5527C27.6416 11.5527 28.4722 11.7153 29.2017 12.0405C29.9312 12.3657 30.5508 12.8184 31.0605 13.3984C31.5703 13.9785 31.957 14.6641 32.2207 15.4551C32.4932 16.2373 32.6294 17.0898 32.6294 18.0127V18.3027C32.6294 19.2959 32.4844 20.2188 32.1943 21.0713C31.9131 21.915 31.4956 22.6533 30.9419 23.2861C30.397 23.9102 29.729 24.3979 28.938 24.7495C28.1558 25.1011 27.2637 25.2769 26.2617 25.2769C25.2598 25.2769 24.3633 25.1011 23.5723 24.7495C22.79 24.3979 22.1221 23.9102 21.5684 23.2861C21.0146 22.6533 20.5928 21.915 20.3027 21.0713C20.0215 20.2188 19.8809 19.2959 19.8809 18.3027V18.0127C19.8809 17.793 19.9204 17.5776 19.9995 17.3667C20.0786 17.1558 20.1753 16.9404 20.2896 16.7207C20.4126 16.501 20.5225 16.2681 20.6191 16.022C20.9443 15.231 21.3882 14.4971 21.9507 13.8203C22.522 13.1436 23.2031 12.5986 23.9941 12.1855C24.7939 11.7637 25.6992 11.5527 26.71 11.5527ZM26.2354 13.5435C25.3389 13.5435 24.6006 13.75 24.0205 14.1631C23.4492 14.5762 23.0229 15.1255 22.7417 15.811C22.4604 16.4878 22.3198 17.2217 22.3198 18.0127V18.3027C22.3198 18.9707 22.3989 19.6035 22.5571 20.2012C22.7153 20.7988 22.9526 21.3306 23.269 21.7964C23.5942 22.2534 24.0029 22.6138 24.4951 22.8774C24.9961 23.1411 25.585 23.2729 26.2617 23.2729C26.9385 23.2729 27.5229 23.1411 28.0151 22.8774C28.5073 22.6138 28.9116 22.2534 29.228 21.7964C29.5444 21.3306 29.7817 20.7988 29.9399 20.2012C30.0981 19.6035 30.1772 18.9707 30.1772 18.3027V18.0127C30.1772 17.415 30.0981 16.8481 29.9399 16.312C29.7817 15.7759 29.54 15.3013 29.2148 14.8882C28.8984 14.4751 28.4897 14.1499 27.9888 13.9126C27.4966 13.6665 26.9121 13.5435 26.2354 13.5435ZM41.4492 18.0259V17.7227C41.4492 16.6943 41.5986 15.7407 41.8975 14.8618C42.1963 13.9741 42.627 13.2051 43.1895 12.5547C43.752 11.8955 44.4331 11.3857 45.2329 11.0254C46.0327 10.6562 46.9292 10.4717 47.9224 10.4717C48.9243 10.4717 49.8252 10.6562 50.625 11.0254C51.4336 11.3857 52.1191 11.8955 52.6816 12.5547C53.2529 13.2051 53.688 13.9741 53.9868 14.8618C54.2856 15.7407 54.4351 16.6943 54.4351 17.7227V18.0259C54.4351 19.0542 54.2856 20.0078 53.9868 20.8867C53.688 21.7656 53.2529 22.5347 52.6816 23.1938C52.1191 23.8442 51.438 24.354 50.6382 24.7231C49.8472 25.0835 48.9507 25.2637 47.9487 25.2637C46.9468 25.2637 46.0459 25.0835 45.2461 24.7231C44.4463 24.354 43.7607 23.8442 43.1895 23.1938C42.627 22.5347 42.1963 21.7656 41.8975 20.8867C41.5986 20.0078 41.4492 19.0542 41.4492 18.0259ZM43.8882 17.7227V18.0259C43.8882 18.7378 43.9717 19.4102 44.1387 20.043C44.3057 20.667 44.5562 21.2207 44.8901 21.7041C45.2329 22.1875 45.6592 22.5698 46.1689 22.8511C46.6787 23.1235 47.272 23.2598 47.9487 23.2598C48.6167 23.2598 49.2012 23.1235 49.7021 22.8511C50.2119 22.5698 50.6338 22.1875 50.9678 21.7041C51.3018 21.2207 51.5522 20.667 51.7192 20.043C51.895 19.4102 51.9829 18.7378 51.9829 18.0259V17.7227C51.9829 17.0195 51.895 16.356 51.7192 15.7319C51.5522 15.0991 51.2974 14.541 50.9546 14.0576C50.6206 13.5654 50.1987 13.1787 49.689 12.8975C49.188 12.6162 48.5991 12.4756 47.9224 12.4756C47.2544 12.4756 46.6655 12.6162 46.1558 12.8975C45.6548 13.1787 45.2329 13.5654 44.8901 14.0576C44.5562 14.541 44.3057 15.0991 44.1387 15.7319C43.9717 16.356 43.8882 17.0195 43.8882 17.7227ZM63.0176 10.7354V25H60.5654V10.7354H63.0176ZM67.8032 10.7354V12.7129H55.8721V10.7354H67.8032ZM72.6416 13.4775V30.4844H70.1895V10.7354H72.4307L72.6416 13.4775ZM82.2524 17.749V18.0259C82.2524 19.063 82.1294 20.0254 81.8833 20.9131C81.6372 21.792 81.2769 22.5566 80.8022 23.207C80.3364 23.8574 79.7607 24.3628 79.0752 24.7231C78.3896 25.0835 77.603 25.2637 76.7153 25.2637C75.8101 25.2637 75.0103 25.1143 74.3159 24.8154C73.6216 24.5166 73.0327 24.0815 72.5493 23.5103C72.0659 22.939 71.6792 22.2534 71.3892 21.4536C71.1079 20.6538 70.9146 19.7529 70.8091 18.751V17.2744C70.9146 16.2197 71.1123 15.2749 71.4023 14.4399C71.6924 13.605 72.0747 12.8931 72.5493 12.3042C73.0327 11.7065 73.6172 11.2539 74.3027 10.9463C74.9883 10.6299 75.7793 10.4717 76.6758 10.4717C77.5723 10.4717 78.3677 10.6475 79.062 10.999C79.7563 11.3418 80.3408 11.834 80.8154 12.4756C81.29 13.1172 81.646 13.8862 81.8833 14.7827C82.1294 15.6704 82.2524 16.6592 82.2524 17.749ZM79.8003 18.0259V17.749C79.8003 17.0371 79.7256 16.3691 79.5762 15.7451C79.4268 15.1123 79.1938 14.5586 78.8774 14.084C78.5698 13.6006 78.1743 13.2227 77.6909 12.9502C77.2075 12.6689 76.6318 12.5283 75.9639 12.5283C75.3486 12.5283 74.8125 12.6338 74.3555 12.8447C73.9072 13.0557 73.5249 13.3413 73.2085 13.7017C72.8921 14.0532 72.6328 14.4575 72.4307 14.9146C72.2373 15.3628 72.0923 15.8286 71.9956 16.312V19.7266C72.1714 20.3418 72.4175 20.9219 72.7339 21.4668C73.0503 22.0029 73.4722 22.438 73.9995 22.772C74.5269 23.0972 75.1904 23.2598 75.9902 23.2598C76.6494 23.2598 77.2163 23.1235 77.6909 22.8511C78.1743 22.5698 78.5698 22.1875 78.8774 21.7041C79.1938 21.2207 79.4268 20.667 79.5762 20.043C79.7256 19.4102 79.8003 18.7378 79.8003 18.0259ZM93.7749 22.561V15.2178C93.7749 14.6553 93.6606 14.1675 93.4321 13.7544C93.2124 13.3325 92.8784 13.0073 92.4302 12.7788C91.9819 12.5503 91.4282 12.436 90.769 12.436C90.1538 12.436 89.6133 12.5415 89.1475 12.7524C88.6904 12.9634 88.3301 13.2402 88.0664 13.583C87.8115 13.9258 87.6841 14.2949 87.6841 14.6904H85.2451C85.2451 14.1807 85.377 13.6753 85.6406 13.1743C85.9043 12.6733 86.2822 12.2207 86.7744 11.8164C87.2754 11.4033 87.873 11.0781 88.5674 10.8408C89.2705 10.5947 90.0527 10.4717 90.9141 10.4717C91.9512 10.4717 92.8652 10.6475 93.6562 10.999C94.4561 11.3506 95.0801 11.8823 95.5283 12.5942C95.9854 13.2974 96.2139 14.1807 96.2139 15.2441V21.8887C96.2139 22.3633 96.2534 22.8687 96.3325 23.4048C96.4204 23.9409 96.5479 24.4023 96.7148 24.7891V25H94.1704C94.0474 24.7188 93.9507 24.3452 93.8804 23.8794C93.8101 23.4048 93.7749 22.9653 93.7749 22.561ZM94.1968 16.3516L94.2231 18.0654H91.7578C91.0635 18.0654 90.4438 18.1226 89.8989 18.2368C89.354 18.3423 88.897 18.5049 88.5278 18.7246C88.1587 18.9443 87.8774 19.2212 87.6841 19.5552C87.4907 19.8804 87.394 20.2627 87.394 20.7021C87.394 21.1504 87.4951 21.5591 87.6973 21.9282C87.8994 22.2974 88.2026 22.5918 88.6069 22.8115C89.02 23.0225 89.5254 23.1279 90.123 23.1279C90.8701 23.1279 91.5293 22.9697 92.1006 22.6533C92.6719 22.3369 93.1245 21.9502 93.4585 21.4932C93.8013 21.0361 93.9858 20.5923 94.0122 20.1616L95.0537 21.335C94.9922 21.7041 94.8252 22.1128 94.5527 22.561C94.2803 23.0093 93.9155 23.4399 93.4585 23.853C93.0103 24.2573 92.4741 24.5957 91.8501 24.8682C91.2349 25.1318 90.5405 25.2637 89.7671 25.2637C88.8003 25.2637 87.9521 25.0747 87.2227 24.6968C86.502 24.3188 85.9395 23.8135 85.5352 23.1807C85.1396 22.5391 84.9419 21.8228 84.9419 21.0317C84.9419 20.2671 85.0913 19.5947 85.3901 19.0146C85.689 18.4258 86.1196 17.938 86.6821 17.5513C87.2446 17.1558 87.9214 16.8569 88.7124 16.6548C89.5034 16.4526 90.3867 16.3516 91.3623 16.3516H94.1968ZM105.759 23.2598C106.339 23.2598 106.875 23.1411 107.367 22.9038C107.859 22.6665 108.264 22.3413 108.58 21.9282C108.896 21.5063 109.077 21.0273 109.121 20.4912H111.441C111.397 21.335 111.111 22.1216 110.584 22.8511C110.065 23.5718 109.384 24.1562 108.541 24.6045C107.697 25.0439 106.77 25.2637 105.759 25.2637C104.687 25.2637 103.75 25.0747 102.951 24.6968C102.16 24.3188 101.5 23.8003 100.973 23.1411C100.455 22.4819 100.063 21.7261 99.7998 20.8735C99.5449 20.0122 99.4175 19.1025 99.4175 18.1445V17.5908C99.4175 16.6328 99.5449 15.7275 99.7998 14.875C100.063 14.0137 100.455 13.2534 100.973 12.5942C101.5 11.9351 102.16 11.4165 102.951 11.0386C103.75 10.6606 104.687 10.4717 105.759 10.4717C106.875 10.4717 107.851 10.7002 108.686 11.1572C109.521 11.6055 110.175 12.2207 110.65 13.0029C111.133 13.7764 111.397 14.6553 111.441 15.6396H109.121C109.077 15.0508 108.91 14.519 108.62 14.0444C108.338 13.5698 107.952 13.1919 107.459 12.9106C106.976 12.6206 106.409 12.4756 105.759 12.4756C105.012 12.4756 104.383 12.625 103.874 12.9238C103.373 13.2139 102.973 13.6094 102.674 14.1104C102.384 14.6025 102.173 15.1519 102.041 15.7583C101.918 16.356 101.856 16.9668 101.856 17.5908V18.1445C101.856 18.7686 101.918 19.3838 102.041 19.9902C102.164 20.5967 102.371 21.146 102.661 21.6382C102.959 22.1304 103.359 22.5259 103.86 22.8247C104.37 23.1147 105.003 23.2598 105.759 23.2598ZM123.715 10.7354V12.7524H116.82V10.7354H123.715ZM125.864 10.7354V25H123.425V10.7354H125.864ZM116.227 10.7354H118.679L118.31 17.6172C118.248 18.6807 118.147 19.6211 118.006 20.4385C117.875 21.2471 117.69 21.9414 117.453 22.5215C117.224 23.1016 116.934 23.5762 116.583 23.9453C116.24 24.3057 115.827 24.5737 115.343 24.7495C114.86 24.9165 114.302 25 113.669 25H112.904V22.8511L113.432 22.8115C113.81 22.7852 114.13 22.6973 114.394 22.5479C114.667 22.3984 114.895 22.1787 115.08 21.8887C115.264 21.5898 115.414 21.2075 115.528 20.7417C115.651 20.2759 115.743 19.7222 115.805 19.0806C115.875 18.439 115.928 17.6919 115.963 16.8394L116.227 10.7354ZM132.429 21.1372L139.008 10.7354H141.46V25H139.008V14.5981L132.429 25H130.003V10.7354H132.429V21.1372Z" fill="#008C95"/>
<path d="M333.726 16.2329L326.87 5.80469H329.85L334.952 14.1235H338.564L338.155 16.2329H333.726ZM335.097 16.0352L329.52 25H326.356L333.488 13.8467L335.097 16.0352ZM339.658 5.80469V25H337.14V5.80469H339.658ZM349.836 5.80469L342.954 16.2329H338.656L338.261 14.1235H341.741L346.843 5.80469H349.836ZM347.173 25L341.609 16.0352L343.231 13.8467L350.337 25H347.173ZM355.017 21.1372L361.596 10.7354H364.048V25H361.596V14.5981L355.017 25H352.591V10.7354H355.017V21.1372ZM377.495 10.7354V12.7524H370.6V10.7354H377.495ZM379.644 10.7354V25H377.205V10.7354H379.644ZM370.007 10.7354H372.459L372.09 17.6172C372.028 18.6807 371.927 19.6211 371.787 20.4385C371.655 21.2471 371.47 21.9414 371.233 22.5215C371.004 23.1016 370.714 23.5762 370.363 23.9453C370.02 24.3057 369.607 24.5737 369.124 24.7495C368.64 24.9165 368.082 25 367.449 25H366.685V22.8511L367.212 22.8115C367.59 22.7852 367.911 22.6973 368.174 22.5479C368.447 22.3984 368.675 22.1787 368.86 21.8887C369.044 21.5898 369.194 21.2075 369.308 20.7417C369.431 20.2759 369.523 19.7222 369.585 19.0806C369.655 18.439 369.708 17.6919 369.743 16.8394L370.007 10.7354ZM386.209 21.1372L392.788 10.7354H395.24V25H392.788V14.5981L386.209 25H383.784V10.7354H386.209V21.1372ZM418.984 22.9961L418.747 29.2319H416.571V25H414.712V22.9961H418.984ZM399.222 10.7354H401.661V22.9961H406.881V10.7354H409.333V22.9961H414.541V10.7354H416.98V25H399.222V10.7354ZM431.192 16.9185V18.896H423.651V16.9185H431.192ZM424.165 10.7354V25H421.726V10.7354H424.165ZM433.169 10.7354V25H430.717V10.7354H433.169ZM436.452 18.0259V17.7227C436.452 16.6943 436.602 15.7407 436.9 14.8618C437.199 13.9741 437.63 13.2051 438.192 12.5547C438.755 11.8955 439.436 11.3857 440.236 11.0254C441.036 10.6562 441.932 10.4717 442.925 10.4717C443.927 10.4717 444.828 10.6562 445.628 11.0254C446.437 11.3857 447.122 11.8955 447.685 12.5547C448.256 13.2051 448.691 13.9741 448.99 14.8618C449.289 15.7407 449.438 16.6943 449.438 17.7227V18.0259C449.438 19.0542 449.289 20.0078 448.99 20.8867C448.691 21.7656 448.256 22.5347 447.685 23.1938C447.122 23.8442 446.441 24.354 445.641 24.7231C444.85 25.0835 443.954 25.2637 442.952 25.2637C441.95 25.2637 441.049 25.0835 440.249 24.7231C439.449 24.354 438.764 23.8442 438.192 23.1938C437.63 22.5347 437.199 21.7656 436.9 20.8867C436.602 20.0078 436.452 19.0542 436.452 18.0259ZM438.891 17.7227V18.0259C438.891 18.7378 438.975 19.4102 439.142 20.043C439.309 20.667 439.559 21.2207 439.893 21.7041C440.236 22.1875 440.662 22.5698 441.172 22.8511C441.682 23.1235 442.275 23.2598 442.952 23.2598C443.62 23.2598 444.204 23.1235 444.705 22.8511C445.215 22.5698 445.637 22.1875 445.971 21.7041C446.305 21.2207 446.555 20.667 446.722 20.043C446.898 19.4102 446.986 18.7378 446.986 18.0259V17.7227C446.986 17.0195 446.898 16.356 446.722 15.7319C446.555 15.0991 446.3 14.541 445.958 14.0576C445.624 13.5654 445.202 13.1787 444.692 12.8975C444.191 12.6162 443.602 12.4756 442.925 12.4756C442.257 12.4756 441.668 12.6162 441.159 12.8975C440.658 13.1787 440.236 13.5654 439.893 14.0576C439.559 14.541 439.309 15.0991 439.142 15.7319C438.975 16.356 438.891 17.0195 438.891 17.7227ZM458.416 25.2637C457.423 25.2637 456.522 25.0967 455.713 24.7627C454.914 24.4199 454.224 23.9409 453.644 23.3257C453.072 22.7104 452.633 21.981 452.325 21.1372C452.018 20.2935 451.864 19.3706 451.864 18.3687V17.8149C451.864 16.6548 452.035 15.6221 452.378 14.7168C452.721 13.8027 453.187 13.0293 453.775 12.3965C454.364 11.7637 455.032 11.2847 455.779 10.9595C456.526 10.6343 457.3 10.4717 458.1 10.4717C459.119 10.4717 459.998 10.6475 460.736 10.999C461.483 11.3506 462.094 11.8428 462.569 12.4756C463.043 13.0996 463.395 13.8379 463.624 14.6904C463.852 15.5342 463.966 16.457 463.966 17.459V18.5532H453.314V16.5625H461.527V16.3779C461.492 15.7451 461.36 15.1299 461.132 14.5322C460.912 13.9346 460.561 13.4424 460.077 13.0557C459.594 12.6689 458.935 12.4756 458.1 12.4756C457.546 12.4756 457.036 12.5942 456.57 12.8315C456.104 13.0601 455.705 13.4028 455.371 13.8599C455.037 14.3169 454.777 14.875 454.593 15.5342C454.408 16.1934 454.316 16.9536 454.316 17.8149V18.3687C454.316 19.0454 454.408 19.6826 454.593 20.2803C454.786 20.8691 455.063 21.3877 455.423 21.8359C455.792 22.2842 456.236 22.6357 456.755 22.8906C457.282 23.1455 457.88 23.2729 458.548 23.2729C459.409 23.2729 460.139 23.0972 460.736 22.7456C461.334 22.394 461.857 21.9238 462.305 21.335L463.782 22.5083C463.474 22.9741 463.083 23.418 462.608 23.8398C462.134 24.2617 461.549 24.6045 460.855 24.8682C460.169 25.1318 459.356 25.2637 458.416 25.2637ZM479.22 23.2598C479.8 23.2598 480.336 23.1411 480.828 22.9038C481.32 22.6665 481.725 22.3413 482.041 21.9282C482.357 21.5063 482.538 21.0273 482.582 20.4912H484.902C484.858 21.335 484.572 22.1216 484.045 22.8511C483.526 23.5718 482.845 24.1562 482.001 24.6045C481.158 25.0439 480.23 25.2637 479.22 25.2637C478.147 25.2637 477.211 25.0747 476.412 24.6968C475.621 24.3188 474.961 23.8003 474.434 23.1411C473.916 22.4819 473.524 21.7261 473.261 20.8735C473.006 20.0122 472.878 19.1025 472.878 18.1445V17.5908C472.878 16.6328 473.006 15.7275 473.261 14.875C473.524 14.0137 473.916 13.2534 474.434 12.5942C474.961 11.9351 475.621 11.4165 476.412 11.0386C477.211 10.6606 478.147 10.4717 479.22 10.4717C480.336 10.4717 481.312 10.7002 482.146 11.1572C482.981 11.6055 483.636 12.2207 484.111 13.0029C484.594 13.7764 484.858 14.6553 484.902 15.6396H482.582C482.538 15.0508 482.371 14.519 482.081 14.0444C481.799 13.5698 481.413 13.1919 480.92 12.9106C480.437 12.6206 479.87 12.4756 479.22 12.4756C478.473 12.4756 477.844 12.625 477.334 12.9238C476.833 13.2139 476.434 13.6094 476.135 14.1104C475.845 14.6025 475.634 15.1519 475.502 15.7583C475.379 16.356 475.317 16.9668 475.317 17.5908V18.1445C475.317 18.7686 475.379 19.3838 475.502 19.9902C475.625 20.5967 475.832 21.146 476.122 21.6382C476.42 22.1304 476.82 22.5259 477.321 22.8247C477.831 23.1147 478.464 23.2598 479.22 23.2598ZM493.458 10.7354V25H491.006V10.7354H493.458ZM498.244 10.7354V12.7129H486.312V10.7354H498.244ZM503.082 13.4775V30.4844H500.63V10.7354H502.871L503.082 13.4775ZM512.693 17.749V18.0259C512.693 19.063 512.57 20.0254 512.324 20.9131C512.078 21.792 511.717 22.5566 511.243 23.207C510.777 23.8574 510.201 24.3628 509.516 24.7231C508.83 25.0835 508.043 25.2637 507.156 25.2637C506.25 25.2637 505.451 25.1143 504.756 24.8154C504.062 24.5166 503.473 24.0815 502.99 23.5103C502.506 22.939 502.12 22.2534 501.83 21.4536C501.548 20.6538 501.355 19.7529 501.25 18.751V17.2744C501.355 16.2197 501.553 15.2749 501.843 14.4399C502.133 13.605 502.515 12.8931 502.99 12.3042C503.473 11.7065 504.058 11.2539 504.743 10.9463C505.429 10.6299 506.22 10.4717 507.116 10.4717C508.013 10.4717 508.808 10.6475 509.502 10.999C510.197 11.3418 510.781 11.834 511.256 12.4756C511.73 13.1172 512.086 13.8862 512.324 14.7827C512.57 15.6704 512.693 16.6592 512.693 17.749ZM510.241 18.0259V17.749C510.241 17.0371 510.166 16.3691 510.017 15.7451C509.867 15.1123 509.634 14.5586 509.318 14.084C509.01 13.6006 508.615 13.2227 508.131 12.9502C507.648 12.6689 507.072 12.5283 506.404 12.5283C505.789 12.5283 505.253 12.6338 504.796 12.8447C504.348 13.0557 503.965 13.3413 503.649 13.7017C503.333 14.0532 503.073 14.4575 502.871 14.9146C502.678 15.3628 502.533 15.8286 502.436 16.312V19.7266C502.612 20.3418 502.858 20.9219 503.174 21.4668C503.491 22.0029 503.913 22.438 504.44 22.772C504.967 23.0972 505.631 23.2598 506.431 23.2598C507.09 23.2598 507.657 23.1235 508.131 22.8511C508.615 22.5698 509.01 22.1875 509.318 21.7041C509.634 21.2207 509.867 20.667 510.017 20.043C510.166 19.4102 510.241 18.7378 510.241 18.0259ZM515.158 18.0259V17.7227C515.158 16.6943 515.308 15.7407 515.606 14.8618C515.905 13.9741 516.336 13.2051 516.898 12.5547C517.461 11.8955 518.142 11.3857 518.942 11.0254C519.742 10.6562 520.638 10.4717 521.631 10.4717C522.633 10.4717 523.534 10.6562 524.334 11.0254C525.143 11.3857 525.828 11.8955 526.391 12.5547C526.962 13.2051 527.397 13.9741 527.696 14.8618C527.995 15.7407 528.144 16.6943 528.144 17.7227V18.0259C528.144 19.0542 527.995 20.0078 527.696 20.8867C527.397 21.7656 526.962 22.5347 526.391 23.1938C525.828 23.8442 525.147 24.354 524.347 24.7231C523.556 25.0835 522.66 25.2637 521.658 25.2637C520.656 25.2637 519.755 25.0835 518.955 24.7231C518.155 24.354 517.47 23.8442 516.898 23.1938C516.336 22.5347 515.905 21.7656 515.606 20.8867C515.308 20.0078 515.158 19.0542 515.158 18.0259ZM517.597 17.7227V18.0259C517.597 18.7378 517.681 19.4102 517.848 20.043C518.015 20.667 518.265 21.2207 518.599 21.7041C518.942 22.1875 519.368 22.5698 519.878 22.8511C520.388 23.1235 520.981 23.2598 521.658 23.2598C522.326 23.2598 522.91 23.1235 523.411 22.8511C523.921 22.5698 524.343 22.1875 524.677 21.7041C525.011 21.2207 525.261 20.667 525.428 20.043C525.604 19.4102 525.692 18.7378 525.692 18.0259V17.7227C525.692 17.0195 525.604 16.356 525.428 15.7319C525.261 15.0991 525.006 14.541 524.664 14.0576C524.33 13.5654 523.908 13.1787 523.398 12.8975C522.897 12.6162 522.308 12.4756 521.631 12.4756C520.963 12.4756 520.375 12.6162 519.865 12.8975C519.364 13.1787 518.942 13.5654 518.599 14.0576C518.265 14.541 518.015 15.0991 517.848 15.7319C517.681 16.356 517.597 17.0195 517.597 17.7227ZM533.839 21.1372L540.418 10.7354H542.87V25H540.418V14.5981L533.839 25H531.414V10.7354H533.839V21.1372ZM552.6 10.7354V25H550.147V10.7354H552.6ZM557.385 10.7354V12.7129H545.454V10.7354H557.385ZM564.649 25.2637C563.656 25.2637 562.755 25.0967 561.947 24.7627C561.147 24.4199 560.457 23.9409 559.877 23.3257C559.306 22.7104 558.866 21.981 558.559 21.1372C558.251 20.2935 558.097 19.3706 558.097 18.3687V17.8149C558.097 16.6548 558.269 15.6221 558.611 14.7168C558.954 13.8027 559.42 13.0293 560.009 12.3965C560.598 11.7637 561.266 11.2847 562.013 10.9595C562.76 10.6343 563.533 10.4717 564.333 10.4717C565.353 10.4717 566.231 10.6475 566.97 10.999C567.717 11.3506 568.328 11.8428 568.802 12.4756C569.277 13.0996 569.628 13.8379 569.857 14.6904C570.085 15.5342 570.2 16.457 570.2 17.459V18.5532H559.547V16.5625H567.761V16.3779C567.726 15.7451 567.594 15.1299 567.365 14.5322C567.146 13.9346 566.794 13.4424 566.311 13.0557C565.827 12.6689 565.168 12.4756 564.333 12.4756C563.779 12.4756 563.27 12.5942 562.804 12.8315C562.338 13.0601 561.938 13.4028 561.604 13.8599C561.27 14.3169 561.011 14.875 560.826 15.5342C560.642 16.1934 560.549 16.9536 560.549 17.8149V18.3687C560.549 19.0454 560.642 19.6826 560.826 20.2803C561.02 20.8691 561.296 21.3877 561.657 21.8359C562.026 22.2842 562.47 22.6357 562.988 22.8906C563.516 23.1455 564.113 23.2729 564.781 23.2729C565.643 23.2729 566.372 23.0972 566.97 22.7456C567.567 22.394 568.09 21.9238 568.539 21.335L570.015 22.5083C569.708 22.9741 569.316 23.418 568.842 23.8398C568.367 24.2617 567.783 24.6045 567.088 24.8682C566.403 25.1318 565.59 25.2637 564.649 25.2637ZM582.579 10.7354V12.7524H575.684V10.7354H582.579ZM584.728 10.7354V25H582.289V10.7354H584.728ZM575.091 10.7354H577.543L577.174 17.6172C577.112 18.6807 577.011 19.6211 576.871 20.4385C576.739 21.2471 576.554 21.9414 576.317 22.5215C576.088 23.1016 575.798 23.5762 575.447 23.9453C575.104 24.3057 574.691 24.5737 574.208 24.7495C573.724 24.9165 573.166 25 572.533 25H571.769V22.8511L572.296 22.8115C572.674 22.7852 572.995 22.6973 573.258 22.5479C573.531 22.3984 573.759 22.1787 573.944 21.8887C574.128 21.5898 574.278 21.2075 574.392 20.7417C574.515 20.2759 574.607 19.7222 574.669 19.0806C574.739 18.439 574.792 17.6919 574.827 16.8394L575.091 10.7354ZM590.661 15.6396H594.945C596.097 15.6396 597.068 15.8418 597.859 16.2461C598.65 16.6416 599.248 17.1909 599.652 17.894C600.065 18.5884 600.271 19.3794 600.271 20.2671C600.271 20.9263 600.157 21.5459 599.929 22.126C599.7 22.6973 599.357 23.1982 598.9 23.6289C598.452 24.0596 597.894 24.3979 597.226 24.644C596.567 24.8813 595.807 25 594.945 25H588.881V10.7354H591.32V22.9961H594.945C595.648 22.9961 596.211 22.8687 596.633 22.6138C597.055 22.3589 597.358 22.0293 597.542 21.625C597.727 21.2207 597.819 20.7988 597.819 20.3594C597.819 19.9287 597.727 19.5068 597.542 19.0938C597.358 18.6807 597.055 18.3379 596.633 18.0654C596.211 17.7842 595.648 17.6436 594.945 17.6436H590.661V15.6396ZM609.025 23.2598C609.605 23.2598 610.142 23.1411 610.634 22.9038C611.126 22.6665 611.53 22.3413 611.847 21.9282C612.163 21.5063 612.343 21.0273 612.387 20.4912H614.708C614.664 21.335 614.378 22.1216 613.851 22.8511C613.332 23.5718 612.651 24.1562 611.807 24.6045C610.963 25.0439 610.036 25.2637 609.025 25.2637C607.953 25.2637 607.017 25.0747 606.217 24.6968C605.426 24.3188 604.767 23.8003 604.24 23.1411C603.721 22.4819 603.33 21.7261 603.066 20.8735C602.812 20.0122 602.684 19.1025 602.684 18.1445V17.5908C602.684 16.6328 602.812 15.7275 603.066 14.875C603.33 14.0137 603.721 13.2534 604.24 12.5942C604.767 11.9351 605.426 11.4165 606.217 11.0386C607.017 10.6606 607.953 10.4717 609.025 10.4717C610.142 10.4717 611.117 10.7002 611.952 11.1572C612.787 11.6055 613.442 12.2207 613.917 13.0029C614.4 13.7764 614.664 14.6553 614.708 15.6396H612.387C612.343 15.0508 612.176 14.519 611.886 14.0444C611.605 13.5698 611.218 13.1919 610.726 12.9106C610.243 12.6206 609.676 12.4756 609.025 12.4756C608.278 12.4756 607.65 12.625 607.14 12.9238C606.639 13.2139 606.239 13.6094 605.94 14.1104C605.65 14.6025 605.439 15.1519 605.308 15.7583C605.185 16.356 605.123 16.9668 605.123 17.5908V18.1445C605.123 18.7686 605.185 19.3838 605.308 19.9902C605.431 20.5967 605.637 21.146 605.927 21.6382C606.226 22.1304 606.626 22.5259 607.127 22.8247C607.637 23.1147 608.27 23.2598 609.025 23.2598ZM623.264 10.7354V25H620.812V10.7354H623.264ZM628.049 10.7354V12.7129H616.118V10.7354H628.049ZM637.146 18.7246H632.466L632.439 16.7734H636.263C637.019 16.7734 637.647 16.6987 638.148 16.5493C638.658 16.3999 639.04 16.1758 639.295 15.877C639.55 15.5781 639.677 15.209 639.677 14.7695C639.677 14.4268 639.603 14.1279 639.453 13.873C639.312 13.6094 639.097 13.394 638.807 13.2271C638.517 13.0513 638.157 12.9238 637.726 12.8447C637.304 12.7568 636.808 12.7129 636.236 12.7129H633.112V25H630.673V10.7354H636.236C637.142 10.7354 637.955 10.8145 638.675 10.9727C639.405 11.1309 640.024 11.3726 640.534 11.6978C641.053 12.0142 641.448 12.4185 641.721 12.9106C641.993 13.4028 642.129 13.9829 642.129 14.6509C642.129 15.0815 642.042 15.4902 641.866 15.877C641.69 16.2637 641.431 16.6064 641.088 16.9053C640.745 17.2041 640.323 17.4502 639.822 17.6436C639.321 17.8281 638.746 17.9468 638.095 17.9995L637.146 18.7246ZM637.146 25H631.583L632.795 23.0225H637.146C637.823 23.0225 638.385 22.939 638.833 22.772C639.282 22.5962 639.616 22.3501 639.835 22.0337C640.064 21.7085 640.178 21.3218 640.178 20.8735C640.178 20.4253 640.064 20.043 639.835 19.7266C639.616 19.4014 639.282 19.1553 638.833 18.9883C638.385 18.8125 637.823 18.7246 637.146 18.7246H633.441L633.468 16.7734H638.095L638.979 17.5117C639.761 17.5732 640.424 17.7666 640.969 18.0918C641.514 18.417 641.927 18.8301 642.208 19.3311C642.49 19.8232 642.63 20.3594 642.63 20.9395C642.63 21.6074 642.503 22.1963 642.248 22.7061C642.002 23.2158 641.642 23.6421 641.167 23.9849C640.692 24.3188 640.117 24.5737 639.44 24.7495C638.763 24.9165 637.999 25 637.146 25ZM645.254 18.0259V17.7227C645.254 16.6943 645.403 15.7407 645.702 14.8618C646.001 13.9741 646.432 13.2051 646.994 12.5547C647.557 11.8955 648.238 11.3857 649.038 11.0254C649.837 10.6562 650.734 10.4717 651.727 10.4717C652.729 10.4717 653.63 10.6562 654.43 11.0254C655.238 11.3857 655.924 11.8955 656.486 12.5547C657.058 13.2051 657.493 13.9741 657.792 14.8618C658.09 15.7407 658.24 16.6943 658.24 17.7227V18.0259C658.24 19.0542 658.09 20.0078 657.792 20.8867C657.493 21.7656 657.058 22.5347 656.486 23.1938C655.924 23.8442 655.243 24.354 654.443 24.7231C653.652 25.0835 652.755 25.2637 651.753 25.2637C650.751 25.2637 649.851 25.0835 649.051 24.7231C648.251 24.354 647.565 23.8442 646.994 23.1938C646.432 22.5347 646.001 21.7656 645.702 20.8867C645.403 20.0078 645.254 19.0542 645.254 18.0259ZM647.693 17.7227V18.0259C647.693 18.7378 647.776 19.4102 647.943 20.043C648.11 20.667 648.361 21.2207 648.695 21.7041C649.038 22.1875 649.464 22.5698 649.974 22.8511C650.483 23.1235 651.077 23.2598 651.753 23.2598C652.421 23.2598 653.006 23.1235 653.507 22.8511C654.017 22.5698 654.438 22.1875 654.772 21.7041C655.106 21.2207 655.357 20.667 655.524 20.043C655.7 19.4102 655.788 18.7378 655.788 18.0259V17.7227C655.788 17.0195 655.7 16.356 655.524 15.7319C655.357 15.0991 655.102 14.541 654.759 14.0576C654.425 13.5654 654.003 13.1787 653.494 12.8975C652.993 12.6162 652.404 12.4756 651.727 12.4756C651.059 12.4756 650.47 12.6162 649.96 12.8975C649.459 13.1787 649.038 13.5654 648.695 14.0576C648.361 14.541 648.11 15.0991 647.943 15.7319C647.776 16.356 647.693 17.0195 647.693 17.7227Z" fill="#008C95"/>
<path d="M343.323 347.93V350H328.795V347.93H343.323ZM329.204 347.93V354.72H326.686L326.672 347.93H329.204ZM345.538 347.93L345.512 354.707H342.994V347.93H345.538ZM340.832 330.805V332.888H332.42V330.805H340.832ZM343.02 330.805V350H340.489V330.805H343.02ZM331.55 330.805H334.095L333.699 338.53C333.646 339.69 333.537 340.763 333.37 341.747C333.203 342.723 332.996 343.615 332.75 344.423C332.504 345.232 332.223 345.957 331.906 346.599C331.59 347.231 331.251 347.781 330.891 348.247C330.531 348.704 330.153 349.082 329.757 349.38C329.371 349.67 328.979 349.877 328.584 350H327.424V347.93H328.241C328.47 347.684 328.729 347.328 329.019 346.862C329.318 346.396 329.612 345.794 329.902 345.056C330.201 344.309 330.46 343.399 330.68 342.327C330.909 341.255 331.062 339.989 331.142 338.53L331.55 330.805ZM347.516 343.026V342.723C347.516 341.694 347.665 340.741 347.964 339.862C348.263 338.974 348.693 338.205 349.256 337.555C349.818 336.896 350.5 336.386 351.299 336.025C352.099 335.656 352.996 335.472 353.989 335.472C354.991 335.472 355.892 335.656 356.691 336.025C357.5 336.386 358.186 336.896 358.748 337.555C359.319 338.205 359.754 338.974 360.053 339.862C360.352 340.741 360.501 341.694 360.501 342.723V343.026C360.501 344.054 360.352 345.008 360.053 345.887C359.754 346.766 359.319 347.535 358.748 348.194C358.186 348.844 357.504 349.354 356.705 349.723C355.914 350.083 355.017 350.264 354.015 350.264C353.013 350.264 352.112 350.083 351.312 349.723C350.513 349.354 349.827 348.844 349.256 348.194C348.693 347.535 348.263 346.766 347.964 345.887C347.665 345.008 347.516 344.054 347.516 343.026ZM349.955 342.723V343.026C349.955 343.738 350.038 344.41 350.205 345.043C350.372 345.667 350.623 346.221 350.957 346.704C351.299 347.188 351.726 347.57 352.235 347.851C352.745 348.124 353.338 348.26 354.015 348.26C354.683 348.26 355.268 348.124 355.769 347.851C356.278 347.57 356.7 347.188 357.034 346.704C357.368 346.221 357.619 345.667 357.786 345.043C357.961 344.41 358.049 343.738 358.049 343.026V342.723C358.049 342.02 357.961 341.356 357.786 340.732C357.619 340.099 357.364 339.541 357.021 339.058C356.687 338.565 356.265 338.179 355.755 337.897C355.254 337.616 354.666 337.476 353.989 337.476C353.321 337.476 352.732 337.616 352.222 337.897C351.721 338.179 351.299 338.565 350.957 339.058C350.623 339.541 350.372 340.099 350.205 340.732C350.038 341.356 349.955 342.02 349.955 342.723ZM365.999 338.478V355.484H363.547V335.735H365.788L365.999 338.478ZM375.61 342.749V343.026C375.61 344.063 375.487 345.025 375.241 345.913C374.995 346.792 374.634 347.557 374.16 348.207C373.694 348.857 373.118 349.363 372.433 349.723C371.747 350.083 370.96 350.264 370.073 350.264C369.167 350.264 368.368 350.114 367.673 349.815C366.979 349.517 366.39 349.082 365.907 348.51C365.423 347.939 365.037 347.253 364.747 346.454C364.465 345.654 364.272 344.753 364.167 343.751V342.274C364.272 341.22 364.47 340.275 364.76 339.44C365.05 338.605 365.432 337.893 365.907 337.304C366.39 336.707 366.975 336.254 367.66 335.946C368.346 335.63 369.137 335.472 370.033 335.472C370.93 335.472 371.725 335.647 372.419 335.999C373.114 336.342 373.698 336.834 374.173 337.476C374.647 338.117 375.003 338.886 375.241 339.783C375.487 340.67 375.61 341.659 375.61 342.749ZM373.158 343.026V342.749C373.158 342.037 373.083 341.369 372.934 340.745C372.784 340.112 372.551 339.559 372.235 339.084C371.927 338.601 371.532 338.223 371.048 337.95C370.565 337.669 369.989 337.528 369.321 337.528C368.706 337.528 368.17 337.634 367.713 337.845C367.265 338.056 366.882 338.341 366.566 338.702C366.25 339.053 365.99 339.458 365.788 339.915C365.595 340.363 365.45 340.829 365.353 341.312V344.727C365.529 345.342 365.775 345.922 366.091 346.467C366.408 347.003 366.83 347.438 367.357 347.772C367.884 348.097 368.548 348.26 369.348 348.26C370.007 348.26 370.574 348.124 371.048 347.851C371.532 347.57 371.927 347.188 372.235 346.704C372.551 346.221 372.784 345.667 372.934 345.043C373.083 344.41 373.158 343.738 373.158 343.026ZM378.075 343.026V342.723C378.075 341.694 378.225 340.741 378.523 339.862C378.822 338.974 379.253 338.205 379.815 337.555C380.378 336.896 381.059 336.386 381.859 336.025C382.659 335.656 383.555 335.472 384.548 335.472C385.55 335.472 386.451 335.656 387.251 336.025C388.06 336.386 388.745 336.896 389.308 337.555C389.879 338.205 390.314 338.974 390.613 339.862C390.912 340.741 391.061 341.694 391.061 342.723V343.026C391.061 344.054 390.912 345.008 390.613 345.887C390.314 346.766 389.879 347.535 389.308 348.194C388.745 348.844 388.064 349.354 387.264 349.723C386.473 350.083 385.577 350.264 384.575 350.264C383.573 350.264 382.672 350.083 381.872 349.723C381.072 349.354 380.387 348.844 379.815 348.194C379.253 347.535 378.822 346.766 378.523 345.887C378.225 345.008 378.075 344.054 378.075 343.026ZM380.514 342.723V343.026C380.514 343.738 380.598 344.41 380.765 345.043C380.932 345.667 381.182 346.221 381.516 346.704C381.859 347.188 382.285 347.57 382.795 347.851C383.305 348.124 383.898 348.26 384.575 348.26C385.243 348.26 385.827 348.124 386.328 347.851C386.838 347.57 387.26 347.188 387.594 346.704C387.928 346.221 388.178 345.667 388.345 345.043C388.521 344.41 388.609 343.738 388.609 343.026V342.723C388.609 342.02 388.521 341.356 388.345 340.732C388.178 340.099 387.923 339.541 387.581 339.058C387.247 338.565 386.825 338.179 386.315 337.897C385.814 337.616 385.225 337.476 384.548 337.476C383.88 337.476 383.292 337.616 382.782 337.897C382.281 338.179 381.859 338.565 381.516 339.058C381.182 339.541 380.932 340.099 380.765 340.732C380.598 341.356 380.514 342.02 380.514 342.723ZM398.154 343.791L392.749 335.735H395.688L399.38 341.642H402.228L401.872 343.791H398.154ZM399.485 343.54L395.346 350H392.261L397.943 341.773L399.485 343.54ZM403.48 335.735V350H401.041V335.735H403.48ZM411.799 335.735L406.394 343.791H402.676L402.293 341.642H405.154L408.846 335.735H411.799ZM409.188 350L405.036 343.54L406.604 341.773L412.273 350H409.188ZM424.205 341.918V343.896H416.664V341.918H424.205ZM417.178 335.735V350H414.739V335.735H417.178ZM426.182 335.735V350H423.73V335.735H426.182ZM429.465 343.026V342.723C429.465 341.694 429.614 340.741 429.913 339.862C430.212 338.974 430.643 338.205 431.205 337.555C431.768 336.896 432.449 336.386 433.249 336.025C434.048 335.656 434.945 335.472 435.938 335.472C436.94 335.472 437.841 335.656 438.641 336.025C439.449 336.386 440.135 336.896 440.697 337.555C441.269 338.205 441.704 338.974 442.002 339.862C442.301 340.741 442.451 341.694 442.451 342.723V343.026C442.451 344.054 442.301 345.008 442.002 345.887C441.704 346.766 441.269 347.535 440.697 348.194C440.135 348.844 439.454 349.354 438.654 349.723C437.863 350.083 436.966 350.264 435.964 350.264C434.962 350.264 434.062 350.083 433.262 349.723C432.462 349.354 431.776 348.844 431.205 348.194C430.643 347.535 430.212 346.766 429.913 345.887C429.614 345.008 429.465 344.054 429.465 343.026ZM431.904 342.723V343.026C431.904 343.738 431.987 344.41 432.154 345.043C432.321 345.667 432.572 346.221 432.906 346.704C433.249 347.188 433.675 347.57 434.185 347.851C434.694 348.124 435.288 348.26 435.964 348.26C436.632 348.26 437.217 348.124 437.718 347.851C438.228 347.57 438.649 347.188 438.983 346.704C439.317 346.221 439.568 345.667 439.735 345.043C439.911 344.41 439.999 343.738 439.999 343.026V342.723C439.999 342.02 439.911 341.356 439.735 340.732C439.568 340.099 439.313 339.541 438.97 339.058C438.636 338.565 438.214 338.179 437.705 337.897C437.204 337.616 436.615 337.476 435.938 337.476C435.27 337.476 434.681 337.616 434.171 337.897C433.67 338.179 433.249 338.565 432.906 339.058C432.572 339.541 432.321 340.099 432.154 340.732C431.987 341.356 431.904 342.02 431.904 342.723ZM451.429 350.264C450.436 350.264 449.535 350.097 448.726 349.763C447.926 349.42 447.236 348.941 446.656 348.326C446.085 347.71 445.646 346.981 445.338 346.137C445.03 345.293 444.876 344.371 444.876 343.369V342.815C444.876 341.655 445.048 340.622 445.391 339.717C445.733 338.803 446.199 338.029 446.788 337.396C447.377 336.764 448.045 336.285 448.792 335.959C449.539 335.634 450.312 335.472 451.112 335.472C452.132 335.472 453.011 335.647 453.749 335.999C454.496 336.351 455.107 336.843 455.582 337.476C456.056 338.1 456.408 338.838 456.636 339.69C456.865 340.534 456.979 341.457 456.979 342.459V343.553H446.327V341.562H454.54V341.378C454.505 340.745 454.373 340.13 454.145 339.532C453.925 338.935 453.573 338.442 453.09 338.056C452.606 337.669 451.947 337.476 451.112 337.476C450.559 337.476 450.049 337.594 449.583 337.832C449.117 338.06 448.717 338.403 448.383 338.86C448.049 339.317 447.79 339.875 447.605 340.534C447.421 341.193 447.329 341.954 447.329 342.815V343.369C447.329 344.045 447.421 344.683 447.605 345.28C447.799 345.869 448.076 346.388 448.436 346.836C448.805 347.284 449.249 347.636 449.768 347.891C450.295 348.146 450.893 348.273 451.561 348.273C452.422 348.273 453.151 348.097 453.749 347.746C454.347 347.394 454.87 346.924 455.318 346.335L456.794 347.508C456.487 347.974 456.096 348.418 455.621 348.84C455.146 349.262 454.562 349.604 453.868 349.868C453.182 350.132 452.369 350.264 451.429 350.264ZM472.232 348.26C472.812 348.26 473.349 348.141 473.841 347.904C474.333 347.667 474.737 347.341 475.054 346.928C475.37 346.506 475.55 346.027 475.594 345.491H477.915C477.871 346.335 477.585 347.122 477.058 347.851C476.539 348.572 475.858 349.156 475.014 349.604C474.17 350.044 473.243 350.264 472.232 350.264C471.16 350.264 470.224 350.075 469.424 349.697C468.633 349.319 467.974 348.8 467.447 348.141C466.928 347.482 466.537 346.726 466.273 345.874C466.019 345.012 465.891 344.103 465.891 343.145V342.591C465.891 341.633 466.019 340.728 466.273 339.875C466.537 339.014 466.928 338.253 467.447 337.594C467.974 336.935 468.633 336.417 469.424 336.039C470.224 335.661 471.16 335.472 472.232 335.472C473.349 335.472 474.324 335.7 475.159 336.157C475.994 336.605 476.649 337.221 477.124 338.003C477.607 338.776 477.871 339.655 477.915 340.64H475.594C475.55 340.051 475.383 339.519 475.093 339.044C474.812 338.57 474.425 338.192 473.933 337.911C473.45 337.621 472.883 337.476 472.232 337.476C471.485 337.476 470.857 337.625 470.347 337.924C469.846 338.214 469.446 338.609 469.147 339.11C468.857 339.603 468.646 340.152 468.515 340.758C468.392 341.356 468.33 341.967 468.33 342.591V343.145C468.33 343.769 468.392 344.384 468.515 344.99C468.638 345.597 468.844 346.146 469.134 346.638C469.433 347.13 469.833 347.526 470.334 347.825C470.844 348.115 471.477 348.26 472.232 348.26ZM486.471 335.735V350H484.019V335.735H486.471ZM491.256 335.735V337.713H479.325V335.735H491.256ZM496.095 338.478V355.484H493.643V335.735H495.884L496.095 338.478ZM505.706 342.749V343.026C505.706 344.063 505.583 345.025 505.336 345.913C505.09 346.792 504.73 347.557 504.255 348.207C503.79 348.857 503.214 349.363 502.528 349.723C501.843 350.083 501.056 350.264 500.168 350.264C499.263 350.264 498.463 350.114 497.769 349.815C497.075 349.517 496.486 349.082 496.002 348.51C495.519 347.939 495.132 347.253 494.842 346.454C494.561 345.654 494.368 344.753 494.262 343.751V342.274C494.368 341.22 494.565 340.275 494.855 339.44C495.146 338.605 495.528 337.893 496.002 337.304C496.486 336.707 497.07 336.254 497.756 335.946C498.441 335.63 499.232 335.472 500.129 335.472C501.025 335.472 501.821 335.647 502.515 335.999C503.209 336.342 503.794 336.834 504.269 337.476C504.743 338.117 505.099 338.886 505.336 339.783C505.583 340.67 505.706 341.659 505.706 342.749ZM503.253 343.026V342.749C503.253 342.037 503.179 341.369 503.029 340.745C502.88 340.112 502.647 339.559 502.331 339.084C502.023 338.601 501.627 338.223 501.144 337.95C500.661 337.669 500.085 337.528 499.417 337.528C498.802 337.528 498.266 337.634 497.809 337.845C497.36 338.056 496.978 338.341 496.662 338.702C496.345 339.053 496.086 339.458 495.884 339.915C495.69 340.363 495.545 340.829 495.449 341.312V344.727C495.625 345.342 495.871 345.922 496.187 346.467C496.503 347.003 496.925 347.438 497.453 347.772C497.98 348.097 498.644 348.26 499.443 348.26C500.103 348.26 500.669 348.124 501.144 347.851C501.627 347.57 502.023 347.188 502.331 346.704C502.647 346.221 502.88 345.667 503.029 345.043C503.179 344.41 503.253 343.738 503.253 343.026ZM508.171 343.026V342.723C508.171 341.694 508.32 340.741 508.619 339.862C508.918 338.974 509.349 338.205 509.911 337.555C510.474 336.896 511.155 336.386 511.955 336.025C512.754 335.656 513.651 335.472 514.644 335.472C515.646 335.472 516.547 335.656 517.347 336.025C518.155 336.386 518.841 336.896 519.403 337.555C519.975 338.205 520.41 338.974 520.708 339.862C521.007 340.741 521.157 341.694 521.157 342.723V343.026C521.157 344.054 521.007 345.008 520.708 345.887C520.41 346.766 519.975 347.535 519.403 348.194C518.841 348.844 518.16 349.354 517.36 349.723C516.569 350.083 515.672 350.264 514.67 350.264C513.668 350.264 512.768 350.083 511.968 349.723C511.168 349.354 510.482 348.844 509.911 348.194C509.349 347.535 508.918 346.766 508.619 345.887C508.32 345.008 508.171 344.054 508.171 343.026ZM510.61 342.723V343.026C510.61 343.738 510.693 344.41 510.86 345.043C511.027 345.667 511.278 346.221 511.612 346.704C511.955 347.188 512.381 347.57 512.891 347.851C513.4 348.124 513.994 348.26 514.67 348.26C515.338 348.26 515.923 348.124 516.424 347.851C516.934 347.57 517.355 347.188 517.689 346.704C518.023 346.221 518.274 345.667 518.441 345.043C518.617 344.41 518.705 343.738 518.705 343.026V342.723C518.705 342.02 518.617 341.356 518.441 340.732C518.274 340.099 518.019 339.541 517.676 339.058C517.342 338.565 516.92 338.179 516.411 337.897C515.91 337.616 515.321 337.476 514.644 337.476C513.976 337.476 513.387 337.616 512.877 337.897C512.376 338.179 511.955 338.565 511.612 339.058C511.278 339.541 511.027 340.099 510.86 340.732C510.693 341.356 510.61 342.02 510.61 342.723ZM526.852 346.137L533.431 335.735H535.883V350H533.431V339.598L526.852 350H524.426V335.735H526.852V346.137ZM545.612 335.735V350H543.16V335.735H545.612ZM550.398 335.735V337.713H538.467V335.735H550.398ZM557.662 350.264C556.669 350.264 555.768 350.097 554.959 349.763C554.16 349.42 553.47 348.941 552.89 348.326C552.318 347.71 551.879 346.981 551.571 346.137C551.264 345.293 551.11 344.371 551.11 343.369V342.815C551.11 341.655 551.281 340.622 551.624 339.717C551.967 338.803 552.433 338.029 553.021 337.396C553.61 336.764 554.278 336.285 555.025 335.959C555.772 335.634 556.546 335.472 557.346 335.472C558.365 335.472 559.244 335.647 559.982 335.999C560.729 336.351 561.34 336.843 561.815 337.476C562.29 338.1 562.641 338.838 562.87 339.69C563.098 340.534 563.212 341.457 563.212 342.459V343.553H552.56V341.562H560.773V341.378C560.738 340.745 560.606 340.13 560.378 339.532C560.158 338.935 559.807 338.442 559.323 338.056C558.84 337.669 558.181 337.476 557.346 337.476C556.792 337.476 556.282 337.594 555.816 337.832C555.351 338.06 554.951 338.403 554.617 338.86C554.283 339.317 554.023 339.875 553.839 340.534C553.654 341.193 553.562 341.954 553.562 342.815V343.369C553.562 344.045 553.654 344.683 553.839 345.28C554.032 345.869 554.309 346.388 554.669 346.836C555.039 347.284 555.482 347.636 556.001 347.891C556.528 348.146 557.126 348.273 557.794 348.273C558.655 348.273 559.385 348.097 559.982 347.746C560.58 347.394 561.103 346.924 561.551 346.335L563.028 347.508C562.72 347.974 562.329 348.418 561.854 348.84C561.38 349.262 560.795 349.604 560.101 349.868C559.416 350.132 558.603 350.264 557.662 350.264ZM575.592 335.735V337.752H568.697V335.735H575.592ZM577.741 335.735V350H575.302V335.735H577.741ZM568.104 335.735H570.556L570.187 342.617C570.125 343.681 570.024 344.621 569.883 345.438C569.751 346.247 569.567 346.941 569.33 347.521C569.101 348.102 568.811 348.576 568.459 348.945C568.117 349.306 567.704 349.574 567.22 349.75C566.737 349.917 566.179 350 565.546 350H564.781V347.851L565.309 347.812C565.687 347.785 566.007 347.697 566.271 347.548C566.543 347.398 566.772 347.179 566.957 346.889C567.141 346.59 567.291 346.208 567.405 345.742C567.528 345.276 567.62 344.722 567.682 344.081C567.752 343.439 567.805 342.692 567.84 341.839L568.104 335.735ZM583.673 340.64H587.958C589.109 340.64 590.081 340.842 590.872 341.246C591.663 341.642 592.26 342.191 592.665 342.894C593.078 343.588 593.284 344.379 593.284 345.267C593.284 345.926 593.17 346.546 592.941 347.126C592.713 347.697 592.37 348.198 591.913 348.629C591.465 349.06 590.907 349.398 590.239 349.644C589.58 349.881 588.819 350 587.958 350H581.894V335.735H584.333V347.996H587.958C588.661 347.996 589.224 347.869 589.646 347.614C590.067 347.359 590.371 347.029 590.555 346.625C590.74 346.221 590.832 345.799 590.832 345.359C590.832 344.929 590.74 344.507 590.555 344.094C590.371 343.681 590.067 343.338 589.646 343.065C589.224 342.784 588.661 342.644 587.958 342.644H583.673V340.64ZM602.038 348.26C602.618 348.26 603.154 348.141 603.646 347.904C604.139 347.667 604.543 347.341 604.859 346.928C605.176 346.506 605.356 346.027 605.4 345.491H607.72C607.676 346.335 607.391 347.122 606.863 347.851C606.345 348.572 605.664 349.156 604.82 349.604C603.976 350.044 603.049 350.264 602.038 350.264C600.966 350.264 600.03 350.075 599.23 349.697C598.439 349.319 597.78 348.8 597.252 348.141C596.734 347.482 596.343 346.726 596.079 345.874C595.824 345.012 595.697 344.103 595.697 343.145V342.591C595.697 341.633 595.824 340.728 596.079 339.875C596.343 339.014 596.734 338.253 597.252 337.594C597.78 336.935 598.439 336.417 599.23 336.039C600.03 335.661 600.966 335.472 602.038 335.472C603.154 335.472 604.13 335.7 604.965 336.157C605.8 336.605 606.455 337.221 606.929 338.003C607.413 338.776 607.676 339.655 607.72 340.64H605.4C605.356 340.051 605.189 339.519 604.899 339.044C604.618 338.57 604.231 338.192 603.739 337.911C603.255 337.621 602.688 337.476 602.038 337.476C601.291 337.476 600.663 337.625 600.153 337.924C599.652 338.214 599.252 338.609 598.953 339.11C598.663 339.603 598.452 340.152 598.32 340.758C598.197 341.356 598.136 341.967 598.136 342.591V343.145C598.136 343.769 598.197 344.384 598.32 344.99C598.443 345.597 598.65 346.146 598.94 346.638C599.239 347.13 599.639 347.526 600.14 347.825C600.649 348.115 601.282 348.26 602.038 348.26ZM616.276 335.735V350H613.824V335.735H616.276ZM621.062 335.735V337.713H609.131V335.735H621.062ZM630.159 343.725H625.479L625.452 341.773H629.275C630.031 341.773 630.66 341.699 631.161 341.549C631.67 341.4 632.053 341.176 632.308 340.877C632.562 340.578 632.69 340.209 632.69 339.77C632.69 339.427 632.615 339.128 632.466 338.873C632.325 338.609 632.11 338.394 631.82 338.227C631.53 338.051 631.169 337.924 630.739 337.845C630.317 337.757 629.82 337.713 629.249 337.713H626.125V350H623.686V335.735H629.249C630.154 335.735 630.967 335.814 631.688 335.973C632.417 336.131 633.037 336.373 633.547 336.698C634.065 337.014 634.461 337.418 634.733 337.911C635.006 338.403 635.142 338.983 635.142 339.651C635.142 340.082 635.054 340.49 634.878 340.877C634.703 341.264 634.443 341.606 634.101 341.905C633.758 342.204 633.336 342.45 632.835 342.644C632.334 342.828 631.758 342.947 631.108 343L630.159 343.725ZM630.159 350H624.595L625.808 348.022H630.159C630.835 348.022 631.398 347.939 631.846 347.772C632.294 347.596 632.628 347.35 632.848 347.034C633.077 346.708 633.191 346.322 633.191 345.874C633.191 345.425 633.077 345.043 632.848 344.727C632.628 344.401 632.294 344.155 631.846 343.988C631.398 343.812 630.835 343.725 630.159 343.725H626.454L626.48 341.773H631.108L631.991 342.512C632.773 342.573 633.437 342.767 633.982 343.092C634.527 343.417 634.94 343.83 635.221 344.331C635.502 344.823 635.643 345.359 635.643 345.939C635.643 346.607 635.516 347.196 635.261 347.706C635.015 348.216 634.654 348.642 634.18 348.985C633.705 349.319 633.129 349.574 632.453 349.75C631.776 349.917 631.011 350 630.159 350ZM638.267 343.026V342.723C638.267 341.694 638.416 340.741 638.715 339.862C639.014 338.974 639.444 338.205 640.007 337.555C640.569 336.896 641.25 336.386 642.05 336.025C642.85 335.656 643.747 335.472 644.74 335.472C645.742 335.472 646.643 335.656 647.442 336.025C648.251 336.386 648.937 336.896 649.499 337.555C650.07 338.205 650.505 338.974 650.804 339.862C651.103 340.741 651.252 341.694 651.252 342.723V343.026C651.252 344.054 651.103 345.008 650.804 345.887C650.505 346.766 650.07 347.535 649.499 348.194C648.937 348.844 648.255 349.354 647.456 349.723C646.665 350.083 645.768 350.264 644.766 350.264C643.764 350.264 642.863 350.083 642.063 349.723C641.264 349.354 640.578 348.844 640.007 348.194C639.444 347.535 639.014 346.766 638.715 345.887C638.416 345.008 638.267 344.054 638.267 343.026ZM640.706 342.723V343.026C640.706 343.738 640.789 344.41 640.956 345.043C641.123 345.667 641.374 346.221 641.708 346.704C642.05 347.188 642.477 347.57 642.986 347.851C643.496 348.124 644.089 348.26 644.766 348.26C645.434 348.26 646.019 348.124 646.52 347.851C647.029 347.57 647.451 347.188 647.785 346.704C648.119 346.221 648.37 345.667 648.537 345.043C648.712 344.41 648.8 343.738 648.8 343.026V342.723C648.8 342.02 648.712 341.356 648.537 340.732C648.37 340.099 648.115 339.541 647.772 339.058C647.438 338.565 647.016 338.179 646.506 337.897C646.005 337.616 645.417 337.476 644.74 337.476C644.072 337.476 643.483 337.616 642.973 337.897C642.472 338.179 642.05 338.565 641.708 339.058C641.374 339.541 641.123 340.099 640.956 340.732C640.789 341.356 640.706 342.02 640.706 342.723Z" fill="#008C95"/>
</svg>
