<svg width="273" height="429" viewBox="0 0 273 429" fill="none" xmlns="http://www.w3.org/2000/svg">
<path d="M9.61523 7.70898V8.33789C9.61523 9.08529 9.52181 9.75521 9.33496 10.3477C9.14811 10.9401 8.87923 11.4437 8.52832 11.8584C8.17741 12.2731 7.75586 12.5898 7.26367 12.8086C6.77604 13.0273 6.22917 13.1367 5.62305 13.1367C5.03516 13.1367 4.49512 13.0273 4.00293 12.8086C3.5153 12.5898 3.09147 12.2731 2.73145 11.8584C2.37598 11.4437 2.10026 10.9401 1.9043 10.3477C1.70833 9.75521 1.61035 9.08529 1.61035 8.33789V7.70898C1.61035 6.96159 1.70605 6.29395 1.89746 5.70605C2.09342 5.11361 2.36914 4.61003 2.72461 4.19531C3.08008 3.77604 3.50163 3.45703 3.98926 3.23828C4.48145 3.01953 5.02148 2.91016 5.60938 2.91016C6.21549 2.91016 6.76237 3.01953 7.25 3.23828C7.74219 3.45703 8.16374 3.77604 8.51465 4.19531C8.87012 4.61003 9.14128 5.11361 9.32812 5.70605C9.51953 6.29395 9.61523 6.96159 9.61523 7.70898ZM8.30957 8.33789V7.69531C8.30957 7.10286 8.24805 6.57878 8.125 6.12305C8.00651 5.66732 7.83105 5.28451 7.59863 4.97461C7.36621 4.66471 7.08138 4.43001 6.74414 4.27051C6.41146 4.111 6.0332 4.03125 5.60938 4.03125C5.19922 4.03125 4.8278 4.111 4.49512 4.27051C4.16699 4.43001 3.88444 4.66471 3.64746 4.97461C3.41504 5.28451 3.23503 5.66732 3.10742 6.12305C2.97982 6.57878 2.91602 7.10286 2.91602 7.69531V8.33789C2.91602 8.9349 2.97982 9.46354 3.10742 9.92383C3.23503 10.3796 3.41732 10.7646 3.6543 11.0791C3.89583 11.389 4.18066 11.6237 4.50879 11.7832C4.84147 11.9427 5.21289 12.0225 5.62305 12.0225C6.05143 12.0225 6.43197 11.9427 6.76465 11.7832C7.09733 11.6237 7.3776 11.389 7.60547 11.0791C7.83789 10.7646 8.01335 10.3796 8.13184 9.92383C8.25033 9.46354 8.30957 8.9349 8.30957 8.33789ZM16.1436 2.38379H17.1826C17.1826 2.8304 17.1143 3.18587 16.9775 3.4502C16.8408 3.70996 16.654 3.91048 16.417 4.05176C16.1846 4.19303 15.9202 4.30013 15.624 4.37305C15.3324 4.44596 15.0293 4.5166 14.7148 4.58496C14.3229 4.66699 13.9583 4.79688 13.6211 4.97461C13.2884 5.14779 13.0013 5.39388 12.7598 5.71289C12.5228 6.0319 12.3473 6.44661 12.2334 6.95703C12.124 7.46745 12.0944 8.09863 12.1445 8.85059V9.47949H11.1055V8.85059C11.1055 8.00749 11.1852 7.27148 11.3447 6.64258C11.5088 6.01367 11.7389 5.48275 12.0352 5.0498C12.3314 4.61686 12.6823 4.27279 13.0879 4.01758C13.498 3.76237 13.9492 3.58691 14.4414 3.49121C14.7969 3.42285 15.1022 3.34993 15.3574 3.27246C15.6126 3.19043 15.8063 3.08105 15.9385 2.94434C16.0752 2.80762 16.1436 2.62077 16.1436 2.38379ZM14.6465 6.02734C15.1296 6.02734 15.5602 6.11165 15.9385 6.28027C16.3167 6.44889 16.638 6.68359 16.9023 6.98438C17.1667 7.28516 17.3672 7.64062 17.5039 8.05078C17.6452 8.45638 17.7158 8.89844 17.7158 9.37695V9.52734C17.7158 10.0423 17.6406 10.5208 17.4902 10.9629C17.3444 11.4004 17.1279 11.7832 16.8408 12.1113C16.5583 12.4349 16.2119 12.6878 15.8018 12.8701C15.3962 13.0524 14.9336 13.1436 14.4141 13.1436C13.8945 13.1436 13.4297 13.0524 13.0195 12.8701C12.6139 12.6878 12.2676 12.4349 11.9805 12.1113C11.6934 11.7832 11.4746 11.4004 11.3242 10.9629C11.1784 10.5208 11.1055 10.0423 11.1055 9.52734V9.37695C11.1055 9.26302 11.126 9.15137 11.167 9.04199C11.208 8.93262 11.2581 8.82096 11.3174 8.70703C11.3812 8.5931 11.4382 8.47233 11.4883 8.34473C11.6569 7.93457 11.887 7.55404 12.1787 7.20312C12.4749 6.85221 12.8281 6.56966 13.2383 6.35547C13.653 6.13672 14.1224 6.02734 14.6465 6.02734ZM14.4004 7.05957C13.9355 7.05957 13.5527 7.16667 13.252 7.38086C12.9557 7.59505 12.7347 7.87988 12.5889 8.23535C12.443 8.58626 12.3701 8.9668 12.3701 9.37695V9.52734C12.3701 9.8737 12.4111 10.2018 12.4932 10.5117C12.5752 10.8216 12.6982 11.0973 12.8623 11.3389C13.0309 11.5758 13.2428 11.7627 13.498 11.8994C13.7578 12.0361 14.0632 12.1045 14.4141 12.1045C14.765 12.1045 15.068 12.0361 15.3232 11.8994C15.5785 11.7627 15.7881 11.5758 15.9521 11.3389C16.1162 11.0973 16.2393 10.8216 16.3213 10.5117C16.4033 10.2018 16.4443 9.8737 16.4443 9.52734V9.37695C16.4443 9.06706 16.4033 8.77311 16.3213 8.49512C16.2393 8.21712 16.1139 7.97103 15.9453 7.75684C15.7812 7.54264 15.5693 7.37402 15.3096 7.25098C15.0544 7.12337 14.7513 7.05957 14.4004 7.05957ZM22.2891 9.38379V9.22656C22.2891 8.69336 22.3665 8.19889 22.5215 7.74316C22.6764 7.28288 22.8997 6.88411 23.1914 6.54688C23.4831 6.20508 23.8363 5.94076 24.251 5.75391C24.6657 5.5625 25.1305 5.4668 25.6455 5.4668C26.165 5.4668 26.6322 5.5625 27.0469 5.75391C27.4661 5.94076 27.8216 6.20508 28.1133 6.54688C28.4095 6.88411 28.6351 7.28288 28.79 7.74316C28.945 8.19889 29.0225 8.69336 29.0225 9.22656V9.38379C29.0225 9.91699 28.945 10.4115 28.79 10.8672C28.6351 11.3229 28.4095 11.7217 28.1133 12.0635C27.8216 12.4007 27.4684 12.665 27.0537 12.8564C26.6436 13.0433 26.1787 13.1367 25.6592 13.1367C25.1396 13.1367 24.6725 13.0433 24.2578 12.8564C23.8431 12.665 23.4876 12.4007 23.1914 12.0635C22.8997 11.7217 22.6764 11.3229 22.5215 10.8672C22.3665 10.4115 22.2891 9.91699 22.2891 9.38379ZM23.5537 9.22656V9.38379C23.5537 9.75293 23.597 10.1016 23.6836 10.4297C23.7702 10.7533 23.9001 11.0404 24.0732 11.291C24.251 11.5417 24.472 11.7399 24.7363 11.8857C25.0007 12.027 25.3083 12.0977 25.6592 12.0977C26.0055 12.0977 26.3086 12.027 26.5684 11.8857C26.8327 11.7399 27.0514 11.5417 27.2246 11.291C27.3978 11.0404 27.5277 10.7533 27.6143 10.4297C27.7054 10.1016 27.751 9.75293 27.751 9.38379V9.22656C27.751 8.86198 27.7054 8.5179 27.6143 8.19434C27.5277 7.86621 27.3955 7.57682 27.2178 7.32617C27.0446 7.07096 26.8258 6.87044 26.5615 6.72461C26.3018 6.57878 25.9964 6.50586 25.6455 6.50586C25.2992 6.50586 24.9938 6.57878 24.7295 6.72461C24.4697 6.87044 24.251 7.07096 24.0732 7.32617C23.9001 7.57682 23.7702 7.86621 23.6836 8.19434C23.597 8.5179 23.5537 8.86198 23.5537 9.22656ZM33.4727 5.60352V13H32.2012V5.60352H33.4727ZM35.9541 5.60352V6.62891H29.7676V5.60352H35.9541ZM38.4629 7.02539V15.8438H37.1914V5.60352H38.3535L38.4629 7.02539ZM43.4463 9.24023V9.38379C43.4463 9.92155 43.3825 10.4206 43.2549 10.8809C43.1273 11.3366 42.9404 11.7331 42.6943 12.0703C42.4528 12.4076 42.1543 12.6696 41.7988 12.8564C41.4434 13.0433 41.0355 13.1367 40.5752 13.1367C40.1058 13.1367 39.6911 13.0592 39.3311 12.9043C38.971 12.7493 38.6657 12.5238 38.415 12.2275C38.1644 11.9313 37.9639 11.5758 37.8135 11.1611C37.6676 10.7464 37.5674 10.2793 37.5127 9.75977V8.99414C37.5674 8.44727 37.6699 7.95736 37.8203 7.52441C37.9707 7.09147 38.1689 6.72233 38.415 6.41699C38.6657 6.1071 38.9688 5.8724 39.3242 5.71289C39.6797 5.54883 40.0898 5.4668 40.5547 5.4668C41.0195 5.4668 41.432 5.55794 41.792 5.74023C42.152 5.91797 42.4551 6.17318 42.7012 6.50586C42.9473 6.83854 43.1318 7.2373 43.2549 7.70215C43.3825 8.16243 43.4463 8.67513 43.4463 9.24023ZM42.1748 9.38379V9.24023C42.1748 8.87109 42.1361 8.52474 42.0586 8.20117C41.9811 7.87305 41.8604 7.58594 41.6963 7.33984C41.5368 7.08919 41.3317 6.89323 41.0811 6.75195C40.8304 6.60612 40.5319 6.5332 40.1855 6.5332C39.8665 6.5332 39.5885 6.58789 39.3516 6.69727C39.1191 6.80664 38.9209 6.95475 38.7568 7.1416C38.5928 7.32389 38.4583 7.53353 38.3535 7.77051C38.2533 8.00293 38.1781 8.24447 38.1279 8.49512V10.2656C38.2191 10.5846 38.3467 10.8854 38.5107 11.168C38.6748 11.446 38.8936 11.6715 39.167 11.8447C39.4404 12.0133 39.7845 12.0977 40.1992 12.0977C40.541 12.0977 40.835 12.027 41.0811 11.8857C41.3317 11.7399 41.5368 11.5417 41.6963 11.291C41.8604 11.0404 41.9811 10.7533 42.0586 10.4297C42.1361 10.1016 42.1748 9.75293 42.1748 9.38379ZM49.4209 11.7354V7.92773C49.4209 7.63607 49.3617 7.38314 49.2432 7.16895C49.1292 6.9502 48.9561 6.78158 48.7236 6.66309C48.4912 6.5446 48.2041 6.48535 47.8623 6.48535C47.5433 6.48535 47.263 6.54004 47.0215 6.64941C46.7845 6.75879 46.5977 6.90234 46.4609 7.08008C46.3288 7.25781 46.2627 7.44922 46.2627 7.6543H44.998C44.998 7.38997 45.0664 7.12793 45.2031 6.86816C45.3398 6.6084 45.5358 6.3737 45.791 6.16406C46.0508 5.94987 46.3607 5.78125 46.7207 5.6582C47.0853 5.5306 47.4909 5.4668 47.9375 5.4668C48.4753 5.4668 48.9492 5.55794 49.3594 5.74023C49.7741 5.92253 50.0977 6.19824 50.3301 6.56738C50.5671 6.93197 50.6855 7.38997 50.6855 7.94141V11.3867C50.6855 11.6328 50.7061 11.8949 50.7471 12.1729C50.7926 12.4508 50.8587 12.6901 50.9453 12.8906V13H49.626C49.5622 12.8542 49.512 12.6605 49.4756 12.4189C49.4391 12.1729 49.4209 11.945 49.4209 11.7354ZM49.6396 8.51562L49.6533 9.4043H48.375C48.015 9.4043 47.6937 9.43392 47.4111 9.49316C47.1286 9.54785 46.8916 9.63216 46.7002 9.74609C46.5088 9.86003 46.363 10.0036 46.2627 10.1768C46.1624 10.3454 46.1123 10.5436 46.1123 10.7715C46.1123 11.0039 46.1647 11.2158 46.2695 11.4072C46.3743 11.5986 46.5316 11.7513 46.7412 11.8652C46.9554 11.9746 47.2174 12.0293 47.5273 12.0293C47.9147 12.0293 48.2565 11.9473 48.5527 11.7832C48.849 11.6191 49.0837 11.4186 49.2568 11.1816C49.4346 10.9447 49.5303 10.7145 49.5439 10.4912L50.084 11.0996C50.0521 11.291 49.9655 11.5029 49.8242 11.7354C49.6829 11.9678 49.4938 12.1911 49.2568 12.4053C49.0244 12.6149 48.7464 12.7904 48.4229 12.9316C48.1038 13.0684 47.7438 13.1367 47.3428 13.1367C46.8415 13.1367 46.4017 13.0387 46.0234 12.8428C45.6497 12.6468 45.3581 12.3848 45.1484 12.0566C44.9434 11.724 44.8408 11.3525 44.8408 10.9424C44.8408 10.5459 44.9183 10.1973 45.0732 9.89648C45.2282 9.59115 45.4515 9.33822 45.7432 9.1377C46.0348 8.93262 46.3857 8.77767 46.7959 8.67285C47.2061 8.56803 47.6641 8.51562 48.1699 8.51562H49.6396ZM55.6348 12.0977C55.9355 12.0977 56.2135 12.0361 56.4688 11.9131C56.724 11.79 56.9336 11.6214 57.0977 11.4072C57.2617 11.1885 57.3551 10.9401 57.3779 10.6621H58.5811C58.5583 11.0996 58.4102 11.5075 58.1367 11.8857C57.8678 12.2594 57.5146 12.5625 57.0771 12.7949C56.6396 13.0228 56.1589 13.1367 55.6348 13.1367C55.0788 13.1367 54.5934 13.0387 54.1787 12.8428C53.7686 12.6468 53.4268 12.3779 53.1533 12.0361C52.8844 11.6943 52.6816 11.3024 52.5449 10.8604C52.4128 10.4137 52.3467 9.94206 52.3467 9.44531V9.1582C52.3467 8.66146 52.4128 8.19206 52.5449 7.75C52.6816 7.30339 52.8844 6.90918 53.1533 6.56738C53.4268 6.22559 53.7686 5.95671 54.1787 5.76074C54.5934 5.56478 55.0788 5.4668 55.6348 5.4668C56.2135 5.4668 56.7194 5.58529 57.1523 5.82227C57.5853 6.05469 57.9248 6.3737 58.1709 6.7793C58.4215 7.18034 58.5583 7.63607 58.5811 8.14648H57.3779C57.3551 7.84115 57.2686 7.56543 57.1182 7.31934C56.9723 7.07324 56.7718 6.87728 56.5166 6.73145C56.266 6.58105 55.972 6.50586 55.6348 6.50586C55.2474 6.50586 54.9215 6.58333 54.6572 6.73828C54.3975 6.88867 54.1901 7.09375 54.0352 7.35352C53.8848 7.60872 53.7754 7.89355 53.707 8.20801C53.6432 8.5179 53.6113 8.83464 53.6113 9.1582V9.44531C53.6113 9.76888 53.6432 10.0879 53.707 10.4023C53.7708 10.7168 53.8779 11.0016 54.0283 11.2568C54.1833 11.512 54.3906 11.7171 54.6504 11.8721C54.9147 12.0225 55.2428 12.0977 55.6348 12.0977ZM64.9453 5.60352V6.64941H61.3701V5.60352H64.9453ZM66.0596 5.60352V13H64.7949V5.60352H66.0596ZM61.0625 5.60352H62.334L62.1426 9.17188C62.1107 9.72331 62.0583 10.2109 61.9854 10.6348C61.917 11.054 61.8213 11.4141 61.6982 11.7148C61.5798 12.0156 61.4294 12.2617 61.2471 12.4531C61.0693 12.64 60.8551 12.779 60.6045 12.8701C60.3538 12.9567 60.0645 13 59.7363 13H59.3398V11.8857L59.6133 11.8652C59.8092 11.8516 59.9756 11.806 60.1123 11.7285C60.2536 11.651 60.3721 11.5371 60.4678 11.3867C60.5635 11.2318 60.641 11.0335 60.7002 10.792C60.764 10.5505 60.8118 10.2633 60.8438 9.93066C60.8802 9.59798 60.9076 9.21061 60.9258 8.76855L61.0625 5.60352ZM69.4639 10.9971L72.875 5.60352H74.1465V13H72.875V7.60645L69.4639 13H68.2061V5.60352H69.4639V10.9971Z" fill="#008C95"/>
<path d="M60.3637 44.6343H53.6484V53.6706H60.3637V44.6343Z" fill="#77E2C3"/>
<path d="M67.0785 40.0293H60.3633V46.8497H67.0785V40.0293Z" fill="#008C95"/>
<path d="M73.7973 33.3149H67.082V53.671H73.7973V33.3149Z" fill="#77E2C3"/>
<path d="M73.7973 46.8506H67.082V53.671H73.7973V46.8506Z" fill="#008C95"/>
<path d="M73.7973 33.3149H67.082V40.1354H73.7973V33.3149Z" fill="#008C95"/>
<path d="M8.08459 46.3071L7.14844 47.6689L13.7162 52.1837L14.6524 50.8219L8.08459 46.3071Z" fill="#77E2C3"/>
<path d="M13.6978 41.6415L7.13281 45.8613L8.02633 47.2514L14.5914 43.0316L13.6978 41.6415Z" fill="#77E2C3"/>
<path d="M22.215 40.1416H20.5625V45.1517H22.215V40.1416Z" fill="#77E2C3"/>
<path d="M24.5155 45.1528H18.3711V50.531H24.5155V45.1528Z" fill="#008C95"/>
<path d="M14.9831 54.5563H13.3381V40.1193H8.02753V54.5563H6.375V38.4668H14.9831V54.5563Z" fill="#77E2C3"/>
<path d="M23.8946 40.143V37.4839L8.66139 32.4287L0.796875 36.6051V40.143H23.8946Z" fill="#77E2C3"/>
<path d="M8.66603 32.4287L6.375 33.6456V40.143H14.9831V34.5244L8.66603 32.4287Z" fill="#008C95"/>
<path d="M103.031 245.758V224.269L111.558 226.036V243.761L103.031 245.758ZM106.122 228.033V241.898L108.481 241.299V228.572L106.122 228.033Z" fill="#77E2C3"/>
<path d="M116.727 245.655H103.031V224.232H116.727V245.655ZM106.122 242.571H113.643V227.323H106.122V242.571Z" fill="#77E2C3"/>
<path d="M111.565 243.761V242.571H106.122V241.898V228.033V227.323H111.565V226.036L103.031 224.269V245.655H103.468L111.565 243.761Z" fill="#008C95"/>
<path d="M125.676 245.655H113.645V224.232H125.676V245.655ZM116.728 242.571H122.585V227.323H116.728V242.571Z" fill="#77E2C3"/>
<path d="M116.728 224.639V224.232H113.645V224.639V226.916V227.323H116.728V226.916V224.639Z" fill="#008C95"/>
<path d="M116.728 242.978V242.571H113.645V242.978V245.255V245.654H116.728V245.255V242.978Z" fill="#008C95"/>
<path d="M77.7748 133.725L65.455 125.199L50.3398 135.648L59.3172 141.882V141.859L62.7929 144.292L77.7748 133.725Z" fill="#77E2C3"/>
<path d="M67.6916 133.771L63.543 137.912L67.6916 140.789V133.771Z" fill="#008C95"/>
<path d="M63.547 130.873L59.3984 135.014L63.547 137.898V130.873Z" fill="#008C95"/>
<path d="M59.3946 127.993L55.2461 132.134L59.3946 135.011V127.993Z" fill="#008C95"/>
<path d="M63.547 130.87L59.3984 127.993V135.011L63.547 130.87Z" fill="#77E2C3"/>
<path d="M67.6916 133.757L63.543 130.873V137.898L67.6916 133.757Z" fill="#77E2C3"/>
<path d="M72.8648 130.316L68.6719 134.427L72.7982 137.245L72.8648 130.316Z" fill="#008C95"/>
<path d="M68.7111 127.44L64.5625 131.581L68.7111 134.458V127.44Z" fill="#008C95"/>
<path d="M64.5626 124.556L60.4141 128.704L64.5626 131.581V124.556Z" fill="#008C95"/>
<path d="M68.7111 127.44L64.5625 124.556V131.581L68.7111 127.44Z" fill="#77E2C3"/>
<path d="M72.8595 130.317L68.7109 127.44V134.458L72.8595 130.317Z" fill="#77E2C3"/>
<path d="M67.721 140.818L62.7812 137.276V144.301L67.721 140.818Z" fill="#77E2C3"/>
<path d="M62.7813 137.276L58.6328 141.424L62.7813 144.301V137.276Z" fill="#008C95"/>
<path d="M58.633 134.383L54.4844 138.524L58.633 141.408V134.383Z" fill="#008C95"/>
<path d="M62.7813 137.267L58.6328 134.383V141.408L62.7813 137.267Z" fill="#77E2C3"/>
<path d="M54.481 131.5L50.3398 135.648L54.481 138.525V131.5Z" fill="#008C95"/>
<path d="M58.633 134.384L54.4844 131.5V138.525L58.633 134.384Z" fill="#77E2C3"/>
<path d="M16.9999 193.794H4.33984V190.503H16.9999C18.0943 190.503 18.9818 189.616 18.9818 188.521C18.9818 187.427 18.0943 186.539 16.9999 186.539H11.2171C8.31093 186.539 5.94457 184.173 5.94457 181.267V180.904C5.94457 177.998 8.31093 175.632 11.2171 175.632H23.2707V178.923H11.2171C10.1227 178.923 9.23525 179.81 9.23525 180.904V181.267C9.23525 182.361 10.1227 183.249 11.2171 183.249H16.9999C19.9061 183.249 22.2724 185.615 22.2724 188.521C22.2724 191.427 19.9061 193.794 16.9999 193.794Z" fill="#77E2C3"/>
<path d="M15.9508 181.562H12.6602V188.27H15.9508V181.562Z" fill="#77E2C3"/>
<path d="M15.9508 183.25H12.6602V186.541H15.9508V183.25Z" fill="#008C95"/>
<path d="M20.3883 173.933H17.0977V180.64H20.3883V173.933Z" fill="#77E2C3"/>
<path d="M20.3883 175.638H17.0977V178.929H20.3883V175.638Z" fill="#008C95"/>
<path d="M10.9587 188.794H7.66797V195.502H10.9587V188.794Z" fill="#77E2C3"/>
<path d="M10.9587 190.502H7.66797V193.793H10.9587V190.502Z" fill="#008C95"/>
<path d="M109.441 145.365H119.269V129.74H109.441V145.365ZM116.659 142.755H112.044V132.343H116.659V142.755Z" fill="#77E2C3"/>
<path d="M102.508 145.365H112.055V129.74H102.508V145.365ZM109.444 142.755H105.111V132.343H109.444V142.755Z" fill="#77E2C3"/>
<path d="M116.66 139.123H126.207V123.498H116.66V139.123ZM123.597 136.513H119.263V126.101H123.597V136.513Z" fill="#77E2C3"/>
<path d="M109.441 139.123H119.269V123.498H109.441V139.123ZM116.659 136.513H112.044V126.101H116.659V136.513Z" fill="#77E2C3"/>
<path d="M112.044 129.74V132.343V139.124H109.441V129.74H112.044Z" fill="#008C95"/>
<path d="M116.66 136.513V132.343V129.74H119.271V139.124H116.66V136.513Z" fill="#008C95"/>
<path d="M166.292 127.656H158.165C154.423 127.656 151.398 130.688 151.398 134.43C151.398 138.172 154.43 141.204 158.165 141.204H166.292V127.656Z" fill="#77E2C3"/>
<path d="M166.293 141.204C162.862 141.204 160.074 138.172 160.074 134.43C160.074 130.688 162.862 127.656 166.293 127.656C169.725 127.656 172.512 130.688 172.512 134.43C172.512 138.172 169.725 141.204 166.293 141.204Z" fill="#008C95"/>
<path d="M170.547 130.132H166.738C164.564 130.132 162.797 132.055 162.797 134.428C162.797 136.802 164.564 138.725 166.738 138.725C166.812 138.725 166.886 138.717 166.96 138.71H170.547V130.132Z" fill="white"/>
<path d="M170.649 138.725C168.474 138.725 166.707 136.802 166.707 134.428C166.707 132.055 168.474 130.132 170.649 130.132C172.823 130.132 174.59 132.055 174.59 134.428C174.597 136.802 172.83 138.725 170.649 138.725Z" fill="#77E2C3"/>
<path d="M177.122 133.584H173.358C173.358 133.584 173.358 133.584 173.35 133.584C173.343 133.584 173.35 133.584 173.343 133.584H170.873C170.873 133.584 170.873 133.584 170.866 133.584C170.866 133.584 170.866 133.584 170.858 133.584H168.248C168.248 133.584 168.248 133.584 168.241 133.584C168.241 133.584 168.241 133.584 168.233 133.584H168.159V133.591C167.76 133.636 167.449 133.991 167.449 134.427C167.449 134.863 167.76 135.226 168.159 135.263V135.27H177.092C177.528 135.27 177.883 134.893 177.883 134.42C177.883 133.946 177.558 133.584 177.122 133.584Z" fill="#77E2C3"/>
<path d="M173.355 133.585H170.885C170.885 133.585 170.885 133.585 170.877 133.585C170.877 133.585 170.877 133.585 170.87 133.585H168.26C168.26 133.585 168.26 133.585 168.252 133.585C168.252 133.585 168.252 133.585 168.245 133.585H168.171V133.592C167.772 133.636 167.461 133.991 167.461 134.428C167.461 134.864 167.772 135.226 168.171 135.263V135.271H174.493C174.545 134.997 174.575 134.716 174.575 134.42C174.575 134.132 174.545 133.851 174.493 133.577L173.355 133.585Z" fill="#008C95"/>
<path d="M175.982 136.233H169.408C169.209 136.233 169.002 136.314 168.846 136.484C168.536 136.817 168.536 137.35 168.846 137.682C169.002 137.845 169.201 137.934 169.408 137.934H175.982C176.419 137.934 176.774 137.557 176.774 137.083C176.774 136.61 176.419 136.233 175.982 136.233Z" fill="#77E2C3"/>
<path d="M169.408 136.233C169.209 136.233 169.002 136.314 168.846 136.484C168.536 136.817 168.536 137.35 168.846 137.682C169.002 137.845 169.201 137.934 169.408 137.934H172.928C173.483 137.505 173.927 136.921 174.222 136.24H169.408V136.233Z" fill="#008C95"/>
<path d="M169.408 132.624C169.431 132.624 169.453 132.617 169.482 132.617V132.624H175.99C176.426 132.624 176.781 132.247 176.781 131.781C176.781 131.315 176.426 130.931 175.99 130.931H169.482V130.938C169.46 130.938 169.438 130.931 169.408 130.931C168.972 130.931 168.617 131.308 168.617 131.781C168.617 132.254 168.972 132.624 169.408 132.624Z" fill="#77E2C3"/>
<path d="M169.471 130.938C169.448 130.938 169.426 130.931 169.397 130.931C168.96 130.931 168.605 131.308 168.605 131.774C168.605 132.24 168.96 132.624 169.397 132.624C169.419 132.624 169.441 132.617 169.471 132.617V132.624H174.218C173.93 131.944 173.479 131.36 172.924 130.931L169.471 130.938Z" fill="#008C95"/>
<path d="M205.238 143.08V129.836H220.08V143.08L214.134 143.894L205.238 143.08Z" fill="#008C95"/>
<path d="M222.377 138.163C222.377 140.352 220.602 142.127 218.413 142.127C216.224 142.127 214.449 140.352 214.449 138.163C214.449 135.974 216.224 134.2 218.413 134.2C220.602 134.2 222.377 135.982 222.377 138.163Z" fill="white"/>
<path d="M224.628 129.835C224.628 126.566 221.98 123.919 218.705 123.919C215.436 123.919 212.781 126.566 212.781 129.835V137.651L217.98 132.453L224.635 137.651V129.835H224.628Z" fill="#77E2C3"/>
<path d="M219.281 137.652C219.332 139.397 217.994 139.308 217.994 139.308C216.944 139.271 216.507 138.613 216.537 137.652L216.005 137.001L214.607 137.178C214.607 137.178 214.148 138.081 214.148 138.169C214.148 138.258 214.747 140.196 214.747 140.196L215.916 141.497L217.521 141.423C217.521 141.438 217.528 141.453 217.528 141.453C217.595 141.482 218.349 141.534 218.349 141.534L220.079 140.987L220.863 140.003L221.277 137.652H219.281Z" fill="#008C95"/>
<path d="M217.451 144.945H205.242V143.082H217.407C222.583 142.823 222.79 138.534 222.776 137.676V137.646C222.776 135.413 220.956 133.594 218.723 133.594C216.49 133.594 214.671 135.413 214.671 137.646H212.807C212.807 134.385 215.462 131.73 218.723 131.73C221.984 131.73 224.639 134.385 224.639 137.646C224.646 138.364 224.528 144.605 217.473 144.945H217.451Z" fill="white"/>
<path d="M217.778 143.027C216.469 143.027 215.256 142.539 214.346 141.652C213.644 140.964 212.801 139.707 212.801 137.644H214.664C214.664 138.768 215.004 139.692 215.648 140.313C216.21 140.861 216.964 141.156 217.778 141.156C219.338 141.156 220.906 140.069 220.906 137.636C220.906 136.431 219.922 135.448 218.717 135.448C217.511 135.448 216.528 136.431 216.528 137.636H214.664C214.664 135.403 216.483 133.584 218.717 133.584C220.95 133.584 222.769 135.403 222.769 137.636C222.769 141.179 220.262 143.027 217.778 143.027Z" fill="#77E2C3"/>
<path d="M217.477 143.08C217.455 143.08 217.432 143.087 217.403 143.087H205.238V144.951H217.447H217.469C217.469 144.951 217.469 144.951 217.477 144.951V143.08Z" fill="#77E2C3"/>
<path d="M222.779 137.682C222.794 138.54 222.586 142.829 217.41 143.088H213.535V144.952H217.454H217.477C224.531 144.611 224.65 138.37 224.642 137.653H222.779V137.682Z" fill="#008C95"/>
<path d="M271.95 122.619H260.555V134.014H271.95V122.619Z" fill="#008C95"/>
<path d="M269.28 134.014H270.611L271.129 134.849H268.77L269.28 134.014Z" fill="#008C95"/>
<path d="M265.592 134.014H266.923L267.434 134.849H265.082L265.592 134.014Z" fill="#008C95"/>
<path d="M261.905 134.014H263.236L263.754 134.849H261.395L261.905 134.014Z" fill="#008C95"/>
<path d="M269.28 134.014H270.611L271.129 134.849H268.77L269.28 134.014Z" fill="#008C95"/>
<path d="M265.592 134.014H266.923L267.434 134.849H265.082L265.592 134.014Z" fill="#008C95"/>
<path d="M261.905 134.014H263.236L263.754 134.849H261.395L261.905 134.014Z" fill="#008C95"/>
<path d="M271.953 125.294V123.963L272.796 123.453V125.805L271.953 125.294Z" fill="#008C95"/>
<path d="M271.953 128.979V127.647L272.796 127.137V129.489L271.953 128.979Z" fill="#008C95"/>
<path d="M271.953 132.668V131.336L272.796 130.819V133.178L271.953 132.668Z" fill="#008C95"/>
<path d="M263.236 122.619H261.905L261.395 121.776H263.754L263.236 122.619Z" fill="#008C95"/>
<path d="M266.916 122.619H265.592L265.074 121.776H267.433L266.916 122.619Z" fill="#008C95"/>
<path d="M270.611 122.619H269.28L268.77 121.776H271.121L270.611 122.619Z" fill="#008C95"/>
<path d="M260.558 131.543V132.875L259.715 133.385V131.033L260.558 131.543Z" fill="#008C95"/>
<path d="M260.558 127.862V129.193L259.715 129.703V127.344L260.558 127.862Z" fill="#008C95"/>
<path d="M260.558 124.171V125.502L259.715 126.02V123.661L260.558 124.171Z" fill="#008C95"/>
<path d="M269.942 134.848H258.547V146.244H269.942V134.848Z" fill="#77E2C3"/>
<path d="M268.767 134.857H267.443L266.926 134.014H269.285L268.767 134.857Z" fill="#77E2C3"/>
<path d="M265.087 134.849H263.756L263.238 134.014H265.597L265.087 134.849Z" fill="#77E2C3"/>
<path d="M261.396 134.849H260.064L259.547 134.014H261.906L261.396 134.849Z" fill="#77E2C3"/>
<path d="M269.941 144.899V143.568L270.784 143.058V145.409L269.941 144.899Z" fill="#77E2C3"/>
<path d="M269.941 141.21V139.879L270.784 139.369V141.72L269.941 141.21Z" fill="#77E2C3"/>
<path d="M269.941 137.519V136.188L270.784 135.678V138.037L269.941 137.519Z" fill="#77E2C3"/>
<path d="M259.893 146.244H261.224L261.734 147.08H259.375L259.893 146.244Z" fill="#77E2C3"/>
<path d="M263.584 146.244H264.915L265.425 147.08H263.066L263.584 146.244Z" fill="#77E2C3"/>
<path d="M267.272 146.244H268.603L269.113 147.08H266.754L267.272 146.244Z" fill="#77E2C3"/>
<path d="M258.55 136.047V137.379L257.715 137.889V135.53L258.55 136.047Z" fill="#77E2C3"/>
<path d="M258.55 139.737V141.061L257.715 141.578V139.219L258.55 139.737Z" fill="#77E2C3"/>
<path d="M258.55 143.421V144.752L257.715 145.27V142.911L258.55 143.421Z" fill="#77E2C3"/>
<path d="M17.2353 147.857H14.0703V136.321L17.2427 133.149H26.8117V136.314H18.5516L17.2353 137.63V147.857Z" fill="#77E2C3"/>
<path d="M12.9541 132.906H0.796875V129.741H11.6452L12.9615 128.432V121H16.1265V129.741L12.9541 132.906Z" fill="#77E2C3"/>
<path d="M17.9764 123.564H11.1953V125.894H17.9764V123.564Z" fill="#77E2C3"/>
<path d="M16.1298 123.564H12.9648V125.894H16.1298V123.564Z" fill="#008C95"/>
<path d="M8.25529 135.302H0.808594V138.09H8.25529V135.302Z" fill="#77E2C3"/>
<path d="M23.3099 131.403H20.9805V138.059H23.3099V131.403Z" fill="#77E2C3"/>
<path d="M23.3099 133.149H20.9805V136.314H23.3099V133.149Z" fill="#008C95"/>
<path d="M26.8121 144.242H6.11384L2.94141 141.07V121H6.10644V139.761L7.42275 141.077H26.8121V144.242Z" fill="#77E2C3"/>
<path d="M6.10644 135.302H2.94141V138.09H6.10644V135.302Z" fill="#008C95"/>
<path d="M118.672 172.688H103.867V191.981H118.672V172.688Z" fill="#77E2C3"/>
<path d="M124.836 177.452H110.031V196.745H124.836V177.452Z" fill="#77E2C3"/>
<path d="M118.676 177.452H110.031V191.983H118.676V177.452Z" fill="#008C95"/>
<path d="M5.80273 97.4541L2.24805 92.0469H3.79297L6.43848 96.3604H8.31152L8.09961 97.4541H5.80273ZM6.51367 97.3516L3.62207 102H1.98145L5.67969 96.2168L6.51367 97.3516ZM8.87891 92.0469V102H7.57324V92.0469H8.87891ZM14.1562 92.0469L10.5879 97.4541H8.35938L8.1543 96.3604H9.95898L12.6045 92.0469H14.1562ZM12.7754 102L9.89062 97.3516L10.7314 96.2168L14.416 102H12.7754ZM16.8428 99.9971L20.2539 94.6035H21.5254V102H20.2539V96.6064L16.8428 102H15.585V94.6035H16.8428V99.9971ZM28.498 94.6035V95.6494H24.9229V94.6035H28.498ZM29.6123 94.6035V102H28.3477V94.6035H29.6123ZM24.6152 94.6035H25.8867L25.6953 98.1719C25.6634 98.7233 25.611 99.2109 25.5381 99.6348C25.4697 100.054 25.374 100.414 25.251 100.715C25.1325 101.016 24.9821 101.262 24.7998 101.453C24.6221 101.64 24.4079 101.779 24.1572 101.87C23.9066 101.957 23.6172 102 23.2891 102H22.8926V100.886L23.166 100.865C23.362 100.852 23.5283 100.806 23.665 100.729C23.8063 100.651 23.9248 100.537 24.0205 100.387C24.1162 100.232 24.1937 100.034 24.2529 99.792C24.3167 99.5505 24.3646 99.2633 24.3965 98.9307C24.4329 98.598 24.4603 98.2106 24.4785 97.7686L24.6152 94.6035ZM33.0166 99.9971L36.4277 94.6035H37.6992V102H36.4277V96.6064L33.0166 102H31.7588V94.6035H33.0166V99.9971ZM50.0107 100.961L49.8877 104.194H48.7598V102H47.7959V100.961H50.0107ZM39.7637 94.6035H41.0283V100.961H43.7354V94.6035H45.0068V100.961H47.707V94.6035H48.9717V102H39.7637V94.6035ZM56.3408 97.8096V98.835H52.4307V97.8096H56.3408ZM52.6973 94.6035V102H51.4326V94.6035H52.6973ZM57.3662 94.6035V102H56.0947V94.6035H57.3662ZM59.0684 98.3838V98.2266C59.0684 97.6934 59.1458 97.1989 59.3008 96.7432C59.4557 96.2829 59.679 95.8841 59.9707 95.5469C60.2624 95.2051 60.6156 94.9408 61.0303 94.7539C61.445 94.5625 61.9098 94.4668 62.4248 94.4668C62.9443 94.4668 63.4115 94.5625 63.8262 94.7539C64.2454 94.9408 64.6009 95.2051 64.8926 95.5469C65.1888 95.8841 65.4144 96.2829 65.5693 96.7432C65.7243 97.1989 65.8018 97.6934 65.8018 98.2266V98.3838C65.8018 98.917 65.7243 99.4115 65.5693 99.8672C65.4144 100.323 65.1888 100.722 64.8926 101.063C64.6009 101.401 64.2477 101.665 63.833 101.856C63.4229 102.043 62.958 102.137 62.4385 102.137C61.9189 102.137 61.4518 102.043 61.0371 101.856C60.6224 101.665 60.2669 101.401 59.9707 101.063C59.679 100.722 59.4557 100.323 59.3008 99.8672C59.1458 99.4115 59.0684 98.917 59.0684 98.3838ZM60.333 98.2266V98.3838C60.333 98.7529 60.3763 99.1016 60.4629 99.4297C60.5495 99.7533 60.6794 100.04 60.8525 100.291C61.0303 100.542 61.2513 100.74 61.5156 100.886C61.7799 101.027 62.0876 101.098 62.4385 101.098C62.7848 101.098 63.0879 101.027 63.3477 100.886C63.612 100.74 63.8307 100.542 64.0039 100.291C64.1771 100.04 64.307 99.7533 64.3936 99.4297C64.4847 99.1016 64.5303 98.7529 64.5303 98.3838V98.2266C64.5303 97.862 64.4847 97.5179 64.3936 97.1943C64.307 96.8662 64.1748 96.5768 63.9971 96.3262C63.8239 96.071 63.6051 95.8704 63.3408 95.7246C63.0811 95.5788 62.7757 95.5059 62.4248 95.5059C62.0785 95.5059 61.7731 95.5788 61.5088 95.7246C61.249 95.8704 61.0303 96.071 60.8525 96.3262C60.6794 96.5768 60.5495 96.8662 60.4629 97.1943C60.3763 97.5179 60.333 97.862 60.333 98.2266ZM70.457 102.137C69.9421 102.137 69.4749 102.05 69.0557 101.877C68.641 101.699 68.2832 101.451 67.9824 101.132C67.6862 100.813 67.4583 100.435 67.2988 99.9971C67.1393 99.5596 67.0596 99.0811 67.0596 98.5615V98.2744C67.0596 97.6729 67.1484 97.1374 67.3262 96.668C67.5039 96.194 67.7454 95.793 68.0508 95.4648C68.3561 95.1367 68.7025 94.8883 69.0898 94.7197C69.4772 94.5511 69.8783 94.4668 70.293 94.4668C70.8216 94.4668 71.2773 94.5579 71.6602 94.7402C72.0475 94.9225 72.3643 95.1777 72.6104 95.5059C72.8564 95.8294 73.0387 96.2122 73.1572 96.6543C73.2757 97.0918 73.335 97.5703 73.335 98.0898V98.6572H67.8115V97.625H72.0703V97.5293C72.0521 97.2012 71.9837 96.8822 71.8652 96.5723C71.7513 96.2624 71.569 96.0072 71.3184 95.8066C71.0677 95.6061 70.7259 95.5059 70.293 95.5059C70.0059 95.5059 69.7415 95.5674 69.5 95.6904C69.2585 95.8089 69.0511 95.9867 68.8779 96.2236C68.7048 96.4606 68.5703 96.75 68.4746 97.0918C68.3789 97.4336 68.3311 97.8278 68.3311 98.2744V98.5615C68.3311 98.9124 68.3789 99.2428 68.4746 99.5527C68.5749 99.8581 68.7184 100.127 68.9053 100.359C69.0967 100.592 69.3268 100.774 69.5957 100.906C69.8691 101.038 70.179 101.104 70.5254 101.104C70.972 101.104 71.3503 101.013 71.6602 100.831C71.9701 100.649 72.2412 100.405 72.4736 100.1L73.2393 100.708C73.0798 100.95 72.877 101.18 72.6309 101.398C72.3848 101.617 72.0817 101.795 71.7217 101.932C71.3662 102.068 70.9447 102.137 70.457 102.137ZM81.2441 101.098C81.5449 101.098 81.8229 101.036 82.0781 100.913C82.3333 100.79 82.543 100.621 82.707 100.407C82.8711 100.188 82.9645 99.9401 82.9873 99.6621H84.1904C84.1676 100.1 84.0195 100.507 83.7461 100.886C83.4772 101.259 83.124 101.562 82.6865 101.795C82.249 102.023 81.7682 102.137 81.2441 102.137C80.6882 102.137 80.2028 102.039 79.7881 101.843C79.3779 101.647 79.0361 101.378 78.7627 101.036C78.4938 100.694 78.291 100.302 78.1543 99.8604C78.0221 99.4137 77.9561 98.9421 77.9561 98.4453V98.1582C77.9561 97.6615 78.0221 97.1921 78.1543 96.75C78.291 96.3034 78.4938 95.9092 78.7627 95.5674C79.0361 95.2256 79.3779 94.9567 79.7881 94.7607C80.2028 94.5648 80.6882 94.4668 81.2441 94.4668C81.8229 94.4668 82.3288 94.5853 82.7617 94.8223C83.1947 95.0547 83.5342 95.3737 83.7803 95.7793C84.0309 96.1803 84.1676 96.6361 84.1904 97.1465H82.9873C82.9645 96.8411 82.8779 96.5654 82.7275 96.3193C82.5817 96.0732 82.3812 95.8773 82.126 95.7314C81.8753 95.5811 81.5814 95.5059 81.2441 95.5059C80.8568 95.5059 80.5309 95.5833 80.2666 95.7383C80.0068 95.8887 79.7995 96.0938 79.6445 96.3535C79.4941 96.6087 79.3848 96.8936 79.3164 97.208C79.2526 97.5179 79.2207 97.8346 79.2207 98.1582V98.4453C79.2207 98.7689 79.2526 99.0879 79.3164 99.4023C79.3802 99.7168 79.4873 100.002 79.6377 100.257C79.7926 100.512 80 100.717 80.2598 100.872C80.5241 101.022 80.8522 101.098 81.2441 101.098ZM88.627 94.6035V102H87.3555V94.6035H88.627ZM91.1084 94.6035V95.6289H84.9219V94.6035H91.1084ZM93.6172 96.0254V104.844H92.3457V94.6035H93.5078L93.6172 96.0254ZM98.6006 98.2402V98.3838C98.6006 98.9215 98.5368 99.4206 98.4092 99.8809C98.2816 100.337 98.0947 100.733 97.8486 101.07C97.6071 101.408 97.3086 101.67 96.9531 101.856C96.5977 102.043 96.1898 102.137 95.7295 102.137C95.2601 102.137 94.8454 102.059 94.4854 101.904C94.1253 101.749 93.82 101.524 93.5693 101.228C93.3187 100.931 93.1182 100.576 92.9678 100.161C92.8219 99.7464 92.7217 99.2793 92.667 98.7598V97.9941C92.7217 97.4473 92.8242 96.9574 92.9746 96.5244C93.125 96.0915 93.3232 95.7223 93.5693 95.417C93.82 95.1071 94.123 94.8724 94.4785 94.7129C94.834 94.5488 95.2441 94.4668 95.709 94.4668C96.1738 94.4668 96.5863 94.5579 96.9463 94.7402C97.3063 94.918 97.6094 95.1732 97.8555 95.5059C98.1016 95.8385 98.2861 96.2373 98.4092 96.7021C98.5368 97.1624 98.6006 97.6751 98.6006 98.2402ZM97.3291 98.3838V98.2402C97.3291 97.8711 97.2904 97.5247 97.2129 97.2012C97.1354 96.873 97.0146 96.5859 96.8506 96.3398C96.6911 96.0892 96.486 95.8932 96.2354 95.752C95.9847 95.6061 95.6862 95.5332 95.3398 95.5332C95.0208 95.5332 94.7428 95.5879 94.5059 95.6973C94.2734 95.8066 94.0752 95.9548 93.9111 96.1416C93.7471 96.3239 93.6126 96.5335 93.5078 96.7705C93.4076 97.0029 93.3324 97.2445 93.2822 97.4951V99.2656C93.3734 99.5846 93.501 99.8854 93.665 100.168C93.8291 100.446 94.0479 100.672 94.3213 100.845C94.5947 101.013 94.9388 101.098 95.3535 101.098C95.6953 101.098 95.9893 101.027 96.2354 100.886C96.486 100.74 96.6911 100.542 96.8506 100.291C97.0146 100.04 97.1354 99.7533 97.2129 99.4297C97.2904 99.1016 97.3291 98.7529 97.3291 98.3838ZM99.8789 98.3838V98.2266C99.8789 97.6934 99.9564 97.1989 100.111 96.7432C100.266 96.2829 100.49 95.8841 100.781 95.5469C101.073 95.2051 101.426 94.9408 101.841 94.7539C102.256 94.5625 102.72 94.4668 103.235 94.4668C103.755 94.4668 104.222 94.5625 104.637 94.7539C105.056 94.9408 105.411 95.2051 105.703 95.5469C105.999 95.8841 106.225 96.2829 106.38 96.7432C106.535 97.1989 106.612 97.6934 106.612 98.2266V98.3838C106.612 98.917 106.535 99.4115 106.38 99.8672C106.225 100.323 105.999 100.722 105.703 101.063C105.411 101.401 105.058 101.665 104.644 101.856C104.233 102.043 103.769 102.137 103.249 102.137C102.729 102.137 102.262 102.043 101.848 101.856C101.433 101.665 101.077 101.401 100.781 101.063C100.49 100.722 100.266 100.323 100.111 99.8672C99.9564 99.4115 99.8789 98.917 99.8789 98.3838ZM101.144 98.2266V98.3838C101.144 98.7529 101.187 99.1016 101.273 99.4297C101.36 99.7533 101.49 100.04 101.663 100.291C101.841 100.542 102.062 100.74 102.326 100.886C102.59 101.027 102.898 101.098 103.249 101.098C103.595 101.098 103.898 101.027 104.158 100.886C104.423 100.74 104.641 100.542 104.814 100.291C104.988 100.04 105.118 99.7533 105.204 99.4297C105.295 99.1016 105.341 98.7529 105.341 98.3838V98.2266C105.341 97.862 105.295 97.5179 105.204 97.1943C105.118 96.8662 104.985 96.5768 104.808 96.3262C104.634 96.071 104.416 95.8704 104.151 95.7246C103.892 95.5788 103.586 95.5059 103.235 95.5059C102.889 95.5059 102.584 95.5788 102.319 95.7246C102.06 95.8704 101.841 96.071 101.663 96.3262C101.49 96.5768 101.36 96.8662 101.273 97.1943C101.187 97.5179 101.144 97.862 101.144 98.2266ZM109.565 99.9971L112.977 94.6035H114.248V102H112.977V96.6064L109.565 102H108.308V94.6035H109.565V99.9971ZM119.293 94.6035V102H118.021V94.6035H119.293ZM121.774 94.6035V95.6289H115.588V94.6035H121.774ZM125.541 102.137C125.026 102.137 124.559 102.05 124.14 101.877C123.725 101.699 123.367 101.451 123.066 101.132C122.77 100.813 122.542 100.435 122.383 99.9971C122.223 99.5596 122.144 99.0811 122.144 98.5615V98.2744C122.144 97.6729 122.232 97.1374 122.41 96.668C122.588 96.194 122.829 95.793 123.135 95.4648C123.44 95.1367 123.786 94.8883 124.174 94.7197C124.561 94.5511 124.962 94.4668 125.377 94.4668C125.906 94.4668 126.361 94.5579 126.744 94.7402C127.132 94.9225 127.448 95.1777 127.694 95.5059C127.94 95.8294 128.123 96.2122 128.241 96.6543C128.36 97.0918 128.419 97.5703 128.419 98.0898V98.6572H122.896V97.625H127.154V97.5293C127.136 97.2012 127.068 96.8822 126.949 96.5723C126.835 96.2624 126.653 96.0072 126.402 95.8066C126.152 95.6061 125.81 95.5059 125.377 95.5059C125.09 95.5059 124.826 95.5674 124.584 95.6904C124.342 95.8089 124.135 95.9867 123.962 96.2236C123.789 96.4606 123.654 96.75 123.559 97.0918C123.463 97.4336 123.415 97.8278 123.415 98.2744V98.5615C123.415 98.9124 123.463 99.2428 123.559 99.5527C123.659 99.8581 123.802 100.127 123.989 100.359C124.181 100.592 124.411 100.774 124.68 100.906C124.953 101.038 125.263 101.104 125.609 101.104C126.056 101.104 126.434 101.013 126.744 100.831C127.054 100.649 127.325 100.405 127.558 100.1L128.323 100.708C128.164 100.95 127.961 101.18 127.715 101.398C127.469 101.617 127.166 101.795 126.806 101.932C126.45 102.068 126.029 102.137 125.541 102.137ZM134.838 94.6035V95.6494H131.263V94.6035H134.838ZM135.952 94.6035V102H134.688V94.6035H135.952ZM130.955 94.6035H132.227L132.035 98.1719C132.003 98.7233 131.951 99.2109 131.878 99.6348C131.81 100.054 131.714 100.414 131.591 100.715C131.472 101.016 131.322 101.262 131.14 101.453C130.962 101.64 130.748 101.779 130.497 101.87C130.246 101.957 129.957 102 129.629 102H129.232V100.886L129.506 100.865C129.702 100.852 129.868 100.806 130.005 100.729C130.146 100.651 130.265 100.537 130.36 100.387C130.456 100.232 130.534 100.034 130.593 99.792C130.657 99.5505 130.704 99.2633 130.736 98.9307C130.773 98.598 130.8 98.2106 130.818 97.7686L130.955 94.6035ZM139.028 97.1465H141.25C141.847 97.1465 142.351 97.2513 142.761 97.4609C143.171 97.666 143.481 97.9508 143.69 98.3154C143.905 98.6755 144.012 99.0856 144.012 99.5459C144.012 99.8877 143.952 100.209 143.834 100.51C143.715 100.806 143.538 101.066 143.301 101.289C143.068 101.512 142.779 101.688 142.433 101.815C142.091 101.938 141.697 102 141.25 102H138.105V94.6035H139.37V100.961H141.25C141.615 100.961 141.906 100.895 142.125 100.763C142.344 100.631 142.501 100.46 142.597 100.25C142.692 100.04 142.74 99.8216 142.74 99.5938C142.74 99.3704 142.692 99.1517 142.597 98.9375C142.501 98.7233 142.344 98.5456 142.125 98.4043C141.906 98.2585 141.615 98.1855 141.25 98.1855H139.028V97.1465ZM148.551 101.098C148.852 101.098 149.13 101.036 149.385 100.913C149.64 100.79 149.85 100.621 150.014 100.407C150.178 100.188 150.271 99.9401 150.294 99.6621H151.497C151.474 100.1 151.326 100.507 151.053 100.886C150.784 101.259 150.431 101.562 149.993 101.795C149.556 102.023 149.075 102.137 148.551 102.137C147.995 102.137 147.509 102.039 147.095 101.843C146.685 101.647 146.343 101.378 146.069 101.036C145.8 100.694 145.598 100.302 145.461 99.8604C145.329 99.4137 145.263 98.9421 145.263 98.4453V98.1582C145.263 97.6615 145.329 97.1921 145.461 96.75C145.598 96.3034 145.8 95.9092 146.069 95.5674C146.343 95.2256 146.685 94.9567 147.095 94.7607C147.509 94.5648 147.995 94.4668 148.551 94.4668C149.13 94.4668 149.635 94.5853 150.068 94.8223C150.501 95.0547 150.841 95.3737 151.087 95.7793C151.338 96.1803 151.474 96.6361 151.497 97.1465H150.294C150.271 96.8411 150.185 96.5654 150.034 96.3193C149.888 96.0732 149.688 95.8773 149.433 95.7314C149.182 95.5811 148.888 95.5059 148.551 95.5059C148.163 95.5059 147.838 95.5833 147.573 95.7383C147.313 95.8887 147.106 96.0938 146.951 96.3535C146.801 96.6087 146.691 96.8936 146.623 97.208C146.559 97.5179 146.527 97.8346 146.527 98.1582V98.4453C146.527 98.7689 146.559 99.0879 146.623 99.4023C146.687 99.7168 146.794 100.002 146.944 100.257C147.099 100.512 147.307 100.717 147.566 100.872C147.831 101.022 148.159 101.098 148.551 101.098ZM155.934 94.6035V102H154.662V94.6035H155.934ZM158.415 94.6035V95.6289H152.229V94.6035H158.415ZM163.132 98.7461H160.705L160.691 97.7344H162.674C163.066 97.7344 163.392 97.6956 163.651 97.6182C163.916 97.5407 164.114 97.4245 164.246 97.2695C164.378 97.1146 164.444 96.9232 164.444 96.6953C164.444 96.5176 164.406 96.3626 164.328 96.2305C164.255 96.0938 164.144 95.9821 163.993 95.8955C163.843 95.8044 163.656 95.7383 163.433 95.6973C163.214 95.6517 162.956 95.6289 162.66 95.6289H161.04V102H159.775V94.6035H162.66C163.13 94.6035 163.551 94.6445 163.925 94.7266C164.303 94.8086 164.624 94.9339 164.889 95.1025C165.158 95.2666 165.363 95.4762 165.504 95.7314C165.645 95.9867 165.716 96.2874 165.716 96.6338C165.716 96.8571 165.67 97.069 165.579 97.2695C165.488 97.4701 165.354 97.6478 165.176 97.8027C164.998 97.9577 164.779 98.0853 164.52 98.1855C164.26 98.2812 163.961 98.3428 163.624 98.3701L163.132 98.7461ZM163.132 102H160.247L160.876 100.975H163.132C163.483 100.975 163.774 100.931 164.007 100.845C164.239 100.754 164.412 100.626 164.526 100.462C164.645 100.293 164.704 100.093 164.704 99.8604C164.704 99.6279 164.645 99.4297 164.526 99.2656C164.412 99.097 164.239 98.9694 164.007 98.8828C163.774 98.7917 163.483 98.7461 163.132 98.7461H161.211L161.225 97.7344H163.624L164.082 98.1172C164.488 98.1491 164.832 98.2493 165.114 98.418C165.397 98.5866 165.611 98.8008 165.757 99.0605C165.903 99.3158 165.976 99.5938 165.976 99.8945C165.976 100.241 165.91 100.546 165.777 100.811C165.65 101.075 165.463 101.296 165.217 101.474C164.971 101.647 164.672 101.779 164.321 101.87C163.97 101.957 163.574 102 163.132 102ZM167.336 98.3838V98.2266C167.336 97.6934 167.413 97.1989 167.568 96.7432C167.723 96.2829 167.947 95.8841 168.238 95.5469C168.53 95.2051 168.883 94.9408 169.298 94.7539C169.713 94.5625 170.177 94.4668 170.692 94.4668C171.212 94.4668 171.679 94.5625 172.094 94.7539C172.513 94.9408 172.868 95.2051 173.16 95.5469C173.456 95.8841 173.682 96.2829 173.837 96.7432C173.992 97.1989 174.069 97.6934 174.069 98.2266V98.3838C174.069 98.917 173.992 99.4115 173.837 99.8672C173.682 100.323 173.456 100.722 173.16 101.063C172.868 101.401 172.515 101.665 172.101 101.856C171.69 102.043 171.226 102.137 170.706 102.137C170.187 102.137 169.719 102.043 169.305 101.856C168.89 101.665 168.535 101.401 168.238 101.063C167.947 100.722 167.723 100.323 167.568 99.8672C167.413 99.4115 167.336 98.917 167.336 98.3838ZM168.601 98.2266V98.3838C168.601 98.7529 168.644 99.1016 168.73 99.4297C168.817 99.7533 168.947 100.04 169.12 100.291C169.298 100.542 169.519 100.74 169.783 100.886C170.048 101.027 170.355 101.098 170.706 101.098C171.052 101.098 171.355 101.027 171.615 100.886C171.88 100.74 172.098 100.542 172.271 100.291C172.445 100.04 172.575 99.7533 172.661 99.4297C172.752 99.1016 172.798 98.7529 172.798 98.3838V98.2266C172.798 97.862 172.752 97.5179 172.661 97.1943C172.575 96.8662 172.442 96.5768 172.265 96.3262C172.091 96.071 171.873 95.8704 171.608 95.7246C171.349 95.5788 171.043 95.5059 170.692 95.5059C170.346 95.5059 170.041 95.5788 169.776 95.7246C169.517 95.8704 169.298 96.071 169.12 96.3262C168.947 96.5768 168.817 96.8662 168.73 97.1943C168.644 97.5179 168.601 97.862 168.601 98.2266Z" fill="#008C95"/>
<path d="M55.6564 312.379H53.0863L51.4062 315.171L52.6874 317.304L51.4062 319.437L53.0863 322.229H55.6256L56.9221 324.385H59.5074L60.781 326.494H64.0875L65.7675 323.71L64.4863 321.577L65.3609 320.119H67.931L69.611 317.327L68.3298 315.194L69.611 313.061L67.931 310.269H65.3916L64.0952 308.113H60.781L59.4845 310.269H56.9221L55.6564 312.379ZM63.3509 320.917H61.5251L60.6429 319.444L61.5404 317.956H63.3356L64.2409 319.46L63.3509 320.917ZM63.328 313.691L64.2332 315.194L63.3586 316.652H61.5328L60.6505 315.179L61.5481 313.691H62.4534H63.328ZM58.5792 315.846H59.4922L60.3743 317.319L59.4768 318.808H58.5715H57.6816L56.7764 317.304L57.651 315.846H58.5792ZM53.8305 313.691H55.6333L56.5385 315.194L55.6639 316.652H53.8381L52.9483 315.171L53.8305 313.691ZM53.8228 320.91L52.9329 319.429L53.8228 317.948H55.6256L56.5308 319.452L55.6564 320.91H53.8228ZM57.6663 323.073L56.7764 321.592L57.6663 320.112H58.5792H59.4922L60.3743 321.585L59.4768 323.073H57.6663ZM63.3509 325.183H61.5251L60.6429 323.71L61.5404 322.221H63.3586L64.2486 323.702L63.3509 325.183ZM67.1868 318.808H65.3839L64.4787 317.304L65.3532 315.846H66.2662H67.1791L68.069 317.327L67.1868 318.808ZM67.1944 311.581L68.0844 313.061L67.1944 314.542H66.2816H65.3916L64.4863 313.038L65.3609 311.581H67.1944ZM63.3586 309.425L64.2486 310.906L63.3586 312.386H62.4457H61.5328L60.6429 310.906L61.5328 309.425H63.3586ZM59.4998 311.581L60.382 313.054L59.4845 314.542H58.5792H57.6893L56.7841 313.038L57.6586 311.581H59.4998Z" fill="#77E2C3"/>
<path d="M60.4163 307.185C63.6537 303.947 68.9088 303.948 72.1462 307.193C75.3837 310.43 75.3837 315.685 72.1386 318.923C68.9011 322.16 63.646 322.16 60.4086 318.915C57.1712 315.677 57.1789 310.422 60.4163 307.185Z" fill="#77E2C3"/>
<path d="M68.1166 318.01C69.72 316.407 72.3129 316.407 73.9163 318.01C75.5197 319.614 75.512 322.207 73.9163 323.81C72.3129 325.413 69.72 325.406 68.1166 323.81C66.5132 322.207 66.5132 319.614 68.1166 318.01Z" fill="#77E2C3"/>
<path d="M75.5487 315.34C76.2698 314.619 77.4359 314.619 78.157 315.34C78.8782 316.061 78.8782 317.235 78.157 317.949C77.4359 318.67 76.2698 318.67 75.5487 317.949C74.8275 317.227 74.8275 316.061 75.5487 315.34Z" fill="#77E2C3"/>
<path d="M67.9409 310.269H65.4016L64.105 308.113H60.7986L59.5021 310.269H58.4818C58.3283 310.699 58.2133 311.136 58.1366 311.581H59.5097L60.392 313.054L59.4945 314.542H58.5892H58.1289C58.2056 314.987 58.3283 315.424 58.4741 315.854H58.5815H59.4945L60.3766 317.327L59.8166 318.255C60.0007 318.485 60.2002 318.708 60.415 318.923C60.5301 319.038 60.6451 319.145 60.7602 319.245L61.5351 317.964H63.3226L64.2278 319.467L63.3993 320.84C63.8289 321.002 64.2662 321.124 64.7111 321.209L65.3632 320.127H67.9333L69.6133 317.335L68.3321 315.202L69.6133 313.069L67.9409 310.269ZM63.3532 316.644H61.5274L60.6452 315.171L61.5427 313.683H62.448H63.3379L64.2432 315.187L63.3532 316.644ZM63.3532 312.379H62.4404H61.5274L60.6375 310.898L61.5274 309.417H63.3532L64.2432 310.898L63.3532 312.379ZM67.1891 318.808H65.3939L64.4886 317.304L65.3632 315.846H66.2762H67.1891L68.079 317.327L67.1891 318.808ZM67.1967 314.542H66.2839H65.4016L64.4963 313.038L65.3709 311.581H67.1967L68.0867 313.061L67.1967 314.542Z" fill="#008C95"/>
<path d="M106.906 325.16L114.563 309.38H122.986L131.425 325.16H106.906Z" fill="#77E2C3"/>
<path d="M120.024 309.38H117.914V310.738H120.024V309.38Z" fill="white"/>
<path d="M120.024 321.309H117.914V318.333H120.024V321.309ZM120.024 315.663H117.914V312.687H120.024V315.663Z" fill="white"/>
<path d="M120.024 323.803H117.914V325.161H120.024V323.803Z" fill="white"/>
<path d="M109.267 313.975L106.912 312.096L104.557 313.975L103.613 312.802L106.912 310.163L110.203 312.802L109.267 313.975Z" fill="#77E2C3"/>
<path d="M110.237 318.302L106.907 315.624L103.44 318.409L102.496 317.235L106.907 313.691L110.912 316.905L110.237 318.302Z" fill="#77E2C3"/>
<path d="M110.375 322.513L106.907 319.728L103.44 322.513L102.496 321.339L106.907 317.795L111.318 321.339L110.375 322.513Z" fill="#77E2C3"/>
<path d="M107.668 311.059H106.156V323.41H107.668V311.059Z" fill="#77E2C3"/>
<path d="M106.156 320.334L106.908 319.728L107.66 320.334V318.401L106.908 317.795L106.156 318.401V320.334Z" fill="#008C95"/>
<path d="M106.156 316.23L106.908 315.624L107.66 316.23V314.297L106.908 313.691L106.156 314.297V316.23Z" fill="#008C95"/>
<path d="M106.156 312.703L106.908 312.096L107.66 312.703V310.769L106.908 310.171L106.156 310.769V312.703Z" fill="#008C95"/>
<path d="M125.178 309.91L127.533 308.023L129.888 309.91L130.832 308.729L127.533 306.098L124.234 308.729L125.178 309.91Z" fill="#77E2C3"/>
<path d="M125.17 313.453L127.533 311.558L131.001 314.343L131.944 313.169L127.533 309.617L124.449 312.103L125.17 313.453Z" fill="#77E2C3"/>
<path d="M128.289 306.986H126.777V316.384H128.289V306.986Z" fill="#77E2C3"/>
<path d="M128.281 312.164L127.529 311.558L126.777 312.164V310.223L127.529 309.625L128.281 310.223V312.164Z" fill="#008C95"/>
<path d="M128.281 308.629L127.529 308.023L126.777 308.629V306.696L127.529 306.098L128.281 306.696V308.629Z" fill="#008C95"/>
<path d="M6.64844 367.845L10.3845 371.573L14.5732 375.762L16.1689 377.365L24.9683 368.566L15.4478 359.045L6.64844 367.845Z" fill="#77E2C3"/>
<path d="M14.9859 356.924L4.52734 367.383L5.95942 368.815L16.418 358.356L14.9859 356.924Z" fill="#77E2C3"/>
<path d="M15.4991 363.622L8.95703 370.164L13.6982 374.905L20.2402 368.363L15.4991 363.622Z" fill="#008C95"/>
<path d="M6.58034 374.19L4.34796 368.552L2.02344 373.907C2.20756 375.011 3.15882 375.855 4.30957 375.871C5.3836 375.871 6.28882 375.165 6.58034 374.19Z" fill="#77E2C3"/>
<path d="M5.35378 377.021L3.12131 371.382L0.796875 376.737C0.980994 377.841 1.93226 378.685 3.08301 378.701C4.15704 378.708 5.06226 377.995 5.35378 377.021Z" fill="#77E2C3"/>
<path d="M4.31725 375.862C4.50904 375.862 4.69314 375.839 4.86958 375.801L3.12043 371.382L2.02344 373.906C2.20756 375.011 3.15883 375.854 4.31725 375.862Z" fill="#008C95"/>
<path d="M20.3509 318.754C20.3509 322.781 17.0061 326.042 12.8865 326.042C8.76679 326.042 5.42188 322.774 5.42188 318.754C5.42188 314.734 8.75911 314.166 12.8865 314.166C17.0061 314.166 20.3509 314.726 20.3509 318.754Z" fill="#008C95"/>
<path d="M20.3509 318.755H5.42188L5.62902 311.751H20.1668L20.3509 318.755Z" fill="#008C95"/>
<path d="M13.039 322.398H13.0083C12.3178 322.398 11.7578 321.838 11.7578 321.148V316.43H14.2895V321.148C14.2895 321.838 13.7295 322.398 13.039 322.398Z" fill="#008C95"/>
<path d="M15.9078 323.556H15.8694C14.9948 323.556 14.2891 322.85 14.2891 321.976V313.146H17.4882V321.976C17.4882 322.85 16.7823 323.556 15.9078 323.556Z" fill="#77E2C3"/>
<path d="M12.8865 305.208C8.76679 305.208 5.42188 308.468 5.42188 312.496C5.42188 316.523 8.75911 319.784 12.8865 319.784C17.0061 319.784 20.3509 316.523 20.3509 312.496C20.3509 308.468 17.0061 305.208 12.8865 305.208Z" fill="#77E2C3"/>
<path d="M13.039 322.398H13.0083C12.3178 322.398 11.7578 321.838 11.7578 321.148V316.43H14.2895V321.148C14.2895 321.838 13.7295 322.398 13.039 322.398Z" fill="#77E2C3"/>
<path d="M17.4882 313.646C17.0816 315.204 15.8541 316.454 14.2891 316.93V319.653C15.4782 319.431 16.5676 318.932 17.4882 318.234V313.646Z" fill="white"/>
<path d="M14.2895 319.658V316.935C13.8445 317.073 13.3766 317.142 12.8856 317.142C12.4944 317.142 12.1184 317.096 11.7578 317.012V319.712C12.1261 319.766 12.502 319.797 12.8856 319.797C13.3689 319.789 13.8369 319.743 14.2895 319.658Z" fill="white"/>
<path d="M12.8894 307.86C15.5054 307.86 17.6381 309.939 17.6381 312.501C17.6381 315.056 15.5054 317.143 12.8894 317.143C10.2734 317.143 8.14062 315.064 8.14062 312.501C8.14062 309.939 10.2734 307.86 12.8894 307.86Z" fill="#008C95"/>
<path d="M176.613 304.954H162.152V326.304H176.613V304.954Z" fill="#77E2C3"/>
<path d="M177.797 308.076H160.98V310.408H177.797V308.076Z" fill="#77E2C3"/>
<path d="M176.613 308.076H162.152V310.408H176.613V308.076Z" fill="#008C95"/>
<path d="M177.797 320.833H160.98V323.166H177.797V320.833Z" fill="#77E2C3"/>
<path d="M176.613 320.833H162.152V323.166H176.613V320.833Z" fill="#008C95"/>
<path d="M171.99 316.837C171.99 318.272 170.824 319.438 169.39 319.438C167.955 319.438 166.789 318.272 166.789 316.837C166.789 315.403 169.39 311.797 169.39 311.797C169.39 311.797 171.99 315.395 171.99 316.837Z" fill="#008C95"/>
<path d="M129.035 378.171C121.839 378.171 118.54 376.506 115.625 375.033C112.978 373.698 110.684 372.54 105.536 372.778L105.398 369.786C111.329 369.517 114.198 370.96 116.975 372.364C119.721 373.752 122.56 375.179 129.035 375.179V378.171Z" fill="#008C95"/>
<path d="M129.032 370.337C121.782 370.337 118.975 368.772 116.504 367.384C114.257 366.126 112.139 364.944 105.465 364.944V359.758C113.489 359.758 116.435 361.408 119.036 362.858C121.238 364.085 123.133 365.151 129.032 365.151V370.337Z" fill="#008C95"/>
<path d="M129.017 365.459C122.55 365.397 120.087 364.04 117.701 362.72C115.223 361.355 112.883 360.066 105.465 360.066V357.473C113.551 357.473 116.297 358.984 118.952 360.449C121.153 361.661 123.232 362.804 129.047 362.866L129.017 365.459Z" fill="#77E2C3"/>
<path d="M127.392 411.797H107.047V415.096H127.392V411.797Z" fill="#77E2C3"/>
<path d="M127.392 424.852H107.047V428.15H127.392V424.852Z" fill="#008C95"/>
<path d="M127.392 415.088H107.047V420.719H127.392V415.088Z" fill="#008C95"/>
<path d="M9.7793 284.685V285.758H2.24609V284.685H9.7793ZM2.45801 284.685V288.205H1.15234L1.14551 284.685H2.45801ZM10.9277 284.685L10.9141 288.198H9.6084V284.685H10.9277ZM8.4873 275.805V276.885H4.12598V275.805H8.4873ZM9.62207 275.805V285.758H8.30957V275.805H9.62207ZM3.6748 275.805H4.99414L4.78906 279.811C4.76172 280.412 4.70475 280.968 4.61816 281.479C4.53158 281.984 4.42448 282.447 4.29688 282.866C4.16927 283.285 4.02344 283.661 3.85938 283.994C3.69531 284.322 3.51986 284.607 3.33301 284.849C3.14616 285.086 2.9502 285.282 2.74512 285.437C2.5446 285.587 2.3418 285.694 2.13672 285.758H1.53516V284.685H1.95898C2.07747 284.557 2.21191 284.372 2.3623 284.131C2.51725 283.889 2.66992 283.577 2.82031 283.194C2.97526 282.807 3.1097 282.335 3.22363 281.779C3.34212 281.223 3.42188 280.567 3.46289 279.811L3.6748 275.805ZM11.9531 282.142V281.984C11.9531 281.451 12.0306 280.957 12.1855 280.501C12.3405 280.041 12.5638 279.642 12.8555 279.305C13.1471 278.963 13.5003 278.699 13.915 278.512C14.3298 278.32 14.7946 278.225 15.3096 278.225C15.8291 278.225 16.2962 278.32 16.7109 278.512C17.1302 278.699 17.4857 278.963 17.7773 279.305C18.0736 279.642 18.2992 280.041 18.4541 280.501C18.609 280.957 18.6865 281.451 18.6865 281.984V282.142C18.6865 282.675 18.609 283.169 18.4541 283.625C18.2992 284.081 18.0736 284.479 17.7773 284.821C17.4857 285.159 17.1325 285.423 16.7178 285.614C16.3076 285.801 15.8428 285.895 15.3232 285.895C14.8037 285.895 14.3366 285.801 13.9219 285.614C13.5072 285.423 13.1517 285.159 12.8555 284.821C12.5638 284.479 12.3405 284.081 12.1855 283.625C12.0306 283.169 11.9531 282.675 11.9531 282.142ZM13.2178 281.984V282.142C13.2178 282.511 13.2611 282.859 13.3477 283.188C13.4342 283.511 13.5641 283.798 13.7373 284.049C13.915 284.299 14.1361 284.498 14.4004 284.644C14.6647 284.785 14.9723 284.855 15.3232 284.855C15.6696 284.855 15.9727 284.785 16.2324 284.644C16.4967 284.498 16.7155 284.299 16.8887 284.049C17.0618 283.798 17.1917 283.511 17.2783 283.188C17.3695 282.859 17.415 282.511 17.415 282.142V281.984C17.415 281.62 17.3695 281.276 17.2783 280.952C17.1917 280.624 17.0596 280.335 16.8818 280.084C16.7087 279.829 16.4899 279.628 16.2256 279.482C15.9658 279.337 15.6605 279.264 15.3096 279.264C14.9632 279.264 14.6579 279.337 14.3936 279.482C14.1338 279.628 13.915 279.829 13.7373 280.084C13.5641 280.335 13.4342 280.624 13.3477 280.952C13.2611 281.276 13.2178 281.62 13.2178 281.984ZM21.5371 279.783V288.602H20.2656V278.361H21.4277L21.5371 279.783ZM26.5205 281.998V282.142C26.5205 282.679 26.4567 283.178 26.3291 283.639C26.2015 284.094 26.0146 284.491 25.7686 284.828C25.527 285.165 25.2285 285.427 24.873 285.614C24.5176 285.801 24.1097 285.895 23.6494 285.895C23.18 285.895 22.7653 285.817 22.4053 285.662C22.0452 285.507 21.7399 285.282 21.4893 284.985C21.2386 284.689 21.0381 284.334 20.8877 283.919C20.7419 283.504 20.6416 283.037 20.5869 282.518V281.752C20.6416 281.205 20.7441 280.715 20.8945 280.282C21.0449 279.849 21.2432 279.48 21.4893 279.175C21.7399 278.865 22.043 278.63 22.3984 278.471C22.7539 278.307 23.1641 278.225 23.6289 278.225C24.0938 278.225 24.5062 278.316 24.8662 278.498C25.2262 278.676 25.5293 278.931 25.7754 279.264C26.0215 279.596 26.2061 279.995 26.3291 280.46C26.4567 280.92 26.5205 281.433 26.5205 281.998ZM25.249 282.142V281.998C25.249 281.629 25.2103 281.283 25.1328 280.959C25.0553 280.631 24.9346 280.344 24.7705 280.098C24.611 279.847 24.4059 279.651 24.1553 279.51C23.9046 279.364 23.6061 279.291 23.2598 279.291C22.9408 279.291 22.6628 279.346 22.4258 279.455C22.1934 279.564 21.9951 279.713 21.8311 279.899C21.667 280.082 21.5326 280.291 21.4277 280.528C21.3275 280.761 21.2523 281.002 21.2021 281.253V283.023C21.2933 283.342 21.4209 283.643 21.585 283.926C21.749 284.204 21.9678 284.429 22.2412 284.603C22.5146 284.771 22.8587 284.855 23.2734 284.855C23.6152 284.855 23.9092 284.785 24.1553 284.644C24.4059 284.498 24.611 284.299 24.7705 284.049C24.9346 283.798 25.0553 283.511 25.1328 283.188C25.2103 282.859 25.249 282.511 25.249 282.142ZM27.7988 282.142V281.984C27.7988 281.451 27.8763 280.957 28.0312 280.501C28.1862 280.041 28.4095 279.642 28.7012 279.305C28.9928 278.963 29.346 278.699 29.7607 278.512C30.1755 278.32 30.6403 278.225 31.1553 278.225C31.6748 278.225 32.1419 278.32 32.5566 278.512C32.9759 278.699 33.3314 278.963 33.623 279.305C33.9193 279.642 34.1449 280.041 34.2998 280.501C34.4548 280.957 34.5322 281.451 34.5322 281.984V282.142C34.5322 282.675 34.4548 283.169 34.2998 283.625C34.1449 284.081 33.9193 284.479 33.623 284.821C33.3314 285.159 32.9782 285.423 32.5635 285.614C32.1533 285.801 31.6885 285.895 31.1689 285.895C30.6494 285.895 30.1823 285.801 29.7676 285.614C29.3529 285.423 28.9974 285.159 28.7012 284.821C28.4095 284.479 28.1862 284.081 28.0312 283.625C27.8763 283.169 27.7988 282.675 27.7988 282.142ZM29.0635 281.984V282.142C29.0635 282.511 29.1068 282.859 29.1934 283.188C29.2799 283.511 29.4098 283.798 29.583 284.049C29.7607 284.299 29.9818 284.498 30.2461 284.644C30.5104 284.785 30.818 284.855 31.1689 284.855C31.5153 284.855 31.8184 284.785 32.0781 284.644C32.3424 284.498 32.5612 284.299 32.7344 284.049C32.9076 283.798 33.0374 283.511 33.124 283.188C33.2152 282.859 33.2607 282.511 33.2607 282.142V281.984C33.2607 281.62 33.2152 281.276 33.124 280.952C33.0374 280.624 32.9053 280.335 32.7275 280.084C32.5544 279.829 32.3356 279.628 32.0713 279.482C31.8115 279.337 31.5062 279.264 31.1553 279.264C30.8089 279.264 30.5036 279.337 30.2393 279.482C29.9795 279.628 29.7607 279.829 29.583 280.084C29.4098 280.335 29.2799 280.624 29.1934 280.952C29.1068 281.276 29.0635 281.62 29.0635 281.984ZM38.21 282.538L35.4072 278.361H36.9316L38.8457 281.424H40.3223L40.1377 282.538H38.21ZM38.9004 282.408L36.7539 285.758H35.1543L38.1006 281.492L38.9004 282.408ZM40.9717 278.361V285.758H39.707V278.361H40.9717ZM45.2852 278.361L42.4824 282.538H40.5547L40.3564 281.424H41.8398L43.7539 278.361H45.2852ZM43.9316 285.758L41.7783 282.408L42.5918 281.492L45.5312 285.758H43.9316ZM51.7178 281.567V282.593H47.8076V281.567H51.7178ZM48.0742 278.361V285.758H46.8096V278.361H48.0742ZM52.7432 278.361V285.758H51.4717V278.361H52.7432ZM54.4453 282.142V281.984C54.4453 281.451 54.5228 280.957 54.6777 280.501C54.8327 280.041 55.056 279.642 55.3477 279.305C55.6393 278.963 55.9925 278.699 56.4072 278.512C56.8219 278.32 57.2868 278.225 57.8018 278.225C58.3213 278.225 58.7884 278.32 59.2031 278.512C59.6224 278.699 59.9779 278.963 60.2695 279.305C60.5658 279.642 60.7913 280.041 60.9463 280.501C61.1012 280.957 61.1787 281.451 61.1787 281.984V282.142C61.1787 282.675 61.1012 283.169 60.9463 283.625C60.7913 284.081 60.5658 284.479 60.2695 284.821C59.9779 285.159 59.6247 285.423 59.21 285.614C58.7998 285.801 58.335 285.895 57.8154 285.895C57.2959 285.895 56.8288 285.801 56.4141 285.614C55.9993 285.423 55.6439 285.159 55.3477 284.821C55.056 284.479 54.8327 284.081 54.6777 283.625C54.5228 283.169 54.4453 282.675 54.4453 282.142ZM55.71 281.984V282.142C55.71 282.511 55.7533 282.859 55.8398 283.188C55.9264 283.511 56.0563 283.798 56.2295 284.049C56.4072 284.299 56.6283 284.498 56.8926 284.644C57.1569 284.785 57.4645 284.855 57.8154 284.855C58.1618 284.855 58.4648 284.785 58.7246 284.644C58.9889 284.498 59.2077 284.299 59.3809 284.049C59.554 283.798 59.6839 283.511 59.7705 283.188C59.8617 282.859 59.9072 282.511 59.9072 282.142V281.984C59.9072 281.62 59.8617 281.276 59.7705 280.952C59.6839 280.624 59.5518 280.335 59.374 280.084C59.2008 279.829 58.9821 279.628 58.7178 279.482C58.458 279.337 58.1527 279.264 57.8018 279.264C57.4554 279.264 57.1501 279.337 56.8857 279.482C56.626 279.628 56.4072 279.829 56.2295 280.084C56.0563 280.335 55.9264 280.624 55.8398 280.952C55.7533 281.276 55.71 281.62 55.71 281.984ZM65.834 285.895C65.319 285.895 64.8519 285.808 64.4326 285.635C64.0179 285.457 63.6602 285.209 63.3594 284.89C63.0632 284.571 62.8353 284.192 62.6758 283.755C62.5163 283.317 62.4365 282.839 62.4365 282.319V282.032C62.4365 281.431 62.5254 280.895 62.7031 280.426C62.8809 279.952 63.1224 279.551 63.4277 279.223C63.7331 278.895 64.0794 278.646 64.4668 278.478C64.8542 278.309 65.2552 278.225 65.6699 278.225C66.1986 278.225 66.6543 278.316 67.0371 278.498C67.4245 278.68 67.7412 278.936 67.9873 279.264C68.2334 279.587 68.4157 279.97 68.5342 280.412C68.6527 280.85 68.7119 281.328 68.7119 281.848V282.415H63.1885V281.383H67.4473V281.287C67.429 280.959 67.3607 280.64 67.2422 280.33C67.1283 280.02 66.946 279.765 66.6953 279.564C66.4447 279.364 66.1029 279.264 65.6699 279.264C65.3828 279.264 65.1185 279.325 64.877 279.448C64.6354 279.567 64.4281 279.744 64.2549 279.981C64.0817 280.218 63.9473 280.508 63.8516 280.85C63.7559 281.191 63.708 281.586 63.708 282.032V282.319C63.708 282.67 63.7559 283.001 63.8516 283.311C63.9518 283.616 64.0954 283.885 64.2822 284.117C64.4736 284.35 64.7038 284.532 64.9727 284.664C65.2461 284.796 65.556 284.862 65.9023 284.862C66.349 284.862 66.7272 284.771 67.0371 284.589C67.347 284.407 67.6182 284.163 67.8506 283.857L68.6162 284.466C68.4567 284.707 68.2539 284.938 68.0078 285.156C67.7617 285.375 67.4587 285.553 67.0986 285.689C66.7432 285.826 66.3216 285.895 65.834 285.895ZM76.6211 284.855C76.9219 284.855 77.1999 284.794 77.4551 284.671C77.7103 284.548 77.9199 284.379 78.084 284.165C78.248 283.946 78.3415 283.698 78.3643 283.42H79.5674C79.5446 283.857 79.3965 284.265 79.123 284.644C78.8542 285.017 78.501 285.32 78.0635 285.553C77.626 285.781 77.1452 285.895 76.6211 285.895C76.0651 285.895 75.5798 285.797 75.165 285.601C74.7549 285.405 74.4131 285.136 74.1396 284.794C73.8708 284.452 73.668 284.06 73.5312 283.618C73.3991 283.172 73.333 282.7 73.333 282.203V281.916C73.333 281.419 73.3991 280.95 73.5312 280.508C73.668 280.061 73.8708 279.667 74.1396 279.325C74.4131 278.983 74.7549 278.715 75.165 278.519C75.5798 278.323 76.0651 278.225 76.6211 278.225C77.1999 278.225 77.7057 278.343 78.1387 278.58C78.5716 278.812 78.9111 279.132 79.1572 279.537C79.4079 279.938 79.5446 280.394 79.5674 280.904H78.3643C78.3415 280.599 78.2549 280.323 78.1045 280.077C77.9587 279.831 77.7581 279.635 77.5029 279.489C77.2523 279.339 76.9583 279.264 76.6211 279.264C76.2337 279.264 75.9079 279.341 75.6436 279.496C75.3838 279.646 75.1764 279.852 75.0215 280.111C74.8711 280.367 74.7617 280.651 74.6934 280.966C74.6296 281.276 74.5977 281.592 74.5977 281.916V282.203C74.5977 282.527 74.6296 282.846 74.6934 283.16C74.7572 283.475 74.8643 283.759 75.0146 284.015C75.1696 284.27 75.377 284.475 75.6367 284.63C75.901 284.78 76.2292 284.855 76.6211 284.855ZM84.0039 278.361V285.758H82.7324V278.361H84.0039ZM86.4854 278.361V279.387H80.2988V278.361H86.4854ZM88.9941 279.783V288.602H87.7227V278.361H88.8848L88.9941 279.783ZM93.9775 281.998V282.142C93.9775 282.679 93.9137 283.178 93.7861 283.639C93.6585 284.094 93.4717 284.491 93.2256 284.828C92.984 285.165 92.6855 285.427 92.3301 285.614C91.9746 285.801 91.5667 285.895 91.1064 285.895C90.637 285.895 90.2223 285.817 89.8623 285.662C89.5023 285.507 89.1969 285.282 88.9463 284.985C88.6956 284.689 88.4951 284.334 88.3447 283.919C88.1989 283.504 88.0986 283.037 88.0439 282.518V281.752C88.0986 281.205 88.2012 280.715 88.3516 280.282C88.502 279.849 88.7002 279.48 88.9463 279.175C89.1969 278.865 89.5 278.63 89.8555 278.471C90.2109 278.307 90.6211 278.225 91.0859 278.225C91.5508 278.225 91.9632 278.316 92.3232 278.498C92.6833 278.676 92.9863 278.931 93.2324 279.264C93.4785 279.596 93.6631 279.995 93.7861 280.46C93.9137 280.92 93.9775 281.433 93.9775 281.998ZM92.7061 282.142V281.998C92.7061 281.629 92.6673 281.283 92.5898 280.959C92.5124 280.631 92.3916 280.344 92.2275 280.098C92.068 279.847 91.863 279.651 91.6123 279.51C91.3617 279.364 91.0632 279.291 90.7168 279.291C90.3978 279.291 90.1198 279.346 89.8828 279.455C89.6504 279.564 89.4521 279.713 89.2881 279.899C89.124 280.082 88.9896 280.291 88.8848 280.528C88.7845 280.761 88.7093 281.002 88.6592 281.253V283.023C88.7503 283.342 88.8779 283.643 89.042 283.926C89.2061 284.204 89.4248 284.429 89.6982 284.603C89.9717 284.771 90.3158 284.855 90.7305 284.855C91.0723 284.855 91.3662 284.785 91.6123 284.644C91.863 284.498 92.068 284.299 92.2275 284.049C92.3916 283.798 92.5124 283.511 92.5898 283.188C92.6673 282.859 92.7061 282.511 92.7061 282.142ZM95.2559 282.142V281.984C95.2559 281.451 95.3333 280.957 95.4883 280.501C95.6432 280.041 95.8665 279.642 96.1582 279.305C96.4499 278.963 96.8031 278.699 97.2178 278.512C97.6325 278.32 98.0973 278.225 98.6123 278.225C99.1318 278.225 99.599 278.32 100.014 278.512C100.433 278.699 100.788 278.963 101.08 279.305C101.376 279.642 101.602 280.041 101.757 280.501C101.912 280.957 101.989 281.451 101.989 281.984V282.142C101.989 282.675 101.912 283.169 101.757 283.625C101.602 284.081 101.376 284.479 101.08 284.821C100.788 285.159 100.435 285.423 100.021 285.614C99.6104 285.801 99.1455 285.895 98.626 285.895C98.1064 285.895 97.6393 285.801 97.2246 285.614C96.8099 285.423 96.4544 285.159 96.1582 284.821C95.8665 284.479 95.6432 284.081 95.4883 283.625C95.3333 283.169 95.2559 282.675 95.2559 282.142ZM96.5205 281.984V282.142C96.5205 282.511 96.5638 282.859 96.6504 283.188C96.737 283.511 96.8669 283.798 97.04 284.049C97.2178 284.299 97.4388 284.498 97.7031 284.644C97.9674 284.785 98.2751 284.855 98.626 284.855C98.9723 284.855 99.2754 284.785 99.5352 284.644C99.7995 284.498 100.018 284.299 100.191 284.049C100.365 283.798 100.494 283.511 100.581 283.188C100.672 282.859 100.718 282.511 100.718 282.142V281.984C100.718 281.62 100.672 281.276 100.581 280.952C100.494 280.624 100.362 280.335 100.185 280.084C100.011 279.829 99.7926 279.628 99.5283 279.482C99.2686 279.337 98.9632 279.264 98.6123 279.264C98.266 279.264 97.9606 279.337 97.6963 279.482C97.4365 279.628 97.2178 279.829 97.04 280.084C96.8669 280.335 96.737 280.624 96.6504 280.952C96.5638 281.276 96.5205 281.62 96.5205 281.984ZM104.942 283.755L108.354 278.361H109.625V285.758H108.354V280.364L104.942 285.758H103.685V278.361H104.942V283.755ZM114.67 278.361V285.758H113.398V278.361H114.67ZM117.151 278.361V279.387H110.965V278.361H117.151ZM120.918 285.895C120.403 285.895 119.936 285.808 119.517 285.635C119.102 285.457 118.744 285.209 118.443 284.89C118.147 284.571 117.919 284.192 117.76 283.755C117.6 283.317 117.521 282.839 117.521 282.319V282.032C117.521 281.431 117.609 280.895 117.787 280.426C117.965 279.952 118.206 279.551 118.512 279.223C118.817 278.895 119.163 278.646 119.551 278.478C119.938 278.309 120.339 278.225 120.754 278.225C121.283 278.225 121.738 278.316 122.121 278.498C122.508 278.68 122.825 278.936 123.071 279.264C123.317 279.587 123.5 279.97 123.618 280.412C123.737 280.85 123.796 281.328 123.796 281.848V282.415H118.272V281.383H122.531V281.287C122.513 280.959 122.445 280.64 122.326 280.33C122.212 280.02 122.03 279.765 121.779 279.564C121.529 279.364 121.187 279.264 120.754 279.264C120.467 279.264 120.202 279.325 119.961 279.448C119.719 279.567 119.512 279.744 119.339 279.981C119.166 280.218 119.031 280.508 118.936 280.85C118.84 281.191 118.792 281.586 118.792 282.032V282.319C118.792 282.67 118.84 283.001 118.936 283.311C119.036 283.616 119.179 283.885 119.366 284.117C119.558 284.35 119.788 284.532 120.057 284.664C120.33 284.796 120.64 284.862 120.986 284.862C121.433 284.862 121.811 284.771 122.121 284.589C122.431 284.407 122.702 284.163 122.935 283.857L123.7 284.466C123.541 284.707 123.338 284.938 123.092 285.156C122.846 285.375 122.543 285.553 122.183 285.689C121.827 285.826 121.406 285.895 120.918 285.895ZM130.215 278.361V279.407H126.64V278.361H130.215ZM131.329 278.361V285.758H130.064V278.361H131.329ZM126.332 278.361H127.604L127.412 281.93C127.38 282.481 127.328 282.969 127.255 283.393C127.187 283.812 127.091 284.172 126.968 284.473C126.849 284.773 126.699 285.02 126.517 285.211C126.339 285.398 126.125 285.537 125.874 285.628C125.623 285.715 125.334 285.758 125.006 285.758H124.609V284.644L124.883 284.623C125.079 284.609 125.245 284.564 125.382 284.486C125.523 284.409 125.642 284.295 125.737 284.145C125.833 283.99 125.91 283.791 125.97 283.55C126.034 283.308 126.081 283.021 126.113 282.688C126.15 282.356 126.177 281.968 126.195 281.526L126.332 278.361ZM134.405 280.904H136.627C137.224 280.904 137.728 281.009 138.138 281.219C138.548 281.424 138.858 281.709 139.067 282.073C139.282 282.433 139.389 282.843 139.389 283.304C139.389 283.646 139.329 283.967 139.211 284.268C139.092 284.564 138.915 284.824 138.678 285.047C138.445 285.27 138.156 285.446 137.81 285.573C137.468 285.696 137.074 285.758 136.627 285.758H133.482V278.361H134.747V284.719H136.627C136.992 284.719 137.283 284.653 137.502 284.521C137.721 284.388 137.878 284.217 137.974 284.008C138.069 283.798 138.117 283.579 138.117 283.352C138.117 283.128 138.069 282.91 137.974 282.695C137.878 282.481 137.721 282.303 137.502 282.162C137.283 282.016 136.992 281.943 136.627 281.943H134.405V280.904ZM143.928 284.855C144.229 284.855 144.507 284.794 144.762 284.671C145.017 284.548 145.227 284.379 145.391 284.165C145.555 283.946 145.648 283.698 145.671 283.42H146.874C146.851 283.857 146.703 284.265 146.43 284.644C146.161 285.017 145.808 285.32 145.37 285.553C144.933 285.781 144.452 285.895 143.928 285.895C143.372 285.895 142.886 285.797 142.472 285.601C142.062 285.405 141.72 285.136 141.446 284.794C141.177 284.452 140.975 284.06 140.838 283.618C140.706 283.172 140.64 282.7 140.64 282.203V281.916C140.64 281.419 140.706 280.95 140.838 280.508C140.975 280.061 141.177 279.667 141.446 279.325C141.72 278.983 142.062 278.715 142.472 278.519C142.886 278.323 143.372 278.225 143.928 278.225C144.507 278.225 145.012 278.343 145.445 278.58C145.878 278.812 146.218 279.132 146.464 279.537C146.715 279.938 146.851 280.394 146.874 280.904H145.671C145.648 280.599 145.562 280.323 145.411 280.077C145.265 279.831 145.065 279.635 144.81 279.489C144.559 279.339 144.265 279.264 143.928 279.264C143.54 279.264 143.215 279.341 142.95 279.496C142.69 279.646 142.483 279.852 142.328 280.111C142.178 280.367 142.068 280.651 142 280.966C141.936 281.276 141.904 281.592 141.904 281.916V282.203C141.904 282.527 141.936 282.846 142 283.16C142.064 283.475 142.171 283.759 142.321 284.015C142.476 284.27 142.684 284.475 142.943 284.63C143.208 284.78 143.536 284.855 143.928 284.855ZM151.311 278.361V285.758H150.039V278.361H151.311ZM153.792 278.361V279.387H147.605V278.361H153.792ZM158.509 282.504H156.082L156.068 281.492H158.051C158.443 281.492 158.769 281.453 159.028 281.376C159.293 281.299 159.491 281.182 159.623 281.027C159.755 280.872 159.821 280.681 159.821 280.453C159.821 280.275 159.783 280.12 159.705 279.988C159.632 279.852 159.521 279.74 159.37 279.653C159.22 279.562 159.033 279.496 158.81 279.455C158.591 279.41 158.333 279.387 158.037 279.387H156.417V285.758H155.152V278.361H158.037C158.507 278.361 158.928 278.402 159.302 278.484C159.68 278.566 160.001 278.692 160.266 278.86C160.535 279.024 160.74 279.234 160.881 279.489C161.022 279.744 161.093 280.045 161.093 280.392C161.093 280.615 161.047 280.827 160.956 281.027C160.865 281.228 160.73 281.406 160.553 281.561C160.375 281.715 160.156 281.843 159.896 281.943C159.637 282.039 159.338 282.101 159.001 282.128L158.509 282.504ZM158.509 285.758H155.624L156.253 284.732H158.509C158.86 284.732 159.151 284.689 159.384 284.603C159.616 284.511 159.789 284.384 159.903 284.22C160.022 284.051 160.081 283.851 160.081 283.618C160.081 283.386 160.022 283.188 159.903 283.023C159.789 282.855 159.616 282.727 159.384 282.641C159.151 282.549 158.86 282.504 158.509 282.504H156.588L156.602 281.492H159.001L159.459 281.875C159.865 281.907 160.209 282.007 160.491 282.176C160.774 282.344 160.988 282.559 161.134 282.818C161.28 283.074 161.353 283.352 161.353 283.652C161.353 283.999 161.286 284.304 161.154 284.568C161.027 284.833 160.84 285.054 160.594 285.231C160.348 285.405 160.049 285.537 159.698 285.628C159.347 285.715 158.951 285.758 158.509 285.758ZM162.713 282.142V281.984C162.713 281.451 162.79 280.957 162.945 280.501C163.1 280.041 163.324 279.642 163.615 279.305C163.907 278.963 164.26 278.699 164.675 278.512C165.09 278.32 165.554 278.225 166.069 278.225C166.589 278.225 167.056 278.32 167.471 278.512C167.89 278.699 168.245 278.963 168.537 279.305C168.833 279.642 169.059 280.041 169.214 280.501C169.369 280.957 169.446 281.451 169.446 281.984V282.142C169.446 282.675 169.369 283.169 169.214 283.625C169.059 284.081 168.833 284.479 168.537 284.821C168.245 285.159 167.892 285.423 167.478 285.614C167.067 285.801 166.603 285.895 166.083 285.895C165.563 285.895 165.096 285.801 164.682 285.614C164.267 285.423 163.911 285.159 163.615 284.821C163.324 284.479 163.1 284.081 162.945 283.625C162.79 283.169 162.713 282.675 162.713 282.142ZM163.978 281.984V282.142C163.978 282.511 164.021 282.859 164.107 283.188C164.194 283.511 164.324 283.798 164.497 284.049C164.675 284.299 164.896 284.498 165.16 284.644C165.424 284.785 165.732 284.855 166.083 284.855C166.429 284.855 166.732 284.785 166.992 284.644C167.257 284.498 167.475 284.299 167.648 284.049C167.822 283.798 167.951 283.511 168.038 283.188C168.129 282.859 168.175 282.511 168.175 282.142V281.984C168.175 281.62 168.129 281.276 168.038 280.952C167.951 280.624 167.819 280.335 167.642 280.084C167.468 279.829 167.25 279.628 166.985 279.482C166.726 279.337 166.42 279.264 166.069 279.264C165.723 279.264 165.418 279.337 165.153 279.482C164.894 279.628 164.675 279.829 164.497 280.084C164.324 280.335 164.194 280.624 164.107 280.952C164.021 281.276 163.978 281.62 163.978 281.984Z" fill="#008C95"/>
</svg>
