<svg width="293" height="467" viewBox="0 0 293 467" fill="none" xmlns="http://www.w3.org/2000/svg">
<path d="M89.7972 50.4181C89.7972 60.5941 81.5474 68.8362 71.3791 68.8362C61.203 68.8362 52.9609 60.5941 52.9609 50.4181C52.9609 40.2498 61.203 32 71.3791 32C81.5474 32 89.7972 40.2498 89.7972 50.4181Z" fill="white"/>
<path d="M67.9545 51.585H61.0938V60.817H67.9545V51.585Z" fill="#77E2C3"/>
<path d="M74.8139 46.8804H67.9531V53.8486H74.8139V46.8804Z" fill="#008C95"/>
<path d="M81.6693 40.021H74.8086V60.8181H81.6693V40.021Z" fill="#77E2C3"/>
<path d="M81.6693 53.8486H74.8086V60.8168H81.6693V53.8486Z" fill="#008C95"/>
<path d="M81.6693 40.021H74.8086V46.9892H81.6693V40.021Z" fill="#008C95"/>
<path d="M37.6331 50.4181C37.6331 60.5941 29.3833 68.8362 19.215 68.8362C9.03898 68.8362 0.796875 60.5941 0.796875 50.4181C0.796875 40.2498 9.03898 32 19.215 32C29.3833 32 37.6331 40.2498 37.6331 50.4181Z" fill="white"/>
<path d="M14.5424 53.2937L13.5859 54.6851L20.296 59.2977L21.2525 57.9063L14.5424 53.2937Z" fill="#77E2C3"/>
<path d="M20.2737 48.5276L13.5664 52.8389L14.4793 54.2591L21.1866 49.9478L20.2737 48.5276Z" fill="#77E2C3"/>
<path d="M28.9774 46.9951H27.2891V52.1138H28.9774V46.9951Z" fill="#77E2C3"/>
<path d="M31.3322 52.1157H25.0547V57.6105H31.3322V52.1157Z" fill="#008C95"/>
<path d="M21.5837 61.7223H19.9031V46.9725H14.4774V61.7223H12.7891V45.2842H21.5837V61.7223Z" fill="#77E2C3"/>
<path d="M30.692 46.9971V44.2805L15.1287 39.1157L7.09375 43.3826V46.9971H30.692Z" fill="#77E2C3"/>
<path d="M15.1297 39.1157L12.7891 40.3589V46.9971H21.5837V41.2568L15.1297 39.1157Z" fill="#008C95"/>
<path d="M9.61523 7.70898V8.33789C9.61523 9.08529 9.52181 9.75521 9.33496 10.3477C9.14811 10.9401 8.87923 11.4437 8.52832 11.8584C8.17741 12.2731 7.75586 12.5898 7.26367 12.8086C6.77604 13.0273 6.22917 13.1367 5.62305 13.1367C5.03516 13.1367 4.49512 13.0273 4.00293 12.8086C3.5153 12.5898 3.09147 12.2731 2.73145 11.8584C2.37598 11.4437 2.10026 10.9401 1.9043 10.3477C1.70833 9.75521 1.61035 9.08529 1.61035 8.33789V7.70898C1.61035 6.96159 1.70605 6.29395 1.89746 5.70605C2.09342 5.11361 2.36914 4.61003 2.72461 4.19531C3.08008 3.77604 3.50163 3.45703 3.98926 3.23828C4.48145 3.01953 5.02148 2.91016 5.60938 2.91016C6.21549 2.91016 6.76237 3.01953 7.25 3.23828C7.74219 3.45703 8.16374 3.77604 8.51465 4.19531C8.87012 4.61003 9.14128 5.11361 9.32812 5.70605C9.51953 6.29395 9.61523 6.96159 9.61523 7.70898ZM8.30957 8.33789V7.69531C8.30957 7.10286 8.24805 6.57878 8.125 6.12305C8.00651 5.66732 7.83105 5.28451 7.59863 4.97461C7.36621 4.66471 7.08138 4.43001 6.74414 4.27051C6.41146 4.111 6.0332 4.03125 5.60938 4.03125C5.19922 4.03125 4.8278 4.111 4.49512 4.27051C4.16699 4.43001 3.88444 4.66471 3.64746 4.97461C3.41504 5.28451 3.23503 5.66732 3.10742 6.12305C2.97982 6.57878 2.91602 7.10286 2.91602 7.69531V8.33789C2.91602 8.9349 2.97982 9.46354 3.10742 9.92383C3.23503 10.3796 3.41732 10.7646 3.6543 11.0791C3.89583 11.389 4.18066 11.6237 4.50879 11.7832C4.84147 11.9427 5.21289 12.0225 5.62305 12.0225C6.05143 12.0225 6.43197 11.9427 6.76465 11.7832C7.09733 11.6237 7.3776 11.389 7.60547 11.0791C7.83789 10.7646 8.01335 10.3796 8.13184 9.92383C8.25033 9.46354 8.30957 8.9349 8.30957 8.33789ZM16.1436 2.38379H17.1826C17.1826 2.8304 17.1143 3.18587 16.9775 3.4502C16.8408 3.70996 16.654 3.91048 16.417 4.05176C16.1846 4.19303 15.9202 4.30013 15.624 4.37305C15.3324 4.44596 15.0293 4.5166 14.7148 4.58496C14.3229 4.66699 13.9583 4.79688 13.6211 4.97461C13.2884 5.14779 13.0013 5.39388 12.7598 5.71289C12.5228 6.0319 12.3473 6.44661 12.2334 6.95703C12.124 7.46745 12.0944 8.09863 12.1445 8.85059V9.47949H11.1055V8.85059C11.1055 8.00749 11.1852 7.27148 11.3447 6.64258C11.5088 6.01367 11.7389 5.48275 12.0352 5.0498C12.3314 4.61686 12.6823 4.27279 13.0879 4.01758C13.498 3.76237 13.9492 3.58691 14.4414 3.49121C14.7969 3.42285 15.1022 3.34993 15.3574 3.27246C15.6126 3.19043 15.8063 3.08105 15.9385 2.94434C16.0752 2.80762 16.1436 2.62077 16.1436 2.38379ZM14.6465 6.02734C15.1296 6.02734 15.5602 6.11165 15.9385 6.28027C16.3167 6.44889 16.638 6.68359 16.9023 6.98438C17.1667 7.28516 17.3672 7.64062 17.5039 8.05078C17.6452 8.45638 17.7158 8.89844 17.7158 9.37695V9.52734C17.7158 10.0423 17.6406 10.5208 17.4902 10.9629C17.3444 11.4004 17.1279 11.7832 16.8408 12.1113C16.5583 12.4349 16.2119 12.6878 15.8018 12.8701C15.3962 13.0524 14.9336 13.1436 14.4141 13.1436C13.8945 13.1436 13.4297 13.0524 13.0195 12.8701C12.6139 12.6878 12.2676 12.4349 11.9805 12.1113C11.6934 11.7832 11.4746 11.4004 11.3242 10.9629C11.1784 10.5208 11.1055 10.0423 11.1055 9.52734V9.37695C11.1055 9.26302 11.126 9.15137 11.167 9.04199C11.208 8.93262 11.2581 8.82096 11.3174 8.70703C11.3812 8.5931 11.4382 8.47233 11.4883 8.34473C11.6569 7.93457 11.887 7.55404 12.1787 7.20312C12.4749 6.85221 12.8281 6.56966 13.2383 6.35547C13.653 6.13672 14.1224 6.02734 14.6465 6.02734ZM14.4004 7.05957C13.9355 7.05957 13.5527 7.16667 13.252 7.38086C12.9557 7.59505 12.7347 7.87988 12.5889 8.23535C12.443 8.58626 12.3701 8.9668 12.3701 9.37695V9.52734C12.3701 9.8737 12.4111 10.2018 12.4932 10.5117C12.5752 10.8216 12.6982 11.0973 12.8623 11.3389C13.0309 11.5758 13.2428 11.7627 13.498 11.8994C13.7578 12.0361 14.0632 12.1045 14.4141 12.1045C14.765 12.1045 15.068 12.0361 15.3232 11.8994C15.5785 11.7627 15.7881 11.5758 15.9521 11.3389C16.1162 11.0973 16.2393 10.8216 16.3213 10.5117C16.4033 10.2018 16.4443 9.8737 16.4443 9.52734V9.37695C16.4443 9.06706 16.4033 8.77311 16.3213 8.49512C16.2393 8.21712 16.1139 7.97103 15.9453 7.75684C15.7812 7.54264 15.5693 7.37402 15.3096 7.25098C15.0544 7.12337 14.7513 7.05957 14.4004 7.05957ZM22.2891 9.38379V9.22656C22.2891 8.69336 22.3665 8.19889 22.5215 7.74316C22.6764 7.28288 22.8997 6.88411 23.1914 6.54688C23.4831 6.20508 23.8363 5.94076 24.251 5.75391C24.6657 5.5625 25.1305 5.4668 25.6455 5.4668C26.165 5.4668 26.6322 5.5625 27.0469 5.75391C27.4661 5.94076 27.8216 6.20508 28.1133 6.54688C28.4095 6.88411 28.6351 7.28288 28.79 7.74316C28.945 8.19889 29.0225 8.69336 29.0225 9.22656V9.38379C29.0225 9.91699 28.945 10.4115 28.79 10.8672C28.6351 11.3229 28.4095 11.7217 28.1133 12.0635C27.8216 12.4007 27.4684 12.665 27.0537 12.8564C26.6436 13.0433 26.1787 13.1367 25.6592 13.1367C25.1396 13.1367 24.6725 13.0433 24.2578 12.8564C23.8431 12.665 23.4876 12.4007 23.1914 12.0635C22.8997 11.7217 22.6764 11.3229 22.5215 10.8672C22.3665 10.4115 22.2891 9.91699 22.2891 9.38379ZM23.5537 9.22656V9.38379C23.5537 9.75293 23.597 10.1016 23.6836 10.4297C23.7702 10.7533 23.9001 11.0404 24.0732 11.291C24.251 11.5417 24.472 11.7399 24.7363 11.8857C25.0007 12.027 25.3083 12.0977 25.6592 12.0977C26.0055 12.0977 26.3086 12.027 26.5684 11.8857C26.8327 11.7399 27.0514 11.5417 27.2246 11.291C27.3978 11.0404 27.5277 10.7533 27.6143 10.4297C27.7054 10.1016 27.751 9.75293 27.751 9.38379V9.22656C27.751 8.86198 27.7054 8.5179 27.6143 8.19434C27.5277 7.86621 27.3955 7.57682 27.2178 7.32617C27.0446 7.07096 26.8258 6.87044 26.5615 6.72461C26.3018 6.57878 25.9964 6.50586 25.6455 6.50586C25.2992 6.50586 24.9938 6.57878 24.7295 6.72461C24.4697 6.87044 24.251 7.07096 24.0732 7.32617C23.9001 7.57682 23.7702 7.86621 23.6836 8.19434C23.597 8.5179 23.5537 8.86198 23.5537 9.22656ZM33.4727 5.60352V13H32.2012V5.60352H33.4727ZM35.9541 5.60352V6.62891H29.7676V5.60352H35.9541ZM38.4629 7.02539V15.8438H37.1914V5.60352H38.3535L38.4629 7.02539ZM43.4463 9.24023V9.38379C43.4463 9.92155 43.3825 10.4206 43.2549 10.8809C43.1273 11.3366 42.9404 11.7331 42.6943 12.0703C42.4528 12.4076 42.1543 12.6696 41.7988 12.8564C41.4434 13.0433 41.0355 13.1367 40.5752 13.1367C40.1058 13.1367 39.6911 13.0592 39.3311 12.9043C38.971 12.7493 38.6657 12.5238 38.415 12.2275C38.1644 11.9313 37.9639 11.5758 37.8135 11.1611C37.6676 10.7464 37.5674 10.2793 37.5127 9.75977V8.99414C37.5674 8.44727 37.6699 7.95736 37.8203 7.52441C37.9707 7.09147 38.1689 6.72233 38.415 6.41699C38.6657 6.1071 38.9688 5.8724 39.3242 5.71289C39.6797 5.54883 40.0898 5.4668 40.5547 5.4668C41.0195 5.4668 41.432 5.55794 41.792 5.74023C42.152 5.91797 42.4551 6.17318 42.7012 6.50586C42.9473 6.83854 43.1318 7.2373 43.2549 7.70215C43.3825 8.16243 43.4463 8.67513 43.4463 9.24023ZM42.1748 9.38379V9.24023C42.1748 8.87109 42.1361 8.52474 42.0586 8.20117C41.9811 7.87305 41.8604 7.58594 41.6963 7.33984C41.5368 7.08919 41.3317 6.89323 41.0811 6.75195C40.8304 6.60612 40.5319 6.5332 40.1855 6.5332C39.8665 6.5332 39.5885 6.58789 39.3516 6.69727C39.1191 6.80664 38.9209 6.95475 38.7568 7.1416C38.5928 7.32389 38.4583 7.53353 38.3535 7.77051C38.2533 8.00293 38.1781 8.24447 38.1279 8.49512V10.2656C38.2191 10.5846 38.3467 10.8854 38.5107 11.168C38.6748 11.446 38.8936 11.6715 39.167 11.8447C39.4404 12.0133 39.7845 12.0977 40.1992 12.0977C40.541 12.0977 40.835 12.027 41.0811 11.8857C41.3317 11.7399 41.5368 11.5417 41.6963 11.291C41.8604 11.0404 41.9811 10.7533 42.0586 10.4297C42.1361 10.1016 42.1748 9.75293 42.1748 9.38379ZM49.4209 11.7354V7.92773C49.4209 7.63607 49.3617 7.38314 49.2432 7.16895C49.1292 6.9502 48.9561 6.78158 48.7236 6.66309C48.4912 6.5446 48.2041 6.48535 47.8623 6.48535C47.5433 6.48535 47.263 6.54004 47.0215 6.64941C46.7845 6.75879 46.5977 6.90234 46.4609 7.08008C46.3288 7.25781 46.2627 7.44922 46.2627 7.6543H44.998C44.998 7.38997 45.0664 7.12793 45.2031 6.86816C45.3398 6.6084 45.5358 6.3737 45.791 6.16406C46.0508 5.94987 46.3607 5.78125 46.7207 5.6582C47.0853 5.5306 47.4909 5.4668 47.9375 5.4668C48.4753 5.4668 48.9492 5.55794 49.3594 5.74023C49.7741 5.92253 50.0977 6.19824 50.3301 6.56738C50.5671 6.93197 50.6855 7.38997 50.6855 7.94141V11.3867C50.6855 11.6328 50.7061 11.8949 50.7471 12.1729C50.7926 12.4508 50.8587 12.6901 50.9453 12.8906V13H49.626C49.5622 12.8542 49.512 12.6605 49.4756 12.4189C49.4391 12.1729 49.4209 11.945 49.4209 11.7354ZM49.6396 8.51562L49.6533 9.4043H48.375C48.015 9.4043 47.6937 9.43392 47.4111 9.49316C47.1286 9.54785 46.8916 9.63216 46.7002 9.74609C46.5088 9.86003 46.363 10.0036 46.2627 10.1768C46.1624 10.3454 46.1123 10.5436 46.1123 10.7715C46.1123 11.0039 46.1647 11.2158 46.2695 11.4072C46.3743 11.5986 46.5316 11.7513 46.7412 11.8652C46.9554 11.9746 47.2174 12.0293 47.5273 12.0293C47.9147 12.0293 48.2565 11.9473 48.5527 11.7832C48.849 11.6191 49.0837 11.4186 49.2568 11.1816C49.4346 10.9447 49.5303 10.7145 49.5439 10.4912L50.084 11.0996C50.0521 11.291 49.9655 11.5029 49.8242 11.7354C49.6829 11.9678 49.4938 12.1911 49.2568 12.4053C49.0244 12.6149 48.7464 12.7904 48.4229 12.9316C48.1038 13.0684 47.7438 13.1367 47.3428 13.1367C46.8415 13.1367 46.4017 13.0387 46.0234 12.8428C45.6497 12.6468 45.3581 12.3848 45.1484 12.0566C44.9434 11.724 44.8408 11.3525 44.8408 10.9424C44.8408 10.5459 44.9183 10.1973 45.0732 9.89648C45.2282 9.59115 45.4515 9.33822 45.7432 9.1377C46.0348 8.93262 46.3857 8.77767 46.7959 8.67285C47.2061 8.56803 47.6641 8.51562 48.1699 8.51562H49.6396ZM55.6348 12.0977C55.9355 12.0977 56.2135 12.0361 56.4688 11.9131C56.724 11.79 56.9336 11.6214 57.0977 11.4072C57.2617 11.1885 57.3551 10.9401 57.3779 10.6621H58.5811C58.5583 11.0996 58.4102 11.5075 58.1367 11.8857C57.8678 12.2594 57.5146 12.5625 57.0771 12.7949C56.6396 13.0228 56.1589 13.1367 55.6348 13.1367C55.0788 13.1367 54.5934 13.0387 54.1787 12.8428C53.7686 12.6468 53.4268 12.3779 53.1533 12.0361C52.8844 11.6943 52.6816 11.3024 52.5449 10.8604C52.4128 10.4137 52.3467 9.94206 52.3467 9.44531V9.1582C52.3467 8.66146 52.4128 8.19206 52.5449 7.75C52.6816 7.30339 52.8844 6.90918 53.1533 6.56738C53.4268 6.22559 53.7686 5.95671 54.1787 5.76074C54.5934 5.56478 55.0788 5.4668 55.6348 5.4668C56.2135 5.4668 56.7194 5.58529 57.1523 5.82227C57.5853 6.05469 57.9248 6.3737 58.1709 6.7793C58.4215 7.18034 58.5583 7.63607 58.5811 8.14648H57.3779C57.3551 7.84115 57.2686 7.56543 57.1182 7.31934C56.9723 7.07324 56.7718 6.87728 56.5166 6.73145C56.266 6.58105 55.972 6.50586 55.6348 6.50586C55.2474 6.50586 54.9215 6.58333 54.6572 6.73828C54.3975 6.88867 54.1901 7.09375 54.0352 7.35352C53.8848 7.60872 53.7754 7.89355 53.707 8.20801C53.6432 8.5179 53.6113 8.83464 53.6113 9.1582V9.44531C53.6113 9.76888 53.6432 10.0879 53.707 10.4023C53.7708 10.7168 53.8779 11.0016 54.0283 11.2568C54.1833 11.512 54.3906 11.7171 54.6504 11.8721C54.9147 12.0225 55.2428 12.0977 55.6348 12.0977ZM64.9453 5.60352V6.64941H61.3701V5.60352H64.9453ZM66.0596 5.60352V13H64.7949V5.60352H66.0596ZM61.0625 5.60352H62.334L62.1426 9.17188C62.1107 9.72331 62.0583 10.2109 61.9854 10.6348C61.917 11.054 61.8213 11.4141 61.6982 11.7148C61.5798 12.0156 61.4294 12.2617 61.2471 12.4531C61.0693 12.64 60.8551 12.779 60.6045 12.8701C60.3538 12.9567 60.0645 13 59.7363 13H59.3398V11.8857L59.6133 11.8652C59.8092 11.8516 59.9756 11.806 60.1123 11.7285C60.2536 11.651 60.3721 11.5371 60.4678 11.3867C60.5635 11.2318 60.641 11.0335 60.7002 10.792C60.764 10.5505 60.8118 10.2633 60.8438 9.93066C60.8802 9.59798 60.9076 9.21061 60.9258 8.76855L61.0625 5.60352ZM69.4639 10.9971L72.875 5.60352H74.1465V13H72.875V7.60645L69.4639 13H68.2061V5.60352H69.4639V10.9971Z" fill="white"/>
<path d="M139.246 252.403C139.246 262.382 131.156 270.464 121.185 270.464C111.207 270.464 103.125 262.382 103.125 252.403C103.125 242.432 111.207 234.343 121.185 234.343C131.164 234.343 139.246 242.425 139.246 252.403Z" fill="white"/>
<path d="M109.664 263.352V241.484L118.341 243.282V261.32L109.664 263.352ZM112.81 245.314V259.424L115.21 258.814V245.864L112.81 245.314Z" fill="#77E2C3"/>
<path d="M123.601 263.248H109.664V241.448H123.601V263.248ZM112.81 260.11H120.463V244.593H112.81V260.11Z" fill="#77E2C3"/>
<path d="M118.348 261.32V260.109H112.81V259.424V245.314V244.592H118.348V243.282L109.664 241.484V263.247H110.108L118.348 261.32Z" fill="#008C95"/>
<path d="M132.704 263.248H120.461V241.448H132.704V263.248ZM123.599 260.11H129.559V244.593H123.599V260.11Z" fill="#77E2C3"/>
<path d="M123.599 241.862V241.448H120.461V241.862V244.179V244.593H123.599V244.179V241.862Z" fill="#008C95"/>
<path d="M123.599 260.524V260.11H120.461V260.524V262.842V263.248H123.599V262.842V260.524Z" fill="#008C95"/>
<path d="M88.0623 150.06C88.0623 160.039 79.9727 168.121 70.0018 168.121C60.0235 168.121 51.9414 160.039 51.9414 150.06C51.9414 140.09 60.0235 132 70.0018 132C79.9727 132 88.0623 140.09 88.0623 150.06Z" fill="white"/>
<path d="M83.9614 149.347L71.4245 140.67L56.043 151.303L65.1786 157.647V157.625L68.7154 160.1L83.9614 149.347Z" fill="#77E2C3"/>
<path d="M73.7022 149.391L69.4805 153.605L73.7022 156.532V149.391Z" fill="#008C95"/>
<path d="M69.4755 146.442L65.2539 150.656L69.4755 153.591V146.442Z" fill="#008C95"/>
<path d="M65.2529 143.514L61.0312 147.728L65.2529 150.655V143.514Z" fill="#008C95"/>
<path d="M69.4755 146.441L65.2539 143.514V150.655L69.4755 146.441Z" fill="#77E2C3"/>
<path d="M73.7022 149.377L69.4805 146.442V153.591L73.7022 149.377Z" fill="#77E2C3"/>
<path d="M78.9582 145.877L74.6914 150.061L78.8904 152.929L78.9582 145.877Z" fill="#008C95"/>
<path d="M74.7334 142.95L70.5117 147.164L74.7334 150.092V142.95Z" fill="#008C95"/>
<path d="M70.5146 140.014L66.293 144.235L70.5146 147.163V140.014Z" fill="#008C95"/>
<path d="M74.7334 142.948L70.5117 140.014V147.163L74.7334 142.948Z" fill="#77E2C3"/>
<path d="M78.9599 145.878L74.7383 142.95V150.092L78.9599 145.878Z" fill="#77E2C3"/>
<path d="M73.726 156.563L68.6992 152.958V160.107L73.726 156.563Z" fill="#77E2C3"/>
<path d="M68.6982 152.958L64.4766 157.18L68.6982 160.107V152.958Z" fill="#008C95"/>
<path d="M64.4795 150.016L60.2578 154.23L64.4795 157.165V150.016Z" fill="#008C95"/>
<path d="M68.6982 152.95L64.4766 150.016V157.165L68.6982 152.95Z" fill="#77E2C3"/>
<path d="M60.2571 147.081L56.043 151.303L60.2571 154.23V147.081Z" fill="#008C95"/>
<path d="M64.4795 150.016L60.2578 147.081V154.23L64.4795 150.016Z" fill="#77E2C3"/>
<path d="M36.9178 201.232C36.9178 211.21 28.8282 219.292 18.8573 219.292C8.87892 219.292 0.796875 211.21 0.796875 201.232C0.796875 191.261 8.87892 183.171 18.8573 183.171C28.8282 183.171 36.9178 191.261 36.9178 201.232Z" fill="white"/>
<path d="M22.1136 210.474H9.23047V207.125H22.1136C23.2273 207.125 24.1304 206.222 24.1304 205.108C24.1304 203.994 23.2273 203.091 22.1136 203.091H16.2289C13.2715 203.091 10.8635 200.683 10.8635 197.726V197.357C10.8635 194.4 13.2715 191.992 16.2289 191.992H28.4949V195.34H16.2289C15.1152 195.34 14.2121 196.243 14.2121 197.357V197.726C14.2121 198.84 15.1152 199.743 16.2289 199.743H22.1136C25.071 199.743 27.479 202.151 27.479 205.108C27.479 208.065 25.071 210.474 22.1136 210.474Z" fill="#77E2C3"/>
<path d="M21.0401 198.026H17.6914V204.852H21.0401V198.026Z" fill="#77E2C3"/>
<path d="M21.0401 199.745H17.6914V203.093H21.0401V199.745Z" fill="#008C95"/>
<path d="M25.5557 190.262H22.207V197.088H25.5557V190.262Z" fill="#77E2C3"/>
<path d="M25.5557 191.999H22.207V195.348H25.5557V191.999Z" fill="#008C95"/>
<path d="M15.962 205.388H12.6133V212.213H15.962V205.388Z" fill="#77E2C3"/>
<path d="M15.962 207.125H12.6133V210.474H15.962V207.125Z" fill="#008C95"/>
<path d="M139.246 150.06C139.246 160.039 131.156 168.121 121.185 168.121C111.207 168.121 103.125 160.039 103.125 150.06C103.125 140.09 111.207 132 121.185 132C131.164 132 139.246 140.09 139.246 150.06Z" fill="white"/>
<path d="M116.184 161.19H126.185V145.289H116.184V161.19ZM123.528 158.533H118.832V147.938H123.528V158.533Z" fill="#77E2C3"/>
<path d="M109.129 161.19H118.844V145.289H109.129V161.19ZM116.188 158.533H111.778V147.938H116.188V158.533Z" fill="#77E2C3"/>
<path d="M123.531 154.839H133.246V138.938H123.531V154.839ZM130.59 152.183H126.18V141.587H130.59V152.183Z" fill="#77E2C3"/>
<path d="M116.184 154.839H126.185V138.938H116.184V154.839ZM123.528 152.183H118.832V141.587H123.528V152.183Z" fill="#77E2C3"/>
<path d="M118.832 145.289V147.938V154.839H116.184V145.289H118.832Z" fill="#008C95"/>
<path d="M123.531 152.182V147.938V145.289H126.188V154.839H123.531V152.182Z" fill="#008C95"/>
<path d="M190.429 150.06C190.429 160.039 182.34 168.121 172.369 168.121C162.391 168.121 154.309 160.039 154.309 150.06C154.309 140.09 162.391 132 172.369 132C182.34 132 190.429 140.09 190.429 150.06Z" fill="white"/>
<path d="M174.039 143.168H165.768C161.961 143.168 158.883 146.254 158.883 150.062C158.883 153.869 161.968 156.955 165.768 156.955H174.039V143.168Z" fill="#77E2C3"/>
<path d="M174.04 156.955C170.548 156.955 167.711 153.869 167.711 150.062C167.711 146.254 170.548 143.168 174.04 143.168C177.531 143.168 180.368 146.254 180.368 150.062C180.368 153.869 177.531 156.955 174.04 156.955Z" fill="#008C95"/>
<path d="M178.367 145.688H174.491C172.279 145.688 170.48 147.645 170.48 150.061C170.48 152.476 172.279 154.433 174.491 154.433C174.567 154.433 174.642 154.425 174.717 154.418H178.367V145.688Z" fill="white"/>
<path d="M178.464 154.433C176.252 154.433 174.453 152.476 174.453 150.061C174.453 147.645 176.252 145.688 178.464 145.688C180.677 145.688 182.475 147.645 182.475 150.061C182.483 152.476 180.684 154.433 178.464 154.433Z" fill="#77E2C3"/>
<path d="M185.058 149.203H181.227C181.227 149.203 181.228 149.203 181.22 149.203C181.212 149.203 181.22 149.203 181.212 149.203H178.699C178.699 149.203 178.699 149.203 178.691 149.203C178.691 149.203 178.691 149.203 178.684 149.203H176.028C176.028 149.203 176.028 149.203 176.02 149.203C176.02 149.203 176.02 149.203 176.013 149.203H175.937V149.211C175.531 149.256 175.215 149.617 175.215 150.061C175.215 150.505 175.531 150.874 175.937 150.911V150.919H185.028C185.472 150.919 185.833 150.535 185.833 150.053C185.833 149.572 185.502 149.203 185.058 149.203Z" fill="#77E2C3"/>
<path d="M181.224 149.205H178.711C178.711 149.205 178.711 149.205 178.703 149.205C178.703 149.205 178.703 149.205 178.696 149.205H176.039C176.039 149.205 176.039 149.205 176.032 149.205C176.032 149.205 176.032 149.205 176.024 149.205H175.949V149.212C175.543 149.257 175.227 149.619 175.227 150.063C175.227 150.507 175.543 150.875 175.949 150.913V150.921H182.383C182.436 150.642 182.466 150.356 182.466 150.055C182.466 149.762 182.436 149.476 182.383 149.197L181.224 149.205Z" fill="#008C95"/>
<path d="M183.897 151.899H177.207C177.004 151.899 176.794 151.982 176.635 152.155C176.319 152.493 176.319 153.035 176.635 153.374C176.794 153.539 176.997 153.63 177.207 153.63H183.897C184.341 153.63 184.702 153.246 184.702 152.764C184.702 152.283 184.341 151.899 183.897 151.899Z" fill="#77E2C3"/>
<path d="M177.207 151.899C177.004 151.899 176.794 151.982 176.635 152.155C176.319 152.493 176.319 153.035 176.635 153.374C176.794 153.539 176.997 153.63 177.207 153.63H180.789C181.354 153.193 181.805 152.599 182.106 151.906H177.207V151.899Z" fill="#008C95"/>
<path d="M177.207 148.225C177.23 148.225 177.253 148.218 177.283 148.218V148.225H183.905C184.349 148.225 184.71 147.841 184.71 147.367C184.71 146.893 184.349 146.502 183.905 146.502H177.283V146.509C177.26 146.509 177.238 146.502 177.207 146.502C176.764 146.502 176.402 146.886 176.402 147.367C176.402 147.849 176.764 148.225 177.207 148.225Z" fill="#77E2C3"/>
<path d="M177.275 146.509C177.252 146.509 177.23 146.502 177.2 146.502C176.756 146.502 176.395 146.886 176.395 147.36C176.395 147.834 176.756 148.225 177.2 148.225C177.222 148.225 177.245 148.218 177.275 148.218V148.225H182.106C181.813 147.533 181.354 146.938 180.789 146.502L177.275 146.509Z" fill="#008C95"/>
<path d="M241.597 150.06C241.597 160.039 233.508 168.121 223.537 168.121C213.559 168.121 205.477 160.039 205.477 150.06C205.477 140.09 213.559 132 223.537 132C233.508 132 241.597 140.09 241.597 150.06Z" fill="white"/>
<path d="M213.668 158.866V145.388H228.771V158.866L222.721 159.694L213.668 158.866Z" fill="#008C95"/>
<path d="M231.11 153.861C231.11 156.089 229.304 157.895 227.076 157.895C224.849 157.895 223.043 156.089 223.043 153.861C223.043 151.634 224.849 149.828 227.076 149.828C229.304 149.828 231.11 151.641 231.11 153.861Z" fill="white"/>
<path d="M233.395 145.387C233.395 142.061 230.701 139.367 227.368 139.367C224.041 139.367 221.34 142.061 221.34 145.387V153.341L226.63 148.051L233.403 153.341V145.387H233.395Z" fill="#77E2C3"/>
<path d="M227.953 153.342C228.006 155.118 226.644 155.028 226.644 155.028C225.575 154.99 225.131 154.321 225.161 153.342L224.619 152.68L223.197 152.861C223.197 152.861 222.73 153.779 222.73 153.869C222.73 153.959 223.34 155.931 223.34 155.931L224.529 157.255L226.162 157.18C226.162 157.195 226.17 157.21 226.17 157.21C226.237 157.24 227.005 157.293 227.005 157.293L228.766 156.736L229.563 155.735L229.985 153.342H227.953Z" fill="#008C95"/>
<path d="M226.096 160.762H213.672V158.866H226.051C231.318 158.602 231.529 154.238 231.514 153.365V153.335C231.514 151.062 229.663 149.211 227.39 149.211C225.118 149.211 223.266 151.062 223.266 153.335H221.37C221.37 150.016 224.072 147.314 227.39 147.314C230.709 147.314 233.411 150.016 233.411 153.335C233.418 154.065 233.298 160.416 226.119 160.762H226.096Z" fill="white"/>
<path d="M226.432 158.813C225.1 158.813 223.866 158.316 222.94 157.413C222.225 156.713 221.367 155.434 221.367 153.334H223.264C223.264 154.478 223.61 155.419 224.264 156.051C224.836 156.608 225.604 156.909 226.432 156.909C228.019 156.909 229.615 155.803 229.615 153.327C229.615 152.1 228.614 151.099 227.387 151.099C226.161 151.099 225.16 152.1 225.16 153.327H223.264C223.264 151.054 225.115 149.203 227.387 149.203C229.66 149.203 231.511 151.054 231.511 153.327C231.511 156.931 228.96 158.813 226.432 158.813Z" fill="#77E2C3"/>
<path d="M226.122 158.866C226.1 158.866 226.077 158.874 226.047 158.874H213.668V160.77H226.092H226.115C226.115 160.77 226.115 160.77 226.122 160.77V158.866Z" fill="#77E2C3"/>
<path d="M231.512 153.373C231.527 154.246 231.316 158.611 226.049 158.874H222.105V160.771H226.094H226.116C233.295 160.424 233.416 154.073 233.408 153.343H231.512V153.373Z" fill="#008C95"/>
<path d="M292.797 150.06C292.797 160.039 284.707 168.121 274.736 168.121C264.758 168.121 256.676 160.039 256.676 150.06C256.676 140.09 264.758 132 274.736 132C284.707 132 292.797 140.09 292.797 150.06Z" fill="white"/>
<path d="M281.553 138.044H269.957V149.64H281.553V138.044Z" fill="#008C95"/>
<path d="M278.828 149.64H280.182L280.709 150.49H278.309L278.828 149.64Z" fill="#008C95"/>
<path d="M275.086 149.64H276.44L276.959 150.49H274.566L275.086 149.64Z" fill="#008C95"/>
<path d="M271.328 149.64H272.682L273.209 150.49H270.809L271.328 149.64Z" fill="#008C95"/>
<path d="M278.828 149.64H280.182L280.709 150.49H278.309L278.828 149.64Z" fill="#008C95"/>
<path d="M275.086 149.64H276.44L276.959 150.49H274.566L275.086 149.64Z" fill="#008C95"/>
<path d="M271.328 149.64H272.682L273.209 150.49H270.809L271.328 149.64Z" fill="#008C95"/>
<path d="M281.555 140.767V139.413L282.413 138.894V141.287L281.555 140.767Z" fill="#008C95"/>
<path d="M281.555 144.515V143.161L282.413 142.642V145.035L281.555 144.515Z" fill="#008C95"/>
<path d="M281.555 148.271V146.916L282.413 146.39V148.79L281.555 148.271Z" fill="#008C95"/>
<path d="M272.682 138.043H271.328L270.809 137.186H273.209L272.682 138.043Z" fill="#008C95"/>
<path d="M276.432 138.043H275.085L274.559 137.186H276.959L276.432 138.043Z" fill="#008C95"/>
<path d="M280.182 138.043H278.828L278.309 137.186H280.702L280.182 138.043Z" fill="#008C95"/>
<path d="M269.959 147.126V148.48L269.102 148.999V146.606L269.959 147.126Z" fill="#008C95"/>
<path d="M269.959 143.38V144.734L269.102 145.254V142.853L269.959 143.38Z" fill="#008C95"/>
<path d="M269.959 139.624V140.979L269.102 141.506V139.105L269.959 139.624Z" fill="#008C95"/>
<path d="M279.506 150.489H267.91V162.086H279.506V150.489Z" fill="#77E2C3"/>
<path d="M278.311 150.498H276.964L276.438 149.64H278.838L278.311 150.498Z" fill="#77E2C3"/>
<path d="M274.565 150.49H273.21L272.684 149.64H275.084L274.565 150.49Z" fill="#77E2C3"/>
<path d="M270.807 150.49H269.453L268.926 149.64H271.326L270.807 150.49Z" fill="#77E2C3"/>
<path d="M279.504 160.718V159.363L280.362 158.844V161.237L279.504 160.718Z" fill="#77E2C3"/>
<path d="M279.504 156.962V155.608L280.362 155.088V157.481L279.504 156.962Z" fill="#77E2C3"/>
<path d="M279.504 153.207V151.852L280.362 151.333V153.734L279.504 153.207Z" fill="#77E2C3"/>
<path d="M269.285 162.086H270.639L271.158 162.936H268.758L269.285 162.086Z" fill="#77E2C3"/>
<path d="M273.035 162.086H274.389L274.908 162.936H272.508L273.035 162.086Z" fill="#77E2C3"/>
<path d="M276.788 162.086H278.143L278.662 162.936H276.262L276.788 162.086Z" fill="#77E2C3"/>
<path d="M267.913 151.709V153.063L267.062 153.583V151.182L267.913 151.709Z" fill="#77E2C3"/>
<path d="M267.913 155.464V156.811L267.062 157.338V154.938L267.913 155.464Z" fill="#77E2C3"/>
<path d="M267.913 159.212V160.566L267.062 161.093V158.692L267.913 159.212Z" fill="#77E2C3"/>
<path d="M36.9178 150.06C36.9178 160.039 28.8282 168.121 18.8573 168.121C8.87892 168.121 0.796875 160.039 0.796875 150.06C0.796875 140.09 8.87892 132 18.8573 132C28.8282 132 36.9178 140.09 36.9178 150.06Z" fill="white"/>
<path d="M22.3574 163.727H19.1367V151.988L22.365 148.76H32.1026V151.981H23.6969L22.3574 153.32V163.727Z" fill="#77E2C3"/>
<path d="M17.9925 148.512H5.62109V145.291H16.6606L18.0001 143.959V136.396H21.2208V145.291L17.9925 148.512Z" fill="#77E2C3"/>
<path d="M23.1037 139.006H16.2031V141.377H23.1037V139.006Z" fill="#77E2C3"/>
<path d="M21.2246 139.006H18.0039V141.377H21.2246V139.006Z" fill="#008C95"/>
<path d="M13.2068 150.95H5.62891V153.787H13.2068V150.95Z" fill="#77E2C3"/>
<path d="M28.5306 146.983H26.1602V153.756H28.5306V146.983Z" fill="#77E2C3"/>
<path d="M28.5306 148.76H26.1602V151.981H28.5306V148.76Z" fill="#008C95"/>
<path d="M32.0999 160.048H11.0369L7.80859 156.819V136.396H11.0294V155.487L12.3689 156.827H32.0999V160.048Z" fill="#77E2C3"/>
<path d="M11.0294 150.95H7.80859V153.787H11.0294V150.95Z" fill="#008C95"/>
<path d="M139.246 201.232C139.246 211.21 131.156 219.292 121.185 219.292C111.207 219.292 103.125 211.21 103.125 201.232C103.125 191.261 111.207 183.171 121.185 183.171C131.164 183.171 139.246 191.261 139.246 201.232Z" fill="white"/>
<path d="M125.581 188.997H110.516V208.63H125.581V188.997Z" fill="#77E2C3"/>
<path d="M131.858 193.844H116.793V213.477H131.858V193.844Z" fill="#77E2C3"/>
<path d="M125.59 193.844H116.793V208.631H125.59V193.844Z" fill="#008C95"/>
<path d="M8.27539 108.454L4.7207 103.047H6.26562L8.91113 107.36H10.7842L10.5723 108.454H8.27539ZM8.98633 108.352L6.09473 113H4.4541L8.15234 107.217L8.98633 108.352ZM11.3516 103.047V113H10.0459V103.047H11.3516ZM16.6289 103.047L13.0605 108.454H10.832L10.627 107.36H12.4316L15.0771 103.047H16.6289ZM15.248 113L12.3633 108.352L13.2041 107.217L16.8887 113H15.248ZM19.3154 110.997L22.7266 105.604H23.998V113H22.7266V107.606L19.3154 113H18.0576V105.604H19.3154V110.997ZM30.9707 105.604V106.649H27.3955V105.604H30.9707ZM32.085 105.604V113H30.8203V105.604H32.085ZM27.0879 105.604H28.3594L28.168 109.172C28.1361 109.723 28.0837 110.211 28.0107 110.635C27.9424 111.054 27.8467 111.414 27.7236 111.715C27.6051 112.016 27.4548 112.262 27.2725 112.453C27.0947 112.64 26.8805 112.779 26.6299 112.87C26.3792 112.957 26.0898 113 25.7617 113H25.3652V111.886L25.6387 111.865C25.8346 111.852 26.001 111.806 26.1377 111.729C26.279 111.651 26.3975 111.537 26.4932 111.387C26.5889 111.232 26.6663 111.034 26.7256 110.792C26.7894 110.55 26.8372 110.263 26.8691 109.931C26.9056 109.598 26.9329 109.211 26.9512 108.769L27.0879 105.604ZM35.4893 110.997L38.9004 105.604H40.1719V113H38.9004V107.606L35.4893 113H34.2314V105.604H35.4893V110.997ZM52.4834 111.961L52.3604 115.194H51.2324V113H50.2686V111.961H52.4834ZM42.2363 105.604H43.501V111.961H46.208V105.604H47.4795V111.961H50.1797V105.604H51.4443V113H42.2363V105.604ZM58.8135 108.81V109.835H54.9033V108.81H58.8135ZM55.1699 105.604V113H53.9053V105.604H55.1699ZM59.8389 105.604V113H58.5674V105.604H59.8389ZM61.541 109.384V109.227C61.541 108.693 61.6185 108.199 61.7734 107.743C61.9284 107.283 62.1517 106.884 62.4434 106.547C62.735 106.205 63.0882 105.941 63.5029 105.754C63.9176 105.562 64.3825 105.467 64.8975 105.467C65.417 105.467 65.8841 105.562 66.2988 105.754C66.7181 105.941 67.0736 106.205 67.3652 106.547C67.6615 106.884 67.887 107.283 68.042 107.743C68.1969 108.199 68.2744 108.693 68.2744 109.227V109.384C68.2744 109.917 68.1969 110.411 68.042 110.867C67.887 111.323 67.6615 111.722 67.3652 112.063C67.0736 112.401 66.7204 112.665 66.3057 112.856C65.8955 113.043 65.4307 113.137 64.9111 113.137C64.3916 113.137 63.9245 113.043 63.5098 112.856C63.0951 112.665 62.7396 112.401 62.4434 112.063C62.1517 111.722 61.9284 111.323 61.7734 110.867C61.6185 110.411 61.541 109.917 61.541 109.384ZM62.8057 109.227V109.384C62.8057 109.753 62.849 110.102 62.9355 110.43C63.0221 110.753 63.152 111.04 63.3252 111.291C63.5029 111.542 63.724 111.74 63.9883 111.886C64.2526 112.027 64.5602 112.098 64.9111 112.098C65.2575 112.098 65.5605 112.027 65.8203 111.886C66.0846 111.74 66.3034 111.542 66.4766 111.291C66.6497 111.04 66.7796 110.753 66.8662 110.43C66.9574 110.102 67.0029 109.753 67.0029 109.384V109.227C67.0029 108.862 66.9574 108.518 66.8662 108.194C66.7796 107.866 66.6475 107.577 66.4697 107.326C66.2965 107.071 66.0778 106.87 65.8135 106.725C65.5537 106.579 65.2484 106.506 64.8975 106.506C64.5511 106.506 64.2458 106.579 63.9814 106.725C63.7217 106.87 63.5029 107.071 63.3252 107.326C63.152 107.577 63.0221 107.866 62.9355 108.194C62.849 108.518 62.8057 108.862 62.8057 109.227ZM72.9297 113.137C72.4147 113.137 71.9476 113.05 71.5283 112.877C71.1136 112.699 70.7559 112.451 70.4551 112.132C70.1589 111.813 69.931 111.435 69.7715 110.997C69.612 110.56 69.5322 110.081 69.5322 109.562V109.274C69.5322 108.673 69.6211 108.137 69.7988 107.668C69.9766 107.194 70.2181 106.793 70.5234 106.465C70.8288 106.137 71.1751 105.888 71.5625 105.72C71.9499 105.551 72.3509 105.467 72.7656 105.467C73.2943 105.467 73.75 105.558 74.1328 105.74C74.5202 105.923 74.8369 106.178 75.083 106.506C75.3291 106.829 75.5114 107.212 75.6299 107.654C75.7484 108.092 75.8076 108.57 75.8076 109.09V109.657H70.2842V108.625H74.543V108.529C74.5247 108.201 74.4564 107.882 74.3379 107.572C74.224 107.262 74.0417 107.007 73.791 106.807C73.5404 106.606 73.1986 106.506 72.7656 106.506C72.4785 106.506 72.2142 106.567 71.9727 106.69C71.7311 106.809 71.5238 106.987 71.3506 107.224C71.1774 107.461 71.043 107.75 70.9473 108.092C70.8516 108.434 70.8037 108.828 70.8037 109.274V109.562C70.8037 109.912 70.8516 110.243 70.9473 110.553C71.0475 110.858 71.1911 111.127 71.3779 111.359C71.5693 111.592 71.7995 111.774 72.0684 111.906C72.3418 112.038 72.6517 112.104 72.998 112.104C73.4447 112.104 73.8229 112.013 74.1328 111.831C74.4427 111.649 74.7139 111.405 74.9463 111.1L75.7119 111.708C75.5524 111.95 75.3496 112.18 75.1035 112.398C74.8574 112.617 74.5544 112.795 74.1943 112.932C73.8389 113.068 73.4173 113.137 72.9297 113.137ZM83.7168 112.098C84.0176 112.098 84.2956 112.036 84.5508 111.913C84.806 111.79 85.0156 111.621 85.1797 111.407C85.3438 111.188 85.4372 110.94 85.46 110.662H86.6631C86.6403 111.1 86.4922 111.507 86.2188 111.886C85.9499 112.259 85.5967 112.562 85.1592 112.795C84.7217 113.023 84.2409 113.137 83.7168 113.137C83.1608 113.137 82.6755 113.039 82.2607 112.843C81.8506 112.647 81.5088 112.378 81.2354 112.036C80.9665 111.694 80.7637 111.302 80.627 110.86C80.4948 110.414 80.4287 109.942 80.4287 109.445V109.158C80.4287 108.661 80.4948 108.192 80.627 107.75C80.7637 107.303 80.9665 106.909 81.2354 106.567C81.5088 106.226 81.8506 105.957 82.2607 105.761C82.6755 105.565 83.1608 105.467 83.7168 105.467C84.2956 105.467 84.8014 105.585 85.2344 105.822C85.6673 106.055 86.0068 106.374 86.2529 106.779C86.5036 107.18 86.6403 107.636 86.6631 108.146H85.46C85.4372 107.841 85.3506 107.565 85.2002 107.319C85.0544 107.073 84.8538 106.877 84.5986 106.731C84.348 106.581 84.054 106.506 83.7168 106.506C83.3294 106.506 83.0036 106.583 82.7393 106.738C82.4795 106.889 82.2721 107.094 82.1172 107.354C81.9668 107.609 81.8574 107.894 81.7891 108.208C81.7253 108.518 81.6934 108.835 81.6934 109.158V109.445C81.6934 109.769 81.7253 110.088 81.7891 110.402C81.8529 110.717 81.96 111.002 82.1104 111.257C82.2653 111.512 82.4727 111.717 82.7324 111.872C82.9967 112.022 83.3249 112.098 83.7168 112.098ZM91.0996 105.604V113H89.8281V105.604H91.0996ZM93.5811 105.604V106.629H87.3945V105.604H93.5811ZM96.0898 107.025V115.844H94.8184V105.604H95.9805L96.0898 107.025ZM101.073 109.24V109.384C101.073 109.922 101.009 110.421 100.882 110.881C100.754 111.337 100.567 111.733 100.321 112.07C100.08 112.408 99.7812 112.67 99.4258 112.856C99.0703 113.043 98.6624 113.137 98.2021 113.137C97.7327 113.137 97.318 113.059 96.958 112.904C96.598 112.749 96.2926 112.524 96.042 112.228C95.7913 111.931 95.5908 111.576 95.4404 111.161C95.2946 110.746 95.1943 110.279 95.1396 109.76V108.994C95.1943 108.447 95.2969 107.957 95.4473 107.524C95.5977 107.091 95.7959 106.722 96.042 106.417C96.2926 106.107 96.5957 105.872 96.9512 105.713C97.3066 105.549 97.7168 105.467 98.1816 105.467C98.6465 105.467 99.0589 105.558 99.4189 105.74C99.779 105.918 100.082 106.173 100.328 106.506C100.574 106.839 100.759 107.237 100.882 107.702C101.009 108.162 101.073 108.675 101.073 109.24ZM99.8018 109.384V109.24C99.8018 108.871 99.763 108.525 99.6855 108.201C99.6081 107.873 99.4873 107.586 99.3232 107.34C99.1637 107.089 98.9587 106.893 98.708 106.752C98.4574 106.606 98.1589 106.533 97.8125 106.533C97.4935 106.533 97.2155 106.588 96.9785 106.697C96.7461 106.807 96.5479 106.955 96.3838 107.142C96.2197 107.324 96.0853 107.534 95.9805 107.771C95.8802 108.003 95.805 108.244 95.7549 108.495V110.266C95.846 110.585 95.9736 110.885 96.1377 111.168C96.3018 111.446 96.5205 111.672 96.7939 111.845C97.0674 112.013 97.4115 112.098 97.8262 112.098C98.168 112.098 98.4619 112.027 98.708 111.886C98.9587 111.74 99.1637 111.542 99.3232 111.291C99.4873 111.04 99.6081 110.753 99.6855 110.43C99.763 110.102 99.8018 109.753 99.8018 109.384ZM102.352 109.384V109.227C102.352 108.693 102.429 108.199 102.584 107.743C102.739 107.283 102.962 106.884 103.254 106.547C103.546 106.205 103.899 105.941 104.313 105.754C104.728 105.562 105.193 105.467 105.708 105.467C106.228 105.467 106.695 105.562 107.109 105.754C107.529 105.941 107.884 106.205 108.176 106.547C108.472 106.884 108.698 107.283 108.853 107.743C109.007 108.199 109.085 108.693 109.085 109.227V109.384C109.085 109.917 109.007 110.411 108.853 110.867C108.698 111.323 108.472 111.722 108.176 112.063C107.884 112.401 107.531 112.665 107.116 112.856C106.706 113.043 106.241 113.137 105.722 113.137C105.202 113.137 104.735 113.043 104.32 112.856C103.906 112.665 103.55 112.401 103.254 112.063C102.962 111.722 102.739 111.323 102.584 110.867C102.429 110.411 102.352 109.917 102.352 109.384ZM103.616 109.227V109.384C103.616 109.753 103.66 110.102 103.746 110.43C103.833 110.753 103.963 111.04 104.136 111.291C104.313 111.542 104.535 111.74 104.799 111.886C105.063 112.027 105.371 112.098 105.722 112.098C106.068 112.098 106.371 112.027 106.631 111.886C106.895 111.74 107.114 111.542 107.287 111.291C107.46 111.04 107.59 110.753 107.677 110.43C107.768 110.102 107.813 109.753 107.813 109.384V109.227C107.813 108.862 107.768 108.518 107.677 108.194C107.59 107.866 107.458 107.577 107.28 107.326C107.107 107.071 106.888 106.87 106.624 106.725C106.364 106.579 106.059 106.506 105.708 106.506C105.362 106.506 105.056 106.579 104.792 106.725C104.532 106.87 104.313 107.071 104.136 107.326C103.963 107.577 103.833 107.866 103.746 108.194C103.66 108.518 103.616 108.862 103.616 109.227ZM112.038 110.997L115.449 105.604H116.721V113H115.449V107.606L112.038 113H110.78V105.604H112.038V110.997ZM121.766 105.604V113H120.494V105.604H121.766ZM124.247 105.604V106.629H118.061V105.604H124.247ZM128.014 113.137C127.499 113.137 127.032 113.05 126.612 112.877C126.198 112.699 125.84 112.451 125.539 112.132C125.243 111.813 125.015 111.435 124.855 110.997C124.696 110.56 124.616 110.081 124.616 109.562V109.274C124.616 108.673 124.705 108.137 124.883 107.668C125.061 107.194 125.302 106.793 125.607 106.465C125.913 106.137 126.259 105.888 126.646 105.72C127.034 105.551 127.435 105.467 127.85 105.467C128.378 105.467 128.834 105.558 129.217 105.74C129.604 105.923 129.921 106.178 130.167 106.506C130.413 106.829 130.595 107.212 130.714 107.654C130.832 108.092 130.892 108.57 130.892 109.09V109.657H125.368V108.625H129.627V108.529C129.609 108.201 129.54 107.882 129.422 107.572C129.308 107.262 129.126 107.007 128.875 106.807C128.624 106.606 128.283 106.506 127.85 106.506C127.562 106.506 127.298 106.567 127.057 106.69C126.815 106.809 126.608 106.987 126.435 107.224C126.261 107.461 126.127 107.75 126.031 108.092C125.936 108.434 125.888 108.828 125.888 109.274V109.562C125.888 109.912 125.936 110.243 126.031 110.553C126.132 110.858 126.275 111.127 126.462 111.359C126.653 111.592 126.883 111.774 127.152 111.906C127.426 112.038 127.736 112.104 128.082 112.104C128.529 112.104 128.907 112.013 129.217 111.831C129.527 111.649 129.798 111.405 130.03 111.1L130.796 111.708C130.636 111.95 130.434 112.18 130.188 112.398C129.941 112.617 129.638 112.795 129.278 112.932C128.923 113.068 128.501 113.137 128.014 113.137ZM137.311 105.604V106.649H133.735V105.604H137.311ZM138.425 105.604V113H137.16V105.604H138.425ZM133.428 105.604H134.699L134.508 109.172C134.476 109.723 134.424 110.211 134.351 110.635C134.282 111.054 134.187 111.414 134.063 111.715C133.945 112.016 133.795 112.262 133.612 112.453C133.435 112.64 133.22 112.779 132.97 112.87C132.719 112.957 132.43 113 132.102 113H131.705V111.886L131.979 111.865C132.174 111.852 132.341 111.806 132.478 111.729C132.619 111.651 132.737 111.537 132.833 111.387C132.929 111.232 133.006 111.034 133.065 110.792C133.129 110.55 133.177 110.263 133.209 109.931C133.245 109.598 133.273 109.211 133.291 108.769L133.428 105.604ZM141.501 108.146H143.723C144.32 108.146 144.823 108.251 145.233 108.461C145.644 108.666 145.953 108.951 146.163 109.315C146.377 109.675 146.484 110.086 146.484 110.546C146.484 110.888 146.425 111.209 146.307 111.51C146.188 111.806 146.01 112.066 145.773 112.289C145.541 112.512 145.252 112.688 144.905 112.815C144.563 112.938 144.169 113 143.723 113H140.578V105.604H141.843V111.961H143.723C144.087 111.961 144.379 111.895 144.598 111.763C144.816 111.631 144.974 111.46 145.069 111.25C145.165 111.04 145.213 110.822 145.213 110.594C145.213 110.37 145.165 110.152 145.069 109.938C144.974 109.723 144.816 109.546 144.598 109.404C144.379 109.258 144.087 109.186 143.723 109.186H141.501V108.146ZM151.023 112.098C151.324 112.098 151.602 112.036 151.857 111.913C152.113 111.79 152.322 111.621 152.486 111.407C152.65 111.188 152.744 110.94 152.767 110.662H153.97C153.947 111.1 153.799 111.507 153.525 111.886C153.257 112.259 152.903 112.562 152.466 112.795C152.028 113.023 151.548 113.137 151.023 113.137C150.467 113.137 149.982 113.039 149.567 112.843C149.157 112.647 148.815 112.378 148.542 112.036C148.273 111.694 148.07 111.302 147.934 110.86C147.801 110.414 147.735 109.942 147.735 109.445V109.158C147.735 108.661 147.801 108.192 147.934 107.75C148.07 107.303 148.273 106.909 148.542 106.567C148.815 106.226 149.157 105.957 149.567 105.761C149.982 105.565 150.467 105.467 151.023 105.467C151.602 105.467 152.108 105.585 152.541 105.822C152.974 106.055 153.313 106.374 153.56 106.779C153.81 107.18 153.947 107.636 153.97 108.146H152.767C152.744 107.841 152.657 107.565 152.507 107.319C152.361 107.073 152.16 106.877 151.905 106.731C151.655 106.581 151.361 106.506 151.023 106.506C150.636 106.506 150.31 106.583 150.046 106.738C149.786 106.889 149.579 107.094 149.424 107.354C149.273 107.609 149.164 107.894 149.096 108.208C149.032 108.518 149 108.835 149 109.158V109.445C149 109.769 149.032 110.088 149.096 110.402C149.16 110.717 149.267 111.002 149.417 111.257C149.572 111.512 149.779 111.717 150.039 111.872C150.303 112.022 150.632 112.098 151.023 112.098ZM158.406 105.604V113H157.135V105.604H158.406ZM160.888 105.604V106.629H154.701V105.604H160.888ZM165.604 109.746H163.178L163.164 108.734H165.146C165.538 108.734 165.864 108.696 166.124 108.618C166.388 108.541 166.587 108.424 166.719 108.27C166.851 108.115 166.917 107.923 166.917 107.695C166.917 107.518 166.878 107.363 166.801 107.23C166.728 107.094 166.616 106.982 166.466 106.896C166.315 106.804 166.129 106.738 165.905 106.697C165.687 106.652 165.429 106.629 165.133 106.629H163.513V113H162.248V105.604H165.133C165.602 105.604 166.024 105.645 166.397 105.727C166.776 105.809 167.097 105.934 167.361 106.103C167.63 106.267 167.835 106.476 167.977 106.731C168.118 106.987 168.188 107.287 168.188 107.634C168.188 107.857 168.143 108.069 168.052 108.27C167.961 108.47 167.826 108.648 167.648 108.803C167.471 108.958 167.252 109.085 166.992 109.186C166.732 109.281 166.434 109.343 166.097 109.37L165.604 109.746ZM165.604 113H162.72L163.349 111.975H165.604C165.955 111.975 166.247 111.931 166.479 111.845C166.712 111.754 166.885 111.626 166.999 111.462C167.118 111.293 167.177 111.093 167.177 110.86C167.177 110.628 167.118 110.43 166.999 110.266C166.885 110.097 166.712 109.969 166.479 109.883C166.247 109.792 165.955 109.746 165.604 109.746H163.684L163.697 108.734H166.097L166.555 109.117C166.96 109.149 167.304 109.249 167.587 109.418C167.869 109.587 168.084 109.801 168.229 110.061C168.375 110.316 168.448 110.594 168.448 110.895C168.448 111.241 168.382 111.546 168.25 111.811C168.122 112.075 167.936 112.296 167.689 112.474C167.443 112.647 167.145 112.779 166.794 112.87C166.443 112.957 166.047 113 165.604 113ZM169.809 109.384V109.227C169.809 108.693 169.886 108.199 170.041 107.743C170.196 107.283 170.419 106.884 170.711 106.547C171.003 106.205 171.356 105.941 171.771 105.754C172.185 105.562 172.65 105.467 173.165 105.467C173.685 105.467 174.152 105.562 174.566 105.754C174.986 105.941 175.341 106.205 175.633 106.547C175.929 106.884 176.155 107.283 176.31 107.743C176.465 108.199 176.542 108.693 176.542 109.227V109.384C176.542 109.917 176.465 110.411 176.31 110.867C176.155 111.323 175.929 111.722 175.633 112.063C175.341 112.401 174.988 112.665 174.573 112.856C174.163 113.043 173.698 113.137 173.179 113.137C172.659 113.137 172.192 113.043 171.777 112.856C171.363 112.665 171.007 112.401 170.711 112.063C170.419 111.722 170.196 111.323 170.041 110.867C169.886 110.411 169.809 109.917 169.809 109.384ZM171.073 109.227V109.384C171.073 109.753 171.117 110.102 171.203 110.43C171.29 110.753 171.42 111.04 171.593 111.291C171.771 111.542 171.992 111.74 172.256 111.886C172.52 112.027 172.828 112.098 173.179 112.098C173.525 112.098 173.828 112.027 174.088 111.886C174.352 111.74 174.571 111.542 174.744 111.291C174.917 111.04 175.047 110.753 175.134 110.43C175.225 110.102 175.271 109.753 175.271 109.384V109.227C175.271 108.862 175.225 108.518 175.134 108.194C175.047 107.866 174.915 107.577 174.737 107.326C174.564 107.071 174.345 106.87 174.081 106.725C173.821 106.579 173.516 106.506 173.165 106.506C172.819 106.506 172.513 106.579 172.249 106.725C171.989 106.87 171.771 107.071 171.593 107.326C171.42 107.577 171.29 107.866 171.203 108.194C171.117 108.518 171.073 108.862 171.073 109.227Z" fill="white"/>
<path d="M87.3327 347.368C87.3327 357.261 79.3129 365.273 69.4281 365.273C59.5358 365.273 51.5234 357.261 51.5234 347.368C51.5234 337.476 59.5358 329.464 69.4281 329.464C79.3129 329.464 87.3327 337.484 87.3327 347.368Z" fill="white"/>
<path d="M60.2932 344.211H57.7939L56.1602 346.927L57.406 349.001L56.1602 351.075L57.7939 353.79H60.2633L61.524 355.887H64.0381L65.2766 357.938H68.492L70.1257 355.23L68.8798 353.156L69.7303 351.739H72.2296L73.8633 349.023L72.6174 346.949L73.8633 344.875L72.2296 342.16H69.7602L68.4994 340.063H65.2766L64.0158 342.16H61.524L60.2932 344.211ZM67.7757 352.515H66.0002L65.1423 351.082L66.0151 349.635H67.7608L68.6412 351.097L67.7757 352.515ZM67.7534 345.487L68.6337 346.949L67.7832 348.367H66.0077L65.1497 346.934L66.0226 345.487H66.9029H67.7534ZM63.1355 347.583H64.0233L64.8812 349.016L64.0084 350.463H63.128H62.2626L61.3823 349.001L62.2328 347.583H63.1355ZM58.5176 345.487H60.2708L61.151 346.949L60.3005 348.367H58.525L57.6597 346.927L58.5176 345.487ZM58.5102 352.507L57.6447 351.067L58.5102 349.628H60.2633L61.1436 351.09L60.2932 352.507H58.5102ZM62.2478 354.611L61.3823 353.171L62.2478 351.731H63.1355H64.0233L64.8812 353.164L64.0084 354.611H62.2478ZM67.7757 356.663H66.0002L65.1423 355.23L66.0151 353.783H67.7832L68.6486 355.223L67.7757 356.663ZM71.5059 350.463H69.7527L68.8725 349.001L69.7229 347.583H70.6107H71.4984L72.3638 349.023L71.5059 350.463ZM71.5133 343.435L72.3787 344.875L71.5133 346.315H70.6256H69.7602L68.8798 344.853L69.7303 343.435H71.5133ZM67.7832 341.339L68.6486 342.779L67.7832 344.219H66.8955H66.0077L65.1423 342.779L66.0077 341.339H67.7832ZM64.0307 343.435L64.8886 344.868L64.0158 346.315H63.1355H62.2701L61.3898 344.853L62.2403 343.435H64.0307Z" fill="#77E2C3"/>
<path d="M64.9235 339.162C68.0717 336.014 73.182 336.014 76.3303 339.169C79.4785 342.318 79.4785 347.428 76.3228 350.576C73.1746 353.724 68.0643 353.724 64.916 350.569C61.7678 347.421 61.7753 342.31 64.9235 339.162Z" fill="#77E2C3"/>
<path d="M72.4077 349.689C73.9669 348.13 76.4884 348.13 78.0476 349.689C79.6068 351.249 79.5993 353.77 78.0476 355.329C76.4884 356.889 73.9669 356.881 72.4077 355.329C70.8485 353.77 70.8485 351.249 72.4077 349.689Z" fill="#77E2C3"/>
<path d="M79.6314 347.092C80.3327 346.391 81.4667 346.391 82.1679 347.092C82.8692 347.793 82.8692 348.935 82.1679 349.628C81.4667 350.33 80.3327 350.33 79.6314 349.628C78.9302 348.927 78.9302 347.793 79.6314 347.092Z" fill="#77E2C3"/>
<path d="M72.233 342.16H69.7637L68.5029 340.063H65.2876L64.0267 342.16H63.0345C62.8853 342.578 62.7735 343.003 62.6989 343.435H64.0342L64.8921 344.868L64.0194 346.315H63.139H62.6914C62.766 346.748 62.8853 347.173 63.0271 347.591H63.1315H64.0194L64.8772 349.023L64.3326 349.926C64.5117 350.15 64.7057 350.366 64.9145 350.575C65.0265 350.687 65.1383 350.791 65.2502 350.888L66.0037 349.642H67.742L68.6223 351.105L67.8166 352.44C68.2344 352.597 68.6596 352.716 69.0923 352.798L69.7264 351.746H72.2256L73.8594 349.031L72.6135 346.957L73.8594 344.883L72.233 342.16ZM67.7718 348.359H65.9962L65.1384 346.927L66.0112 345.48H66.8915H67.7569L68.6372 346.942L67.7718 348.359ZM67.7718 344.211H66.8841H65.9962L65.1309 342.772L65.9962 341.332H67.7718L68.6372 342.772L67.7718 344.211ZM71.5019 350.463H69.7562L68.8759 349.001L69.7264 347.583H70.6142H71.5019L72.3673 349.023L71.5019 350.463ZM71.5094 346.315H70.6217H69.7637L68.8834 344.853L69.7338 343.435H71.5094L72.3748 344.875L71.5094 346.315Z" fill="#008C95"/>
<path d="M138.063 347.368C138.063 357.261 130.043 365.273 120.159 365.273C110.266 365.273 102.254 357.261 102.254 347.368C102.254 337.476 110.266 329.464 120.159 329.464C130.043 329.464 138.063 337.484 138.063 347.368Z" fill="white"/>
<path d="M110.133 356.642L117.578 341.296H125.769L133.976 356.642H110.133Z" fill="#77E2C3"/>
<path d="M122.888 341.296H120.836V342.616H122.888V341.296Z" fill="white"/>
<path d="M122.888 352.897H120.836V350.002H122.888V352.897ZM122.888 347.406H120.836V344.511H122.888V347.406Z" fill="white"/>
<path d="M122.888 355.322H120.836V356.643H122.888V355.322Z" fill="white"/>
<path d="M112.424 345.763L110.134 343.936L107.843 345.763L106.926 344.622L110.134 342.056L113.334 344.622L112.424 345.763Z" fill="#77E2C3"/>
<path d="M113.371 349.973L110.133 347.369L106.761 350.077L105.844 348.936L110.133 345.489L114.028 348.615L113.371 349.973Z" fill="#77E2C3"/>
<path d="M113.505 354.068L110.133 351.36L106.761 354.068L105.844 352.927L110.133 349.48L114.423 352.927L113.505 354.068Z" fill="#77E2C3"/>
<path d="M110.872 342.929H109.402V354.94H110.872V342.929Z" fill="#77E2C3"/>
<path d="M109.402 351.95L110.133 351.36L110.865 351.95V350.07L110.133 349.48L109.402 350.07V351.95Z" fill="#008C95"/>
<path d="M109.402 347.959L110.133 347.369L110.865 347.959V346.079L110.133 345.489L109.402 346.079V347.959Z" fill="#008C95"/>
<path d="M109.402 344.527L110.133 343.938L110.865 344.527V342.647L110.133 342.065L109.402 342.647V344.527Z" fill="#008C95"/>
<path d="M127.898 341.81L130.188 339.975L132.479 341.81L133.396 340.661L130.188 338.103L126.98 340.661L127.898 341.81Z" fill="#77E2C3"/>
<path d="M127.889 345.257L130.187 343.415L133.559 346.123L134.476 344.981L130.187 341.527L127.188 343.945L127.889 345.257Z" fill="#77E2C3"/>
<path d="M130.927 338.969H129.457V348.108H130.927V338.969Z" fill="#77E2C3"/>
<path d="M130.919 344.003L130.188 343.414L129.457 344.003V342.116L130.188 341.534L130.919 342.116V344.003Z" fill="#008C95"/>
<path d="M130.919 340.564L130.188 339.975L129.457 340.564V338.684L130.188 338.103L130.919 338.684V340.564Z" fill="#008C95"/>
<path d="M36.6061 398.119C36.6061 408.011 28.5863 416.024 18.7015 416.024C8.80919 416.024 0.796875 408.011 0.796875 398.119C0.796875 388.234 8.80919 380.214 18.7015 380.214C28.5863 380.214 36.6061 388.234 36.6061 398.119Z" fill="white"/>
<path d="M12.6367 398.149L16.2699 401.774L20.3431 405.848L21.8948 407.407L30.4518 398.85L21.1936 389.592L12.6367 398.149Z" fill="#77E2C3"/>
<path d="M20.7447 387.529L10.5742 397.7L11.9668 399.092L22.1373 388.922L20.7447 387.529Z" fill="#77E2C3"/>
<path d="M21.2485 394.043L14.8867 400.404L19.4972 405.015L25.859 398.653L21.2485 394.043Z" fill="#008C95"/>
<path d="M12.5681 404.319L10.3972 398.836L8.13672 404.043C8.31576 405.118 9.24082 405.938 10.3599 405.953C11.4043 405.953 12.2846 405.267 12.5681 404.319Z" fill="#77E2C3"/>
<path d="M11.3767 407.072L9.2057 401.589L6.94531 406.796C7.12436 407.87 8.04942 408.691 9.16845 408.706C10.2129 408.713 11.0932 408.02 11.3767 407.072Z" fill="#77E2C3"/>
<path d="M10.3673 405.946C10.5538 405.946 10.7329 405.923 10.9044 405.886L9.20348 401.589L8.13672 404.043C8.31576 405.118 9.24083 405.938 10.3673 405.946Z" fill="#008C95"/>
<path d="M36.6061 347.368C36.6061 357.261 28.5863 365.273 18.7015 365.273C8.80919 365.273 0.796875 357.261 0.796875 347.368C0.796875 337.476 8.80919 329.464 18.7015 329.464C28.5863 329.464 36.6061 337.484 36.6061 347.368Z" fill="white"/>
<path d="M25.9591 350.412C25.9591 354.329 22.7065 357.499 18.7003 357.499C14.6942 357.499 11.4414 354.321 11.4414 350.412C11.4414 346.503 14.6867 345.951 18.7003 345.951C22.7065 345.951 25.9591 346.495 25.9591 350.412Z" fill="#008C95"/>
<path d="M25.9591 350.412H11.4414L11.6428 343.601H25.7801L25.9591 350.412Z" fill="#008C95"/>
<path d="M18.8514 353.954H18.8215C18.1501 353.954 17.6055 353.409 17.6055 352.738V348.15H20.0674V352.738C20.0674 353.409 19.5228 353.954 18.8514 353.954Z" fill="#008C95"/>
<path d="M21.6405 355.082H21.6032C20.7527 355.082 20.0664 354.396 20.0664 353.545V344.958H23.1774V353.545C23.1774 354.396 22.491 355.082 21.6405 355.082Z" fill="#77E2C3"/>
<path d="M18.7003 337.237C14.6942 337.237 11.4414 340.408 11.4414 344.325C11.4414 348.241 14.6867 351.412 18.7003 351.412C22.7065 351.412 25.9591 348.241 25.9591 344.325C25.9591 340.408 22.7065 337.237 18.7003 337.237Z" fill="#77E2C3"/>
<path d="M18.8514 353.954H18.8215C18.1501 353.954 17.6055 353.409 17.6055 352.738V348.15H20.0674V352.738C20.0674 353.409 19.5228 353.954 18.8514 353.954Z" fill="#77E2C3"/>
<path d="M23.1774 345.443C22.782 346.957 21.5883 348.173 20.0664 348.636V351.284C21.2227 351.068 22.2821 350.583 23.1774 349.904V345.443Z" fill="white"/>
<path d="M20.0674 351.292V348.644C19.6347 348.778 19.1797 348.845 18.7022 348.845C18.3217 348.845 17.9561 348.801 17.6055 348.719V351.345C17.9636 351.397 18.3292 351.427 18.7022 351.427C19.1722 351.419 19.6272 351.374 20.0674 351.292Z" fill="white"/>
<path d="M18.7039 339.818C21.2478 339.818 23.3217 341.84 23.3217 344.332C23.3217 346.816 21.2478 348.845 18.7039 348.845C16.1599 348.845 14.0859 346.824 14.0859 344.332C14.0859 341.84 16.1599 339.818 18.7039 339.818Z" fill="#008C95"/>
<path d="M188.798 347.368C188.798 357.261 180.778 365.273 170.893 365.273C161.001 365.273 152.988 357.261 152.988 347.368C152.988 337.476 161.001 329.464 170.893 329.464C180.778 329.464 188.798 337.484 188.798 347.368Z" fill="white"/>
<path d="M177.922 336.992H163.859V357.754H177.922V336.992Z" fill="#77E2C3"/>
<path d="M179.076 340.028H162.723V342.296H179.076V340.028Z" fill="#77E2C3"/>
<path d="M177.922 340.028H163.859V342.296H177.922V340.028Z" fill="#008C95"/>
<path d="M179.076 352.434H162.723V354.701H179.076V352.434Z" fill="#77E2C3"/>
<path d="M177.922 352.434H163.859V354.701H177.922V352.434Z" fill="#008C95"/>
<path d="M173.425 348.547C173.425 349.942 172.291 351.076 170.896 351.076C169.501 351.076 168.367 349.942 168.367 348.547C168.367 347.152 170.896 343.646 170.896 343.646C170.896 343.646 173.425 347.145 173.425 348.547Z" fill="#008C95"/>
<path d="M138.063 398.119C138.063 408.011 130.043 416.024 120.159 416.024C110.266 416.024 102.254 408.011 102.254 398.119C102.254 388.234 110.266 380.214 120.159 380.214C130.043 380.214 138.063 388.234 138.063 398.119Z" fill="white"/>
<path d="M131.649 408.192C124.651 408.192 121.443 406.573 118.609 405.14C116.035 403.842 113.804 402.716 108.798 402.947L108.664 400.037C114.431 399.776 117.221 401.179 119.922 402.544C122.592 403.894 125.353 405.282 131.649 405.282V408.192Z" fill="#008C95"/>
<path d="M131.648 400.574C124.598 400.574 121.868 399.052 119.466 397.702C117.28 396.478 115.221 395.329 108.73 395.329V390.286C116.534 390.286 119.399 391.89 121.928 393.3C124.069 394.494 125.911 395.531 131.648 395.531V400.574Z" fill="#008C95"/>
<path d="M131.633 395.828C125.344 395.768 122.95 394.448 120.63 393.165C118.22 391.837 115.945 390.584 108.73 390.584V388.062C116.594 388.062 119.264 389.532 121.846 390.957C123.987 392.135 126.008 393.247 131.663 393.307L131.633 395.828Z" fill="#77E2C3"/>
<path d="M138.063 448.842C138.063 458.734 130.043 466.746 120.159 466.746C110.266 466.746 102.254 458.734 102.254 448.842C102.254 438.949 110.266 430.937 120.159 430.937C130.043 430.937 138.063 438.949 138.063 448.842Z" fill="white"/>
<path d="M130.054 440.889H110.27V444.097H130.054V440.889Z" fill="#77E2C3"/>
<path d="M130.054 453.586H110.27V456.794H130.054V453.586Z" fill="#008C95"/>
<path d="M130.054 444.091H110.27V449.567H130.054V444.091Z" fill="#008C95"/>
<path d="M13.4941 309.391V310.464H5.96094V309.391H13.4941ZM6.17285 309.391V312.911H4.86719L4.86035 309.391H6.17285ZM14.6426 309.391L14.6289 312.904H13.3232V309.391H14.6426ZM12.2021 300.511V301.591H7.84082V300.511H12.2021ZM13.3369 300.511V310.464H12.0244V300.511H13.3369ZM7.38965 300.511H8.70898L8.50391 304.517C8.47656 305.118 8.4196 305.674 8.33301 306.185C8.24642 306.69 8.13932 307.153 8.01172 307.572C7.88411 307.992 7.73828 308.368 7.57422 308.7C7.41016 309.028 7.2347 309.313 7.04785 309.555C6.861 309.792 6.66504 309.988 6.45996 310.143C6.25944 310.293 6.05664 310.4 5.85156 310.464H5.25V309.391H5.67383C5.79232 309.263 5.92676 309.078 6.07715 308.837C6.2321 308.595 6.38477 308.283 6.53516 307.9C6.6901 307.513 6.82454 307.041 6.93848 306.485C7.05697 305.929 7.13672 305.273 7.17773 304.517L7.38965 300.511ZM15.668 306.848V306.69C15.668 306.157 15.7454 305.663 15.9004 305.207C16.0553 304.747 16.2786 304.348 16.5703 304.011C16.862 303.669 17.2152 303.405 17.6299 303.218C18.0446 303.026 18.5094 302.931 19.0244 302.931C19.5439 302.931 20.0111 303.026 20.4258 303.218C20.8451 303.405 21.2005 303.669 21.4922 304.011C21.7884 304.348 22.014 304.747 22.1689 305.207C22.3239 305.663 22.4014 306.157 22.4014 306.69V306.848C22.4014 307.381 22.3239 307.875 22.1689 308.331C22.014 308.787 21.7884 309.186 21.4922 309.527C21.2005 309.865 20.8473 310.129 20.4326 310.32C20.0225 310.507 19.5576 310.601 19.0381 310.601C18.5186 310.601 18.0514 310.507 17.6367 310.32C17.222 310.129 16.8665 309.865 16.5703 309.527C16.2786 309.186 16.0553 308.787 15.9004 308.331C15.7454 307.875 15.668 307.381 15.668 306.848ZM16.9326 306.69V306.848C16.9326 307.217 16.9759 307.565 17.0625 307.894C17.1491 308.217 17.279 308.504 17.4521 308.755C17.6299 309.006 17.8509 309.204 18.1152 309.35C18.3796 309.491 18.6872 309.562 19.0381 309.562C19.3844 309.562 19.6875 309.491 19.9473 309.35C20.2116 309.204 20.4303 309.006 20.6035 308.755C20.7767 308.504 20.9066 308.217 20.9932 307.894C21.0843 307.565 21.1299 307.217 21.1299 306.848V306.69C21.1299 306.326 21.0843 305.982 20.9932 305.658C20.9066 305.33 20.7744 305.041 20.5967 304.79C20.4235 304.535 20.2048 304.334 19.9404 304.188C19.6807 304.043 19.3753 303.97 19.0244 303.97C18.6781 303.97 18.3727 304.043 18.1084 304.188C17.8486 304.334 17.6299 304.535 17.4521 304.79C17.279 305.041 17.1491 305.33 17.0625 305.658C16.9759 305.982 16.9326 306.326 16.9326 306.69ZM25.252 304.489V313.308H23.9805V303.067H25.1426L25.252 304.489ZM30.2354 306.704V306.848C30.2354 307.385 30.1715 307.884 30.0439 308.345C29.9163 308.8 29.7295 309.197 29.4834 309.534C29.2419 309.871 28.9434 310.133 28.5879 310.32C28.2324 310.507 27.8245 310.601 27.3643 310.601C26.8949 310.601 26.4801 310.523 26.1201 310.368C25.7601 310.213 25.4548 309.988 25.2041 309.691C24.9535 309.395 24.7529 309.04 24.6025 308.625C24.4567 308.21 24.3564 307.743 24.3018 307.224V306.458C24.3564 305.911 24.459 305.421 24.6094 304.988C24.7598 304.555 24.958 304.186 25.2041 303.881C25.4548 303.571 25.7578 303.336 26.1133 303.177C26.4688 303.013 26.8789 302.931 27.3438 302.931C27.8086 302.931 28.221 303.022 28.5811 303.204C28.9411 303.382 29.2441 303.637 29.4902 303.97C29.7363 304.302 29.9209 304.701 30.0439 305.166C30.1715 305.626 30.2354 306.139 30.2354 306.704ZM28.9639 306.848V306.704C28.9639 306.335 28.9251 305.989 28.8477 305.665C28.7702 305.337 28.6494 305.05 28.4854 304.804C28.3258 304.553 28.1208 304.357 27.8701 304.216C27.6195 304.07 27.321 303.997 26.9746 303.997C26.6556 303.997 26.3776 304.052 26.1406 304.161C25.9082 304.271 25.71 304.419 25.5459 304.605C25.3818 304.788 25.2474 304.997 25.1426 305.234C25.0423 305.467 24.9671 305.708 24.917 305.959V307.729C25.0081 308.049 25.1357 308.349 25.2998 308.632C25.4639 308.91 25.6826 309.135 25.9561 309.309C26.2295 309.477 26.5736 309.562 26.9883 309.562C27.3301 309.562 27.624 309.491 27.8701 309.35C28.1208 309.204 28.3258 309.006 28.4854 308.755C28.6494 308.504 28.7702 308.217 28.8477 307.894C28.9251 307.565 28.9639 307.217 28.9639 306.848ZM31.5137 306.848V306.69C31.5137 306.157 31.5911 305.663 31.7461 305.207C31.901 304.747 32.1243 304.348 32.416 304.011C32.7077 303.669 33.0609 303.405 33.4756 303.218C33.8903 303.026 34.3551 302.931 34.8701 302.931C35.3896 302.931 35.8568 303.026 36.2715 303.218C36.6908 303.405 37.0462 303.669 37.3379 304.011C37.6341 304.348 37.8597 304.747 38.0146 305.207C38.1696 305.663 38.2471 306.157 38.2471 306.69V306.848C38.2471 307.381 38.1696 307.875 38.0146 308.331C37.8597 308.787 37.6341 309.186 37.3379 309.527C37.0462 309.865 36.693 310.129 36.2783 310.32C35.8682 310.507 35.4033 310.601 34.8838 310.601C34.3643 310.601 33.8971 310.507 33.4824 310.32C33.0677 310.129 32.7122 309.865 32.416 309.527C32.1243 309.186 31.901 308.787 31.7461 308.331C31.5911 307.875 31.5137 307.381 31.5137 306.848ZM32.7783 306.69V306.848C32.7783 307.217 32.8216 307.565 32.9082 307.894C32.9948 308.217 33.1247 308.504 33.2979 308.755C33.4756 309.006 33.6966 309.204 33.9609 309.35C34.2253 309.491 34.5329 309.562 34.8838 309.562C35.2301 309.562 35.5332 309.491 35.793 309.35C36.0573 309.204 36.276 309.006 36.4492 308.755C36.6224 308.504 36.7523 308.217 36.8389 307.894C36.93 307.565 36.9756 307.217 36.9756 306.848V306.69C36.9756 306.326 36.93 305.982 36.8389 305.658C36.7523 305.33 36.6201 305.041 36.4424 304.79C36.2692 304.535 36.0505 304.334 35.7861 304.188C35.5264 304.043 35.221 303.97 34.8701 303.97C34.5238 303.97 34.2184 304.043 33.9541 304.188C33.6943 304.334 33.4756 304.535 33.2979 304.79C33.1247 305.041 32.9948 305.33 32.9082 305.658C32.8216 305.982 32.7783 306.326 32.7783 306.69ZM41.9248 307.244L39.1221 303.067H40.6465L42.5605 306.13H44.0371L43.8525 307.244H41.9248ZM42.6152 307.114L40.4688 310.464H38.8691L41.8154 306.198L42.6152 307.114ZM44.6865 303.067V310.464H43.4219V303.067H44.6865ZM49 303.067L46.1973 307.244H44.2695L44.0713 306.13H45.5547L47.4688 303.067H49ZM47.6465 310.464L45.4932 307.114L46.3066 306.198L49.2461 310.464H47.6465ZM55.4326 306.273V307.299H51.5225V306.273H55.4326ZM51.7891 303.067V310.464H50.5244V303.067H51.7891ZM56.458 303.067V310.464H55.1865V303.067H56.458ZM58.1602 306.848V306.69C58.1602 306.157 58.2376 305.663 58.3926 305.207C58.5475 304.747 58.7708 304.348 59.0625 304.011C59.3542 303.669 59.7074 303.405 60.1221 303.218C60.5368 303.026 61.0016 302.931 61.5166 302.931C62.0361 302.931 62.5033 303.026 62.918 303.218C63.3372 303.405 63.6927 303.669 63.9844 304.011C64.2806 304.348 64.5062 304.747 64.6611 305.207C64.8161 305.663 64.8936 306.157 64.8936 306.69V306.848C64.8936 307.381 64.8161 307.875 64.6611 308.331C64.5062 308.787 64.2806 309.186 63.9844 309.527C63.6927 309.865 63.3395 310.129 62.9248 310.32C62.5146 310.507 62.0498 310.601 61.5303 310.601C61.0107 310.601 60.5436 310.507 60.1289 310.32C59.7142 310.129 59.3587 309.865 59.0625 309.527C58.7708 309.186 58.5475 308.787 58.3926 308.331C58.2376 307.875 58.1602 307.381 58.1602 306.848ZM59.4248 306.69V306.848C59.4248 307.217 59.4681 307.565 59.5547 307.894C59.6413 308.217 59.7712 308.504 59.9443 308.755C60.1221 309.006 60.3431 309.204 60.6074 309.35C60.8717 309.491 61.1794 309.562 61.5303 309.562C61.8766 309.562 62.1797 309.491 62.4395 309.35C62.7038 309.204 62.9225 309.006 63.0957 308.755C63.2689 308.504 63.3988 308.217 63.4854 307.894C63.5765 307.565 63.6221 307.217 63.6221 306.848V306.69C63.6221 306.326 63.5765 305.982 63.4854 305.658C63.3988 305.33 63.2666 305.041 63.0889 304.79C62.9157 304.535 62.6969 304.334 62.4326 304.188C62.1729 304.043 61.8675 303.97 61.5166 303.97C61.1702 303.97 60.8649 304.043 60.6006 304.188C60.3408 304.334 60.1221 304.535 59.9443 304.79C59.7712 305.041 59.6413 305.33 59.5547 305.658C59.4681 305.982 59.4248 306.326 59.4248 306.69ZM69.5488 310.601C69.0339 310.601 68.5667 310.514 68.1475 310.341C67.7327 310.163 67.375 309.915 67.0742 309.596C66.778 309.277 66.5501 308.898 66.3906 308.461C66.2311 308.023 66.1514 307.545 66.1514 307.025V306.738C66.1514 306.137 66.2402 305.601 66.418 305.132C66.5957 304.658 66.8372 304.257 67.1426 303.929C67.4479 303.601 67.7943 303.352 68.1816 303.184C68.569 303.015 68.9701 302.931 69.3848 302.931C69.9134 302.931 70.3691 303.022 70.752 303.204C71.1393 303.386 71.4561 303.642 71.7021 303.97C71.9482 304.293 72.1305 304.676 72.249 305.118C72.3675 305.556 72.4268 306.034 72.4268 306.554V307.121H66.9033V306.089H71.1621V305.993C71.1439 305.665 71.0755 305.346 70.957 305.036C70.8431 304.726 70.6608 304.471 70.4102 304.271C70.1595 304.07 69.8177 303.97 69.3848 303.97C69.0977 303.97 68.8333 304.031 68.5918 304.154C68.3503 304.273 68.1429 304.451 67.9697 304.688C67.7965 304.924 67.6621 305.214 67.5664 305.556C67.4707 305.897 67.4229 306.292 67.4229 306.738V307.025C67.4229 307.376 67.4707 307.707 67.5664 308.017C67.6667 308.322 67.8102 308.591 67.9971 308.823C68.1885 309.056 68.4186 309.238 68.6875 309.37C68.9609 309.502 69.2708 309.568 69.6172 309.568C70.0638 309.568 70.4421 309.477 70.752 309.295C71.0618 309.113 71.333 308.869 71.5654 308.563L72.3311 309.172C72.1715 309.413 71.9688 309.644 71.7227 309.862C71.4766 310.081 71.1735 310.259 70.8135 310.396C70.458 310.532 70.0365 310.601 69.5488 310.601ZM80.3359 309.562C80.6367 309.562 80.9147 309.5 81.1699 309.377C81.4251 309.254 81.6348 309.085 81.7988 308.871C81.9629 308.652 82.0563 308.404 82.0791 308.126H83.2822C83.2594 308.563 83.1113 308.971 82.8379 309.35C82.569 309.723 82.2158 310.026 81.7783 310.259C81.3408 310.487 80.86 310.601 80.3359 310.601C79.7799 310.601 79.2946 310.503 78.8799 310.307C78.4697 310.111 78.1279 309.842 77.8545 309.5C77.5856 309.158 77.3828 308.766 77.2461 308.324C77.1139 307.878 77.0479 307.406 77.0479 306.909V306.622C77.0479 306.125 77.1139 305.656 77.2461 305.214C77.3828 304.767 77.5856 304.373 77.8545 304.031C78.1279 303.689 78.4697 303.421 78.8799 303.225C79.2946 303.029 79.7799 302.931 80.3359 302.931C80.9147 302.931 81.4206 303.049 81.8535 303.286C82.2865 303.519 82.626 303.838 82.8721 304.243C83.1227 304.644 83.2594 305.1 83.2822 305.61H82.0791C82.0563 305.305 81.9697 305.029 81.8193 304.783C81.6735 304.537 81.473 304.341 81.2178 304.195C80.9671 304.045 80.6732 303.97 80.3359 303.97C79.9486 303.97 79.6227 304.047 79.3584 304.202C79.0986 304.353 78.8913 304.558 78.7363 304.817C78.5859 305.073 78.4766 305.357 78.4082 305.672C78.3444 305.982 78.3125 306.299 78.3125 306.622V306.909C78.3125 307.233 78.3444 307.552 78.4082 307.866C78.472 308.181 78.5791 308.465 78.7295 308.721C78.8844 308.976 79.0918 309.181 79.3516 309.336C79.6159 309.486 79.944 309.562 80.3359 309.562ZM87.7188 303.067V310.464H86.4473V303.067H87.7188ZM90.2002 303.067V304.093H84.0137V303.067H90.2002ZM92.709 304.489V313.308H91.4375V303.067H92.5996L92.709 304.489ZM97.6924 306.704V306.848C97.6924 307.385 97.6286 307.884 97.501 308.345C97.3734 308.8 97.1865 309.197 96.9404 309.534C96.6989 309.871 96.4004 310.133 96.0449 310.32C95.6895 310.507 95.2816 310.601 94.8213 310.601C94.3519 310.601 93.9372 310.523 93.5771 310.368C93.2171 310.213 92.9118 309.988 92.6611 309.691C92.4105 309.395 92.21 309.04 92.0596 308.625C91.9137 308.21 91.8135 307.743 91.7588 307.224V306.458C91.8135 305.911 91.916 305.421 92.0664 304.988C92.2168 304.555 92.415 304.186 92.6611 303.881C92.9118 303.571 93.2148 303.336 93.5703 303.177C93.9258 303.013 94.3359 302.931 94.8008 302.931C95.2656 302.931 95.6781 303.022 96.0381 303.204C96.3981 303.382 96.7012 303.637 96.9473 303.97C97.1934 304.302 97.3779 304.701 97.501 305.166C97.6286 305.626 97.6924 306.139 97.6924 306.704ZM96.4209 306.848V306.704C96.4209 306.335 96.3822 305.989 96.3047 305.665C96.2272 305.337 96.1064 305.05 95.9424 304.804C95.7829 304.553 95.5778 304.357 95.3271 304.216C95.0765 304.07 94.778 303.997 94.4316 303.997C94.1126 303.997 93.8346 304.052 93.5977 304.161C93.3652 304.271 93.167 304.419 93.0029 304.605C92.8389 304.788 92.7044 304.997 92.5996 305.234C92.4993 305.467 92.4242 305.708 92.374 305.959V307.729C92.4652 308.049 92.5928 308.349 92.7568 308.632C92.9209 308.91 93.1396 309.135 93.4131 309.309C93.6865 309.477 94.0306 309.562 94.4453 309.562C94.7871 309.562 95.0811 309.491 95.3271 309.35C95.5778 309.204 95.7829 309.006 95.9424 308.755C96.1064 308.504 96.2272 308.217 96.3047 307.894C96.3822 307.565 96.4209 307.217 96.4209 306.848ZM98.9707 306.848V306.69C98.9707 306.157 99.0482 305.663 99.2031 305.207C99.3581 304.747 99.5814 304.348 99.873 304.011C100.165 303.669 100.518 303.405 100.933 303.218C101.347 303.026 101.812 302.931 102.327 302.931C102.847 302.931 103.314 303.026 103.729 303.218C104.148 303.405 104.503 303.669 104.795 304.011C105.091 304.348 105.317 304.747 105.472 305.207C105.627 305.663 105.704 306.157 105.704 306.69V306.848C105.704 307.381 105.627 307.875 105.472 308.331C105.317 308.787 105.091 309.186 104.795 309.527C104.503 309.865 104.15 310.129 103.735 310.32C103.325 310.507 102.86 310.601 102.341 310.601C101.821 310.601 101.354 310.507 100.939 310.32C100.525 310.129 100.169 309.865 99.873 309.527C99.5814 309.186 99.3581 308.787 99.2031 308.331C99.0482 307.875 98.9707 307.381 98.9707 306.848ZM100.235 306.69V306.848C100.235 307.217 100.279 307.565 100.365 307.894C100.452 308.217 100.582 308.504 100.755 308.755C100.933 309.006 101.154 309.204 101.418 309.35C101.682 309.491 101.99 309.562 102.341 309.562C102.687 309.562 102.99 309.491 103.25 309.35C103.514 309.204 103.733 309.006 103.906 308.755C104.079 308.504 104.209 308.217 104.296 307.894C104.387 307.565 104.433 307.217 104.433 306.848V306.69C104.433 306.326 104.387 305.982 104.296 305.658C104.209 305.33 104.077 305.041 103.899 304.79C103.726 304.535 103.507 304.334 103.243 304.188C102.983 304.043 102.678 303.97 102.327 303.97C101.981 303.97 101.675 304.043 101.411 304.188C101.151 304.334 100.933 304.535 100.755 304.79C100.582 305.041 100.452 305.33 100.365 305.658C100.279 305.982 100.235 306.326 100.235 306.69ZM108.657 308.461L112.068 303.067H113.34V310.464H112.068V305.07L108.657 310.464H107.399V303.067H108.657V308.461ZM118.385 303.067V310.464H117.113V303.067H118.385ZM120.866 303.067V304.093H114.68V303.067H120.866ZM124.633 310.601C124.118 310.601 123.651 310.514 123.231 310.341C122.817 310.163 122.459 309.915 122.158 309.596C121.862 309.277 121.634 308.898 121.475 308.461C121.315 308.023 121.235 307.545 121.235 307.025V306.738C121.235 306.137 121.324 305.601 121.502 305.132C121.68 304.658 121.921 304.257 122.227 303.929C122.532 303.601 122.878 303.352 123.266 303.184C123.653 303.015 124.054 302.931 124.469 302.931C124.997 302.931 125.453 303.022 125.836 303.204C126.223 303.386 126.54 303.642 126.786 303.97C127.032 304.293 127.215 304.676 127.333 305.118C127.451 305.556 127.511 306.034 127.511 306.554V307.121H121.987V306.089H126.246V305.993C126.228 305.665 126.16 305.346 126.041 305.036C125.927 304.726 125.745 304.471 125.494 304.271C125.243 304.07 124.902 303.97 124.469 303.97C124.182 303.97 123.917 304.031 123.676 304.154C123.434 304.273 123.227 304.451 123.054 304.688C122.881 304.924 122.746 305.214 122.65 305.556C122.555 305.897 122.507 306.292 122.507 306.738V307.025C122.507 307.376 122.555 307.707 122.65 308.017C122.751 308.322 122.894 308.591 123.081 308.823C123.272 309.056 123.503 309.238 123.771 309.37C124.045 309.502 124.355 309.568 124.701 309.568C125.148 309.568 125.526 309.477 125.836 309.295C126.146 309.113 126.417 308.869 126.649 308.563L127.415 309.172C127.256 309.413 127.053 309.644 126.807 309.862C126.561 310.081 126.257 310.259 125.897 310.396C125.542 310.532 125.12 310.601 124.633 310.601ZM133.93 303.067V304.113H130.354V303.067H133.93ZM135.044 303.067V310.464H133.779V303.067H135.044ZM130.047 303.067H131.318L131.127 306.636C131.095 307.187 131.043 307.675 130.97 308.099C130.901 308.518 130.806 308.878 130.683 309.179C130.564 309.479 130.414 309.726 130.231 309.917C130.054 310.104 129.84 310.243 129.589 310.334C129.338 310.421 129.049 310.464 128.721 310.464H128.324V309.35L128.598 309.329C128.794 309.315 128.96 309.27 129.097 309.192C129.238 309.115 129.356 309.001 129.452 308.851C129.548 308.696 129.625 308.497 129.685 308.256C129.748 308.014 129.796 307.727 129.828 307.395C129.865 307.062 129.892 306.674 129.91 306.232L130.047 303.067ZM138.12 305.61H140.342C140.939 305.61 141.442 305.715 141.853 305.925C142.263 306.13 142.573 306.415 142.782 306.779C142.996 307.139 143.104 307.549 143.104 308.01C143.104 308.352 143.044 308.673 142.926 308.974C142.807 309.27 142.63 309.53 142.393 309.753C142.16 309.976 141.871 310.152 141.524 310.279C141.183 310.402 140.788 310.464 140.342 310.464H137.197V303.067H138.462V309.425H140.342C140.706 309.425 140.998 309.359 141.217 309.227C141.436 309.094 141.593 308.924 141.688 308.714C141.784 308.504 141.832 308.285 141.832 308.058C141.832 307.834 141.784 307.616 141.688 307.401C141.593 307.187 141.436 307.009 141.217 306.868C140.998 306.722 140.706 306.649 140.342 306.649H138.12V305.61ZM147.643 309.562C147.943 309.562 148.221 309.5 148.477 309.377C148.732 309.254 148.941 309.085 149.105 308.871C149.27 308.652 149.363 308.404 149.386 308.126H150.589C150.566 308.563 150.418 308.971 150.145 309.35C149.876 309.723 149.522 310.026 149.085 310.259C148.647 310.487 148.167 310.601 147.643 310.601C147.087 310.601 146.601 310.503 146.187 310.307C145.776 310.111 145.435 309.842 145.161 309.5C144.892 309.158 144.689 308.766 144.553 308.324C144.421 307.878 144.354 307.406 144.354 306.909V306.622C144.354 306.125 144.421 305.656 144.553 305.214C144.689 304.767 144.892 304.373 145.161 304.031C145.435 303.689 145.776 303.421 146.187 303.225C146.601 303.029 147.087 302.931 147.643 302.931C148.221 302.931 148.727 303.049 149.16 303.286C149.593 303.519 149.933 303.838 150.179 304.243C150.429 304.644 150.566 305.1 150.589 305.61H149.386C149.363 305.305 149.276 305.029 149.126 304.783C148.98 304.537 148.78 304.341 148.524 304.195C148.274 304.045 147.98 303.97 147.643 303.97C147.255 303.97 146.929 304.047 146.665 304.202C146.405 304.353 146.198 304.558 146.043 304.817C145.893 305.073 145.783 305.357 145.715 305.672C145.651 305.982 145.619 306.299 145.619 306.622V306.909C145.619 307.233 145.651 307.552 145.715 307.866C145.779 308.181 145.886 308.465 146.036 308.721C146.191 308.976 146.398 309.181 146.658 309.336C146.923 309.486 147.251 309.562 147.643 309.562ZM155.025 303.067V310.464H153.754V303.067H155.025ZM157.507 303.067V304.093H151.32V303.067H157.507ZM162.224 307.21H159.797L159.783 306.198H161.766C162.158 306.198 162.483 306.16 162.743 306.082C163.007 306.005 163.206 305.888 163.338 305.733C163.47 305.578 163.536 305.387 163.536 305.159C163.536 304.981 163.497 304.826 163.42 304.694C163.347 304.558 163.235 304.446 163.085 304.359C162.935 304.268 162.748 304.202 162.524 304.161C162.306 304.116 162.048 304.093 161.752 304.093H160.132V310.464H158.867V303.067H161.752C162.221 303.067 162.643 303.108 163.017 303.19C163.395 303.272 163.716 303.398 163.98 303.566C164.249 303.73 164.454 303.94 164.596 304.195C164.737 304.451 164.808 304.751 164.808 305.098C164.808 305.321 164.762 305.533 164.671 305.733C164.58 305.934 164.445 306.112 164.268 306.267C164.09 306.422 163.871 306.549 163.611 306.649C163.352 306.745 163.053 306.807 162.716 306.834L162.224 307.21ZM162.224 310.464H159.339L159.968 309.438H162.224C162.575 309.438 162.866 309.395 163.099 309.309C163.331 309.217 163.504 309.09 163.618 308.926C163.737 308.757 163.796 308.557 163.796 308.324C163.796 308.092 163.737 307.894 163.618 307.729C163.504 307.561 163.331 307.433 163.099 307.347C162.866 307.256 162.575 307.21 162.224 307.21H160.303L160.316 306.198H162.716L163.174 306.581C163.579 306.613 163.924 306.713 164.206 306.882C164.489 307.05 164.703 307.265 164.849 307.524C164.994 307.78 165.067 308.058 165.067 308.358C165.067 308.705 165.001 309.01 164.869 309.274C164.742 309.539 164.555 309.76 164.309 309.938C164.062 310.111 163.764 310.243 163.413 310.334C163.062 310.421 162.666 310.464 162.224 310.464ZM166.428 306.848V306.69C166.428 306.157 166.505 305.663 166.66 305.207C166.815 304.747 167.038 304.348 167.33 304.011C167.622 303.669 167.975 303.405 168.39 303.218C168.804 303.026 169.269 302.931 169.784 302.931C170.304 302.931 170.771 303.026 171.186 303.218C171.605 303.405 171.96 303.669 172.252 304.011C172.548 304.348 172.774 304.747 172.929 305.207C173.084 305.663 173.161 306.157 173.161 306.69V306.848C173.161 307.381 173.084 307.875 172.929 308.331C172.774 308.787 172.548 309.186 172.252 309.527C171.96 309.865 171.607 310.129 171.192 310.32C170.782 310.507 170.317 310.601 169.798 310.601C169.278 310.601 168.811 310.507 168.396 310.32C167.982 310.129 167.626 309.865 167.33 309.527C167.038 309.186 166.815 308.787 166.66 308.331C166.505 307.875 166.428 307.381 166.428 306.848ZM167.692 306.69V306.848C167.692 307.217 167.736 307.565 167.822 307.894C167.909 308.217 168.039 308.504 168.212 308.755C168.39 309.006 168.611 309.204 168.875 309.35C169.139 309.491 169.447 309.562 169.798 309.562C170.144 309.562 170.447 309.491 170.707 309.35C170.971 309.204 171.19 309.006 171.363 308.755C171.536 308.504 171.666 308.217 171.753 307.894C171.844 307.565 171.89 307.217 171.89 306.848V306.69C171.89 306.326 171.844 305.982 171.753 305.658C171.666 305.33 171.534 305.041 171.356 304.79C171.183 304.535 170.965 304.334 170.7 304.188C170.44 304.043 170.135 303.97 169.784 303.97C169.438 303.97 169.132 304.043 168.868 304.188C168.608 304.334 168.39 304.535 168.212 304.79C168.039 305.041 167.909 305.33 167.822 305.658C167.736 305.982 167.692 306.326 167.692 306.69Z" fill="white"/>
</svg>
