<svg viewBox="0 0 1670 273" fill="none" xmlns="http://www.w3.org/2000/svg">
<path d="M136.537 84.2804C136.537 99.8914 123.882 112.535 108.282 112.535C92.6715 112.535 80.0273 99.8914 80.0273 84.2804C80.0273 68.6813 92.6715 56.0254 108.282 56.0254C123.882 56.0254 136.537 68.6813 136.537 84.2804Z" fill="white"/>
<path d="M103.025 86.0703H92.5V100.233H103.025V86.0703Z" fill="#77E2C3"/>
<path d="M113.548 78.8535H103.023V89.5434H113.548V78.8535Z" fill="#008C95"/>
<path d="M124.072 68.3301H113.547V100.235H124.072V68.3301Z" fill="#77E2C3"/>
<path d="M124.072 89.543H113.547V100.233H124.072V89.543Z" fill="#008C95"/>
<path d="M124.072 68.3301H113.547V79.0199H124.072V68.3301Z" fill="#008C95"/>
<path d="M56.5101 84.2804C56.5101 99.8914 43.8542 112.535 28.255 112.535C12.6441 112.535 0 99.8914 0 84.2804C0 68.6813 12.6441 56.0254 28.255 56.0254C43.8542 56.0254 56.5101 68.6813 56.5101 84.2804Z" fill="white"/>
<path d="M21.0845 88.6917L19.6172 90.8262L29.9111 97.9024L31.3783 95.7679L21.0845 88.6917Z" fill="#77E2C3"/>
<path d="M29.8833 81.3803L19.5938 87.9941L20.9942 90.1729L31.2838 83.559L29.8833 81.3803Z" fill="#77E2C3"/>
<path d="M43.2307 79.0293H40.6406V86.8819H43.2307V79.0293Z" fill="#77E2C3"/>
<path d="M46.8412 86.8848H37.2109V95.3142H46.8412V86.8848Z" fill="#008C95"/>
<path d="M31.8902 101.622H29.312V78.9943H20.9885V101.622H18.3984V76.4043H31.8902V101.622Z" fill="#77E2C3"/>
<path d="M45.8658 79.0322V74.8646L21.9904 66.9414L9.66406 73.4872V79.0322H45.8658Z" fill="#77E2C3"/>
<path d="M21.9892 66.9414L18.3984 68.8486V79.0322H31.8902V70.2261L21.9892 66.9414Z" fill="#008C95"/>
<path d="M17.0068 14.7959V16.0088C17.0068 17.4502 16.8267 18.7422 16.4663 19.8848C16.106 21.0273 15.5874 21.9985 14.9106 22.7983C14.2339 23.5981 13.4209 24.209 12.4717 24.6309C11.5312 25.0527 10.4766 25.2637 9.30762 25.2637C8.17383 25.2637 7.13232 25.0527 6.18311 24.6309C5.24268 24.209 4.42529 23.5981 3.73096 22.7983C3.04541 21.9985 2.51367 21.0273 2.13574 19.8848C1.75781 18.7422 1.56885 17.4502 1.56885 16.0088V14.7959C1.56885 13.3545 1.75342 12.0669 2.12256 10.9331C2.50049 9.79053 3.03223 8.81934 3.71777 8.01953C4.40332 7.21094 5.21631 6.5957 6.15674 6.17383C7.10596 5.75195 8.14746 5.54102 9.28125 5.54102C10.4502 5.54102 11.5049 5.75195 12.4453 6.17383C13.3945 6.5957 14.2075 7.21094 14.8843 8.01953C15.5698 8.81934 16.0928 9.79053 16.4531 10.9331C16.8223 12.0669 17.0068 13.3545 17.0068 14.7959ZM14.4888 16.0088V14.7695C14.4888 13.627 14.3701 12.6162 14.1328 11.7373C13.9043 10.8584 13.5659 10.1201 13.1177 9.52246C12.6694 8.9248 12.1201 8.47217 11.4697 8.16455C10.8281 7.85693 10.0986 7.70312 9.28125 7.70312C8.49023 7.70312 7.77393 7.85693 7.13232 8.16455C6.49951 8.47217 5.95459 8.9248 5.49756 9.52246C5.04932 10.1201 4.70215 10.8584 4.45605 11.7373C4.20996 12.6162 4.08691 13.627 4.08691 14.7695V16.0088C4.08691 17.1602 4.20996 18.1797 4.45605 19.0674C4.70215 19.9463 5.05371 20.689 5.51074 21.2954C5.97656 21.8931 6.52588 22.3457 7.15869 22.6533C7.80029 22.9609 8.5166 23.1147 9.30762 23.1147C10.1338 23.1147 10.8677 22.9609 11.5093 22.6533C12.1509 22.3457 12.6914 21.8931 13.1309 21.2954C13.5791 20.689 13.9175 19.9463 14.146 19.0674C14.3745 18.1797 14.4888 17.1602 14.4888 16.0088ZM29.5972 4.52588H31.6011C31.6011 5.38721 31.4692 6.07275 31.2056 6.58252C30.9419 7.0835 30.5815 7.47021 30.1245 7.74268C29.6763 8.01514 29.1665 8.22168 28.5952 8.3623C28.0327 8.50293 27.4482 8.63916 26.8418 8.771C26.0859 8.9292 25.3828 9.17969 24.7324 9.52246C24.0908 9.85645 23.5371 10.3311 23.0713 10.9463C22.6143 11.5615 22.2759 12.3613 22.0562 13.3457C21.8452 14.3301 21.7881 15.5474 21.8848 16.9976V18.2104H19.8809V16.9976C19.8809 15.3716 20.0347 13.9521 20.3423 12.7393C20.6587 11.5264 21.1025 10.5024 21.6738 9.66748C22.2451 8.83252 22.9219 8.16895 23.7041 7.67676C24.4951 7.18457 25.3652 6.84619 26.3145 6.66162C27 6.52979 27.5889 6.38916 28.0811 6.23975C28.5732 6.08154 28.9468 5.87061 29.2017 5.60693C29.4653 5.34326 29.5972 4.98291 29.5972 4.52588ZM26.71 11.5527C27.6416 11.5527 28.4722 11.7153 29.2017 12.0405C29.9312 12.3657 30.5508 12.8184 31.0605 13.3984C31.5703 13.9785 31.957 14.6641 32.2207 15.4551C32.4932 16.2373 32.6294 17.0898 32.6294 18.0127V18.3027C32.6294 19.2959 32.4844 20.2188 32.1943 21.0713C31.9131 21.915 31.4956 22.6533 30.9419 23.2861C30.397 23.9102 29.729 24.3979 28.938 24.7495C28.1558 25.1011 27.2637 25.2769 26.2617 25.2769C25.2598 25.2769 24.3633 25.1011 23.5723 24.7495C22.79 24.3979 22.1221 23.9102 21.5684 23.2861C21.0146 22.6533 20.5928 21.915 20.3027 21.0713C20.0215 20.2188 19.8809 19.2959 19.8809 18.3027V18.0127C19.8809 17.793 19.9204 17.5776 19.9995 17.3667C20.0786 17.1558 20.1753 16.9404 20.2896 16.7207C20.4126 16.501 20.5225 16.2681 20.6191 16.022C20.9443 15.231 21.3882 14.4971 21.9507 13.8203C22.522 13.1436 23.2031 12.5986 23.9941 12.1855C24.7939 11.7637 25.6992 11.5527 26.71 11.5527ZM26.2354 13.5435C25.3389 13.5435 24.6006 13.75 24.0205 14.1631C23.4492 14.5762 23.0229 15.1255 22.7417 15.811C22.4604 16.4878 22.3198 17.2217 22.3198 18.0127V18.3027C22.3198 18.9707 22.3989 19.6035 22.5571 20.2012C22.7153 20.7988 22.9526 21.3306 23.269 21.7964C23.5942 22.2534 24.0029 22.6138 24.4951 22.8774C24.9961 23.1411 25.585 23.2729 26.2617 23.2729C26.9385 23.2729 27.5229 23.1411 28.0151 22.8774C28.5073 22.6138 28.9116 22.2534 29.228 21.7964C29.5444 21.3306 29.7817 20.7988 29.9399 20.2012C30.0981 19.6035 30.1772 18.9707 30.1772 18.3027V18.0127C30.1772 17.415 30.0981 16.8481 29.9399 16.312C29.7817 15.7759 29.54 15.3013 29.2148 14.8882C28.8984 14.4751 28.4897 14.1499 27.9888 13.9126C27.4966 13.6665 26.9121 13.5435 26.2354 13.5435ZM41.4492 18.0259V17.7227C41.4492 16.6943 41.5986 15.7407 41.8975 14.8618C42.1963 13.9741 42.627 13.2051 43.1895 12.5547C43.752 11.8955 44.4331 11.3857 45.2329 11.0254C46.0327 10.6562 46.9292 10.4717 47.9224 10.4717C48.9243 10.4717 49.8252 10.6562 50.625 11.0254C51.4336 11.3857 52.1191 11.8955 52.6816 12.5547C53.2529 13.2051 53.688 13.9741 53.9868 14.8618C54.2856 15.7407 54.4351 16.6943 54.4351 17.7227V18.0259C54.4351 19.0542 54.2856 20.0078 53.9868 20.8867C53.688 21.7656 53.2529 22.5347 52.6816 23.1938C52.1191 23.8442 51.438 24.354 50.6382 24.7231C49.8472 25.0835 48.9507 25.2637 47.9487 25.2637C46.9468 25.2637 46.0459 25.0835 45.2461 24.7231C44.4463 24.354 43.7607 23.8442 43.1895 23.1938C42.627 22.5347 42.1963 21.7656 41.8975 20.8867C41.5986 20.0078 41.4492 19.0542 41.4492 18.0259ZM43.8882 17.7227V18.0259C43.8882 18.7378 43.9717 19.4102 44.1387 20.043C44.3057 20.667 44.5562 21.2207 44.8901 21.7041C45.2329 22.1875 45.6592 22.5698 46.1689 22.8511C46.6787 23.1235 47.272 23.2598 47.9487 23.2598C48.6167 23.2598 49.2012 23.1235 49.7021 22.8511C50.2119 22.5698 50.6338 22.1875 50.9678 21.7041C51.3018 21.2207 51.5522 20.667 51.7192 20.043C51.895 19.4102 51.9829 18.7378 51.9829 18.0259V17.7227C51.9829 17.0195 51.895 16.356 51.7192 15.7319C51.5522 15.0991 51.2974 14.541 50.9546 14.0576C50.6206 13.5654 50.1987 13.1787 49.689 12.8975C49.188 12.6162 48.5991 12.4756 47.9224 12.4756C47.2544 12.4756 46.6655 12.6162 46.1558 12.8975C45.6548 13.1787 45.2329 13.5654 44.8901 14.0576C44.5562 14.541 44.3057 15.0991 44.1387 15.7319C43.9717 16.356 43.8882 17.0195 43.8882 17.7227ZM63.0176 10.7354V25H60.5654V10.7354H63.0176ZM67.8032 10.7354V12.7129H55.8721V10.7354H67.8032ZM72.6416 13.4775V30.4844H70.1895V10.7354H72.4307L72.6416 13.4775ZM82.2524 17.749V18.0259C82.2524 19.063 82.1294 20.0254 81.8833 20.9131C81.6372 21.792 81.2769 22.5566 80.8022 23.207C80.3364 23.8574 79.7607 24.3628 79.0752 24.7231C78.3896 25.0835 77.603 25.2637 76.7153 25.2637C75.8101 25.2637 75.0103 25.1143 74.3159 24.8154C73.6216 24.5166 73.0327 24.0815 72.5493 23.5103C72.0659 22.939 71.6792 22.2534 71.3892 21.4536C71.1079 20.6538 70.9146 19.7529 70.8091 18.751V17.2744C70.9146 16.2197 71.1123 15.2749 71.4023 14.4399C71.6924 13.605 72.0747 12.8931 72.5493 12.3042C73.0327 11.7065 73.6172 11.2539 74.3027 10.9463C74.9883 10.6299 75.7793 10.4717 76.6758 10.4717C77.5723 10.4717 78.3677 10.6475 79.062 10.999C79.7563 11.3418 80.3408 11.834 80.8154 12.4756C81.29 13.1172 81.646 13.8862 81.8833 14.7827C82.1294 15.6704 82.2524 16.6592 82.2524 17.749ZM79.8003 18.0259V17.749C79.8003 17.0371 79.7256 16.3691 79.5762 15.7451C79.4268 15.1123 79.1938 14.5586 78.8774 14.084C78.5698 13.6006 78.1743 13.2227 77.6909 12.9502C77.2075 12.6689 76.6318 12.5283 75.9639 12.5283C75.3486 12.5283 74.8125 12.6338 74.3555 12.8447C73.9072 13.0557 73.5249 13.3413 73.2085 13.7017C72.8921 14.0532 72.6328 14.4575 72.4307 14.9146C72.2373 15.3628 72.0923 15.8286 71.9956 16.312V19.7266C72.1714 20.3418 72.4175 20.9219 72.7339 21.4668C73.0503 22.0029 73.4722 22.438 73.9995 22.772C74.5269 23.0972 75.1904 23.2598 75.9902 23.2598C76.6494 23.2598 77.2163 23.1235 77.6909 22.8511C78.1743 22.5698 78.5698 22.1875 78.8774 21.7041C79.1938 21.2207 79.4268 20.667 79.5762 20.043C79.7256 19.4102 79.8003 18.7378 79.8003 18.0259ZM93.7749 22.561V15.2178C93.7749 14.6553 93.6606 14.1675 93.4321 13.7544C93.2124 13.3325 92.8784 13.0073 92.4302 12.7788C91.9819 12.5503 91.4282 12.436 90.769 12.436C90.1538 12.436 89.6133 12.5415 89.1475 12.7524C88.6904 12.9634 88.3301 13.2402 88.0664 13.583C87.8115 13.9258 87.6841 14.2949 87.6841 14.6904H85.2451C85.2451 14.1807 85.377 13.6753 85.6406 13.1743C85.9043 12.6733 86.2822 12.2207 86.7744 11.8164C87.2754 11.4033 87.873 11.0781 88.5674 10.8408C89.2705 10.5947 90.0527 10.4717 90.9141 10.4717C91.9512 10.4717 92.8652 10.6475 93.6562 10.999C94.4561 11.3506 95.0801 11.8823 95.5283 12.5942C95.9854 13.2974 96.2139 14.1807 96.2139 15.2441V21.8887C96.2139 22.3633 96.2534 22.8687 96.3325 23.4048C96.4204 23.9409 96.5479 24.4023 96.7148 24.7891V25H94.1704C94.0474 24.7188 93.9507 24.3452 93.8804 23.8794C93.8101 23.4048 93.7749 22.9653 93.7749 22.561ZM94.1968 16.3516L94.2231 18.0654H91.7578C91.0635 18.0654 90.4438 18.1226 89.8989 18.2368C89.354 18.3423 88.897 18.5049 88.5278 18.7246C88.1587 18.9443 87.8774 19.2212 87.6841 19.5552C87.4907 19.8804 87.394 20.2627 87.394 20.7021C87.394 21.1504 87.4951 21.5591 87.6973 21.9282C87.8994 22.2974 88.2026 22.5918 88.6069 22.8115C89.02 23.0225 89.5254 23.1279 90.123 23.1279C90.8701 23.1279 91.5293 22.9697 92.1006 22.6533C92.6719 22.3369 93.1245 21.9502 93.4585 21.4932C93.8013 21.0361 93.9858 20.5923 94.0122 20.1616L95.0537 21.335C94.9922 21.7041 94.8252 22.1128 94.5527 22.561C94.2803 23.0093 93.9155 23.4399 93.4585 23.853C93.0103 24.2573 92.4741 24.5957 91.8501 24.8682C91.2349 25.1318 90.5405 25.2637 89.7671 25.2637C88.8003 25.2637 87.9521 25.0747 87.2227 24.6968C86.502 24.3188 85.9395 23.8135 85.5352 23.1807C85.1396 22.5391 84.9419 21.8228 84.9419 21.0317C84.9419 20.2671 85.0913 19.5947 85.3901 19.0146C85.689 18.4258 86.1196 17.938 86.6821 17.5513C87.2446 17.1558 87.9214 16.8569 88.7124 16.6548C89.5034 16.4526 90.3867 16.3516 91.3623 16.3516H94.1968ZM105.759 23.2598C106.339 23.2598 106.875 23.1411 107.367 22.9038C107.859 22.6665 108.264 22.3413 108.58 21.9282C108.896 21.5063 109.077 21.0273 109.121 20.4912H111.441C111.397 21.335 111.111 22.1216 110.584 22.8511C110.065 23.5718 109.384 24.1562 108.541 24.6045C107.697 25.0439 106.77 25.2637 105.759 25.2637C104.687 25.2637 103.75 25.0747 102.951 24.6968C102.16 24.3188 101.5 23.8003 100.973 23.1411C100.455 22.4819 100.063 21.7261 99.7998 20.8735C99.5449 20.0122 99.4175 19.1025 99.4175 18.1445V17.5908C99.4175 16.6328 99.5449 15.7275 99.7998 14.875C100.063 14.0137 100.455 13.2534 100.973 12.5942C101.5 11.9351 102.16 11.4165 102.951 11.0386C103.75 10.6606 104.687 10.4717 105.759 10.4717C106.875 10.4717 107.851 10.7002 108.686 11.1572C109.521 11.6055 110.175 12.2207 110.65 13.0029C111.133 13.7764 111.397 14.6553 111.441 15.6396H109.121C109.077 15.0508 108.91 14.519 108.62 14.0444C108.338 13.5698 107.952 13.1919 107.459 12.9106C106.976 12.6206 106.409 12.4756 105.759 12.4756C105.012 12.4756 104.383 12.625 103.874 12.9238C103.373 13.2139 102.973 13.6094 102.674 14.1104C102.384 14.6025 102.173 15.1519 102.041 15.7583C101.918 16.356 101.856 16.9668 101.856 17.5908V18.1445C101.856 18.7686 101.918 19.3838 102.041 19.9902C102.164 20.5967 102.371 21.146 102.661 21.6382C102.959 22.1304 103.359 22.5259 103.86 22.8247C104.37 23.1147 105.003 23.2598 105.759 23.2598ZM123.715 10.7354V12.7524H116.82V10.7354H123.715ZM125.864 10.7354V25H123.425V10.7354H125.864ZM116.227 10.7354H118.679L118.31 17.6172C118.248 18.6807 118.147 19.6211 118.006 20.4385C117.875 21.2471 117.69 21.9414 117.453 22.5215C117.224 23.1016 116.934 23.5762 116.583 23.9453C116.24 24.3057 115.827 24.5737 115.343 24.7495C114.86 24.9165 114.302 25 113.669 25H112.904V22.8511L113.432 22.8115C113.81 22.7852 114.13 22.6973 114.394 22.5479C114.667 22.3984 114.895 22.1787 115.08 21.8887C115.264 21.5898 115.414 21.2075 115.528 20.7417C115.651 20.2759 115.743 19.7222 115.805 19.0806C115.875 18.439 115.928 17.6919 115.963 16.8394L116.227 10.7354ZM132.429 21.1372L139.008 10.7354H141.46V25H139.008V14.5981L132.429 25H130.003V10.7354H132.429V21.1372Z" fill="#008C95"/>
<path d="M728.592 244.392C728.592 260.003 715.936 272.647 700.337 272.647C684.726 272.647 672.082 260.003 672.082 244.392C672.082 228.793 684.726 216.137 700.337 216.137C715.948 216.137 728.592 228.781 728.592 244.392Z" fill="white"/>
<path d="M682.309 261.521V227.309L695.883 230.122V258.342L682.309 261.521ZM687.23 233.301V255.375L690.985 254.422V234.16L687.23 233.301Z" fill="#77E2C3"/>
<path d="M704.112 261.358H682.309V227.252H704.112V261.358ZM687.23 256.449H699.203V232.173H687.23V256.449Z" fill="#77E2C3"/>
<path d="M695.895 258.342V256.447H687.23V255.375V233.301V232.171H695.895V230.122L682.309 227.309V261.356H683.003L695.895 258.342Z" fill="#008C95"/>
<path d="M718.358 261.358H699.203V227.252H718.358V261.358ZM704.112 256.449H713.437V232.173H704.112V256.449Z" fill="#77E2C3"/>
<path d="M704.112 227.9V227.252H699.203V227.9V231.526V232.173H704.112V231.526V227.9Z" fill="#008C95"/>
<path d="M704.112 257.097V256.449H699.203V257.097V260.723V261.359H704.112V260.723V257.097Z" fill="#008C95"/>
<path d="M648.522 84.2804C648.522 99.8914 635.866 112.535 620.267 112.535C604.656 112.535 592.012 99.8914 592.012 84.2804C592.012 68.6813 604.656 56.0254 620.267 56.0254C635.866 56.0254 648.522 68.6813 648.522 84.2804Z" fill="white"/>
<path d="M642.103 83.164L622.49 69.5898L598.426 86.225L612.718 96.1496V96.1143L618.252 99.9876L642.103 83.164Z" fill="#77E2C3"/>
<path d="M626.05 83.2324L619.445 89.8253L626.05 94.405V83.2324Z" fill="#008C95"/>
<path d="M619.444 78.6191L612.84 85.212L619.444 89.8034V78.6191Z" fill="#008C95"/>
<path d="M612.839 74.0391L606.234 80.6319L612.839 85.2116V74.0391Z" fill="#008C95"/>
<path d="M619.444 78.6188L612.84 74.0391V85.2116L619.444 78.6188Z" fill="#77E2C3"/>
<path d="M626.05 83.2106L619.445 78.6191V89.8034L626.05 83.2106Z" fill="#77E2C3"/>
<path d="M634.277 77.7363L627.602 84.2821L634.171 88.7676L634.277 77.7363Z" fill="#008C95"/>
<path d="M627.671 73.1562L621.066 79.7491L627.671 84.3288V73.1562Z" fill="#008C95"/>
<path d="M621.066 68.5625L614.461 75.1671L621.066 79.7468V68.5625Z" fill="#008C95"/>
<path d="M627.671 73.1539L621.066 68.5625V79.7468L627.671 73.1539Z" fill="#77E2C3"/>
<path d="M634.276 77.7359L627.672 73.1562V84.3288L634.276 77.7359Z" fill="#77E2C3"/>
<path d="M626.091 94.4537L618.227 88.8145V99.9987L626.091 94.4537Z" fill="#77E2C3"/>
<path d="M618.23 88.8145L611.625 95.4191L618.23 99.9987V88.8145Z" fill="#008C95"/>
<path d="M611.628 84.2109L605.023 90.8038L611.628 95.3952V84.2109Z" fill="#008C95"/>
<path d="M618.23 88.8024L611.625 84.2109V95.3952L618.23 88.8024Z" fill="#77E2C3"/>
<path d="M605.019 79.6191L598.426 86.2238L605.019 90.8034V79.6191Z" fill="#008C95"/>
<path d="M611.628 84.2106L605.023 79.6191V90.8034L611.628 84.2106Z" fill="#77E2C3"/>
<path d="M568.51 164.335C568.51 179.946 555.854 192.59 540.255 192.59C524.644 192.59 512 179.946 512 164.335C512 148.736 524.644 136.08 540.255 136.08C555.854 136.08 568.51 148.736 568.51 164.335Z" fill="white"/>
<path d="M545.347 178.793H525.191V173.554H545.347C547.089 173.554 548.502 172.142 548.502 170.399C548.502 168.657 547.089 167.244 545.347 167.244H536.14C531.514 167.244 527.746 163.477 527.746 158.85V158.273C527.746 153.646 531.514 149.879 536.14 149.879H555.33V155.118H536.14C534.398 155.118 532.985 156.531 532.985 158.273V158.85C532.985 160.592 534.398 162.005 536.14 162.005H545.347C549.973 162.005 553.741 165.772 553.741 170.399C553.741 175.026 549.973 178.793 545.347 178.793Z" fill="#77E2C3"/>
<path d="M543.676 159.32H538.438V169.998H543.676V159.32Z" fill="#77E2C3"/>
<path d="M543.676 162.008H538.438V167.247H543.676V162.008Z" fill="#008C95"/>
<path d="M550.739 147.174H545.5V157.852H550.739V147.174Z" fill="#77E2C3"/>
<path d="M550.739 149.891H545.5V155.13H550.739V149.891Z" fill="#008C95"/>
<path d="M535.731 170.836H530.492V181.514H535.731V170.836Z" fill="#77E2C3"/>
<path d="M535.731 173.555H530.492V178.794H535.731V173.555Z" fill="#008C95"/>
<path d="M728.592 84.2804C728.592 99.8914 715.936 112.535 700.337 112.535C684.726 112.535 672.082 99.8914 672.082 84.2804C672.082 68.6813 684.726 56.0254 700.337 56.0254C715.948 56.0254 728.592 68.6813 728.592 84.2804Z" fill="white"/>
<path d="M692.516 101.693H708.162V76.8164H692.516V101.693ZM704.006 97.5367H696.66V80.9605H704.006V97.5367Z" fill="#77E2C3"/>
<path d="M681.477 101.693H696.675V76.8164H681.477V101.693ZM692.52 97.5367H685.621V80.9605H692.52V97.5367Z" fill="#77E2C3"/>
<path d="M704.008 91.7571H719.207V66.8809H704.008V91.7571ZM715.051 87.6012H708.152V71.0249H715.051V87.6012Z" fill="#77E2C3"/>
<path d="M692.516 91.7571H708.162V66.8809H692.516V91.7571ZM704.006 87.6012H696.66V71.0249H704.006V87.6012Z" fill="#77E2C3"/>
<path d="M696.66 76.8164V80.9605V91.7563H692.516V76.8164H696.66Z" fill="#008C95"/>
<path d="M704.008 87.6004V80.9605V76.8164H708.164V91.7563H704.008V87.6004Z" fill="#008C95"/>
<path d="M808.67 84.2804C808.67 99.8914 796.014 112.535 780.415 112.535C764.804 112.535 752.16 99.8914 752.16 84.2804C752.16 68.6813 764.804 56.0254 780.415 56.0254C796.014 56.0254 808.67 68.6813 808.67 84.2804Z" fill="white"/>
<path d="M783.027 73.498H770.089C764.132 73.498 759.316 78.325 759.316 84.2821C759.316 90.2392 764.143 95.0661 770.089 95.0661H783.027V73.498Z" fill="#77E2C3"/>
<path d="M783.026 95.0661C777.563 95.0661 773.125 90.2392 773.125 84.2821C773.125 78.325 777.563 73.498 783.026 73.498C788.489 73.498 792.927 78.325 792.927 84.2821C792.927 90.2392 788.489 95.0661 783.026 95.0661Z" fill="#008C95"/>
<path d="M789.795 77.4414H783.732C780.271 77.4414 777.457 80.5024 777.457 84.2815C777.457 88.0606 780.271 91.1216 783.732 91.1216C783.85 91.1216 783.967 91.1098 784.085 91.098H789.795V77.4414Z" fill="white"/>
<path d="M789.951 91.1216C786.49 91.1216 783.676 88.0606 783.676 84.2815C783.676 80.5024 786.49 77.4414 789.951 77.4414C793.412 77.4414 796.226 80.5024 796.226 84.2815C796.238 88.0606 793.424 91.1216 789.951 91.1216Z" fill="#77E2C3"/>
<path d="M800.262 82.9395H794.27C794.27 82.9395 794.27 82.9395 794.258 82.9395C794.246 82.9395 794.258 82.9395 794.246 82.9395H790.314C790.314 82.9395 790.314 82.9395 790.302 82.9395C790.302 82.9395 790.302 82.9395 790.291 82.9395H786.135C786.135 82.9395 786.135 82.9395 786.123 82.9395C786.123 82.9395 786.123 82.9395 786.111 82.9395H785.994V82.9512C785.358 83.0219 784.863 83.587 784.863 84.2816C784.863 84.9762 785.358 85.5531 785.994 85.6119V85.6237H800.215C800.91 85.6237 801.475 85.0233 801.475 84.2698C801.475 83.5163 800.957 82.9395 800.262 82.9395Z" fill="#77E2C3"/>
<path d="M794.274 82.9414H790.341C790.341 82.9414 790.341 82.9414 790.33 82.9414C790.33 82.9414 790.33 82.9414 790.318 82.9414H786.162C786.162 82.9414 786.162 82.9414 786.15 82.9414C786.15 82.9414 786.15 82.9414 786.139 82.9414H786.021V82.9532C785.385 83.0239 784.891 83.589 784.891 84.2836C784.891 84.9782 785.385 85.5551 786.021 85.6139V85.6257H796.087C796.169 85.1901 796.216 84.7427 796.216 84.2718C796.216 83.8126 796.169 83.3653 796.087 82.9297L794.274 82.9414Z" fill="#008C95"/>
<path d="M798.451 87.1562H787.984C787.666 87.1562 787.337 87.2857 787.09 87.5565C786.595 88.0863 786.595 88.934 787.09 89.4637C787.337 89.7227 787.655 89.864 787.984 89.864H798.451C799.145 89.864 799.71 89.2636 799.71 88.5101C799.71 87.7567 799.145 87.1562 798.451 87.1562Z" fill="#77E2C3"/>
<path d="M787.984 87.1562C787.666 87.1562 787.337 87.2857 787.09 87.5565C786.595 88.0863 786.595 88.934 787.09 89.4637C787.337 89.7227 787.655 89.864 787.984 89.864H793.588C794.471 89.1812 795.178 88.2511 795.649 87.168H787.984V87.1562Z" fill="#008C95"/>
<path d="M787.986 81.4089C788.022 81.4089 788.057 81.3971 788.104 81.3971V81.4089H798.464C799.159 81.4089 799.724 80.8085 799.724 80.0668C799.724 79.3251 799.159 78.7129 798.464 78.7129H788.104V78.7247C788.069 78.7247 788.033 78.7129 787.986 78.7129C787.292 78.7129 786.727 79.3133 786.727 80.0668C786.727 80.8202 787.292 81.4089 787.986 81.4089Z" fill="#77E2C3"/>
<path d="M788.088 78.7247C788.053 78.7247 788.018 78.7129 787.971 78.7129C787.276 78.7129 786.711 79.3133 786.711 80.055C786.711 80.7967 787.276 81.4089 787.971 81.4089C788.006 81.4089 788.041 81.3971 788.088 81.3971V81.4089H795.647C795.187 80.3258 794.469 79.3957 793.586 78.7129L788.088 78.7247Z" fill="#008C95"/>
<path d="M888.725 84.2804C888.725 99.8914 876.069 112.535 860.47 112.535C844.859 112.535 832.215 99.8914 832.215 84.2804C832.215 68.6813 844.859 56.0254 860.47 56.0254C876.069 56.0254 888.725 68.6813 888.725 84.2804Z" fill="white"/>
<path d="M845.023 98.056V76.9707H868.652V98.056L859.186 99.3511L845.023 98.056Z" fill="#008C95"/>
<path d="M872.316 90.2263C872.316 93.7111 869.49 96.5366 866.006 96.5366C862.521 96.5366 859.695 93.7111 859.695 90.2263C859.695 86.7415 862.521 83.916 866.006 83.916C869.49 83.916 872.316 86.7533 872.316 90.2263Z" fill="white"/>
<path d="M875.892 76.9691C875.892 71.7655 871.677 67.5508 866.461 67.5508C861.258 67.5508 857.031 71.7655 857.031 76.9691V89.4131L865.308 81.1368L875.903 89.4131V76.9691H875.892Z" fill="#77E2C3"/>
<path d="M867.381 89.4149C867.464 92.1933 865.333 92.0521 865.333 92.0521C863.661 91.9932 862.966 90.9454 863.014 89.4149L862.166 88.3789L859.941 88.6615C859.941 88.6615 859.211 90.0978 859.211 90.2391C859.211 90.3803 860.165 93.4648 860.165 93.4648L862.025 95.5369L864.579 95.4191C864.579 95.4427 864.591 95.4662 864.591 95.4662C864.697 95.5133 865.898 95.5957 865.898 95.5957L868.653 94.7245L869.901 93.1587L870.56 89.4149H867.381Z" fill="#008C95"/>
<path d="M864.476 101.023H845.039V98.0558H864.406C872.647 97.6438 872.976 90.8155 872.953 89.4498V89.4027C872.953 85.8473 870.057 82.9511 866.501 82.9511C862.946 82.9511 860.05 85.8473 860.05 89.4027H857.083C857.083 84.2109 861.309 79.9844 866.501 79.9844C871.693 79.9844 875.92 84.2109 875.92 89.4027C875.931 90.5447 875.743 100.481 864.512 101.023H864.476Z" fill="white"/>
<path d="M864.993 97.9735C862.91 97.9735 860.979 97.1965 859.531 95.7837C858.412 94.6888 857.07 92.6875 857.07 89.4028H860.037C860.037 91.1923 860.579 92.6639 861.603 93.6528C862.498 94.524 863.698 94.995 864.993 94.995C867.478 94.995 869.973 93.2643 869.973 89.391C869.973 87.472 868.408 85.9063 866.489 85.9063C864.57 85.9063 863.004 87.472 863.004 89.391H860.037C860.037 85.8356 862.933 82.9395 866.489 82.9395C870.044 82.9395 872.94 85.8356 872.94 89.391C872.94 95.0303 868.949 97.9735 864.993 97.9735Z" fill="#77E2C3"/>
<path d="M864.508 98.0566C864.472 98.0566 864.437 98.0684 864.39 98.0684H845.023V101.035H864.46H864.496C864.496 101.035 864.496 101.035 864.508 101.035V98.0566Z" fill="#77E2C3"/>
<path d="M872.947 89.4631C872.97 90.8288 872.641 97.6571 864.399 98.0691H858.23V101.036H864.47H864.505C875.737 100.494 875.925 90.558 875.913 89.416H872.947V89.4631Z" fill="#008C95"/>
<path d="M968.83 84.2804C968.83 99.8914 956.174 112.535 940.575 112.535C924.964 112.535 912.32 99.8914 912.32 84.2804C912.32 68.6813 924.964 56.0254 940.575 56.0254C956.174 56.0254 968.83 68.6813 968.83 84.2804Z" fill="white"/>
<path d="M951.24 65.4805H933.098V83.6226H951.24V65.4805Z" fill="#008C95"/>
<path d="M946.98 83.623H949.099L949.924 84.9534H946.168L946.98 83.623Z" fill="#008C95"/>
<path d="M941.117 83.623H943.236L944.049 84.9534H940.305L941.117 83.623Z" fill="#008C95"/>
<path d="M935.242 83.623H937.361L938.185 84.9534H934.43L935.242 83.623Z" fill="#008C95"/>
<path d="M946.98 83.623H949.099L949.924 84.9534H946.168L946.98 83.623Z" fill="#008C95"/>
<path d="M941.117 83.623H943.236L944.049 84.9534H940.305L941.117 83.623Z" fill="#008C95"/>
<path d="M935.242 83.623H937.361L938.185 84.9534H934.43L935.242 83.623Z" fill="#008C95"/>
<path d="M951.242 69.742V67.6229L952.584 66.8105V70.5543L951.242 69.742Z" fill="#008C95"/>
<path d="M951.242 75.6053V73.4862L952.584 72.6738V76.4176L951.242 75.6053Z" fill="#008C95"/>
<path d="M951.242 81.4803V79.3612L952.584 78.5371V82.2927L951.242 81.4803Z" fill="#008C95"/>
<path d="M937.361 65.4808H935.242L934.43 64.1387H938.185L937.361 65.4808Z" fill="#008C95"/>
<path d="M943.224 65.4808H941.117L940.293 64.1387H944.049L943.224 65.4808Z" fill="#008C95"/>
<path d="M949.099 65.4808H946.98L946.168 64.1387H949.912L949.099 65.4808Z" fill="#008C95"/>
<path d="M933.1 79.6893V81.8084L931.758 82.6207V78.877L933.1 79.6893Z" fill="#008C95"/>
<path d="M933.1 73.828V75.9471L931.758 76.7595V73.0039L933.1 73.828Z" fill="#008C95"/>
<path d="M933.1 67.953V70.0721L931.758 70.8962V67.1406L933.1 67.953Z" fill="#008C95"/>
<path d="M948.041 84.9512H929.898V103.093H948.041V84.9512Z" fill="#77E2C3"/>
<path d="M946.166 84.9651H944.059L943.234 83.623H946.99L946.166 84.9651Z" fill="#77E2C3"/>
<path d="M940.303 84.9534H938.184L937.359 83.623H941.115L940.303 84.9534Z" fill="#77E2C3"/>
<path d="M934.428 84.9534H932.308L931.484 83.623H935.24L934.428 84.9534Z" fill="#77E2C3"/>
<path d="M948.039 100.953V98.8338L949.381 98.0215V101.765L948.039 100.953Z" fill="#77E2C3"/>
<path d="M948.039 95.0779V92.9588L949.381 92.1465V95.8903L948.039 95.0779Z" fill="#77E2C3"/>
<path d="M948.039 89.2029V87.0838L949.381 86.2715V90.0271L948.039 89.2029Z" fill="#77E2C3"/>
<path d="M932.043 103.094H934.162L934.974 104.424H931.219L932.043 103.094Z" fill="#77E2C3"/>
<path d="M937.914 103.094H940.033L940.845 104.424H937.09L937.914 103.094Z" fill="#77E2C3"/>
<path d="M943.789 103.094H945.908L946.72 104.424H942.965L943.789 103.094Z" fill="#77E2C3"/>
<path d="M929.897 86.8593V88.9784L928.566 89.7907V86.0352L929.897 86.8593Z" fill="#77E2C3"/>
<path d="M929.897 92.7343V94.8416L928.566 95.6657V91.9102L929.897 92.7343Z" fill="#77E2C3"/>
<path d="M929.897 98.5975V100.717L928.566 101.541V97.7852L929.897 98.5975Z" fill="#77E2C3"/>
<path d="M568.51 84.2804C568.51 99.8914 555.854 112.535 540.255 112.535C524.644 112.535 512 99.8914 512 84.2804C512 68.6813 524.644 56.0254 540.255 56.0254C555.854 56.0254 568.51 68.6813 568.51 84.2804Z" fill="white"/>
<path d="M545.726 105.662H540.688V87.2967L545.738 82.2461H560.972V87.2849H547.822L545.726 89.3805V105.662Z" fill="#77E2C3"/>
<path d="M538.902 81.8568H519.547V76.818H536.818L538.913 74.7341V62.9023H543.952V76.818L538.902 81.8568Z" fill="#77E2C3"/>
<path d="M546.897 66.9863H536.102V70.6948H546.897V66.9863Z" fill="#77E2C3"/>
<path d="M543.957 66.9863H538.918V70.6948H543.957V66.9863Z" fill="#008C95"/>
<path d="M531.418 85.6719H519.562V90.1103H531.418V85.6719Z" fill="#77E2C3"/>
<path d="M555.388 79.4668H551.68V90.0624H555.388V79.4668Z" fill="#77E2C3"/>
<path d="M555.388 82.2461H551.68V87.2849H555.388V82.2461Z" fill="#008C95"/>
<path d="M560.968 99.9047H528.015L522.965 94.8541V62.9023H528.004V92.7703L530.099 94.8659H560.968V99.9047Z" fill="#77E2C3"/>
<path d="M528.004 85.6719H522.965V90.1103H528.004V85.6719Z" fill="#008C95"/>
<path d="M728.592 164.335C728.592 179.946 715.936 192.59 700.337 192.59C684.726 192.59 672.082 179.946 672.082 164.335C672.082 148.736 684.726 136.08 700.337 136.08C715.948 136.08 728.592 148.736 728.592 164.335Z" fill="white"/>
<path d="M707.21 145.193H683.641V175.909H707.21V145.193Z" fill="#77E2C3"/>
<path d="M717.03 152.777H693.461V183.493H717.03V152.777Z" fill="#77E2C3"/>
<path d="M707.224 152.777H693.461V175.911H707.224V152.777Z" fill="#008C95"/>
<path d="M525.554 16.2329L518.698 5.80469H521.678L526.78 14.1235H530.392L529.983 16.2329H525.554ZM526.925 16.0352L521.348 25H518.184L525.316 13.8467L526.925 16.0352ZM531.486 5.80469V25H528.968V5.80469H531.486ZM541.664 5.80469L534.782 16.2329H530.484L530.089 14.1235H533.569L538.671 5.80469H541.664ZM539.001 25L533.438 16.0352L535.059 13.8467L542.165 25H539.001ZM546.845 21.1372L553.424 10.7354H555.876V25H553.424V14.5981L546.845 25H544.419V10.7354H546.845V21.1372ZM569.323 10.7354V12.7524H562.428V10.7354H569.323ZM571.472 10.7354V25H569.033V10.7354H571.472ZM561.835 10.7354H564.287L563.918 17.6172C563.856 18.6807 563.755 19.6211 563.615 20.4385C563.483 21.2471 563.298 21.9414 563.061 22.5215C562.833 23.1016 562.542 23.5762 562.191 23.9453C561.848 24.3057 561.435 24.5737 560.952 24.7495C560.468 24.9165 559.91 25 559.277 25H558.513V22.8511L559.04 22.8115C559.418 22.7852 559.739 22.6973 560.002 22.5479C560.275 22.3984 560.503 22.1787 560.688 21.8887C560.873 21.5898 561.022 21.2075 561.136 20.7417C561.259 20.2759 561.352 19.7222 561.413 19.0806C561.483 18.439 561.536 17.6919 561.571 16.8394L561.835 10.7354ZM578.038 21.1372L584.616 10.7354H587.068V25H584.616V14.5981L578.038 25H575.612V10.7354H578.038V21.1372ZM610.812 22.9961L610.575 29.2319H608.399V25H606.541V22.9961H610.812ZM591.05 10.7354H593.489V22.9961H598.709V10.7354H601.162V22.9961H606.369V10.7354H608.808V25H591.05V10.7354ZM623.02 16.9185V18.896H615.479V16.9185H623.02ZM615.993 10.7354V25H613.554V10.7354H615.993ZM624.998 10.7354V25H622.545V10.7354H624.998ZM628.28 18.0259V17.7227C628.28 16.6943 628.43 15.7407 628.729 14.8618C629.027 13.9741 629.458 13.2051 630.021 12.5547C630.583 11.8955 631.264 11.3857 632.064 11.0254C632.864 10.6562 633.76 10.4717 634.753 10.4717C635.755 10.4717 636.656 10.6562 637.456 11.0254C638.265 11.3857 638.95 11.8955 639.513 12.5547C640.084 13.2051 640.519 13.9741 640.818 14.8618C641.117 15.7407 641.266 16.6943 641.266 17.7227V18.0259C641.266 19.0542 641.117 20.0078 640.818 20.8867C640.519 21.7656 640.084 22.5347 639.513 23.1938C638.95 23.8442 638.269 24.354 637.469 24.7231C636.678 25.0835 635.782 25.2637 634.78 25.2637C633.778 25.2637 632.877 25.0835 632.077 24.7231C631.277 24.354 630.592 23.8442 630.021 23.1938C629.458 22.5347 629.027 21.7656 628.729 20.8867C628.43 20.0078 628.28 19.0542 628.28 18.0259ZM630.719 17.7227V18.0259C630.719 18.7378 630.803 19.4102 630.97 20.043C631.137 20.667 631.387 21.2207 631.721 21.7041C632.064 22.1875 632.49 22.5698 633 22.8511C633.51 23.1235 634.103 23.2598 634.78 23.2598C635.448 23.2598 636.032 23.1235 636.533 22.8511C637.043 22.5698 637.465 22.1875 637.799 21.7041C638.133 21.2207 638.383 20.667 638.55 20.043C638.726 19.4102 638.814 18.7378 638.814 18.0259V17.7227C638.814 17.0195 638.726 16.356 638.55 15.7319C638.383 15.0991 638.128 14.541 637.786 14.0576C637.452 13.5654 637.03 13.1787 636.52 12.8975C636.019 12.6162 635.43 12.4756 634.753 12.4756C634.085 12.4756 633.497 12.6162 632.987 12.8975C632.486 13.1787 632.064 13.5654 631.721 14.0576C631.387 14.541 631.137 15.0991 630.97 15.7319C630.803 16.356 630.719 17.0195 630.719 17.7227ZM650.244 25.2637C649.251 25.2637 648.35 25.0967 647.542 24.7627C646.742 24.4199 646.052 23.9409 645.472 23.3257C644.9 22.7104 644.461 21.981 644.153 21.1372C643.846 20.2935 643.692 19.3706 643.692 18.3687V17.8149C643.692 16.6548 643.863 15.6221 644.206 14.7168C644.549 13.8027 645.015 13.0293 645.604 12.3965C646.192 11.7637 646.86 11.2847 647.607 10.9595C648.354 10.6343 649.128 10.4717 649.928 10.4717C650.947 10.4717 651.826 10.6475 652.564 10.999C653.312 11.3506 653.922 11.8428 654.397 12.4756C654.872 13.0996 655.223 13.8379 655.452 14.6904C655.68 15.5342 655.794 16.457 655.794 17.459V18.5532H645.142V16.5625H653.355V16.3779C653.32 15.7451 653.188 15.1299 652.96 14.5322C652.74 13.9346 652.389 13.4424 651.905 13.0557C651.422 12.6689 650.763 12.4756 649.928 12.4756C649.374 12.4756 648.864 12.5942 648.398 12.8315C647.933 13.0601 647.533 13.4028 647.199 13.8599C646.865 14.3169 646.605 14.875 646.421 15.5342C646.236 16.1934 646.144 16.9536 646.144 17.8149V18.3687C646.144 19.0454 646.236 19.6826 646.421 20.2803C646.614 20.8691 646.891 21.3877 647.251 21.8359C647.621 22.2842 648.064 22.6357 648.583 22.8906C649.11 23.1455 649.708 23.2729 650.376 23.2729C651.237 23.2729 651.967 23.0972 652.564 22.7456C653.162 22.394 653.685 21.9238 654.133 21.335L655.61 22.5083C655.302 22.9741 654.911 23.418 654.437 23.8398C653.962 24.2617 653.377 24.6045 652.683 24.8682C651.998 25.1318 651.185 25.2637 650.244 25.2637ZM671.048 23.2598C671.628 23.2598 672.164 23.1411 672.656 22.9038C673.148 22.6665 673.553 22.3413 673.869 21.9282C674.186 21.5063 674.366 21.0273 674.41 20.4912H676.73C676.686 21.335 676.4 22.1216 675.873 22.8511C675.354 23.5718 674.673 24.1562 673.83 24.6045C672.986 25.0439 672.059 25.2637 671.048 25.2637C669.976 25.2637 669.04 25.0747 668.24 24.6968C667.449 24.3188 666.79 23.8003 666.262 23.1411C665.744 22.4819 665.353 21.7261 665.089 20.8735C664.834 20.0122 664.707 19.1025 664.707 18.1445V17.5908C664.707 16.6328 664.834 15.7275 665.089 14.875C665.353 14.0137 665.744 13.2534 666.262 12.5942C666.79 11.9351 667.449 11.4165 668.24 11.0386C669.04 10.6606 669.976 10.4717 671.048 10.4717C672.164 10.4717 673.14 10.7002 673.975 11.1572C674.81 11.6055 675.464 12.2207 675.939 13.0029C676.422 13.7764 676.686 14.6553 676.73 15.6396H674.41C674.366 15.0508 674.199 14.519 673.909 14.0444C673.627 13.5698 673.241 13.1919 672.749 12.9106C672.265 12.6206 671.698 12.4756 671.048 12.4756C670.301 12.4756 669.672 12.625 669.163 12.9238C668.662 13.2139 668.262 13.6094 667.963 14.1104C667.673 14.6025 667.462 15.1519 667.33 15.7583C667.207 16.356 667.146 16.9668 667.146 17.5908V18.1445C667.146 18.7686 667.207 19.3838 667.33 19.9902C667.453 20.5967 667.66 21.146 667.95 21.6382C668.249 22.1304 668.648 22.5259 669.149 22.8247C669.659 23.1147 670.292 23.2598 671.048 23.2598ZM685.286 10.7354V25H682.834V10.7354H685.286ZM690.072 10.7354V12.7129H678.141V10.7354H690.072ZM694.91 13.4775V30.4844H692.458V10.7354H694.699L694.91 13.4775ZM704.521 17.749V18.0259C704.521 19.063 704.398 20.0254 704.152 20.9131C703.906 21.792 703.545 22.5566 703.071 23.207C702.605 23.8574 702.029 24.3628 701.344 24.7231C700.658 25.0835 699.872 25.2637 698.984 25.2637C698.079 25.2637 697.279 25.1143 696.584 24.8154C695.89 24.5166 695.301 24.0815 694.818 23.5103C694.334 22.939 693.948 22.2534 693.658 21.4536C693.376 20.6538 693.183 19.7529 693.078 18.751V17.2744C693.183 16.2197 693.381 15.2749 693.671 14.4399C693.961 13.605 694.343 12.8931 694.818 12.3042C695.301 11.7065 695.886 11.2539 696.571 10.9463C697.257 10.6299 698.048 10.4717 698.944 10.4717C699.841 10.4717 700.636 10.6475 701.331 10.999C702.025 11.3418 702.609 11.834 703.084 12.4756C703.559 13.1172 703.915 13.8862 704.152 14.7827C704.398 15.6704 704.521 16.6592 704.521 17.749ZM702.069 18.0259V17.749C702.069 17.0371 701.994 16.3691 701.845 15.7451C701.695 15.1123 701.462 14.5586 701.146 14.084C700.838 13.6006 700.443 13.2227 699.959 12.9502C699.476 12.6689 698.9 12.5283 698.232 12.5283C697.617 12.5283 697.081 12.6338 696.624 12.8447C696.176 13.0557 695.793 13.3413 695.477 13.7017C695.161 14.0532 694.901 14.4575 694.699 14.9146C694.506 15.3628 694.361 15.8286 694.264 16.312V19.7266C694.44 20.3418 694.686 20.9219 695.002 21.4668C695.319 22.0029 695.741 22.438 696.268 22.772C696.795 23.0972 697.459 23.2598 698.259 23.2598C698.918 23.2598 699.485 23.1235 699.959 22.8511C700.443 22.5698 700.838 22.1875 701.146 21.7041C701.462 21.2207 701.695 20.667 701.845 20.043C701.994 19.4102 702.069 18.7378 702.069 18.0259ZM706.986 18.0259V17.7227C706.986 16.6943 707.136 15.7407 707.435 14.8618C707.733 13.9741 708.164 13.2051 708.727 12.5547C709.289 11.8955 709.97 11.3857 710.77 11.0254C711.57 10.6562 712.466 10.4717 713.459 10.4717C714.461 10.4717 715.362 10.6562 716.162 11.0254C716.971 11.3857 717.656 11.8955 718.219 12.5547C718.79 13.2051 719.225 13.9741 719.524 14.8618C719.823 15.7407 719.972 16.6943 719.972 17.7227V18.0259C719.972 19.0542 719.823 20.0078 719.524 20.8867C719.225 21.7656 718.79 22.5347 718.219 23.1938C717.656 23.8442 716.975 24.354 716.175 24.7231C715.384 25.0835 714.488 25.2637 713.486 25.2637C712.484 25.2637 711.583 25.0835 710.783 24.7231C709.983 24.354 709.298 23.8442 708.727 23.1938C708.164 22.5347 707.733 21.7656 707.435 20.8867C707.136 20.0078 706.986 19.0542 706.986 18.0259ZM709.425 17.7227V18.0259C709.425 18.7378 709.509 19.4102 709.676 20.043C709.843 20.667 710.093 21.2207 710.427 21.7041C710.77 22.1875 711.196 22.5698 711.706 22.8511C712.216 23.1235 712.809 23.2598 713.486 23.2598C714.154 23.2598 714.738 23.1235 715.239 22.8511C715.749 22.5698 716.171 22.1875 716.505 21.7041C716.839 21.2207 717.089 20.667 717.256 20.043C717.432 19.4102 717.52 18.7378 717.52 18.0259V17.7227C717.52 17.0195 717.432 16.356 717.256 15.7319C717.089 15.0991 716.834 14.541 716.492 14.0576C716.158 13.5654 715.736 13.1787 715.226 12.8975C714.725 12.6162 714.136 12.4756 713.459 12.4756C712.792 12.4756 712.203 12.6162 711.693 12.8975C711.192 13.1787 710.77 13.5654 710.427 14.0576C710.093 14.541 709.843 15.0991 709.676 15.7319C709.509 16.356 709.425 17.0195 709.425 17.7227ZM725.667 21.1372L732.246 10.7354H734.698V25H732.246V14.5981L725.667 25H723.242V10.7354H725.667V21.1372ZM744.428 10.7354V25H741.976V10.7354H744.428ZM749.213 10.7354V12.7129H737.282V10.7354H749.213ZM756.478 25.2637C755.484 25.2637 754.583 25.0967 753.775 24.7627C752.975 24.4199 752.285 23.9409 751.705 23.3257C751.134 22.7104 750.694 21.981 750.387 21.1372C750.079 20.2935 749.925 19.3706 749.925 18.3687V17.8149C749.925 16.6548 750.097 15.6221 750.439 14.7168C750.782 13.8027 751.248 13.0293 751.837 12.3965C752.426 11.7637 753.094 11.2847 753.841 10.9595C754.588 10.6343 755.361 10.4717 756.161 10.4717C757.181 10.4717 758.06 10.6475 758.798 10.999C759.545 11.3506 760.156 11.8428 760.63 12.4756C761.105 13.0996 761.457 13.8379 761.685 14.6904C761.914 15.5342 762.028 16.457 762.028 17.459V18.5532H751.375V16.5625H759.589V16.3779C759.554 15.7451 759.422 15.1299 759.193 14.5322C758.974 13.9346 758.622 13.4424 758.139 13.0557C757.655 12.6689 756.996 12.4756 756.161 12.4756C755.607 12.4756 755.098 12.5942 754.632 12.8315C754.166 13.0601 753.766 13.4028 753.432 13.8599C753.098 14.3169 752.839 14.875 752.654 15.5342C752.47 16.1934 752.377 16.9536 752.377 17.8149V18.3687C752.377 19.0454 752.47 19.6826 752.654 20.2803C752.848 20.8691 753.125 21.3877 753.485 21.8359C753.854 22.2842 754.298 22.6357 754.816 22.8906C755.344 23.1455 755.941 23.2729 756.609 23.2729C757.471 23.2729 758.2 23.0972 758.798 22.7456C759.396 22.394 759.918 21.9238 760.367 21.335L761.843 22.5083C761.536 22.9741 761.145 23.418 760.67 23.8398C760.195 24.2617 759.611 24.6045 758.917 24.8682C758.231 25.1318 757.418 25.2637 756.478 25.2637ZM774.407 10.7354V12.7524H767.512V10.7354H774.407ZM776.556 10.7354V25H774.117V10.7354H776.556ZM766.919 10.7354H769.371L769.002 17.6172C768.94 18.6807 768.839 19.6211 768.699 20.4385C768.567 21.2471 768.382 21.9414 768.145 22.5215C767.917 23.1016 767.626 23.5762 767.275 23.9453C766.932 24.3057 766.519 24.5737 766.036 24.7495C765.552 24.9165 764.994 25 764.361 25H763.597V22.8511L764.124 22.8115C764.502 22.7852 764.823 22.6973 765.086 22.5479C765.359 22.3984 765.587 22.1787 765.772 21.8887C765.957 21.5898 766.106 21.2075 766.22 20.7417C766.343 20.2759 766.436 19.7222 766.497 19.0806C766.567 18.439 766.62 17.6919 766.655 16.8394L766.919 10.7354ZM782.489 15.6396H786.773C787.925 15.6396 788.896 15.8418 789.687 16.2461C790.478 16.6416 791.076 17.1909 791.48 17.894C791.893 18.5884 792.1 19.3794 792.1 20.2671C792.1 20.9263 791.985 21.5459 791.757 22.126C791.528 22.6973 791.186 23.1982 790.729 23.6289C790.28 24.0596 789.722 24.3979 789.054 24.644C788.395 24.8813 787.635 25 786.773 25H780.709V10.7354H783.148V22.9961H786.773C787.477 22.9961 788.039 22.8687 788.461 22.6138C788.883 22.3589 789.186 22.0293 789.371 21.625C789.555 21.2207 789.647 20.7988 789.647 20.3594C789.647 19.9287 789.555 19.5068 789.371 19.0938C789.186 18.6807 788.883 18.3379 788.461 18.0654C788.039 17.7842 787.477 17.6436 786.773 17.6436H782.489V15.6396ZM800.854 23.2598C801.434 23.2598 801.97 23.1411 802.462 22.9038C802.954 22.6665 803.358 22.3413 803.675 21.9282C803.991 21.5063 804.171 21.0273 804.215 20.4912H806.536C806.492 21.335 806.206 22.1216 805.679 22.8511C805.16 23.5718 804.479 24.1562 803.635 24.6045C802.792 25.0439 801.864 25.2637 800.854 25.2637C799.781 25.2637 798.845 25.0747 798.045 24.6968C797.254 24.3188 796.595 23.8003 796.068 23.1411C795.549 22.4819 795.158 21.7261 794.895 20.8735C794.64 20.0122 794.512 19.1025 794.512 18.1445V17.5908C794.512 16.6328 794.64 15.7275 794.895 14.875C795.158 14.0137 795.549 13.2534 796.068 12.5942C796.595 11.9351 797.254 11.4165 798.045 11.0386C798.845 10.6606 799.781 10.4717 800.854 10.4717C801.97 10.4717 802.945 10.7002 803.78 11.1572C804.615 11.6055 805.27 12.2207 805.745 13.0029C806.228 13.7764 806.492 14.6553 806.536 15.6396H804.215C804.171 15.0508 804.004 14.519 803.714 14.0444C803.433 13.5698 803.046 13.1919 802.554 12.9106C802.071 12.6206 801.504 12.4756 800.854 12.4756C800.106 12.4756 799.478 12.625 798.968 12.9238C798.467 13.2139 798.067 13.6094 797.769 14.1104C797.479 14.6025 797.268 15.1519 797.136 15.7583C797.013 16.356 796.951 16.9668 796.951 17.5908V18.1445C796.951 18.7686 797.013 19.3838 797.136 19.9902C797.259 20.5967 797.465 21.146 797.755 21.6382C798.054 22.1304 798.454 22.5259 798.955 22.8247C799.465 23.1147 800.098 23.2598 800.854 23.2598ZM815.092 10.7354V25H812.64V10.7354H815.092ZM819.877 10.7354V12.7129H807.946V10.7354H819.877ZM828.974 18.7246H824.294L824.268 16.7734H828.091C828.847 16.7734 829.475 16.6987 829.976 16.5493C830.486 16.3999 830.868 16.1758 831.123 15.877C831.378 15.5781 831.505 15.209 831.505 14.7695C831.505 14.4268 831.431 14.1279 831.281 13.873C831.141 13.6094 830.925 13.394 830.635 13.2271C830.345 13.0513 829.985 12.9238 829.554 12.8447C829.132 12.7568 828.636 12.7129 828.064 12.7129H824.94V25H822.501V10.7354H828.064C828.97 10.7354 829.783 10.8145 830.503 10.9727C831.233 11.1309 831.853 11.3726 832.362 11.6978C832.881 12.0142 833.276 12.4185 833.549 12.9106C833.821 13.4028 833.958 13.9829 833.958 14.6509C833.958 15.0815 833.87 15.4902 833.694 15.877C833.518 16.2637 833.259 16.6064 832.916 16.9053C832.573 17.2041 832.151 17.4502 831.65 17.6436C831.149 17.8281 830.574 17.9468 829.923 17.9995L828.974 18.7246ZM828.974 25H823.411L824.624 23.0225H828.974C829.651 23.0225 830.213 22.939 830.662 22.772C831.11 22.5962 831.444 22.3501 831.664 22.0337C831.892 21.7085 832.006 21.3218 832.006 20.8735C832.006 20.4253 831.892 20.043 831.664 19.7266C831.444 19.4014 831.11 19.1553 830.662 18.9883C830.213 18.8125 829.651 18.7246 828.974 18.7246H825.27L825.296 16.7734H829.923L830.807 17.5117C831.589 17.5732 832.252 17.7666 832.797 18.0918C833.342 18.417 833.755 18.8301 834.037 19.3311C834.318 19.8232 834.458 20.3594 834.458 20.9395C834.458 21.6074 834.331 22.1963 834.076 22.7061C833.83 23.2158 833.47 23.6421 832.995 23.9849C832.521 24.3188 831.945 24.5737 831.268 24.7495C830.591 24.9165 829.827 25 828.974 25ZM837.082 18.0259V17.7227C837.082 16.6943 837.231 15.7407 837.53 14.8618C837.829 13.9741 838.26 13.2051 838.822 12.5547C839.385 11.8955 840.066 11.3857 840.866 11.0254C841.666 10.6562 842.562 10.4717 843.555 10.4717C844.557 10.4717 845.458 10.6562 846.258 11.0254C847.066 11.3857 847.752 11.8955 848.314 12.5547C848.886 13.2051 849.321 13.9741 849.62 14.8618C849.918 15.7407 850.068 16.6943 850.068 17.7227V18.0259C850.068 19.0542 849.918 20.0078 849.62 20.8867C849.321 21.7656 848.886 22.5347 848.314 23.1938C847.752 23.8442 847.071 24.354 846.271 24.7231C845.48 25.0835 844.583 25.2637 843.582 25.2637C842.58 25.2637 841.679 25.0835 840.879 24.7231C840.079 24.354 839.394 23.8442 838.822 23.1938C838.26 22.5347 837.829 21.7656 837.53 20.8867C837.231 20.0078 837.082 19.0542 837.082 18.0259ZM839.521 17.7227V18.0259C839.521 18.7378 839.604 19.4102 839.771 20.043C839.938 20.667 840.189 21.2207 840.523 21.7041C840.866 22.1875 841.292 22.5698 841.802 22.8511C842.312 23.1235 842.905 23.2598 843.582 23.2598C844.25 23.2598 844.834 23.1235 845.335 22.8511C845.845 22.5698 846.267 22.1875 846.601 21.7041C846.935 21.2207 847.185 20.667 847.352 20.043C847.528 19.4102 847.616 18.7378 847.616 18.0259V17.7227C847.616 17.0195 847.528 16.356 847.352 15.7319C847.185 15.0991 846.93 14.541 846.587 14.0576C846.253 13.5654 845.832 13.1787 845.322 12.8975C844.821 12.6162 844.232 12.4756 843.555 12.4756C842.887 12.4756 842.298 12.6162 841.789 12.8975C841.288 13.1787 840.866 13.5654 840.523 14.0576C840.189 14.541 839.938 15.0991 839.771 15.7319C839.604 16.356 839.521 17.0195 839.521 17.7227Z" fill="#008C95"/>
<path d="M1473.56 79.4465C1473.56 95.0574 1460.91 107.701 1445.31 107.701C1429.7 107.701 1417.05 95.0574 1417.05 79.4465C1417.05 63.8355 1429.7 51.1914 1445.31 51.1914C1460.91 51.1914 1473.56 63.8473 1473.56 79.4465Z" fill="white"/>
<path d="M1430.89 74.4637H1426.95L1424.37 78.7491L1426.33 82.0219L1424.37 85.2948L1426.95 89.5801H1430.84L1432.83 92.8883H1436.8L1438.75 96.1259H1443.83L1446.41 91.8524L1444.44 88.5795L1445.78 86.3426H1449.73L1452.3 82.0573L1450.34 78.7844L1452.3 75.5115L1449.73 71.2262H1445.83L1443.84 67.918H1438.75L1436.76 71.2262H1432.83L1430.89 74.4637ZM1442.7 87.567H1439.9L1438.54 85.3065L1439.92 83.0227H1442.67L1444.06 85.3301L1442.7 87.567ZM1442.66 76.4768L1444.05 78.7844L1442.71 81.0213H1439.91L1438.55 78.7608L1439.93 76.4768H1441.32H1442.66ZM1435.37 79.7851H1436.78L1438.13 82.0455L1436.75 84.3294H1435.36H1434L1432.61 82.0219L1433.95 79.7851H1435.37ZM1428.09 76.4768H1430.85L1432.24 78.7844L1430.9 81.0213H1428.1L1426.73 78.7491L1428.09 76.4768ZM1428.08 87.5552L1426.71 85.2831L1428.08 83.0109H1430.84L1432.23 85.3183L1430.89 87.5552H1428.08ZM1433.97 90.8752L1432.61 88.603L1433.97 86.3309H1435.37H1436.78L1438.13 88.5912L1436.75 90.8752H1433.97ZM1442.7 94.1128H1439.9L1438.54 91.8524L1439.92 89.5684H1442.71L1444.08 91.8406L1442.7 94.1128ZM1448.58 84.3294H1445.82L1444.43 82.0219L1445.77 79.7851H1447.17H1448.57L1449.94 82.0573L1448.58 84.3294ZM1448.6 73.2393L1449.96 75.5115L1448.6 77.7837H1447.19H1445.83L1444.44 75.4762L1445.78 73.2393H1448.6ZM1442.71 69.9311L1444.08 72.2033L1442.71 74.4755H1441.31H1439.91L1438.54 72.2033L1439.91 69.9311H1442.71ZM1436.79 73.2393L1438.14 75.4997L1436.76 77.7837H1435.37H1434.01L1432.62 75.4762L1433.96 73.2393H1436.79Z" fill="#77E2C3"/>
<path d="M1438.2 66.4961C1443.17 61.528 1451.23 61.528 1456.2 66.5079C1461.17 71.4761 1461.17 79.5405 1456.19 84.5087C1451.22 89.4769 1443.16 89.477 1438.19 84.497C1433.22 79.5288 1433.23 71.4643 1438.2 66.4961Z" fill="#77E2C3"/>
<path d="M1450.01 83.1091C1452.47 80.6485 1456.45 80.6485 1458.91 83.1091C1461.37 85.5696 1461.36 89.5489 1458.91 92.0094C1456.45 94.47 1452.47 94.4582 1450.01 92.0094C1447.55 89.5489 1447.55 85.5696 1450.01 83.1091Z" fill="#77E2C3"/>
<path d="M1461.42 79.0097C1462.52 77.903 1464.31 77.903 1465.42 79.0097C1466.53 80.1163 1466.53 81.9176 1465.42 83.0125C1464.31 84.1192 1462.52 84.1192 1461.42 83.0125C1460.31 81.9059 1460.31 80.1163 1461.42 79.0097Z" fill="#77E2C3"/>
<path d="M1449.74 71.2262H1445.84L1443.85 67.918H1438.78L1436.79 71.2262H1435.23C1434.99 71.8854 1434.81 72.5565 1434.7 73.2393H1436.8L1438.16 75.4997L1436.78 77.7837H1435.39H1434.68C1434.8 78.4665 1434.99 79.1375 1435.21 79.7968H1435.38H1436.78L1438.13 82.0573L1437.27 83.4818C1437.56 83.8349 1437.86 84.1764 1438.19 84.506C1438.37 84.6826 1438.55 84.8475 1438.72 85.0005L1439.91 83.0344H1442.65L1444.04 85.3419L1442.77 87.4492C1443.43 87.6965 1444.1 87.8849 1444.78 88.0144L1445.79 86.3544H1449.73L1452.31 82.069L1450.34 78.7962L1452.31 75.5232L1449.74 71.2262ZM1442.7 81.0095H1439.9L1438.55 78.7491L1439.92 76.4651H1441.31H1442.68L1444.07 78.7726L1442.7 81.0095ZM1442.7 74.4637H1441.3H1439.9L1438.53 72.1916L1439.9 69.9194H1442.7L1444.07 72.1916L1442.7 74.4637ZM1448.59 84.3294H1445.83L1444.44 82.0219L1445.79 79.7851H1447.19H1448.59L1449.95 82.0573L1448.59 84.3294ZM1448.6 77.7837H1447.2H1445.84L1444.46 75.4762L1445.8 73.2393H1448.6L1449.96 75.5115L1448.6 77.7837Z" fill="#008C95"/>
<path d="M1553.62 79.4465C1553.62 95.0574 1540.97 107.701 1525.37 107.701C1509.76 107.701 1497.11 95.0574 1497.11 79.4465C1497.11 63.8355 1509.76 51.1914 1525.37 51.1914C1540.97 51.1914 1553.62 63.8473 1553.62 79.4465Z" fill="white"/>
<path d="M1509.55 94.0802L1521.3 69.8633H1534.22L1547.17 94.0802H1509.55Z" fill="#77E2C3"/>
<path d="M1529.68 69.8633H1526.44V71.9471H1529.68V69.8633Z" fill="white"/>
<path d="M1529.68 88.1703H1526.44V83.6024H1529.68V88.1703ZM1529.68 79.5054H1526.44V74.9375H1529.68V79.5054Z" fill="white"/>
<path d="M1529.68 91.998H1526.44V94.0818H1529.68V91.998Z" fill="white"/>
<path d="M1513.16 76.9137L1509.55 74.0293L1505.93 76.9137L1504.48 75.1124L1509.55 71.0625L1514.6 75.1124L1513.16 76.9137Z" fill="#77E2C3"/>
<path d="M1514.66 83.556L1509.55 79.4473L1504.23 83.7209L1502.78 81.9196L1509.55 76.4805L1515.7 81.4133L1514.66 83.556Z" fill="#77E2C3"/>
<path d="M1514.87 90.0196L1509.55 85.7461L1504.23 90.0196L1502.78 88.2184L1509.55 82.7793L1516.32 88.2184L1514.87 90.0196Z" fill="#77E2C3"/>
<path d="M1510.71 72.4414H1508.39V91.3959H1510.71V72.4414Z" fill="#77E2C3"/>
<path d="M1508.39 86.6761L1509.55 85.7461L1510.7 86.6761V83.7093L1509.55 82.7793L1508.39 83.7093V86.6761Z" fill="#008C95"/>
<path d="M1508.39 80.3774L1509.55 79.4473L1510.7 80.3774V77.4106L1509.55 76.4805L1508.39 77.4106V80.3774Z" fill="#008C95"/>
<path d="M1508.39 74.9632L1509.55 74.0331L1510.7 74.9632V71.9964L1509.55 71.0781L1508.39 71.9964V74.9632Z" fill="#008C95"/>
<path d="M1537.58 70.6753L1541.2 67.7792L1544.81 70.6753L1546.26 68.8623L1541.2 64.8242L1536.13 68.8623L1537.58 70.6753Z" fill="#77E2C3"/>
<path d="M1537.57 76.115L1541.19 73.2071L1546.52 77.4807L1547.96 75.6794L1541.19 70.2285L1536.46 74.043L1537.57 76.115Z" fill="#77E2C3"/>
<path d="M1542.36 66.1914H1540.04V80.6133H1542.36V66.1914Z" fill="#77E2C3"/>
<path d="M1542.35 74.1351L1541.19 73.2051L1540.04 74.1351V71.1566L1541.19 70.2383L1542.35 71.1566V74.1351Z" fill="#008C95"/>
<path d="M1542.35 68.7093L1541.19 67.7792L1540.04 68.7093V65.7425L1541.19 64.8242L1542.35 65.7425V68.7093Z" fill="#008C95"/>
<path d="M1393.51 159.536C1393.51 175.147 1380.85 187.791 1365.26 187.791C1349.64 187.791 1337 175.147 1337 159.536C1337 143.937 1349.64 131.281 1365.26 131.281C1380.85 131.281 1393.51 143.937 1393.51 159.536Z" fill="white"/>
<path d="M1355.69 159.584L1361.42 165.305L1367.85 171.733L1370.3 174.194L1383.8 160.69L1369.19 146.08L1355.69 159.584Z" fill="#77E2C3"/>
<path d="M1368.48 142.825L1352.43 158.875L1354.62 161.073L1370.67 145.023L1368.48 142.825Z" fill="#77E2C3"/>
<path d="M1369.27 153.103L1359.23 163.143L1366.51 170.418L1376.55 160.379L1369.27 153.103Z" fill="#008C95"/>
<path d="M1355.58 169.321L1352.15 160.668L1348.59 168.886C1348.87 170.581 1350.33 171.876 1352.09 171.899C1353.74 171.899 1355.13 170.816 1355.58 169.321Z" fill="#77E2C3"/>
<path d="M1353.7 173.665L1350.27 165.012L1346.7 173.229C1346.99 174.925 1348.45 176.22 1350.21 176.243C1351.86 176.255 1353.25 175.16 1353.7 173.665Z" fill="#77E2C3"/>
<path d="M1352.11 171.887C1352.4 171.887 1352.68 171.852 1352.95 171.793L1350.27 165.012L1348.59 168.885C1348.87 170.58 1350.33 171.875 1352.11 171.887Z" fill="#008C95"/>
<path d="M1393.51 79.4465C1393.51 95.0574 1380.85 107.701 1365.26 107.701C1349.64 107.701 1337 95.0574 1337 79.4465C1337 63.8355 1349.64 51.1914 1365.26 51.1914C1380.85 51.1914 1393.51 63.8473 1393.51 79.4465Z" fill="white"/>
<path d="M1376.71 84.2492C1376.71 90.43 1371.58 95.4335 1365.26 95.4335C1358.93 95.4335 1353.8 90.4182 1353.8 84.2492C1353.8 78.0802 1358.92 77.209 1365.26 77.209C1371.58 77.209 1376.71 78.0684 1376.71 84.2492Z" fill="#008C95"/>
<path d="M1376.71 84.2487H1353.8L1354.12 73.5H1376.43L1376.71 84.2487Z" fill="#008C95"/>
<path d="M1365.49 89.8391H1365.45C1364.39 89.8391 1363.53 88.9796 1363.53 87.9201V80.6797H1367.41V87.9201C1367.41 88.9796 1366.55 89.8391 1365.49 89.8391Z" fill="#008C95"/>
<path d="M1369.9 91.6185H1369.84C1368.5 91.6185 1367.41 90.5354 1367.41 89.1932V75.6426H1372.32V89.1932C1372.32 90.5354 1371.24 91.6185 1369.9 91.6185Z" fill="#77E2C3"/>
<path d="M1365.26 63.459C1358.93 63.459 1353.8 68.4625 1353.8 74.6433C1353.8 80.8241 1358.92 85.8276 1365.26 85.8276C1371.58 85.8276 1376.71 80.8241 1376.71 74.6433C1376.71 68.4625 1371.58 63.459 1365.26 63.459Z" fill="#77E2C3"/>
<path d="M1365.49 89.8391H1365.45C1364.39 89.8391 1363.53 88.9796 1363.53 87.9201V80.6797H1367.41V87.9201C1367.41 88.9796 1366.55 89.8391 1365.49 89.8391Z" fill="#77E2C3"/>
<path d="M1372.32 76.4082C1371.7 78.7981 1369.82 80.7171 1367.41 81.4471V85.6264C1369.24 85.285 1370.91 84.5198 1372.32 83.4485V76.4082Z" fill="white"/>
<path d="M1367.41 85.6384V81.459C1366.73 81.6709 1366.01 81.7768 1365.26 81.7768C1364.66 81.7768 1364.08 81.7062 1363.53 81.5767V85.7208C1364.09 85.8032 1364.67 85.8503 1365.26 85.8503C1366 85.8385 1366.72 85.7679 1367.41 85.6384Z" fill="white"/>
<path d="M1365.26 67.5312C1369.27 67.5312 1372.55 70.7217 1372.55 74.6539C1372.55 78.5743 1369.27 81.7765 1365.26 81.7765C1361.25 81.7765 1357.97 78.586 1357.97 74.6539C1357.97 70.7217 1361.25 67.5312 1365.26 67.5312Z" fill="#008C95"/>
<path d="M1633.68 79.4465C1633.68 95.0574 1621.03 107.701 1605.43 107.701C1589.82 107.701 1577.17 95.0574 1577.17 79.4465C1577.17 63.8355 1589.82 51.1914 1605.43 51.1914C1621.03 51.1914 1633.68 63.8473 1633.68 79.4465Z" fill="white"/>
<path d="M1616.52 63.0703H1594.33V95.8343H1616.52V63.0703Z" fill="#77E2C3"/>
<path d="M1618.34 67.8633H1592.53V71.4422H1618.34V67.8633Z" fill="#77E2C3"/>
<path d="M1616.52 67.8633H1594.33V71.4422H1616.52V67.8633Z" fill="#008C95"/>
<path d="M1618.34 87.4395H1592.53V91.0184H1618.34V87.4395Z" fill="#77E2C3"/>
<path d="M1616.52 87.4395H1594.33V91.0184H1616.52V87.4395Z" fill="#008C95"/>
<path d="M1609.42 81.3071C1609.42 83.5086 1607.63 85.2981 1605.43 85.2981C1603.23 85.2981 1601.44 83.5086 1601.44 81.3071C1601.44 79.1056 1605.43 73.5723 1605.43 73.5723C1605.43 73.5723 1609.42 79.0938 1609.42 81.3071Z" fill="#008C95"/>
<path d="M1553.62 159.536C1553.62 175.147 1540.97 187.791 1525.37 187.791C1509.76 187.791 1497.11 175.147 1497.11 159.536C1497.11 143.937 1509.76 131.281 1525.37 131.281C1540.97 131.281 1553.62 143.937 1553.62 159.536Z" fill="white"/>
<path d="M1543.5 175.431C1532.46 175.431 1527.39 172.877 1522.92 170.616C1518.86 168.568 1515.34 166.79 1507.44 167.155L1507.23 162.564C1516.33 162.152 1520.73 164.365 1524.99 166.519C1529.21 168.65 1533.56 170.84 1543.5 170.84V175.431Z" fill="#008C95"/>
<path d="M1543.5 163.411C1532.37 163.411 1528.06 161.009 1524.27 158.878C1520.82 156.947 1517.57 155.134 1507.33 155.134V147.176C1519.65 147.176 1524.17 149.707 1528.16 151.932C1531.54 153.816 1534.45 155.452 1543.5 155.452V163.411Z" fill="#008C95"/>
<path d="M1543.47 155.922C1533.55 155.827 1529.77 153.744 1526.11 151.719C1522.31 149.623 1518.72 147.645 1507.33 147.645V143.666C1519.74 143.666 1523.96 145.985 1528.03 148.234C1531.41 150.094 1534.6 151.848 1543.52 151.942L1543.47 155.922Z" fill="#77E2C3"/>
<path d="M1553.62 239.581C1553.62 255.192 1540.97 267.836 1525.37 267.836C1509.76 267.836 1497.11 255.192 1497.11 239.581C1497.11 223.97 1509.76 211.326 1525.37 211.326C1540.97 211.326 1553.62 223.97 1553.62 239.581Z" fill="white"/>
<path d="M1540.98 227.031H1509.76V232.094H1540.98V227.031Z" fill="#77E2C3"/>
<path d="M1540.98 247.068H1509.76V252.131H1540.98V247.068Z" fill="#008C95"/>
<path d="M1540.98 232.084H1509.76V240.725H1540.98V232.084Z" fill="#008C95"/>
<path d="M1360.15 22.9302V25H1345.62V22.9302H1360.15ZM1346.03 22.9302V29.7197H1343.51L1343.5 22.9302H1346.03ZM1362.37 22.9302L1362.34 29.7065H1359.82V22.9302H1362.37ZM1357.66 5.80469V7.8877H1349.25V5.80469H1357.66ZM1359.85 5.80469V25H1357.32V5.80469H1359.85ZM1348.38 5.80469H1350.92L1350.53 13.5303C1350.47 14.6904 1350.36 15.7627 1350.2 16.7471C1350.03 17.7227 1349.82 18.6147 1349.58 19.4233C1349.33 20.2319 1349.05 20.957 1348.73 21.5986C1348.42 22.2314 1348.08 22.7808 1347.72 23.2466C1347.36 23.7036 1346.98 24.0815 1346.59 24.3804C1346.2 24.6704 1345.81 24.877 1345.41 25H1344.25V22.9302H1345.07C1345.3 22.6841 1345.56 22.3281 1345.85 21.8623C1346.15 21.3965 1346.44 20.7944 1346.73 20.0562C1347.03 19.3091 1347.29 18.3994 1347.51 17.3271C1347.74 16.2549 1347.89 14.9893 1347.97 13.5303L1348.38 5.80469ZM1364.34 18.0259V17.7227C1364.34 16.6943 1364.49 15.7407 1364.79 14.8618C1365.09 13.9741 1365.52 13.2051 1366.08 12.5547C1366.65 11.8955 1367.33 11.3857 1368.13 11.0254C1368.93 10.6562 1369.82 10.4717 1370.82 10.4717C1371.82 10.4717 1372.72 10.6562 1373.52 11.0254C1374.33 11.3857 1375.01 11.8955 1375.58 12.5547C1376.15 13.2051 1376.58 13.9741 1376.88 14.8618C1377.18 15.7407 1377.33 16.6943 1377.33 17.7227V18.0259C1377.33 19.0542 1377.18 20.0078 1376.88 20.8867C1376.58 21.7656 1376.15 22.5347 1375.58 23.1938C1375.01 23.8442 1374.33 24.354 1373.53 24.7231C1372.74 25.0835 1371.85 25.2637 1370.84 25.2637C1369.84 25.2637 1368.94 25.0835 1368.14 24.7231C1367.34 24.354 1366.66 23.8442 1366.08 23.1938C1365.52 22.5347 1365.09 21.7656 1364.79 20.8867C1364.49 20.0078 1364.34 19.0542 1364.34 18.0259ZM1366.78 17.7227V18.0259C1366.78 18.7378 1366.87 19.4102 1367.03 20.043C1367.2 20.667 1367.45 21.2207 1367.78 21.7041C1368.13 22.1875 1368.55 22.5698 1369.06 22.8511C1369.57 23.1235 1370.17 23.2598 1370.84 23.2598C1371.51 23.2598 1372.1 23.1235 1372.6 22.8511C1373.11 22.5698 1373.53 22.1875 1373.86 21.7041C1374.2 21.2207 1374.45 20.667 1374.61 20.043C1374.79 19.4102 1374.88 18.7378 1374.88 18.0259V17.7227C1374.88 17.0195 1374.79 16.356 1374.61 15.7319C1374.45 15.0991 1374.19 14.541 1373.85 14.0576C1373.52 13.5654 1373.09 13.1787 1372.58 12.8975C1372.08 12.6162 1371.49 12.4756 1370.82 12.4756C1370.15 12.4756 1369.56 12.6162 1369.05 12.8975C1368.55 13.1787 1368.13 13.5654 1367.78 14.0576C1367.45 14.541 1367.2 15.0991 1367.03 15.7319C1366.87 16.356 1366.78 17.0195 1366.78 17.7227ZM1382.83 13.4775V30.4844H1380.38V10.7354H1382.62L1382.83 13.4775ZM1392.44 17.749V18.0259C1392.44 19.063 1392.31 20.0254 1392.07 20.9131C1391.82 21.792 1391.46 22.5566 1390.99 23.207C1390.52 23.8574 1389.95 24.3628 1389.26 24.7231C1388.58 25.0835 1387.79 25.2637 1386.9 25.2637C1386 25.2637 1385.2 25.1143 1384.5 24.8154C1383.81 24.5166 1383.22 24.0815 1382.73 23.5103C1382.25 22.939 1381.86 22.2534 1381.57 21.4536C1381.29 20.6538 1381.1 19.7529 1380.99 18.751V17.2744C1381.1 16.2197 1381.3 15.2749 1381.59 14.4399C1381.88 13.605 1382.26 12.8931 1382.73 12.3042C1383.22 11.7065 1383.8 11.2539 1384.49 10.9463C1385.17 10.6299 1385.96 10.4717 1386.86 10.4717C1387.76 10.4717 1388.55 10.6475 1389.25 10.999C1389.94 11.3418 1390.53 11.834 1391 12.4756C1391.48 13.1172 1391.83 13.8862 1392.07 14.7827C1392.31 15.6704 1392.44 16.6592 1392.44 17.749ZM1389.99 18.0259V17.749C1389.99 17.0371 1389.91 16.3691 1389.76 15.7451C1389.61 15.1123 1389.38 14.5586 1389.06 14.084C1388.76 13.6006 1388.36 13.2227 1387.88 12.9502C1387.39 12.6689 1386.82 12.5283 1386.15 12.5283C1385.53 12.5283 1385 12.6338 1384.54 12.8447C1384.09 13.0557 1383.71 13.3413 1383.39 13.7017C1383.08 14.0532 1382.82 14.4575 1382.62 14.9146C1382.42 15.3628 1382.28 15.8286 1382.18 16.312V19.7266C1382.36 20.3418 1382.6 20.9219 1382.92 21.4668C1383.24 22.0029 1383.66 22.438 1384.19 22.772C1384.71 23.0972 1385.38 23.2598 1386.18 23.2598C1386.83 23.2598 1387.4 23.1235 1387.88 22.8511C1388.36 22.5698 1388.76 22.1875 1389.06 21.7041C1389.38 21.2207 1389.61 20.667 1389.76 20.043C1389.91 19.4102 1389.99 18.7378 1389.99 18.0259ZM1394.9 18.0259V17.7227C1394.9 16.6943 1395.05 15.7407 1395.35 14.8618C1395.65 13.9741 1396.08 13.2051 1396.64 12.5547C1397.21 11.8955 1397.89 11.3857 1398.69 11.0254C1399.49 10.6562 1400.38 10.4717 1401.38 10.4717C1402.38 10.4717 1403.28 10.6562 1404.08 11.0254C1404.89 11.3857 1405.57 11.8955 1406.14 12.5547C1406.71 13.2051 1407.14 13.9741 1407.44 14.8618C1407.74 15.7407 1407.89 16.6943 1407.89 17.7227V18.0259C1407.89 19.0542 1407.74 20.0078 1407.44 20.8867C1407.14 21.7656 1406.71 22.5347 1406.14 23.1938C1405.57 23.8442 1404.89 24.354 1404.09 24.7231C1403.3 25.0835 1402.4 25.2637 1401.4 25.2637C1400.4 25.2637 1399.5 25.0835 1398.7 24.7231C1397.9 24.354 1397.21 23.8442 1396.64 23.1938C1396.08 22.5347 1395.65 21.7656 1395.35 20.8867C1395.05 20.0078 1394.9 19.0542 1394.9 18.0259ZM1397.34 17.7227V18.0259C1397.34 18.7378 1397.43 19.4102 1397.59 20.043C1397.76 20.667 1398.01 21.2207 1398.34 21.7041C1398.69 22.1875 1399.11 22.5698 1399.62 22.8511C1400.13 23.1235 1400.73 23.2598 1401.4 23.2598C1402.07 23.2598 1402.66 23.1235 1403.16 22.8511C1403.67 22.5698 1404.09 22.1875 1404.42 21.7041C1404.76 21.2207 1405.01 20.667 1405.17 20.043C1405.35 19.4102 1405.44 18.7378 1405.44 18.0259V17.7227C1405.44 17.0195 1405.35 16.356 1405.17 15.7319C1405.01 15.0991 1404.75 14.541 1404.41 14.0576C1404.07 13.5654 1403.65 13.1787 1403.14 12.8975C1402.64 12.6162 1402.05 12.4756 1401.38 12.4756C1400.71 12.4756 1400.12 12.6162 1399.61 12.8975C1399.11 13.1787 1398.69 13.5654 1398.34 14.0576C1398.01 14.541 1397.76 15.0991 1397.59 15.7319C1397.43 16.356 1397.34 17.0195 1397.34 17.7227ZM1414.98 18.7905L1409.58 10.7354H1412.52L1416.21 16.6416H1419.06L1418.7 18.7905H1414.98ZM1416.31 18.54L1412.17 25H1409.09L1414.77 16.7734L1416.31 18.54ZM1420.31 10.7354V25H1417.87V10.7354H1420.31ZM1428.63 10.7354L1423.22 18.7905H1419.5L1419.12 16.6416H1421.98L1425.67 10.7354H1428.63ZM1426.02 25L1421.86 18.54L1423.43 16.7734L1429.1 25H1426.02ZM1441.03 16.9185V18.896H1433.49V16.9185H1441.03ZM1434.01 10.7354V25H1431.57V10.7354H1434.01ZM1443.01 10.7354V25H1440.56V10.7354H1443.01ZM1446.29 18.0259V17.7227C1446.29 16.6943 1446.44 15.7407 1446.74 14.8618C1447.04 13.9741 1447.47 13.2051 1448.03 12.5547C1448.6 11.8955 1449.28 11.3857 1450.08 11.0254C1450.88 10.6562 1451.77 10.4717 1452.77 10.4717C1453.77 10.4717 1454.67 10.6562 1455.47 11.0254C1456.28 11.3857 1456.96 11.8955 1457.53 12.5547C1458.1 13.2051 1458.53 13.9741 1458.83 14.8618C1459.13 15.7407 1459.28 16.6943 1459.28 17.7227V18.0259C1459.28 19.0542 1459.13 20.0078 1458.83 20.8867C1458.53 21.7656 1458.1 22.5347 1457.53 23.1938C1456.96 23.8442 1456.28 24.354 1455.48 24.7231C1454.69 25.0835 1453.79 25.2637 1452.79 25.2637C1451.79 25.2637 1450.89 25.0835 1450.09 24.7231C1449.29 24.354 1448.6 23.8442 1448.03 23.1938C1447.47 22.5347 1447.04 21.7656 1446.74 20.8867C1446.44 20.0078 1446.29 19.0542 1446.29 18.0259ZM1448.73 17.7227V18.0259C1448.73 18.7378 1448.82 19.4102 1448.98 20.043C1449.15 20.667 1449.4 21.2207 1449.73 21.7041C1450.08 22.1875 1450.5 22.5698 1451.01 22.8511C1451.52 23.1235 1452.12 23.2598 1452.79 23.2598C1453.46 23.2598 1454.04 23.1235 1454.55 22.8511C1455.06 22.5698 1455.48 22.1875 1455.81 21.7041C1456.15 21.2207 1456.4 20.667 1456.56 20.043C1456.74 19.4102 1456.83 18.7378 1456.83 18.0259V17.7227C1456.83 17.0195 1456.74 16.356 1456.56 15.7319C1456.4 15.0991 1456.14 14.541 1455.8 14.0576C1455.46 13.5654 1455.04 13.1787 1454.53 12.8975C1454.03 12.6162 1453.44 12.4756 1452.77 12.4756C1452.1 12.4756 1451.51 12.6162 1451 12.8975C1450.5 13.1787 1450.08 13.5654 1449.73 14.0576C1449.4 14.541 1449.15 15.0991 1448.98 15.7319C1448.82 16.356 1448.73 17.0195 1448.73 17.7227ZM1468.26 25.2637C1467.26 25.2637 1466.36 25.0967 1465.55 24.7627C1464.75 24.4199 1464.06 23.9409 1463.48 23.3257C1462.91 22.7104 1462.47 21.981 1462.17 21.1372C1461.86 20.2935 1461.7 19.3706 1461.7 18.3687V17.8149C1461.7 16.6548 1461.88 15.6221 1462.22 14.7168C1462.56 13.8027 1463.03 13.0293 1463.62 12.3965C1464.21 11.7637 1464.87 11.2847 1465.62 10.9595C1466.37 10.6343 1467.14 10.4717 1467.94 10.4717C1468.96 10.4717 1469.84 10.6475 1470.58 10.999C1471.32 11.3506 1471.94 11.8428 1472.41 12.4756C1472.88 13.0996 1473.24 13.8379 1473.46 14.6904C1473.69 15.5342 1473.81 16.457 1473.81 17.459V18.5532H1463.15V16.5625H1471.37V16.3779C1471.33 15.7451 1471.2 15.1299 1470.97 14.5322C1470.75 13.9346 1470.4 13.4424 1469.92 13.0557C1469.43 12.6689 1468.78 12.4756 1467.94 12.4756C1467.39 12.4756 1466.88 12.5942 1466.41 12.8315C1465.95 13.0601 1465.55 13.4028 1465.21 13.8599C1464.88 14.3169 1464.62 14.875 1464.43 15.5342C1464.25 16.1934 1464.16 16.9536 1464.16 17.8149V18.3687C1464.16 19.0454 1464.25 19.6826 1464.43 20.2803C1464.63 20.8691 1464.9 21.3877 1465.26 21.8359C1465.63 22.2842 1466.08 22.6357 1466.6 22.8906C1467.12 23.1455 1467.72 23.2729 1468.39 23.2729C1469.25 23.2729 1469.98 23.0972 1470.58 22.7456C1471.17 22.394 1471.7 21.9238 1472.15 21.335L1473.62 22.5083C1473.31 22.9741 1472.92 23.418 1472.45 23.8398C1471.97 24.2617 1471.39 24.6045 1470.7 24.8682C1470.01 25.1318 1469.2 25.2637 1468.26 25.2637ZM1489.06 23.2598C1489.64 23.2598 1490.18 23.1411 1490.67 22.9038C1491.16 22.6665 1491.57 22.3413 1491.88 21.9282C1492.2 21.5063 1492.38 21.0273 1492.42 20.4912H1494.74C1494.7 21.335 1494.41 22.1216 1493.89 22.8511C1493.37 23.5718 1492.69 24.1562 1491.84 24.6045C1491 25.0439 1490.07 25.2637 1489.06 25.2637C1487.99 25.2637 1487.05 25.0747 1486.25 24.6968C1485.46 24.3188 1484.8 23.8003 1484.27 23.1411C1483.76 22.4819 1483.37 21.7261 1483.1 20.8735C1482.85 20.0122 1482.72 19.1025 1482.72 18.1445V17.5908C1482.72 16.6328 1482.85 15.7275 1483.1 14.875C1483.37 14.0137 1483.76 13.2534 1484.27 12.5942C1484.8 11.9351 1485.46 11.4165 1486.25 11.0386C1487.05 10.6606 1487.99 10.4717 1489.06 10.4717C1490.18 10.4717 1491.15 10.7002 1491.99 11.1572C1492.82 11.6055 1493.48 12.2207 1493.95 13.0029C1494.44 13.7764 1494.7 14.6553 1494.74 15.6396H1492.42C1492.38 15.0508 1492.21 14.519 1491.92 14.0444C1491.64 13.5698 1491.25 13.1919 1490.76 12.9106C1490.28 12.6206 1489.71 12.4756 1489.06 12.4756C1488.31 12.4756 1487.69 12.625 1487.18 12.9238C1486.67 13.2139 1486.27 13.6094 1485.98 14.1104C1485.69 14.6025 1485.47 15.1519 1485.34 15.7583C1485.22 16.356 1485.16 16.9668 1485.16 17.5908V18.1445C1485.16 18.7686 1485.22 19.3838 1485.34 19.9902C1485.47 20.5967 1485.67 21.146 1485.96 21.6382C1486.26 22.1304 1486.66 22.5259 1487.16 22.8247C1487.67 23.1147 1488.3 23.2598 1489.06 23.2598ZM1503.3 10.7354V25H1500.85V10.7354H1503.3ZM1508.08 10.7354V12.7129H1496.15V10.7354H1508.08ZM1512.92 13.4775V30.4844H1510.47V10.7354H1512.71L1512.92 13.4775ZM1522.53 17.749V18.0259C1522.53 19.063 1522.41 20.0254 1522.16 20.9131C1521.92 21.792 1521.56 22.5566 1521.08 23.207C1520.62 23.8574 1520.04 24.3628 1519.36 24.7231C1518.67 25.0835 1517.88 25.2637 1517 25.2637C1516.09 25.2637 1515.29 25.1143 1514.6 24.8154C1513.9 24.5166 1513.31 24.0815 1512.83 23.5103C1512.35 22.939 1511.96 22.2534 1511.67 21.4536C1511.39 20.6538 1511.2 19.7529 1511.09 18.751V17.2744C1511.2 16.2197 1511.39 15.2749 1511.68 14.4399C1511.97 13.605 1512.36 12.8931 1512.83 12.3042C1513.31 11.7065 1513.9 11.2539 1514.58 10.9463C1515.27 10.6299 1516.06 10.4717 1516.96 10.4717C1517.85 10.4717 1518.65 10.6475 1519.34 10.999C1520.04 11.3418 1520.62 11.834 1521.1 12.4756C1521.57 13.1172 1521.93 13.8862 1522.16 14.7827C1522.41 15.6704 1522.53 16.6592 1522.53 17.749ZM1520.08 18.0259V17.749C1520.08 17.0371 1520.01 16.3691 1519.86 15.7451C1519.71 15.1123 1519.48 14.5586 1519.16 14.084C1518.85 13.6006 1518.46 13.2227 1517.97 12.9502C1517.49 12.6689 1516.91 12.5283 1516.25 12.5283C1515.63 12.5283 1515.09 12.6338 1514.64 12.8447C1514.19 13.0557 1513.81 13.3413 1513.49 13.7017C1513.17 14.0532 1512.91 14.4575 1512.71 14.9146C1512.52 15.3628 1512.37 15.8286 1512.28 16.312V19.7266C1512.45 20.3418 1512.7 20.9219 1513.02 21.4668C1513.33 22.0029 1513.75 22.438 1514.28 22.772C1514.81 23.0972 1515.47 23.2598 1516.27 23.2598C1516.93 23.2598 1517.5 23.1235 1517.97 22.8511C1518.46 22.5698 1518.85 22.1875 1519.16 21.7041C1519.48 21.2207 1519.71 20.667 1519.86 20.043C1520.01 19.4102 1520.08 18.7378 1520.08 18.0259ZM1525 18.0259V17.7227C1525 16.6943 1525.15 15.7407 1525.45 14.8618C1525.75 13.9741 1526.18 13.2051 1526.74 12.5547C1527.3 11.8955 1527.98 11.3857 1528.78 11.0254C1529.58 10.6562 1530.48 10.4717 1531.47 10.4717C1532.47 10.4717 1533.38 10.6562 1534.17 11.0254C1534.98 11.3857 1535.67 11.8955 1536.23 12.5547C1536.8 13.2051 1537.24 13.9741 1537.54 14.8618C1537.84 15.7407 1537.98 16.6943 1537.98 17.7227V18.0259C1537.98 19.0542 1537.84 20.0078 1537.54 20.8867C1537.24 21.7656 1536.8 22.5347 1536.23 23.1938C1535.67 23.8442 1534.99 24.354 1534.19 24.7231C1533.4 25.0835 1532.5 25.2637 1531.5 25.2637C1530.5 25.2637 1529.6 25.0835 1528.8 24.7231C1528 24.354 1527.31 23.8442 1526.74 23.1938C1526.18 22.5347 1525.75 21.7656 1525.45 20.8867C1525.15 20.0078 1525 19.0542 1525 18.0259ZM1527.44 17.7227V18.0259C1527.44 18.7378 1527.52 19.4102 1527.69 20.043C1527.86 20.667 1528.11 21.2207 1528.44 21.7041C1528.78 22.1875 1529.21 22.5698 1529.72 22.8511C1530.23 23.1235 1530.82 23.2598 1531.5 23.2598C1532.17 23.2598 1532.75 23.1235 1533.25 22.8511C1533.76 22.5698 1534.18 22.1875 1534.52 21.7041C1534.85 21.2207 1535.1 20.667 1535.27 20.043C1535.44 19.4102 1535.53 18.7378 1535.53 18.0259V17.7227C1535.53 17.0195 1535.44 16.356 1535.27 15.7319C1535.1 15.0991 1534.85 14.541 1534.5 14.0576C1534.17 13.5654 1533.75 13.1787 1533.24 12.8975C1532.74 12.6162 1532.15 12.4756 1531.47 12.4756C1530.8 12.4756 1530.22 12.6162 1529.71 12.8975C1529.2 13.1787 1528.78 13.5654 1528.44 14.0576C1528.11 14.541 1527.86 15.0991 1527.69 15.7319C1527.52 16.356 1527.44 17.0195 1527.44 17.7227ZM1543.68 21.1372L1550.26 10.7354H1552.71V25H1550.26V14.5981L1543.68 25H1541.25V10.7354H1543.68V21.1372ZM1562.44 10.7354V25H1559.99V10.7354H1562.44ZM1567.23 10.7354V12.7129H1555.29V10.7354H1567.23ZM1574.49 25.2637C1573.5 25.2637 1572.6 25.0967 1571.79 24.7627C1570.99 24.4199 1570.3 23.9409 1569.72 23.3257C1569.15 22.7104 1568.71 21.981 1568.4 21.1372C1568.09 20.2935 1567.94 19.3706 1567.94 18.3687V17.8149C1567.94 16.6548 1568.11 15.6221 1568.45 14.7168C1568.79 13.8027 1569.26 13.0293 1569.85 12.3965C1570.44 11.7637 1571.11 11.2847 1571.85 10.9595C1572.6 10.6343 1573.37 10.4717 1574.17 10.4717C1575.19 10.4717 1576.07 10.6475 1576.81 10.999C1577.56 11.3506 1578.17 11.8428 1578.64 12.4756C1579.12 13.0996 1579.47 13.8379 1579.7 14.6904C1579.93 15.5342 1580.04 16.457 1580.04 17.459V18.5532H1569.39V16.5625H1577.6V16.3779C1577.57 15.7451 1577.43 15.1299 1577.21 14.5322C1576.99 13.9346 1576.63 13.4424 1576.15 13.0557C1575.67 12.6689 1575.01 12.4756 1574.17 12.4756C1573.62 12.4756 1573.11 12.5942 1572.64 12.8315C1572.18 13.0601 1571.78 13.4028 1571.44 13.8599C1571.11 14.3169 1570.85 14.875 1570.67 15.5342C1570.48 16.1934 1570.39 16.9536 1570.39 17.8149V18.3687C1570.39 19.0454 1570.48 19.6826 1570.67 20.2803C1570.86 20.8691 1571.14 21.3877 1571.5 21.8359C1571.87 22.2842 1572.31 22.6357 1572.83 22.8906C1573.36 23.1455 1573.95 23.2729 1574.62 23.2729C1575.48 23.2729 1576.21 23.0972 1576.81 22.7456C1577.41 22.394 1577.93 21.9238 1578.38 21.335L1579.86 22.5083C1579.55 22.9741 1579.16 23.418 1578.68 23.8398C1578.21 24.2617 1577.62 24.6045 1576.93 24.8682C1576.24 25.1318 1575.43 25.2637 1574.49 25.2637ZM1592.42 10.7354V12.7524H1585.52V10.7354H1592.42ZM1594.57 10.7354V25H1592.13V10.7354H1594.57ZM1584.93 10.7354H1587.38L1587.01 17.6172C1586.95 18.6807 1586.85 19.6211 1586.71 20.4385C1586.58 21.2471 1586.4 21.9414 1586.16 22.5215C1585.93 23.1016 1585.64 23.5762 1585.29 23.9453C1584.94 24.3057 1584.53 24.5737 1584.05 24.7495C1583.56 24.9165 1583.01 25 1582.37 25H1581.61V22.8511L1582.14 22.8115C1582.51 22.7852 1582.84 22.6973 1583.1 22.5479C1583.37 22.3984 1583.6 22.1787 1583.78 21.8887C1583.97 21.5898 1584.12 21.2075 1584.23 20.7417C1584.36 20.2759 1584.45 19.7222 1584.51 19.0806C1584.58 18.439 1584.63 17.6919 1584.67 16.8394L1584.93 10.7354ZM1600.5 15.6396H1604.79C1605.94 15.6396 1606.91 15.8418 1607.7 16.2461C1608.49 16.6416 1609.09 17.1909 1609.49 17.894C1609.91 18.5884 1610.11 19.3794 1610.11 20.2671C1610.11 20.9263 1610 21.5459 1609.77 22.126C1609.54 22.6973 1609.2 23.1982 1608.74 23.6289C1608.29 24.0596 1607.73 24.3979 1607.07 24.644C1606.41 24.8813 1605.65 25 1604.79 25H1598.72V10.7354H1601.16V22.9961H1604.79C1605.49 22.9961 1606.05 22.8687 1606.47 22.6138C1606.9 22.3589 1607.2 22.0293 1607.38 21.625C1607.57 21.2207 1607.66 20.7988 1607.66 20.3594C1607.66 19.9287 1607.57 19.5068 1607.38 19.0938C1607.2 18.6807 1606.9 18.3379 1606.47 18.0654C1606.05 17.7842 1605.49 17.6436 1604.79 17.6436H1600.5V15.6396ZM1618.87 23.2598C1619.45 23.2598 1619.98 23.1411 1620.47 22.9038C1620.97 22.6665 1621.37 22.3413 1621.69 21.9282C1622 21.5063 1622.18 21.0273 1622.23 20.4912H1624.55C1624.5 21.335 1624.22 22.1216 1623.69 22.8511C1623.17 23.5718 1622.49 24.1562 1621.65 24.6045C1620.8 25.0439 1619.88 25.2637 1618.87 25.2637C1617.79 25.2637 1616.86 25.0747 1616.06 24.6968C1615.27 24.3188 1614.61 23.8003 1614.08 23.1411C1613.56 22.4819 1613.17 21.7261 1612.91 20.8735C1612.65 20.0122 1612.52 19.1025 1612.52 18.1445V17.5908C1612.52 16.6328 1612.65 15.7275 1612.91 14.875C1613.17 14.0137 1613.56 13.2534 1614.08 12.5942C1614.61 11.9351 1615.27 11.4165 1616.06 11.0386C1616.86 10.6606 1617.79 10.4717 1618.87 10.4717C1619.98 10.4717 1620.96 10.7002 1621.79 11.1572C1622.63 11.6055 1623.28 12.2207 1623.76 13.0029C1624.24 13.7764 1624.5 14.6553 1624.55 15.6396H1622.23C1622.18 15.0508 1622.02 14.519 1621.73 14.0444C1621.45 13.5698 1621.06 13.1919 1620.57 12.9106C1620.08 12.6206 1619.52 12.4756 1618.87 12.4756C1618.12 12.4756 1617.49 12.625 1616.98 12.9238C1616.48 13.2139 1616.08 13.6094 1615.78 14.1104C1615.49 14.6025 1615.28 15.1519 1615.15 15.7583C1615.03 16.356 1614.96 16.9668 1614.96 17.5908V18.1445C1614.96 18.7686 1615.03 19.3838 1615.15 19.9902C1615.27 20.5967 1615.48 21.146 1615.77 21.6382C1616.07 22.1304 1616.47 22.5259 1616.97 22.8247C1617.48 23.1147 1618.11 23.2598 1618.87 23.2598ZM1633.1 10.7354V25H1630.65V10.7354H1633.1ZM1637.89 10.7354V12.7129H1625.96V10.7354H1637.89ZM1646.99 18.7246H1642.31L1642.28 16.7734H1646.1C1646.86 16.7734 1647.49 16.6987 1647.99 16.5493C1648.5 16.3999 1648.88 16.1758 1649.14 15.877C1649.39 15.5781 1649.52 15.209 1649.52 14.7695C1649.52 14.4268 1649.44 14.1279 1649.29 13.873C1649.15 13.6094 1648.94 13.394 1648.65 13.2271C1648.36 13.0513 1648 12.9238 1647.57 12.8447C1647.15 12.7568 1646.65 12.7129 1646.08 12.7129H1642.95V25H1640.51V10.7354H1646.08C1646.98 10.7354 1647.8 10.8145 1648.52 10.9727C1649.25 11.1309 1649.87 11.3726 1650.38 11.6978C1650.89 12.0142 1651.29 12.4185 1651.56 12.9106C1651.83 13.4028 1651.97 13.9829 1651.97 14.6509C1651.97 15.0815 1651.88 15.4902 1651.71 15.877C1651.53 16.2637 1651.27 16.6064 1650.93 16.9053C1650.59 17.2041 1650.16 17.4502 1649.66 17.6436C1649.16 17.8281 1648.59 17.9468 1647.94 17.9995L1646.99 18.7246ZM1646.99 25H1641.42L1642.64 23.0225H1646.99C1647.66 23.0225 1648.23 22.939 1648.67 22.772C1649.12 22.5962 1649.46 22.3501 1649.68 22.0337C1649.9 21.7085 1650.02 21.3218 1650.02 20.8735C1650.02 20.4253 1649.9 20.043 1649.68 19.7266C1649.46 19.4014 1649.12 19.1553 1648.67 18.9883C1648.23 18.8125 1647.66 18.7246 1646.99 18.7246H1643.28L1643.31 16.7734H1647.94L1648.82 17.5117C1649.6 17.5732 1650.27 17.7666 1650.81 18.0918C1651.35 18.417 1651.77 18.8301 1652.05 19.3311C1652.33 19.8232 1652.47 20.3594 1652.47 20.9395C1652.47 21.6074 1652.34 22.1963 1652.09 22.7061C1651.84 23.2158 1651.48 23.6421 1651.01 23.9849C1650.53 24.3188 1649.96 24.5737 1649.28 24.7495C1648.6 24.9165 1647.84 25 1646.99 25ZM1655.09 18.0259V17.7227C1655.09 16.6943 1655.24 15.7407 1655.54 14.8618C1655.84 13.9741 1656.27 13.2051 1656.83 12.5547C1657.4 11.8955 1658.08 11.3857 1658.88 11.0254C1659.68 10.6562 1660.57 10.4717 1661.57 10.4717C1662.57 10.4717 1663.47 10.6562 1664.27 11.0254C1665.08 11.3857 1665.76 11.8955 1666.33 12.5547C1666.9 13.2051 1667.33 13.9741 1667.63 14.8618C1667.93 15.7407 1668.08 16.6943 1668.08 17.7227V18.0259C1668.08 19.0542 1667.93 20.0078 1667.63 20.8867C1667.33 21.7656 1666.9 22.5347 1666.33 23.1938C1665.76 23.8442 1665.08 24.354 1664.28 24.7231C1663.49 25.0835 1662.6 25.2637 1661.59 25.2637C1660.59 25.2637 1659.69 25.0835 1658.89 24.7231C1658.09 24.354 1657.41 23.8442 1656.83 23.1938C1656.27 22.5347 1655.84 21.7656 1655.54 20.8867C1655.24 20.0078 1655.09 19.0542 1655.09 18.0259ZM1657.53 17.7227V18.0259C1657.53 18.7378 1657.62 19.4102 1657.78 20.043C1657.95 20.667 1658.2 21.2207 1658.54 21.7041C1658.88 22.1875 1659.3 22.5698 1659.81 22.8511C1660.32 23.1235 1660.92 23.2598 1661.59 23.2598C1662.26 23.2598 1662.85 23.1235 1663.35 22.8511C1663.86 22.5698 1664.28 22.1875 1664.61 21.7041C1664.95 21.2207 1665.2 20.667 1665.36 20.043C1665.54 19.4102 1665.63 18.7378 1665.63 18.0259V17.7227C1665.63 17.0195 1665.54 16.356 1665.36 15.7319C1665.2 15.0991 1664.94 14.541 1664.6 14.0576C1664.27 13.5654 1663.84 13.1787 1663.33 12.8975C1662.83 12.6162 1662.24 12.4756 1661.57 12.4756C1660.9 12.4756 1660.31 12.6162 1659.8 12.8975C1659.3 13.1787 1658.88 13.5654 1658.54 14.0576C1658.2 14.541 1657.95 15.0991 1657.78 15.7319C1657.62 16.356 1657.53 17.0195 1657.53 17.7227Z" fill="#008C95"/>
</svg>
