<svg width="830" height="233" viewBox="0 0 830 233" fill="none" xmlns="http://www.w3.org/2000/svg">
<path d="M9.19141 15.7773H4.79688V13.2461H9.19141C9.91016 13.2461 10.4922 13.1289 10.9375 12.8945C11.3906 12.6523 11.7227 12.3242 11.9336 11.9102C12.1445 11.4883 12.25 11.0078 12.25 10.4688C12.25 9.94531 12.1445 9.45703 11.9336 9.00391C11.7227 8.55078 11.3906 8.18359 10.9375 7.90234C10.4922 7.62109 9.91016 7.48047 9.19141 7.48047H5.85156V22H2.62891V4.9375H9.19141C10.5195 4.9375 11.6523 5.17578 12.5898 5.65234C13.5352 6.12109 14.2539 6.77344 14.7461 7.60938C15.2461 8.4375 15.4961 9.38281 15.4961 10.4453C15.4961 11.5469 15.2461 12.4961 14.7461 13.293C14.2539 14.0898 13.5352 14.7031 12.5898 15.1328C11.6523 15.5625 10.5195 15.7773 9.19141 15.7773ZM21.6953 20.5938L25.0938 9.32031H28.4102L23.3242 23.9219C23.207 24.2344 23.0547 24.5742 22.8672 24.9414C22.6875 25.3086 22.4453 25.6562 22.1406 25.9844C21.8359 26.3203 21.4531 26.5938 20.9922 26.8047C20.5391 27.0156 19.9883 27.1211 19.3398 27.1211C19.0586 27.1211 18.8086 27.1016 18.5898 27.0625C18.3711 27.0234 18.1406 26.9727 17.8984 26.9102V24.5898C17.9766 24.5977 18.0664 24.6016 18.168 24.6016C18.2773 24.6094 18.3711 24.6133 18.4492 24.6133C18.9023 24.6133 19.2773 24.5586 19.5742 24.4492C19.8711 24.3477 20.1094 24.1797 20.2891 23.9453C20.4766 23.7188 20.6328 23.4219 20.7578 23.0547L21.6953 20.5938ZM20.0195 9.32031L22.8906 18.6602L23.3945 21.9297L21.2617 22.3164L16.6797 9.32031H20.0195ZM34.9492 19.7969C35.3867 19.7969 35.7773 19.7109 36.1211 19.5391C36.4648 19.3672 36.7383 19.125 36.9414 18.8125C37.1523 18.5 37.2656 18.1367 37.2812 17.7227H40.1992C40.1836 18.582 39.9414 19.3516 39.4727 20.0312C39.0039 20.7109 38.3789 21.25 37.5977 21.6484C36.8242 22.0391 35.957 22.2344 34.9961 22.2344C34.0195 22.2344 33.168 22.0703 32.4414 21.7422C31.7148 21.4141 31.1094 20.957 30.625 20.3711C30.1484 19.7852 29.7891 19.1055 29.5469 18.332C29.3125 17.5586 29.1953 16.7305 29.1953 15.8477V15.4727C29.1953 14.5898 29.3125 13.7617 29.5469 12.9883C29.7891 12.2148 30.1484 11.5352 30.625 10.9492C31.1094 10.3633 31.7148 9.90625 32.4414 9.57812C33.168 9.25 34.0156 9.08594 34.9844 9.08594C36.0078 9.08594 36.9062 9.28516 37.6797 9.68359C38.4609 10.082 39.0703 10.6445 39.5078 11.3711C39.9531 12.0977 40.1836 12.9531 40.1992 13.9375H37.2812C37.2656 13.4844 37.1641 13.0781 36.9766 12.7188C36.7891 12.3594 36.5234 12.0703 36.1797 11.8516C35.8359 11.6328 35.418 11.5234 34.9258 11.5234C34.4023 11.5234 33.9648 11.6328 33.6133 11.8516C33.2695 12.0703 33 12.3711 32.8047 12.7539C32.6172 13.1289 32.4844 13.5508 32.4062 14.0195C32.3359 14.4805 32.3008 14.9648 32.3008 15.4727V15.8477C32.3008 16.3633 32.3359 16.8555 32.4062 17.3242C32.4844 17.793 32.6172 18.2148 32.8047 18.5898C33 18.957 33.2695 19.25 33.6133 19.4688C33.9648 19.6875 34.4102 19.7969 34.9492 19.7969ZM47.4648 19.7969C47.9023 19.7969 48.293 19.7109 48.6367 19.5391C48.9805 19.3672 49.2539 19.125 49.457 18.8125C49.668 18.5 49.7812 18.1367 49.7969 17.7227H52.7148C52.6992 18.582 52.457 19.3516 51.9883 20.0312C51.5195 20.7109 50.8945 21.25 50.1133 21.6484C49.3398 22.0391 48.4727 22.2344 47.5117 22.2344C46.5352 22.2344 45.6836 22.0703 44.957 21.7422C44.2305 21.4141 43.625 20.957 43.1406 20.3711C42.6641 19.7852 42.3047 19.1055 42.0625 18.332C41.8281 17.5586 41.7109 16.7305 41.7109 15.8477V15.4727C41.7109 14.5898 41.8281 13.7617 42.0625 12.9883C42.3047 12.2148 42.6641 11.5352 43.1406 10.9492C43.625 10.3633 44.2305 9.90625 44.957 9.57812C45.6836 9.25 46.5312 9.08594 47.5 9.08594C48.5234 9.08594 49.4219 9.28516 50.1953 9.68359C50.9766 10.082 51.5859 10.6445 52.0234 11.3711C52.4688 12.0977 52.6992 12.9531 52.7148 13.9375H49.7969C49.7812 13.4844 49.6797 13.0781 49.4922 12.7188C49.3047 12.3594 49.0391 12.0703 48.6953 11.8516C48.3516 11.6328 47.9336 11.5234 47.4414 11.5234C46.918 11.5234 46.4805 11.6328 46.1289 11.8516C45.7852 12.0703 45.5156 12.3711 45.3203 12.7539C45.1328 13.1289 45 13.5508 44.9219 14.0195C44.8516 14.4805 44.8164 14.9648 44.8164 15.4727V15.8477C44.8164 16.3633 44.8516 16.8555 44.9219 17.3242C45 17.793 45.1328 18.2148 45.3203 18.5898C45.5156 18.957 45.7852 19.25 46.1289 19.4688C46.4805 19.6875 46.9258 19.7969 47.4648 19.7969ZM58.082 9.32031V22H54.9883V9.32031H58.082ZM66.3438 9.32031L60.7539 17.1016H57.4609L57.0742 14.2656H59.3594L62.4414 9.32031H66.3438ZM62.6289 22L59.1602 16.5625L61.7383 14.9453L66.7422 22H62.6289ZM67.1406 15.7891V15.543C67.1406 14.6133 67.2734 13.7578 67.5391 12.9766C67.8047 12.1875 68.1914 11.5039 68.6992 10.9258C69.207 10.3477 69.8281 9.89844 70.5625 9.57812C71.2969 9.25 72.1328 9.08594 73.0703 9.08594C74.0234 9.08594 74.8672 9.25 75.6016 9.57812C76.3438 9.89844 76.9688 10.3477 77.4766 10.9258C77.9844 11.5039 78.3711 12.1875 78.6367 12.9766C78.9023 13.7578 79.0352 14.6133 79.0352 15.543V15.7891C79.0352 16.7109 78.9023 17.5664 78.6367 18.3555C78.3711 19.1367 77.9844 19.8203 77.4766 20.4062C76.9688 20.9844 76.3477 21.4336 75.6133 21.7539C74.8789 22.0742 74.0391 22.2344 73.0938 22.2344C72.1562 22.2344 71.3164 22.0742 70.5742 21.7539C69.832 21.4336 69.207 20.9844 68.6992 20.4062C68.1914 19.8203 67.8047 19.1367 67.5391 18.3555C67.2734 17.5664 67.1406 16.7109 67.1406 15.7891ZM70.2344 15.543V15.7891C70.2344 16.3438 70.2891 16.8633 70.3984 17.3477C70.5078 17.832 70.6758 18.2578 70.9023 18.625C71.1289 18.9922 71.4219 19.2812 71.7812 19.4922C72.1484 19.6953 72.5859 19.7969 73.0938 19.7969C73.5938 19.7969 74.0234 19.6953 74.3828 19.4922C74.7422 19.2812 75.0352 18.9922 75.2617 18.625C75.4961 18.2578 75.668 17.832 75.7773 17.3477C75.8867 16.8633 75.9414 16.3438 75.9414 15.7891V15.543C75.9414 14.9961 75.8867 14.4844 75.7773 14.0078C75.668 13.5234 75.4961 13.0977 75.2617 12.7305C75.0352 12.3555 74.7383 12.0625 74.3711 11.8516C74.0117 11.6328 73.5781 11.5234 73.0703 11.5234C72.5703 11.5234 72.1406 11.6328 71.7812 11.8516C71.4219 12.0625 71.1289 12.3555 70.9023 12.7305C70.6758 13.0977 70.5078 13.5234 70.3984 14.0078C70.2891 14.4844 70.2344 14.9961 70.2344 15.543ZM83.9805 15.7422H87.1562L83.5938 22H80.418L83.9805 15.7422ZM86.1367 9.32031H91.6445V22H88.5508V11.7344H86.1367C85.6445 11.7344 85.2344 11.8242 84.9062 12.0039C84.5859 12.1836 84.3477 12.4141 84.1914 12.6953C84.0352 12.9688 83.957 13.25 83.957 13.5391C83.957 13.8203 84.0312 14.0938 84.1797 14.3594C84.3281 14.625 84.5547 14.8438 84.8594 15.0156C85.1719 15.1875 85.5625 15.2734 86.0312 15.2734H89.6523V17.4531H86.0312C85.2266 17.4531 84.5039 17.3555 83.8633 17.1602C83.2305 16.957 82.6875 16.6758 82.2344 16.3164C81.7891 15.957 81.4492 15.5352 81.2148 15.0508C80.9805 14.5586 80.8633 14.0234 80.8633 13.4453C80.8633 12.8516 80.9805 12.3047 81.2148 11.8047C81.457 11.3047 81.8047 10.8672 82.2578 10.4922C82.7188 10.1172 83.2734 9.82812 83.9219 9.625C84.5781 9.42188 85.3164 9.32031 86.1367 9.32031ZM100.105 15.9531H97.6328V14.4766H99.5195C99.9805 14.4766 100.348 14.4141 100.621 14.2891C100.902 14.1641 101.102 13.9883 101.219 13.7617C101.344 13.5352 101.406 13.2734 101.406 12.9766C101.406 12.7109 101.348 12.4609 101.23 12.2266C101.113 11.9844 100.918 11.7891 100.645 11.6406C100.371 11.4844 99.9922 11.4062 99.5078 11.4062C99.1094 11.4062 98.7539 11.4688 98.4414 11.5938C98.1289 11.7188 97.8828 11.8945 97.7031 12.1211C97.5234 12.3477 97.4336 12.6172 97.4336 12.9297H94.3281C94.3281 12.1328 94.5547 11.4492 95.0078 10.8789C95.4688 10.3086 96.082 9.87109 96.8477 9.56641C97.6133 9.25391 98.4531 9.09766 99.3672 9.09766C100.156 9.09766 100.867 9.17969 101.5 9.34375C102.133 9.5 102.672 9.73438 103.117 10.0469C103.562 10.3594 103.906 10.7461 104.148 11.207C104.391 11.6602 104.512 12.1875 104.512 12.7891C104.512 13.2188 104.41 13.625 104.207 14.0078C104.004 14.3906 103.711 14.7305 103.328 15.0273C102.945 15.3164 102.48 15.543 101.934 15.707C101.395 15.8711 100.785 15.9531 100.105 15.9531ZM97.6328 15.1094H100.105C100.863 15.1094 101.527 15.1836 102.098 15.332C102.676 15.4727 103.16 15.6836 103.551 15.9648C103.941 16.2461 104.234 16.5938 104.43 17.0078C104.633 17.4141 104.734 17.8828 104.734 18.4141C104.734 19.0156 104.602 19.5547 104.336 20.0312C104.078 20.5 103.711 20.8984 103.234 21.2266C102.758 21.5547 102.191 21.8047 101.535 21.9766C100.879 22.1484 100.156 22.2344 99.3672 22.2344C98.5156 22.2344 97.6875 22.0938 96.8828 21.8125C96.0859 21.5312 95.4258 21.0977 94.9023 20.5117C94.3867 19.9258 94.1289 19.1719 94.1289 18.25H97.2344C97.2344 18.5469 97.3242 18.8242 97.5039 19.082C97.6836 19.3398 97.9414 19.5469 98.2773 19.7031C98.6211 19.8516 99.0352 19.9258 99.5195 19.9258C100.012 19.9258 100.414 19.8477 100.727 19.6914C101.039 19.5352 101.266 19.3281 101.406 19.0703C101.555 18.8047 101.629 18.5273 101.629 18.2383C101.629 17.8398 101.551 17.5195 101.395 17.2773C101.246 17.0273 101.012 16.8438 100.691 16.7266C100.379 16.6094 99.9883 16.5508 99.5195 16.5508H97.6328V15.1094ZM109.176 13.2227H112.879C114.004 13.2227 114.961 13.4102 115.75 13.7852C116.547 14.1523 117.152 14.668 117.566 15.332C117.988 15.9883 118.199 16.75 118.199 17.6172C118.199 18.2422 118.078 18.8242 117.836 19.3633C117.602 19.8945 117.258 20.3594 116.805 20.7578C116.352 21.1484 115.793 21.4531 115.129 21.6719C114.473 21.8906 113.723 22 112.879 22H107.184V9.32031H110.289V19.5742H112.879C113.418 19.5742 113.848 19.4844 114.168 19.3047C114.496 19.1172 114.73 18.8789 114.871 18.5898C115.02 18.293 115.094 17.9766 115.094 17.6406C115.094 17.2969 115.02 16.9766 114.871 16.6797C114.73 16.375 114.496 16.1289 114.168 15.9414C113.848 15.7539 113.418 15.6602 112.879 15.6602H109.176V13.2227ZM123.402 9.32031V22H120.297V9.32031H123.402ZM136.996 9.32031V22H133.891V9.32031H136.996ZM135.59 14.8398V17.2773C135.293 17.418 134.934 17.5508 134.512 17.6758C134.098 17.793 133.66 17.8867 133.199 17.957C132.746 18.0273 132.305 18.0625 131.875 18.0625C130.711 18.0625 129.707 17.8906 128.863 17.5469C128.027 17.2031 127.383 16.6758 126.93 15.9648C126.477 15.2461 126.25 14.3281 126.25 13.2109V9.30859H129.344V13.2109C129.344 13.8125 129.434 14.2891 129.613 14.6406C129.793 14.9922 130.07 15.2422 130.445 15.3906C130.82 15.5391 131.297 15.6133 131.875 15.6133C132.32 15.6133 132.746 15.582 133.152 15.5195C133.559 15.4492 133.961 15.3594 134.359 15.25C134.766 15.1328 135.176 14.9961 135.59 14.8398ZM148.469 14.5234V16.9492H141.965V14.5234H148.469ZM142.938 9.32031V22H139.832V9.32031H142.938ZM150.637 9.32031V22H147.52V9.32031H150.637ZM155.652 13.2227H159.355C160.48 13.2227 161.438 13.4102 162.227 13.7852C163.023 14.1523 163.629 14.668 164.043 15.332C164.465 15.9883 164.676 16.75 164.676 17.6172C164.676 18.2422 164.555 18.8242 164.312 19.3633C164.078 19.8945 163.734 20.3594 163.281 20.7578C162.828 21.1484 162.27 21.4531 161.605 21.6719C160.949 21.8906 160.199 22 159.355 22H153.66V9.32031H156.766V19.5742H159.355C159.895 19.5742 160.324 19.4844 160.645 19.3047C160.973 19.1172 161.207 18.8789 161.348 18.5898C161.496 18.293 161.57 17.9766 161.57 17.6406C161.57 17.2969 161.496 16.9766 161.348 16.6797C161.207 16.375 160.973 16.1289 160.645 15.9414C160.324 15.7539 159.895 15.6602 159.355 15.6602H155.652V13.2227ZM169.879 9.32031V22H166.773V9.32031H169.879ZM176.172 17.582L180.789 9.32031H183.895V22H180.789V13.7266L176.172 22H173.066V9.32031H176.172V17.582ZM180.215 4.33984H182.465C182.465 4.99609 182.305 5.57813 181.984 6.08594C181.664 6.59375 181.207 6.99219 180.613 7.28125C180.027 7.5625 179.332 7.70312 178.527 7.70312C177.316 7.70312 176.355 7.39062 175.645 6.76562C174.934 6.14063 174.578 5.33203 174.578 4.33984H176.828C176.828 4.75391 176.957 5.125 177.215 5.45312C177.473 5.78125 177.91 5.94531 178.527 5.94531C179.145 5.94531 179.578 5.78125 179.828 5.45312C180.086 5.125 180.215 4.75391 180.215 4.33984ZM198.918 16.6328H194.898L194.875 14.5352H198.18C198.672 14.5352 199.074 14.4844 199.387 14.3828C199.699 14.2812 199.93 14.1289 200.078 13.9258C200.234 13.7227 200.312 13.4766 200.312 13.1875C200.312 12.9375 200.266 12.7227 200.172 12.543C200.078 12.3555 199.938 12.2031 199.75 12.0859C199.57 11.9688 199.34 11.8828 199.059 11.8281C198.785 11.7656 198.465 11.7344 198.098 11.7344H196V22H192.895V9.32031H198.098C198.918 9.32031 199.656 9.39453 200.312 9.54297C200.969 9.68359 201.527 9.89844 201.988 10.1875C202.449 10.4766 202.801 10.8438 203.043 11.2891C203.293 11.7266 203.418 12.2422 203.418 12.8359C203.418 13.2266 203.332 13.5938 203.16 13.9375C202.988 14.2812 202.734 14.5859 202.398 14.8516C202.062 15.1172 201.648 15.3359 201.156 15.5078C200.664 15.6719 200.102 15.7734 199.469 15.8125L198.918 16.6328ZM198.918 22H194.066L195.215 19.5859H198.918C199.371 19.5859 199.746 19.5312 200.043 19.4219C200.34 19.3047 200.559 19.1367 200.699 18.918C200.848 18.6992 200.922 18.4336 200.922 18.1211C200.922 17.8164 200.852 17.5547 200.711 17.3359C200.578 17.1094 200.363 16.9375 200.066 16.8203C199.777 16.6953 199.395 16.6328 198.918 16.6328H195.719L195.742 14.5352H199.457L200.277 15.3672C201.121 15.4219 201.82 15.5938 202.375 15.8828C202.93 16.1641 203.344 16.5234 203.617 16.9609C203.891 17.3906 204.027 17.8633 204.027 18.3789C204.027 18.9805 203.914 19.5078 203.688 19.9609C203.461 20.4141 203.129 20.793 202.691 21.0977C202.254 21.3945 201.719 21.6211 201.086 21.7773C200.453 21.9258 199.73 22 198.918 22ZM213.262 19.3047V13.457C213.262 13.0273 213.188 12.6562 213.039 12.3438C212.891 12.0312 212.664 11.7891 212.359 11.6172C212.055 11.4453 211.668 11.3594 211.199 11.3594C210.785 11.3594 210.422 11.4297 210.109 11.5703C209.805 11.7109 209.57 11.9102 209.406 12.168C209.242 12.418 209.16 12.707 209.16 13.0352H206.055C206.055 12.5117 206.18 12.0156 206.43 11.5469C206.68 11.0703 207.035 10.6484 207.496 10.2812C207.965 9.90625 208.523 9.61328 209.172 9.40234C209.828 9.19141 210.562 9.08594 211.375 9.08594C212.336 9.08594 213.191 9.25 213.941 9.57812C214.699 9.89844 215.293 10.3828 215.723 11.0312C216.16 11.6797 216.379 12.4961 216.379 13.4805V19.0117C216.379 19.6445 216.418 20.1875 216.496 20.6406C216.582 21.0859 216.707 21.4727 216.871 21.8008V22H213.719C213.57 21.6797 213.457 21.2734 213.379 20.7812C213.301 20.2812 213.262 19.7891 213.262 19.3047ZM213.695 14.2773L213.719 16.1172H211.762C211.277 16.1172 210.852 16.168 210.484 16.2695C210.117 16.3633 209.816 16.5039 209.582 16.6914C209.348 16.8711 209.172 17.0898 209.055 17.3477C208.938 17.5977 208.879 17.8828 208.879 18.2031C208.879 18.5156 208.949 18.7969 209.09 19.0469C209.238 19.2969 209.449 19.4961 209.723 19.6445C210.004 19.7852 210.332 19.8555 210.707 19.8555C211.254 19.8555 211.73 19.7461 212.137 19.5273C212.543 19.3008 212.859 19.0273 213.086 18.707C213.312 18.3867 213.434 18.082 213.449 17.793L214.34 19.1289C214.23 19.4492 214.066 19.7891 213.848 20.1484C213.629 20.5078 213.348 20.8438 213.004 21.1562C212.66 21.4688 212.246 21.7266 211.762 21.9297C211.277 22.1328 210.715 22.2344 210.074 22.2344C209.254 22.2344 208.52 22.0703 207.871 21.7422C207.223 21.4141 206.711 20.9648 206.336 20.3945C205.961 19.8242 205.773 19.1758 205.773 18.4492C205.773 17.7773 205.898 17.1836 206.148 16.668C206.398 16.1523 206.77 15.7188 207.262 15.3672C207.754 15.0078 208.363 14.7383 209.09 14.5586C209.824 14.3711 210.664 14.2773 211.609 14.2773H213.695ZM222.262 11.7578V26.875H219.156V9.32031H222.027L222.262 11.7578ZM230.406 15.5312V15.7773C230.406 16.6992 230.297 17.5547 230.078 18.3438C229.867 19.125 229.555 19.8086 229.141 20.3945C228.727 20.9727 228.211 21.4258 227.594 21.7539C226.984 22.0742 226.281 22.2344 225.484 22.2344C224.703 22.2344 224.023 22.0859 223.445 21.7891C222.867 21.4844 222.379 21.0547 221.98 20.5C221.582 19.9453 221.262 19.3008 221.02 18.5664C220.785 17.8242 220.609 17.0156 220.492 16.1406V15.3555C220.609 14.4258 220.785 13.582 221.02 12.8242C221.262 12.0586 221.582 11.3984 221.98 10.8438C222.379 10.2812 222.863 9.84766 223.434 9.54297C224.012 9.23828 224.688 9.08594 225.461 9.08594C226.266 9.08594 226.973 9.23828 227.582 9.54297C228.199 9.84766 228.719 10.2852 229.141 10.8555C229.562 11.4258 229.879 12.1055 230.09 12.8945C230.301 13.6836 230.406 14.5625 230.406 15.5312ZM227.301 15.7773V15.5312C227.301 14.9688 227.25 14.4492 227.148 13.9727C227.047 13.4883 226.891 13.0664 226.68 12.707C226.469 12.3398 226.195 12.0547 225.859 11.8516C225.523 11.6484 225.117 11.5469 224.641 11.5469C224.164 11.5469 223.754 11.625 223.41 11.7812C223.066 11.9375 222.785 12.1602 222.566 12.4492C222.348 12.7383 222.176 13.082 222.051 13.4805C221.934 13.8711 221.855 14.3047 221.816 14.7812V16.7266C221.887 17.3047 222.023 17.8242 222.227 18.2852C222.43 18.7461 222.727 19.1133 223.117 19.3867C223.516 19.6602 224.031 19.7969 224.664 19.7969C225.141 19.7969 225.547 19.6914 225.883 19.4805C226.219 19.2695 226.492 18.9805 226.703 18.6133C226.914 18.2383 227.066 17.8086 227.16 17.3242C227.254 16.8398 227.301 16.3242 227.301 15.7773ZM235.797 17.582L240.414 9.32031H243.52V22H240.414V13.7266L235.797 22H232.691V9.32031H235.797V17.582ZM253.316 19.3047V13.457C253.316 13.0273 253.242 12.6562 253.094 12.3438C252.945 12.0312 252.719 11.7891 252.414 11.6172C252.109 11.4453 251.723 11.3594 251.254 11.3594C250.84 11.3594 250.477 11.4297 250.164 11.5703C249.859 11.7109 249.625 11.9102 249.461 12.168C249.297 12.418 249.215 12.707 249.215 13.0352H246.109C246.109 12.5117 246.234 12.0156 246.484 11.5469C246.734 11.0703 247.09 10.6484 247.551 10.2812C248.02 9.90625 248.578 9.61328 249.227 9.40234C249.883 9.19141 250.617 9.08594 251.43 9.08594C252.391 9.08594 253.246 9.25 253.996 9.57812C254.754 9.89844 255.348 10.3828 255.777 11.0312C256.215 11.6797 256.434 12.4961 256.434 13.4805V19.0117C256.434 19.6445 256.473 20.1875 256.551 20.6406C256.637 21.0859 256.762 21.4727 256.926 21.8008V22H253.773C253.625 21.6797 253.512 21.2734 253.434 20.7812C253.355 20.2812 253.316 19.7891 253.316 19.3047ZM253.75 14.2773L253.773 16.1172H251.816C251.332 16.1172 250.906 16.168 250.539 16.2695C250.172 16.3633 249.871 16.5039 249.637 16.6914C249.402 16.8711 249.227 17.0898 249.109 17.3477C248.992 17.5977 248.934 17.8828 248.934 18.2031C248.934 18.5156 249.004 18.7969 249.145 19.0469C249.293 19.2969 249.504 19.4961 249.777 19.6445C250.059 19.7852 250.387 19.8555 250.762 19.8555C251.309 19.8555 251.785 19.7461 252.191 19.5273C252.598 19.3008 252.914 19.0273 253.141 18.707C253.367 18.3867 253.488 18.082 253.504 17.793L254.395 19.1289C254.285 19.4492 254.121 19.7891 253.902 20.1484C253.684 20.5078 253.402 20.8438 253.059 21.1562C252.715 21.4688 252.301 21.7266 251.816 21.9297C251.332 22.1328 250.77 22.2344 250.129 22.2344C249.309 22.2344 248.574 22.0703 247.926 21.7422C247.277 21.4141 246.766 20.9648 246.391 20.3945C246.016 19.8242 245.828 19.1758 245.828 18.4492C245.828 17.7773 245.953 17.1836 246.203 16.668C246.453 16.1523 246.824 15.7188 247.316 15.3672C247.809 15.0078 248.418 14.7383 249.145 14.5586C249.879 14.3711 250.719 14.2773 251.664 14.2773H253.75ZM267.883 14.5234V16.9492H261.379V14.5234H267.883ZM262.352 9.32031V22H259.246V9.32031H262.352ZM270.051 9.32031V22H266.934V9.32031H270.051ZM279.016 9.32031V22H275.91V9.32031H279.016ZM283.141 9.32031V11.7344H271.855V9.32031H283.141Z" fill="black"/>
<path d="M157.105 144.305C157.105 144.305 161.001 100.321 161.369 96.007C161.967 89.0817 156.393 76.4834 142.956 76.4834H103.281H31.9507C18.5129 76.4834 11.9822 85.6108 11.1392 94.3207C10.64 99.4943 1.46602 205.831 0.876784 211.962C-0.0725356 221.785 6.7282 232.984 19.0939 232.984H129.469C144.118 232.984 149.805 225.223 151.049 213.272C151.794 206.117 155.42 162.821 155.42 162.821H88.697L85.8163 196.269H68.9086L76.1759 113.19H93.0508L90.3747 144.296L157.105 144.305Z" fill="#008C95"/>
<path d="M260.059 89.9248C257.685 96.7765 238.273 157.566 238.273 157.566L246.899 76.5243H180.209L166.297 233H216.545C229.173 233 233.486 225.829 235.589 220.099C238.093 213.239 256.605 162.109 256.605 162.109L249.772 233H316.494L330.235 76.4834H277.858C266.311 76.4834 261.753 85.0378 260.059 89.9085" fill="#008C95"/>
<path d="M597.983 76.4834L591.739 147.857H574.831L581.075 76.4834H514.361C514.361 76.4834 507.969 152.04 507.29 159.334C506.472 168.052 511.382 180.405 526.195 180.405H588.891L587.5 196.278H504.025L500.809 232.984H633.591C642.593 232.984 651.268 227.106 652.413 214.557C653.174 206.502 664.689 76.4834 664.689 76.4834H597.983Z" fill="#008C95"/>
<path d="M741.615 152.032L745.011 113.214H761.722L758.326 152.032H741.615ZM772.075 76.4834H681.48L667.797 233H734.503L738.742 184.58H803.541C814.999 184.58 822.618 178.735 823.845 165.31C824.328 160.104 829.574 100.788 829.95 95.5405C830.769 83.9736 821.546 76.508 810.121 76.508L772.075 76.4834Z" fill="#008C95"/>
<path d="M420.124 200.444H403.101L406.489 161.618H423.512L420.124 200.444ZM409.354 129.07L410.745 113.198H494.301L497.493 76.4834H347.222L333.539 232.975H466.64C475.094 232.975 484.268 227.957 485.463 214.876C486.355 205.053 490.463 158.524 491.192 150.084C492.182 138.803 485.021 129.054 470.978 129.054L409.354 129.07Z" fill="#008C95"/>
</svg>
