<svg viewBox="0 0 288 68" xmlns="http://www.w3.org/2000/svg">
<path d="M129.731 16.7181V0.255467L114.332 2.26281V16.7181H108.339V30.3401H114.332V67.4658H129.731V30.3401H140.894V16.7181H129.731ZM45.573 41.152C50.2637 37.3462 53.2741 32.1393 53.2741 25.6034V22.7606C53.2741 11.2835 44.0244 2.85089 32.6188 2.85089L0 2.72352L0.0195388 67.1244L15.4262 67.2467V45.3879H31.2619L41.5849 67.2467H59.6162L45.573 41.152ZM37.531 24.8225C37.531 29.3925 33.8461 31.9865 29.3023 31.9865H15.4269V16.5209H29.3023C33.8461 16.5209 37.531 19.7313 37.531 24.3028V24.8225ZM218.657 16.4489H210.504V0L195.44 2.00661L195.436 67.2467H218.657C230.068 67.2467 239.314 58.4371 239.314 46.9651V37.2246C239.314 25.7512 230.068 16.4489 218.657 16.4489ZM224.553 45.6616C224.553 50.4936 221.311 53.3605 216.509 53.3605H210.554V30.3452H216.509C221.311 30.3452 224.553 33.215 224.553 38.0463V45.6616ZM173.824 16.7181V46.0248C173.824 50.8546 172.077 54.1196 167.272 54.1196H167.034C162.234 54.1196 160.482 50.8546 160.482 46.0248V16.7181H145.283V47.1434C145.283 58.6183 150.277 67.9221 165.45 67.9221H168.365C184.346 67.9221 189.026 58.6183 189.026 47.1434V16.7181H173.824ZM88.1558 16.7181V46.0248C88.1558 50.8546 86.4075 54.1196 81.6038 54.1196H81.3657C76.565 54.1196 74.8152 50.8546 74.8152 46.0248V16.7181H59.6162V47.1434C59.6162 58.6183 64.6066 67.9221 79.7802 67.9221H82.6973C98.6749 67.9221 103.356 58.6183 103.356 47.1434V16.7181H88.1558ZM277.87 50.2331C277.87 50.2331 273.423 55.7136 265.606 55.0993C260.735 54.7179 257.847 52.2288 257.847 47.3989V45.7154H287.663V37.0187C287.663 25.8283 279.511 16.0122 265.643 16.0122C251.78 16.0122 243.608 25.3349 243.608 36.5259V46.987C243.608 58.1846 251.763 68 265.628 68C281.3 68 288 57.0069 288 57.0069L277.87 50.2331ZM257.847 34.1547C257.847 29.4384 260.836 26.5991 265.286 26.4681H265.67C270.302 26.4681 273.428 29.3372 273.428 34.1663V34.5928H257.847V34.1547Z"/>
</svg>
