<svg width="153" height="153" viewBox="0 0 153 153" xmlns="http://www.w3.org/2000/svg">
<path d="M76.5 153C118.75 153 153 118.75 153 76.5C153 34.2502 118.75 0 76.5 0C34.2502 0 0 34.2502 0 76.5C0 118.75 34.2502 153 76.5 153Z" />
<path d="M116.171 44.4794L101.668 104.255C100.985 107.07 97.8289 108.521 95.2411 107.184L76.8989 97.7144L68.2255 111.905C65.8651 115.772 59.8933 114.094 59.8933 109.573V93.7616C59.8933 92.5388 60.4051 91.3729 61.2867 90.5197L97.0326 56.3947C97.0042 55.9682 96.5492 55.5985 96.0942 55.9113L53.438 85.6L39.1055 78.2063C35.7498 76.4716 35.892 71.6088 39.3614 70.1016L110.029 39.3038C113.413 37.825 117.053 40.8679 116.171 44.4794Z" fill="white"/>
</svg>
