<svg width="153" height="153" viewBox="0 0 153 153" xmlns="http://www.w3.org/2000/svg">
<path d="M76.5 153C118.75 153 153 118.75 153 76.5C153 34.2502 118.75 0 76.5 0C34.2502 0 0 34.2502 0 76.5C0 118.75 34.2502 153 76.5 153Z" />
<path fill-rule="evenodd" clip-rule="evenodd" d="M110.419 84.0408C113.557 87.1046 116.869 89.9872 119.684 93.36C120.927 94.8588 122.104 96.4054 123.004 98.1448C124.28 100.617 123.125 103.338 120.908 103.486L107.126 103.48C103.571 103.775 100.735 102.344 98.3511 99.9134C96.443 97.9698 94.6759 95.9013 92.8411 93.8921C92.0889 93.0709 91.3016 92.2982 90.3611 91.6874C88.4797 90.4662 86.8466 90.8401 85.7714 92.8023C84.6764 94.7982 84.4281 97.0081 84.3205 99.2324C84.1729 102.478 83.1919 103.331 79.932 103.479C72.9652 103.808 66.3533 102.754 60.2111 99.2395C54.796 96.1412 50.5967 91.7673 46.9417 86.8156C39.8254 77.1735 34.3757 66.5784 29.4778 55.6865C28.3753 53.2326 29.1816 51.9153 31.8891 51.8687C36.3852 51.7813 40.8807 51.7876 45.382 51.8625C47.2094 51.8892 48.4191 52.9373 49.1247 54.6636C51.5572 60.6448 54.5336 66.3354 58.2697 71.61C59.2647 73.0143 60.2792 74.4187 61.7239 75.4071C63.3222 76.5015 64.539 76.1388 65.2909 74.3584C65.768 73.2294 65.9769 72.0135 66.0845 70.8044C66.4407 66.6446 66.4876 62.492 65.8628 58.3469C65.4793 55.7599 64.0221 54.0852 61.4408 53.5956C60.1235 53.346 60.3196 52.8559 60.9574 52.104C62.0652 50.8072 63.1071 50 65.184 50H80.7597C83.2118 50.484 83.7564 51.5855 84.0921 54.0528L84.1054 71.3542C84.0787 72.3094 84.5825 75.1438 86.303 75.776C87.6799 76.2261 88.5875 75.1245 89.4137 74.2514C93.1429 70.2934 95.8045 65.6158 98.1823 60.7722C99.2376 58.6425 100.145 56.4306 101.024 54.2207C101.676 52.5808 102.698 51.7739 104.545 51.8096L119.536 51.823C119.98 51.823 120.43 51.8295 120.861 51.9032C123.387 52.3337 124.079 53.4203 123.299 55.887C122.069 59.7571 119.678 62.9822 117.339 66.2222C114.839 69.6814 112.165 73.0221 109.686 76.5018C107.409 79.6794 107.589 81.281 110.419 84.0408Z" fill="white"/>
</svg>
