<svg viewBox="0 0 167 167"  xmlns="http://www.w3.org/2000/svg">
<path d="M157.628 80.1134C157.642 80.1134 157.652 80.1134 157.665 80.1134C158.597 80.1134 159.485 79.7226 160.117 79.0379C160.758 78.3432 161.075 77.4114 160.992 76.4695C157.638 39.5859 128.437 10.3742 91.5499 7.01418C90.6147 6.9407 89.6728 7.24464 88.9781 7.88926C88.2834 8.53054 87.8959 9.43568 87.9059 10.3809C88.4871 59.3987 94.9533 79.4287 157.628 80.1134ZM157.628 86.8869C94.9533 87.5716 88.4904 107.602 87.9093 156.619C87.8993 157.565 88.2867 158.47 88.9814 159.111C89.6027 159.682 90.4143 160 91.2493 160C91.3495 160 91.453 159.996 91.5532 159.986C128.44 156.626 157.642 127.418 160.992 90.5309C161.075 89.589 160.761 88.6571 160.117 87.9624C159.472 87.2677 158.574 86.9237 157.628 86.8869ZM77.2313 7.03088C40.4612 10.4878 11.3531 39.6927 8.01647 76.4762C7.93297 77.418 8.24694 78.3499 8.89156 79.0446C9.52282 79.7293 10.4146 80.1168 11.3431 80.1168C11.3565 80.1168 11.3698 80.1168 11.3832 80.1168C73.8512 79.3987 80.3008 59.3787 80.8886 10.3943C80.8986 9.44904 80.5078 8.54056 79.8131 7.89928C79.1117 7.258 78.1732 6.94404 77.2313 7.03088ZM11.3799 86.8836C10.3411 86.7667 9.52616 87.261 8.88822 87.9557C8.24694 88.6505 7.92964 89.5823 8.01314 90.5242C11.3498 127.308 40.4612 156.513 77.2313 159.969C77.3348 159.979 77.4417 159.983 77.5453 159.983C78.3803 159.983 79.1885 159.669 79.8098 159.098C80.5045 158.456 80.8953 157.548 80.8853 156.603C80.2974 107.622 73.8512 87.6017 11.3799 86.8836Z"/>
</svg>
