<svg viewBox="0 0 119 119" fill="none" xmlns="http://www.w3.org/2000/svg">
<g filter="url(#filter0_d_657_1365)">
<circle cx="59.5002" cy="55.4998" r="39.4998" transform="rotate(90 59.5002 55.4998)" fill="#8ED1C0"/>
<path d="M78.0603 57.0607C78.646 56.4749 78.646 55.5251 78.0603 54.9393L68.5144 45.3934C67.9286 44.8077 66.9788 44.8077 66.3931 45.3934C65.8073 45.9792 65.8073 46.929 66.3931 47.5148L74.8783 56L66.3931 64.4852C65.8073 65.071 65.8073 66.0208 66.3931 66.6066C66.9788 67.1923 67.9286 67.1923 68.5144 66.6066L78.0603 57.0607ZM41.9998 57.5L76.9996 57.5L76.9996 54.5L41.9998 54.5L41.9998 57.5Z" fill="white"/>
</g>
<defs>
<filter id="filter0_d_657_1365" x="0.000335693" y="0" width="119" height="119" filterUnits="userSpaceOnUse" color-interpolation-filters="sRGB">
<feFlood flood-opacity="0" result="BackgroundImageFix"/>
<feColorMatrix in="SourceAlpha" type="matrix" values="0 0 0 0 0 0 0 0 0 0 0 0 0 0 0 0 0 0 127 0" result="hardAlpha"/>
<feOffset dy="4"/>
<feGaussianBlur stdDeviation="10"/>
<feComposite in2="hardAlpha" operator="out"/>
<feColorMatrix type="matrix" values="0 0 0 0 0.383602 0 0 0 0 0.383602 0 0 0 0 0.383602 0 0 0 0.25 0"/>
<feBlend mode="normal" in2="BackgroundImageFix" result="effect1_dropShadow_657_1365"/>
<feBlend mode="normal" in="SourceGraphic" in2="effect1_dropShadow_657_1365" result="shape"/>
</filter>
</defs>
</svg>
