<svg width="119" height="119" viewBox="0 0 119 119" fill="none" xmlns="http://www.w3.org/2000/svg">
<g filter="url(#filter0_d_657_1369)">
<circle cx="59.4998" cy="55.5002" r="39.4998" transform="rotate(-90 59.4998 55.5002)" fill="#999999" fill-opacity="0.58"/>
<path d="M40.9397 53.9393C40.354 54.5251 40.354 55.4749 40.9397 56.0607L50.4856 65.6066C51.0714 66.1923 52.0212 66.1923 52.6069 65.6066C53.1927 65.0208 53.1927 64.071 52.6069 63.4852L44.1217 55L52.6069 46.5148C53.1927 45.929 53.1927 44.9792 52.6069 44.3934C52.0212 43.8077 51.0714 43.8077 50.4856 44.3934L40.9397 53.9393ZM77.0002 53.5L42.0004 53.5L42.0004 56.5L77.0002 56.5L77.0002 53.5Z" fill="white"/>
</g>
<defs>
<filter id="filter0_d_657_1369" x="0" y="0.000488281" width="119" height="119" filterUnits="userSpaceOnUse" color-interpolation-filters="sRGB">
<feFlood flood-opacity="0" result="BackgroundImageFix"/>
<feColorMatrix in="SourceAlpha" type="matrix" values="0 0 0 0 0 0 0 0 0 0 0 0 0 0 0 0 0 0 127 0" result="hardAlpha"/>
<feOffset dy="4"/>
<feGaussianBlur stdDeviation="10"/>
<feComposite in2="hardAlpha" operator="out"/>
<feColorMatrix type="matrix" values="0 0 0 0 0.383602 0 0 0 0 0.383602 0 0 0 0 0.383602 0 0 0 0.25 0"/>
<feBlend mode="normal" in2="BackgroundImageFix" result="effect1_dropShadow_657_1369"/>
<feBlend mode="normal" in="SourceGraphic" in2="effect1_dropShadow_657_1369" result="shape"/>
</filter>
</defs>
</svg>
