<svg viewBox="0 0 228 93" fill="none" xmlns="http://www.w3.org/2000/svg">
<path d="M34.5777 14.9991C34.5777 14.9991 35.4403 5.27189 35.5198 4.31717C35.6496 2.7846 34.4185 0 31.4455 0H22.6688V0.00419146H17.3885H16.551H6.89079C3.91776 0.00419146 2.47312 2.0225 2.28888 3.94868C2.18001 5.09183 0.149116 28.6123 0.0193078 29.9648C-0.19006 32.1422 1.3132 34.6128 4.04755 34.6128H14.3652H18.6699H28.4599C31.7009 34.6128 32.9571 32.896 33.2335 30.2537C33.3968 28.6709 34.2008 19.0944 34.2008 19.0944H19.4445L18.808 26.4935H15.0729L16.6809 8.11931H20.416L19.8256 14.995H34.5777V14.9991Z" fill="#008C95"/>
<path d="M57.3519 2.97227C56.8243 4.4881 52.5323 17.9295 52.5323 17.9295L54.4417 0.00341797H39.6938L36.6035 34.6162H47.721C50.514 34.6162 51.4687 33.0292 51.9335 31.7646C52.4904 30.2488 56.5814 18.9387 56.5814 18.9387L55.074 34.6162H69.8344L72.8745 0.00341797C72.8745 0.00341797 62.2972 0.00341797 61.288 0.00341797C58.7337 0.00341797 57.7246 1.89193 57.3519 2.97227Z" fill="#008C95"/>
<path d="M132.109 0.00341797L130.727 15.7898H126.983L128.365 0.00341797H113.609C113.609 0.00341797 112.194 16.7152 112.043 18.3273C111.863 20.2535 112.956 22.9879 116.226 22.9879H130.099L129.789 26.4969H111.331L110.619 34.6162H129.659H130.501H139.989C141.978 34.6162 143.9 33.3181 144.16 30.5419C144.327 28.7581 146.869 0.00341797 146.869 0.00341797H132.109Z" fill="#008C95"/>
<path d="M163.873 16.7068L164.623 8.11854H168.32L167.571 16.7068H163.873ZM170.619 0.00341797H165.335H150.578L147.551 34.612H162.307L163.245 23.9049H168.53H167.545H177.578C180.112 23.9049 181.799 22.611 182.071 19.6422C182.176 18.4907 183.344 5.37162 183.424 4.21172C183.6 1.65324 181.565 0.00341797 179.036 0.00341797H170.619Z" fill="#008C95"/>
<path d="M92.7627 27.4147H88.9982L89.7478 18.8264H93.5122L92.7627 27.4147ZM90.3759 11.6283L90.6858 8.11931H109.169L109.876 0H91.3892H90.5517H76.6329L73.6055 34.6128H79.1495C79.1495 34.6128 101.271 34.6128 103.059 34.6128C104.931 34.6128 106.958 33.5031 107.222 30.6097C107.418 28.4406 108.327 18.148 108.495 16.2805C108.717 13.7848 107.13 11.6283 104.023 11.6283H90.3759Z" fill="#008C95"/>
<path d="M13.3352 87.4851H11.0656V72.2221H2.62809V87.4851H0.371094V70.3755H13.331V87.4851H13.3352ZM24.9342 87.4851C24.8086 87.2338 24.7081 86.79 24.6285 86.1451C23.6194 87.1962 22.4134 87.7196 21.0106 87.7196C19.7586 87.7196 18.7285 87.3636 17.9246 86.656C17.1206 85.9483 16.7186 85.048 16.7186 83.9593C16.7186 82.6361 17.2211 81.606 18.2302 80.8732C19.2352 80.1404 20.6547 79.7761 22.4762 79.7761H24.5908V78.7753C24.5908 78.0174 24.3647 77.4103 23.9083 76.958C23.4518 76.5058 22.7861 76.2839 21.8984 76.2839C21.1237 76.2839 20.4705 76.4807 19.947 76.8701C19.4236 77.2637 19.1598 77.7369 19.1598 78.2938H16.974C16.974 77.6573 17.2001 77.046 17.6482 76.4556C18.1004 75.8651 18.7076 75.3962 19.4822 75.0528C20.2527 74.7094 21.1027 74.5377 22.0281 74.5377C23.4937 74.5377 24.641 74.902 25.4701 75.6348C26.2992 76.3676 26.7306 77.3768 26.7641 78.6623V84.5162C26.7641 85.6845 26.9148 86.6099 27.2121 87.3008V87.4893H24.9342V87.4851ZM21.3289 85.8269C22.0114 85.8269 22.6563 85.651 23.2676 85.2993C23.879 84.9475 24.3228 84.4869 24.595 83.9258V81.3171H22.8908C20.2276 81.3171 18.896 82.0959 18.896 83.6536C18.896 84.3362 19.1221 84.868 19.5785 85.2532C20.0308 85.6343 20.617 85.8269 21.3289 85.8269ZM40.9173 81.2668C40.9173 83.2014 40.4735 84.7591 39.59 85.9441C38.7065 87.1291 37.5046 87.7196 35.993 87.7196C34.4479 87.7196 33.2335 87.2297 32.35 86.2498V92.3717H30.1768V74.768H32.1616L32.2663 76.1792C33.1498 75.0821 34.3809 74.5335 35.9553 74.5335C37.4837 74.5335 38.6897 75.1114 39.5816 76.2629C40.4693 77.4145 40.9173 79.0182 40.9173 81.07V81.2668ZM38.7441 81.024C38.7441 79.5919 38.4384 78.4571 37.8271 77.628C37.2157 76.7989 36.3782 76.3844 35.3105 76.3844C33.9956 76.3844 33.0074 76.9664 32.35 78.1347V84.2106C32.9991 85.3705 33.9956 85.9483 35.3356 85.9483C36.3783 85.9483 37.2073 85.5338 37.8229 84.7089C38.4384 83.8798 38.7441 82.6528 38.7441 81.024ZM52.1898 76.5351H47.9228V87.4893H45.7496V76.5351H41.5664V74.7722H52.1898V76.5351ZM64.6806 87.4851H62.5074V82.0541H56.666V87.4851H54.4802V74.7722H56.666V80.2828H62.5074V74.7722H64.6806V87.4851ZM78.2477 85.2658C77.1841 86.903 75.5846 87.7237 73.4532 87.7237C71.728 87.7237 70.3294 87.1585 69.2449 86.0237C68.1646 84.8931 67.6244 83.3773 67.6244 81.4804V81.0826C67.6244 79.8222 67.8672 78.6958 68.3488 77.7034C68.8303 76.711 69.5045 75.9363 70.3713 75.3752C71.2381 74.8141 72.1761 74.5335 73.1852 74.5335C74.8392 74.5335 76.1247 75.0779 77.0376 76.1666C77.9546 77.2553 78.411 78.813 78.411 80.8439V81.7484H69.7977C69.827 83.0004 70.1954 84.0138 70.8947 84.7842C71.594 85.5547 72.4859 85.9399 73.5663 85.9399C74.3326 85.9399 74.9858 85.785 75.5176 85.4709C76.0494 85.1569 76.5184 84.7423 76.9162 84.2273L78.2477 85.2658ZM73.1852 76.3216C72.3059 76.3216 71.5731 76.6398 70.9743 77.2805C70.3797 77.9211 70.0112 78.813 69.8688 79.9646H76.2378V79.8013C76.175 78.6958 75.8777 77.8416 75.3459 77.2344C74.8141 76.6272 74.0939 76.3216 73.1852 76.3216ZM91.6725 81.2668C91.6725 83.2014 91.2286 84.7591 90.345 85.9441C89.4615 87.1291 88.2597 87.7196 86.7481 87.7196C85.203 87.7196 83.9886 87.2297 83.1051 86.2498V92.3717H80.9318V74.768H82.9167L83.0213 76.1792C83.9049 75.0821 85.1359 74.5335 86.7104 74.5335C88.2388 74.5335 89.4447 75.1114 90.3367 76.2629C91.2244 77.4145 91.6725 79.0182 91.6725 81.07V81.2668ZM89.4992 81.024C89.4992 79.5919 89.1935 78.4571 88.5822 77.628C87.9708 76.7989 87.1333 76.3844 86.0656 76.3844C84.7507 76.3844 83.7625 76.9664 83.1051 78.1347V84.2106C83.7541 85.3705 84.7507 85.9483 86.0907 85.9483C87.1333 85.9483 87.9624 85.5338 88.578 84.7089C89.1935 83.8798 89.4992 82.6528 89.4992 81.024ZM96.8103 79.1522H100.114C101.555 79.169 102.694 79.5458 103.535 80.2786C104.373 81.0156 104.791 82.0122 104.791 83.2768C104.791 84.5455 104.36 85.5631 103.498 86.3335C102.635 87.0998 101.475 87.4851 100.018 87.4851H94.6371V74.7722H96.8103V79.1522ZM96.8103 80.9277V85.7096H100.043C100.86 85.7096 101.488 85.5003 101.936 85.0815C102.384 84.6628 102.606 84.0891 102.606 83.3605C102.606 82.657 102.388 82.0792 101.952 81.6269C101.517 81.1747 100.91 80.9444 100.127 80.9277H96.8103ZM109.322 87.4851H107.136V74.7722H109.322V87.4851ZM118.974 85.7096L119.728 84.78C120.574 83.6829 121.055 82.0373 121.172 79.8431L121.373 74.768H129.564V85.7096H131.197V91.2202H129.024V87.4851H120.151V91.2202H117.977L117.99 85.7096H118.974ZM123.346 79.8096C123.212 82.3388 122.613 84.3069 121.549 85.7096H127.391V76.778H123.475L123.346 79.8096ZM144.027 74.7722V87.4851H141.841V76.5686H137.516L137.256 81.3297C137.114 83.5155 136.749 85.0773 136.159 86.0195C135.569 86.9616 134.631 87.4474 133.345 87.4893H132.474V85.5756L133.098 85.5296C133.802 85.45 134.308 85.0438 134.614 84.3069C134.92 83.5699 135.116 82.209 135.2 80.2158L135.435 74.7764H144.027V74.7722ZM157.23 74.7722V87.4851H155.044V82.5398H151.765L148.767 87.4851H146.418L149.613 82.209C148.797 81.9117 148.173 81.4511 147.737 80.8272C147.302 80.2032 147.084 79.4788 147.084 78.6455C147.084 77.4856 147.519 76.5519 148.386 75.8442C149.257 75.1365 150.417 74.7764 151.874 74.768H157.23V74.7722ZM149.278 78.6707C149.278 79.2904 149.492 79.7887 149.915 80.1697C150.337 80.5508 150.899 80.7434 151.594 80.7518H155.048V76.5351H151.924C151.116 76.5351 150.476 76.7319 149.998 77.1297C149.517 77.5233 149.278 78.0384 149.278 78.6707ZM177.434 81.2668C177.434 83.2014 176.99 84.7591 176.107 85.9441C175.223 87.1291 174.021 87.7196 172.51 87.7196C170.964 87.7196 169.75 87.2297 168.867 86.2498V92.3717H166.693V74.768H168.678L168.783 76.1792C169.666 75.0821 170.897 74.5335 172.472 74.5335C174 74.5335 175.206 75.1114 176.098 76.2629C176.986 77.4145 177.434 79.0182 177.434 81.07V81.2668ZM175.261 81.024C175.261 79.5919 174.955 78.4571 174.344 77.628C173.732 76.7989 172.895 76.3844 171.827 76.3844C170.512 76.3844 169.524 76.9664 168.867 78.1347V84.2106C169.516 85.3705 170.512 85.9483 171.852 85.9483C172.895 85.9483 173.724 85.5338 174.339 84.7089C174.955 83.8798 175.261 82.6528 175.261 81.024ZM179.62 81.0114C179.62 79.7678 179.863 78.6455 180.352 77.6489C180.842 76.6523 181.525 75.8861 182.396 75.3459C183.271 74.8057 184.268 74.5335 185.386 74.5335C187.115 74.5335 188.518 75.1323 189.586 76.3299C190.653 77.5275 191.189 79.1229 191.189 81.1119V81.2626C191.189 82.5021 190.951 83.6118 190.478 84.5958C190.004 85.5798 189.326 86.3461 188.447 86.8947C187.567 87.4432 186.554 87.7154 185.411 87.7154C183.686 87.7154 182.291 87.1166 181.223 85.919C180.156 84.7214 179.62 83.1344 179.62 81.158V81.0114ZM181.806 81.2668C181.806 82.678 182.132 83.8086 182.785 84.6628C183.439 85.517 184.314 85.9441 185.411 85.9441C186.516 85.9441 187.391 85.5128 188.045 84.646C188.694 83.7793 189.02 82.5691 189.02 81.0072C189.02 79.6128 188.69 78.4822 188.028 77.6155C187.366 76.7487 186.487 76.3174 185.39 76.3174C184.318 76.3174 183.451 76.7445 182.794 77.5987C182.136 78.4571 181.806 79.6798 181.806 81.2668ZM199.016 85.9441C199.79 85.9441 200.469 85.7096 201.046 85.2406C201.624 84.7717 201.947 84.1813 202.01 83.4778H204.066C204.028 84.2064 203.777 84.9015 203.312 85.5589C202.851 86.2163 202.231 86.7439 201.461 87.1333C200.691 87.5269 199.874 87.7196 199.011 87.7196C197.278 87.7196 195.904 87.1417 194.883 85.986C193.861 84.8303 193.35 83.2516 193.35 81.2459V80.8816C193.35 79.6421 193.576 78.545 194.033 77.5778C194.485 76.6147 195.138 75.8651 195.988 75.3333C196.838 74.8015 197.843 74.5335 199.003 74.5335C200.427 74.5335 201.612 74.9607 202.558 75.8149C203.5 76.6691 204.007 77.7787 204.07 79.1396H202.014C201.951 78.3189 201.641 77.6406 201.08 77.113C200.519 76.5854 199.828 76.3216 199.007 76.3216C197.902 76.3216 197.048 76.7193 196.44 77.5149C195.833 78.3105 195.532 79.4579 195.532 80.9654V81.3757C195.532 82.8413 195.833 83.9677 196.436 84.7591C197.031 85.5505 197.893 85.9441 199.016 85.9441ZM215.949 76.5351H211.682V87.4893H209.509V76.5351H205.326V74.7722H215.949V76.5351ZM225.723 87.4851C225.597 87.2338 225.496 86.79 225.417 86.1451C224.408 87.1962 223.202 87.7196 221.799 87.7196C220.547 87.7196 219.517 87.3636 218.713 86.656C217.909 85.9483 217.507 85.048 217.507 83.9593C217.507 82.6361 218.009 81.606 219.019 80.8732C220.024 80.1404 221.443 79.7761 223.265 79.7761H225.379V78.7753C225.379 78.0174 225.153 77.4103 224.697 76.958C224.24 76.5058 223.575 76.2839 222.687 76.2839C221.912 76.2839 221.259 76.4807 220.735 76.8701C220.212 77.2637 219.948 77.7369 219.948 78.2938H217.762C217.762 77.6573 217.989 77.046 218.437 76.4556C218.889 75.8651 219.496 75.3962 220.271 75.0528C221.041 74.7094 221.891 74.5377 222.817 74.5377C224.282 74.5377 225.429 74.902 226.259 75.6348C227.088 76.3676 227.519 77.3768 227.553 78.6623V84.5162C227.553 85.6845 227.703 86.6099 228.001 87.3008V87.4893H225.723V87.4851ZM222.117 85.8269C222.8 85.8269 223.445 85.651 224.056 85.2993C224.667 84.9475 225.111 84.4869 225.383 83.9258V81.3171H223.679C221.016 81.3171 219.684 82.0959 219.684 83.6536C219.684 84.3362 219.911 84.868 220.367 85.2532C220.819 85.6343 221.401 85.8269 222.117 85.8269Z" fill="#008C95"/>
</svg>
