<svg width="830" height="149" viewBox="0 0 830 149" fill="none" xmlns="http://www.w3.org/2000/svg">
<path d="M15.4453 13.0352V13.9141C15.4453 15.2031 15.2734 16.3633 14.9297 17.3945C14.5859 18.418 14.0977 19.2891 13.4648 20.0078C12.832 20.7266 12.0781 21.2773 11.2031 21.6602C10.3281 22.043 9.35547 22.2344 8.28516 22.2344C7.23047 22.2344 6.26172 22.043 5.37891 21.6602C4.50391 21.2773 3.74609 20.7266 3.10547 20.0078C2.46484 19.2891 1.96875 18.418 1.61719 17.3945C1.26562 16.3633 1.08984 15.2031 1.08984 13.9141V13.0352C1.08984 11.7383 1.26562 10.5781 1.61719 9.55469C1.96875 8.53125 2.46094 7.66016 3.09375 6.94141C3.72656 6.21484 4.48047 5.66016 5.35547 5.27734C6.23828 4.89453 7.20703 4.70312 8.26172 4.70312C9.33203 4.70312 10.3047 4.89453 11.1797 5.27734C12.0547 5.66016 12.8086 6.21484 13.4414 6.94141C14.082 7.66016 14.5742 8.53125 14.918 9.55469C15.2695 10.5781 15.4453 11.7383 15.4453 13.0352ZM12.1875 13.9141V13.0117C12.1875 12.082 12.1016 11.2656 11.9297 10.5625C11.7578 9.85156 11.5039 9.25391 11.168 8.76953C10.832 8.28516 10.418 7.92188 9.92578 7.67969C9.43359 7.42969 8.87891 7.30469 8.26172 7.30469C7.63672 7.30469 7.08203 7.42969 6.59766 7.67969C6.12109 7.92188 5.71484 8.28516 5.37891 8.76953C5.04297 9.25391 4.78516 9.85156 4.60547 10.5625C4.43359 11.2656 4.34766 12.082 4.34766 13.0117V13.9141C4.34766 14.8359 4.43359 15.6523 4.60547 16.3633C4.78516 17.0742 5.04297 17.6758 5.37891 18.168C5.72266 18.6523 6.13672 19.0195 6.62109 19.2695C7.10547 19.5195 7.66016 19.6445 8.28516 19.6445C8.91016 19.6445 9.46484 19.5195 9.94922 19.2695C10.4336 19.0195 10.8398 18.6523 11.168 18.168C11.5039 17.6758 11.7578 17.0742 11.9297 16.3633C12.1016 15.6523 12.1875 14.8359 12.1875 13.9141ZM26.4492 9.32031V11.7695H20.25V9.32031H26.4492ZM21.0703 9.32031V22H17.9648V9.32031H21.0703ZM28.793 9.32031V22H25.6758V9.32031H28.793ZM34.6992 11.7578V26.875H31.5938V9.32031H34.4648L34.6992 11.7578ZM42.8438 15.5312V15.7773C42.8438 16.6992 42.7344 17.5547 42.5156 18.3438C42.3047 19.125 41.9922 19.8086 41.5781 20.3945C41.1641 20.9727 40.6484 21.4258 40.0312 21.7539C39.4219 22.0742 38.7188 22.2344 37.9219 22.2344C37.1406 22.2344 36.4609 22.0859 35.8828 21.7891C35.3047 21.4844 34.8164 21.0547 34.418 20.5C34.0195 19.9453 33.6992 19.3008 33.457 18.5664C33.2227 17.8242 33.0469 17.0156 32.9297 16.1406V15.3555C33.0469 14.4258 33.2227 13.582 33.457 12.8242C33.6992 12.0586 34.0195 11.3984 34.418 10.8438C34.8164 10.2812 35.3008 9.84766 35.8711 9.54297C36.4492 9.23828 37.125 9.08594 37.8984 9.08594C38.7031 9.08594 39.4102 9.23828 40.0195 9.54297C40.6367 9.84766 41.1562 10.2852 41.5781 10.8555C42 11.4258 42.3164 12.1055 42.5273 12.8945C42.7383 13.6836 42.8438 14.5625 42.8438 15.5312ZM39.7383 15.7773V15.5312C39.7383 14.9688 39.6875 14.4492 39.5859 13.9727C39.4844 13.4883 39.3281 13.0664 39.1172 12.707C38.9062 12.3398 38.6328 12.0547 38.2969 11.8516C37.9609 11.6484 37.5547 11.5469 37.0781 11.5469C36.6016 11.5469 36.1914 11.625 35.8477 11.7812C35.5039 11.9375 35.2227 12.1602 35.0039 12.4492C34.7852 12.7383 34.6133 13.082 34.4883 13.4805C34.3711 13.8711 34.293 14.3047 34.2539 14.7812V16.7266C34.3242 17.3047 34.4609 17.8242 34.6641 18.2852C34.8672 18.7461 35.1641 19.1133 35.5547 19.3867C35.9531 19.6602 36.4688 19.7969 37.1016 19.7969C37.5781 19.7969 37.9844 19.6914 38.3203 19.4805C38.6562 19.2695 38.9297 18.9805 39.1406 18.6133C39.3516 18.2383 39.5039 17.8086 39.5977 17.3242C39.6914 16.8398 39.7383 16.3242 39.7383 15.7773ZM50.8008 22.2344C49.8398 22.2344 48.9766 22.0781 48.2109 21.7656C47.4453 21.4531 46.793 21.0195 46.2539 20.4648C45.7227 19.9023 45.3125 19.25 45.0234 18.5078C44.7422 17.7578 44.6016 16.9531 44.6016 16.0938V15.625C44.6016 14.6484 44.7422 13.7617 45.0234 12.9648C45.3047 12.1602 45.7031 11.4688 46.2188 10.8906C46.7344 10.3125 47.3516 9.86719 48.0703 9.55469C48.7891 9.24219 49.582 9.08594 50.4492 9.08594C51.3477 9.08594 52.1406 9.23828 52.8281 9.54297C53.5156 9.83984 54.0898 10.2617 54.5508 10.8086C55.0117 11.3555 55.3594 12.0117 55.5938 12.7773C55.8281 13.5352 55.9453 14.375 55.9453 15.2969V16.5977H46.0078V14.4648H52.8984V14.2305C52.8828 13.7383 52.7891 13.2891 52.6172 12.8828C52.4453 12.4688 52.1797 12.1406 51.8203 11.8984C51.4609 11.6484 50.9961 11.5234 50.4258 11.5234C49.9648 11.5234 49.5625 11.625 49.2188 11.8281C48.8828 12.0234 48.6016 12.3047 48.375 12.6719C48.1562 13.0312 47.9922 13.4609 47.8828 13.9609C47.7734 14.4609 47.7188 15.0156 47.7188 15.625V16.0938C47.7188 16.625 47.7891 17.1172 47.9297 17.5703C48.0781 18.0234 48.293 18.418 48.5742 18.7539C48.8633 19.082 49.207 19.3398 49.6055 19.5273C50.0117 19.707 50.4727 19.7969 50.9883 19.7969C51.6367 19.7969 52.2227 19.6719 52.7461 19.4219C53.2773 19.1641 53.7383 18.7852 54.1289 18.2852L55.6875 19.9023C55.4219 20.293 55.0625 20.668 54.6094 21.0273C54.1641 21.3867 53.625 21.6797 52.9922 21.9062C52.3594 22.125 51.6289 22.2344 50.8008 22.2344ZM60.3047 9.32031H63.3984L63.2812 13.6797C63.2422 15 63.0859 16.1406 62.8125 17.1016C62.5469 18.0547 62.1914 18.8555 61.7461 19.5039C61.3086 20.1523 60.8086 20.6758 60.2461 21.0742C59.6914 21.4727 59.1094 21.7812 58.5 22H57.7617L57.75 19.5859L58.1133 19.5625C58.4805 19.1719 58.7891 18.7891 59.0391 18.4141C59.2969 18.0312 59.5039 17.6211 59.6602 17.1836C59.8164 16.7461 59.9336 16.2461 60.0117 15.6836C60.0977 15.1133 60.1523 14.4453 60.1758 13.6797L60.3047 9.32031ZM61.1367 9.32031H69.3516V22H66.2578V11.8633H61.1367V9.32031ZM57.0586 19.5625H71.1211V25.7969H68.0273V22H60.2109V25.7969H57.0469L57.0586 19.5625ZM78.7148 22.2344C77.7539 22.2344 76.8906 22.0781 76.125 21.7656C75.3594 21.4531 74.707 21.0195 74.168 20.4648C73.6367 19.9023 73.2266 19.25 72.9375 18.5078C72.6562 17.7578 72.5156 16.9531 72.5156 16.0938V15.625C72.5156 14.6484 72.6562 13.7617 72.9375 12.9648C73.2188 12.1602 73.6172 11.4688 74.1328 10.8906C74.6484 10.3125 75.2656 9.86719 75.9844 9.55469C76.7031 9.24219 77.4961 9.08594 78.3633 9.08594C79.2617 9.08594 80.0547 9.23828 80.7422 9.54297C81.4297 9.83984 82.0039 10.2617 82.4648 10.8086C82.9258 11.3555 83.2734 12.0117 83.5078 12.7773C83.7422 13.5352 83.8594 14.375 83.8594 15.2969V16.5977H73.9219V14.4648H80.8125V14.2305C80.7969 13.7383 80.7031 13.2891 80.5312 12.8828C80.3594 12.4688 80.0938 12.1406 79.7344 11.8984C79.375 11.6484 78.9102 11.5234 78.3398 11.5234C77.8789 11.5234 77.4766 11.625 77.1328 11.8281C76.7969 12.0234 76.5156 12.3047 76.2891 12.6719C76.0703 13.0312 75.9062 13.4609 75.7969 13.9609C75.6875 14.4609 75.6328 15.0156 75.6328 15.625V16.0938C75.6328 16.625 75.7031 17.1172 75.8438 17.5703C75.9922 18.0234 76.207 18.418 76.4883 18.7539C76.7773 19.082 77.1211 19.3398 77.5195 19.5273C77.9258 19.707 78.3867 19.7969 78.9023 19.7969C79.5508 19.7969 80.1367 19.6719 80.6602 19.4219C81.1914 19.1641 81.6523 18.7852 82.043 18.2852L83.6016 19.9023C83.3359 20.293 82.9766 20.668 82.5234 21.0273C82.0781 21.3867 81.5391 21.6797 80.9062 21.9062C80.2734 22.125 79.543 22.2344 78.7148 22.2344ZM94.4531 9.32031V11.7695H88.2422V9.32031H94.4531ZM96.7852 9.32031V22H93.6914V9.32031H96.7852ZM87.4688 9.32031H90.5273L90.1875 15.6484C90.1328 16.5781 90.0352 17.3945 89.8945 18.0977C89.7539 18.793 89.5664 19.3906 89.332 19.8906C89.0977 20.3828 88.8125 20.7852 88.4766 21.0977C88.1406 21.4102 87.75 21.6406 87.3047 21.7891C86.8672 21.9297 86.375 22 85.8281 22H84.8789L84.8438 19.5039L85.2891 19.4688C85.5625 19.4453 85.7969 19.3711 85.9922 19.2461C86.1953 19.1211 86.3672 18.9414 86.5078 18.707C86.6562 18.4727 86.7773 18.1719 86.8711 17.8047C86.9727 17.4297 87.0508 16.9922 87.1055 16.4922C87.168 15.9844 87.2109 15.3984 87.2344 14.7344L87.4688 9.32031ZM105.316 22.2344C104.355 22.2344 103.492 22.0781 102.727 21.7656C101.961 21.4531 101.309 21.0195 100.77 20.4648C100.238 19.9023 99.8281 19.25 99.5391 18.5078C99.2578 17.7578 99.1172 16.9531 99.1172 16.0938V15.625C99.1172 14.6484 99.2578 13.7617 99.5391 12.9648C99.8203 12.1602 100.219 11.4688 100.734 10.8906C101.25 10.3125 101.867 9.86719 102.586 9.55469C103.305 9.24219 104.098 9.08594 104.965 9.08594C105.863 9.08594 106.656 9.23828 107.344 9.54297C108.031 9.83984 108.605 10.2617 109.066 10.8086C109.527 11.3555 109.875 12.0117 110.109 12.7773C110.344 13.5352 110.461 14.375 110.461 15.2969V16.5977H100.523V14.4648H107.414V14.2305C107.398 13.7383 107.305 13.2891 107.133 12.8828C106.961 12.4688 106.695 12.1406 106.336 11.8984C105.977 11.6484 105.512 11.5234 104.941 11.5234C104.48 11.5234 104.078 11.625 103.734 11.8281C103.398 12.0234 103.117 12.3047 102.891 12.6719C102.672 13.0312 102.508 13.4609 102.398 13.9609C102.289 14.4609 102.234 15.0156 102.234 15.625V16.0938C102.234 16.625 102.305 17.1172 102.445 17.5703C102.594 18.0234 102.809 18.418 103.09 18.7539C103.379 19.082 103.723 19.3398 104.121 19.5273C104.527 19.707 104.988 19.7969 105.504 19.7969C106.152 19.7969 106.738 19.6719 107.262 19.4219C107.793 19.1641 108.254 18.7852 108.645 18.2852L110.203 19.9023C109.938 20.293 109.578 20.668 109.125 21.0273C108.68 21.3867 108.141 21.6797 107.508 21.9062C106.875 22.125 106.145 22.2344 105.316 22.2344ZM121.195 14.5234V16.9492H114.691V14.5234H121.195ZM115.664 9.32031V22H112.559V9.32031H115.664ZM123.363 9.32031V22H120.246V9.32031H123.363ZM129.305 17.582L133.922 9.32031H137.027V22H133.922V13.7266L129.305 22H126.199V9.32031H129.305V17.582ZM145.535 22.2344C144.574 22.2344 143.711 22.0781 142.945 21.7656C142.18 21.4531 141.527 21.0195 140.988 20.4648C140.457 19.9023 140.047 19.25 139.758 18.5078C139.477 17.7578 139.336 16.9531 139.336 16.0938V15.625C139.336 14.6484 139.477 13.7617 139.758 12.9648C140.039 12.1602 140.438 11.4688 140.953 10.8906C141.469 10.3125 142.086 9.86719 142.805 9.55469C143.523 9.24219 144.316 9.08594 145.184 9.08594C146.082 9.08594 146.875 9.23828 147.562 9.54297C148.25 9.83984 148.824 10.2617 149.285 10.8086C149.746 11.3555 150.094 12.0117 150.328 12.7773C150.562 13.5352 150.68 14.375 150.68 15.2969V16.5977H140.742V14.4648H147.633V14.2305C147.617 13.7383 147.523 13.2891 147.352 12.8828C147.18 12.4688 146.914 12.1406 146.555 11.8984C146.195 11.6484 145.73 11.5234 145.16 11.5234C144.699 11.5234 144.297 11.625 143.953 11.8281C143.617 12.0234 143.336 12.3047 143.109 12.6719C142.891 13.0312 142.727 13.4609 142.617 13.9609C142.508 14.4609 142.453 15.0156 142.453 15.625V16.0938C142.453 16.625 142.523 17.1172 142.664 17.5703C142.812 18.0234 143.027 18.418 143.309 18.7539C143.598 19.082 143.941 19.3398 144.34 19.5273C144.746 19.707 145.207 19.7969 145.723 19.7969C146.371 19.7969 146.957 19.6719 147.48 19.4219C148.012 19.1641 148.473 18.7852 148.863 18.2852L150.422 19.9023C150.156 20.293 149.797 20.668 149.344 21.0273C148.898 21.3867 148.359 21.6797 147.727 21.9062C147.094 22.125 146.363 22.2344 145.535 22.2344ZM166.582 3.75391H169.09C169.09 4.41797 169.004 4.97656 168.832 5.42969C168.66 5.875 168.395 6.25 168.035 6.55469C167.676 6.85156 167.215 7.09766 166.652 7.29297C166.09 7.48828 165.418 7.66016 164.637 7.80859C163.98 7.94141 163.402 8.16016 162.902 8.46484C162.402 8.76953 161.984 9.1875 161.648 9.71875C161.32 10.25 161.082 10.9258 160.934 11.7461C160.785 12.5664 160.738 13.5547 160.793 14.7109V15.3906L158.367 15.6719V14.9922C158.367 13.4844 158.504 12.1719 158.777 11.0547C159.051 9.92969 159.438 8.98438 159.938 8.21875C160.438 7.44531 161.035 6.83203 161.73 6.37891C162.434 5.91797 163.219 5.59375 164.086 5.40625C164.664 5.28906 165.137 5.16797 165.504 5.04297C165.879 4.91797 166.152 4.75781 166.324 4.5625C166.496 4.35938 166.582 4.08984 166.582 3.75391ZM164.848 10.0352C165.699 10.0352 166.453 10.1836 167.109 10.4805C167.773 10.7695 168.332 11.1797 168.785 11.7109C169.238 12.2344 169.582 12.8555 169.816 13.5742C170.059 14.2852 170.18 15.0625 170.18 15.9062V16.1523C170.18 17.0273 170.047 17.8359 169.781 18.5781C169.523 19.3203 169.145 19.9648 168.645 20.5117C168.145 21.0586 167.527 21.4844 166.793 21.7891C166.059 22.0938 165.219 22.2461 164.273 22.2461C163.336 22.2461 162.5 22.0859 161.766 21.7656C161.031 21.4375 160.41 20.9844 159.902 20.4062C159.395 19.8281 159.012 19.1484 158.754 18.3672C158.496 17.5781 158.367 16.7188 158.367 15.7891V15.543C158.359 15.3867 158.41 15.2383 158.52 15.0977C158.629 14.957 158.758 14.8008 158.906 14.6289C159.062 14.457 159.203 14.25 159.328 14.0078C159.758 13.1797 160.242 12.4688 160.781 11.875C161.328 11.2812 161.938 10.8281 162.609 10.5156C163.281 10.1953 164.027 10.0352 164.848 10.0352ZM164.25 12.4727C163.586 12.4727 163.047 12.6328 162.633 12.9531C162.227 13.2656 161.93 13.6836 161.742 14.207C161.555 14.7227 161.461 15.2891 161.461 15.9062V16.1523C161.461 16.6523 161.512 17.125 161.613 17.5703C161.723 18.0078 161.887 18.3945 162.105 18.7305C162.324 19.0664 162.613 19.332 162.973 19.5273C163.332 19.7148 163.766 19.8086 164.273 19.8086C164.781 19.8086 165.211 19.7148 165.562 19.5273C165.922 19.332 166.211 19.0664 166.43 18.7305C166.648 18.3945 166.809 18.0078 166.91 17.5703C167.02 17.125 167.074 16.6523 167.074 16.1523V15.9062C167.074 15.4453 167.02 15.0078 166.91 14.5938C166.809 14.1797 166.648 13.8164 166.43 13.5039C166.211 13.1836 165.918 12.9336 165.551 12.7539C165.191 12.5664 164.758 12.4727 164.25 12.4727ZM179.309 19.3047V13.457C179.309 13.0273 179.234 12.6562 179.086 12.3438C178.938 12.0312 178.711 11.7891 178.406 11.6172C178.102 11.4453 177.715 11.3594 177.246 11.3594C176.832 11.3594 176.469 11.4297 176.156 11.5703C175.852 11.7109 175.617 11.9102 175.453 12.168C175.289 12.418 175.207 12.707 175.207 13.0352H172.102C172.102 12.5117 172.227 12.0156 172.477 11.5469C172.727 11.0703 173.082 10.6484 173.543 10.2812C174.012 9.90625 174.57 9.61328 175.219 9.40234C175.875 9.19141 176.609 9.08594 177.422 9.08594C178.383 9.08594 179.238 9.25 179.988 9.57812C180.746 9.89844 181.34 10.3828 181.77 11.0312C182.207 11.6797 182.426 12.4961 182.426 13.4805V19.0117C182.426 19.6445 182.465 20.1875 182.543 20.6406C182.629 21.0859 182.754 21.4727 182.918 21.8008V22H179.766C179.617 21.6797 179.504 21.2734 179.426 20.7812C179.348 20.2812 179.309 19.7891 179.309 19.3047ZM179.742 14.2773L179.766 16.1172H177.809C177.324 16.1172 176.898 16.168 176.531 16.2695C176.164 16.3633 175.863 16.5039 175.629 16.6914C175.395 16.8711 175.219 17.0898 175.102 17.3477C174.984 17.5977 174.926 17.8828 174.926 18.2031C174.926 18.5156 174.996 18.7969 175.137 19.0469C175.285 19.2969 175.496 19.4961 175.77 19.6445C176.051 19.7852 176.379 19.8555 176.754 19.8555C177.301 19.8555 177.777 19.7461 178.184 19.5273C178.59 19.3008 178.906 19.0273 179.133 18.707C179.359 18.3867 179.48 18.082 179.496 17.793L180.387 19.1289C180.277 19.4492 180.113 19.7891 179.895 20.1484C179.676 20.5078 179.395 20.8438 179.051 21.1562C178.707 21.4688 178.293 21.7266 177.809 21.9297C177.324 22.1328 176.762 22.2344 176.121 22.2344C175.301 22.2344 174.566 22.0703 173.918 21.7422C173.27 21.4141 172.758 20.9648 172.383 20.3945C172.008 19.8242 171.82 19.1758 171.82 18.4492C171.82 17.7773 171.945 17.1836 172.195 16.668C172.445 16.1523 172.816 15.7188 173.309 15.3672C173.801 15.0078 174.41 14.7383 175.137 14.5586C175.871 14.3711 176.711 14.2773 177.656 14.2773H179.742ZM190.652 15.9531H188.18V14.4766H190.066C190.527 14.4766 190.895 14.4141 191.168 14.2891C191.449 14.1641 191.648 13.9883 191.766 13.7617C191.891 13.5352 191.953 13.2734 191.953 12.9766C191.953 12.7109 191.895 12.4609 191.777 12.2266C191.66 11.9844 191.465 11.7891 191.191 11.6406C190.918 11.4844 190.539 11.4062 190.055 11.4062C189.656 11.4062 189.301 11.4688 188.988 11.5938C188.676 11.7188 188.43 11.8945 188.25 12.1211C188.07 12.3477 187.98 12.6172 187.98 12.9297H184.875C184.875 12.1328 185.102 11.4492 185.555 10.8789C186.016 10.3086 186.629 9.87109 187.395 9.56641C188.16 9.25391 189 9.09766 189.914 9.09766C190.703 9.09766 191.414 9.17969 192.047 9.34375C192.68 9.5 193.219 9.73438 193.664 10.0469C194.109 10.3594 194.453 10.7461 194.695 11.207C194.938 11.6602 195.059 12.1875 195.059 12.7891C195.059 13.2188 194.957 13.625 194.754 14.0078C194.551 14.3906 194.258 14.7305 193.875 15.0273C193.492 15.3164 193.027 15.543 192.48 15.707C191.941 15.8711 191.332 15.9531 190.652 15.9531ZM188.18 15.1094H190.652C191.41 15.1094 192.074 15.1836 192.645 15.332C193.223 15.4727 193.707 15.6836 194.098 15.9648C194.488 16.2461 194.781 16.5938 194.977 17.0078C195.18 17.4141 195.281 17.8828 195.281 18.4141C195.281 19.0156 195.148 19.5547 194.883 20.0312C194.625 20.5 194.258 20.8984 193.781 21.2266C193.305 21.5547 192.738 21.8047 192.082 21.9766C191.426 22.1484 190.703 22.2344 189.914 22.2344C189.062 22.2344 188.234 22.0938 187.43 21.8125C186.633 21.5312 185.973 21.0977 185.449 20.5117C184.934 19.9258 184.676 19.1719 184.676 18.25H187.781C187.781 18.5469 187.871 18.8242 188.051 19.082C188.23 19.3398 188.488 19.5469 188.824 19.7031C189.168 19.8516 189.582 19.9258 190.066 19.9258C190.559 19.9258 190.961 19.8477 191.273 19.6914C191.586 19.5352 191.812 19.3281 191.953 19.0703C192.102 18.8047 192.176 18.5273 192.176 18.2383C192.176 17.8398 192.098 17.5195 191.941 17.2773C191.793 17.0273 191.559 16.8438 191.238 16.7266C190.926 16.6094 190.535 16.5508 190.066 16.5508H188.18V15.1094ZM196.969 15.7891V15.543C196.969 14.6133 197.102 13.7578 197.367 12.9766C197.633 12.1875 198.02 11.5039 198.527 10.9258C199.035 10.3477 199.656 9.89844 200.391 9.57812C201.125 9.25 201.961 9.08594 202.898 9.08594C203.852 9.08594 204.695 9.25 205.43 9.57812C206.172 9.89844 206.797 10.3477 207.305 10.9258C207.812 11.5039 208.199 12.1875 208.465 12.9766C208.73 13.7578 208.863 14.6133 208.863 15.543V15.7891C208.863 16.7109 208.73 17.5664 208.465 18.3555C208.199 19.1367 207.812 19.8203 207.305 20.4062C206.797 20.9844 206.176 21.4336 205.441 21.7539C204.707 22.0742 203.867 22.2344 202.922 22.2344C201.984 22.2344 201.145 22.0742 200.402 21.7539C199.66 21.4336 199.035 20.9844 198.527 20.4062C198.02 19.8203 197.633 19.1367 197.367 18.3555C197.102 17.5664 196.969 16.7109 196.969 15.7891ZM200.062 15.543V15.7891C200.062 16.3438 200.117 16.8633 200.227 17.3477C200.336 17.832 200.504 18.2578 200.73 18.625C200.957 18.9922 201.25 19.2812 201.609 19.4922C201.977 19.6953 202.414 19.7969 202.922 19.7969C203.422 19.7969 203.852 19.6953 204.211 19.4922C204.57 19.2812 204.863 18.9922 205.09 18.625C205.324 18.2578 205.496 17.832 205.605 17.3477C205.715 16.8633 205.77 16.3438 205.77 15.7891V15.543C205.77 14.9961 205.715 14.4844 205.605 14.0078C205.496 13.5234 205.324 13.0977 205.09 12.7305C204.863 12.3555 204.566 12.0625 204.199 11.8516C203.84 11.6328 203.406 11.5234 202.898 11.5234C202.398 11.5234 201.969 11.6328 201.609 11.8516C201.25 12.0625 200.957 12.3555 200.73 12.7305C200.504 13.0977 200.336 13.5234 200.227 14.0078C200.117 14.4844 200.062 14.9961 200.062 15.543ZM217.348 16.6328H213.328L213.305 14.5352H216.609C217.102 14.5352 217.504 14.4844 217.816 14.3828C218.129 14.2812 218.359 14.1289 218.508 13.9258C218.664 13.7227 218.742 13.4766 218.742 13.1875C218.742 12.9375 218.695 12.7227 218.602 12.543C218.508 12.3555 218.367 12.2031 218.18 12.0859C218 11.9688 217.77 11.8828 217.488 11.8281C217.215 11.7656 216.895 11.7344 216.527 11.7344H214.43V22H211.324V9.32031H216.527C217.348 9.32031 218.086 9.39453 218.742 9.54297C219.398 9.68359 219.957 9.89844 220.418 10.1875C220.879 10.4766 221.23 10.8438 221.473 11.2891C221.723 11.7266 221.848 12.2422 221.848 12.8359C221.848 13.2266 221.762 13.5938 221.59 13.9375C221.418 14.2812 221.164 14.5859 220.828 14.8516C220.492 15.1172 220.078 15.3359 219.586 15.5078C219.094 15.6719 218.531 15.7734 217.898 15.8125L217.348 16.6328ZM217.348 22H212.496L213.645 19.5859H217.348C217.801 19.5859 218.176 19.5312 218.473 19.4219C218.77 19.3047 218.988 19.1367 219.129 18.918C219.277 18.6992 219.352 18.4336 219.352 18.1211C219.352 17.8164 219.281 17.5547 219.141 17.3359C219.008 17.1094 218.793 16.9375 218.496 16.8203C218.207 16.6953 217.824 16.6328 217.348 16.6328H214.148L214.172 14.5352H217.887L218.707 15.3672C219.551 15.4219 220.25 15.5938 220.805 15.8828C221.359 16.1641 221.773 16.5234 222.047 16.9609C222.32 17.3906 222.457 17.8633 222.457 18.3789C222.457 18.9805 222.344 19.5078 222.117 19.9609C221.891 20.4141 221.559 20.793 221.121 21.0977C220.684 21.3945 220.148 21.6211 219.516 21.7773C218.883 21.9258 218.16 22 217.348 22ZM224.156 15.7891V15.543C224.156 14.6133 224.289 13.7578 224.555 12.9766C224.82 12.1875 225.207 11.5039 225.715 10.9258C226.223 10.3477 226.844 9.89844 227.578 9.57812C228.312 9.25 229.148 9.08594 230.086 9.08594C231.039 9.08594 231.883 9.25 232.617 9.57812C233.359 9.89844 233.984 10.3477 234.492 10.9258C235 11.5039 235.387 12.1875 235.652 12.9766C235.918 13.7578 236.051 14.6133 236.051 15.543V15.7891C236.051 16.7109 235.918 17.5664 235.652 18.3555C235.387 19.1367 235 19.8203 234.492 20.4062C233.984 20.9844 233.363 21.4336 232.629 21.7539C231.895 22.0742 231.055 22.2344 230.109 22.2344C229.172 22.2344 228.332 22.0742 227.59 21.7539C226.848 21.4336 226.223 20.9844 225.715 20.4062C225.207 19.8203 224.82 19.1367 224.555 18.3555C224.289 17.5664 224.156 16.7109 224.156 15.7891ZM227.25 15.543V15.7891C227.25 16.3438 227.305 16.8633 227.414 17.3477C227.523 17.832 227.691 18.2578 227.918 18.625C228.145 18.9922 228.438 19.2812 228.797 19.4922C229.164 19.6953 229.602 19.7969 230.109 19.7969C230.609 19.7969 231.039 19.6953 231.398 19.4922C231.758 19.2812 232.051 18.9922 232.277 18.625C232.512 18.2578 232.684 17.832 232.793 17.3477C232.902 16.8633 232.957 16.3438 232.957 15.7891V15.543C232.957 14.9961 232.902 14.4844 232.793 14.0078C232.684 13.5234 232.512 13.0977 232.277 12.7305C232.051 12.3555 231.754 12.0625 231.387 11.8516C231.027 11.6328 230.594 11.5234 230.086 11.5234C229.586 11.5234 229.156 11.6328 228.797 11.8516C228.438 12.0625 228.145 12.3555 227.918 12.7305C227.691 13.0977 227.523 13.5234 227.414 14.0078C227.305 14.4844 227.25 14.9961 227.25 15.543ZM246.82 9.32031V11.7695H241.418V22H238.324V9.32031H246.82ZM247.594 15.7891V15.543C247.594 14.6133 247.727 13.7578 247.992 12.9766C248.258 12.1875 248.645 11.5039 249.152 10.9258C249.66 10.3477 250.281 9.89844 251.016 9.57812C251.75 9.25 252.586 9.08594 253.523 9.08594C254.477 9.08594 255.32 9.25 256.055 9.57812C256.797 9.89844 257.422 10.3477 257.93 10.9258C258.438 11.5039 258.824 12.1875 259.09 12.9766C259.355 13.7578 259.488 14.6133 259.488 15.543V15.7891C259.488 16.7109 259.355 17.5664 259.09 18.3555C258.824 19.1367 258.438 19.8203 257.93 20.4062C257.422 20.9844 256.801 21.4336 256.066 21.7539C255.332 22.0742 254.492 22.2344 253.547 22.2344C252.609 22.2344 251.77 22.0742 251.027 21.7539C250.285 21.4336 249.66 20.9844 249.152 20.4062C248.645 19.8203 248.258 19.1367 247.992 18.3555C247.727 17.5664 247.594 16.7109 247.594 15.7891ZM250.688 15.543V15.7891C250.688 16.3438 250.742 16.8633 250.852 17.3477C250.961 17.832 251.129 18.2578 251.355 18.625C251.582 18.9922 251.875 19.2812 252.234 19.4922C252.602 19.6953 253.039 19.7969 253.547 19.7969C254.047 19.7969 254.477 19.6953 254.836 19.4922C255.195 19.2812 255.488 18.9922 255.715 18.625C255.949 18.2578 256.121 17.832 256.23 17.3477C256.34 16.8633 256.395 16.3438 256.395 15.7891V15.543C256.395 14.9961 256.34 14.4844 256.23 14.0078C256.121 13.5234 255.949 13.0977 255.715 12.7305C255.488 12.3555 255.191 12.0625 254.824 11.8516C254.465 11.6328 254.031 11.5234 253.523 11.5234C253.023 11.5234 252.594 11.6328 252.234 11.8516C251.875 12.0625 251.582 12.3555 251.355 12.7305C251.129 13.0977 250.961 13.5234 250.852 14.0078C250.742 14.4844 250.688 14.9961 250.688 15.543ZM275.566 3.75391H278.074C278.074 4.41797 277.988 4.97656 277.816 5.42969C277.645 5.875 277.379 6.25 277.02 6.55469C276.66 6.85156 276.199 7.09766 275.637 7.29297C275.074 7.48828 274.402 7.66016 273.621 7.80859C272.965 7.94141 272.387 8.16016 271.887 8.46484C271.387 8.76953 270.969 9.1875 270.633 9.71875C270.305 10.25 270.066 10.9258 269.918 11.7461C269.77 12.5664 269.723 13.5547 269.777 14.7109V15.3906L267.352 15.6719V14.9922C267.352 13.4844 267.488 12.1719 267.762 11.0547C268.035 9.92969 268.422 8.98438 268.922 8.21875C269.422 7.44531 270.02 6.83203 270.715 6.37891C271.418 5.91797 272.203 5.59375 273.07 5.40625C273.648 5.28906 274.121 5.16797 274.488 5.04297C274.863 4.91797 275.137 4.75781 275.309 4.5625C275.48 4.35938 275.566 4.08984 275.566 3.75391ZM273.832 10.0352C274.684 10.0352 275.438 10.1836 276.094 10.4805C276.758 10.7695 277.316 11.1797 277.77 11.7109C278.223 12.2344 278.566 12.8555 278.801 13.5742C279.043 14.2852 279.164 15.0625 279.164 15.9062V16.1523C279.164 17.0273 279.031 17.8359 278.766 18.5781C278.508 19.3203 278.129 19.9648 277.629 20.5117C277.129 21.0586 276.512 21.4844 275.777 21.7891C275.043 22.0938 274.203 22.2461 273.258 22.2461C272.32 22.2461 271.484 22.0859 270.75 21.7656C270.016 21.4375 269.395 20.9844 268.887 20.4062C268.379 19.8281 267.996 19.1484 267.738 18.3672C267.48 17.5781 267.352 16.7188 267.352 15.7891V15.543C267.344 15.3867 267.395 15.2383 267.504 15.0977C267.613 14.957 267.742 14.8008 267.891 14.6289C268.047 14.457 268.188 14.25 268.312 14.0078C268.742 13.1797 269.227 12.4688 269.766 11.875C270.312 11.2812 270.922 10.8281 271.594 10.5156C272.266 10.1953 273.012 10.0352 273.832 10.0352ZM273.234 12.4727C272.57 12.4727 272.031 12.6328 271.617 12.9531C271.211 13.2656 270.914 13.6836 270.727 14.207C270.539 14.7227 270.445 15.2891 270.445 15.9062V16.1523C270.445 16.6523 270.496 17.125 270.598 17.5703C270.707 18.0078 270.871 18.3945 271.09 18.7305C271.309 19.0664 271.598 19.332 271.957 19.5273C272.316 19.7148 272.75 19.8086 273.258 19.8086C273.766 19.8086 274.195 19.7148 274.547 19.5273C274.906 19.332 275.195 19.0664 275.414 18.7305C275.633 18.3945 275.793 18.0078 275.895 17.5703C276.004 17.125 276.059 16.6523 276.059 16.1523V15.9062C276.059 15.4453 276.004 15.0078 275.895 14.5938C275.793 14.1797 275.633 13.8164 275.414 13.5039C275.195 13.1836 274.902 12.9336 274.535 12.7539C274.176 12.5664 273.742 12.4727 273.234 12.4727ZM289.828 9.32031V11.7695H283.617V9.32031H289.828ZM292.16 9.32031V22H289.066V9.32031H292.16ZM282.844 9.32031H285.902L285.562 15.6484C285.508 16.5781 285.41 17.3945 285.27 18.0977C285.129 18.793 284.941 19.3906 284.707 19.8906C284.473 20.3828 284.188 20.7852 283.852 21.0977C283.516 21.4102 283.125 21.6406 282.68 21.7891C282.242 21.9297 281.75 22 281.203 22H280.254L280.219 19.5039L280.664 19.4688C280.938 19.4453 281.172 19.3711 281.367 19.2461C281.57 19.1211 281.742 18.9414 281.883 18.707C282.031 18.4727 282.152 18.1719 282.246 17.8047C282.348 17.4297 282.426 16.9922 282.48 16.4922C282.543 15.9844 282.586 15.3984 282.609 14.7344L282.844 9.32031ZM294.445 15.7891V15.543C294.445 14.6133 294.578 13.7578 294.844 12.9766C295.109 12.1875 295.496 11.5039 296.004 10.9258C296.512 10.3477 297.133 9.89844 297.867 9.57812C298.602 9.25 299.438 9.08594 300.375 9.08594C301.328 9.08594 302.172 9.25 302.906 9.57812C303.648 9.89844 304.273 10.3477 304.781 10.9258C305.289 11.5039 305.676 12.1875 305.941 12.9766C306.207 13.7578 306.34 14.6133 306.34 15.543V15.7891C306.34 16.7109 306.207 17.5664 305.941 18.3555C305.676 19.1367 305.289 19.8203 304.781 20.4062C304.273 20.9844 303.652 21.4336 302.918 21.7539C302.184 22.0742 301.344 22.2344 300.398 22.2344C299.461 22.2344 298.621 22.0742 297.879 21.7539C297.137 21.4336 296.512 20.9844 296.004 20.4062C295.496 19.8203 295.109 19.1367 294.844 18.3555C294.578 17.5664 294.445 16.7109 294.445 15.7891ZM297.539 15.543V15.7891C297.539 16.3438 297.594 16.8633 297.703 17.3477C297.812 17.832 297.98 18.2578 298.207 18.625C298.434 18.9922 298.727 19.2812 299.086 19.4922C299.453 19.6953 299.891 19.7969 300.398 19.7969C300.898 19.7969 301.328 19.6953 301.688 19.4922C302.047 19.2812 302.34 18.9922 302.566 18.625C302.801 18.2578 302.973 17.832 303.082 17.3477C303.191 16.8633 303.246 16.3438 303.246 15.7891V15.543C303.246 14.9961 303.191 14.4844 303.082 14.0078C302.973 13.5234 302.801 13.0977 302.566 12.7305C302.34 12.3555 302.043 12.0625 301.676 11.8516C301.316 11.6328 300.883 11.5234 300.375 11.5234C299.875 11.5234 299.445 11.6328 299.086 11.8516C298.727 12.0625 298.434 12.3555 298.207 12.7305C297.98 13.0977 297.812 13.5234 297.703 14.0078C297.594 14.4844 297.539 14.9961 297.539 15.543ZM311.895 9.32031V22H308.801V9.32031H311.895ZM320.156 9.32031L314.566 17.1016H311.273L310.887 14.2656H313.172L316.254 9.32031H320.156ZM316.441 22L312.973 16.5625L315.551 14.9453L320.555 22H316.441ZM328.957 19.3047V13.457C328.957 13.0273 328.883 12.6562 328.734 12.3438C328.586 12.0312 328.359 11.7891 328.055 11.6172C327.75 11.4453 327.363 11.3594 326.895 11.3594C326.48 11.3594 326.117 11.4297 325.805 11.5703C325.5 11.7109 325.266 11.9102 325.102 12.168C324.938 12.418 324.855 12.707 324.855 13.0352H321.75C321.75 12.5117 321.875 12.0156 322.125 11.5469C322.375 11.0703 322.73 10.6484 323.191 10.2812C323.66 9.90625 324.219 9.61328 324.867 9.40234C325.523 9.19141 326.258 9.08594 327.07 9.08594C328.031 9.08594 328.887 9.25 329.637 9.57812C330.395 9.89844 330.988 10.3828 331.418 11.0312C331.855 11.6797 332.074 12.4961 332.074 13.4805V19.0117C332.074 19.6445 332.113 20.1875 332.191 20.6406C332.277 21.0859 332.402 21.4727 332.566 21.8008V22H329.414C329.266 21.6797 329.152 21.2734 329.074 20.7812C328.996 20.2812 328.957 19.7891 328.957 19.3047ZM329.391 14.2773L329.414 16.1172H327.457C326.973 16.1172 326.547 16.168 326.18 16.2695C325.812 16.3633 325.512 16.5039 325.277 16.6914C325.043 16.8711 324.867 17.0898 324.75 17.3477C324.633 17.5977 324.574 17.8828 324.574 18.2031C324.574 18.5156 324.645 18.7969 324.785 19.0469C324.934 19.2969 325.145 19.4961 325.418 19.6445C325.699 19.7852 326.027 19.8555 326.402 19.8555C326.949 19.8555 327.426 19.7461 327.832 19.5273C328.238 19.3008 328.555 19.0273 328.781 18.707C329.008 18.3867 329.129 18.082 329.145 17.793L330.035 19.1289C329.926 19.4492 329.762 19.7891 329.543 20.1484C329.324 20.5078 329.043 20.8438 328.699 21.1562C328.355 21.4688 327.941 21.7266 327.457 21.9297C326.973 22.1328 326.41 22.2344 325.77 22.2344C324.949 22.2344 324.215 22.0703 323.566 21.7422C322.918 21.4141 322.406 20.9648 322.031 20.3945C321.656 19.8242 321.469 19.1758 321.469 18.4492C321.469 17.7773 321.594 17.1836 321.844 16.668C322.094 16.1523 322.465 15.7188 322.957 15.3672C323.449 15.0078 324.059 14.7383 324.785 14.5586C325.52 14.3711 326.359 14.2773 327.305 14.2773H329.391Z" fill="black"/>
<path d="M526.953 108.455C526.953 108.455 528.677 88.9101 528.845 87.0255C529.11 83.9612 526.632 78.3701 520.671 78.3701H471.419C465.458 78.3701 462.561 82.4186 462.184 86.2856C461.961 88.5751 457.892 135.747 457.633 138.469C457.208 142.839 460.23 147.788 465.716 147.788H514.682C521.181 147.788 523.7 144.353 524.259 139.049C524.587 135.873 526.192 116.67 526.192 116.67H496.597L495.319 131.51H487.829L491.054 94.6548H498.544L497.378 108.455H526.953Z" fill="#008C95"/>
<path d="M572.63 84.3316C571.576 87.368 562.963 114.346 562.963 114.346L566.788 78.3845H537.206L531.008 147.802H553.302C558.886 147.802 560.82 144.626 561.755 142.085C562.865 139.042 571.081 116.357 571.081 116.357L568.058 147.767H597.661L603.769 78.3496H580.532C575.402 78.3496 573.377 82.1468 572.63 84.3037" fill="#008C95"/>
<path d="M722.573 78.3701L719.78 110.032H712.298L715.09 78.3701H685.487C685.487 78.3701 682.653 111.875 682.353 115.121C681.997 118.988 684.182 124.467 690.729 124.467H718.552L717.938 131.51H680.943L679.547 147.795H738.452C742.438 147.795 746.291 145.184 746.829 139.621C747.171 136.047 752.259 78.3701 752.259 78.3701H722.573Z" fill="#008C95"/>
<path d="M786.288 111.875L787.795 94.6548H795.208L793.701 111.875H786.288ZM799.815 78.3701H759.623L753.551 147.795H783.147L785.024 126.31H813.783C818.864 126.31 822.242 123.713 822.787 117.759C823.003 115.449 825.342 89.1405 825.502 86.8091C825.851 81.6787 821.768 78.3701 816.7 78.3701H799.815Z" fill="#008C95"/>
<path d="M643.654 133.361H636.101L637.602 116.134H645.161L643.654 133.361ZM638.865 101.699L639.487 94.6556H676.558L677.954 78.3779H611.28L605.207 147.796H664.28C668.028 147.796 672.098 145.569 672.656 139.768C673.054 135.413 674.876 114.772 675.211 111.024C675.651 106.019 672.468 101.699 666.241 101.699H638.865Z" fill="#008C95"/>
<path d="M109.68 147.278H131.318C138.298 147.278 139.534 142.692 139.932 138.504C140.295 134.721 145.251 78.0488 145.251 78.0488H123.724C117.588 78.0488 115.438 81.5389 114.929 87.3324L109.68 147.278Z" fill="#008C95"/>
<path d="M259.294 131.042H251.748L256.39 78.0419H226.871C226.871 78.0419 221.831 136.675 221.531 139.586C221.231 142.497 224.121 147.264 229.209 147.264H280.346C282.264 147.261 284.112 146.545 285.531 145.255C286.95 143.964 287.839 142.193 288.024 140.284C288.324 136.878 293.454 78 293.454 78H263.935L259.294 131.042Z" fill="#008C95"/>
<path d="M49.344 78.0488C44.074 78.0488 41.1912 80.7781 40.6398 87.2207C40.3675 90.4246 38.5457 111.232 38.2875 114.234C38.0292 117.235 39.167 119.86 42.9083 119.86H74.9472L73.8024 132.885H66.1732L66.6967 126.882H37.1776C37.1776 126.882 36.333 137.247 35.9561 140.842C35.5792 144.437 36.703 147.306 41.3448 147.306H93.7866C102.086 147.306 102.512 141.205 102.993 136.591C103.44 132.319 105.143 112.161 105.367 109.627C105.59 107.093 103.789 105.488 101.36 105.488H68.5534L69.6912 92.4698H77.3205L76.797 98.4658H106.316C106.316 98.4658 107.258 86.8648 107.593 83.5981C107.928 80.3313 106.239 78.0698 102.798 78.0698H49.344" fill="#008C95"/>
<path d="M178.623 119.86H186.162L185.017 132.885H177.479L178.623 119.86ZM188.556 92.442L187.418 105.46H179.88L181.025 92.442H188.556ZM152.762 78.042L146.703 147.278H205.769C210.746 147.278 213.552 144.179 214.006 138.839C214.187 136.675 214.85 129.332 215.402 123.301C215.59 121.13 215.074 119.225 213.21 117.85L206.23 112.719L214.683 107.219C216.421 106.088 217.049 104.699 217.258 102.026C217.747 95.9949 218.389 89.1055 218.536 87.193C218.927 82.2022 216.121 78.042 210.097 78.042H152.762Z" fill="#008C95"/>
<path d="M327.578 111.463L329.079 94.2848H336.583L335.075 111.463H327.578ZM359.296 78.042H300.977L294.953 147.278H324.465L326.343 125.863H333.846L331.948 147.278H361.467C361.467 147.278 362.758 132.047 362.996 129.828C363.233 127.608 362.772 125.228 360.629 123.65L353.9 118.687C353.9 118.687 359.889 114.82 361.788 113.529C363.687 112.238 364.671 110.877 364.999 106.94C365.327 103.003 366.59 88.9589 366.786 86.3344C366.85 85.2972 366.706 84.2577 366.362 83.277C366.019 82.2962 365.483 81.394 364.786 80.6234C364.089 79.8528 363.244 79.2293 362.303 78.7896C361.361 78.3499 360.341 78.1028 359.303 78.0629" fill="#008C95"/>
<path d="M1 78.2861H369.643" stroke="#E6007E" stroke-width="0.88"/>
<path d="M1 113.006H369.643" stroke="#E6007E" stroke-width="0.88" stroke-dasharray="2.63 1.75"/>
<path d="M1 147.725H369.643" stroke="#E6007E" stroke-width="0.88"/>
<g opacity="0.3">
<g opacity="0.3">
<path opacity="0.3" d="M36.045 78.1465H1.20703V112.628H36.045V78.1465Z" fill="#E6007E"/>
</g>
</g>
<g opacity="0.3">
<g opacity="0.3">
<path opacity="0.3" d="M36.045 112.628H1.20703V148.031H36.045V112.628Z" fill="#E6007E"/>
</g>
</g>
<path d="M17.5194 92.2772L19.9188 96.1026L22.3182 92.2772H23.8607L20.7072 97.22L23.9361 102.259H22.3799L19.9188 98.358L17.4577 102.259H15.9015L19.1304 97.22L15.9769 92.2772H17.5194Z" fill="#E6007E"/>
<path d="M17.5194 127.681L19.9188 131.506L22.3182 127.681H23.8607L20.7072 132.623L23.9361 137.662H22.3799L19.9188 133.761L17.4577 137.662H15.9015L19.1304 132.623L15.9769 127.681H17.5194Z" fill="#E6007E"/>
<path d="M422.551 78.2861H829.074" stroke="#E6007E" stroke-width="0.88"/>
<path d="M422.551 113.006H829.074" stroke="#E6007E" stroke-width="0.88" stroke-dasharray="2.63 1.76"/>
<path d="M422.551 147.725H829.074" stroke="#E6007E" stroke-width="0.88"/>
<g opacity="0.3">
<g opacity="0.3">
<path opacity="0.3" d="M459.835 78.1465H422.777V112.628H459.835V78.1465Z" fill="#E6007E"/>
</g>
</g>
<g opacity="0.3">
<g opacity="0.3">
<path opacity="0.3" d="M459.835 112.628H422.777V148.031H459.835V112.628Z" fill="#E6007E"/>
</g>
</g>
<path d="M440.195 92.2772L442.595 96.1026L444.994 92.2772H446.537L443.383 97.22L446.612 102.259H445.056L442.595 98.358L440.133 102.259H438.577L441.806 97.22L438.653 92.2772H440.195Z" fill="#E6007E"/>
<path d="M440.195 127.681L442.595 131.506L444.994 127.681H446.537L443.383 132.623L446.612 137.662H445.056L442.595 133.761L440.133 137.662H438.577L441.806 132.623L438.653 127.681H440.195Z" fill="#E6007E"/>
</svg>
