<svg width="300" height="26" viewBox="0 0 300 26" fill="none" xmlns="http://www.w3.org/2000/svg">
<path d="M190.405 11.0651C190.405 11.0651 191.025 4.02542 191.086 3.34659C191.181 2.24286 190.289 0.229004 188.142 0.229004H170.402C168.255 0.229004 167.211 1.68723 167.075 3.08009C166.995 3.90474 165.529 20.8956 165.436 21.8761C165.283 23.45 166.371 25.2326 168.348 25.2326H185.985C188.325 25.2326 189.233 23.9956 189.434 22.0848C189.552 20.9408 190.13 14.0243 190.13 14.0243H179.47L179.01 19.3695H176.312L177.474 6.09459H180.172L179.752 11.0651H190.405Z" fill="#008C95"/>
<path d="M206.859 2.37584C206.48 3.46951 203.377 13.1868 203.377 13.1868L204.755 0.233763H194.1L191.867 25.2373H199.897C201.909 25.2373 202.605 24.0934 202.942 23.1782C203.342 22.082 206.301 13.9109 206.301 13.9109L205.212 25.2248H215.875L218.075 0.221191H209.705C207.857 0.221191 207.128 1.58891 206.859 2.36579" fill="#008C95"/>
<path d="M260.861 0.228516L259.855 11.6328H257.16L258.166 0.228516H247.503C247.503 0.228516 246.482 12.2966 246.374 13.4657C246.246 14.8585 247.033 16.8322 249.391 16.8322H259.413L259.191 19.369H245.866L245.363 25.2346H266.58C268.016 25.2346 269.404 24.2943 269.598 22.2905C269.721 21.0032 271.554 0.228516 271.554 0.228516H260.861Z" fill="#008C95"/>
<path d="M283.815 12.2966L284.358 6.09411H287.028L286.485 12.2966H283.815ZM288.687 0.228516H274.211L272.023 25.2346H282.684L283.36 17.4959H293.718C295.549 17.4959 296.766 16.5606 296.962 14.4161C297.04 13.5839 297.882 4.1079 297.94 3.26816C298.065 1.42024 296.595 0.228516 294.769 0.228516H288.687Z" fill="#008C95"/>
<path d="M232.438 20.0357H229.718L230.258 13.8307H232.981L232.438 20.0357ZM230.713 8.63134L230.937 6.09452H244.29L244.793 0.231445H220.777L218.59 25.235H239.867C241.217 25.235 242.683 24.433 242.884 22.3437C243.028 20.7748 243.684 13.3404 243.805 11.9903C243.963 10.1876 242.817 8.63134 240.574 8.63134H230.713Z" fill="#008C95"/>
<path d="M40.0938 25.0485H47.8877C50.4019 25.0485 50.8469 23.3967 50.9902 21.8881C51.121 20.5255 52.906 0.112793 52.906 0.112793H45.1523C42.9423 0.112793 42.168 1.36989 41.9844 3.45666L40.0938 25.0485Z" fill="#008C95"/>
<path d="M93.9766 19.201H91.2587L92.9307 0.110788H82.2982C82.2982 0.110788 80.483 21.2299 80.3749 22.2783C80.2667 23.3268 81.3076 25.044 83.1405 25.044H101.559C102.25 25.0428 102.916 24.7848 103.427 24.3202C103.938 23.8555 104.258 23.2173 104.325 22.5298C104.433 21.3028 106.281 0.0957031 106.281 0.0957031H95.6485L93.9766 19.201Z" fill="#008C95"/>
<path d="M18.3582 0.112793C16.46 0.112793 15.4216 1.09584 15.223 3.41643C15.125 4.57044 14.4688 12.0652 14.3757 13.1463C14.2827 14.2274 14.6925 15.1728 16.0401 15.1728H27.5802L27.1679 19.8642H24.4199L24.6085 17.702H13.976C13.976 17.702 13.6718 21.4356 13.536 22.7304C13.4002 24.0252 13.805 25.0585 15.477 25.0585H34.366C37.3554 25.0585 37.5087 22.8611 37.6822 21.1993C37.8431 19.6606 38.4566 12.3996 38.5371 11.487C38.6175 10.5743 37.9688 9.99605 37.0939 9.99605H25.2773L25.6871 5.3071H28.4351L28.2465 7.46678H38.879C38.879 7.46678 39.2184 3.28821 39.3391 2.11157C39.4598 0.934934 38.8513 0.120339 37.6118 0.120339H18.3582" fill="#008C95"/>
<path d="M64.9232 15.1728H67.6385L67.2261 19.8643H64.5108L64.9232 15.1728ZM68.5008 5.29711L68.091 9.98606H65.3757L65.788 5.29711H68.5008ZM55.6081 0.110352L53.4258 25.0485H74.7008C76.4934 25.0485 77.5041 23.9322 77.6676 22.0089C77.7329 21.2295 77.9718 18.5846 78.1704 16.4123C78.2383 15.6304 78.0522 14.944 77.3809 14.4487L74.8667 12.6008L77.9114 10.6196C78.5375 10.2123 78.7637 9.71202 78.8392 8.74909C79.0151 6.57683 79.2465 4.09533 79.2993 3.40645C79.4401 1.60881 78.4293 0.110352 76.2596 0.110352H55.6081Z" fill="#008C95"/>
<path d="M118.572 12.1483L119.112 5.96086H121.815L121.272 12.1483H118.572ZM129.996 0.110352H108.99L106.82 25.0485H117.45L118.127 17.335H120.829L120.145 25.0485H130.778C130.778 25.0485 131.243 19.5626 131.329 18.7631C131.414 17.9636 131.248 17.1062 130.476 16.538L128.053 14.7504C128.053 14.7504 130.21 13.3576 130.894 12.8925C131.577 12.4273 131.932 11.9371 132.05 10.5191C132.168 9.10107 132.623 4.04254 132.694 3.0972C132.717 2.72362 132.665 2.3492 132.541 1.99594C132.418 1.64268 132.224 1.31772 131.973 1.04015C131.722 0.762581 131.418 0.538007 131.079 0.379628C130.74 0.221249 130.373 0.132262 129.999 0.117894" fill="#008C95"/>
<path d="M0.964844 0.198242H133.746" stroke="#E6007E" stroke-width="0.316968"/>
<path d="M0.964844 12.7031H133.746" stroke="#E6007E" stroke-width="0.316968" stroke-dasharray="0.95 0.63"/>
<path d="M0.964844 25.209H133.746" stroke="#E6007E" stroke-width="0.316968"/>
<g opacity="0.3">
<g opacity="0.3">
<path opacity="0.3" d="M13.5952 0H1.04688V12.4201H13.5952V0Z" fill="#E6007E"/>
</g>
</g>
<g opacity="0.3">
<g opacity="0.3">
<path opacity="0.3" d="M13.5952 12.4194H1.04688V25.1714H13.5952V12.4194Z" fill="#E6007E"/>
</g>
</g>
<path d="M6.91737 4.40474L7.78162 5.78259L8.64587 4.40474H9.20145L8.06559 6.18508L9.22861 8H8.66809L7.78162 6.59498L6.89515 8H6.33462L7.49765 6.18508L6.36179 4.40474H6.91737Z" fill="#E6007E"/>
<path d="M6.91737 17.1567L7.78162 18.5345L8.64587 17.1567H9.20145L8.06559 18.937L9.22861 20.752H8.66809L7.78162 19.3469L6.89515 20.752H6.33462L7.49765 18.937L6.36179 17.1567H6.91737Z" fill="#E6007E"/>
<path d="M152.797 0.198242H299.223" stroke="#E6007E" stroke-width="0.316968"/>
<path d="M152.797 12.7031H299.223" stroke="#E6007E" stroke-width="0.316968" stroke-dasharray="0.95 0.63"/>
<path d="M152.797 25.209H299.223" stroke="#E6007E" stroke-width="0.316968"/>
<g opacity="0.3">
<g opacity="0.3">
<path opacity="0.3" d="M166.219 0.148926H152.871V12.569H166.219V0.148926Z" fill="#E6007E"/>
</g>
</g>
<g opacity="0.3">
<g opacity="0.3">
<path opacity="0.3" d="M166.219 12.5684H152.871V25.3203H166.219V12.5684Z" fill="#E6007E"/>
</g>
</g>
<path d="M159.16 5.55513L160.024 6.93298L160.888 5.55513H161.444L160.308 7.33547L161.471 9.15039H160.91L160.024 7.74537L159.137 9.15039H158.577L159.74 7.33547L158.604 5.55513H159.16Z" fill="#E6007E"/>
<path d="M159.16 18.3071L160.024 19.6849L160.888 18.3071H161.444L160.308 20.0874L161.471 21.9023H160.91L160.024 20.4973L159.137 21.9023H158.577L159.74 20.0874L158.604 18.3071H159.16Z" fill="#E6007E"/>
</svg>
