<svg viewBox="0 0 1701 1088" fill="none" xmlns="http://www.w3.org/2000/svg">
<path d="M1405.07 840.46H1158.25V1087.28H1405.07V840.46Z" fill="#77E2C3"/>
<path d="M1403.83 1086.54L1158 840.712H1404.33V1086.54" fill="#008C95"/>
<path d="M1377.03 868.55H1185.29V1060.19H1377.03V868.55Z" stroke="#E6007E" stroke-width="0.729072"/>
<path d="M1240.24 841.123H1158.41V922.951H1240.24V841.123Z" stroke="#999999" stroke-width="0.331396" stroke-miterlimit="10"/>
<path d="M1322.07 841.123H1240.24V922.951H1322.07V841.123Z" stroke="#999999" stroke-width="0.331396" stroke-miterlimit="10"/>
<path d="M1403.91 841.123H1322.08V922.951H1403.91V841.123Z" stroke="#999999" stroke-width="0.331396" stroke-miterlimit="10"/>
<path d="M1240.24 922.965H1158.41V1004.79H1240.24V922.965Z" stroke="#999999" stroke-width="0.331396" stroke-miterlimit="10"/>
<path d="M1322.07 922.965H1240.24V1004.79H1322.07V922.965Z" stroke="#999999" stroke-width="0.331396" stroke-miterlimit="10"/>
<path d="M1403.91 922.965H1322.08V1004.79H1403.91V922.965Z" stroke="#999999" stroke-width="0.331396" stroke-miterlimit="10"/>
<path d="M1240.24 1004.79H1158.41V1086.62H1240.24V1004.79Z" stroke="#999999" stroke-width="0.331396" stroke-miterlimit="10"/>
<path d="M1322.07 1004.79H1240.24V1086.62H1322.07V1004.79Z" stroke="#999999" stroke-width="0.331396" stroke-miterlimit="10"/>
<path d="M1403.91 1004.79H1322.08V1086.62H1403.91V1004.79Z" stroke="#999999" stroke-width="0.331396" stroke-miterlimit="10"/>
<path d="M1213.61 1044.91C1213.61 1044.91 1214.3 1037.15 1214.36 1036.39C1214.47 1035.18 1213.49 1032.95 1211.1 1032.95H1191.48C1189.11 1032.95 1187.96 1034.57 1187.81 1036.1C1187.72 1037.02 1186.1 1055.76 1186 1056.85C1185.82 1058.59 1187.03 1060.56 1189.22 1060.56H1208.72C1211.3 1060.56 1212.31 1059.19 1212.53 1057.09C1212.67 1055.83 1213.3 1048.19 1213.3 1048.19H1201.52L1201.02 1054.09H1198.03L1199.32 1039.44H1202.3L1201.82 1044.93H1213.61V1044.91Z" fill="#008C94"/>
<path d="M1231.81 1035.32C1231.39 1036.53 1227.95 1047.25 1227.95 1047.25L1229.48 1032.96H1217.69L1215.23 1060.56H1224.11C1226.34 1060.56 1227.1 1059.3 1227.47 1058.28C1227.91 1057.07 1231.19 1048.06 1231.19 1048.06L1229.98 1060.56H1241.78L1244.2 1032.96C1244.2 1032.96 1235.75 1032.96 1234.95 1032.96C1232.91 1032.96 1232.1 1034.47 1231.81 1035.32Z" fill="#008C94"/>
<path d="M1291.53 1032.95L1290.43 1045.53H1287.43L1288.53 1032.95H1276.75C1276.75 1032.95 1275.62 1046.27 1275.5 1047.56C1275.35 1049.09 1276.23 1051.27 1278.84 1051.27H1289.92L1289.67 1054.07H1274.93L1274.36 1060.53H1297.82C1299.41 1060.53 1300.95 1059.5 1301.15 1057.29C1301.28 1055.87 1303.31 1032.94 1303.31 1032.94H1291.53V1032.95Z" fill="#008C94"/>
<path d="M1316.9 1046.27L1317.49 1039.43H1320.45L1319.85 1046.27H1316.9ZM1322.29 1032.95H1306.28L1303.85 1060.55H1315.64L1316.38 1052.01H1327.83C1329.86 1052.01 1331.2 1050.98 1331.43 1048.62C1331.51 1047.7 1332.45 1037.24 1332.5 1036.32C1332.65 1034.27 1331.01 1032.96 1329 1032.96H1322.28L1322.29 1032.95Z" fill="#008C94"/>
<path d="M1260.1 1054.81H1257.09L1257.68 1047.97H1260.69L1260.1 1054.81ZM1258.19 1042.23L1258.44 1039.43H1273.21L1273.78 1032.96H1247.22L1244.81 1060.56H1249.24C1249.24 1060.56 1266.91 1060.56 1268.34 1060.56C1269.77 1060.56 1271.46 1059.67 1271.67 1057.37C1271.83 1055.63 1272.56 1047.42 1272.69 1045.94C1272.86 1043.95 1271.6 1042.23 1269.12 1042.23H1258.23H1258.19Z" fill="#008C94"/>
<path d="M276.904 840.46H30.0801V1087.28H276.904V840.46Z" fill="#77E2C3"/>
<path d="M112.571 841.123H30.7422V922.951H112.571V841.123Z" stroke="#999999" stroke-width="0.331396" stroke-miterlimit="10"/>
<path d="M276.904 912.996V940.966L176.889 840.46H204.753L276.904 912.996Z" fill="#008C95"/>
<path d="M276.905 861.061V889.031L228.574 840.475H256.438L276.905 861.061Z" fill="#008C95"/>
<path d="M76.4223 1088H48.5585L30.5703 1069.93V1041.94L76.4223 1088Z" fill="#008C95"/>
<path d="M276.903 966.656V994.626L123.467 840.46H151.331L276.903 966.656Z" fill="#008C95"/>
<path d="M276.903 1020.33V1048.35L70.0586 840.46H97.8959L276.903 1020.33Z" fill="#008C95"/>
<path d="M276.904 1074.04V1088H262.959L30.5703 854.473V840.475H44.489L276.904 1074.04Z" fill="#008C95"/>
<path d="M237.388 1088H209.564L30.5703 908.171V880.175L237.388 1088Z" fill="#008C95"/>
<path d="M183.994 1088H156.103L30.5703 961.83V933.86L183.994 1088Z" fill="#008C95"/>
<path d="M130.533 1088H102.695L30.5703 1015.53V987.534L130.533 1088Z" fill="#008C95"/>
<path d="M249.358 868.55H57.625V1060.19H249.358V868.55Z" stroke="#E6007E" stroke-width="0.729072"/>
<path d="M194.399 841.123H112.57V922.951H194.399V841.123Z" stroke="#999999" stroke-width="0.331396" stroke-miterlimit="10"/>
<path d="M276.239 841.123H194.41V922.951H276.239V841.123Z" stroke="#999999" stroke-width="0.331396" stroke-miterlimit="10"/>
<path d="M112.571 922.965H30.7422V1004.79H112.571V922.965Z" stroke="#999999" stroke-width="0.331396" stroke-miterlimit="10"/>
<path d="M194.399 922.965H112.57V1004.79H194.399V922.965Z" stroke="#999999" stroke-width="0.331396" stroke-miterlimit="10"/>
<path d="M276.239 922.965H194.41V1004.79H276.239V922.965Z" stroke="#999999" stroke-width="0.331396" stroke-miterlimit="10"/>
<path d="M112.571 1004.79H30.7422V1086.62H112.571V1004.79Z" stroke="#999999" stroke-width="0.331396" stroke-miterlimit="10"/>
<path d="M194.399 1004.79H112.57V1086.62H194.399V1004.79Z" stroke="#999999" stroke-width="0.331396" stroke-miterlimit="10"/>
<path d="M276.239 1004.79H194.41V1086.62H276.239V1004.79Z" stroke="#999999" stroke-width="0.331396" stroke-miterlimit="10"/>
<path d="M86.972 1044.91C86.972 1044.91 87.6613 1037.15 87.7276 1036.39C87.8336 1035.18 86.8526 1032.95 84.4666 1032.95H64.8479C62.4751 1032.95 61.3219 1034.57 61.176 1036.1C61.0833 1037.02 59.4661 1055.76 59.36 1056.85C59.1877 1058.59 60.394 1060.56 62.5812 1060.56H82.0806C84.6654 1060.56 85.6729 1059.19 85.8982 1057.09C86.0308 1055.83 86.667 1048.19 86.667 1048.19H74.8826L74.3789 1054.09H71.3963L72.6821 1039.44H75.6647L75.1875 1044.93H86.972V1044.91Z" fill="white"/>
<path d="M105.161 1035.32C104.737 1036.53 101.304 1047.25 101.304 1047.25L102.828 1032.96H91.0438L88.5781 1060.56H97.4596C99.6865 1060.56 100.455 1059.3 100.827 1058.28C101.264 1057.07 104.538 1048.06 104.538 1048.06L103.332 1060.56H115.13L117.555 1032.96C117.555 1032.96 109.098 1032.96 108.303 1032.96C106.261 1032.96 105.453 1034.47 105.161 1035.32Z" fill="white"/>
<path d="M164.88 1032.95L163.779 1045.53H160.784L161.884 1032.95H150.099C150.099 1032.95 148.973 1046.27 148.853 1047.56C148.708 1049.09 149.582 1051.27 152.194 1051.27H163.276L163.037 1054.07H148.297L147.727 1060.53H171.189C172.78 1060.53 174.318 1059.5 174.517 1057.29C174.649 1055.87 176.677 1032.94 176.677 1032.94H164.893L164.88 1032.95Z" fill="white"/>
<path d="M190.263 1046.27L190.859 1039.43H193.815L193.219 1046.27H190.263ZM195.658 1032.95H179.645L177.219 1060.55H189.003L189.759 1052.01H201.212C203.24 1052.01 204.579 1050.98 204.804 1048.62C204.897 1047.7 205.825 1037.24 205.878 1036.32C206.024 1034.27 204.393 1032.96 202.378 1032.96H195.658V1032.95Z" fill="white"/>
<path d="M133.448 1054.81H130.439L131.036 1047.97H134.045L133.448 1054.81ZM131.539 1042.23L131.791 1039.43H146.558L147.128 1032.96H120.577L118.164 1060.56H122.592C122.592 1060.56 140.262 1060.56 141.693 1060.56C143.125 1060.56 144.808 1059.67 145.02 1057.37C145.18 1055.63 145.909 1047.42 146.041 1045.94C146.213 1043.95 144.954 1042.23 142.475 1042.23H131.579H131.539Z" fill="white"/>
<path d="M32.7578 1082.92L274.717 840.964" stroke="#FF0000" stroke-width="3.97676" stroke-miterlimit="10"/>
<path d="M558.824 840.46H312V1087.28H558.824V840.46Z" fill="#008C95"/>
<path d="M434.91 1004.97L558.826 840.46H312.492L434.91 1004.97Z" fill="#77E2C3"/>
<path d="M531.28 868.55H339.547V1060.19H531.28V868.55Z" stroke="#E6007E" stroke-width="0.729072"/>
<path d="M394.492 841.123H312.664V922.951H394.492V841.123Z" stroke="#999999" stroke-width="0.331396" stroke-miterlimit="10"/>
<path d="M476.321 841.123H394.492V922.951H476.321V841.123Z" stroke="#999999" stroke-width="0.331396" stroke-miterlimit="10"/>
<path d="M558.162 841.123H476.334V922.951H558.162V841.123Z" stroke="#999999" stroke-width="0.331396" stroke-miterlimit="10"/>
<path d="M394.492 922.965H312.664V1004.79H394.492V922.965Z" stroke="#999999" stroke-width="0.331396" stroke-miterlimit="10"/>
<path d="M476.321 922.965H394.492V1004.79H476.321V922.965Z" stroke="#999999" stroke-width="0.331396" stroke-miterlimit="10"/>
<path d="M558.162 922.965H476.334V1004.79H558.162V922.965Z" stroke="#999999" stroke-width="0.331396" stroke-miterlimit="10"/>
<path d="M394.492 1004.79H312.664V1086.62H394.492V1004.79Z" stroke="#999999" stroke-width="0.331396" stroke-miterlimit="10"/>
<path d="M476.321 1004.79H394.492V1086.62H476.321V1004.79Z" stroke="#999999" stroke-width="0.331396" stroke-miterlimit="10"/>
<path d="M558.162 1004.79H476.334V1086.62H558.162V1004.79Z" stroke="#999999" stroke-width="0.331396" stroke-miterlimit="10"/>
<path d="M368.644 1044.91C368.644 1044.91 369.333 1037.15 369.399 1036.39C369.505 1035.18 368.525 1032.95 366.138 1032.95H346.52C344.147 1032.95 342.994 1034.57 342.848 1036.1C342.755 1037.02 341.138 1055.76 341.032 1056.85C340.86 1058.59 342.066 1060.56 344.253 1060.56H363.752C366.337 1060.56 367.345 1059.19 367.57 1057.09C367.703 1055.83 368.339 1048.19 368.339 1048.19H356.555L356.051 1054.09H353.068L354.354 1039.44H357.337L356.859 1044.93H368.644V1044.91Z" fill="white"/>
<path d="M386.845 1035.32C386.421 1036.53 382.987 1047.25 382.987 1047.25L384.512 1032.96H372.727L370.262 1060.56H379.143C381.37 1060.56 382.139 1059.3 382.51 1058.28C382.948 1057.07 386.222 1048.06 386.222 1048.06L385.015 1060.56H396.813L399.239 1032.96C399.239 1032.96 390.782 1032.96 389.986 1032.96C387.945 1032.96 387.136 1034.47 386.845 1035.32Z" fill="white"/>
<path d="M446.559 1032.95L445.459 1045.53H442.463L443.564 1032.95H431.779C431.779 1032.95 430.652 1046.27 430.533 1047.56C430.387 1049.09 431.262 1051.27 433.874 1051.27H444.955L444.717 1054.07H429.976L429.406 1060.53H452.869C454.46 1060.53 455.998 1059.5 456.196 1057.29C456.329 1055.87 458.357 1032.94 458.357 1032.94H446.573L446.559 1032.95Z" fill="white"/>
<path d="M471.932 1046.27L472.529 1039.43H475.485L474.888 1046.27H471.932ZM477.328 1032.95H461.314L458.889 1060.55H470.673L471.429 1052.01H482.882C484.91 1052.01 486.249 1050.98 486.474 1048.62C486.567 1047.7 487.495 1037.24 487.548 1036.32C487.694 1034.27 486.063 1032.96 484.048 1032.96H477.328V1032.95Z" fill="white"/>
<path d="M415.116 1054.81H412.107L412.703 1047.97H415.713L415.116 1054.81ZM413.207 1042.23L413.459 1039.43H428.226L428.796 1032.96H402.245L399.832 1060.56H404.26C404.26 1060.56 421.93 1060.56 423.361 1060.56C424.793 1060.56 426.476 1059.67 426.688 1057.37C426.847 1055.63 427.577 1047.42 427.709 1045.94C427.881 1043.95 426.622 1042.23 424.143 1042.23H413.247H413.207Z" fill="white"/>
<path d="M314.438 1082.92L556.383 840.964" stroke="#FF0000" stroke-width="3.97676" stroke-miterlimit="10"/>
<path d="M840.824 840.46H594V1087.28H840.824V840.46Z" fill="#008C95"/>
<path d="M718.408 840.712L594.492 1087.3H840.826L718.408 840.712Z" fill="#77E2C3"/>
<path d="M813.279 868.55H621.547V1060.19H813.279V868.55Z" stroke="#E6007E" stroke-width="0.729072"/>
<path d="M676.492 841.123H594.664V922.951H676.492V841.123Z" stroke="#999999" stroke-width="0.331396" stroke-miterlimit="10"/>
<path d="M758.321 841.123H676.492V922.951H758.321V841.123Z" stroke="#999999" stroke-width="0.331396" stroke-miterlimit="10"/>
<path d="M840.162 841.123H758.334V922.951H840.162V841.123Z" stroke="#999999" stroke-width="0.331396" stroke-miterlimit="10"/>
<path d="M676.492 922.965H594.664V1004.79H676.492V922.965Z" stroke="#999999" stroke-width="0.331396" stroke-miterlimit="10"/>
<path d="M758.321 922.965H676.492V1004.79H758.321V922.965Z" stroke="#999999" stroke-width="0.331396" stroke-miterlimit="10"/>
<path d="M840.162 922.965H758.334V1004.79H840.162V922.965Z" stroke="#999999" stroke-width="0.331396" stroke-miterlimit="10"/>
<path d="M676.492 1004.79H594.664V1086.62H676.492V1004.79Z" stroke="#999999" stroke-width="0.331396" stroke-miterlimit="10"/>
<path d="M758.321 1004.79H676.492V1086.62H758.321V1004.79Z" stroke="#999999" stroke-width="0.331396" stroke-miterlimit="10"/>
<path d="M840.162 1004.79H758.334V1086.62H840.162V1004.79Z" stroke="#999999" stroke-width="0.331396" stroke-miterlimit="10"/>
<path d="M649.609 1044.91C649.609 1044.91 650.298 1037.15 650.364 1036.39C650.47 1035.18 649.489 1032.95 647.103 1032.95H627.485C625.112 1032.95 623.959 1034.57 623.813 1036.1C623.72 1037.02 622.103 1055.76 621.997 1056.85C621.824 1058.59 623.031 1060.56 625.218 1060.56H644.717C647.302 1060.56 648.31 1059.19 648.535 1057.09C648.668 1055.83 649.304 1048.19 649.304 1048.19H637.519L637.016 1054.09H634.033L635.319 1039.44H638.301L637.824 1044.93H649.609V1044.91Z" fill="white"/>
<path d="M667.81 1035.32C667.385 1036.53 663.952 1047.25 663.952 1047.25L665.477 1032.96H653.692L651.227 1060.56H660.108C662.335 1060.56 663.104 1059.3 663.475 1058.28C663.913 1057.07 667.187 1048.06 667.187 1048.06L665.98 1060.56H677.778L680.204 1032.96C680.204 1032.96 671.747 1032.96 670.951 1032.96C668.91 1032.96 668.101 1034.47 667.81 1035.32Z" fill="white"/>
<path d="M727.528 1032.95L726.427 1045.53H723.432L724.532 1032.95H712.747C712.747 1032.95 711.621 1046.27 711.501 1047.56C711.355 1049.09 712.23 1051.27 714.842 1051.27H725.924L725.672 1054.07H710.931L710.361 1060.53H733.824C735.415 1060.53 736.953 1059.5 737.151 1057.29C737.284 1055.87 739.312 1032.94 739.312 1032.94H727.528V1032.95Z" fill="white"/>
<path d="M752.899 1046.27L753.496 1039.43H756.452L755.855 1046.27H752.899ZM758.294 1032.95H742.281L739.855 1060.55H751.64L752.382 1052.01H763.835C765.863 1052.01 767.202 1050.98 767.428 1048.62C767.507 1047.7 768.448 1037.24 768.501 1036.32C768.647 1034.27 767.017 1032.96 765.002 1032.96H758.281L758.294 1032.95Z" fill="white"/>
<path d="M696.097 1054.81H693.087L693.684 1047.97H696.693L696.097 1054.81ZM694.188 1042.23L694.44 1039.43H709.207L709.777 1032.96H683.225L680.812 1060.56H685.24C685.24 1060.56 702.91 1060.56 704.342 1060.56C705.773 1060.56 707.457 1059.67 707.669 1057.37C707.828 1055.63 708.557 1047.42 708.69 1045.94C708.862 1043.95 707.603 1042.23 705.124 1042.23H694.227H694.188Z" fill="white"/>
<path d="M595.406 1082.92L837.365 840.964" stroke="#FF0000" stroke-width="3.97676" stroke-miterlimit="10"/>
<path d="M1122.82 840.46H876V1087.28H1122.82V840.46Z" fill="#77E2C3"/>
<path d="M959.049 964.256L877.035 840.46V1086.54L959.049 964.256Z" fill="white"/>
<path d="M1041.08 964.256L959.049 840.46V1086.54L1041.08 964.256Z" fill="white"/>
<path d="M1121.83 964.256L1039.8 840.46V1086.54L1121.83 964.256Z" fill="white"/>
<path d="M1094.79 868.55H903.055V1060.19H1094.79V868.55Z" stroke="#E6007E" stroke-width="0.729072"/>
<path d="M958.002 841.123H876.174V922.951H958.002V841.123Z" stroke="#999999" stroke-width="0.331396" stroke-miterlimit="10"/>
<path d="M1039.83 841.123H958.004V922.951H1039.83V841.123Z" stroke="#999999" stroke-width="0.331396" stroke-miterlimit="10"/>
<path d="M1121.66 841.123H1039.83V922.951H1121.66V841.123Z" stroke="#999999" stroke-width="0.331396" stroke-miterlimit="10"/>
<path d="M958.002 922.965H876.174V1004.79H958.002V922.965Z" stroke="#999999" stroke-width="0.331396" stroke-miterlimit="10"/>
<path d="M1039.83 922.965H958.004V1004.79H1039.83V922.965Z" stroke="#999999" stroke-width="0.331396" stroke-miterlimit="10"/>
<path d="M958.002 1004.79H876.174V1086.62H958.002V1004.79Z" stroke="#999999" stroke-width="0.331396" stroke-miterlimit="10"/>
<path d="M1039.83 1004.79H958.004V1086.62H1039.83V1004.79Z" stroke="#999999" stroke-width="0.331396" stroke-miterlimit="10"/>
<path d="M1121.66 1004.79H1039.83V1086.62H1121.66V1004.79Z" stroke="#999999" stroke-width="0.331396" stroke-miterlimit="10"/>
<path d="M1121.66 922.965H1039.83V1004.79H1121.66V922.965Z" stroke="#999999" stroke-width="0.331396" stroke-miterlimit="10"/>
<path d="M932.681 1044.91C932.681 1044.91 933.371 1037.15 933.437 1036.39C933.543 1035.18 932.562 1032.95 930.189 1032.95H910.57C908.198 1032.95 907.045 1034.57 906.899 1036.1C906.806 1037.02 905.189 1055.76 905.083 1056.85C904.91 1058.59 906.117 1060.56 908.304 1060.56H927.803C930.388 1060.56 931.395 1059.19 931.621 1057.09C931.753 1055.83 932.39 1048.19 932.39 1048.19H920.605L920.101 1054.09H917.119L918.405 1039.44H921.387L920.91 1044.93H932.695L932.681 1044.91Z" fill="#008C94"/>
<path d="M950.884 1035.32C950.46 1036.53 947.026 1047.25 947.026 1047.25L948.551 1032.96H936.766L934.301 1060.56H943.182C945.409 1060.56 946.178 1059.3 946.549 1058.28C946.987 1057.07 950.261 1048.06 950.261 1048.06L949.055 1060.56H960.852L963.278 1032.96C963.278 1032.96 954.821 1032.96 954.025 1032.96C951.984 1032.96 951.175 1034.47 950.884 1035.32Z" fill="#008C94"/>
<path d="M1010.6 1032.95L1009.5 1045.53H1006.5L1007.6 1032.95H995.82C995.82 1032.95 994.693 1046.27 994.574 1047.56C994.428 1049.09 995.303 1051.27 997.914 1051.27H1009L1008.74 1054.07H994.004L993.434 1060.53H1016.9C1018.49 1060.53 1020.02 1059.5 1020.22 1057.29C1020.36 1055.87 1022.38 1032.94 1022.38 1032.94H1010.6V1032.95Z" fill="#008C94"/>
<path d="M1035.97 1046.27L1036.57 1039.43H1039.52L1038.93 1046.27H1035.97ZM1041.35 1032.95H1025.34L1022.91 1060.55H1034.7L1035.44 1052.01H1046.89C1048.92 1052.01 1050.26 1050.98 1050.49 1048.62C1050.57 1047.7 1051.51 1037.24 1051.56 1036.32C1051.71 1034.27 1050.08 1032.96 1048.06 1032.96H1041.34L1041.35 1032.95Z" fill="#008C94"/>
<path d="M979.159 1054.81H976.15L976.746 1047.97H979.755L979.159 1054.81ZM977.25 1042.23L977.502 1039.43H992.269L992.839 1032.96H966.287L963.875 1060.56H968.302C968.302 1060.56 985.973 1060.56 987.404 1060.56C988.836 1060.56 990.519 1059.67 990.731 1057.37C990.89 1055.63 991.62 1047.42 991.752 1045.94C991.924 1043.95 990.665 1042.23 988.186 1042.23H977.29H977.25Z" fill="#008C94"/>
<path d="M878.48 1082.92L1120.43 840.964" stroke="#FF0000" stroke-width="3.97676" stroke-miterlimit="10"/>
<path d="M1686.82 840.46H1440V1087.28H1686.82V840.46Z" fill="white"/>
<path d="M1659.28 868.55H1467.54V1060.19H1659.28V868.55Z" stroke="#E6007E" stroke-width="0.729072"/>
<path d="M1522.49 841.123H1440.66V922.951H1522.49V841.123Z" stroke="#999999" stroke-width="0.331396" stroke-miterlimit="10"/>
<path d="M1604.32 841.123H1522.49V922.951H1604.32V841.123Z" stroke="#999999" stroke-width="0.331396" stroke-miterlimit="10"/>
<path d="M1686.15 841.123H1604.32V922.951H1686.15V841.123Z" stroke="#999999" stroke-width="0.331396" stroke-miterlimit="10"/>
<path d="M1522.49 922.965H1440.66V1004.79H1522.49V922.965Z" stroke="#999999" stroke-width="0.331396" stroke-miterlimit="10"/>
<path d="M1604.32 922.965H1522.49V1004.79H1604.32V922.965Z" stroke="#999999" stroke-width="0.331396" stroke-miterlimit="10"/>
<path d="M1686.15 922.965H1604.32V1004.79H1686.15V922.965Z" stroke="#999999" stroke-width="0.331396" stroke-miterlimit="10"/>
<path d="M1522.49 1004.79H1440.66V1086.62H1522.49V1004.79Z" stroke="#999999" stroke-width="0.331396" stroke-miterlimit="10"/>
<path d="M1604.32 1004.79H1522.49V1086.62H1604.32V1004.79Z" stroke="#999999" stroke-width="0.331396" stroke-miterlimit="10"/>
<path d="M1686.15 1004.79H1604.32V1086.62H1686.15V1004.79Z" stroke="#999999" stroke-width="0.331396" stroke-miterlimit="10"/>
<path d="M1562.77 876.198C1514.02 876.198 1474.5 915.727 1474.5 964.469C1474.5 1013.21 1514.02 1052.74 1562.77 1052.74C1611.53 1052.74 1651.05 1013.22 1651.05 964.469C1651.05 915.714 1611.53 876.198 1562.77 876.198ZM1562.77 920.141C1587.22 920.141 1607.1 940.025 1607.1 964.469C1607.1 988.913 1587.22 1008.8 1562.77 1008.8C1538.33 1008.8 1518.45 988.913 1518.45 964.469C1518.45 940.025 1538.33 920.141 1562.77 920.141Z" fill="#77E2C3"/>
<path d="M1495.61 1044.91C1495.61 1044.91 1496.3 1037.15 1496.36 1036.39C1496.47 1035.18 1495.49 1032.95 1493.12 1032.95H1473.5C1471.12 1032.95 1469.97 1034.57 1469.82 1036.1C1469.73 1037.02 1468.11 1055.76 1468.01 1056.85C1467.84 1058.59 1469.04 1060.56 1471.23 1060.56H1490.73C1493.31 1060.56 1494.32 1059.19 1494.55 1057.09C1494.68 1055.83 1495.32 1048.19 1495.32 1048.19H1483.53L1483.03 1054.09H1480.04L1481.33 1039.44H1484.31L1483.84 1044.93H1495.62L1495.61 1044.91Z" fill="#008C94"/>
<path d="M1513.81 1035.32C1513.39 1036.53 1509.95 1047.25 1509.95 1047.25L1511.48 1032.96H1499.69L1497.23 1060.56H1506.11C1508.33 1060.56 1509.1 1059.3 1509.47 1058.28C1509.91 1057.07 1513.19 1048.06 1513.19 1048.06L1511.98 1060.56H1523.78L1526.2 1032.96C1526.2 1032.96 1517.75 1032.96 1516.95 1032.96C1514.91 1032.96 1514.1 1034.47 1513.81 1035.32Z" fill="#008C94"/>
<path d="M1573.53 1032.95L1572.43 1045.53H1569.43L1570.53 1032.95H1558.75C1558.75 1032.95 1557.62 1046.27 1557.5 1047.56C1557.35 1049.09 1558.23 1051.27 1560.84 1051.27H1571.92L1571.67 1054.07H1556.93L1556.36 1060.53H1579.82C1581.41 1060.53 1582.95 1059.5 1583.15 1057.29C1583.28 1055.87 1585.31 1032.94 1585.31 1032.94H1573.53V1032.95Z" fill="#008C94"/>
<path d="M1598.9 1046.27L1599.49 1039.43H1602.45L1601.85 1046.27H1598.9ZM1604.28 1032.95H1588.27L1585.84 1060.55H1597.62L1598.37 1052.01H1609.82C1611.85 1052.01 1613.19 1050.98 1613.41 1048.62C1613.49 1047.7 1614.43 1037.24 1614.49 1036.32C1614.63 1034.27 1613 1032.96 1610.99 1032.96H1604.27L1604.28 1032.95Z" fill="#008C94"/>
<path d="M1542.08 1054.81H1539.08L1539.67 1047.97H1542.68L1542.08 1054.81ZM1540.18 1042.23L1540.43 1039.43H1555.19L1555.76 1032.96H1529.21L1526.8 1060.56H1531.23C1531.23 1060.56 1548.9 1060.56 1550.33 1060.56C1551.76 1060.56 1553.45 1059.67 1553.66 1057.37C1553.82 1055.63 1554.55 1047.42 1554.68 1045.94C1554.85 1043.95 1553.59 1042.23 1551.11 1042.23H1540.22H1540.18Z" fill="#008C94"/>
<path d="M1441.41 1082.92L1683.35 840.964" stroke="#FF0000" stroke-width="3.97676" stroke-miterlimit="10"/>
<g filter="url(#filter0_d_483_342)">
<path d="M1115.33 38.043H600.504V766.518H1115.33V38.043Z" fill="white"/>
</g>
<path d="M857.536 281.66H600.982V525.303H857.536V281.66Z" fill="#008C95"/>
<path d="M857.536 39.3428H600.982V282.985H857.536V39.3428Z" fill="#00313C"/>
<g filter="url(#filter1_d_483_342)">
<path d="M1674.04 38.043H1159.21V766.518H1674.04V38.043Z" fill="white"/>
</g>
<g filter="url(#filter2_d_483_342)">
<path d="M546.237 37.4609H31.4062V765.936H546.237V37.4609Z" fill="white"/>
</g>
<path d="M1245.15 37.6055V766.956" stroke="#999999" stroke-width="0.437443"/>
<path d="M1331.1 37.6055V766.956" stroke="#999999" stroke-width="0.437443"/>
<path d="M1416.19 37.6055V766.956" stroke="#999999" stroke-width="0.437443"/>
<path d="M1502.14 37.6055V766.956" stroke="#999999" stroke-width="0.437443"/>
<path d="M1588.08 37.6055V766.956" stroke="#999999" stroke-width="0.437443"/>
<path d="M1674.47 118.215H1158.77" stroke="#999999" stroke-width="0.437443"/>
<path d="M1674.47 199.261H1158.77" stroke="#999999" stroke-width="0.437443"/>
<path d="M1674.47 281.156H1158.77" stroke="#999999" stroke-width="0.437443"/>
<path d="M1674.47 361.328H1158.77" stroke="#999999" stroke-width="0.437443"/>
<path d="M1674.47 442.374H1158.77" stroke="#999999" stroke-width="0.437443"/>
<path d="M1674.47 523.407H1158.77" stroke="#999999" stroke-width="0.437443"/>
<path d="M1674.47 605.314H1158.77" stroke="#999999" stroke-width="0.437443"/>
<path d="M1674.47 686.348H1158.77" stroke="#999999" stroke-width="0.437443"/>
<path d="M686.453 37.6055V766.956" stroke="#999999" stroke-width="0.437443"/>
<path d="M772.406 37.6055V766.956" stroke="#999999" stroke-width="0.437443"/>
<path d="M857.482 37.6055V766.956" stroke="#999999" stroke-width="0.437443"/>
<path d="M943.434 37.6055V766.956" stroke="#999999" stroke-width="0.437443"/>
<path d="M1029.38 37.6055V766.956" stroke="#999999" stroke-width="0.437443"/>
<path d="M1115.76 118.215H600.066" stroke="#999999" stroke-width="0.437443"/>
<path d="M1115.76 199.261H600.066" stroke="#999999" stroke-width="0.437443"/>
<path d="M1115.76 281.156H600.066" stroke="#999999" stroke-width="0.437443"/>
<path d="M1115.76 361.328H600.066" stroke="#999999" stroke-width="0.437443"/>
<path d="M1115.76 442.374H600.066" stroke="#999999" stroke-width="0.437443"/>
<path d="M1115.76 523.407H600.066" stroke="#999999" stroke-width="0.437443"/>
<path d="M1115.76 605.314H600.066" stroke="#999999" stroke-width="0.437443"/>
<path d="M1115.76 686.348H600.066" stroke="#999999" stroke-width="0.437443"/>
<path d="M1416.24 523.314H1159.69V766.956H1416.24V523.314Z" fill="#77E2C3"/>
<path d="M1416.24 35.8955H1159.69V279.538H1416.24V35.8955Z" fill="#77E2C3"/>
<path d="M857.536 523.313H600.982V766.956H857.536V523.313Z" fill="#77E2C3"/>
<path d="M1674.47 523.313H1416.24V766.956H1674.47V523.313Z" fill="#008C95"/>
<path d="M1648.26 63.8262H1185V740.736H1648.26V63.8262Z" stroke="#E6007E" stroke-width="0.729072"/>
<path d="M1089.55 63.8262H626.287V740.736H1089.55V63.8262Z" stroke="#E6007E" stroke-width="0.729072"/>
<path d="M1159.08 550.091H1674.47" stroke="#E6007E" stroke-width="0.729072"/>
<path d="M1388.78 523.579V766.956" stroke="#E6007E" stroke-width="0.729072"/>
<path d="M1445.19 523.579V766.956" stroke="#E6007E" stroke-width="0.729072"/>
<path d="M1388.41 550.462H1184.27V740.617H1388.41V550.462Z" stroke="#E6007E" stroke-width="0.729072"/>
<path d="M1161.32 765.365L1672.41 38.7588" stroke="#FF0000" stroke-width="3.97676" stroke-miterlimit="10"/>
<path d="M1269.49 723.318C1269.49 723.318 1270.18 715.563 1270.24 714.808C1270.35 713.588 1269.37 711.361 1266.98 711.361H1247.36C1244.99 711.361 1243.84 712.979 1243.69 714.516C1243.6 715.431 1241.98 734.175 1241.88 735.262C1241.7 736.998 1242.91 738.973 1245.1 738.973H1264.6C1267.18 738.973 1268.19 737.608 1268.41 735.5C1268.55 734.241 1269.18 726.606 1269.18 726.606H1257.4L1256.89 732.504H1253.91L1255.2 717.857H1258.18L1257.7 723.345H1269.49V723.318Z" fill="white"/>
<path d="M1287.69 713.734C1287.26 714.941 1283.83 725.665 1283.83 725.665L1285.36 711.375H1273.57L1271.11 738.974H1279.99C1282.21 738.974 1282.98 737.714 1283.35 736.694C1283.79 735.487 1287.07 726.473 1287.07 726.473L1285.86 738.974H1297.66L1300.08 711.375C1300.08 711.375 1291.63 711.375 1290.83 711.375C1288.79 711.375 1287.98 712.886 1287.69 713.734Z" fill="white"/>
<path d="M1347.4 711.361L1346.3 723.941H1343.31L1344.41 711.361H1332.62C1332.62 711.361 1331.5 724.683 1331.38 725.969C1331.23 727.507 1332.11 729.681 1334.72 729.681H1345.8L1345.55 732.477H1330.81L1330.24 738.946H1353.7C1355.29 738.946 1356.83 737.912 1357.03 735.699C1357.16 734.28 1359.19 711.348 1359.19 711.348H1347.4V711.361Z" fill="white"/>
<path d="M1372.78 724.683L1373.37 717.843H1376.33L1375.73 724.683H1372.78ZM1378.17 711.361H1362.16L1359.73 738.96H1371.52L1372.26 730.423H1383.71C1385.74 730.423 1387.08 729.389 1387.3 727.03C1387.38 726.115 1388.33 715.656 1388.38 714.728C1388.52 712.687 1386.89 711.375 1384.88 711.375H1378.16L1378.17 711.361Z" fill="white"/>
<path d="M1315.98 733.221H1312.97L1313.56 726.381H1316.57L1315.98 733.221ZM1314.07 720.641L1314.32 717.844H1329.09L1329.66 711.375H1303.1L1300.69 738.974H1305.12C1305.12 738.974 1322.79 738.974 1324.22 738.974C1325.65 738.974 1327.34 738.086 1327.55 735.779C1327.71 734.042 1328.44 725.837 1328.57 724.352C1328.74 722.364 1327.48 720.641 1325 720.641H1314.11H1314.07Z" fill="white"/>
<path d="M654.814 566.369C654.814 566.369 655.503 558.614 655.569 557.859C655.675 556.639 654.694 554.412 652.308 554.412H632.69C630.317 554.412 629.164 556.029 629.018 557.567C628.925 558.482 627.308 577.225 627.202 578.312C627.029 580.049 628.236 582.024 630.423 582.024H649.922C652.507 582.024 653.515 580.659 653.74 578.551C653.873 577.292 654.509 569.656 654.509 569.656H642.724L642.221 575.555H639.238L640.524 560.908H643.506L643.029 566.395H654.814V566.369Z" fill="white"/>
<path d="M673.015 556.784C672.591 557.991 669.157 568.715 669.157 568.715L670.682 554.425H658.897L656.432 582.023H665.313C667.54 582.023 668.309 580.764 668.68 579.744C669.117 578.537 672.392 569.523 672.392 569.523L671.185 582.023H682.983L685.409 554.425C685.409 554.425 676.952 554.425 676.156 554.425C674.115 554.425 673.306 555.936 673.015 556.784Z" fill="white"/>
<path d="M732.731 554.412L731.631 566.991H728.635L729.735 554.412H717.951C717.951 554.412 716.824 567.734 716.704 569.02C716.559 570.557 717.434 572.731 720.045 572.731H731.127L730.875 575.528H716.135L715.564 581.997H739.027C740.618 581.997 742.156 580.963 742.354 578.75C742.487 577.331 744.515 554.398 744.515 554.398H732.731V554.412Z" fill="white"/>
<path d="M758.102 567.734L758.699 560.894H761.655L761.058 567.734H758.102ZM763.498 554.412H747.484L745.059 582.011H756.843L757.585 573.474H769.038C771.067 573.474 772.405 572.44 772.631 570.081C772.71 569.166 773.651 558.707 773.704 557.779C773.85 555.738 772.22 554.425 770.205 554.425H763.484L763.498 554.412Z" fill="white"/>
<path d="M701.3 576.27H698.291L698.887 569.43H701.896L701.3 576.27ZM699.391 563.691L699.643 560.894H714.41L714.98 554.425H688.428L686.016 582.023H690.443C690.443 582.023 708.113 582.023 709.545 582.023C710.976 582.023 712.66 581.135 712.872 578.829C713.031 577.092 713.76 568.887 713.893 567.402C714.065 565.414 712.806 563.691 710.327 563.691H699.431H699.391Z" fill="white"/>
<path d="M654.814 319.823C654.814 319.823 655.503 312.068 655.569 311.313C655.675 310.093 654.694 307.866 652.308 307.866H632.69C630.317 307.866 629.164 309.483 629.018 311.021C628.925 311.936 627.308 330.68 627.202 331.767C627.029 333.503 628.236 335.478 630.423 335.478H649.922C652.507 335.478 653.515 334.113 653.74 332.005C653.873 330.746 654.509 323.11 654.509 323.11H642.724L642.221 329.009H639.238L640.524 314.362H643.506L643.029 319.85H654.814V319.823Z" fill="white"/>
<path d="M673.015 310.226C672.591 311.432 669.157 322.156 669.157 322.156L670.682 307.866H658.897L656.432 335.465H665.313C667.54 335.465 668.309 334.206 668.68 333.185C669.117 331.979 672.392 322.965 672.392 322.965L671.185 335.465H682.983L685.409 307.866C685.409 307.866 676.952 307.866 676.156 307.866C674.115 307.866 673.306 309.377 673.015 310.226Z" fill="white"/>
<path d="M732.731 307.866L731.631 320.446H728.635L729.735 307.866H717.951C717.951 307.866 716.824 321.188 716.704 322.474C716.559 324.011 717.434 326.185 720.045 326.185H731.127L730.875 328.982H716.135L715.564 335.451H739.027C740.618 335.451 742.156 334.417 742.354 332.204C742.487 330.785 744.515 307.853 744.515 307.853H732.731V307.866Z" fill="white"/>
<path d="M758.102 321.188L758.699 314.348H761.655L761.058 321.188H758.102ZM763.498 307.866H747.484L745.059 335.465H756.843L757.585 326.928H769.038C771.067 326.928 772.405 325.894 772.631 323.535C772.71 322.62 773.651 312.161 773.704 311.233C773.85 309.192 772.22 307.879 770.205 307.879H763.484L763.498 307.866Z" fill="white"/>
<path d="M701.3 329.712H698.291L698.887 322.872H701.896L701.3 329.712ZM699.391 317.132L699.643 314.335H714.41L714.98 307.866H688.428L686.016 335.465H690.443C690.443 335.465 708.113 335.465 709.545 335.465C710.976 335.465 712.66 334.577 712.872 332.27C713.031 330.534 713.76 322.328 713.893 320.844C714.065 318.855 712.806 317.132 710.327 317.132H699.431H699.391Z" fill="white"/>
<path d="M1473.19 723.318C1473.19 723.318 1473.88 715.563 1473.94 714.808C1474.05 713.588 1473.07 711.361 1470.68 711.361H1451.06C1448.69 711.361 1447.54 712.979 1447.39 714.516C1447.3 715.431 1445.68 734.175 1445.58 735.262C1445.4 736.998 1446.61 738.973 1448.8 738.973H1468.3C1470.88 738.973 1471.89 737.608 1472.12 735.5C1472.25 734.241 1472.88 726.606 1472.88 726.606H1461.1L1460.6 732.504H1457.61L1458.9 717.857H1461.88L1461.4 723.345H1473.19V723.318Z" fill="white"/>
<path d="M1491.39 713.734C1490.97 714.941 1487.53 725.665 1487.53 725.665L1489.06 711.375H1477.27L1474.81 738.974H1483.69C1485.91 738.974 1486.68 737.714 1487.06 736.694C1487.49 735.487 1490.77 726.473 1490.77 726.473L1489.56 738.974H1501.36L1503.78 711.375C1503.78 711.375 1495.33 711.375 1494.53 711.375C1492.49 711.375 1491.68 712.886 1491.39 713.734Z" fill="white"/>
<path d="M1551.11 711.361L1550.01 723.941H1547.01L1548.11 711.361H1536.33C1536.33 711.361 1535.2 724.683 1535.08 725.969C1534.94 727.507 1535.81 729.681 1538.42 729.681H1549.5L1549.25 732.477H1534.51L1533.94 738.946H1557.4C1558.99 738.946 1560.53 737.912 1560.73 735.699C1560.86 734.28 1562.89 711.348 1562.89 711.348H1551.11V711.361Z" fill="white"/>
<path d="M1576.48 724.683L1577.07 717.843H1580.03L1579.43 724.683H1576.48ZM1581.87 711.361H1565.86L1563.43 738.96H1575.22L1575.96 730.423H1587.41C1589.44 730.423 1590.78 729.389 1591.01 727.03C1591.09 726.115 1592.03 715.656 1592.08 714.728C1592.23 712.687 1590.59 711.375 1588.58 711.375H1581.86L1581.87 711.361Z" fill="white"/>
<path d="M1519.66 733.221H1516.66L1517.25 726.381H1520.26L1519.66 733.221ZM1517.76 720.641L1518.01 717.844H1532.77L1533.35 711.375H1506.79L1504.38 738.974H1508.81C1508.81 738.974 1526.48 738.974 1527.91 738.974C1529.34 738.974 1531.03 738.086 1531.24 735.779C1531.4 734.042 1532.13 725.837 1532.26 724.352C1532.43 722.364 1531.17 720.641 1528.69 720.641H1517.8H1517.76Z" fill="white"/>
<path d="M1234.33 85.3132C1234.33 85.3132 1235.54 71.7392 1235.64 70.4137C1235.83 68.2795 1234.11 64.3955 1229.94 64.3955H1195.61C1191.45 64.3955 1189.44 67.219 1189.18 69.9099C1189.02 71.5006 1186.19 104.322 1186.02 106.204C1185.72 109.24 1187.83 112.687 1191.65 112.687H1225.78C1230.32 112.687 1232.07 110.287 1232.46 106.602C1232.69 104.402 1233.82 91.0398 1233.82 91.0398H1213.19L1212.3 101.366H1207.08L1209.33 75.7292H1214.55L1213.73 85.3265H1234.36L1234.33 85.3132Z" fill="#008C95"/>
<path d="M1266.17 68.5313C1265.43 70.6523 1259.44 89.4093 1259.44 89.4093L1262.1 64.3955H1241.48L1237.16 112.687H1252.69C1256.59 112.687 1257.93 110.473 1258.58 108.71C1259.36 106.589 1265.07 90.8144 1265.07 90.8144L1262.97 112.687H1283.6L1287.86 64.3955C1287.86 64.3955 1273.07 64.3955 1271.66 64.3955C1268.08 64.3955 1266.68 67.0334 1266.16 68.5313" fill="#008C95"/>
<path d="M1370.67 64.3955L1368.73 86.4135H1363.5L1365.43 64.3955H1344.8C1344.8 64.3955 1342.83 87.7125 1342.62 89.966C1342.37 92.657 1343.89 96.4614 1348.46 96.4614H1367.86L1367.43 101.366H1341.62L1340.63 112.687H1381.68C1384.47 112.687 1387.14 110.871 1387.51 107C1387.75 104.508 1391.31 64.3955 1391.31 64.3955H1370.68H1370.67Z" fill="#008C95"/>
<path d="M1415.09 87.6993L1416.14 75.716H1421.31L1420.26 87.6993H1415.09ZM1424.52 64.3955H1396.49L1392.26 112.687H1412.89L1414.2 97.7472H1434.25C1437.78 97.7472 1440.14 95.9444 1440.53 91.8086C1440.67 90.2046 1442.3 71.8983 1442.41 70.2811C1442.66 66.7153 1439.81 64.4088 1436.27 64.4088H1424.5L1424.52 64.3955Z" fill="#008C95"/>
<path d="M1315.67 102.638H1310.41L1311.46 90.6548H1316.72L1315.67 102.638ZM1312.34 80.6201L1312.77 75.7287H1338.6L1339.6 64.4082H1293.12L1288.89 112.699H1296.64C1296.64 112.699 1327.56 112.699 1330.05 112.699C1332.55 112.699 1335.5 111.148 1335.87 107.119C1336.15 104.096 1337.42 89.7269 1337.65 87.1287C1337.95 83.6424 1335.74 80.6334 1331.39 80.6334H1312.32L1312.34 80.6201Z" fill="#008C95"/>
<path d="M545.983 38.043H31.1523V766.518H545.983V38.043Z" fill="white"/>
<path d="M117.102 37.6055V766.956" stroke="#999999" stroke-width="0.437443"/>
<path d="M203.053 37.6055V766.956" stroke="#999999" stroke-width="0.437443"/>
<path d="M288.131 37.6055V766.956" stroke="#999999" stroke-width="0.437443"/>
<path d="M374.082 37.6055V766.956" stroke="#999999" stroke-width="0.437443"/>
<path d="M460.031 37.6055V766.956" stroke="#999999" stroke-width="0.437443"/>
<path d="M546.407 118.215H30.7148" stroke="#999999" stroke-width="0.437443"/>
<path d="M546.407 199.261H30.7148" stroke="#999999" stroke-width="0.437443"/>
<path d="M546.407 281.156H30.7148" stroke="#999999" stroke-width="0.437443"/>
<path d="M546.407 361.328H30.7148" stroke="#999999" stroke-width="0.437443"/>
<path d="M546.407 442.374H30.7148" stroke="#999999" stroke-width="0.437443"/>
<path d="M546.407 523.407H30.7148" stroke="#999999" stroke-width="0.437443"/>
<path d="M546.407 605.314H30.7148" stroke="#999999" stroke-width="0.437443"/>
<path d="M546.407 686.348H30.7148" stroke="#999999" stroke-width="0.437443"/>
<path d="M448.406 740.246H454.438C456.386 740.246 456.731 738.973 456.837 737.794C456.93 736.733 458.322 720.945 458.322 720.945H452.317C450.607 720.945 450.01 721.926 449.864 723.53C449.798 724.326 448.406 740.246 448.406 740.246Z" fill="white"/>
<path d="M490.124 735.713H488.017L489.316 720.933H481.084C481.084 720.933 479.679 737.277 479.599 738.086C479.52 738.894 480.315 740.233 481.747 740.233H496.01C497.229 740.233 498.065 739.252 498.144 738.298C498.224 737.343 499.655 720.933 499.655 720.933H491.423L490.138 735.713H490.124Z" fill="white"/>
<path d="M431.585 720.933C430.113 720.933 429.305 721.702 429.159 723.491C429.079 724.379 428.562 730.185 428.496 731.02C428.43 731.856 428.735 732.585 429.782 732.585H438.716L438.398 736.217H436.264L436.41 734.546H428.178C428.178 734.546 427.939 737.436 427.833 738.43C427.727 739.425 428.045 740.233 429.331 740.233C430.617 740.233 442.919 740.233 443.952 740.233C446.272 740.233 446.392 738.536 446.524 737.251C446.657 736.058 447.121 730.437 447.187 729.735C447.253 729.032 446.75 728.581 446.073 728.581H436.927L437.245 724.949H439.366L439.22 726.619H447.452C447.452 726.619 447.717 723.385 447.81 722.47C447.903 721.556 447.439 720.933 446.471 720.933C445.503 720.933 432.433 720.933 431.558 720.933" fill="white"/>
<path d="M460.416 720.933L458.732 740.233H475.196C476.588 740.233 477.37 739.372 477.489 737.887C477.543 737.277 477.728 735.236 477.874 733.552C477.927 732.942 477.781 732.412 477.264 732.028C476.813 731.696 475.329 730.596 475.329 730.596C475.329 730.596 477.198 729.377 477.675 729.058C478.165 728.74 478.338 728.356 478.391 727.614C478.523 725.93 478.709 724.008 478.749 723.478C478.855 722.086 478.073 720.933 476.389 720.933H460.416ZM470.398 724.949L470.079 728.581H467.972L468.29 724.949H470.398ZM467.627 732.598H469.735L469.417 736.23H467.322L467.64 732.598H467.627Z" fill="white"/>
<path d="M517.999 720.933C517.085 720.933 501.734 720.933 501.734 720.933L500.051 740.233H508.283L508.8 734.255H510.894L510.377 740.233H518.609C518.609 740.233 518.967 735.991 519.033 735.355C519.099 734.732 518.967 734.069 518.37 733.632C517.774 733.194 516.488 732.253 516.488 732.253C516.488 732.253 518.158 731.179 518.689 730.822C519.219 730.464 519.497 730.079 519.59 728.979C519.683 727.879 520.027 723.968 520.094 723.239C520.186 721.98 519.126 720.933 518.013 720.933H517.999ZM509.171 730.252L509.595 725.466H511.689L511.265 730.252H509.171Z" fill="white"/>
<path d="M288.568 37.6201H30.7148V281.793H288.568V37.6201Z" stroke="#999999" stroke-width="1.32559" stroke-miterlimit="10"/>
<path d="M288.568 280.202H30.7148V524.375H288.568V280.202Z" stroke="#999999" stroke-width="1.32559" stroke-miterlimit="10"/>
<path d="M288.568 522.347H30.7148V766.519H288.568V522.347Z" stroke="#999999" stroke-width="1.32559" stroke-miterlimit="10"/>
<path d="M545.984 37.6201H288.131V281.793H545.984V37.6201Z" stroke="#999999" stroke-width="1.32559" stroke-miterlimit="10"/>
<path d="M545.984 280.202H288.131V524.375H545.984V280.202Z" stroke="#999999" stroke-width="1.32559" stroke-miterlimit="10"/>
<path d="M545.984 522.347H288.131V766.519H545.984V522.347Z" stroke="#999999" stroke-width="1.32559" stroke-miterlimit="10"/>
<path d="M520.188 63.8262H56.9355V740.736H520.188V63.8262Z" stroke="#E6007E" stroke-width="0.729072"/>
<path d="M56.5625 36.957H30.0508V63.4687H56.5625V36.957Z" fill="#E6007E"/>
<path d="M61.864 5.04172L63.2446 7.3369L64.6427 5.04172H65.9068L63.8446 8.15245L65.9708 11.3447H64.7242L63.2679 8.97964L61.8116 11.3447H60.5591L62.6795 8.15245L60.6232 5.04172H61.864ZM74.936 5.66503V6.60291H70.0777V5.66503H74.936ZM74.936 8.08254V9.02042H70.0777V8.08254H74.936ZM80.7672 7.30778L79.905 7.08641L80.3303 2.86305H84.6818V3.85918H81.2448L80.9885 6.16601C81.1439 6.07669 81.34 5.99319 81.5769 5.91552C81.8177 5.83785 82.0934 5.79902 82.4041 5.79902C82.7963 5.79902 83.1478 5.86698 83.4585 6.0029C83.7692 6.13494 84.0332 6.32524 84.2507 6.57378C84.4721 6.82233 84.641 7.12137 84.7575 7.47088C84.874 7.8204 84.9323 8.2107 84.9323 8.64178C84.9323 9.04955 84.876 9.42431 84.7633 9.76606C84.6546 10.1078 84.4896 10.4068 84.2682 10.6632C84.0468 10.9156 83.7672 11.1117 83.4293 11.2515C83.0954 11.3913 82.7012 11.4612 82.2468 11.4612C81.9051 11.4612 81.5808 11.4146 81.274 11.3214C80.9711 11.2243 80.6992 11.0787 80.4584 10.8845C80.2215 10.6865 80.0274 10.4418 79.8759 10.1505C79.7283 9.85538 79.6351 9.50975 79.5963 9.11363H80.6215C80.6681 9.43208 80.7613 9.70004 80.9012 9.91752C81.041 10.135 81.2235 10.3001 81.4487 10.4127C81.6779 10.5214 81.9439 10.5758 82.2468 10.5758C82.5031 10.5758 82.7303 10.5311 82.9284 10.4418C83.1264 10.3525 83.2934 10.2243 83.4293 10.0573C83.5653 9.89034 83.6682 9.68839 83.7381 9.4515C83.8119 9.2146 83.8488 8.94858 83.8488 8.65343C83.8488 8.38546 83.8119 8.13691 83.7381 7.90778C83.6643 7.67865 83.5536 7.47865 83.406 7.30778C83.2624 7.1369 83.0857 7.00486 82.8759 6.91165C82.6662 6.81456 82.4254 6.76602 82.1536 6.76602C81.7924 6.76602 81.5186 6.81456 81.3322 6.91165C81.1497 7.00874 80.9613 7.14078 80.7672 7.30778ZM86.0216 4.94269V4.49414C86.0216 4.17181 86.0915 3.8786 86.2313 3.61452C86.3711 3.35044 86.5711 3.13878 86.8313 2.97956C87.0915 2.82033 87.4003 2.74072 87.7576 2.74072C88.1226 2.74072 88.4333 2.82033 88.6896 2.97956C88.9498 3.13878 89.1498 3.35044 89.2896 3.61452C89.4294 3.8786 89.4993 4.17181 89.4993 4.49414V4.94269C89.4993 5.25726 89.4294 5.54659 89.2896 5.81067C89.1537 6.07475 88.9556 6.2864 88.6954 6.44563C88.4391 6.60485 88.1304 6.68447 87.7692 6.68447C87.408 6.68447 87.0954 6.60485 86.8313 6.44563C86.5711 6.2864 86.3711 6.07475 86.2313 5.81067C86.0915 5.54659 86.0216 5.25726 86.0216 4.94269ZM86.8313 4.49414V4.94269C86.8313 5.12134 86.8643 5.29027 86.9304 5.4495C87.0003 5.60872 87.1051 5.73882 87.2449 5.83979C87.3847 5.93688 87.5595 5.98543 87.7692 5.98543C87.9789 5.98543 88.1517 5.93688 88.2877 5.83979C88.4236 5.73882 88.5246 5.60872 88.5906 5.4495C88.6566 5.29027 88.6896 5.12134 88.6896 4.94269V4.49414C88.6896 4.31162 88.6547 4.14074 88.5848 3.98151C88.5187 3.81841 88.4158 3.68831 88.276 3.59122C88.1401 3.49025 87.9673 3.43976 87.7576 3.43976C87.5517 3.43976 87.3789 3.49025 87.2391 3.59122C87.1032 3.68831 87.0003 3.81841 86.9304 3.98151C86.8643 4.14074 86.8313 4.31162 86.8313 4.49414ZM90.1518 9.71946V9.26509C90.1518 8.94663 90.2217 8.65537 90.3615 8.39129C90.5013 8.1272 90.7013 7.91555 90.9615 7.75633C91.2217 7.5971 91.5304 7.51749 91.8877 7.51749C92.2528 7.51749 92.5635 7.5971 92.8198 7.75633C93.08 7.91555 93.28 8.1272 93.4198 8.39129C93.5596 8.65537 93.6295 8.94663 93.6295 9.26509V9.71946C93.6295 10.0379 93.5596 10.3292 93.4198 10.5933C93.2839 10.8573 93.0858 11.069 92.8256 11.2282C92.5693 11.3874 92.2605 11.4671 91.8994 11.4671C91.5382 11.4671 91.2275 11.3874 90.9673 11.2282C90.7071 11.069 90.5052 10.8573 90.3615 10.5933C90.2217 10.3292 90.1518 10.0379 90.1518 9.71946ZM90.9615 9.26509V9.71946C90.9615 9.8981 90.9945 10.069 91.0605 10.2321C91.1304 10.3913 91.2353 10.5214 91.3751 10.6224C91.5149 10.7195 91.6897 10.768 91.8994 10.768C92.1091 10.768 92.2819 10.7195 92.4178 10.6224C92.5576 10.5214 92.6605 10.3913 92.7266 10.2321C92.7926 10.0729 92.8256 9.90199 92.8256 9.71946V9.26509C92.8256 9.08256 92.7906 8.91168 92.7207 8.75246C92.6547 8.59323 92.5518 8.46507 92.412 8.36799C92.2761 8.26701 92.1013 8.21653 91.8877 8.21653C91.6819 8.21653 91.5091 8.26701 91.3693 8.36799C91.2333 8.46507 91.1304 8.59323 91.0605 8.75246C90.9945 8.91168 90.9615 9.08256 90.9615 9.26509ZM92.1557 4.06889L88.0139 10.6981L87.408 10.3136L91.5498 3.68442L92.1557 4.06889ZM97.6431 8.26313V8.12915C97.6431 7.67477 97.7092 7.25341 97.8412 6.86505C97.9732 6.47281 98.1635 6.133 98.4121 5.84562C98.6606 5.55435 98.9616 5.32911 99.315 5.16988C99.6684 5.00677 100.065 4.92522 100.503 4.92522C100.946 4.92522 101.344 5.00677 101.698 5.16988C102.055 5.32911 102.358 5.55435 102.606 5.84562C102.859 6.133 103.051 6.47281 103.183 6.86505C103.315 7.25341 103.381 7.67477 103.381 8.12915V8.26313C103.381 8.7175 103.315 9.13887 103.183 9.52722C103.051 9.91558 102.859 10.2554 102.606 10.5467C102.358 10.834 102.057 11.0593 101.703 11.2224C101.354 11.3816 100.958 11.4612 100.515 11.4612C100.072 11.4612 99.6742 11.3816 99.3208 11.2224C98.9674 11.0593 98.6645 10.834 98.4121 10.5467C98.1635 10.2554 97.9732 9.91558 97.8412 9.52722C97.7092 9.13887 97.6431 8.7175 97.6431 8.26313ZM98.7208 8.12915V8.26313C98.7208 8.5777 98.7577 8.87479 98.8315 9.1544C98.9053 9.43014 99.016 9.6748 99.1636 9.8884C99.315 10.102 99.5034 10.2709 99.7286 10.3952C99.9539 10.5156 100.216 10.5758 100.515 10.5758C100.81 10.5758 101.068 10.5156 101.29 10.3952C101.515 10.2709 101.701 10.102 101.849 9.8884C101.997 9.6748 102.107 9.43014 102.181 9.1544C102.259 8.87479 102.298 8.5777 102.298 8.26313V8.12915C102.298 7.81846 102.259 7.52525 102.181 7.24952C102.107 6.96991 101.995 6.7233 101.843 6.50971C101.696 6.29223 101.509 6.12135 101.284 5.99708C101.063 5.8728 100.802 5.81067 100.503 5.81067C100.208 5.81067 99.948 5.8728 99.7228 5.99708C99.5014 6.12135 99.315 6.29223 99.1636 6.50971C99.016 6.7233 98.9053 6.96991 98.8315 7.24952C98.7577 7.52525 98.7208 7.81846 98.7208 8.12915ZM107.173 5.04172V11.3447H106.09V5.04172H107.173ZM109.288 5.04172V5.91552H104.016V5.04172H109.288ZM114.478 5.04172V11.3447H113.401V5.04172H114.478ZM118.614 5.04172L115.626 8.65343H114.117L113.954 7.70972H115.189L117.304 5.04172H118.614ZM117.455 11.3447L115.137 8.49032L115.83 7.70972L118.824 11.3447H117.455ZM119.348 8.26313V8.12915C119.348 7.67477 119.414 7.25341 119.546 6.86505C119.678 6.47281 119.869 6.133 120.117 5.84562C120.366 5.55435 120.667 5.32911 121.02 5.16988C121.374 5.00677 121.77 4.92522 122.209 4.92522C122.651 4.92522 123.049 5.00677 123.403 5.16988C123.76 5.32911 124.063 5.55435 124.311 5.84562C124.564 6.133 124.756 6.47281 124.888 6.86505C125.02 7.25341 125.086 7.67477 125.086 8.12915V8.26313C125.086 8.7175 125.02 9.13887 124.888 9.52722C124.756 9.91558 124.564 10.2554 124.311 10.5467C124.063 10.834 123.762 11.0593 123.409 11.2224C123.059 11.3816 122.663 11.4612 122.22 11.4612C121.777 11.4612 121.379 11.3816 121.026 11.2224C120.673 11.0593 120.37 10.834 120.117 10.5467C119.869 10.2554 119.678 9.91558 119.546 9.52722C119.414 9.13887 119.348 8.7175 119.348 8.26313ZM120.426 8.12915V8.26313C120.426 8.5777 120.463 8.87479 120.537 9.1544C120.61 9.43014 120.721 9.6748 120.869 9.8884C121.02 10.102 121.209 10.2709 121.434 10.3952C121.659 10.5156 121.921 10.5758 122.22 10.5758C122.515 10.5758 122.774 10.5156 122.995 10.3952C123.22 10.2709 123.407 10.102 123.554 9.8884C123.702 9.6748 123.812 9.43014 123.886 9.1544C123.964 8.87479 124.003 8.5777 124.003 8.26313V8.12915C124.003 7.81846 123.964 7.52525 123.886 7.24952C123.812 6.96991 123.7 6.7233 123.548 6.50971C123.401 6.29223 123.214 6.12135 122.989 5.99708C122.768 5.8728 122.508 5.81067 122.209 5.81067C121.913 5.81067 121.653 5.8728 121.428 5.99708C121.207 6.12135 121.02 6.29223 120.869 6.50971C120.721 6.7233 120.61 6.96991 120.537 7.24952C120.463 7.52525 120.426 7.81846 120.426 8.12915ZM127.515 6.25339V13.7681H126.432V5.04172H127.422L127.515 6.25339ZM131.762 8.1408V8.26313C131.762 8.72139 131.708 9.14664 131.599 9.53888C131.49 9.92723 131.331 10.2651 131.121 10.5525C130.915 10.8399 130.661 11.0632 130.358 11.2224C130.055 11.3816 129.708 11.4612 129.315 11.4612C128.915 11.4612 128.562 11.3952 128.255 11.2632C127.948 11.1311 127.688 10.9389 127.475 10.6865C127.261 10.434 127.09 10.1311 126.962 9.77771C126.838 9.42431 126.752 9.02625 126.706 8.58352V7.93109C126.752 7.46506 126.84 7.04758 126.968 6.67864C127.096 6.3097 127.265 5.99514 127.475 5.73494C127.688 5.47086 127.946 5.27085 128.249 5.13493C128.552 4.99512 128.902 4.92522 129.298 4.92522C129.694 4.92522 130.046 5.00289 130.352 5.15823C130.659 5.30969 130.917 5.52717 131.127 5.81067C131.337 6.09417 131.494 6.43398 131.599 6.8301C131.708 7.22234 131.762 7.65924 131.762 8.1408ZM130.679 8.26313V8.1408C130.679 7.82623 130.646 7.53108 130.58 7.25535C130.514 6.97573 130.411 6.73107 130.271 6.52136C130.135 6.30776 129.96 6.14077 129.747 6.02038C129.533 5.89611 129.279 5.83397 128.983 5.83397C128.712 5.83397 128.475 5.88057 128.273 5.97378C128.075 6.06698 127.906 6.1932 127.766 6.35242C127.626 6.50776 127.512 6.68641 127.422 6.88835C127.337 7.08641 127.273 7.29224 127.23 7.50584V9.0146C127.308 9.28644 127.416 9.54276 127.556 9.78354C127.696 10.0204 127.882 10.2127 128.115 10.3602C128.348 10.5039 128.642 10.5758 128.995 10.5758C129.286 10.5758 129.537 10.5156 129.747 10.3952C129.96 10.2709 130.135 10.102 130.271 9.8884C130.411 9.6748 130.514 9.43014 130.58 9.1544C130.646 8.87479 130.679 8.5777 130.679 8.26313ZM132.851 8.26313V8.12915C132.851 7.67477 132.917 7.25341 133.049 6.86505C133.182 6.47281 133.372 6.133 133.62 5.84562C133.869 5.55435 134.17 5.32911 134.523 5.16988C134.877 5.00677 135.273 4.92522 135.712 4.92522C136.154 4.92522 136.552 5.00677 136.906 5.16988C137.263 5.32911 137.566 5.55435 137.815 5.84562C138.067 6.133 138.259 6.47281 138.391 6.86505C138.523 7.25341 138.589 7.67477 138.589 8.12915V8.26313C138.589 8.7175 138.523 9.13887 138.391 9.52722C138.259 9.91558 138.067 10.2554 137.815 10.5467C137.566 10.834 137.265 11.0593 136.912 11.2224C136.562 11.3816 136.166 11.4612 135.723 11.4612C135.281 11.4612 134.883 11.3816 134.529 11.2224C134.176 11.0593 133.873 10.834 133.62 10.5467C133.372 10.2554 133.182 9.91558 133.049 9.52722C132.917 9.13887 132.851 8.7175 132.851 8.26313ZM133.929 8.12915V8.26313C133.929 8.5777 133.966 8.87479 134.04 9.1544C134.114 9.43014 134.224 9.6748 134.372 9.8884C134.523 10.102 134.712 10.2709 134.937 10.3952C135.162 10.5156 135.424 10.5758 135.723 10.5758C136.018 10.5758 136.277 10.5156 136.498 10.3952C136.723 10.2709 136.91 10.102 137.057 9.8884C137.205 9.6748 137.316 9.43014 137.389 9.1544C137.467 8.87479 137.506 8.5777 137.506 8.26313V8.12915C137.506 7.81846 137.467 7.52525 137.389 7.24952C137.316 6.96991 137.203 6.7233 137.051 6.50971C136.904 6.29223 136.717 6.12135 136.492 5.99708C136.271 5.8728 136.011 5.81067 135.712 5.81067C135.416 5.81067 135.156 5.8728 134.931 5.99708C134.71 6.12135 134.523 6.29223 134.372 6.50971C134.224 6.7233 134.114 6.96991 134.04 7.24952C133.966 7.52525 133.929 7.81846 133.929 8.12915ZM142.382 5.04172V11.3447H141.298V5.04172H142.382ZM144.496 5.04172V5.91552H139.224V5.04172H144.496ZM146.727 5.04172V11.3447H145.65V5.04172H146.727ZM150.863 5.04172L147.875 8.65343H146.366L146.203 7.70972H147.438L149.553 5.04172H150.863ZM149.704 11.3447L147.386 8.49032L148.079 7.70972L151.073 11.3447H149.704ZM151.597 8.26313V8.12915C151.597 7.67477 151.663 7.25341 151.795 6.86505C151.927 6.47281 152.118 6.133 152.366 5.84562C152.615 5.55435 152.916 5.32911 153.269 5.16988C153.623 5.00677 154.019 4.92522 154.458 4.92522C154.9 4.92522 155.298 5.00677 155.652 5.16988C156.009 5.32911 156.312 5.55435 156.56 5.84562C156.813 6.133 157.005 6.47281 157.137 6.86505C157.269 7.25341 157.335 7.67477 157.335 8.12915V8.26313C157.335 8.7175 157.269 9.13887 157.137 9.52722C157.005 9.91558 156.813 10.2554 156.56 10.5467C156.312 10.834 156.011 11.0593 155.658 11.2224C155.308 11.3816 154.912 11.4612 154.469 11.4612C154.026 11.4612 153.628 11.3816 153.275 11.2224C152.922 11.0593 152.619 10.834 152.366 10.5467C152.118 10.2554 151.927 9.91558 151.795 9.52722C151.663 9.13887 151.597 8.7175 151.597 8.26313ZM152.675 8.12915V8.26313C152.675 8.5777 152.712 8.87479 152.786 9.1544C152.859 9.43014 152.97 9.6748 153.118 9.8884C153.269 10.102 153.458 10.2709 153.683 10.3952C153.908 10.5156 154.17 10.5758 154.469 10.5758C154.764 10.5758 155.023 10.5156 155.244 10.3952C155.469 10.2709 155.656 10.102 155.803 9.8884C155.951 9.6748 156.061 9.43014 156.135 9.1544C156.213 8.87479 156.252 8.5777 156.252 8.26313V8.12915C156.252 7.81846 156.213 7.52525 156.135 7.24952C156.061 6.96991 155.949 6.7233 155.797 6.50971C155.65 6.29223 155.463 6.12135 155.238 5.99708C155.017 5.8728 154.757 5.81067 154.458 5.81067C154.162 5.81067 153.902 5.8728 153.677 5.99708C153.456 6.12135 153.269 6.29223 153.118 6.50971C152.97 6.7233 152.859 6.96991 152.786 7.24952C152.712 7.52525 152.675 7.81846 152.675 8.12915ZM159.852 9.63791L162.759 5.04172H163.842V11.3447H162.759V6.74854L159.852 11.3447H158.78V5.04172H159.852V9.63791ZM162.17 2.7582H163.044C163.044 3.06111 162.974 3.33102 162.834 3.56792C162.695 3.80093 162.495 3.98346 162.234 4.1155C161.974 4.24754 161.665 4.31356 161.308 4.31356C160.768 4.31356 160.341 4.16987 160.027 3.88248C159.716 3.59122 159.561 3.21646 159.561 2.7582H160.434C160.434 2.98733 160.5 3.18927 160.632 3.36403C160.764 3.53879 160.99 3.62617 161.308 3.62617C161.619 3.62617 161.84 3.53879 161.972 3.36403C162.104 3.18927 162.17 2.98733 162.17 2.7582ZM171.054 10.5758C171.31 10.5758 171.547 10.5234 171.765 10.4185C171.982 10.3136 172.161 10.17 172.301 9.98743C172.44 9.80102 172.52 9.58936 172.539 9.35247H173.565C173.545 9.72529 173.419 10.0729 173.186 10.3952C172.957 10.7136 172.656 10.9719 172.283 11.17C171.91 11.3641 171.501 11.4612 171.054 11.4612C170.58 11.4612 170.167 11.3777 169.813 11.2107C169.464 11.0438 169.172 10.8146 168.939 10.5234C168.71 10.2321 168.537 9.8981 168.421 9.5214C168.308 9.14081 168.252 8.73886 168.252 8.31556V8.07089C168.252 7.64759 168.308 7.24758 168.421 6.87088C168.537 6.49029 168.71 6.15436 168.939 5.86309C169.172 5.57183 169.464 5.3427 169.813 5.17571C170.167 5.00871 170.58 4.92522 171.054 4.92522C171.547 4.92522 171.978 5.02619 172.347 5.22813C172.716 5.4262 173.005 5.69804 173.215 6.04368C173.429 6.38543 173.545 6.77379 173.565 7.20875H172.539C172.52 6.94855 172.446 6.71359 172.318 6.50388C172.194 6.29417 172.023 6.12718 171.805 6.0029C171.592 5.87475 171.341 5.81067 171.054 5.81067C170.724 5.81067 170.446 5.87669 170.221 6.00873C170 6.13689 169.823 6.31165 169.691 6.53301C169.563 6.75049 169.469 6.99321 169.411 7.26117C169.357 7.52525 169.33 7.79516 169.33 8.07089V8.31556C169.33 8.59129 169.357 8.86314 169.411 9.1311C169.466 9.39907 169.557 9.64179 169.685 9.85927C169.817 10.0767 169.994 10.2515 170.215 10.3835C170.44 10.5117 170.72 10.5758 171.054 10.5758ZM177.345 5.04172V11.3447H176.262V5.04172H177.345ZM179.46 5.04172V5.91552H174.188V5.04172H179.46ZM179.99 8.26313V8.12915C179.99 7.67477 180.056 7.25341 180.188 6.86505C180.32 6.47281 180.51 6.133 180.759 5.84562C181.007 5.55435 181.308 5.32911 181.662 5.16988C182.015 5.00677 182.411 4.92522 182.85 4.92522C183.293 4.92522 183.691 5.00677 184.044 5.16988C184.402 5.32911 184.705 5.55435 184.953 5.84562C185.206 6.133 185.398 6.47281 185.53 6.86505C185.662 7.25341 185.728 7.67477 185.728 8.12915V8.26313C185.728 8.7175 185.662 9.13887 185.53 9.52722C185.398 9.91558 185.206 10.2554 184.953 10.5467C184.705 10.834 184.404 11.0593 184.05 11.2224C183.701 11.3816 183.305 11.4612 182.862 11.4612C182.419 11.4612 182.021 11.3816 181.668 11.2224C181.314 11.0593 181.011 10.834 180.759 10.5467C180.51 10.2554 180.32 9.91558 180.188 9.52722C180.056 9.13887 179.99 8.7175 179.99 8.26313ZM181.068 8.12915V8.26313C181.068 8.5777 181.105 8.87479 181.178 9.1544C181.252 9.43014 181.363 9.6748 181.51 9.8884C181.662 10.102 181.85 10.2709 182.075 10.3952C182.301 10.5156 182.563 10.5758 182.862 10.5758C183.157 10.5758 183.415 10.5156 183.637 10.3952C183.862 10.2709 184.048 10.102 184.196 9.8884C184.343 9.6748 184.454 9.43014 184.528 9.1544C184.606 8.87479 184.644 8.5777 184.644 8.26313V8.12915C184.644 7.81846 184.606 7.52525 184.528 7.24952C184.454 6.96991 184.341 6.7233 184.19 6.50971C184.042 6.29223 183.856 6.12135 183.631 5.99708C183.409 5.8728 183.149 5.81067 182.85 5.81067C182.555 5.81067 182.295 5.8728 182.07 5.99708C181.848 6.12135 181.662 6.29223 181.51 6.50971C181.363 6.7233 181.252 6.96991 181.178 7.24952C181.105 7.52525 181.068 7.81846 181.068 8.12915ZM188.157 6.25339V13.7681H187.074V5.04172H188.064L188.157 6.25339ZM192.404 8.1408V8.26313C192.404 8.72139 192.349 9.14664 192.241 9.53888C192.132 9.92723 191.973 10.2651 191.763 10.5525C191.557 10.8399 191.303 11.0632 191 11.2224C190.697 11.3816 190.349 11.4612 189.957 11.4612C189.557 11.4612 189.204 11.3952 188.897 11.2632C188.59 11.1311 188.33 10.9389 188.116 10.6865C187.903 10.434 187.732 10.1311 187.604 9.77771C187.479 9.42431 187.394 9.02625 187.347 8.58352V7.93109C187.394 7.46506 187.481 7.04758 187.609 6.67864C187.738 6.3097 187.907 5.99514 188.116 5.73494C188.33 5.47086 188.588 5.27085 188.891 5.13493C189.194 4.99512 189.543 4.92522 189.94 4.92522C190.336 4.92522 190.687 5.00289 190.994 5.15823C191.301 5.30969 191.559 5.52717 191.769 5.81067C191.978 6.09417 192.136 6.43398 192.241 6.8301C192.349 7.22234 192.404 7.65924 192.404 8.1408ZM191.32 8.26313V8.1408C191.32 7.82623 191.287 7.53108 191.221 7.25535C191.155 6.97573 191.052 6.73107 190.912 6.52136C190.777 6.30776 190.602 6.14077 190.388 6.02038C190.175 5.89611 189.92 5.83397 189.625 5.83397C189.353 5.83397 189.116 5.88057 188.914 5.97378C188.716 6.06698 188.547 6.1932 188.408 6.35242C188.268 6.50776 188.153 6.68641 188.064 6.88835C187.978 7.08641 187.914 7.29224 187.872 7.50584V9.0146C187.949 9.28644 188.058 9.54276 188.198 9.78354C188.338 10.0204 188.524 10.2127 188.757 10.3602C188.99 10.5039 189.283 10.5758 189.637 10.5758C189.928 10.5758 190.178 10.5156 190.388 10.3952C190.602 10.2709 190.777 10.102 190.912 9.8884C191.052 9.6748 191.155 9.43014 191.221 9.1544C191.287 8.87479 191.32 8.5777 191.32 8.26313ZM193.493 8.26313V8.12915C193.493 7.67477 193.559 7.25341 193.691 6.86505C193.823 6.47281 194.013 6.133 194.262 5.84562C194.511 5.55435 194.812 5.32911 195.165 5.16988C195.518 5.00677 195.914 4.92522 196.353 4.92522C196.796 4.92522 197.194 5.00677 197.547 5.16988C197.905 5.32911 198.208 5.55435 198.456 5.84562C198.709 6.133 198.901 6.47281 199.033 6.86505C199.165 7.25341 199.231 7.67477 199.231 8.12915V8.26313C199.231 8.7175 199.165 9.13887 199.033 9.52722C198.901 9.91558 198.709 10.2554 198.456 10.5467C198.208 10.834 197.907 11.0593 197.553 11.2224C197.204 11.3816 196.808 11.4612 196.365 11.4612C195.922 11.4612 195.524 11.3816 195.171 11.2224C194.817 11.0593 194.514 10.834 194.262 10.5467C194.013 10.2554 193.823 9.91558 193.691 9.52722C193.559 9.13887 193.493 8.7175 193.493 8.26313ZM194.571 8.12915V8.26313C194.571 8.5777 194.608 8.87479 194.681 9.1544C194.755 9.43014 194.866 9.6748 195.013 9.8884C195.165 10.102 195.353 10.2709 195.579 10.3952C195.804 10.5156 196.066 10.5758 196.365 10.5758C196.66 10.5758 196.918 10.5156 197.14 10.3952C197.365 10.2709 197.551 10.102 197.699 9.8884C197.847 9.6748 197.957 9.43014 198.031 9.1544C198.109 8.87479 198.147 8.5777 198.147 8.26313V8.12915C198.147 7.81846 198.109 7.52525 198.031 7.24952C197.957 6.96991 197.845 6.7233 197.693 6.50971C197.546 6.29223 197.359 6.12135 197.134 5.99708C196.913 5.8728 196.652 5.81067 196.353 5.81067C196.058 5.81067 195.798 5.8728 195.573 5.99708C195.351 6.12135 195.165 6.29223 195.013 6.50971C194.866 6.7233 194.755 6.96991 194.681 7.24952C194.608 7.52525 194.571 7.81846 194.571 8.12915ZM204.858 7.7738V8.6476H201.526V7.7738H204.858ZM201.753 5.04172V11.3447H200.676V5.04172H201.753ZM205.732 5.04172V11.3447H204.649V5.04172H205.732ZM208.353 7.20875H210.247C210.755 7.20875 211.185 7.29807 211.534 7.47671C211.884 7.65147 212.148 7.89419 212.326 8.20488C212.509 8.51168 212.6 8.8612 212.6 9.25343C212.6 9.5447 212.55 9.81849 212.449 10.0748C212.348 10.3272 212.196 10.5486 211.994 10.7389C211.796 10.9292 211.55 11.0787 211.254 11.1874C210.963 11.2923 210.627 11.3447 210.247 11.3447H207.567V5.04172H208.645V10.4593H210.247C210.557 10.4593 210.806 10.403 210.992 10.2903C211.179 10.1777 211.313 10.0321 211.394 9.85344C211.476 9.6748 211.517 9.48839 211.517 9.29421C211.517 9.10392 211.476 8.91751 211.394 8.73498C211.313 8.55245 211.179 8.401 210.992 8.28061C210.806 8.15633 210.557 8.09419 210.247 8.09419H208.353V7.20875ZM214.843 5.04172V11.3447H213.765V5.04172H214.843ZM223.965 7.7738V8.6476H220.633V7.7738H223.965ZM220.86 5.04172V11.3447H219.783V5.04172H220.86ZM224.839 5.04172V11.3447H223.756V5.04172H224.839ZM226.29 8.26313V8.12915C226.29 7.67477 226.356 7.25341 226.488 6.86505C226.62 6.47281 226.81 6.133 227.059 5.84562C227.307 5.55435 227.608 5.32911 227.962 5.16988C228.315 5.00677 228.711 4.92522 229.15 4.92522C229.593 4.92522 229.991 5.00677 230.344 5.16988C230.701 5.32911 231.004 5.55435 231.253 5.84562C231.505 6.133 231.697 6.47281 231.83 6.86505C231.962 7.25341 232.028 7.67477 232.028 8.12915V8.26313C232.028 8.7175 231.962 9.13887 231.83 9.52722C231.697 9.91558 231.505 10.2554 231.253 10.5467C231.004 10.834 230.703 11.0593 230.35 11.2224C230 11.3816 229.604 11.4612 229.162 11.4612C228.719 11.4612 228.321 11.3816 227.967 11.2224C227.614 11.0593 227.311 10.834 227.059 10.5467C226.81 10.2554 226.62 9.91558 226.488 9.52722C226.356 9.13887 226.29 8.7175 226.29 8.26313ZM227.367 8.12915V8.26313C227.367 8.5777 227.404 8.87479 227.478 9.1544C227.552 9.43014 227.662 9.6748 227.81 9.8884C227.962 10.102 228.15 10.2709 228.375 10.3952C228.6 10.5156 228.862 10.5758 229.162 10.5758C229.457 10.5758 229.715 10.5156 229.936 10.3952C230.162 10.2709 230.348 10.102 230.496 9.8884C230.643 9.6748 230.754 9.43014 230.828 9.1544C230.905 8.87479 230.944 8.5777 230.944 8.26313V8.12915C230.944 7.81846 230.905 7.52525 230.828 7.24952C230.754 6.96991 230.641 6.7233 230.49 6.50971C230.342 6.29223 230.156 6.12135 229.93 5.99708C229.709 5.8728 229.449 5.81067 229.15 5.81067C228.855 5.81067 228.595 5.8728 228.369 5.99708C228.148 6.12135 227.962 6.29223 227.81 6.50971C227.662 6.7233 227.552 6.96991 227.478 7.24952C227.404 7.52525 227.367 7.81846 227.367 8.12915ZM235.901 10.5758C236.158 10.5758 236.395 10.5234 236.612 10.4185C236.83 10.3136 237.008 10.17 237.148 9.98743C237.288 9.80102 237.367 9.58936 237.387 9.35247H238.412C238.393 9.72529 238.267 10.0729 238.033 10.3952C237.804 10.7136 237.503 10.9719 237.131 11.17C236.758 11.3641 236.348 11.4612 235.901 11.4612C235.428 11.4612 235.014 11.3777 234.661 11.2107C234.311 11.0438 234.02 10.8146 233.787 10.5234C233.558 10.2321 233.385 9.8981 233.268 9.5214C233.156 9.14081 233.099 8.73886 233.099 8.31556V8.07089C233.099 7.64759 233.156 7.24758 233.268 6.87088C233.385 6.49029 233.558 6.15436 233.787 5.86309C234.02 5.57183 234.311 5.3427 234.661 5.17571C235.014 5.00871 235.428 4.92522 235.901 4.92522C236.395 4.92522 236.826 5.02619 237.195 5.22813C237.564 5.4262 237.853 5.69804 238.063 6.04368C238.276 6.38543 238.393 6.77379 238.412 7.20875H237.387C237.367 6.94855 237.294 6.71359 237.166 6.50388C237.041 6.29417 236.87 6.12718 236.653 6.0029C236.439 5.87475 236.189 5.81067 235.901 5.81067C235.571 5.81067 235.294 5.87669 235.068 6.00873C234.847 6.13689 234.67 6.31165 234.538 6.53301C234.41 6.75049 234.317 6.99321 234.259 7.26117C234.204 7.52525 234.177 7.79516 234.177 8.07089V8.31556C234.177 8.59129 234.204 8.86314 234.259 9.1311C234.313 9.39907 234.404 9.64179 234.532 9.85927C234.665 10.0767 234.841 10.2515 235.063 10.3835C235.288 10.5117 235.567 10.5758 235.901 10.5758ZM240.789 9.63791L243.696 5.04172H244.779V11.3447H243.696V6.74854L240.789 11.3447H239.717V5.04172H240.789V9.63791ZM249.078 5.04172V11.3447H247.995V5.04172H249.078ZM251.193 5.04172V5.91552H245.921V5.04172H251.193ZM254.403 11.4612C253.964 11.4612 253.566 11.3874 253.208 11.2399C252.855 11.0884 252.55 10.8768 252.294 10.6049C252.041 10.3331 251.847 10.0107 251.711 9.63791C251.575 9.26509 251.507 8.85731 251.507 8.41459V8.16992C251.507 7.6573 251.583 7.20098 251.735 6.80097C251.886 6.39708 252.092 6.05533 252.352 5.77572C252.612 5.4961 252.907 5.28445 253.238 5.14075C253.568 4.99706 253.909 4.92522 254.263 4.92522C254.713 4.92522 255.102 5.00289 255.428 5.15823C255.758 5.31357 256.028 5.53105 256.238 5.81067C256.447 6.0864 256.603 6.41262 256.704 6.78932C256.805 7.16214 256.855 7.56992 256.855 8.01264V8.49614H252.148V7.61652H255.777V7.53496C255.762 7.25535 255.704 6.9835 255.603 6.71942C255.506 6.45534 255.35 6.23786 255.137 6.06698C254.923 5.89611 254.632 5.81067 254.263 5.81067C254.018 5.81067 253.793 5.86309 253.587 5.96795C253.381 6.06892 253.205 6.22038 253.057 6.42233C252.909 6.62427 252.795 6.87088 252.713 7.16214C252.632 7.45341 252.591 7.78934 252.591 8.16992V8.41459C252.591 8.71362 252.632 8.99518 252.713 9.25926C252.799 9.51946 252.921 9.74859 253.08 9.94665C253.243 10.1447 253.44 10.3001 253.669 10.4127C253.902 10.5253 254.166 10.5816 254.461 10.5816C254.841 10.5816 255.164 10.5039 255.428 10.3486C255.692 10.1933 255.923 9.98548 256.121 9.72529L256.774 10.2437C256.638 10.4496 256.465 10.6457 256.255 10.8321C256.045 11.0185 255.787 11.17 255.48 11.2865C255.177 11.403 254.818 11.4612 254.403 11.4612ZM262.325 5.04172V5.933H259.278V5.04172H262.325ZM263.275 5.04172V11.3447H262.197V5.04172H263.275ZM259.016 5.04172H260.1L259.937 8.08254C259.91 8.55245 259.865 8.96799 259.803 9.32916C259.744 9.68645 259.663 9.99325 259.558 10.2496C259.457 10.5059 259.329 10.7156 259.174 10.8787C259.022 11.0379 258.84 11.1564 258.626 11.234C258.412 11.3078 258.166 11.3447 257.886 11.3447H257.548V10.3952L257.781 10.3777C257.948 10.3661 258.09 10.3272 258.207 10.2612C258.327 10.1952 258.428 10.0981 258.51 9.96995C258.591 9.83791 258.657 9.66897 258.708 9.46315C258.762 9.25732 258.803 9.01265 258.83 8.72916C258.861 8.44566 258.884 8.11555 258.9 7.73885L259.016 5.04172ZM266.286 8.33886H267.451L265.628 11.3447H264.463L266.286 8.33886ZM267.189 5.04172H269.822V11.3447H268.745V5.91552H267.189C266.882 5.91552 266.632 5.96795 266.438 6.07281C266.244 6.17378 266.102 6.30582 266.013 6.46893C265.923 6.63204 265.879 6.80097 265.879 6.97573C265.879 7.14661 265.919 7.31166 266.001 7.47088C266.082 7.62623 266.211 7.75438 266.385 7.85536C266.56 7.95633 266.785 8.00681 267.061 8.00681H269.036V8.89226H267.061C266.7 8.89226 266.38 8.84372 266.1 8.74663C265.82 8.64954 265.583 8.51556 265.389 8.34468C265.195 8.16992 265.047 7.96604 264.947 7.73302C264.846 7.49613 264.795 7.23981 264.795 6.96408C264.795 6.68835 264.847 6.43398 264.952 6.20096C265.061 5.96795 265.216 5.76406 265.418 5.5893C265.624 5.41454 265.875 5.28056 266.17 5.18736C266.469 5.09027 266.809 5.04172 267.189 5.04172Z" fill="#E6007E"/>
<path d="M40.3078 3.74869L43.2528 8.4439L46.1979 3.74869H48.0911L44.2205 9.81545L48.1836 16H46.2736L43.2528 11.2122L40.2321 16H38.322L42.2852 9.81545L38.4146 3.74869H40.3078Z" fill="#E6007E"/>
<path d="M2.48554 42.8922L5.43057 47.5875L8.37559 42.8922H10.2688L6.39822 48.959L10.3614 55.1436H8.45132L5.43057 50.3558L2.40981 55.1436H0.499752L4.46292 48.959L0.59231 42.8922H2.48554Z" fill="#E6007E"/>
<path d="M57.2266 4.30859V36.9578" stroke="#E6007E" stroke-width="1.32559"/>
<path d="M31.1523 4.30859V36.9578" stroke="#E6007E" stroke-width="1.32559"/>
<path d="M30.051 62.8057H0" stroke="#E6007E" stroke-width="1.32559"/>
<path d="M30.051 37.3809H0" stroke="#E6007E" stroke-width="1.32559"/>
<path d="M261.328 766.518V38.043" stroke="#E6007E" stroke-width="0.729072"/>
<path d="M315.371 766.518V38.043" stroke="#E6007E" stroke-width="0.729072"/>
<path d="M30.0508 253.014H520.557" stroke="#E6007E" stroke-width="0.729072"/>
<path d="M30.0508 495.172H520.557" stroke="#E6007E" stroke-width="0.729072"/>
<path d="M30.0508 307.867H520.557" stroke="#E6007E" stroke-width="0.729072"/>
<path d="M30.0508 551.482H520.557" stroke="#E6007E" stroke-width="0.729072"/>
<path d="M84.1868 76.3523C84.1868 76.3523 84.8761 68.5976 84.9424 67.842C85.0485 66.6225 84.0675 64.3955 81.6814 64.3955H62.0628C59.69 64.3955 58.5367 66.0127 58.3909 67.5504C58.2981 68.465 56.6809 87.2088 56.5748 88.2958C56.4025 90.0323 57.6088 92.0074 59.796 92.0074H79.2954C81.8803 92.0074 82.8877 90.6421 83.1131 88.5344C83.2456 87.2751 83.882 79.6397 83.882 79.6397H72.0975L71.5938 85.5386H68.6112L69.897 70.8909H72.8795L72.4023 76.3788H84.1868V76.3523Z" fill="#008C95"/>
<path d="M102.388 66.755C101.964 67.9613 98.5304 78.6853 98.5304 78.6853L100.055 64.3955H88.2703L85.8047 91.9942H94.6861C96.9131 91.9942 97.682 90.7349 98.0532 89.7142C98.4906 88.5079 101.765 79.4939 101.765 79.4939L100.558 91.9942H112.356L114.782 64.3955C114.782 64.3955 106.325 64.3955 105.529 64.3955C103.488 64.3955 102.679 65.9067 102.388 66.755Z" fill="#008C95"/>
<path d="M162.106 64.3961L161.006 76.9759H158.01L159.11 64.3961H147.326C147.326 64.3961 146.199 77.7182 146.08 79.004C145.934 80.5417 146.809 82.7157 149.42 82.7157H160.502L160.264 85.5126H145.523L144.953 91.9815H168.416C170.007 91.9815 171.544 90.9475 171.743 88.7338C171.876 87.3154 173.904 64.3828 173.904 64.3828H162.119L162.106 64.3961Z" fill="#008C95"/>
<path d="M187.477 77.7049L188.074 70.8649H191.03L190.433 77.7049H187.477ZM192.872 64.3828H176.859L174.434 91.9815H186.218L186.974 83.4447H198.427C200.455 83.4447 201.794 82.4108 202.019 80.0512C202.112 79.1366 203.04 68.6777 203.093 67.7498C203.239 65.7084 201.608 64.3961 199.593 64.3961H192.872V64.3828Z" fill="#008C95"/>
<path d="M130.679 86.2411H127.669L128.266 79.4011H131.275L130.679 86.2411ZM128.77 73.6613L129.022 70.8643H143.789L144.359 64.3955H117.807L115.395 91.9942H119.822C119.822 91.9942 137.492 91.9942 138.924 91.9942C140.355 91.9942 142.039 91.106 142.251 88.7995C142.41 87.063 143.139 78.8576 143.272 77.373C143.444 75.3846 142.185 73.6613 139.706 73.6613H128.809H128.77Z" fill="#008C95"/>
<path d="M84.1868 725.466C84.1868 725.466 84.8761 717.711 84.9424 716.955C85.0485 715.736 84.0675 713.509 81.6814 713.509H62.0628C59.69 713.509 58.5367 715.126 58.3909 716.664C58.2981 717.578 56.6809 736.322 56.5748 737.409C56.4025 739.146 57.6088 741.121 59.796 741.121H79.2954C81.8803 741.121 82.8877 739.755 83.1131 737.648C83.2456 736.388 83.882 728.753 83.882 728.753H72.0975L71.5938 734.652H68.6112L69.897 720.004H72.8795L72.4023 725.492H84.1868V725.466Z" fill="#008C95"/>
<path d="M102.388 715.882C101.964 717.088 98.5304 727.812 98.5304 727.812L100.055 713.522H88.2703L85.8047 741.121H94.6861C96.9131 741.121 97.682 739.862 98.0532 738.841C98.4906 737.635 101.765 728.621 101.765 728.621L100.558 741.121H112.356L114.782 713.522C114.782 713.522 106.325 713.522 105.529 713.522C103.488 713.522 102.679 715.034 102.388 715.882Z" fill="#008C95"/>
<path d="M162.106 713.508L161.006 726.088H158.01L159.11 713.508H147.326C147.326 713.508 146.199 726.831 146.08 728.116C145.934 729.654 146.809 731.828 149.42 731.828H160.502L160.264 734.625H145.523L144.953 741.094H168.416C170.007 741.094 171.544 740.06 171.743 737.846C171.876 736.428 173.904 713.495 173.904 713.495H162.119L162.106 713.508Z" fill="#008C95"/>
<path d="M187.477 726.831L188.074 719.991H191.03L190.433 726.831H187.477ZM192.872 713.509H176.859L174.434 741.107H186.218L186.974 732.571H198.427C200.455 732.571 201.794 731.537 202.019 729.177C202.112 728.263 203.04 717.804 203.093 716.876C203.239 714.834 201.608 713.522 199.593 713.522H192.872V713.509Z" fill="#008C95"/>
<path d="M130.679 735.368H127.669L128.266 728.528H131.275L130.679 735.368ZM128.77 722.788L129.022 719.991H143.789L144.359 713.522H117.807L115.395 741.121H119.822C119.822 741.121 137.492 741.121 138.924 741.121C140.355 741.121 142.039 740.233 142.251 737.926C142.41 736.19 143.139 727.985 143.272 726.5C143.444 724.512 142.185 722.788 139.706 722.788H128.809H128.77Z" fill="#008C95"/>
<path d="M401.64 725.466C401.64 725.466 402.329 717.711 402.396 716.955C402.502 715.736 401.521 713.509 399.135 713.509H379.516C377.143 713.509 375.99 715.126 375.844 716.664C375.751 717.578 374.134 736.322 374.028 737.409C373.856 739.146 375.062 741.121 377.249 741.121H396.749C399.333 741.121 400.341 739.755 400.566 737.648C400.699 736.388 401.335 728.753 401.335 728.753H389.551L389.047 734.652H386.064L387.35 720.004H390.333L389.855 725.492H401.64V725.466Z" fill="#008C95"/>
<path d="M419.841 715.882C419.417 717.088 415.983 727.812 415.983 727.812L417.508 713.522H405.723L403.258 741.121H412.139C414.366 741.121 415.135 739.862 415.506 738.841C415.944 737.635 419.218 728.621 419.218 728.621L418.012 741.121H429.809L432.235 713.522C432.235 713.522 423.778 713.522 422.983 713.522C420.941 713.522 420.133 715.034 419.841 715.882Z" fill="#008C95"/>
<path d="M479.557 713.508L478.457 726.088H475.461L476.562 713.508H464.777C464.777 713.508 463.65 726.831 463.531 728.116C463.385 729.654 464.26 731.828 466.872 731.828H477.953L477.715 734.625H462.974L462.404 741.094H485.867C487.458 741.094 488.995 740.06 489.194 737.846C489.327 736.428 491.355 713.495 491.355 713.495H479.571L479.557 713.508Z" fill="#008C95"/>
<path d="M504.93 726.831L505.527 719.991H508.483L507.887 726.831H504.93ZM510.326 713.509H494.313L491.887 741.107H503.671L504.427 732.571H515.88C517.908 732.571 519.247 731.537 519.472 729.177C519.565 728.263 520.493 717.804 520.546 716.876C520.692 714.834 519.061 713.522 517.046 713.522H510.326V713.509Z" fill="#008C95"/>
<path d="M448.128 735.368H445.119L445.715 728.528H448.724L448.128 735.368ZM446.219 722.788L446.471 719.991H461.238L461.808 713.522H435.256L432.844 741.121H437.271C437.271 741.121 454.941 741.121 456.373 741.121C457.805 741.121 459.488 740.233 459.7 737.926C459.859 736.19 460.588 727.985 460.721 726.5C460.893 724.512 459.634 722.788 457.155 722.788H446.259H446.219Z" fill="#008C95"/>
<path d="M603.047 765.365L1114.14 38.7588" stroke="#FF0000" stroke-width="3.97676" stroke-miterlimit="10"/>
<defs>
<filter id="filter0_d_483_342" x="579.295" y="16.8336" width="567.854" height="781.499" filterUnits="userSpaceOnUse" color-interpolation-filters="sRGB">
<feFlood flood-opacity="0" result="BackgroundImageFix"/>
<feColorMatrix in="SourceAlpha" type="matrix" values="0 0 0 0 0 0 0 0 0 0 0 0 0 0 0 0 0 0 127 0" result="hardAlpha"/>
<feOffset dx="5.30234" dy="5.30234"/>
<feGaussianBlur stdDeviation="13.2559"/>
<feComposite in2="hardAlpha" operator="out"/>
<feColorMatrix type="matrix" values="0 0 0 0 0 0 0 0 0 0 0 0 0 0 0 0 0 0 0.1 0"/>
<feBlend mode="normal" in2="BackgroundImageFix" result="effect1_dropShadow_483_342"/>
<feBlend mode="normal" in="SourceGraphic" in2="effect1_dropShadow_483_342" result="shape"/>
</filter>
<filter id="filter1_d_483_342" x="1132.7" y="16.8336" width="567.854" height="781.499" filterUnits="userSpaceOnUse" color-interpolation-filters="sRGB">
<feFlood flood-opacity="0" result="BackgroundImageFix"/>
<feColorMatrix in="SourceAlpha" type="matrix" values="0 0 0 0 0 0 0 0 0 0 0 0 0 0 0 0 0 0 127 0" result="hardAlpha"/>
<feOffset dy="5.30234"/>
<feGaussianBlur stdDeviation="13.2559"/>
<feComposite in2="hardAlpha" operator="out"/>
<feColorMatrix type="matrix" values="0 0 0 0 0 0 0 0 0 0 0 0 0 0 0 0 0 0 0.1 0"/>
<feBlend mode="normal" in2="BackgroundImageFix" result="effect1_dropShadow_483_342"/>
<feBlend mode="normal" in="SourceGraphic" in2="effect1_dropShadow_483_342" result="shape"/>
</filter>
<filter id="filter2_d_483_342" x="4.89454" y="16.2516" width="567.854" height="781.499" filterUnits="userSpaceOnUse" color-interpolation-filters="sRGB">
<feFlood flood-opacity="0" result="BackgroundImageFix"/>
<feColorMatrix in="SourceAlpha" type="matrix" values="0 0 0 0 0 0 0 0 0 0 0 0 0 0 0 0 0 0 127 0" result="hardAlpha"/>
<feOffset dy="5.30234"/>
<feGaussianBlur stdDeviation="13.2559"/>
<feComposite in2="hardAlpha" operator="out"/>
<feColorMatrix type="matrix" values="0 0 0 0 0 0 0 0 0 0 0 0 0 0 0 0 0 0 0.1 0"/>
<feBlend mode="normal" in2="BackgroundImageFix" result="effect1_dropShadow_483_342"/>
<feBlend mode="normal" in="SourceGraphic" in2="effect1_dropShadow_483_342" result="shape"/>
</filter>
</defs>
</svg>
