<svg width="355" height="230" viewBox="0 0 355 230" fill="none" xmlns="http://www.w3.org/2000/svg">
<path d="M292.735 177.631H241.449V228.917H292.735V177.631Z" fill="#77E2C3"/>
<path d="M292.477 228.763L241.398 177.684H292.582V228.763" fill="#008C95"/>
<path d="M286.905 183.468H247.066V223.287H286.905V183.468Z" stroke="#E6007E" stroke-width="0.151487"/>
<path d="M258.483 177.769H241.48V194.771H258.483V177.769Z" stroke="#999999" stroke-width="0.0688579" stroke-miterlimit="10"/>
<path d="M275.491 177.769H258.488V194.771H275.491V177.769Z" stroke="#999999" stroke-width="0.0688579" stroke-miterlimit="10"/>
<path d="M292.491 177.769H275.488V194.771H292.491V177.769Z" stroke="#999999" stroke-width="0.0688579" stroke-miterlimit="10"/>
<path d="M258.483 194.774H241.48V211.777H258.483V194.774Z" stroke="#999999" stroke-width="0.0688579" stroke-miterlimit="10"/>
<path d="M275.491 194.774H258.488V211.777H275.491V194.774Z" stroke="#999999" stroke-width="0.0688579" stroke-miterlimit="10"/>
<path d="M292.491 194.774H275.488V211.777H292.491V194.774Z" stroke="#999999" stroke-width="0.0688579" stroke-miterlimit="10"/>
<path d="M258.483 211.777H241.48V228.779H258.483V211.777Z" stroke="#999999" stroke-width="0.0688579" stroke-miterlimit="10"/>
<path d="M275.491 211.777H258.488V228.779H275.491V211.777Z" stroke="#999999" stroke-width="0.0688579" stroke-miterlimit="10"/>
<path d="M292.491 211.777H275.488V228.779H292.491V211.777Z" stroke="#999999" stroke-width="0.0688579" stroke-miterlimit="10"/>
<path d="M252.952 220.111C252.952 220.111 253.095 218.5 253.109 218.343C253.131 218.09 252.927 217.627 252.431 217.627H248.355C247.862 217.627 247.622 217.963 247.592 218.282C247.572 218.473 247.236 222.367 247.214 222.593C247.179 222.954 247.429 223.364 247.884 223.364H251.935C252.472 223.364 252.682 223.081 252.728 222.643C252.756 222.381 252.888 220.794 252.888 220.794H250.44L250.335 222.02H249.715L249.982 218.977H250.602L250.503 220.117H252.952V220.111Z" fill="#008C94"/>
<path d="M256.735 218.12C256.647 218.37 255.933 220.599 255.933 220.599L256.25 217.629H253.801L253.289 223.364H255.134C255.597 223.364 255.757 223.102 255.834 222.89C255.925 222.64 256.605 220.767 256.605 220.767L256.355 223.364H258.806L259.31 217.629C259.31 217.629 257.553 217.629 257.387 217.629C256.963 217.629 256.795 217.943 256.735 218.12Z" fill="#008C94"/>
<path d="M269.141 217.627L268.912 220.241H268.29L268.519 217.627H266.07C266.07 217.627 265.836 220.395 265.811 220.662C265.781 220.982 265.963 221.433 266.505 221.433H268.808L268.755 222.014H265.693L265.574 223.359H270.449C270.78 223.359 271.099 223.144 271.141 222.684C271.168 222.389 271.59 217.624 271.59 217.624H269.141V217.627Z" fill="#008C94"/>
<path d="M274.417 220.395L274.541 218.974H275.155L275.031 220.395H274.417ZM275.538 217.627H272.211L271.707 223.361H274.156L274.31 221.588H276.69C277.111 221.588 277.389 221.373 277.436 220.883C277.453 220.693 277.648 218.519 277.659 218.327C277.689 217.902 277.351 217.63 276.932 217.63H275.536L275.538 217.627Z" fill="#008C94"/>
<path d="M262.613 222.169H261.988L262.112 220.747H262.737L262.613 222.169ZM262.217 219.555L262.269 218.974H265.337L265.456 217.629H259.939L259.438 223.364H260.357C260.357 223.364 264.029 223.364 264.326 223.364C264.624 223.364 264.974 223.179 265.018 222.7C265.051 222.339 265.202 220.634 265.23 220.326C265.266 219.913 265.004 219.555 264.489 219.555H262.225H262.217Z" fill="#008C94"/>
<path d="M58.3244 177.631H7.03906V228.917H58.3244V177.631Z" fill="#77E2C3"/>
<path d="M24.1782 177.769H7.17578V194.772H24.1782V177.769Z" stroke="#999999" stroke-width="0.0688579" stroke-miterlimit="10"/>
<path d="M58.3282 192.703V198.515L37.5469 177.631H43.3365L58.3282 192.703Z" fill="#008C95"/>
<path d="M58.3235 181.912V187.723L48.2812 177.634H54.0708L58.3235 181.912Z" fill="#008C95"/>
<path d="M16.6639 229.065H10.8743L7.13672 225.311V219.494L16.6639 229.065Z" fill="#008C95"/>
<path d="M58.3187 203.852V209.664L26.4375 177.631H32.2271L58.3187 203.852Z" fill="#008C95"/>
<path d="M58.3221 215.005V220.827L15.3438 177.631H21.1278L58.3221 215.005Z" fill="#008C95"/>
<path d="M58.3202 226.165V229.066H55.4227L7.13672 180.543V177.634H10.0288L58.3202 226.165Z" fill="#008C95"/>
<path d="M50.1096 229.065H44.3283L7.13672 191.7V185.883L50.1096 229.065Z" fill="#008C95"/>
<path d="M39.0152 229.065H33.2201L7.13672 202.85V197.038L39.0152 229.065Z" fill="#008C95"/>
<path d="M27.907 229.066H22.123L7.13672 214.008V208.191L27.907 229.066Z" fill="#008C95"/>
<path d="M52.5962 183.468H12.7578V223.287H52.5962V183.468Z" stroke="#E6007E" stroke-width="0.151487"/>
<path d="M41.1821 177.769H24.1797V194.772H41.1821V177.769Z" stroke="#999999" stroke-width="0.0688579" stroke-miterlimit="10"/>
<path d="M58.186 177.769H41.1836V194.772H58.186V177.769Z" stroke="#999999" stroke-width="0.0688579" stroke-miterlimit="10"/>
<path d="M24.1782 194.774H7.17578V211.777H24.1782V194.774Z" stroke="#999999" stroke-width="0.0688579" stroke-miterlimit="10"/>
<path d="M41.1821 194.774H24.1797V211.777H41.1821V194.774Z" stroke="#999999" stroke-width="0.0688579" stroke-miterlimit="10"/>
<path d="M58.186 194.774H41.1836V211.777H58.186V194.774Z" stroke="#999999" stroke-width="0.0688579" stroke-miterlimit="10"/>
<path d="M24.1782 211.777H7.17578V228.779H24.1782V211.777Z" stroke="#999999" stroke-width="0.0688579" stroke-miterlimit="10"/>
<path d="M41.1821 211.777H24.1797V228.779H41.1821V211.777Z" stroke="#999999" stroke-width="0.0688579" stroke-miterlimit="10"/>
<path d="M58.186 211.777H41.1836V228.779H58.186V211.777Z" stroke="#999999" stroke-width="0.0688579" stroke-miterlimit="10"/>
<path d="M18.8617 220.111C18.8617 220.111 19.0049 218.5 19.0187 218.343C19.0407 218.09 18.8369 217.627 18.3411 217.627H14.2648C13.7717 217.627 13.5321 217.963 13.5018 218.282C13.4825 218.473 13.1465 222.367 13.1245 222.593C13.0887 222.954 13.3393 223.364 13.7938 223.364H17.8454C18.3825 223.364 18.5918 223.081 18.6386 222.643C18.6662 222.381 18.7984 220.794 18.7984 220.794H16.3498L16.2451 222.02H15.6254L15.8926 218.977H16.5123L16.4131 220.117H18.8617V220.111Z" fill="white"/>
<path d="M22.641 218.12C22.5528 218.37 21.8395 220.599 21.8395 220.599L22.1562 217.629H19.7076L19.1953 223.364H21.0407C21.5034 223.364 21.6632 223.102 21.7403 222.89C21.8312 222.64 22.5115 220.767 22.5115 220.767L22.2609 223.364H24.7122L25.2163 217.629C25.2163 217.629 23.459 217.629 23.2937 217.629C22.8696 217.629 22.7016 217.943 22.641 218.12Z" fill="white"/>
<path d="M35.0485 217.627L34.8199 220.241H34.1974L34.426 217.627H31.9774C31.9774 217.627 31.7433 220.395 31.7185 220.662C31.6882 220.982 31.87 221.433 32.4126 221.433H34.7152L34.6656 222.014H31.6028L31.4844 223.359H36.3595C36.69 223.359 37.0095 223.144 37.0509 222.684C37.0784 222.389 37.4998 217.624 37.4998 217.624H35.0512L35.0485 217.627Z" fill="white"/>
<path d="M40.3235 220.395L40.4475 218.974H41.0617L40.9377 220.395H40.3235ZM41.4445 217.627H38.1173L37.6133 223.361H40.0619L40.2189 221.588H42.5986C43.02 221.588 43.2982 221.373 43.345 220.883C43.3643 220.693 43.5571 218.519 43.5681 218.327C43.5984 217.902 43.2596 217.63 42.841 217.63H41.4445V217.627Z" fill="white"/>
<path d="M28.5156 222.169H27.8903L28.0143 220.747H28.6395L28.5156 222.169ZM28.119 219.555L28.1713 218.974H31.2396L31.358 217.629H25.8411L25.3398 223.364H26.2598C26.2598 223.364 29.9313 223.364 30.2288 223.364C30.5262 223.364 30.876 223.179 30.9201 222.7C30.9531 222.339 31.1046 220.634 31.1322 220.326C31.168 219.913 30.9063 219.555 30.3913 219.555H28.1272H28.119Z" fill="white"/>
<path d="M7.59766 228.011L57.8722 177.736" stroke="#FF0000" stroke-width="0.826295" stroke-miterlimit="10"/>
<path d="M116.906 177.632H65.6211V228.917H116.906V177.632Z" fill="#008C95"/>
<path d="M91.1549 211.813L116.902 177.632H65.7188L91.1549 211.813Z" fill="#77E2C3"/>
<path d="M111.178 183.468H71.3398V223.287H111.178V183.468Z" stroke="#E6007E" stroke-width="0.151487"/>
<path d="M82.7602 177.77H65.7578V194.772H82.7602V177.77Z" stroke="#999999" stroke-width="0.0688579" stroke-miterlimit="10"/>
<path d="M99.7641 177.77H82.7617V194.772H99.7641V177.77Z" stroke="#999999" stroke-width="0.0688579" stroke-miterlimit="10"/>
<path d="M116.772 177.77H99.7695V194.772H116.772V177.77Z" stroke="#999999" stroke-width="0.0688579" stroke-miterlimit="10"/>
<path d="M82.7602 194.774H65.7578V211.777H82.7602V194.774Z" stroke="#999999" stroke-width="0.0688579" stroke-miterlimit="10"/>
<path d="M99.7641 194.774H82.7617V211.777H99.7641V194.774Z" stroke="#999999" stroke-width="0.0688579" stroke-miterlimit="10"/>
<path d="M116.772 194.774H99.7695V211.777H116.772V194.774Z" stroke="#999999" stroke-width="0.0688579" stroke-miterlimit="10"/>
<path d="M82.7602 211.777H65.7578V228.78H82.7602V211.777Z" stroke="#999999" stroke-width="0.0688579" stroke-miterlimit="10"/>
<path d="M99.7641 211.777H82.7617V228.78H99.7641V211.777Z" stroke="#999999" stroke-width="0.0688579" stroke-miterlimit="10"/>
<path d="M116.772 211.777H99.7695V228.78H116.772V211.777Z" stroke="#999999" stroke-width="0.0688579" stroke-miterlimit="10"/>
<path d="M77.393 220.112C77.393 220.112 77.5362 218.5 77.55 218.343C77.572 218.09 77.3682 217.627 76.8724 217.627H72.796C72.303 217.627 72.0634 217.963 72.0331 218.283C72.0138 218.473 71.6778 222.367 71.6557 222.593C71.6199 222.954 71.8706 223.364 72.325 223.364H76.3766C76.9137 223.364 77.123 223.081 77.1699 222.643C77.1974 222.381 77.3296 220.795 77.3296 220.795H74.881L74.7764 222.02H74.1566L74.4238 218.977H75.0435L74.9444 220.117H77.393V220.112Z" fill="white"/>
<path d="M81.1722 218.12C81.0841 218.371 80.3707 220.599 80.3707 220.599L80.6875 217.63H78.2389L77.7266 223.364H79.572C80.0347 223.364 80.1944 223.102 80.2716 222.89C80.3625 222.64 81.0428 220.767 81.0428 220.767L80.7921 223.364H83.2435L83.7475 217.63C83.7475 217.63 81.9902 217.63 81.825 217.63C81.4008 217.63 81.2328 217.944 81.1722 218.12Z" fill="white"/>
<path d="M93.5797 217.627L93.3511 220.241H92.7286L92.9572 217.627H90.5087C90.5087 217.627 90.2745 220.395 90.2498 220.662C90.2195 220.982 90.4012 221.433 90.9438 221.433H93.2464L93.1969 222.015H90.1341L90.0156 223.359H94.8908C95.2213 223.359 95.5408 223.144 95.5821 222.684C95.6096 222.389 96.0311 217.624 96.0311 217.624H93.5825L93.5797 217.627Z" fill="white"/>
<path d="M98.8509 220.395L98.9748 218.974H99.589L99.4651 220.395H98.8509ZM99.9719 217.627H96.6447L96.1406 223.362H98.5892L98.7462 221.588H101.126C101.547 221.588 101.826 221.373 101.872 220.883C101.892 220.693 102.084 218.52 102.095 218.327C102.126 217.903 101.787 217.63 101.368 217.63H99.9719V217.627Z" fill="white"/>
<path d="M87.0507 222.169H86.4255L86.5494 220.748H87.1747L87.0507 222.169ZM86.6541 219.555L86.7064 218.974H89.7748L89.8932 217.63H84.3763L83.875 223.364H84.7949C84.7949 223.364 88.4664 223.364 88.7639 223.364C89.0614 223.364 89.4112 223.18 89.4552 222.7C89.4883 222.34 89.6398 220.635 89.6673 220.326C89.7031 219.913 89.4415 219.555 88.9264 219.555H86.6624H86.6541Z" fill="white"/>
<path d="M66.1289 228.011L116.401 177.736" stroke="#FF0000" stroke-width="0.826295" stroke-miterlimit="10"/>
<path d="M175.504 177.631H124.219V228.917H175.504V177.631Z" fill="#008C95"/>
<path d="M150.064 177.684L124.316 228.92H175.5L150.064 177.684Z" fill="#77E2C3"/>
<path d="M169.776 183.468H129.938V223.287H169.776V183.468Z" stroke="#E6007E" stroke-width="0.151487"/>
<path d="M141.358 177.769H124.355V194.772H141.358V177.769Z" stroke="#999999" stroke-width="0.0688579" stroke-miterlimit="10"/>
<path d="M158.362 177.769H141.359V194.772H158.362V177.769Z" stroke="#999999" stroke-width="0.0688579" stroke-miterlimit="10"/>
<path d="M175.37 177.769H158.367V194.772H175.37V177.769Z" stroke="#999999" stroke-width="0.0688579" stroke-miterlimit="10"/>
<path d="M141.358 194.774H124.355V211.777H141.358V194.774Z" stroke="#999999" stroke-width="0.0688579" stroke-miterlimit="10"/>
<path d="M158.362 194.774H141.359V211.777H158.362V194.774Z" stroke="#999999" stroke-width="0.0688579" stroke-miterlimit="10"/>
<path d="M175.37 194.774H158.367V211.777H175.37V194.774Z" stroke="#999999" stroke-width="0.0688579" stroke-miterlimit="10"/>
<path d="M141.358 211.777H124.355V228.779H141.358V211.777Z" stroke="#999999" stroke-width="0.0688579" stroke-miterlimit="10"/>
<path d="M158.362 211.777H141.359V228.779H158.362V211.777Z" stroke="#999999" stroke-width="0.0688579" stroke-miterlimit="10"/>
<path d="M175.37 211.777H158.367V228.779H175.37V211.777Z" stroke="#999999" stroke-width="0.0688579" stroke-miterlimit="10"/>
<path d="M135.772 220.111C135.772 220.111 135.915 218.5 135.929 218.343C135.951 218.09 135.747 217.627 135.251 217.627H131.175C130.682 217.627 130.442 217.963 130.412 218.282C130.393 218.473 130.057 222.367 130.035 222.593C129.999 222.954 130.249 223.364 130.704 223.364H134.756C135.293 223.364 135.502 223.081 135.549 222.643C135.576 222.381 135.709 220.794 135.709 220.794H133.26L133.155 222.02H132.536L132.803 218.977H133.422L133.323 220.117H135.772V220.111Z" fill="white"/>
<path d="M139.555 218.12C139.467 218.37 138.754 220.599 138.754 220.599L139.07 217.629H136.622L136.109 223.364H137.955C138.418 223.364 138.577 223.102 138.654 222.89C138.745 222.64 139.426 220.767 139.426 220.767L139.175 223.364H141.626L142.13 217.629C142.13 217.629 140.373 217.629 140.208 217.629C139.784 217.629 139.616 217.943 139.555 218.12Z" fill="white"/>
<path d="M151.961 217.627L151.733 220.241H151.11L151.339 217.627H148.89C148.89 217.627 148.656 220.395 148.631 220.662C148.601 220.982 148.783 221.433 149.325 221.433H151.628L151.576 222.014H148.513L148.395 223.359H153.27C153.6 223.359 153.92 223.144 153.961 222.684C153.989 222.389 154.41 217.624 154.41 217.624H151.961V217.627Z" fill="white"/>
<path d="M157.238 220.395L157.362 218.974H157.976L157.852 220.395H157.238ZM158.359 217.627H155.031L154.527 223.361H156.976L157.13 221.588H159.51C159.931 221.588 160.209 221.373 160.256 220.883C160.273 220.693 160.468 218.519 160.479 218.327C160.51 217.902 160.171 217.63 159.752 217.63H158.356L158.359 217.627Z" fill="white"/>
<path d="M145.434 222.169H144.808L144.932 220.747H145.557L145.434 222.169ZM145.037 219.555L145.089 218.974H148.158L148.276 217.629H142.759L142.258 223.364H143.178C143.178 223.364 146.849 223.364 147.147 223.364C147.444 223.364 147.794 223.179 147.838 222.7C147.871 222.339 148.023 220.634 148.05 220.326C148.086 219.913 147.824 219.555 147.309 219.555H145.045H145.037Z" fill="white"/>
<path d="M124.508 228.011L174.782 177.736" stroke="#FF0000" stroke-width="0.826295" stroke-miterlimit="10"/>
<path d="M234.098 177.631H182.812V228.917H234.098V177.631Z" fill="#77E2C3"/>
<path d="M200.068 203.354L183.027 177.631V228.762L200.068 203.354Z" fill="white"/>
<path d="M217.11 203.354L200.066 177.631V228.762L217.11 203.354Z" fill="white"/>
<path d="M233.887 203.354L216.844 177.631V228.762L233.887 203.354Z" fill="white"/>
<path d="M228.272 183.468H188.434V223.287H228.272V183.468Z" stroke="#E6007E" stroke-width="0.151487"/>
<path d="M199.846 177.769H182.844V194.772H199.846V177.769Z" stroke="#999999" stroke-width="0.0688579" stroke-miterlimit="10"/>
<path d="M216.858 177.769H199.855V194.772H216.858V177.769Z" stroke="#999999" stroke-width="0.0688579" stroke-miterlimit="10"/>
<path d="M233.858 177.769H216.855V194.772H233.858V177.769Z" stroke="#999999" stroke-width="0.0688579" stroke-miterlimit="10"/>
<path d="M199.846 194.774H182.844V211.777H199.846V194.774Z" stroke="#999999" stroke-width="0.0688579" stroke-miterlimit="10"/>
<path d="M216.858 194.774H199.855V211.777H216.858V194.774Z" stroke="#999999" stroke-width="0.0688579" stroke-miterlimit="10"/>
<path d="M199.846 211.777H182.844V228.779H199.846V211.777Z" stroke="#999999" stroke-width="0.0688579" stroke-miterlimit="10"/>
<path d="M216.858 211.777H199.855V228.779H216.858V211.777Z" stroke="#999999" stroke-width="0.0688579" stroke-miterlimit="10"/>
<path d="M233.858 211.777H216.855V228.779H233.858V211.777Z" stroke="#999999" stroke-width="0.0688579" stroke-miterlimit="10"/>
<path d="M233.858 194.774H216.855V211.777H233.858V194.774Z" stroke="#999999" stroke-width="0.0688579" stroke-miterlimit="10"/>
<path d="M194.589 220.111C194.589 220.111 194.733 218.5 194.746 218.343C194.768 218.09 194.565 217.627 194.072 217.627H189.995C189.502 217.627 189.263 217.963 189.232 218.282C189.213 218.473 188.877 222.367 188.855 222.593C188.819 222.954 189.07 223.364 189.524 223.364H193.576C194.113 223.364 194.322 223.081 194.369 222.643C194.397 222.381 194.529 220.794 194.529 220.794H192.08L191.976 222.02H191.356L191.623 218.977H192.243L192.144 220.117H194.592L194.589 220.111Z" fill="#008C94"/>
<path d="M198.375 218.12C198.287 218.37 197.574 220.599 197.574 220.599L197.891 217.629H195.442L194.93 223.364H196.775C197.238 223.364 197.398 223.102 197.475 222.89C197.566 222.64 198.246 220.767 198.246 220.767L197.995 223.364H200.447L200.951 217.629C200.951 217.629 199.193 217.629 199.028 217.629C198.604 217.629 198.436 217.943 198.375 218.12Z" fill="#008C94"/>
<path d="M210.778 217.627L210.549 220.241H209.927L210.155 217.627H207.707C207.707 217.627 207.473 220.395 207.448 220.662C207.418 220.982 207.599 221.433 208.142 221.433H210.445L210.392 222.014H207.329L207.211 223.359H212.086C212.417 223.359 212.736 223.144 212.777 222.684C212.805 222.389 213.226 217.624 213.226 217.624H210.778V217.627Z" fill="#008C94"/>
<path d="M216.049 220.395L216.173 218.974H216.787L216.663 220.395H216.049ZM217.167 217.627H213.84L213.336 223.361H215.785L215.939 221.588H218.319C218.74 221.588 219.018 221.373 219.065 220.883C219.081 220.693 219.277 218.519 219.288 218.327C219.318 217.902 218.98 217.63 218.561 217.63H217.164L217.167 217.627Z" fill="#008C94"/>
<path d="M204.25 222.169H203.625L203.749 220.747H204.374L204.25 222.169ZM203.853 219.555L203.906 218.974H206.974L207.092 217.629H201.575L201.074 223.364H201.994C201.994 223.364 205.666 223.364 205.963 223.364C206.261 223.364 206.61 223.179 206.654 222.7C206.688 222.339 206.839 220.634 206.867 220.326C206.902 219.913 206.641 219.555 206.126 219.555H203.862H203.853Z" fill="#008C94"/>
<path d="M183.332 228.011L233.604 177.736" stroke="#FF0000" stroke-width="0.826295" stroke-miterlimit="10"/>
<path d="M351.274 177.632H299.988V228.917H351.274V177.632Z" fill="white"/>
<path d="M345.545 183.468H305.707V223.287H345.545V183.468Z" stroke="#E6007E" stroke-width="0.151487"/>
<path d="M317.127 177.77H300.125V194.772H317.127V177.77Z" stroke="#999999" stroke-width="0.0688579" stroke-miterlimit="10"/>
<path d="M334.131 177.77H317.129V194.772H334.131V177.77Z" stroke="#999999" stroke-width="0.0688579" stroke-miterlimit="10"/>
<path d="M351.131 177.77H334.129V194.772H351.131V177.77Z" stroke="#999999" stroke-width="0.0688579" stroke-miterlimit="10"/>
<path d="M317.127 194.774H300.125V211.777H317.127V194.774Z" stroke="#999999" stroke-width="0.0688579" stroke-miterlimit="10"/>
<path d="M334.131 194.774H317.129V211.777H334.131V194.774Z" stroke="#999999" stroke-width="0.0688579" stroke-miterlimit="10"/>
<path d="M351.131 194.774H334.129V211.777H351.131V194.774Z" stroke="#999999" stroke-width="0.0688579" stroke-miterlimit="10"/>
<path d="M317.127 211.777H300.125V228.78H317.127V211.777Z" stroke="#999999" stroke-width="0.0688579" stroke-miterlimit="10"/>
<path d="M334.131 211.777H317.129V228.78H334.131V211.777Z" stroke="#999999" stroke-width="0.0688579" stroke-miterlimit="10"/>
<path d="M351.131 211.777H334.129V228.78H351.131V211.777Z" stroke="#999999" stroke-width="0.0688579" stroke-miterlimit="10"/>
<path d="M325.501 185.057C315.371 185.057 307.16 193.271 307.16 203.398C307.16 213.526 315.371 221.739 325.501 221.739C335.632 221.739 343.842 213.529 343.842 203.398C343.842 193.268 335.632 185.057 325.501 185.057ZM325.501 194.188C330.58 194.188 334.712 198.319 334.712 203.398C334.712 208.477 330.58 212.609 325.501 212.609C320.422 212.609 316.291 208.477 316.291 203.398C316.291 198.319 320.422 194.188 325.501 194.188Z" fill="#77E2C3"/>
<path d="M311.543 220.111C311.543 220.111 311.686 218.5 311.7 218.343C311.722 218.09 311.518 217.627 311.025 217.627H306.948C306.455 217.627 306.216 217.963 306.185 218.282C306.166 218.473 305.83 222.367 305.808 222.593C305.772 222.954 306.023 223.364 306.477 223.364H310.529C311.066 223.364 311.275 223.081 311.322 222.643C311.35 222.381 311.482 220.794 311.482 220.794H309.033L308.929 222.02H308.309L308.576 218.977H309.196L309.097 220.117H311.545L311.543 220.111Z" fill="#008C94"/>
<path d="M315.325 218.12C315.236 218.371 314.523 220.599 314.523 220.599L314.84 217.63H312.391L311.879 223.364H313.724C314.187 223.364 314.347 223.102 314.424 222.89C314.515 222.64 315.195 220.767 315.195 220.767L314.944 223.364H317.396L317.9 217.63C317.9 217.63 316.143 217.63 315.977 217.63C315.553 217.63 315.385 217.944 315.325 218.12Z" fill="#008C94"/>
<path d="M327.731 217.627L327.502 220.241H326.88L327.108 217.627H324.66C324.66 217.627 324.426 220.395 324.401 220.662C324.371 220.982 324.552 221.433 325.095 221.433H327.398L327.345 222.015H324.282L324.164 223.359H329.039C329.37 223.359 329.689 223.144 329.731 222.684C329.758 222.389 330.179 217.624 330.179 217.624H327.731V217.627Z" fill="#008C94"/>
<path d="M332.998 220.395L333.122 218.974H333.736L333.612 220.395H332.998ZM334.116 217.627H330.789L330.285 223.361H332.734L332.888 221.588H335.268C335.689 221.588 335.967 221.373 336.014 220.883C336.031 220.693 336.226 218.519 336.237 218.327C336.268 217.902 335.929 217.63 335.51 217.63H334.114L334.116 217.627Z" fill="#008C94"/>
<path d="M321.199 222.169H320.574L320.698 220.748H321.323L321.199 222.169ZM320.803 219.555L320.855 218.974H323.923L324.042 217.63H318.525L318.023 223.364H318.943C318.943 223.364 322.615 223.364 322.912 223.364C323.21 223.364 323.56 223.18 323.604 222.7C323.637 222.34 323.788 220.635 323.816 220.326C323.852 219.913 323.59 219.555 323.075 219.555H320.811H320.803Z" fill="#008C94"/>
<path d="M300.277 228.011L350.549 177.736" stroke="#FF0000" stroke-width="0.826295" stroke-miterlimit="10"/>
<g filter="url(#filter0_d_1267_3849)">
<path d="M232.546 10.9048H125.574V162.268H232.546V10.9048Z" fill="white"/>
</g>
<path d="M178.975 61.5239H125.668V112.148H178.975V61.5239Z" fill="#008C95"/>
<path d="M178.975 11.1748H125.668V61.7991H178.975V11.1748Z" fill="#00313C"/>
<g filter="url(#filter1_d_1267_3849)">
<path d="M348.628 10.9048H241.656V162.268H348.628V10.9048Z" fill="white"/>
</g>
<g filter="url(#filter2_d_1267_3849)">
<path d="M114.296 10.7837H7.32422V162.147H114.296V10.7837Z" fill="white"/>
</g>
<path d="M259.516 10.8135V162.359" stroke="#999999" stroke-width="0.0908924"/>
<path d="M277.375 10.8135V162.359" stroke="#999999" stroke-width="0.0908924"/>
<path d="M295.055 10.8135V162.359" stroke="#999999" stroke-width="0.0908924"/>
<path d="M312.914 10.8135V162.359" stroke="#999999" stroke-width="0.0908924"/>
<path d="M330.77 10.8135V162.359" stroke="#999999" stroke-width="0.0908924"/>
<path d="M348.721 27.563H241.57" stroke="#999999" stroke-width="0.0908924"/>
<path d="M348.721 44.4028H241.57" stroke="#999999" stroke-width="0.0908924"/>
<path d="M348.721 61.4192H241.57" stroke="#999999" stroke-width="0.0908924"/>
<path d="M348.721 78.0771H241.57" stroke="#999999" stroke-width="0.0908924"/>
<path d="M348.721 94.917H241.57" stroke="#999999" stroke-width="0.0908924"/>
<path d="M348.721 111.754H241.57" stroke="#999999" stroke-width="0.0908924"/>
<path d="M348.721 128.773H241.57" stroke="#999999" stroke-width="0.0908924"/>
<path d="M348.721 145.61H241.57" stroke="#999999" stroke-width="0.0908924"/>
<path d="M143.43 10.8135V162.359" stroke="#999999" stroke-width="0.0908924"/>
<path d="M161.285 10.8135V162.359" stroke="#999999" stroke-width="0.0908924"/>
<path d="M178.969 10.8135V162.359" stroke="#999999" stroke-width="0.0908924"/>
<path d="M196.832 10.8135V162.359" stroke="#999999" stroke-width="0.0908924"/>
<path d="M214.68 10.8135V162.359" stroke="#999999" stroke-width="0.0908924"/>
<path d="M232.636 27.563H125.484" stroke="#999999" stroke-width="0.0908924"/>
<path d="M232.636 44.4028H125.484" stroke="#999999" stroke-width="0.0908924"/>
<path d="M232.636 61.4189H125.484" stroke="#999999" stroke-width="0.0908924"/>
<path d="M232.636 78.0771H125.484" stroke="#999999" stroke-width="0.0908924"/>
<path d="M232.636 94.917H125.484" stroke="#999999" stroke-width="0.0908924"/>
<path d="M232.636 111.754H125.484" stroke="#999999" stroke-width="0.0908924"/>
<path d="M232.636 128.773H125.484" stroke="#999999" stroke-width="0.0908924"/>
<path d="M232.636 145.61H125.484" stroke="#999999" stroke-width="0.0908924"/>
<path d="M295.061 111.735H241.754V162.359H295.061V111.735Z" fill="#77E2C3"/>
<path d="M295.061 10.4585H241.754V61.0828H295.061V10.4585Z" fill="#77E2C3"/>
<path d="M178.975 111.735H125.668V162.359H178.975V111.735Z" fill="#77E2C3"/>
<path d="M348.72 111.735H295.066V162.359H348.72V111.735Z" fill="#008C95"/>
<path d="M343.277 16.262H247.02V156.911H343.277V16.262Z" stroke="#E6007E" stroke-width="0.151487"/>
<path d="M227.188 16.262H130.93V156.911H227.188V16.262Z" stroke="#E6007E" stroke-width="0.151487"/>
<path d="M241.633 117.299H348.721" stroke="#E6007E" stroke-width="0.151487"/>
<path d="M289.355 111.79V162.359" stroke="#E6007E" stroke-width="0.151487"/>
<path d="M301.078 111.79V162.359" stroke="#E6007E" stroke-width="0.151487"/>
<path d="M289.284 117.376H246.867V156.886H289.284V117.376Z" stroke="#E6007E" stroke-width="0.151487"/>
<path d="M242.098 162.028L348.293 11.0532" stroke="#FF0000" stroke-width="0.826295" stroke-miterlimit="10"/>
<path d="M264.569 153.292C264.569 153.292 264.712 151.681 264.726 151.524C264.748 151.27 264.544 150.808 264.048 150.808H259.972C259.479 150.808 259.239 151.144 259.209 151.463C259.19 151.653 258.854 155.548 258.832 155.774C258.796 156.134 259.046 156.545 259.501 156.545H263.552C264.089 156.545 264.299 156.261 264.346 155.823C264.373 155.562 264.505 153.975 264.505 153.975H262.057L261.952 155.201H261.332L261.6 152.157H262.219L262.12 153.298H264.569V153.292Z" fill="white"/>
<path d="M268.356 151.301C268.268 151.551 267.554 153.78 267.554 153.78L267.871 150.811H265.422L264.91 156.545H266.756C267.218 156.545 267.378 156.283 267.455 156.071C267.546 155.821 268.226 153.948 268.226 153.948L267.976 156.545H270.427L270.931 150.811C270.931 150.811 269.174 150.811 269.009 150.811C268.584 150.811 268.416 151.125 268.356 151.301Z" fill="white"/>
<path d="M280.766 150.807L280.537 153.421H279.915L280.144 150.807H277.695C277.695 150.807 277.461 153.576 277.436 153.843C277.406 154.162 277.588 154.614 278.13 154.614H280.433L280.38 155.195H277.318L277.199 156.539H282.074C282.405 156.539 282.724 156.324 282.766 155.864C282.793 155.57 283.215 150.805 283.215 150.805H280.766V150.807Z" fill="white"/>
<path d="M286.038 153.576L286.162 152.154H286.777L286.653 153.576H286.038ZM287.159 150.808H283.832L283.328 156.542H285.777L285.931 154.768H288.311C288.732 154.768 289.01 154.553 289.057 154.063C289.074 153.873 289.269 151.7 289.28 151.507C289.311 151.083 288.972 150.81 288.553 150.81H287.157L287.159 150.808Z" fill="white"/>
<path d="M274.234 155.35H273.609L273.733 153.928H274.358L274.234 155.35ZM273.838 152.736L273.89 152.155H276.958L277.077 150.811H271.56L271.059 156.545H271.979C271.979 156.545 275.65 156.545 275.948 156.545C276.245 156.545 276.595 156.36 276.639 155.881C276.672 155.52 276.823 153.816 276.851 153.507C276.887 153.094 276.625 152.736 276.11 152.736H273.846H273.838Z" fill="white"/>
<path d="M136.854 120.681C136.854 120.681 136.997 119.07 137.011 118.913C137.033 118.659 136.829 118.197 136.333 118.197H132.257C131.764 118.197 131.524 118.533 131.494 118.852C131.475 119.042 131.139 122.937 131.117 123.163C131.081 123.523 131.331 123.934 131.786 123.934H135.838C136.375 123.934 136.584 123.65 136.631 123.212C136.658 122.95 136.791 121.364 136.791 121.364H134.342L134.237 122.59H133.618L133.885 119.546H134.504L134.405 120.686H136.854V120.681Z" fill="white"/>
<path d="M140.637 118.689C140.549 118.94 139.836 121.168 139.836 121.168L140.152 118.199H137.704L137.191 123.934H139.037C139.5 123.934 139.659 123.672 139.736 123.46C139.827 123.209 140.508 121.336 140.508 121.336L140.257 123.934H142.708L143.212 118.199C143.212 118.199 141.455 118.199 141.29 118.199C140.866 118.199 140.698 118.513 140.637 118.689Z" fill="white"/>
<path d="M153.043 118.196L152.815 120.81H152.192L152.421 118.196H149.972C149.972 118.196 149.738 120.964 149.713 121.232C149.683 121.551 149.865 122.003 150.408 122.003H152.71L152.658 122.584H149.595L149.477 123.928H154.352C154.682 123.928 155.002 123.713 155.043 123.253C155.071 122.959 155.492 118.194 155.492 118.194H153.043V118.196Z" fill="white"/>
<path d="M158.316 120.965L158.44 119.543H159.054L158.93 120.965H158.316ZM159.437 118.197H156.109L155.605 123.931H158.054L158.208 122.157H160.588C161.009 122.157 161.288 121.942 161.334 121.452C161.351 121.262 161.547 119.089 161.558 118.896C161.588 118.472 161.249 118.199 160.83 118.199H159.434L159.437 118.197Z" fill="white"/>
<path d="M146.519 122.738H145.894L146.018 121.317H146.643L146.519 122.738ZM146.123 120.124L146.175 119.543H149.244L149.362 118.199H143.845L143.344 123.934H144.264C144.264 123.934 147.935 123.934 148.233 123.934C148.53 123.934 148.88 123.749 148.924 123.27C148.957 122.909 149.109 121.204 149.136 120.896C149.172 120.483 148.91 120.124 148.395 120.124H146.131H146.123Z" fill="white"/>
<path d="M136.854 69.4531C136.854 69.4531 136.997 67.8419 137.011 67.6849C137.033 67.4315 136.829 66.9688 136.333 66.9688H132.257C131.764 66.9688 131.524 67.3048 131.494 67.6243C131.475 67.8143 131.139 71.7089 131.117 71.9348C131.081 72.2956 131.331 72.706 131.786 72.706H135.838C136.375 72.706 136.584 72.4223 136.631 71.9844C136.658 71.7227 136.791 70.1362 136.791 70.1362H134.342L134.237 71.3619H133.618L133.885 68.3184H134.504L134.405 69.4587H136.854V69.4531Z" fill="white"/>
<path d="M140.637 67.459C140.549 67.7097 139.836 69.9379 139.836 69.9379L140.152 66.9688H137.704L137.191 72.7032H139.037C139.5 72.7032 139.659 72.4416 139.736 72.2295C139.827 71.9789 140.508 70.1059 140.508 70.1059L140.257 72.7032H142.708L143.212 66.9688C143.212 66.9688 141.455 66.9688 141.29 66.9688C140.866 66.9688 140.698 67.2827 140.637 67.459Z" fill="white"/>
<path d="M153.043 66.9686L152.815 69.5824H152.192L152.421 66.9686H149.972C149.972 66.9686 149.738 69.7367 149.713 70.0038C149.683 70.3233 149.865 70.775 150.408 70.775H152.71L152.658 71.3562H149.595L149.477 72.7003H154.352C154.682 72.7003 155.002 72.4855 155.043 72.0255C155.071 71.7308 155.492 66.9658 155.492 66.9658H153.043V66.9686Z" fill="white"/>
<path d="M158.316 69.7368L158.44 68.3156H159.054L158.93 69.7368H158.316ZM159.437 66.9688H156.109L155.605 72.7032H158.054L158.208 70.9295H160.588C161.009 70.9295 161.288 70.7146 161.334 70.2244C161.351 70.0343 161.547 67.8612 161.558 67.6683C161.588 67.2442 161.249 66.9715 160.83 66.9715H159.434L159.437 66.9688Z" fill="white"/>
<path d="M146.519 71.5079H145.894L146.018 70.0866H146.643L146.519 71.5079ZM146.123 68.894L146.175 68.3129H149.244L149.362 66.9688H143.845L143.344 72.7032H144.264C144.264 72.7032 147.935 72.7032 148.233 72.7032C148.53 72.7032 148.88 72.5187 148.924 72.0394C148.957 71.6786 149.109 69.9737 149.136 69.6652C149.172 69.2521 148.91 68.894 148.395 68.894H146.131H146.123Z" fill="white"/>
<path d="M306.897 153.292C306.897 153.292 307.04 151.681 307.054 151.524C307.076 151.27 306.872 150.808 306.376 150.808H302.3C301.807 150.808 301.567 151.144 301.537 151.463C301.518 151.653 301.182 155.548 301.16 155.774C301.124 156.134 301.374 156.545 301.829 156.545H305.881C306.418 156.545 306.627 156.261 306.674 155.823C306.701 155.562 306.834 153.975 306.834 153.975H304.385L304.28 155.201H303.661L303.928 152.157H304.547L304.448 153.298H306.897V153.292Z" fill="white"/>
<path d="M310.68 151.301C310.592 151.551 309.879 153.78 309.879 153.78L310.195 150.811H307.747L307.234 156.545H309.08C309.542 156.545 309.702 156.283 309.779 156.071C309.87 155.821 310.551 153.948 310.551 153.948L310.3 156.545H312.751L313.255 150.811C313.255 150.811 311.498 150.811 311.333 150.811C310.909 150.811 310.741 151.125 310.68 151.301Z" fill="white"/>
<path d="M323.086 150.807L322.858 153.421H322.235L322.464 150.807H320.015C320.015 150.807 319.781 153.576 319.756 153.843C319.726 154.162 319.908 154.614 320.45 154.614H322.753L322.701 155.195H319.638L319.52 156.539H324.395C324.725 156.539 325.045 156.324 325.086 155.864C325.114 155.57 325.535 150.805 325.535 150.805H323.086V150.807Z" fill="white"/>
<path d="M328.359 153.576L328.483 152.154H329.097L328.973 153.576H328.359ZM329.48 150.808H326.152L325.648 156.542H328.097L328.251 154.768H330.631C331.052 154.768 331.331 154.553 331.377 154.063C331.394 153.873 331.589 151.7 331.601 151.507C331.631 151.083 331.292 150.81 330.873 150.81H329.477L329.48 150.808Z" fill="white"/>
<path d="M316.555 155.35H315.929L316.053 153.928H316.679L316.555 155.35ZM316.158 152.736L316.21 152.155H319.279L319.397 150.811H313.88L313.379 156.545H314.299C314.299 156.545 317.97 156.545 318.268 156.545C318.565 156.545 318.915 156.36 318.959 155.881C318.992 155.52 319.144 153.816 319.171 153.507C319.207 153.094 318.945 152.736 318.43 152.736H316.166H316.158Z" fill="white"/>
<path d="M257.268 20.7267C257.268 20.7267 257.518 17.9063 257.54 17.6308C257.579 17.1874 257.221 16.3804 256.356 16.3804H249.222C248.357 16.3804 247.939 16.967 247.886 17.5262C247.853 17.8567 247.264 24.6764 247.228 25.0675C247.168 25.6982 247.606 26.4143 248.399 26.4143H255.491C256.433 26.4143 256.797 25.9158 256.879 25.1501C256.926 24.6929 257.16 21.9165 257.16 21.9165H252.875L252.69 24.0622H251.605L252.073 18.7353H253.158L252.987 20.7294H257.273L257.268 20.7267Z" fill="#008C95"/>
<path d="M263.881 17.2397C263.727 17.6804 262.482 21.5778 262.482 21.5778L263.035 16.3804H258.749L257.852 26.4143H261.08C261.889 26.4143 262.168 25.9544 262.303 25.588C262.465 25.1474 263.652 21.8697 263.652 21.8697L263.214 26.4143H267.503L268.387 16.3804C268.387 16.3804 265.313 16.3804 265.021 16.3804C264.277 16.3804 263.985 16.9285 263.878 17.2397" fill="#008C95"/>
<path d="M285.593 16.3804L285.191 20.9553H284.103L284.505 16.3804H280.219C280.219 16.3804 279.809 21.2252 279.765 21.6934C279.712 22.2526 280.029 23.0431 280.979 23.0431H285.009L284.921 24.0622H279.558L279.352 26.4143H287.882C288.46 26.4143 289.016 26.037 289.094 25.2327C289.143 24.7149 289.881 16.3804 289.881 16.3804H285.596H285.593Z" fill="#008C95"/>
<path d="M294.829 21.2225L295.046 18.7326H296.121L295.903 21.2225H294.829ZM296.787 16.3804H290.965L290.086 26.4143H294.372L294.644 23.3102H298.809C299.544 23.3102 300.035 22.9356 300.114 22.0763C300.145 21.743 300.483 17.9393 300.506 17.6033C300.558 16.8624 299.966 16.3831 299.23 16.3831H296.784L296.787 16.3804Z" fill="#008C95"/>
<path d="M274.169 24.3263H273.076L273.293 21.8364H274.387L274.169 24.3263ZM273.478 19.7513L273.566 18.735H278.934L279.141 16.3828H269.484L268.605 26.4168H270.214C270.214 26.4168 276.64 26.4168 277.158 26.4168C277.675 26.4168 278.29 26.0945 278.367 25.2572C278.425 24.6292 278.689 21.6436 278.736 21.1037C278.799 20.3793 278.339 19.7541 277.436 19.7541H273.472L273.478 19.7513Z" fill="#008C95"/>
<path d="M114.246 10.9048H7.27344V162.268H114.246V10.9048Z" fill="white"/>
<path d="M25.125 10.8135V162.359" stroke="#999999" stroke-width="0.0908924"/>
<path d="M42.9844 10.8135V162.359" stroke="#999999" stroke-width="0.0908924"/>
<path d="M60.668 10.8135V162.359" stroke="#999999" stroke-width="0.0908924"/>
<path d="M78.5273 10.8135V162.359" stroke="#999999" stroke-width="0.0908924"/>
<path d="M96.3789 10.8135V162.359" stroke="#999999" stroke-width="0.0908924"/>
<path d="M114.331 27.563H7.17969" stroke="#999999" stroke-width="0.0908924"/>
<path d="M114.331 44.4028H7.17969" stroke="#999999" stroke-width="0.0908924"/>
<path d="M114.331 61.4189H7.17969" stroke="#999999" stroke-width="0.0908924"/>
<path d="M114.331 78.0771H7.17969" stroke="#999999" stroke-width="0.0908924"/>
<path d="M114.331 94.917H7.17969" stroke="#999999" stroke-width="0.0908924"/>
<path d="M114.331 111.754H7.17969" stroke="#999999" stroke-width="0.0908924"/>
<path d="M114.331 128.773H7.17969" stroke="#999999" stroke-width="0.0908924"/>
<path d="M114.331 145.61H7.17969" stroke="#999999" stroke-width="0.0908924"/>
<path d="M93.9609 156.809H95.2141C95.619 156.809 95.6906 156.545 95.7127 156.3C95.732 156.079 96.0212 152.799 96.0212 152.799H94.7735C94.4182 152.799 94.2942 153.003 94.2639 153.336C94.2501 153.501 93.9609 156.809 93.9609 156.809Z" fill="white"/>
<path d="M102.629 155.867H102.192L102.461 152.796H100.751C100.751 152.796 100.459 156.192 100.443 156.36C100.426 156.528 100.591 156.806 100.889 156.806H103.852C104.106 156.806 104.279 156.603 104.296 156.404C104.312 156.206 104.61 152.796 104.61 152.796H102.899L102.632 155.867H102.629Z" fill="white"/>
<path d="M90.467 152.796C90.1613 152.796 89.9933 152.956 89.963 153.328C89.9464 153.512 89.839 154.719 89.8252 154.892C89.8115 155.066 89.8748 155.217 90.0924 155.217H91.9488L91.8827 155.972H91.4393L91.4696 155.625H89.7591C89.7591 155.625 89.7096 156.225 89.6875 156.432C89.6655 156.638 89.7316 156.806 89.9988 156.806C90.2659 156.806 92.8219 156.806 93.0368 156.806C93.5188 156.806 93.5436 156.454 93.5711 156.187C93.5986 155.939 93.6951 154.771 93.7088 154.625C93.7226 154.479 93.6179 154.385 93.4775 154.385H91.577L91.6431 153.631H92.0838L92.0535 153.978H93.7639C93.7639 153.978 93.819 153.306 93.8383 153.116C93.8576 152.926 93.7612 152.796 93.5601 152.796C93.359 152.796 90.6433 152.796 90.4615 152.796" fill="white"/>
<path d="M96.4592 152.796L96.1094 156.806H99.5302C99.8194 156.806 99.982 156.627 100.007 156.319C100.018 156.192 100.056 155.768 100.087 155.418C100.098 155.292 100.067 155.181 99.9599 155.102C99.8663 155.033 99.5578 154.804 99.5578 154.804C99.5578 154.804 99.9461 154.551 100.045 154.485C100.147 154.418 100.183 154.339 100.194 154.184C100.222 153.835 100.26 153.435 100.268 153.325C100.29 153.036 100.128 152.796 99.7781 152.796H96.4592ZM98.5332 153.631L98.4671 154.385H98.0291L98.0952 153.631H98.5332ZM97.9575 155.22H98.3955L98.3294 155.975H97.8942L97.9603 155.22H97.9575Z" fill="white"/>
<path d="M108.421 152.796C108.231 152.796 105.041 152.796 105.041 152.796L104.691 156.806H106.402L106.509 155.564H106.944L106.837 156.806H108.547C108.547 156.806 108.622 155.925 108.636 155.793C108.649 155.663 108.622 155.526 108.498 155.435C108.374 155.344 108.107 155.148 108.107 155.148C108.107 155.148 108.454 154.925 108.564 154.851C108.674 154.777 108.732 154.697 108.751 154.468C108.771 154.239 108.842 153.427 108.856 153.275C108.875 153.014 108.655 152.796 108.424 152.796H108.421ZM106.586 154.732L106.675 153.738H107.11L107.022 154.732H106.586Z" fill="white"/>
<path d="M60.7567 10.8169H7.17969V61.5514H60.7567V10.8169Z" stroke="#999999" stroke-width="0.275432" stroke-miterlimit="10"/>
<path d="M60.7567 61.2209H7.17969V111.955H60.7567V61.2209Z" stroke="#999999" stroke-width="0.275432" stroke-miterlimit="10"/>
<path d="M60.7567 111.534H7.17969V162.268H60.7567V111.534Z" stroke="#999999" stroke-width="0.275432" stroke-miterlimit="10"/>
<path d="M114.245 10.8169H60.668V61.5514H114.245V10.8169Z" stroke="#999999" stroke-width="0.275432" stroke-miterlimit="10"/>
<path d="M114.245 61.2209H60.668V111.955H114.245V61.2209Z" stroke="#999999" stroke-width="0.275432" stroke-miterlimit="10"/>
<path d="M114.245 111.534H60.668V162.268H114.245V111.534Z" stroke="#999999" stroke-width="0.275432" stroke-miterlimit="10"/>
<path d="M108.884 16.262H12.6289V156.911H108.884V16.262Z" stroke="#E6007E" stroke-width="0.151487"/>
<path d="M12.5516 10.679H7.04297V16.1876H12.5516V10.679Z" fill="#E6007E"/>
<path d="M14.5762 2.83008L15.2705 3.98438L15.9736 2.83008H16.6094L15.5723 4.39453L16.6416 6H16.0146L15.2822 4.81055L14.5498 6H13.9199L14.9863 4.39453L13.9521 2.83008H14.5762ZM21.1504 3.14355V3.61523H18.707V3.14355H21.1504ZM21.1504 4.35938V4.83105H18.707V4.35938H21.1504ZM24.083 3.96973L23.6494 3.8584L23.8633 1.73438H26.0518V2.23535H24.3232L24.1943 3.39551C24.2725 3.35059 24.3711 3.30859 24.4902 3.26953C24.6113 3.23047 24.75 3.21094 24.9062 3.21094C25.1035 3.21094 25.2803 3.24512 25.4365 3.31348C25.5928 3.37988 25.7256 3.47559 25.835 3.60059C25.9463 3.72559 26.0312 3.87598 26.0898 4.05176C26.1484 4.22754 26.1777 4.42383 26.1777 4.64062C26.1777 4.8457 26.1494 5.03418 26.0928 5.20605C26.0381 5.37793 25.9551 5.52832 25.8438 5.65723C25.7324 5.78418 25.5918 5.88281 25.4219 5.95312C25.2539 6.02344 25.0557 6.05859 24.8271 6.05859C24.6553 6.05859 24.4922 6.03516 24.3379 5.98828C24.1855 5.93945 24.0488 5.86621 23.9277 5.76855C23.8086 5.66895 23.7109 5.5459 23.6348 5.39941C23.5605 5.25098 23.5137 5.07715 23.4941 4.87793H24.0098C24.0332 5.03809 24.0801 5.17285 24.1504 5.28223C24.2207 5.3916 24.3125 5.47461 24.4258 5.53125C24.541 5.58594 24.6748 5.61328 24.8271 5.61328C24.9561 5.61328 25.0703 5.59082 25.1699 5.5459C25.2695 5.50098 25.3535 5.43652 25.4219 5.35254C25.4902 5.26855 25.542 5.16699 25.5771 5.04785C25.6143 4.92871 25.6328 4.79492 25.6328 4.64648C25.6328 4.51172 25.6143 4.38672 25.5771 4.27148C25.54 4.15625 25.4844 4.05566 25.4102 3.96973C25.3379 3.88379 25.249 3.81738 25.1436 3.77051C25.0381 3.72168 24.917 3.69727 24.7803 3.69727C24.5986 3.69727 24.4609 3.72168 24.3672 3.77051C24.2754 3.81934 24.1807 3.88574 24.083 3.96973ZM26.7256 2.78027V2.55469C26.7256 2.39258 26.7607 2.24512 26.8311 2.1123C26.9014 1.97949 27.002 1.87305 27.1328 1.79297C27.2637 1.71289 27.4189 1.67285 27.5986 1.67285C27.7822 1.67285 27.9385 1.71289 28.0674 1.79297C28.1982 1.87305 28.2988 1.97949 28.3691 2.1123C28.4395 2.24512 28.4746 2.39258 28.4746 2.55469V2.78027C28.4746 2.93848 28.4395 3.08398 28.3691 3.2168C28.3008 3.34961 28.2012 3.45605 28.0703 3.53613C27.9414 3.61621 27.7861 3.65625 27.6045 3.65625C27.4229 3.65625 27.2656 3.61621 27.1328 3.53613C27.002 3.45605 26.9014 3.34961 26.8311 3.2168C26.7607 3.08398 26.7256 2.93848 26.7256 2.78027ZM27.1328 2.55469V2.78027C27.1328 2.87012 27.1494 2.95508 27.1826 3.03516C27.2178 3.11523 27.2705 3.18066 27.3408 3.23145C27.4111 3.28027 27.499 3.30469 27.6045 3.30469C27.71 3.30469 27.7969 3.28027 27.8652 3.23145C27.9336 3.18066 27.9844 3.11523 28.0176 3.03516C28.0508 2.95508 28.0674 2.87012 28.0674 2.78027V2.55469C28.0674 2.46289 28.0498 2.37695 28.0146 2.29688C27.9814 2.21484 27.9297 2.14941 27.8594 2.10059C27.791 2.0498 27.7041 2.02441 27.5986 2.02441C27.4951 2.02441 27.4082 2.0498 27.3379 2.10059C27.2695 2.14941 27.2178 2.21484 27.1826 2.29688C27.1494 2.37695 27.1328 2.46289 27.1328 2.55469ZM28.8027 5.18262V4.9541C28.8027 4.79395 28.8379 4.64746 28.9082 4.51465C28.9785 4.38184 29.0791 4.27539 29.21 4.19531C29.3408 4.11523 29.4961 4.0752 29.6758 4.0752C29.8594 4.0752 30.0156 4.11523 30.1445 4.19531C30.2754 4.27539 30.376 4.38184 30.4463 4.51465C30.5166 4.64746 30.5518 4.79395 30.5518 4.9541V5.18262C30.5518 5.34277 30.5166 5.48926 30.4463 5.62207C30.3779 5.75488 30.2783 5.86133 30.1475 5.94141C30.0186 6.02148 29.8633 6.06152 29.6816 6.06152C29.5 6.06152 29.3438 6.02148 29.2129 5.94141C29.082 5.86133 28.9805 5.75488 28.9082 5.62207C28.8379 5.48926 28.8027 5.34277 28.8027 5.18262ZM29.21 4.9541V5.18262C29.21 5.27246 29.2266 5.3584 29.2598 5.44043C29.2949 5.52051 29.3477 5.58594 29.418 5.63672C29.4883 5.68555 29.5762 5.70996 29.6816 5.70996C29.7871 5.70996 29.874 5.68555 29.9424 5.63672C30.0127 5.58594 30.0645 5.52051 30.0977 5.44043C30.1309 5.36035 30.1475 5.27441 30.1475 5.18262V4.9541C30.1475 4.8623 30.1299 4.77637 30.0947 4.69629C30.0615 4.61621 30.0098 4.55176 29.9395 4.50293C29.8711 4.45215 29.7832 4.42676 29.6758 4.42676C29.5723 4.42676 29.4854 4.45215 29.415 4.50293C29.3467 4.55176 29.2949 4.61621 29.2598 4.69629C29.2266 4.77637 29.21 4.8623 29.21 4.9541ZM29.8105 2.34082L27.7275 5.6748L27.4229 5.48145L29.5059 2.14746L29.8105 2.34082ZM32.5703 4.4502V4.38281C32.5703 4.1543 32.6035 3.94238 32.6699 3.74707C32.7363 3.5498 32.832 3.37891 32.957 3.23438C33.082 3.08789 33.2334 2.97461 33.4111 2.89453C33.5889 2.8125 33.7881 2.77148 34.0088 2.77148C34.2314 2.77148 34.4316 2.8125 34.6094 2.89453C34.7891 2.97461 34.9414 3.08789 35.0664 3.23438C35.1934 3.37891 35.29 3.5498 35.3564 3.74707C35.4229 3.94238 35.4561 4.1543 35.4561 4.38281V4.4502C35.4561 4.67871 35.4229 4.89062 35.3564 5.08594C35.29 5.28125 35.1934 5.45215 35.0664 5.59863C34.9414 5.74316 34.79 5.85645 34.6123 5.93848C34.4365 6.01855 34.2373 6.05859 34.0146 6.05859C33.792 6.05859 33.5918 6.01855 33.4141 5.93848C33.2363 5.85645 33.084 5.74316 32.957 5.59863C32.832 5.45215 32.7363 5.28125 32.6699 5.08594C32.6035 4.89062 32.5703 4.67871 32.5703 4.4502ZM33.1123 4.38281V4.4502C33.1123 4.6084 33.1309 4.75781 33.168 4.89844C33.2051 5.03711 33.2607 5.16016 33.335 5.26758C33.4111 5.375 33.5059 5.45996 33.6191 5.52246C33.7324 5.58301 33.8643 5.61328 34.0146 5.61328C34.1631 5.61328 34.293 5.58301 34.4043 5.52246C34.5176 5.45996 34.6113 5.375 34.6855 5.26758C34.7598 5.16016 34.8154 5.03711 34.8525 4.89844C34.8916 4.75781 34.9111 4.6084 34.9111 4.4502V4.38281C34.9111 4.22656 34.8916 4.0791 34.8525 3.94043C34.8154 3.7998 34.7588 3.67578 34.6826 3.56836C34.6084 3.45898 34.5146 3.37305 34.4014 3.31055C34.29 3.24805 34.1592 3.2168 34.0088 3.2168C33.8604 3.2168 33.7295 3.24805 33.6162 3.31055C33.5049 3.37305 33.4111 3.45898 33.335 3.56836C33.2607 3.67578 33.2051 3.7998 33.168 3.94043C33.1309 4.0791 33.1123 4.22656 33.1123 4.38281ZM37.3633 2.83008V6H36.8184V2.83008H37.3633ZM38.4268 2.83008V3.26953H35.7754V2.83008H38.4268ZM41.0371 2.83008V6H40.4951V2.83008H41.0371ZM43.1172 2.83008L41.6143 4.64648H40.8555L40.7734 4.17188H41.3945L42.458 2.83008H43.1172ZM42.5342 6L41.3682 4.56445L41.7168 4.17188L43.2227 6H42.5342ZM43.4863 4.4502V4.38281C43.4863 4.1543 43.5195 3.94238 43.5859 3.74707C43.6523 3.5498 43.748 3.37891 43.873 3.23438C43.998 3.08789 44.1494 2.97461 44.3271 2.89453C44.5049 2.8125 44.7041 2.77148 44.9248 2.77148C45.1475 2.77148 45.3477 2.8125 45.5254 2.89453C45.7051 2.97461 45.8574 3.08789 45.9824 3.23438C46.1094 3.37891 46.2061 3.5498 46.2725 3.74707C46.3389 3.94238 46.3721 4.1543 46.3721 4.38281V4.4502C46.3721 4.67871 46.3389 4.89062 46.2725 5.08594C46.2061 5.28125 46.1094 5.45215 45.9824 5.59863C45.8574 5.74316 45.7061 5.85645 45.5283 5.93848C45.3525 6.01855 45.1533 6.05859 44.9307 6.05859C44.708 6.05859 44.5078 6.01855 44.3301 5.93848C44.1523 5.85645 44 5.74316 43.873 5.59863C43.748 5.45215 43.6523 5.28125 43.5859 5.08594C43.5195 4.89062 43.4863 4.67871 43.4863 4.4502ZM44.0283 4.38281V4.4502C44.0283 4.6084 44.0469 4.75781 44.084 4.89844C44.1211 5.03711 44.1768 5.16016 44.251 5.26758C44.3271 5.375 44.4219 5.45996 44.5352 5.52246C44.6484 5.58301 44.7803 5.61328 44.9307 5.61328C45.0791 5.61328 45.209 5.58301 45.3203 5.52246C45.4336 5.45996 45.5273 5.375 45.6016 5.26758C45.6758 5.16016 45.7314 5.03711 45.7686 4.89844C45.8076 4.75781 45.8271 4.6084 45.8271 4.4502V4.38281C45.8271 4.22656 45.8076 4.0791 45.7686 3.94043C45.7314 3.7998 45.6748 3.67578 45.5986 3.56836C45.5244 3.45898 45.4307 3.37305 45.3174 3.31055C45.2061 3.24805 45.0752 3.2168 44.9248 3.2168C44.7764 3.2168 44.6455 3.24805 44.5322 3.31055C44.4209 3.37305 44.3271 3.45898 44.251 3.56836C44.1768 3.67578 44.1211 3.7998 44.084 3.94043C44.0469 4.0791 44.0283 4.22656 44.0283 4.38281ZM47.5938 3.43945V7.21875H47.0488V2.83008H47.5469L47.5938 3.43945ZM49.7295 4.38867V4.4502C49.7295 4.68066 49.7021 4.89453 49.6475 5.0918C49.5928 5.28711 49.5127 5.45703 49.4072 5.60156C49.3037 5.74609 49.1758 5.8584 49.0234 5.93848C48.8711 6.01855 48.6963 6.05859 48.499 6.05859C48.2979 6.05859 48.1201 6.02539 47.9658 5.95898C47.8115 5.89258 47.6807 5.7959 47.5732 5.66895C47.4658 5.54199 47.3799 5.38965 47.3154 5.21191C47.2529 5.03418 47.21 4.83398 47.1865 4.61133V4.2832C47.21 4.04883 47.2539 3.83887 47.3184 3.65332C47.3828 3.46777 47.4678 3.30957 47.5732 3.17871C47.6807 3.0459 47.8105 2.94531 47.9629 2.87695C48.1152 2.80664 48.291 2.77148 48.4902 2.77148C48.6895 2.77148 48.8662 2.81055 49.0205 2.88867C49.1748 2.96484 49.3047 3.07422 49.4102 3.2168C49.5156 3.35938 49.5947 3.53027 49.6475 3.72949C49.7021 3.92676 49.7295 4.14648 49.7295 4.38867ZM49.1846 4.4502V4.38867C49.1846 4.23047 49.168 4.08203 49.1348 3.94336C49.1016 3.80273 49.0498 3.67969 48.9795 3.57422C48.9111 3.4668 48.8232 3.38281 48.7158 3.32227C48.6084 3.25977 48.4805 3.22852 48.332 3.22852C48.1953 3.22852 48.0762 3.25195 47.9746 3.29883C47.875 3.3457 47.79 3.40918 47.7197 3.48926C47.6494 3.56738 47.5918 3.65723 47.5469 3.75879C47.5039 3.8584 47.4717 3.96191 47.4502 4.06934V4.82812C47.4893 4.96484 47.5439 5.09375 47.6143 5.21484C47.6846 5.33398 47.7783 5.43066 47.8955 5.50488C48.0127 5.57715 48.1602 5.61328 48.3379 5.61328C48.4844 5.61328 48.6104 5.58301 48.7158 5.52246C48.8232 5.45996 48.9111 5.375 48.9795 5.26758C49.0498 5.16016 49.1016 5.03711 49.1348 4.89844C49.168 4.75781 49.1846 4.6084 49.1846 4.4502ZM50.2773 4.4502V4.38281C50.2773 4.1543 50.3105 3.94238 50.377 3.74707C50.4434 3.5498 50.5391 3.37891 50.6641 3.23438C50.7891 3.08789 50.9404 2.97461 51.1182 2.89453C51.2959 2.8125 51.4951 2.77148 51.7158 2.77148C51.9385 2.77148 52.1387 2.8125 52.3164 2.89453C52.4961 2.97461 52.6484 3.08789 52.7734 3.23438C52.9004 3.37891 52.9971 3.5498 53.0635 3.74707C53.1299 3.94238 53.1631 4.1543 53.1631 4.38281V4.4502C53.1631 4.67871 53.1299 4.89062 53.0635 5.08594C52.9971 5.28125 52.9004 5.45215 52.7734 5.59863C52.6484 5.74316 52.4971 5.85645 52.3193 5.93848C52.1436 6.01855 51.9443 6.05859 51.7217 6.05859C51.499 6.05859 51.2988 6.01855 51.1211 5.93848C50.9434 5.85645 50.791 5.74316 50.6641 5.59863C50.5391 5.45215 50.4434 5.28125 50.377 5.08594C50.3105 4.89062 50.2773 4.67871 50.2773 4.4502ZM50.8193 4.38281V4.4502C50.8193 4.6084 50.8379 4.75781 50.875 4.89844C50.9121 5.03711 50.9678 5.16016 51.042 5.26758C51.1182 5.375 51.2129 5.45996 51.3262 5.52246C51.4395 5.58301 51.5713 5.61328 51.7217 5.61328C51.8701 5.61328 52 5.58301 52.1113 5.52246C52.2246 5.45996 52.3184 5.375 52.3926 5.26758C52.4668 5.16016 52.5225 5.03711 52.5596 4.89844C52.5986 4.75781 52.6182 4.6084 52.6182 4.4502V4.38281C52.6182 4.22656 52.5986 4.0791 52.5596 3.94043C52.5225 3.7998 52.4658 3.67578 52.3896 3.56836C52.3154 3.45898 52.2217 3.37305 52.1084 3.31055C51.9971 3.24805 51.8662 3.2168 51.7158 3.2168C51.5674 3.2168 51.4365 3.24805 51.3232 3.31055C51.2119 3.37305 51.1182 3.45898 51.042 3.56836C50.9678 3.67578 50.9121 3.7998 50.875 3.94043C50.8379 4.0791 50.8193 4.22656 50.8193 4.38281ZM55.0703 2.83008V6H54.5254V2.83008H55.0703ZM56.1338 2.83008V3.26953H53.4824V2.83008H56.1338ZM57.2559 2.83008V6H56.7139V2.83008H57.2559ZM59.3359 2.83008L57.833 4.64648H57.0742L56.9922 4.17188H57.6133L58.6768 2.83008H59.3359ZM58.7529 6L57.5869 4.56445L57.9355 4.17188L59.4414 6H58.7529ZM59.7051 4.4502V4.38281C59.7051 4.1543 59.7383 3.94238 59.8047 3.74707C59.8711 3.5498 59.9668 3.37891 60.0918 3.23438C60.2168 3.08789 60.3682 2.97461 60.5459 2.89453C60.7236 2.8125 60.9229 2.77148 61.1436 2.77148C61.3662 2.77148 61.5664 2.8125 61.7441 2.89453C61.9238 2.97461 62.0762 3.08789 62.2012 3.23438C62.3281 3.37891 62.4248 3.5498 62.4912 3.74707C62.5576 3.94238 62.5908 4.1543 62.5908 4.38281V4.4502C62.5908 4.67871 62.5576 4.89062 62.4912 5.08594C62.4248 5.28125 62.3281 5.45215 62.2012 5.59863C62.0762 5.74316 61.9248 5.85645 61.7471 5.93848C61.5713 6.01855 61.3721 6.05859 61.1494 6.05859C60.9268 6.05859 60.7266 6.01855 60.5488 5.93848C60.3711 5.85645 60.2188 5.74316 60.0918 5.59863C59.9668 5.45215 59.8711 5.28125 59.8047 5.08594C59.7383 4.89062 59.7051 4.67871 59.7051 4.4502ZM60.2471 4.38281V4.4502C60.2471 4.6084 60.2656 4.75781 60.3027 4.89844C60.3398 5.03711 60.3955 5.16016 60.4697 5.26758C60.5459 5.375 60.6406 5.45996 60.7539 5.52246C60.8672 5.58301 60.999 5.61328 61.1494 5.61328C61.2979 5.61328 61.4277 5.58301 61.5391 5.52246C61.6523 5.45996 61.7461 5.375 61.8203 5.26758C61.8945 5.16016 61.9502 5.03711 61.9873 4.89844C62.0264 4.75781 62.0459 4.6084 62.0459 4.4502V4.38281C62.0459 4.22656 62.0264 4.0791 61.9873 3.94043C61.9502 3.7998 61.8936 3.67578 61.8174 3.56836C61.7432 3.45898 61.6494 3.37305 61.5361 3.31055C61.4248 3.24805 61.2939 3.2168 61.1436 3.2168C60.9951 3.2168 60.8643 3.24805 60.751 3.31055C60.6396 3.37305 60.5459 3.45898 60.4697 3.56836C60.3955 3.67578 60.3398 3.7998 60.3027 3.94043C60.2656 4.0791 60.2471 4.22656 60.2471 4.38281ZM63.8564 5.1416L65.3184 2.83008H65.8633V6H65.3184V3.68848L63.8564 6H63.3174V2.83008H63.8564V5.1416ZM65.0225 1.68164H65.4619C65.4619 1.83398 65.4268 1.96973 65.3564 2.08887C65.2861 2.20605 65.1855 2.29785 65.0547 2.36426C64.9238 2.43066 64.7686 2.46387 64.5889 2.46387C64.3174 2.46387 64.1025 2.3916 63.9443 2.24707C63.7881 2.10059 63.71 1.91211 63.71 1.68164H64.1494C64.1494 1.79687 64.1826 1.89844 64.249 1.98633C64.3154 2.07422 64.4287 2.11816 64.5889 2.11816C64.7451 2.11816 64.8564 2.07422 64.9229 1.98633C64.9893 1.89844 65.0225 1.79687 65.0225 1.68164ZM69.4902 5.61328C69.6191 5.61328 69.7383 5.58691 69.8477 5.53418C69.957 5.48145 70.0469 5.40918 70.1172 5.31738C70.1875 5.22363 70.2275 5.11719 70.2373 4.99805H70.7529C70.7432 5.18555 70.6797 5.36035 70.5625 5.52246C70.4473 5.68262 70.2959 5.8125 70.1084 5.91211C69.9209 6.00977 69.7148 6.05859 69.4902 6.05859C69.252 6.05859 69.0439 6.0166 68.8662 5.93262C68.6904 5.84863 68.5439 5.7334 68.4268 5.58691C68.3115 5.44043 68.2246 5.27246 68.166 5.08301C68.1094 4.8916 68.0811 4.68945 68.0811 4.47656V4.35352C68.0811 4.14062 68.1094 3.93945 68.166 3.75C68.2246 3.55859 68.3115 3.38965 68.4268 3.24316C68.5439 3.09668 68.6904 2.98145 68.8662 2.89746C69.0439 2.81348 69.252 2.77148 69.4902 2.77148C69.7383 2.77148 69.9551 2.82227 70.1406 2.92383C70.3262 3.02344 70.4717 3.16016 70.5771 3.33398C70.6846 3.50586 70.7432 3.70117 70.7529 3.91992H70.2373C70.2275 3.78906 70.1904 3.6709 70.126 3.56543C70.0635 3.45996 69.9775 3.37598 69.8682 3.31348C69.7607 3.24902 69.6348 3.2168 69.4902 3.2168C69.3242 3.2168 69.1846 3.25 69.0713 3.31641C68.96 3.38086 68.8711 3.46875 68.8047 3.58008C68.7402 3.68945 68.6934 3.81152 68.6641 3.94629C68.6367 4.0791 68.623 4.21484 68.623 4.35352V4.47656C68.623 4.61523 68.6367 4.75195 68.6641 4.88672C68.6914 5.02148 68.7373 5.14355 68.8018 5.25293C68.8682 5.3623 68.957 5.4502 69.0684 5.5166C69.1816 5.58105 69.3223 5.61328 69.4902 5.61328ZM72.6543 2.83008V6H72.1094V2.83008H72.6543ZM73.7178 2.83008V3.26953H71.0664V2.83008H73.7178ZM73.9844 4.4502V4.38281C73.9844 4.1543 74.0176 3.94238 74.084 3.74707C74.1504 3.5498 74.2461 3.37891 74.3711 3.23438C74.4961 3.08789 74.6475 2.97461 74.8252 2.89453C75.0029 2.8125 75.2021 2.77148 75.4229 2.77148C75.6455 2.77148 75.8457 2.8125 76.0234 2.89453C76.2031 2.97461 76.3555 3.08789 76.4805 3.23438C76.6074 3.37891 76.7041 3.5498 76.7705 3.74707C76.8369 3.94238 76.8701 4.1543 76.8701 4.38281V4.4502C76.8701 4.67871 76.8369 4.89062 76.7705 5.08594C76.7041 5.28125 76.6074 5.45215 76.4805 5.59863C76.3555 5.74316 76.2041 5.85645 76.0264 5.93848C75.8506 6.01855 75.6514 6.05859 75.4287 6.05859C75.2061 6.05859 75.0059 6.01855 74.8281 5.93848C74.6504 5.85645 74.498 5.74316 74.3711 5.59863C74.2461 5.45215 74.1504 5.28125 74.084 5.08594C74.0176 4.89062 73.9844 4.67871 73.9844 4.4502ZM74.5264 4.38281V4.4502C74.5264 4.6084 74.5449 4.75781 74.582 4.89844C74.6191 5.03711 74.6748 5.16016 74.749 5.26758C74.8252 5.375 74.9199 5.45996 75.0332 5.52246C75.1465 5.58301 75.2783 5.61328 75.4287 5.61328C75.5771 5.61328 75.707 5.58301 75.8184 5.52246C75.9316 5.45996 76.0254 5.375 76.0996 5.26758C76.1738 5.16016 76.2295 5.03711 76.2666 4.89844C76.3057 4.75781 76.3252 4.6084 76.3252 4.4502V4.38281C76.3252 4.22656 76.3057 4.0791 76.2666 3.94043C76.2295 3.7998 76.1729 3.67578 76.0967 3.56836C76.0225 3.45898 75.9287 3.37305 75.8154 3.31055C75.7041 3.24805 75.5732 3.2168 75.4229 3.2168C75.2744 3.2168 75.1436 3.24805 75.0303 3.31055C74.9189 3.37305 74.8252 3.45898 74.749 3.56836C74.6748 3.67578 74.6191 3.7998 74.582 3.94043C74.5449 4.0791 74.5264 4.22656 74.5264 4.38281ZM78.0918 3.43945V7.21875H77.5469V2.83008H78.0449L78.0918 3.43945ZM80.2275 4.38867V4.4502C80.2275 4.68066 80.2002 4.89453 80.1455 5.0918C80.0908 5.28711 80.0107 5.45703 79.9053 5.60156C79.8018 5.74609 79.6738 5.8584 79.5215 5.93848C79.3691 6.01855 79.1943 6.05859 78.9971 6.05859C78.7959 6.05859 78.6182 6.02539 78.4639 5.95898C78.3096 5.89258 78.1787 5.7959 78.0713 5.66895C77.9639 5.54199 77.8779 5.38965 77.8135 5.21191C77.751 5.03418 77.708 4.83398 77.6846 4.61133V4.2832C77.708 4.04883 77.752 3.83887 77.8164 3.65332C77.8809 3.46777 77.9658 3.30957 78.0713 3.17871C78.1787 3.0459 78.3086 2.94531 78.4609 2.87695C78.6133 2.80664 78.7891 2.77148 78.9883 2.77148C79.1875 2.77148 79.3643 2.81055 79.5186 2.88867C79.6729 2.96484 79.8027 3.07422 79.9082 3.2168C80.0137 3.35938 80.0928 3.53027 80.1455 3.72949C80.2002 3.92676 80.2275 4.14648 80.2275 4.38867ZM79.6826 4.4502V4.38867C79.6826 4.23047 79.666 4.08203 79.6328 3.94336C79.5996 3.80273 79.5479 3.67969 79.4775 3.57422C79.4092 3.4668 79.3213 3.38281 79.2139 3.32227C79.1064 3.25977 78.9785 3.22852 78.8301 3.22852C78.6934 3.22852 78.5742 3.25195 78.4727 3.29883C78.373 3.3457 78.2881 3.40918 78.2178 3.48926C78.1475 3.56738 78.0898 3.65723 78.0449 3.75879C78.002 3.8584 77.9697 3.96191 77.9482 4.06934V4.82812C77.9873 4.96484 78.042 5.09375 78.1123 5.21484C78.1826 5.33398 78.2764 5.43066 78.3936 5.50488C78.5107 5.57715 78.6582 5.61328 78.8359 5.61328C78.9824 5.61328 79.1084 5.58301 79.2139 5.52246C79.3213 5.45996 79.4092 5.375 79.4775 5.26758C79.5479 5.16016 79.5996 5.03711 79.6328 4.89844C79.666 4.75781 79.6826 4.6084 79.6826 4.4502ZM80.7754 4.4502V4.38281C80.7754 4.1543 80.8086 3.94238 80.875 3.74707C80.9414 3.5498 81.0371 3.37891 81.1621 3.23438C81.2871 3.08789 81.4385 2.97461 81.6162 2.89453C81.7939 2.8125 81.9932 2.77148 82.2139 2.77148C82.4365 2.77148 82.6367 2.8125 82.8145 2.89453C82.9941 2.97461 83.1465 3.08789 83.2715 3.23438C83.3984 3.37891 83.4951 3.5498 83.5615 3.74707C83.6279 3.94238 83.6611 4.1543 83.6611 4.38281V4.4502C83.6611 4.67871 83.6279 4.89062 83.5615 5.08594C83.4951 5.28125 83.3984 5.45215 83.2715 5.59863C83.1465 5.74316 82.9951 5.85645 82.8174 5.93848C82.6416 6.01855 82.4424 6.05859 82.2197 6.05859C81.9971 6.05859 81.7969 6.01855 81.6191 5.93848C81.4414 5.85645 81.2891 5.74316 81.1621 5.59863C81.0371 5.45215 80.9414 5.28125 80.875 5.08594C80.8086 4.89062 80.7754 4.67871 80.7754 4.4502ZM81.3174 4.38281V4.4502C81.3174 4.6084 81.3359 4.75781 81.373 4.89844C81.4102 5.03711 81.4658 5.16016 81.54 5.26758C81.6162 5.375 81.7109 5.45996 81.8242 5.52246C81.9375 5.58301 82.0693 5.61328 82.2197 5.61328C82.3682 5.61328 82.498 5.58301 82.6094 5.52246C82.7227 5.45996 82.8164 5.375 82.8906 5.26758C82.9648 5.16016 83.0205 5.03711 83.0576 4.89844C83.0967 4.75781 83.1162 4.6084 83.1162 4.4502V4.38281C83.1162 4.22656 83.0967 4.0791 83.0576 3.94043C83.0205 3.7998 82.9639 3.67578 82.8877 3.56836C82.8135 3.45898 82.7197 3.37305 82.6064 3.31055C82.4951 3.24805 82.3643 3.2168 82.2139 3.2168C82.0654 3.2168 81.9346 3.24805 81.8213 3.31055C81.71 3.37305 81.6162 3.45898 81.54 3.56836C81.4658 3.67578 81.4102 3.7998 81.373 3.94043C81.3359 4.0791 81.3174 4.22656 81.3174 4.38281ZM86.4912 4.2041V4.64355H84.8154V4.2041H86.4912ZM84.9297 2.83008V6H84.3877V2.83008H84.9297ZM86.9307 2.83008V6H86.3857V2.83008H86.9307ZM88.249 3.91992H89.2012C89.457 3.91992 89.6729 3.96484 89.8486 4.05469C90.0244 4.14258 90.1572 4.26465 90.2471 4.4209C90.3389 4.5752 90.3848 4.75098 90.3848 4.94824C90.3848 5.09473 90.3594 5.23242 90.3086 5.36133C90.2578 5.48828 90.1816 5.59961 90.0801 5.69531C89.9805 5.79102 89.8564 5.86621 89.708 5.9209C89.5615 5.97363 89.3926 6 89.2012 6H87.8535V2.83008H88.3955V5.55469H89.2012C89.3574 5.55469 89.4824 5.52637 89.5762 5.46973C89.6699 5.41309 89.7373 5.33984 89.7783 5.25C89.8193 5.16016 89.8398 5.06641 89.8398 4.96875C89.8398 4.87305 89.8193 4.7793 89.7783 4.6875C89.7373 4.5957 89.6699 4.51953 89.5762 4.45898C89.4824 4.39648 89.3574 4.36523 89.2012 4.36523H88.249V3.91992ZM91.5127 2.83008V6H90.9707V2.83008H91.5127ZM96.1006 4.2041V4.64355H94.4248V4.2041H96.1006ZM94.5391 2.83008V6H93.9971V2.83008H94.5391ZM96.54 2.83008V6H95.9951V2.83008H96.54ZM97.2695 4.4502V4.38281C97.2695 4.1543 97.3027 3.94238 97.3691 3.74707C97.4355 3.5498 97.5312 3.37891 97.6562 3.23438C97.7812 3.08789 97.9326 2.97461 98.1104 2.89453C98.2881 2.8125 98.4873 2.77148 98.708 2.77148C98.9307 2.77148 99.1309 2.8125 99.3086 2.89453C99.4883 2.97461 99.6406 3.08789 99.7656 3.23438C99.8926 3.37891 99.9893 3.5498 100.056 3.74707C100.122 3.94238 100.155 4.1543 100.155 4.38281V4.4502C100.155 4.67871 100.122 4.89062 100.056 5.08594C99.9893 5.28125 99.8926 5.45215 99.7656 5.59863C99.6406 5.74316 99.4893 5.85645 99.3115 5.93848C99.1357 6.01855 98.9365 6.05859 98.7139 6.05859C98.4912 6.05859 98.291 6.01855 98.1133 5.93848C97.9355 5.85645 97.7832 5.74316 97.6562 5.59863C97.5312 5.45215 97.4355 5.28125 97.3691 5.08594C97.3027 4.89062 97.2695 4.67871 97.2695 4.4502ZM97.8115 4.38281V4.4502C97.8115 4.6084 97.8301 4.75781 97.8672 4.89844C97.9043 5.03711 97.96 5.16016 98.0342 5.26758C98.1104 5.375 98.2051 5.45996 98.3184 5.52246C98.4316 5.58301 98.5635 5.61328 98.7139 5.61328C98.8623 5.61328 98.9922 5.58301 99.1035 5.52246C99.2168 5.45996 99.3105 5.375 99.3848 5.26758C99.459 5.16016 99.5146 5.03711 99.5518 4.89844C99.5908 4.75781 99.6104 4.6084 99.6104 4.4502V4.38281C99.6104 4.22656 99.5908 4.0791 99.5518 3.94043C99.5146 3.7998 99.458 3.67578 99.3818 3.56836C99.3076 3.45898 99.2139 3.37305 99.1006 3.31055C98.9893 3.24805 98.8584 3.2168 98.708 3.2168C98.5596 3.2168 98.4287 3.24805 98.3154 3.31055C98.2041 3.37305 98.1104 3.45898 98.0342 3.56836C97.96 3.67578 97.9043 3.7998 97.8672 3.94043C97.8301 4.0791 97.8115 4.22656 97.8115 4.38281ZM102.104 5.61328C102.232 5.61328 102.352 5.58691 102.461 5.53418C102.57 5.48145 102.66 5.40918 102.73 5.31738C102.801 5.22363 102.841 5.11719 102.851 4.99805H103.366C103.356 5.18555 103.293 5.36035 103.176 5.52246C103.061 5.68262 102.909 5.8125 102.722 5.91211C102.534 6.00977 102.328 6.05859 102.104 6.05859C101.865 6.05859 101.657 6.0166 101.479 5.93262C101.304 5.84863 101.157 5.7334 101.04 5.58691C100.925 5.44043 100.838 5.27246 100.779 5.08301C100.723 4.8916 100.694 4.68945 100.694 4.47656V4.35352C100.694 4.14062 100.723 3.93945 100.779 3.75C100.838 3.55859 100.925 3.38965 101.04 3.24316C101.157 3.09668 101.304 2.98145 101.479 2.89746C101.657 2.81348 101.865 2.77148 102.104 2.77148C102.352 2.77148 102.568 2.82227 102.754 2.92383C102.939 3.02344 103.085 3.16016 103.19 3.33398C103.298 3.50586 103.356 3.70117 103.366 3.91992H102.851C102.841 3.78906 102.804 3.6709 102.739 3.56543C102.677 3.45996 102.591 3.37598 102.481 3.31348C102.374 3.24902 102.248 3.2168 102.104 3.2168C101.938 3.2168 101.798 3.25 101.685 3.31641C101.573 3.38086 101.484 3.46875 101.418 3.58008C101.354 3.68945 101.307 3.81152 101.277 3.94629C101.25 4.0791 101.236 4.21484 101.236 4.35352V4.47656C101.236 4.61523 101.25 4.75195 101.277 4.88672C101.305 5.02148 101.351 5.14355 101.415 5.25293C101.481 5.3623 101.57 5.4502 101.682 5.5166C101.795 5.58105 101.936 5.61328 102.104 5.61328ZM104.562 5.1416L106.023 2.83008H106.568V6H106.023V3.68848L104.562 6H104.022V2.83008H104.562V5.1416ZM108.73 2.83008V6H108.186V2.83008H108.73ZM109.794 2.83008V3.26953H107.143V2.83008H109.794ZM111.408 6.05859C111.188 6.05859 110.987 6.02148 110.808 5.94727C110.63 5.87109 110.477 5.76465 110.348 5.62793C110.221 5.49121 110.123 5.3291 110.055 5.1416C109.986 4.9541 109.952 4.74902 109.952 4.52637V4.40332C109.952 4.14551 109.99 3.91602 110.066 3.71484C110.143 3.51172 110.246 3.33984 110.377 3.19922C110.508 3.05859 110.656 2.95215 110.822 2.87988C110.988 2.80762 111.16 2.77148 111.338 2.77148C111.564 2.77148 111.76 2.81055 111.924 2.88867C112.09 2.9668 112.226 3.07617 112.331 3.2168C112.437 3.35547 112.515 3.51953 112.565 3.70898C112.616 3.89648 112.642 4.10156 112.642 4.32422V4.56738H110.274V4.125H112.1V4.08398C112.092 3.94336 112.062 3.80664 112.012 3.67383C111.963 3.54102 111.885 3.43164 111.777 3.3457C111.67 3.25977 111.523 3.2168 111.338 3.2168C111.215 3.2168 111.102 3.24316 110.998 3.2959C110.895 3.34668 110.806 3.42285 110.731 3.52441C110.657 3.62598 110.6 3.75 110.559 3.89648C110.518 4.04297 110.497 4.21191 110.497 4.40332V4.52637C110.497 4.67676 110.518 4.81836 110.559 4.95117C110.602 5.08203 110.663 5.19727 110.743 5.29688C110.825 5.39648 110.924 5.47461 111.039 5.53125C111.156 5.58789 111.289 5.61621 111.438 5.61621C111.629 5.61621 111.791 5.57715 111.924 5.49902C112.057 5.4209 112.173 5.31641 112.272 5.18555L112.601 5.44629C112.532 5.5498 112.445 5.64844 112.34 5.74219C112.234 5.83594 112.104 5.91211 111.95 5.9707C111.798 6.0293 111.617 6.05859 111.408 6.05859ZM115.393 2.83008V3.27832H113.86V2.83008H115.393ZM115.87 2.83008V6H115.328V2.83008H115.87ZM113.729 2.83008H114.273L114.191 4.35938C114.178 4.5957 114.155 4.80469 114.124 4.98633C114.095 5.16602 114.054 5.32031 114.001 5.44922C113.95 5.57812 113.886 5.68359 113.808 5.76562C113.731 5.8457 113.64 5.90527 113.532 5.94434C113.425 5.98145 113.301 6 113.16 6H112.99V5.52246L113.107 5.51367C113.191 5.50781 113.263 5.48828 113.321 5.45508C113.382 5.42188 113.433 5.37305 113.474 5.30859C113.515 5.24219 113.548 5.15723 113.573 5.05371C113.601 4.9502 113.621 4.82715 113.635 4.68457C113.65 4.54199 113.662 4.37598 113.67 4.18652L113.729 2.83008ZM117.385 4.48828H117.971L117.054 6H116.468L117.385 4.48828ZM117.839 2.83008H119.163V6H118.621V3.26953H117.839C117.685 3.26953 117.559 3.2959 117.461 3.34863C117.363 3.39941 117.292 3.46582 117.247 3.54785C117.202 3.62988 117.18 3.71484 117.18 3.80273C117.18 3.88867 117.2 3.97168 117.241 4.05176C117.282 4.12988 117.347 4.19434 117.435 4.24512C117.522 4.2959 117.636 4.32129 117.774 4.32129H118.768V4.7666H117.774C117.593 4.7666 117.432 4.74219 117.291 4.69336C117.15 4.64453 117.031 4.57715 116.934 4.49121C116.836 4.40332 116.762 4.30078 116.711 4.18359C116.66 4.06445 116.635 3.93555 116.635 3.79688C116.635 3.6582 116.661 3.53027 116.714 3.41309C116.769 3.2959 116.847 3.19336 116.948 3.10547C117.052 3.01758 117.178 2.9502 117.326 2.90332C117.477 2.85449 117.647 2.83008 117.839 2.83008Z" fill="#E6007E"/>
<path d="M9.17026 3.45441L9.78218 4.42999L10.3941 3.45441H10.7875L9.98324 4.71497L10.8067 6H10.4098L9.78218 5.00519L9.15453 6H8.75765L9.58112 4.71497L8.77689 3.45441H9.17026Z" fill="#E6007E"/>
<path d="M1.31479 11.5877L1.92672 12.5633L2.53864 11.5877H2.93201L2.12778 12.8483L2.95125 14.1333H2.55437L1.92672 13.1385L1.29906 14.1333H0.902185L1.72566 12.8483L0.921417 11.5877H1.31479Z" fill="#E6007E"/>
<path d="M12.6875 3.89526V10.6791" stroke="#E6007E" stroke-width="0.275432"/>
<path d="M7.27344 3.89526V10.6791" stroke="#E6007E" stroke-width="0.275432"/>
<path d="M7.0409 16.0498H0.796875" stroke="#E6007E" stroke-width="0.275432"/>
<path d="M7.0409 10.7671H0.796875" stroke="#E6007E" stroke-width="0.275432"/>
<path d="M55.0977 162.268V10.9048" stroke="#E6007E" stroke-width="0.151487"/>
<path d="M66.3242 162.268V10.9048" stroke="#E6007E" stroke-width="0.151487"/>
<path d="M7.04297 55.5713H108.961" stroke="#E6007E" stroke-width="0.151487"/>
<path d="M7.04297 105.887H108.961" stroke="#E6007E" stroke-width="0.151487"/>
<path d="M7.04297 66.9688H108.961" stroke="#E6007E" stroke-width="0.151487"/>
<path d="M7.04297 117.588H108.961" stroke="#E6007E" stroke-width="0.151487"/>
<path d="M18.2875 18.8648C18.2875 18.8648 18.4307 17.2535 18.4445 17.0965C18.4665 16.8431 18.2627 16.3804 17.7669 16.3804H13.6905C13.1975 16.3804 12.9579 16.7164 12.9276 17.0359C12.9083 17.2259 12.5723 21.1205 12.5503 21.3464C12.5144 21.7072 12.7651 22.1176 13.2195 22.1176H17.2712C17.8082 22.1176 18.0176 21.8339 18.0644 21.396C18.0919 21.1343 18.2242 19.5478 18.2242 19.5478H15.7756L15.6709 20.7735H15.0512L15.3183 17.73H15.9381L15.8389 18.8703H18.2875V18.8648Z" fill="#008C95"/>
<path d="M22.0707 16.8706C21.9825 17.1213 21.2692 19.3495 21.2692 19.3495L21.5859 16.3804H19.1373L18.625 22.1149H20.4704C20.9331 22.1149 21.0929 21.8532 21.17 21.6411C21.2609 21.3905 21.9412 19.5175 21.9412 19.5175L21.6906 22.1149H24.1419L24.6459 16.3804C24.6459 16.3804 22.8887 16.3804 22.7234 16.3804C22.2993 16.3804 22.1312 16.6944 22.0707 16.8706Z" fill="#008C95"/>
<path d="M34.4781 16.3802L34.2496 18.994H33.6271L33.8557 16.3802H31.4071C31.4071 16.3802 31.173 19.1483 31.1482 19.4155C31.1179 19.735 31.2997 20.1867 31.8423 20.1867H34.1449L34.0953 20.7678H31.0325L30.9141 22.1119H35.7892C36.1197 22.1119 36.4392 21.8971 36.4805 21.4371C36.5081 21.1424 36.9295 16.3774 36.9295 16.3774H34.4809L34.4781 16.3802Z" fill="#008C95"/>
<path d="M39.7532 19.1455L39.8772 17.7243H40.4914L40.3674 19.1455H39.7532ZM40.8742 16.3774H37.547L37.043 22.1119H39.4915L39.6485 20.3381H42.0283C42.4497 20.3381 42.7279 20.1233 42.7747 19.633C42.794 19.443 42.9868 17.2698 42.9978 17.077C43.0281 16.6529 42.6893 16.3802 42.2707 16.3802H40.8742V16.3774Z" fill="#008C95"/>
<path d="M27.9531 20.9195H27.3278L27.4518 19.4983H28.077L27.9531 20.9195ZM27.5565 18.3056L27.6088 17.7245H30.6771L30.7955 16.3804H25.2786L24.7773 22.1149H25.6973C25.6973 22.1149 29.3688 22.1149 29.6663 22.1149C29.9637 22.1149 30.3135 21.9303 30.3576 21.4511C30.3906 21.0902 30.5421 19.3853 30.5697 19.0768C30.6055 18.6637 30.3438 18.3056 29.8288 18.3056H27.5647H27.5565Z" fill="#008C95"/>
<path d="M18.2875 153.738C18.2875 153.738 18.4307 152.127 18.4445 151.97C18.4665 151.716 18.2627 151.254 17.7669 151.254H13.6905C13.1975 151.254 12.9579 151.59 12.9276 151.909C12.9083 152.099 12.5723 155.994 12.5503 156.22C12.5144 156.581 12.7651 156.991 13.2195 156.991H17.2712C17.8082 156.991 18.0176 156.707 18.0644 156.269C18.0919 156.008 18.2242 154.421 18.2242 154.421H15.7756L15.6709 155.647H15.0512L15.3183 152.603H15.9381L15.8389 153.744H18.2875V153.738Z" fill="#008C95"/>
<path d="M22.0707 151.747C21.9825 151.997 21.2692 154.226 21.2692 154.226L21.5859 151.257H19.1373L18.625 156.991H20.4704C20.9331 156.991 21.0929 156.729 21.17 156.517C21.2609 156.267 21.9412 154.394 21.9412 154.394L21.6906 156.991H24.1419L24.6459 151.257C24.6459 151.257 22.8887 151.257 22.7234 151.257C22.2993 151.257 22.1312 151.571 22.0707 151.747Z" fill="#008C95"/>
<path d="M34.4781 151.254L34.2496 153.868H33.6271L33.8557 151.254H31.4071C31.4071 151.254 31.173 154.022 31.1482 154.289C31.1179 154.608 31.2997 155.06 31.8423 155.06H34.1449L34.0953 155.641H31.0325L30.9141 156.985H35.7892C36.1197 156.985 36.4392 156.771 36.4805 156.311C36.5081 156.016 36.9295 151.251 36.9295 151.251H34.4809L34.4781 151.254Z" fill="#008C95"/>
<path d="M39.7532 154.022L39.8772 152.601H40.4914L40.3674 154.022H39.7532ZM40.8742 151.254H37.547L37.043 156.988H39.4915L39.6485 155.214H42.0283C42.4497 155.214 42.7279 155 42.7747 154.509C42.794 154.319 42.9868 152.146 42.9978 151.953C43.0281 151.529 42.6893 151.256 42.2707 151.256H40.8742V151.254Z" fill="#008C95"/>
<path d="M27.9531 155.796H27.3278L27.4518 154.374H28.077L27.9531 155.796ZM27.5565 153.182L27.6088 152.601H30.6771L30.7955 151.257H25.2786L24.7773 156.991H25.6973C25.6973 156.991 29.3688 156.991 29.6663 156.991C29.9637 156.991 30.3135 156.807 30.3576 156.327C30.3906 155.966 30.5421 154.262 30.5697 153.953C30.6055 153.54 30.3438 153.182 29.8288 153.182H27.5647H27.5565Z" fill="#008C95"/>
<path d="M84.2523 153.738C84.2523 153.738 84.3956 152.127 84.4093 151.97C84.4314 151.716 84.2275 151.254 83.7318 151.254H79.6554C79.1624 151.254 78.9228 151.59 78.8925 151.909C78.8732 152.099 78.5371 155.994 78.5151 156.22C78.4793 156.581 78.7299 156.991 79.1844 156.991H83.236C83.7731 156.991 83.9824 156.707 84.0292 156.269C84.0568 156.008 84.189 154.421 84.189 154.421H81.7404L81.6357 155.647H81.016L81.2832 152.603H81.9029L81.8038 153.744H84.2523V153.738Z" fill="#008C95"/>
<path d="M88.0355 151.747C87.9474 151.997 87.234 154.226 87.234 154.226L87.5507 151.257H85.1021L84.5898 156.991H86.4352C86.8979 156.991 87.0577 156.729 87.1348 156.517C87.2257 156.267 87.906 154.394 87.906 154.394L87.6554 156.991H90.1067L90.6108 151.257C90.6108 151.257 88.8535 151.257 88.6883 151.257C88.2641 151.257 88.0961 151.571 88.0355 151.747Z" fill="#008C95"/>
<path d="M100.443 151.254L100.214 153.868H99.5919L99.8205 151.254H97.3719C97.3719 151.254 97.1378 154.022 97.113 154.289C97.0827 154.608 97.2645 155.06 97.8071 155.06H100.11L100.06 155.641H96.9973L96.8789 156.985H101.754C102.085 156.985 102.404 156.771 102.445 156.311C102.473 156.016 102.894 151.251 102.894 151.251H100.446L100.443 151.254Z" fill="#008C95"/>
<path d="M105.714 154.022L105.838 152.601H106.452L106.328 154.022H105.714ZM106.835 151.254H103.508L103.004 156.988H105.452L105.609 155.214H107.989C108.411 155.214 108.689 155 108.736 154.509C108.755 154.319 108.948 152.146 108.959 151.953C108.989 151.529 108.65 151.256 108.232 151.256H106.835V151.254Z" fill="#008C95"/>
<path d="M93.9101 155.796H93.2849L93.4088 154.374H94.034L93.9101 155.796ZM93.5135 153.182L93.5658 152.601H96.6341L96.7525 151.257H91.2356L90.7344 156.991H91.6543C91.6543 156.991 95.3258 156.991 95.6233 156.991C95.9208 156.991 96.2705 156.807 96.3146 156.327C96.3477 155.966 96.4992 154.262 96.5267 153.953C96.5625 153.54 96.3008 153.182 95.7858 153.182H93.5217H93.5135Z" fill="#008C95"/>
<path d="M126.098 162.028L232.293 11.0532" stroke="#FF0000" stroke-width="0.826295" stroke-miterlimit="10"/>
<defs>
<filter id="filter0_d_1267_3849" x="121.167" y="6.49788" width="117.99" height="162.381" filterUnits="userSpaceOnUse" color-interpolation-filters="sRGB">
<feFlood flood-opacity="0" result="BackgroundImageFix"/>
<feColorMatrix in="SourceAlpha" type="matrix" values="0 0 0 0 0 0 0 0 0 0 0 0 0 0 0 0 0 0 127 0" result="hardAlpha"/>
<feOffset dx="1.10173" dy="1.10173"/>
<feGaussianBlur stdDeviation="2.75432"/>
<feComposite in2="hardAlpha" operator="out"/>
<feColorMatrix type="matrix" values="0 0 0 0 0 0 0 0 0 0 0 0 0 0 0 0 0 0 0.1 0"/>
<feBlend mode="normal" in2="BackgroundImageFix" result="effect1_dropShadow_1267_3849"/>
<feBlend mode="normal" in="SourceGraphic" in2="effect1_dropShadow_1267_3849" result="shape"/>
</filter>
<filter id="filter1_d_1267_3849" x="236.148" y="6.49788" width="117.99" height="162.381" filterUnits="userSpaceOnUse" color-interpolation-filters="sRGB">
<feFlood flood-opacity="0" result="BackgroundImageFix"/>
<feColorMatrix in="SourceAlpha" type="matrix" values="0 0 0 0 0 0 0 0 0 0 0 0 0 0 0 0 0 0 127 0" result="hardAlpha"/>
<feOffset dy="1.10173"/>
<feGaussianBlur stdDeviation="2.75432"/>
<feComposite in2="hardAlpha" operator="out"/>
<feColorMatrix type="matrix" values="0 0 0 0 0 0 0 0 0 0 0 0 0 0 0 0 0 0 0.1 0"/>
<feBlend mode="normal" in2="BackgroundImageFix" result="effect1_dropShadow_1267_3849"/>
<feBlend mode="normal" in="SourceGraphic" in2="effect1_dropShadow_1267_3849" result="shape"/>
</filter>
<filter id="filter2_d_1267_3849" x="1.81559" y="6.37679" width="117.99" height="162.381" filterUnits="userSpaceOnUse" color-interpolation-filters="sRGB">
<feFlood flood-opacity="0" result="BackgroundImageFix"/>
<feColorMatrix in="SourceAlpha" type="matrix" values="0 0 0 0 0 0 0 0 0 0 0 0 0 0 0 0 0 0 127 0" result="hardAlpha"/>
<feOffset dy="1.10173"/>
<feGaussianBlur stdDeviation="2.75432"/>
<feComposite in2="hardAlpha" operator="out"/>
<feColorMatrix type="matrix" values="0 0 0 0 0 0 0 0 0 0 0 0 0 0 0 0 0 0 0.1 0"/>
<feBlend mode="normal" in2="BackgroundImageFix" result="effect1_dropShadow_1267_3849"/>
<feBlend mode="normal" in="SourceGraphic" in2="effect1_dropShadow_1267_3849" result="shape"/>
</filter>
</defs>
</svg>
