<svg width="295" height="47" viewBox="0 0 295 47" fill="none" xmlns="http://www.w3.org/2000/svg">
<path d="M132.022 1H0.675781V46.2528H132.022V1Z" stroke="#008C95" stroke-width="0.288152"/>
<path d="M120.635 12.3516H12.0273V34.8988H120.635V12.3516Z" stroke="#008C95" stroke-width="0.288152"/>
<path d="M5.98607 5.41367L6.77399 6.66984L7.5619 5.41367H8.06842L7.03287 7.03678L8.09318 8.69141H7.58216L6.77399 7.41048L5.96581 8.69141H5.45479L6.5151 7.03678L5.47955 5.41367H5.98607Z" fill="#008C95"/>
<path d="M125.963 5.41367L126.751 6.66984L127.538 5.41367H128.045L127.009 7.03678L128.07 8.69141H127.559L126.751 7.41048L125.942 8.69141H125.431L126.492 7.03678L125.456 5.41367H125.963Z" fill="#008C95"/>
<path d="M5.98607 39.2818L6.77399 40.538L7.5619 39.2818H8.06842L7.03287 40.9049L8.09318 42.5596H7.58216L6.77399 41.2786L5.96581 42.5596H5.45479L6.5151 40.9049L5.47955 39.2818H5.98607Z" fill="#008C95"/>
<path d="M125.963 39.2818L126.751 40.538L127.538 39.2818H128.045L127.009 40.9049L128.07 42.5596H127.559L126.751 41.2786L125.942 42.5596H125.431L126.492 40.9049L125.456 39.2818H125.963Z" fill="#008C95"/>
<path d="M36.2812 35.0099H43.3914C45.6868 35.0099 46.0891 33.5014 46.2198 32.1287C46.338 30.8867 47.9647 12.2666 47.9647 12.2666H40.8948C38.8834 12.2666 38.1744 13.4206 38.006 15.3163C37.923 16.2591 36.2812 34.9999 36.2812 34.9999" fill="#008C95"/>
<path d="M85.4154 29.6771H82.939L84.4475 12.2739H74.7679C74.7679 12.2739 73.1135 31.5275 73.0079 32.4829C72.9023 33.4383 73.8577 35.0097 75.5221 35.0097H92.3143C92.9416 35.0078 93.546 34.7733 94.0104 34.3516C94.4748 33.93 94.7663 33.351 94.8285 32.7268C94.9266 31.608 96.6136 12.2739 96.6136 12.2739H86.9189L85.4154 29.6771Z" fill="#008C95"/>
<path d="M16.477 12.2762C14.7447 12.2762 13.7994 13.1738 13.6209 15.2933C13.5304 16.3467 12.9244 23.1777 12.8465 24.1633C12.7686 25.1489 13.1356 26.0112 14.355 26.0112H24.8744L24.4997 30.2853H22.0082L22.1817 28.3142H12.4769C12.4769 28.3142 12.2029 31.7159 12.0772 32.8775C11.9514 34.039 12.3286 35.002 13.8371 35.002H31.0592C33.7871 35.002 33.9254 32.9906 34.0763 31.4821C34.2246 30.0792 34.7827 23.4618 34.8557 22.6271C34.9286 21.7924 34.3377 21.267 33.5407 21.267H22.7876L23.1597 16.9929H25.6739L25.5029 18.9615H35.1951C35.1951 18.9615 35.5043 15.1525 35.6124 14.0814C35.7205 13.0104 35.1699 12.2637 34.0411 12.2637H16.477" fill="#008C95"/>
<path d="M58.9194 26.0061H61.3959L61.0213 30.2802H58.5473L58.9194 26.0061ZM62.1878 17.0028L61.8158 21.2769H59.3393L59.7139 17.0028H62.1878ZM50.434 12.2736L48.4453 35.0093H67.8397C69.4739 35.0093 70.3967 33.9911 70.545 32.2437C70.6053 31.5322 70.8215 29.1211 70.995 27.14C71.0579 26.4284 70.8894 25.8024 70.276 25.3524L67.9931 23.6679C67.9931 23.6679 70.1855 22.2323 70.7587 21.8602C71.3319 21.4881 71.5356 21.033 71.6035 20.153C71.7644 18.1744 71.9756 15.9116 72.0233 15.2856C72.1516 13.6463 71.2314 12.2686 69.2577 12.2686L50.434 12.2736Z" fill="#008C95"/>
<path d="M107.838 23.2484L108.341 17.6091H110.802L110.299 23.2484H107.838ZM118.256 12.274H99.1059L97.1172 35.0072H106.809L107.425 27.9675H109.887L109.273 35.0072H118.965C118.965 35.0072 119.39 30.0065 119.468 29.2699C119.546 28.5332 119.395 27.7614 118.691 27.2409L116.481 25.6117C116.481 25.6117 118.448 24.3421 119.071 23.9197C119.695 23.4973 120.016 23.0473 120.127 21.755C120.238 20.4627 120.647 15.8492 120.713 14.9893C120.734 14.6487 120.687 14.3073 120.574 13.9852C120.461 13.6631 120.285 13.3668 120.056 13.1136C119.828 12.8604 119.551 12.6555 119.241 12.5109C118.932 12.3663 118.597 12.2849 118.256 12.2715" fill="#008C95"/>
<path d="M12.0296 1.02246H0.667969V12.3841H12.0296V1.02246Z" stroke="#008C95" stroke-width="0.288152"/>
<path d="M132.006 1.02246H120.645V12.3841H132.006V1.02246Z" stroke="#008C95" stroke-width="0.288152"/>
<path d="M12.0296 34.8911H0.667969V46.2527H12.0296V34.8911Z" stroke="#008C95" stroke-width="0.288152"/>
<path d="M132.006 34.8916H120.645V46.2532H132.006V34.8916Z" stroke="#008C95" stroke-width="0.288152"/>
<path d="M294.05 1H152.555V46.2528H294.05V1Z" stroke="#008C95" stroke-width="0.288152"/>
<path d="M282.678 12.3516H163.883V34.8988H282.678V12.3516Z" stroke="#008C95" stroke-width="0.288152"/>
<path d="M157.857 5.41367L158.645 6.66984L159.433 5.41367H159.94L158.904 7.03678L159.964 8.69141H159.453L158.645 7.41048L157.837 8.69141H157.326L158.386 7.03678L157.351 5.41367H157.857Z" fill="#008C95"/>
<path d="M288.006 5.41367L288.794 6.66984L289.581 5.41367H290.088L289.052 7.03678L290.113 8.69141H289.602L288.794 7.41048L287.985 8.69141H287.474L288.535 7.03678L287.499 5.41367H288.006Z" fill="#008C95"/>
<path d="M157.857 39.2818L158.645 40.538L159.433 39.2818H159.94L158.904 40.9049L159.964 42.5596H159.453L158.645 41.2786L157.837 42.5596H157.326L158.386 40.9049L157.351 39.2818H157.857Z" fill="#008C95"/>
<path d="M288.006 39.2818L288.794 40.538L289.581 39.2818H290.088L289.052 40.9049L290.113 42.5596H289.602L288.794 41.2786L287.985 42.5596H287.474L288.535 40.9049L287.499 39.2818H288.006Z" fill="#008C95"/>
<path d="M163.908 1.02246H152.547V12.3841H163.908V1.02246Z" stroke="#008C95" stroke-width="0.288152"/>
<path d="M294.049 1.02246H282.688V12.3841H294.049V1.02246Z" stroke="#008C95" stroke-width="0.288152"/>
<path d="M163.908 34.8916H152.547V46.2532H163.908V34.8916Z" stroke="#008C95" stroke-width="0.288152"/>
<path d="M294.049 34.8916H282.688V46.2532H294.049V34.8916Z" stroke="#008C95" stroke-width="0.288152"/>
<path d="M186.273 22.1792C186.273 22.1792 186.831 15.8762 186.884 15.2577C186.969 14.2671 186.17 12.4619 184.244 12.4619H168.337C166.411 12.4619 165.476 13.7693 165.355 15.0188C165.282 15.758 163.967 30.9965 163.884 31.8639C163.746 33.2768 164.721 34.8809 166.494 34.8809H182.31C184.41 34.8809 185.227 33.7696 185.405 32.0575C185.511 31.0317 186.031 24.8267 186.031 24.8267H176.478L176.065 29.6212H173.644L174.687 17.7166H177.106L176.721 22.1717L186.273 22.1792Z" fill="#008C95"/>
<path d="M201.013 14.3872C200.671 15.3677 197.891 24.0794 197.891 24.0794L199.128 12.4639H189.574L187.562 34.8879H194.766C196.576 34.8879 197.194 33.8621 197.494 33.04C197.853 32.0569 200.511 24.7431 200.511 24.7431L199.535 34.9004H209.089L211.06 12.4764H203.555C201.898 12.4764 201.245 13.7034 201.003 14.3998" fill="#008C95"/>
<path d="M249.463 12.4639L248.568 22.6916H246.144L247.039 12.4639H237.485C237.485 12.4639 236.567 23.29 236.479 24.3359C236.364 25.5929 237.07 27.3529 239.187 27.3529H248.175L247.974 29.6156H236.014L235.539 34.8879H254.574C255.861 34.8879 257.108 34.0456 257.277 32.248C257.385 31.094 259.037 12.4639 259.037 12.4639H249.463Z" fill="#008C95"/>
<path d="M270.047 23.2876L270.535 17.7237H272.931L272.446 23.2876H270.047ZM274.417 12.464H261.434L259.473 34.888H269.027L269.635 27.9489H278.922C280.564 27.9489 281.658 27.1091 281.834 25.1833C281.902 24.429 282.658 15.9386 282.709 15.1869C282.822 13.53 281.504 12.459 279.868 12.459L274.417 12.464Z" fill="#008C95"/>
<path d="M223.966 30.2238H221.527L222.015 24.6599H224.454L223.966 30.2238ZM222.422 19.9961L222.621 17.7333H234.599L235.056 12.4736H213.52L211.559 34.8976H230.639C231.851 34.8976 233.153 34.1786 233.336 32.303C233.465 30.895 234.053 24.2274 234.161 23.0206C234.302 21.404 233.276 20.0036 231.265 20.0036L222.422 19.9961Z" fill="#008C95"/>
</svg>
