<svg width="344" height="75" viewBox="0 0 344 75" fill="none" xmlns="http://www.w3.org/2000/svg">
<path d="M1.51758 2.46875H2.91211L5.24414 8.89062L7.57031 2.46875H8.9707L5.80078 11H4.68164L1.51758 2.46875ZM0.814453 2.46875H2.17969L2.42578 8.36914V11H0.814453V2.46875ZM8.30273 2.46875H9.67383V11H8.0625V8.36914L8.30273 2.46875ZM12.7617 8.79102L15.0703 4.66016H16.623V11H15.0703V6.86328L12.7617 11H11.209V4.66016H12.7617V8.79102ZM22.3594 7.26172V8.47461H19.1074V7.26172H22.3594ZM19.5938 4.66016V11H18.041V4.66016H19.5938ZM23.4434 4.66016V11H21.8848V4.66016H23.4434ZM26.4141 8.79102L28.7227 4.66016H30.2754V11H28.7227V6.86328L26.4141 11H24.8613V4.66016H26.4141V8.79102ZM35.4844 9.17188L37.2656 4.66016H38.5605L36.0117 11H34.9629L32.4199 4.66016H33.7207L35.4844 9.17188ZM33.3398 4.66016V11H31.7871V4.66016H33.3398ZM37.6582 11V4.66016H39.2109V11H37.6582ZM44.2441 9.65234V6.72852C44.2441 6.51367 44.207 6.32812 44.1328 6.17188C44.0586 6.01562 43.9453 5.89453 43.793 5.80859C43.6406 5.72266 43.4473 5.67969 43.2129 5.67969C43.0059 5.67969 42.8242 5.71484 42.668 5.78516C42.5156 5.85547 42.3984 5.95508 42.3164 6.08398C42.2344 6.20898 42.1934 6.35352 42.1934 6.51758H40.6406C40.6406 6.25586 40.7031 6.00781 40.8281 5.77344C40.9531 5.53516 41.1309 5.32422 41.3613 5.14062C41.5957 4.95312 41.875 4.80664 42.1992 4.70117C42.5273 4.5957 42.8945 4.54297 43.3008 4.54297C43.7812 4.54297 44.209 4.625 44.584 4.78906C44.9629 4.94922 45.2598 5.19141 45.4746 5.51562C45.6934 5.83984 45.8027 6.24805 45.8027 6.74023V9.50586C45.8027 9.82227 45.8223 10.0938 45.8613 10.3203C45.9043 10.543 45.9668 10.7363 46.0488 10.9004V11H44.4727C44.3984 10.8398 44.3418 10.6367 44.3027 10.3906C44.2637 10.1406 44.2441 9.89453 44.2441 9.65234ZM44.4609 7.13867L44.4727 8.05859H43.4941C43.252 8.05859 43.0391 8.08398 42.8555 8.13477C42.6719 8.18164 42.5215 8.25195 42.4043 8.3457C42.2871 8.43555 42.1992 8.54492 42.1406 8.67383C42.082 8.79883 42.0527 8.94141 42.0527 9.10156C42.0527 9.25781 42.0879 9.39844 42.1582 9.52344C42.2324 9.64844 42.3379 9.74805 42.4746 9.82227C42.6152 9.89258 42.7793 9.92773 42.9668 9.92773C43.2402 9.92773 43.4785 9.87305 43.6816 9.76367C43.8848 9.65039 44.043 9.51367 44.1562 9.35352C44.2695 9.19336 44.3301 9.04102 44.3379 8.89648L44.7832 9.56445C44.7285 9.72461 44.6465 9.89453 44.5371 10.0742C44.4277 10.2539 44.2871 10.4219 44.1152 10.5781C43.9434 10.7344 43.7363 10.8633 43.4941 10.9648C43.252 11.0664 42.9707 11.1172 42.6504 11.1172C42.2402 11.1172 41.873 11.0352 41.5488 10.8711C41.2246 10.707 40.9688 10.4824 40.7812 10.1973C40.5938 9.91211 40.5 9.58789 40.5 9.22461C40.5 8.88867 40.5625 8.5918 40.6875 8.33398C40.8125 8.07617 40.998 7.85938 41.2441 7.68359C41.4902 7.50391 41.7949 7.36914 42.1582 7.2793C42.5254 7.18555 42.9453 7.13867 43.418 7.13867H44.4609ZM51.457 4.66016V5.88477H48.3516V4.66016H51.457ZM52.623 4.66016V11H51.0762V4.66016H52.623ZM47.9648 4.66016H49.4941L49.3242 7.82422C49.2969 8.28906 49.248 8.69727 49.1777 9.04883C49.1074 9.39648 49.0137 9.69531 48.8965 9.94531C48.7793 10.1914 48.6367 10.3926 48.4688 10.5488C48.3008 10.7051 48.1055 10.8203 47.8828 10.8945C47.6641 10.9648 47.418 11 47.1445 11H46.6699L46.6523 9.75195L46.875 9.73438C47.0117 9.72266 47.1289 9.68555 47.2266 9.62305C47.3281 9.56055 47.4141 9.4707 47.4844 9.35352C47.5586 9.23633 47.6191 9.08594 47.666 8.90234C47.7168 8.71484 47.7559 8.49609 47.7832 8.24609C47.8145 7.99219 47.8359 7.69922 47.8477 7.36719L47.9648 4.66016ZM55.1426 6.61133H56.9941C57.5566 6.61133 58.0352 6.70508 58.4297 6.89258C58.8281 7.07617 59.1309 7.33398 59.3379 7.66602C59.5488 7.99414 59.6543 8.375 59.6543 8.80859C59.6543 9.12109 59.5938 9.41211 59.4727 9.68164C59.3555 9.94727 59.1836 10.1797 58.957 10.3789C58.7305 10.5742 58.4512 10.7266 58.1191 10.8359C57.791 10.9453 57.416 11 56.9941 11H54.1465V4.66016H55.6992V9.78711H56.9941C57.2637 9.78711 57.4785 9.74219 57.6387 9.65234C57.8027 9.55859 57.9199 9.43945 57.9902 9.29492C58.0645 9.14648 58.1016 8.98828 58.1016 8.82031C58.1016 8.64844 58.0645 8.48828 57.9902 8.33984C57.9199 8.1875 57.8027 8.06445 57.6387 7.9707C57.4785 7.87695 57.2637 7.83008 56.9941 7.83008H55.1426V6.61133ZM65.0273 7.26172V8.47461H61.7754V7.26172H65.0273ZM62.2617 4.66016V11H60.709V4.66016H62.2617ZM66.1113 4.66016V11H64.5527V4.66016H66.1113ZM68.6191 6.61133H70.4707C71.0332 6.61133 71.5117 6.70508 71.9062 6.89258C72.3047 7.07617 72.6074 7.33398 72.8145 7.66602C73.0254 7.99414 73.1309 8.375 73.1309 8.80859C73.1309 9.12109 73.0703 9.41211 72.9492 9.68164C72.832 9.94727 72.6602 10.1797 72.4336 10.3789C72.207 10.5742 71.9277 10.7266 71.5957 10.8359C71.2676 10.9453 70.8926 11 70.4707 11H67.623V4.66016H69.1758V9.78711H70.4707C70.7402 9.78711 70.9551 9.74219 71.1152 9.65234C71.2793 9.55859 71.3965 9.43945 71.4668 9.29492C71.541 9.14648 71.5781 8.98828 71.5781 8.82031C71.5781 8.64844 71.541 8.48828 71.4668 8.33984C71.3965 8.1875 71.2793 8.06445 71.1152 7.9707C70.9551 7.87695 70.7402 7.83008 70.4707 7.83008H68.6191V6.61133ZM75.7324 4.66016V11H74.1797V4.66016H75.7324ZM78.8789 8.79102L81.1875 4.66016H82.7402V11H81.1875V6.86328L78.8789 11H77.3262V4.66016H78.8789V8.79102ZM80.9004 2.16992H82.0254C82.0254 2.49805 81.9453 2.78906 81.7852 3.04297C81.625 3.29687 81.3965 3.49609 81.0996 3.64062C80.8066 3.78125 80.459 3.85156 80.0566 3.85156C79.4512 3.85156 78.9707 3.69531 78.6152 3.38281C78.2598 3.07031 78.082 2.66602 78.082 2.16992H79.207C79.207 2.37695 79.2715 2.5625 79.4004 2.72656C79.5293 2.89062 79.748 2.97266 80.0566 2.97266C80.3652 2.97266 80.582 2.89062 80.707 2.72656C80.8359 2.5625 80.9004 2.37695 80.9004 2.16992ZM88.6816 5.87891V13.4375H87.1289V4.66016H88.5645L88.6816 5.87891ZM92.7539 7.76562V7.88867C92.7539 8.34961 92.6992 8.77734 92.5898 9.17188C92.4844 9.5625 92.3281 9.9043 92.1211 10.1973C91.9141 10.4863 91.6562 10.7129 91.3477 10.877C91.043 11.0371 90.6914 11.1172 90.293 11.1172C89.9023 11.1172 89.5625 11.043 89.2734 10.8945C88.9844 10.7422 88.7402 10.5273 88.541 10.25C88.3418 9.97266 88.1816 9.65039 88.0605 9.2832C87.9434 8.91211 87.8555 8.50781 87.7969 8.07031V7.67773C87.8555 7.21289 87.9434 6.79102 88.0605 6.41211C88.1816 6.0293 88.3418 5.69922 88.541 5.42188C88.7402 5.14062 88.9824 4.92383 89.2676 4.77148C89.5566 4.61914 89.8945 4.54297 90.2812 4.54297C90.6836 4.54297 91.0371 4.61914 91.3418 4.77148C91.6504 4.92383 91.9102 5.14258 92.1211 5.42773C92.332 5.71289 92.4902 6.05273 92.5957 6.44727C92.7012 6.8418 92.7539 7.28125 92.7539 7.76562ZM91.2012 7.88867V7.76562C91.2012 7.48438 91.1758 7.22461 91.125 6.98633C91.0742 6.74414 90.9961 6.5332 90.8906 6.35352C90.7852 6.16992 90.6484 6.02734 90.4805 5.92578C90.3125 5.82422 90.1094 5.77344 89.8711 5.77344C89.6328 5.77344 89.4277 5.8125 89.2559 5.89062C89.084 5.96875 88.9434 6.08008 88.834 6.22461C88.7246 6.36914 88.6387 6.54102 88.5762 6.74023C88.5176 6.93555 88.4785 7.15234 88.459 7.39062V8.36328C88.4941 8.65234 88.5625 8.91211 88.6641 9.14258C88.7656 9.37305 88.9141 9.55664 89.1094 9.69336C89.3086 9.83008 89.5664 9.89844 89.8828 9.89844C90.1211 9.89844 90.3242 9.8457 90.4922 9.74023C90.6602 9.63477 90.7969 9.49023 90.9023 9.30664C91.0078 9.11914 91.084 8.9043 91.1309 8.66211C91.1777 8.41992 91.2012 8.16211 91.2012 7.88867ZM97.377 9.65234V6.72852C97.377 6.51367 97.3398 6.32812 97.2656 6.17188C97.1914 6.01562 97.0781 5.89453 96.9258 5.80859C96.7734 5.72266 96.5801 5.67969 96.3457 5.67969C96.1387 5.67969 95.957 5.71484 95.8008 5.78516C95.6484 5.85547 95.5312 5.95508 95.4492 6.08398C95.3672 6.20898 95.3262 6.35352 95.3262 6.51758H93.7734C93.7734 6.25586 93.8359 6.00781 93.9609 5.77344C94.0859 5.53516 94.2637 5.32422 94.4941 5.14062C94.7285 4.95312 95.0078 4.80664 95.332 4.70117C95.6602 4.5957 96.0273 4.54297 96.4336 4.54297C96.9141 4.54297 97.3418 4.625 97.7168 4.78906C98.0957 4.94922 98.3926 5.19141 98.6074 5.51562C98.8262 5.83984 98.9355 6.24805 98.9355 6.74023V9.50586C98.9355 9.82227 98.9551 10.0938 98.9941 10.3203C99.0371 10.543 99.0996 10.7363 99.1816 10.9004V11H97.6055C97.5312 10.8398 97.4746 10.6367 97.4355 10.3906C97.3965 10.1406 97.377 9.89453 97.377 9.65234ZM97.5938 7.13867L97.6055 8.05859H96.627C96.3848 8.05859 96.1719 8.08398 95.9883 8.13477C95.8047 8.18164 95.6543 8.25195 95.5371 8.3457C95.4199 8.43555 95.332 8.54492 95.2734 8.67383C95.2148 8.79883 95.1855 8.94141 95.1855 9.10156C95.1855 9.25781 95.2207 9.39844 95.291 9.52344C95.3652 9.64844 95.4707 9.74805 95.6074 9.82227C95.748 9.89258 95.9121 9.92773 96.0996 9.92773C96.373 9.92773 96.6113 9.87305 96.8145 9.76367C97.0176 9.65039 97.1758 9.51367 97.2891 9.35352C97.4023 9.19336 97.4629 9.04102 97.4707 8.89648L97.916 9.56445C97.8613 9.72461 97.7793 9.89453 97.6699 10.0742C97.5605 10.2539 97.4199 10.4219 97.248 10.5781C97.0762 10.7344 96.8691 10.8633 96.627 10.9648C96.3848 11.0664 96.1035 11.1172 95.7832 11.1172C95.373 11.1172 95.0059 11.0352 94.6816 10.8711C94.3574 10.707 94.1016 10.4824 93.9141 10.1973C93.7266 9.91211 93.6328 9.58789 93.6328 9.22461C93.6328 8.88867 93.6953 8.5918 93.8203 8.33398C93.9453 8.07617 94.1309 7.85938 94.377 7.68359C94.623 7.50391 94.9277 7.36914 95.291 7.2793C95.6582 7.18555 96.0781 7.13867 96.5508 7.13867H97.5938ZM103.049 7.97656H101.812V7.23828H102.756C102.986 7.23828 103.17 7.20703 103.307 7.14453C103.447 7.08203 103.547 6.99414 103.605 6.88086C103.668 6.76758 103.699 6.63672 103.699 6.48828C103.699 6.35547 103.67 6.23047 103.611 6.11328C103.553 5.99219 103.455 5.89453 103.318 5.82031C103.182 5.74219 102.992 5.70312 102.75 5.70312C102.551 5.70312 102.373 5.73438 102.217 5.79688C102.061 5.85938 101.938 5.94727 101.848 6.06055C101.758 6.17383 101.713 6.30859 101.713 6.46484H100.16C100.16 6.06641 100.273 5.72461 100.5 5.43945C100.73 5.1543 101.037 4.93555 101.42 4.7832C101.803 4.62695 102.223 4.54883 102.68 4.54883C103.074 4.54883 103.43 4.58984 103.746 4.67188C104.062 4.75 104.332 4.86719 104.555 5.02344C104.777 5.17969 104.949 5.37305 105.07 5.60352C105.191 5.83008 105.252 6.09375 105.252 6.39453C105.252 6.60938 105.201 6.8125 105.1 7.00391C104.998 7.19531 104.852 7.36523 104.66 7.51367C104.469 7.6582 104.236 7.77148 103.963 7.85352C103.693 7.93555 103.389 7.97656 103.049 7.97656ZM101.812 7.55469H103.049C103.428 7.55469 103.76 7.5918 104.045 7.66602C104.334 7.73633 104.576 7.8418 104.771 7.98242C104.967 8.12305 105.113 8.29688 105.211 8.50391C105.312 8.70703 105.363 8.94141 105.363 9.20703C105.363 9.50781 105.297 9.77734 105.164 10.0156C105.035 10.25 104.852 10.4492 104.613 10.6133C104.375 10.7773 104.092 10.9023 103.764 10.9883C103.436 11.0742 103.074 11.1172 102.68 11.1172C102.254 11.1172 101.84 11.0469 101.438 10.9062C101.039 10.7656 100.709 10.5488 100.447 10.2559C100.189 9.96289 100.061 9.58594 100.061 9.125H101.613C101.613 9.27344 101.658 9.41211 101.748 9.54102C101.838 9.66992 101.967 9.77344 102.135 9.85156C102.307 9.92578 102.514 9.96289 102.756 9.96289C103.002 9.96289 103.203 9.92383 103.359 9.8457C103.516 9.76758 103.629 9.66406 103.699 9.53516C103.773 9.40234 103.811 9.26367 103.811 9.11914C103.811 8.91992 103.771 8.75977 103.693 8.63867C103.619 8.51367 103.502 8.42188 103.342 8.36328C103.186 8.30469 102.99 8.27539 102.756 8.27539H101.812V7.55469ZM110.285 9.17188L112.066 4.66016H113.361L110.812 11H109.764L107.221 4.66016H108.521L110.285 9.17188ZM108.141 4.66016V11H106.588V4.66016H108.141ZM112.459 11V4.66016H114.012V11H112.459ZM118.4 11.1172C117.92 11.1172 117.488 11.0391 117.105 10.8828C116.723 10.7266 116.396 10.5098 116.127 10.2324C115.861 9.95117 115.656 9.625 115.512 9.25391C115.371 8.87891 115.301 8.47656 115.301 8.04688V7.8125C115.301 7.32422 115.371 6.88086 115.512 6.48242C115.652 6.08008 115.852 5.73438 116.109 5.44531C116.367 5.15625 116.676 4.93359 117.035 4.77734C117.395 4.62109 117.791 4.54297 118.225 4.54297C118.674 4.54297 119.07 4.61914 119.414 4.77148C119.758 4.91992 120.045 5.13086 120.275 5.4043C120.506 5.67773 120.68 6.00586 120.797 6.38867C120.914 6.76758 120.973 7.1875 120.973 7.64844V8.29883H116.004V7.23242H119.449V7.11523C119.441 6.86914 119.395 6.64453 119.309 6.44141C119.223 6.23438 119.09 6.07031 118.91 5.94922C118.73 5.82422 118.498 5.76172 118.213 5.76172C117.982 5.76172 117.781 5.8125 117.609 5.91406C117.441 6.01172 117.301 6.15234 117.188 6.33594C117.078 6.51562 116.996 6.73047 116.941 6.98047C116.887 7.23047 116.859 7.50781 116.859 7.8125V8.04688C116.859 8.3125 116.895 8.55859 116.965 8.78516C117.039 9.01172 117.146 9.20898 117.287 9.37695C117.432 9.54102 117.604 9.66992 117.803 9.76367C118.006 9.85352 118.236 9.89844 118.494 9.89844C118.818 9.89844 119.111 9.83594 119.373 9.71094C119.639 9.58203 119.869 9.39258 120.064 9.14258L120.844 9.95117C120.711 10.1465 120.531 10.334 120.305 10.5137C120.082 10.6934 119.812 10.8398 119.496 10.9531C119.18 11.0625 118.814 11.1172 118.4 11.1172ZM123.557 5.87891V13.4375H122.004V4.66016H123.439L123.557 5.87891ZM127.629 7.76562V7.88867C127.629 8.34961 127.574 8.77734 127.465 9.17188C127.359 9.5625 127.203 9.9043 126.996 10.1973C126.789 10.4863 126.531 10.7129 126.223 10.877C125.918 11.0371 125.566 11.1172 125.168 11.1172C124.777 11.1172 124.438 11.043 124.148 10.8945C123.859 10.7422 123.615 10.5273 123.416 10.25C123.217 9.97266 123.057 9.65039 122.936 9.2832C122.818 8.91211 122.73 8.50781 122.672 8.07031V7.67773C122.73 7.21289 122.818 6.79102 122.936 6.41211C123.057 6.0293 123.217 5.69922 123.416 5.42188C123.615 5.14062 123.857 4.92383 124.143 4.77148C124.432 4.61914 124.77 4.54297 125.156 4.54297C125.559 4.54297 125.912 4.61914 126.217 4.77148C126.525 4.92383 126.785 5.14258 126.996 5.42773C127.207 5.71289 127.365 6.05273 127.471 6.44727C127.576 6.8418 127.629 7.28125 127.629 7.76562ZM126.076 7.88867V7.76562C126.076 7.48438 126.051 7.22461 126 6.98633C125.949 6.74414 125.871 6.5332 125.766 6.35352C125.66 6.16992 125.523 6.02734 125.355 5.92578C125.188 5.82422 124.984 5.77344 124.746 5.77344C124.508 5.77344 124.303 5.8125 124.131 5.89062C123.959 5.96875 123.818 6.08008 123.709 6.22461C123.6 6.36914 123.514 6.54102 123.451 6.74023C123.393 6.93555 123.354 7.15234 123.334 7.39062V8.36328C123.369 8.65234 123.438 8.91211 123.539 9.14258C123.641 9.37305 123.789 9.55664 123.984 9.69336C124.184 9.83008 124.441 9.89844 124.758 9.89844C124.996 9.89844 125.199 9.8457 125.367 9.74023C125.535 9.63477 125.672 9.49023 125.777 9.30664C125.883 9.11914 125.959 8.9043 126.006 8.66211C126.053 8.41992 126.076 8.16211 126.076 7.88867ZM1.83984 18.6602H3.38672L3.32812 20.8398C3.30859 21.5 3.23047 22.0703 3.09375 22.5508C2.96094 23.0273 2.7832 23.4277 2.56055 23.752C2.3418 24.0762 2.0918 24.3379 1.81055 24.5371C1.5332 24.7363 1.24219 24.8906 0.9375 25H0.568359L0.5625 23.793L0.744141 23.7812C0.927734 23.5859 1.08203 23.3945 1.20703 23.207C1.33594 23.0156 1.43945 22.8105 1.51758 22.5918C1.5957 22.373 1.6543 22.123 1.69336 21.8418C1.73633 21.5566 1.76367 21.2227 1.77539 20.8398L1.83984 18.6602ZM2.25586 18.6602H6.36328V25H4.81641V19.9316H2.25586V18.6602ZM0.216797 23.7812H7.24805V26.8984H5.70117V25H1.79297V26.8984H0.210938L0.216797 23.7812ZM12.457 18.6602V19.8848H9.35156V18.6602H12.457ZM13.623 18.6602V25H12.0762V18.6602H13.623ZM8.96484 18.6602H10.4941L10.3242 21.8242C10.2969 22.2891 10.248 22.6973 10.1777 23.0488C10.1074 23.3965 10.0137 23.6953 9.89648 23.9453C9.7793 24.1914 9.63672 24.3926 9.46875 24.5488C9.30078 24.7051 9.10547 24.8203 8.88281 24.8945C8.66406 24.9648 8.41797 25 8.14453 25H7.66992L7.65234 23.752L7.875 23.7344C8.01172 23.7227 8.12891 23.6855 8.22656 23.623C8.32812 23.5605 8.41406 23.4707 8.48438 23.3535C8.55859 23.2363 8.61914 23.0859 8.66602 22.9023C8.7168 22.7148 8.75586 22.4961 8.7832 22.2461C8.81445 21.9922 8.83594 21.6992 8.84766 21.3672L8.96484 18.6602ZM16.3887 21.8711H17.9766L16.1953 25H14.6074L16.3887 21.8711ZM17.4668 18.6602H20.2207V25H18.6738V19.8672H17.4668C17.2207 19.8672 17.0156 19.9121 16.8516 20.002C16.6914 20.0918 16.5723 20.207 16.4941 20.3477C16.416 20.4844 16.377 20.625 16.377 20.7695C16.377 20.9102 16.4141 21.0469 16.4883 21.1797C16.5625 21.3125 16.6758 21.4219 16.8281 21.5078C16.9844 21.5938 17.1797 21.6367 17.4141 21.6367H19.2246V22.7266H17.4141C17.0117 22.7266 16.6504 22.6777 16.3301 22.5801C16.0137 22.4785 15.7422 22.3379 15.5156 22.1582C15.293 21.9785 15.123 21.7676 15.0059 21.5254C14.8887 21.2793 14.8301 21.0117 14.8301 20.7227C14.8301 20.4258 14.8887 20.1523 15.0059 19.9023C15.127 19.6523 15.3008 19.4336 15.5273 19.2461C15.7578 19.0586 16.0352 18.9141 16.3594 18.8125C16.6875 18.7109 17.0566 18.6602 17.4668 18.6602ZM28.9746 18.6602V19.8848H25.875V18.6602H28.9746ZM26.2852 18.6602V25H24.7324V18.6602H26.2852ZM30.1465 18.6602V25H28.5879V18.6602H30.1465ZM34.4004 25.1172C33.9199 25.1172 33.4883 25.0391 33.1055 24.8828C32.7227 24.7266 32.3965 24.5098 32.127 24.2324C31.8613 23.9512 31.6562 23.625 31.5117 23.2539C31.3711 22.8789 31.3008 22.4766 31.3008 22.0469V21.8125C31.3008 21.3242 31.3711 20.8809 31.5117 20.4824C31.6523 20.0801 31.8516 19.7344 32.1094 19.4453C32.3672 19.1562 32.6758 18.9336 33.0352 18.7773C33.3945 18.6211 33.791 18.543 34.2246 18.543C34.6738 18.543 35.0703 18.6191 35.4141 18.7715C35.7578 18.9199 36.0449 19.1309 36.2754 19.4043C36.5059 19.6777 36.6797 20.0059 36.7969 20.3887C36.9141 20.7676 36.9727 21.1875 36.9727 21.6484V22.2988H32.0039V21.2324H35.4492V21.1152C35.4414 20.8691 35.3945 20.6445 35.3086 20.4414C35.2227 20.2344 35.0898 20.0703 34.9102 19.9492C34.7305 19.8242 34.498 19.7617 34.2129 19.7617C33.9824 19.7617 33.7812 19.8125 33.6094 19.9141C33.4414 20.0117 33.3008 20.1523 33.1875 20.3359C33.0781 20.5156 32.9961 20.7305 32.9414 20.9805C32.8867 21.2305 32.8594 21.5078 32.8594 21.8125V22.0469C32.8594 22.3125 32.8945 22.5586 32.9648 22.7852C33.0391 23.0117 33.1465 23.209 33.2871 23.377C33.4316 23.541 33.6035 23.6699 33.8027 23.7637C34.0059 23.8535 34.2363 23.8984 34.4941 23.8984C34.8184 23.8984 35.1113 23.8359 35.373 23.7109C35.6387 23.582 35.8691 23.3926 36.0645 23.1426L36.8438 23.9512C36.7109 24.1465 36.5312 24.334 36.3047 24.5137C36.082 24.6934 35.8125 24.8398 35.4961 24.9531C35.1797 25.0625 34.8145 25.1172 34.4004 25.1172ZM43.2246 18.6602V25H41.6719V18.6602H43.2246ZM42.5215 21.4199V22.6387C42.373 22.709 42.1934 22.7754 41.9824 22.8379C41.7754 22.8965 41.5566 22.9434 41.3262 22.9785C41.0996 23.0137 40.8789 23.0312 40.6641 23.0312C40.082 23.0312 39.5801 22.9453 39.1582 22.7734C38.7402 22.6016 38.418 22.3379 38.1914 21.9824C37.9648 21.623 37.8516 21.1641 37.8516 20.6055V18.6543H39.3984V20.6055C39.3984 20.9062 39.4434 21.1445 39.5332 21.3203C39.623 21.4961 39.7617 21.6211 39.9492 21.6953C40.1367 21.7695 40.375 21.8066 40.6641 21.8066C40.8867 21.8066 41.0996 21.791 41.3027 21.7598C41.5059 21.7246 41.707 21.6797 41.9062 21.625C42.1094 21.5664 42.3145 21.498 42.5215 21.4199ZM48.123 23.6523V20.7285C48.123 20.5137 48.0859 20.3281 48.0117 20.1719C47.9375 20.0156 47.8242 19.8945 47.6719 19.8086C47.5195 19.7227 47.3262 19.6797 47.0918 19.6797C46.8848 19.6797 46.7031 19.7148 46.5469 19.7852C46.3945 19.8555 46.2773 19.9551 46.1953 20.084C46.1133 20.209 46.0723 20.3535 46.0723 20.5176H44.5195C44.5195 20.2559 44.582 20.0078 44.707 19.7734C44.832 19.5352 45.0098 19.3242 45.2402 19.1406C45.4746 18.9531 45.7539 18.8066 46.0781 18.7012C46.4062 18.5957 46.7734 18.543 47.1797 18.543C47.6602 18.543 48.0879 18.625 48.4629 18.7891C48.8418 18.9492 49.1387 19.1914 49.3535 19.5156C49.5723 19.8398 49.6816 20.248 49.6816 20.7402V23.5059C49.6816 23.8223 49.7012 24.0938 49.7402 24.3203C49.7832 24.543 49.8457 24.7363 49.9277 24.9004V25H48.3516C48.2773 24.8398 48.2207 24.6367 48.1816 24.3906C48.1426 24.1406 48.123 23.8945 48.123 23.6523ZM48.3398 21.1387L48.3516 22.0586H47.373C47.1309 22.0586 46.918 22.084 46.7344 22.1348C46.5508 22.1816 46.4004 22.252 46.2832 22.3457C46.166 22.4355 46.0781 22.5449 46.0195 22.6738C45.9609 22.7988 45.9316 22.9414 45.9316 23.1016C45.9316 23.2578 45.9668 23.3984 46.0371 23.5234C46.1113 23.6484 46.2168 23.748 46.3535 23.8223C46.4941 23.8926 46.6582 23.9277 46.8457 23.9277C47.1191 23.9277 47.3574 23.873 47.5605 23.7637C47.7637 23.6504 47.9219 23.5137 48.0352 23.3535C48.1484 23.1934 48.209 23.041 48.2168 22.8965L48.6621 23.5645C48.6074 23.7246 48.5254 23.8945 48.416 24.0742C48.3066 24.2539 48.166 24.4219 47.9941 24.5781C47.8223 24.7344 47.6152 24.8633 47.373 24.9648C47.1309 25.0664 46.8496 25.1172 46.5293 25.1172C46.1191 25.1172 45.752 25.0352 45.4277 24.8711C45.1035 24.707 44.8477 24.4824 44.6602 24.1973C44.4727 23.9121 44.3789 23.5879 44.3789 23.2246C44.3789 22.8887 44.4414 22.5918 44.5664 22.334C44.6914 22.0762 44.877 21.8594 45.123 21.6836C45.3691 21.5039 45.6738 21.3691 46.0371 21.2793C46.4043 21.1855 46.8242 21.1387 47.2969 21.1387H48.3398ZM54.0586 18.6602V25H52.5059V18.6602H54.0586ZM56.1211 18.6602V19.8672H50.4785V18.6602H56.1211ZM58.5938 22.791L60.9023 18.6602H62.4551V25H60.9023V20.8633L58.5938 25H57.041V18.6602H58.5938V22.791Z" fill="black"/>
<path d="M200.943 2.46875H202.338L204.67 8.89062L206.996 2.46875H208.396L205.227 11H204.107L200.943 2.46875ZM200.24 2.46875H201.605L201.852 8.36914V11H200.24V2.46875ZM207.729 2.46875H209.1V11H207.488V8.36914L207.729 2.46875ZM212.188 8.79102L214.496 4.66016H216.049V11H214.496V6.86328L212.188 11H210.635V4.66016H212.188V8.79102ZM221.785 7.26172V8.47461H218.533V7.26172H221.785ZM219.02 4.66016V11H217.467V4.66016H219.02ZM222.869 4.66016V11H221.311V4.66016H222.869ZM225.84 8.79102L228.148 4.66016H229.701V11H228.148V6.86328L225.84 11H224.287V4.66016H225.84V8.79102ZM234.91 9.17188L236.691 4.66016H237.986L235.438 11H234.389L231.846 4.66016H233.146L234.91 9.17188ZM232.766 4.66016V11H231.213V4.66016H232.766ZM237.084 11V4.66016H238.637V11H237.084ZM243.67 9.65234V6.72852C243.67 6.51367 243.633 6.32812 243.559 6.17188C243.484 6.01562 243.371 5.89453 243.219 5.80859C243.066 5.72266 242.873 5.67969 242.639 5.67969C242.432 5.67969 242.25 5.71484 242.094 5.78516C241.941 5.85547 241.824 5.95508 241.742 6.08398C241.66 6.20898 241.619 6.35352 241.619 6.51758H240.066C240.066 6.25586 240.129 6.00781 240.254 5.77344C240.379 5.53516 240.557 5.32422 240.787 5.14062C241.021 4.95312 241.301 4.80664 241.625 4.70117C241.953 4.5957 242.32 4.54297 242.727 4.54297C243.207 4.54297 243.635 4.625 244.01 4.78906C244.389 4.94922 244.686 5.19141 244.9 5.51562C245.119 5.83984 245.229 6.24805 245.229 6.74023V9.50586C245.229 9.82227 245.248 10.0938 245.287 10.3203C245.33 10.543 245.393 10.7363 245.475 10.9004V11H243.898C243.824 10.8398 243.768 10.6367 243.729 10.3906C243.689 10.1406 243.67 9.89453 243.67 9.65234ZM243.887 7.13867L243.898 8.05859H242.92C242.678 8.05859 242.465 8.08398 242.281 8.13477C242.098 8.18164 241.947 8.25195 241.83 8.3457C241.713 8.43555 241.625 8.54492 241.566 8.67383C241.508 8.79883 241.479 8.94141 241.479 9.10156C241.479 9.25781 241.514 9.39844 241.584 9.52344C241.658 9.64844 241.764 9.74805 241.9 9.82227C242.041 9.89258 242.205 9.92773 242.393 9.92773C242.666 9.92773 242.904 9.87305 243.107 9.76367C243.311 9.65039 243.469 9.51367 243.582 9.35352C243.695 9.19336 243.756 9.04102 243.764 8.89648L244.209 9.56445C244.154 9.72461 244.072 9.89453 243.963 10.0742C243.854 10.2539 243.713 10.4219 243.541 10.5781C243.369 10.7344 243.162 10.8633 242.92 10.9648C242.678 11.0664 242.396 11.1172 242.076 11.1172C241.666 11.1172 241.299 11.0352 240.975 10.8711C240.65 10.707 240.395 10.4824 240.207 10.1973C240.02 9.91211 239.926 9.58789 239.926 9.22461C239.926 8.88867 239.988 8.5918 240.113 8.33398C240.238 8.07617 240.424 7.85938 240.67 7.68359C240.916 7.50391 241.221 7.36914 241.584 7.2793C241.951 7.18555 242.371 7.13867 242.844 7.13867H243.887ZM250.883 4.66016V5.88477H247.777V4.66016H250.883ZM252.049 4.66016V11H250.502V4.66016H252.049ZM247.391 4.66016H248.92L248.75 7.82422C248.723 8.28906 248.674 8.69727 248.604 9.04883C248.533 9.39648 248.439 9.69531 248.322 9.94531C248.205 10.1914 248.062 10.3926 247.895 10.5488C247.727 10.7051 247.531 10.8203 247.309 10.8945C247.09 10.9648 246.844 11 246.57 11H246.096L246.078 9.75195L246.301 9.73438C246.438 9.72266 246.555 9.68555 246.652 9.62305C246.754 9.56055 246.84 9.4707 246.91 9.35352C246.984 9.23633 247.045 9.08594 247.092 8.90234C247.143 8.71484 247.182 8.49609 247.209 8.24609C247.24 7.99219 247.262 7.69922 247.273 7.36719L247.391 4.66016ZM254.568 6.61133H256.42C256.982 6.61133 257.461 6.70508 257.855 6.89258C258.254 7.07617 258.557 7.33398 258.764 7.66602C258.975 7.99414 259.08 8.375 259.08 8.80859C259.08 9.12109 259.02 9.41211 258.898 9.68164C258.781 9.94727 258.609 10.1797 258.383 10.3789C258.156 10.5742 257.877 10.7266 257.545 10.8359C257.217 10.9453 256.842 11 256.42 11H253.572V4.66016H255.125V9.78711H256.42C256.689 9.78711 256.904 9.74219 257.064 9.65234C257.229 9.55859 257.346 9.43945 257.416 9.29492C257.49 9.14648 257.527 8.98828 257.527 8.82031C257.527 8.64844 257.49 8.48828 257.416 8.33984C257.346 8.1875 257.229 8.06445 257.064 7.9707C256.904 7.87695 256.689 7.83008 256.42 7.83008H254.568V6.61133ZM264.453 7.26172V8.47461H261.201V7.26172H264.453ZM261.688 4.66016V11H260.135V4.66016H261.688ZM265.537 4.66016V11H263.979V4.66016H265.537ZM268.045 6.61133H269.896C270.459 6.61133 270.938 6.70508 271.332 6.89258C271.73 7.07617 272.033 7.33398 272.24 7.66602C272.451 7.99414 272.557 8.375 272.557 8.80859C272.557 9.12109 272.496 9.41211 272.375 9.68164C272.258 9.94727 272.086 10.1797 271.859 10.3789C271.633 10.5742 271.354 10.7266 271.021 10.8359C270.693 10.9453 270.318 11 269.896 11H267.049V4.66016H268.602V9.78711H269.896C270.166 9.78711 270.381 9.74219 270.541 9.65234C270.705 9.55859 270.822 9.43945 270.893 9.29492C270.967 9.14648 271.004 8.98828 271.004 8.82031C271.004 8.64844 270.967 8.48828 270.893 8.33984C270.822 8.1875 270.705 8.06445 270.541 7.9707C270.381 7.87695 270.166 7.83008 269.896 7.83008H268.045V6.61133ZM275.158 4.66016V11H273.605V4.66016H275.158ZM278.305 8.79102L280.613 4.66016H282.166V11H280.613V6.86328L278.305 11H276.752V4.66016H278.305V8.79102ZM280.326 2.16992H281.451C281.451 2.49805 281.371 2.78906 281.211 3.04297C281.051 3.29687 280.822 3.49609 280.525 3.64062C280.232 3.78125 279.885 3.85156 279.482 3.85156C278.877 3.85156 278.396 3.69531 278.041 3.38281C277.686 3.07031 277.508 2.66602 277.508 2.16992H278.633C278.633 2.37695 278.697 2.5625 278.826 2.72656C278.955 2.89062 279.174 2.97266 279.482 2.97266C279.791 2.97266 280.008 2.89062 280.133 2.72656C280.262 2.5625 280.326 2.37695 280.326 2.16992ZM288.107 5.87891V13.4375H286.555V4.66016H287.99L288.107 5.87891ZM292.18 7.76562V7.88867C292.18 8.34961 292.125 8.77734 292.016 9.17188C291.91 9.5625 291.754 9.9043 291.547 10.1973C291.34 10.4863 291.082 10.7129 290.773 10.877C290.469 11.0371 290.117 11.1172 289.719 11.1172C289.328 11.1172 288.988 11.043 288.699 10.8945C288.41 10.7422 288.166 10.5273 287.967 10.25C287.768 9.97266 287.607 9.65039 287.486 9.2832C287.369 8.91211 287.281 8.50781 287.223 8.07031V7.67773C287.281 7.21289 287.369 6.79102 287.486 6.41211C287.607 6.0293 287.768 5.69922 287.967 5.42188C288.166 5.14062 288.408 4.92383 288.693 4.77148C288.982 4.61914 289.32 4.54297 289.707 4.54297C290.109 4.54297 290.463 4.61914 290.768 4.77148C291.076 4.92383 291.336 5.14258 291.547 5.42773C291.758 5.71289 291.916 6.05273 292.021 6.44727C292.127 6.8418 292.18 7.28125 292.18 7.76562ZM290.627 7.88867V7.76562C290.627 7.48438 290.602 7.22461 290.551 6.98633C290.5 6.74414 290.422 6.5332 290.316 6.35352C290.211 6.16992 290.074 6.02734 289.906 5.92578C289.738 5.82422 289.535 5.77344 289.297 5.77344C289.059 5.77344 288.854 5.8125 288.682 5.89062C288.51 5.96875 288.369 6.08008 288.26 6.22461C288.15 6.36914 288.064 6.54102 288.002 6.74023C287.943 6.93555 287.904 7.15234 287.885 7.39062V8.36328C287.92 8.65234 287.988 8.91211 288.09 9.14258C288.191 9.37305 288.34 9.55664 288.535 9.69336C288.734 9.83008 288.992 9.89844 289.309 9.89844C289.547 9.89844 289.75 9.8457 289.918 9.74023C290.086 9.63477 290.223 9.49023 290.328 9.30664C290.434 9.11914 290.51 8.9043 290.557 8.66211C290.604 8.41992 290.627 8.16211 290.627 7.88867ZM296.803 9.65234V6.72852C296.803 6.51367 296.766 6.32812 296.691 6.17188C296.617 6.01562 296.504 5.89453 296.352 5.80859C296.199 5.72266 296.006 5.67969 295.771 5.67969C295.564 5.67969 295.383 5.71484 295.227 5.78516C295.074 5.85547 294.957 5.95508 294.875 6.08398C294.793 6.20898 294.752 6.35352 294.752 6.51758H293.199C293.199 6.25586 293.262 6.00781 293.387 5.77344C293.512 5.53516 293.689 5.32422 293.92 5.14062C294.154 4.95312 294.434 4.80664 294.758 4.70117C295.086 4.5957 295.453 4.54297 295.859 4.54297C296.34 4.54297 296.768 4.625 297.143 4.78906C297.521 4.94922 297.818 5.19141 298.033 5.51562C298.252 5.83984 298.361 6.24805 298.361 6.74023V9.50586C298.361 9.82227 298.381 10.0938 298.42 10.3203C298.463 10.543 298.525 10.7363 298.607 10.9004V11H297.031C296.957 10.8398 296.9 10.6367 296.861 10.3906C296.822 10.1406 296.803 9.89453 296.803 9.65234ZM297.02 7.13867L297.031 8.05859H296.053C295.811 8.05859 295.598 8.08398 295.414 8.13477C295.23 8.18164 295.08 8.25195 294.963 8.3457C294.846 8.43555 294.758 8.54492 294.699 8.67383C294.641 8.79883 294.611 8.94141 294.611 9.10156C294.611 9.25781 294.646 9.39844 294.717 9.52344C294.791 9.64844 294.896 9.74805 295.033 9.82227C295.174 9.89258 295.338 9.92773 295.525 9.92773C295.799 9.92773 296.037 9.87305 296.24 9.76367C296.443 9.65039 296.602 9.51367 296.715 9.35352C296.828 9.19336 296.889 9.04102 296.896 8.89648L297.342 9.56445C297.287 9.72461 297.205 9.89453 297.096 10.0742C296.986 10.2539 296.846 10.4219 296.674 10.5781C296.502 10.7344 296.295 10.8633 296.053 10.9648C295.811 11.0664 295.529 11.1172 295.209 11.1172C294.799 11.1172 294.432 11.0352 294.107 10.8711C293.783 10.707 293.527 10.4824 293.34 10.1973C293.152 9.91211 293.059 9.58789 293.059 9.22461C293.059 8.88867 293.121 8.5918 293.246 8.33398C293.371 8.07617 293.557 7.85938 293.803 7.68359C294.049 7.50391 294.354 7.36914 294.717 7.2793C295.084 7.18555 295.504 7.13867 295.977 7.13867H297.02ZM302.475 7.97656H301.238V7.23828H302.182C302.412 7.23828 302.596 7.20703 302.732 7.14453C302.873 7.08203 302.973 6.99414 303.031 6.88086C303.094 6.76758 303.125 6.63672 303.125 6.48828C303.125 6.35547 303.096 6.23047 303.037 6.11328C302.979 5.99219 302.881 5.89453 302.744 5.82031C302.607 5.74219 302.418 5.70312 302.176 5.70312C301.977 5.70312 301.799 5.73438 301.643 5.79688C301.486 5.85938 301.363 5.94727 301.273 6.06055C301.184 6.17383 301.139 6.30859 301.139 6.46484H299.586C299.586 6.06641 299.699 5.72461 299.926 5.43945C300.156 5.1543 300.463 4.93555 300.846 4.7832C301.229 4.62695 301.648 4.54883 302.105 4.54883C302.5 4.54883 302.855 4.58984 303.172 4.67188C303.488 4.75 303.758 4.86719 303.98 5.02344C304.203 5.17969 304.375 5.37305 304.496 5.60352C304.617 5.83008 304.678 6.09375 304.678 6.39453C304.678 6.60938 304.627 6.8125 304.525 7.00391C304.424 7.19531 304.277 7.36523 304.086 7.51367C303.895 7.6582 303.662 7.77148 303.389 7.85352C303.119 7.93555 302.814 7.97656 302.475 7.97656ZM301.238 7.55469H302.475C302.854 7.55469 303.186 7.5918 303.471 7.66602C303.76 7.73633 304.002 7.8418 304.197 7.98242C304.393 8.12305 304.539 8.29688 304.637 8.50391C304.738 8.70703 304.789 8.94141 304.789 9.20703C304.789 9.50781 304.723 9.77734 304.59 10.0156C304.461 10.25 304.277 10.4492 304.039 10.6133C303.801 10.7773 303.518 10.9023 303.189 10.9883C302.861 11.0742 302.5 11.1172 302.105 11.1172C301.68 11.1172 301.266 11.0469 300.863 10.9062C300.465 10.7656 300.135 10.5488 299.873 10.2559C299.615 9.96289 299.486 9.58594 299.486 9.125H301.039C301.039 9.27344 301.084 9.41211 301.174 9.54102C301.264 9.66992 301.393 9.77344 301.561 9.85156C301.732 9.92578 301.939 9.96289 302.182 9.96289C302.428 9.96289 302.629 9.92383 302.785 9.8457C302.941 9.76758 303.055 9.66406 303.125 9.53516C303.199 9.40234 303.236 9.26367 303.236 9.11914C303.236 8.91992 303.197 8.75977 303.119 8.63867C303.045 8.51367 302.928 8.42188 302.768 8.36328C302.611 8.30469 302.416 8.27539 302.182 8.27539H301.238V7.55469ZM309.711 9.17188L311.492 4.66016H312.787L310.238 11H309.189L306.646 4.66016H307.947L309.711 9.17188ZM307.566 4.66016V11H306.014V4.66016H307.566ZM311.885 11V4.66016H313.438V11H311.885ZM317.826 11.1172C317.346 11.1172 316.914 11.0391 316.531 10.8828C316.148 10.7266 315.822 10.5098 315.553 10.2324C315.287 9.95117 315.082 9.625 314.938 9.25391C314.797 8.87891 314.727 8.47656 314.727 8.04688V7.8125C314.727 7.32422 314.797 6.88086 314.938 6.48242C315.078 6.08008 315.277 5.73438 315.535 5.44531C315.793 5.15625 316.102 4.93359 316.461 4.77734C316.82 4.62109 317.217 4.54297 317.65 4.54297C318.1 4.54297 318.496 4.61914 318.84 4.77148C319.184 4.91992 319.471 5.13086 319.701 5.4043C319.932 5.67773 320.105 6.00586 320.223 6.38867C320.34 6.76758 320.398 7.1875 320.398 7.64844V8.29883H315.43V7.23242H318.875V7.11523C318.867 6.86914 318.82 6.64453 318.734 6.44141C318.648 6.23438 318.516 6.07031 318.336 5.94922C318.156 5.82422 317.924 5.76172 317.639 5.76172C317.408 5.76172 317.207 5.8125 317.035 5.91406C316.867 6.01172 316.727 6.15234 316.613 6.33594C316.504 6.51562 316.422 6.73047 316.367 6.98047C316.312 7.23047 316.285 7.50781 316.285 7.8125V8.04688C316.285 8.3125 316.32 8.55859 316.391 8.78516C316.465 9.01172 316.572 9.20898 316.713 9.37695C316.857 9.54102 317.029 9.66992 317.229 9.76367C317.432 9.85352 317.662 9.89844 317.92 9.89844C318.244 9.89844 318.537 9.83594 318.799 9.71094C319.064 9.58203 319.295 9.39258 319.49 9.14258L320.27 9.95117C320.137 10.1465 319.957 10.334 319.73 10.5137C319.508 10.6934 319.238 10.8398 318.922 10.9531C318.605 11.0625 318.24 11.1172 317.826 11.1172ZM322.982 5.87891V13.4375H321.43V4.66016H322.865L322.982 5.87891ZM327.055 7.76562V7.88867C327.055 8.34961 327 8.77734 326.891 9.17188C326.785 9.5625 326.629 9.9043 326.422 10.1973C326.215 10.4863 325.957 10.7129 325.648 10.877C325.344 11.0371 324.992 11.1172 324.594 11.1172C324.203 11.1172 323.863 11.043 323.574 10.8945C323.285 10.7422 323.041 10.5273 322.842 10.25C322.643 9.97266 322.482 9.65039 322.361 9.2832C322.244 8.91211 322.156 8.50781 322.098 8.07031V7.67773C322.156 7.21289 322.244 6.79102 322.361 6.41211C322.482 6.0293 322.643 5.69922 322.842 5.42188C323.041 5.14062 323.283 4.92383 323.568 4.77148C323.857 4.61914 324.195 4.54297 324.582 4.54297C324.984 4.54297 325.338 4.61914 325.643 4.77148C325.951 4.92383 326.211 5.14258 326.422 5.42773C326.633 5.71289 326.791 6.05273 326.896 6.44727C327.002 6.8418 327.055 7.28125 327.055 7.76562ZM325.502 7.88867V7.76562C325.502 7.48438 325.477 7.22461 325.426 6.98633C325.375 6.74414 325.297 6.5332 325.191 6.35352C325.086 6.16992 324.949 6.02734 324.781 5.92578C324.613 5.82422 324.41 5.77344 324.172 5.77344C323.934 5.77344 323.729 5.8125 323.557 5.89062C323.385 5.96875 323.244 6.08008 323.135 6.22461C323.025 6.36914 322.939 6.54102 322.877 6.74023C322.818 6.93555 322.779 7.15234 322.76 7.39062V8.36328C322.795 8.65234 322.863 8.91211 322.965 9.14258C323.066 9.37305 323.215 9.55664 323.41 9.69336C323.609 9.83008 323.867 9.89844 324.184 9.89844C324.422 9.89844 324.625 9.8457 324.793 9.74023C324.961 9.63477 325.098 9.49023 325.203 9.30664C325.309 9.11914 325.385 8.9043 325.432 8.66211C325.479 8.41992 325.502 8.16211 325.502 7.88867ZM201.266 18.6602H202.812L202.754 20.8398C202.734 21.5 202.656 22.0703 202.52 22.5508C202.387 23.0273 202.209 23.4277 201.986 23.752C201.768 24.0762 201.518 24.3379 201.236 24.5371C200.959 24.7363 200.668 24.8906 200.363 25H199.994L199.988 23.793L200.17 23.7812C200.354 23.5859 200.508 23.3945 200.633 23.207C200.762 23.0156 200.865 22.8105 200.943 22.5918C201.021 22.373 201.08 22.123 201.119 21.8418C201.162 21.5566 201.189 21.2227 201.201 20.8398L201.266 18.6602ZM201.682 18.6602H205.789V25H204.242V19.9316H201.682V18.6602ZM199.643 23.7812H206.674V26.8984H205.127V25H201.219V26.8984H199.637L199.643 23.7812ZM211.883 18.6602V19.8848H208.777V18.6602H211.883ZM213.049 18.6602V25H211.502V18.6602H213.049ZM208.391 18.6602H209.92L209.75 21.8242C209.723 22.2891 209.674 22.6973 209.604 23.0488C209.533 23.3965 209.439 23.6953 209.322 23.9453C209.205 24.1914 209.062 24.3926 208.895 24.5488C208.727 24.7051 208.531 24.8203 208.309 24.8945C208.09 24.9648 207.844 25 207.57 25H207.096L207.078 23.752L207.301 23.7344C207.438 23.7227 207.555 23.6855 207.652 23.623C207.754 23.5605 207.84 23.4707 207.91 23.3535C207.984 23.2363 208.045 23.0859 208.092 22.9023C208.143 22.7148 208.182 22.4961 208.209 22.2461C208.24 21.9922 208.262 21.6992 208.273 21.3672L208.391 18.6602ZM215.814 21.8711H217.402L215.621 25H214.033L215.814 21.8711ZM216.893 18.6602H219.646V25H218.1V19.8672H216.893C216.646 19.8672 216.441 19.9121 216.277 20.002C216.117 20.0918 215.998 20.207 215.92 20.3477C215.842 20.4844 215.803 20.625 215.803 20.7695C215.803 20.9102 215.84 21.0469 215.914 21.1797C215.988 21.3125 216.102 21.4219 216.254 21.5078C216.41 21.5938 216.605 21.6367 216.84 21.6367H218.65V22.7266H216.84C216.438 22.7266 216.076 22.6777 215.756 22.5801C215.439 22.4785 215.168 22.3379 214.941 22.1582C214.719 21.9785 214.549 21.7676 214.432 21.5254C214.314 21.2793 214.256 21.0117 214.256 20.7227C214.256 20.4258 214.314 20.1523 214.432 19.9023C214.553 19.6523 214.727 19.4336 214.953 19.2461C215.184 19.0586 215.461 18.9141 215.785 18.8125C216.113 18.7109 216.482 18.6602 216.893 18.6602ZM224.158 25V18.6602H225.711V23.7812H228.014V18.6602H229.572V25H224.158ZM230.475 23.7871L230.363 26.8809H228.928V25H228.195V23.7871H230.475ZM232.977 22.791L235.285 18.6602H236.838V25H235.285V20.8633L232.977 25H231.424V18.6602H232.977V22.791ZM245.861 21.8887V22.0117C245.861 22.4648 245.811 22.8809 245.709 23.2598C245.611 23.6387 245.463 23.9668 245.264 24.2441C245.068 24.5215 244.826 24.7363 244.537 24.8887C244.248 25.041 243.914 25.1172 243.535 25.1172C243.195 25.1172 242.898 25.0566 242.645 24.9355C242.395 24.8105 242.184 24.6367 242.012 24.4141C241.844 24.1875 241.707 23.9238 241.602 23.623C241.5 23.3184 241.424 22.9883 241.373 22.6328V21.2031C241.424 20.8203 241.5 20.4688 241.602 20.1484C241.703 19.8242 241.84 19.543 242.012 19.3047C242.184 19.0625 242.393 18.875 242.639 18.7422C242.889 18.6094 243.184 18.543 243.523 18.543C243.832 18.543 244.109 18.5957 244.355 18.7012C244.602 18.8066 244.818 18.959 245.006 19.1582C245.193 19.3535 245.35 19.5898 245.475 19.8672C245.604 20.1406 245.699 20.4492 245.762 20.793C245.828 21.1328 245.861 21.498 245.861 21.8887ZM244.309 22.0117V21.8887C244.309 21.6582 244.295 21.4375 244.268 21.2266C244.24 21.0117 244.197 20.8164 244.139 20.6406C244.08 20.4648 244.004 20.3105 243.91 20.1777C243.816 20.0449 243.703 19.9434 243.57 19.873C243.438 19.7988 243.285 19.7617 243.113 19.7617C242.848 19.7617 242.629 19.8105 242.457 19.9082C242.289 20.0059 242.162 20.1406 242.076 20.3125C241.994 20.4844 241.945 20.6855 241.93 20.916V22.9258C241.949 23.1211 242.002 23.291 242.088 23.4355C242.174 23.5801 242.301 23.6934 242.469 23.7754C242.641 23.8574 242.859 23.8984 243.125 23.8984C243.34 23.8984 243.521 23.8516 243.67 23.7578C243.822 23.6602 243.945 23.5273 244.039 23.3594C244.133 23.1875 244.201 22.9883 244.244 22.7617C244.287 22.5312 244.309 22.2812 244.309 22.0117ZM237.986 22.0117V21.8887C237.986 21.498 238.018 21.1328 238.08 20.793C238.146 20.4492 238.244 20.1406 238.373 19.8672C238.502 19.5898 238.66 19.3535 238.848 19.1582C239.035 18.959 239.252 18.8066 239.498 18.7012C239.744 18.5957 240.02 18.543 240.324 18.543C240.664 18.543 240.957 18.6094 241.203 18.7422C241.449 18.875 241.656 19.0625 241.824 19.3047C241.992 19.543 242.127 19.8242 242.229 20.1484C242.33 20.4688 242.408 20.8203 242.463 21.2031V22.5742C242.412 22.9375 242.334 23.2754 242.229 23.5879C242.127 23.8965 241.99 24.166 241.818 24.3965C241.65 24.627 241.443 24.8047 241.197 24.9297C240.951 25.0547 240.656 25.1172 240.312 25.1172C239.938 25.1172 239.605 25.041 239.316 24.8887C239.027 24.7363 238.783 24.5215 238.584 24.2441C238.389 23.9668 238.24 23.6387 238.139 23.2598C238.037 22.8809 237.986 22.4648 237.986 22.0117ZM239.539 21.8887V22.0117C239.539 22.2812 239.559 22.5312 239.598 22.7617C239.641 22.9883 239.707 23.1875 239.797 23.3594C239.891 23.5273 240.012 23.6602 240.16 23.7578C240.309 23.8516 240.49 23.8984 240.705 23.8984C240.975 23.8984 241.193 23.8555 241.361 23.7695C241.529 23.6797 241.656 23.5586 241.742 23.4062C241.832 23.25 241.885 23.0684 241.9 22.8613V20.916C241.889 20.6855 241.84 20.4844 241.754 20.3125C241.668 20.1406 241.541 20.0059 241.373 19.9082C241.205 19.8105 240.986 19.7617 240.717 19.7617C240.502 19.7617 240.318 19.8184 240.166 19.9316C240.018 20.041 239.896 20.1934 239.803 20.3887C239.713 20.584 239.646 20.8105 239.604 21.0684C239.561 21.3262 239.539 21.5996 239.539 21.8887ZM241.127 27.4375V16H242.686V27.4375H241.127ZM248.557 19.8789V27.4375H247.004V18.6602H248.439L248.557 19.8789ZM252.629 21.7656V21.8887C252.629 22.3496 252.574 22.7773 252.465 23.1719C252.359 23.5625 252.203 23.9043 251.996 24.1973C251.789 24.4863 251.531 24.7129 251.223 24.877C250.918 25.0371 250.566 25.1172 250.168 25.1172C249.777 25.1172 249.438 25.043 249.148 24.8945C248.859 24.7422 248.615 24.5273 248.416 24.25C248.217 23.9727 248.057 23.6504 247.936 23.2832C247.818 22.9121 247.73 22.5078 247.672 22.0703V21.6777C247.73 21.2129 247.818 20.791 247.936 20.4121C248.057 20.0293 248.217 19.6992 248.416 19.4219C248.615 19.1406 248.857 18.9238 249.143 18.7715C249.432 18.6191 249.77 18.543 250.156 18.543C250.559 18.543 250.912 18.6191 251.217 18.7715C251.525 18.9238 251.785 19.1426 251.996 19.4277C252.207 19.7129 252.365 20.0527 252.471 20.4473C252.576 20.8418 252.629 21.2812 252.629 21.7656ZM251.076 21.8887V21.7656C251.076 21.4844 251.051 21.2246 251 20.9863C250.949 20.7441 250.871 20.5332 250.766 20.3535C250.66 20.1699 250.523 20.0273 250.355 19.9258C250.188 19.8242 249.984 19.7734 249.746 19.7734C249.508 19.7734 249.303 19.8125 249.131 19.8906C248.959 19.9688 248.818 20.0801 248.709 20.2246C248.6 20.3691 248.514 20.541 248.451 20.7402C248.393 20.9355 248.354 21.1523 248.334 21.3906V22.3633C248.369 22.6523 248.438 22.9121 248.539 23.1426C248.641 23.373 248.789 23.5566 248.984 23.6934C249.184 23.8301 249.441 23.8984 249.758 23.8984C249.996 23.8984 250.199 23.8457 250.367 23.7402C250.535 23.6348 250.672 23.4902 250.777 23.3066C250.883 23.1191 250.959 22.9043 251.006 22.6621C251.053 22.4199 251.076 22.1621 251.076 21.8887ZM253.484 21.8945V21.7715C253.484 21.3066 253.551 20.8789 253.684 20.4883C253.816 20.0938 254.01 19.752 254.264 19.4629C254.518 19.1738 254.828 18.9492 255.195 18.7891C255.562 18.625 255.98 18.543 256.449 18.543C256.926 18.543 257.348 18.625 257.715 18.7891C258.086 18.9492 258.398 19.1738 258.652 19.4629C258.906 19.752 259.1 20.0938 259.232 20.4883C259.365 20.8789 259.432 21.3066 259.432 21.7715V21.8945C259.432 22.3555 259.365 22.7832 259.232 23.1777C259.1 23.5684 258.906 23.9102 258.652 24.2031C258.398 24.4922 258.088 24.7168 257.721 24.877C257.354 25.0371 256.934 25.1172 256.461 25.1172C255.992 25.1172 255.572 25.0371 255.201 24.877C254.83 24.7168 254.518 24.4922 254.264 24.2031C254.01 23.9102 253.816 23.5684 253.684 23.1777C253.551 22.7832 253.484 22.3555 253.484 21.8945ZM255.031 21.7715V21.8945C255.031 22.1719 255.059 22.4316 255.113 22.6738C255.168 22.916 255.252 23.1289 255.365 23.3125C255.479 23.4961 255.625 23.6406 255.805 23.7461C255.988 23.8477 256.207 23.8984 256.461 23.8984C256.711 23.8984 256.926 23.8477 257.105 23.7461C257.285 23.6406 257.432 23.4961 257.545 23.3125C257.662 23.1289 257.748 22.916 257.803 22.6738C257.857 22.4316 257.885 22.1719 257.885 21.8945V21.7715C257.885 21.498 257.857 21.2422 257.803 21.0039C257.748 20.7617 257.662 20.5488 257.545 20.3652C257.432 20.1777 257.283 20.0312 257.1 19.9258C256.92 19.8164 256.703 19.7617 256.449 19.7617C256.199 19.7617 255.984 19.8164 255.805 19.9258C255.625 20.0312 255.479 20.1777 255.365 20.3652C255.252 20.5488 255.168 20.7617 255.113 21.0039C255.059 21.2422 255.031 21.498 255.031 21.7715ZM263.674 22.3164H261.664L261.652 21.2676H263.305C263.551 21.2676 263.752 21.2422 263.908 21.1914C264.064 21.1406 264.18 21.0645 264.254 20.9629C264.332 20.8613 264.371 20.7383 264.371 20.5938C264.371 20.4688 264.348 20.3613 264.301 20.2715C264.254 20.1777 264.184 20.1016 264.09 20.043C264 19.9844 263.885 19.9414 263.744 19.9141C263.607 19.8828 263.447 19.8672 263.264 19.8672H262.215V25H260.662V18.6602H263.264C263.674 18.6602 264.043 18.6973 264.371 18.7715C264.699 18.8418 264.979 18.9492 265.209 19.0938C265.439 19.2383 265.615 19.4219 265.736 19.6445C265.861 19.8633 265.924 20.1211 265.924 20.418C265.924 20.6133 265.881 20.7969 265.795 20.9688C265.709 21.1406 265.582 21.293 265.414 21.4258C265.246 21.5586 265.039 21.668 264.793 21.7539C264.547 21.8359 264.266 21.8867 263.949 21.9062L263.674 22.3164ZM263.674 25H261.248L261.822 23.793H263.674C263.9 23.793 264.088 23.7656 264.236 23.7109C264.385 23.6523 264.494 23.5684 264.564 23.459C264.639 23.3496 264.676 23.2168 264.676 23.0605C264.676 22.9082 264.641 22.7773 264.57 22.668C264.504 22.5547 264.396 22.4688 264.248 22.4102C264.104 22.3477 263.912 22.3164 263.674 22.3164H262.074L262.086 21.2676H263.943L264.354 21.6836C264.775 21.7109 265.125 21.7969 265.402 21.9414C265.68 22.082 265.887 22.2617 266.023 22.4805C266.16 22.6953 266.229 22.9316 266.229 23.1895C266.229 23.4902 266.172 23.7539 266.059 23.9805C265.945 24.207 265.779 24.3965 265.561 24.5488C265.342 24.6973 265.074 24.8105 264.758 24.8887C264.441 24.9629 264.08 25 263.674 25ZM268.455 20.6113H270.307C270.869 20.6113 271.348 20.7051 271.742 20.8926C272.141 21.0762 272.443 21.334 272.65 21.666C272.861 21.9941 272.967 22.375 272.967 22.8086C272.967 23.1211 272.906 23.4121 272.785 23.6816C272.668 23.9473 272.496 24.1797 272.27 24.3789C272.043 24.5742 271.764 24.7266 271.432 24.8359C271.104 24.9453 270.729 25 270.307 25H267.459V18.6602H269.012V23.7871H270.307C270.576 23.7871 270.791 23.7422 270.951 23.6523C271.115 23.5586 271.232 23.4395 271.303 23.2949C271.377 23.1465 271.414 22.9883 271.414 22.8203C271.414 22.6484 271.377 22.4883 271.303 22.3398C271.232 22.1875 271.115 22.0645 270.951 21.9707C270.791 21.877 270.576 21.8301 270.307 21.8301H268.455V20.6113ZM275.568 18.6602V25H274.016V18.6602H275.568ZM278.363 18.6602L279.494 20.6758L280.643 18.6602H282.324L280.461 21.7656L282.4 25H280.719L279.506 22.8848L278.287 25H276.605L278.539 21.7656L276.688 18.6602H278.363ZM290.539 21.2617V22.4746H287.287V21.2617H290.539ZM287.773 18.6602V25H286.221V18.6602H287.773ZM291.623 18.6602V25H290.064V18.6602H291.623ZM292.754 21.8945V21.7715C292.754 21.3066 292.82 20.8789 292.953 20.4883C293.086 20.0938 293.279 19.752 293.533 19.4629C293.787 19.1738 294.098 18.9492 294.465 18.7891C294.832 18.625 295.25 18.543 295.719 18.543C296.195 18.543 296.617 18.625 296.984 18.7891C297.355 18.9492 297.668 19.1738 297.922 19.4629C298.176 19.752 298.369 20.0938 298.502 20.4883C298.635 20.8789 298.701 21.3066 298.701 21.7715V21.8945C298.701 22.3555 298.635 22.7832 298.502 23.1777C298.369 23.5684 298.176 23.9102 297.922 24.2031C297.668 24.4922 297.357 24.7168 296.99 24.877C296.623 25.0371 296.203 25.1172 295.73 25.1172C295.262 25.1172 294.842 25.0371 294.471 24.877C294.1 24.7168 293.787 24.4922 293.533 24.2031C293.279 23.9102 293.086 23.5684 292.953 23.1777C292.82 22.7832 292.754 22.3555 292.754 21.8945ZM294.301 21.7715V21.8945C294.301 22.1719 294.328 22.4316 294.383 22.6738C294.438 22.916 294.521 23.1289 294.635 23.3125C294.748 23.4961 294.895 23.6406 295.074 23.7461C295.258 23.8477 295.477 23.8984 295.73 23.8984C295.98 23.8984 296.195 23.8477 296.375 23.7461C296.555 23.6406 296.701 23.4961 296.814 23.3125C296.932 23.1289 297.018 22.916 297.072 22.6738C297.127 22.4316 297.154 22.1719 297.154 21.8945V21.7715C297.154 21.498 297.127 21.2422 297.072 21.0039C297.018 20.7617 296.932 20.5488 296.814 20.3652C296.701 20.1777 296.553 20.0312 296.369 19.9258C296.189 19.8164 295.973 19.7617 295.719 19.7617C295.469 19.7617 295.254 19.8164 295.074 19.9258C294.895 20.0312 294.748 20.1777 294.635 20.3652C294.521 20.5488 294.438 20.7617 294.383 21.0039C294.328 21.2422 294.301 21.498 294.301 21.7715ZM302.428 23.8984C302.646 23.8984 302.842 23.8555 303.014 23.7695C303.186 23.6836 303.322 23.5625 303.424 23.4062C303.529 23.25 303.586 23.0684 303.594 22.8613H305.053C305.045 23.291 304.924 23.6758 304.689 24.0156C304.455 24.3555 304.143 24.625 303.752 24.8242C303.365 25.0195 302.932 25.1172 302.451 25.1172C301.963 25.1172 301.537 25.0352 301.174 24.8711C300.811 24.707 300.508 24.4785 300.266 24.1855C300.027 23.8926 299.848 23.5527 299.727 23.166C299.609 22.7793 299.551 22.3652 299.551 21.9238V21.7363C299.551 21.2949 299.609 20.8809 299.727 20.4941C299.848 20.1074 300.027 19.7676 300.266 19.4746C300.508 19.1816 300.811 18.9531 301.174 18.7891C301.537 18.625 301.961 18.543 302.445 18.543C302.957 18.543 303.406 18.6426 303.793 18.8418C304.184 19.041 304.488 19.3223 304.707 19.6855C304.93 20.0488 305.045 20.4766 305.053 20.9688H303.594C303.586 20.7422 303.535 20.5391 303.441 20.3594C303.348 20.1797 303.215 20.0352 303.043 19.9258C302.871 19.8164 302.662 19.7617 302.416 19.7617C302.154 19.7617 301.936 19.8164 301.76 19.9258C301.588 20.0352 301.453 20.1855 301.355 20.377C301.262 20.5645 301.195 20.7754 301.156 21.0098C301.121 21.2402 301.104 21.4824 301.104 21.7363V21.9238C301.104 22.1816 301.121 22.4277 301.156 22.6621C301.195 22.8965 301.262 23.1074 301.355 23.2949C301.453 23.4785 301.588 23.625 301.76 23.7344C301.936 23.8438 302.158 23.8984 302.428 23.8984ZM307.648 22.791L309.957 18.6602H311.51V25H309.957V20.8633L307.648 25H306.096V18.6602H307.648V22.791ZM315.992 18.6602V25H314.439V18.6602H315.992ZM318.055 18.6602V19.8672H312.412V18.6602H318.055ZM321.389 25.1172C320.908 25.1172 320.477 25.0391 320.094 24.8828C319.711 24.7266 319.385 24.5098 319.115 24.2324C318.85 23.9512 318.645 23.625 318.5 23.2539C318.359 22.8789 318.289 22.4766 318.289 22.0469V21.8125C318.289 21.3242 318.359 20.8809 318.5 20.4824C318.641 20.0801 318.84 19.7344 319.098 19.4453C319.355 19.1562 319.664 18.9336 320.023 18.7773C320.383 18.6211 320.779 18.543 321.213 18.543C321.662 18.543 322.059 18.6191 322.402 18.7715C322.746 18.9199 323.033 19.1309 323.264 19.4043C323.494 19.6777 323.668 20.0059 323.785 20.3887C323.902 20.7676 323.961 21.1875 323.961 21.6484V22.2988H318.992V21.2324H322.438V21.1152C322.43 20.8691 322.383 20.6445 322.297 20.4414C322.211 20.2344 322.078 20.0703 321.898 19.9492C321.719 19.8242 321.486 19.7617 321.201 19.7617C320.971 19.7617 320.77 19.8125 320.598 19.9141C320.43 20.0117 320.289 20.1523 320.176 20.3359C320.066 20.5156 319.984 20.7305 319.93 20.9805C319.875 21.2305 319.848 21.5078 319.848 21.8125V22.0469C319.848 22.3125 319.883 22.5586 319.953 22.7852C320.027 23.0117 320.135 23.209 320.275 23.377C320.42 23.541 320.592 23.6699 320.791 23.7637C320.994 23.8535 321.225 23.8984 321.482 23.8984C321.807 23.8984 322.1 23.8359 322.361 23.7109C322.627 23.582 322.857 23.3926 323.053 23.1426L323.832 23.9512C323.699 24.1465 323.52 24.334 323.293 24.5137C323.07 24.6934 322.801 24.8398 322.484 24.9531C322.168 25.0625 321.803 25.1172 321.389 25.1172ZM329.258 18.6602V19.8848H326.152V18.6602H329.258ZM330.424 18.6602V25H328.877V18.6602H330.424ZM325.766 18.6602H327.295L327.125 21.8242C327.098 22.2891 327.049 22.6973 326.979 23.0488C326.908 23.3965 326.814 23.6953 326.697 23.9453C326.58 24.1914 326.438 24.3926 326.27 24.5488C326.102 24.7051 325.906 24.8203 325.684 24.8945C325.465 24.9648 325.219 25 324.945 25H324.471L324.453 23.752L324.676 23.7344C324.812 23.7227 324.93 23.6855 325.027 23.623C325.129 23.5605 325.215 23.4707 325.285 23.3535C325.359 23.2363 325.42 23.0859 325.467 22.9023C325.518 22.7148 325.557 22.4961 325.584 22.2461C325.615 21.9922 325.637 21.6992 325.648 21.3672L325.766 18.6602ZM334.689 25.1172C334.209 25.1172 333.777 25.0391 333.395 24.8828C333.012 24.7266 332.686 24.5098 332.416 24.2324C332.15 23.9512 331.945 23.625 331.801 23.2539C331.66 22.8789 331.59 22.4766 331.59 22.0469V21.8125C331.59 21.3242 331.66 20.8809 331.801 20.4824C331.941 20.0801 332.141 19.7344 332.398 19.4453C332.656 19.1562 332.965 18.9336 333.324 18.7773C333.684 18.6211 334.08 18.543 334.514 18.543C334.963 18.543 335.359 18.6191 335.703 18.7715C336.047 18.9199 336.334 19.1309 336.564 19.4043C336.795 19.6777 336.969 20.0059 337.086 20.3887C337.203 20.7676 337.262 21.1875 337.262 21.6484V22.2988H332.293V21.2324H335.738V21.1152C335.73 20.8691 335.684 20.6445 335.598 20.4414C335.512 20.2344 335.379 20.0703 335.199 19.9492C335.02 19.8242 334.787 19.7617 334.502 19.7617C334.271 19.7617 334.07 19.8125 333.898 19.9141C333.73 20.0117 333.59 20.1523 333.477 20.3359C333.367 20.5156 333.285 20.7305 333.23 20.9805C333.176 21.2305 333.148 21.5078 333.148 21.8125V22.0469C333.148 22.3125 333.184 22.5586 333.254 22.7852C333.328 23.0117 333.436 23.209 333.576 23.377C333.721 23.541 333.893 23.6699 334.092 23.7637C334.295 23.8535 334.525 23.8984 334.783 23.8984C335.107 23.8984 335.4 23.8359 335.662 23.7109C335.928 23.582 336.158 23.3926 336.354 23.1426L337.133 23.9512C337 24.1465 336.82 24.334 336.594 24.5137C336.371 24.6934 336.102 24.8398 335.785 24.9531C335.469 25.0625 335.104 25.1172 334.689 25.1172ZM339.863 22.791L342.172 18.6602H343.725V25H342.172V20.8633L339.863 25H338.311V18.6602H339.863V22.791ZM341.885 16.1699H343.01C343.01 16.498 342.93 16.7891 342.77 17.043C342.609 17.2969 342.381 17.4961 342.084 17.6406C341.791 17.7812 341.443 17.8516 341.041 17.8516C340.436 17.8516 339.955 17.6953 339.6 17.3828C339.244 17.0703 339.066 16.666 339.066 16.1699H340.191C340.191 16.377 340.256 16.5625 340.385 16.7266C340.514 16.8906 340.732 16.9727 341.041 16.9727C341.35 16.9727 341.566 16.8906 341.691 16.7266C341.82 16.5625 341.885 16.377 341.885 16.1699Z" fill="black"/>
<path d="M12.4648 52.5942H15.8362C16.9168 52.5942 17.1149 51.8693 17.1761 51.2205C17.2338 50.626 18.0046 41.7456 18.0046 41.7456H14.6512C13.6967 41.7456 13.3617 42.2966 13.2825 43.1955L12.4648 52.5906" fill="#008C95"/>
<path d="M35.7608 50.0497H34.5866L35.307 41.7456H30.7109C30.7109 41.7456 29.9257 50.9305 29.8789 51.3872C29.8808 51.7067 30.0078 52.0126 30.2323 52.2386C30.4568 52.4645 30.7608 52.5923 31.0783 52.5942H39.0422C39.3392 52.5931 39.6254 52.4814 39.8455 52.2806C40.0656 52.0798 40.2041 51.8042 40.2344 51.5068C40.2812 50.974 41.0772 41.7492 41.0772 41.7492H36.4812L35.7608 50.0497Z" fill="#008C95"/>
<path d="M3.06871 41.7456C2.24747 41.7456 1.80083 42.1733 1.71439 43.1955C1.67117 43.6993 1.38661 46.9615 1.3542 47.4291C1.32178 47.8966 1.49107 48.3135 2.07458 48.3135H7.06323L6.88672 50.3542H5.6981L5.78095 49.4118H1.1741C1.1741 49.4118 1.04445 51.0356 0.986818 51.5865C0.929188 52.1375 1.10206 52.5978 1.82244 52.5978H9.99158C11.2847 52.5978 11.3495 51.6409 11.4323 50.9196C11.5152 50.1983 11.7673 47.092 11.7925 46.6933C11.8031 46.6074 11.7944 46.5203 11.7671 46.4382C11.7399 46.3562 11.6947 46.2813 11.635 46.2191C11.5752 46.1568 11.5024 46.1089 11.4218 46.0787C11.3413 46.0484 11.255 46.0368 11.1694 46.0444H6.0655L6.24199 44.0038H7.43061L7.34777 44.9462H11.9618C11.9618 44.9462 12.1095 43.1339 12.1599 42.6155C12.1815 42.5071 12.1782 42.3951 12.1501 42.2881C12.1221 42.1812 12.0701 42.0821 11.9981 41.9985C11.9261 41.9149 11.8361 41.8489 11.7349 41.8057C11.6337 41.7625 11.5241 41.7432 11.4143 41.7492H3.06871" fill="#008C95"/>
<path d="M23.1966 48.2987H24.3708L24.1943 50.3394H23.0201L23.1966 48.2987ZM24.7454 43.9999L24.5689 46.0406H23.3947L23.5712 43.9999H24.7454ZM19.1624 41.7454L18.2188 52.594H27.418C28.1924 52.594 28.6282 52.1083 28.7003 51.271C28.7291 50.9302 28.8336 49.7812 28.9128 48.8352C28.94 48.6756 28.9228 48.5115 28.863 48.3612C28.8032 48.2109 28.7033 48.0801 28.5742 47.9834L27.4937 47.1787L28.8048 46.3161C28.9365 46.227 29.043 46.105 29.1137 45.962C29.1845 45.819 29.217 45.66 29.2082 45.5005C29.2838 44.5581 29.3811 43.478 29.4063 43.1771C29.4396 42.9903 29.4297 42.7983 29.3774 42.6159C29.3251 42.4335 29.2318 42.2657 29.1046 42.1255C28.9775 41.9853 28.82 41.8765 28.6443 41.8074C28.4686 41.7383 28.2795 41.7109 28.0916 41.7272L19.1624 41.7454Z" fill="#008C95"/>
<path d="M46.3945 46.9832L46.6286 44.2901H47.7956L47.5615 46.9832H46.3945ZM51.3363 41.7456H42.2523L41.3086 52.5942H45.9082L46.2 49.2378H47.367L47.0752 52.5942H51.6713C51.6713 52.5942 51.873 50.2092 51.909 49.8576C51.9421 49.678 51.926 49.4928 51.8626 49.3217C51.7991 49.1506 51.6907 49.0001 51.5488 48.8862L50.5007 48.1141C50.5007 48.1141 51.4335 47.5088 51.7289 47.3058C52.0243 47.1029 52.1755 46.889 52.2296 46.2728C52.2836 45.6566 52.4745 43.4564 52.5069 43.0432C52.5171 42.8809 52.4949 42.7182 52.4416 42.5646C52.3883 42.4111 52.305 42.2698 52.1965 42.1492C52.0881 42.0286 51.9568 41.9311 51.8102 41.8624C51.6637 41.7937 51.505 41.7552 51.3435 41.7492" fill="#008C95"/>
<path d="M0.800781 59.9731H52.1604" stroke="#008C95" stroke-width="0.338579"/>
<path d="M0.886719 59.9735V55.874" stroke="#008C95" stroke-width="0.338579"/>
<path d="M52.0703 59.9735V55.874" stroke="#008C95" stroke-width="0.338579"/>
<path d="M74.8516 59.9731H131.65" stroke="#008C95" stroke-width="0.338579"/>
<path d="M74.9258 59.9735V55.874" stroke="#008C95" stroke-width="0.338579"/>
<path d="M131.57 59.9735V55.874" stroke="#008C95" stroke-width="0.338579"/>
<path d="M15.5596 64.6816V71.8301H14.6562V65.8096L12.835 66.4736V65.6582L15.418 64.6816H15.5596ZM19.3584 68.4463L18.6357 68.2607L18.9922 64.7207H22.6396V65.5557H19.7588L19.5439 67.4893C19.6742 67.4144 19.8385 67.3444 20.0371 67.2793C20.2389 67.2142 20.4701 67.1816 20.7305 67.1816C21.0592 67.1816 21.3538 67.2386 21.6143 67.3525C21.8747 67.4632 22.096 67.6227 22.2783 67.8311C22.4639 68.0394 22.6055 68.29 22.7031 68.583C22.8008 68.876 22.8496 69.2031 22.8496 69.5645C22.8496 69.9062 22.8024 70.2204 22.708 70.5068C22.6169 70.7933 22.4785 71.0439 22.293 71.2588C22.1074 71.4704 21.873 71.6348 21.5898 71.752C21.3099 71.8691 20.9795 71.9277 20.5986 71.9277C20.3122 71.9277 20.0404 71.8887 19.7832 71.8105C19.5293 71.7292 19.3014 71.6071 19.0996 71.4443C18.901 71.2783 18.7383 71.0732 18.6113 70.8291C18.4876 70.5817 18.4095 70.292 18.377 69.96H19.2363C19.2754 70.2269 19.3535 70.4515 19.4707 70.6338C19.5879 70.8161 19.7409 70.9544 19.9297 71.0488C20.1217 71.14 20.3447 71.1855 20.5986 71.1855C20.8135 71.1855 21.0039 71.1481 21.1699 71.0732C21.3359 70.9984 21.4759 70.891 21.5898 70.751C21.7038 70.611 21.79 70.4417 21.8486 70.2432C21.9105 70.0446 21.9414 69.8216 21.9414 69.5742C21.9414 69.3496 21.9105 69.1413 21.8486 68.9492C21.7868 68.7572 21.694 68.5895 21.5703 68.4463C21.4499 68.3031 21.3018 68.1924 21.126 68.1143C20.9502 68.0329 20.7484 67.9922 20.5205 67.9922C20.2178 67.9922 19.9883 68.0329 19.832 68.1143C19.679 68.1956 19.5212 68.3063 19.3584 68.4463ZM29.4561 70.6289L31.2529 66.5469H32.1221L29.7686 71.8301H29.1436L26.7998 66.5469H27.6689L29.4561 70.6289ZM27.4053 66.5469V71.8301H26.502V66.5469H27.4053ZM31.4775 71.8301V66.5469H32.3857V71.8301H31.4775ZM36.8779 70.6289L38.6748 66.5469H39.5439L37.1904 71.8301H36.5654L34.2217 66.5469H35.0908L36.8779 70.6289ZM34.8271 66.5469V71.8301H33.9238V66.5469H34.8271ZM38.8994 71.8301V66.5469H39.8076V71.8301H38.8994Z" fill="#008C95"/>
<path d="M92.5596 64.6226V71.771H91.6562V65.7505L89.835 66.4146V65.5991L92.418 64.6226H92.5596ZM96.3584 68.3872L95.6357 68.2017L95.9922 64.6616H99.6396V65.4966H96.7588L96.5439 67.4302C96.6742 67.3553 96.8385 67.2853 97.0371 67.2202C97.2389 67.1551 97.4701 67.1226 97.7305 67.1226C98.0592 67.1226 98.3538 67.1795 98.6143 67.2935C98.8747 67.4041 99.096 67.5636 99.2783 67.772C99.4639 67.9803 99.6055 68.231 99.7031 68.5239C99.8008 68.8169 99.8496 69.144 99.8496 69.5054C99.8496 69.8472 99.8024 70.1613 99.708 70.4478C99.6169 70.7342 99.4785 70.9849 99.293 71.1997C99.1074 71.4113 98.873 71.5757 98.5898 71.6929C98.3099 71.8101 97.9795 71.8687 97.5986 71.8687C97.3122 71.8687 97.0404 71.8296 96.7832 71.7515C96.5293 71.6701 96.3014 71.548 96.0996 71.3853C95.901 71.2192 95.7383 71.0142 95.6113 70.77C95.4876 70.5226 95.4095 70.2329 95.377 69.9009H96.2363C96.2754 70.1678 96.3535 70.3924 96.4707 70.5747C96.5879 70.757 96.7409 70.8953 96.9297 70.9897C97.1217 71.0809 97.3447 71.1265 97.5986 71.1265C97.8135 71.1265 98.0039 71.089 98.1699 71.0142C98.3359 70.9393 98.4759 70.8319 98.5898 70.6919C98.7038 70.5519 98.79 70.3826 98.8486 70.1841C98.9105 69.9855 98.9414 69.7625 98.9414 69.5151C98.9414 69.2905 98.9105 69.0822 98.8486 68.8901C98.7868 68.6981 98.694 68.5304 98.5703 68.3872C98.4499 68.244 98.3018 68.1333 98.126 68.0552C97.9502 67.9738 97.7484 67.9331 97.5205 67.9331C97.2178 67.9331 96.9883 67.9738 96.832 68.0552C96.679 68.1366 96.5212 68.2472 96.3584 68.3872ZM106.456 70.5698L108.253 66.4878H109.122L106.769 71.771H106.144L103.8 66.4878H104.669L106.456 70.5698ZM104.405 66.4878V71.771H103.502V66.4878H104.405ZM108.478 71.771V66.4878H109.386V71.771H108.478ZM113.878 70.5698L115.675 66.4878H116.544L114.19 71.771H113.565L111.222 66.4878H112.091L113.878 70.5698ZM111.827 66.4878V71.771H110.924V66.4878H111.827ZM115.899 71.771V66.4878H116.808V71.771H115.899Z" fill="#008C95"/>
<path d="M205.56 64.7759V71.9243H204.656V65.9038L202.835 66.5679V65.7524L205.418 64.7759H205.56ZM209.358 68.5405L208.636 68.355L208.992 64.8149H212.64V65.6499H209.759L209.544 67.5835C209.674 67.5086 209.839 67.4386 210.037 67.3735C210.239 67.3084 210.47 67.2759 210.73 67.2759C211.059 67.2759 211.354 67.3328 211.614 67.4468C211.875 67.5575 212.096 67.717 212.278 67.9253C212.464 68.1336 212.605 68.3843 212.703 68.6772C212.801 68.9702 212.85 69.2974 212.85 69.6587C212.85 70.0005 212.802 70.3146 212.708 70.6011C212.617 70.8875 212.479 71.1382 212.293 71.353C212.107 71.5646 211.873 71.729 211.59 71.8462C211.31 71.9634 210.979 72.022 210.599 72.022C210.312 72.022 210.04 71.9829 209.783 71.9048C209.529 71.8234 209.301 71.7013 209.1 71.5386C208.901 71.3726 208.738 71.1675 208.611 70.9233C208.488 70.6759 208.41 70.3862 208.377 70.0542H209.236C209.275 70.3211 209.354 70.5457 209.471 70.728C209.588 70.9103 209.741 71.0487 209.93 71.1431C210.122 71.2342 210.345 71.2798 210.599 71.2798C210.813 71.2798 211.004 71.2424 211.17 71.1675C211.336 71.0926 211.476 70.9852 211.59 70.8452C211.704 70.7052 211.79 70.536 211.849 70.3374C211.91 70.1388 211.941 69.9159 211.941 69.6685C211.941 69.4438 211.91 69.2355 211.849 69.0435C211.787 68.8514 211.694 68.6838 211.57 68.5405C211.45 68.3973 211.302 68.2866 211.126 68.2085C210.95 68.1271 210.748 68.0864 210.521 68.0864C210.218 68.0864 209.988 68.1271 209.832 68.2085C209.679 68.2899 209.521 68.4006 209.358 68.5405ZM218.304 67.8032V68.8872C218.304 69.4699 218.252 69.9614 218.147 70.3618C218.043 70.7622 217.894 71.0845 217.698 71.3286C217.503 71.5728 217.267 71.7502 216.99 71.8608C216.717 71.9683 216.408 72.022 216.062 72.022C215.789 72.022 215.537 71.9878 215.306 71.9194C215.075 71.8511 214.866 71.742 214.681 71.5923C214.498 71.4393 214.342 71.2407 214.212 70.9966C214.082 70.7524 213.982 70.4562 213.914 70.1079C213.846 69.7596 213.812 69.3527 213.812 68.8872V67.8032C213.812 67.2205 213.864 66.7323 213.968 66.3384C214.075 65.9445 214.227 65.6287 214.422 65.3911C214.617 65.1502 214.852 64.9777 215.125 64.8735C215.402 64.7694 215.711 64.7173 216.053 64.7173C216.329 64.7173 216.583 64.7515 216.814 64.8198C217.049 64.8849 217.257 64.9907 217.439 65.1372C217.622 65.2804 217.776 65.4725 217.903 65.7134C218.034 65.951 218.133 66.2424 218.201 66.5874C218.27 66.9325 218.304 67.3377 218.304 67.8032ZM217.396 69.0337V67.6519C217.396 67.3328 217.376 67.0529 217.337 66.812C217.301 66.5679 217.247 66.3595 217.176 66.187C217.104 66.0145 217.013 65.8745 216.902 65.7671C216.795 65.6597 216.67 65.5815 216.526 65.5327C216.386 65.4806 216.229 65.4546 216.053 65.4546C215.838 65.4546 215.647 65.4953 215.481 65.5767C215.315 65.6548 215.175 65.7801 215.062 65.9526C214.951 66.1252 214.866 66.3514 214.808 66.6313C214.749 66.9113 214.72 67.2515 214.72 67.6519V69.0337C214.72 69.3527 214.738 69.6343 214.773 69.8784C214.812 70.1226 214.869 70.3341 214.944 70.5132C215.019 70.689 215.11 70.8338 215.218 70.9478C215.325 71.0617 215.449 71.1463 215.589 71.2017C215.732 71.2537 215.89 71.2798 216.062 71.2798C216.284 71.2798 216.478 71.2375 216.644 71.1528C216.81 71.0682 216.948 70.9364 217.059 70.7573C217.173 70.575 217.257 70.3423 217.312 70.0591C217.368 69.7726 217.396 69.4308 217.396 69.0337ZM225.564 66.6411V67.3882H222.894V66.6411H225.564ZM223.025 66.6411V71.9243H222.122V66.6411H223.025ZM226.365 66.6411V71.9243H225.457V66.6411H226.365ZM228.792 70.4937L231.229 66.6411H232.137V71.9243H231.229V68.0718L228.792 71.9243H227.894V66.6411H228.792V70.4937ZM234.568 66.6411V71.9243H233.665V66.6411H234.568ZM238.035 66.6411L235.53 69.6685H234.266L234.129 68.8774H235.164L236.937 66.6411H238.035ZM237.063 71.9243L235.12 69.5317L235.701 68.8774L238.211 71.9243H237.063ZM241.033 71.2798C241.248 71.2798 241.447 71.2358 241.629 71.1479C241.811 71.0601 241.961 70.9396 242.078 70.7866C242.195 70.6304 242.262 70.453 242.278 70.2544H243.138C243.121 70.5669 243.016 70.8582 242.82 71.1284C242.628 71.3953 242.376 71.6118 242.063 71.7778C241.751 71.9406 241.408 72.022 241.033 72.022C240.636 72.022 240.289 71.952 239.993 71.812C239.7 71.672 239.456 71.48 239.261 71.2358C239.069 70.9917 238.924 70.7118 238.826 70.396C238.732 70.077 238.685 69.7401 238.685 69.3853V69.1802C238.685 68.8254 238.732 68.4901 238.826 68.1743C238.924 67.8553 239.069 67.5737 239.261 67.3296C239.456 67.0854 239.7 66.8934 239.993 66.7534C240.289 66.6134 240.636 66.5435 241.033 66.5435C241.447 66.5435 241.808 66.6281 242.117 66.7974C242.426 66.9634 242.669 67.1912 242.845 67.481C243.024 67.7674 243.121 68.0929 243.138 68.4575H242.278C242.262 68.2394 242.2 68.0425 242.093 67.8667C241.989 67.6909 241.845 67.5509 241.663 67.4468C241.484 67.3394 241.274 67.2856 241.033 67.2856C240.757 67.2856 240.524 67.341 240.335 67.4517C240.149 67.5591 240.001 67.7056 239.891 67.8911C239.783 68.0734 239.705 68.2769 239.656 68.5015C239.611 68.7228 239.588 68.9491 239.588 69.1802V69.3853C239.588 69.6164 239.611 69.8442 239.656 70.0688C239.702 70.2935 239.778 70.4969 239.886 70.6792C239.996 70.8615 240.145 71.008 240.33 71.1187C240.519 71.2261 240.753 71.2798 241.033 71.2798ZM244.168 71.4458C244.168 71.2928 244.215 71.1642 244.31 71.0601C244.407 70.9526 244.547 70.8989 244.729 70.8989C244.912 70.8989 245.05 70.9526 245.145 71.0601C245.242 71.1642 245.291 71.2928 245.291 71.4458C245.291 71.5955 245.242 71.7225 245.145 71.8267C245.05 71.9308 244.912 71.9829 244.729 71.9829C244.547 71.9829 244.407 71.9308 244.31 71.8267C244.215 71.7225 244.168 71.5955 244.168 71.4458Z" fill="#008C95"/>
<path d="M282.56 64.6226V71.771H281.656V65.7505L279.835 66.4146V65.5991L282.418 64.6226H282.56ZM286.358 68.3872L285.636 68.2017L285.992 64.6616H289.64V65.4966H286.759L286.544 67.4302C286.674 67.3553 286.839 67.2853 287.037 67.2202C287.239 67.1551 287.47 67.1226 287.73 67.1226C288.059 67.1226 288.354 67.1795 288.614 67.2935C288.875 67.4041 289.096 67.5636 289.278 67.772C289.464 67.9803 289.605 68.231 289.703 68.5239C289.801 68.8169 289.85 69.144 289.85 69.5054C289.85 69.8472 289.802 70.1613 289.708 70.4478C289.617 70.7342 289.479 70.9849 289.293 71.1997C289.107 71.4113 288.873 71.5757 288.59 71.6929C288.31 71.8101 287.979 71.8687 287.599 71.8687C287.312 71.8687 287.04 71.8296 286.783 71.7515C286.529 71.6701 286.301 71.548 286.1 71.3853C285.901 71.2192 285.738 71.0142 285.611 70.77C285.488 70.5226 285.41 70.2329 285.377 69.9009H286.236C286.275 70.1678 286.354 70.3924 286.471 70.5747C286.588 70.757 286.741 70.8953 286.93 70.9897C287.122 71.0809 287.345 71.1265 287.599 71.1265C287.813 71.1265 288.004 71.089 288.17 71.0142C288.336 70.9393 288.476 70.8319 288.59 70.6919C288.704 70.5519 288.79 70.3826 288.849 70.1841C288.91 69.9855 288.941 69.7625 288.941 69.5151C288.941 69.2905 288.91 69.0822 288.849 68.8901C288.787 68.6981 288.694 68.5304 288.57 68.3872C288.45 68.244 288.302 68.1333 288.126 68.0552C287.95 67.9738 287.748 67.9331 287.521 67.9331C287.218 67.9331 286.988 67.9738 286.832 68.0552C286.679 68.1366 286.521 68.2472 286.358 68.3872ZM295.304 67.6499V68.7339C295.304 69.3166 295.252 69.8081 295.147 70.2085C295.043 70.6089 294.894 70.9312 294.698 71.1753C294.503 71.4194 294.267 71.5968 293.99 71.7075C293.717 71.8149 293.408 71.8687 293.062 71.8687C292.789 71.8687 292.537 71.8345 292.306 71.7661C292.075 71.6978 291.866 71.5887 291.681 71.439C291.498 71.286 291.342 71.0874 291.212 70.8433C291.082 70.5991 290.982 70.3029 290.914 69.9546C290.846 69.6063 290.812 69.1994 290.812 68.7339V67.6499C290.812 67.0672 290.864 66.5789 290.968 66.1851C291.075 65.7912 291.227 65.4754 291.422 65.2378C291.617 64.9969 291.852 64.8244 292.125 64.7202C292.402 64.616 292.711 64.564 293.053 64.564C293.329 64.564 293.583 64.5981 293.814 64.6665C294.049 64.7316 294.257 64.8374 294.439 64.9839C294.622 65.1271 294.776 65.3192 294.903 65.5601C295.034 65.7977 295.133 66.089 295.201 66.4341C295.27 66.7791 295.304 67.1844 295.304 67.6499ZM294.396 68.8804V67.4985C294.396 67.1795 294.376 66.8996 294.337 66.6587C294.301 66.4146 294.247 66.2062 294.176 66.0337C294.104 65.8612 294.013 65.7212 293.902 65.6138C293.795 65.5063 293.67 65.4282 293.526 65.3794C293.386 65.3273 293.229 65.3013 293.053 65.3013C292.838 65.3013 292.647 65.342 292.481 65.4233C292.315 65.5015 292.175 65.6268 292.062 65.7993C291.951 65.9718 291.866 66.1981 291.808 66.478C291.749 66.758 291.72 67.0981 291.72 67.4985V68.8804C291.72 69.1994 291.738 69.481 291.773 69.7251C291.812 69.9692 291.869 70.1808 291.944 70.3599C292.019 70.5356 292.11 70.6805 292.218 70.7944C292.325 70.9084 292.449 70.993 292.589 71.0483C292.732 71.1004 292.89 71.1265 293.062 71.1265C293.284 71.1265 293.478 71.0841 293.644 70.9995C293.81 70.9149 293.948 70.783 294.059 70.604C294.173 70.4217 294.257 70.189 294.312 69.9058C294.368 69.6193 294.396 69.2775 294.396 68.8804ZM302.564 66.4878V67.2349H299.894V66.4878H302.564ZM300.025 66.4878V71.771H299.122V66.4878H300.025ZM303.365 66.4878V71.771H302.457V66.4878H303.365ZM305.792 70.3403L308.229 66.4878H309.137V71.771H308.229V67.9185L305.792 71.771H304.894V66.4878H305.792V70.3403ZM311.568 66.4878V71.771H310.665V66.4878H311.568ZM315.035 66.4878L312.53 69.5151H311.266L311.129 68.7241H312.164L313.937 66.4878H315.035ZM314.063 71.771L312.12 69.3784L312.701 68.7241L315.211 71.771H314.063ZM318.033 71.1265C318.248 71.1265 318.447 71.0825 318.629 70.9946C318.811 70.9067 318.961 70.7863 319.078 70.6333C319.195 70.4771 319.262 70.2996 319.278 70.1011H320.138C320.121 70.4136 320.016 70.7049 319.82 70.9751C319.628 71.242 319.376 71.4585 319.063 71.6245C318.751 71.7873 318.408 71.8687 318.033 71.8687C317.636 71.8687 317.289 71.7987 316.993 71.6587C316.7 71.5187 316.456 71.3267 316.261 71.0825C316.069 70.8384 315.924 70.5584 315.826 70.2427C315.732 69.9237 315.685 69.5868 315.685 69.2319V69.0269C315.685 68.672 315.732 68.3368 315.826 68.021C315.924 67.702 316.069 67.4204 316.261 67.1763C316.456 66.9321 316.7 66.7401 316.993 66.6001C317.289 66.4601 317.636 66.3901 318.033 66.3901C318.447 66.3901 318.808 66.4748 319.117 66.644C319.426 66.8101 319.669 67.0379 319.845 67.3276C320.024 67.6141 320.121 67.9396 320.138 68.3042H319.278C319.262 68.0861 319.2 67.8892 319.093 67.7134C318.989 67.5376 318.845 67.3976 318.663 67.2935C318.484 67.186 318.274 67.1323 318.033 67.1323C317.757 67.1323 317.524 67.1877 317.335 67.2983C317.149 67.4058 317.001 67.5522 316.891 67.7378C316.783 67.9201 316.705 68.1235 316.656 68.3481C316.611 68.5695 316.588 68.7957 316.588 69.0269V69.2319C316.588 69.4631 316.611 69.6909 316.656 69.9155C316.702 70.1401 316.778 70.3436 316.886 70.5259C316.996 70.7082 317.145 70.8547 317.33 70.9653C317.519 71.0728 317.753 71.1265 318.033 71.1265ZM321.168 71.2925C321.168 71.1395 321.215 71.0109 321.31 70.9067C321.407 70.7993 321.547 70.7456 321.729 70.7456C321.912 70.7456 322.05 70.7993 322.145 70.9067C322.242 71.0109 322.291 71.1395 322.291 71.2925C322.291 71.4422 322.242 71.5692 322.145 71.6733C322.05 71.7775 321.912 71.8296 321.729 71.8296C321.547 71.8296 321.407 71.7775 321.31 71.6733C321.215 71.5692 321.168 71.4422 321.168 71.2925Z" fill="#008C95"/>
<path d="M85.7944 46.4468C85.7944 46.4468 86.0609 43.3948 86.0861 43.0976C86.0944 42.9242 86.0678 42.751 86.008 42.5882C85.9481 42.4254 85.8563 42.2765 85.7379 42.1503C85.6195 42.024 85.4771 41.9232 85.3191 41.8536C85.1611 41.7841 84.9907 41.7473 84.8183 41.7456H77.1822C76.8286 41.7185 76.4787 41.8333 76.2088 42.0648C75.9389 42.2964 75.7709 42.6259 75.7415 42.9816C75.7055 43.3441 75.0751 50.713 75.0211 51.1371C74.9994 51.3169 75.0154 51.4993 75.0682 51.6725C75.121 51.8457 75.2093 52.0058 75.3275 52.1425C75.4456 52.2791 75.591 52.3893 75.7541 52.4659C75.9173 52.5425 76.0946 52.5837 76.2746 52.587H83.8782C84.8903 52.587 85.2829 52.0505 85.3658 51.2205C85.4198 50.7239 85.6683 47.7226 85.6683 47.7226H81.1119L80.9138 50.0424H79.7504L80.2511 44.2829H81.4145L81.2272 46.4395L85.7944 46.4468Z" fill="#008C95"/>
<path d="M92.9032 42.6772C92.7411 43.152 91.4012 47.3638 91.4012 47.3638L91.9956 41.7456H87.4031L86.4414 52.5942H89.9029C90.1907 52.6211 90.4788 52.5466 90.718 52.3832C90.9571 52.2199 91.1325 51.978 91.2139 51.6989C91.3868 51.2241 92.6547 47.6792 92.6547 47.6792L92.1865 52.5942H96.7861L97.7334 41.7456H94.1315C93.8536 41.744 93.5829 41.8343 93.361 42.0026C93.139 42.1709 92.9782 42.4079 92.9032 42.6772Z" fill="#008C95"/>
<path d="M116.188 41.7453L115.759 46.693H114.61L115.042 41.7453H110.425C110.425 41.7453 109.985 46.983 109.939 47.4904C109.914 47.6748 109.93 47.8623 109.985 48.0399C110.041 48.2174 110.133 48.3808 110.257 48.5187C110.381 48.6566 110.534 48.7658 110.704 48.8386C110.874 48.9114 111.058 48.9461 111.242 48.9403H115.565L115.471 50.0277H109.708L109.488 52.5649H118.634C118.974 52.5688 119.302 52.4366 119.546 52.1975C119.789 51.9583 119.929 51.6316 119.934 51.289C119.988 50.7308 120.777 41.7163 120.777 41.7163L116.188 41.7453Z" fill="#008C95"/>
<path d="M126.086 46.9832L126.32 44.2901H127.473L127.239 46.9832H126.086ZM128.19 41.7456H121.948L121.004 52.5942H125.6L125.892 49.2378H130.358C131.147 49.2378 131.673 48.8318 131.756 47.9003C131.792 47.5378 132.152 43.4275 132.177 43.065C132.231 42.2639 131.597 41.7456 130.812 41.7456H128.19Z" fill="#008C95"/>
<path d="M103.937 50.3355H102.767L103.001 47.646H104.172L103.937 50.3355ZM103.195 45.3878L103.293 44.3004H109.056L109.279 41.7632H98.9164L97.9727 52.6118H107.147C107.314 52.6166 107.481 52.5878 107.637 52.5271C107.793 52.4665 107.936 52.3751 108.056 52.2583C108.177 52.1416 108.273 52.0018 108.34 51.8472C108.406 51.6925 108.442 51.5261 108.443 51.3577C108.505 50.6762 108.804 47.4503 108.84 46.8667C108.863 46.6748 108.843 46.48 108.782 46.2967C108.721 46.1133 108.62 45.9461 108.486 45.8071C108.353 45.6681 108.19 45.561 108.01 45.4935C107.83 45.4259 107.637 45.3998 107.446 45.4168L103.195 45.3878Z" fill="#008C95"/>
<path d="M210.668 52.5942H214.039C215.12 52.5942 215.318 51.8693 215.379 51.2205C215.437 50.626 216.208 41.7456 216.208 41.7456H212.854C211.9 41.7456 211.565 42.2966 211.486 43.1955L210.668 52.5906" fill="#008C95"/>
<path d="M233.956 50.0497H232.782L233.502 41.7456H228.906C228.906 41.7456 228.121 50.9305 228.074 51.3872C228.076 51.7067 228.203 52.0126 228.428 52.2386C228.652 52.4645 228.956 52.5923 229.274 52.5942H237.237C237.535 52.5931 237.821 52.4814 238.041 52.2806C238.261 52.0798 238.399 51.8042 238.43 51.5068C238.477 50.974 239.273 41.7492 239.273 41.7492H234.676L233.956 50.0497Z" fill="#008C95"/>
<path d="M201.264 41.7456C200.443 41.7456 199.996 42.1733 199.91 43.1955C199.867 43.6993 199.582 46.9615 199.55 47.4291C199.517 47.8966 199.687 48.3135 200.27 48.3135H205.259L205.082 50.3542H203.89L203.973 49.4118H199.373C199.373 49.4118 199.244 51.0356 199.186 51.5865C199.128 52.1375 199.301 52.5978 200.022 52.5978H208.191C209.484 52.5978 209.549 51.6409 209.632 50.9196C209.714 50.1983 209.967 47.092 209.992 46.6933C210.002 46.6074 209.994 46.5203 209.966 46.4382C209.939 46.3562 209.894 46.2813 209.834 46.2191C209.774 46.1568 209.702 46.1089 209.621 46.0787C209.541 46.0484 209.454 46.0368 209.369 46.0444H204.25L204.427 44.0038H205.615L205.533 44.9462H210.129C210.129 44.9462 210.276 43.1339 210.327 42.6155C210.348 42.5071 210.345 42.3951 210.317 42.2881C210.289 42.1812 210.237 42.0821 210.165 41.9985C210.093 41.9149 210.003 41.8489 209.902 41.8057C209.801 41.7625 209.691 41.7432 209.581 41.7492H201.254" fill="#008C95"/>
<path d="M221.392 48.2987H222.567L222.39 50.3394H221.216L221.392 48.2987ZM222.941 43.9999L222.765 46.0406H221.591L221.767 43.9999H222.941ZM217.366 41.7454L216.422 52.594H225.621C226.396 52.594 226.831 52.1083 226.903 51.271C226.932 50.9302 227.037 49.7812 227.116 48.8352C227.143 48.6756 227.126 48.5115 227.066 48.3612C227.006 48.2109 226.906 48.0801 226.777 47.9834L225.697 47.1787L227.008 46.3161C227.14 46.227 227.246 46.105 227.317 45.962C227.388 45.819 227.42 45.66 227.411 45.5005C227.487 44.5581 227.584 43.478 227.609 43.1771C227.643 42.9903 227.633 42.7983 227.581 42.6159C227.528 42.4335 227.435 42.2657 227.308 42.1255C227.181 41.9853 227.023 41.8765 226.847 41.8074C226.672 41.7383 226.483 41.7109 226.295 41.7272L217.366 41.7454Z" fill="#008C95"/>
<path d="M244.586 46.9832L244.82 44.2901H245.987L245.753 46.9832H244.586ZM249.528 41.7456H240.444L239.5 52.5942H244.1L244.391 49.2378H245.558L245.267 52.5942H249.863C249.863 52.5942 250.064 50.2092 250.1 49.8576C250.133 49.678 250.117 49.4928 250.054 49.3217C249.991 49.1506 249.882 49.0001 249.74 48.8862L248.692 48.1105C248.692 48.1105 249.625 47.5052 249.92 47.3022C250.216 47.0992 250.367 46.8854 250.421 46.2692C250.475 45.653 250.666 43.4528 250.698 43.0396C250.709 42.8773 250.686 42.7145 250.633 42.561C250.58 42.4074 250.496 42.2662 250.388 42.1456C250.279 42.025 250.148 41.9274 250.002 41.8587C249.855 41.79 249.696 41.7516 249.535 41.7456" fill="#008C95"/>
<path d="M199 59.9702H250.36" stroke="#008C95" stroke-width="0.338579"/>
<path d="M199.082 59.9699V55.874" stroke="#008C95" stroke-width="0.338579"/>
<path d="M250.277 59.9699V55.874" stroke="#008C95" stroke-width="0.338579"/>
<path d="M273.051 59.9702H329.849" stroke="#008C95" stroke-width="0.338579"/>
<path d="M273.125 59.9699V55.874" stroke="#008C95" stroke-width="0.338579"/>
<path d="M329.777 59.9699V55.874" stroke="#008C95" stroke-width="0.338579"/>
<path d="M284.012 46.4463C284.012 46.4463 284.278 43.3943 284.304 43.0971C284.312 42.9237 284.285 42.7505 284.226 42.5877C284.166 42.425 284.074 42.276 283.955 42.1498C283.837 42.0236 283.695 41.9227 283.537 41.8531C283.379 41.7836 283.208 41.7469 283.036 41.7451H275.385C275.032 41.718 274.682 41.8328 274.412 42.0643C274.142 42.2959 273.974 42.6254 273.945 42.9811C273.909 43.3436 273.278 50.7125 273.224 51.1366C273.203 51.3164 273.219 51.4988 273.271 51.672C273.324 51.8452 273.412 52.0053 273.531 52.142C273.649 52.2787 273.794 52.3888 273.957 52.4654C274.12 52.542 274.298 52.5832 274.478 52.5865H282.081C283.093 52.5865 283.486 52.05 283.569 51.22C283.623 50.7234 283.871 47.7222 283.871 47.7222H279.275L279.077 50.0419H277.914L278.415 44.2824H279.578L279.391 46.439L284.012 46.4463Z" fill="#008C95"/>
<path d="M291.106 42.6772C290.944 43.152 289.604 47.3638 289.604 47.3638L290.199 41.7456H285.606L284.645 52.5942H288.106C288.394 52.6211 288.682 52.5466 288.921 52.3832C289.16 52.2199 289.336 51.978 289.417 51.6989C289.59 51.2241 290.858 47.6792 290.858 47.6792L290.39 52.5942H294.989L295.937 41.7456H292.335C292.057 41.744 291.786 41.8343 291.564 42.0026C291.342 42.1709 291.181 42.4079 291.106 42.6772Z" fill="#008C95"/>
<path d="M314.391 41.7453L313.962 46.693H312.795L313.228 41.7453H308.628C308.628 41.7453 308.188 46.983 308.142 47.4904C308.118 47.6748 308.134 47.8623 308.189 48.0399C308.244 48.2174 308.336 48.3808 308.46 48.5187C308.584 48.6566 308.737 48.7658 308.907 48.8386C309.077 48.9114 309.261 48.9461 309.446 48.9403H313.768L313.674 50.0277H307.911L307.691 52.5649H316.837C317.177 52.5688 317.505 52.4366 317.749 52.1975C317.993 51.9583 318.132 51.6316 318.137 51.289C318.191 50.7308 318.98 41.7163 318.98 41.7163L314.391 41.7453Z" fill="#008C95"/>
<path d="M324.289 46.9832L324.523 44.2901H325.676L325.442 46.9832H324.289ZM326.393 41.7456H320.151L319.207 52.5942H323.803L324.095 49.2378H328.561C329.35 49.2378 329.876 48.8318 329.959 47.9003C329.995 47.5378 330.355 43.4275 330.38 43.065C330.434 42.2639 329.8 41.7456 329.015 41.7456H326.393Z" fill="#008C95"/>
<path d="M302.133 50.3355H300.963L301.197 47.646H302.367L302.133 50.3355ZM301.391 45.3878L301.489 44.3004H307.252L307.475 41.7632H297.119L296.176 52.6118H305.35C305.517 52.6166 305.684 52.5878 305.84 52.5271C305.996 52.4665 306.139 52.3751 306.26 52.2583C306.38 52.1416 306.477 52.0018 306.543 51.8472C306.61 51.6925 306.645 51.5261 306.647 51.3577C306.708 50.6762 307.007 47.4503 307.043 46.8667C307.066 46.6748 307.046 46.48 306.985 46.2967C306.924 46.1133 306.823 45.9461 306.689 45.8071C306.556 45.6681 306.393 45.561 306.213 45.4935C306.033 45.4259 305.84 45.3998 305.649 45.4168L301.391 45.3878Z" fill="#008C95"/>
</svg>
