<svg width="950" height="185" viewBox="0 0 950 185" fill="none" xmlns="http://www.w3.org/2000/svg">
<path d="M3.03516 4.9375H5.82422L10.4883 17.7812L15.1406 4.9375H17.9414L11.6016 22H9.36328L3.03516 4.9375ZM1.62891 4.9375H4.35938L4.85156 16.7383V22H1.62891V4.9375ZM16.6055 4.9375H19.3477V22H16.125V16.7383L16.6055 4.9375ZM25.5234 17.582L30.1406 9.32031H33.2461V22H30.1406V13.7266L25.5234 22H22.418V9.32031H25.5234V17.582ZM44.7188 14.5234V16.9492H38.2148V14.5234H44.7188ZM39.1875 9.32031V22H36.082V9.32031H39.1875ZM46.8867 9.32031V22H43.7695V9.32031H46.8867ZM52.8281 17.582L57.4453 9.32031H60.5508V22H57.4453V13.7266L52.8281 22H49.7227V9.32031H52.8281V17.582ZM70.9688 18.3438L74.5312 9.32031H77.1211L72.0234 22H69.9258L64.8398 9.32031H67.4414L70.9688 18.3438ZM66.6797 9.32031V22H63.5742V9.32031H66.6797ZM75.3164 22V9.32031H78.4219V22H75.3164ZM88.4883 19.3047V13.457C88.4883 13.0273 88.4141 12.6562 88.2656 12.3438C88.1172 12.0312 87.8906 11.7891 87.5859 11.6172C87.2812 11.4453 86.8945 11.3594 86.4258 11.3594C86.0117 11.3594 85.6484 11.4297 85.3359 11.5703C85.0312 11.7109 84.7969 11.9102 84.6328 12.168C84.4688 12.418 84.3867 12.707 84.3867 13.0352H81.2812C81.2812 12.5117 81.4062 12.0156 81.6562 11.5469C81.9062 11.0703 82.2617 10.6484 82.7227 10.2812C83.1914 9.90625 83.75 9.61328 84.3984 9.40234C85.0547 9.19141 85.7891 9.08594 86.6016 9.08594C87.5625 9.08594 88.418 9.25 89.168 9.57812C89.9258 9.89844 90.5195 10.3828 90.9492 11.0312C91.3867 11.6797 91.6055 12.4961 91.6055 13.4805V19.0117C91.6055 19.6445 91.6445 20.1875 91.7227 20.6406C91.8086 21.0859 91.9336 21.4727 92.0977 21.8008V22H88.9453C88.7969 21.6797 88.6836 21.2734 88.6055 20.7812C88.5273 20.2812 88.4883 19.7891 88.4883 19.3047ZM88.9219 14.2773L88.9453 16.1172H86.9883C86.5039 16.1172 86.0781 16.168 85.7109 16.2695C85.3438 16.3633 85.043 16.5039 84.8086 16.6914C84.5742 16.8711 84.3984 17.0898 84.2812 17.3477C84.1641 17.5977 84.1055 17.8828 84.1055 18.2031C84.1055 18.5156 84.1758 18.7969 84.3164 19.0469C84.4648 19.2969 84.6758 19.4961 84.9492 19.6445C85.2305 19.7852 85.5586 19.8555 85.9336 19.8555C86.4805 19.8555 86.957 19.7461 87.3633 19.5273C87.7695 19.3008 88.0859 19.0273 88.3125 18.707C88.5391 18.3867 88.6602 18.082 88.6758 17.793L89.5664 19.1289C89.457 19.4492 89.293 19.7891 89.0742 20.1484C88.8555 20.5078 88.5742 20.8438 88.2305 21.1562C87.8867 21.4688 87.4727 21.7266 86.9883 21.9297C86.5039 22.1328 85.9414 22.2344 85.3008 22.2344C84.4805 22.2344 83.7461 22.0703 83.0977 21.7422C82.4492 21.4141 81.9375 20.9648 81.5625 20.3945C81.1875 19.8242 81 19.1758 81 18.4492C81 17.7773 81.125 17.1836 81.375 16.668C81.625 16.1523 81.9961 15.7188 82.4883 15.3672C82.9805 15.0078 83.5898 14.7383 84.3164 14.5586C85.0508 14.3711 85.8906 14.2773 86.8359 14.2773H88.9219ZM102.914 9.32031V11.7695H96.7031V9.32031H102.914ZM105.246 9.32031V22H102.152V9.32031H105.246ZM95.9297 9.32031H98.9883L98.6484 15.6484C98.5938 16.5781 98.4961 17.3945 98.3555 18.0977C98.2148 18.793 98.0273 19.3906 97.793 19.8906C97.5586 20.3828 97.2734 20.7852 96.9375 21.0977C96.6016 21.4102 96.2109 21.6406 95.7656 21.7891C95.3281 21.9297 94.8359 22 94.2891 22H93.3398L93.3047 19.5039L93.75 19.4688C94.0234 19.4453 94.2578 19.3711 94.4531 19.2461C94.6562 19.1211 94.8281 18.9414 94.9688 18.707C95.1172 18.4727 95.2383 18.1719 95.332 17.8047C95.4336 17.4297 95.5117 16.9922 95.5664 16.4922C95.6289 15.9844 95.6719 15.3984 95.6953 14.7344L95.9297 9.32031ZM110.285 13.2227H113.988C115.113 13.2227 116.07 13.4102 116.859 13.7852C117.656 14.1523 118.262 14.668 118.676 15.332C119.098 15.9883 119.309 16.75 119.309 17.6172C119.309 18.2422 119.188 18.8242 118.945 19.3633C118.711 19.8945 118.367 20.3594 117.914 20.7578C117.461 21.1484 116.902 21.4531 116.238 21.6719C115.582 21.8906 114.832 22 113.988 22H108.293V9.32031H111.398V19.5742H113.988C114.527 19.5742 114.957 19.4844 115.277 19.3047C115.605 19.1172 115.84 18.8789 115.98 18.5898C116.129 18.293 116.203 17.9766 116.203 17.6406C116.203 17.2969 116.129 16.9766 115.98 16.6797C115.84 16.375 115.605 16.1289 115.277 15.9414C114.957 15.7539 114.527 15.6602 113.988 15.6602H110.285V13.2227ZM130.055 14.5234V16.9492H123.551V14.5234H130.055ZM124.523 9.32031V22H121.418V9.32031H124.523ZM132.223 9.32031V22H129.105V9.32031H132.223ZM137.238 13.2227H140.941C142.066 13.2227 143.023 13.4102 143.812 13.7852C144.609 14.1523 145.215 14.668 145.629 15.332C146.051 15.9883 146.262 16.75 146.262 17.6172C146.262 18.2422 146.141 18.8242 145.898 19.3633C145.664 19.8945 145.32 20.3594 144.867 20.7578C144.414 21.1484 143.855 21.4531 143.191 21.6719C142.535 21.8906 141.785 22 140.941 22H135.246V9.32031H138.352V19.5742H140.941C141.48 19.5742 141.91 19.4844 142.23 19.3047C142.559 19.1172 142.793 18.8789 142.934 18.5898C143.082 18.293 143.156 17.9766 143.156 17.6406C143.156 17.2969 143.082 16.9766 142.934 16.6797C142.793 16.375 142.559 16.1289 142.23 15.9414C141.91 15.7539 141.48 15.6602 140.941 15.6602H137.238V13.2227ZM151.465 9.32031V22H148.359V9.32031H151.465ZM157.758 17.582L162.375 9.32031H165.48V22H162.375V13.7266L157.758 22H154.652V9.32031H157.758V17.582ZM161.801 4.33984H164.051C164.051 4.99609 163.891 5.57813 163.57 6.08594C163.25 6.59375 162.793 6.99219 162.199 7.28125C161.613 7.5625 160.918 7.70312 160.113 7.70312C158.902 7.70312 157.941 7.39062 157.23 6.76562C156.52 6.14063 156.164 5.33203 156.164 4.33984H158.414C158.414 4.75391 158.543 5.125 158.801 5.45312C159.059 5.78125 159.496 5.94531 160.113 5.94531C160.73 5.94531 161.164 5.78125 161.414 5.45312C161.672 5.125 161.801 4.75391 161.801 4.33984ZM177.363 11.7578V26.875H174.258V9.32031H177.129L177.363 11.7578ZM185.508 15.5312V15.7773C185.508 16.6992 185.398 17.5547 185.18 18.3438C184.969 19.125 184.656 19.8086 184.242 20.3945C183.828 20.9727 183.312 21.4258 182.695 21.7539C182.086 22.0742 181.383 22.2344 180.586 22.2344C179.805 22.2344 179.125 22.0859 178.547 21.7891C177.969 21.4844 177.48 21.0547 177.082 20.5C176.684 19.9453 176.363 19.3008 176.121 18.5664C175.887 17.8242 175.711 17.0156 175.594 16.1406V15.3555C175.711 14.4258 175.887 13.582 176.121 12.8242C176.363 12.0586 176.684 11.3984 177.082 10.8438C177.48 10.2812 177.965 9.84766 178.535 9.54297C179.113 9.23828 179.789 9.08594 180.562 9.08594C181.367 9.08594 182.074 9.23828 182.684 9.54297C183.301 9.84766 183.82 10.2852 184.242 10.8555C184.664 11.4258 184.98 12.1055 185.191 12.8945C185.402 13.6836 185.508 14.5625 185.508 15.5312ZM182.402 15.7773V15.5312C182.402 14.9688 182.352 14.4492 182.25 13.9727C182.148 13.4883 181.992 13.0664 181.781 12.707C181.57 12.3398 181.297 12.0547 180.961 11.8516C180.625 11.6484 180.219 11.5469 179.742 11.5469C179.266 11.5469 178.855 11.625 178.512 11.7812C178.168 11.9375 177.887 12.1602 177.668 12.4492C177.449 12.7383 177.277 13.082 177.152 13.4805C177.035 13.8711 176.957 14.3047 176.918 14.7812V16.7266C176.988 17.3047 177.125 17.8242 177.328 18.2852C177.531 18.7461 177.828 19.1133 178.219 19.3867C178.617 19.6602 179.133 19.7969 179.766 19.7969C180.242 19.7969 180.648 19.6914 180.984 19.4805C181.32 19.2695 181.594 18.9805 181.805 18.6133C182.016 18.2383 182.168 17.8086 182.262 17.3242C182.355 16.8398 182.402 16.3242 182.402 15.7773ZM194.754 19.3047V13.457C194.754 13.0273 194.68 12.6562 194.531 12.3438C194.383 12.0312 194.156 11.7891 193.852 11.6172C193.547 11.4453 193.16 11.3594 192.691 11.3594C192.277 11.3594 191.914 11.4297 191.602 11.5703C191.297 11.7109 191.062 11.9102 190.898 12.168C190.734 12.418 190.652 12.707 190.652 13.0352H187.547C187.547 12.5117 187.672 12.0156 187.922 11.5469C188.172 11.0703 188.527 10.6484 188.988 10.2812C189.457 9.90625 190.016 9.61328 190.664 9.40234C191.32 9.19141 192.055 9.08594 192.867 9.08594C193.828 9.08594 194.684 9.25 195.434 9.57812C196.191 9.89844 196.785 10.3828 197.215 11.0312C197.652 11.6797 197.871 12.4961 197.871 13.4805V19.0117C197.871 19.6445 197.91 20.1875 197.988 20.6406C198.074 21.0859 198.199 21.4727 198.363 21.8008V22H195.211C195.062 21.6797 194.949 21.2734 194.871 20.7812C194.793 20.2812 194.754 19.7891 194.754 19.3047ZM195.188 14.2773L195.211 16.1172H193.254C192.77 16.1172 192.344 16.168 191.977 16.2695C191.609 16.3633 191.309 16.5039 191.074 16.6914C190.84 16.8711 190.664 17.0898 190.547 17.3477C190.43 17.5977 190.371 17.8828 190.371 18.2031C190.371 18.5156 190.441 18.7969 190.582 19.0469C190.73 19.2969 190.941 19.4961 191.215 19.6445C191.496 19.7852 191.824 19.8555 192.199 19.8555C192.746 19.8555 193.223 19.7461 193.629 19.5273C194.035 19.3008 194.352 19.0273 194.578 18.707C194.805 18.3867 194.926 18.082 194.941 17.793L195.832 19.1289C195.723 19.4492 195.559 19.7891 195.34 20.1484C195.121 20.5078 194.84 20.8438 194.496 21.1562C194.152 21.4688 193.738 21.7266 193.254 21.9297C192.77 22.1328 192.207 22.2344 191.566 22.2344C190.746 22.2344 190.012 22.0703 189.363 21.7422C188.715 21.4141 188.203 20.9648 187.828 20.3945C187.453 19.8242 187.266 19.1758 187.266 18.4492C187.266 17.7773 187.391 17.1836 187.641 16.668C187.891 16.1523 188.262 15.7188 188.754 15.3672C189.246 15.0078 189.855 14.7383 190.582 14.5586C191.316 14.3711 192.156 14.2773 193.102 14.2773H195.188ZM206.098 15.9531H203.625V14.4766H205.512C205.973 14.4766 206.34 14.4141 206.613 14.2891C206.895 14.1641 207.094 13.9883 207.211 13.7617C207.336 13.5352 207.398 13.2734 207.398 12.9766C207.398 12.7109 207.34 12.4609 207.223 12.2266C207.105 11.9844 206.91 11.7891 206.637 11.6406C206.363 11.4844 205.984 11.4062 205.5 11.4062C205.102 11.4062 204.746 11.4688 204.434 11.5938C204.121 11.7188 203.875 11.8945 203.695 12.1211C203.516 12.3477 203.426 12.6172 203.426 12.9297H200.32C200.32 12.1328 200.547 11.4492 201 10.8789C201.461 10.3086 202.074 9.87109 202.84 9.56641C203.605 9.25391 204.445 9.09766 205.359 9.09766C206.148 9.09766 206.859 9.17969 207.492 9.34375C208.125 9.5 208.664 9.73438 209.109 10.0469C209.555 10.3594 209.898 10.7461 210.141 11.207C210.383 11.6602 210.504 12.1875 210.504 12.7891C210.504 13.2188 210.402 13.625 210.199 14.0078C209.996 14.3906 209.703 14.7305 209.32 15.0273C208.938 15.3164 208.473 15.543 207.926 15.707C207.387 15.8711 206.777 15.9531 206.098 15.9531ZM203.625 15.1094H206.098C206.855 15.1094 207.52 15.1836 208.09 15.332C208.668 15.4727 209.152 15.6836 209.543 15.9648C209.934 16.2461 210.227 16.5938 210.422 17.0078C210.625 17.4141 210.727 17.8828 210.727 18.4141C210.727 19.0156 210.594 19.5547 210.328 20.0312C210.07 20.5 209.703 20.8984 209.227 21.2266C208.75 21.5547 208.184 21.8047 207.527 21.9766C206.871 22.1484 206.148 22.2344 205.359 22.2344C204.508 22.2344 203.68 22.0938 202.875 21.8125C202.078 21.5312 201.418 21.0977 200.895 20.5117C200.379 19.9258 200.121 19.1719 200.121 18.25H203.227C203.227 18.5469 203.316 18.8242 203.496 19.082C203.676 19.3398 203.934 19.5469 204.27 19.7031C204.613 19.8516 205.027 19.9258 205.512 19.9258C206.004 19.9258 206.406 19.8477 206.719 19.6914C207.031 19.5352 207.258 19.3281 207.398 19.0703C207.547 18.8047 207.621 18.5273 207.621 18.2383C207.621 17.8398 207.543 17.5195 207.387 17.2773C207.238 17.0273 207.004 16.8438 206.684 16.7266C206.371 16.6094 205.98 16.5508 205.512 16.5508H203.625V15.1094ZM220.57 18.3438L224.133 9.32031H226.723L221.625 22H219.527L214.441 9.32031H217.043L220.57 18.3438ZM216.281 9.32031V22H213.176V9.32031H216.281ZM224.918 22V9.32031H228.023V22H224.918ZM236.801 22.2344C235.84 22.2344 234.977 22.0781 234.211 21.7656C233.445 21.4531 232.793 21.0195 232.254 20.4648C231.723 19.9023 231.312 19.25 231.023 18.5078C230.742 17.7578 230.602 16.9531 230.602 16.0938V15.625C230.602 14.6484 230.742 13.7617 231.023 12.9648C231.305 12.1602 231.703 11.4688 232.219 10.8906C232.734 10.3125 233.352 9.86719 234.07 9.55469C234.789 9.24219 235.582 9.08594 236.449 9.08594C237.348 9.08594 238.141 9.23828 238.828 9.54297C239.516 9.83984 240.09 10.2617 240.551 10.8086C241.012 11.3555 241.359 12.0117 241.594 12.7773C241.828 13.5352 241.945 14.375 241.945 15.2969V16.5977H232.008V14.4648H238.898V14.2305C238.883 13.7383 238.789 13.2891 238.617 12.8828C238.445 12.4688 238.18 12.1406 237.82 11.8984C237.461 11.6484 236.996 11.5234 236.426 11.5234C235.965 11.5234 235.562 11.625 235.219 11.8281C234.883 12.0234 234.602 12.3047 234.375 12.6719C234.156 13.0312 233.992 13.4609 233.883 13.9609C233.773 14.4609 233.719 15.0156 233.719 15.625V16.0938C233.719 16.625 233.789 17.1172 233.93 17.5703C234.078 18.0234 234.293 18.418 234.574 18.7539C234.863 19.082 235.207 19.3398 235.605 19.5273C236.012 19.707 236.473 19.7969 236.988 19.7969C237.637 19.7969 238.223 19.6719 238.746 19.4219C239.277 19.1641 239.738 18.7852 240.129 18.2852L241.688 19.9023C241.422 20.293 241.062 20.668 240.609 21.0273C240.164 21.3867 239.625 21.6797 238.992 21.9062C238.359 22.125 237.629 22.2344 236.801 22.2344ZM247.113 11.7578V26.875H244.008V9.32031H246.879L247.113 11.7578ZM255.258 15.5312V15.7773C255.258 16.6992 255.148 17.5547 254.93 18.3438C254.719 19.125 254.406 19.8086 253.992 20.3945C253.578 20.9727 253.062 21.4258 252.445 21.7539C251.836 22.0742 251.133 22.2344 250.336 22.2344C249.555 22.2344 248.875 22.0859 248.297 21.7891C247.719 21.4844 247.23 21.0547 246.832 20.5C246.434 19.9453 246.113 19.3008 245.871 18.5664C245.637 17.8242 245.461 17.0156 245.344 16.1406V15.3555C245.461 14.4258 245.637 13.582 245.871 12.8242C246.113 12.0586 246.434 11.3984 246.832 10.8438C247.23 10.2812 247.715 9.84766 248.285 9.54297C248.863 9.23828 249.539 9.08594 250.312 9.08594C251.117 9.08594 251.824 9.23828 252.434 9.54297C253.051 9.84766 253.57 10.2852 253.992 10.8555C254.414 11.4258 254.73 12.1055 254.941 12.8945C255.152 13.6836 255.258 14.5625 255.258 15.5312ZM252.152 15.7773V15.5312C252.152 14.9688 252.102 14.4492 252 13.9727C251.898 13.4883 251.742 13.0664 251.531 12.707C251.32 12.3398 251.047 12.0547 250.711 11.8516C250.375 11.6484 249.969 11.5469 249.492 11.5469C249.016 11.5469 248.605 11.625 248.262 11.7812C247.918 11.9375 247.637 12.1602 247.418 12.4492C247.199 12.7383 247.027 13.082 246.902 13.4805C246.785 13.8711 246.707 14.3047 246.668 14.7812V16.7266C246.738 17.3047 246.875 17.8242 247.078 18.2852C247.281 18.7461 247.578 19.1133 247.969 19.3867C248.367 19.6602 248.883 19.7969 249.516 19.7969C249.992 19.7969 250.398 19.6914 250.734 19.4805C251.07 19.2695 251.344 18.9805 251.555 18.6133C251.766 18.2383 251.918 17.8086 252.012 17.3242C252.105 16.8398 252.152 16.3242 252.152 15.7773ZM3.67969 37.3203H6.77344L6.65625 41.6797C6.61719 43 6.46094 44.1406 6.1875 45.1016C5.92188 46.0547 5.56641 46.8555 5.12109 47.5039C4.68359 48.1523 4.18359 48.6758 3.62109 49.0742C3.06641 49.4727 2.48438 49.7812 1.875 50H1.13672L1.125 47.5859L1.48828 47.5625C1.85547 47.1719 2.16406 46.7891 2.41406 46.4141C2.67188 46.0312 2.87891 45.6211 3.03516 45.1836C3.19141 44.7461 3.30859 44.2461 3.38672 43.6836C3.47266 43.1133 3.52734 42.4453 3.55078 41.6797L3.67969 37.3203ZM4.51172 37.3203H12.7266V50H9.63281V39.8633H4.51172V37.3203ZM0.433594 47.5625H14.4961V53.7969H11.4023V50H3.58594V53.7969H0.421875L0.433594 47.5625ZM24.9141 37.3203V39.7695H18.7031V37.3203H24.9141ZM27.2461 37.3203V50H24.1523V37.3203H27.2461ZM17.9297 37.3203H20.9883L20.6484 43.6484C20.5938 44.5781 20.4961 45.3945 20.3555 46.0977C20.2148 46.793 20.0273 47.3906 19.793 47.8906C19.5586 48.3828 19.2734 48.7852 18.9375 49.0977C18.6016 49.4102 18.2109 49.6406 17.7656 49.7891C17.3281 49.9297 16.8359 50 16.2891 50H15.3398L15.3047 47.5039L15.75 47.4688C16.0234 47.4453 16.2578 47.3711 16.4531 47.2461C16.6562 47.1211 16.8281 46.9414 16.9688 46.707C17.1172 46.4727 17.2383 46.1719 17.332 45.8047C17.4336 45.4297 17.5117 44.9922 17.5664 44.4922C17.6289 43.9844 17.6719 43.3984 17.6953 42.7344L17.9297 37.3203ZM32.7773 43.7422H35.9531L32.3906 50H29.2148L32.7773 43.7422ZM34.9336 37.3203H40.4414V50H37.3477V39.7344H34.9336C34.4414 39.7344 34.0312 39.8242 33.7031 40.0039C33.3828 40.1836 33.1445 40.4141 32.9883 40.6953C32.832 40.9688 32.7539 41.25 32.7539 41.5391C32.7539 41.8203 32.8281 42.0938 32.9766 42.3594C33.125 42.625 33.3516 42.8438 33.6562 43.0156C33.9688 43.1875 34.3594 43.2734 34.8281 43.2734H38.4492V45.4531H34.8281C34.0234 45.4531 33.3008 45.3555 32.6602 45.1602C32.0273 44.957 31.4844 44.6758 31.0312 44.3164C30.5859 43.957 30.2461 43.5352 30.0117 43.0508C29.7773 42.5586 29.6602 42.0234 29.6602 41.4453C29.6602 40.8516 29.7773 40.3047 30.0117 39.8047C30.2539 39.3047 30.6016 38.8672 31.0547 38.4922C31.5156 38.1172 32.0703 37.8281 32.7188 37.625C33.375 37.4219 34.1133 37.3203 34.9336 37.3203ZM57.9492 37.3203V39.7695H51.75V37.3203H57.9492ZM52.5703 37.3203V50H49.4648V37.3203H52.5703ZM60.293 37.3203V50H57.1758V37.3203H60.293ZM68.8008 50.2344C67.8398 50.2344 66.9766 50.0781 66.2109 49.7656C65.4453 49.4531 64.793 49.0195 64.2539 48.4648C63.7227 47.9023 63.3125 47.25 63.0234 46.5078C62.7422 45.7578 62.6016 44.9531 62.6016 44.0938V43.625C62.6016 42.6484 62.7422 41.7617 63.0234 40.9648C63.3047 40.1602 63.7031 39.4688 64.2188 38.8906C64.7344 38.3125 65.3516 37.8672 66.0703 37.5547C66.7891 37.2422 67.582 37.0859 68.4492 37.0859C69.3477 37.0859 70.1406 37.2383 70.8281 37.543C71.5156 37.8398 72.0898 38.2617 72.5508 38.8086C73.0117 39.3555 73.3594 40.0117 73.5938 40.7773C73.8281 41.5352 73.9453 42.375 73.9453 43.2969V44.5977H64.0078V42.4648H70.8984V42.2305C70.8828 41.7383 70.7891 41.2891 70.6172 40.8828C70.4453 40.4688 70.1797 40.1406 69.8203 39.8984C69.4609 39.6484 68.9961 39.5234 68.4258 39.5234C67.9648 39.5234 67.5625 39.625 67.2188 39.8281C66.8828 40.0234 66.6016 40.3047 66.375 40.6719C66.1562 41.0312 65.9922 41.4609 65.8828 41.9609C65.7734 42.4609 65.7188 43.0156 65.7188 43.625V44.0938C65.7188 44.625 65.7891 45.1172 65.9297 45.5703C66.0781 46.0234 66.293 46.418 66.5742 46.7539C66.8633 47.082 67.207 47.3398 67.6055 47.5273C68.0117 47.707 68.4727 47.7969 68.9883 47.7969C69.6367 47.7969 70.2227 47.6719 70.7461 47.4219C71.2773 47.1641 71.7383 46.7852 72.1289 46.2852L73.6875 47.9023C73.4219 48.293 73.0625 48.668 72.6094 49.0273C72.1641 49.3867 71.625 49.6797 70.9922 49.9062C70.3594 50.125 69.6289 50.2344 68.8008 50.2344ZM86.4492 37.3203V50H83.3438V37.3203H86.4492ZM85.043 42.8398V45.2773C84.7461 45.418 84.3867 45.5508 83.9648 45.6758C83.5508 45.793 83.1133 45.8867 82.6523 45.957C82.1992 46.0273 81.7578 46.0625 81.3281 46.0625C80.1641 46.0625 79.1602 45.8906 78.3164 45.5469C77.4805 45.2031 76.8359 44.6758 76.3828 43.9648C75.9297 43.2461 75.7031 42.3281 75.7031 41.2109V37.3086H78.7969V41.2109C78.7969 41.8125 78.8867 42.2891 79.0664 42.6406C79.2461 42.9922 79.5234 43.2422 79.8984 43.3906C80.2734 43.5391 80.75 43.6133 81.3281 43.6133C81.7734 43.6133 82.1992 43.582 82.6055 43.5195C83.0117 43.4492 83.4141 43.3594 83.8125 43.25C84.2188 43.1328 84.6289 42.9961 85.043 42.8398ZM96.2461 47.3047V41.457C96.2461 41.0273 96.1719 40.6562 96.0234 40.3438C95.875 40.0312 95.6484 39.7891 95.3438 39.6172C95.0391 39.4453 94.6523 39.3594 94.1836 39.3594C93.7695 39.3594 93.4062 39.4297 93.0938 39.5703C92.7891 39.7109 92.5547 39.9102 92.3906 40.168C92.2266 40.418 92.1445 40.707 92.1445 41.0352H89.0391C89.0391 40.5117 89.1641 40.0156 89.4141 39.5469C89.6641 39.0703 90.0195 38.6484 90.4805 38.2812C90.9492 37.9062 91.5078 37.6133 92.1562 37.4023C92.8125 37.1914 93.5469 37.0859 94.3594 37.0859C95.3203 37.0859 96.1758 37.25 96.9258 37.5781C97.6836 37.8984 98.2773 38.3828 98.707 39.0312C99.1445 39.6797 99.3633 40.4961 99.3633 41.4805V47.0117C99.3633 47.6445 99.4023 48.1875 99.4805 48.6406C99.5664 49.0859 99.6914 49.4727 99.8555 49.8008V50H96.7031C96.5547 49.6797 96.4414 49.2734 96.3633 48.7812C96.2852 48.2812 96.2461 47.7891 96.2461 47.3047ZM96.6797 42.2773L96.7031 44.1172H94.7461C94.2617 44.1172 93.8359 44.168 93.4688 44.2695C93.1016 44.3633 92.8008 44.5039 92.5664 44.6914C92.332 44.8711 92.1562 45.0898 92.0391 45.3477C91.9219 45.5977 91.8633 45.8828 91.8633 46.2031C91.8633 46.5156 91.9336 46.7969 92.0742 47.0469C92.2227 47.2969 92.4336 47.4961 92.707 47.6445C92.9883 47.7852 93.3164 47.8555 93.6914 47.8555C94.2383 47.8555 94.7148 47.7461 95.1211 47.5273C95.5273 47.3008 95.8438 47.0273 96.0703 46.707C96.2969 46.3867 96.418 46.082 96.4336 45.793L97.3242 47.1289C97.2148 47.4492 97.0508 47.7891 96.832 48.1484C96.6133 48.5078 96.332 48.8438 95.9883 49.1562C95.6445 49.4688 95.2305 49.7266 94.7461 49.9297C94.2617 50.1328 93.6992 50.2344 93.0586 50.2344C92.2383 50.2344 91.5039 50.0703 90.8555 49.7422C90.207 49.4141 89.6953 48.9648 89.3203 48.3945C88.9453 47.8242 88.7578 47.1758 88.7578 46.4492C88.7578 45.7773 88.8828 45.1836 89.1328 44.668C89.3828 44.1523 89.7539 43.7188 90.2461 43.3672C90.7383 43.0078 91.3477 42.7383 92.0742 42.5586C92.8086 42.3711 93.6484 42.2773 94.5938 42.2773H96.6797ZM108.117 37.3203V50H105.012V37.3203H108.117ZM112.242 37.3203V39.7344H100.957V37.3203H112.242ZM117.188 45.582L121.805 37.3203H124.91V50H121.805V41.7266L117.188 50H114.082V37.3203H117.188V45.582Z" fill="black"/>
<path d="M588.035 4.9375H590.824L595.488 17.7812L600.141 4.9375H602.941L596.602 22H594.363L588.035 4.9375ZM586.629 4.9375H589.359L589.852 16.7383V22H586.629V4.9375ZM601.605 4.9375H604.348V22H601.125V16.7383L601.605 4.9375ZM610.523 17.582L615.141 9.32031H618.246V22H615.141V13.7266L610.523 22H607.418V9.32031H610.523V17.582ZM629.719 14.5234V16.9492H623.215V14.5234H629.719ZM624.188 9.32031V22H621.082V9.32031H624.188ZM631.887 9.32031V22H628.77V9.32031H631.887ZM637.828 17.582L642.445 9.32031H645.551V22H642.445V13.7266L637.828 22H634.723V9.32031H637.828V17.582ZM655.969 18.3438L659.531 9.32031H662.121L657.023 22H654.926L649.84 9.32031H652.441L655.969 18.3438ZM651.68 9.32031V22H648.574V9.32031H651.68ZM660.316 22V9.32031H663.422V22H660.316ZM673.488 19.3047V13.457C673.488 13.0273 673.414 12.6562 673.266 12.3438C673.117 12.0312 672.891 11.7891 672.586 11.6172C672.281 11.4453 671.895 11.3594 671.426 11.3594C671.012 11.3594 670.648 11.4297 670.336 11.5703C670.031 11.7109 669.797 11.9102 669.633 12.168C669.469 12.418 669.387 12.707 669.387 13.0352H666.281C666.281 12.5117 666.406 12.0156 666.656 11.5469C666.906 11.0703 667.262 10.6484 667.723 10.2812C668.191 9.90625 668.75 9.61328 669.398 9.40234C670.055 9.19141 670.789 9.08594 671.602 9.08594C672.562 9.08594 673.418 9.25 674.168 9.57812C674.926 9.89844 675.52 10.3828 675.949 11.0312C676.387 11.6797 676.605 12.4961 676.605 13.4805V19.0117C676.605 19.6445 676.645 20.1875 676.723 20.6406C676.809 21.0859 676.934 21.4727 677.098 21.8008V22H673.945C673.797 21.6797 673.684 21.2734 673.605 20.7812C673.527 20.2812 673.488 19.7891 673.488 19.3047ZM673.922 14.2773L673.945 16.1172H671.988C671.504 16.1172 671.078 16.168 670.711 16.2695C670.344 16.3633 670.043 16.5039 669.809 16.6914C669.574 16.8711 669.398 17.0898 669.281 17.3477C669.164 17.5977 669.105 17.8828 669.105 18.2031C669.105 18.5156 669.176 18.7969 669.316 19.0469C669.465 19.2969 669.676 19.4961 669.949 19.6445C670.23 19.7852 670.559 19.8555 670.934 19.8555C671.48 19.8555 671.957 19.7461 672.363 19.5273C672.77 19.3008 673.086 19.0273 673.312 18.707C673.539 18.3867 673.66 18.082 673.676 17.793L674.566 19.1289C674.457 19.4492 674.293 19.7891 674.074 20.1484C673.855 20.5078 673.574 20.8438 673.23 21.1562C672.887 21.4688 672.473 21.7266 671.988 21.9297C671.504 22.1328 670.941 22.2344 670.301 22.2344C669.48 22.2344 668.746 22.0703 668.098 21.7422C667.449 21.4141 666.938 20.9648 666.562 20.3945C666.188 19.8242 666 19.1758 666 18.4492C666 17.7773 666.125 17.1836 666.375 16.668C666.625 16.1523 666.996 15.7188 667.488 15.3672C667.98 15.0078 668.59 14.7383 669.316 14.5586C670.051 14.3711 670.891 14.2773 671.836 14.2773H673.922ZM687.914 9.32031V11.7695H681.703V9.32031H687.914ZM690.246 9.32031V22H687.152V9.32031H690.246ZM680.93 9.32031H683.988L683.648 15.6484C683.594 16.5781 683.496 17.3945 683.355 18.0977C683.215 18.793 683.027 19.3906 682.793 19.8906C682.559 20.3828 682.273 20.7852 681.938 21.0977C681.602 21.4102 681.211 21.6406 680.766 21.7891C680.328 21.9297 679.836 22 679.289 22H678.34L678.305 19.5039L678.75 19.4688C679.023 19.4453 679.258 19.3711 679.453 19.2461C679.656 19.1211 679.828 18.9414 679.969 18.707C680.117 18.4727 680.238 18.1719 680.332 17.8047C680.434 17.4297 680.512 16.9922 680.566 16.4922C680.629 15.9844 680.672 15.3984 680.695 14.7344L680.93 9.32031ZM695.285 13.2227H698.988C700.113 13.2227 701.07 13.4102 701.859 13.7852C702.656 14.1523 703.262 14.668 703.676 15.332C704.098 15.9883 704.309 16.75 704.309 17.6172C704.309 18.2422 704.188 18.8242 703.945 19.3633C703.711 19.8945 703.367 20.3594 702.914 20.7578C702.461 21.1484 701.902 21.4531 701.238 21.6719C700.582 21.8906 699.832 22 698.988 22H693.293V9.32031H696.398V19.5742H698.988C699.527 19.5742 699.957 19.4844 700.277 19.3047C700.605 19.1172 700.84 18.8789 700.98 18.5898C701.129 18.293 701.203 17.9766 701.203 17.6406C701.203 17.2969 701.129 16.9766 700.98 16.6797C700.84 16.375 700.605 16.1289 700.277 15.9414C699.957 15.7539 699.527 15.6602 698.988 15.6602H695.285V13.2227ZM715.055 14.5234V16.9492H708.551V14.5234H715.055ZM709.523 9.32031V22H706.418V9.32031H709.523ZM717.223 9.32031V22H714.105V9.32031H717.223ZM722.238 13.2227H725.941C727.066 13.2227 728.023 13.4102 728.812 13.7852C729.609 14.1523 730.215 14.668 730.629 15.332C731.051 15.9883 731.262 16.75 731.262 17.6172C731.262 18.2422 731.141 18.8242 730.898 19.3633C730.664 19.8945 730.32 20.3594 729.867 20.7578C729.414 21.1484 728.855 21.4531 728.191 21.6719C727.535 21.8906 726.785 22 725.941 22H720.246V9.32031H723.352V19.5742H725.941C726.48 19.5742 726.91 19.4844 727.23 19.3047C727.559 19.1172 727.793 18.8789 727.934 18.5898C728.082 18.293 728.156 17.9766 728.156 17.6406C728.156 17.2969 728.082 16.9766 727.934 16.6797C727.793 16.375 727.559 16.1289 727.23 15.9414C726.91 15.7539 726.48 15.6602 725.941 15.6602H722.238V13.2227ZM736.465 9.32031V22H733.359V9.32031H736.465ZM742.758 17.582L747.375 9.32031H750.48V22H747.375V13.7266L742.758 22H739.652V9.32031H742.758V17.582ZM746.801 4.33984H749.051C749.051 4.99609 748.891 5.57813 748.57 6.08594C748.25 6.59375 747.793 6.99219 747.199 7.28125C746.613 7.5625 745.918 7.70312 745.113 7.70312C743.902 7.70312 742.941 7.39062 742.23 6.76562C741.52 6.14063 741.164 5.33203 741.164 4.33984H743.414C743.414 4.75391 743.543 5.125 743.801 5.45312C744.059 5.78125 744.496 5.94531 745.113 5.94531C745.73 5.94531 746.164 5.78125 746.414 5.45312C746.672 5.125 746.801 4.75391 746.801 4.33984ZM762.363 11.7578V26.875H759.258V9.32031H762.129L762.363 11.7578ZM770.508 15.5312V15.7773C770.508 16.6992 770.398 17.5547 770.18 18.3438C769.969 19.125 769.656 19.8086 769.242 20.3945C768.828 20.9727 768.312 21.4258 767.695 21.7539C767.086 22.0742 766.383 22.2344 765.586 22.2344C764.805 22.2344 764.125 22.0859 763.547 21.7891C762.969 21.4844 762.48 21.0547 762.082 20.5C761.684 19.9453 761.363 19.3008 761.121 18.5664C760.887 17.8242 760.711 17.0156 760.594 16.1406V15.3555C760.711 14.4258 760.887 13.582 761.121 12.8242C761.363 12.0586 761.684 11.3984 762.082 10.8438C762.48 10.2812 762.965 9.84766 763.535 9.54297C764.113 9.23828 764.789 9.08594 765.562 9.08594C766.367 9.08594 767.074 9.23828 767.684 9.54297C768.301 9.84766 768.82 10.2852 769.242 10.8555C769.664 11.4258 769.98 12.1055 770.191 12.8945C770.402 13.6836 770.508 14.5625 770.508 15.5312ZM767.402 15.7773V15.5312C767.402 14.9688 767.352 14.4492 767.25 13.9727C767.148 13.4883 766.992 13.0664 766.781 12.707C766.57 12.3398 766.297 12.0547 765.961 11.8516C765.625 11.6484 765.219 11.5469 764.742 11.5469C764.266 11.5469 763.855 11.625 763.512 11.7812C763.168 11.9375 762.887 12.1602 762.668 12.4492C762.449 12.7383 762.277 13.082 762.152 13.4805C762.035 13.8711 761.957 14.3047 761.918 14.7812V16.7266C761.988 17.3047 762.125 17.8242 762.328 18.2852C762.531 18.7461 762.828 19.1133 763.219 19.3867C763.617 19.6602 764.133 19.7969 764.766 19.7969C765.242 19.7969 765.648 19.6914 765.984 19.4805C766.32 19.2695 766.594 18.9805 766.805 18.6133C767.016 18.2383 767.168 17.8086 767.262 17.3242C767.355 16.8398 767.402 16.3242 767.402 15.7773ZM779.754 19.3047V13.457C779.754 13.0273 779.68 12.6562 779.531 12.3438C779.383 12.0312 779.156 11.7891 778.852 11.6172C778.547 11.4453 778.16 11.3594 777.691 11.3594C777.277 11.3594 776.914 11.4297 776.602 11.5703C776.297 11.7109 776.062 11.9102 775.898 12.168C775.734 12.418 775.652 12.707 775.652 13.0352H772.547C772.547 12.5117 772.672 12.0156 772.922 11.5469C773.172 11.0703 773.527 10.6484 773.988 10.2812C774.457 9.90625 775.016 9.61328 775.664 9.40234C776.32 9.19141 777.055 9.08594 777.867 9.08594C778.828 9.08594 779.684 9.25 780.434 9.57812C781.191 9.89844 781.785 10.3828 782.215 11.0312C782.652 11.6797 782.871 12.4961 782.871 13.4805V19.0117C782.871 19.6445 782.91 20.1875 782.988 20.6406C783.074 21.0859 783.199 21.4727 783.363 21.8008V22H780.211C780.062 21.6797 779.949 21.2734 779.871 20.7812C779.793 20.2812 779.754 19.7891 779.754 19.3047ZM780.188 14.2773L780.211 16.1172H778.254C777.77 16.1172 777.344 16.168 776.977 16.2695C776.609 16.3633 776.309 16.5039 776.074 16.6914C775.84 16.8711 775.664 17.0898 775.547 17.3477C775.43 17.5977 775.371 17.8828 775.371 18.2031C775.371 18.5156 775.441 18.7969 775.582 19.0469C775.73 19.2969 775.941 19.4961 776.215 19.6445C776.496 19.7852 776.824 19.8555 777.199 19.8555C777.746 19.8555 778.223 19.7461 778.629 19.5273C779.035 19.3008 779.352 19.0273 779.578 18.707C779.805 18.3867 779.926 18.082 779.941 17.793L780.832 19.1289C780.723 19.4492 780.559 19.7891 780.34 20.1484C780.121 20.5078 779.84 20.8438 779.496 21.1562C779.152 21.4688 778.738 21.7266 778.254 21.9297C777.77 22.1328 777.207 22.2344 776.566 22.2344C775.746 22.2344 775.012 22.0703 774.363 21.7422C773.715 21.4141 773.203 20.9648 772.828 20.3945C772.453 19.8242 772.266 19.1758 772.266 18.4492C772.266 17.7773 772.391 17.1836 772.641 16.668C772.891 16.1523 773.262 15.7188 773.754 15.3672C774.246 15.0078 774.855 14.7383 775.582 14.5586C776.316 14.3711 777.156 14.2773 778.102 14.2773H780.188ZM791.098 15.9531H788.625V14.4766H790.512C790.973 14.4766 791.34 14.4141 791.613 14.2891C791.895 14.1641 792.094 13.9883 792.211 13.7617C792.336 13.5352 792.398 13.2734 792.398 12.9766C792.398 12.7109 792.34 12.4609 792.223 12.2266C792.105 11.9844 791.91 11.7891 791.637 11.6406C791.363 11.4844 790.984 11.4062 790.5 11.4062C790.102 11.4062 789.746 11.4688 789.434 11.5938C789.121 11.7188 788.875 11.8945 788.695 12.1211C788.516 12.3477 788.426 12.6172 788.426 12.9297H785.32C785.32 12.1328 785.547 11.4492 786 10.8789C786.461 10.3086 787.074 9.87109 787.84 9.56641C788.605 9.25391 789.445 9.09766 790.359 9.09766C791.148 9.09766 791.859 9.17969 792.492 9.34375C793.125 9.5 793.664 9.73438 794.109 10.0469C794.555 10.3594 794.898 10.7461 795.141 11.207C795.383 11.6602 795.504 12.1875 795.504 12.7891C795.504 13.2188 795.402 13.625 795.199 14.0078C794.996 14.3906 794.703 14.7305 794.32 15.0273C793.938 15.3164 793.473 15.543 792.926 15.707C792.387 15.8711 791.777 15.9531 791.098 15.9531ZM788.625 15.1094H791.098C791.855 15.1094 792.52 15.1836 793.09 15.332C793.668 15.4727 794.152 15.6836 794.543 15.9648C794.934 16.2461 795.227 16.5938 795.422 17.0078C795.625 17.4141 795.727 17.8828 795.727 18.4141C795.727 19.0156 795.594 19.5547 795.328 20.0312C795.07 20.5 794.703 20.8984 794.227 21.2266C793.75 21.5547 793.184 21.8047 792.527 21.9766C791.871 22.1484 791.148 22.2344 790.359 22.2344C789.508 22.2344 788.68 22.0938 787.875 21.8125C787.078 21.5312 786.418 21.0977 785.895 20.5117C785.379 19.9258 785.121 19.1719 785.121 18.25H788.227C788.227 18.5469 788.316 18.8242 788.496 19.082C788.676 19.3398 788.934 19.5469 789.27 19.7031C789.613 19.8516 790.027 19.9258 790.512 19.9258C791.004 19.9258 791.406 19.8477 791.719 19.6914C792.031 19.5352 792.258 19.3281 792.398 19.0703C792.547 18.8047 792.621 18.5273 792.621 18.2383C792.621 17.8398 792.543 17.5195 792.387 17.2773C792.238 17.0273 792.004 16.8438 791.684 16.7266C791.371 16.6094 790.98 16.5508 790.512 16.5508H788.625V15.1094ZM805.57 18.3438L809.133 9.32031H811.723L806.625 22H804.527L799.441 9.32031H802.043L805.57 18.3438ZM801.281 9.32031V22H798.176V9.32031H801.281ZM809.918 22V9.32031H813.023V22H809.918ZM821.801 22.2344C820.84 22.2344 819.977 22.0781 819.211 21.7656C818.445 21.4531 817.793 21.0195 817.254 20.4648C816.723 19.9023 816.312 19.25 816.023 18.5078C815.742 17.7578 815.602 16.9531 815.602 16.0938V15.625C815.602 14.6484 815.742 13.7617 816.023 12.9648C816.305 12.1602 816.703 11.4688 817.219 10.8906C817.734 10.3125 818.352 9.86719 819.07 9.55469C819.789 9.24219 820.582 9.08594 821.449 9.08594C822.348 9.08594 823.141 9.23828 823.828 9.54297C824.516 9.83984 825.09 10.2617 825.551 10.8086C826.012 11.3555 826.359 12.0117 826.594 12.7773C826.828 13.5352 826.945 14.375 826.945 15.2969V16.5977H817.008V14.4648H823.898V14.2305C823.883 13.7383 823.789 13.2891 823.617 12.8828C823.445 12.4688 823.18 12.1406 822.82 11.8984C822.461 11.6484 821.996 11.5234 821.426 11.5234C820.965 11.5234 820.562 11.625 820.219 11.8281C819.883 12.0234 819.602 12.3047 819.375 12.6719C819.156 13.0312 818.992 13.4609 818.883 13.9609C818.773 14.4609 818.719 15.0156 818.719 15.625V16.0938C818.719 16.625 818.789 17.1172 818.93 17.5703C819.078 18.0234 819.293 18.418 819.574 18.7539C819.863 19.082 820.207 19.3398 820.605 19.5273C821.012 19.707 821.473 19.7969 821.988 19.7969C822.637 19.7969 823.223 19.6719 823.746 19.4219C824.277 19.1641 824.738 18.7852 825.129 18.2852L826.688 19.9023C826.422 20.293 826.062 20.668 825.609 21.0273C825.164 21.3867 824.625 21.6797 823.992 21.9062C823.359 22.125 822.629 22.2344 821.801 22.2344ZM832.113 11.7578V26.875H829.008V9.32031H831.879L832.113 11.7578ZM840.258 15.5312V15.7773C840.258 16.6992 840.148 17.5547 839.93 18.3438C839.719 19.125 839.406 19.8086 838.992 20.3945C838.578 20.9727 838.062 21.4258 837.445 21.7539C836.836 22.0742 836.133 22.2344 835.336 22.2344C834.555 22.2344 833.875 22.0859 833.297 21.7891C832.719 21.4844 832.23 21.0547 831.832 20.5C831.434 19.9453 831.113 19.3008 830.871 18.5664C830.637 17.8242 830.461 17.0156 830.344 16.1406V15.3555C830.461 14.4258 830.637 13.582 830.871 12.8242C831.113 12.0586 831.434 11.3984 831.832 10.8438C832.23 10.2812 832.715 9.84766 833.285 9.54297C833.863 9.23828 834.539 9.08594 835.312 9.08594C836.117 9.08594 836.824 9.23828 837.434 9.54297C838.051 9.84766 838.57 10.2852 838.992 10.8555C839.414 11.4258 839.73 12.1055 839.941 12.8945C840.152 13.6836 840.258 14.5625 840.258 15.5312ZM837.152 15.7773V15.5312C837.152 14.9688 837.102 14.4492 837 13.9727C836.898 13.4883 836.742 13.0664 836.531 12.707C836.32 12.3398 836.047 12.0547 835.711 11.8516C835.375 11.6484 834.969 11.5469 834.492 11.5469C834.016 11.5469 833.605 11.625 833.262 11.7812C832.918 11.9375 832.637 12.1602 832.418 12.4492C832.199 12.7383 832.027 13.082 831.902 13.4805C831.785 13.8711 831.707 14.3047 831.668 14.7812V16.7266C831.738 17.3047 831.875 17.8242 832.078 18.2852C832.281 18.7461 832.578 19.1133 832.969 19.3867C833.367 19.6602 833.883 19.7969 834.516 19.7969C834.992 19.7969 835.398 19.6914 835.734 19.4805C836.07 19.2695 836.344 18.9805 836.555 18.6133C836.766 18.2383 836.918 17.8086 837.012 17.3242C837.105 16.8398 837.152 16.3242 837.152 15.7773ZM588.68 37.3203H591.773L591.656 41.6797C591.617 43 591.461 44.1406 591.188 45.1016C590.922 46.0547 590.566 46.8555 590.121 47.5039C589.684 48.1523 589.184 48.6758 588.621 49.0742C588.066 49.4727 587.484 49.7812 586.875 50H586.137L586.125 47.5859L586.488 47.5625C586.855 47.1719 587.164 46.7891 587.414 46.4141C587.672 46.0312 587.879 45.6211 588.035 45.1836C588.191 44.7461 588.309 44.2461 588.387 43.6836C588.473 43.1133 588.527 42.4453 588.551 41.6797L588.68 37.3203ZM589.512 37.3203H597.727V50H594.633V39.8633H589.512V37.3203ZM585.434 47.5625H599.496V53.7969H596.402V50H588.586V53.7969H585.422L585.434 47.5625ZM609.914 37.3203V39.7695H603.703V37.3203H609.914ZM612.246 37.3203V50H609.152V37.3203H612.246ZM602.93 37.3203H605.988L605.648 43.6484C605.594 44.5781 605.496 45.3945 605.355 46.0977C605.215 46.793 605.027 47.3906 604.793 47.8906C604.559 48.3828 604.273 48.7852 603.938 49.0977C603.602 49.4102 603.211 49.6406 602.766 49.7891C602.328 49.9297 601.836 50 601.289 50H600.34L600.305 47.5039L600.75 47.4688C601.023 47.4453 601.258 47.3711 601.453 47.2461C601.656 47.1211 601.828 46.9414 601.969 46.707C602.117 46.4727 602.238 46.1719 602.332 45.8047C602.434 45.4297 602.512 44.9922 602.566 44.4922C602.629 43.9844 602.672 43.3984 602.695 42.7344L602.93 37.3203ZM617.777 43.7422H620.953L617.391 50H614.215L617.777 43.7422ZM619.934 37.3203H625.441V50H622.348V39.7344H619.934C619.441 39.7344 619.031 39.8242 618.703 40.0039C618.383 40.1836 618.145 40.4141 617.988 40.6953C617.832 40.9688 617.754 41.25 617.754 41.5391C617.754 41.8203 617.828 42.0938 617.977 42.3594C618.125 42.625 618.352 42.8438 618.656 43.0156C618.969 43.1875 619.359 43.2734 619.828 43.2734H623.449V45.4531H619.828C619.023 45.4531 618.301 45.3555 617.66 45.1602C617.027 44.957 616.484 44.6758 616.031 44.3164C615.586 43.957 615.246 43.5352 615.012 43.0508C614.777 42.5586 614.66 42.0234 614.66 41.4453C614.66 40.8516 614.777 40.3047 615.012 39.8047C615.254 39.3047 615.602 38.8672 616.055 38.4922C616.516 38.1172 617.07 37.8281 617.719 37.625C618.375 37.4219 619.113 37.3203 619.934 37.3203ZM634.465 50V37.3203H637.57V47.5625H642.176V37.3203H645.293V50H634.465ZM647.098 47.5742L646.875 53.7617H644.004V50H642.539V47.5742H647.098ZM652.102 45.582L656.719 37.3203H659.824V50H656.719V41.7266L652.102 50H648.996V37.3203H652.102V45.582ZM677.871 43.7773V44.0234C677.871 44.9297 677.77 45.7617 677.566 46.5195C677.371 47.2773 677.074 47.9336 676.676 48.4883C676.285 49.043 675.801 49.4727 675.223 49.7773C674.645 50.082 673.977 50.2344 673.219 50.2344C672.539 50.2344 671.945 50.1133 671.438 49.8711C670.938 49.6211 670.516 49.2734 670.172 48.8281C669.836 48.375 669.562 47.8477 669.352 47.2461C669.148 46.6367 668.996 45.9766 668.895 45.2656V42.4062C668.996 41.6406 669.148 40.9375 669.352 40.2969C669.555 39.6484 669.828 39.0859 670.172 38.6094C670.516 38.125 670.934 37.75 671.426 37.4844C671.926 37.2188 672.516 37.0859 673.195 37.0859C673.812 37.0859 674.367 37.1914 674.859 37.4023C675.352 37.6133 675.785 37.918 676.16 38.3164C676.535 38.707 676.848 39.1797 677.098 39.7344C677.355 40.2812 677.547 40.8984 677.672 41.5859C677.805 42.2656 677.871 42.9961 677.871 43.7773ZM674.766 44.0234V43.7773C674.766 43.3164 674.738 42.875 674.684 42.4531C674.629 42.0234 674.543 41.6328 674.426 41.2812C674.309 40.9297 674.156 40.6211 673.969 40.3555C673.781 40.0898 673.555 39.8867 673.289 39.7461C673.023 39.5977 672.719 39.5234 672.375 39.5234C671.844 39.5234 671.406 39.6211 671.062 39.8164C670.727 40.0117 670.473 40.2812 670.301 40.625C670.137 40.9688 670.039 41.3711 670.008 41.832V45.8516C670.047 46.2422 670.152 46.582 670.324 46.8711C670.496 47.1602 670.75 47.3867 671.086 47.5508C671.43 47.7148 671.867 47.7969 672.398 47.7969C672.828 47.7969 673.191 47.7031 673.488 47.5156C673.793 47.3203 674.039 47.0547 674.227 46.7188C674.414 46.375 674.551 45.9766 674.637 45.5234C674.723 45.0625 674.766 44.5625 674.766 44.0234ZM662.121 44.0234V43.7773C662.121 42.9961 662.184 42.2656 662.309 41.5859C662.441 40.8984 662.637 40.2812 662.895 39.7344C663.152 39.1797 663.469 38.707 663.844 38.3164C664.219 37.918 664.652 37.6133 665.145 37.4023C665.637 37.1914 666.188 37.0859 666.797 37.0859C667.477 37.0859 668.062 37.2188 668.555 37.4844C669.047 37.75 669.461 38.125 669.797 38.6094C670.133 39.0859 670.402 39.6484 670.605 40.2969C670.809 40.9375 670.965 41.6406 671.074 42.4062V45.1484C670.973 45.875 670.816 46.5508 670.605 47.1758C670.402 47.793 670.129 48.332 669.785 48.793C669.449 49.2539 669.035 49.6094 668.543 49.8594C668.051 50.1094 667.461 50.2344 666.773 50.2344C666.023 50.2344 665.359 50.082 664.781 49.7773C664.203 49.4727 663.715 49.043 663.316 48.4883C662.926 47.9336 662.629 47.2773 662.426 46.5195C662.223 45.7617 662.121 44.9297 662.121 44.0234ZM665.227 43.7773V44.0234C665.227 44.5625 665.266 45.0625 665.344 45.5234C665.43 45.9766 665.562 46.375 665.742 46.7188C665.93 47.0547 666.172 47.3203 666.469 47.5156C666.766 47.7031 667.129 47.7969 667.559 47.7969C668.098 47.7969 668.535 47.7109 668.871 47.5391C669.207 47.3594 669.461 47.1172 669.633 46.8125C669.812 46.5 669.918 46.1367 669.949 45.7227V41.832C669.926 41.3711 669.828 40.9688 669.656 40.625C669.484 40.2812 669.23 40.0117 668.895 39.8164C668.559 39.6211 668.121 39.5234 667.582 39.5234C667.152 39.5234 666.785 39.6367 666.48 39.8633C666.184 40.082 665.941 40.3867 665.754 40.7773C665.574 41.168 665.441 41.6211 665.355 42.1367C665.27 42.6523 665.227 43.1992 665.227 43.7773ZM668.402 54.875V32H671.52V54.875H668.402ZM683.262 39.7578V54.875H680.156V37.3203H683.027L683.262 39.7578ZM691.406 43.5312V43.7773C691.406 44.6992 691.297 45.5547 691.078 46.3438C690.867 47.125 690.555 47.8086 690.141 48.3945C689.727 48.9727 689.211 49.4258 688.594 49.7539C687.984 50.0742 687.281 50.2344 686.484 50.2344C685.703 50.2344 685.023 50.0859 684.445 49.7891C683.867 49.4844 683.379 49.0547 682.98 48.5C682.582 47.9453 682.262 47.3008 682.02 46.5664C681.785 45.8242 681.609 45.0156 681.492 44.1406V43.3555C681.609 42.4258 681.785 41.582 682.02 40.8242C682.262 40.0586 682.582 39.3984 682.98 38.8438C683.379 38.2812 683.863 37.8477 684.434 37.543C685.012 37.2383 685.688 37.0859 686.461 37.0859C687.266 37.0859 687.973 37.2383 688.582 37.543C689.199 37.8477 689.719 38.2852 690.141 38.8555C690.562 39.4258 690.879 40.1055 691.09 40.8945C691.301 41.6836 691.406 42.5625 691.406 43.5312ZM688.301 43.7773V43.5312C688.301 42.9688 688.25 42.4492 688.148 41.9727C688.047 41.4883 687.891 41.0664 687.68 40.707C687.469 40.3398 687.195 40.0547 686.859 39.8516C686.523 39.6484 686.117 39.5469 685.641 39.5469C685.164 39.5469 684.754 39.625 684.41 39.7812C684.066 39.9375 683.785 40.1602 683.566 40.4492C683.348 40.7383 683.176 41.082 683.051 41.4805C682.934 41.8711 682.855 42.3047 682.816 42.7812V44.7266C682.887 45.3047 683.023 45.8242 683.227 46.2852C683.43 46.7461 683.727 47.1133 684.117 47.3867C684.516 47.6602 685.031 47.7969 685.664 47.7969C686.141 47.7969 686.547 47.6914 686.883 47.4805C687.219 47.2695 687.492 46.9805 687.703 46.6133C687.914 46.2383 688.066 45.8086 688.16 45.3242C688.254 44.8398 688.301 44.3242 688.301 43.7773ZM693.117 43.7891V43.543C693.117 42.6133 693.25 41.7578 693.516 40.9766C693.781 40.1875 694.168 39.5039 694.676 38.9258C695.184 38.3477 695.805 37.8984 696.539 37.5781C697.273 37.25 698.109 37.0859 699.047 37.0859C700 37.0859 700.844 37.25 701.578 37.5781C702.32 37.8984 702.945 38.3477 703.453 38.9258C703.961 39.5039 704.348 40.1875 704.613 40.9766C704.879 41.7578 705.012 42.6133 705.012 43.543V43.7891C705.012 44.7109 704.879 45.5664 704.613 46.3555C704.348 47.1367 703.961 47.8203 703.453 48.4062C702.945 48.9844 702.324 49.4336 701.59 49.7539C700.855 50.0742 700.016 50.2344 699.07 50.2344C698.133 50.2344 697.293 50.0742 696.551 49.7539C695.809 49.4336 695.184 48.9844 694.676 48.4062C694.168 47.8203 693.781 47.1367 693.516 46.3555C693.25 45.5664 693.117 44.7109 693.117 43.7891ZM696.211 43.543V43.7891C696.211 44.3438 696.266 44.8633 696.375 45.3477C696.484 45.832 696.652 46.2578 696.879 46.625C697.105 46.9922 697.398 47.2812 697.758 47.4922C698.125 47.6953 698.562 47.7969 699.07 47.7969C699.57 47.7969 700 47.6953 700.359 47.4922C700.719 47.2812 701.012 46.9922 701.238 46.625C701.473 46.2578 701.645 45.832 701.754 45.3477C701.863 44.8633 701.918 44.3438 701.918 43.7891V43.543C701.918 42.9961 701.863 42.4844 701.754 42.0078C701.645 41.5234 701.473 41.0977 701.238 40.7305C701.012 40.3555 700.715 40.0625 700.348 39.8516C699.988 39.6328 699.555 39.5234 699.047 39.5234C698.547 39.5234 698.117 39.6328 697.758 39.8516C697.398 40.0625 697.105 40.3555 696.879 40.7305C696.652 41.0977 696.484 41.5234 696.375 42.0078C696.266 42.4844 696.211 42.9961 696.211 43.543ZM713.496 44.6328H709.477L709.453 42.5352H712.758C713.25 42.5352 713.652 42.4844 713.965 42.3828C714.277 42.2812 714.508 42.1289 714.656 41.9258C714.812 41.7227 714.891 41.4766 714.891 41.1875C714.891 40.9375 714.844 40.7227 714.75 40.543C714.656 40.3555 714.516 40.2031 714.328 40.0859C714.148 39.9688 713.918 39.8828 713.637 39.8281C713.363 39.7656 713.043 39.7344 712.676 39.7344H710.578V50H707.473V37.3203H712.676C713.496 37.3203 714.234 37.3945 714.891 37.543C715.547 37.6836 716.105 37.8984 716.566 38.1875C717.027 38.4766 717.379 38.8438 717.621 39.2891C717.871 39.7266 717.996 40.2422 717.996 40.8359C717.996 41.2266 717.91 41.5938 717.738 41.9375C717.566 42.2812 717.312 42.5859 716.977 42.8516C716.641 43.1172 716.227 43.3359 715.734 43.5078C715.242 43.6719 714.68 43.7734 714.047 43.8125L713.496 44.6328ZM713.496 50H708.645L709.793 47.5859H713.496C713.949 47.5859 714.324 47.5312 714.621 47.4219C714.918 47.3047 715.137 47.1367 715.277 46.918C715.426 46.6992 715.5 46.4336 715.5 46.1211C715.5 45.8164 715.43 45.5547 715.289 45.3359C715.156 45.1094 714.941 44.9375 714.645 44.8203C714.355 44.6953 713.973 44.6328 713.496 44.6328H710.297L710.32 42.5352H714.035L714.855 43.3672C715.699 43.4219 716.398 43.5938 716.953 43.8828C717.508 44.1641 717.922 44.5234 718.195 44.9609C718.469 45.3906 718.605 45.8633 718.605 46.3789C718.605 46.9805 718.492 47.5078 718.266 47.9609C718.039 48.4141 717.707 48.793 717.27 49.0977C716.832 49.3945 716.297 49.6211 715.664 49.7773C715.031 49.9258 714.309 50 713.496 50ZM723.059 41.2227H726.762C727.887 41.2227 728.844 41.4102 729.633 41.7852C730.43 42.1523 731.035 42.668 731.449 43.332C731.871 43.9883 732.082 44.75 732.082 45.6172C732.082 46.2422 731.961 46.8242 731.719 47.3633C731.484 47.8945 731.141 48.3594 730.688 48.7578C730.234 49.1484 729.676 49.4531 729.012 49.6719C728.355 49.8906 727.605 50 726.762 50H721.066V37.3203H724.172V47.5742H726.762C727.301 47.5742 727.73 47.4844 728.051 47.3047C728.379 47.1172 728.613 46.8789 728.754 46.5898C728.902 46.293 728.977 45.9766 728.977 45.6406C728.977 45.2969 728.902 44.9766 728.754 44.6797C728.613 44.375 728.379 44.1289 728.051 43.9414C727.73 43.7539 727.301 43.6602 726.762 43.6602H723.059V41.2227ZM737.285 37.3203V50H734.18V37.3203H737.285ZM742.875 37.3203L745.137 41.3516L747.434 37.3203H750.797L747.07 43.5312L750.949 50H747.586L745.16 45.7695L742.723 50H739.359L743.227 43.5312L739.523 37.3203H742.875ZM767.227 42.5234V44.9492H760.723V42.5234H767.227ZM761.695 37.3203V50H758.59V37.3203H761.695ZM769.395 37.3203V50H766.277V37.3203H769.395ZM771.656 43.7891V43.543C771.656 42.6133 771.789 41.7578 772.055 40.9766C772.32 40.1875 772.707 39.5039 773.215 38.9258C773.723 38.3477 774.344 37.8984 775.078 37.5781C775.812 37.25 776.648 37.0859 777.586 37.0859C778.539 37.0859 779.383 37.25 780.117 37.5781C780.859 37.8984 781.484 38.3477 781.992 38.9258C782.5 39.5039 782.887 40.1875 783.152 40.9766C783.418 41.7578 783.551 42.6133 783.551 43.543V43.7891C783.551 44.7109 783.418 45.5664 783.152 46.3555C782.887 47.1367 782.5 47.8203 781.992 48.4062C781.484 48.9844 780.863 49.4336 780.129 49.7539C779.395 50.0742 778.555 50.2344 777.609 50.2344C776.672 50.2344 775.832 50.0742 775.09 49.7539C774.348 49.4336 773.723 48.9844 773.215 48.4062C772.707 47.8203 772.32 47.1367 772.055 46.3555C771.789 45.5664 771.656 44.7109 771.656 43.7891ZM774.75 43.543V43.7891C774.75 44.3438 774.805 44.8633 774.914 45.3477C775.023 45.832 775.191 46.2578 775.418 46.625C775.645 46.9922 775.938 47.2812 776.297 47.4922C776.664 47.6953 777.102 47.7969 777.609 47.7969C778.109 47.7969 778.539 47.6953 778.898 47.4922C779.258 47.2812 779.551 46.9922 779.777 46.625C780.012 46.2578 780.184 45.832 780.293 45.3477C780.402 44.8633 780.457 44.3438 780.457 43.7891V43.543C780.457 42.9961 780.402 42.4844 780.293 42.0078C780.184 41.5234 780.012 41.0977 779.777 40.7305C779.551 40.3555 779.254 40.0625 778.887 39.8516C778.527 39.6328 778.094 39.5234 777.586 39.5234C777.086 39.5234 776.656 39.6328 776.297 39.8516C775.938 40.0625 775.645 40.3555 775.418 40.7305C775.191 41.0977 775.023 41.5234 774.914 42.0078C774.805 42.4844 774.75 42.9961 774.75 43.543ZM791.004 47.7969C791.441 47.7969 791.832 47.7109 792.176 47.5391C792.52 47.3672 792.793 47.125 792.996 46.8125C793.207 46.5 793.32 46.1367 793.336 45.7227H796.254C796.238 46.582 795.996 47.3516 795.527 48.0312C795.059 48.7109 794.434 49.25 793.652 49.6484C792.879 50.0391 792.012 50.2344 791.051 50.2344C790.074 50.2344 789.223 50.0703 788.496 49.7422C787.77 49.4141 787.164 48.957 786.68 48.3711C786.203 47.7852 785.844 47.1055 785.602 46.332C785.367 45.5586 785.25 44.7305 785.25 43.8477V43.4727C785.25 42.5898 785.367 41.7617 785.602 40.9883C785.844 40.2148 786.203 39.5352 786.68 38.9492C787.164 38.3633 787.77 37.9062 788.496 37.5781C789.223 37.25 790.07 37.0859 791.039 37.0859C792.062 37.0859 792.961 37.2852 793.734 37.6836C794.516 38.082 795.125 38.6445 795.562 39.3711C796.008 40.0977 796.238 40.9531 796.254 41.9375H793.336C793.32 41.4844 793.219 41.0781 793.031 40.7188C792.844 40.3594 792.578 40.0703 792.234 39.8516C791.891 39.6328 791.473 39.5234 790.98 39.5234C790.457 39.5234 790.02 39.6328 789.668 39.8516C789.324 40.0703 789.055 40.3711 788.859 40.7539C788.672 41.1289 788.539 41.5508 788.461 42.0195C788.391 42.4805 788.355 42.9648 788.355 43.4727V43.8477C788.355 44.3633 788.391 44.8555 788.461 45.3242C788.539 45.793 788.672 46.2148 788.859 46.5898C789.055 46.957 789.324 47.25 789.668 47.4688C790.02 47.6875 790.465 47.7969 791.004 47.7969ZM801.445 45.582L806.062 37.3203H809.168V50H806.062V41.7266L801.445 50H798.34V37.3203H801.445V45.582ZM818.133 37.3203V50H815.027V37.3203H818.133ZM822.258 37.3203V39.7344H810.973V37.3203H822.258ZM828.926 50.2344C827.965 50.2344 827.102 50.0781 826.336 49.7656C825.57 49.4531 824.918 49.0195 824.379 48.4648C823.848 47.9023 823.438 47.25 823.148 46.5078C822.867 45.7578 822.727 44.9531 822.727 44.0938V43.625C822.727 42.6484 822.867 41.7617 823.148 40.9648C823.43 40.1602 823.828 39.4688 824.344 38.8906C824.859 38.3125 825.477 37.8672 826.195 37.5547C826.914 37.2422 827.707 37.0859 828.574 37.0859C829.473 37.0859 830.266 37.2383 830.953 37.543C831.641 37.8398 832.215 38.2617 832.676 38.8086C833.137 39.3555 833.484 40.0117 833.719 40.7773C833.953 41.5352 834.07 42.375 834.07 43.2969V44.5977H824.133V42.4648H831.023V42.2305C831.008 41.7383 830.914 41.2891 830.742 40.8828C830.57 40.4688 830.305 40.1406 829.945 39.8984C829.586 39.6484 829.121 39.5234 828.551 39.5234C828.09 39.5234 827.688 39.625 827.344 39.8281C827.008 40.0234 826.727 40.3047 826.5 40.6719C826.281 41.0312 826.117 41.4609 826.008 41.9609C825.898 42.4609 825.844 43.0156 825.844 43.625V44.0938C825.844 44.625 825.914 45.1172 826.055 45.5703C826.203 46.0234 826.418 46.418 826.699 46.7539C826.988 47.082 827.332 47.3398 827.73 47.5273C828.137 47.707 828.598 47.7969 829.113 47.7969C829.762 47.7969 830.348 47.6719 830.871 47.4219C831.402 47.1641 831.863 46.7852 832.254 46.2852L833.812 47.9023C833.547 48.293 833.188 48.668 832.734 49.0273C832.289 49.3867 831.75 49.6797 831.117 49.9062C830.484 50.125 829.754 50.2344 828.926 50.2344ZM844.664 37.3203V39.7695H838.453V37.3203H844.664ZM846.996 37.3203V50H843.902V37.3203H846.996ZM837.68 37.3203H840.738L840.398 43.6484C840.344 44.5781 840.246 45.3945 840.105 46.0977C839.965 46.793 839.777 47.3906 839.543 47.8906C839.309 48.3828 839.023 48.7852 838.688 49.0977C838.352 49.4102 837.961 49.6406 837.516 49.7891C837.078 49.9297 836.586 50 836.039 50H835.09L835.055 47.5039L835.5 47.4688C835.773 47.4453 836.008 47.3711 836.203 47.2461C836.406 47.1211 836.578 46.9414 836.719 46.707C836.867 46.4727 836.988 46.1719 837.082 45.8047C837.184 45.4297 837.262 44.9922 837.316 44.4922C837.379 43.9844 837.422 43.3984 837.445 42.7344L837.68 37.3203ZM855.527 50.2344C854.566 50.2344 853.703 50.0781 852.938 49.7656C852.172 49.4531 851.52 49.0195 850.98 48.4648C850.449 47.9023 850.039 47.25 849.75 46.5078C849.469 45.7578 849.328 44.9531 849.328 44.0938V43.625C849.328 42.6484 849.469 41.7617 849.75 40.9648C850.031 40.1602 850.43 39.4688 850.945 38.8906C851.461 38.3125 852.078 37.8672 852.797 37.5547C853.516 37.2422 854.309 37.0859 855.176 37.0859C856.074 37.0859 856.867 37.2383 857.555 37.543C858.242 37.8398 858.816 38.2617 859.277 38.8086C859.738 39.3555 860.086 40.0117 860.32 40.7773C860.555 41.5352 860.672 42.375 860.672 43.2969V44.5977H850.734V42.4648H857.625V42.2305C857.609 41.7383 857.516 41.2891 857.344 40.8828C857.172 40.4688 856.906 40.1406 856.547 39.8984C856.188 39.6484 855.723 39.5234 855.152 39.5234C854.691 39.5234 854.289 39.625 853.945 39.8281C853.609 40.0234 853.328 40.3047 853.102 40.6719C852.883 41.0312 852.719 41.4609 852.609 41.9609C852.5 42.4609 852.445 43.0156 852.445 43.625V44.0938C852.445 44.625 852.516 45.1172 852.656 45.5703C852.805 46.0234 853.02 46.418 853.301 46.7539C853.59 47.082 853.934 47.3398 854.332 47.5273C854.738 47.707 855.199 47.7969 855.715 47.7969C856.363 47.7969 856.949 47.6719 857.473 47.4219C858.004 47.1641 858.465 46.7852 858.855 46.2852L860.414 47.9023C860.148 48.293 859.789 48.668 859.336 49.0273C858.891 49.3867 858.352 49.6797 857.719 49.9062C857.086 50.125 856.355 50.2344 855.527 50.2344ZM865.875 45.582L870.492 37.3203H873.598V50H870.492V41.7266L865.875 50H862.77V37.3203H865.875V45.582ZM869.918 32.3398H872.168C872.168 32.9961 872.008 33.5781 871.688 34.0859C871.367 34.5938 870.91 34.9922 870.316 35.2812C869.73 35.5625 869.035 35.7031 868.23 35.7031C867.02 35.7031 866.059 35.3906 865.348 34.7656C864.637 34.1406 864.281 33.332 864.281 32.3398H866.531C866.531 32.7539 866.66 33.125 866.918 33.4531C867.176 33.7812 867.613 33.9453 868.23 33.9453C868.848 33.9453 869.281 33.7812 869.531 33.4531C869.789 33.125 869.918 32.7539 869.918 32.3398Z" fill="black"/>
<path d="M34.5898 138.5H43.9498C46.9498 138.5 47.4998 136.5 47.6698 134.71C47.8298 133.07 49.9698 108.57 49.9698 108.57H40.6598C38.0098 108.57 37.0798 110.09 36.8598 112.57L34.5898 138.49" fill="#008C95"/>
<path d="M99.2695 131.48H96.0095L98.0095 108.57H85.2495C85.2495 108.57 83.0695 133.91 82.9395 135.17C82.9447 136.052 83.2972 136.896 83.9206 137.519C84.544 138.143 85.3879 138.495 86.2695 138.5H108.379C109.204 138.497 109.999 138.189 110.61 137.635C111.221 137.081 111.605 136.321 111.689 135.5C111.819 134.03 114.029 108.58 114.029 108.58H101.269L99.2695 131.48Z" fill="#008C95"/>
<path d="M8.49985 108.57C6.21985 108.57 4.97984 109.75 4.73984 112.57C4.61984 113.96 3.82984 122.96 3.73984 124.25C3.64984 125.54 4.11984 126.69 5.73984 126.69H19.5899L19.0998 132.32H15.7998L16.0299 129.72H3.23984C3.23984 129.72 2.87988 134.2 2.71988 135.72C2.55988 137.24 3.03983 138.51 5.03983 138.51H27.7199C31.3099 138.51 31.4899 135.87 31.7199 133.88C31.9499 131.89 32.6499 123.32 32.7199 122.22C32.7492 121.983 32.7251 121.743 32.6494 121.517C32.5737 121.29 32.4483 121.084 32.2824 120.912C32.1166 120.74 31.9144 120.608 31.6907 120.525C31.467 120.441 31.2276 120.409 30.9898 120.43H16.8199L17.3098 114.8H20.6098L20.3799 117.4H33.1898C33.1898 117.4 33.5998 112.4 33.7398 110.97C33.7998 110.671 33.7905 110.362 33.7126 110.067C33.6348 109.772 33.4904 109.499 33.2906 109.268C33.0908 109.037 32.8409 108.855 32.56 108.736C32.279 108.617 31.9745 108.564 31.6698 108.58H8.49985" fill="#008C95"/>
<path d="M64.3903 126.65H67.6503L67.1603 132.28H63.9003L64.3903 126.65ZM68.6903 114.791L68.2003 120.421H64.9403L65.4303 114.791H68.6903ZM53.1903 108.57L50.5703 138.5H76.1103C78.2603 138.5 79.4703 137.16 79.6703 134.85C79.7503 133.91 80.0403 130.74 80.2603 128.13C80.3358 127.69 80.2879 127.238 80.122 126.823C79.9561 126.408 79.6786 126.047 79.3203 125.78L76.3203 123.56L79.9603 121.18C80.3261 120.935 80.6217 120.598 80.8181 120.204C81.0145 119.809 81.1048 119.37 81.0803 118.93C81.2903 116.33 81.5603 113.35 81.6303 112.52C81.7229 112.005 81.6955 111.475 81.5502 110.972C81.405 110.469 81.1459 110.006 80.7929 109.619C80.4399 109.232 80.0026 108.932 79.5149 108.742C79.0271 108.551 78.502 108.475 77.9803 108.52L53.1903 108.57Z" fill="#008C95"/>
<path d="M128.79 123.02L129.44 115.59H132.68L132.03 123.02H128.79ZM142.51 108.57H117.29L114.67 138.5H127.44L128.25 129.24H131.49L130.68 138.5H143.44C143.44 138.5 144 131.92 144.1 130.95C144.192 130.455 144.147 129.944 143.971 129.472C143.795 129 143.494 128.584 143.1 128.27L140.19 126.14C140.19 126.14 142.78 124.47 143.6 123.91C144.42 123.35 144.84 122.76 144.99 121.06C145.14 119.36 145.67 113.29 145.76 112.15C145.788 111.702 145.727 111.253 145.579 110.83C145.431 110.406 145.199 110.017 144.898 109.684C144.597 109.351 144.232 109.082 143.826 108.892C143.419 108.703 142.978 108.597 142.53 108.58" fill="#008C95"/>
<path d="M2.23047 158.859H144.82" stroke="#008C95" stroke-width="0.94"/>
<path d="M2.46094 158.861V147.551" stroke="#008C95" stroke-width="0.94"/>
<path d="M144.58 158.861V147.551" stroke="#008C95" stroke-width="0.94"/>
<path d="M207.82 158.859H365.51" stroke="#008C95" stroke-width="0.94"/>
<path d="M208.031 158.861V147.551" stroke="#008C95" stroke-width="0.94"/>
<path d="M365.301 158.861V147.551" stroke="#008C95" stroke-width="0.94"/>
<path d="M56.7077 169.96V180.74H55.3455V171.661L52.599 172.663V171.433L56.4941 169.96H56.7077ZM62.4363 175.637L61.3465 175.358L61.8841 170.019H67.3844V171.278H63.0401L62.7161 174.194C62.9125 174.081 63.1604 173.976 63.4598 173.878C63.7642 173.779 64.1127 173.73 64.5054 173.73C65.0012 173.73 65.4454 173.816 65.8381 173.988C66.2309 174.155 66.5647 174.396 66.8396 174.71C67.1194 175.024 67.3329 175.402 67.4802 175.844C67.6274 176.285 67.7011 176.779 67.7011 177.324C67.7011 177.839 67.6299 178.313 67.4875 178.745C67.3501 179.177 67.1414 179.555 66.8616 179.879C66.5818 180.198 66.2284 180.446 65.8013 180.622C65.3792 180.799 64.8809 180.887 64.3066 180.887C63.8746 180.887 63.4647 180.829 63.0769 180.711C62.694 180.588 62.3504 180.404 62.0461 180.159C61.7466 179.908 61.5012 179.599 61.3097 179.231C61.1232 178.858 61.0054 178.421 60.9563 177.92H62.2522C62.3111 178.323 62.4289 178.661 62.6057 178.936C62.7824 179.211 63.0131 179.42 63.2978 179.562C63.5874 179.7 63.9237 179.768 64.3066 179.768C64.6306 179.768 64.9177 179.712 65.1681 179.599C65.4184 179.486 65.6295 179.324 65.8013 179.113C65.9731 178.902 66.1032 178.647 66.1916 178.347C66.2849 178.048 66.3315 177.711 66.3315 177.338C66.3315 177 66.2849 176.686 66.1916 176.396C66.0983 176.106 65.9584 175.853 65.7719 175.637C65.5902 175.421 65.3669 175.255 65.1018 175.137C64.8367 175.014 64.5324 174.953 64.1888 174.953C63.7322 174.953 63.3862 175.014 63.1505 175.137C62.9198 175.259 62.6818 175.426 62.4363 175.637ZM77.6636 178.929L80.3733 172.773H81.6839L78.1348 180.74H77.1923L73.6579 172.773H74.9686L77.6636 178.929ZM74.571 172.773V180.74H73.2088V172.773H74.571ZM80.712 180.74V172.773H82.0815V180.74H80.712ZM88.8558 178.929L91.5654 172.773H92.8761L89.327 180.74H88.3845L84.8501 172.773H86.1608L88.8558 178.929ZM85.7632 172.773V180.74H84.401V172.773H85.7632ZM91.9042 180.74V172.773H93.2737V180.74H91.9042Z" fill="#008C95"/>
<path d="M269.848 169.96V180.74H268.486V171.661L265.74 172.663V171.433L269.635 169.96H269.848ZM275.577 175.637L274.487 175.358L275.025 170.019H280.525V171.278H276.181L275.857 174.194C276.053 174.081 276.301 173.976 276.6 173.878C276.905 173.779 277.253 173.73 277.646 173.73C278.142 173.73 278.586 173.816 278.979 173.988C279.371 174.155 279.705 174.396 279.98 174.71C280.26 175.024 280.474 175.402 280.621 175.844C280.768 176.285 280.842 176.779 280.842 177.324C280.842 177.839 280.771 178.313 280.628 178.745C280.491 179.177 280.282 179.555 280.002 179.879C279.722 180.198 279.369 180.446 278.942 180.622C278.52 180.799 278.022 180.887 277.447 180.887C277.015 180.887 276.605 180.829 276.218 180.711C275.835 180.588 275.491 180.404 275.187 180.159C274.887 179.908 274.642 179.599 274.45 179.231C274.264 178.858 274.146 178.421 274.097 177.92H275.393C275.452 178.323 275.57 178.661 275.746 178.936C275.923 179.211 276.154 179.42 276.438 179.562C276.728 179.7 277.064 179.768 277.447 179.768C277.771 179.768 278.058 179.712 278.309 179.599C278.559 179.486 278.77 179.324 278.942 179.113C279.114 178.902 279.244 178.647 279.332 178.347C279.425 178.048 279.472 177.711 279.472 177.338C279.472 177 279.425 176.686 279.332 176.396C279.239 176.106 279.099 175.853 278.913 175.637C278.731 175.421 278.508 175.255 278.242 175.137C277.977 175.014 277.673 174.953 277.329 174.953C276.873 174.953 276.527 175.014 276.291 175.137C276.06 175.259 275.822 175.426 275.577 175.637ZM290.804 178.929L293.514 172.773H294.825L291.275 180.74H290.333L286.799 172.773H288.109L290.804 178.929ZM287.712 172.773V180.74H286.349V172.773H287.712ZM293.853 180.74V172.773H295.222V180.74H293.853ZM301.996 178.929L304.706 172.773H306.017L302.468 180.74H301.525L297.991 172.773H299.301L301.996 178.929ZM298.904 172.773V180.74H297.542V172.773H298.904ZM305.045 180.74V172.773H306.414V180.74H305.045Z" fill="#008C95"/>
<path d="M627.368 170.22V181H626.006V171.921L623.259 172.922V171.693L627.154 170.22H627.368ZM633.096 175.897L632.007 175.617L632.544 170.279H638.045V171.538H633.7L633.376 174.454C633.573 174.341 633.821 174.236 634.12 174.137C634.424 174.039 634.773 173.99 635.166 173.99C635.661 173.99 636.106 174.076 636.498 174.248C636.891 174.415 637.225 174.655 637.5 174.969C637.78 175.284 637.993 175.662 638.14 176.103C638.288 176.545 638.361 177.039 638.361 177.583C638.361 178.099 638.29 178.573 638.148 179.005C638.01 179.437 637.802 179.815 637.522 180.138C637.242 180.458 636.889 180.705 636.461 180.882C636.039 181.059 635.541 181.147 634.967 181.147C634.535 181.147 634.125 181.088 633.737 180.971C633.354 180.848 633.011 180.664 632.706 180.418C632.407 180.168 632.161 179.859 631.97 179.491C631.783 179.117 631.666 178.681 631.616 178.18H632.912C632.971 178.582 633.089 178.921 633.266 179.196C633.443 179.471 633.673 179.68 633.958 179.822C634.248 179.959 634.584 180.028 634.967 180.028C635.291 180.028 635.578 179.972 635.828 179.859C636.079 179.746 636.29 179.584 636.461 179.373C636.633 179.162 636.763 178.906 636.852 178.607C636.945 178.307 636.992 177.971 636.992 177.598C636.992 177.259 636.945 176.945 636.852 176.656C636.758 176.366 636.619 176.113 636.432 175.897C636.25 175.681 636.027 175.514 635.762 175.397C635.497 175.274 635.193 175.212 634.849 175.212C634.392 175.212 634.046 175.274 633.811 175.397C633.58 175.519 633.342 175.686 633.096 175.897ZM646.586 174.785V176.42C646.586 177.299 646.507 178.04 646.35 178.644C646.193 179.248 645.967 179.734 645.673 180.102C645.378 180.47 645.023 180.737 644.605 180.904C644.193 181.066 643.727 181.147 643.206 181.147C642.794 181.147 642.413 181.096 642.065 180.993C641.716 180.89 641.402 180.725 641.122 180.499C640.848 180.269 640.612 179.969 640.416 179.601C640.219 179.233 640.069 178.786 639.966 178.261C639.863 177.736 639.812 177.122 639.812 176.42V174.785C639.812 173.907 639.89 173.17 640.047 172.576C640.209 171.982 640.438 171.506 640.732 171.148C641.027 170.785 641.38 170.525 641.793 170.367C642.21 170.21 642.676 170.132 643.192 170.132C643.609 170.132 643.992 170.183 644.34 170.286C644.694 170.385 645.008 170.544 645.283 170.765C645.558 170.981 645.791 171.271 645.982 171.634C646.179 171.992 646.328 172.432 646.431 172.952C646.534 173.472 646.586 174.083 646.586 174.785ZM645.216 176.641V174.557C645.216 174.076 645.187 173.654 645.128 173.291C645.074 172.922 644.993 172.608 644.885 172.348C644.777 172.088 644.64 171.877 644.473 171.715C644.311 171.553 644.122 171.435 643.906 171.361C643.695 171.283 643.457 171.244 643.192 171.244C642.868 171.244 642.58 171.305 642.33 171.428C642.08 171.546 641.869 171.735 641.697 171.995C641.53 172.255 641.402 172.596 641.314 173.018C641.226 173.44 641.181 173.953 641.181 174.557V176.641C641.181 177.122 641.208 177.547 641.262 177.915C641.321 178.283 641.407 178.602 641.52 178.872C641.633 179.137 641.77 179.356 641.932 179.527C642.094 179.699 642.281 179.827 642.492 179.91C642.708 179.989 642.946 180.028 643.206 180.028C643.54 180.028 643.832 179.964 644.082 179.837C644.333 179.709 644.541 179.51 644.708 179.24C644.88 178.965 645.008 178.614 645.091 178.187C645.175 177.755 645.216 177.24 645.216 176.641ZM657.535 173.033V174.16H653.507V173.033H657.535ZM653.706 173.033V181H652.344V173.033H653.706ZM658.743 173.033V181H657.373V173.033H658.743ZM662.402 178.843L666.077 173.033H667.446V181H666.077V175.19L662.402 181H661.047V173.033H662.402V178.843ZM671.113 173.033V181H669.751V173.033H671.113ZM676.341 173.033L672.564 177.598H670.657L670.45 176.405H672.011L674.684 173.033H676.341ZM674.876 181L671.945 177.392L672.821 176.405L676.606 181H674.876ZM680.862 180.028C681.186 180.028 681.485 179.962 681.76 179.829C682.035 179.697 682.261 179.515 682.438 179.284C682.615 179.049 682.715 178.781 682.74 178.482H684.036C684.011 178.953 683.852 179.392 683.557 179.8C683.267 180.202 682.887 180.529 682.416 180.779C681.944 181.025 681.427 181.147 680.862 181.147C680.263 181.147 679.74 181.042 679.294 180.831C678.852 180.62 678.484 180.33 678.189 179.962C677.9 179.594 677.681 179.171 677.534 178.695C677.392 178.214 677.32 177.706 677.32 177.171V176.862C677.32 176.327 677.392 175.821 677.534 175.345C677.681 174.864 677.9 174.439 678.189 174.071C678.484 173.703 678.852 173.413 679.294 173.202C679.74 172.991 680.263 172.886 680.862 172.886C681.485 172.886 682.03 173.013 682.497 173.269C682.963 173.519 683.329 173.863 683.594 174.299C683.864 174.731 684.011 175.222 684.036 175.772H682.74C682.715 175.443 682.622 175.146 682.46 174.881C682.303 174.616 682.087 174.405 681.812 174.248C681.542 174.086 681.225 174.005 680.862 174.005C680.445 174.005 680.094 174.088 679.809 174.255C679.529 174.417 679.306 174.638 679.139 174.918C678.977 175.193 678.859 175.5 678.786 175.838C678.717 176.172 678.683 176.513 678.683 176.862V177.171C678.683 177.52 678.717 177.863 678.786 178.202C678.854 178.541 678.97 178.847 679.132 179.122C679.299 179.397 679.522 179.618 679.802 179.785C680.086 179.947 680.44 180.028 680.862 180.028ZM685.589 180.278C685.589 180.048 685.66 179.854 685.803 179.697C685.95 179.535 686.161 179.454 686.436 179.454C686.711 179.454 686.92 179.535 687.062 179.697C687.209 179.854 687.283 180.048 687.283 180.278C687.283 180.504 687.209 180.696 687.062 180.853C686.92 181.01 686.711 181.088 686.436 181.088C686.161 181.088 685.95 181.01 685.803 180.853C685.66 180.696 685.589 180.504 685.589 180.278Z" fill="#008C95"/>
<path d="M840.368 170.22V181H839.006V171.921L836.259 172.922V171.693L840.154 170.22H840.368ZM846.096 175.897L845.007 175.617L845.544 170.279H851.045V171.538H846.7L846.376 174.454C846.573 174.341 846.821 174.236 847.12 174.137C847.424 174.039 847.773 173.99 848.166 173.99C848.661 173.99 849.106 174.076 849.498 174.248C849.891 174.415 850.225 174.655 850.5 174.969C850.78 175.284 850.993 175.662 851.14 176.103C851.288 176.545 851.361 177.039 851.361 177.583C851.361 178.099 851.29 178.573 851.148 179.005C851.01 179.437 850.802 179.815 850.522 180.138C850.242 180.458 849.889 180.705 849.461 180.882C849.039 181.059 848.541 181.147 847.967 181.147C847.535 181.147 847.125 181.088 846.737 180.971C846.354 180.848 846.011 180.664 845.706 180.418C845.407 180.168 845.161 179.859 844.97 179.491C844.783 179.117 844.666 178.681 844.616 178.18H845.912C845.971 178.582 846.089 178.921 846.266 179.196C846.443 179.471 846.673 179.68 846.958 179.822C847.248 179.959 847.584 180.028 847.967 180.028C848.291 180.028 848.578 179.972 848.828 179.859C849.079 179.746 849.29 179.584 849.461 179.373C849.633 179.162 849.763 178.906 849.852 178.607C849.945 178.307 849.992 177.971 849.992 177.598C849.992 177.259 849.945 176.945 849.852 176.656C849.758 176.366 849.619 176.113 849.432 175.897C849.25 175.681 849.027 175.514 848.762 175.397C848.497 175.274 848.193 175.212 847.849 175.212C847.392 175.212 847.046 175.274 846.811 175.397C846.58 175.519 846.342 175.686 846.096 175.897ZM859.586 174.785V176.42C859.586 177.299 859.507 178.04 859.35 178.644C859.193 179.248 858.967 179.734 858.673 180.102C858.378 180.47 858.023 180.737 857.605 180.904C857.193 181.066 856.727 181.147 856.206 181.147C855.794 181.147 855.413 181.096 855.065 180.993C854.716 180.89 854.402 180.725 854.122 180.499C853.848 180.269 853.612 179.969 853.416 179.601C853.219 179.233 853.069 178.786 852.966 178.261C852.863 177.736 852.812 177.122 852.812 176.42V174.785C852.812 173.907 852.89 173.17 853.047 172.576C853.209 171.982 853.438 171.506 853.732 171.148C854.027 170.785 854.38 170.525 854.793 170.367C855.21 170.21 855.676 170.132 856.192 170.132C856.609 170.132 856.992 170.183 857.34 170.286C857.694 170.385 858.008 170.544 858.283 170.765C858.558 170.981 858.791 171.271 858.982 171.634C859.179 171.992 859.328 172.432 859.431 172.952C859.534 173.472 859.586 174.083 859.586 174.785ZM858.216 176.641V174.557C858.216 174.076 858.187 173.654 858.128 173.291C858.074 172.922 857.993 172.608 857.885 172.348C857.777 172.088 857.64 171.877 857.473 171.715C857.311 171.553 857.122 171.435 856.906 171.361C856.695 171.283 856.457 171.244 856.192 171.244C855.868 171.244 855.58 171.305 855.33 171.428C855.08 171.546 854.869 171.735 854.697 171.995C854.53 172.255 854.402 172.596 854.314 173.018C854.226 173.44 854.181 173.953 854.181 174.557V176.641C854.181 177.122 854.208 177.547 854.262 177.915C854.321 178.283 854.407 178.602 854.52 178.872C854.633 179.137 854.77 179.356 854.932 179.527C855.094 179.699 855.281 179.827 855.492 179.91C855.708 179.989 855.946 180.028 856.206 180.028C856.54 180.028 856.832 179.964 857.082 179.837C857.333 179.709 857.541 179.51 857.708 179.24C857.88 178.965 858.008 178.614 858.091 178.187C858.175 177.755 858.216 177.24 858.216 176.641ZM870.535 173.033V174.16H866.507V173.033H870.535ZM866.706 173.033V181H865.344V173.033H866.706ZM871.743 173.033V181H870.373V173.033H871.743ZM875.402 178.843L879.077 173.033H880.446V181H879.077V175.19L875.402 181H874.047V173.033H875.402V178.843ZM884.113 173.033V181H882.751V173.033H884.113ZM889.341 173.033L885.564 177.598H883.657L883.45 176.405H885.011L887.684 173.033H889.341ZM887.876 181L884.945 177.392L885.821 176.405L889.606 181H887.876ZM893.862 180.028C894.186 180.028 894.485 179.962 894.76 179.829C895.035 179.697 895.261 179.515 895.438 179.284C895.615 179.049 895.715 178.781 895.74 178.482H897.036C897.011 178.953 896.852 179.392 896.557 179.8C896.267 180.202 895.887 180.529 895.416 180.779C894.944 181.025 894.427 181.147 893.862 181.147C893.263 181.147 892.74 181.042 892.294 180.831C891.852 180.62 891.484 180.33 891.189 179.962C890.9 179.594 890.681 179.171 890.534 178.695C890.392 178.214 890.32 177.706 890.32 177.171V176.862C890.32 176.327 890.392 175.821 890.534 175.345C890.681 174.864 890.9 174.439 891.189 174.071C891.484 173.703 891.852 173.413 892.294 173.202C892.74 172.991 893.263 172.886 893.862 172.886C894.485 172.886 895.03 173.013 895.497 173.269C895.963 173.519 896.329 173.863 896.594 174.299C896.864 174.731 897.011 175.222 897.036 175.772H895.74C895.715 175.443 895.622 175.146 895.46 174.881C895.303 174.616 895.087 174.405 894.812 174.248C894.542 174.086 894.225 174.005 893.862 174.005C893.445 174.005 893.094 174.088 892.809 174.255C892.529 174.417 892.306 174.638 892.139 174.918C891.977 175.193 891.859 175.5 891.786 175.838C891.717 176.172 891.683 176.513 891.683 176.862V177.171C891.683 177.52 891.717 177.863 891.786 178.202C891.854 178.541 891.97 178.847 892.132 179.122C892.299 179.397 892.522 179.618 892.802 179.785C893.086 179.947 893.44 180.028 893.862 180.028ZM898.589 180.278C898.589 180.048 898.66 179.854 898.803 179.697C898.95 179.535 899.161 179.454 899.436 179.454C899.711 179.454 899.92 179.535 900.062 179.697C900.209 179.854 900.283 180.048 900.283 180.278C900.283 180.504 900.209 180.696 900.062 180.853C899.92 181.01 899.711 181.088 899.436 181.088C899.161 181.088 898.95 181.01 898.803 180.853C898.66 180.696 898.589 180.504 898.589 180.278Z" fill="#008C95"/>
<path d="M238.19 121.54C238.19 121.54 238.93 113.12 239 112.3C239.023 111.822 238.949 111.344 238.783 110.895C238.617 110.446 238.362 110.035 238.033 109.687C237.705 109.339 237.309 109.06 236.87 108.868C236.432 108.677 235.959 108.575 235.48 108.57H214.28C213.298 108.496 212.327 108.812 211.577 109.451C210.828 110.09 210.362 110.999 210.28 111.98C210.18 112.98 208.43 133.31 208.28 134.48C208.22 134.976 208.264 135.48 208.411 135.958C208.557 136.435 208.802 136.877 209.13 137.254C209.459 137.631 209.862 137.935 210.315 138.146C210.768 138.358 211.26 138.471 211.76 138.48H232.87C235.68 138.48 236.77 137 237 134.71C237.15 133.34 237.84 125.06 237.84 125.06H225.19L224.64 131.46H221.41L222.8 115.57H226.03L225.51 121.52L238.19 121.54Z" fill="#008C95"/>
<path d="M257.92 111.14C257.47 112.45 253.75 124.07 253.75 124.07L255.401 108.57H242.651L239.98 138.5H249.591C250.39 138.575 251.189 138.369 251.854 137.918C252.518 137.468 253.004 136.8 253.23 136.03C253.71 134.72 257.23 124.94 257.23 124.94L255.93 138.5H268.701L271.331 108.57H261.331C260.559 108.566 259.807 108.815 259.191 109.279C258.575 109.744 258.129 110.398 257.92 111.14Z" fill="#008C95"/>
<path d="M322.569 108.57L321.379 122.22H318.189L319.389 108.57H306.569C306.569 108.57 305.349 123.02 305.219 124.42C305.152 124.929 305.196 125.446 305.349 125.936C305.502 126.426 305.759 126.877 306.104 127.257C306.448 127.638 306.871 127.939 307.343 128.14C307.816 128.341 308.326 128.436 308.839 128.42H320.839L320.579 131.42H304.579L303.969 138.42H329.359C330.304 138.431 331.215 138.066 331.891 137.406C332.568 136.747 332.956 135.845 332.969 134.9C333.119 133.36 335.309 108.49 335.309 108.49L322.569 108.57Z" fill="#008C95"/>
<path d="M350.04 123.02L350.69 115.59H353.89L353.24 123.02H350.04ZM355.88 108.57H338.55L335.93 138.5H348.69L349.5 129.24H361.9C364.09 129.24 365.55 128.12 365.78 125.55C365.88 124.55 366.88 113.21 366.95 112.21C367.1 110 365.34 108.57 363.16 108.57H355.88Z" fill="#008C95"/>
<path d="M288.54 132.27H285.29L285.94 124.85H289.19L288.54 132.27ZM286.48 118.62L286.75 115.62H302.75L303.37 108.62H274.6L271.98 138.55H297.451C297.915 138.563 298.378 138.484 298.811 138.317C299.245 138.149 299.641 137.897 299.976 137.575C300.311 137.253 300.579 136.867 300.763 136.441C300.948 136.014 301.045 135.555 301.05 135.09C301.22 133.21 302.051 124.31 302.151 122.7C302.215 122.171 302.161 121.633 301.991 121.128C301.821 120.622 301.541 120.16 301.17 119.777C300.799 119.393 300.347 119.098 299.847 118.911C299.347 118.725 298.812 118.653 298.281 118.7L286.48 118.62Z" fill="#008C95"/>
<path d="M616.99 138.5H626.35C629.35 138.5 629.9 136.5 630.07 134.71C630.23 133.07 632.37 108.57 632.37 108.57H623.06C620.41 108.57 619.48 110.09 619.26 112.57L616.99 138.49" fill="#008C95"/>
<path d="M681.67 131.48H678.41L680.41 108.57H667.65C667.65 108.57 665.47 133.91 665.34 135.17C665.345 136.052 665.698 136.896 666.321 137.519C666.944 138.143 667.788 138.495 668.67 138.5H690.78C691.605 138.497 692.399 138.189 693.01 137.635C693.621 137.081 694.006 136.321 694.09 135.5C694.22 134.03 696.43 108.58 696.43 108.58H683.67L681.67 131.48Z" fill="#008C95"/>
<path d="M590.9 108.57C588.62 108.57 587.38 109.75 587.14 112.57C587.02 113.96 586.23 122.96 586.14 124.25C586.05 125.54 586.52 126.69 588.14 126.69H601.99L601.5 132.32H598.19L598.42 129.72H585.65C585.65 129.72 585.29 134.2 585.13 135.72C584.97 137.24 585.45 138.51 587.45 138.51H610.13C613.72 138.51 613.9 135.87 614.13 133.88C614.36 131.89 615.06 123.32 615.13 122.22C615.159 121.983 615.135 121.743 615.06 121.517C614.984 121.29 614.859 121.084 614.693 120.912C614.527 120.74 614.325 120.608 614.101 120.525C613.877 120.441 613.638 120.409 613.4 120.43H599.19L599.68 114.8H602.98L602.75 117.4H615.51C615.51 117.4 615.92 112.4 616.06 110.97C616.12 110.671 616.111 110.362 616.033 110.067C615.955 109.772 615.811 109.499 615.611 109.268C615.411 109.037 615.161 108.855 614.88 108.736C614.599 108.617 614.295 108.564 613.99 108.58H590.87" fill="#008C95"/>
<path d="M646.79 126.65H650.05L649.56 132.28H646.3L646.79 126.65ZM651.09 114.791L650.6 120.421H647.34L647.83 114.791H651.09ZM635.61 108.57L632.99 138.5H658.53C660.68 138.5 661.89 137.16 662.09 134.85C662.17 133.91 662.46 130.74 662.68 128.13C662.756 127.69 662.708 127.238 662.542 126.823C662.376 126.408 662.099 126.047 661.74 125.78L658.74 123.56L662.38 121.18C662.746 120.935 663.042 120.598 663.238 120.204C663.434 119.809 663.525 119.37 663.5 118.93C663.71 116.33 663.98 113.35 664.05 112.52C664.143 112.005 664.115 111.475 663.97 110.972C663.825 110.469 663.566 110.006 663.213 109.619C662.86 109.232 662.422 108.932 661.935 108.742C661.447 108.551 660.922 108.475 660.4 108.52L635.61 108.57Z" fill="#008C95"/>
<path d="M711.19 123.02L711.84 115.59H715.08L714.43 123.02H711.19ZM724.91 108.57H699.69L697.07 138.5H709.84L710.65 129.24H713.89L713.08 138.5H725.84C725.84 138.5 726.4 131.92 726.5 130.95C726.592 130.455 726.548 129.944 726.371 129.472C726.195 129 725.894 128.584 725.5 128.27L722.59 126.13C722.59 126.13 725.18 124.46 726 123.9C726.82 123.34 727.24 122.75 727.39 121.05C727.54 119.35 728.07 113.28 728.16 112.14C728.189 111.692 728.127 111.244 727.979 110.82C727.831 110.396 727.6 110.007 727.299 109.674C726.998 109.341 726.633 109.072 726.226 108.882C725.819 108.693 725.379 108.587 724.93 108.57" fill="#008C95"/>
<path d="M584.629 158.85H727.219" stroke="#008C95" stroke-width="0.94"/>
<path d="M584.859 158.851V147.551" stroke="#008C95" stroke-width="0.94"/>
<path d="M726.98 158.851V147.551" stroke="#008C95" stroke-width="0.94"/>
<path d="M790.221 158.85H947.911" stroke="#008C95" stroke-width="0.94"/>
<path d="M790.43 158.851V147.551" stroke="#008C95" stroke-width="0.94"/>
<path d="M947.699 158.851V147.551" stroke="#008C95" stroke-width="0.94"/>
<path d="M820.63 121.54C820.63 121.54 821.37 113.12 821.44 112.3C821.463 111.822 821.389 111.344 821.223 110.895C821.057 110.446 820.802 110.035 820.474 109.687C820.145 109.339 819.749 109.06 819.311 108.868C818.872 108.677 818.399 108.575 817.92 108.57H796.68C795.699 108.496 794.727 108.812 793.978 109.451C793.228 110.09 792.762 110.999 792.68 111.98C792.58 112.98 790.83 133.31 790.68 134.48C790.62 134.976 790.665 135.48 790.811 135.958C790.958 136.435 791.203 136.877 791.531 137.254C791.859 137.631 792.263 137.935 792.716 138.146C793.168 138.358 793.661 138.471 794.16 138.48H815.27C818.08 138.48 819.17 137 819.4 134.71C819.55 133.34 820.24 125.06 820.24 125.06H807.48L806.93 131.46H803.7L805.09 115.57H808.32L807.8 121.52L820.63 121.54Z" fill="#008C95"/>
<path d="M840.319 111.14C839.869 112.45 836.149 124.07 836.149 124.07L837.799 108.57H825.049L822.379 138.5H831.989C832.788 138.575 833.588 138.369 834.252 137.918C834.916 137.468 835.403 136.8 835.629 136.03C836.109 134.72 839.629 124.94 839.629 124.94L838.329 138.5H851.099L853.729 108.57H843.729C842.958 108.566 842.206 108.815 841.59 109.279C840.974 109.744 840.527 110.398 840.319 111.14Z" fill="#008C95"/>
<path d="M904.971 108.57L903.781 122.22H900.541L901.741 108.57H888.971C888.971 108.57 887.751 123.02 887.621 124.42C887.554 124.929 887.599 125.446 887.751 125.936C887.904 126.426 888.162 126.877 888.506 127.257C888.85 127.638 889.273 127.939 889.746 128.14C890.218 128.341 890.728 128.436 891.241 128.42H903.241L902.981 131.42H886.981L886.371 138.42H911.761C912.706 138.431 913.617 138.066 914.294 137.406C914.97 136.747 915.358 135.845 915.371 134.9C915.521 133.36 917.711 108.49 917.711 108.49L904.971 108.57Z" fill="#008C95"/>
<path d="M932.44 123.02L933.09 115.59H936.29L935.64 123.02H932.44ZM938.28 108.57H920.95L918.33 138.5H931.09L931.9 129.24H944.3C946.49 129.24 947.95 128.12 948.18 125.55C948.28 124.55 949.28 113.21 949.35 112.21C949.5 110 947.74 108.57 945.56 108.57H938.28Z" fill="#008C95"/>
<path d="M870.94 132.27H867.69L868.34 124.85H871.59L870.94 132.27ZM868.88 118.62L869.15 115.62H885.15L885.77 108.62H857.02L854.4 138.55H879.87C880.335 138.563 880.798 138.484 881.231 138.317C881.665 138.149 882.061 137.897 882.396 137.575C882.731 137.253 882.999 136.867 883.183 136.441C883.368 136.014 883.465 135.555 883.47 135.09C883.64 133.21 884.47 124.31 884.57 122.7C884.635 122.171 884.581 121.633 884.411 121.128C884.241 120.622 883.961 120.16 883.59 119.777C883.219 119.393 882.767 119.098 882.267 118.911C881.767 118.725 881.232 118.653 880.7 118.7L868.88 118.62Z" fill="#008C95"/>
</svg>
