<svg width="1613" height="716" viewBox="0 0 1613 716" fill="none" xmlns="http://www.w3.org/2000/svg">
<path d="M1068.84 190.206L1139.56 119.488M600.403 108.666L682.247 190.239L600.403 108.666ZM1070.77 511.325L1139.73 580.283L1070.77 511.325ZM595.364 596.314L676.87 514.774L595.364 596.314Z" stroke="#8ED1C0" stroke-width="7.30508" stroke-miterlimit="10"/>
<path d="M1051.73 207.353L1088.42 190.207L1068.84 170.625L1051.73 207.353Z" fill="#8ED1C0"/>
<path d="M1156.67 102.377L1119.97 119.49L1139.56 139.105L1156.67 102.377Z" fill="#8ED1C0"/>
<path d="M578.217 613.429L614.945 596.316L595.363 576.734L578.217 613.429Z" fill="#8ED1C0"/>
<path d="M693.981 497.693L657.286 514.806L676.868 534.388L693.981 497.693Z" fill="#8ED1C0"/>
<path d="M1053.66 494.213L1070.77 530.941L1090.35 511.36L1053.66 494.213Z" fill="#8ED1C0"/>
<path d="M1156.84 597.398L1139.69 560.703L1120.11 580.285L1156.84 597.398Z" fill="#8ED1C0"/>
<path d="M583.256 91.584L600.436 128.245L619.984 108.629L583.256 91.584Z" fill="#8ED1C0"/>
<path d="M699.392 207.353L682.212 170.658L662.63 190.274L699.392 207.353Z" fill="#8ED1C0"/>
<path d="M1082.29 356.146C1082.29 470.559 989.559 563.293 875.146 563.293C760.734 563.293 668 470.559 668 356.146C668 241.734 760.734 149 875.146 149C989.559 149 1082.29 241.734 1082.29 356.146Z" fill="white"/>
<path d="M1082.29 356.146C1082.29 470.559 989.559 563.293 875.146 563.293C760.734 563.293 668 470.559 668 356.146C668 241.734 760.734 149 875.146 149C989.559 149 1082.29 241.734 1082.29 356.146Z" stroke="#8ED1C0" stroke-width="7.30508" stroke-miterlimit="10"/>
<path d="M196.378 628.562V653.158H193.399V631.204H181.005V653.158H178.026V628.562H196.378ZM202.001 660.076V634.711H204.739V637.641H205.076C205.284 637.321 205.572 636.913 205.94 636.416C206.317 635.912 206.853 635.464 207.55 635.071C208.254 634.671 209.207 634.471 210.408 634.471C211.961 634.471 213.331 634.859 214.515 635.636C215.7 636.412 216.625 637.513 217.29 638.939C217.954 640.364 218.287 642.045 218.287 643.983C218.287 645.936 217.954 647.63 217.29 649.063C216.625 650.488 215.704 651.593 214.527 652.378C213.351 653.154 211.993 653.543 210.456 653.543C209.271 653.543 208.322 653.346 207.61 652.954C206.897 652.554 206.349 652.101 205.964 651.597C205.58 651.084 205.284 650.66 205.076 650.324H204.836V660.076H202.001ZM204.787 643.935C204.787 645.328 204.992 646.557 205.4 647.622C205.808 648.679 206.405 649.507 207.189 650.108C207.974 650.7 208.935 650.996 210.072 650.996C211.257 650.996 212.246 650.684 213.038 650.06C213.839 649.427 214.439 648.578 214.84 647.514C215.248 646.441 215.452 645.248 215.452 643.935C215.452 642.638 215.252 641.469 214.852 640.428C214.459 639.379 213.863 638.55 213.062 637.942C212.27 637.325 211.273 637.017 210.072 637.017C208.919 637.017 207.95 637.309 207.165 637.894C206.381 638.47 205.788 639.279 205.388 640.32C204.988 641.352 204.787 642.557 204.787 643.935ZM230.104 653.543C228.439 653.543 226.978 653.146 225.721 652.354C224.472 651.561 223.495 650.452 222.79 649.027C222.094 647.602 221.745 645.936 221.745 644.031C221.745 642.109 222.094 640.432 222.79 638.999C223.495 637.565 224.472 636.452 225.721 635.66C226.978 634.867 228.439 634.471 230.104 634.471C231.77 634.471 233.227 634.867 234.476 635.66C235.733 636.452 236.71 637.565 237.406 638.999C238.111 640.432 238.463 642.109 238.463 644.031C238.463 645.936 238.111 647.602 237.406 649.027C236.71 650.452 235.733 651.561 234.476 652.354C233.227 653.146 231.77 653.543 230.104 653.543ZM230.104 650.996C231.369 650.996 232.41 650.672 233.227 650.024C234.044 649.375 234.648 648.522 235.04 647.466C235.433 646.409 235.629 645.264 235.629 644.031C235.629 642.798 235.433 641.649 235.04 640.584C234.648 639.519 234.044 638.658 233.227 638.002C232.41 637.345 231.369 637.017 230.104 637.017C228.839 637.017 227.798 637.345 226.982 638.002C226.165 638.658 225.561 639.519 225.168 640.584C224.776 641.649 224.58 642.798 224.58 644.031C224.58 645.264 224.776 646.409 225.168 647.466C225.561 648.522 226.165 649.375 226.982 650.024C227.798 650.672 228.839 650.996 230.104 650.996ZM245.624 648.979L254.511 634.711H257.778V653.158H254.944V638.89L246.104 653.158H242.79V634.711H245.624V648.979ZM261.816 648.45H264.843C264.907 649.283 265.283 649.916 265.972 650.348C266.668 650.78 267.573 650.996 268.686 650.996C269.823 650.996 270.796 650.764 271.604 650.3C272.413 649.827 272.817 649.067 272.817 648.018C272.817 647.401 272.665 646.865 272.361 646.409C272.057 645.944 271.628 645.584 271.076 645.328C270.524 645.072 269.871 644.943 269.118 644.943H265.948V642.397H269.118C270.247 642.397 271.08 642.141 271.616 641.629C272.161 641.116 272.433 640.476 272.433 639.707C272.433 638.882 272.141 638.222 271.556 637.726C270.972 637.221 270.143 636.969 269.07 636.969C267.989 636.969 267.089 637.213 266.368 637.701C265.648 638.182 265.267 638.802 265.227 639.563H262.249C262.281 638.57 262.585 637.693 263.161 636.933C263.738 636.164 264.523 635.564 265.515 635.131C266.508 634.691 267.645 634.471 268.926 634.471C270.223 634.471 271.348 634.699 272.301 635.155C273.262 635.604 274.002 636.216 274.523 636.993C275.051 637.762 275.315 638.634 275.315 639.611C275.315 640.652 275.023 641.493 274.439 642.133C273.854 642.774 273.122 643.23 272.241 643.502V643.694C272.938 643.742 273.542 643.967 274.054 644.367C274.575 644.759 274.979 645.276 275.267 645.916C275.556 646.549 275.7 647.249 275.7 648.018C275.7 649.139 275.4 650.116 274.799 650.948C274.199 651.773 273.374 652.414 272.325 652.87C271.276 653.318 270.079 653.543 268.734 653.543C267.429 653.543 266.26 653.33 265.227 652.906C264.194 652.474 263.374 651.877 262.765 651.117C262.165 650.348 261.848 649.459 261.816 648.45ZM279.681 653.158V634.711H287.223C289.209 634.711 290.786 635.159 291.955 636.056C293.124 636.953 293.709 638.138 293.709 639.611C293.709 640.732 293.376 641.601 292.712 642.217C292.047 642.826 291.195 643.238 290.154 643.454C290.834 643.55 291.495 643.791 292.135 644.175C292.784 644.559 293.32 645.088 293.745 645.76C294.169 646.425 294.381 647.241 294.381 648.21C294.381 649.155 294.141 650 293.661 650.744C293.18 651.489 292.492 652.077 291.595 652.51C290.698 652.942 289.625 653.158 288.376 653.158H279.681ZM282.371 650.564H288.376C289.353 650.564 290.118 650.332 290.67 649.867C291.223 649.403 291.499 648.771 291.499 647.97C291.499 647.017 291.223 646.269 290.67 645.724C290.118 645.172 289.353 644.895 288.376 644.895H282.371V650.564ZM282.371 642.445H287.223C287.984 642.445 288.636 642.341 289.181 642.133C289.725 641.917 290.142 641.613 290.43 641.22C290.726 640.82 290.874 640.348 290.874 639.803C290.874 639.027 290.55 638.418 289.901 637.978C289.253 637.529 288.36 637.305 287.223 637.305H282.371V642.445ZM306.166 653.543C304.5 653.543 303.039 653.146 301.782 652.354C300.533 651.561 299.556 650.452 298.852 649.027C298.155 647.602 297.807 645.936 297.807 644.031C297.807 642.109 298.155 640.432 298.852 638.999C299.556 637.565 300.533 636.452 301.782 635.66C303.039 634.867 304.5 634.471 306.166 634.471C307.831 634.471 309.288 634.867 310.537 635.66C311.794 636.452 312.771 637.565 313.468 638.999C314.172 640.432 314.525 642.109 314.525 644.031C314.525 645.936 314.172 647.602 313.468 649.027C312.771 650.452 311.794 651.561 310.537 652.354C309.288 653.146 307.831 653.543 306.166 653.543ZM306.166 650.996C307.431 650.996 308.472 650.672 309.288 650.024C310.105 649.375 310.71 648.522 311.102 647.466C311.494 646.409 311.69 645.264 311.69 644.031C311.69 642.798 311.494 641.649 311.102 640.584C310.71 639.519 310.105 638.658 309.288 638.002C308.472 637.345 307.431 637.017 306.166 637.017C304.901 637.017 303.86 637.345 303.043 638.002C302.227 638.658 301.622 639.519 301.23 640.584C300.837 641.649 300.641 642.798 300.641 644.031C300.641 645.264 300.837 646.409 301.23 647.466C301.622 648.522 302.227 649.375 303.043 650.024C303.86 650.672 304.901 650.996 306.166 650.996ZM316.882 658.443V650.516H318.419C318.795 650.124 319.119 649.699 319.392 649.243C319.664 648.787 319.9 648.246 320.1 647.622C320.308 646.989 320.485 646.22 320.629 645.316C320.773 644.403 320.901 643.302 321.013 642.013L321.638 634.711H333.359V650.516H336.194V658.443H333.359V653.158H319.716V658.443H316.882ZM321.638 650.516H330.525V637.353H324.28L323.799 642.013C323.599 643.943 323.351 645.628 323.055 647.069C322.758 648.51 322.286 649.659 321.638 650.516ZM342.79 648.979L351.677 634.711H354.944V653.158H352.11V638.89L343.27 653.158H339.956V634.711H342.79V648.979ZM357.625 637.353V634.711H372.613V637.353H366.561V653.158H363.726V637.353H357.625ZM383.524 653.543C381.747 653.543 380.214 653.15 378.925 652.366C377.644 651.573 376.655 650.468 375.958 649.051C375.27 647.626 374.925 645.968 374.925 644.079C374.925 642.189 375.27 640.524 375.958 639.083C376.655 637.633 377.624 636.505 378.865 635.696C380.114 634.879 381.571 634.471 383.236 634.471C384.197 634.471 385.146 634.631 386.083 634.951C387.019 635.271 387.872 635.792 388.641 636.513C389.409 637.225 390.022 638.17 390.478 639.347C390.935 640.524 391.163 641.973 391.163 643.694V644.895H376.943V642.445H388.28C388.28 641.405 388.072 640.476 387.656 639.659C387.248 638.842 386.663 638.198 385.902 637.726C385.15 637.253 384.261 637.017 383.236 637.017C382.107 637.017 381.13 637.297 380.306 637.858C379.489 638.41 378.861 639.131 378.42 640.019C377.98 640.908 377.76 641.861 377.76 642.878V644.511C377.76 645.904 378 647.085 378.48 648.054C378.969 649.015 379.645 649.747 380.51 650.252C381.375 650.748 382.38 650.996 383.524 650.996C384.269 650.996 384.942 650.892 385.542 650.684C386.151 650.468 386.675 650.148 387.115 649.723C387.556 649.291 387.896 648.755 388.136 648.114L390.874 648.883C390.586 649.811 390.102 650.628 389.421 651.333C388.741 652.029 387.9 652.574 386.899 652.966C385.898 653.35 384.773 653.543 383.524 653.543ZM393.841 653.158V650.516H394.513C395.066 650.516 395.526 650.408 395.895 650.192C396.263 649.968 396.559 649.579 396.783 649.027C397.016 648.466 397.192 647.69 397.312 646.697C397.44 645.696 397.532 644.423 397.588 642.878L397.924 634.711H410.222V653.158H407.388V637.353H400.614L400.326 643.935C400.262 645.448 400.126 646.781 399.918 647.934C399.718 649.079 399.409 650.04 398.993 650.816C398.585 651.593 398.04 652.177 397.36 652.57C396.679 652.962 395.827 653.158 394.802 653.158H393.841ZM417.873 641.389H423.157C425.319 641.389 426.972 641.937 428.117 643.034C429.262 644.131 429.835 645.52 429.835 647.201C429.835 648.306 429.578 649.311 429.066 650.216C428.553 651.113 427.801 651.829 426.808 652.366C425.815 652.894 424.598 653.158 423.157 653.158H415.423V634.711H418.257V650.516H423.157C424.278 650.516 425.199 650.22 425.919 649.627C426.64 649.035 427 648.274 427 647.345C427 646.369 426.64 645.572 425.919 644.955C425.199 644.339 424.278 644.031 423.157 644.031H417.873V641.389Z" fill="#00323E"/>
<path d="M206.547 694.127C204.882 694.127 203.421 693.73 202.164 692.938C200.915 692.145 199.938 691.036 199.233 689.611C198.537 688.186 198.188 686.52 198.188 684.615C198.188 682.693 198.537 681.016 199.233 679.583C199.938 678.149 200.915 677.036 202.164 676.244C203.421 675.451 204.882 675.055 206.547 675.055C208.213 675.055 209.67 675.451 210.919 676.244C212.176 677.036 213.153 678.149 213.849 679.583C214.554 681.016 214.906 682.693 214.906 684.615C214.906 686.52 214.554 688.186 213.849 689.611C213.153 691.036 212.176 692.145 210.919 692.938C209.67 693.73 208.213 694.127 206.547 694.127ZM206.547 691.58C207.812 691.58 208.853 691.256 209.67 690.608C210.487 689.959 211.091 689.106 211.483 688.05C211.876 686.993 212.072 685.848 212.072 684.615C212.072 683.382 211.876 682.233 211.483 681.168C211.091 680.103 210.487 679.242 209.67 678.586C208.853 677.929 207.812 677.601 206.547 677.601C205.282 677.601 204.241 677.929 203.425 678.586C202.608 679.242 202.004 680.103 201.611 681.168C201.219 682.233 201.023 683.382 201.023 684.615C201.023 685.848 201.219 686.993 201.611 688.05C202.004 689.106 202.608 689.959 203.425 690.608C204.241 691.256 205.282 691.58 206.547 691.58ZM232.924 668.377L234.365 670.107C233.805 670.651 233.156 671.032 232.42 671.248C231.683 671.464 230.85 671.596 229.921 671.644C228.993 671.692 227.96 671.74 226.823 671.788C225.542 671.836 224.481 672.148 223.64 672.725C222.8 673.301 222.151 674.134 221.695 675.223C221.238 676.312 220.946 677.649 220.818 679.234H221.058C221.683 678.081 222.547 677.233 223.652 676.688C224.757 676.144 225.942 675.871 227.207 675.871C228.648 675.871 229.946 676.208 231.098 676.88C232.251 677.553 233.164 678.55 233.837 679.871C234.509 681.192 234.846 682.821 234.846 684.759C234.846 686.688 234.501 688.354 233.813 689.755C233.132 691.156 232.175 692.237 230.942 692.998C229.717 693.75 228.28 694.127 226.631 694.127C224.981 694.127 223.536 693.738 222.295 692.962C221.054 692.177 220.089 691.016 219.401 689.479C218.712 687.933 218.368 686.024 218.368 683.75V681.78C218.368 677.673 219.065 674.558 220.458 672.437C221.859 670.315 223.965 669.218 226.775 669.146C227.768 669.114 228.652 669.106 229.429 669.122C230.206 669.138 230.882 669.102 231.459 669.014C232.035 668.926 232.524 668.714 232.924 668.377ZM226.631 691.58C227.744 691.58 228.7 691.3 229.501 690.74C230.31 690.179 230.93 689.391 231.363 688.374C231.795 687.349 232.011 686.144 232.011 684.759C232.011 683.414 231.791 682.269 231.351 681.324C230.918 680.379 230.298 679.659 229.489 679.162C228.68 678.666 227.712 678.418 226.583 678.418C225.758 678.418 225.017 678.558 224.361 678.838C223.704 679.118 223.144 679.531 222.68 680.075C222.215 680.619 221.855 681.284 221.599 682.069C221.35 682.853 221.218 683.75 221.202 684.759C221.202 686.824 221.687 688.478 222.656 689.719C223.624 690.96 224.949 691.58 226.631 691.58ZM246.675 694.127C245.01 694.127 243.549 693.73 242.292 692.938C241.043 692.145 240.066 691.036 239.361 689.611C238.665 688.186 238.316 686.52 238.316 684.615C238.316 682.693 238.665 681.016 239.361 679.583C240.066 678.149 241.043 677.036 242.292 676.244C243.549 675.451 245.01 675.055 246.675 675.055C248.341 675.055 249.798 675.451 251.047 676.244C252.304 677.036 253.281 678.149 253.977 679.583C254.682 681.016 255.034 682.693 255.034 684.615C255.034 686.52 254.682 688.186 253.977 689.611C253.281 691.036 252.304 692.145 251.047 692.938C249.798 693.73 248.341 694.127 246.675 694.127ZM246.675 691.58C247.94 691.58 248.981 691.256 249.798 690.608C250.615 689.959 251.219 689.106 251.611 688.05C252.004 686.993 252.2 685.848 252.2 684.615C252.2 683.382 252.004 682.233 251.611 681.168C251.219 680.103 250.615 679.242 249.798 678.586C248.981 677.929 247.94 677.601 246.675 677.601C245.41 677.601 244.369 677.929 243.553 678.586C242.736 679.242 242.132 680.103 241.739 681.168C241.347 682.233 241.151 683.382 241.151 684.615C241.151 685.848 241.347 686.993 241.739 688.05C242.132 689.106 242.736 689.959 243.553 690.608C244.369 691.256 245.41 691.58 246.675 691.58ZM259.361 700.66V675.295H262.099V678.225H262.435C262.643 677.905 262.932 677.497 263.3 677C263.676 676.496 264.213 676.048 264.909 675.655C265.614 675.255 266.567 675.055 267.768 675.055C269.321 675.055 270.69 675.443 271.875 676.22C273.06 676.996 273.985 678.097 274.649 679.522C275.314 680.948 275.646 682.629 275.646 684.567C275.646 686.52 275.314 688.214 274.649 689.647C273.985 691.072 273.064 692.177 271.887 692.962C270.71 693.738 269.353 694.127 267.816 694.127C266.631 694.127 265.682 693.93 264.969 693.538C264.257 693.138 263.708 692.685 263.324 692.181C262.94 691.668 262.643 691.244 262.435 690.908H262.195V700.66H259.361ZM262.147 684.519C262.147 685.912 262.351 687.141 262.759 688.206C263.168 689.263 263.764 690.091 264.549 690.692C265.334 691.284 266.294 691.58 267.431 691.58C268.616 691.58 269.605 691.268 270.398 690.644C271.198 690.011 271.799 689.162 272.199 688.098C272.608 687.025 272.812 685.832 272.812 684.519C272.812 683.222 272.612 682.053 272.211 681.012C271.819 679.963 271.222 679.134 270.422 678.526C269.629 677.909 268.632 677.601 267.431 677.601C266.278 677.601 265.31 677.893 264.525 678.478C263.74 679.054 263.148 679.863 262.747 680.904C262.347 681.936 262.147 683.141 262.147 684.519ZM281.135 700.66C280.654 700.66 280.226 700.62 279.85 700.54C279.473 700.468 279.213 700.396 279.069 700.324L279.789 697.826C280.478 698.002 281.087 698.066 281.615 698.018C282.143 697.97 282.612 697.733 283.02 697.309C283.436 696.893 283.817 696.216 284.161 695.279L284.69 693.838L277.868 675.295H280.942L286.035 689.995H286.227L291.319 675.295H294.394L286.563 696.432C286.211 697.385 285.774 698.174 285.254 698.798C284.734 699.431 284.129 699.899 283.44 700.203C282.76 700.508 281.991 700.66 281.135 700.66ZM294.613 699.027V691.1H296.15C296.526 690.708 296.851 690.283 297.123 689.827C297.395 689.371 297.631 688.83 297.831 688.206C298.039 687.573 298.216 686.804 298.36 685.9C298.504 684.987 298.632 683.886 298.744 682.597L299.369 675.295H311.09V691.1H313.925V699.027H311.09V693.742H297.447V699.027H294.613ZM299.369 691.1H308.256V677.937H302.011L301.53 682.597C301.33 684.527 301.082 686.212 300.786 687.653C300.49 689.094 300.017 690.243 299.369 691.1ZM325.181 694.127C323.515 694.127 322.054 693.73 320.797 692.938C319.548 692.145 318.571 691.036 317.867 689.611C317.17 688.186 316.822 686.52 316.822 684.615C316.822 682.693 317.17 681.016 317.867 679.583C318.571 678.149 319.548 677.036 320.797 676.244C322.054 675.451 323.515 675.055 325.181 675.055C326.846 675.055 328.303 675.451 329.552 676.244C330.809 677.036 331.786 678.149 332.483 679.583C333.187 681.016 333.54 682.693 333.54 684.615C333.54 686.52 333.187 688.186 332.483 689.611C331.786 691.036 330.809 692.145 329.552 692.938C328.303 693.73 326.846 694.127 325.181 694.127ZM325.181 691.58C326.446 691.58 327.487 691.256 328.303 690.608C329.12 689.959 329.725 689.106 330.117 688.05C330.509 686.993 330.705 685.848 330.705 684.615C330.705 683.382 330.509 682.233 330.117 681.168C329.725 680.103 329.12 679.242 328.303 678.586C327.487 677.929 326.446 677.601 325.181 677.601C323.916 677.601 322.875 677.929 322.058 678.586C321.242 679.242 320.637 680.103 320.245 681.168C319.852 682.233 319.656 683.382 319.656 684.615C319.656 685.848 319.852 686.993 320.245 688.05C320.637 689.106 321.242 689.959 322.058 690.608C322.875 691.256 323.916 691.58 325.181 691.58ZM337.866 693.742V675.295H345.408C347.394 675.295 348.971 675.743 350.14 676.64C351.309 677.537 351.894 678.722 351.894 680.195C351.894 681.316 351.562 682.185 350.897 682.801C350.232 683.41 349.38 683.822 348.339 684.038C349.019 684.134 349.68 684.374 350.32 684.759C350.969 685.143 351.505 685.672 351.93 686.344C352.354 687.009 352.566 687.825 352.566 688.794C352.566 689.739 352.326 690.584 351.846 691.328C351.365 692.073 350.677 692.661 349.78 693.094C348.883 693.526 347.81 693.742 346.561 693.742H337.866ZM340.556 691.148H346.561C347.538 691.148 348.303 690.916 348.855 690.451C349.408 689.987 349.684 689.355 349.684 688.554C349.684 687.601 349.408 686.853 348.855 686.308C348.303 685.756 347.538 685.479 346.561 685.479H340.556V691.148ZM340.556 683.029H345.408C346.169 683.029 346.822 682.925 347.366 682.717C347.911 682.501 348.327 682.197 348.615 681.804C348.911 681.404 349.059 680.932 349.059 680.387C349.059 679.611 348.735 679.002 348.087 678.562C347.438 678.113 346.545 677.889 345.408 677.889H340.556V683.029ZM362.285 694.175C361.116 694.175 360.055 693.954 359.103 693.514C358.15 693.066 357.393 692.421 356.833 691.58C356.272 690.732 355.992 689.707 355.992 688.506C355.992 687.449 356.2 686.592 356.617 685.936C357.033 685.271 357.589 684.751 358.286 684.374C358.983 683.998 359.751 683.718 360.592 683.534C361.441 683.342 362.293 683.19 363.15 683.077C364.271 682.933 365.18 682.825 365.876 682.753C366.581 682.673 367.093 682.541 367.414 682.357C367.742 682.173 367.906 681.852 367.906 681.396V681.3C367.906 680.115 367.582 679.194 366.933 678.538C366.293 677.881 365.32 677.553 364.015 677.553C362.662 677.553 361.601 677.849 360.832 678.442C360.063 679.034 359.523 679.667 359.211 680.339L356.521 679.378C357.001 678.257 357.642 677.385 358.442 676.76C359.251 676.128 360.132 675.687 361.084 675.439C362.045 675.183 362.99 675.055 363.919 675.055C364.511 675.055 365.192 675.127 365.96 675.271C366.737 675.407 367.486 675.691 368.206 676.124C368.935 676.556 369.539 677.209 370.02 678.081C370.5 678.954 370.74 680.123 370.74 681.588V693.742H367.906V691.244H367.762C367.57 691.644 367.249 692.073 366.801 692.529C366.353 692.986 365.756 693.374 365.012 693.694C364.267 694.014 363.358 694.175 362.285 694.175ZM362.718 691.628C363.839 691.628 364.783 691.408 365.552 690.968C366.329 690.528 366.913 689.959 367.305 689.263C367.706 688.566 367.906 687.833 367.906 687.065V684.471C367.786 684.615 367.522 684.747 367.113 684.867C366.713 684.979 366.249 685.079 365.72 685.167C365.2 685.247 364.691 685.319 364.195 685.383C363.706 685.439 363.31 685.487 363.006 685.527C362.269 685.624 361.581 685.78 360.94 685.996C360.308 686.204 359.795 686.52 359.403 686.945C359.019 687.361 358.826 687.929 358.826 688.65C358.826 689.635 359.191 690.379 359.919 690.884C360.656 691.38 361.589 691.628 362.718 691.628ZM388.26 683.222V685.864H378.075V683.222H388.26ZM378.748 675.295V693.742H375.914V675.295H378.748ZM390.421 675.295V693.742H387.587V675.295H390.421ZM398.432 689.563L407.319 675.295H410.586V693.742H407.752V679.474L398.912 693.742H395.598V675.295H398.432V689.563ZM426.874 693.742V677.889H421.974C420.869 677.889 420.001 678.145 419.368 678.658C418.736 679.17 418.419 679.875 418.419 680.772C418.419 681.652 418.704 682.345 419.272 682.849C419.849 683.354 420.637 683.606 421.638 683.606H427.595V686.248H421.638C420.389 686.248 419.312 686.028 418.407 685.587C417.503 685.147 416.806 684.519 416.318 683.702C415.829 682.877 415.585 681.9 415.585 680.772C415.585 679.635 415.841 678.658 416.354 677.841C416.866 677.024 417.599 676.396 418.552 675.956C419.512 675.515 420.653 675.295 421.974 675.295H429.565V693.742H426.874ZM414.576 693.742L419.813 684.567H422.887L417.651 693.742H414.576Z" fill="#008B95"/>
<path d="M83.5504 319.48V344.076H80.572V322.122H68.1778V344.076H65.1993V319.48H83.5504ZM89.1741 350.994V325.629H91.9123V328.559H92.2486C92.4567 328.239 92.745 327.831 93.1133 327.334C93.4896 326.83 94.026 326.382 94.7226 325.989C95.4272 325.589 96.38 325.389 97.581 325.389C99.1342 325.389 100.503 325.777 101.688 326.554C102.873 327.33 103.798 328.431 104.463 329.856C105.127 331.282 105.459 332.963 105.459 334.901C105.459 336.854 105.127 338.548 104.463 339.981C103.798 341.406 102.877 342.511 101.7 343.296C100.523 344.072 99.1663 344.46 97.629 344.46C96.444 344.46 95.4952 344.264 94.7827 343.872C94.0701 343.472 93.5216 343.019 93.1373 342.515C92.753 342.002 92.4567 341.578 92.2486 341.242H92.0084V350.994H89.1741ZM91.9603 334.853C91.9603 336.246 92.1645 337.475 92.5728 338.54C92.9812 339.596 93.5777 340.425 94.3623 341.026C95.147 341.618 96.1078 341.914 97.2447 341.914C98.4297 341.914 99.4185 341.602 100.211 340.978C101.012 340.345 101.612 339.496 102.013 338.432C102.421 337.359 102.625 336.166 102.625 334.853C102.625 333.556 102.425 332.387 102.025 331.346C101.632 330.297 101.036 329.468 100.235 328.86C99.4425 328.243 98.4457 327.935 97.2447 327.935C96.0917 327.935 95.1229 328.227 94.3383 328.812C93.5537 329.388 92.9612 330.197 92.5608 331.238C92.1605 332.27 91.9603 333.475 91.9603 334.853ZM117.277 344.46C115.612 344.46 114.151 344.064 112.894 343.272C111.645 342.479 110.668 341.37 109.963 339.945C109.267 338.52 108.918 336.854 108.918 334.949C108.918 333.027 109.267 331.35 109.963 329.917C110.668 328.483 111.645 327.37 112.894 326.578C114.151 325.785 115.612 325.389 117.277 325.389C118.943 325.389 120.4 325.785 121.649 326.578C122.906 327.37 123.883 328.483 124.579 329.917C125.284 331.35 125.636 333.027 125.636 334.949C125.636 336.854 125.284 338.52 124.579 339.945C123.883 341.37 122.906 342.479 121.649 343.272C120.4 344.064 118.943 344.46 117.277 344.46ZM117.277 341.914C118.542 341.914 119.583 341.59 120.4 340.942C121.216 340.293 121.821 339.44 122.213 338.383C122.606 337.327 122.802 336.182 122.802 334.949C122.802 333.716 122.606 332.567 122.213 331.502C121.821 330.437 121.216 329.576 120.4 328.92C119.583 328.263 118.542 327.935 117.277 327.935C116.012 327.935 114.971 328.263 114.155 328.92C113.338 329.576 112.733 330.437 112.341 331.502C111.949 332.567 111.753 333.716 111.753 334.949C111.753 336.182 111.949 337.327 112.341 338.383C112.733 339.44 113.338 340.293 114.155 340.942C114.971 341.59 116.012 341.914 117.277 341.914ZM132.797 339.897L141.684 325.629H144.951V344.076H142.117V329.808L133.277 344.076H129.963V325.629H132.797V339.897ZM148.989 339.368H152.016C152.08 340.201 152.456 340.834 153.145 341.266C153.841 341.698 154.746 341.914 155.859 341.914C156.996 341.914 157.969 341.682 158.777 341.218C159.586 340.745 159.99 339.985 159.99 338.936C159.99 338.319 159.838 337.783 159.534 337.327C159.23 336.862 158.801 336.502 158.249 336.246C157.696 335.99 157.044 335.861 156.291 335.861H153.121V333.315H156.291C157.42 333.315 158.253 333.059 158.789 332.547C159.334 332.034 159.606 331.394 159.606 330.625C159.606 329.8 159.314 329.14 158.729 328.643C158.145 328.139 157.316 327.887 156.243 327.887C155.162 327.887 154.262 328.131 153.541 328.619C152.82 329.1 152.44 329.72 152.4 330.481H149.422C149.454 329.488 149.758 328.611 150.334 327.851C150.911 327.082 151.695 326.482 152.688 326.049C153.681 325.609 154.818 325.389 156.099 325.389C157.396 325.389 158.521 325.617 159.474 326.073C160.435 326.522 161.175 327.134 161.696 327.911C162.224 328.68 162.488 329.552 162.488 330.529C162.488 331.57 162.196 332.411 161.612 333.051C161.027 333.692 160.295 334.148 159.414 334.42V334.612C160.11 334.66 160.715 334.885 161.227 335.285C161.748 335.677 162.152 336.194 162.44 336.834C162.729 337.467 162.873 338.167 162.873 338.936C162.873 340.057 162.572 341.034 161.972 341.866C161.371 342.691 160.547 343.332 159.498 343.788C158.449 344.236 157.252 344.46 155.907 344.46C154.602 344.46 153.433 344.248 152.4 343.824C151.367 343.392 150.547 342.795 149.938 342.034C149.338 341.266 149.021 340.377 148.989 339.368ZM166.854 344.076V325.629H174.396C176.382 325.629 177.959 326.077 179.128 326.974C180.297 327.871 180.881 329.056 180.881 330.529C180.881 331.65 180.549 332.519 179.885 333.135C179.22 333.744 178.367 334.156 177.327 334.372C178.007 334.468 178.668 334.708 179.308 335.093C179.957 335.477 180.493 336.006 180.917 336.678C181.342 337.343 181.554 338.159 181.554 339.128C181.554 340.073 181.314 340.918 180.833 341.662C180.353 342.407 179.664 342.995 178.768 343.428C177.871 343.86 176.798 344.076 175.549 344.076H166.854ZM169.544 341.482H175.549C176.526 341.482 177.29 341.25 177.843 340.785C178.395 340.321 178.672 339.689 178.672 338.888C178.672 337.935 178.395 337.187 177.843 336.642C177.29 336.09 176.526 335.813 175.549 335.813H169.544V341.482ZM169.544 333.363H174.396C175.157 333.363 175.809 333.259 176.354 333.051C176.898 332.835 177.315 332.531 177.603 332.138C177.899 331.738 178.047 331.266 178.047 330.721C178.047 329.945 177.723 329.336 177.074 328.896C176.426 328.447 175.533 328.223 174.396 328.223H169.544V333.363ZM193.339 344.46C191.673 344.46 190.212 344.064 188.955 343.272C187.706 342.479 186.729 341.37 186.025 339.945C185.328 338.52 184.98 336.854 184.98 334.949C184.98 333.027 185.328 331.35 186.025 329.917C186.729 328.483 187.706 327.37 188.955 326.578C190.212 325.785 191.673 325.389 193.339 325.389C195.004 325.389 196.461 325.785 197.71 326.578C198.967 327.37 199.944 328.483 200.641 329.917C201.345 331.35 201.698 333.027 201.698 334.949C201.698 336.854 201.345 338.52 200.641 339.945C199.944 341.37 198.967 342.479 197.71 343.272C196.461 344.064 195.004 344.46 193.339 344.46ZM193.339 341.914C194.604 341.914 195.645 341.59 196.461 340.942C197.278 340.293 197.882 339.44 198.275 338.383C198.667 337.327 198.863 336.182 198.863 334.949C198.863 333.716 198.667 332.567 198.275 331.502C197.882 330.437 197.278 329.576 196.461 328.92C195.645 328.263 194.604 327.935 193.339 327.935C192.074 327.935 191.033 328.263 190.216 328.92C189.399 329.576 188.795 330.437 188.403 331.502C188.01 332.567 187.814 333.716 187.814 334.949C187.814 336.182 188.01 337.327 188.403 338.383C188.795 339.44 189.399 340.293 190.216 340.942C191.033 341.59 192.074 341.914 193.339 341.914ZM204.055 349.361V341.434H205.592C205.968 341.042 206.292 340.617 206.565 340.161C206.837 339.705 207.073 339.164 207.273 338.54C207.481 337.907 207.657 337.138 207.802 336.234C207.946 335.321 208.074 334.22 208.186 332.931L208.81 325.629H220.532V341.434H223.366V349.361H220.532V344.076H206.889V349.361H204.055ZM208.81 341.434H217.698V328.271H211.453L210.972 332.931C210.772 334.861 210.524 336.546 210.228 337.987C209.931 339.428 209.459 340.577 208.81 341.434ZM229.963 339.897L238.85 325.629H242.117V344.076H239.282V329.808L230.443 344.076H227.128V325.629H229.963V339.897ZM244.798 328.271V325.629H259.786V328.271H253.733V344.076H250.899V328.271H244.798ZM270.697 344.46C268.92 344.46 267.387 344.068 266.098 343.284C264.816 342.491 263.828 341.386 263.131 339.969C262.443 338.544 262.098 336.886 262.098 334.997C262.098 333.107 262.443 331.442 263.131 330.001C263.828 328.551 264.796 327.422 266.037 326.614C267.286 325.797 268.744 325.389 270.409 325.389C271.37 325.389 272.319 325.549 273.255 325.869C274.192 326.189 275.045 326.71 275.814 327.43C276.582 328.143 277.195 329.088 277.651 330.265C278.107 331.442 278.336 332.891 278.336 334.612V335.813H264.116V333.363H275.453C275.453 332.323 275.245 331.394 274.829 330.577C274.42 329.76 273.836 329.116 273.075 328.643C272.323 328.171 271.434 327.935 270.409 327.935C269.28 327.935 268.303 328.215 267.479 328.776C266.662 329.328 266.033 330.049 265.593 330.937C265.153 331.826 264.933 332.779 264.933 333.796V335.429C264.933 336.822 265.173 338.003 265.653 338.972C266.142 339.933 266.818 340.665 267.683 341.17C268.548 341.666 269.552 341.914 270.697 341.914C271.442 341.914 272.114 341.81 272.715 341.602C273.323 341.386 273.848 341.066 274.288 340.641C274.729 340.209 275.069 339.673 275.309 339.032L278.047 339.801C277.759 340.729 277.275 341.546 276.594 342.251C275.914 342.947 275.073 343.492 274.072 343.884C273.071 344.268 271.946 344.46 270.697 344.46ZM281.014 344.076V341.434H281.686C282.239 341.434 282.699 341.326 283.067 341.11C283.436 340.886 283.732 340.497 283.956 339.945C284.188 339.384 284.365 338.608 284.485 337.615C284.613 336.614 284.705 335.341 284.761 333.796L285.097 325.629H297.395V344.076H294.561V328.271H287.787L287.499 334.853C287.435 336.366 287.299 337.699 287.091 338.852C286.891 339.997 286.582 340.958 286.166 341.734C285.758 342.511 285.213 343.095 284.533 343.488C283.852 343.88 282.999 344.076 281.975 344.076H281.014ZM305.046 332.306H310.33C312.492 332.306 314.145 332.855 315.29 333.952C316.435 335.049 317.007 336.438 317.007 338.119C317.007 339.224 316.751 340.229 316.239 341.134C315.726 342.03 314.974 342.747 313.981 343.284C312.988 343.812 311.771 344.076 310.33 344.076H302.596V325.629H305.43V341.434H310.33C311.451 341.434 312.372 341.138 313.092 340.545C313.813 339.953 314.173 339.192 314.173 338.263C314.173 337.287 313.813 336.49 313.092 335.873C312.372 335.257 311.451 334.949 310.33 334.949H305.046V332.306Z" fill="#00323E"/>
<path d="M13.9795 366.213V368.855H5.42846V384.66H2.59413V366.213H13.9795ZM24.6533 385.044C22.9879 385.044 21.5267 384.648 20.2697 383.855C19.0206 383.063 18.0438 381.954 17.3393 380.529C16.6427 379.104 16.2944 377.438 16.2944 375.533C16.2944 373.611 16.6427 371.934 17.3393 370.501C18.0438 369.067 19.0206 367.954 20.2697 367.162C21.5267 366.369 22.9879 365.973 24.6533 365.973C26.3186 365.973 27.7758 366.369 29.0249 367.162C30.2819 367.954 31.2587 369.067 31.9553 370.501C32.6599 371.934 33.0121 373.611 33.0121 375.533C33.0121 377.438 32.6599 379.104 31.9553 380.529C31.2587 381.954 30.2819 383.063 29.0249 383.855C27.7758 384.648 26.3186 385.044 24.6533 385.044ZM24.6533 382.498C25.9183 382.498 26.9592 382.174 27.7758 381.526C28.5925 380.877 29.197 380.024 29.5893 378.967C29.9817 377.911 30.1778 376.766 30.1778 375.533C30.1778 374.3 29.9817 373.151 29.5893 372.086C29.197 371.021 28.5925 370.16 27.7758 369.504C26.9592 368.847 25.9183 368.519 24.6533 368.519C23.3882 368.519 22.3474 368.847 21.5307 369.504C20.714 370.16 20.1095 371.021 19.7172 372.086C19.3249 373.151 19.1287 374.3 19.1287 375.533C19.1287 376.766 19.3249 377.911 19.7172 378.967C20.1095 380.024 20.714 380.877 21.5307 381.526C22.3474 382.174 23.3882 382.498 24.6533 382.498ZM34.9277 368.855V366.213H49.916V368.855H43.8631V384.66H41.0287V368.855H34.9277ZM60.5868 385.044C58.9214 385.044 57.4602 384.648 56.2032 383.855C54.9542 383.063 53.9774 381.954 53.2728 380.529C52.5762 379.104 52.2279 377.438 52.2279 375.533C52.2279 373.611 52.5762 371.934 53.2728 370.501C53.9774 369.067 54.9542 367.954 56.2032 367.162C57.4602 366.369 58.9214 365.973 60.5868 365.973C62.2522 365.973 63.7094 366.369 64.9584 367.162C66.2154 367.954 67.1922 369.067 67.8888 370.501C68.5934 371.934 68.9457 373.611 68.9457 375.533C68.9457 377.438 68.5934 379.104 67.8888 380.529C67.1922 381.954 66.2154 383.063 64.9584 383.855C63.7094 384.648 62.2522 385.044 60.5868 385.044ZM60.5868 382.498C61.8519 382.498 62.8927 382.174 63.7094 381.526C64.526 380.877 65.1305 380.024 65.5229 378.967C65.9152 377.911 66.1114 376.766 66.1114 375.533C66.1114 374.3 65.9152 373.151 65.5229 372.086C65.1305 371.021 64.526 370.16 63.7094 369.504C62.8927 368.847 61.8519 368.519 60.5868 368.519C59.3218 368.519 58.2809 368.847 57.4642 369.504C56.6476 370.16 56.0431 371.021 55.6508 372.086C55.2584 373.151 55.0623 374.3 55.0623 375.533C55.0623 376.766 55.2584 377.911 55.6508 378.967C56.0431 380.024 56.6476 380.877 57.4642 381.526C58.2809 382.174 59.3218 382.498 60.5868 382.498ZM73.2722 384.66V366.213H80.8144C82.8001 366.213 84.3774 366.661 85.5463 367.558C86.7153 368.455 87.2998 369.64 87.2998 371.113C87.2998 372.234 86.9675 373.103 86.303 373.719C85.6384 374.328 84.7857 374.74 83.7449 374.956C84.4254 375.052 85.086 375.292 85.7265 375.677C86.375 376.061 86.9115 376.59 87.3358 377.262C87.7602 377.927 87.9723 378.743 87.9723 379.712C87.9723 380.657 87.7321 381.502 87.2517 382.246C86.7713 382.991 86.0828 383.579 85.186 384.012C84.2893 384.444 83.2164 384.66 81.9674 384.66H73.2722ZM75.9625 382.066H81.9674C82.9442 382.066 83.7088 381.834 84.2613 381.369C84.8137 380.905 85.09 380.273 85.09 379.472C85.09 378.519 84.8137 377.77 84.2613 377.226C83.7088 376.674 82.9442 376.397 81.9674 376.397H75.9625V382.066ZM75.9625 373.947H80.8144C81.5751 373.947 82.2276 373.843 82.7721 373.635C83.3165 373.419 83.7328 373.115 84.0211 372.722C84.3173 372.322 84.4654 371.85 84.4654 371.305C84.4654 370.529 84.1412 369.92 83.4926 369.48C82.8441 369.031 81.9514 368.807 80.8144 368.807H75.9625V373.947ZM99.757 385.044C98.0916 385.044 96.6304 384.648 95.3734 383.855C94.1244 383.063 93.1476 381.954 92.443 380.529C91.7464 379.104 91.3981 377.438 91.3981 375.533C91.3981 373.611 91.7464 371.934 92.443 370.501C93.1476 369.067 94.1244 367.954 95.3734 367.162C96.6304 366.369 98.0916 365.973 99.757 365.973C101.422 365.973 102.88 366.369 104.129 367.162C105.386 367.954 106.362 369.067 107.059 370.501C107.764 371.934 108.116 373.611 108.116 375.533C108.116 377.438 107.764 379.104 107.059 380.529C106.362 381.954 105.386 383.063 104.129 383.855C102.88 384.648 101.422 385.044 99.757 385.044ZM99.757 382.498C101.022 382.498 102.063 382.174 102.88 381.526C103.696 380.877 104.301 380.024 104.693 378.967C105.085 377.911 105.282 376.766 105.282 375.533C105.282 374.3 105.085 373.151 104.693 372.086C104.301 371.021 103.696 370.16 102.88 369.504C102.063 368.847 101.022 368.519 99.757 368.519C98.492 368.519 97.4511 368.847 96.6345 369.504C95.8178 370.16 95.2133 371.021 94.821 372.086C94.4286 373.151 94.2325 374.3 94.2325 375.533C94.2325 376.766 94.4286 377.911 94.821 378.967C95.2133 380.024 95.8178 380.877 96.6345 381.526C97.4511 382.174 98.492 382.498 99.757 382.498ZM115.277 380.481L124.164 366.213H127.431V384.66H124.596V370.392L115.757 384.66H112.442V366.213H115.277V380.481ZM122.291 360.064H124.933C124.933 361.361 124.484 362.422 123.588 363.247C122.691 364.071 121.474 364.484 119.937 364.484C118.423 364.484 117.218 364.071 116.322 363.247C115.433 362.422 114.989 361.361 114.989 360.064H117.631C117.631 360.688 117.803 361.237 118.147 361.709C118.499 362.182 119.096 362.418 119.937 362.418C120.777 362.418 121.378 362.182 121.738 361.709C122.106 361.237 122.291 360.688 122.291 360.064ZM142.134 384.66V366.213H156.642V384.66H153.807V368.855H144.968V384.66H142.134ZM161.818 391.578V366.213H164.556V369.143H164.893C165.101 368.823 165.389 368.415 165.757 367.918C166.134 367.414 166.67 366.966 167.367 366.573C168.071 366.173 169.024 365.973 170.225 365.973C171.778 365.973 173.147 366.361 174.332 367.138C175.517 367.914 176.442 369.015 177.107 370.44C177.771 371.866 178.103 373.547 178.103 375.485C178.103 377.438 177.771 379.132 177.107 380.565C176.442 381.99 175.521 383.095 174.344 383.88C173.167 384.656 171.81 385.044 170.273 385.044C169.088 385.044 168.139 384.848 167.427 384.456C166.714 384.056 166.166 383.603 165.781 383.099C165.397 382.586 165.101 382.162 164.893 381.826H164.652V391.578H161.818ZM164.604 375.437C164.604 376.83 164.808 378.059 165.217 379.124C165.625 380.18 166.222 381.009 167.006 381.61C167.791 382.202 168.752 382.498 169.889 382.498C171.074 382.498 172.062 382.186 172.855 381.562C173.656 380.929 174.256 380.08 174.657 379.016C175.065 377.943 175.269 376.75 175.269 375.437C175.269 374.14 175.069 372.971 174.669 371.93C174.276 370.881 173.68 370.052 172.879 369.444C172.086 368.827 171.09 368.519 169.889 368.519C168.736 368.519 167.767 368.811 166.982 369.396C166.198 369.972 165.605 370.781 165.205 371.822C164.804 372.854 164.604 374.059 164.604 375.437ZM189.921 385.044C188.256 385.044 186.795 384.648 185.538 383.855C184.289 383.063 183.312 381.954 182.607 380.529C181.911 379.104 181.562 377.438 181.562 375.533C181.562 373.611 181.911 371.934 182.607 370.501C183.312 369.067 184.289 367.954 185.538 367.162C186.795 366.369 188.256 365.973 189.921 365.973C191.587 365.973 193.044 366.369 194.293 367.162C195.55 367.954 196.527 369.067 197.223 370.501C197.928 371.934 198.28 373.611 198.28 375.533C198.28 377.438 197.928 379.104 197.223 380.529C196.527 381.954 195.55 383.063 194.293 383.855C193.044 384.648 191.587 385.044 189.921 385.044ZM189.921 382.498C191.186 382.498 192.227 382.174 193.044 381.526C193.86 380.877 194.465 380.024 194.857 378.967C195.25 377.911 195.446 376.766 195.446 375.533C195.446 374.3 195.25 373.151 194.857 372.086C194.465 371.021 193.86 370.16 193.044 369.504C192.227 368.847 191.186 368.519 189.921 368.519C188.656 368.519 187.615 368.847 186.799 369.504C185.982 370.16 185.377 371.021 184.985 372.086C184.593 373.151 184.397 374.3 184.397 375.533C184.397 376.766 184.593 377.911 184.985 378.967C185.377 380.024 185.982 380.877 186.799 381.526C187.615 382.174 188.656 382.498 189.921 382.498ZM200.637 389.945V382.018H202.174C202.551 381.626 202.875 381.201 203.147 380.745C203.419 380.289 203.655 379.748 203.856 379.124C204.064 378.491 204.24 377.722 204.384 376.818C204.528 375.905 204.656 374.804 204.768 373.515L205.393 366.213H217.114V382.018H219.949V389.945H217.114V384.66H203.471V389.945H200.637ZM205.393 382.018H214.28V368.855H208.035L207.555 373.515C207.354 375.445 207.106 377.13 206.81 378.571C206.514 380.012 206.041 381.161 205.393 382.018ZM225.536 391.578C225.056 391.578 224.628 391.538 224.251 391.458C223.875 391.386 223.615 391.314 223.471 391.242L224.191 388.744C224.88 388.92 225.488 388.984 226.017 388.936C226.545 388.888 227.014 388.651 227.422 388.227C227.838 387.811 228.219 387.134 228.563 386.197L229.091 384.756L222.27 366.213H225.344L230.436 380.913H230.629L235.721 366.213H238.795L230.965 387.35C230.613 388.303 230.176 389.092 229.656 389.716C229.135 390.349 228.531 390.817 227.842 391.121C227.162 391.426 226.393 391.578 225.536 391.578ZM242.536 384.66V366.213H245.371V374.236H247.244L253.874 366.213H257.525L250.079 375.1L257.621 384.66H253.97L247.917 376.878H245.371V384.66H242.536ZM275.209 366.213V382.018H277.803V390.617H274.969V384.66H260.701V366.213H263.536V382.018H272.375V366.213H275.209ZM285.003 380.481L293.891 366.213H297.157V384.66H294.323V370.392L285.484 384.66H282.169V366.213H285.003V380.481ZM305.183 380.481L314.07 366.213H317.337V384.66H314.503V370.392L305.663 384.66H302.349V366.213H305.183V380.481Z" fill="#008B95"/>
<path d="M316.284 55.2539V30.6577H319.263V41.6107H332.377V30.6577H335.356V55.2539H332.377V44.2529H319.263V55.2539H316.284ZM346.363 55.6863C345.194 55.6863 344.133 55.4661 343.18 55.0257C342.227 54.5773 341.471 53.9328 340.91 53.0921C340.35 52.2434 340.07 51.2186 340.07 50.0176C340.07 48.9607 340.278 48.104 340.694 47.4475C341.111 46.7829 341.667 46.2625 342.364 45.8862C343.06 45.5099 343.829 45.2297 344.669 45.0455C345.518 44.8534 346.371 44.7012 347.228 44.5891C348.348 44.445 349.257 44.3369 349.954 44.2649C350.658 44.1848 351.171 44.0527 351.491 43.8685C351.819 43.6844 351.983 43.3641 351.983 42.9078V42.8117C351.983 41.6267 351.659 40.7059 351.011 40.0494C350.37 39.3929 349.397 39.0646 348.092 39.0646C346.739 39.0646 345.678 39.3608 344.91 39.9533C344.141 40.5458 343.601 41.1783 343.288 41.8509L340.598 40.8901C341.078 39.7692 341.719 38.8965 342.52 38.2719C343.328 37.6394 344.209 37.1991 345.162 36.9509C346.123 36.6946 347.067 36.5665 347.996 36.5665C348.589 36.5665 349.269 36.6386 350.038 36.7827C350.815 36.9188 351.563 37.2031 352.284 37.6354C353.012 38.0678 353.617 38.7203 354.097 39.593C354.578 40.4657 354.818 41.6347 354.818 43.0999V55.2539H351.983V52.7559H351.839C351.647 53.1562 351.327 53.5845 350.879 54.0409C350.43 54.4973 349.834 54.8856 349.089 55.2059C348.344 55.5261 347.436 55.6863 346.363 55.6863ZM346.795 53.1402C347.916 53.1402 348.861 52.92 349.63 52.4796C350.406 52.0393 350.991 51.4708 351.383 50.7742C351.783 50.0777 351.983 49.345 351.983 48.5764V45.9823C351.863 46.1264 351.599 46.2585 351.191 46.3786C350.79 46.4907 350.326 46.5908 349.798 46.6789C349.277 46.7589 348.769 46.831 348.272 46.895C347.784 46.9511 347.388 46.9991 347.083 47.0392C346.347 47.1352 345.658 47.2914 345.018 47.5075C344.385 47.7157 343.873 48.032 343.48 48.4563C343.096 48.8727 342.904 49.4411 342.904 50.1617C342.904 51.1465 343.268 51.8911 343.997 52.3956C344.734 52.892 345.666 53.1402 346.795 53.1402ZM361.156 62.1716C360.676 62.1716 360.247 62.1316 359.871 62.0515C359.495 61.9794 359.234 61.9074 359.09 61.8353L359.811 59.3373C360.499 59.5134 361.108 59.5775 361.636 59.5294C362.165 59.4814 362.633 59.2452 363.042 58.8208C363.458 58.4045 363.838 57.7279 364.182 56.7912L364.711 55.35L357.889 36.8067H360.964L366.056 51.5068H366.248L371.34 36.8067H374.415L366.584 57.9441C366.232 58.8969 365.796 59.6855 365.275 60.3101C364.755 60.9426 364.15 61.411 363.462 61.7152C362.781 62.0195 362.013 62.1716 361.156 62.1716ZM378.156 55.2539V36.8067H380.99V44.8293H382.864L389.493 36.8067H393.144L385.698 45.694L393.24 55.2539H389.589L383.536 47.4715H380.99V55.2539H378.156ZM401.749 55.6863C400.58 55.6863 399.52 55.4661 398.567 55.0257C397.614 54.5773 396.857 53.9328 396.297 53.0921C395.736 52.2434 395.456 51.2186 395.456 50.0176C395.456 48.9607 395.664 48.104 396.081 47.4475C396.497 46.7829 397.054 46.2625 397.75 45.8862C398.447 45.5099 399.215 45.2297 400.056 45.0455C400.905 44.8534 401.757 44.7012 402.614 44.5891C403.735 44.445 404.644 44.3369 405.34 44.2649C406.045 44.1848 406.557 44.0527 406.878 43.8685C407.206 43.6844 407.37 43.3641 407.37 42.9078V42.8117C407.37 41.6267 407.046 40.7059 406.397 40.0494C405.757 39.3929 404.784 39.0646 403.479 39.0646C402.126 39.0646 401.065 39.3608 400.296 39.9533C399.528 40.5458 398.987 41.1783 398.675 41.8509L395.985 40.8901C396.465 39.7692 397.106 38.8965 397.906 38.2719C398.715 37.6394 399.596 37.1991 400.548 36.9509C401.509 36.6946 402.454 36.5665 403.383 36.5665C403.975 36.5665 404.656 36.6386 405.424 36.7827C406.201 36.9188 406.95 37.2031 407.67 37.6354C408.399 38.0678 409.003 38.7203 409.484 39.593C409.964 40.4657 410.204 41.6347 410.204 43.0999V55.2539H407.37V52.7559H407.226C407.034 53.1562 406.713 53.5845 406.265 54.0409C405.817 54.4973 405.22 54.8856 404.476 55.2059C403.731 55.5261 402.822 55.6863 401.749 55.6863ZM402.182 53.1402C403.303 53.1402 404.247 52.92 405.016 52.4796C405.793 52.0393 406.377 51.4708 406.77 50.7742C407.17 50.0777 407.37 49.345 407.37 48.5764V45.9823C407.25 46.1264 406.986 46.2585 406.577 46.3786C406.177 46.4907 405.713 46.5908 405.184 46.6789C404.664 46.7589 404.155 46.831 403.659 46.895C403.171 46.9511 402.774 46.9991 402.47 47.0392C401.733 47.1352 401.045 47.2914 400.404 47.5075C399.772 47.7157 399.259 48.032 398.867 48.4563C398.483 48.8727 398.291 49.4411 398.291 50.1617C398.291 51.1465 398.655 51.8911 399.383 52.3956C400.12 52.892 401.053 53.1402 402.182 53.1402Z" fill="#008B95"/>
<path d="M1314.31 14.1557V38.752H1311.33V16.7979H1298.94V38.752H1295.96V14.1557H1314.31ZM1319.93 45.6696V20.3048H1322.67V23.2352H1323.01C1323.21 22.9149 1323.5 22.5066 1323.87 22.0102C1324.25 21.5058 1324.78 21.0574 1325.48 20.6651C1326.19 20.2648 1327.14 20.0646 1328.34 20.0646C1329.89 20.0646 1331.26 20.4529 1332.45 21.2295C1333.63 22.0062 1334.56 23.1071 1335.22 24.5323C1335.88 25.9574 1336.22 27.6388 1336.22 29.5764C1336.22 31.53 1335.88 33.2234 1335.22 34.6566C1334.56 36.0818 1333.64 37.1867 1332.46 37.9713C1331.28 38.7479 1329.92 39.1363 1328.39 39.1363C1327.2 39.1363 1326.25 38.9401 1325.54 38.5478C1324.83 38.1475 1324.28 37.6951 1323.9 37.1907C1323.51 36.6782 1323.21 36.2539 1323.01 35.9176H1322.77V45.6696H1319.93ZM1322.72 29.5284C1322.72 30.9215 1322.92 32.1505 1323.33 33.2154C1323.74 34.2723 1324.34 35.101 1325.12 35.7014C1325.9 36.2939 1326.87 36.5902 1328 36.5902C1329.19 36.5902 1330.18 36.2779 1330.97 35.6534C1331.77 35.0209 1332.37 34.1722 1332.77 33.1073C1333.18 32.0344 1333.38 30.8414 1333.38 29.5284C1333.38 28.2313 1333.18 27.0623 1332.78 26.0215C1332.39 24.9726 1331.79 24.1439 1330.99 23.5354C1330.2 22.9189 1329.2 22.6107 1328 22.6107C1326.85 22.6107 1325.88 22.9029 1325.1 23.4874C1324.31 24.0639 1323.72 24.8725 1323.32 25.9134C1322.92 26.9462 1322.72 28.1512 1322.72 29.5284ZM1348.03 39.1363C1346.37 39.1363 1344.91 38.7399 1343.65 37.9473C1342.4 37.1546 1341.43 36.0457 1340.72 34.6206C1340.02 33.1954 1339.68 31.53 1339.68 29.6244C1339.68 27.7029 1340.02 26.0255 1340.72 24.5923C1341.43 23.1591 1342.4 22.0462 1343.65 21.2536C1344.91 20.4609 1346.37 20.0646 1348.03 20.0646C1349.7 20.0646 1351.16 20.4609 1352.41 21.2536C1353.66 22.0462 1354.64 23.1591 1355.34 24.5923C1356.04 26.0255 1356.39 27.7029 1356.39 29.6244C1356.39 31.53 1356.04 33.1954 1355.34 34.6206C1354.64 36.0457 1353.66 37.1546 1352.41 37.9473C1351.16 38.7399 1349.7 39.1363 1348.03 39.1363ZM1348.03 36.5902C1349.3 36.5902 1350.34 36.2659 1351.16 35.6174C1351.97 34.9688 1352.58 34.1161 1352.97 33.0593C1353.36 32.0024 1353.56 30.8575 1353.56 29.6244C1353.56 28.3914 1353.36 27.2425 1352.97 26.1776C1352.58 25.1127 1351.97 24.252 1351.16 23.5955C1350.34 22.939 1349.3 22.6107 1348.03 22.6107C1346.77 22.6107 1345.73 22.939 1344.91 23.5955C1344.1 24.252 1343.49 25.1127 1343.1 26.1776C1342.71 27.2425 1342.51 28.3914 1342.51 29.6244C1342.51 30.8575 1342.71 32.0024 1343.1 33.0593C1343.49 34.1161 1344.1 34.9688 1344.91 35.6174C1345.73 36.2659 1346.77 36.5902 1348.03 36.5902ZM1363.55 34.5725L1372.44 20.3048H1375.71V38.752H1372.87V24.4842L1364.04 38.752H1360.72V20.3048H1363.55V34.5725ZM1379.75 34.0441H1382.77C1382.84 34.8768 1383.21 35.5093 1383.9 35.9416C1384.6 36.374 1385.5 36.5902 1386.62 36.5902C1387.75 36.5902 1388.73 36.358 1389.54 35.8936C1390.34 35.4212 1390.75 34.6606 1390.75 33.6117C1390.75 32.9952 1390.6 32.4588 1390.29 32.0024C1389.99 31.538 1389.56 31.1777 1389.01 30.9215C1388.45 30.6653 1387.8 30.5372 1387.05 30.5372H1383.88V27.9911H1387.05C1388.18 27.9911 1389.01 27.7349 1389.55 27.2225C1390.09 26.7101 1390.36 26.0695 1390.36 25.3009C1390.36 24.4762 1390.07 23.8157 1389.49 23.3193C1388.9 22.8149 1388.07 22.5626 1387 22.5626C1385.92 22.5626 1385.02 22.8068 1384.3 23.2952C1383.58 23.7756 1383.2 24.3962 1383.16 25.1568H1380.18C1380.21 24.164 1380.52 23.2872 1381.09 22.5266C1381.67 21.758 1382.45 21.1575 1383.45 20.7251C1384.44 20.2848 1385.58 20.0646 1386.86 20.0646C1388.15 20.0646 1389.28 20.2928 1390.23 20.7492C1391.19 21.1975 1391.93 21.81 1392.45 22.5867C1392.98 23.3553 1393.25 24.228 1393.25 25.2048C1393.25 26.2457 1392.95 27.0864 1392.37 27.7269C1391.78 28.3674 1391.05 28.8238 1390.17 29.096V29.2882C1390.87 29.3362 1391.47 29.5604 1391.99 29.9607C1392.51 30.353 1392.91 30.8695 1393.2 31.51C1393.49 32.1425 1393.63 32.8431 1393.63 33.6117C1393.63 34.7326 1393.33 35.7095 1392.73 36.5421C1392.13 37.3668 1391.3 38.0073 1390.26 38.4637C1389.21 38.9121 1388.01 39.1363 1386.66 39.1363C1385.36 39.1363 1384.19 38.9241 1383.16 38.4997C1382.12 38.0674 1381.3 37.4709 1380.7 36.7103C1380.1 35.9416 1379.78 35.0529 1379.75 34.0441ZM1397.61 38.752V20.3048H1405.15C1407.14 20.3048 1408.72 20.7532 1409.89 21.6499C1411.05 22.5466 1411.64 23.7316 1411.64 25.2048C1411.64 26.3257 1411.31 27.1945 1410.64 27.811C1409.98 28.4195 1409.13 28.8318 1408.08 29.048C1408.76 29.1441 1409.43 29.3843 1410.07 29.7686C1410.71 30.1529 1411.25 30.6813 1411.68 31.3539C1412.1 32.0184 1412.31 32.8351 1412.31 33.8039C1412.31 34.7487 1412.07 35.5934 1411.59 36.338C1411.11 37.0826 1410.42 37.6711 1409.53 38.1034C1408.63 38.5358 1407.56 38.752 1406.31 38.752H1397.61ZM1400.3 36.1578H1406.31C1407.28 36.1578 1408.05 35.9256 1408.6 35.4612C1409.15 34.9969 1409.43 34.3643 1409.43 33.5637C1409.43 32.6109 1409.15 31.8623 1408.6 31.3178C1408.05 30.7654 1407.28 30.4892 1406.31 30.4892H1400.3V36.1578ZM1400.3 28.0391H1405.15C1405.91 28.0391 1406.57 27.9351 1407.11 27.7269C1407.66 27.5107 1408.07 27.2065 1408.36 26.8141C1408.66 26.4138 1408.8 25.9414 1408.8 25.397C1408.8 24.6203 1408.48 24.0118 1407.83 23.5715C1407.18 23.1231 1406.29 22.8989 1405.15 22.8989H1400.3V28.0391ZM1424.1 39.1363C1422.43 39.1363 1420.97 38.7399 1419.71 37.9473C1418.46 37.1546 1417.49 36.0457 1416.78 34.6206C1416.09 33.1954 1415.74 31.53 1415.74 29.6244C1415.74 27.7029 1416.09 26.0255 1416.78 24.5923C1417.49 23.1591 1418.46 22.0462 1419.71 21.2536C1420.97 20.4609 1422.43 20.0646 1424.1 20.0646C1425.76 20.0646 1427.22 20.4609 1428.47 21.2536C1429.73 22.0462 1430.7 23.1591 1431.4 24.5923C1432.1 26.0255 1432.46 27.7029 1432.46 29.6244C1432.46 31.53 1432.1 33.1954 1431.4 34.6206C1430.7 36.0457 1429.73 37.1546 1428.47 37.9473C1427.22 38.7399 1425.76 39.1363 1424.1 39.1363ZM1424.1 36.5902C1425.36 36.5902 1426.4 36.2659 1427.22 35.6174C1428.04 34.9688 1428.64 34.1161 1429.03 33.0593C1429.42 32.0024 1429.62 30.8575 1429.62 29.6244C1429.62 28.3914 1429.42 27.2425 1429.03 26.1776C1428.64 25.1127 1428.04 24.252 1427.22 23.5955C1426.4 22.939 1425.36 22.6107 1424.1 22.6107C1422.83 22.6107 1421.79 22.939 1420.97 23.5955C1420.16 24.252 1419.55 25.1127 1419.16 26.1776C1418.77 27.2425 1418.57 28.3914 1418.57 29.6244C1418.57 30.8575 1418.77 32.0024 1419.16 33.0593C1419.55 34.1161 1420.16 34.9688 1420.97 35.6174C1421.79 36.2659 1422.83 36.5902 1424.1 36.5902ZM1434.81 44.0363V36.1098H1436.35C1436.73 35.7175 1437.05 35.2931 1437.32 34.8367C1437.59 34.3804 1437.83 33.8399 1438.03 33.2154C1438.24 32.5829 1438.42 31.8142 1438.56 30.9095C1438.7 29.9968 1438.83 28.8958 1438.94 27.6068L1439.57 20.3048H1451.29V36.1098H1454.12V44.0363H1451.29V38.752H1437.65V44.0363H1434.81ZM1439.57 36.1098H1448.46V22.947H1442.21L1441.73 27.6068C1441.53 29.5364 1441.28 31.2218 1440.99 32.6629C1440.69 34.1041 1440.22 35.2531 1439.57 36.1098ZM1460.72 34.5725L1469.61 20.3048H1472.87V38.752H1470.04V24.4842L1461.2 38.752H1457.89V20.3048H1460.72V34.5725ZM1475.56 22.947V20.3048H1490.54V22.947H1484.49V38.752H1481.66V22.947H1475.56ZM1501.46 39.1363C1499.68 39.1363 1498.14 38.7439 1496.86 37.9593C1495.57 37.1666 1494.59 36.0617 1493.89 34.6446C1493.2 33.2194 1492.86 31.562 1492.86 29.6725C1492.86 27.7829 1493.2 26.1176 1493.89 24.6764C1494.59 23.2272 1495.55 22.0983 1496.8 21.2896C1498.04 20.4729 1499.5 20.0646 1501.17 20.0646C1502.13 20.0646 1503.08 20.2247 1504.01 20.545C1504.95 20.8652 1505.8 21.3857 1506.57 22.1063C1507.34 22.8189 1507.95 23.7636 1508.41 24.9406C1508.87 26.1176 1509.09 27.5668 1509.09 29.2882V30.4892H1494.87V28.0391H1506.21C1506.21 26.9983 1506 26.0695 1505.59 25.2529C1505.18 24.4362 1504.59 23.7917 1503.83 23.3193C1503.08 22.8469 1502.19 22.6107 1501.17 22.6107C1500.04 22.6107 1499.06 22.8909 1498.24 23.4514C1497.42 24.0038 1496.79 24.7244 1496.35 25.6132C1495.91 26.5019 1495.69 27.4547 1495.69 28.4715V30.1048C1495.69 31.498 1495.93 32.679 1496.41 33.6478C1496.9 34.6085 1497.58 35.3411 1498.44 35.8456C1499.31 36.342 1500.31 36.5902 1501.46 36.5902C1502.2 36.5902 1502.87 36.4861 1503.47 36.2779C1504.08 36.0617 1504.61 35.7415 1505.05 35.3171C1505.49 34.8848 1505.83 34.3483 1506.07 33.7078L1508.81 34.4764C1508.52 35.4052 1508.03 36.2219 1507.35 36.9265C1506.67 37.623 1505.83 38.1675 1504.83 38.5598C1503.83 38.9441 1502.7 39.1363 1501.46 39.1363ZM1511.77 38.752V36.1098H1512.44C1513 36.1098 1513.46 36.0017 1513.83 35.7855C1514.19 35.5613 1514.49 35.173 1514.71 34.6206C1514.95 34.0601 1515.12 33.2835 1515.24 32.2906C1515.37 31.2898 1515.46 30.0168 1515.52 28.4715L1515.85 20.3048H1528.15V38.752H1525.32V22.947H1518.55L1518.26 29.5284C1518.19 31.0416 1518.06 32.3747 1517.85 33.5277C1517.65 34.6726 1517.34 35.6334 1516.92 36.41C1516.52 37.1867 1515.97 37.7711 1515.29 38.1635C1514.61 38.5558 1513.76 38.752 1512.73 38.752H1511.77ZM1535.8 26.9823H1541.09C1543.25 26.9823 1544.9 27.5307 1546.05 28.6276C1547.19 29.7245 1547.77 31.1137 1547.77 32.7951C1547.77 33.9 1547.51 34.9048 1547 35.8095C1546.48 36.7063 1545.73 37.4229 1544.74 37.9593C1543.75 38.4877 1542.53 38.752 1541.09 38.752H1533.35V20.3048H1536.19V36.1098H1541.09C1542.21 36.1098 1543.13 35.8135 1543.85 35.2211C1544.57 34.6286 1544.93 33.8679 1544.93 32.9392C1544.93 31.9624 1544.57 31.1657 1543.85 30.5492C1543.13 29.9327 1542.21 29.6244 1541.09 29.6244H1535.8V26.9823Z" fill="#00323E"/>
<path d="M1293.56 84.6203V76.6938H1295.09C1295.47 76.3014 1295.79 75.8771 1296.07 75.4207C1296.34 74.9643 1296.57 74.4239 1296.77 73.7994C1296.98 73.1669 1297.16 72.3982 1297.3 71.4935C1297.45 70.5807 1297.57 69.4798 1297.69 68.1908L1298.31 60.8888H1310.03V76.6938H1312.87V84.6203H1310.03V79.3359H1296.39V84.6203H1293.56ZM1298.31 76.6938H1307.2V63.5309H1300.95L1300.47 68.1908C1300.27 70.1204 1300.02 71.8057 1299.73 73.2469C1299.43 74.6881 1298.96 75.8371 1298.31 76.6938ZM1324.12 79.7203C1322.46 79.7203 1321 79.3239 1319.74 78.5313C1318.49 77.7386 1317.51 76.6297 1316.81 75.2045C1316.11 73.7794 1315.76 72.114 1315.76 70.2084C1315.76 68.2869 1316.11 66.6095 1316.81 65.1763C1317.51 63.7431 1318.49 62.6302 1319.74 61.8376C1321 61.0449 1322.46 60.6486 1324.12 60.6486C1325.79 60.6486 1327.25 61.0449 1328.49 61.8376C1329.75 62.6302 1330.73 63.7431 1331.43 65.1763C1332.13 66.6095 1332.48 68.2869 1332.48 70.2084C1332.48 72.114 1332.13 73.7794 1331.43 75.2045C1330.73 76.6297 1329.75 77.7386 1328.49 78.5313C1327.25 79.3239 1325.79 79.7203 1324.12 79.7203ZM1324.12 77.1742C1325.39 77.1742 1326.43 76.8499 1327.25 76.2014C1328.06 75.5528 1328.67 74.7001 1329.06 73.6433C1329.45 72.5864 1329.65 71.4414 1329.65 70.2084C1329.65 68.9754 1329.45 67.8265 1329.06 66.7616C1328.67 65.6967 1328.06 64.836 1327.25 64.1795C1326.43 63.5229 1325.39 63.1947 1324.12 63.1947C1322.86 63.1947 1321.82 63.5229 1321 64.1795C1320.18 64.836 1319.58 65.6967 1319.19 66.7616C1318.79 67.8265 1318.6 68.9754 1318.6 70.2084C1318.6 71.4414 1318.79 72.5864 1319.19 73.6433C1319.58 74.7001 1320.18 75.5528 1321 76.2014C1321.82 76.8499 1322.86 77.1742 1324.12 77.1742ZM1350.5 53.9711L1351.94 55.7005C1351.38 56.245 1350.73 56.6253 1350 56.8414C1349.26 57.0576 1348.43 57.1897 1347.5 57.2378C1346.57 57.2858 1345.54 57.3338 1344.4 57.3819C1343.12 57.4299 1342.06 57.7422 1341.22 58.3187C1340.38 58.8951 1339.73 59.7278 1339.27 60.8167C1338.81 61.9056 1338.52 63.2427 1338.39 64.828H1338.63C1339.26 63.6751 1340.12 62.8264 1341.23 62.2819C1342.33 61.7375 1343.52 61.4652 1344.78 61.4652C1346.22 61.4652 1347.52 61.8015 1348.67 62.4741C1349.83 63.1466 1350.74 64.1434 1351.41 65.4645C1352.09 66.7856 1352.42 68.415 1352.42 70.3526C1352.42 72.2821 1352.08 73.9475 1351.39 75.3487C1350.71 76.7498 1349.75 77.8307 1348.52 78.5913C1347.29 79.3439 1345.86 79.7203 1344.21 79.7203C1342.56 79.7203 1341.11 79.3319 1339.87 78.5553C1338.63 77.7707 1337.67 76.6097 1336.98 75.0724C1336.29 73.5272 1335.94 71.6176 1335.94 69.3437V67.3741C1335.94 63.2667 1336.64 60.1522 1338.03 58.0304C1339.43 55.9087 1341.54 54.8118 1344.35 54.7397C1345.34 54.7077 1346.23 54.6997 1347.01 54.7157C1347.78 54.7317 1348.46 54.6957 1349.03 54.6076C1349.61 54.5195 1350.1 54.3074 1350.5 53.9711ZM1344.21 77.1742C1345.32 77.1742 1346.28 76.8939 1347.08 76.3335C1347.89 75.773 1348.51 74.9844 1348.94 73.9675C1349.37 72.9427 1349.59 71.7377 1349.59 70.3526C1349.59 69.0074 1349.37 67.8625 1348.93 66.9177C1348.49 65.973 1347.87 65.2524 1347.07 64.756C1346.26 64.2595 1345.29 64.0113 1344.16 64.0113C1343.33 64.0113 1342.59 64.1515 1341.94 64.4317C1341.28 64.7119 1340.72 65.1243 1340.26 65.6687C1339.79 66.2131 1339.43 66.8777 1339.17 67.6623C1338.93 68.447 1338.79 69.3437 1338.78 70.3526C1338.78 72.4182 1339.26 74.0716 1340.23 75.3126C1341.2 76.5537 1342.53 77.1742 1344.21 77.1742ZM1362.19 79.7683C1361.02 79.7683 1359.96 79.5481 1359 79.1077C1358.05 78.6594 1357.29 78.0149 1356.73 77.1742C1356.17 76.3255 1355.89 75.3006 1355.89 74.0996C1355.89 73.0428 1356.1 72.1861 1356.52 71.5295C1356.93 70.865 1357.49 70.3445 1358.19 69.9682C1358.88 69.5919 1359.65 69.3117 1360.49 69.1275C1361.34 68.9354 1362.19 68.7833 1363.05 68.6712C1364.17 68.5271 1365.08 68.419 1365.78 68.3469C1366.48 68.2668 1366.99 68.1347 1367.31 67.9506C1367.64 67.7664 1367.81 67.4462 1367.81 66.9898V66.8937C1367.81 65.7087 1367.48 64.788 1366.83 64.1314C1366.19 63.4749 1365.22 63.1466 1363.92 63.1466C1362.56 63.1466 1361.5 63.4429 1360.73 64.0354C1359.96 64.6278 1359.42 65.2604 1359.11 65.9329L1356.42 64.9721C1356.9 63.8512 1357.54 62.9785 1358.34 62.354C1359.15 61.7215 1360.03 61.2811 1360.98 61.0329C1361.95 60.7767 1362.89 60.6486 1363.82 60.6486C1364.41 60.6486 1365.09 60.7206 1365.86 60.8648C1366.64 61.0009 1367.39 61.2851 1368.11 61.7175C1368.84 62.1498 1369.44 62.8023 1369.92 63.6751C1370.4 64.5478 1370.64 65.7167 1370.64 67.1819V79.3359H1367.81V76.8379H1367.66C1367.47 77.2382 1367.15 77.6666 1366.7 78.1229C1366.25 78.5793 1365.66 78.9676 1364.91 79.2879C1364.17 79.6082 1363.26 79.7683 1362.19 79.7683ZM1362.62 77.2222C1363.74 77.2222 1364.68 77.002 1365.45 76.5617C1366.23 76.1213 1366.81 75.5528 1367.21 74.8563C1367.61 74.1597 1367.81 73.4271 1367.81 72.6584V70.0643C1367.69 70.2084 1367.42 70.3405 1367.01 70.4606C1366.61 70.5727 1366.15 70.6728 1365.62 70.7609C1365.1 70.841 1364.59 70.913 1364.1 70.9771C1363.61 71.0331 1363.21 71.0812 1362.91 71.1212C1362.17 71.2173 1361.48 71.3734 1360.84 71.5896C1360.21 71.7977 1359.7 72.114 1359.3 72.5383C1358.92 72.9547 1358.73 73.5232 1358.73 74.2438C1358.73 75.2286 1359.09 75.9732 1359.82 76.4776C1360.56 76.974 1361.49 77.2222 1362.62 77.2222ZM1375.81 79.3359V60.8888H1383.36C1385.34 60.8888 1386.92 61.3371 1388.09 62.2339C1389.26 63.1306 1389.84 64.3156 1389.84 65.7888C1389.84 66.9097 1389.51 67.7784 1388.84 68.3949C1388.18 69.0034 1387.33 69.4158 1386.29 69.632C1386.97 69.728 1387.63 69.9682 1388.27 70.3526C1388.92 70.7369 1389.45 71.2653 1389.88 71.9379C1390.3 72.6024 1390.51 73.4191 1390.51 74.3879C1390.51 75.3326 1390.27 76.1773 1389.79 76.922C1389.31 77.6666 1388.62 78.255 1387.73 78.6874C1386.83 79.1198 1385.76 79.3359 1384.51 79.3359H1375.81ZM1378.5 76.7418H1384.51C1385.49 76.7418 1386.25 76.5096 1386.8 76.0452C1387.36 75.5809 1387.63 74.9483 1387.63 74.1477C1387.63 73.1949 1387.36 72.4463 1386.8 71.9018C1386.25 71.3494 1385.49 71.0731 1384.51 71.0731H1378.5V76.7418ZM1378.5 68.6231H1383.36C1384.12 68.6231 1384.77 68.519 1385.31 68.3109C1385.86 68.0947 1386.27 67.7904 1386.56 67.3981C1386.86 66.9978 1387.01 66.5254 1387.01 65.981C1387.01 65.2043 1386.68 64.5958 1386.03 64.1555C1385.39 63.7071 1384.49 63.4829 1383.36 63.4829H1378.5V68.6231ZM1402.3 79.7203C1400.63 79.7203 1399.17 79.3239 1397.91 78.5313C1396.67 77.7386 1395.69 76.6297 1394.98 75.2045C1394.29 73.7794 1393.94 72.114 1393.94 70.2084C1393.94 68.2869 1394.29 66.6095 1394.98 65.1763C1395.69 63.7431 1396.67 62.6302 1397.91 61.8376C1399.17 61.0449 1400.63 60.6486 1402.3 60.6486C1403.96 60.6486 1405.42 61.0449 1406.67 61.8376C1407.93 62.6302 1408.9 63.7431 1409.6 65.1763C1410.31 66.6095 1410.66 68.2869 1410.66 70.2084C1410.66 72.114 1410.31 73.7794 1409.6 75.2045C1408.9 76.6297 1407.93 77.7386 1406.67 78.5313C1405.42 79.3239 1403.96 79.7203 1402.3 79.7203ZM1402.3 77.1742C1403.56 77.1742 1404.6 76.8499 1405.42 76.2014C1406.24 75.5528 1406.84 74.7001 1407.23 73.6433C1407.63 72.5864 1407.82 71.4414 1407.82 70.2084C1407.82 68.9754 1407.63 67.8265 1407.23 66.7616C1406.84 65.6967 1406.24 64.836 1405.42 64.1795C1404.6 63.5229 1403.56 63.1947 1402.3 63.1947C1401.03 63.1947 1399.99 63.5229 1399.18 64.1795C1398.36 64.836 1397.75 65.6967 1397.36 66.7616C1396.97 67.8265 1396.77 68.9754 1396.77 70.2084C1396.77 71.4414 1396.97 72.5864 1397.36 73.6433C1397.75 74.7001 1398.36 75.5528 1399.18 76.2014C1399.99 76.8499 1401.03 77.1742 1402.3 77.1742ZM1414.98 79.3359V60.8888H1417.82V68.9114H1419.69L1426.32 60.8888H1429.97L1422.53 69.7761L1430.07 79.3359H1426.42L1420.36 71.5535H1417.82V79.3359H1414.98Z" fill="#008B95"/>
<path d="M1335.64 353.488C1335.64 353.488 1336.69 341.482 1336.79 340.299C1336.96 338.405 1335.44 334.955 1331.75 334.955H1301.42C1297.73 334.955 1295.97 337.458 1295.74 339.825C1295.6 341.246 1293.1 370.297 1292.93 371.988C1292.66 374.693 1294.52 377.737 1297.9 377.737H1328.07C1332.06 377.737 1333.61 375.606 1333.95 372.36C1334.16 370.398 1335.14 358.561 1335.14 358.561H1316.91L1316.13 367.693H1311.5L1313.49 345H1318.09L1317.35 353.488H1335.58H1335.64Z" fill="#008B95"/>
<path d="M1363.78 338.641C1363.14 340.502 1357.83 357.141 1357.83 357.141L1360.2 334.989H1341.97L1338.15 377.737H1351.88C1355.33 377.737 1356.51 375.776 1357.09 374.22C1357.76 372.326 1362.83 358.358 1362.83 358.358L1360.97 377.737H1379.2L1382.96 334.955C1382.96 334.955 1369.87 334.955 1368.65 334.955C1365.51 334.955 1364.26 337.289 1363.78 338.608" fill="#008B95"/>
<path d="M1456.18 334.955L1454.49 354.469H1449.85L1451.58 334.955H1433.35C1433.35 334.955 1431.59 355.585 1431.42 357.614C1431.18 359.982 1432.54 363.364 1436.6 363.364H1453.74L1453.37 367.693H1430.54L1429.66 377.737H1465.95C1468.42 377.737 1470.79 376.148 1471.09 372.698C1471.29 370.5 1474.44 334.955 1474.44 334.955H1456.21H1456.18Z" fill="#008B95"/>
<path d="M1495.44 355.619L1496.36 345H1500.92L1500.01 355.619H1495.44ZM1503.76 334.989H1479.01L1475.25 377.737H1493.48L1494.63 364.514H1512.35C1515.5 364.514 1517.56 362.924 1517.9 359.238C1518.03 357.817 1519.46 341.618 1519.56 340.163C1519.76 337.018 1517.26 334.955 1514.15 334.955H1503.73L1503.76 334.989Z" fill="#008B95"/>
<path d="M1407.54 368.842H1402.88L1403.82 358.223H1408.49L1407.54 368.842ZM1404.6 349.328L1404.97 345H1427.8L1428.68 334.955H1387.59L1383.84 377.737H1420.23C1422.53 377.737 1425.03 376.384 1425.37 372.799C1425.6 370.128 1426.72 357.411 1426.96 355.078C1427.23 352 1425.27 349.328 1421.41 349.328H1404.57H1404.6Z" fill="#008B95"/>
<path d="M1314.31 628.562V653.158H1311.33V631.204H1298.94V653.158H1295.96V628.562H1314.31ZM1327.43 653.543C1325.76 653.543 1324.3 653.146 1323.04 652.354C1321.79 651.561 1320.82 650.452 1320.11 649.027C1319.42 647.602 1319.07 645.936 1319.07 644.031C1319.07 642.109 1319.42 640.432 1320.11 638.999C1320.82 637.565 1321.79 636.452 1323.04 635.66C1324.3 634.867 1325.76 634.471 1327.43 634.471C1329.09 634.471 1330.55 634.867 1331.8 635.66C1333.05 636.452 1334.03 637.565 1334.73 638.999C1335.43 640.432 1335.78 642.109 1335.78 644.031C1335.78 645.936 1335.43 647.602 1334.73 649.027C1334.03 650.452 1333.05 651.561 1331.8 652.354C1330.55 653.146 1329.09 653.543 1327.43 653.543ZM1327.43 650.996C1328.69 650.996 1329.73 650.672 1330.55 650.024C1331.37 649.375 1331.97 648.522 1332.36 647.466C1332.75 646.409 1332.95 645.264 1332.95 644.031C1332.95 642.798 1332.75 641.649 1332.36 640.584C1331.97 639.519 1331.37 638.658 1330.55 638.002C1329.73 637.345 1328.69 637.017 1327.43 637.017C1326.16 637.017 1325.12 637.345 1324.3 638.002C1323.49 638.658 1322.88 639.519 1322.49 640.584C1322.1 641.649 1321.9 642.798 1321.9 644.031C1321.9 645.264 1322.1 646.409 1322.49 647.466C1322.88 648.522 1323.49 649.375 1324.3 650.024C1325.12 650.672 1326.16 650.996 1327.43 650.996ZM1337.7 637.353V634.711H1352.69V637.353H1346.64V653.158H1343.8V637.353H1337.7ZM1356.82 660.076V634.711H1359.56V637.641H1359.9C1360.11 637.321 1360.39 636.913 1360.76 636.416C1361.14 635.912 1361.68 635.464 1362.37 635.071C1363.08 634.671 1364.03 634.471 1365.23 634.471C1366.78 634.471 1368.15 634.859 1369.34 635.636C1370.52 636.412 1371.45 637.513 1372.11 638.939C1372.78 640.364 1373.11 642.045 1373.11 643.983C1373.11 645.936 1372.78 647.63 1372.11 649.063C1371.45 650.488 1370.53 651.593 1369.35 652.378C1368.17 653.154 1366.82 653.543 1365.28 653.543C1364.09 653.543 1363.14 653.346 1362.43 652.954C1361.72 652.554 1361.17 652.101 1360.79 651.597C1360.4 651.084 1360.11 650.66 1359.9 650.324H1359.66V660.076H1356.82ZM1359.61 643.935C1359.61 645.328 1359.81 646.557 1360.22 647.622C1360.63 648.679 1361.23 649.507 1362.01 650.108C1362.8 650.7 1363.76 650.996 1364.89 650.996C1366.08 650.996 1367.07 650.684 1367.86 650.06C1368.66 649.427 1369.26 648.578 1369.66 647.514C1370.07 646.441 1370.27 645.248 1370.27 643.935C1370.27 642.638 1370.07 641.469 1369.67 640.428C1369.28 639.379 1368.68 638.55 1367.88 637.942C1367.09 637.325 1366.09 637.017 1364.89 637.017C1363.74 637.017 1362.77 637.309 1361.99 637.894C1361.2 638.47 1360.61 639.279 1360.21 640.32C1359.81 641.352 1359.61 642.557 1359.61 643.935ZM1385.17 653.543C1383.39 653.543 1381.86 653.15 1380.57 652.366C1379.29 651.573 1378.3 650.468 1377.6 649.051C1376.91 647.626 1376.57 645.968 1376.57 644.079C1376.57 642.189 1376.91 640.524 1377.6 639.083C1378.3 637.633 1379.27 636.505 1380.51 635.696C1381.76 634.879 1383.21 634.471 1384.88 634.471C1385.84 634.471 1386.79 634.631 1387.72 634.951C1388.66 635.271 1389.51 635.792 1390.28 636.513C1391.05 637.225 1391.66 638.17 1392.12 639.347C1392.58 640.524 1392.8 641.973 1392.8 643.694V644.895H1378.59V642.445H1389.92C1389.92 641.405 1389.71 640.476 1389.3 639.659C1388.89 638.842 1388.31 638.198 1387.54 637.726C1386.79 637.253 1385.9 637.017 1384.88 637.017C1383.75 637.017 1382.77 637.297 1381.95 637.858C1381.13 638.41 1380.5 639.131 1380.06 640.019C1379.62 640.908 1379.4 641.861 1379.4 642.878V644.511C1379.4 645.904 1379.64 647.085 1380.12 648.054C1380.61 649.015 1381.29 649.747 1382.15 650.252C1383.02 650.748 1384.02 650.996 1385.17 650.996C1385.91 650.996 1386.58 650.892 1387.18 650.684C1387.79 650.468 1388.32 650.148 1388.76 649.723C1389.2 649.291 1389.54 648.755 1389.78 648.114L1392.52 648.883C1392.23 649.811 1391.74 650.628 1391.06 651.333C1390.38 652.029 1389.54 652.574 1388.54 652.966C1387.54 653.35 1386.42 653.543 1385.17 653.543ZM1410.81 627.793L1412.25 629.523C1411.69 630.067 1411.04 630.448 1410.3 630.664C1409.57 630.88 1408.73 631.012 1407.81 631.06C1406.88 631.108 1405.84 631.156 1404.71 631.204C1403.43 631.252 1402.36 631.564 1401.52 632.141C1400.68 632.717 1400.03 633.55 1399.58 634.639C1399.12 635.728 1398.83 637.065 1398.7 638.65H1398.94C1399.57 637.497 1400.43 636.649 1401.54 636.104C1402.64 635.56 1403.83 635.288 1405.09 635.288C1406.53 635.288 1407.83 635.624 1408.98 636.296C1410.14 636.969 1411.05 637.966 1411.72 639.287C1412.39 640.608 1412.73 642.237 1412.73 644.175C1412.73 646.104 1412.38 647.77 1411.7 649.171C1411.02 650.572 1410.06 651.653 1408.83 652.414C1407.6 653.166 1406.16 653.543 1404.51 653.543C1402.87 653.543 1401.42 653.154 1400.18 652.378C1398.94 651.593 1397.97 650.432 1397.28 648.895C1396.6 647.349 1396.25 645.44 1396.25 643.166V641.196C1396.25 637.089 1396.95 633.974 1398.34 631.853C1399.74 629.731 1401.85 628.634 1404.66 628.562C1405.65 628.53 1406.54 628.522 1407.31 628.538C1408.09 628.554 1408.77 628.518 1409.34 628.43C1409.92 628.342 1410.41 628.13 1410.81 627.793ZM1404.51 650.996C1405.63 650.996 1406.58 650.716 1407.38 650.156C1408.19 649.595 1408.81 648.807 1409.25 647.79C1409.68 646.765 1409.89 645.56 1409.89 644.175C1409.89 642.83 1409.67 641.685 1409.23 640.74C1408.8 639.795 1408.18 639.075 1407.37 638.578C1406.56 638.082 1405.6 637.834 1404.47 637.834C1403.64 637.834 1402.9 637.974 1402.24 638.254C1401.59 638.534 1401.03 638.947 1400.56 639.491C1400.1 640.035 1399.74 640.7 1399.48 641.485C1399.23 642.269 1399.1 643.166 1399.09 644.175C1399.09 646.241 1399.57 647.894 1400.54 649.135C1401.51 650.376 1402.83 650.996 1404.51 650.996ZM1419.9 648.979L1428.79 634.711H1432.05V653.158H1429.22V638.89L1420.38 653.158H1417.06V634.711H1419.9V648.979ZM1434.73 637.353V634.711H1449.72V637.353H1443.67V653.158H1440.84V637.353H1434.73ZM1460.63 653.543C1458.86 653.543 1457.32 653.15 1456.03 652.366C1454.75 651.573 1453.76 650.468 1453.07 649.051C1452.38 647.626 1452.03 645.968 1452.03 644.079C1452.03 642.189 1452.38 640.524 1453.07 639.083C1453.76 637.633 1454.73 636.505 1455.97 635.696C1457.22 634.879 1458.68 634.471 1460.35 634.471C1461.31 634.471 1462.25 634.631 1463.19 634.951C1464.13 635.271 1464.98 635.792 1465.75 636.513C1466.52 637.225 1467.13 638.17 1467.59 639.347C1468.04 640.524 1468.27 641.973 1468.27 643.694V644.895H1454.05V642.445H1465.39C1465.39 641.405 1465.18 640.476 1464.76 639.659C1464.36 638.842 1463.77 638.198 1463.01 637.726C1462.26 637.253 1461.37 637.017 1460.35 637.017C1459.22 637.017 1458.24 637.297 1457.41 637.858C1456.6 638.41 1455.97 639.131 1455.53 640.019C1455.09 640.908 1454.87 641.861 1454.87 642.878V644.511C1454.87 645.904 1455.11 647.085 1455.59 648.054C1456.08 649.015 1456.75 649.747 1457.62 650.252C1458.48 650.748 1459.49 650.996 1460.63 650.996C1461.38 650.996 1462.05 650.892 1462.65 650.684C1463.26 650.468 1463.78 650.148 1464.22 649.723C1464.66 649.291 1465.01 648.755 1465.25 648.114L1467.98 648.883C1467.7 649.811 1467.21 650.628 1466.53 651.333C1465.85 652.029 1465.01 652.574 1464.01 652.966C1463.01 653.35 1461.88 653.543 1460.63 653.543ZM1470.95 653.158V650.516H1471.62C1472.18 650.516 1472.64 650.408 1473 650.192C1473.37 649.968 1473.67 649.579 1473.89 649.027C1474.12 648.466 1474.3 647.69 1474.42 646.697C1474.55 645.696 1474.64 644.423 1474.7 642.878L1475.03 634.711H1487.33V653.158H1484.5V637.353H1477.72L1477.44 643.935C1477.37 645.448 1477.24 646.781 1477.03 647.934C1476.83 649.079 1476.52 650.04 1476.1 650.816C1475.69 651.593 1475.15 652.177 1474.47 652.57C1473.79 652.962 1472.94 653.158 1471.91 653.158H1470.95ZM1494.98 641.389H1500.27C1502.43 641.389 1504.08 641.937 1505.23 643.034C1506.37 644.131 1506.94 645.52 1506.94 647.201C1506.94 648.306 1506.69 649.311 1506.17 650.216C1505.66 651.113 1504.91 651.829 1503.92 652.366C1502.92 652.894 1501.71 653.158 1500.27 653.158H1492.53V634.711H1495.37V650.516H1500.27C1501.39 650.516 1502.31 650.22 1503.03 649.627C1503.75 649.035 1504.11 648.274 1504.11 647.345C1504.11 646.369 1503.75 645.572 1503.03 644.955C1502.31 644.339 1501.39 644.031 1500.27 644.031H1494.98V641.389Z" fill="#008B95"/>
<path d="M1306.91 675.295V677.937H1298.36V693.742H1295.52V675.295H1306.91ZM1317.58 694.127C1315.92 694.127 1314.46 693.73 1313.2 692.938C1311.95 692.145 1310.97 691.036 1310.27 689.611C1309.57 688.186 1309.23 686.52 1309.23 684.615C1309.23 682.693 1309.57 681.016 1310.27 679.583C1310.97 678.149 1311.95 677.036 1313.2 676.244C1314.46 675.451 1315.92 675.055 1317.58 675.055C1319.25 675.055 1320.71 675.451 1321.96 676.244C1323.21 677.036 1324.19 678.149 1324.89 679.583C1325.59 681.016 1325.94 682.693 1325.94 684.615C1325.94 686.52 1325.59 688.186 1324.89 689.611C1324.19 691.036 1323.21 692.145 1321.96 692.938C1320.71 693.73 1319.25 694.127 1317.58 694.127ZM1317.58 691.58C1318.85 691.58 1319.89 691.256 1320.71 690.608C1321.52 689.959 1322.13 689.106 1322.52 688.05C1322.91 686.993 1323.11 685.848 1323.11 684.615C1323.11 683.382 1322.91 682.233 1322.52 681.168C1322.13 680.103 1321.52 679.242 1320.71 678.586C1319.89 677.929 1318.85 677.601 1317.58 677.601C1316.32 677.601 1315.28 677.929 1314.46 678.586C1313.64 679.242 1313.04 680.103 1312.65 681.168C1312.26 682.233 1312.06 683.382 1312.06 684.615C1312.06 685.848 1312.26 686.993 1312.65 688.05C1313.04 689.106 1313.64 689.959 1314.46 690.608C1315.28 691.256 1316.32 691.58 1317.58 691.58ZM1327.86 677.937V675.295H1342.85V677.937H1336.79V693.742H1333.96V677.937H1327.86ZM1353.52 694.127C1351.85 694.127 1350.39 693.73 1349.13 692.938C1347.88 692.145 1346.91 691.036 1346.2 689.611C1345.51 688.186 1345.16 686.52 1345.16 684.615C1345.16 682.693 1345.51 681.016 1346.2 679.583C1346.91 678.149 1347.88 677.036 1349.13 676.244C1350.39 675.451 1351.85 675.055 1353.52 675.055C1355.18 675.055 1356.64 675.451 1357.89 676.244C1359.15 677.036 1360.12 678.149 1360.82 679.583C1361.52 681.016 1361.88 682.693 1361.88 684.615C1361.88 686.52 1361.52 688.186 1360.82 689.611C1360.12 691.036 1359.15 692.145 1357.89 692.938C1356.64 693.73 1355.18 694.127 1353.52 694.127ZM1353.52 691.58C1354.78 691.58 1355.82 691.256 1356.64 690.608C1357.46 689.959 1358.06 689.106 1358.45 688.05C1358.85 686.993 1359.04 685.848 1359.04 684.615C1359.04 683.382 1358.85 682.233 1358.45 681.168C1358.06 680.103 1357.46 679.242 1356.64 678.586C1355.82 677.929 1354.78 677.601 1353.52 677.601C1352.25 677.601 1351.21 677.929 1350.39 678.586C1349.58 679.242 1348.97 680.103 1348.58 681.168C1348.19 682.233 1347.99 683.382 1347.99 684.615C1347.99 685.848 1348.19 686.993 1348.58 688.05C1348.97 689.106 1349.58 689.959 1350.39 690.608C1351.21 691.256 1352.25 691.58 1353.52 691.58ZM1366.2 693.742V675.295H1373.75C1375.73 675.295 1377.31 675.743 1378.48 676.64C1379.65 677.537 1380.23 678.722 1380.23 680.195C1380.23 681.316 1379.9 682.185 1379.23 682.801C1378.57 683.41 1377.72 683.822 1376.68 684.038C1377.36 684.134 1378.02 684.374 1378.66 684.759C1379.31 685.143 1379.84 685.672 1380.27 686.344C1380.69 687.009 1380.9 687.825 1380.9 688.794C1380.9 689.739 1380.66 690.584 1380.18 691.328C1379.7 692.073 1379.01 692.661 1378.12 693.094C1377.22 693.526 1376.15 693.742 1374.9 693.742H1366.2ZM1368.89 691.148H1374.9C1375.87 691.148 1376.64 690.916 1377.19 690.451C1377.74 689.987 1378.02 689.355 1378.02 688.554C1378.02 687.601 1377.74 686.853 1377.19 686.308C1376.64 685.756 1375.87 685.479 1374.9 685.479H1368.89V691.148ZM1368.89 683.029H1373.75C1374.51 683.029 1375.16 682.925 1375.7 682.717C1376.25 682.501 1376.66 682.197 1376.95 681.804C1377.25 681.404 1377.4 680.932 1377.4 680.387C1377.4 679.611 1377.07 679.002 1376.42 678.562C1375.77 678.113 1374.88 677.889 1373.75 677.889H1368.89V683.029ZM1392.69 694.127C1391.02 694.127 1389.56 693.73 1388.3 692.938C1387.06 692.145 1386.08 691.036 1385.37 689.611C1384.68 688.186 1384.33 686.52 1384.33 684.615C1384.33 682.693 1384.68 681.016 1385.37 679.583C1386.08 678.149 1387.06 677.036 1388.3 676.244C1389.56 675.451 1391.02 675.055 1392.69 675.055C1394.35 675.055 1395.81 675.451 1397.06 676.244C1398.32 677.036 1399.29 678.149 1399.99 679.583C1400.69 681.016 1401.05 682.693 1401.05 684.615C1401.05 686.52 1400.69 688.186 1399.99 689.611C1399.29 691.036 1398.32 692.145 1397.06 692.938C1395.81 693.73 1394.35 694.127 1392.69 694.127ZM1392.69 691.58C1393.95 691.58 1394.99 691.256 1395.81 690.608C1396.63 689.959 1397.23 689.106 1397.62 688.05C1398.02 686.993 1398.21 685.848 1398.21 684.615C1398.21 683.382 1398.02 682.233 1397.62 681.168C1397.23 680.103 1396.63 679.242 1395.81 678.586C1394.99 677.929 1393.95 677.601 1392.69 677.601C1391.42 677.601 1390.38 677.929 1389.57 678.586C1388.75 679.242 1388.14 680.103 1387.75 681.168C1387.36 682.233 1387.16 683.382 1387.16 684.615C1387.16 685.848 1387.36 686.993 1387.75 688.05C1388.14 689.106 1388.75 689.959 1389.57 690.608C1390.38 691.256 1391.42 691.58 1392.69 691.58ZM1408.21 689.563L1417.09 675.295H1420.36V693.742H1417.53V679.474L1408.69 693.742H1405.37V675.295H1408.21V689.563ZM1415.22 669.146H1417.86C1417.86 670.443 1417.42 671.504 1416.52 672.329C1415.62 673.153 1414.4 673.566 1412.87 673.566C1411.35 673.566 1410.15 673.153 1409.25 672.329C1408.36 671.504 1407.92 670.443 1407.92 669.146H1410.56C1410.56 669.77 1410.73 670.319 1411.08 670.791C1411.43 671.264 1412.03 671.5 1412.87 671.5C1413.71 671.5 1414.31 671.264 1414.67 670.791C1415.04 670.319 1415.22 669.77 1415.22 669.146ZM1435.06 693.742V675.295H1449.57V693.742H1446.74V677.937H1437.9V693.742H1435.06ZM1454.75 700.66V675.295H1457.49V678.225H1457.82C1458.03 677.905 1458.32 677.497 1458.69 677C1459.06 676.496 1459.6 676.048 1460.3 675.655C1461 675.255 1461.95 675.055 1463.16 675.055C1464.71 675.055 1466.08 675.443 1467.26 676.22C1468.45 676.996 1469.37 678.097 1470.04 679.522C1470.7 680.948 1471.03 682.629 1471.03 684.567C1471.03 686.52 1470.7 688.214 1470.04 689.647C1469.37 691.072 1468.45 692.177 1467.28 692.962C1466.1 693.738 1464.74 694.127 1463.2 694.127C1462.02 694.127 1461.07 693.93 1460.36 693.538C1459.64 693.138 1459.1 692.685 1458.71 692.181C1458.33 691.668 1458.03 691.244 1457.82 690.908H1457.58V700.66H1454.75ZM1457.53 684.519C1457.53 685.912 1457.74 687.141 1458.15 688.206C1458.56 689.263 1459.15 690.091 1459.94 690.692C1460.72 691.284 1461.68 691.58 1462.82 691.58C1464 691.58 1464.99 691.268 1465.79 690.644C1466.59 690.011 1467.19 689.162 1467.59 688.098C1468 687.025 1468.2 685.832 1468.2 684.519C1468.2 683.222 1468 682.053 1467.6 681.012C1467.21 679.963 1466.61 679.134 1465.81 678.526C1465.02 677.909 1464.02 677.601 1462.82 677.601C1461.67 677.601 1460.7 677.893 1459.91 678.478C1459.13 679.054 1458.54 679.863 1458.14 680.904C1457.74 681.936 1457.53 683.141 1457.53 684.519ZM1482.85 694.127C1481.19 694.127 1479.73 693.73 1478.47 692.938C1477.22 692.145 1476.24 691.036 1475.54 689.611C1474.84 688.186 1474.49 686.52 1474.49 684.615C1474.49 682.693 1474.84 681.016 1475.54 679.583C1476.24 678.149 1477.22 677.036 1478.47 676.244C1479.73 675.451 1481.19 675.055 1482.85 675.055C1484.52 675.055 1485.97 675.451 1487.22 676.244C1488.48 677.036 1489.46 678.149 1490.15 679.583C1490.86 681.016 1491.21 682.693 1491.21 684.615C1491.21 686.52 1490.86 688.186 1490.15 689.611C1489.46 691.036 1488.48 692.145 1487.22 692.938C1485.97 693.73 1484.52 694.127 1482.85 694.127ZM1482.85 691.58C1484.12 691.58 1485.16 691.256 1485.97 690.608C1486.79 689.959 1487.4 689.106 1487.79 688.05C1488.18 686.993 1488.38 685.848 1488.38 684.615C1488.38 683.382 1488.18 682.233 1487.79 681.168C1487.4 680.103 1486.79 679.242 1485.97 678.586C1485.16 677.929 1484.12 677.601 1482.85 677.601C1481.59 677.601 1480.55 677.929 1479.73 678.586C1478.91 679.242 1478.31 680.103 1477.92 681.168C1477.52 682.233 1477.33 683.382 1477.33 684.615C1477.33 685.848 1477.52 686.993 1477.92 688.05C1478.31 689.106 1478.91 689.959 1479.73 690.608C1480.55 691.256 1481.59 691.58 1482.85 691.58ZM1493.57 699.027V691.1H1495.1C1495.48 690.708 1495.81 690.283 1496.08 689.827C1496.35 689.371 1496.59 688.83 1496.79 688.206C1496.99 687.573 1497.17 686.804 1497.31 685.9C1497.46 684.987 1497.59 683.886 1497.7 682.597L1498.32 675.295H1510.05V691.1H1512.88V699.027H1510.05V693.742H1496.4V699.027H1493.57ZM1498.32 691.1H1507.21V677.937H1500.97L1500.49 682.597C1500.29 684.527 1500.04 686.212 1499.74 687.653C1499.44 689.094 1498.97 690.243 1498.32 691.1ZM1518.47 700.66C1517.99 700.66 1517.56 700.62 1517.18 700.54C1516.81 700.468 1516.55 700.396 1516.4 700.324L1517.12 697.826C1517.81 698.002 1518.42 698.066 1518.95 698.018C1519.48 697.97 1519.94 697.733 1520.35 697.309C1520.77 696.893 1521.15 696.216 1521.49 695.279L1522.02 693.838L1515.2 675.295H1518.27L1523.37 689.995H1523.56L1528.65 675.295H1531.73L1523.9 696.432C1523.54 697.385 1523.11 698.174 1522.59 698.798C1522.07 699.431 1521.46 699.899 1520.77 700.203C1520.09 700.508 1519.32 700.66 1518.47 700.66ZM1535.47 693.742V675.295H1538.3V683.318H1540.17L1546.8 675.295H1550.46L1543.01 684.182L1550.55 693.742H1546.9L1540.85 685.96H1538.3V693.742H1535.47ZM1568.14 675.295V691.1H1570.73V699.699H1567.9V693.742H1553.63V675.295H1556.47V691.1H1565.31V675.295H1568.14ZM1577.93 689.563L1586.82 675.295H1590.09V693.742H1587.25V679.474L1578.41 693.742H1575.1V675.295H1577.93V689.563ZM1598.11 689.563L1607 675.295H1610.27V693.742H1607.43V679.474L1598.59 693.742H1595.28V675.295H1598.11V689.563Z" fill="#00323E"/>
<path d="M511.861 356.33H623.703" stroke="#8ED1C0" stroke-width="7.30508" stroke-miterlimit="10"/>
<path d="M487.646 356.33L525.694 370.196V342.498L487.646 356.33Z" fill="#8ED1C0"/>
<path d="M647.883 356.33L609.836 342.498V370.196L647.883 356.33Z" fill="#8ED1C0"/>
<path d="M1128.77 356.33H1245.18" stroke="#8ED1C0" stroke-width="7.30508" stroke-miterlimit="10"/>
<path d="M1104.55 356.33L1142.63 370.196V342.498L1104.55 356.33Z" fill="#8ED1C0"/>
<path d="M1269.36 356.33L1231.31 342.498V370.196L1269.36 356.33Z" fill="#8ED1C0"/>
<path d="M785.836 341.345C785.836 341.345 787.167 326.216 787.311 324.711C787.514 322.339 785.604 318 780.976 318H742.732C738.104 318 735.847 321.153 735.558 324.133C735.384 325.926 732.231 362.521 732.029 364.633C731.71 368.017 734.054 371.865 738.306 371.865H776.318C781.352 371.865 783.319 369.203 783.753 365.096C784.013 362.637 785.257 347.71 785.257 347.71H762.288L761.304 359.223H755.49L758.007 330.613H763.821L762.895 341.316H785.865L785.836 341.345Z" fill="#008B95"/>
<path d="M821.303 322.628C820.493 325 813.81 345.915 813.81 345.915L816.79 318.028H793.82L789.018 371.893H806.318C810.657 371.893 812.132 369.434 812.855 367.467C813.723 365.095 820.088 347.506 820.088 347.506L817.744 371.922H840.714L845.458 318.057C845.458 318.057 828.997 318.057 827.406 318.057C823.414 318.057 821.852 320.979 821.274 322.657" fill="#008B95"/>
<path d="M937.654 318L935.513 342.56H929.698L931.839 318H908.87C908.87 318 906.671 344.007 906.44 346.524C906.15 349.532 907.857 353.785 912.949 353.785H934.529L934.066 359.252H905.311L904.212 371.894H949.919C953.015 371.894 956.023 369.869 956.399 365.558C956.66 362.781 960.623 318.029 960.623 318.029H937.654V318Z" fill="#008B95"/>
<path d="M997.592 318H966.378L961.662 371.865H984.632L986.078 355.202H1008.41C1012.35 355.202 1014.98 353.206 1015.38 348.577C1015.56 346.784 1017.35 326.36 1017.49 324.567C1017.75 320.575 1014.6 318.029 1010.67 318.029H997.563L997.592 318ZM987.091 344.007L988.248 330.642H994.004L992.818 344.007H987.062H987.091Z" fill="#008B95"/>
<path d="M872.708 336.109L873.2 330.642H901.955L903.083 318H851.33L846.615 371.865H855.235C855.235 371.865 889.66 371.865 892.438 371.865C895.215 371.865 898.512 370.158 898.917 365.645C899.236 362.261 900.653 346.234 900.914 343.341C901.261 339.465 898.773 336.109 893.942 336.109H872.708ZM876.411 360.699H870.539L871.696 347.334H877.568L876.411 360.699Z" fill="#008B95"/>
<path d="M1011.13 389.656C1011.13 391.826 1009.37 393.59 1007.2 393.59C1005.03 393.59 1003.26 391.826 1003.26 389.656C1003.26 387.486 1005.03 385.722 1007.2 385.722C1009.37 385.722 1011.13 387.486 1011.13 389.656Z" fill="#008B95"/>
<path d="M825.41 389.654H1007.37" stroke="#008B95" stroke-width="0.838927" stroke-miterlimit="10"/>
<path d="M734.458 382.915H744.525L743.484 394.746H740.706L741.545 385.316H737.004L736.165 394.746H733.387L734.458 382.915Z" fill="#008B95"/>
<path d="M745.915 389.829C745.568 385.837 748.201 382.625 752.28 382.625C755.838 382.625 758.181 384.679 758.441 387.862C758.789 391.854 756.214 395.065 752.135 395.065C748.548 395.065 746.205 393.011 745.915 389.829ZM755.578 388.064C755.433 386.415 754.247 385.084 752.309 385.084C749.879 385.084 748.577 387.312 748.779 389.568C748.924 391.217 750.11 392.548 752.077 392.548C754.536 392.548 755.78 390.349 755.606 388.064" fill="#008B95"/>
<path d="M758.7 394.717L758.989 392.316C759.221 392.403 759.452 392.432 759.684 392.432C760.956 392.432 761.824 391.391 762.2 387.08L762.576 382.915H771.429L770.387 394.746H767.61L768.449 385.316H765.064L764.891 387.225C764.399 392.982 763.01 394.833 760.146 394.833C759.655 394.833 759.047 394.775 758.671 394.688" fill="#008B95"/>
<path d="M773.918 382.915H776.666L775.972 390.696H776.03L781.266 382.915H784.187L783.146 394.746H780.398L781.092 387.138H781.034L775.827 394.746H772.847L773.918 382.915Z" fill="#008B95"/>
<path d="M784.795 394.717L785.084 392.316C785.315 392.403 785.547 392.432 785.778 392.432C787.051 392.432 787.919 391.391 788.295 387.08L788.671 382.915H797.523L796.482 394.746H793.705L794.544 385.316H791.159L790.985 387.225C790.494 392.982 789.105 394.833 786.241 394.833C785.749 394.833 785.142 394.775 784.766 394.688" fill="#008B95"/>
<path d="M803.77 382.915H806.49L809.759 394.746H806.837L806.229 392.403H801.659L800.444 394.746H797.261L803.77 382.915ZM805.738 390.147L804.754 385.952L802.642 390.147H805.738Z" fill="#008B95"/>
<path d="M811.872 382.914H819.943L819.74 385.228H814.446L814.244 387.455H815.719C818.467 387.455 820.116 388.67 820.29 390.695C820.521 393.53 818.583 394.717 815.459 394.717H810.83L811.872 382.885V382.914ZM815.285 392.46C816.674 392.46 817.542 392.084 817.426 390.956C817.339 390.001 816.587 389.712 815.488 389.712H814.012L813.752 392.489H815.256L815.285 392.46Z" fill="#008B95"/>
<path d="M1193.36 634.429C1200.26 634.429 1205.88 628.849 1205.88 621.916C1205.88 614.983 1200.3 609.402 1193.36 609.402C1186.43 609.402 1180.85 614.983 1180.85 621.916C1180.85 628.849 1186.46 634.429 1193.36 634.429Z" fill="#8ED1C0"/>
<path d="M1213.69 647.009C1211.29 643.728 1207.43 641.598 1203.04 641.598H1183.22C1176.35 641.598 1170.7 646.806 1170.03 653.502C1169.99 653.942 1169.96 654.381 1169.96 654.855V668.755H1200.77C1202.19 659.928 1206.93 652.251 1213.69 647.009Z" fill="#8ED1C0"/>
<path d="M1269.36 674.168C1269.29 655.162 1253.87 639.773 1234.83 639.773C1233.54 639.773 1232.29 639.841 1231.07 639.976C1224.58 640.687 1218.63 643.189 1213.72 647.011C1214.23 647.687 1214.67 648.364 1215.04 649.142C1215.86 650.866 1216.36 652.828 1216.36 654.857V668.757H1200.81C1200.5 670.549 1200.33 672.41 1200.33 674.304C1200.33 693.378 1215.79 708.834 1234.86 708.834C1253.94 708.834 1269.39 693.378 1269.39 674.304C1269.39 674.27 1269.39 674.202 1269.39 674.168" fill="#8ED1C0"/>
<path d="M1216.33 654.854C1216.33 652.791 1215.85 650.863 1215.01 649.138C1214.64 648.394 1214.2 647.684 1213.69 647.008C1206.93 652.25 1202.19 659.961 1200.77 668.754H1216.33V654.854Z" fill="#008B95"/>
<path d="M1232.53 688.341L1217.61 673.427L1223.09 667.914L1232.53 677.35L1249.57 660.305L1255.05 665.783L1232.53 688.341Z" fill="white"/>
<path d="M540.879 680.59H449.972V715.999H540.879V680.59Z" fill="#8ED1C0"/>
<path d="M499.551 680.594L483.284 650.359C479.868 654.722 474.626 657.597 468.64 657.597C466.069 657.597 463.634 657.09 461.402 656.143L475.505 680.594H499.551Z" fill="#008B95"/>
<path d="M484.806 642.514H499.788V626.855H481.424C483.69 630.643 485.009 635.175 485.009 640.079C485.009 640.925 484.873 641.702 484.806 642.514Z" fill="#008B95"/>
<path d="M484.13 628.51C480.781 623.538 475.1 620.258 468.64 620.258C458.325 620.258 449.972 628.611 449.972 638.926C449.972 646.671 454.673 653.3 461.403 656.141C463.635 657.088 466.07 657.595 468.64 657.595C474.626 657.595 479.868 654.754 483.284 650.357C485.381 647.686 486.734 644.405 487.106 640.82C487.173 640.178 487.309 639.569 487.309 638.892C487.309 635.037 486.125 631.452 484.13 628.476V628.51ZM475.742 640.922C474.863 644.033 472.022 646.299 468.64 646.299C465.258 646.299 462.417 644.033 461.538 640.922C461.335 640.279 461.2 639.603 461.2 638.892C461.2 634.834 464.48 631.52 468.505 631.486C468.539 631.486 468.573 631.486 468.606 631.486C472.732 631.486 476.047 634.8 476.047 638.926C476.047 639.603 475.945 640.211 475.776 640.854V640.989" fill="#8ED1C0"/>
<path d="M512.1 645.286L522.144 657.427L543.992 645.861L539.832 638.15L524.579 645.962L516.361 635.444L524.613 624.656L539.866 632.773L543.992 625.028L522.279 613.428L513.148 624.588L512.1 645.286Z" fill="#8ED1C0"/>
<path d="M513.756 624.287H499.552V645.289H512.099H514.23V624.287H513.756Z" fill="#8ED1C0"/>
<path d="M402.115 361.81L374.214 377.942V415.584L406.715 396.78V359.139L402.115 361.81Z" fill="#8ED1C0"/>
<path d="M406.749 359.138L374.214 340.301L341.68 359.138L367.45 374.053L374.248 377.976C380.133 374.594 392.68 367.323 403.976 360.762L406.749 359.138Z" fill="#8ED1C0"/>
<path d="M341.68 396.778L374.181 415.582V377.941L341.68 359.137V396.778Z" fill="#008B95"/>
<path d="M461.3 351.391C461.976 331.911 446.757 315.508 427.243 314.764C425.924 314.697 424.639 314.764 423.354 314.832C405.531 316.083 391.157 330.558 390.447 348.821C390.447 348.956 390.447 349.058 390.447 349.193C390.447 349.362 390.447 349.531 390.447 349.734L406.681 359.136V379.935C407.053 380.172 407.391 380.476 407.797 380.713C412.701 383.621 418.416 385.38 424.504 385.617C444.052 386.361 460.522 371.108 461.266 351.56C461.266 351.527 461.266 351.459 461.266 351.425" fill="#8ED1C0"/>
<path d="M406.714 359.168L390.481 349.766C390.312 362.38 396.771 373.541 406.68 379.967V359.168H406.714Z" fill="#008B95"/>
<path d="M430.759 343.645L409.622 343.51L409.521 357.511L430.658 357.647L430.59 367.319L446.114 350.747L430.827 333.973L430.759 343.645Z" fill="white"/>
<path d="M538.951 44.9161V19.3145H516.225V44.9161C511.828 46.5394 507.939 49.1097 504.658 52.3226L513.688 67.0343L517.002 65.952C526.134 63.0097 535.975 62.942 545.141 65.8167L559.886 70.4162C557.992 58.6131 549.808 48.9744 538.918 44.9161" fill="#8ED1C0"/>
<path d="M498.333 3.68555H474.05V42.0372L459.474 65.7111C464.986 65.7111 470.499 66.658 475.741 68.6534C481.964 70.9869 488.592 71.7986 495.154 71.3928C496.134 63.9524 499.584 57.3576 504.657 52.3523L498.299 42.0372V3.68555H498.333Z" fill="#8ED1C0"/>
<path d="M495.152 71.3628C498.974 71.1261 502.762 70.5512 506.414 69.3675L513.686 67.0339L504.656 52.3223C499.583 57.3276 496.133 63.9225 495.152 71.3628Z" fill="#008B95"/>
<path d="M517.035 65.945L513.72 67.0273L520.755 78.4584C521.972 80.4199 522.615 82.6859 522.615 85.0194C522.615 91.9187 517.001 97.4988 510.135 97.4988H503.405C509.391 104.128 517.982 108.389 527.62 108.389C545.714 108.389 560.392 93.711 560.392 75.6174C560.392 73.8588 560.256 72.1002 559.986 70.4092L545.24 65.8097C536.075 62.935 526.234 63.0027 517.102 65.945" fill="#8ED1C0"/>
<path d="M449.767 84.9895C449.767 91.8887 455.381 97.469 462.246 97.469H503.337C498.095 91.652 494.815 84.0425 494.815 75.5876C494.815 74.1333 494.95 72.7128 495.153 71.3262C488.592 71.7659 481.963 70.9542 475.74 68.5868C470.464 66.5915 464.985 65.6784 459.473 65.6445L451.627 78.3946C450.409 80.3561 449.767 82.622 449.767 84.9218" fill="#8ED1C0"/>
<path d="M522.582 84.9922C522.582 82.6924 521.939 80.4265 520.721 78.4311L513.687 67L506.416 69.3674C502.729 70.5511 498.941 71.0922 495.154 71.3628C494.985 72.7494 494.815 74.1698 494.815 75.624C494.815 84.079 498.096 91.6884 503.338 97.5054H510.068C516.967 97.5054 522.548 91.8914 522.548 85.026" fill="#008B95"/>
<path d="M480.881 46.9766C477.296 46.9766 474.388 49.885 474.388 53.4699C474.388 57.0548 477.296 59.9634 480.881 59.9634C484.466 59.9634 487.374 57.0548 487.374 53.4699C487.374 49.885 484.466 46.9766 480.881 46.9766Z" fill="white"/>
<path d="M493.902 64.8652C490.317 64.8652 487.408 67.7738 487.408 71.3587C487.408 74.9436 490.317 77.852 493.902 77.852C497.486 77.852 500.395 74.9436 500.395 71.3587C500.395 67.7738 497.486 64.8652 493.902 64.8652Z" fill="white"/>
<path d="M537.629 69.2637C534.044 69.2637 531.136 72.1721 531.136 75.757C531.136 79.3419 534.044 82.2505 537.629 82.2505C541.214 82.2505 544.123 79.3419 544.123 75.757C544.123 72.1721 541.214 69.2637 537.629 69.2637Z" fill="white"/>
<path d="M503.339 0H469.012V7.33894H503.339V0Z" fill="#8ED1C0"/>
<path d="M544.937 16.8105H510.609V24.1495H544.937V16.8105Z" fill="#8ED1C0"/>
<path d="M1213.05 63.5534C1205.4 55.5719 1202.6 44.8172 1204.26 34.7051C1197.19 35.5168 1190.29 38.4252 1184.74 43.7349C1171.21 56.6541 1170.67 78.0959 1183.59 91.6576C1196.51 105.186 1217.95 105.727 1231.51 92.8075C1237.06 87.5316 1240.31 80.7676 1241.46 73.7669C1231.28 74.9506 1220.66 71.6024 1213.05 63.621" fill="#8ED1C0"/>
<path d="M1262.09 16.7781C1249.17 3.25019 1227.73 2.70909 1214.2 15.6283C1208.65 20.9041 1205.41 27.6681 1204.26 34.6688C1214.44 33.4851 1225.02 36.8333 1232.67 44.8148C1240.27 52.7962 1243.12 63.5509 1241.46 73.6631C1248.53 72.8514 1255.39 69.9429 1260.94 64.667C1274.5 51.7478 1275.01 30.3061 1262.09 16.7444" fill="#8ED1C0"/>
<path d="M1232.67 44.8503C1225.02 36.8688 1214.44 33.5206 1204.26 34.7043C1202.6 44.8503 1205.41 55.5711 1213.05 63.5526C1220.66 71.5341 1231.28 74.8822 1241.46 73.6985C1243.12 63.5864 1240.27 52.8317 1232.67 44.8503Z" fill="#008B95"/>
</svg>
