<svg width="1654" height="930" viewBox="0 0 1654 930" fill="none" xmlns="http://www.w3.org/2000/svg">
<g clip-path="url(#clip0_629_750)">
<path d="M581.207 897.766H578.724L578.711 896.723H580.964C581.337 896.723 581.662 896.66 581.94 896.535C582.218 896.409 582.433 896.23 582.586 895.997C582.743 895.759 582.821 895.476 582.821 895.149C582.821 894.79 582.752 894.499 582.613 894.274C582.478 894.046 582.27 893.88 581.987 893.777C581.709 893.669 581.355 893.615 580.924 893.615H579.013V902.347H577.715V892.552H580.924C581.426 892.552 581.875 892.604 582.27 892.707C582.664 892.806 582.998 892.963 583.272 893.178C583.55 893.389 583.761 893.658 583.904 893.985C584.048 894.312 584.12 894.705 584.12 895.162C584.12 895.566 584.016 895.932 583.81 896.259C583.604 896.582 583.317 896.846 582.949 897.053C582.586 897.259 582.16 897.391 581.671 897.45L581.207 897.766ZM581.146 902.347H578.213L578.946 901.291H581.146C581.559 901.291 581.908 901.219 582.196 901.076C582.487 900.932 582.709 900.73 582.862 900.47C583.014 900.206 583.09 899.894 583.09 899.535C583.09 899.172 583.025 898.858 582.895 898.593C582.765 898.329 582.561 898.125 582.283 897.981C582.005 897.838 581.646 897.766 581.207 897.766H579.357L579.37 896.723H581.9L582.175 897.1C582.646 897.14 583.045 897.275 583.373 897.504C583.7 897.728 583.949 898.015 584.12 898.365C584.294 898.714 584.382 899.1 584.382 899.522C584.382 900.132 584.247 900.647 583.978 901.069C583.714 901.486 583.339 901.805 582.855 902.024C582.37 902.24 581.801 902.347 581.146 902.347ZM589.132 902.482C588.625 902.482 588.165 902.397 587.752 902.226C587.344 902.051 586.992 901.807 586.696 901.493C586.405 901.179 586.18 900.807 586.023 900.376C585.866 899.946 585.788 899.475 585.788 898.963V898.681C585.788 898.089 585.875 897.562 586.05 897.1C586.225 896.633 586.463 896.239 586.763 895.916C587.064 895.593 587.405 895.349 587.786 895.183C588.167 895.017 588.562 894.934 588.97 894.934C589.49 894.934 589.939 895.023 590.316 895.203C590.697 895.382 591.008 895.633 591.251 895.956C591.493 896.275 591.672 896.651 591.789 897.086C591.905 897.517 591.964 897.988 591.964 898.499V899.058H586.528V898.042H590.719V897.948C590.701 897.625 590.634 897.311 590.517 897.006C590.405 896.701 590.226 896.45 589.979 896.252C589.732 896.055 589.396 895.956 588.97 895.956C588.687 895.956 588.427 896.017 588.19 896.138C587.952 896.254 587.748 896.429 587.577 896.663C587.407 896.896 587.275 897.181 587.181 897.517C587.086 897.853 587.039 898.241 587.039 898.681V898.963C587.039 899.309 587.086 899.634 587.181 899.939C587.279 900.239 587.421 900.504 587.604 900.733C587.793 900.961 588.019 901.141 588.284 901.271C588.553 901.401 588.858 901.466 589.199 901.466C589.638 901.466 590.011 901.376 590.316 901.197C590.621 901.018 590.887 900.778 591.116 900.477L591.87 901.076C591.713 901.314 591.513 901.54 591.271 901.755C591.029 901.971 590.73 902.145 590.376 902.28C590.026 902.415 589.611 902.482 589.132 902.482ZM594.661 896.468V905.146H593.41V895.068H594.554L594.661 896.468ZM599.566 898.647V898.788C599.566 899.318 599.503 899.809 599.377 900.262C599.252 900.71 599.068 901.1 598.826 901.432C598.588 901.764 598.294 902.022 597.944 902.206C597.595 902.39 597.193 902.482 596.74 902.482C596.278 902.482 595.87 902.406 595.516 902.253C595.162 902.101 594.861 901.879 594.614 901.587C594.368 901.296 594.17 900.946 594.022 900.538C593.879 900.129 593.78 899.67 593.726 899.158V898.405C593.78 897.867 593.881 897.385 594.029 896.959C594.177 896.533 594.372 896.169 594.614 895.869C594.861 895.564 595.159 895.333 595.509 895.176C595.859 895.014 596.263 894.934 596.72 894.934C597.178 894.934 597.583 895.023 597.938 895.203C598.292 895.378 598.59 895.629 598.832 895.956C599.075 896.284 599.256 896.676 599.377 897.134C599.503 897.587 599.566 898.091 599.566 898.647ZM598.314 898.788V898.647C598.314 898.284 598.276 897.943 598.2 897.625C598.124 897.302 598.005 897.019 597.844 896.777C597.687 896.53 597.485 896.337 597.238 896.198C596.991 896.055 596.698 895.983 596.357 895.983C596.043 895.983 595.769 896.037 595.536 896.145C595.307 896.252 595.112 896.398 594.951 896.582C594.789 896.761 594.657 896.968 594.554 897.201C594.455 897.43 594.381 897.667 594.332 897.914V899.656C594.422 899.97 594.547 900.266 594.709 900.544C594.87 900.818 595.085 901.04 595.354 901.21C595.623 901.376 595.962 901.459 596.37 901.459C596.707 901.459 596.996 901.39 597.238 901.251C597.485 901.107 597.687 900.912 597.844 900.665C598.005 900.419 598.124 900.136 598.2 899.818C598.276 899.495 598.314 899.152 598.314 898.788ZM604.066 901.459C604.362 901.459 604.636 901.399 604.887 901.278C605.138 901.157 605.345 900.991 605.506 900.78C605.668 900.565 605.759 900.32 605.782 900.047H606.966C606.944 900.477 606.798 900.878 606.529 901.251C606.264 901.618 605.916 901.917 605.486 902.145C605.055 902.37 604.582 902.482 604.066 902.482C603.519 902.482 603.042 902.385 602.633 902.193C602.23 902 601.893 901.735 601.624 901.399C601.36 901.062 601.16 900.677 601.026 900.242C600.896 899.802 600.831 899.338 600.831 898.849V898.566C600.831 898.078 600.896 897.616 601.026 897.181C601.16 896.741 601.36 896.353 601.624 896.017C601.893 895.68 602.23 895.416 602.633 895.223C603.042 895.03 603.519 894.934 604.066 894.934C604.636 894.934 605.134 895.05 605.56 895.283C605.986 895.512 606.32 895.826 606.562 896.225C606.809 896.62 606.944 897.068 606.966 897.571H605.782C605.759 897.27 605.674 896.999 605.526 896.757C605.383 896.515 605.185 896.322 604.934 896.178C604.688 896.03 604.398 895.956 604.066 895.956C603.685 895.956 603.365 896.032 603.104 896.185C602.849 896.333 602.645 896.535 602.492 896.79C602.344 897.042 602.237 897.322 602.169 897.631C602.106 897.936 602.075 898.248 602.075 898.566V898.849C602.075 899.167 602.106 899.481 602.169 899.791C602.232 900.1 602.337 900.381 602.485 900.632C602.638 900.883 602.842 901.085 603.098 901.237C603.358 901.385 603.681 901.459 604.066 901.459ZM609.711 900.376L613.068 895.068H614.319V902.347H613.068V897.039L609.711 902.347H608.473V895.068H609.711V900.376ZM617.79 898.876H619.136L617.03 902.347H615.685L617.79 898.876ZM618.833 895.068H621.874V902.347H620.629V896.077H618.833C618.479 896.077 618.19 896.138 617.965 896.259C617.741 896.376 617.577 896.528 617.474 896.716C617.371 896.905 617.319 897.1 617.319 897.302C617.319 897.499 617.367 897.69 617.461 897.874C617.555 898.053 617.703 898.201 617.905 898.318C618.107 898.434 618.367 898.492 618.685 898.492H620.966V899.515H618.685C618.268 899.515 617.898 899.459 617.575 899.347C617.252 899.235 616.979 899.08 616.754 898.883C616.53 898.681 616.36 898.445 616.243 898.176C616.126 897.903 616.068 897.607 616.068 897.288C616.068 896.97 616.129 896.676 616.25 896.407C616.375 896.138 616.555 895.902 616.788 895.701C617.026 895.499 617.315 895.344 617.656 895.236C618.001 895.124 618.394 895.068 618.833 895.068ZM631.252 892.498V902.347H630.007V894.052L627.498 894.967V893.844L631.057 892.498H631.252ZM635.066 901.688C635.066 901.477 635.131 901.3 635.262 901.157C635.396 901.009 635.589 900.935 635.84 900.935C636.091 900.935 636.282 901.009 636.412 901.157C636.546 901.3 636.614 901.477 636.614 901.688C636.614 901.894 636.546 902.069 636.412 902.213C636.282 902.356 636.091 902.428 635.84 902.428C635.589 902.428 635.396 902.356 635.262 902.213C635.131 902.069 635.066 901.894 635.066 901.688ZM644.693 896.669V898.163C644.693 898.966 644.622 899.643 644.478 900.195C644.335 900.746 644.128 901.19 643.859 901.527C643.59 901.863 643.265 902.107 642.884 902.26C642.507 902.408 642.081 902.482 641.605 902.482C641.229 902.482 640.881 902.435 640.563 902.341C640.244 902.246 639.957 902.096 639.702 901.89C639.45 901.679 639.235 901.405 639.056 901.069C638.876 900.733 638.74 900.325 638.645 899.845C638.551 899.365 638.504 898.804 638.504 898.163V896.669C638.504 895.867 638.576 895.194 638.719 894.651C638.867 894.108 639.076 893.673 639.345 893.346C639.614 893.014 639.937 892.776 640.314 892.633C640.695 892.489 641.121 892.418 641.592 892.418C641.973 892.418 642.323 892.465 642.641 892.559C642.964 892.649 643.251 892.794 643.503 892.996C643.754 893.193 643.967 893.458 644.142 893.79C644.321 894.117 644.458 894.519 644.552 894.994C644.646 895.47 644.693 896.028 644.693 896.669ZM643.442 898.365V896.461C643.442 896.021 643.415 895.636 643.361 895.304C643.312 894.967 643.238 894.68 643.139 894.443C643.041 894.205 642.915 894.012 642.763 893.864C642.615 893.716 642.442 893.608 642.245 893.541C642.052 893.469 641.834 893.433 641.592 893.433C641.296 893.433 641.034 893.49 640.805 893.602C640.576 893.709 640.383 893.882 640.226 894.12C640.074 894.357 639.957 894.669 639.877 895.055C639.796 895.44 639.755 895.909 639.755 896.461V898.365C639.755 898.804 639.78 899.192 639.829 899.528C639.883 899.865 639.962 900.156 640.065 900.403C640.168 900.645 640.294 900.845 640.442 901.002C640.59 901.159 640.76 901.275 640.953 901.352C641.15 901.423 641.368 901.459 641.605 901.459C641.91 901.459 642.177 901.401 642.406 901.284C642.635 901.168 642.825 900.986 642.978 900.739C643.135 900.488 643.251 900.168 643.328 899.777C643.404 899.383 643.442 898.912 643.442 898.365Z" fill="#00313C"/>
<path d="M63.3353 898.574H64.5462C64.4832 899.154 64.3171 899.673 64.048 900.131C63.7789 900.59 63.3984 900.953 62.9064 901.223C62.4145 901.487 61.8006 901.62 61.0648 901.62C60.5266 901.62 60.0367 901.519 59.5953 901.317C59.158 901.115 58.7817 900.829 58.4663 900.459C58.151 900.085 57.9071 899.637 57.7347 899.116C57.5665 898.59 57.4824 898.006 57.4824 897.363V896.448C57.4824 895.805 57.5665 895.223 57.7347 894.701C57.9071 894.176 58.1531 893.726 58.4726 893.351C58.7964 892.977 59.1853 892.689 59.6394 892.487C60.0935 892.286 60.6044 892.185 61.172 892.185C61.8658 892.185 62.4523 892.315 62.9316 892.576C63.411 892.836 63.7831 893.198 64.048 893.661C64.3171 894.119 64.4832 894.651 64.5462 895.256H63.3353C63.2764 894.827 63.1671 894.459 63.0073 894.152C62.8475 893.841 62.6205 893.602 62.3262 893.433C62.0318 893.265 61.6471 893.181 61.172 893.181C60.7641 893.181 60.4046 893.259 60.0935 893.415C59.7866 893.57 59.528 893.791 59.3177 894.077C59.1117 894.363 58.9561 894.705 58.851 895.105C58.7459 895.504 58.6934 895.948 58.6934 896.436V897.363C58.6934 897.813 58.7396 898.235 58.8321 898.63C58.9288 899.026 59.0739 899.373 59.2673 899.671C59.4607 899.97 59.7067 900.205 60.0052 900.377C60.3037 900.546 60.6569 900.63 61.0648 900.63C61.5819 900.63 61.994 900.548 62.3009 900.384C62.6079 900.22 62.8391 899.984 62.9947 899.677C63.1545 899.37 63.268 899.003 63.3353 898.574ZM67.4727 899.387L71.9948 892.311H73.212V901.494H71.9948V894.411L67.4727 901.494H66.2617V892.311H67.4727V899.387ZM81.0263 892.311V893.307H76.5988V901.494H75.3879V892.311H81.0263ZM76.315 896.051H78.8189C79.4916 896.051 80.0593 896.164 80.5218 896.391C80.9843 896.614 81.3354 896.928 81.575 897.331C81.8147 897.735 81.9345 898.208 81.9345 898.75C81.9345 899.154 81.8673 899.524 81.7327 899.86C81.5982 900.192 81.3984 900.483 81.1335 900.731C80.8687 900.975 80.5428 901.164 80.156 901.298C79.7691 901.429 79.3234 901.494 78.8189 901.494H75.3879V892.311H76.6051V900.504H78.8189C79.2688 900.504 79.6325 900.422 79.91 900.258C80.1917 900.089 80.3977 899.871 80.5281 899.602C80.6584 899.333 80.7236 899.045 80.7236 898.738C80.7236 898.431 80.6584 898.149 80.5281 897.892C80.3977 897.636 80.1917 897.432 79.91 897.281C79.6325 897.125 79.2688 897.047 78.8189 897.047H76.315V896.051ZM86.3053 898.448L88.7334 892.311H90.1336L86.8855 899.961C86.793 900.176 86.69 900.384 86.5765 900.586C86.4629 900.783 86.3242 900.96 86.1602 901.115C85.9962 901.271 85.7923 901.395 85.5484 901.487C85.3088 901.58 85.0102 901.626 84.6528 901.626C84.5519 901.626 84.4321 901.62 84.2933 901.607C84.1546 901.599 84.0642 901.588 84.0221 901.576L84.06 900.604C84.1062 900.613 84.1966 900.621 84.3312 900.63C84.4657 900.634 84.5645 900.636 84.6276 900.636C84.8673 900.636 85.0565 900.588 85.1952 900.491C85.334 900.394 85.4454 900.272 85.5295 900.125C85.6178 899.974 85.6977 899.82 85.7692 899.665L86.3053 898.448ZM84.2429 892.311L86.7972 898.031L87.0999 899.16L86.0782 899.236L82.8806 892.311H84.2429ZM94.971 897.892H92.5176V896.902H94.971C95.4462 896.902 95.8309 896.827 96.1252 896.675C96.4195 896.524 96.634 896.314 96.7685 896.045C96.9073 895.775 96.9766 895.469 96.9766 895.124C96.9766 894.808 96.9073 894.512 96.7685 894.234C96.634 893.957 96.4195 893.734 96.1252 893.566C95.8309 893.394 95.4462 893.307 94.971 893.307H92.8014V901.494H91.5842V892.311H94.971C95.6648 892.311 96.2513 892.431 96.7307 892.67C97.21 892.91 97.5737 893.242 97.8218 893.667C98.0699 894.087 98.1939 894.569 98.1939 895.111C98.1939 895.7 98.0699 896.202 97.8218 896.618C97.5737 897.035 97.21 897.352 96.7307 897.571C96.2513 897.785 95.6648 897.892 94.971 897.892ZM99.5057 900.876C99.5057 900.678 99.5667 900.512 99.6886 900.377C99.8148 900.239 99.9956 900.169 100.231 900.169C100.466 900.169 100.645 900.239 100.767 900.377C100.893 900.512 100.956 900.678 100.956 900.876C100.956 901.069 100.893 901.233 100.767 901.368C100.645 901.502 100.466 901.569 100.231 901.569C99.9956 901.569 99.8148 901.502 99.6886 901.368C99.5667 901.233 99.5057 901.069 99.5057 900.876ZM99.512 895.307C99.512 895.109 99.573 894.943 99.6949 894.808C99.8211 894.67 100.002 894.6 100.237 894.6C100.473 894.6 100.652 894.67 100.773 894.808C100.9 894.943 100.963 895.109 100.963 895.307C100.963 895.5 100.9 895.664 100.773 895.799C100.652 895.933 100.473 896 100.237 896C100.002 896 99.8211 895.933 99.6949 895.799C99.573 895.664 99.512 895.5 99.512 895.307ZM109.452 897.892H106.998V896.902H109.452C109.927 896.902 110.312 896.827 110.606 896.675C110.9 896.524 111.115 896.314 111.249 896.045C111.388 895.775 111.457 895.469 111.457 895.124C111.457 894.808 111.388 894.512 111.249 894.234C111.115 893.957 110.9 893.734 110.606 893.566C110.312 893.394 109.927 893.307 109.452 893.307H107.282V901.494H106.065V892.311H109.452C110.146 892.311 110.732 892.431 111.211 892.67C111.691 892.91 112.054 893.242 112.303 893.667C112.551 894.087 112.675 894.569 112.675 895.111C112.675 895.7 112.551 896.202 112.303 896.618C112.054 897.035 111.691 897.352 111.211 897.571C110.732 897.785 110.146 897.892 109.452 897.892ZM116.781 901.62C116.305 901.62 115.874 901.54 115.488 901.38C115.105 901.216 114.775 900.987 114.497 900.693C114.224 900.398 114.014 900.049 113.867 899.646C113.72 899.242 113.646 898.801 113.646 898.321V898.056C113.646 897.501 113.728 897.007 113.892 896.574C114.056 896.137 114.279 895.767 114.56 895.464C114.842 895.162 115.162 894.932 115.519 894.777C115.877 894.621 116.247 894.543 116.629 894.543C117.117 894.543 117.537 894.628 117.891 894.796C118.248 894.964 118.54 895.199 118.767 895.502C118.994 895.801 119.162 896.154 119.272 896.562C119.381 896.965 119.436 897.407 119.436 897.886V898.41H114.34V897.457H118.269V897.369C118.252 897.066 118.189 896.772 118.08 896.486C117.975 896.2 117.806 895.965 117.575 895.78C117.344 895.595 117.029 895.502 116.629 895.502C116.364 895.502 116.12 895.559 115.898 895.672C115.675 895.782 115.483 895.946 115.324 896.164C115.164 896.383 115.04 896.65 114.951 896.965C114.863 897.281 114.819 897.644 114.819 898.056V898.321C114.819 898.645 114.863 898.95 114.951 899.236C115.044 899.518 115.176 899.766 115.349 899.98C115.525 900.195 115.738 900.363 115.986 900.485C116.238 900.607 116.524 900.668 116.844 900.668C117.256 900.668 117.605 900.583 117.891 900.415C118.176 900.247 118.427 900.022 118.641 899.74L119.347 900.302C119.2 900.525 119.013 900.737 118.786 900.939C118.559 901.141 118.279 901.305 117.947 901.431C117.619 901.557 117.23 901.62 116.781 901.62ZM122.066 894.67V901.494H120.899V894.67H122.066ZM126.544 894.67L123.308 898.58H121.675L121.498 897.558H122.835L125.125 894.67H126.544ZM125.289 901.494L122.778 898.403L123.529 897.558L126.771 901.494H125.289ZM127.338 898.157V898.012C127.338 897.52 127.41 897.064 127.553 896.644C127.696 896.219 127.902 895.851 128.171 895.54C128.44 895.225 128.766 894.981 129.148 894.808C129.531 894.632 129.96 894.543 130.435 894.543C130.914 894.543 131.345 894.632 131.728 894.808C132.115 894.981 132.443 895.225 132.712 895.54C132.985 895.851 133.193 896.219 133.336 896.644C133.479 897.064 133.551 897.52 133.551 898.012V898.157C133.551 898.649 133.479 899.106 133.336 899.526C133.193 899.946 132.985 900.314 132.712 900.63C132.443 900.941 132.117 901.185 131.734 901.361C131.356 901.534 130.927 901.62 130.448 901.62C129.968 901.62 129.537 901.534 129.155 901.361C128.772 901.185 128.444 900.941 128.171 900.63C127.902 900.314 127.696 899.946 127.553 899.526C127.41 899.106 127.338 898.649 127.338 898.157ZM128.505 898.012V898.157C128.505 898.498 128.545 898.82 128.625 899.122C128.705 899.421 128.825 899.686 128.984 899.917C129.148 900.148 129.352 900.331 129.596 900.466C129.84 900.596 130.124 900.661 130.448 900.661C130.767 900.661 131.047 900.596 131.287 900.466C131.53 900.331 131.732 900.148 131.892 899.917C132.052 899.686 132.172 899.421 132.252 899.122C132.336 898.82 132.378 898.498 132.378 898.157V898.012C132.378 897.676 132.336 897.359 132.252 897.06C132.172 896.757 132.05 896.49 131.886 896.259C131.726 896.024 131.524 895.839 131.28 895.704C131.041 895.569 130.759 895.502 130.435 895.502C130.116 895.502 129.834 895.569 129.59 895.704C129.35 895.839 129.148 896.024 128.984 896.259C128.825 896.49 128.705 896.757 128.625 897.06C128.545 897.359 128.505 897.676 128.505 898.012ZM138.937 899.942L141.258 894.67H142.38L139.341 901.494H138.533L135.506 894.67H136.629L138.937 899.942ZM136.288 894.67V901.494H135.121V894.67H136.288ZM141.548 901.494V894.67H142.721V901.494H141.548ZM147.432 901.62C146.957 901.62 146.526 901.54 146.139 901.38C145.757 901.216 145.427 900.987 145.149 900.693C144.876 900.398 144.666 900.049 144.519 899.646C144.371 899.242 144.298 898.801 144.298 898.321V898.056C144.298 897.501 144.38 897.007 144.544 896.574C144.708 896.137 144.931 895.767 145.212 895.464C145.494 895.162 145.814 894.932 146.171 894.777C146.528 894.621 146.898 894.543 147.281 894.543C147.769 894.543 148.189 894.628 148.542 894.796C148.9 894.964 149.192 895.199 149.419 895.502C149.646 895.801 149.814 896.154 149.924 896.562C150.033 896.965 150.088 897.407 150.088 897.886V898.41H144.992V897.457H148.921V897.369C148.904 897.066 148.841 896.772 148.732 896.486C148.626 896.2 148.458 895.965 148.227 895.78C147.996 895.595 147.68 895.502 147.281 895.502C147.016 895.502 146.772 895.559 146.549 895.672C146.327 895.782 146.135 895.946 145.975 896.164C145.816 896.383 145.692 896.65 145.603 896.965C145.515 897.281 145.471 897.644 145.471 898.056V898.321C145.471 898.645 145.515 898.95 145.603 899.236C145.696 899.518 145.828 899.766 146.001 899.98C146.177 900.195 146.39 900.363 146.638 900.485C146.89 900.607 147.176 900.668 147.495 900.668C147.907 900.668 148.256 900.583 148.542 900.415C148.828 900.247 149.078 900.022 149.293 899.74L149.999 900.302C149.852 900.525 149.665 900.737 149.438 900.939C149.211 901.141 148.931 901.305 148.599 901.431C148.271 901.557 147.882 901.62 147.432 901.62ZM156.079 897.628V898.574H152.472V897.628H156.079ZM152.718 894.67V901.494H151.551V894.67H152.718ZM157.025 894.67V901.494H155.852V894.67H157.025ZM160.135 894.67H161.301L161.2 897.224C161.175 897.871 161.102 898.431 160.98 898.902C160.858 899.373 160.702 899.774 160.513 900.106C160.324 900.434 160.111 900.71 159.876 900.932C159.645 901.155 159.405 901.342 159.157 901.494H158.577L158.608 900.541L158.848 900.535C158.987 900.371 159.121 900.203 159.252 900.031C159.382 899.854 159.502 899.646 159.611 899.406C159.72 899.162 159.811 898.866 159.882 898.517C159.958 898.164 160.006 897.733 160.027 897.224L160.135 894.67ZM160.425 894.67H164.531V901.494H163.364V895.748H160.425V894.67ZM158.312 900.535H165.407V903.506H164.24V901.494H159.479V903.506H158.306L158.312 900.535ZM170.724 900.327V896.814C170.724 896.545 170.669 896.312 170.56 896.114C170.455 895.912 170.295 895.757 170.081 895.647C169.866 895.538 169.601 895.483 169.286 895.483C168.992 895.483 168.733 895.534 168.51 895.635C168.292 895.736 168.119 895.868 167.993 896.032C167.871 896.196 167.81 896.373 167.81 896.562H166.643C166.643 896.318 166.706 896.076 166.833 895.836C166.959 895.597 167.14 895.38 167.375 895.187C167.615 894.989 167.901 894.834 168.233 894.72C168.569 894.602 168.943 894.543 169.355 894.543C169.852 894.543 170.289 894.628 170.667 894.796C171.05 894.964 171.348 895.218 171.563 895.559C171.781 895.895 171.891 896.318 171.891 896.827V900.005C171.891 900.232 171.91 900.474 171.948 900.731C171.99 900.987 172.051 901.208 172.13 901.393V901.494H170.913C170.854 901.359 170.808 901.181 170.774 900.958C170.741 900.731 170.724 900.52 170.724 900.327ZM170.926 897.356L170.938 898.176H169.759C169.427 898.176 169.13 898.204 168.87 898.258C168.609 898.309 168.39 898.387 168.214 898.492C168.037 898.597 167.903 898.729 167.81 898.889C167.718 899.045 167.671 899.227 167.671 899.438C167.671 899.652 167.72 899.848 167.816 900.024C167.913 900.201 168.058 900.342 168.252 900.447C168.449 900.548 168.691 900.598 168.977 900.598C169.334 900.598 169.65 900.523 169.923 900.371C170.196 900.22 170.413 900.035 170.573 899.816C170.737 899.597 170.825 899.385 170.838 899.179L171.336 899.74C171.306 899.917 171.226 900.113 171.096 900.327C170.966 900.541 170.791 900.747 170.573 900.945C170.358 901.138 170.102 901.3 169.803 901.431C169.509 901.557 169.177 901.62 168.807 901.62C168.344 901.62 167.938 901.53 167.589 901.349C167.245 901.168 166.976 900.926 166.782 900.623C166.593 900.316 166.498 899.974 166.498 899.595C166.498 899.23 166.57 898.908 166.713 898.63C166.856 898.349 167.062 898.115 167.331 897.93C167.6 897.741 167.924 897.598 168.302 897.501C168.681 897.405 169.103 897.356 169.57 897.356H170.926ZM173.827 901.494V894.67H174.994V900.535H178.135V894.67H179.308V901.494H173.827ZM180.115 900.535L180.002 903.518H178.961V901.494H178.072V900.535H180.115ZM182.644 899.646L185.791 894.67H186.964V901.494H185.791V896.518L182.644 901.494H181.484V894.67H182.644V899.646ZM190.099 899.646L193.246 894.67H194.419V901.494H193.246V896.518L190.099 901.494H188.939V894.67H190.099V899.646ZM204.044 894.67V895.635H200.594V894.67H204.044ZM200.764 894.67V901.494H199.597V894.67H200.764ZM205.078 894.67V901.494H203.905V894.67H205.078ZM206.642 898.157V898.012C206.642 897.52 206.714 897.064 206.857 896.644C207 896.219 207.206 895.851 207.475 895.54C207.744 895.225 208.07 894.981 208.452 894.808C208.835 894.632 209.264 894.543 209.739 894.543C210.218 894.543 210.649 894.632 211.032 894.808C211.419 894.981 211.747 895.225 212.016 895.54C212.289 895.851 212.497 896.219 212.64 896.644C212.783 897.064 212.855 897.52 212.855 898.012V898.157C212.855 898.649 212.783 899.106 212.64 899.526C212.497 899.946 212.289 900.314 212.016 900.63C211.747 900.941 211.421 901.185 211.038 901.361C210.66 901.534 210.231 901.62 209.751 901.62C209.272 901.62 208.841 901.534 208.459 901.361C208.076 901.185 207.748 900.941 207.475 900.63C207.206 900.314 207 899.946 206.857 899.526C206.714 899.106 206.642 898.649 206.642 898.157ZM207.809 898.012V898.157C207.809 898.498 207.849 898.82 207.929 899.122C208.009 899.421 208.129 899.686 208.288 899.917C208.452 900.148 208.656 900.331 208.9 900.466C209.144 900.596 209.428 900.661 209.751 900.661C210.071 900.661 210.351 900.596 210.59 900.466C210.834 900.331 211.036 900.148 211.196 899.917C211.356 899.686 211.475 899.421 211.555 899.122C211.639 898.82 211.681 898.498 211.681 898.157V898.012C211.681 897.676 211.639 897.359 211.555 897.06C211.475 896.757 211.353 896.49 211.189 896.259C211.03 896.024 210.828 895.839 210.584 895.704C210.344 895.569 210.063 895.502 209.739 895.502C209.419 895.502 209.138 895.569 208.894 895.704C208.654 895.839 208.452 896.024 208.288 896.259C208.129 896.49 208.009 896.757 207.929 897.06C207.849 897.359 207.809 897.676 207.809 898.012ZM218.783 899.646L221.93 894.67H223.103V901.494H221.93V896.518L218.783 901.494H217.623V894.67H218.783V899.646ZM227.707 900.661C227.985 900.661 228.241 900.604 228.477 900.491C228.712 900.377 228.906 900.222 229.057 900.024C229.208 899.822 229.295 899.593 229.316 899.337H230.426C230.405 899.74 230.268 900.117 230.016 900.466C229.768 900.811 229.442 901.09 229.038 901.305C228.635 901.515 228.191 901.62 227.707 901.62C227.194 901.62 226.747 901.53 226.364 901.349C225.986 901.168 225.67 900.92 225.418 900.604C225.17 900.289 224.983 899.928 224.857 899.52C224.735 899.108 224.674 898.672 224.674 898.214V897.949C224.674 897.491 224.735 897.058 224.857 896.65C224.983 896.238 225.17 895.874 225.418 895.559C225.67 895.244 225.986 894.995 226.364 894.815C226.747 894.634 227.194 894.543 227.707 894.543C228.241 894.543 228.708 894.653 229.108 894.871C229.507 895.086 229.82 895.38 230.047 895.754C230.279 896.124 230.405 896.545 230.426 897.016H229.316C229.295 896.734 229.215 896.48 229.076 896.253C228.941 896.026 228.756 895.845 228.521 895.71C228.29 895.572 228.019 895.502 227.707 895.502C227.35 895.502 227.049 895.574 226.806 895.717C226.566 895.855 226.375 896.045 226.232 896.284C226.093 896.52 225.992 896.782 225.929 897.073C225.87 897.359 225.841 897.651 225.841 897.949V898.214C225.841 898.513 225.87 898.807 225.929 899.097C225.988 899.387 226.087 899.65 226.225 899.885C226.368 900.121 226.56 900.31 226.799 900.453C227.043 900.592 227.346 900.661 227.707 900.661ZM236.285 894.67V895.635H232.835V894.67H236.285ZM233.005 894.67V901.494H231.838V894.67H233.005ZM237.319 894.67V901.494H236.146V894.67H237.319ZM238.883 898.157V898.012C238.883 897.52 238.955 897.064 239.098 896.644C239.241 896.219 239.447 895.851 239.716 895.54C239.985 895.225 240.311 894.981 240.693 894.808C241.076 894.632 241.505 894.543 241.98 894.543C242.459 894.543 242.89 894.632 243.273 894.808C243.66 894.981 243.988 895.225 244.257 895.54C244.53 895.851 244.738 896.219 244.881 896.644C245.024 897.064 245.096 897.52 245.096 898.012V898.157C245.096 898.649 245.024 899.106 244.881 899.526C244.738 899.946 244.53 900.314 244.257 900.63C243.988 900.941 243.662 901.185 243.279 901.361C242.901 901.534 242.472 901.62 241.993 901.62C241.513 901.62 241.082 901.534 240.7 901.361C240.317 901.185 239.989 900.941 239.716 900.63C239.447 900.314 239.241 899.946 239.098 899.526C238.955 899.106 238.883 898.649 238.883 898.157ZM240.05 898.012V898.157C240.05 898.498 240.09 898.82 240.17 899.122C240.25 899.421 240.37 899.686 240.529 899.917C240.693 900.148 240.897 900.331 241.141 900.466C241.385 900.596 241.669 900.661 241.993 900.661C242.312 900.661 242.592 900.596 242.832 900.466C243.075 900.331 243.277 900.148 243.437 899.917C243.597 899.686 243.717 899.421 243.796 899.122C243.881 898.82 243.923 898.498 243.923 898.157V898.012C243.923 897.676 243.881 897.359 243.796 897.06C243.717 896.757 243.595 896.49 243.431 896.259C243.271 896.024 243.069 895.839 242.825 895.704C242.586 895.569 242.304 895.502 241.98 895.502C241.661 895.502 241.379 895.569 241.135 895.704C240.895 895.839 240.693 896.024 240.529 896.259C240.37 896.49 240.25 896.757 240.17 897.06C240.09 897.359 240.05 897.676 240.05 898.012ZM251.018 894.67V895.635H247.719V894.67H251.018ZM252.046 894.67V901.494H250.879V894.67H252.046ZM247.436 894.67H248.609L248.432 897.962C248.403 898.471 248.354 898.921 248.287 899.312C248.224 899.698 248.136 900.031 248.022 900.308C247.913 900.586 247.774 900.813 247.606 900.989C247.442 901.162 247.244 901.29 247.013 901.374C246.782 901.454 246.515 901.494 246.212 901.494H245.846V900.466L246.099 900.447C246.279 900.434 246.433 900.392 246.559 900.321C246.689 900.249 246.799 900.144 246.887 900.005C246.975 899.862 247.047 899.679 247.101 899.457C247.16 899.234 247.204 898.969 247.234 898.662C247.267 898.355 247.293 897.998 247.309 897.59L247.436 894.67ZM254.884 897.016H256.934C257.485 897.016 257.949 897.113 258.328 897.306C258.706 897.495 258.992 897.758 259.186 898.094C259.383 898.426 259.482 898.805 259.482 899.23C259.482 899.545 259.427 899.841 259.318 900.119C259.209 900.392 259.045 900.632 258.826 900.838C258.612 901.044 258.345 901.206 258.025 901.323C257.71 901.437 257.346 901.494 256.934 901.494H254.033V894.67H255.199V900.535H256.934C257.27 900.535 257.539 900.474 257.741 900.352C257.943 900.23 258.088 900.073 258.176 899.879C258.265 899.686 258.309 899.484 258.309 899.274C258.309 899.068 258.265 898.866 258.176 898.668C258.088 898.471 257.943 898.307 257.741 898.176C257.539 898.042 257.27 897.974 256.934 897.974H254.884V897.016ZM263.487 898.233H262.232V897.514H263.392C263.716 897.514 263.972 897.474 264.162 897.394C264.351 897.31 264.485 897.195 264.565 897.047C264.645 896.9 264.685 896.728 264.685 896.53C264.685 896.354 264.639 896.188 264.546 896.032C264.458 895.872 264.315 895.744 264.118 895.647C263.92 895.546 263.655 895.496 263.323 895.496C263.054 895.496 262.81 895.544 262.591 895.641C262.373 895.733 262.198 895.862 262.068 896.026C261.942 896.185 261.879 896.366 261.879 896.568H260.712C260.712 896.152 260.83 895.794 261.065 895.496C261.305 895.193 261.622 894.96 262.017 894.796C262.417 894.632 262.852 894.55 263.323 894.55C263.718 894.55 264.071 894.594 264.382 894.682C264.698 894.766 264.965 894.892 265.183 895.061C265.402 895.225 265.568 895.431 265.682 895.679C265.799 895.923 265.858 896.206 265.858 896.53C265.858 896.761 265.804 896.98 265.694 897.186C265.585 897.392 265.427 897.575 265.221 897.735C265.015 897.89 264.765 898.012 264.471 898.101C264.181 898.189 263.853 898.233 263.487 898.233ZM262.232 897.792H263.487C263.895 897.792 264.254 897.832 264.565 897.911C264.876 897.987 265.137 898.101 265.347 898.252C265.558 898.403 265.715 898.59 265.82 898.813C265.93 899.032 265.984 899.284 265.984 899.57C265.984 899.89 265.919 900.178 265.789 900.434C265.663 900.686 265.482 900.901 265.246 901.078C265.011 901.254 264.729 901.389 264.401 901.481C264.078 901.574 263.718 901.62 263.323 901.62C262.881 901.62 262.452 901.544 262.036 901.393C261.62 901.241 261.277 901.008 261.008 900.693C260.739 900.373 260.605 899.967 260.605 899.476H261.771C261.771 899.682 261.837 899.877 261.967 900.062C262.097 900.247 262.278 900.396 262.509 900.51C262.745 900.623 263.016 900.68 263.323 900.68C263.651 900.68 263.924 900.63 264.143 900.529C264.361 900.428 264.525 900.293 264.635 900.125C264.748 899.957 264.805 899.774 264.805 899.576C264.805 899.32 264.755 899.114 264.654 898.958C264.553 898.803 264.397 898.689 264.187 898.618C263.981 898.542 263.716 898.504 263.392 898.504H262.232V897.792ZM267.189 898.157V898.012C267.189 897.52 267.261 897.064 267.403 896.644C267.546 896.219 267.752 895.851 268.022 895.54C268.291 895.225 268.617 894.981 268.999 894.808C269.382 894.632 269.811 894.543 270.286 894.543C270.765 894.543 271.196 894.632 271.579 894.808C271.966 894.981 272.293 895.225 272.563 895.54C272.836 895.851 273.044 896.219 273.187 896.644C273.33 897.064 273.401 897.52 273.401 898.012V898.157C273.401 898.649 273.33 899.106 273.187 899.526C273.044 899.946 272.836 900.314 272.563 900.63C272.293 900.941 271.968 901.185 271.585 901.361C271.207 901.534 270.778 901.62 270.298 901.62C269.819 901.62 269.388 901.534 269.005 901.361C268.623 901.185 268.295 900.941 268.022 900.63C267.752 900.314 267.546 899.946 267.403 899.526C267.261 899.106 267.189 898.649 267.189 898.157ZM268.356 898.012V898.157C268.356 898.498 268.396 898.82 268.476 899.122C268.556 899.421 268.675 899.686 268.835 899.917C268.999 900.148 269.203 900.331 269.447 900.466C269.691 900.596 269.975 900.661 270.298 900.661C270.618 900.661 270.898 900.596 271.137 900.466C271.381 900.331 271.583 900.148 271.743 899.917C271.902 899.686 272.022 899.421 272.102 899.122C272.186 898.82 272.228 898.498 272.228 898.157V898.012C272.228 897.676 272.186 897.359 272.102 897.06C272.022 896.757 271.9 896.49 271.736 896.259C271.577 896.024 271.375 895.839 271.131 895.704C270.891 895.569 270.61 895.502 270.286 895.502C269.966 895.502 269.684 895.569 269.441 895.704C269.201 895.839 268.999 896.024 268.835 896.259C268.675 896.49 268.556 896.757 268.476 897.06C268.396 897.359 268.356 897.676 268.356 898.012ZM278.069 898.492H275.83L275.817 897.558H277.646C278.008 897.558 278.308 897.522 278.548 897.451C278.792 897.38 278.975 897.272 279.097 897.129C279.219 896.986 279.279 896.81 279.279 896.6C279.279 896.436 279.244 896.293 279.172 896.171C279.105 896.045 279.002 895.942 278.863 895.862C278.724 895.778 278.552 895.717 278.346 895.679C278.144 895.637 277.907 895.616 277.633 895.616H276.139V901.494H274.972V894.67H277.633C278.066 894.67 278.455 894.707 278.8 894.783C279.149 894.859 279.446 894.974 279.689 895.13C279.938 895.281 280.127 895.475 280.257 895.71C280.387 895.946 280.453 896.223 280.453 896.543C280.453 896.749 280.411 896.944 280.326 897.129C280.242 897.314 280.118 897.478 279.954 897.621C279.79 897.764 279.589 897.882 279.349 897.974C279.109 898.063 278.834 898.12 278.523 898.145L278.069 898.492ZM278.069 901.494H275.407L275.987 900.548H278.069C278.392 900.548 278.661 900.508 278.876 900.428C279.09 900.344 279.25 900.226 279.355 900.075C279.464 899.919 279.519 899.734 279.519 899.52C279.519 899.305 279.464 899.122 279.355 898.971C279.25 898.815 279.09 898.698 278.876 898.618C278.661 898.534 278.392 898.492 278.069 898.492H276.296L276.309 897.558H278.523L278.945 897.911C279.319 897.941 279.637 898.033 279.898 898.189C280.158 898.344 280.356 898.542 280.49 898.782C280.625 899.017 280.692 899.274 280.692 899.551C280.692 899.871 280.631 900.152 280.509 900.396C280.392 900.64 280.219 900.844 279.992 901.008C279.765 901.168 279.49 901.29 279.166 901.374C278.842 901.454 278.476 901.494 278.069 901.494ZM286.28 900.327V896.814C286.28 896.545 286.226 896.312 286.116 896.114C286.011 895.912 285.851 895.757 285.637 895.647C285.422 895.538 285.158 895.483 284.842 895.483C284.548 895.483 284.289 895.534 284.066 895.635C283.848 895.736 283.675 895.868 283.549 896.032C283.427 896.196 283.366 896.373 283.366 896.562H282.2C282.2 896.318 282.263 896.076 282.389 895.836C282.515 895.597 282.696 895.38 282.931 895.187C283.171 894.989 283.457 894.834 283.789 894.72C284.125 894.602 284.5 894.543 284.912 894.543C285.408 894.543 285.845 894.628 286.223 894.796C286.606 894.964 286.905 895.218 287.119 895.559C287.338 895.895 287.447 896.318 287.447 896.827V900.005C287.447 900.232 287.466 900.474 287.504 900.731C287.546 900.987 287.607 901.208 287.687 901.393V901.494H286.469C286.411 901.359 286.364 901.181 286.331 900.958C286.297 900.731 286.28 900.52 286.28 900.327ZM286.482 897.356L286.495 898.176H285.315C284.983 898.176 284.687 898.204 284.426 898.258C284.165 898.309 283.947 898.387 283.77 898.492C283.593 898.597 283.459 898.729 283.366 898.889C283.274 899.045 283.228 899.227 283.228 899.438C283.228 899.652 283.276 899.848 283.373 900.024C283.469 900.201 283.614 900.342 283.808 900.447C284.006 900.548 284.247 900.598 284.533 900.598C284.891 900.598 285.206 900.523 285.479 900.371C285.753 900.22 285.969 900.035 286.129 899.816C286.293 899.597 286.381 899.385 286.394 899.179L286.892 899.74C286.863 899.917 286.783 900.113 286.652 900.327C286.522 900.541 286.347 900.747 286.129 900.945C285.914 901.138 285.658 901.3 285.359 901.431C285.065 901.557 284.733 901.62 284.363 901.62C283.9 901.62 283.495 901.53 283.146 901.349C282.801 901.168 282.532 900.926 282.338 900.623C282.149 900.316 282.055 899.974 282.055 899.595C282.055 899.23 282.126 898.908 282.269 898.63C282.412 898.349 282.618 898.115 282.887 897.93C283.156 897.741 283.48 897.598 283.858 897.501C284.237 897.405 284.659 897.356 285.126 897.356H286.482ZM293.912 897.628V898.574H290.304V897.628H293.912ZM290.55 894.67V901.494H289.383V894.67H290.55ZM294.858 894.67V901.494H293.685V894.67H294.858ZM297.999 899.646L301.146 894.67H302.319V901.494H301.146V896.518L297.999 901.494H296.838V894.67H297.999V899.646ZM308.077 897.565V898.517H304.451V897.565H308.077ZM305.466 894.67V901.494H304.299V894.67H305.466ZM307.081 898.157V898.012C307.081 897.52 307.152 897.064 307.295 896.644C307.438 896.219 307.644 895.851 307.913 895.54C308.186 895.225 308.512 894.981 308.891 894.808C309.273 894.632 309.702 894.543 310.177 894.543C310.661 894.543 311.094 894.632 311.477 894.808C311.859 894.981 312.185 895.225 312.454 895.54C312.727 895.851 312.936 896.219 313.079 896.644C313.221 897.064 313.293 897.52 313.293 898.012V898.157C313.293 898.649 313.221 899.106 313.079 899.526C312.936 899.946 312.73 900.314 312.46 900.63C312.191 900.941 311.865 901.185 311.483 901.361C311.1 901.534 310.669 901.62 310.19 901.62C309.711 901.62 309.28 901.534 308.897 901.361C308.514 901.185 308.186 900.941 307.913 900.63C307.644 900.314 307.438 899.946 307.295 899.526C307.152 899.106 307.081 898.649 307.081 898.157ZM308.254 898.012V898.157C308.254 898.498 308.294 898.82 308.374 899.122C308.453 899.421 308.573 899.686 308.733 899.917C308.897 900.148 309.099 900.331 309.338 900.466C309.582 900.596 309.866 900.661 310.19 900.661C310.514 900.661 310.795 900.596 311.035 900.466C311.279 900.331 311.481 900.148 311.641 899.917C311.8 899.686 311.92 899.421 312 899.122C312.084 898.82 312.126 898.498 312.126 898.157V898.012C312.126 897.676 312.084 897.359 312 897.06C311.92 896.757 311.798 896.49 311.634 896.259C311.474 896.024 311.273 895.839 311.029 895.704C310.785 895.569 310.501 895.502 310.177 895.502C309.858 895.502 309.578 895.569 309.338 895.704C309.099 895.839 308.897 896.024 308.733 896.259C308.573 896.49 308.453 896.757 308.374 897.06C308.294 897.359 308.254 897.676 308.254 898.012Z" fill="#00313C"/>
<path d="M311.348 895.502C311.091 895.502 310.845 895.559 310.61 895.672C310.379 895.786 310.187 895.944 310.036 896.145C309.889 896.343 309.815 896.572 309.815 896.833H308.699C308.699 896.425 308.825 896.049 309.077 895.704C309.33 895.355 309.658 895.075 310.061 894.865C310.465 894.651 310.894 894.543 311.348 894.543C311.827 894.543 312.252 894.634 312.622 894.815C312.992 894.995 313.303 895.244 313.555 895.559C313.812 895.874 314.005 896.238 314.135 896.65C314.266 897.058 314.331 897.491 314.331 897.949V898.214C314.331 898.672 314.264 899.108 314.129 899.52C313.999 899.928 313.805 900.291 313.549 900.611C313.297 900.926 312.986 901.174 312.616 901.355C312.25 901.536 311.829 901.626 311.354 901.626C310.845 901.626 310.389 901.517 309.986 901.298C309.586 901.08 309.271 900.785 309.039 900.415C308.812 900.041 308.699 899.621 308.699 899.154H309.815C309.815 899.436 309.883 899.692 310.017 899.923C310.156 900.15 310.341 900.331 310.572 900.466C310.803 900.6 311.064 900.668 311.354 900.668C311.669 900.668 311.941 900.596 312.168 900.453C312.399 900.31 312.588 900.121 312.735 899.885C312.883 899.65 312.99 899.387 313.057 899.097C313.128 898.803 313.164 898.508 313.164 898.214V897.949C313.164 897.651 313.128 897.356 313.057 897.066C312.99 896.776 312.883 896.513 312.735 896.278C312.592 896.042 312.405 895.855 312.174 895.717C311.947 895.574 311.672 895.502 311.348 895.502ZM313.732 897.539V898.492H310.585V897.539H313.732ZM320.379 894.67V895.635H317.081V894.67H320.379ZM321.407 894.67V901.494H320.241V894.67H321.407ZM316.797 894.67H317.97L317.794 897.962C317.764 898.471 317.716 898.921 317.648 899.312C317.585 899.698 317.497 900.031 317.384 900.308C317.274 900.586 317.136 900.813 316.967 900.989C316.803 901.162 316.606 901.29 316.374 901.374C316.143 901.454 315.876 901.494 315.573 901.494H315.208V900.466L315.46 900.447C315.641 900.434 315.794 900.392 315.92 900.321C316.051 900.249 316.16 900.144 316.248 900.005C316.337 899.862 316.408 899.679 316.463 899.457C316.522 899.234 316.566 898.969 316.595 898.662C316.629 898.355 316.654 897.998 316.671 897.59L316.797 894.67ZM326.119 901.62C325.644 901.62 325.213 901.54 324.826 901.38C324.443 901.216 324.113 900.987 323.836 900.693C323.562 900.398 323.352 900.049 323.205 899.646C323.058 899.242 322.984 898.801 322.984 898.321V898.056C322.984 897.501 323.066 897.007 323.23 896.574C323.394 896.137 323.617 895.767 323.899 895.464C324.18 895.162 324.5 894.932 324.857 894.777C325.215 894.621 325.585 894.543 325.967 894.543C326.455 894.543 326.876 894.628 327.229 894.796C327.586 894.964 327.878 895.199 328.105 895.502C328.332 895.801 328.501 896.154 328.61 896.562C328.719 896.965 328.774 897.407 328.774 897.886V898.41H323.678V897.457H327.607V897.369C327.59 897.066 327.527 896.772 327.418 896.486C327.313 896.2 327.145 895.965 326.913 895.78C326.682 895.595 326.367 895.502 325.967 895.502C325.702 895.502 325.459 895.559 325.236 895.672C325.013 895.782 324.822 895.946 324.662 896.164C324.502 896.383 324.378 896.65 324.29 896.965C324.201 897.281 324.157 897.644 324.157 898.056V898.321C324.157 898.645 324.201 898.95 324.29 899.236C324.382 899.518 324.515 899.766 324.687 899.98C324.864 900.195 325.076 900.363 325.324 900.485C325.576 900.607 325.862 900.668 326.182 900.668C326.594 900.668 326.943 900.583 327.229 900.415C327.515 900.247 327.765 900.022 327.979 899.74L328.686 900.302C328.539 900.525 328.351 900.737 328.124 900.939C327.897 901.141 327.618 901.305 327.286 901.431C326.958 901.557 326.569 901.62 326.119 901.62ZM334.059 899.942L336.38 894.67H337.503L334.463 901.494H333.656L330.628 894.67H331.751L334.059 899.942ZM331.41 894.67V901.494H330.243V894.67H331.41ZM336.67 901.494V894.67H337.843V901.494H336.67ZM342.555 901.62C342.08 901.62 341.649 901.54 341.262 901.38C340.879 901.216 340.549 900.987 340.272 900.693C339.998 900.398 339.788 900.049 339.641 899.646C339.494 899.242 339.42 898.801 339.42 898.321V898.056C339.42 897.501 339.502 897.007 339.666 896.574C339.83 896.137 340.053 895.767 340.335 895.464C340.616 895.162 340.936 894.932 341.293 894.777C341.651 894.621 342.021 894.543 342.403 894.543C342.891 894.543 343.312 894.628 343.665 894.796C344.022 894.964 344.314 895.199 344.541 895.502C344.768 895.801 344.937 896.154 345.046 896.562C345.155 896.965 345.21 897.407 345.21 897.886V898.41H340.114V897.457H344.043V897.369C344.026 897.066 343.963 896.772 343.854 896.486C343.749 896.2 343.581 895.965 343.349 895.78C343.118 895.595 342.803 895.502 342.403 895.502C342.138 895.502 341.895 895.559 341.672 895.672C341.449 895.782 341.258 895.946 341.098 896.164C340.938 896.383 340.814 896.65 340.726 896.965C340.637 897.281 340.593 897.644 340.593 898.056V898.321C340.593 898.645 340.637 898.95 340.726 899.236C340.818 899.518 340.951 899.766 341.123 899.98C341.3 900.195 341.512 900.363 341.76 900.485C342.012 900.607 342.298 900.668 342.618 900.668C343.03 900.668 343.379 900.583 343.665 900.415C343.951 900.247 344.201 900.022 344.415 899.74L345.122 900.302C344.974 900.525 344.787 900.737 344.56 900.939C344.333 901.141 344.054 901.305 343.721 901.431C343.394 901.557 343.005 901.62 342.555 901.62ZM351.202 897.628V898.574H347.594V897.628H351.202ZM347.84 894.67V901.494H346.673V894.67H347.84ZM352.148 894.67V901.494H350.974V894.67H352.148ZM356.808 894.67V901.494H355.635V894.67H356.808ZM359.098 894.67V895.616H353.39V894.67H359.098ZM359.672 898.157V898.012C359.672 897.52 359.743 897.064 359.886 896.644C360.029 896.219 360.235 895.851 360.504 895.54C360.773 895.225 361.099 894.981 361.482 894.808C361.865 894.632 362.293 894.543 362.769 894.543C363.248 894.543 363.679 894.632 364.061 894.808C364.448 894.981 364.776 895.225 365.045 895.54C365.319 895.851 365.527 896.219 365.67 896.644C365.813 897.064 365.884 897.52 365.884 898.012V898.157C365.884 898.649 365.813 899.106 365.67 899.526C365.527 899.946 365.319 900.314 365.045 900.63C364.776 900.941 364.45 901.185 364.068 901.361C363.689 901.534 363.26 901.62 362.781 901.62C362.302 901.62 361.871 901.534 361.488 901.361C361.106 901.185 360.778 900.941 360.504 900.63C360.235 900.314 360.029 899.946 359.886 899.526C359.743 899.106 359.672 898.649 359.672 898.157ZM360.839 898.012V898.157C360.839 898.498 360.879 898.82 360.958 899.122C361.038 899.421 361.158 899.686 361.318 899.917C361.482 900.148 361.686 900.331 361.93 900.466C362.174 900.596 362.457 900.661 362.781 900.661C363.101 900.661 363.38 900.596 363.62 900.466C363.864 900.331 364.066 900.148 364.225 899.917C364.385 899.686 364.505 899.421 364.585 899.122C364.669 898.82 364.711 898.498 364.711 898.157V898.012C364.711 897.676 364.669 897.359 364.585 897.06C364.505 896.757 364.383 896.49 364.219 896.259C364.059 896.024 363.858 895.839 363.614 895.704C363.374 895.569 363.092 895.502 362.769 895.502C362.449 895.502 362.167 895.569 361.923 895.704C361.684 895.839 361.482 896.024 361.318 896.259C361.158 896.49 361.038 896.757 360.958 897.06C360.879 897.359 360.839 897.676 360.839 898.012ZM370.551 898.492H368.312L368.3 897.558H370.129C370.49 897.558 370.791 897.522 371.031 897.451C371.275 897.38 371.457 897.272 371.579 897.129C371.701 896.986 371.762 896.81 371.762 896.6C371.762 896.436 371.727 896.293 371.655 896.171C371.588 896.045 371.485 895.942 371.346 895.862C371.207 895.778 371.035 895.717 370.829 895.679C370.627 895.637 370.389 895.616 370.116 895.616H368.621V901.494H367.455V894.67H370.116C370.549 894.67 370.938 894.707 371.283 894.783C371.632 894.859 371.928 894.974 372.172 895.13C372.42 895.281 372.609 895.475 372.74 895.71C372.87 895.946 372.935 896.223 372.935 896.543C372.935 896.749 372.893 896.944 372.809 897.129C372.725 897.314 372.601 897.478 372.437 897.621C372.273 897.764 372.071 897.882 371.832 897.974C371.592 898.063 371.317 898.12 371.005 898.145L370.551 898.492ZM370.551 901.494H367.89L368.47 900.548H370.551C370.875 900.548 371.144 900.508 371.359 900.428C371.573 900.344 371.733 900.226 371.838 900.075C371.947 899.919 372.002 899.734 372.002 899.52C372.002 899.305 371.947 899.122 371.838 898.971C371.733 898.815 371.573 898.698 371.359 898.618C371.144 898.534 370.875 898.492 370.551 898.492H368.779L368.792 897.558H371.005L371.428 897.911C371.802 897.941 372.12 898.033 372.38 898.189C372.641 898.344 372.839 898.542 372.973 898.782C373.108 899.017 373.175 899.274 373.175 899.551C373.175 899.871 373.114 900.152 372.992 900.396C372.874 900.64 372.702 900.844 372.475 901.008C372.248 901.168 371.972 901.29 371.649 901.374C371.325 901.454 370.959 901.494 370.551 901.494ZM385.789 898.202V898.334C385.789 898.813 385.736 899.255 385.631 899.658C385.526 900.058 385.368 900.405 385.158 900.699C384.952 900.993 384.696 901.223 384.389 901.387C384.082 901.546 383.727 901.626 383.323 901.626C382.991 901.626 382.699 901.582 382.446 901.494C382.194 901.401 381.98 901.269 381.803 901.096C381.631 900.924 381.492 900.718 381.387 900.478C381.286 900.234 381.216 899.961 381.179 899.658V896.631C381.216 896.307 381.286 896.017 381.387 895.761C381.492 895.504 381.631 895.286 381.803 895.105C381.98 894.924 382.192 894.785 382.44 894.689C382.688 894.592 382.978 894.543 383.31 894.543C383.638 894.543 383.933 894.602 384.193 894.72C384.458 894.834 384.689 894.998 384.887 895.212C385.089 895.426 385.255 895.685 385.385 895.988C385.52 896.286 385.621 896.623 385.688 896.997C385.755 897.371 385.789 897.773 385.789 898.202ZM384.622 898.334V898.202C384.622 897.907 384.601 897.628 384.559 897.363C384.521 897.094 384.46 896.848 384.376 896.625C384.296 896.398 384.191 896.2 384.061 896.032C383.93 895.864 383.773 895.733 383.588 895.641C383.407 895.548 383.199 895.502 382.963 895.502C382.711 895.502 382.501 895.534 382.333 895.597C382.169 895.66 382.04 895.744 381.948 895.849C381.855 895.95 381.788 896.057 381.746 896.171V900.125C381.797 900.218 381.87 900.306 381.967 900.39C382.064 900.47 382.194 900.537 382.358 900.592C382.522 900.642 382.728 900.668 382.976 900.668C383.27 900.668 383.521 900.609 383.727 900.491C383.937 900.369 384.107 900.201 384.237 899.986C384.372 899.772 384.469 899.524 384.528 899.242C384.591 898.96 384.622 898.658 384.622 898.334ZM377.684 898.334V898.202C377.684 897.773 377.718 897.371 377.785 896.997C377.853 896.623 377.954 896.286 378.088 895.988C378.223 895.685 378.389 895.426 378.586 895.212C378.788 894.998 379.019 894.834 379.28 894.72C379.545 894.602 379.841 894.543 380.169 894.543C380.493 894.543 380.775 894.592 381.015 894.689C381.258 894.785 381.464 894.924 381.633 895.105C381.801 895.286 381.935 895.504 382.036 895.761C382.137 896.017 382.209 896.307 382.251 896.631V899.539C382.213 899.858 382.144 900.146 382.043 900.403C381.942 900.659 381.807 900.88 381.639 901.065C381.471 901.246 381.263 901.384 381.015 901.481C380.771 901.578 380.485 901.626 380.157 901.626C379.753 901.626 379.398 901.546 379.091 901.387C378.784 901.223 378.525 900.993 378.315 900.699C378.109 900.405 377.951 900.058 377.842 899.658C377.737 899.255 377.684 898.813 377.684 898.334ZM378.858 898.202V898.334C378.858 898.658 378.885 898.96 378.94 899.242C378.998 899.524 379.089 899.772 379.211 899.986C379.337 900.201 379.501 900.369 379.703 900.491C379.905 900.609 380.153 900.668 380.447 900.668C380.699 900.668 380.907 900.636 381.071 900.573C381.235 900.51 381.366 900.428 381.462 900.327C381.559 900.226 381.633 900.121 381.683 900.012V896.171C381.641 896.057 381.572 895.95 381.475 895.849C381.382 895.744 381.254 895.66 381.09 895.597C380.926 895.534 380.716 895.502 380.46 895.502C380.165 895.502 379.915 895.574 379.709 895.717C379.503 895.86 379.337 896.055 379.211 896.303C379.089 896.551 378.998 896.839 378.94 897.167C378.885 897.491 378.858 897.836 378.858 898.202ZM381.103 904.117V891.806H382.276V904.117H381.103ZM388.577 899.646L391.724 894.67H392.897V901.494H391.724V896.518L388.577 901.494H387.416V894.67H388.577V899.646ZM395.937 895.981V904.117H394.764V894.67H395.836L395.937 895.981ZM400.535 898.025V898.157C400.535 898.654 400.476 899.114 400.358 899.539C400.24 899.959 400.068 900.325 399.841 900.636C399.618 900.947 399.343 901.189 399.015 901.361C398.687 901.534 398.31 901.62 397.886 901.62C397.453 901.62 397.07 901.548 396.738 901.405C396.406 901.263 396.124 901.054 395.893 900.781C395.661 900.508 395.476 900.18 395.338 899.797C395.203 899.415 395.111 898.984 395.06 898.504V897.798C395.111 897.293 395.205 896.841 395.344 896.442C395.483 896.042 395.666 895.702 395.893 895.42C396.124 895.134 396.404 894.918 396.732 894.771C397.059 894.619 397.438 894.543 397.867 894.543C398.296 894.543 398.676 894.628 399.008 894.796C399.341 894.96 399.62 895.195 399.847 895.502C400.074 895.809 400.245 896.177 400.358 896.606C400.476 897.031 400.535 897.504 400.535 898.025ZM399.362 898.157V898.025C399.362 897.684 399.326 897.365 399.254 897.066C399.183 896.764 399.071 896.499 398.92 896.272C398.773 896.04 398.584 895.86 398.352 895.729C398.121 895.595 397.846 895.527 397.526 895.527C397.232 895.527 396.975 895.578 396.757 895.679C396.542 895.78 396.359 895.916 396.208 896.089C396.057 896.257 395.933 896.45 395.836 896.669C395.743 896.883 395.674 897.106 395.628 897.337V898.971C395.712 899.265 395.83 899.543 395.981 899.804C396.132 900.06 396.334 900.268 396.586 900.428C396.839 900.583 397.156 900.661 397.539 900.661C397.854 900.661 398.125 900.596 398.352 900.466C398.584 900.331 398.773 900.148 398.92 899.917C399.071 899.686 399.183 899.421 399.254 899.122C399.326 898.82 399.362 898.498 399.362 898.157ZM405.946 899.942L408.267 894.67H409.39L406.35 901.494H405.542L402.515 894.67H403.638L405.946 899.942ZM403.297 894.67V901.494H402.13V894.67H403.297ZM408.557 901.494V894.67H409.73V901.494H408.557ZM414.441 901.62C413.966 901.62 413.535 901.54 413.149 901.38C412.766 901.216 412.436 900.987 412.158 900.693C411.885 900.398 411.675 900.049 411.528 899.646C411.381 899.242 411.307 898.801 411.307 898.321V898.056C411.307 897.501 411.389 897.007 411.553 896.574C411.717 896.137 411.94 895.767 412.221 895.464C412.503 895.162 412.823 894.932 413.18 894.777C413.537 894.621 413.907 894.543 414.29 894.543C414.778 894.543 415.198 894.628 415.552 894.796C415.909 894.964 416.201 895.199 416.428 895.502C416.655 895.801 416.823 896.154 416.933 896.562C417.042 896.965 417.097 897.407 417.097 897.886V898.41H412.001V897.457H415.93V897.369C415.913 897.066 415.85 896.772 415.741 896.486C415.636 896.2 415.467 895.965 415.236 895.78C415.005 895.595 414.69 895.502 414.29 895.502C414.025 895.502 413.781 895.559 413.559 895.672C413.336 895.782 413.144 895.946 412.985 896.164C412.825 896.383 412.701 896.65 412.612 896.965C412.524 897.281 412.48 897.644 412.48 898.056V898.321C412.48 898.645 412.524 898.95 412.612 899.236C412.705 899.518 412.837 899.766 413.01 899.98C413.186 900.195 413.399 900.363 413.647 900.485C413.899 900.607 414.185 900.668 414.505 900.668C414.917 900.668 415.266 900.583 415.552 900.415C415.837 900.247 416.088 900.022 416.302 899.74L417.008 900.302C416.861 900.525 416.674 900.737 416.447 900.939C416.22 901.141 415.94 901.305 415.608 901.431C415.28 901.557 414.891 901.62 414.441 901.62ZM423.088 897.628V898.574H419.481V897.628H423.088ZM419.727 894.67V901.494H418.56V894.67H419.727ZM424.034 894.67V901.494H422.861V894.67H424.034ZM430.543 897.628V898.574H426.936V897.628H430.543ZM427.182 894.67V901.494H426.015V894.67H427.182ZM431.489 894.67V901.494H430.316V894.67H431.489ZM433.06 898.157V898.012C433.06 897.52 433.131 897.064 433.274 896.644C433.417 896.219 433.623 895.851 433.892 895.54C434.161 895.225 434.487 894.981 434.87 894.808C435.252 894.632 435.681 894.543 436.156 894.543C436.636 894.543 437.067 894.632 437.449 894.808C437.836 894.981 438.164 895.225 438.433 895.54C438.706 895.851 438.915 896.219 439.058 896.644C439.201 897.064 439.272 897.52 439.272 898.012V898.157C439.272 898.649 439.201 899.106 439.058 899.526C438.915 899.946 438.706 900.314 438.433 900.63C438.164 900.941 437.838 901.185 437.456 901.361C437.077 901.534 436.648 901.62 436.169 901.62C435.69 901.62 435.259 901.534 434.876 901.361C434.493 901.185 434.165 900.941 433.892 900.63C433.623 900.314 433.417 899.946 433.274 899.526C433.131 899.106 433.06 898.649 433.06 898.157ZM434.226 898.012V898.157C434.226 898.498 434.266 898.82 434.346 899.122C434.426 899.421 434.546 899.686 434.706 899.917C434.87 900.148 435.074 900.331 435.318 900.466C435.561 900.596 435.845 900.661 436.169 900.661C436.489 900.661 436.768 900.596 437.008 900.466C437.252 900.331 437.453 900.148 437.613 899.917C437.773 899.686 437.893 899.421 437.973 899.122C438.057 898.82 438.099 898.498 438.099 898.157V898.012C438.099 897.676 438.057 897.359 437.973 897.06C437.893 896.757 437.771 896.49 437.607 896.259C437.447 896.024 437.245 895.839 437.001 895.704C436.762 895.569 436.48 895.502 436.156 895.502C435.837 895.502 435.555 895.569 435.311 895.704C435.072 895.839 434.87 896.024 434.706 896.259C434.546 896.49 434.426 896.757 434.346 897.06C434.266 897.359 434.226 897.676 434.226 898.012ZM445.144 894.67V895.635H441.99V901.494H440.824V894.67H445.144ZM445.724 898.157V898.012C445.724 897.52 445.796 897.064 445.938 896.644C446.081 896.219 446.287 895.851 446.557 895.54C446.826 895.225 447.152 894.981 447.534 894.808C447.917 894.632 448.346 894.543 448.821 894.543C449.3 894.543 449.731 894.632 450.114 894.808C450.501 894.981 450.828 895.225 451.098 895.54C451.371 895.851 451.579 896.219 451.722 896.644C451.865 897.064 451.936 897.52 451.936 898.012V898.157C451.936 898.649 451.865 899.106 451.722 899.526C451.579 899.946 451.371 900.314 451.098 900.63C450.828 900.941 450.503 901.185 450.12 901.361C449.742 901.534 449.313 901.62 448.833 901.62C448.354 901.62 447.923 901.534 447.54 901.361C447.158 901.185 446.83 900.941 446.557 900.63C446.287 900.314 446.081 899.946 445.938 899.526C445.796 899.106 445.724 898.649 445.724 898.157ZM446.891 898.012V898.157C446.891 898.498 446.931 898.82 447.011 899.122C447.091 899.421 447.21 899.686 447.37 899.917C447.534 900.148 447.738 900.331 447.982 900.466C448.226 900.596 448.51 900.661 448.833 900.661C449.153 900.661 449.433 900.596 449.672 900.466C449.916 900.331 450.118 900.148 450.278 899.917C450.437 899.686 450.557 899.421 450.637 899.122C450.721 898.82 450.763 898.498 450.763 898.157V898.012C450.763 897.676 450.721 897.359 450.637 897.06C450.557 896.757 450.435 896.49 450.271 896.259C450.112 896.024 449.91 895.839 449.666 895.704C449.426 895.569 449.145 895.502 448.821 895.502C448.501 895.502 448.219 895.569 447.976 895.704C447.736 895.839 447.534 896.024 447.37 896.259C447.21 896.49 447.091 896.757 447.011 897.06C446.931 897.359 446.891 897.676 446.891 898.012ZM459.334 900.661C459.612 900.661 459.868 900.604 460.104 900.491C460.339 900.377 460.533 900.222 460.684 900.024C460.836 899.822 460.922 899.593 460.943 899.337H462.053C462.032 899.74 461.895 900.117 461.643 900.466C461.395 900.811 461.069 901.09 460.665 901.305C460.262 901.515 459.818 901.62 459.334 901.62C458.821 901.62 458.374 901.53 457.991 901.349C457.613 901.168 457.297 900.92 457.045 900.604C456.797 900.289 456.61 899.928 456.484 899.52C456.362 899.108 456.301 898.672 456.301 898.214V897.949C456.301 897.491 456.362 897.058 456.484 896.65C456.61 896.238 456.797 895.874 457.045 895.559C457.297 895.244 457.613 894.995 457.991 894.815C458.374 894.634 458.821 894.543 459.334 894.543C459.868 894.543 460.335 894.653 460.735 894.871C461.134 895.086 461.447 895.38 461.674 895.754C461.906 896.124 462.032 896.545 462.053 897.016H460.943C460.922 896.734 460.842 896.48 460.703 896.253C460.569 896.026 460.384 895.845 460.148 895.71C459.917 895.572 459.646 895.502 459.334 895.502C458.977 895.502 458.676 895.574 458.433 895.717C458.193 895.855 458.002 896.045 457.859 896.284C457.72 896.52 457.619 896.782 457.556 897.073C457.497 897.359 457.468 897.651 457.468 897.949V898.214C457.468 898.513 457.497 898.807 457.556 899.097C457.615 899.387 457.714 899.65 457.852 899.885C457.995 900.121 458.187 900.31 458.426 900.453C458.67 900.592 458.973 900.661 459.334 900.661ZM466.146 894.67V901.494H464.973V894.67H466.146ZM468.435 894.67V895.616H462.728V894.67H468.435ZM470.845 899.646L473.992 894.67H475.165V901.494H473.992V896.518L470.845 901.494H469.684V894.67H470.845V899.646ZM481.598 894.67V895.635H478.3V894.67H481.598ZM482.626 894.67V901.494H481.459V894.67H482.626ZM478.016 894.67H479.189L479.012 897.962C478.983 898.471 478.934 898.921 478.867 899.312C478.804 899.698 478.716 900.031 478.602 900.308C478.493 900.586 478.354 900.813 478.186 900.989C478.022 901.162 477.824 901.29 477.593 901.374C477.362 901.454 477.095 901.494 476.792 901.494H476.426V900.466L476.679 900.447C476.859 900.434 477.013 900.392 477.139 900.321C477.269 900.249 477.379 900.144 477.467 900.005C477.555 899.862 477.627 899.679 477.681 899.457C477.74 899.234 477.784 898.969 477.814 898.662C477.848 898.355 477.873 897.998 477.89 897.59L478.016 894.67ZM485.887 898.239H487.148L485.174 901.494H483.913L485.887 898.239ZM486.864 894.67H489.715V901.494H488.548V895.616H486.864C486.532 895.616 486.261 895.672 486.051 895.786C485.841 895.895 485.687 896.038 485.59 896.215C485.494 896.391 485.445 896.574 485.445 896.764C485.445 896.949 485.489 897.127 485.578 897.3C485.666 897.468 485.805 897.607 485.994 897.716C486.183 897.825 486.427 897.88 486.726 897.88H488.864V898.839H486.726C486.335 898.839 485.988 898.786 485.685 898.681C485.382 898.576 485.126 898.431 484.916 898.246C484.705 898.056 484.546 897.836 484.436 897.583C484.327 897.327 484.272 897.049 484.272 896.751C484.272 896.452 484.329 896.177 484.442 895.925C484.56 895.672 484.728 895.452 484.947 895.262C485.17 895.073 485.441 894.928 485.761 894.827C486.084 894.722 486.452 894.67 486.864 894.67Z" fill="#00313C"/>
<path d="M1591.34 901.324V902.346H1584.93V901.452L1588.14 897.879C1588.54 897.44 1588.84 897.068 1589.06 896.763C1589.28 896.453 1589.43 896.177 1589.51 895.935C1589.6 895.689 1589.65 895.437 1589.65 895.182C1589.65 894.859 1589.58 894.567 1589.45 894.307C1589.32 894.043 1589.12 893.832 1588.87 893.675C1588.61 893.518 1588.3 893.439 1587.94 893.439C1587.51 893.439 1587.14 893.525 1586.85 893.695C1586.56 893.861 1586.35 894.094 1586.2 894.395C1586.06 894.695 1585.99 895.04 1585.99 895.431H1584.74C1584.74 894.879 1584.87 894.374 1585.11 893.917C1585.35 893.459 1585.71 893.096 1586.18 892.827C1586.66 892.554 1587.25 892.417 1587.94 892.417C1588.56 892.417 1589.09 892.527 1589.53 892.746C1589.97 892.962 1590.3 893.267 1590.54 893.661C1590.77 894.052 1590.89 894.509 1590.89 895.034C1590.89 895.321 1590.84 895.612 1590.75 895.908C1590.65 896.2 1590.52 896.491 1590.35 896.783C1590.18 897.074 1589.99 897.361 1589.76 897.644C1589.54 897.927 1589.31 898.205 1589.06 898.478L1586.43 901.324H1591.34ZM1593.91 901.304H1594.04C1594.76 901.304 1595.34 901.203 1595.79 901.001C1596.24 900.799 1596.58 900.528 1596.83 900.187C1597.07 899.846 1597.24 899.463 1597.32 899.037C1597.41 898.606 1597.46 898.164 1597.46 897.711V896.211C1597.46 895.767 1597.41 895.372 1597.3 895.027C1597.21 894.682 1597.07 894.392 1596.89 894.159C1596.71 893.926 1596.51 893.749 1596.29 893.628C1596.06 893.507 1595.83 893.446 1595.58 893.446C1595.29 893.446 1595.03 893.504 1594.8 893.621C1594.58 893.733 1594.39 893.892 1594.23 894.099C1594.08 894.305 1593.96 894.547 1593.88 894.825C1593.8 895.103 1593.76 895.406 1593.76 895.733C1593.76 896.025 1593.8 896.307 1593.87 896.581C1593.94 896.855 1594.05 897.101 1594.2 897.321C1594.34 897.541 1594.53 897.716 1594.75 897.846C1594.97 897.971 1595.23 898.034 1595.54 898.034C1595.81 898.034 1596.07 897.98 1596.32 897.873C1596.56 897.761 1596.78 897.61 1596.97 897.422C1597.16 897.229 1597.31 897.012 1597.43 896.769C1597.54 896.527 1597.61 896.274 1597.63 896.009H1598.22C1598.22 896.381 1598.15 896.749 1598 897.112C1597.85 897.471 1597.65 897.799 1597.39 898.095C1597.13 898.391 1596.83 898.628 1596.48 898.808C1596.13 898.983 1595.75 899.07 1595.33 899.07C1594.85 899.07 1594.43 898.976 1594.08 898.788C1593.72 898.599 1593.43 898.348 1593.2 898.034C1592.98 897.72 1592.81 897.37 1592.7 896.985C1592.59 896.594 1592.54 896.2 1592.54 895.801C1592.54 895.334 1592.6 894.897 1592.73 894.489C1592.86 894.081 1593.05 893.722 1593.31 893.412C1593.56 893.098 1593.88 892.854 1594.26 892.679C1594.64 892.504 1595.08 892.417 1595.58 892.417C1596.14 892.417 1596.61 892.529 1597.01 892.753C1597.4 892.977 1597.72 893.278 1597.97 893.655C1598.22 894.031 1598.41 894.455 1598.52 894.926C1598.64 895.397 1598.7 895.881 1598.7 896.379V896.83C1598.7 897.337 1598.66 897.853 1598.6 898.377C1598.53 898.898 1598.41 899.395 1598.23 899.871C1598.05 900.346 1597.78 900.772 1597.44 901.149C1597.09 901.521 1596.64 901.817 1596.09 902.037C1595.54 902.252 1594.85 902.36 1594.04 902.36H1593.91V901.304Z" fill="white"/>
<path d="M584.715 64.7749V65.9253H577.502V64.9187L581.113 60.8999C581.557 60.4054 581.9 59.9867 582.142 59.6436C582.389 59.2954 582.561 58.9851 582.656 58.7126C582.757 58.4351 582.808 58.1526 582.808 57.865C582.808 57.5017 582.732 57.1737 582.581 56.8811C582.434 56.5834 582.218 56.3463 581.93 56.1697C581.642 55.9931 581.294 55.9048 580.885 55.9048C580.396 55.9048 579.987 56.0007 579.659 56.1924C579.337 56.3791 579.094 56.6414 578.933 56.9795C578.771 57.3175 578.691 57.7061 578.691 58.145H577.291C577.291 57.5244 577.427 56.9568 577.699 56.4421C577.972 55.9275 578.375 55.5188 578.91 55.2161C579.445 54.9083 580.103 54.7544 580.885 54.7544C581.582 54.7544 582.177 54.878 582.672 55.1252C583.166 55.3674 583.545 55.7105 583.807 56.1545C584.074 56.5935 584.208 57.1082 584.208 57.6985C584.208 58.0214 584.153 58.3494 584.042 58.6824C583.936 59.0103 583.787 59.3383 583.595 59.6663C583.408 59.9942 583.189 60.3171 582.937 60.635C582.689 60.9529 582.424 61.2657 582.142 61.5735L579.19 64.7749H584.715ZM598.906 60.0674V60.7637C598.906 61.5911 598.802 62.3328 598.595 62.9888C598.389 63.6447 598.091 64.2022 597.702 64.6614C597.314 65.1205 596.847 65.4712 596.302 65.7134C595.762 65.9556 595.157 66.0767 594.486 66.0767C593.835 66.0767 593.237 65.9556 592.692 65.7134C592.152 65.4712 591.683 65.1205 591.284 64.6614C590.891 64.2022 590.586 63.6447 590.369 62.9888C590.152 62.3328 590.043 61.5911 590.043 60.7637V60.0674C590.043 59.2399 590.149 58.5007 590.361 57.8499C590.578 57.1939 590.883 56.6364 591.277 56.1772C591.67 55.7131 592.137 55.3599 592.677 55.1177C593.222 54.8755 593.82 54.7544 594.471 54.7544C595.142 54.7544 595.747 54.8755 596.287 55.1177C596.832 55.3599 597.299 55.7131 597.687 56.1772C598.081 56.6364 598.381 57.1939 598.588 57.8499C598.8 58.5007 598.906 59.2399 598.906 60.0674ZM597.46 60.7637V60.0522C597.46 59.3963 597.392 58.8161 597.256 58.3115C597.125 57.807 596.93 57.3831 596.673 57.04C596.416 56.6969 596.1 56.4371 595.727 56.2605C595.359 56.0839 594.94 55.9956 594.471 55.9956C594.017 55.9956 593.605 56.0839 593.237 56.2605C592.874 56.4371 592.561 56.6969 592.299 57.04C592.041 57.3831 591.842 57.807 591.701 58.3115C591.559 58.8161 591.489 59.3963 591.489 60.0522V60.7637C591.489 61.4246 591.559 62.0099 591.701 62.5195C591.842 63.0241 592.044 63.4504 592.306 63.7986C592.574 64.1417 592.889 64.4015 593.252 64.5781C593.621 64.7547 594.032 64.843 594.486 64.843C594.96 64.843 595.381 64.7547 595.75 64.5781C596.118 64.4015 596.428 64.1417 596.681 63.7986C596.938 63.4504 597.132 63.0241 597.263 62.5195C597.395 62.0099 597.46 61.4246 597.46 60.7637ZM606.134 54.1716H607.284C607.284 54.6661 607.208 55.0597 607.057 55.3523C606.906 55.6399 606.699 55.8619 606.436 56.0183C606.179 56.1747 605.886 56.2933 605.558 56.374C605.235 56.4548 604.9 56.533 604.552 56.6086C604.118 56.6995 603.714 56.8433 603.341 57.04C602.972 57.2318 602.655 57.5042 602.387 57.8574C602.125 58.2106 601.931 58.6698 601.804 59.2349C601.683 59.8 601.651 60.4988 601.706 61.3313V62.0276H600.556V61.3313C600.556 60.3979 600.644 59.583 600.821 58.8867C601.002 58.1904 601.257 57.6026 601.585 57.1233C601.913 56.644 602.301 56.263 602.75 55.9805C603.205 55.6979 603.704 55.5037 604.249 55.3977C604.643 55.322 604.981 55.2413 605.263 55.1555C605.546 55.0647 605.76 54.9436 605.906 54.7922C606.058 54.6409 606.134 54.434 606.134 54.1716ZM604.476 58.2056C605.011 58.2056 605.488 58.2989 605.906 58.4856C606.325 58.6723 606.681 58.9321 606.974 59.2651C607.266 59.5981 607.488 59.9917 607.64 60.4458C607.796 60.8949 607.874 61.3843 607.874 61.9141V62.0806C607.874 62.6507 607.791 63.1805 607.625 63.6699C607.463 64.1543 607.223 64.5781 606.906 64.9414C606.593 65.2996 606.209 65.5797 605.755 65.7815C605.306 65.9833 604.794 66.0842 604.219 66.0842C603.644 66.0842 603.129 65.9833 602.675 65.7815C602.226 65.5797 601.842 65.2996 601.524 64.9414C601.207 64.5781 600.964 64.1543 600.798 63.6699C600.636 63.1805 600.556 62.6507 600.556 62.0806V61.9141C600.556 61.7879 600.578 61.6643 600.624 61.5432C600.669 61.4221 600.725 61.2985 600.79 61.1724C600.861 61.0462 600.924 60.9125 600.979 60.7712C601.166 60.3171 601.421 59.8958 601.744 59.5073C602.072 59.1188 602.463 58.806 602.917 58.5688C603.376 58.3267 603.896 58.2056 604.476 58.2056ZM604.204 59.3484C603.689 59.3484 603.265 59.467 602.932 59.7041C602.604 59.9412 602.359 60.2566 602.198 60.6501C602.037 61.0387 601.956 61.46 601.956 61.9141V62.0806C601.956 62.464 602.001 62.8273 602.092 63.1704C602.183 63.5135 602.319 63.8188 602.501 64.0862C602.687 64.3486 602.922 64.5554 603.205 64.7068C603.492 64.8582 603.83 64.9338 604.219 64.9338C604.607 64.9338 604.943 64.8582 605.225 64.7068C605.508 64.5554 605.74 64.3486 605.922 64.0862C606.103 63.8188 606.24 63.5135 606.33 63.1704C606.421 62.8273 606.467 62.464 606.467 62.0806V61.9141C606.467 61.571 606.421 61.2455 606.33 60.9377C606.24 60.63 606.101 60.3575 605.914 60.1204C605.732 59.8832 605.498 59.6965 605.21 59.5603C604.928 59.419 604.592 59.3484 604.204 59.3484ZM610.728 59.3105V69.0737H609.32V57.7363H610.606L610.728 59.3105ZM616.245 61.7627V61.9216C616.245 62.517 616.174 63.0695 616.033 63.5791C615.892 64.0837 615.685 64.5226 615.412 64.896C615.145 65.2694 614.814 65.5595 614.421 65.7664C614.027 65.9732 613.576 66.0767 613.066 66.0767C612.546 66.0767 612.087 65.9909 611.689 65.8193C611.29 65.6478 610.952 65.398 610.675 65.0701C610.397 64.7421 610.175 64.3486 610.009 63.8894C609.847 63.4303 609.736 62.9131 609.676 62.3379V61.4902C609.736 60.8848 609.85 60.3424 610.016 59.863C610.183 59.3837 610.402 58.975 610.675 58.637C610.952 58.2939 611.288 58.034 611.681 57.8574C612.075 57.6758 612.529 57.585 613.043 57.585C613.558 57.585 614.015 57.6859 614.413 57.8877C614.812 58.0845 615.147 58.367 615.42 58.7354C615.692 59.1037 615.897 59.5452 616.033 60.0598C616.174 60.5694 616.245 61.137 616.245 61.7627ZM614.837 61.9216V61.7627C614.837 61.354 614.794 60.9705 614.708 60.6123C614.623 60.249 614.489 59.9312 614.307 59.6587C614.131 59.3812 613.904 59.1642 613.626 59.0078C613.349 58.8464 613.018 58.7656 612.635 58.7656C612.282 58.7656 611.974 58.8262 611.711 58.9473C611.454 59.0684 611.235 59.2323 611.053 59.4392C610.871 59.641 610.722 59.8731 610.606 60.1355C610.495 60.3928 610.412 60.6602 610.357 60.9377V62.8979C610.458 63.2511 610.599 63.5841 610.781 63.897C610.962 64.2048 611.204 64.4545 611.507 64.6462C611.81 64.8329 612.191 64.9263 612.65 64.9263C613.028 64.9263 613.354 64.8481 613.626 64.6917C613.904 64.5302 614.131 64.3107 614.307 64.0332C614.489 63.7557 614.623 63.4378 614.708 63.0796C614.794 62.7163 614.837 62.3303 614.837 61.9216ZM622.86 64.5251V60.3096C622.86 59.9867 622.794 59.7066 622.663 59.4695C622.537 59.2273 622.345 59.0406 622.088 58.9094C621.83 58.7782 621.512 58.7126 621.134 58.7126C620.781 58.7126 620.471 58.7732 620.203 58.8943C619.941 59.0154 619.734 59.1743 619.583 59.3711C619.436 59.5679 619.363 59.7798 619.363 60.0068H617.963C617.963 59.7142 618.039 59.4241 618.19 59.1365C618.341 58.8489 618.558 58.589 618.841 58.3569C619.128 58.1198 619.472 57.9331 619.87 57.7969C620.274 57.6556 620.723 57.585 621.217 57.585C621.813 57.585 622.337 57.6859 622.792 57.8877C623.251 58.0895 623.609 58.3948 623.866 58.8035C624.129 59.2071 624.26 59.7142 624.26 60.3247V64.1392C624.26 64.4116 624.282 64.7017 624.328 65.0095C624.378 65.3173 624.451 65.5822 624.547 65.8042V65.9253H623.087C623.016 65.7638 622.961 65.5494 622.92 65.282C622.88 65.0095 622.86 64.7572 622.86 64.5251ZM623.102 60.9604L623.117 61.9443H621.702C621.303 61.9443 620.947 61.9771 620.635 62.0427C620.322 62.1033 620.059 62.1966 619.847 62.3228C619.635 62.4489 619.474 62.6078 619.363 62.7996C619.252 62.9862 619.197 63.2057 619.197 63.458C619.197 63.7153 619.255 63.95 619.371 64.1619C619.487 64.3738 619.661 64.5428 619.893 64.6689C620.13 64.79 620.42 64.8506 620.763 64.8506C621.192 64.8506 621.57 64.7598 621.898 64.5781C622.226 64.3965 622.486 64.1745 622.678 63.9121C622.875 63.6497 622.981 63.3949 622.996 63.1477L623.594 63.8213C623.558 64.0332 623.463 64.2678 623.306 64.5251C623.15 64.7825 622.94 65.0297 622.678 65.2668C622.421 65.4989 622.113 65.6932 621.755 65.8496C621.401 66.001 621.003 66.0767 620.559 66.0767C620.004 66.0767 619.517 65.9682 619.098 65.7512C618.684 65.5343 618.361 65.2441 618.129 64.8809C617.902 64.5125 617.789 64.1013 617.789 63.6472C617.789 63.2083 617.875 62.8223 618.046 62.4893C618.218 62.1512 618.465 61.8712 618.788 61.6492C619.111 61.4221 619.499 61.2506 619.953 61.1345C620.407 61.0185 620.915 60.9604 621.475 60.9604H623.102ZM629.52 62.0125H628.014V61.1497H629.406C629.795 61.1497 630.103 61.1017 630.33 61.0059C630.557 60.9049 630.718 60.7662 630.814 60.5896C630.91 60.413 630.958 60.2061 630.958 59.969C630.958 59.7571 630.902 59.5578 630.791 59.3711C630.685 59.1794 630.514 59.0255 630.277 58.9094C630.039 58.7883 629.722 58.7278 629.323 58.7278C629 58.7278 628.707 58.7858 628.445 58.9019C628.183 59.0129 627.973 59.1667 627.817 59.3635C627.666 59.5553 627.59 59.7722 627.59 60.0144H626.19C626.19 59.5149 626.331 59.086 626.614 58.7278C626.901 58.3645 627.282 58.0845 627.756 57.8877C628.236 57.6909 628.758 57.5925 629.323 57.5925C629.797 57.5925 630.221 57.6455 630.594 57.7515C630.973 57.8524 631.293 58.0037 631.556 58.2056C631.818 58.4023 632.017 58.6496 632.154 58.9473C632.295 59.2399 632.365 59.5805 632.365 59.969C632.365 60.2465 632.3 60.5089 632.169 60.7561C632.038 61.0033 631.848 61.2228 631.601 61.4146C631.354 61.6012 631.054 61.7476 630.7 61.8535C630.352 61.9595 629.959 62.0125 629.52 62.0125ZM628.014 61.4827H629.52C630.009 61.4827 630.441 61.5306 630.814 61.6265C631.187 61.7173 631.5 61.8535 631.752 62.0352C632.005 62.2168 632.194 62.4413 632.32 62.7087C632.451 62.9711 632.517 63.2738 632.517 63.6169C632.517 64.0004 632.439 64.346 632.282 64.6538C632.131 64.9565 631.914 65.2139 631.631 65.4258C631.349 65.6377 631.011 65.7992 630.617 65.9102C630.229 66.0212 629.797 66.0767 629.323 66.0767C628.793 66.0767 628.279 65.9858 627.779 65.8042C627.28 65.6226 626.868 65.3425 626.545 64.9641C626.222 64.5806 626.061 64.0938 626.061 63.5034H627.461C627.461 63.7507 627.539 63.9853 627.696 64.2073C627.852 64.4293 628.069 64.6084 628.347 64.7446C628.629 64.8809 628.955 64.949 629.323 64.949C629.717 64.949 630.045 64.8884 630.307 64.7673C630.569 64.6462 630.766 64.4848 630.897 64.283C631.033 64.0811 631.102 63.8617 631.102 63.6245C631.102 63.3167 631.041 63.0695 630.92 62.8828C630.799 62.6961 630.612 62.5599 630.36 62.4741C630.113 62.3833 629.795 62.3379 629.406 62.3379H628.014V61.4827ZM643.43 54.1716H644.581C644.581 54.6661 644.505 55.0597 644.354 55.3523C644.202 55.6399 643.996 55.8619 643.733 56.0183C643.476 56.1747 643.183 56.2933 642.855 56.374C642.532 56.4548 642.197 56.533 641.849 56.6086C641.415 56.6995 641.011 56.8433 640.638 57.04C640.269 57.2318 639.951 57.5042 639.684 57.8574C639.422 58.2106 639.227 58.6698 639.101 59.2349C638.98 59.8 638.947 60.4988 639.003 61.3313V62.0276H637.853V61.3313C637.853 60.3979 637.941 59.583 638.117 58.8867C638.299 58.1904 638.554 57.6026 638.882 57.1233C639.21 56.644 639.598 56.263 640.047 55.9805C640.501 55.6979 641.001 55.5037 641.546 55.3977C641.939 55.322 642.278 55.2413 642.56 55.1555C642.843 55.0647 643.057 54.9436 643.203 54.7922C643.355 54.6409 643.43 54.434 643.43 54.1716ZM641.773 58.2056C642.308 58.2056 642.785 58.2989 643.203 58.4856C643.622 58.6723 643.978 58.9321 644.271 59.2651C644.563 59.5981 644.785 59.9917 644.937 60.4458C645.093 60.8949 645.171 61.3843 645.171 61.9141V62.0806C645.171 62.6507 645.088 63.1805 644.921 63.6699C644.76 64.1543 644.52 64.5781 644.202 64.9414C643.89 65.2996 643.506 65.5797 643.052 65.7815C642.603 65.9833 642.091 66.0842 641.516 66.0842C640.94 66.0842 640.426 65.9833 639.972 65.7815C639.523 65.5797 639.139 65.2996 638.821 64.9414C638.503 64.5781 638.261 64.1543 638.095 63.6699C637.933 63.1805 637.853 62.6507 637.853 62.0806V61.9141C637.853 61.7879 637.875 61.6643 637.921 61.5432C637.966 61.4221 638.022 61.2985 638.087 61.1724C638.158 61.0462 638.221 60.9125 638.276 60.7712C638.463 60.3171 638.718 59.8958 639.041 59.5073C639.369 59.1188 639.76 58.806 640.214 58.5688C640.673 58.3267 641.193 58.2056 641.773 58.2056ZM641.5 59.3484C640.986 59.3484 640.562 59.467 640.229 59.7041C639.901 59.9412 639.656 60.2566 639.495 60.6501C639.333 61.0387 639.253 61.46 639.253 61.9141V62.0806C639.253 62.464 639.298 62.8273 639.389 63.1704C639.48 63.5135 639.616 63.8188 639.798 64.0862C639.984 64.3486 640.219 64.5554 640.501 64.7068C640.789 64.8582 641.127 64.9338 641.516 64.9338C641.904 64.9338 642.24 64.8582 642.522 64.7068C642.805 64.5554 643.037 64.3486 643.219 64.0862C643.4 63.8188 643.536 63.5135 643.627 63.1704C643.718 62.8273 643.763 62.464 643.763 62.0806V61.9141C643.763 61.571 643.718 61.2455 643.627 60.9377C643.536 60.63 643.398 60.3575 643.211 60.1204C643.029 59.8832 642.795 59.6965 642.507 59.5603C642.225 59.419 641.889 59.3484 641.5 59.3484ZM648.024 59.3105V69.0737H646.617V57.7363H647.903L648.024 59.3105ZM653.542 61.7627V61.9216C653.542 62.517 653.471 63.0695 653.33 63.5791C653.189 64.0837 652.982 64.5226 652.709 64.896C652.442 65.2694 652.111 65.5595 651.718 65.7664C651.324 65.9732 650.873 66.0767 650.363 66.0767C649.843 66.0767 649.384 65.9909 648.986 65.8193C648.587 65.6478 648.249 65.398 647.971 65.0701C647.694 64.7421 647.472 64.3486 647.305 63.8894C647.144 63.4303 647.033 62.9131 646.972 62.3379V61.4902C647.033 60.8848 647.146 60.3424 647.313 59.863C647.479 59.3837 647.699 58.975 647.971 58.637C648.249 58.2939 648.584 58.034 648.978 57.8574C649.372 57.6758 649.826 57.585 650.34 57.585C650.855 57.585 651.312 57.6859 651.71 57.8877C652.109 58.0845 652.444 58.367 652.717 58.7354C652.989 59.1037 653.194 59.5452 653.33 60.0598C653.471 60.5694 653.542 61.137 653.542 61.7627ZM652.134 61.9216V61.7627C652.134 61.354 652.091 60.9705 652.005 60.6123C651.92 60.249 651.786 59.9312 651.604 59.6587C651.428 59.3812 651.201 59.1642 650.923 59.0078C650.646 58.8464 650.315 58.7656 649.932 58.7656C649.578 58.7656 649.271 58.8262 649.008 58.9473C648.751 59.0684 648.531 59.2323 648.35 59.4392C648.168 59.641 648.019 59.8731 647.903 60.1355C647.792 60.3928 647.709 60.6602 647.654 60.9377V62.8979C647.754 63.2511 647.896 63.5841 648.077 63.897C648.259 64.2048 648.501 64.4545 648.804 64.6462C649.107 64.8329 649.488 64.9263 649.947 64.9263C650.325 64.9263 650.651 64.8481 650.923 64.6917C651.201 64.5302 651.428 64.3107 651.604 64.0332C651.786 63.7557 651.92 63.4378 652.005 63.0796C652.091 62.7163 652.134 62.3303 652.134 61.9216ZM658.726 66.0767C658.156 66.0767 657.639 65.9808 657.175 65.7891C656.715 65.5923 656.319 65.3173 655.986 64.9641C655.658 64.6109 655.406 64.1921 655.229 63.7078C655.053 63.2234 654.965 62.6936 654.965 62.1184V61.8005C654.965 61.1345 655.063 60.5417 655.26 60.022C655.457 59.4972 655.724 59.0532 656.062 58.6899C656.4 58.3267 656.784 58.0517 657.212 57.865C657.641 57.6783 658.085 57.585 658.544 57.585C659.13 57.585 659.634 57.6859 660.058 57.8877C660.487 58.0895 660.838 58.3721 661.11 58.7354C661.383 59.0936 661.584 59.5174 661.716 60.0068C661.847 60.4912 661.912 61.021 661.912 61.5962V62.2244H655.797V61.0815H660.512V60.9756C660.492 60.6123 660.416 60.2591 660.285 59.916C660.159 59.5729 659.957 59.2904 659.68 59.0684C659.402 58.8464 659.024 58.7354 658.544 58.7354C658.227 58.7354 657.934 58.8035 657.667 58.9397C657.399 59.0709 657.17 59.2677 656.978 59.53C656.786 59.7924 656.637 60.1128 656.531 60.4912C656.425 60.8696 656.372 61.3061 656.372 61.8005V62.1184C656.372 62.5069 656.425 62.8727 656.531 63.2158C656.642 63.5539 656.801 63.8516 657.008 64.1089C657.22 64.3662 657.475 64.568 657.772 64.7144C658.075 64.8607 658.418 64.9338 658.802 64.9338C659.296 64.9338 659.715 64.8329 660.058 64.6311C660.401 64.4293 660.701 64.1593 660.959 63.8213L661.806 64.4949C661.63 64.7623 661.405 65.0171 661.133 65.2593C660.86 65.5015 660.525 65.6982 660.126 65.8496C659.733 66.001 659.266 66.0767 658.726 66.0767ZM669.102 61.2859V62.4211H664.773V61.2859H669.102ZM665.068 57.7363V65.9253H663.668V57.7363H665.068ZM670.238 57.7363V65.9253H668.83V57.7363H670.238ZM673.969 57.7363H675.369L675.248 60.8015C675.218 61.5785 675.129 62.2496 674.983 62.8147C674.837 63.3798 674.65 63.8617 674.423 64.2603C674.196 64.6538 673.941 64.9843 673.658 65.2517C673.381 65.5191 673.093 65.7437 672.796 65.9253H672.099L672.137 64.7825L672.425 64.7749C672.591 64.5781 672.753 64.3763 672.909 64.1694C673.066 63.9575 673.209 63.7078 673.341 63.4202C673.472 63.1275 673.58 62.7718 673.666 62.353C673.757 61.9292 673.815 61.412 673.84 60.8015L673.969 57.7363ZM674.317 57.7363H679.244V65.9253H677.844V59.0305H674.317V57.7363ZM671.781 64.7749H680.296V68.3396H678.896V65.9253H673.182V68.3396H671.774L671.781 64.7749ZM686.676 64.5251V60.3096C686.676 59.9867 686.61 59.7066 686.479 59.4695C686.353 59.2273 686.161 59.0406 685.904 58.9094C685.647 58.7782 685.329 58.7126 684.95 58.7126C684.597 58.7126 684.287 58.7732 684.02 58.8943C683.757 59.0154 683.55 59.1743 683.399 59.3711C683.253 59.5679 683.179 59.7798 683.179 60.0068H681.779C681.779 59.7142 681.855 59.4241 682.006 59.1365C682.158 58.8489 682.375 58.589 682.657 58.3569C682.945 58.1198 683.288 57.9331 683.687 57.7969C684.09 57.6556 684.539 57.585 685.034 57.585C685.629 57.585 686.154 57.6859 686.608 57.8877C687.067 58.0895 687.425 58.3948 687.683 58.8035C687.945 59.2071 688.076 59.7142 688.076 60.3247V64.1392C688.076 64.4116 688.099 64.7017 688.144 65.0095C688.195 65.3173 688.268 65.5822 688.364 65.8042V65.9253H686.903C686.832 65.7638 686.777 65.5494 686.737 65.282C686.696 65.0095 686.676 64.7572 686.676 64.5251ZM686.918 60.9604L686.933 61.9443H685.518C685.119 61.9443 684.764 61.9771 684.451 62.0427C684.138 62.1033 683.876 62.1966 683.664 62.3228C683.452 62.4489 683.29 62.6078 683.179 62.7996C683.068 62.9862 683.013 63.2057 683.013 63.458C683.013 63.7153 683.071 63.95 683.187 64.1619C683.303 64.3738 683.477 64.5428 683.709 64.6689C683.946 64.79 684.236 64.8506 684.58 64.8506C685.008 64.8506 685.387 64.7598 685.715 64.5781C686.043 64.3965 686.303 64.1745 686.494 63.9121C686.691 63.6497 686.797 63.3949 686.812 63.1477L687.41 63.8213C687.375 64.0332 687.279 64.2678 687.123 64.5251C686.966 64.7825 686.757 65.0297 686.494 65.2668C686.237 65.4989 685.929 65.6932 685.571 65.8496C685.218 66.001 684.819 66.0767 684.375 66.0767C683.82 66.0767 683.333 65.9682 682.915 65.7512C682.501 65.5343 682.178 65.2441 681.946 64.8809C681.719 64.5125 681.605 64.1013 681.605 63.6472C681.605 63.2083 681.691 62.8223 681.863 62.4893C682.034 62.1512 682.281 61.8712 682.604 61.6492C682.927 61.4221 683.316 61.2506 683.77 61.1345C684.224 61.0185 684.731 60.9604 685.291 60.9604H686.918Z" fill="#00313C"/>
<path d="M384.666 0H0.666016V1080H384.666V0Z" fill="#008C95"/>
<path d="M1654 0H1590.28V930H1654V0Z" fill="#E04E39"/>
<path d="M992.669 0H662.002V930H992.669V0Z" fill="#77E2C3"/>
<path d="M661.999 0H331.332V930H661.999V0Z" fill="#00313C"/>
<path d="M71.2273 349.267H57.8025V346.606L64.1403 339.855C65.01 338.908 65.6559 338.073 66.0692 337.367C66.4825 336.661 66.6978 335.989 66.6978 335.352C66.6978 334.482 66.4739 333.802 66.0348 333.302C65.5956 332.803 64.967 332.553 64.1489 332.553C63.2706 332.553 62.5731 332.854 62.0736 333.457C61.5656 334.06 61.3159 334.861 61.3159 335.842H57.415C57.415 334.646 57.6992 333.561 58.2675 332.57C58.8359 331.58 59.6453 330.814 60.6787 330.245C61.7206 329.686 62.9003 329.401 64.2178 329.401C66.2328 329.401 67.8 329.884 68.9195 330.857C70.0389 331.83 70.5986 333.19 70.5986 334.964C70.5986 335.929 70.3489 336.919 69.8409 337.926C69.3414 338.934 68.4803 340.105 67.2575 341.44L62.8056 346.133H71.2273V349.267ZM86.8048 341.164C86.8048 343.877 86.245 345.943 85.1256 347.381C84.0062 348.819 82.3614 349.534 80.2 349.534C78.0387 349.534 76.4284 348.828 75.3003 347.424C74.1723 346.012 73.5953 343.997 73.5609 341.371V337.763C73.5609 335.024 74.1292 332.949 75.2659 331.537C76.4025 330.116 78.0387 329.41 80.1742 329.41C82.3098 329.41 83.9459 330.116 85.0739 331.52C86.202 332.923 86.7789 334.938 86.8134 337.565V341.173L86.8048 341.164ZM82.9125 337.203C82.9125 335.576 82.6886 334.396 82.2495 333.655C81.8017 332.915 81.1128 332.544 80.1742 332.544C79.2356 332.544 78.5812 332.897 78.1506 333.604C77.7114 334.31 77.4875 335.412 77.4617 336.91V341.681C77.4617 343.282 77.677 344.471 78.1162 345.246C78.5553 346.021 79.2442 346.408 80.2087 346.408C81.1731 346.408 81.8448 346.038 82.2667 345.289C82.6887 344.54 82.9039 343.403 82.9298 341.87V337.212L82.9125 337.203ZM89.3795 333.449C89.3795 332.243 89.767 331.27 90.5506 330.521C91.3342 329.772 92.3503 329.401 93.6162 329.401C94.882 329.401 95.9325 329.772 96.7075 330.512C97.4825 331.253 97.8787 332.252 97.8787 333.517V334.482C97.8787 335.696 97.4911 336.669 96.7075 337.401C95.9239 338.133 94.9078 338.503 93.642 338.503C92.3762 338.503 91.3428 338.133 90.5506 337.392C89.767 336.652 89.3709 335.653 89.3709 334.396V333.44L89.3795 333.449ZM91.9628 334.482C91.9628 335.016 92.1178 335.455 92.4278 335.782C92.7378 336.109 93.1425 336.273 93.642 336.273C94.1414 336.273 94.5462 336.109 94.8389 335.774C95.1317 335.438 95.2867 334.999 95.2867 334.439V333.44C95.2867 332.906 95.1403 332.467 94.8389 332.131C94.5462 331.795 94.1328 331.632 93.6162 331.632C93.1253 331.632 92.7206 331.795 92.4192 332.122C92.1178 332.45 91.9628 332.906 91.9628 333.492V334.473V334.482ZM94.4084 347.803L92.5139 346.779L102.081 331.468L103.975 332.493L94.4084 347.803ZM98.7398 344.462C98.7398 343.248 99.1359 342.275 99.9281 341.534C100.72 340.794 101.736 340.424 102.994 340.424C104.251 340.424 105.293 340.785 106.085 341.517C106.869 342.249 107.265 343.257 107.265 344.54V345.504C107.265 346.71 106.877 347.674 106.111 348.415C105.336 349.155 104.311 349.526 103.028 349.526C101.745 349.526 100.703 349.155 99.9195 348.406C99.1359 347.666 98.7484 346.675 98.7484 345.444V344.445L98.7398 344.462ZM101.323 345.513C101.323 346.004 101.487 346.426 101.805 346.779C102.124 347.132 102.529 347.304 103.019 347.304C104.113 347.304 104.664 346.701 104.664 345.487V344.462C104.664 343.928 104.509 343.489 104.208 343.162C103.906 342.835 103.502 342.671 102.994 342.671C102.486 342.671 102.089 342.835 101.779 343.162C101.478 343.489 101.323 343.937 101.323 344.497V345.504V345.513Z" fill="white"/>
<path d="M402.055 349.267H388.631V346.606L394.968 339.855C395.838 338.908 396.484 338.073 396.897 337.367C397.311 336.661 397.526 335.989 397.526 335.352C397.526 334.482 397.302 333.802 396.863 333.302C396.424 332.803 395.795 332.553 394.977 332.553C394.099 332.553 393.401 332.854 392.902 333.457C392.394 334.06 392.144 334.861 392.144 335.842H388.243C388.243 334.646 388.527 333.561 389.096 332.57C389.664 331.58 390.473 330.814 391.507 330.245C392.549 329.686 393.728 329.401 395.046 329.401C397.061 329.401 398.628 329.884 399.748 330.857C400.867 331.83 401.427 333.19 401.427 334.964C401.427 335.929 401.177 336.919 400.669 337.926C400.17 338.934 399.308 340.105 398.086 341.44L393.634 346.133H402.055V349.267ZM417.633 341.164C417.633 343.877 417.073 345.943 415.954 347.381C414.834 348.819 413.19 349.534 411.028 349.534C408.867 349.534 407.256 348.828 406.128 347.424C405 346.012 404.423 343.997 404.389 341.371V337.763C404.389 335.024 404.957 332.949 406.094 331.537C407.231 330.116 408.867 329.41 411.002 329.41C413.138 329.41 414.774 330.116 415.902 331.52C417.03 332.923 417.607 334.938 417.642 337.565V341.173L417.633 341.164ZM413.741 337.203C413.741 335.576 413.517 334.396 413.078 333.655C412.63 332.915 411.941 332.544 411.002 332.544C410.064 332.544 409.409 332.897 408.979 333.604C408.54 334.31 408.316 335.412 408.29 336.91V341.681C408.29 343.282 408.505 344.471 408.944 345.246C409.383 346.021 410.072 346.408 411.037 346.408C412.001 346.408 412.673 346.038 413.095 345.289C413.517 344.54 413.732 343.403 413.758 341.87V337.212L413.741 337.203ZM420.208 333.449C420.208 332.243 420.595 331.27 421.379 330.521C422.162 329.772 423.178 329.401 424.444 329.401C425.71 329.401 426.761 329.772 427.536 330.512C428.311 331.253 428.707 332.252 428.707 333.517V334.482C428.707 335.696 428.319 336.669 427.536 337.401C426.752 338.133 425.736 338.503 424.47 338.503C423.204 338.503 422.171 338.133 421.379 337.392C420.595 336.652 420.199 335.653 420.199 334.396V333.44L420.208 333.449ZM422.791 334.482C422.791 335.016 422.946 335.455 423.256 335.782C423.566 336.109 423.971 336.273 424.47 336.273C424.97 336.273 425.374 336.109 425.667 335.774C425.96 335.438 426.115 334.999 426.115 334.439V333.44C426.115 332.906 425.968 332.467 425.667 332.131C425.374 331.795 424.961 331.632 424.444 331.632C423.953 331.632 423.549 331.795 423.247 332.122C422.946 332.45 422.791 332.906 422.791 333.492V334.473V334.482ZM425.236 347.803L423.342 346.779L432.909 331.468L434.803 332.493L425.236 347.803ZM429.568 344.462C429.568 343.248 429.964 342.275 430.756 341.534C431.548 340.794 432.565 340.424 433.822 340.424C435.079 340.424 436.121 340.785 436.913 341.517C437.697 342.249 438.093 343.257 438.093 344.54V345.504C438.093 346.71 437.705 347.674 436.939 348.415C436.164 349.155 435.139 349.526 433.856 349.526C432.573 349.526 431.531 349.155 430.748 348.406C429.964 347.666 429.576 346.675 429.576 345.444V344.445L429.568 344.462ZM432.151 345.513C432.151 346.004 432.315 346.426 432.633 346.779C432.952 347.132 433.357 347.304 433.848 347.304C434.941 347.304 435.492 346.701 435.492 345.487V344.462C435.492 343.928 435.337 343.489 435.036 343.162C434.735 342.835 434.33 342.671 433.822 342.671C433.314 342.671 432.918 342.835 432.608 343.162C432.306 343.489 432.151 343.937 432.151 344.497V345.504V345.513Z" fill="white"/>
<path d="M732.724 349.267H719.3V346.606L725.637 339.855C726.507 338.908 727.153 338.073 727.566 337.367C727.98 336.661 728.195 335.989 728.195 335.352C728.195 334.482 727.971 333.802 727.532 333.302C727.093 332.803 726.464 332.553 725.646 332.553C724.768 332.553 724.07 332.854 723.571 333.457C723.063 334.06 722.813 334.861 722.813 335.842H718.912C718.912 334.646 719.196 333.561 719.765 332.57C720.333 331.58 721.142 330.814 722.176 330.245C723.218 329.686 724.397 329.401 725.715 329.401C727.73 329.401 729.297 329.884 730.417 330.857C731.536 331.83 732.096 333.19 732.096 334.964C732.096 335.929 731.846 336.919 731.338 337.926C730.838 338.934 729.977 340.105 728.755 341.44L724.303 346.133H732.724V349.267ZM748.302 341.164C748.302 343.877 747.742 345.943 746.623 347.381C745.503 348.819 743.858 349.534 741.697 349.534C739.536 349.534 737.925 348.828 736.797 347.424C735.669 346.012 735.092 343.997 735.058 341.371V337.763C735.058 335.024 735.626 332.949 736.763 331.537C737.9 330.116 739.536 329.41 741.671 329.41C743.807 329.41 745.443 330.116 746.571 331.52C747.699 332.923 748.276 334.938 748.31 337.565V341.173L748.302 341.164ZM744.41 337.203C744.41 335.576 744.186 334.396 743.747 333.655C743.299 332.915 742.61 332.544 741.671 332.544C740.733 332.544 740.078 332.897 739.648 333.604C739.208 334.31 738.985 335.412 738.959 336.91V341.681C738.959 343.282 739.174 344.471 739.613 345.246C740.052 346.021 740.741 346.408 741.706 346.408C742.67 346.408 743.342 346.038 743.764 345.289C744.186 344.54 744.401 343.403 744.427 341.87V337.212L744.41 337.203ZM750.877 333.449C750.877 332.243 751.264 331.27 752.048 330.521C752.831 329.772 753.847 329.401 755.113 329.401C756.379 329.401 757.43 329.772 758.205 330.512C758.98 331.253 759.376 332.252 759.376 333.517V334.482C759.376 335.696 758.988 336.669 758.205 337.401C757.421 338.133 756.405 338.503 755.139 338.503C753.873 338.503 752.84 338.133 752.048 337.392C751.264 336.652 750.868 335.653 750.868 334.396V333.44L750.877 333.449ZM753.46 334.482C753.46 335.016 753.615 335.455 753.925 335.782C754.235 336.109 754.64 336.273 755.139 336.273C755.638 336.273 756.043 336.109 756.336 335.774C756.629 335.438 756.784 334.999 756.784 334.439V333.44C756.784 332.906 756.637 332.467 756.336 332.131C756.043 331.795 755.63 331.632 755.113 331.632C754.622 331.632 754.218 331.795 753.916 332.122C753.615 332.45 753.46 332.906 753.46 333.492V334.473V334.482ZM755.905 347.803L754.011 346.779L763.578 331.468L765.472 332.493L755.905 347.803ZM760.237 344.462C760.237 343.248 760.633 342.275 761.425 341.534C762.217 340.794 763.233 340.424 764.491 340.424C765.748 340.424 766.79 340.785 767.582 341.517C768.366 342.249 768.762 343.257 768.762 344.54V345.504C768.762 346.71 768.374 347.674 767.608 348.415C766.833 349.155 765.808 349.526 764.525 349.526C763.242 349.526 762.2 349.155 761.417 348.406C760.633 347.666 760.245 346.675 760.245 345.444V344.445L760.237 344.462ZM762.82 345.513C762.82 346.004 762.984 346.426 763.302 346.779C763.621 347.132 764.026 347.304 764.517 347.304C765.61 347.304 766.161 346.701 766.161 345.487V344.462C766.161 343.928 766.006 343.489 765.705 343.162C765.403 342.835 764.999 342.671 764.491 342.671C763.983 342.671 763.587 342.835 763.277 343.162C762.975 343.489 762.82 343.937 762.82 344.497V345.504V345.513Z" fill="white"/>
<path d="M1054.03 337.745H1056.11C1057.1 337.745 1057.82 337.496 1058.3 337.005C1058.77 336.514 1059.02 335.86 1059.02 335.041C1059.02 334.223 1058.78 333.638 1058.31 333.199C1057.84 332.76 1057.19 332.536 1056.36 332.536C1055.62 332.536 1054.99 332.742 1054.5 333.147C1054 333.552 1053.74 334.086 1053.74 334.74H1049.84C1049.84 333.715 1050.12 332.803 1050.67 331.985C1051.22 331.175 1052 330.538 1052.99 330.081C1053.98 329.625 1055.07 329.393 1056.26 329.393C1058.34 329.393 1059.95 329.892 1061.13 330.882C1062.31 331.873 1062.9 333.242 1062.9 334.981C1062.9 335.877 1062.62 336.703 1062.08 337.461C1061.53 338.219 1060.82 338.796 1059.93 339.201C1061.03 339.597 1061.86 340.191 1062.4 340.975C1062.94 341.767 1063.22 342.697 1063.22 343.773C1063.22 345.513 1062.58 346.908 1061.31 347.958C1060.05 349.009 1058.37 349.534 1056.28 349.534C1054.32 349.534 1052.72 349.017 1051.48 347.984C1050.24 346.951 1049.62 345.59 1049.62 343.894H1053.51C1053.51 344.626 1053.79 345.228 1054.34 345.693C1054.89 346.158 1055.57 346.391 1056.38 346.391C1057.3 346.391 1058.03 346.15 1058.55 345.659C1059.08 345.168 1059.33 344.522 1059.33 343.713C1059.33 341.758 1058.26 340.776 1056.11 340.776H1054.05V337.737L1054.03 337.745ZM1066.47 339.631L1067.6 329.677H1078.58V332.923H1070.79L1070.3 337.134C1071.23 336.643 1072.21 336.393 1073.25 336.393C1075.12 336.393 1076.57 336.97 1077.63 338.133C1078.69 339.287 1079.22 340.906 1079.22 342.99C1079.22 344.255 1078.95 345.383 1078.42 346.391C1077.88 347.39 1077.12 348.165 1076.13 348.716C1075.14 349.267 1073.96 349.543 1072.6 349.543C1071.42 349.543 1070.32 349.301 1069.31 348.819C1068.29 348.337 1067.49 347.665 1066.9 346.796C1066.32 345.926 1066.01 344.936 1065.96 343.825H1069.81C1069.89 344.643 1070.18 345.28 1070.67 345.728C1071.16 346.184 1071.79 346.408 1072.59 346.408C1073.47 346.408 1074.15 346.09 1074.62 345.461C1075.09 344.832 1075.33 343.937 1075.33 342.774C1075.33 341.612 1075.06 340.811 1074.52 340.217C1073.96 339.623 1073.19 339.33 1072.19 339.33C1071.27 339.33 1070.52 339.571 1069.94 340.053L1069.56 340.406L1066.47 339.64V339.631ZM1081.65 333.44C1081.65 332.234 1082.04 331.261 1082.83 330.512C1083.61 329.763 1084.63 329.393 1085.89 329.393C1087.16 329.393 1088.21 329.763 1088.98 330.503C1089.76 331.244 1090.15 332.243 1090.15 333.509V334.473C1090.15 335.687 1089.77 336.66 1088.98 337.392C1088.2 338.124 1087.18 338.495 1085.92 338.495C1084.65 338.495 1083.62 338.124 1082.83 337.384C1082.04 336.643 1081.65 335.644 1081.65 334.387V333.431L1081.65 333.44ZM1084.24 334.473C1084.24 335.007 1084.39 335.446 1084.7 335.773C1085.01 336.101 1085.42 336.264 1085.92 336.264C1086.42 336.264 1086.82 336.101 1087.11 335.765C1087.41 335.429 1087.56 334.99 1087.56 334.43V333.431C1087.56 332.897 1087.42 332.458 1087.11 332.122C1086.82 331.786 1086.41 331.623 1085.89 331.623C1085.4 331.623 1085 331.786 1084.69 332.114C1084.39 332.441 1084.24 332.897 1084.24 333.483V334.465V334.473ZM1086.68 347.795L1084.79 346.77L1094.36 331.459L1096.25 332.484L1086.68 347.795ZM1091.01 344.453C1091.01 343.239 1091.41 342.266 1092.2 341.526C1093 340.785 1094.01 340.415 1095.27 340.415C1096.53 340.415 1097.57 340.776 1098.36 341.508C1099.14 342.24 1099.54 343.248 1099.54 344.531V345.495C1099.54 346.701 1099.15 347.665 1098.39 348.406C1097.61 349.146 1096.59 349.517 1095.3 349.517C1094.02 349.517 1092.98 349.146 1092.19 348.397C1091.41 347.657 1091.02 346.666 1091.02 345.435V344.436L1091.01 344.453ZM1093.6 345.504C1093.6 345.995 1093.76 346.417 1094.08 346.77C1094.4 347.123 1094.8 347.295 1095.29 347.295C1096.39 347.295 1096.94 346.692 1096.94 345.478V344.453C1096.94 343.92 1096.78 343.48 1096.48 343.153C1096.18 342.826 1095.78 342.662 1095.27 342.662C1094.76 342.662 1094.36 342.826 1094.05 343.153C1093.75 343.48 1093.6 343.928 1093.6 344.488V345.495V345.504Z" fill="#00313C"/>
<path d="M1607.96 339.631L1609.09 329.677H1620.07V332.923H1612.28L1611.8 337.134C1612.72 336.643 1613.7 336.393 1614.74 336.393C1616.61 336.393 1618.06 336.97 1619.12 338.133C1620.18 339.287 1620.71 340.906 1620.71 342.99C1620.71 344.255 1620.44 345.383 1619.91 346.391C1619.37 347.39 1618.61 348.165 1617.62 348.716C1616.63 349.267 1615.45 349.543 1614.1 349.543C1612.91 349.543 1611.81 349.301 1610.8 348.819C1609.78 348.337 1608.98 347.665 1608.39 346.796C1607.81 345.926 1607.5 344.936 1607.46 343.825H1611.31C1611.38 344.643 1611.67 345.28 1612.16 345.728C1612.65 346.184 1613.29 346.408 1614.08 346.408C1614.96 346.408 1615.64 346.09 1616.11 345.461C1616.58 344.832 1616.82 343.937 1616.82 342.774C1616.82 341.612 1616.55 340.811 1616.01 340.217C1615.46 339.623 1614.68 339.33 1613.68 339.33C1612.76 339.33 1612.01 339.571 1611.43 340.053L1611.06 340.406L1607.96 339.64V339.631ZM1623.15 333.44C1623.15 332.234 1623.53 331.261 1624.32 330.512C1625.1 329.763 1626.12 329.393 1627.38 329.393C1628.65 329.393 1629.7 329.763 1630.47 330.503C1631.25 331.244 1631.64 332.243 1631.64 333.509V334.473C1631.64 335.687 1631.26 336.66 1630.47 337.392C1629.69 338.124 1628.67 338.495 1627.41 338.495C1626.14 338.495 1625.11 338.124 1624.32 337.384C1623.53 336.643 1623.14 335.644 1623.14 334.387V333.431L1623.15 333.44ZM1625.73 334.473C1625.73 335.007 1625.88 335.446 1626.19 335.773C1626.5 336.101 1626.91 336.264 1627.41 336.264C1627.91 336.264 1628.31 336.101 1628.6 335.765C1628.9 335.429 1629.05 334.99 1629.05 334.43V333.431C1629.05 332.897 1628.91 332.458 1628.6 332.122C1628.31 331.786 1627.9 331.623 1627.38 331.623C1626.89 331.623 1626.49 331.786 1626.19 332.114C1625.88 332.441 1625.73 332.897 1625.73 333.483V334.465V334.473ZM1628.17 347.795L1626.28 346.77L1635.85 331.459L1637.74 332.484L1628.17 347.795ZM1632.51 344.453C1632.51 343.239 1632.9 342.266 1633.69 341.526C1634.49 340.785 1635.5 340.415 1636.76 340.415C1638.02 340.415 1639.06 340.776 1639.85 341.508C1640.63 342.24 1641.03 343.248 1641.03 344.531V345.495C1641.03 346.701 1640.64 347.665 1639.88 348.406C1639.1 349.146 1638.08 349.517 1636.79 349.517C1635.51 349.517 1634.47 349.146 1633.69 348.397C1632.9 347.657 1632.51 346.666 1632.51 345.435V344.436L1632.51 344.453ZM1635.09 345.504C1635.09 345.995 1635.25 346.417 1635.57 346.77C1635.89 347.123 1636.29 347.295 1636.79 347.295C1637.88 347.295 1638.43 346.692 1638.43 345.478V344.453C1638.43 343.92 1638.28 343.48 1637.97 343.153C1637.67 342.826 1637.27 342.662 1636.76 342.662C1636.25 342.662 1635.86 342.826 1635.55 343.153C1635.24 343.48 1635.09 343.928 1635.09 344.488V345.495V345.504Z" fill="white"/>
<path d="M993.5 929.5V0.5H1589.5V929.5H993.5Z" stroke="#E7E7E7"/>
</g>
<defs>
<clipPath id="clip0_629_750">
<rect width="1653.33" height="930" fill="white" transform="translate(0.666016)"/>
</clipPath>
</defs>
</svg>
