<svg width="162" height="84" viewBox="0 0 162 84" fill="none" xmlns="http://www.w3.org/2000/svg">
<path d="M61.4882 1H1V61.4882H61.4882V1Z" fill="white"/>
<path d="M61.4882 1H1V61.4882H61.4882V1Z" stroke="black" stroke-width="0.229868" stroke-miterlimit="10"/>
<path d="M160.82 1.18359H85.6797V61.2974H160.82V1.18359Z" fill="white"/>
<path d="M145.794 1.18359H85.6797V61.2974H145.794V1.18359Z" fill="#EDEDED"/>
<path d="M116.387 33.7261H150.046" stroke="#E5007D" stroke-width="0.919474" stroke-miterlimit="10"/>
<path d="M148.871 37.6543L155.721 33.694L148.871 29.7402V37.6543Z" fill="#E5007D"/>
<path d="M160.999 1H85.4844V61.4882H160.999V1Z" stroke="black" stroke-width="0.229868" stroke-miterlimit="10"/>
<path d="M8.47461 79.1289V80.0195H2.31055V79.3809L6.13086 73.4688H7.01562L6.06641 75.1797L3.54102 79.1289H8.47461ZM7.28516 73.4688V82H6.20117V73.4688H7.28516ZM9.5293 81.4258C9.5293 81.2422 9.58594 81.0879 9.69922 80.9629C9.81641 80.834 9.98438 80.7695 10.2031 80.7695C10.4219 80.7695 10.5879 80.834 10.7012 80.9629C10.8184 81.0879 10.877 81.2422 10.877 81.4258C10.877 81.6055 10.8184 81.7578 10.7012 81.8828C10.5879 82.0078 10.4219 82.0703 10.2031 82.0703C9.98438 82.0703 9.81641 82.0078 9.69922 81.8828C9.58594 81.7578 9.5293 81.6055 9.5293 81.4258ZM9.53516 76.252C9.53516 76.0684 9.5918 75.9141 9.70508 75.7891C9.82227 75.6602 9.99023 75.5957 10.209 75.5957C10.4277 75.5957 10.5938 75.6602 10.707 75.7891C10.8242 75.9141 10.8828 76.0684 10.8828 76.252C10.8828 76.4316 10.8242 76.584 10.707 76.709C10.5938 76.834 10.4277 76.8965 10.209 76.8965C9.99023 76.8965 9.82227 76.834 9.70508 76.709C9.5918 76.584 9.53516 76.4316 9.53516 76.252ZM18.1309 79.1289V80.0195H11.9668V79.3809L15.7871 73.4688H16.6719L15.7227 75.1797L13.1973 79.1289H18.1309ZM16.9414 73.4688V82H15.8574V73.4688H16.9414Z" fill="black"/>
<path d="M93.4746 79.1289V80.0195H87.3105V79.3809L91.1309 73.4688H92.0156L91.0664 75.1797L88.541 79.1289H93.4746ZM92.2852 73.4688V82H91.2012V73.4688H92.2852ZM94.5293 81.4258C94.5293 81.2422 94.5859 81.0879 94.6992 80.9629C94.8164 80.834 94.9844 80.7695 95.2031 80.7695C95.4219 80.7695 95.5879 80.834 95.7012 80.9629C95.8184 81.0879 95.877 81.2422 95.877 81.4258C95.877 81.6055 95.8184 81.7578 95.7012 81.8828C95.5879 82.0078 95.4219 82.0703 95.2031 82.0703C94.9844 82.0703 94.8164 82.0078 94.6992 81.8828C94.5859 81.7578 94.5293 81.6055 94.5293 81.4258ZM94.5352 76.252C94.5352 76.0684 94.5918 75.9141 94.7051 75.7891C94.8223 75.6602 94.9902 75.5957 95.209 75.5957C95.4277 75.5957 95.5938 75.6602 95.707 75.7891C95.8242 75.9141 95.8828 76.0684 95.8828 76.252C95.8828 76.4316 95.8242 76.584 95.707 76.709C95.5938 76.834 95.4277 76.8965 95.209 76.8965C94.9902 76.8965 94.8223 76.834 94.7051 76.709C94.5918 76.584 94.5352 76.4316 94.5352 76.252ZM98.7363 77.9395L97.8691 77.7168L98.2969 73.4688H102.674V74.4707H99.2168L98.959 76.791C99.1152 76.7012 99.3125 76.6172 99.5508 76.5391C99.793 76.4609 100.07 76.4219 100.383 76.4219C100.777 76.4219 101.131 76.4902 101.443 76.627C101.756 76.7598 102.021 76.9512 102.24 77.2012C102.463 77.4512 102.633 77.752 102.75 78.1035C102.867 78.4551 102.926 78.8477 102.926 79.2812C102.926 79.6914 102.869 80.0684 102.756 80.4121C102.646 80.7559 102.48 81.0566 102.258 81.3145C102.035 81.5684 101.754 81.7656 101.414 81.9062C101.078 82.0469 100.682 82.1172 100.225 82.1172C99.8809 82.1172 99.5547 82.0703 99.2461 81.9766C98.9414 81.8789 98.668 81.7324 98.4258 81.5371C98.1875 81.3379 97.9922 81.0918 97.8398 80.7988C97.6914 80.502 97.5977 80.1543 97.5586 79.7559H98.5898C98.6367 80.0762 98.7305 80.3457 98.8711 80.5645C99.0117 80.7832 99.1953 80.9492 99.4219 81.0625C99.6523 81.1719 99.9199 81.2266 100.225 81.2266C100.482 81.2266 100.711 81.1816 100.91 81.0918C101.109 81.002 101.277 80.873 101.414 80.7051C101.551 80.5371 101.654 80.334 101.725 80.0957C101.799 79.8574 101.836 79.5898 101.836 79.293C101.836 79.0234 101.799 78.7734 101.725 78.543C101.65 78.3125 101.539 78.1113 101.391 77.9395C101.246 77.7676 101.068 77.6348 100.857 77.541C100.646 77.4434 100.404 77.3945 100.131 77.3945C99.7676 77.3945 99.4922 77.4434 99.3047 77.541C99.1211 77.6387 98.9316 77.7715 98.7363 77.9395Z" fill="black"/>
</svg>
