<svg width="281" height="309" viewBox="0 0 281 309" fill="none" xmlns="http://www.w3.org/2000/svg">
<path d="M16.1406 19.4688V22H3.70703V19.4688H16.1406ZM4.58594 19.4688V26.1836H1.52734L1.375 19.4688H4.58594ZM18.543 19.4688L18.2969 26.1953H15.3086V19.4688H18.543ZM14.1367 4.9375V7.48047H6.09766V4.9375H14.1367ZM16.5156 4.9375V22H13.3047V4.9375H16.5156ZM5.58203 4.9375H8.80469L8.37109 11.875C8.30859 12.9922 8.19141 13.9883 8.01953 14.8633C7.85547 15.7383 7.65234 16.5156 7.41016 17.1953C7.16797 17.875 6.89844 18.4727 6.60156 18.9883C6.3125 19.4961 6.00391 19.9375 5.67578 20.3125C5.35547 20.6875 5.02344 21.0117 4.67969 21.2852C4.34375 21.5508 4.01172 21.7891 3.68359 22H1.89062V19.4688H2.66406C2.89062 19.2734 3.12891 19 3.37891 18.6484C3.63672 18.2969 3.88281 17.832 4.11719 17.2539C4.35938 16.6758 4.57031 15.9453 4.75 15.0625C4.92969 14.1797 5.05859 13.1172 5.13672 11.875L5.58203 4.9375ZM24.0391 20.5938L27.4375 9.32031H30.7539L25.668 23.9219C25.5508 24.2344 25.3984 24.5742 25.2109 24.9414C25.0312 25.3086 24.7891 25.6562 24.4844 25.9844C24.1797 26.3203 23.7969 26.5938 23.3359 26.8047C22.8828 27.0156 22.332 27.1211 21.6836 27.1211C21.4023 27.1211 21.1523 27.1016 20.9336 27.0625C20.7148 27.0234 20.4844 26.9727 20.2422 26.9102V24.5898C20.3203 24.5977 20.4102 24.6016 20.5117 24.6016C20.6211 24.6094 20.7148 24.6133 20.793 24.6133C21.2461 24.6133 21.6211 24.5586 21.918 24.4492C22.2148 24.3477 22.4531 24.1797 22.6328 23.9453C22.8203 23.7188 22.9766 23.4219 23.1016 23.0547L24.0391 20.5938ZM22.3633 9.32031L25.2344 18.6602L25.7383 21.9297L23.6055 22.3164L19.0234 9.32031H22.3633ZM40.1055 3.75391H42.6133C42.6133 4.41797 42.5273 4.97656 42.3555 5.42969C42.1836 5.875 41.918 6.25 41.5586 6.55469C41.1992 6.85156 40.7383 7.09766 40.1758 7.29297C39.6133 7.48828 38.9414 7.66016 38.1602 7.80859C37.5039 7.94141 36.9258 8.16016 36.4258 8.46484C35.9258 8.76953 35.5078 9.1875 35.1719 9.71875C34.8438 10.25 34.6055 10.9258 34.457 11.7461C34.3086 12.5664 34.2617 13.5547 34.3164 14.7109V15.3906L31.8906 15.6719V14.9922C31.8906 13.4844 32.0273 12.1719 32.3008 11.0547C32.5742 9.92969 32.9609 8.98438 33.4609 8.21875C33.9609 7.44531 34.5586 6.83203 35.2539 6.37891C35.957 5.91797 36.7422 5.59375 37.6094 5.40625C38.1875 5.28906 38.6602 5.16797 39.0273 5.04297C39.4023 4.91797 39.6758 4.75781 39.8477 4.5625C40.0195 4.35938 40.1055 4.08984 40.1055 3.75391ZM38.3711 10.0352C39.2227 10.0352 39.9766 10.1836 40.6328 10.4805C41.2969 10.7695 41.8555 11.1797 42.3086 11.7109C42.7617 12.2344 43.1055 12.8555 43.3398 13.5742C43.582 14.2852 43.7031 15.0625 43.7031 15.9062V16.1523C43.7031 17.0273 43.5703 17.8359 43.3047 18.5781C43.0469 19.3203 42.668 19.9648 42.168 20.5117C41.668 21.0586 41.0508 21.4844 40.3164 21.7891C39.582 22.0938 38.7422 22.2461 37.7969 22.2461C36.8594 22.2461 36.0234 22.0859 35.2891 21.7656C34.5547 21.4375 33.9336 20.9844 33.4258 20.4062C32.918 19.8281 32.5352 19.1484 32.2773 18.3672C32.0195 17.5781 31.8906 16.7188 31.8906 15.7891V15.543C31.8828 15.3867 31.9336 15.2383 32.043 15.0977C32.1523 14.957 32.2812 14.8008 32.4297 14.6289C32.5859 14.457 32.7266 14.25 32.8516 14.0078C33.2812 13.1797 33.7656 12.4688 34.3047 11.875C34.8516 11.2812 35.4609 10.8281 36.1328 10.5156C36.8047 10.1953 37.5508 10.0352 38.3711 10.0352ZM37.7734 12.4727C37.1094 12.4727 36.5703 12.6328 36.1562 12.9531C35.75 13.2656 35.4531 13.6836 35.2656 14.207C35.0781 14.7227 34.9844 15.2891 34.9844 15.9062V16.1523C34.9844 16.6523 35.0352 17.125 35.1367 17.5703C35.2461 18.0078 35.4102 18.3945 35.6289 18.7305C35.8477 19.0664 36.1367 19.332 36.4961 19.5273C36.8555 19.7148 37.2891 19.8086 37.7969 19.8086C38.3047 19.8086 38.7344 19.7148 39.0859 19.5273C39.4453 19.332 39.7344 19.0664 39.9531 18.7305C40.1719 18.3945 40.332 18.0078 40.4336 17.5703C40.543 17.125 40.5977 16.6523 40.5977 16.1523V15.9062C40.5977 15.4453 40.543 15.0078 40.4336 14.5938C40.332 14.1797 40.1719 13.8164 39.9531 13.5039C39.7344 13.1836 39.4414 12.9336 39.0742 12.7539C38.7148 12.5664 38.2812 12.4727 37.7734 12.4727ZM54.3672 9.32031V11.7695H48.1562V9.32031H54.3672ZM56.6992 9.32031V22H53.6055V9.32031H56.6992ZM47.3828 9.32031H50.4414L50.1016 15.6484C50.0469 16.5781 49.9492 17.3945 49.8086 18.0977C49.668 18.793 49.4805 19.3906 49.2461 19.8906C49.0117 20.3828 48.7266 20.7852 48.3906 21.0977C48.0547 21.4102 47.6641 21.6406 47.2188 21.7891C46.7812 21.9297 46.2891 22 45.7422 22H44.793L44.7578 19.5039L45.2031 19.4688C45.4766 19.4453 45.7109 19.3711 45.9062 19.2461C46.1094 19.1211 46.2812 18.9414 46.4219 18.707C46.5703 18.4727 46.6914 18.1719 46.7852 17.8047C46.8867 17.4297 46.9648 16.9922 47.0195 16.4922C47.082 15.9844 47.125 15.3984 47.1484 14.7344L47.3828 9.32031ZM62.6641 17.582L67.2812 9.32031H70.3867V22H67.2812V13.7266L62.6641 22H59.5586V9.32031H62.6641V17.582ZM76.293 11.7578V26.875H73.1875V9.32031H76.0586L76.293 11.7578ZM84.4375 15.5312V15.7773C84.4375 16.6992 84.3281 17.5547 84.1094 18.3438C83.8984 19.125 83.5859 19.8086 83.1719 20.3945C82.7578 20.9727 82.2422 21.4258 81.625 21.7539C81.0156 22.0742 80.3125 22.2344 79.5156 22.2344C78.7344 22.2344 78.0547 22.0859 77.4766 21.7891C76.8984 21.4844 76.4102 21.0547 76.0117 20.5C75.6133 19.9453 75.293 19.3008 75.0508 18.5664C74.8164 17.8242 74.6406 17.0156 74.5234 16.1406V15.3555C74.6406 14.4258 74.8164 13.582 75.0508 12.8242C75.293 12.0586 75.6133 11.3984 76.0117 10.8438C76.4102 10.2812 76.8945 9.84766 77.4648 9.54297C78.043 9.23828 78.7188 9.08594 79.4922 9.08594C80.2969 9.08594 81.0039 9.23828 81.6133 9.54297C82.2305 9.84766 82.75 10.2852 83.1719 10.8555C83.5938 11.4258 83.9102 12.1055 84.1211 12.8945C84.332 13.6836 84.4375 14.5625 84.4375 15.5312ZM81.332 15.7773V15.5312C81.332 14.9688 81.2812 14.4492 81.1797 13.9727C81.0781 13.4883 80.9219 13.0664 80.7109 12.707C80.5 12.3398 80.2266 12.0547 79.8906 11.8516C79.5547 11.6484 79.1484 11.5469 78.6719 11.5469C78.1953 11.5469 77.7852 11.625 77.4414 11.7812C77.0977 11.9375 76.8164 12.1602 76.5977 12.4492C76.3789 12.7383 76.207 13.082 76.082 13.4805C75.9648 13.8711 75.8867 14.3047 75.8477 14.7812V16.7266C75.918 17.3047 76.0547 17.8242 76.2578 18.2852C76.4609 18.7461 76.7578 19.1133 77.1484 19.3867C77.5469 19.6602 78.0625 19.7969 78.6953 19.7969C79.1719 19.7969 79.5781 19.6914 79.9141 19.4805C80.25 19.2695 80.5234 18.9805 80.7344 18.6133C80.9453 18.2383 81.0977 17.8086 81.1914 17.3242C81.2852 16.8398 81.332 16.3242 81.332 15.7773ZM86.1484 15.7891V15.543C86.1484 14.6133 86.2812 13.7578 86.5469 12.9766C86.8125 12.1875 87.1992 11.5039 87.707 10.9258C88.2148 10.3477 88.8359 9.89844 89.5703 9.57812C90.3047 9.25 91.1406 9.08594 92.0781 9.08594C93.0312 9.08594 93.875 9.25 94.6094 9.57812C95.3516 9.89844 95.9766 10.3477 96.4844 10.9258C96.9922 11.5039 97.3789 12.1875 97.6445 12.9766C97.9102 13.7578 98.043 14.6133 98.043 15.543V15.7891C98.043 16.7109 97.9102 17.5664 97.6445 18.3555C97.3789 19.1367 96.9922 19.8203 96.4844 20.4062C95.9766 20.9844 95.3555 21.4336 94.6211 21.7539C93.8867 22.0742 93.0469 22.2344 92.1016 22.2344C91.1641 22.2344 90.3242 22.0742 89.582 21.7539C88.8398 21.4336 88.2148 20.9844 87.707 20.4062C87.1992 19.8203 86.8125 19.1367 86.5469 18.3555C86.2812 17.5664 86.1484 16.7109 86.1484 15.7891ZM89.2422 15.543V15.7891C89.2422 16.3438 89.2969 16.8633 89.4062 17.3477C89.5156 17.832 89.6836 18.2578 89.9102 18.625C90.1367 18.9922 90.4297 19.2812 90.7891 19.4922C91.1562 19.6953 91.5938 19.7969 92.1016 19.7969C92.6016 19.7969 93.0312 19.6953 93.3906 19.4922C93.75 19.2812 94.043 18.9922 94.2695 18.625C94.5039 18.2578 94.6758 17.832 94.7852 17.3477C94.8945 16.8633 94.9492 16.3438 94.9492 15.7891V15.543C94.9492 14.9961 94.8945 14.4844 94.7852 14.0078C94.6758 13.5234 94.5039 13.0977 94.2695 12.7305C94.043 12.3555 93.7461 12.0625 93.3789 11.8516C93.0195 11.6328 92.5859 11.5234 92.0781 11.5234C91.5781 11.5234 91.1484 11.6328 90.7891 11.8516C90.4297 12.0625 90.1367 12.3555 89.9102 12.7305C89.6836 13.0977 89.5156 13.5234 89.4062 14.0078C89.2969 14.4844 89.2422 14.9961 89.2422 15.543ZM106.527 16.6328H102.508L102.484 14.5352H105.789C106.281 14.5352 106.684 14.4844 106.996 14.3828C107.309 14.2812 107.539 14.1289 107.688 13.9258C107.844 13.7227 107.922 13.4766 107.922 13.1875C107.922 12.9375 107.875 12.7227 107.781 12.543C107.688 12.3555 107.547 12.2031 107.359 12.0859C107.18 11.9688 106.949 11.8828 106.668 11.8281C106.395 11.7656 106.074 11.7344 105.707 11.7344H103.609V22H100.504V9.32031H105.707C106.527 9.32031 107.266 9.39453 107.922 9.54297C108.578 9.68359 109.137 9.89844 109.598 10.1875C110.059 10.4766 110.41 10.8438 110.652 11.2891C110.902 11.7266 111.027 12.2422 111.027 12.8359C111.027 13.2266 110.941 13.5938 110.77 13.9375C110.598 14.2812 110.344 14.5859 110.008 14.8516C109.672 15.1172 109.258 15.3359 108.766 15.5078C108.273 15.6719 107.711 15.7734 107.078 15.8125L106.527 16.6328ZM106.527 22H101.676L102.824 19.5859H106.527C106.98 19.5859 107.355 19.5312 107.652 19.4219C107.949 19.3047 108.168 19.1367 108.309 18.918C108.457 18.6992 108.531 18.4336 108.531 18.1211C108.531 17.8164 108.461 17.5547 108.32 17.3359C108.188 17.1094 107.973 16.9375 107.676 16.8203C107.387 16.6953 107.004 16.6328 106.527 16.6328H103.328L103.352 14.5352H107.066L107.887 15.3672C108.73 15.4219 109.43 15.5938 109.984 15.8828C110.539 16.1641 110.953 16.5234 111.227 16.9609C111.5 17.3906 111.637 17.8633 111.637 18.3789C111.637 18.9805 111.523 19.5078 111.297 19.9609C111.07 20.4141 110.738 20.793 110.301 21.0977C109.863 21.3945 109.328 21.6211 108.695 21.7773C108.062 21.9258 107.34 22 106.527 22ZM120.871 19.3047V13.457C120.871 13.0273 120.797 12.6562 120.648 12.3438C120.5 12.0312 120.273 11.7891 119.969 11.6172C119.664 11.4453 119.277 11.3594 118.809 11.3594C118.395 11.3594 118.031 11.4297 117.719 11.5703C117.414 11.7109 117.18 11.9102 117.016 12.168C116.852 12.418 116.77 12.707 116.77 13.0352H113.664C113.664 12.5117 113.789 12.0156 114.039 11.5469C114.289 11.0703 114.645 10.6484 115.105 10.2812C115.574 9.90625 116.133 9.61328 116.781 9.40234C117.438 9.19141 118.172 9.08594 118.984 9.08594C119.945 9.08594 120.801 9.25 121.551 9.57812C122.309 9.89844 122.902 10.3828 123.332 11.0312C123.77 11.6797 123.988 12.4961 123.988 13.4805V19.0117C123.988 19.6445 124.027 20.1875 124.105 20.6406C124.191 21.0859 124.316 21.4727 124.48 21.8008V22H121.328C121.18 21.6797 121.066 21.2734 120.988 20.7812C120.91 20.2812 120.871 19.7891 120.871 19.3047ZM121.305 14.2773L121.328 16.1172H119.371C118.887 16.1172 118.461 16.168 118.094 16.2695C117.727 16.3633 117.426 16.5039 117.191 16.6914C116.957 16.8711 116.781 17.0898 116.664 17.3477C116.547 17.5977 116.488 17.8828 116.488 18.2031C116.488 18.5156 116.559 18.7969 116.699 19.0469C116.848 19.2969 117.059 19.4961 117.332 19.6445C117.613 19.7852 117.941 19.8555 118.316 19.8555C118.863 19.8555 119.34 19.7461 119.746 19.5273C120.152 19.3008 120.469 19.0273 120.695 18.707C120.922 18.3867 121.043 18.082 121.059 17.793L121.949 19.1289C121.84 19.4492 121.676 19.7891 121.457 20.1484C121.238 20.5078 120.957 20.8438 120.613 21.1562C120.27 21.4688 119.855 21.7266 119.371 21.9297C118.887 22.1328 118.324 22.2344 117.684 22.2344C116.863 22.2344 116.129 22.0703 115.48 21.7422C114.832 21.4141 114.32 20.9648 113.945 20.3945C113.57 19.8242 113.383 19.1758 113.383 18.4492C113.383 17.7773 113.508 17.1836 113.758 16.668C114.008 16.1523 114.379 15.7188 114.871 15.3672C115.363 15.0078 115.973 14.7383 116.699 14.5586C117.434 14.3711 118.273 14.2773 119.219 14.2773H121.305ZM135.438 14.5234V16.9492H128.934V14.5234H135.438ZM129.906 9.32031V22H126.801V9.32031H129.906ZM137.605 9.32031V22H134.488V9.32031H137.605ZM143.547 17.582L148.164 9.32031H151.27V22H148.164V13.7266L143.547 22H140.441V9.32031H143.547V17.582ZM159.777 22.2344C158.816 22.2344 157.953 22.0781 157.188 21.7656C156.422 21.4531 155.77 21.0195 155.23 20.4648C154.699 19.9023 154.289 19.25 154 18.5078C153.719 17.7578 153.578 16.9531 153.578 16.0938V15.625C153.578 14.6484 153.719 13.7617 154 12.9648C154.281 12.1602 154.68 11.4688 155.195 10.8906C155.711 10.3125 156.328 9.86719 157.047 9.55469C157.766 9.24219 158.559 9.08594 159.426 9.08594C160.324 9.08594 161.117 9.23828 161.805 9.54297C162.492 9.83984 163.066 10.2617 163.527 10.8086C163.988 11.3555 164.336 12.0117 164.57 12.7773C164.805 13.5352 164.922 14.375 164.922 15.2969V16.5977H154.984V14.4648H161.875V14.2305C161.859 13.7383 161.766 13.2891 161.594 12.8828C161.422 12.4688 161.156 12.1406 160.797 11.8984C160.438 11.6484 159.973 11.5234 159.402 11.5234C158.941 11.5234 158.539 11.625 158.195 11.8281C157.859 12.0234 157.578 12.3047 157.352 12.6719C157.133 13.0312 156.969 13.4609 156.859 13.9609C156.75 14.4609 156.695 15.0156 156.695 15.625V16.0938C156.695 16.625 156.766 17.1172 156.906 17.5703C157.055 18.0234 157.27 18.418 157.551 18.7539C157.84 19.082 158.184 19.3398 158.582 19.5273C158.988 19.707 159.449 19.7969 159.965 19.7969C160.613 19.7969 161.199 19.6719 161.723 19.4219C162.254 19.1641 162.715 18.7852 163.105 18.2852L164.664 19.9023C164.398 20.293 164.039 20.668 163.586 21.0273C163.141 21.3867 162.602 21.6797 161.969 21.9062C161.336 22.125 160.605 22.2344 159.777 22.2344ZM180.824 3.75391H183.332C183.332 4.41797 183.246 4.97656 183.074 5.42969C182.902 5.875 182.637 6.25 182.277 6.55469C181.918 6.85156 181.457 7.09766 180.895 7.29297C180.332 7.48828 179.66 7.66016 178.879 7.80859C178.223 7.94141 177.645 8.16016 177.145 8.46484C176.645 8.76953 176.227 9.1875 175.891 9.71875C175.562 10.25 175.324 10.9258 175.176 11.7461C175.027 12.5664 174.98 13.5547 175.035 14.7109V15.3906L172.609 15.6719V14.9922C172.609 13.4844 172.746 12.1719 173.02 11.0547C173.293 9.92969 173.68 8.98438 174.18 8.21875C174.68 7.44531 175.277 6.83203 175.973 6.37891C176.676 5.91797 177.461 5.59375 178.328 5.40625C178.906 5.28906 179.379 5.16797 179.746 5.04297C180.121 4.91797 180.395 4.75781 180.566 4.5625C180.738 4.35938 180.824 4.08984 180.824 3.75391ZM179.09 10.0352C179.941 10.0352 180.695 10.1836 181.352 10.4805C182.016 10.7695 182.574 11.1797 183.027 11.7109C183.48 12.2344 183.824 12.8555 184.059 13.5742C184.301 14.2852 184.422 15.0625 184.422 15.9062V16.1523C184.422 17.0273 184.289 17.8359 184.023 18.5781C183.766 19.3203 183.387 19.9648 182.887 20.5117C182.387 21.0586 181.77 21.4844 181.035 21.7891C180.301 22.0938 179.461 22.2461 178.516 22.2461C177.578 22.2461 176.742 22.0859 176.008 21.7656C175.273 21.4375 174.652 20.9844 174.145 20.4062C173.637 19.8281 173.254 19.1484 172.996 18.3672C172.738 17.5781 172.609 16.7188 172.609 15.7891V15.543C172.602 15.3867 172.652 15.2383 172.762 15.0977C172.871 14.957 173 14.8008 173.148 14.6289C173.305 14.457 173.445 14.25 173.57 14.0078C174 13.1797 174.484 12.4688 175.023 11.875C175.57 11.2812 176.18 10.8281 176.852 10.5156C177.523 10.1953 178.27 10.0352 179.09 10.0352ZM178.492 12.4727C177.828 12.4727 177.289 12.6328 176.875 12.9531C176.469 13.2656 176.172 13.6836 175.984 14.207C175.797 14.7227 175.703 15.2891 175.703 15.9062V16.1523C175.703 16.6523 175.754 17.125 175.855 17.5703C175.965 18.0078 176.129 18.3945 176.348 18.7305C176.566 19.0664 176.855 19.332 177.215 19.5273C177.574 19.7148 178.008 19.8086 178.516 19.8086C179.023 19.8086 179.453 19.7148 179.805 19.5273C180.164 19.332 180.453 19.0664 180.672 18.7305C180.891 18.3945 181.051 18.0078 181.152 17.5703C181.262 17.125 181.316 16.6523 181.316 16.1523V15.9062C181.316 15.4453 181.262 15.0078 181.152 14.5938C181.051 14.1797 180.891 13.8164 180.672 13.5039C180.453 13.1836 180.16 12.9336 179.793 12.7539C179.434 12.5664 179 12.4727 178.492 12.4727ZM193.551 19.3047V13.457C193.551 13.0273 193.477 12.6562 193.328 12.3438C193.18 12.0312 192.953 11.7891 192.648 11.6172C192.344 11.4453 191.957 11.3594 191.488 11.3594C191.074 11.3594 190.711 11.4297 190.398 11.5703C190.094 11.7109 189.859 11.9102 189.695 12.168C189.531 12.418 189.449 12.707 189.449 13.0352H186.344C186.344 12.5117 186.469 12.0156 186.719 11.5469C186.969 11.0703 187.324 10.6484 187.785 10.2812C188.254 9.90625 188.812 9.61328 189.461 9.40234C190.117 9.19141 190.852 9.08594 191.664 9.08594C192.625 9.08594 193.48 9.25 194.23 9.57812C194.988 9.89844 195.582 10.3828 196.012 11.0312C196.449 11.6797 196.668 12.4961 196.668 13.4805V19.0117C196.668 19.6445 196.707 20.1875 196.785 20.6406C196.871 21.0859 196.996 21.4727 197.16 21.8008V22H194.008C193.859 21.6797 193.746 21.2734 193.668 20.7812C193.59 20.2812 193.551 19.7891 193.551 19.3047ZM193.984 14.2773L194.008 16.1172H192.051C191.566 16.1172 191.141 16.168 190.773 16.2695C190.406 16.3633 190.105 16.5039 189.871 16.6914C189.637 16.8711 189.461 17.0898 189.344 17.3477C189.227 17.5977 189.168 17.8828 189.168 18.2031C189.168 18.5156 189.238 18.7969 189.379 19.0469C189.527 19.2969 189.738 19.4961 190.012 19.6445C190.293 19.7852 190.621 19.8555 190.996 19.8555C191.543 19.8555 192.02 19.7461 192.426 19.5273C192.832 19.3008 193.148 19.0273 193.375 18.707C193.602 18.3867 193.723 18.082 193.738 17.793L194.629 19.1289C194.52 19.4492 194.355 19.7891 194.137 20.1484C193.918 20.5078 193.637 20.8438 193.293 21.1562C192.949 21.4688 192.535 21.7266 192.051 21.9297C191.566 22.1328 191.004 22.2344 190.363 22.2344C189.543 22.2344 188.809 22.0703 188.16 21.7422C187.512 21.4141 187 20.9648 186.625 20.3945C186.25 19.8242 186.062 19.1758 186.062 18.4492C186.062 17.7773 186.188 17.1836 186.438 16.668C186.688 16.1523 187.059 15.7188 187.551 15.3672C188.043 15.0078 188.652 14.7383 189.379 14.5586C190.113 14.3711 190.953 14.2773 191.898 14.2773H193.984ZM204.895 15.9531H202.422V14.4766H204.309C204.77 14.4766 205.137 14.4141 205.41 14.2891C205.691 14.1641 205.891 13.9883 206.008 13.7617C206.133 13.5352 206.195 13.2734 206.195 12.9766C206.195 12.7109 206.137 12.4609 206.02 12.2266C205.902 11.9844 205.707 11.7891 205.434 11.6406C205.16 11.4844 204.781 11.4062 204.297 11.4062C203.898 11.4062 203.543 11.4688 203.23 11.5938C202.918 11.7188 202.672 11.8945 202.492 12.1211C202.312 12.3477 202.223 12.6172 202.223 12.9297H199.117C199.117 12.1328 199.344 11.4492 199.797 10.8789C200.258 10.3086 200.871 9.87109 201.637 9.56641C202.402 9.25391 203.242 9.09766 204.156 9.09766C204.945 9.09766 205.656 9.17969 206.289 9.34375C206.922 9.5 207.461 9.73438 207.906 10.0469C208.352 10.3594 208.695 10.7461 208.938 11.207C209.18 11.6602 209.301 12.1875 209.301 12.7891C209.301 13.2188 209.199 13.625 208.996 14.0078C208.793 14.3906 208.5 14.7305 208.117 15.0273C207.734 15.3164 207.27 15.543 206.723 15.707C206.184 15.8711 205.574 15.9531 204.895 15.9531ZM202.422 15.1094H204.895C205.652 15.1094 206.316 15.1836 206.887 15.332C207.465 15.4727 207.949 15.6836 208.34 15.9648C208.73 16.2461 209.023 16.5938 209.219 17.0078C209.422 17.4141 209.523 17.8828 209.523 18.4141C209.523 19.0156 209.391 19.5547 209.125 20.0312C208.867 20.5 208.5 20.8984 208.023 21.2266C207.547 21.5547 206.98 21.8047 206.324 21.9766C205.668 22.1484 204.945 22.2344 204.156 22.2344C203.305 22.2344 202.477 22.0938 201.672 21.8125C200.875 21.5312 200.215 21.0977 199.691 20.5117C199.176 19.9258 198.918 19.1719 198.918 18.25H202.023C202.023 18.5469 202.113 18.8242 202.293 19.082C202.473 19.3398 202.73 19.5469 203.066 19.7031C203.41 19.8516 203.824 19.9258 204.309 19.9258C204.801 19.9258 205.203 19.8477 205.516 19.6914C205.828 19.5352 206.055 19.3281 206.195 19.0703C206.344 18.8047 206.418 18.5273 206.418 18.2383C206.418 17.8398 206.34 17.5195 206.184 17.2773C206.035 17.0273 205.801 16.8438 205.48 16.7266C205.168 16.6094 204.777 16.5508 204.309 16.5508H202.422V15.1094ZM211.211 15.7891V15.543C211.211 14.6133 211.344 13.7578 211.609 12.9766C211.875 12.1875 212.262 11.5039 212.77 10.9258C213.277 10.3477 213.898 9.89844 214.633 9.57812C215.367 9.25 216.203 9.08594 217.141 9.08594C218.094 9.08594 218.938 9.25 219.672 9.57812C220.414 9.89844 221.039 10.3477 221.547 10.9258C222.055 11.5039 222.441 12.1875 222.707 12.9766C222.973 13.7578 223.105 14.6133 223.105 15.543V15.7891C223.105 16.7109 222.973 17.5664 222.707 18.3555C222.441 19.1367 222.055 19.8203 221.547 20.4062C221.039 20.9844 220.418 21.4336 219.684 21.7539C218.949 22.0742 218.109 22.2344 217.164 22.2344C216.227 22.2344 215.387 22.0742 214.645 21.7539C213.902 21.4336 213.277 20.9844 212.77 20.4062C212.262 19.8203 211.875 19.1367 211.609 18.3555C211.344 17.5664 211.211 16.7109 211.211 15.7891ZM214.305 15.543V15.7891C214.305 16.3438 214.359 16.8633 214.469 17.3477C214.578 17.832 214.746 18.2578 214.973 18.625C215.199 18.9922 215.492 19.2812 215.852 19.4922C216.219 19.6953 216.656 19.7969 217.164 19.7969C217.664 19.7969 218.094 19.6953 218.453 19.4922C218.812 19.2812 219.105 18.9922 219.332 18.625C219.566 18.2578 219.738 17.832 219.848 17.3477C219.957 16.8633 220.012 16.3438 220.012 15.7891V15.543C220.012 14.9961 219.957 14.4844 219.848 14.0078C219.738 13.5234 219.566 13.0977 219.332 12.7305C219.105 12.3555 218.809 12.0625 218.441 11.8516C218.082 11.6328 217.648 11.5234 217.141 11.5234C216.641 11.5234 216.211 11.6328 215.852 11.8516C215.492 12.0625 215.199 12.3555 214.973 12.7305C214.746 13.0977 214.578 13.5234 214.469 14.0078C214.359 14.4844 214.305 14.9961 214.305 15.543ZM231.59 16.6328H227.57L227.547 14.5352H230.852C231.344 14.5352 231.746 14.4844 232.059 14.3828C232.371 14.2812 232.602 14.1289 232.75 13.9258C232.906 13.7227 232.984 13.4766 232.984 13.1875C232.984 12.9375 232.938 12.7227 232.844 12.543C232.75 12.3555 232.609 12.2031 232.422 12.0859C232.242 11.9688 232.012 11.8828 231.73 11.8281C231.457 11.7656 231.137 11.7344 230.77 11.7344H228.672V22H225.566V9.32031H230.77C231.59 9.32031 232.328 9.39453 232.984 9.54297C233.641 9.68359 234.199 9.89844 234.66 10.1875C235.121 10.4766 235.473 10.8438 235.715 11.2891C235.965 11.7266 236.09 12.2422 236.09 12.8359C236.09 13.2266 236.004 13.5938 235.832 13.9375C235.66 14.2812 235.406 14.5859 235.07 14.8516C234.734 15.1172 234.32 15.3359 233.828 15.5078C233.336 15.6719 232.773 15.7734 232.141 15.8125L231.59 16.6328ZM231.59 22H226.738L227.887 19.5859H231.59C232.043 19.5859 232.418 19.5312 232.715 19.4219C233.012 19.3047 233.23 19.1367 233.371 18.918C233.52 18.6992 233.594 18.4336 233.594 18.1211C233.594 17.8164 233.523 17.5547 233.383 17.3359C233.25 17.1094 233.035 16.9375 232.738 16.8203C232.449 16.6953 232.066 16.6328 231.59 16.6328H228.391L228.414 14.5352H232.129L232.949 15.3672C233.793 15.4219 234.492 15.5938 235.047 15.8828C235.602 16.1641 236.016 16.5234 236.289 16.9609C236.562 17.3906 236.699 17.8633 236.699 18.3789C236.699 18.9805 236.586 19.5078 236.359 19.9609C236.133 20.4141 235.801 20.793 235.363 21.0977C234.926 21.3945 234.391 21.6211 233.758 21.7773C233.125 21.9258 232.402 22 231.59 22ZM238.398 15.7891V15.543C238.398 14.6133 238.531 13.7578 238.797 12.9766C239.062 12.1875 239.449 11.5039 239.957 10.9258C240.465 10.3477 241.086 9.89844 241.82 9.57812C242.555 9.25 243.391 9.08594 244.328 9.08594C245.281 9.08594 246.125 9.25 246.859 9.57812C247.602 9.89844 248.227 10.3477 248.734 10.9258C249.242 11.5039 249.629 12.1875 249.895 12.9766C250.16 13.7578 250.293 14.6133 250.293 15.543V15.7891C250.293 16.7109 250.16 17.5664 249.895 18.3555C249.629 19.1367 249.242 19.8203 248.734 20.4062C248.227 20.9844 247.605 21.4336 246.871 21.7539C246.137 22.0742 245.297 22.2344 244.352 22.2344C243.414 22.2344 242.574 22.0742 241.832 21.7539C241.09 21.4336 240.465 20.9844 239.957 20.4062C239.449 19.8203 239.062 19.1367 238.797 18.3555C238.531 17.5664 238.398 16.7109 238.398 15.7891ZM241.492 15.543V15.7891C241.492 16.3438 241.547 16.8633 241.656 17.3477C241.766 17.832 241.934 18.2578 242.16 18.625C242.387 18.9922 242.68 19.2812 243.039 19.4922C243.406 19.6953 243.844 19.7969 244.352 19.7969C244.852 19.7969 245.281 19.6953 245.641 19.4922C246 19.2812 246.293 18.9922 246.52 18.625C246.754 18.2578 246.926 17.832 247.035 17.3477C247.145 16.8633 247.199 16.3438 247.199 15.7891V15.543C247.199 14.9961 247.145 14.4844 247.035 14.0078C246.926 13.5234 246.754 13.0977 246.52 12.7305C246.293 12.3555 245.996 12.0625 245.629 11.8516C245.27 11.6328 244.836 11.5234 244.328 11.5234C243.828 11.5234 243.398 11.6328 243.039 11.8516C242.68 12.0625 242.387 12.3555 242.16 12.7305C241.934 13.0977 241.766 13.5234 241.656 14.0078C241.547 14.4844 241.492 14.9961 241.492 15.543ZM261.062 9.32031V11.7695H255.66V22H252.566V9.32031H261.062ZM261.836 15.7891V15.543C261.836 14.6133 261.969 13.7578 262.234 12.9766C262.5 12.1875 262.887 11.5039 263.395 10.9258C263.902 10.3477 264.523 9.89844 265.258 9.57812C265.992 9.25 266.828 9.08594 267.766 9.08594C268.719 9.08594 269.562 9.25 270.297 9.57812C271.039 9.89844 271.664 10.3477 272.172 10.9258C272.68 11.5039 273.066 12.1875 273.332 12.9766C273.598 13.7578 273.73 14.6133 273.73 15.543V15.7891C273.73 16.7109 273.598 17.5664 273.332 18.3555C273.066 19.1367 272.68 19.8203 272.172 20.4062C271.664 20.9844 271.043 21.4336 270.309 21.7539C269.574 22.0742 268.734 22.2344 267.789 22.2344C266.852 22.2344 266.012 22.0742 265.27 21.7539C264.527 21.4336 263.902 20.9844 263.395 20.4062C262.887 19.8203 262.5 19.1367 262.234 18.3555C261.969 17.5664 261.836 16.7109 261.836 15.7891ZM264.93 15.543V15.7891C264.93 16.3438 264.984 16.8633 265.094 17.3477C265.203 17.832 265.371 18.2578 265.598 18.625C265.824 18.9922 266.117 19.2812 266.477 19.4922C266.844 19.6953 267.281 19.7969 267.789 19.7969C268.289 19.7969 268.719 19.6953 269.078 19.4922C269.438 19.2812 269.73 18.9922 269.957 18.625C270.191 18.2578 270.363 17.832 270.473 17.3477C270.582 16.8633 270.637 16.3438 270.637 15.7891V15.543C270.637 14.9961 270.582 14.4844 270.473 14.0078C270.363 13.5234 270.191 13.0977 269.957 12.7305C269.73 12.3555 269.434 12.0625 269.066 11.8516C268.707 11.6328 268.273 11.5234 267.766 11.5234C267.266 11.5234 266.836 11.6328 266.477 11.8516C266.117 12.0625 265.824 12.3555 265.598 12.7305C265.371 13.0977 265.203 13.5234 265.094 14.0078C264.984 14.4844 264.93 14.9961 264.93 15.543ZM10 46.3438L13.5625 37.3203H16.1523L11.0547 50H8.95703L3.87109 37.3203H6.47266L10 46.3438ZM5.71094 37.3203V50H2.60547V37.3203H5.71094ZM14.3477 50V37.3203H17.4531V50H14.3477ZM19.9844 43.7891V43.543C19.9844 42.6133 20.1172 41.7578 20.3828 40.9766C20.6484 40.1875 21.0352 39.5039 21.543 38.9258C22.0508 38.3477 22.6719 37.8984 23.4062 37.5781C24.1406 37.25 24.9766 37.0859 25.9141 37.0859C26.8672 37.0859 27.7109 37.25 28.4453 37.5781C29.1875 37.8984 29.8125 38.3477 30.3203 38.9258C30.8281 39.5039 31.2148 40.1875 31.4805 40.9766C31.7461 41.7578 31.8789 42.6133 31.8789 43.543V43.7891C31.8789 44.7109 31.7461 45.5664 31.4805 46.3555C31.2148 47.1367 30.8281 47.8203 30.3203 48.4062C29.8125 48.9844 29.1914 49.4336 28.457 49.7539C27.7227 50.0742 26.8828 50.2344 25.9375 50.2344C25 50.2344 24.1602 50.0742 23.418 49.7539C22.6758 49.4336 22.0508 48.9844 21.543 48.4062C21.0352 47.8203 20.6484 47.1367 20.3828 46.3555C20.1172 45.5664 19.9844 44.7109 19.9844 43.7891ZM23.0781 43.543V43.7891C23.0781 44.3438 23.1328 44.8633 23.2422 45.3477C23.3516 45.832 23.5195 46.2578 23.7461 46.625C23.9727 46.9922 24.2656 47.2812 24.625 47.4922C24.9922 47.6953 25.4297 47.7969 25.9375 47.7969C26.4375 47.7969 26.8672 47.6953 27.2266 47.4922C27.5859 47.2812 27.8789 46.9922 28.1055 46.625C28.3398 46.2578 28.5117 45.832 28.6211 45.3477C28.7305 44.8633 28.7852 44.3438 28.7852 43.7891V43.543C28.7852 42.9961 28.7305 42.4844 28.6211 42.0078C28.5117 41.5234 28.3398 41.0977 28.1055 40.7305C27.8789 40.3555 27.582 40.0625 27.2148 39.8516C26.8555 39.6328 26.4219 39.5234 25.9141 39.5234C25.4141 39.5234 24.9844 39.6328 24.625 39.8516C24.2656 40.0625 23.9727 40.3555 23.7461 40.7305C23.5195 41.0977 23.3516 41.5234 23.2422 42.0078C23.1328 42.4844 23.0781 42.9961 23.0781 43.543ZM35.5703 37.3203H38.6641L38.5469 41.6797C38.5078 43 38.3516 44.1406 38.0781 45.1016C37.8125 46.0547 37.457 46.8555 37.0117 47.5039C36.5742 48.1523 36.0742 48.6758 35.5117 49.0742C34.957 49.4727 34.375 49.7812 33.7656 50H33.0273L33.0156 47.5859L33.3789 47.5625C33.7461 47.1719 34.0547 46.7891 34.3047 46.4141C34.5625 46.0312 34.7695 45.6211 34.9258 45.1836C35.082 44.7461 35.1992 44.2461 35.2773 43.6836C35.3633 43.1133 35.418 42.4453 35.4414 41.6797L35.5703 37.3203ZM36.4023 37.3203H44.6172V50H41.5234V39.8633H36.4023V37.3203ZM32.3242 47.5625H46.3867V53.7969H43.293V50H35.4766V53.7969H32.3125L32.3242 47.5625ZM52 48.5938L55.3984 37.3203H58.7148L53.6289 51.9219C53.5117 52.2344 53.3594 52.5742 53.1719 52.9414C52.9922 53.3086 52.75 53.6562 52.4453 53.9844C52.1406 54.3203 51.7578 54.5938 51.2969 54.8047C50.8438 55.0156 50.293 55.1211 49.6445 55.1211C49.3633 55.1211 49.1133 55.1016 48.8945 55.0625C48.6758 55.0234 48.4453 54.9727 48.2031 54.9102V52.5898C48.2812 52.5977 48.3711 52.6016 48.4727 52.6016C48.582 52.6094 48.6758 52.6133 48.7539 52.6133C49.207 52.6133 49.582 52.5586 49.8789 52.4492C50.1758 52.3477 50.4141 52.1797 50.5938 51.9453C50.7812 51.7188 50.9375 51.4219 51.0625 51.0547L52 48.5938ZM50.3242 37.3203L53.1953 46.6602L53.6992 49.9297L51.5664 50.3164L46.9844 37.3203H50.3242ZM68.2422 37.3203V39.7695H62.0312V37.3203H68.2422ZM70.5742 37.3203V50H67.4805V37.3203H70.5742ZM61.2578 37.3203H64.3164L63.9766 43.6484C63.9219 44.5781 63.8242 45.3945 63.6836 46.0977C63.543 46.793 63.3555 47.3906 63.1211 47.8906C62.8867 48.3828 62.6016 48.7852 62.2656 49.0977C61.9297 49.4102 61.5391 49.6406 61.0938 49.7891C60.6562 49.9297 60.1641 50 59.6172 50H58.668L58.6328 47.5039L59.0781 47.4688C59.3516 47.4453 59.5859 47.3711 59.7812 47.2461C59.9844 47.1211 60.1562 46.9414 60.2969 46.707C60.4453 46.4727 60.5664 46.1719 60.6602 45.8047C60.7617 45.4297 60.8398 44.9922 60.8945 44.4922C60.957 43.9844 61 43.3984 61.0234 42.7344L61.2578 37.3203ZM76.1055 43.7422H79.2812L75.7188 50H72.543L76.1055 43.7422ZM78.2617 37.3203H83.7695V50H80.6758V39.7344H78.2617C77.7695 39.7344 77.3594 39.8242 77.0312 40.0039C76.7109 40.1836 76.4727 40.4141 76.3164 40.6953C76.1602 40.9688 76.082 41.25 76.082 41.5391C76.082 41.8203 76.1562 42.0938 76.3047 42.3594C76.4531 42.625 76.6797 42.8438 76.9844 43.0156C77.2969 43.1875 77.6875 43.2734 78.1562 43.2734H81.7773V45.4531H78.1562C77.3516 45.4531 76.6289 45.3555 75.9883 45.1602C75.3555 44.957 74.8125 44.6758 74.3594 44.3164C73.9141 43.957 73.5742 43.5352 73.3398 43.0508C73.1055 42.5586 72.9883 42.0234 72.9883 41.4453C72.9883 40.8516 73.1055 40.3047 73.3398 39.8047C73.582 39.3047 73.9297 38.8672 74.3828 38.4922C74.8438 38.1172 75.3984 37.8281 76.0469 37.625C76.7031 37.4219 77.4414 37.3203 78.2617 37.3203Z" fill="black"/>
<path d="M202.339 107.96H1.69922V308.6H202.339V107.96Z" fill="white"/>
<path d="M201.64 107.261H1V307.901H201.64V107.261Z" stroke="#E6007E" stroke-width="1.4"/>
<path d="M34.5287 107.41H1.13867V140.8H34.5287V107.41Z" stroke="#999999" stroke-width="0.52"/>
<path d="M134.718 107.41H101.328V140.8H134.718V107.41Z" stroke="#999999" stroke-width="0.52"/>
<path d="M67.9291 107.41H34.5391V140.8H67.9291V107.41Z" stroke="#999999" stroke-width="0.52"/>
<path d="M168.119 107.41H134.729V140.8H168.119V107.41Z" stroke="#999999" stroke-width="0.52"/>
<path d="M101.32 107.41H67.9297V140.8H101.32V107.41Z" stroke="#999999" stroke-width="0.52"/>
<path d="M201.509 107.41H168.119V140.8H201.509V107.41Z" stroke="#999999" stroke-width="0.52"/>
<path d="M34.5287 140.8H1.13867V174.19H34.5287V140.8Z" stroke="#999999" stroke-width="0.52"/>
<path d="M134.718 140.8H101.328V174.19H134.718V140.8Z" stroke="#999999" stroke-width="0.52"/>
<path d="M34.5287 174.19H1.13867V207.58H34.5287V174.19Z" stroke="#999999" stroke-width="0.52"/>
<path d="M134.718 174.19H101.328V207.58H134.718V174.19Z" stroke="#999999" stroke-width="0.52"/>
<path d="M67.9291 140.8H34.5391V174.19H67.9291V140.8Z" stroke="#999999" stroke-width="0.52"/>
<path d="M168.119 140.8H134.729V174.19H168.119V140.8Z" stroke="#999999" stroke-width="0.52"/>
<path d="M67.9291 174.19H34.5391V207.58H67.9291V174.19Z" stroke="#999999" stroke-width="0.52"/>
<path d="M168.119 174.19H134.729V207.58H168.119V174.19Z" stroke="#999999" stroke-width="0.52"/>
<path d="M101.32 140.8H67.9297V174.19H101.32V140.8Z" stroke="#999999" stroke-width="0.52"/>
<path d="M201.509 140.8H168.119V174.19H201.509V140.8Z" stroke="#999999" stroke-width="0.52"/>
<path d="M101.32 174.19H67.9297V207.58H101.32V174.19Z" stroke="#999999" stroke-width="0.52"/>
<path d="M201.509 174.19H168.119V207.58H201.509V174.19Z" stroke="#999999" stroke-width="0.52"/>
<path d="M34.5287 208.11H1.13867V241.5H34.5287V208.11Z" stroke="#999999" stroke-width="0.52"/>
<path d="M134.718 208.11H101.328V241.5H134.718V208.11Z" stroke="#999999" stroke-width="0.52"/>
<path d="M67.9291 208.11H34.5391V241.5H67.9291V208.11Z" stroke="#999999" stroke-width="0.52"/>
<path d="M168.119 208.11H134.729V241.5H168.119V208.11Z" stroke="#999999" stroke-width="0.52"/>
<path d="M101.32 208.11H67.9297V241.5H101.32V208.11Z" stroke="#999999" stroke-width="0.52"/>
<path d="M201.509 208.11H168.119V241.5H201.509V208.11Z" stroke="#999999" stroke-width="0.52"/>
<path d="M34.5287 241.511H1.13867V274.901H34.5287V241.511Z" stroke="#999999" stroke-width="0.52"/>
<path d="M134.718 241.511H101.328V274.901H134.718V241.511Z" stroke="#999999" stroke-width="0.52"/>
<path d="M34.5287 274.9H1.13867V308.29H34.5287V274.9Z" stroke="#999999" stroke-width="0.52"/>
<path d="M134.718 274.9H101.328V308.29H134.718V274.9Z" stroke="#999999" stroke-width="0.52"/>
<path d="M67.9291 241.511H34.5391V274.901H67.9291V241.511Z" stroke="#999999" stroke-width="0.52"/>
<path d="M168.119 241.511H134.729V274.901H168.119V241.511Z" stroke="#999999" stroke-width="0.52"/>
<path d="M67.9291 274.9H34.5391V308.29H67.9291V274.9Z" stroke="#999999" stroke-width="0.52"/>
<path d="M168.119 274.9H134.729V308.29H168.119V274.9Z" stroke="#999999" stroke-width="0.52"/>
<path d="M101.32 241.511H67.9297V274.901H101.32V241.511Z" stroke="#999999" stroke-width="0.52"/>
<path d="M201.509 241.511H168.119V274.901H201.509V241.511Z" stroke="#999999" stroke-width="0.52"/>
<path d="M101.32 274.9H67.9297V308.29H101.32V274.9Z" stroke="#999999" stroke-width="0.52"/>
<path d="M201.509 274.9H168.119V308.29H201.509V274.9Z" stroke="#999999" stroke-width="0.52"/>
<path d="M1.57812 207.8H202.338" stroke="#999999" stroke-width="1.4"/>
<path d="M101.68 107V308.6" stroke="#999999" stroke-width="1.4"/>
</svg>
