<svg width="165" height="166" viewBox="0 0 165 166" fill="none" xmlns="http://www.w3.org/2000/svg">
<path d="M164.889 1.78125H1.56641V165.104H164.889V1.78125Z" fill="white"/>
<path d="M164.323 1.21216H1V164.535H164.323V1.21216Z" stroke="#E6007E" stroke-width="1.13961"/>
<path d="M28.2931 1.33398H1.11328V28.5138H28.2931V1.33398Z" stroke="#999999" stroke-width="0.423285"/>
<path d="M109.848 1.33398H82.668V28.5138H109.848V1.33398Z" stroke="#999999" stroke-width="0.423285"/>
<path d="M55.4806 1.33398H28.3008V28.5138H55.4806V1.33398Z" stroke="#999999" stroke-width="0.423285"/>
<path d="M137.031 1.33398H109.852V28.5138H137.031V1.33398Z" stroke="#999999" stroke-width="0.423285"/>
<path d="M82.6603 1.33398H55.4805V28.5138H82.6603V1.33398Z" stroke="#999999" stroke-width="0.423285"/>
<path d="M164.211 1.33398H137.031V28.5138H164.211V1.33398Z" stroke="#999999" stroke-width="0.423285"/>
<path d="M28.2931 28.5132H1.11328V55.6929H28.2931V28.5132Z" stroke="#999999" stroke-width="0.423285"/>
<path d="M109.848 28.5132H82.668V55.6929H109.848V28.5132Z" stroke="#999999" stroke-width="0.423285"/>
<path d="M28.2931 55.6936H1.11328V82.8734H28.2931V55.6936Z" stroke="#999999" stroke-width="0.423285"/>
<path d="M109.848 55.6936H82.668V82.8734H109.848V55.6936Z" stroke="#999999" stroke-width="0.423285"/>
<path d="M55.4806 28.5132H28.3008V55.6929H55.4806V28.5132Z" stroke="#999999" stroke-width="0.423285"/>
<path d="M137.031 28.5132H109.852V55.6929H137.031V28.5132Z" stroke="#999999" stroke-width="0.423285"/>
<path d="M55.4806 55.6936H28.3008V82.8734H55.4806V55.6936Z" stroke="#999999" stroke-width="0.423285"/>
<path d="M137.031 55.6936H109.852V82.8734H137.031V55.6936Z" stroke="#999999" stroke-width="0.423285"/>
<path d="M82.6603 28.5132H55.4805V55.6929H82.6603V28.5132Z" stroke="#999999" stroke-width="0.423285"/>
<path d="M164.211 28.5132H137.031V55.6929H164.211V28.5132Z" stroke="#999999" stroke-width="0.423285"/>
<path d="M82.6603 55.6936H55.4805V82.8734H82.6603V55.6936Z" stroke="#999999" stroke-width="0.423285"/>
<path d="M164.211 55.6936H137.031V82.8734H164.211V55.6936Z" stroke="#999999" stroke-width="0.423285"/>
<path d="M28.2931 83.3047H1.11328V110.484H28.2931V83.3047Z" stroke="#999999" stroke-width="0.423285"/>
<path d="M109.848 83.3047H82.668V110.484H109.848V83.3047Z" stroke="#999999" stroke-width="0.423285"/>
<path d="M55.4806 83.3047H28.3008V110.484H55.4806V83.3047Z" stroke="#999999" stroke-width="0.423285"/>
<path d="M137.031 83.3047H109.852V110.484H137.031V83.3047Z" stroke="#999999" stroke-width="0.423285"/>
<path d="M82.6603 83.3047H55.4805V110.484H82.6603V83.3047Z" stroke="#999999" stroke-width="0.423285"/>
<path d="M164.211 83.3047H137.031V110.484H164.211V83.3047Z" stroke="#999999" stroke-width="0.423285"/>
<path d="M28.2931 110.493H1.11328V137.673H28.2931V110.493Z" stroke="#999999" stroke-width="0.423285"/>
<path d="M109.848 110.493H82.668V137.673H109.848V110.493Z" stroke="#999999" stroke-width="0.423285"/>
<path d="M28.2931 137.673H1.11328V164.852H28.2931V137.673Z" stroke="#999999" stroke-width="0.423285"/>
<path d="M109.848 137.673H82.668V164.852H109.848V137.673Z" stroke="#999999" stroke-width="0.423285"/>
<path d="M55.4806 110.493H28.3008V137.673H55.4806V110.493Z" stroke="#999999" stroke-width="0.423285"/>
<path d="M137.031 110.493H109.852V137.673H137.031V110.493Z" stroke="#999999" stroke-width="0.423285"/>
<path d="M55.4806 137.673H28.3008V164.852H55.4806V137.673Z" stroke="#999999" stroke-width="0.423285"/>
<path d="M137.031 137.673H109.852V164.852H137.031V137.673Z" stroke="#999999" stroke-width="0.423285"/>
<path d="M82.6603 110.493H55.4805V137.673H82.6603V110.493Z" stroke="#999999" stroke-width="0.423285"/>
<path d="M164.211 110.493H137.031V137.673H164.211V110.493Z" stroke="#999999" stroke-width="0.423285"/>
<path d="M82.6603 137.673H55.4805V164.852H82.6603V137.673Z" stroke="#999999" stroke-width="0.423285"/>
<path d="M164.211 137.673H137.031V164.852H164.211V137.673Z" stroke="#999999" stroke-width="0.423285"/>
<path d="M1.46875 83.052H164.889" stroke="#999999" stroke-width="1.13961"/>
<path d="M82.9531 1V165.104" stroke="#999999" stroke-width="1.13961"/>
</svg>
