<svg width="1651" height="662" viewBox="0 0 1651 662" fill="none" xmlns="http://www.w3.org/2000/svg">
<g filter="url(#filter0_d_432_2111)">
<path d="M620.974 37.46H15V115.149H620.974V37.46Z" fill="white"/>
</g>
<g filter="url(#filter1_d_432_2111)">
<path d="M620.974 148.903H15V226.592H620.974V148.903Z" fill="white"/>
</g>
<g filter="url(#filter2_d_432_2111)">
<path d="M620.956 174.8H594.61V148.903H620.956V174.8ZM620.956 200.696H594.61V174.8H620.956V200.696ZM620.956 226.592H594.61V200.696H620.956V226.592ZM594.61 174.8H568.265V148.903H594.61V174.8ZM594.61 200.696H568.265V174.8H594.61V200.696ZM594.61 226.592H568.265V200.696H594.61V226.592ZM568.265 174.8H541.919V148.903H568.265V174.8ZM568.265 200.696H541.919V174.8H568.265V200.696ZM568.265 226.592H541.919V200.696H568.265V226.592ZM541.919 174.8H515.573V148.903H541.919V174.8ZM541.919 200.696H515.573V174.8H541.919V200.696ZM541.919 226.592H515.573V200.696H541.919V226.592ZM515.573 174.8H489.227V148.903H515.573V174.8ZM515.573 200.696H489.227V174.8H515.573V200.696ZM515.573 226.592H489.227V200.696H515.573V226.592ZM489.227 174.8H462.881V148.903H489.227V174.8ZM489.227 200.696H462.881V174.8H489.227V200.696ZM489.227 226.592H462.881V200.696H489.227V226.592ZM462.881 174.8H436.535V148.903H462.881V174.8ZM462.881 200.696H436.535V174.8H462.881V200.696ZM462.881 226.592H436.535V200.696H462.881V226.592ZM436.535 174.8H410.189V148.903H436.535V174.8ZM436.535 200.696H410.189V174.8H436.535V200.696ZM436.535 226.592H410.189V200.696H436.535V226.592ZM410.189 174.8H383.843V148.903H410.189V174.8ZM410.189 200.696H383.843V174.8H410.189V200.696ZM410.189 226.592H383.843V200.696H410.189V226.592ZM383.843 174.8H357.497V148.903H383.843V174.8ZM383.843 200.696H357.497V174.8H383.843V200.696ZM383.843 226.592H357.497V200.696H383.843V226.592ZM357.497 174.8H331.151V148.903H357.497V174.8ZM357.497 200.696H331.151V174.8H357.497V200.696ZM357.497 226.592H331.151V200.696H357.497V226.592ZM331.151 174.8H304.805V148.903H331.151V174.8ZM331.151 200.696H304.805V174.8H331.151V200.696ZM331.151 226.592H304.805V200.696H331.151V226.592ZM304.805 174.8H278.459V148.903H304.805V174.8ZM304.805 200.696H278.459V174.8H304.805V200.696ZM304.805 226.592H278.459V200.696H304.805V226.592ZM278.459 174.8H252.113V148.903H278.459V174.8ZM278.459 200.696H252.113V174.8H278.459V200.696ZM278.459 226.592H252.113V200.696H278.459V226.592ZM252.113 174.8H225.767V148.903H252.113V174.8ZM252.113 200.696H225.767V174.8H252.113V200.696ZM252.113 226.592H225.767V200.696H252.113V226.592ZM225.767 174.8H199.422V148.903H225.767V174.8ZM225.767 200.696H199.422V174.8H225.767V200.696ZM225.767 226.592H199.422V200.696H225.767V226.592ZM199.422 174.8H173.076V148.903H199.422V174.8ZM199.422 200.696H173.076V174.8H199.422V200.696ZM199.422 226.592H173.076V200.696H199.422V226.592ZM173.076 174.8H146.73V148.903H173.076V174.8ZM173.076 200.696H146.73V174.8H173.076V200.696ZM173.076 226.592H146.73V200.696H173.076V226.592ZM146.73 174.8H120.384V148.903H146.73V174.8ZM146.73 200.696H120.384V174.8H146.73V200.696ZM146.73 226.592H120.384V200.696H146.73V226.592ZM120.384 174.8H94.0378V148.903H120.384V174.8ZM120.384 200.696H94.0378V174.8H120.384V200.696ZM120.384 226.592H94.0378V200.696H120.384V226.592ZM94.0378 174.8H67.6919V148.903H94.0378V174.8ZM94.0378 200.696H67.6919V174.8H94.0378V200.696ZM94.0378 226.592H67.6919V200.696H94.0378V226.592ZM67.6919 174.8H41.3459V148.903H67.6919V174.8ZM67.6919 200.696H41.3459V174.8H67.6919V200.696ZM67.6919 226.592H41.3459V200.696H67.6919V226.592ZM41.3459 174.8H15V148.903H41.3459V174.8ZM41.3459 200.696H15V174.8H41.3459V200.696ZM41.3459 226.592H15V200.696H41.3459V226.592Z" stroke="#DADADA" stroke-width="0.35068" stroke-miterlimit="10" shape-rendering="crispEdges"/>
</g>
<path d="M610.616 63.3563H584.72V37.46H610.616V63.3563ZM610.616 89.2526H584.72V63.3563H610.616V89.2526ZM610.616 115.149H584.72V89.2526H610.616V115.149ZM584.72 63.3563H558.823V37.46H584.72V63.3563ZM584.72 89.2526H558.823V63.3563H584.72V89.2526ZM584.72 115.149H558.823V89.2526H584.72V115.149ZM558.823 63.3563H532.927V37.46H558.823V63.3563ZM558.823 89.2526H532.927V63.3563H558.823V89.2526ZM558.823 115.149H532.927V89.2526H558.823V115.149ZM532.927 63.3563H507.03V37.46H532.927V63.3563ZM532.927 89.2526H507.03V63.3563H532.927V89.2526ZM532.927 115.149H507.03V89.2526H532.927V115.149ZM507.03 63.3563H481.134V37.46H507.03V63.3563ZM507.03 89.2526H481.134V63.3563H507.03V89.2526ZM507.03 115.149H481.134V89.2526H507.03V115.149ZM481.134 63.3563H455.238V37.46H481.134V63.3563ZM481.134 89.2526H455.238V63.3563H481.134V89.2526ZM481.134 115.149H455.238V89.2526H481.134V115.149ZM455.238 63.3563H429.341V37.46H455.238V63.3563ZM455.238 89.2526H429.341V63.3563H455.238V89.2526ZM455.238 115.149H429.341V89.2526H455.238V115.149ZM429.341 63.3563H403.445V37.46H429.341V63.3563ZM429.341 89.2526H403.445V63.3563H429.341V89.2526ZM429.341 115.149H403.445V89.2526H429.341V115.149ZM403.445 63.3563H377.549V37.46H403.445V63.3563ZM403.445 89.2526H377.549V63.3563H403.445V89.2526ZM403.445 115.149H377.549V89.2526H403.445V115.149ZM377.549 63.3563H351.652V37.46H377.549V63.3563ZM377.549 89.2526H351.652V63.3563H377.549V89.2526ZM377.549 115.149H351.652V89.2526H377.549V115.149ZM351.652 63.3563H325.756V37.46H351.652V63.3563ZM351.652 89.2526H325.756V63.3563H351.652V89.2526ZM351.652 115.149H325.756V89.2526H351.652V115.149ZM325.756 63.3563H299.86V37.46H325.756V63.3563ZM325.756 89.2526H299.86V63.3563H325.756V89.2526ZM325.756 115.149H299.86V89.2526H325.756V115.149ZM299.86 63.3563H273.963V37.46H299.86V63.3563ZM299.86 89.2526H273.963V63.3563H299.86V89.2526ZM299.86 115.149H273.963V89.2526H299.86V115.149ZM273.963 63.3563H248.067V37.46H273.963V63.3563ZM273.963 89.2526H248.067V63.3563H273.963V89.2526ZM273.963 115.149H248.067V89.2526H273.963V115.149ZM248.067 63.3563H222.171V37.46H248.067V63.3563ZM248.067 89.2526H222.171V63.3563H248.067V89.2526ZM248.067 115.149H222.171V89.2526H248.067V115.149ZM222.171 63.3563H196.274V37.46H222.171V63.3563ZM222.171 89.2526H196.274V63.3563H222.171V89.2526ZM222.171 115.149H196.274V89.2526H222.171V115.149ZM196.274 63.3563H170.378V37.46H196.274V63.3563ZM196.274 89.2526H170.378V63.3563H196.274V89.2526ZM196.274 115.149H170.378V89.2526H196.274V115.149ZM170.378 63.3563H144.482V37.46H170.378V63.3563ZM170.378 89.2526H144.482V63.3563H170.378V89.2526ZM170.378 115.149H144.482V89.2526H170.378V115.149ZM144.482 63.3563H118.585V37.46H144.482V63.3563ZM144.482 89.2526H118.585V63.3563H144.482V89.2526ZM144.482 115.149H118.585V89.2526H144.482V115.149ZM118.585 63.3563H92.689V37.46H118.585V63.3563ZM118.585 89.2526H92.689V63.3563H118.585V89.2526ZM118.585 115.149H92.689V89.2526H118.585V115.149ZM92.689 63.3563H66.7927V37.46H92.689V63.3563ZM92.689 89.2526H66.7927V63.3563H92.689V89.2526ZM92.689 115.149H66.7927V89.2526H92.689V115.149ZM66.7927 63.3563H40.8963V37.46H66.7927V63.3563ZM66.7927 89.2526H40.8963V63.3563H66.7927V89.2526ZM66.7927 115.149H40.8963V89.2526H66.7927V115.149ZM40.8963 63.3563H15V37.46H40.8963V63.3563ZM40.8963 89.2526H15V63.3563H40.8963V89.2526ZM40.8963 115.149H15V89.2526H40.8963V115.149Z" stroke="#DADADA" stroke-width="0.341688" stroke-miterlimit="10"/>
<path d="M593.873 76.3037H617.854" stroke="#E5007D" stroke-width="0.899179" stroke-miterlimit="10"/>
<path d="M617.072 78.9933L621.73 76.3047L617.072 73.6162V78.9933Z" fill="#E5007D"/>
<g filter="url(#filter3_d_432_2111)">
<path d="M610.616 115.149H15V37.46H610.616V115.149ZM620.974 226.593H15V148.904H620.974V226.593Z" stroke="#E5007D" stroke-width="1.07901" stroke-miterlimit="10" shape-rendering="crispEdges"/>
</g>
<path d="M25.7891 13.6172V14.6904H18.2559V13.6172H25.7891ZM18.4678 13.6172V17.1377H17.1621L17.1553 13.6172H18.4678ZM26.9375 13.6172L26.9238 17.1309H25.6182V13.6172H26.9375ZM24.4971 4.7373V5.81738H20.1357V4.7373H24.4971ZM25.6318 4.7373V14.6904H24.3193V4.7373H25.6318ZM19.6846 4.7373H21.0039L20.7988 8.74316C20.7715 9.34473 20.7145 9.90072 20.6279 10.4111C20.5413 10.917 20.4342 11.3796 20.3066 11.7988C20.179 12.2181 20.0332 12.5941 19.8691 12.9268C19.7051 13.2549 19.5296 13.5397 19.3428 13.7812C19.1559 14.0182 18.96 14.2142 18.7549 14.3691C18.5544 14.5195 18.3516 14.6266 18.1465 14.6904H17.5449V13.6172H17.9688C18.0872 13.4896 18.2217 13.305 18.3721 13.0635C18.527 12.8219 18.6797 12.5098 18.8301 12.127C18.985 11.7396 19.1195 11.2679 19.2334 10.7119C19.3519 10.1559 19.4316 9.49967 19.4727 8.74316L19.6846 4.7373ZM34.9971 4.7373V5.81738H30.4443V4.7373H34.9971ZM36.1318 4.7373V14.6904H34.8125V4.7373H36.1318ZM29.9932 4.7373H31.3057L31.0801 9.61133C31.0482 10.3132 30.9935 10.9398 30.916 11.4912C30.8431 12.0381 30.7383 12.5143 30.6016 12.9199C30.4648 13.321 30.2871 13.6536 30.0684 13.918C29.8496 14.1777 29.5807 14.3714 29.2617 14.499C28.9473 14.6266 28.569 14.6904 28.127 14.6904H27.7715V13.6172L28.0449 13.5967C28.3001 13.5785 28.5189 13.5215 28.7012 13.4258C28.888 13.3255 29.0452 13.1751 29.1729 12.9746C29.305 12.7741 29.4121 12.5143 29.4941 12.1953C29.5762 11.8763 29.64 11.4867 29.6855 11.0264C29.7357 10.5615 29.7744 10.0192 29.8018 9.39941L29.9932 4.7373ZM39.8848 12.4072L44.7861 4.7373H46.1055V14.6904H44.7861V7.01367L39.8848 14.6904H38.5723V4.7373H39.8848V12.4072ZM55.0059 9.0166V10.0898H49.6191V9.0166H55.0059ZM49.8242 4.7373V14.6904H48.5049V4.7373H49.8242ZM56.1543 4.7373V14.6904H54.8418V4.7373H56.1543ZM65 9.0166V10.0898H59.6133V9.0166H65ZM59.8184 4.7373V14.6904H58.499V4.7373H59.8184ZM66.1484 4.7373V14.6904H64.8359V4.7373H66.1484ZM69.5596 8.79102H72.2734C73.0026 8.79102 73.6178 8.91406 74.1191 9.16016C74.6204 9.40169 75.001 9.74121 75.2607 10.1787C75.5205 10.6162 75.6504 11.1289 75.6504 11.7168C75.6504 12.1543 75.5775 12.5553 75.4316 12.9199C75.2858 13.2799 75.0693 13.5944 74.7822 13.8633C74.4951 14.1276 74.1419 14.3327 73.7227 14.4785C73.3034 14.6198 72.8203 14.6904 72.2734 14.6904H68.5547V4.7373H69.874V13.6172H72.2734C72.7611 13.6172 73.1553 13.5283 73.4561 13.3506C73.7614 13.1683 73.9847 12.9313 74.126 12.6396C74.2673 12.348 74.3379 12.0358 74.3379 11.7031C74.3379 11.3704 74.2673 11.0651 74.126 10.7871C73.9847 10.5091 73.7614 10.2881 73.4561 10.124C73.1553 9.9554 72.7611 9.87109 72.2734 9.87109H69.5596V8.79102ZM78.1729 4.7373V14.6904H76.8535V4.7373H78.1729ZM81.9805 12.4072L86.8818 4.7373H88.2012V14.6904H86.8818V7.01367L81.9805 14.6904H80.668V4.7373H81.9805V12.4072ZM85.4805 2.26953H86.5059C86.5059 2.625 86.4238 2.94173 86.2598 3.21973C86.0957 3.49316 85.861 3.70736 85.5557 3.8623C85.2503 4.01725 84.888 4.09473 84.4688 4.09473C83.8353 4.09473 83.334 3.92611 82.9648 3.58887C82.6003 3.24707 82.418 2.80729 82.418 2.26953H83.4434C83.4434 2.53841 83.5208 2.77539 83.6758 2.98047C83.8307 3.18555 84.0951 3.28809 84.4688 3.28809C84.8333 3.28809 85.0931 3.18555 85.248 2.98047C85.403 2.77539 85.4805 2.53841 85.4805 2.26953ZM100.144 4.7373V5.81738H95.3447V14.6904H94.0322V4.7373H100.144ZM95.0371 8.79102H97.751C98.4801 8.79102 99.0954 8.91406 99.5967 9.16016C100.098 9.40169 100.479 9.74121 100.738 10.1787C100.998 10.6162 101.128 11.1289 101.128 11.7168C101.128 12.1543 101.055 12.5553 100.909 12.9199C100.763 13.2799 100.547 13.5944 100.26 13.8633C99.9727 14.1276 99.6195 14.3327 99.2002 14.4785C98.7809 14.6198 98.2979 14.6904 97.751 14.6904H94.0322V4.7373H95.3516V13.6172H97.751C98.2386 13.6172 98.6328 13.5283 98.9336 13.3506C99.2389 13.1683 99.4622 12.9313 99.6035 12.6396C99.7448 12.348 99.8154 12.0358 99.8154 11.7031C99.8154 11.3704 99.7448 11.0651 99.6035 10.7871C99.4622 10.5091 99.2389 10.2881 98.9336 10.124C98.6328 9.9554 98.2386 9.87109 97.751 9.87109H95.0371V8.79102ZM106.59 5.61914L103.295 14.6904H101.948L105.742 4.7373H106.61L106.59 5.61914ZM109.352 14.6904L106.05 5.61914L106.029 4.7373H106.897L110.705 14.6904H109.352ZM109.181 11.0059V12.0859H103.589V11.0059H109.181ZM118.539 9.0166V10.0898H113.152V9.0166H118.539ZM113.357 4.7373V14.6904H112.038V4.7373H113.357ZM119.688 4.7373V14.6904H118.375V4.7373H119.688ZM128.533 9.0166V10.0898H123.146V9.0166H128.533ZM123.352 4.7373V14.6904H122.032V4.7373H123.352ZM129.682 4.7373V14.6904H128.369V4.7373H129.682ZM138.35 13.6172V14.6904H133.079V13.6172H138.35ZM133.346 4.7373V14.6904H132.026V4.7373H133.346ZM137.652 9.0166V10.0898H133.079V9.0166H137.652ZM138.281 4.7373V5.81738H133.079V4.7373H138.281ZM143.654 10.7871H140.995V9.71387H143.654C144.169 9.71387 144.586 9.63184 144.905 9.46777C145.224 9.30371 145.457 9.07585 145.603 8.78418C145.753 8.49251 145.828 8.15983 145.828 7.78613C145.828 7.44434 145.753 7.12305 145.603 6.82227C145.457 6.52148 145.224 6.27995 144.905 6.09766C144.586 5.91081 144.169 5.81738 143.654 5.81738H141.303V14.6904H139.983V4.7373H143.654C144.406 4.7373 145.042 4.86719 145.562 5.12695C146.081 5.38672 146.475 5.74674 146.744 6.20703C147.013 6.66276 147.147 7.18457 147.147 7.77246C147.147 8.41048 147.013 8.95508 146.744 9.40625C146.475 9.85742 146.081 10.2015 145.562 10.4385C145.042 10.6709 144.406 10.7871 143.654 10.7871ZM158.687 11.3408V12.3799H151.495V11.6348L155.952 4.7373H156.984L155.877 6.7334L152.931 11.3408H158.687ZM157.299 4.7373V14.6904H156.034V4.7373H157.299ZM164.688 4.72363H164.798V5.79688H164.688C164.019 5.79688 163.458 5.90625 163.007 6.125C162.556 6.33919 162.198 6.62858 161.934 6.99316C161.669 7.35319 161.478 7.75879 161.359 8.20996C161.245 8.66113 161.188 9.11914 161.188 9.58398V11.0469C161.188 11.4889 161.241 11.8809 161.346 12.2227C161.451 12.5599 161.594 12.8447 161.776 13.0771C161.959 13.3096 162.164 13.485 162.392 13.6035C162.624 13.722 162.866 13.7812 163.116 13.7812C163.408 13.7812 163.668 13.7266 163.896 13.6172C164.123 13.5033 164.315 13.346 164.47 13.1455C164.629 12.9404 164.75 12.6989 164.832 12.4209C164.914 12.1429 164.955 11.8376 164.955 11.5049C164.955 11.2087 164.919 10.9238 164.846 10.6504C164.773 10.3724 164.661 10.1263 164.511 9.91211C164.36 9.69336 164.171 9.52246 163.943 9.39941C163.72 9.27181 163.453 9.20801 163.144 9.20801C162.793 9.20801 162.465 9.2946 162.159 9.46777C161.858 9.63639 161.61 9.8597 161.414 10.1377C161.223 10.4111 161.113 10.7096 161.086 11.0332L160.416 11.0264C160.48 10.516 160.598 10.0807 160.771 9.7207C160.949 9.35612 161.168 9.0599 161.428 8.83203C161.692 8.59961 161.986 8.43099 162.31 8.32617C162.638 8.2168 162.984 8.16211 163.349 8.16211C163.845 8.16211 164.274 8.25553 164.634 8.44238C164.994 8.62923 165.29 8.87988 165.522 9.19434C165.755 9.50423 165.926 9.85514 166.035 10.2471C166.149 10.6344 166.206 11.0332 166.206 11.4434C166.206 11.9128 166.14 12.3525 166.008 12.7627C165.876 13.1729 165.677 13.5329 165.413 13.8428C165.153 14.1527 164.832 14.3942 164.449 14.5674C164.066 14.7406 163.622 14.8271 163.116 14.8271C162.578 14.8271 162.109 14.7178 161.708 14.499C161.307 14.2757 160.974 13.9795 160.71 13.6104C160.446 13.2412 160.247 12.8311 160.115 12.3799C159.983 11.9287 159.917 11.4707 159.917 11.0059V10.4111C159.917 9.70931 159.988 9.02116 160.129 8.34668C160.27 7.6722 160.514 7.06152 160.86 6.51465C161.211 5.96777 161.697 5.53255 162.316 5.20898C162.936 4.88542 163.727 4.72363 164.688 4.72363ZM173.985 11.9971C173.985 12.6032 173.844 13.1182 173.562 13.542C173.284 13.9613 172.905 14.2803 172.427 14.499C171.953 14.7178 171.417 14.8271 170.82 14.8271C170.223 14.8271 169.686 14.7178 169.207 14.499C168.729 14.2803 168.35 13.9613 168.072 13.542C167.794 13.1182 167.655 12.6032 167.655 11.9971C167.655 11.6006 167.73 11.2383 167.881 10.9102C168.036 10.5775 168.252 10.2881 168.53 10.042C168.813 9.7959 169.146 9.60677 169.528 9.47461C169.916 9.33789 170.342 9.26953 170.807 9.26953C171.417 9.26953 171.962 9.38802 172.44 9.625C172.919 9.85742 173.295 10.1787 173.568 10.5889C173.846 10.999 173.985 11.4684 173.985 11.9971ZM172.714 11.9697C172.714 11.6006 172.634 11.2747 172.475 10.9922C172.315 10.7051 172.092 10.4818 171.805 10.3223C171.518 10.1628 171.185 10.083 170.807 10.083C170.419 10.083 170.084 10.1628 169.802 10.3223C169.524 10.4818 169.307 10.7051 169.152 10.9922C168.997 11.2747 168.92 11.6006 168.92 11.9697C168.92 12.3525 168.995 12.6807 169.146 12.9541C169.3 13.223 169.519 13.4303 169.802 13.5762C170.089 13.7174 170.428 13.7881 170.82 13.7881C171.212 13.7881 171.549 13.7174 171.832 13.5762C172.115 13.4303 172.331 13.223 172.481 12.9541C172.636 12.6807 172.714 12.3525 172.714 11.9697ZM173.753 7.32812C173.753 7.8112 173.625 8.24642 173.37 8.63379C173.115 9.02116 172.766 9.3265 172.324 9.5498C171.882 9.77311 171.381 9.88477 170.82 9.88477C170.251 9.88477 169.743 9.77311 169.296 9.5498C168.854 9.3265 168.507 9.02116 168.257 8.63379C168.006 8.24642 167.881 7.8112 167.881 7.32812C167.881 6.74935 168.006 6.25716 168.257 5.85156C168.512 5.44596 168.861 5.13607 169.303 4.92188C169.745 4.70768 170.248 4.60059 170.813 4.60059C171.383 4.60059 171.889 4.70768 172.331 4.92188C172.773 5.13607 173.119 5.44596 173.37 5.85156C173.625 6.25716 173.753 6.74935 173.753 7.32812ZM172.488 7.34863C172.488 7.01595 172.418 6.72201 172.276 6.4668C172.135 6.21159 171.939 6.01107 171.688 5.86523C171.438 5.71484 171.146 5.63965 170.813 5.63965C170.481 5.63965 170.189 5.71029 169.938 5.85156C169.692 5.98828 169.499 6.18424 169.357 6.43945C169.221 6.69466 169.152 6.99772 169.152 7.34863C169.152 7.69043 169.221 7.98893 169.357 8.24414C169.499 8.49935 169.695 8.69759 169.945 8.83887C170.196 8.98014 170.488 9.05078 170.82 9.05078C171.153 9.05078 171.442 8.98014 171.688 8.83887C171.939 8.69759 172.135 8.49935 172.276 8.24414C172.418 7.98893 172.488 7.69043 172.488 7.34863ZM176.768 4.7373L179.16 8.55176L181.553 4.7373H183.091L179.946 9.66602L183.166 14.6904H181.614L179.16 10.8008L176.706 14.6904H175.154L178.374 9.66602L175.229 4.7373H176.768ZM189.216 4.72363H189.325V5.79688H189.216C188.546 5.79688 187.985 5.90625 187.534 6.125C187.083 6.33919 186.725 6.62858 186.461 6.99316C186.197 7.35319 186.005 7.75879 185.887 8.20996C185.773 8.66113 185.716 9.11914 185.716 9.58398V11.0469C185.716 11.4889 185.768 11.8809 185.873 12.2227C185.978 12.5599 186.121 12.8447 186.304 13.0771C186.486 13.3096 186.691 13.485 186.919 13.6035C187.151 13.722 187.393 13.7812 187.644 13.7812C187.935 13.7812 188.195 13.7266 188.423 13.6172C188.651 13.5033 188.842 13.346 188.997 13.1455C189.157 12.9404 189.277 12.6989 189.359 12.4209C189.441 12.1429 189.482 11.8376 189.482 11.5049C189.482 11.2087 189.446 10.9238 189.373 10.6504C189.3 10.3724 189.188 10.1263 189.038 9.91211C188.888 9.69336 188.699 9.52246 188.471 9.39941C188.247 9.27181 187.981 9.20801 187.671 9.20801C187.32 9.20801 186.992 9.2946 186.687 9.46777C186.386 9.63639 186.137 9.8597 185.941 10.1377C185.75 10.4111 185.641 10.7096 185.613 11.0332L184.943 11.0264C185.007 10.516 185.126 10.0807 185.299 9.7207C185.477 9.35612 185.695 9.0599 185.955 8.83203C186.219 8.59961 186.513 8.43099 186.837 8.32617C187.165 8.2168 187.511 8.16211 187.876 8.16211C188.373 8.16211 188.801 8.25553 189.161 8.44238C189.521 8.62923 189.817 8.87988 190.05 9.19434C190.282 9.50423 190.453 9.85514 190.562 10.2471C190.676 10.6344 190.733 11.0332 190.733 11.4434C190.733 11.9128 190.667 12.3525 190.535 12.7627C190.403 13.1729 190.205 13.5329 189.94 13.8428C189.681 14.1527 189.359 14.3942 188.977 14.5674C188.594 14.7406 188.149 14.8271 187.644 14.8271C187.106 14.8271 186.636 14.7178 186.235 14.499C185.834 14.2757 185.502 13.9795 185.237 13.6104C184.973 13.2412 184.775 12.8311 184.643 12.3799C184.51 11.9287 184.444 11.4707 184.444 11.0059V10.4111C184.444 9.70931 184.515 9.02116 184.656 8.34668C184.798 7.6722 185.041 7.06152 185.388 6.51465C185.739 5.96777 186.224 5.53255 186.844 5.20898C187.464 4.88542 188.254 4.72363 189.216 4.72363ZM198.485 8.9209V10.4385C198.485 11.2542 198.412 11.9424 198.267 12.5029C198.121 13.0635 197.911 13.5146 197.638 13.8564C197.364 14.1982 197.034 14.4466 196.646 14.6016C196.264 14.752 195.831 14.8271 195.348 14.8271C194.965 14.8271 194.612 14.7793 194.288 14.6836C193.965 14.5879 193.673 14.4352 193.413 14.2256C193.158 14.0114 192.939 13.7334 192.757 13.3916C192.575 13.0498 192.436 12.6351 192.34 12.1475C192.244 11.6598 192.196 11.0902 192.196 10.4385V8.9209C192.196 8.10514 192.269 7.42155 192.415 6.87012C192.565 6.31868 192.777 5.87663 193.051 5.54395C193.324 5.20671 193.652 4.96517 194.035 4.81934C194.423 4.6735 194.855 4.60059 195.334 4.60059C195.721 4.60059 196.077 4.64844 196.4 4.74414C196.729 4.83529 197.02 4.9834 197.275 5.18848C197.531 5.389 197.747 5.65788 197.925 5.99512C198.107 6.3278 198.246 6.73568 198.342 7.21875C198.438 7.70182 198.485 8.26921 198.485 8.9209ZM197.214 10.6436V8.70898C197.214 8.26237 197.187 7.87044 197.132 7.5332C197.082 7.19141 197.007 6.89974 196.906 6.6582C196.806 6.41667 196.678 6.2207 196.523 6.07031C196.373 5.91992 196.198 5.81055 195.997 5.74219C195.801 5.66927 195.58 5.63281 195.334 5.63281C195.033 5.63281 194.767 5.68978 194.534 5.80371C194.302 5.91309 194.106 6.08854 193.946 6.33008C193.791 6.57161 193.673 6.88835 193.591 7.28027C193.509 7.6722 193.468 8.14844 193.468 8.70898V10.6436C193.468 11.0902 193.493 11.4844 193.543 11.8262C193.598 12.168 193.677 12.4642 193.782 12.7148C193.887 12.9609 194.015 13.1637 194.165 13.3232C194.315 13.4827 194.489 13.6012 194.685 13.6787C194.885 13.7516 195.106 13.7881 195.348 13.7881C195.658 13.7881 195.929 13.7288 196.161 13.6104C196.394 13.4919 196.587 13.3073 196.742 13.0566C196.902 12.8014 197.02 12.4756 197.098 12.0791C197.175 11.6781 197.214 11.1995 197.214 10.6436Z" fill="black"/>
<path d="M24.0322 323.693V324.773H19.2334V333.646H17.9209V323.693H24.0322ZM18.9258 327.747H21.6396C22.3688 327.747 22.984 327.87 23.4854 328.116C23.9867 328.358 24.3672 328.697 24.627 329.135C24.8867 329.572 25.0166 330.085 25.0166 330.673C25.0166 331.11 24.9437 331.511 24.7979 331.876C24.652 332.236 24.4355 332.55 24.1484 332.819C23.8613 333.084 23.5081 333.289 23.0889 333.435C22.6696 333.576 22.1865 333.646 21.6396 333.646H17.9209V323.693H19.2402V332.573H21.6396C22.1273 332.573 22.5215 332.484 22.8223 332.307C23.1276 332.124 23.3509 331.887 23.4922 331.596C23.6335 331.304 23.7041 330.992 23.7041 330.659C23.7041 330.326 23.6335 330.021 23.4922 329.743C23.3509 329.465 23.1276 329.244 22.8223 329.08C22.5215 328.911 22.1273 328.827 21.6396 328.827H18.9258V327.747ZM30.4785 324.575L27.1836 333.646H25.8369L29.6309 323.693H30.499L30.4785 324.575ZM33.2402 333.646L29.9385 324.575L29.918 323.693H30.7861L34.5938 333.646H33.2402ZM33.0693 329.962V331.042H27.4775V329.962H33.0693ZM42.4277 327.973V329.046H37.041V327.973H42.4277ZM37.2461 323.693V333.646H35.9268V323.693H37.2461ZM43.5762 323.693V333.646H42.2637V323.693H43.5762ZM52.4219 327.973V329.046H47.0352V327.973H52.4219ZM47.2402 323.693V333.646H45.9209V323.693H47.2402ZM53.5703 323.693V333.646H52.2578V323.693H53.5703ZM62.2383 332.573V333.646H56.9678V332.573H62.2383ZM57.2344 323.693V333.646H55.915V323.693H57.2344ZM61.541 327.973V329.046H56.9678V327.973H61.541ZM62.1699 323.693V324.773H56.9678V323.693H62.1699ZM67.543 329.743H64.8838V328.67H67.543C68.0579 328.67 68.4749 328.588 68.7939 328.424C69.113 328.26 69.3454 328.032 69.4912 327.74C69.6416 327.449 69.7168 327.116 69.7168 326.742C69.7168 326.4 69.6416 326.079 69.4912 325.778C69.3454 325.478 69.113 325.236 68.7939 325.054C68.4749 324.867 68.0579 324.773 67.543 324.773H65.1914V333.646H63.8721V323.693H67.543C68.2949 323.693 68.9307 323.823 69.4502 324.083C69.9697 324.343 70.3639 324.703 70.6328 325.163C70.9017 325.619 71.0361 326.141 71.0361 326.729C71.0361 327.367 70.9017 327.911 70.6328 328.362C70.3639 328.813 69.9697 329.158 69.4502 329.395C68.9307 329.627 68.2949 329.743 67.543 329.743ZM79.6289 324.685H81.2764C81.8506 324.685 82.3815 324.783 82.8691 324.979C83.3613 325.17 83.7897 325.443 84.1543 325.799C84.5234 326.154 84.8105 326.578 85.0156 327.07C85.2207 327.558 85.3232 328.098 85.3232 328.69C85.3232 329.283 85.2207 329.825 85.0156 330.317C84.8105 330.81 84.5234 331.236 84.1543 331.596C83.7897 331.951 83.3613 332.227 82.8691 332.423C82.3815 332.614 81.8506 332.71 81.2764 332.71H79.6289C79.0547 332.71 78.5238 332.614 78.0361 332.423C77.5485 332.227 77.1201 331.951 76.751 331.596C76.3864 331.24 76.1016 330.819 75.8965 330.331C75.696 329.839 75.5957 329.297 75.5957 328.704C75.5957 328.112 75.696 327.572 75.8965 327.084C76.1016 326.592 76.3864 326.168 76.751 325.812C77.1201 325.452 77.5485 325.174 78.0361 324.979C78.5238 324.783 79.0547 324.685 79.6289 324.685ZM79.6289 325.724C79.0319 325.724 78.526 325.849 78.1113 326.1C77.6966 326.346 77.3822 326.692 77.168 327.139C76.9538 327.585 76.8467 328.107 76.8467 328.704C76.8467 329.155 76.9059 329.563 77.0244 329.928C77.1475 330.292 77.3275 330.604 77.5645 330.864C77.8014 331.124 78.0931 331.325 78.4395 331.466C78.7858 331.607 79.1823 331.678 79.6289 331.678H81.29C81.8825 331.678 82.3838 331.555 82.7939 331.309C83.2087 331.058 83.5231 330.709 83.7373 330.263C83.9561 329.812 84.0654 329.287 84.0654 328.69C84.0654 328.244 84.0039 327.838 83.8809 327.474C83.7578 327.109 83.5778 326.797 83.3408 326.537C83.1084 326.277 82.819 326.077 82.4727 325.936C82.1309 325.794 81.7367 325.724 81.29 325.724H79.6289ZM81.0918 323.283V334.057H79.8271V323.283H81.0918ZM94.6543 328.355V328.984C94.6543 329.732 94.5609 330.402 94.374 330.994C94.1872 331.587 93.9183 332.09 93.5674 332.505C93.2165 332.92 92.7949 333.236 92.3027 333.455C91.8151 333.674 91.2682 333.783 90.6621 333.783C90.0742 333.783 89.5342 333.674 89.042 333.455C88.5544 333.236 88.1305 332.92 87.7705 332.505C87.415 332.09 87.1393 331.587 86.9434 330.994C86.7474 330.402 86.6494 329.732 86.6494 328.984V328.355C86.6494 327.608 86.7451 326.94 86.9365 326.353C87.1325 325.76 87.4082 325.257 87.7637 324.842C88.1191 324.423 88.5407 324.104 89.0283 323.885C89.5205 323.666 90.0605 323.557 90.6484 323.557C91.2546 323.557 91.8014 323.666 92.2891 323.885C92.7812 324.104 93.2028 324.423 93.5537 324.842C93.9092 325.257 94.1803 325.76 94.3672 326.353C94.5586 326.94 94.6543 327.608 94.6543 328.355ZM93.3486 328.984V328.342C93.3486 327.749 93.2871 327.225 93.1641 326.77C93.0456 326.314 92.8701 325.931 92.6377 325.621C92.4053 325.311 92.1204 325.076 91.7832 324.917C91.4505 324.757 91.0723 324.678 90.6484 324.678C90.2383 324.678 89.8669 324.757 89.5342 324.917C89.2061 325.076 88.9235 325.311 88.6865 325.621C88.4541 325.931 88.2741 326.314 88.1465 326.77C88.0189 327.225 87.9551 327.749 87.9551 328.342V328.984C87.9551 329.581 88.0189 330.11 88.1465 330.57C88.2741 331.026 88.4564 331.411 88.6934 331.726C88.9349 332.035 89.2197 332.27 89.5479 332.43C89.8805 332.589 90.252 332.669 90.6621 332.669C91.0905 332.669 91.471 332.589 91.8037 332.43C92.1364 332.27 92.4167 332.035 92.6445 331.726C92.877 331.411 93.0524 331.026 93.1709 330.57C93.2894 330.11 93.3486 329.581 93.3486 328.984ZM100.301 329.743H97.6416V328.67H100.301C100.816 328.67 101.233 328.588 101.552 328.424C101.871 328.26 102.103 328.032 102.249 327.74C102.399 327.449 102.475 327.116 102.475 326.742C102.475 326.4 102.399 326.079 102.249 325.778C102.103 325.478 101.871 325.236 101.552 325.054C101.233 324.867 100.816 324.773 100.301 324.773H97.9492V333.646H96.6299V323.693H100.301C101.053 323.693 101.688 323.823 102.208 324.083C102.728 324.343 103.122 324.703 103.391 325.163C103.66 325.619 103.794 326.141 103.794 326.729C103.794 327.367 103.66 327.911 103.391 328.362C103.122 328.813 102.728 329.158 102.208 329.395C101.688 329.627 101.053 329.743 100.301 329.743ZM105.879 323.693H107.157L110.418 331.808L113.672 323.693H114.957L110.91 333.646H109.912L105.879 323.693ZM105.462 323.693H106.59L106.774 329.764V333.646H105.462V323.693ZM114.239 323.693H115.367V333.646H114.055V329.764L114.239 323.693ZM121.492 324.575L118.197 333.646H116.851L120.645 323.693H121.513L121.492 324.575ZM124.254 333.646L120.952 324.575L120.932 323.693H121.8L125.607 333.646H124.254ZM124.083 329.962V331.042H118.491V329.962H124.083ZM129.729 323.693V333.646H128.431V323.693H129.729ZM132.929 323.693V324.773H125.238V323.693H132.929ZM137.543 324.575L134.248 333.646H132.901L136.695 323.693H137.563L137.543 324.575ZM140.305 333.646L137.003 324.575L136.982 323.693H137.851L141.658 333.646H140.305ZM140.134 329.962V331.042H134.542V329.962H140.134ZM152.5 332.573V333.646H147.523V332.573H152.5ZM147.783 323.693V333.646H146.464V323.693H147.783ZM160.334 332.573V333.646H155.063V332.573H160.334ZM155.33 323.693V333.646H154.011V323.693H155.33ZM159.637 327.973V329.046H155.063V327.973H159.637ZM160.266 323.693V324.773H155.063V323.693H160.266ZM165.652 324.575L162.357 333.646H161.011L164.805 323.693H165.673L165.652 324.575ZM168.414 333.646L165.112 324.575L165.092 323.693H165.96L169.768 333.646H168.414ZM168.243 329.962V331.042H162.651V329.962H168.243ZM173.794 333.646H171.716L171.729 332.573H173.794C174.505 332.573 175.097 332.425 175.571 332.129C176.045 331.828 176.401 331.409 176.638 330.871C176.879 330.329 177 329.695 177 328.971V328.362C177 327.793 176.932 327.287 176.795 326.845C176.658 326.398 176.458 326.022 176.193 325.717C175.929 325.407 175.605 325.172 175.223 325.013C174.844 324.853 174.409 324.773 173.917 324.773H171.675V323.693H173.917C174.569 323.693 175.163 323.803 175.701 324.021C176.239 324.236 176.701 324.548 177.089 324.958C177.481 325.364 177.782 325.856 177.991 326.435C178.201 327.009 178.306 327.656 178.306 328.376V328.971C178.306 329.691 178.201 330.34 177.991 330.919C177.782 331.493 177.479 331.983 177.082 332.389C176.69 332.794 176.216 333.106 175.66 333.325C175.109 333.539 174.487 333.646 173.794 333.646ZM172.42 323.693V333.646H171.101V323.693H172.42ZM186.611 332.573V333.646H181.341V332.573H186.611ZM181.607 323.693V333.646H180.288V323.693H181.607ZM185.914 327.973V329.046H181.341V327.973H185.914ZM186.543 323.693V324.773H181.341V323.693H186.543ZM188.245 323.693H191.54C192.287 323.693 192.919 323.807 193.434 324.035C193.953 324.263 194.347 324.6 194.616 325.047C194.89 325.489 195.026 326.034 195.026 326.681C195.026 327.136 194.933 327.553 194.746 327.932C194.564 328.305 194.299 328.624 193.953 328.889C193.611 329.148 193.201 329.342 192.723 329.47L192.354 329.613H189.257L189.243 328.54H191.581C192.055 328.54 192.449 328.458 192.764 328.294C193.078 328.125 193.315 327.9 193.475 327.617C193.634 327.335 193.714 327.022 193.714 326.681C193.714 326.298 193.639 325.963 193.488 325.676C193.338 325.389 193.101 325.168 192.777 325.013C192.458 324.853 192.046 324.773 191.54 324.773H189.564V333.646H188.245V323.693ZM194.062 333.646L191.643 329.135L193.017 329.128L195.471 333.564V333.646H194.062ZM200.42 328.991H197.897L197.884 327.932H200.174C200.552 327.932 200.882 327.868 201.165 327.74C201.448 327.613 201.666 327.43 201.821 327.193C201.981 326.952 202.061 326.665 202.061 326.332C202.061 325.967 201.99 325.671 201.849 325.443C201.712 325.211 201.5 325.042 201.213 324.938C200.93 324.828 200.57 324.773 200.133 324.773H198.191V333.646H196.872V323.693H200.133C200.643 323.693 201.099 323.746 201.5 323.851C201.901 323.951 202.241 324.11 202.519 324.329C202.801 324.543 203.015 324.817 203.161 325.149C203.307 325.482 203.38 325.881 203.38 326.346C203.38 326.756 203.275 327.127 203.065 327.46C202.856 327.788 202.564 328.057 202.19 328.267C201.821 328.476 201.388 328.611 200.892 328.67L200.42 328.991ZM200.358 333.646H197.378L198.123 332.573H200.358C200.778 332.573 201.133 332.5 201.425 332.354C201.721 332.209 201.947 332.004 202.102 331.739C202.257 331.47 202.334 331.154 202.334 330.789C202.334 330.42 202.268 330.101 202.136 329.832C202.004 329.563 201.796 329.356 201.514 329.21C201.231 329.064 200.867 328.991 200.42 328.991H198.54L198.554 327.932H201.124L201.404 328.314C201.883 328.355 202.288 328.492 202.621 328.725C202.954 328.952 203.207 329.244 203.38 329.6C203.558 329.955 203.646 330.347 203.646 330.775C203.646 331.395 203.51 331.919 203.236 332.348C202.967 332.771 202.587 333.095 202.095 333.318C201.603 333.537 201.024 333.646 200.358 333.646ZM213.258 328.355V328.984C213.258 329.732 213.164 330.402 212.978 330.994C212.791 331.587 212.522 332.09 212.171 332.505C211.82 332.92 211.398 333.236 210.906 333.455C210.419 333.674 209.872 333.783 209.266 333.783C208.678 333.783 208.138 333.674 207.646 333.455C207.158 333.236 206.734 332.92 206.374 332.505C206.019 332.09 205.743 331.587 205.547 330.994C205.351 330.402 205.253 329.732 205.253 328.984V328.355C205.253 327.608 205.349 326.94 205.54 326.353C205.736 325.76 206.012 325.257 206.367 324.842C206.723 324.423 207.144 324.104 207.632 323.885C208.124 323.666 208.664 323.557 209.252 323.557C209.858 323.557 210.405 323.666 210.893 323.885C211.385 324.104 211.806 324.423 212.157 324.842C212.513 325.257 212.784 325.76 212.971 326.353C213.162 326.94 213.258 327.608 213.258 328.355ZM211.952 328.984V328.342C211.952 327.749 211.891 327.225 211.768 326.77C211.649 326.314 211.474 325.931 211.241 325.621C211.009 325.311 210.724 325.076 210.387 324.917C210.054 324.757 209.676 324.678 209.252 324.678C208.842 324.678 208.47 324.757 208.138 324.917C207.81 325.076 207.527 325.311 207.29 325.621C207.058 325.931 206.878 326.314 206.75 326.77C206.622 327.225 206.559 327.749 206.559 328.342V328.984C206.559 329.581 206.622 330.11 206.75 330.57C206.878 331.026 207.06 331.411 207.297 331.726C207.538 332.035 207.823 332.27 208.151 332.43C208.484 332.589 208.855 332.669 209.266 332.669C209.694 332.669 210.075 332.589 210.407 332.43C210.74 332.27 211.02 332.035 211.248 331.726C211.48 331.411 211.656 331.026 211.774 330.57C211.893 330.11 211.952 329.581 211.952 328.984ZM218.768 324.575L215.473 333.646H214.126L217.92 323.693H218.788L218.768 324.575ZM221.529 333.646L218.228 324.575L218.207 323.693H219.075L222.883 333.646H221.529ZM221.358 329.962V331.042H215.767V329.962H221.358ZM224.216 323.693H227.511C228.258 323.693 228.889 323.807 229.404 324.035C229.924 324.263 230.318 324.6 230.587 325.047C230.86 325.489 230.997 326.034 230.997 326.681C230.997 327.136 230.904 327.553 230.717 327.932C230.535 328.305 230.27 328.624 229.924 328.889C229.582 329.148 229.172 329.342 228.693 329.47L228.324 329.613H225.228L225.214 328.54H227.552C228.026 328.54 228.42 328.458 228.734 328.294C229.049 328.125 229.286 327.9 229.445 327.617C229.605 327.335 229.685 327.022 229.685 326.681C229.685 326.298 229.609 325.963 229.459 325.676C229.309 325.389 229.072 325.168 228.748 325.013C228.429 324.853 228.017 324.773 227.511 324.773H225.535V333.646H224.216V323.693ZM230.033 333.646L227.613 329.135L228.987 329.128L231.441 333.564V333.646H230.033ZM235.536 333.646H233.458L233.472 332.573H235.536C236.247 332.573 236.84 332.425 237.313 332.129C237.787 331.828 238.143 331.409 238.38 330.871C238.621 330.329 238.742 329.695 238.742 328.971V328.362C238.742 327.793 238.674 327.287 238.537 326.845C238.4 326.398 238.2 326.022 237.936 325.717C237.671 325.407 237.348 325.172 236.965 325.013C236.587 324.853 236.151 324.773 235.659 324.773H233.417V323.693H235.659C236.311 323.693 236.906 323.803 237.443 324.021C237.981 324.236 238.444 324.548 238.831 324.958C239.223 325.364 239.524 325.856 239.733 326.435C239.943 327.009 240.048 327.656 240.048 328.376V328.971C240.048 329.691 239.943 330.34 239.733 330.919C239.524 331.493 239.221 331.983 238.824 332.389C238.432 332.794 237.958 333.106 237.402 333.325C236.851 333.539 236.229 333.646 235.536 333.646ZM234.162 323.693V333.646H232.843V323.693H234.162ZM251.607 323.693V324.404L247.485 333.646H246.152L250.268 324.732H244.881V323.693H251.607ZM259.571 332.607V333.646H253.057V332.737L256.317 329.107C256.718 328.661 257.028 328.283 257.247 327.973C257.47 327.658 257.625 327.378 257.712 327.132C257.803 326.881 257.849 326.626 257.849 326.366C257.849 326.038 257.78 325.742 257.644 325.478C257.511 325.209 257.315 324.994 257.056 324.835C256.796 324.675 256.481 324.596 256.112 324.596C255.67 324.596 255.301 324.682 255.005 324.855C254.713 325.024 254.494 325.261 254.349 325.566C254.203 325.872 254.13 326.223 254.13 326.619H252.865C252.865 326.059 252.988 325.546 253.234 325.081C253.48 324.616 253.845 324.247 254.328 323.974C254.811 323.696 255.406 323.557 256.112 323.557C256.741 323.557 257.279 323.668 257.726 323.892C258.172 324.11 258.514 324.42 258.751 324.821C258.993 325.218 259.113 325.683 259.113 326.216C259.113 326.507 259.063 326.804 258.963 327.104C258.867 327.401 258.733 327.697 258.56 327.993C258.391 328.289 258.193 328.581 257.965 328.868C257.742 329.155 257.502 329.438 257.247 329.716L254.581 332.607H259.571ZM267.2 330.953C267.2 331.559 267.059 332.074 266.776 332.498C266.498 332.917 266.12 333.236 265.642 333.455C265.168 333.674 264.632 333.783 264.035 333.783C263.438 333.783 262.9 333.674 262.422 333.455C261.943 333.236 261.565 332.917 261.287 332.498C261.009 332.074 260.87 331.559 260.87 330.953C260.87 330.557 260.945 330.194 261.096 329.866C261.251 329.534 261.467 329.244 261.745 328.998C262.028 328.752 262.36 328.563 262.743 328.431C263.131 328.294 263.557 328.226 264.021 328.226C264.632 328.226 265.177 328.344 265.655 328.581C266.134 328.813 266.51 329.135 266.783 329.545C267.061 329.955 267.2 330.424 267.2 330.953ZM265.929 330.926C265.929 330.557 265.849 330.231 265.689 329.948C265.53 329.661 265.307 329.438 265.02 329.278C264.732 329.119 264.4 329.039 264.021 329.039C263.634 329.039 263.299 329.119 263.017 329.278C262.739 329.438 262.522 329.661 262.367 329.948C262.212 330.231 262.135 330.557 262.135 330.926C262.135 331.309 262.21 331.637 262.36 331.91C262.515 332.179 262.734 332.386 263.017 332.532C263.304 332.674 263.643 332.744 264.035 332.744C264.427 332.744 264.764 332.674 265.047 332.532C265.329 332.386 265.546 332.179 265.696 331.91C265.851 331.637 265.929 331.309 265.929 330.926ZM266.968 326.284C266.968 326.767 266.84 327.202 266.585 327.59C266.33 327.977 265.981 328.283 265.539 328.506C265.097 328.729 264.596 328.841 264.035 328.841C263.465 328.841 262.957 328.729 262.511 328.506C262.069 328.283 261.722 327.977 261.472 327.59C261.221 327.202 261.096 326.767 261.096 326.284C261.096 325.705 261.221 325.213 261.472 324.808C261.727 324.402 262.076 324.092 262.518 323.878C262.96 323.664 263.463 323.557 264.028 323.557C264.598 323.557 265.104 323.664 265.546 323.878C265.988 324.092 266.334 324.402 266.585 324.808C266.84 325.213 266.968 325.705 266.968 326.284ZM265.703 326.305C265.703 325.972 265.632 325.678 265.491 325.423C265.35 325.168 265.154 324.967 264.903 324.821C264.653 324.671 264.361 324.596 264.028 324.596C263.696 324.596 263.404 324.666 263.153 324.808C262.907 324.944 262.714 325.14 262.572 325.396C262.436 325.651 262.367 325.954 262.367 326.305C262.367 326.646 262.436 326.945 262.572 327.2C262.714 327.455 262.91 327.654 263.16 327.795C263.411 327.936 263.702 328.007 264.035 328.007C264.368 328.007 264.657 327.936 264.903 327.795C265.154 327.654 265.35 327.455 265.491 327.2C265.632 326.945 265.703 326.646 265.703 326.305ZM273.455 323.693L275.848 327.508L278.24 323.693H279.778L276.634 328.622L279.854 333.646H278.302L275.848 329.757L273.394 333.646H271.842L275.062 328.622L271.917 323.693H273.455ZM285.78 332.587H285.91C286.639 332.587 287.232 332.484 287.688 332.279C288.143 332.074 288.494 331.799 288.74 331.452C288.986 331.106 289.155 330.716 289.246 330.283C289.337 329.846 289.383 329.397 289.383 328.937V327.412C289.383 326.961 289.33 326.56 289.226 326.209C289.125 325.858 288.984 325.564 288.802 325.327C288.624 325.09 288.421 324.91 288.193 324.787C287.965 324.664 287.724 324.603 287.469 324.603C287.177 324.603 286.915 324.662 286.683 324.78C286.455 324.894 286.261 325.056 286.102 325.266C285.947 325.475 285.828 325.721 285.746 326.004C285.664 326.286 285.623 326.594 285.623 326.927C285.623 327.223 285.66 327.51 285.732 327.788C285.805 328.066 285.917 328.317 286.067 328.54C286.218 328.763 286.405 328.941 286.628 329.073C286.856 329.201 287.122 329.265 287.428 329.265C287.71 329.265 287.975 329.21 288.221 329.101C288.471 328.987 288.692 328.834 288.884 328.643C289.08 328.447 289.235 328.226 289.349 327.979C289.467 327.733 289.535 327.476 289.554 327.207H290.155C290.155 327.585 290.08 327.959 289.93 328.328C289.784 328.693 289.579 329.025 289.314 329.326C289.05 329.627 288.74 329.868 288.385 330.051C288.029 330.229 287.642 330.317 287.223 330.317C286.73 330.317 286.304 330.222 285.944 330.03C285.584 329.839 285.288 329.584 285.056 329.265C284.828 328.946 284.657 328.59 284.543 328.198C284.434 327.802 284.379 327.401 284.379 326.995C284.379 326.521 284.445 326.077 284.577 325.662C284.709 325.247 284.905 324.883 285.165 324.568C285.425 324.249 285.746 324.001 286.129 323.823C286.516 323.646 286.963 323.557 287.469 323.557C288.038 323.557 288.524 323.671 288.925 323.898C289.326 324.126 289.652 324.432 289.902 324.814C290.158 325.197 290.344 325.628 290.463 326.106C290.581 326.585 290.641 327.077 290.641 327.583V328.041C290.641 328.556 290.606 329.08 290.538 329.613C290.474 330.142 290.349 330.648 290.162 331.131C289.98 331.614 289.713 332.047 289.362 332.43C289.011 332.808 288.553 333.109 287.988 333.332C287.428 333.551 286.735 333.66 285.91 333.66H285.78V332.587ZM298.646 327.877V329.395C298.646 330.21 298.573 330.898 298.427 331.459C298.281 332.02 298.071 332.471 297.798 332.812C297.524 333.154 297.194 333.403 296.807 333.558C296.424 333.708 295.991 333.783 295.508 333.783C295.125 333.783 294.772 333.735 294.448 333.64C294.125 333.544 293.833 333.391 293.573 333.182C293.318 332.967 293.099 332.689 292.917 332.348C292.735 332.006 292.596 331.591 292.5 331.104C292.404 330.616 292.356 330.046 292.356 329.395V327.877C292.356 327.061 292.429 326.378 292.575 325.826C292.726 325.275 292.938 324.833 293.211 324.5C293.484 324.163 293.812 323.921 294.195 323.775C294.583 323.63 295.016 323.557 295.494 323.557C295.882 323.557 296.237 323.604 296.561 323.7C296.889 323.791 297.18 323.939 297.436 324.145C297.691 324.345 297.907 324.614 298.085 324.951C298.267 325.284 298.406 325.692 298.502 326.175C298.598 326.658 298.646 327.225 298.646 327.877ZM297.374 329.6V327.665C297.374 327.218 297.347 326.826 297.292 326.489C297.242 326.147 297.167 325.856 297.066 325.614C296.966 325.373 296.839 325.177 296.684 325.026C296.533 324.876 296.358 324.767 296.157 324.698C295.961 324.625 295.74 324.589 295.494 324.589C295.193 324.589 294.927 324.646 294.694 324.76C294.462 324.869 294.266 325.045 294.106 325.286C293.951 325.528 293.833 325.844 293.751 326.236C293.669 326.628 293.628 327.104 293.628 327.665V329.6C293.628 330.046 293.653 330.44 293.703 330.782C293.758 331.124 293.838 331.42 293.942 331.671C294.047 331.917 294.175 332.12 294.325 332.279C294.476 332.439 294.649 332.557 294.845 332.635C295.045 332.708 295.266 332.744 295.508 332.744C295.818 332.744 296.089 332.685 296.321 332.566C296.554 332.448 296.747 332.263 296.902 332.013C297.062 331.757 297.18 331.432 297.258 331.035C297.335 330.634 297.374 330.156 297.374 329.6ZM311.675 323.693V333.646H310.362V324.773H305.454V333.646H304.135V323.693H311.675ZM315.441 331.363L320.343 323.693H321.662V333.646H320.343V325.97L315.441 333.646H314.129V323.693H315.441V331.363ZM325.442 323.693V333.646H324.123V323.693H325.442ZM331.574 323.693L327.254 329.169H324.916L324.711 328.075H326.468L329.94 323.693H331.574ZM330.248 333.646L326.509 328.998L327.247 327.843L331.861 333.646H330.248ZM338.848 330.481H340.16C340.092 331.11 339.912 331.673 339.62 332.17C339.328 332.667 338.916 333.061 338.383 333.353C337.85 333.64 337.184 333.783 336.387 333.783C335.803 333.783 335.272 333.674 334.794 333.455C334.32 333.236 333.912 332.926 333.57 332.525C333.229 332.12 332.964 331.634 332.777 331.069C332.595 330.5 332.504 329.866 332.504 329.169V328.178C332.504 327.48 332.595 326.849 332.777 326.284C332.964 325.715 333.231 325.227 333.577 324.821C333.928 324.416 334.35 324.104 334.842 323.885C335.334 323.666 335.888 323.557 336.503 323.557C337.255 323.557 337.891 323.698 338.41 323.98C338.93 324.263 339.333 324.655 339.62 325.156C339.912 325.653 340.092 326.229 340.16 326.886H338.848C338.784 326.421 338.665 326.022 338.492 325.689C338.319 325.352 338.073 325.092 337.754 324.91C337.435 324.728 337.018 324.637 336.503 324.637C336.061 324.637 335.671 324.721 335.334 324.89C335.001 325.058 334.721 325.298 334.493 325.607C334.27 325.917 334.101 326.289 333.987 326.722C333.873 327.155 333.816 327.635 333.816 328.164V329.169C333.816 329.657 333.867 330.115 333.967 330.543C334.072 330.971 334.229 331.347 334.438 331.671C334.648 331.994 334.915 332.25 335.238 332.437C335.562 332.619 335.945 332.71 336.387 332.71C336.947 332.71 337.394 332.621 337.727 332.443C338.059 332.266 338.31 332.01 338.479 331.678C338.652 331.345 338.775 330.946 338.848 330.481ZM341.787 332.977C341.787 332.762 341.853 332.582 341.985 332.437C342.122 332.286 342.318 332.211 342.573 332.211C342.828 332.211 343.022 332.286 343.154 332.437C343.291 332.582 343.359 332.762 343.359 332.977C343.359 333.186 343.291 333.364 343.154 333.51C343.022 333.656 342.828 333.729 342.573 333.729C342.318 333.729 342.122 333.656 341.985 333.51C341.853 333.364 341.787 333.186 341.787 332.977Z" fill="black"/>
<path d="M987.684 3.04688V13H986.364V3.04688H987.684ZM993.754 9.09668H991.095V8.02344H993.754C994.269 8.02344 994.686 7.94141 995.005 7.77734C995.324 7.61328 995.556 7.38542 995.702 7.09375C995.853 6.80208 995.928 6.4694 995.928 6.0957C995.928 5.75391 995.853 5.43262 995.702 5.13184C995.556 4.83105 995.324 4.58952 995.005 4.40723C994.686 4.22038 994.269 4.12695 993.754 4.12695H991.402V13H990.083V3.04688H993.754C994.506 3.04688 995.142 3.17676 995.661 3.43652C996.181 3.69629 996.575 4.05632 996.844 4.5166C997.113 4.97233 997.247 5.49414 997.247 6.08203C997.247 6.72005 997.113 7.26465 996.844 7.71582C996.575 8.16699 996.181 8.51107 995.661 8.74805C995.142 8.98047 994.506 9.09668 993.754 9.09668ZM1005.42 7.32617V8.39941H1000.03V7.32617H1005.42ZM1000.23 3.04688V13H998.915V3.04688H1000.23ZM1006.56 3.04688V13H1005.25V3.04688H1006.56ZM1016.57 7.70898V8.33789C1016.57 9.08529 1016.48 9.75521 1016.29 10.3477C1016.11 10.9401 1015.84 11.4437 1015.49 11.8584C1015.13 12.2731 1014.71 12.5898 1014.22 12.8086C1013.73 13.0273 1013.19 13.1367 1012.58 13.1367C1011.99 13.1367 1011.45 13.0273 1010.96 12.8086C1010.47 12.5898 1010.05 12.2731 1009.69 11.8584C1009.33 11.4437 1009.06 10.9401 1008.86 10.3477C1008.67 9.75521 1008.57 9.08529 1008.57 8.33789V7.70898C1008.57 6.96159 1008.66 6.29395 1008.85 5.70605C1009.05 5.11361 1009.33 4.61003 1009.68 4.19531C1010.04 3.77604 1010.46 3.45703 1010.95 3.23828C1011.44 3.01953 1011.98 2.91016 1012.57 2.91016C1013.17 2.91016 1013.72 3.01953 1014.21 3.23828C1014.7 3.45703 1015.12 3.77604 1015.47 4.19531C1015.83 4.61003 1016.1 5.11361 1016.29 5.70605C1016.48 6.29395 1016.57 6.96159 1016.57 7.70898ZM1015.27 8.33789V7.69531C1015.27 7.10286 1015.21 6.57878 1015.08 6.12305C1014.96 5.66732 1014.79 5.28451 1014.56 4.97461C1014.32 4.66471 1014.04 4.43001 1013.7 4.27051C1013.37 4.111 1012.99 4.03125 1012.57 4.03125C1012.16 4.03125 1011.78 4.111 1011.45 4.27051C1011.12 4.43001 1010.84 4.66471 1010.6 4.97461C1010.37 5.28451 1010.19 5.66732 1010.06 6.12305C1009.94 6.57878 1009.87 7.10286 1009.87 7.69531V8.33789C1009.87 8.9349 1009.94 9.46354 1010.06 9.92383C1010.19 10.3796 1010.37 10.7646 1010.61 11.0791C1010.85 11.389 1011.14 11.6237 1011.47 11.7832C1011.8 11.9427 1012.17 12.0225 1012.58 12.0225C1013.01 12.0225 1013.39 11.9427 1013.72 11.7832C1014.05 11.6237 1014.33 11.389 1014.56 11.0791C1014.79 10.7646 1014.97 10.3796 1015.09 9.92383C1015.21 9.46354 1015.27 8.9349 1015.27 8.33789ZM1026.2 3.04688V13H1024.88L1019.87 5.32324V13H1018.55V3.04688H1019.87L1024.9 10.7441V3.04688H1026.2ZM1034.87 11.9268V13H1029.59V11.9268H1034.87ZM1029.86 3.04688V13H1028.54V3.04688H1029.86ZM1034.17 7.32617V8.39941H1029.59V7.32617H1034.17ZM1034.8 3.04688V4.12695H1029.59V3.04688H1034.8ZM1044.5 3.0332H1044.61V4.10645H1044.5C1043.83 4.10645 1043.27 4.21582 1042.82 4.43457C1042.36 4.64876 1042.01 4.93815 1041.74 5.30273C1041.48 5.66276 1041.29 6.06836 1041.17 6.51953C1041.05 6.9707 1041 7.42871 1041 7.89355V9.35645C1041 9.7985 1041.05 10.1904 1041.15 10.5322C1041.26 10.8695 1041.4 11.1543 1041.58 11.3867C1041.77 11.6191 1041.97 11.7946 1042.2 11.9131C1042.43 12.0316 1042.67 12.0908 1042.92 12.0908C1043.22 12.0908 1043.48 12.0361 1043.7 11.9268C1043.93 11.8128 1044.12 11.6556 1044.28 11.4551C1044.44 11.25 1044.56 11.0085 1044.64 10.7305C1044.72 10.4525 1044.76 10.1471 1044.76 9.81445C1044.76 9.51823 1044.73 9.2334 1044.65 8.95996C1044.58 8.68197 1044.47 8.43587 1044.32 8.22168C1044.17 8.00293 1043.98 7.83203 1043.75 7.70898C1043.53 7.58138 1043.26 7.51758 1042.95 7.51758C1042.6 7.51758 1042.27 7.60417 1041.97 7.77734C1041.67 7.94596 1041.42 8.16927 1041.22 8.44727C1041.03 8.7207 1040.92 9.01921 1040.89 9.34277L1040.22 9.33594C1040.29 8.82552 1040.41 8.3903 1040.58 8.03027C1040.76 7.66569 1040.98 7.36947 1041.24 7.1416C1041.5 6.90918 1041.79 6.74056 1042.12 6.63574C1042.45 6.52637 1042.79 6.47168 1043.16 6.47168C1043.65 6.47168 1044.08 6.5651 1044.44 6.75195C1044.8 6.9388 1045.1 7.18945 1045.33 7.50391C1045.56 7.8138 1045.73 8.16471 1045.84 8.55664C1045.96 8.94401 1046.01 9.34277 1046.01 9.75293C1046.01 10.2223 1045.95 10.6621 1045.82 11.0723C1045.68 11.4824 1045.49 11.8424 1045.22 12.1523C1044.96 12.4622 1044.64 12.7038 1044.26 12.877C1043.88 13.0501 1043.43 13.1367 1042.92 13.1367C1042.39 13.1367 1041.92 13.0273 1041.52 12.8086C1041.12 12.5853 1040.78 12.2891 1040.52 11.9199C1040.25 11.5508 1040.06 11.1406 1039.92 10.6895C1039.79 10.2383 1039.73 9.78027 1039.73 9.31543V8.7207C1039.73 8.01888 1039.8 7.33073 1039.94 6.65625C1040.08 5.98177 1040.32 5.37109 1040.67 4.82422C1041.02 4.27734 1041.51 3.84212 1042.12 3.51855C1042.74 3.19499 1043.54 3.0332 1044.5 3.0332ZM1052.06 3.04688L1047.91 13.8545H1046.82L1050.98 3.04688H1052.06ZM1059.73 3.04688V3.75781L1055.61 13H1054.28L1058.39 4.08594H1053.01V3.04688H1059.73ZM1065.72 3.04688L1061.57 13.8545H1060.48L1064.64 3.04688H1065.72ZM1073.24 10.3066C1073.24 10.9128 1073.09 11.4277 1072.81 11.8516C1072.53 12.2708 1072.16 12.5898 1071.68 12.8086C1071.2 13.0273 1070.67 13.1367 1070.07 13.1367C1069.47 13.1367 1068.94 13.0273 1068.46 12.8086C1067.98 12.5898 1067.6 12.2708 1067.32 11.8516C1067.04 11.4277 1066.91 10.9128 1066.91 10.3066C1066.91 9.91016 1066.98 9.54785 1067.13 9.21973C1067.29 8.88704 1067.5 8.59766 1067.78 8.35156C1068.06 8.10547 1068.4 7.91634 1068.78 7.78418C1069.17 7.64746 1069.59 7.5791 1070.06 7.5791C1070.67 7.5791 1071.21 7.69759 1071.69 7.93457C1072.17 8.16699 1072.54 8.48828 1072.82 8.89844C1073.1 9.30859 1073.24 9.77799 1073.24 10.3066ZM1071.96 10.2793C1071.96 9.91016 1071.88 9.58431 1071.72 9.30176C1071.57 9.01465 1071.34 8.79134 1071.05 8.63184C1070.77 8.47233 1070.43 8.39258 1070.06 8.39258C1069.67 8.39258 1069.33 8.47233 1069.05 8.63184C1068.77 8.79134 1068.56 9.01465 1068.4 9.30176C1068.25 9.58431 1068.17 9.91016 1068.17 10.2793C1068.17 10.6621 1068.25 10.9902 1068.4 11.2637C1068.55 11.5326 1068.77 11.7399 1069.05 11.8857C1069.34 12.027 1069.68 12.0977 1070.07 12.0977C1070.46 12.0977 1070.8 12.027 1071.08 11.8857C1071.36 11.7399 1071.58 11.5326 1071.73 11.2637C1071.89 10.9902 1071.96 10.6621 1071.96 10.2793ZM1073 5.6377C1073 6.12077 1072.88 6.55599 1072.62 6.94336C1072.36 7.33073 1072.02 7.63607 1071.57 7.85938C1071.13 8.08268 1070.63 8.19434 1070.07 8.19434C1069.5 8.19434 1068.99 8.08268 1068.55 7.85938C1068.1 7.63607 1067.76 7.33073 1067.51 6.94336C1067.26 6.55599 1067.13 6.12077 1067.13 5.6377C1067.13 5.05892 1067.26 4.56673 1067.51 4.16113C1067.76 3.75553 1068.11 3.44564 1068.55 3.23145C1068.99 3.01725 1069.5 2.91016 1070.06 2.91016C1070.63 2.91016 1071.14 3.01725 1071.58 3.23145C1072.02 3.44564 1072.37 3.75553 1072.62 4.16113C1072.88 4.56673 1073 5.05892 1073 5.6377ZM1071.74 5.6582C1071.74 5.32552 1071.67 5.03158 1071.53 4.77637C1071.39 4.52116 1071.19 4.32064 1070.94 4.1748C1070.69 4.02441 1070.4 3.94922 1070.06 3.94922C1069.73 3.94922 1069.44 4.01986 1069.19 4.16113C1068.94 4.29785 1068.75 4.49382 1068.61 4.74902C1068.47 5.00423 1068.4 5.30729 1068.4 5.6582C1068.4 6 1068.47 6.2985 1068.61 6.55371C1068.75 6.80892 1068.94 7.00716 1069.2 7.14844C1069.45 7.28971 1069.74 7.36035 1070.07 7.36035C1070.4 7.36035 1070.69 7.28971 1070.94 7.14844C1071.19 7.00716 1071.39 6.80892 1071.53 6.55371C1071.67 6.2985 1071.74 6 1071.74 5.6582Z" fill="black"/>
<g filter="url(#filter4_d_432_2111)">
<path d="M955.118 357.153H15V473.687H955.118V357.153Z" fill="white"/>
</g>
<g filter="url(#filter5_d_432_2111)">
<path d="M955.118 523.331H15V639.865H955.118V523.331Z" fill="white"/>
</g>
<path d="M957.627 562.184H918.351V523.34H957.627V562.184ZM957.627 601.029H918.351V562.184H957.627V601.029ZM957.627 639.873H918.351V601.029H957.627V639.873ZM918.351 562.184H879.075V523.34H918.351V562.184ZM918.351 601.029H879.075V562.184H918.351V601.029ZM918.351 639.873H879.075V601.029H918.351V639.873ZM879.075 562.184H839.798V523.34H879.075V562.184ZM879.075 601.029H839.798V562.184H879.075V601.029ZM879.075 639.873H839.798V601.029H879.075V639.873ZM839.798 562.184H800.522V523.34H839.798V562.184ZM839.798 601.029H800.522V562.184H839.798V601.029ZM839.798 639.873H800.522V601.029H839.798V639.873ZM800.522 562.184H761.246V523.34H800.522V562.184ZM800.522 601.029H761.246V562.184H800.522V601.029ZM800.522 639.873H761.246V601.029H800.522V639.873ZM761.246 562.184H721.97V523.34H761.246V562.184ZM761.246 601.029H721.97V562.184H761.246V601.029ZM761.246 639.873H721.97V601.029H761.246V639.873ZM721.97 562.184H682.694V523.34H721.97V562.184ZM721.97 601.029H682.694V562.184H721.97V601.029ZM721.97 639.873H682.694V601.029H721.97V639.873ZM682.694 562.184H643.418V523.34H682.694V562.184ZM682.694 601.029H643.418V562.184H682.694V601.029ZM682.694 639.873H643.418V601.029H682.694V639.873ZM643.418 562.184H604.142V523.34H643.418V562.184ZM643.418 601.029H604.142V562.184H643.418V601.029ZM643.418 639.873H604.142V601.029H643.418V639.873ZM604.142 562.184H564.866V523.34H604.142V562.184ZM604.142 601.029H564.866V562.184H604.142V601.029ZM604.142 639.873H564.866V601.029H604.142V639.873ZM564.866 562.184H525.589V523.34H564.866V562.184ZM564.866 601.029H525.589V562.184H564.866V601.029ZM564.866 639.873H525.589V601.029H564.866V639.873ZM525.589 562.184H486.313V523.34H525.589V562.184ZM525.589 601.029H486.313V562.184H525.589V601.029ZM525.589 639.873H486.313V601.029H525.589V639.873ZM486.313 562.184H447.037V523.34H486.313V562.184ZM486.313 601.029H447.037V562.184H486.313V601.029ZM486.313 639.873H447.037V601.029H486.313V639.873ZM447.037 562.184H407.761V523.34H447.037V562.184ZM447.037 601.029H407.761V562.184H447.037V601.029ZM447.037 639.873H407.761V601.029H447.037V639.873ZM407.761 562.184H368.485V523.34H407.761V562.184ZM407.761 601.029H368.485V562.184H407.761V601.029ZM407.761 639.873H368.485V601.029H407.761V639.873ZM368.485 562.184H329.209V523.34H368.485V562.184ZM368.485 601.029H329.209V562.184H368.485V601.029ZM368.485 639.873H329.209V601.029H368.485V639.873ZM329.209 562.184H289.933V523.34H329.209V562.184ZM329.209 601.029H289.933V562.184H329.209V601.029ZM329.209 639.873H289.933V601.029H329.209V639.873ZM289.933 562.184H250.657V523.34H289.933V562.184ZM289.933 601.029H250.657V562.184H289.933V601.029ZM289.933 639.873H250.657V601.029H289.933V639.873ZM250.657 562.184H211.381V523.34H250.657V562.184ZM250.657 601.029H211.381V562.184H250.657V601.029ZM250.657 639.873H211.381V601.029H250.657V639.873ZM211.381 562.184H172.104V523.34H211.381V562.184ZM211.381 601.029H172.104V562.184H211.381V601.029ZM211.381 639.873H172.104V601.029H211.381V639.873ZM172.104 562.184H132.828V523.34H172.104V562.184ZM172.104 601.029H132.828V562.184H172.104V601.029ZM172.104 639.873H132.828V601.029H172.104V639.873ZM132.828 562.184H93.5522V523.34H132.828V562.184ZM132.828 601.029H93.5522V562.184H132.828V601.029ZM132.828 639.873H93.5522V601.029H132.828V639.873ZM93.5522 562.184H54.2761V523.34H93.5522V562.184ZM93.5522 601.029H54.2761V562.184H93.5522V601.029ZM93.5522 639.873H54.2761V601.029H93.5522V639.873ZM54.2761 562.184H15V523.34H54.2761V562.184ZM54.2761 601.029H15V562.184H54.2761V601.029ZM54.2761 639.873H15V601.029H54.2761V639.873Z" stroke="#DADADA" stroke-width="0.521524" stroke-miterlimit="10"/>
<path d="M947.268 395.998H908.424V357.153H947.268V395.998ZM908.424 395.998H869.579V357.153H908.424V395.998ZM869.579 395.998H830.735V357.153H869.579V395.998ZM947.268 434.842H908.424V395.998H947.268V434.842ZM947.268 473.687H908.424V434.842H947.268V473.687ZM908.424 434.842H869.579V395.998H908.424V434.842ZM908.424 473.687H869.579V434.842H908.424V473.687ZM869.579 434.842H830.735V395.998H869.579V434.842ZM869.579 473.687H830.735V434.842H869.579V473.687ZM830.735 395.998H791.89V357.153H830.735V395.998ZM830.735 434.842H791.89V395.998H830.735V434.842ZM830.735 473.687H791.89V434.842H830.735V473.687ZM791.89 395.998H753.046V357.153H791.89V395.998ZM791.89 434.842H753.046V395.998H791.89V434.842ZM791.89 473.687H753.046V434.842H791.89V473.687ZM753.046 395.998H714.201V357.153H753.046V395.998ZM753.046 434.842H714.201V395.998H753.046V434.842ZM753.046 473.687H714.201V434.842H753.046V473.687ZM714.201 395.998H675.357V357.153H714.201V395.998ZM714.201 434.842H675.357V395.998H714.201V434.842ZM714.201 473.687H675.357V434.842H714.201V473.687ZM675.357 395.998H636.512V357.153H675.357V395.998ZM675.357 434.842H636.512V395.998H675.357V434.842ZM675.357 473.687H636.512V434.842H675.357V473.687ZM636.512 395.998H597.668V357.153H636.512V395.998ZM636.512 434.842H597.668V395.998H636.512V434.842ZM636.512 473.687H597.668V434.842H636.512V473.687ZM597.668 395.998H558.823V357.153H597.668V395.998ZM597.668 434.842H558.823V395.998H597.668V434.842ZM597.668 473.687H558.823V434.842H597.668V473.687ZM558.823 395.998H519.979V357.153H558.823V395.998ZM558.823 434.842H519.979V395.998H558.823V434.842ZM558.823 473.687H519.979V434.842H558.823V473.687ZM519.979 395.998H481.134V357.153H519.979V395.998ZM519.979 434.842H481.134V395.998H519.979V434.842ZM519.979 473.687H481.134V434.842H519.979V473.687ZM481.134 395.998H442.29V357.153H481.134V395.998ZM481.134 434.842H442.29V395.998H481.134V434.842ZM481.134 473.687H442.29V434.842H481.134V473.687ZM442.29 395.998H403.445V357.153H442.29V395.998ZM442.29 434.842H403.445V395.998H442.29V434.842ZM442.29 473.687H403.445V434.842H442.29V473.687ZM403.445 395.998H364.601V357.153H403.445V395.998ZM403.445 434.842H364.601V395.998H403.445V434.842ZM403.445 473.687H364.601V434.842H403.445V473.687ZM364.601 395.998H325.756V357.153H364.601V395.998ZM364.601 434.842H325.756V395.998H364.601V434.842ZM364.601 473.687H325.756V434.842H364.601V473.687ZM325.756 395.998H286.912V357.153H325.756V395.998ZM325.756 434.842H286.912V395.998H325.756V434.842ZM325.756 473.687H286.912V434.842H325.756V473.687ZM286.912 395.998H248.067V357.153H286.912V395.998ZM286.912 434.842H248.067V395.998H286.912V434.842ZM286.912 473.687H248.067V434.842H286.912V473.687ZM248.067 395.998H209.223V357.153H248.067V395.998ZM248.067 434.842H209.223V395.998H248.067V434.842ZM248.067 473.687H209.223V434.842H248.067V473.687ZM209.223 395.998H170.378V357.153H209.223V395.998ZM209.223 434.842H170.378V395.998H209.223V434.842ZM209.223 473.687H170.378V434.842H209.223V473.687ZM170.378 395.998H131.534V357.153H170.378V395.998ZM170.378 434.842H131.534V395.998H170.378V434.842ZM170.378 473.687H131.534V434.842H170.378V473.687ZM131.534 395.998H92.689V357.153H131.534V395.998ZM131.534 434.842H92.689V395.998H131.534V434.842ZM131.534 473.687H92.689V434.842H131.534V473.687ZM92.689 395.998H53.8445V357.153H92.689V395.998ZM92.689 434.842H53.8445V395.998H92.689V434.842ZM92.689 473.687H53.8445V434.842H92.689V473.687ZM53.8445 395.998H15V357.153H53.8445V395.998ZM53.8445 434.842H15V395.998H53.8445V434.842ZM53.8445 473.687H15V434.842H53.8445V473.687Z" stroke="#DADADA" stroke-width="0.521524" stroke-miterlimit="10"/>
<path d="M924.609 416.049L948.671 415.555" stroke="#E5007D" stroke-width="0.899179" stroke-miterlimit="10"/>
<path d="M947.447 420.06L955.117 415.42L947.268 411.095L947.447 420.06Z" fill="#E5007D"/>
<g filter="url(#filter6_d_432_2111)">
<path d="M955.127 639.873H15V523.339H955.127V639.873ZM947.268 473.687H15V357.153H947.268V473.687Z" stroke="#E5007D" stroke-width="1.07901" stroke-miterlimit="10" shape-rendering="crispEdges"/>
</g>
<g filter="url(#filter7_d_432_2111)">
<path d="M1294.82 35.8867H985.527V586.022H1294.82V35.8867Z" fill="white"/>
</g>
<g filter="url(#filter8_d_432_2111)">
<path d="M1628 37.8193H1318.71V587.955H1628V37.8193Z" fill="white"/>
</g>
<path d="M1628 587.945H1576.45V542.051H1628V587.945ZM1628 542.06H1576.45V496.166H1628V542.06ZM1628 496.166H1576.45V450.272H1628V496.166ZM1576.45 587.945H1524.9V542.051H1576.45V587.945ZM1576.45 542.06H1524.9V496.166H1576.45V542.06ZM1576.45 496.166H1524.9V450.272H1576.45V496.166ZM1524.9 587.945H1473.35V542.051H1524.9V587.945ZM1524.9 542.06H1473.35V496.166H1524.9V542.06ZM1524.9 496.166H1473.35V450.272H1524.9V496.166ZM1473.35 587.945H1421.8V542.051H1473.35V587.945ZM1473.35 542.06H1421.8V496.166H1473.35V542.06ZM1473.35 496.166H1421.8V450.272H1473.35V496.166ZM1421.8 587.945H1370.25V542.051H1421.8V587.945ZM1421.8 542.06H1370.25V496.166H1421.8V542.06ZM1421.8 496.166H1370.25V450.272H1421.8V496.166ZM1370.25 587.945H1318.7V542.051H1370.25V587.945ZM1370.25 542.06H1318.7V496.166H1370.25V542.06ZM1370.25 496.166H1318.7V450.272H1370.25V496.166ZM1628 450.461H1576.45V404.567H1628V450.461ZM1628 404.567H1576.45V358.673H1628V404.567ZM1628 358.673H1576.45V312.779H1628V358.673ZM1576.45 450.452H1524.9V404.558H1576.45V450.452ZM1576.45 404.558H1524.9V358.664H1576.45V404.558ZM1576.45 358.664H1524.9V312.77H1576.45V358.664ZM1524.9 450.443H1473.35V404.549H1524.9V450.443ZM1524.9 404.549H1473.35V358.655H1524.9V404.549ZM1524.9 358.655H1473.35V312.761H1524.9V358.655ZM1473.35 450.434H1421.8V404.54H1473.35V450.434ZM1473.35 404.54H1421.8V358.646H1473.35V404.54ZM1473.35 358.646H1421.8V312.752H1473.35V358.646ZM1421.8 450.425H1370.25V404.531H1421.8V450.425ZM1421.8 404.531H1370.25V358.637H1421.8V404.531ZM1421.8 358.637H1370.25V312.743H1421.8V358.637ZM1370.25 450.416H1318.7V404.522H1370.25V450.416ZM1370.25 404.522H1318.7V358.628H1370.25V404.522ZM1370.25 358.628H1318.7V312.734H1370.25V358.628ZM1628 312.923H1576.45V267.029H1628V312.923ZM1628 267.029H1576.45V221.135H1628V267.029ZM1628 221.135H1576.45V175.24H1628V221.135ZM1576.45 312.914H1524.9V267.02H1576.45V312.914ZM1576.45 267.02H1524.9V221.126H1576.45V267.02ZM1576.45 221.126H1524.9V175.231H1576.45V221.126ZM1524.9 312.905H1473.35V267.011H1524.9V312.905ZM1524.9 267.011H1473.35V221.117H1524.9V267.011ZM1524.9 221.117H1473.35V175.222H1524.9V221.117ZM1473.35 312.896H1421.8V267.002H1473.35V312.896ZM1473.35 267.002H1421.8V221.108H1473.35V267.002ZM1473.35 221.108H1421.8V175.213H1473.35V221.108ZM1421.8 312.887H1370.25V266.993H1421.8V312.887ZM1421.8 266.993H1370.25V221.099H1421.8V266.993ZM1421.8 221.099H1370.25V175.204H1421.8V221.099ZM1370.25 312.878H1318.7V266.984H1370.25V312.878ZM1370.25 266.984H1318.7V221.09H1370.25V266.984ZM1370.25 221.09H1318.7V175.195H1370.25V221.09ZM1628 175.384H1576.45V129.49H1628V175.384ZM1628 129.49H1576.45V83.5962H1628V129.49ZM1628 83.5962H1576.45V37.7021H1628V83.5962ZM1576.45 175.375H1524.9V129.481H1576.45V175.375ZM1576.45 129.481H1524.9V83.5872H1576.45V129.481ZM1576.45 83.5872H1524.9V37.6931H1576.45V83.5872ZM1524.9 175.366H1473.35V129.472H1524.9V175.366ZM1524.9 129.472H1473.35V83.5782H1524.9V129.472ZM1524.9 83.5782H1473.35V37.6841H1524.9V83.5782ZM1473.35 175.357H1421.8V129.463H1473.35V175.357ZM1473.35 129.463H1421.8V83.5692H1473.35V129.463ZM1473.35 83.5692H1421.8V37.6751H1473.35V83.5692ZM1421.8 175.348H1370.25V129.454H1421.8V175.348ZM1421.8 129.454H1370.25V83.5602H1421.8V129.454ZM1421.8 83.5602H1370.25V37.6661H1421.8V83.5602ZM1370.25 175.339H1318.7V129.445H1370.25V175.339ZM1370.25 129.445H1318.7V83.5512H1370.25V129.445ZM1370.25 83.5512H1318.7V37.6571H1370.25V83.5512ZM1260.86 585.859H1214.97V539.965H1260.86V585.859ZM1260.86 539.965H1214.97V494.071H1260.86V539.965ZM1260.86 494.071H1214.97V448.177H1260.86V494.071ZM1214.97 585.85H1169.08V539.956H1214.97V585.85ZM1214.97 539.956H1169.08V494.062H1214.97V539.956ZM1214.97 494.062H1169.08V448.168H1214.97V494.062ZM1169.08 585.841H1123.18V539.947H1169.08V585.841ZM1169.08 539.947H1123.18V494.053H1169.08V539.947ZM1169.08 494.053H1123.18V448.159H1169.08V494.053ZM1123.18 585.832H1077.29V539.938H1123.18V585.832ZM1123.18 539.938H1077.29V494.044H1123.18V539.938ZM1123.18 494.044H1077.29V448.15H1123.18V494.044ZM1077.29 585.823H1031.39V539.929H1077.29V585.823ZM1077.29 539.929H1031.39V494.035H1077.29V539.929ZM1077.29 494.035H1031.39V448.141H1077.29V494.035ZM1031.4 585.814H985.509V539.92H1031.4V585.814ZM1031.4 539.92H985.509V494.026H1031.4V539.92ZM1031.4 494.026H985.509V448.132H1031.4V494.026ZM1260.86 448.321H1214.96V402.427H1260.86V448.321ZM1260.86 402.427H1214.96V356.533H1260.86V402.427ZM1260.86 356.533H1214.96V310.639H1260.86V356.533ZM1214.96 448.312H1169.07V402.418H1214.96V448.312ZM1214.96 402.418H1169.07V356.524H1214.96V402.418ZM1214.96 356.524H1169.07V310.63H1214.96V356.524ZM1169.07 448.303H1123.17V402.409H1169.07V448.303ZM1169.07 402.409H1123.17V356.515H1169.07V402.409ZM1169.07 356.515H1123.17V310.621H1169.07V356.515ZM1123.17 448.294H1077.28V402.4H1123.17V448.294ZM1123.17 402.4H1077.28V356.506H1123.17V402.4ZM1123.17 356.506H1077.28V310.612H1123.17V356.506ZM1077.28 448.285H1031.39V402.391H1077.28V448.285ZM1077.28 402.391H1031.39V356.497H1077.28V402.391ZM1077.28 356.497H1031.39V310.603H1077.28V356.497ZM1031.39 448.276H985.5V402.382H1031.39V448.276ZM1031.39 402.382H985.5V356.488H1031.39V402.382ZM1031.39 356.488H985.5V310.594H1031.39V356.488ZM1260.85 310.783H1214.95V264.889H1260.85V310.783ZM1260.85 264.898H1214.95V219.003H1260.85V264.898ZM1260.85 219.003H1214.95V173.109H1260.85V219.003ZM1214.95 310.783H1169.06V264.889H1214.95V310.783ZM1214.95 264.898H1169.06V219.003H1214.95V264.898ZM1214.95 219.003H1169.06V173.109H1214.95V219.003ZM1169.06 310.783H1123.16V264.889H1169.06V310.783ZM1169.06 264.898H1123.16V219.003H1169.06V264.898ZM1169.06 219.003H1123.16V173.109H1169.06V219.003ZM1123.16 310.783H1077.27V264.889H1123.16V310.783ZM1123.16 264.898H1077.27V219.003H1123.16V264.898ZM1123.16 219.003H1077.27V173.109H1123.16V219.003ZM1077.27 310.783H1031.38V264.889H1077.27V310.783ZM1077.27 264.898H1031.38V219.003H1077.27V264.898ZM1077.27 219.003H1031.38V173.109H1077.27V219.003ZM1031.39 310.783H985.491V264.889H1031.39V310.783ZM1031.39 264.898H985.491V219.003H1031.39V264.898ZM1031.39 219.003H985.491V173.109H1031.39V219.003ZM1260.84 173.298H1214.94V127.404H1260.84V173.298ZM1260.84 127.413H1214.94V81.519H1260.84V127.413ZM1260.84 81.519H1214.94V35.625H1260.84V81.519ZM1214.94 173.298H1169.05V127.404H1214.94V173.298ZM1214.94 127.413H1169.05V81.519H1214.94V127.413ZM1214.94 81.519H1169.05V35.625H1214.94V81.519ZM1169.05 173.298H1123.16V127.404H1169.05V173.298ZM1169.05 127.413H1123.16V81.519H1169.05V127.413ZM1169.05 81.519H1123.16V35.625H1169.05V81.519ZM1123.16 173.298H1077.26V127.404H1123.16V173.298ZM1123.16 127.413H1077.26V81.519H1123.16V127.413ZM1123.16 81.519H1077.26V35.625H1123.16V81.519ZM1077.26 173.298H1031.37V127.404H1077.26V173.298ZM1077.26 127.413H1031.37V81.519H1077.26V127.413ZM1077.26 81.519H1031.37V35.625H1077.26V81.519ZM1031.38 173.298H985.482V127.404H1031.38V173.298ZM1031.38 127.413H985.482V81.519H1031.38V127.413ZM1031.38 81.519H985.482V35.625H1031.38V81.519Z" stroke="#DADADA" stroke-width="1.34877" stroke-miterlimit="10"/>
<path d="M1256.37 345.374H1273.73" stroke="#E5007D" stroke-width="0.899179" stroke-miterlimit="10"/>
<path d="M1272.42 349.853L1280.19 345.375L1272.42 340.888V349.853Z" fill="#E5007D"/>
<g filter="url(#filter9_d_432_2111)">
<path d="M1628 587.946H1318.71V37.8199H1628V587.946ZM1260.86 586.013H985.527V35.8867H1260.86V586.022V586.013Z" stroke="#E5007D" stroke-width="0.899179" stroke-miterlimit="10" shape-rendering="crispEdges"/>
</g>
<defs>
<filter id="filter0_d_432_2111" x="0.613144" y="23.0731" width="641.942" height="113.656" filterUnits="userSpaceOnUse" color-interpolation-filters="sRGB">
<feFlood flood-opacity="0" result="BackgroundImageFix"/>
<feColorMatrix in="SourceAlpha" type="matrix" values="0 0 0 0 0 0 0 0 0 0 0 0 0 0 0 0 0 0 127 0" result="hardAlpha"/>
<feOffset dx="3.59671" dy="3.59671"/>
<feGaussianBlur stdDeviation="8.99179"/>
<feComposite in2="hardAlpha" operator="out"/>
<feColorMatrix type="matrix" values="0 0 0 0 0 0 0 0 0 0 0 0 0 0 0 0 0 0 0.1 0"/>
<feBlend mode="normal" in2="BackgroundImageFix" result="effect1_dropShadow_432_2111"/>
<feBlend mode="normal" in="SourceGraphic" in2="effect1_dropShadow_432_2111" result="shape"/>
</filter>
<filter id="filter1_d_432_2111" x="0.613144" y="134.517" width="641.942" height="113.656" filterUnits="userSpaceOnUse" color-interpolation-filters="sRGB">
<feFlood flood-opacity="0" result="BackgroundImageFix"/>
<feColorMatrix in="SourceAlpha" type="matrix" values="0 0 0 0 0 0 0 0 0 0 0 0 0 0 0 0 0 0 127 0" result="hardAlpha"/>
<feOffset dx="3.59671" dy="3.59671"/>
<feGaussianBlur stdDeviation="8.99179"/>
<feComposite in2="hardAlpha" operator="out"/>
<feColorMatrix type="matrix" values="0 0 0 0 0 0 0 0 0 0 0 0 0 0 0 0 0 0 0.1 0"/>
<feBlend mode="normal" in2="BackgroundImageFix" result="effect1_dropShadow_432_2111"/>
<feBlend mode="normal" in="SourceGraphic" in2="effect1_dropShadow_432_2111" result="shape"/>
</filter>
<filter id="filter2_d_432_2111" x="11.228" y="148.728" width="613.501" height="85.2331" filterUnits="userSpaceOnUse" color-interpolation-filters="sRGB">
<feFlood flood-opacity="0" result="BackgroundImageFix"/>
<feColorMatrix in="SourceAlpha" type="matrix" values="0 0 0 0 0 0 0 0 0 0 0 0 0 0 0 0 0 0 127 0" result="hardAlpha"/>
<feOffset dy="3.59671"/>
<feGaussianBlur stdDeviation="1.79836"/>
<feComposite in2="hardAlpha" operator="out"/>
<feColorMatrix type="matrix" values="0 0 0 0 0 0 0 0 0 0 0 0 0 0 0 0 0 0 0.25 0"/>
<feBlend mode="normal" in2="BackgroundImageFix" result="effect1_dropShadow_432_2111"/>
<feBlend mode="normal" in="SourceGraphic" in2="effect1_dropShadow_432_2111" result="shape"/>
</filter>
<filter id="filter3_d_432_2111" x="0.0735931" y="22.5336" width="643.021" height="226.179" filterUnits="userSpaceOnUse" color-interpolation-filters="sRGB">
<feFlood flood-opacity="0" result="BackgroundImageFix"/>
<feColorMatrix in="SourceAlpha" type="matrix" values="0 0 0 0 0 0 0 0 0 0 0 0 0 0 0 0 0 0 127 0" result="hardAlpha"/>
<feOffset dx="3.59671" dy="3.59671"/>
<feGaussianBlur stdDeviation="8.99179"/>
<feComposite in2="hardAlpha" operator="out"/>
<feColorMatrix type="matrix" values="0 0 0 0 0 0 0 0 0 0 0 0 0 0 0 0 0 0 0.1 0"/>
<feBlend mode="normal" in2="BackgroundImageFix" result="effect1_dropShadow_432_2111"/>
<feBlend mode="normal" in="SourceGraphic" in2="effect1_dropShadow_432_2111" result="shape"/>
</filter>
<filter id="filter4_d_432_2111" x="0.613144" y="342.766" width="976.085" height="152.501" filterUnits="userSpaceOnUse" color-interpolation-filters="sRGB">
<feFlood flood-opacity="0" result="BackgroundImageFix"/>
<feColorMatrix in="SourceAlpha" type="matrix" values="0 0 0 0 0 0 0 0 0 0 0 0 0 0 0 0 0 0 127 0" result="hardAlpha"/>
<feOffset dx="3.59671" dy="3.59671"/>
<feGaussianBlur stdDeviation="8.99179"/>
<feComposite in2="hardAlpha" operator="out"/>
<feColorMatrix type="matrix" values="0 0 0 0 0 0 0 0 0 0 0 0 0 0 0 0 0 0 0.1 0"/>
<feBlend mode="normal" in2="BackgroundImageFix" result="effect1_dropShadow_432_2111"/>
<feBlend mode="normal" in="SourceGraphic" in2="effect1_dropShadow_432_2111" result="shape"/>
</filter>
<filter id="filter5_d_432_2111" x="0.613144" y="508.944" width="976.085" height="152.501" filterUnits="userSpaceOnUse" color-interpolation-filters="sRGB">
<feFlood flood-opacity="0" result="BackgroundImageFix"/>
<feColorMatrix in="SourceAlpha" type="matrix" values="0 0 0 0 0 0 0 0 0 0 0 0 0 0 0 0 0 0 127 0" result="hardAlpha"/>
<feOffset dx="3.59671" dy="3.59671"/>
<feGaussianBlur stdDeviation="8.99179"/>
<feComposite in2="hardAlpha" operator="out"/>
<feColorMatrix type="matrix" values="0 0 0 0 0 0 0 0 0 0 0 0 0 0 0 0 0 0 0.1 0"/>
<feBlend mode="normal" in2="BackgroundImageFix" result="effect1_dropShadow_432_2111"/>
<feBlend mode="normal" in="SourceGraphic" in2="effect1_dropShadow_432_2111" result="shape"/>
</filter>
<filter id="filter6_d_432_2111" x="0.0735931" y="342.227" width="977.173" height="319.766" filterUnits="userSpaceOnUse" color-interpolation-filters="sRGB">
<feFlood flood-opacity="0" result="BackgroundImageFix"/>
<feColorMatrix in="SourceAlpha" type="matrix" values="0 0 0 0 0 0 0 0 0 0 0 0 0 0 0 0 0 0 127 0" result="hardAlpha"/>
<feOffset dx="3.59671" dy="3.59671"/>
<feGaussianBlur stdDeviation="8.99179"/>
<feComposite in2="hardAlpha" operator="out"/>
<feColorMatrix type="matrix" values="0 0 0 0 0 0 0 0 0 0 0 0 0 0 0 0 0 0 0.1 0"/>
<feBlend mode="normal" in2="BackgroundImageFix" result="effect1_dropShadow_432_2111"/>
<feBlend mode="normal" in="SourceGraphic" in2="effect1_dropShadow_432_2111" result="shape"/>
</filter>
<filter id="filter7_d_432_2111" x="971.14" y="21.4999" width="345.258" height="586.103" filterUnits="userSpaceOnUse" color-interpolation-filters="sRGB">
<feFlood flood-opacity="0" result="BackgroundImageFix"/>
<feColorMatrix in="SourceAlpha" type="matrix" values="0 0 0 0 0 0 0 0 0 0 0 0 0 0 0 0 0 0 127 0" result="hardAlpha"/>
<feOffset dx="3.59671" dy="3.59671"/>
<feGaussianBlur stdDeviation="8.99179"/>
<feComposite in2="hardAlpha" operator="out"/>
<feColorMatrix type="matrix" values="0 0 0 0 0 0 0 0 0 0 0 0 0 0 0 0 0 0 0.1 0"/>
<feBlend mode="normal" in2="BackgroundImageFix" result="effect1_dropShadow_432_2111"/>
<feBlend mode="normal" in="SourceGraphic" in2="effect1_dropShadow_432_2111" result="shape"/>
</filter>
<filter id="filter8_d_432_2111" x="1304.32" y="23.4325" width="345.258" height="586.103" filterUnits="userSpaceOnUse" color-interpolation-filters="sRGB">
<feFlood flood-opacity="0" result="BackgroundImageFix"/>
<feColorMatrix in="SourceAlpha" type="matrix" values="0 0 0 0 0 0 0 0 0 0 0 0 0 0 0 0 0 0 127 0" result="hardAlpha"/>
<feOffset dx="3.59671" dy="3.59671"/>
<feGaussianBlur stdDeviation="8.99179"/>
<feComposite in2="hardAlpha" operator="out"/>
<feColorMatrix type="matrix" values="0 0 0 0 0 0 0 0 0 0 0 0 0 0 0 0 0 0 0.1 0"/>
<feBlend mode="normal" in2="BackgroundImageFix" result="effect1_dropShadow_432_2111"/>
<feBlend mode="normal" in="SourceGraphic" in2="effect1_dropShadow_432_2111" result="shape"/>
</filter>
<filter id="filter9_d_432_2111" x="970.691" y="21.0503" width="679.339" height="588.926" filterUnits="userSpaceOnUse" color-interpolation-filters="sRGB">
<feFlood flood-opacity="0" result="BackgroundImageFix"/>
<feColorMatrix in="SourceAlpha" type="matrix" values="0 0 0 0 0 0 0 0 0 0 0 0 0 0 0 0 0 0 127 0" result="hardAlpha"/>
<feOffset dx="3.59671" dy="3.59671"/>
<feGaussianBlur stdDeviation="8.99179"/>
<feComposite in2="hardAlpha" operator="out"/>
<feColorMatrix type="matrix" values="0 0 0 0 0 0 0 0 0 0 0 0 0 0 0 0 0 0 0.1 0"/>
<feBlend mode="normal" in2="BackgroundImageFix" result="effect1_dropShadow_432_2111"/>
<feBlend mode="normal" in="SourceGraphic" in2="effect1_dropShadow_432_2111" result="shape"/>
</filter>
</defs>
</svg>
