<svg viewBox="0 0 351 349" fill="none" xmlns="http://www.w3.org/2000/svg">
<path d="M232.543 28.2139H24.1523V323.081H232.543V28.2139Z" fill="#FAFAFA"/>
<path d="M58.9414 28.0386V323.256" stroke="#999999" stroke-width="0.17533"/>
<path d="M93.7344 28.0386V323.256" stroke="#999999" stroke-width="0.17533"/>
<path d="M128.168 28.0386V323.256" stroke="#999999" stroke-width="0.17533"/>
<path d="M162.965 28.0386V323.256" stroke="#999999" stroke-width="0.17533"/>
<path d="M197.754 28.0386V323.256" stroke="#999999" stroke-width="0.17533"/>
<path d="M232.71 60.6646H23.9688" stroke="#999999" stroke-width="0.17533"/>
<path d="M232.71 93.4688H23.9688" stroke="#999999" stroke-width="0.17533"/>
<path d="M232.71 126.62H23.9688" stroke="#999999" stroke-width="0.17533"/>
<path d="M232.71 159.07H23.9688" stroke="#999999" stroke-width="0.17533"/>
<path d="M232.71 191.874H23.9688" stroke="#999999" stroke-width="0.17533"/>
<path d="M232.71 224.675H23.9688" stroke="#999999" stroke-width="0.17533"/>
<path d="M232.71 257.827H23.9688" stroke="#999999" stroke-width="0.17533"/>
<path d="M232.71 290.631H23.9688" stroke="#999999" stroke-width="0.17533"/>
<path d="M222.106 38.6494H34.5898V312.642H222.106V38.6494Z" stroke="#E6007E" stroke-width="0.350661"/>
<path d="M226.463 0.759127L227.242 2.00116L228.021 0.759127H228.522L227.498 2.36398L228.546 4H228.041L227.242 2.73348L226.443 4H225.938L226.986 2.36398L225.962 0.759127H226.463Z" fill="#E6007E"/>
<path d="M244.803 31.3402L245.582 32.5822L246.361 31.3402H246.862L245.838 32.945L246.886 34.5811H246.381L245.582 33.3145L244.783 34.5811H244.278L245.326 32.945L244.302 31.3402H244.803Z" fill="#E6007E"/>
<path d="M222.109 1.0376V51.5328" stroke="#E6007E" stroke-width="0.350661"/>
<path d="M232.516 1.0376V51.5328" stroke="#E6007E" stroke-width="0.350661"/>
<path d="M217.266 38.6528H248.474" stroke="#E6007E" stroke-width="0.350661"/>
<path d="M217.266 28.2139H248.474" stroke="#E6007E" stroke-width="0.350661"/>
<path d="M235.601 332.745H24.2227" stroke="#00C3FF" stroke-width="0.350661"/>
<path d="M235.602 331.957V333.535" stroke="#00C3FF" stroke-width="0.350661"/>
<path d="M24.2227 331.957V333.535" stroke="#00C3FF" stroke-width="0.350661"/>
<path d="M15.6133 322.909V28.2139" stroke="#00C3FF" stroke-width="0.350661"/>
<path d="M16.4022 322.909H14.8242" stroke="#00C3FF" stroke-width="0.350661"/>
<path d="M16.4022 28.2139H14.8242" stroke="#00C3FF" stroke-width="0.350661"/>
<path d="M238.477 224.725V322.84" stroke="#00C3FF" stroke-width="0.350661"/>
<path d="M237.691 224.725H239.269" stroke="#00C3FF" stroke-width="0.350661"/>
<path d="M237.691 322.839H239.269" stroke="#00C3FF" stroke-width="0.350661"/>
<path d="M232.684 224.55H128.188V323.015H232.684V224.55Z" stroke="#00C3FF" stroke-width="0.350661"/>
<path d="M255.664 63.1367V71.668H254.053V64.4082H250.443V71.668H248.832V63.1367H255.664ZM261.465 65.3281V66.5527H258.359V65.3281H261.465ZM262.631 65.3281V71.668H261.084V65.3281H262.631ZM257.973 65.3281H259.502L259.332 68.4922C259.305 68.957 259.256 69.3652 259.186 69.7168C259.115 70.0645 259.021 70.3633 258.904 70.6133C258.787 70.8594 258.645 71.0605 258.477 71.2168C258.309 71.373 258.113 71.4883 257.891 71.5625C257.672 71.6328 257.426 71.668 257.152 71.668H256.678L256.66 70.4199L256.883 70.4023C257.02 70.3906 257.137 70.3535 257.234 70.291C257.336 70.2285 257.422 70.1387 257.492 70.0215C257.566 69.9043 257.627 69.7539 257.674 69.5703C257.725 69.3828 257.764 69.1641 257.791 68.9141C257.822 68.6602 257.844 68.3672 257.855 68.0352L257.973 65.3281ZM263.773 68.5625V68.4395C263.773 67.9746 263.84 67.5469 263.973 67.1562C264.105 66.7617 264.299 66.4199 264.553 66.1309C264.807 65.8418 265.117 65.6172 265.484 65.457C265.852 65.293 266.27 65.2109 266.738 65.2109C267.215 65.2109 267.637 65.293 268.004 65.457C268.375 65.6172 268.688 65.8418 268.941 66.1309C269.195 66.4199 269.389 66.7617 269.521 67.1562C269.654 67.5469 269.721 67.9746 269.721 68.4395V68.5625C269.721 69.0234 269.654 69.4512 269.521 69.8457C269.389 70.2363 269.195 70.5781 268.941 70.8711C268.688 71.1602 268.377 71.3848 268.01 71.5449C267.643 71.7051 267.223 71.7852 266.75 71.7852C266.281 71.7852 265.861 71.7051 265.49 71.5449C265.119 71.3848 264.807 71.1602 264.553 70.8711C264.299 70.5781 264.105 70.2363 263.973 69.8457C263.84 69.4512 263.773 69.0234 263.773 68.5625ZM265.32 68.4395V68.5625C265.32 68.8398 265.348 69.0996 265.402 69.3418C265.457 69.584 265.541 69.7969 265.654 69.9805C265.768 70.1641 265.914 70.3086 266.094 70.4141C266.277 70.5156 266.496 70.5664 266.75 70.5664C267 70.5664 267.215 70.5156 267.395 70.4141C267.574 70.3086 267.721 70.1641 267.834 69.9805C267.951 69.7969 268.037 69.584 268.092 69.3418C268.146 69.0996 268.174 68.8398 268.174 68.5625V68.4395C268.174 68.166 268.146 67.9102 268.092 67.6719C268.037 67.4297 267.951 67.2168 267.834 67.0332C267.721 66.8457 267.572 66.6992 267.389 66.5938C267.209 66.4844 266.992 66.4297 266.738 66.4297C266.488 66.4297 266.273 66.4844 266.094 66.5938C265.914 66.6992 265.768 66.8457 265.654 67.0332C265.541 67.2168 265.457 67.4297 265.402 67.6719C265.348 67.9102 265.32 68.166 265.32 68.4395ZM280.438 70.4551L280.326 73.5488H278.891V71.668H278.152V70.4551H280.438ZM270.834 65.3281H272.381V70.4492H274.268V65.3281H275.82V70.4492H277.701V65.3281H279.254V71.668H270.834V65.3281ZM284.955 70.3203V67.3965C284.955 67.1816 284.918 66.9961 284.844 66.8398C284.77 66.6836 284.656 66.5625 284.504 66.4766C284.352 66.3906 284.158 66.3477 283.924 66.3477C283.717 66.3477 283.535 66.3828 283.379 66.4531C283.227 66.5234 283.109 66.623 283.027 66.752C282.945 66.877 282.904 67.0215 282.904 67.1855H281.352C281.352 66.9238 281.414 66.6758 281.539 66.4414C281.664 66.2031 281.842 65.9922 282.072 65.8086C282.307 65.6211 282.586 65.4746 282.91 65.3691C283.238 65.2637 283.605 65.2109 284.012 65.2109C284.492 65.2109 284.92 65.293 285.295 65.457C285.674 65.6172 285.971 65.8594 286.186 66.1836C286.404 66.5078 286.514 66.916 286.514 67.4082V70.1738C286.514 70.4902 286.533 70.7617 286.572 70.9883C286.615 71.2109 286.678 71.4043 286.76 71.5684V71.668H285.184C285.109 71.5078 285.053 71.3047 285.014 71.0586C284.975 70.8086 284.955 70.5625 284.955 70.3203ZM285.172 67.8066L285.184 68.7266H284.205C283.963 68.7266 283.75 68.752 283.566 68.8027C283.383 68.8496 283.232 68.9199 283.115 69.0137C282.998 69.1035 282.91 69.2129 282.852 69.3418C282.793 69.4668 282.764 69.6094 282.764 69.7695C282.764 69.9258 282.799 70.0664 282.869 70.1914C282.943 70.3164 283.049 70.416 283.186 70.4902C283.326 70.5605 283.49 70.5957 283.678 70.5957C283.951 70.5957 284.189 70.541 284.393 70.4316C284.596 70.3184 284.754 70.1816 284.867 70.0215C284.98 69.8613 285.041 69.709 285.049 69.5645L285.494 70.2324C285.439 70.3926 285.357 70.5625 285.248 70.7422C285.139 70.9219 284.998 71.0898 284.826 71.2461C284.654 71.4023 284.447 71.5312 284.205 71.6328C283.963 71.7344 283.682 71.7852 283.361 71.7852C282.951 71.7852 282.584 71.7031 282.26 71.5391C281.936 71.375 281.68 71.1504 281.492 70.8652C281.305 70.5801 281.211 70.2559 281.211 69.8926C281.211 69.5566 281.273 69.2598 281.398 69.002C281.523 68.7441 281.709 68.5273 281.955 68.3516C282.201 68.1719 282.506 68.0371 282.869 67.9473C283.236 67.8535 283.656 67.8066 284.129 67.8066H285.172ZM289.051 65.3281H290.598L290.539 67.5078C290.52 68.168 290.441 68.7383 290.305 69.2188C290.172 69.6953 289.994 70.0957 289.771 70.4199C289.553 70.7441 289.303 71.0059 289.021 71.2051C288.744 71.4043 288.453 71.5586 288.148 71.668H287.779L287.773 70.4609L287.955 70.4492C288.139 70.2539 288.293 70.0625 288.418 69.875C288.547 69.6836 288.65 69.4785 288.729 69.2598C288.807 69.041 288.865 68.791 288.904 68.5098C288.947 68.2246 288.975 67.8906 288.986 67.5078L289.051 65.3281ZM289.467 65.3281H293.574V71.668H292.027V66.5996H289.467V65.3281ZM287.428 70.4492H294.459V73.5664H292.912V71.668H289.004V73.5664H287.422L287.428 70.4492ZM296.451 67.2793H298.303C298.865 67.2793 299.344 67.373 299.738 67.5605C300.137 67.7441 300.439 68.002 300.646 68.334C300.857 68.6621 300.963 69.043 300.963 69.4766C300.963 69.7891 300.902 70.0801 300.781 70.3496C300.664 70.6152 300.492 70.8477 300.266 71.0469C300.039 71.2422 299.76 71.3945 299.428 71.5039C299.1 71.6133 298.725 71.668 298.303 71.668H295.455V65.3281H297.008V70.4551H298.303C298.572 70.4551 298.787 70.4102 298.947 70.3203C299.111 70.2266 299.229 70.1074 299.299 69.9629C299.373 69.8145 299.41 69.6562 299.41 69.4883C299.41 69.3164 299.373 69.1562 299.299 69.0078C299.229 68.8555 299.111 68.7324 298.947 68.6387C298.787 68.5449 298.572 68.498 298.303 68.498H296.451V67.2793ZM309.324 67.9297V69.1426H306.072V67.9297H309.324ZM306.559 65.3281V71.668H305.006V65.3281H306.559ZM310.408 65.3281V71.668H308.85V65.3281H310.408ZM315.307 70.3203V67.3965C315.307 67.1816 315.27 66.9961 315.195 66.8398C315.121 66.6836 315.008 66.5625 314.855 66.4766C314.703 66.3906 314.51 66.3477 314.275 66.3477C314.068 66.3477 313.887 66.3828 313.73 66.4531C313.578 66.5234 313.461 66.623 313.379 66.752C313.297 66.877 313.256 67.0215 313.256 67.1855H311.703C311.703 66.9238 311.766 66.6758 311.891 66.4414C312.016 66.2031 312.193 65.9922 312.424 65.8086C312.658 65.6211 312.938 65.4746 313.262 65.3691C313.59 65.2637 313.957 65.2109 314.363 65.2109C314.844 65.2109 315.271 65.293 315.646 65.457C316.025 65.6172 316.322 65.8594 316.537 66.1836C316.756 66.5078 316.865 66.916 316.865 67.4082V70.1738C316.865 70.4902 316.885 70.7617 316.924 70.9883C316.967 71.2109 317.029 71.4043 317.111 71.5684V71.668H315.535C315.461 71.5078 315.404 71.3047 315.365 71.0586C315.326 70.8086 315.307 70.5625 315.307 70.3203ZM315.523 67.8066L315.535 68.7266H314.557C314.314 68.7266 314.102 68.752 313.918 68.8027C313.734 68.8496 313.584 68.9199 313.467 69.0137C313.35 69.1035 313.262 69.2129 313.203 69.3418C313.145 69.4668 313.115 69.6094 313.115 69.7695C313.115 69.9258 313.15 70.0664 313.221 70.1914C313.295 70.3164 313.4 70.416 313.537 70.4902C313.678 70.5605 313.842 70.5957 314.029 70.5957C314.303 70.5957 314.541 70.541 314.744 70.4316C314.947 70.3184 315.105 70.1816 315.219 70.0215C315.332 69.8613 315.393 69.709 315.4 69.5645L315.846 70.2324C315.791 70.3926 315.709 70.5625 315.6 70.7422C315.49 70.9219 315.35 71.0898 315.178 71.2461C315.006 71.4023 314.799 71.5312 314.557 71.6328C314.314 71.7344 314.033 71.7852 313.713 71.7852C313.303 71.7852 312.936 71.7031 312.611 71.5391C312.287 71.375 312.031 71.1504 311.844 70.8652C311.656 70.5801 311.562 70.2559 311.562 69.8926C311.562 69.5566 311.625 69.2598 311.75 69.002C311.875 68.7441 312.061 68.5273 312.307 68.3516C312.553 68.1719 312.857 68.0371 313.221 67.9473C313.588 67.8535 314.008 67.8066 314.48 67.8066H315.523ZM322.186 62.5449H323.439C323.439 62.877 323.396 63.1562 323.311 63.3828C323.225 63.6055 323.092 63.793 322.912 63.9453C322.732 64.0938 322.502 64.2168 322.221 64.3145C321.939 64.4121 321.604 64.498 321.213 64.5723C320.885 64.6387 320.596 64.748 320.346 64.9004C320.096 65.0527 319.887 65.2617 319.719 65.5273C319.555 65.793 319.436 66.1309 319.361 66.541C319.287 66.9512 319.264 67.4453 319.291 68.0234V68.3633L318.078 68.5039V68.1641C318.078 67.4102 318.146 66.7539 318.283 66.1953C318.42 65.6328 318.613 65.1602 318.863 64.7773C319.113 64.3906 319.412 64.084 319.76 63.8574C320.111 63.627 320.504 63.4648 320.938 63.3711C321.227 63.3125 321.463 63.252 321.646 63.1895C321.834 63.127 321.971 63.0469 322.057 62.9492C322.143 62.8477 322.186 62.7129 322.186 62.5449ZM321.318 65.6855C321.744 65.6855 322.121 65.7598 322.449 65.9082C322.781 66.0527 323.061 66.2578 323.287 66.5234C323.514 66.7852 323.686 67.0957 323.803 67.4551C323.924 67.8105 323.984 68.1992 323.984 68.6211V68.7441C323.984 69.1816 323.918 69.5859 323.785 69.957C323.656 70.3281 323.467 70.6504 323.217 70.9238C322.967 71.1973 322.658 71.4102 322.291 71.5625C321.924 71.7148 321.504 71.791 321.031 71.791C320.562 71.791 320.145 71.7109 319.777 71.5508C319.41 71.3867 319.1 71.1602 318.846 70.8711C318.592 70.582 318.4 70.2422 318.271 69.8516C318.143 69.457 318.078 69.0273 318.078 68.5625V68.4395C318.074 68.3613 318.1 68.2871 318.154 68.2168C318.209 68.1465 318.273 68.0684 318.348 67.9824C318.426 67.8965 318.496 67.793 318.559 67.6719C318.773 67.2578 319.016 66.9023 319.285 66.6055C319.559 66.3086 319.863 66.082 320.199 65.9258C320.535 65.7656 320.908 65.6855 321.318 65.6855ZM321.02 66.9043C320.688 66.9043 320.418 66.9844 320.211 67.1445C320.008 67.3008 319.859 67.5098 319.766 67.7715C319.672 68.0293 319.625 68.3125 319.625 68.6211V68.7441C319.625 68.9941 319.65 69.2305 319.701 69.4531C319.756 69.6719 319.838 69.8652 319.947 70.0332C320.057 70.2012 320.201 70.334 320.381 70.4316C320.561 70.5254 320.777 70.5723 321.031 70.5723C321.285 70.5723 321.5 70.5254 321.676 70.4316C321.855 70.334 322 70.2012 322.109 70.0332C322.219 69.8652 322.299 69.6719 322.35 69.4531C322.404 69.2305 322.432 68.9941 322.432 68.7441V68.6211C322.432 68.3906 322.404 68.1719 322.35 67.9648C322.299 67.7578 322.219 67.5762 322.109 67.4199C322 67.2598 321.854 67.1348 321.67 67.0449C321.49 66.9512 321.273 66.9043 321.02 66.9043ZM324.781 68.5625V68.4395C324.781 67.9746 324.848 67.5469 324.98 67.1562C325.113 66.7617 325.307 66.4199 325.561 66.1309C325.814 65.8418 326.125 65.6172 326.492 65.457C326.859 65.293 327.277 65.2109 327.746 65.2109C328.223 65.2109 328.645 65.293 329.012 65.457C329.383 65.6172 329.695 65.8418 329.949 66.1309C330.203 66.4199 330.396 66.7617 330.529 67.1562C330.662 67.5469 330.729 67.9746 330.729 68.4395V68.5625C330.729 69.0234 330.662 69.4512 330.529 69.8457C330.396 70.2363 330.203 70.5781 329.949 70.8711C329.695 71.1602 329.385 71.3848 329.018 71.5449C328.65 71.7051 328.23 71.7852 327.758 71.7852C327.289 71.7852 326.869 71.7051 326.498 71.5449C326.127 71.3848 325.814 71.1602 325.561 70.8711C325.307 70.5781 325.113 70.2363 324.98 69.8457C324.848 69.4512 324.781 69.0234 324.781 68.5625ZM326.328 68.4395V68.5625C326.328 68.8398 326.355 69.0996 326.41 69.3418C326.465 69.584 326.549 69.7969 326.662 69.9805C326.775 70.1641 326.922 70.3086 327.102 70.4141C327.285 70.5156 327.504 70.5664 327.758 70.5664C328.008 70.5664 328.223 70.5156 328.402 70.4141C328.582 70.3086 328.729 70.1641 328.842 69.9805C328.959 69.7969 329.045 69.584 329.1 69.3418C329.154 69.0996 329.182 68.8398 329.182 68.5625V68.4395C329.182 68.166 329.154 67.9102 329.1 67.6719C329.045 67.4297 328.959 67.2168 328.842 67.0332C328.729 66.8457 328.58 66.6992 328.396 66.5938C328.217 66.4844 328 66.4297 327.746 66.4297C327.496 66.4297 327.281 66.4844 327.102 66.5938C326.922 66.6992 326.775 66.8457 326.662 67.0332C326.549 67.2168 326.465 67.4297 326.41 67.6719C326.355 67.9102 326.328 68.166 326.328 68.4395ZM333.4 66.5469V74.1055H331.848V65.3281H333.283L333.4 66.5469ZM337.473 68.4336V68.5566C337.473 69.0176 337.418 69.4453 337.309 69.8398C337.203 70.2305 337.047 70.5723 336.84 70.8652C336.633 71.1543 336.375 71.3809 336.066 71.5449C335.762 71.7051 335.41 71.7852 335.012 71.7852C334.621 71.7852 334.281 71.7109 333.992 71.5625C333.703 71.4102 333.459 71.1953 333.26 70.918C333.061 70.6406 332.9 70.3184 332.779 69.9512C332.662 69.5801 332.574 69.1758 332.516 68.7383V68.3457C332.574 67.8809 332.662 67.459 332.779 67.0801C332.9 66.6973 333.061 66.3672 333.26 66.0898C333.459 65.8086 333.701 65.5918 333.986 65.4395C334.275 65.2871 334.613 65.2109 335 65.2109C335.402 65.2109 335.756 65.2871 336.061 65.4395C336.369 65.5918 336.629 65.8105 336.84 66.0957C337.051 66.3809 337.209 66.7207 337.314 67.1152C337.42 67.5098 337.473 67.9492 337.473 68.4336ZM335.92 68.5566V68.4336C335.92 68.1523 335.895 67.8926 335.844 67.6543C335.793 67.4121 335.715 67.2012 335.609 67.0215C335.504 66.8379 335.367 66.6953 335.199 66.5938C335.031 66.4922 334.828 66.4414 334.59 66.4414C334.352 66.4414 334.146 66.4805 333.975 66.5586C333.803 66.6367 333.662 66.748 333.553 66.8926C333.443 67.0371 333.357 67.209 333.295 67.4082C333.236 67.6035 333.197 67.8203 333.178 68.0586V69.0312C333.213 69.3203 333.281 69.5801 333.383 69.8105C333.484 70.041 333.633 70.2246 333.828 70.3613C334.027 70.498 334.285 70.5664 334.602 70.5664C334.84 70.5664 335.043 70.5137 335.211 70.4082C335.379 70.3027 335.516 70.1582 335.621 69.9746C335.727 69.7871 335.803 69.5723 335.85 69.3301C335.896 69.0879 335.92 68.8301 335.92 68.5566ZM342.096 70.3203V67.3965C342.096 67.1816 342.059 66.9961 341.984 66.8398C341.91 66.6836 341.797 66.5625 341.645 66.4766C341.492 66.3906 341.299 66.3477 341.064 66.3477C340.857 66.3477 340.676 66.3828 340.52 66.4531C340.367 66.5234 340.25 66.623 340.168 66.752C340.086 66.877 340.045 67.0215 340.045 67.1855H338.492C338.492 66.9238 338.555 66.6758 338.68 66.4414C338.805 66.2031 338.982 65.9922 339.213 65.8086C339.447 65.6211 339.727 65.4746 340.051 65.3691C340.379 65.2637 340.746 65.2109 341.152 65.2109C341.633 65.2109 342.061 65.293 342.436 65.457C342.814 65.6172 343.111 65.8594 343.326 66.1836C343.545 66.5078 343.654 66.916 343.654 67.4082V70.1738C343.654 70.4902 343.674 70.7617 343.713 70.9883C343.756 71.2109 343.818 71.4043 343.9 71.5684V71.668H342.324C342.25 71.5078 342.193 71.3047 342.154 71.0586C342.115 70.8086 342.096 70.5625 342.096 70.3203ZM342.312 67.8066L342.324 68.7266H341.346C341.104 68.7266 340.891 68.752 340.707 68.8027C340.523 68.8496 340.373 68.9199 340.256 69.0137C340.139 69.1035 340.051 69.2129 339.992 69.3418C339.934 69.4668 339.904 69.6094 339.904 69.7695C339.904 69.9258 339.939 70.0664 340.01 70.1914C340.084 70.3164 340.189 70.416 340.326 70.4902C340.467 70.5605 340.631 70.5957 340.818 70.5957C341.092 70.5957 341.33 70.541 341.533 70.4316C341.736 70.3184 341.895 70.1816 342.008 70.0215C342.121 69.8613 342.182 69.709 342.189 69.5645L342.635 70.2324C342.58 70.3926 342.498 70.5625 342.389 70.7422C342.279 70.9219 342.139 71.0898 341.967 71.2461C341.795 71.4023 341.588 71.5312 341.346 71.6328C341.104 71.7344 340.822 71.7852 340.502 71.7852C340.092 71.7852 339.725 71.7031 339.4 71.5391C339.076 71.375 338.82 71.1504 338.633 70.8652C338.445 70.5801 338.352 70.2559 338.352 69.8926C338.352 69.5566 338.414 69.2598 338.539 69.002C338.664 68.7441 338.85 68.5273 339.096 68.3516C339.342 68.1719 339.646 68.0371 340.01 67.9473C340.377 67.8535 340.797 67.8066 341.27 67.8066H342.312ZM251.773 79.3281V85.668H250.221V79.3281H251.773ZM253.836 79.3281V80.5352H248.193V79.3281H253.836ZM257.17 85.7852C256.689 85.7852 256.258 85.707 255.875 85.5508C255.492 85.3945 255.166 85.1777 254.896 84.9004C254.631 84.6191 254.426 84.293 254.281 83.9219C254.141 83.5469 254.07 83.1445 254.07 82.7148V82.4805C254.07 81.9922 254.141 81.5488 254.281 81.1504C254.422 80.748 254.621 80.4023 254.879 80.1133C255.137 79.8242 255.445 79.6016 255.805 79.4453C256.164 79.2891 256.561 79.2109 256.994 79.2109C257.443 79.2109 257.84 79.2871 258.184 79.4395C258.527 79.5879 258.814 79.7988 259.045 80.0723C259.275 80.3457 259.449 80.6738 259.566 81.0566C259.684 81.4355 259.742 81.8555 259.742 82.3164V82.9668H254.773V81.9004H258.219V81.7832C258.211 81.5371 258.164 81.3125 258.078 81.1094C257.992 80.9023 257.859 80.7383 257.68 80.6172C257.5 80.4922 257.268 80.4297 256.982 80.4297C256.752 80.4297 256.551 80.4805 256.379 80.582C256.211 80.6797 256.07 80.8203 255.957 81.0039C255.848 81.1836 255.766 81.3984 255.711 81.6484C255.656 81.8984 255.629 82.1758 255.629 82.4805V82.7148C255.629 82.9805 255.664 83.2266 255.734 83.4531C255.809 83.6797 255.916 83.877 256.057 84.0449C256.201 84.209 256.373 84.3379 256.572 84.4316C256.775 84.5215 257.006 84.5664 257.264 84.5664C257.588 84.5664 257.881 84.5039 258.143 84.3789C258.408 84.25 258.639 84.0605 258.834 83.8105L259.613 84.6191C259.48 84.8145 259.301 85.002 259.074 85.1816C258.852 85.3613 258.582 85.5078 258.266 85.6211C257.949 85.7305 257.584 85.7852 257.17 85.7852ZM262.432 79.3281V85.668H260.885V79.3281H262.432ZM266.562 79.3281L263.768 83.2188H262.121L261.928 81.8008H263.07L264.611 79.3281H266.562ZM264.705 85.668L262.971 82.9492L264.26 82.1406L266.762 85.668H264.705ZM269.979 84.5664C270.197 84.5664 270.393 84.5234 270.564 84.4375C270.736 84.3516 270.873 84.2305 270.975 84.0742C271.08 83.918 271.137 83.7363 271.145 83.5293H272.604C272.596 83.959 272.475 84.3438 272.24 84.6836C272.006 85.0234 271.693 85.293 271.303 85.4922C270.916 85.6875 270.482 85.7852 270.002 85.7852C269.514 85.7852 269.088 85.7031 268.725 85.5391C268.361 85.375 268.059 85.1465 267.816 84.8535C267.578 84.5605 267.398 84.2207 267.277 83.834C267.16 83.4473 267.102 83.0332 267.102 82.5918V82.4043C267.102 81.9629 267.16 81.5488 267.277 81.1621C267.398 80.7754 267.578 80.4355 267.816 80.1426C268.059 79.8496 268.361 79.6211 268.725 79.457C269.088 79.293 269.512 79.2109 269.996 79.2109C270.508 79.2109 270.957 79.3105 271.344 79.5098C271.734 79.709 272.039 79.9902 272.258 80.3535C272.48 80.7168 272.596 81.1445 272.604 81.6367H271.145C271.137 81.4102 271.086 81.207 270.992 81.0273C270.898 80.8477 270.766 80.7031 270.594 80.5938C270.422 80.4844 270.213 80.4297 269.967 80.4297C269.705 80.4297 269.486 80.4844 269.311 80.5938C269.139 80.7031 269.004 80.8535 268.906 81.0449C268.812 81.2324 268.746 81.4434 268.707 81.6777C268.672 81.9082 268.654 82.1504 268.654 82.4043V82.5918C268.654 82.8496 268.672 83.0957 268.707 83.3301C268.746 83.5645 268.812 83.7754 268.906 83.9629C269.004 84.1465 269.139 84.293 269.311 84.4023C269.486 84.5117 269.709 84.5664 269.979 84.5664ZM276.711 79.3281V85.668H275.158V79.3281H276.711ZM278.773 79.3281V80.5352H273.131V79.3281H278.773ZM283.08 84.3203V81.3965C283.08 81.1816 283.043 80.9961 282.969 80.8398C282.895 80.6836 282.781 80.5625 282.629 80.4766C282.477 80.3906 282.283 80.3477 282.049 80.3477C281.842 80.3477 281.66 80.3828 281.504 80.4531C281.352 80.5234 281.234 80.623 281.152 80.752C281.07 80.877 281.029 81.0215 281.029 81.1855H279.477C279.477 80.9238 279.539 80.6758 279.664 80.4414C279.789 80.2031 279.967 79.9922 280.197 79.8086C280.432 79.6211 280.711 79.4746 281.035 79.3691C281.363 79.2637 281.73 79.2109 282.137 79.2109C282.617 79.2109 283.045 79.293 283.42 79.457C283.799 79.6172 284.096 79.8594 284.311 80.1836C284.529 80.5078 284.639 80.916 284.639 81.4082V84.1738C284.639 84.4902 284.658 84.7617 284.697 84.9883C284.74 85.2109 284.803 85.4043 284.885 85.5684V85.668H283.309C283.234 85.5078 283.178 85.3047 283.139 85.0586C283.1 84.8086 283.08 84.5625 283.08 84.3203ZM283.297 81.8066L283.309 82.7266H282.33C282.088 82.7266 281.875 82.752 281.691 82.8027C281.508 82.8496 281.357 82.9199 281.24 83.0137C281.123 83.1035 281.035 83.2129 280.977 83.3418C280.918 83.4668 280.889 83.6094 280.889 83.7695C280.889 83.9258 280.924 84.0664 280.994 84.1914C281.068 84.3164 281.174 84.416 281.311 84.4902C281.451 84.5605 281.615 84.5957 281.803 84.5957C282.076 84.5957 282.314 84.541 282.518 84.4316C282.721 84.3184 282.879 84.1816 282.992 84.0215C283.105 83.8613 283.166 83.709 283.174 83.5645L283.619 84.2324C283.564 84.3926 283.482 84.5625 283.373 84.7422C283.264 84.9219 283.123 85.0898 282.951 85.2461C282.779 85.4023 282.572 85.5312 282.33 85.6328C282.088 85.7344 281.807 85.7852 281.486 85.7852C281.076 85.7852 280.709 85.7031 280.385 85.5391C280.061 85.375 279.805 85.1504 279.617 84.8652C279.43 84.5801 279.336 84.2559 279.336 83.8926C279.336 83.5566 279.398 83.2598 279.523 83.002C279.648 82.7441 279.834 82.5273 280.08 82.3516C280.326 82.1719 280.631 82.0371 280.994 81.9473C281.361 81.8535 281.781 81.8066 282.254 81.8066H283.297ZM286.068 84.9121C286.068 84.6777 286.148 84.4805 286.309 84.3203C286.469 84.1602 286.686 84.0801 286.959 84.0801C287.232 84.0801 287.449 84.1602 287.609 84.3203C287.77 84.4805 287.85 84.6777 287.85 84.9121C287.85 85.1426 287.77 85.3379 287.609 85.498C287.449 85.6543 287.232 85.7324 286.959 85.7324C286.686 85.7324 286.469 85.6543 286.309 85.498C286.148 85.3379 286.068 85.1426 286.068 84.9121ZM286.074 79.9961C286.074 79.7617 286.154 79.5645 286.314 79.4043C286.475 79.2441 286.691 79.1641 286.965 79.1641C287.238 79.1641 287.455 79.2441 287.615 79.4043C287.775 79.5645 287.855 79.7617 287.855 79.9961C287.855 80.2266 287.775 80.4219 287.615 80.582C287.455 80.7383 287.238 80.8164 286.965 80.8164C286.691 80.8164 286.475 80.7383 286.314 80.582C286.154 80.4219 286.074 80.2266 286.074 79.9961ZM293.152 79.3281L294.541 81.6367L295.947 79.3281H297.219L295.145 82.457L297.283 85.668H296.029L294.564 83.2891L293.1 85.668H291.84L293.973 82.457L291.904 79.3281H293.152ZM303.324 79.9551V80.8984H298.438V79.9551H303.324ZM303.324 82.3867V83.3301H298.438V82.3867H303.324ZM309.189 81.6074L308.322 81.3848L308.75 77.1367H313.127V78.1387H309.67L309.412 80.459C309.568 80.3691 309.766 80.2852 310.004 80.207C310.246 80.1289 310.523 80.0898 310.836 80.0898C311.23 80.0898 311.584 80.1582 311.896 80.2949C312.209 80.4277 312.475 80.6191 312.693 80.8691C312.916 81.1191 313.086 81.4199 313.203 81.7715C313.32 82.123 313.379 82.5156 313.379 82.9492C313.379 83.3594 313.322 83.7363 313.209 84.0801C313.1 84.4238 312.934 84.7246 312.711 84.9824C312.488 85.2363 312.207 85.4336 311.867 85.5742C311.531 85.7148 311.135 85.7852 310.678 85.7852C310.334 85.7852 310.008 85.7383 309.699 85.6445C309.395 85.5469 309.121 85.4004 308.879 85.2051C308.641 85.0059 308.445 84.7598 308.293 84.4668C308.145 84.1699 308.051 83.8223 308.012 83.4238H309.043C309.09 83.7441 309.184 84.0137 309.324 84.2324C309.465 84.4512 309.648 84.6172 309.875 84.7305C310.105 84.8398 310.373 84.8945 310.678 84.8945C310.936 84.8945 311.164 84.8496 311.363 84.7598C311.562 84.6699 311.73 84.541 311.867 84.373C312.004 84.2051 312.107 84.002 312.178 83.7637C312.252 83.5254 312.289 83.2578 312.289 82.9609C312.289 82.6914 312.252 82.4414 312.178 82.2109C312.104 81.9805 311.992 81.7793 311.844 81.6074C311.699 81.4355 311.521 81.3027 311.311 81.209C311.1 81.1113 310.857 81.0625 310.584 81.0625C310.221 81.0625 309.945 81.1113 309.758 81.209C309.574 81.3066 309.385 81.4395 309.189 81.6074ZM314.475 79.2285V78.7773C314.475 78.4531 314.545 78.1582 314.686 77.8926C314.826 77.627 315.027 77.4141 315.289 77.2539C315.551 77.0938 315.861 77.0137 316.221 77.0137C316.588 77.0137 316.9 77.0938 317.158 77.2539C317.42 77.4141 317.621 77.627 317.762 77.8926C317.902 78.1582 317.973 78.4531 317.973 78.7773V79.2285C317.973 79.5449 317.902 79.8359 317.762 80.1016C317.625 80.3672 317.426 80.5801 317.164 80.7402C316.906 80.9004 316.596 80.9805 316.232 80.9805C315.869 80.9805 315.555 80.9004 315.289 80.7402C315.027 80.5801 314.826 80.3672 314.686 80.1016C314.545 79.8359 314.475 79.5449 314.475 79.2285ZM315.289 78.7773V79.2285C315.289 79.4082 315.322 79.5781 315.389 79.7383C315.459 79.8984 315.564 80.0293 315.705 80.1309C315.846 80.2285 316.021 80.2773 316.232 80.2773C316.443 80.2773 316.617 80.2285 316.754 80.1309C316.891 80.0293 316.992 79.8984 317.059 79.7383C317.125 79.5781 317.158 79.4082 317.158 79.2285V78.7773C317.158 78.5938 317.123 78.4219 317.053 78.2617C316.986 78.0977 316.883 77.9668 316.742 77.8691C316.605 77.7676 316.432 77.7168 316.221 77.7168C316.014 77.7168 315.84 77.7676 315.699 77.8691C315.562 77.9668 315.459 78.0977 315.389 78.2617C315.322 78.4219 315.289 78.5938 315.289 78.7773ZM318.629 84.0332V83.5762C318.629 83.2559 318.699 82.9629 318.84 82.6973C318.98 82.4316 319.182 82.2188 319.443 82.0586C319.705 81.8984 320.016 81.8184 320.375 81.8184C320.742 81.8184 321.055 81.8984 321.312 82.0586C321.574 82.2188 321.775 82.4316 321.916 82.6973C322.057 82.9629 322.127 83.2559 322.127 83.5762V84.0332C322.127 84.3535 322.057 84.6465 321.916 84.9121C321.779 85.1777 321.58 85.3906 321.318 85.5508C321.061 85.7109 320.75 85.791 320.387 85.791C320.023 85.791 319.711 85.7109 319.449 85.5508C319.188 85.3906 318.984 85.1777 318.84 84.9121C318.699 84.6465 318.629 84.3535 318.629 84.0332ZM319.443 83.5762V84.0332C319.443 84.2129 319.477 84.3848 319.543 84.5488C319.613 84.709 319.719 84.8398 319.859 84.9414C320 85.0391 320.176 85.0879 320.387 85.0879C320.598 85.0879 320.771 85.0391 320.908 84.9414C321.049 84.8398 321.152 84.709 321.219 84.5488C321.285 84.3887 321.318 84.2168 321.318 84.0332V83.5762C321.318 83.3926 321.283 83.2207 321.213 83.0605C321.146 82.9004 321.043 82.7715 320.902 82.6738C320.766 82.5723 320.59 82.5215 320.375 82.5215C320.168 82.5215 319.994 82.5723 319.854 82.6738C319.717 82.7715 319.613 82.9004 319.543 83.0605C319.477 83.2207 319.443 83.3926 319.443 83.5762ZM320.645 78.3496L316.479 85.0176L315.869 84.6309L320.035 77.9629L320.645 78.3496ZM249.969 93.3281H251.053L250.959 95.7012C250.936 96.3027 250.867 96.8223 250.754 97.2598C250.641 97.6973 250.496 98.0703 250.32 98.3789C250.145 98.6836 249.947 98.9395 249.729 99.1465C249.514 99.3535 249.291 99.5273 249.061 99.668H248.521L248.551 98.7832L248.773 98.7773C248.902 98.625 249.027 98.4688 249.148 98.3086C249.27 98.1445 249.381 97.9512 249.482 97.7285C249.584 97.502 249.668 97.2266 249.734 96.9023C249.805 96.5742 249.85 96.1738 249.869 95.7012L249.969 93.3281ZM250.238 93.3281H254.053V99.668H252.969V94.3301H250.238V93.3281ZM248.275 98.7773H254.867V101.537H253.783V99.668H249.359V101.537H248.27L248.275 98.7773ZM260.305 93.3281V94.2246H257.24V93.3281H260.305ZM261.26 93.3281V99.668H260.176V93.3281H261.26ZM256.977 93.3281H258.066L257.902 96.3867C257.875 96.8594 257.83 97.2773 257.768 97.6406C257.709 98 257.627 98.3086 257.521 98.5664C257.42 98.8242 257.291 99.0352 257.135 99.1992C256.982 99.3594 256.799 99.4785 256.584 99.5566C256.369 99.6309 256.121 99.668 255.84 99.668H255.5V98.7129L255.734 98.6953C255.902 98.6836 256.045 98.6445 256.162 98.5781C256.283 98.5117 256.385 98.4141 256.467 98.2852C256.549 98.1523 256.615 97.9824 256.666 97.7754C256.721 97.5684 256.762 97.3223 256.789 97.0371C256.82 96.752 256.844 96.4199 256.859 96.041L256.977 93.3281ZM264.178 97.9512L267.102 93.3281H268.191V99.668H267.102V95.0449L264.178 99.668H263.1V93.3281H264.178V97.9512ZM274.232 96.0762V96.9551H270.881V96.0762H274.232ZM271.109 93.3281V99.668H270.025V93.3281H271.109ZM275.111 93.3281V99.668H274.021V93.3281H275.111ZM277.748 95.5078H279.652C280.164 95.5078 280.596 95.5977 280.947 95.7773C281.299 95.9531 281.564 96.1973 281.744 96.5098C281.928 96.8184 282.02 97.1699 282.02 97.5645C282.02 97.8574 281.969 98.1328 281.867 98.3906C281.766 98.6445 281.613 98.8672 281.41 99.0586C281.211 99.25 280.963 99.4004 280.666 99.5098C280.373 99.6152 280.035 99.668 279.652 99.668H276.957V93.3281H278.041V98.7773H279.652C279.965 98.7773 280.215 98.7207 280.402 98.6074C280.59 98.4941 280.725 98.3477 280.807 98.168C280.889 97.9883 280.93 97.8008 280.93 97.6055C280.93 97.4141 280.889 97.2266 280.807 97.043C280.725 96.8594 280.59 96.707 280.402 96.5859C280.215 96.4609 279.965 96.3984 279.652 96.3984H277.748V95.5078ZM284.275 93.3281V99.668H283.191V93.3281H284.275ZM290.328 93.3281V99.668H289.244V93.3281H290.328ZM294.488 93.3281L291.482 96.9609H289.965L289.801 96.0117H291.043L293.17 93.3281H294.488ZM293.322 99.668L290.99 96.7969L291.688 96.0117L294.699 99.668H293.322ZM295.227 96.5684V96.4336C295.227 95.9766 295.293 95.5527 295.426 95.1621C295.559 94.7676 295.75 94.4258 296 94.1367C296.25 93.8438 296.553 93.6172 296.908 93.457C297.264 93.293 297.662 93.2109 298.104 93.2109C298.549 93.2109 298.949 93.293 299.305 93.457C299.664 93.6172 299.969 93.8438 300.219 94.1367C300.473 94.4258 300.666 94.7676 300.799 95.1621C300.932 95.5527 300.998 95.9766 300.998 96.4336V96.5684C300.998 97.0254 300.932 97.4492 300.799 97.8398C300.666 98.2305 300.473 98.5723 300.219 98.8652C299.969 99.1543 299.666 99.3809 299.311 99.5449C298.959 99.7051 298.561 99.7852 298.115 99.7852C297.67 99.7852 297.27 99.7051 296.914 99.5449C296.559 99.3809 296.254 99.1543 296 98.8652C295.75 98.5723 295.559 98.2305 295.426 97.8398C295.293 97.4492 295.227 97.0254 295.227 96.5684ZM296.311 96.4336V96.5684C296.311 96.8848 296.348 97.1836 296.422 97.4648C296.496 97.7422 296.607 97.9883 296.756 98.2031C296.908 98.418 297.098 98.5879 297.324 98.7129C297.551 98.834 297.814 98.8945 298.115 98.8945C298.412 98.8945 298.672 98.834 298.895 98.7129C299.121 98.5879 299.309 98.418 299.457 98.2031C299.605 97.9883 299.717 97.7422 299.791 97.4648C299.869 97.1836 299.908 96.8848 299.908 96.5684V96.4336C299.908 96.1211 299.869 95.8262 299.791 95.5488C299.717 95.2676 299.604 95.0195 299.451 94.8047C299.303 94.5859 299.115 94.4141 298.889 94.2891C298.666 94.1641 298.404 94.1016 298.104 94.1016C297.807 94.1016 297.545 94.1641 297.318 94.2891C297.096 94.4141 296.908 94.5859 296.756 94.8047C296.607 95.0195 296.496 95.2676 296.422 95.5488C296.348 95.8262 296.311 96.1211 296.311 96.4336ZM303.441 94.5469V102.105H302.352V93.3281H303.348L303.441 94.5469ZM307.713 96.4453V96.5684C307.713 97.0293 307.658 97.457 307.549 97.8516C307.439 98.2422 307.279 98.582 307.068 98.8711C306.861 99.1602 306.605 99.3848 306.301 99.5449C305.996 99.7051 305.646 99.7852 305.252 99.7852C304.85 99.7852 304.494 99.7188 304.186 99.5859C303.877 99.4531 303.615 99.2598 303.4 99.0059C303.186 98.752 303.014 98.4473 302.885 98.0918C302.76 97.7363 302.674 97.3359 302.627 96.8906V96.2344C302.674 95.7656 302.762 95.3457 302.891 94.9746C303.02 94.6035 303.189 94.2871 303.4 94.0254C303.615 93.7598 303.875 93.5586 304.18 93.4219C304.484 93.2812 304.836 93.2109 305.234 93.2109C305.633 93.2109 305.986 93.2891 306.295 93.4453C306.604 93.5977 306.863 93.8164 307.074 94.1016C307.285 94.3867 307.443 94.7285 307.549 95.127C307.658 95.5215 307.713 95.9609 307.713 96.4453ZM306.623 96.5684V96.4453C306.623 96.1289 306.59 95.832 306.523 95.5547C306.457 95.2734 306.354 95.0273 306.213 94.8164C306.076 94.6016 305.9 94.4336 305.686 94.3125C305.471 94.1875 305.215 94.125 304.918 94.125C304.645 94.125 304.406 94.1719 304.203 94.2656C304.004 94.3594 303.834 94.4863 303.693 94.6465C303.553 94.8027 303.438 94.9824 303.348 95.1855C303.262 95.3848 303.197 95.5918 303.154 95.8066V97.3242C303.232 97.5977 303.342 97.8555 303.482 98.0977C303.623 98.3359 303.811 98.5293 304.045 98.6777C304.279 98.8223 304.574 98.8945 304.93 98.8945C305.223 98.8945 305.475 98.834 305.686 98.7129C305.9 98.5879 306.076 98.418 306.213 98.2031C306.354 97.9883 306.457 97.7422 306.523 97.4648C306.59 97.1836 306.623 96.8848 306.623 96.5684ZM308.809 96.5684V96.4336C308.809 95.9766 308.875 95.5527 309.008 95.1621C309.141 94.7676 309.332 94.4258 309.582 94.1367C309.832 93.8438 310.135 93.6172 310.49 93.457C310.846 93.293 311.244 93.2109 311.686 93.2109C312.131 93.2109 312.531 93.293 312.887 93.457C313.246 93.6172 313.551 93.8438 313.801 94.1367C314.055 94.4258 314.248 94.7676 314.381 95.1621C314.514 95.5527 314.58 95.9766 314.58 96.4336V96.5684C314.58 97.0254 314.514 97.4492 314.381 97.8398C314.248 98.2305 314.055 98.5723 313.801 98.8652C313.551 99.1543 313.248 99.3809 312.893 99.5449C312.541 99.7051 312.143 99.7852 311.697 99.7852C311.252 99.7852 310.852 99.7051 310.496 99.5449C310.141 99.3809 309.836 99.1543 309.582 98.8652C309.332 98.5723 309.141 98.2305 309.008 97.8398C308.875 97.4492 308.809 97.0254 308.809 96.5684ZM309.893 96.4336V96.5684C309.893 96.8848 309.93 97.1836 310.004 97.4648C310.078 97.7422 310.189 97.9883 310.338 98.2031C310.49 98.418 310.68 98.5879 310.906 98.7129C311.133 98.834 311.396 98.8945 311.697 98.8945C311.994 98.8945 312.254 98.834 312.477 98.7129C312.703 98.5879 312.891 98.418 313.039 98.2031C313.188 97.9883 313.299 97.7422 313.373 97.4648C313.451 97.1836 313.49 96.8848 313.49 96.5684V96.4336C313.49 96.1211 313.451 95.8262 313.373 95.5488C313.299 95.2676 313.186 95.0195 313.033 94.8047C312.885 94.5859 312.697 94.4141 312.471 94.2891C312.248 94.1641 311.986 94.1016 311.686 94.1016C311.389 94.1016 311.127 94.1641 310.9 94.2891C310.678 94.4141 310.49 94.5859 310.338 94.8047C310.189 95.0195 310.078 95.2676 310.004 95.5488C309.93 95.8262 309.893 96.1211 309.893 96.4336ZM318.395 93.3281V99.668H317.305V93.3281H318.395ZM320.521 93.3281V94.207H315.219V93.3281H320.521ZM322.766 93.3281V99.668H321.682V93.3281H322.766ZM326.926 93.3281L323.92 96.9609H322.402L322.238 96.0117H323.48L325.607 93.3281H326.926ZM325.76 99.668L323.428 96.7969L324.125 96.0117L327.137 99.668H325.76ZM327.664 96.5684V96.4336C327.664 95.9766 327.73 95.5527 327.863 95.1621C327.996 94.7676 328.188 94.4258 328.438 94.1367C328.688 93.8438 328.99 93.6172 329.346 93.457C329.701 93.293 330.1 93.2109 330.541 93.2109C330.986 93.2109 331.387 93.293 331.742 93.457C332.102 93.6172 332.406 93.8438 332.656 94.1367C332.91 94.4258 333.104 94.7676 333.236 95.1621C333.369 95.5527 333.436 95.9766 333.436 96.4336V96.5684C333.436 97.0254 333.369 97.4492 333.236 97.8398C333.104 98.2305 332.91 98.5723 332.656 98.8652C332.406 99.1543 332.104 99.3809 331.748 99.5449C331.396 99.7051 330.998 99.7852 330.553 99.7852C330.107 99.7852 329.707 99.7051 329.352 99.5449C328.996 99.3809 328.691 99.1543 328.438 98.8652C328.188 98.5723 327.996 98.2305 327.863 97.8398C327.73 97.4492 327.664 97.0254 327.664 96.5684ZM328.748 96.4336V96.5684C328.748 96.8848 328.785 97.1836 328.859 97.4648C328.934 97.7422 329.045 97.9883 329.193 98.2031C329.346 98.418 329.535 98.5879 329.762 98.7129C329.988 98.834 330.252 98.8945 330.553 98.8945C330.85 98.8945 331.109 98.834 331.332 98.7129C331.559 98.5879 331.746 98.418 331.895 98.2031C332.043 97.9883 332.154 97.7422 332.229 97.4648C332.307 97.1836 332.346 96.8848 332.346 96.5684V96.4336C332.346 96.1211 332.307 95.8262 332.229 95.5488C332.154 95.2676 332.041 95.0195 331.889 94.8047C331.74 94.5859 331.553 94.4141 331.326 94.2891C331.104 94.1641 330.842 94.1016 330.541 94.1016C330.244 94.1016 329.982 94.1641 329.756 94.2891C329.533 94.4141 329.346 94.5859 329.193 94.8047C329.045 95.0195 328.934 95.2676 328.859 95.5488C328.785 95.8262 328.748 96.1211 328.748 96.4336ZM335.967 97.9512L338.891 93.3281H339.98V99.668H338.891V95.0449L335.967 99.668H334.889V93.3281H335.967V97.9512ZM338.299 91.0312H339.178C339.178 91.3359 339.107 91.6074 338.967 91.8457C338.826 92.0801 338.625 92.2637 338.363 92.3965C338.102 92.5293 337.791 92.5957 337.432 92.5957C336.889 92.5957 336.459 92.4512 336.143 92.1621C335.83 91.8691 335.674 91.4922 335.674 91.0312H336.553C336.553 91.2617 336.619 91.4648 336.752 91.6406C336.885 91.8164 337.111 91.9043 337.432 91.9043C337.744 91.9043 337.967 91.8164 338.1 91.6406C338.232 91.4648 338.299 91.2617 338.299 91.0312ZM251.363 112.895C251.621 112.895 251.859 112.842 252.078 112.736C252.297 112.631 252.477 112.486 252.617 112.303C252.758 112.115 252.838 111.902 252.857 111.664H253.889C253.869 112.039 253.742 112.389 253.508 112.713C253.277 113.033 252.975 113.293 252.6 113.492C252.225 113.688 251.812 113.785 251.363 113.785C250.887 113.785 250.471 113.701 250.115 113.533C249.764 113.365 249.471 113.135 249.236 112.842C249.006 112.549 248.832 112.213 248.715 111.834C248.602 111.451 248.545 111.047 248.545 110.621V110.375C248.545 109.949 248.602 109.547 248.715 109.168C248.832 108.785 249.006 108.447 249.236 108.154C249.471 107.861 249.764 107.631 250.115 107.463C250.471 107.295 250.887 107.211 251.363 107.211C251.859 107.211 252.293 107.312 252.664 107.516C253.035 107.715 253.326 107.988 253.537 108.336C253.752 108.68 253.869 109.07 253.889 109.508H252.857C252.838 109.246 252.764 109.01 252.635 108.799C252.51 108.588 252.338 108.42 252.119 108.295C251.904 108.166 251.652 108.102 251.363 108.102C251.031 108.102 250.752 108.168 250.525 108.301C250.303 108.43 250.125 108.605 249.992 108.828C249.863 109.047 249.77 109.291 249.711 109.561C249.656 109.826 249.629 110.098 249.629 110.375V110.621C249.629 110.898 249.656 111.172 249.711 111.441C249.766 111.711 249.857 111.955 249.986 112.174C250.119 112.393 250.297 112.568 250.52 112.701C250.746 112.83 251.027 112.895 251.363 112.895ZM257.691 107.328V113.668H256.602V107.328H257.691ZM259.818 107.328V108.207H254.516V107.328H259.818ZM260.352 110.568V110.434C260.352 109.977 260.418 109.553 260.551 109.162C260.684 108.768 260.875 108.426 261.125 108.137C261.375 107.844 261.678 107.617 262.033 107.457C262.389 107.293 262.787 107.211 263.229 107.211C263.674 107.211 264.074 107.293 264.43 107.457C264.789 107.617 265.094 107.844 265.344 108.137C265.598 108.426 265.791 108.768 265.924 109.162C266.057 109.553 266.123 109.977 266.123 110.434V110.568C266.123 111.025 266.057 111.449 265.924 111.84C265.791 112.23 265.598 112.572 265.344 112.865C265.094 113.154 264.791 113.381 264.436 113.545C264.084 113.705 263.686 113.785 263.24 113.785C262.795 113.785 262.395 113.705 262.039 113.545C261.684 113.381 261.379 113.154 261.125 112.865C260.875 112.572 260.684 112.23 260.551 111.84C260.418 111.449 260.352 111.025 260.352 110.568ZM261.436 110.434V110.568C261.436 110.885 261.473 111.184 261.547 111.465C261.621 111.742 261.732 111.988 261.881 112.203C262.033 112.418 262.223 112.588 262.449 112.713C262.676 112.834 262.939 112.895 263.24 112.895C263.537 112.895 263.797 112.834 264.02 112.713C264.246 112.588 264.434 112.418 264.582 112.203C264.73 111.988 264.842 111.742 264.916 111.465C264.994 111.184 265.033 110.885 265.033 110.568V110.434C265.033 110.121 264.994 109.826 264.916 109.549C264.842 109.268 264.729 109.02 264.576 108.805C264.428 108.586 264.24 108.414 264.014 108.289C263.791 108.164 263.529 108.102 263.229 108.102C262.932 108.102 262.67 108.164 262.443 108.289C262.221 108.414 262.033 108.586 261.881 108.805C261.732 109.02 261.621 109.268 261.547 109.549C261.473 109.826 261.436 110.121 261.436 110.434ZM268.566 108.547V116.105H267.477V107.328H268.473L268.566 108.547ZM272.838 110.445V110.568C272.838 111.029 272.783 111.457 272.674 111.852C272.564 112.242 272.404 112.582 272.193 112.871C271.986 113.16 271.73 113.385 271.426 113.545C271.121 113.705 270.771 113.785 270.377 113.785C269.975 113.785 269.619 113.719 269.311 113.586C269.002 113.453 268.74 113.26 268.525 113.006C268.311 112.752 268.139 112.447 268.01 112.092C267.885 111.736 267.799 111.336 267.752 110.891V110.234C267.799 109.766 267.887 109.346 268.016 108.975C268.145 108.604 268.314 108.287 268.525 108.025C268.74 107.76 269 107.559 269.305 107.422C269.609 107.281 269.961 107.211 270.359 107.211C270.758 107.211 271.111 107.289 271.42 107.445C271.729 107.598 271.988 107.816 272.199 108.102C272.41 108.387 272.568 108.729 272.674 109.127C272.783 109.521 272.838 109.961 272.838 110.445ZM271.748 110.568V110.445C271.748 110.129 271.715 109.832 271.648 109.555C271.582 109.273 271.479 109.027 271.338 108.816C271.201 108.602 271.025 108.434 270.811 108.312C270.596 108.188 270.34 108.125 270.043 108.125C269.77 108.125 269.531 108.172 269.328 108.266C269.129 108.359 268.959 108.486 268.818 108.646C268.678 108.803 268.562 108.982 268.473 109.186C268.387 109.385 268.322 109.592 268.279 109.807V111.324C268.357 111.598 268.467 111.855 268.607 112.098C268.748 112.336 268.936 112.529 269.17 112.678C269.404 112.822 269.699 112.895 270.055 112.895C270.348 112.895 270.6 112.834 270.811 112.713C271.025 112.588 271.201 112.418 271.338 112.203C271.479 111.988 271.582 111.742 271.648 111.465C271.715 111.184 271.748 110.885 271.748 110.568ZM273.934 110.568V110.434C273.934 109.977 274 109.553 274.133 109.162C274.266 108.768 274.457 108.426 274.707 108.137C274.957 107.844 275.26 107.617 275.615 107.457C275.971 107.293 276.369 107.211 276.811 107.211C277.256 107.211 277.656 107.293 278.012 107.457C278.371 107.617 278.676 107.844 278.926 108.137C279.18 108.426 279.373 108.768 279.506 109.162C279.639 109.553 279.705 109.977 279.705 110.434V110.568C279.705 111.025 279.639 111.449 279.506 111.84C279.373 112.23 279.18 112.572 278.926 112.865C278.676 113.154 278.373 113.381 278.018 113.545C277.666 113.705 277.268 113.785 276.822 113.785C276.377 113.785 275.977 113.705 275.621 113.545C275.266 113.381 274.961 113.154 274.707 112.865C274.457 112.572 274.266 112.23 274.133 111.84C274 111.449 273.934 111.025 273.934 110.568ZM275.018 110.434V110.568C275.018 110.885 275.055 111.184 275.129 111.465C275.203 111.742 275.314 111.988 275.463 112.203C275.615 112.418 275.805 112.588 276.031 112.713C276.258 112.834 276.521 112.895 276.822 112.895C277.119 112.895 277.379 112.834 277.602 112.713C277.828 112.588 278.016 112.418 278.164 112.203C278.312 111.988 278.424 111.742 278.498 111.465C278.576 111.184 278.615 110.885 278.615 110.568V110.434C278.615 110.121 278.576 109.826 278.498 109.549C278.424 109.268 278.311 109.02 278.158 108.805C278.01 108.586 277.822 108.414 277.596 108.289C277.373 108.164 277.111 108.102 276.811 108.102C276.514 108.102 276.252 108.164 276.025 108.289C275.803 108.414 275.615 108.586 275.463 108.805C275.314 109.02 275.203 109.268 275.129 109.549C275.055 109.826 275.018 110.121 275.018 110.434ZM285.365 110.076V110.955H282.014V110.076H285.365ZM282.242 107.328V113.668H281.158V107.328H282.242ZM286.244 107.328V113.668H285.154V107.328H286.244ZM288.881 109.508H290.785C291.297 109.508 291.729 109.598 292.08 109.777C292.432 109.953 292.697 110.197 292.877 110.51C293.061 110.818 293.152 111.17 293.152 111.564C293.152 111.857 293.102 112.133 293 112.391C292.898 112.645 292.746 112.867 292.543 113.059C292.344 113.25 292.096 113.4 291.799 113.51C291.506 113.615 291.168 113.668 290.785 113.668H288.09V107.328H289.174V112.777H290.785C291.098 112.777 291.348 112.721 291.535 112.607C291.723 112.494 291.857 112.348 291.939 112.168C292.021 111.988 292.062 111.801 292.062 111.605C292.062 111.414 292.021 111.227 291.939 111.043C291.857 110.859 291.723 110.707 291.535 110.586C291.348 110.461 291.098 110.398 290.785 110.398H288.881V109.508ZM295.408 107.328V113.668H294.324V107.328H295.408ZM253.127 124.076V124.955H249.775V124.076H253.127ZM250.004 121.328V127.668H248.92V121.328H250.004ZM254.006 121.328V127.668H252.916V121.328H254.006ZM255.465 124.568V124.434C255.465 123.977 255.531 123.553 255.664 123.162C255.797 122.768 255.988 122.426 256.238 122.137C256.488 121.844 256.791 121.617 257.146 121.457C257.502 121.293 257.9 121.211 258.342 121.211C258.787 121.211 259.188 121.293 259.543 121.457C259.902 121.617 260.207 121.844 260.457 122.137C260.711 122.426 260.904 122.768 261.037 123.162C261.17 123.553 261.236 123.977 261.236 124.434V124.568C261.236 125.025 261.17 125.449 261.037 125.84C260.904 126.23 260.711 126.572 260.457 126.865C260.207 127.154 259.904 127.381 259.549 127.545C259.197 127.705 258.799 127.785 258.354 127.785C257.908 127.785 257.508 127.705 257.152 127.545C256.797 127.381 256.492 127.154 256.238 126.865C255.988 126.572 255.797 126.23 255.664 125.84C255.531 125.449 255.465 125.025 255.465 124.568ZM256.549 124.434V124.568C256.549 124.885 256.586 125.184 256.66 125.465C256.734 125.742 256.846 125.988 256.994 126.203C257.146 126.418 257.336 126.588 257.562 126.713C257.789 126.834 258.053 126.895 258.354 126.895C258.65 126.895 258.91 126.834 259.133 126.713C259.359 126.588 259.547 126.418 259.695 126.203C259.844 125.988 259.955 125.742 260.029 125.465C260.107 125.184 260.146 124.885 260.146 124.568V124.434C260.146 124.121 260.107 123.826 260.029 123.549C259.955 123.268 259.842 123.02 259.689 122.805C259.541 122.586 259.354 122.414 259.127 122.289C258.904 122.164 258.643 122.102 258.342 122.102C258.045 122.102 257.783 122.164 257.557 122.289C257.334 122.414 257.146 122.586 256.994 122.805C256.846 123.02 256.734 123.268 256.66 123.549C256.586 123.826 256.549 124.121 256.549 124.434ZM265.133 126.895C265.391 126.895 265.629 126.842 265.848 126.736C266.066 126.631 266.246 126.486 266.387 126.303C266.527 126.115 266.607 125.902 266.627 125.664H267.658C267.639 126.039 267.512 126.389 267.277 126.713C267.047 127.033 266.744 127.293 266.369 127.492C265.994 127.688 265.582 127.785 265.133 127.785C264.656 127.785 264.24 127.701 263.885 127.533C263.533 127.365 263.24 127.135 263.006 126.842C262.775 126.549 262.602 126.213 262.484 125.834C262.371 125.451 262.314 125.047 262.314 124.621V124.375C262.314 123.949 262.371 123.547 262.484 123.168C262.602 122.785 262.775 122.447 263.006 122.154C263.24 121.861 263.533 121.631 263.885 121.463C264.24 121.295 264.656 121.211 265.133 121.211C265.629 121.211 266.062 121.312 266.434 121.516C266.805 121.715 267.096 121.988 267.307 122.336C267.521 122.68 267.639 123.07 267.658 123.508H266.627C266.607 123.246 266.533 123.01 266.404 122.799C266.279 122.588 266.107 122.42 265.889 122.295C265.674 122.166 265.422 122.102 265.133 122.102C264.801 122.102 264.521 122.168 264.295 122.301C264.072 122.43 263.895 122.605 263.762 122.828C263.633 123.047 263.539 123.291 263.48 123.561C263.426 123.826 263.398 124.098 263.398 124.375V124.621C263.398 124.898 263.426 125.172 263.48 125.441C263.535 125.711 263.627 125.955 263.756 126.174C263.889 126.393 264.066 126.568 264.289 126.701C264.516 126.83 264.797 126.895 265.133 126.895ZM270.049 125.951L272.973 121.328H274.062V127.668H272.973V123.045L270.049 127.668H268.971V121.328H270.049V125.951ZM278.387 121.328V127.668H277.297V121.328H278.387ZM280.514 121.328V122.207H275.211V121.328H280.514ZM283.742 127.785C283.301 127.785 282.9 127.711 282.541 127.562C282.186 127.41 281.879 127.197 281.621 126.924C281.367 126.65 281.172 126.326 281.035 125.951C280.898 125.576 280.83 125.166 280.83 124.721V124.475C280.83 123.959 280.906 123.5 281.059 123.098C281.211 122.691 281.418 122.348 281.68 122.066C281.941 121.785 282.238 121.572 282.57 121.428C282.902 121.283 283.246 121.211 283.602 121.211C284.055 121.211 284.445 121.289 284.773 121.445C285.105 121.602 285.377 121.82 285.588 122.102C285.799 122.379 285.955 122.707 286.057 123.086C286.158 123.461 286.209 123.871 286.209 124.316V124.803H281.475V123.918H285.125V123.836C285.109 123.555 285.051 123.281 284.949 123.016C284.852 122.75 284.695 122.531 284.48 122.359C284.266 122.188 283.973 122.102 283.602 122.102C283.355 122.102 283.129 122.154 282.922 122.26C282.715 122.361 282.537 122.514 282.389 122.717C282.24 122.92 282.125 123.168 282.043 123.461C281.961 123.754 281.92 124.092 281.92 124.475V124.721C281.92 125.021 281.961 125.305 282.043 125.57C282.129 125.832 282.252 126.062 282.412 126.262C282.576 126.461 282.773 126.617 283.004 126.73C283.238 126.844 283.504 126.9 283.801 126.9C284.184 126.9 284.508 126.822 284.773 126.666C285.039 126.51 285.271 126.301 285.471 126.039L286.127 126.561C285.99 126.768 285.816 126.965 285.605 127.152C285.395 127.34 285.135 127.492 284.826 127.609C284.521 127.727 284.16 127.785 283.742 127.785ZM291.711 121.328V122.225H288.646V121.328H291.711ZM292.666 121.328V127.668H291.582V121.328H292.666ZM288.383 121.328H289.473L289.309 124.387C289.281 124.859 289.236 125.277 289.174 125.641C289.115 126 289.033 126.309 288.928 126.566C288.826 126.824 288.697 127.035 288.541 127.199C288.389 127.359 288.205 127.479 287.99 127.557C287.775 127.631 287.527 127.668 287.246 127.668H286.906V126.713L287.141 126.695C287.309 126.684 287.451 126.645 287.568 126.578C287.689 126.512 287.791 126.414 287.873 126.285C287.955 126.152 288.021 125.982 288.072 125.775C288.127 125.568 288.168 125.322 288.195 125.037C288.227 124.752 288.25 124.42 288.266 124.041L288.383 121.328ZM295.695 124.645H296.867L295.033 127.668H293.861L295.695 124.645ZM296.604 121.328H299.252V127.668H298.168V122.207H296.604C296.295 122.207 296.043 122.26 295.848 122.365C295.652 122.467 295.51 122.6 295.42 122.764C295.33 122.928 295.285 123.098 295.285 123.273C295.285 123.445 295.326 123.611 295.408 123.771C295.49 123.928 295.619 124.057 295.795 124.158C295.971 124.26 296.197 124.311 296.475 124.311H298.461V125.201H296.475C296.111 125.201 295.789 125.152 295.508 125.055C295.227 124.957 294.988 124.822 294.793 124.65C294.598 124.475 294.449 124.27 294.348 124.035C294.246 123.797 294.195 123.539 294.195 123.262C294.195 122.984 294.248 122.729 294.354 122.494C294.463 122.26 294.619 122.055 294.822 121.879C295.029 121.703 295.281 121.568 295.578 121.475C295.879 121.377 296.221 121.328 296.604 121.328Z" fill="#E6007E"/>
<path d="M247.305 271.137V272.408H243.402V279.668H241.797V271.137H247.305ZM242.881 274.33H244.949C245.609 274.33 246.176 274.441 246.648 274.664C247.121 274.883 247.482 275.189 247.732 275.584C247.986 275.979 248.113 276.441 248.113 276.973C248.113 277.371 248.041 277.734 247.896 278.062C247.756 278.391 247.549 278.676 247.275 278.918C247.002 279.156 246.67 279.342 246.279 279.475C245.889 279.604 245.445 279.668 244.949 279.668H241.797V271.137H243.414V278.402H244.949C245.301 278.402 245.592 278.336 245.822 278.203C246.053 278.07 246.225 277.895 246.338 277.676C246.451 277.457 246.508 277.219 246.508 276.961C246.508 276.707 246.451 276.477 246.338 276.27C246.225 276.062 246.053 275.898 245.822 275.777C245.592 275.656 245.301 275.596 244.949 275.596H242.881V274.33ZM252.725 278.32V275.396C252.725 275.182 252.688 274.996 252.613 274.84C252.539 274.684 252.426 274.562 252.273 274.477C252.121 274.391 251.928 274.348 251.693 274.348C251.486 274.348 251.305 274.383 251.148 274.453C250.996 274.523 250.879 274.623 250.797 274.752C250.715 274.877 250.674 275.021 250.674 275.186H249.121C249.121 274.924 249.184 274.676 249.309 274.441C249.434 274.203 249.611 273.992 249.842 273.809C250.076 273.621 250.355 273.475 250.68 273.369C251.008 273.264 251.375 273.211 251.781 273.211C252.262 273.211 252.689 273.293 253.064 273.457C253.443 273.617 253.74 273.859 253.955 274.184C254.174 274.508 254.283 274.916 254.283 275.408V278.174C254.283 278.49 254.303 278.762 254.342 278.988C254.385 279.211 254.447 279.404 254.529 279.568V279.668H252.953C252.879 279.508 252.822 279.305 252.783 279.059C252.744 278.809 252.725 278.562 252.725 278.32ZM252.941 275.807L252.953 276.727H251.975C251.732 276.727 251.52 276.752 251.336 276.803C251.152 276.85 251.002 276.92 250.885 277.014C250.768 277.104 250.68 277.213 250.621 277.342C250.562 277.467 250.533 277.609 250.533 277.77C250.533 277.926 250.568 278.066 250.639 278.191C250.713 278.316 250.818 278.416 250.955 278.49C251.096 278.561 251.26 278.596 251.447 278.596C251.721 278.596 251.959 278.541 252.162 278.432C252.365 278.318 252.523 278.182 252.637 278.021C252.75 277.861 252.811 277.709 252.818 277.564L253.264 278.232C253.209 278.393 253.127 278.562 253.018 278.742C252.908 278.922 252.768 279.09 252.596 279.246C252.424 279.402 252.217 279.531 251.975 279.633C251.732 279.734 251.451 279.785 251.131 279.785C250.721 279.785 250.354 279.703 250.029 279.539C249.705 279.375 249.449 279.15 249.262 278.865C249.074 278.58 248.98 278.256 248.98 277.893C248.98 277.557 249.043 277.26 249.168 277.002C249.293 276.744 249.479 276.527 249.725 276.352C249.971 276.172 250.275 276.037 250.639 275.947C251.006 275.854 251.426 275.807 251.898 275.807H252.941ZM258.396 276.645H257.16V275.906H258.104C258.334 275.906 258.518 275.875 258.654 275.812C258.795 275.75 258.895 275.662 258.953 275.549C259.016 275.436 259.047 275.305 259.047 275.156C259.047 275.023 259.018 274.898 258.959 274.781C258.9 274.66 258.803 274.562 258.666 274.488C258.529 274.41 258.34 274.371 258.098 274.371C257.898 274.371 257.721 274.402 257.564 274.465C257.408 274.527 257.285 274.615 257.195 274.729C257.105 274.842 257.061 274.977 257.061 275.133H255.508C255.508 274.734 255.621 274.393 255.848 274.107C256.078 273.822 256.385 273.604 256.768 273.451C257.15 273.295 257.57 273.217 258.027 273.217C258.422 273.217 258.777 273.258 259.094 273.34C259.41 273.418 259.68 273.535 259.902 273.691C260.125 273.848 260.297 274.041 260.418 274.271C260.539 274.498 260.6 274.762 260.6 275.062C260.6 275.277 260.549 275.48 260.447 275.672C260.346 275.863 260.199 276.033 260.008 276.182C259.816 276.326 259.584 276.439 259.311 276.521C259.041 276.604 258.736 276.645 258.396 276.645ZM257.16 276.223H258.396C258.775 276.223 259.107 276.26 259.393 276.334C259.682 276.404 259.924 276.51 260.119 276.65C260.314 276.791 260.461 276.965 260.559 277.172C260.66 277.375 260.711 277.609 260.711 277.875C260.711 278.176 260.645 278.445 260.512 278.684C260.383 278.918 260.199 279.117 259.961 279.281C259.723 279.445 259.439 279.57 259.111 279.656C258.783 279.742 258.422 279.785 258.027 279.785C257.602 279.785 257.188 279.715 256.785 279.574C256.387 279.434 256.057 279.217 255.795 278.924C255.537 278.631 255.408 278.254 255.408 277.793H256.961C256.961 277.941 257.006 278.08 257.096 278.209C257.186 278.338 257.314 278.441 257.482 278.52C257.654 278.594 257.861 278.631 258.104 278.631C258.35 278.631 258.551 278.592 258.707 278.514C258.863 278.436 258.977 278.332 259.047 278.203C259.121 278.07 259.158 277.932 259.158 277.787C259.158 277.588 259.119 277.428 259.041 277.307C258.967 277.182 258.85 277.09 258.689 277.031C258.533 276.973 258.338 276.943 258.104 276.943H257.16V276.223ZM261.555 276.562V276.439C261.555 275.975 261.621 275.547 261.754 275.156C261.887 274.762 262.08 274.42 262.334 274.131C262.588 273.842 262.898 273.617 263.266 273.457C263.633 273.293 264.051 273.211 264.52 273.211C264.996 273.211 265.418 273.293 265.785 273.457C266.156 273.617 266.469 273.842 266.723 274.131C266.977 274.42 267.17 274.762 267.303 275.156C267.436 275.547 267.502 275.975 267.502 276.439V276.562C267.502 277.023 267.436 277.451 267.303 277.846C267.17 278.236 266.977 278.578 266.723 278.871C266.469 279.16 266.158 279.385 265.791 279.545C265.424 279.705 265.004 279.785 264.531 279.785C264.062 279.785 263.643 279.705 263.271 279.545C262.9 279.385 262.588 279.16 262.334 278.871C262.08 278.578 261.887 278.236 261.754 277.846C261.621 277.451 261.555 277.023 261.555 276.562ZM263.102 276.439V276.562C263.102 276.84 263.129 277.1 263.184 277.342C263.238 277.584 263.322 277.797 263.436 277.98C263.549 278.164 263.695 278.309 263.875 278.414C264.059 278.516 264.277 278.566 264.531 278.566C264.781 278.566 264.996 278.516 265.176 278.414C265.355 278.309 265.502 278.164 265.615 277.98C265.732 277.797 265.818 277.584 265.873 277.342C265.928 277.1 265.955 276.84 265.955 276.562V276.439C265.955 276.166 265.928 275.91 265.873 275.672C265.818 275.43 265.732 275.217 265.615 275.033C265.502 274.846 265.354 274.699 265.17 274.594C264.99 274.484 264.773 274.43 264.52 274.43C264.27 274.43 264.055 274.484 263.875 274.594C263.695 274.699 263.549 274.846 263.436 275.033C263.322 275.217 263.238 275.43 263.184 275.672C263.129 275.91 263.102 276.166 263.102 276.439ZM271.744 276.984H269.734L269.723 275.936H271.375C271.621 275.936 271.822 275.91 271.979 275.859C272.135 275.809 272.25 275.732 272.324 275.631C272.402 275.529 272.441 275.406 272.441 275.262C272.441 275.137 272.418 275.029 272.371 274.939C272.324 274.846 272.254 274.77 272.16 274.711C272.07 274.652 271.955 274.609 271.814 274.582C271.678 274.551 271.518 274.535 271.334 274.535H270.285V279.668H268.732V273.328H271.334C271.744 273.328 272.113 273.365 272.441 273.439C272.77 273.51 273.049 273.617 273.279 273.762C273.51 273.906 273.686 274.09 273.807 274.312C273.932 274.531 273.994 274.789 273.994 275.086C273.994 275.281 273.951 275.465 273.865 275.637C273.779 275.809 273.652 275.961 273.484 276.094C273.316 276.227 273.109 276.336 272.863 276.422C272.617 276.504 272.336 276.555 272.02 276.574L271.744 276.984ZM271.744 279.668H269.318L269.893 278.461H271.744C271.971 278.461 272.158 278.434 272.307 278.379C272.455 278.32 272.564 278.236 272.635 278.127C272.709 278.018 272.746 277.885 272.746 277.729C272.746 277.576 272.711 277.445 272.641 277.336C272.574 277.223 272.467 277.137 272.318 277.078C272.174 277.016 271.982 276.984 271.744 276.984H270.145L270.156 275.936H272.014L272.424 276.352C272.846 276.379 273.195 276.465 273.473 276.609C273.75 276.75 273.957 276.93 274.094 277.148C274.23 277.363 274.299 277.6 274.299 277.857C274.299 278.158 274.242 278.422 274.129 278.648C274.016 278.875 273.85 279.064 273.631 279.217C273.412 279.365 273.145 279.479 272.828 279.557C272.512 279.631 272.15 279.668 271.744 279.668ZM276.525 275.279H278.377C278.939 275.279 279.418 275.373 279.812 275.561C280.211 275.744 280.514 276.002 280.721 276.334C280.932 276.662 281.037 277.043 281.037 277.477C281.037 277.789 280.977 278.08 280.855 278.35C280.738 278.615 280.566 278.848 280.34 279.047C280.113 279.242 279.834 279.395 279.502 279.504C279.174 279.613 278.799 279.668 278.377 279.668H275.529V273.328H277.082V278.455H278.377C278.646 278.455 278.861 278.41 279.021 278.32C279.186 278.227 279.303 278.107 279.373 277.963C279.447 277.814 279.484 277.656 279.484 277.488C279.484 277.316 279.447 277.156 279.373 277.008C279.303 276.855 279.186 276.732 279.021 276.639C278.861 276.545 278.646 276.498 278.377 276.498H276.525V275.279ZM283.639 273.328V279.668H282.086V273.328H283.639ZM286.785 277.459L289.094 273.328H290.646V279.668H289.094V275.531L286.785 279.668H285.232V273.328H286.785V277.459ZM288.807 270.838H289.932C289.932 271.166 289.852 271.457 289.691 271.711C289.531 271.965 289.303 272.164 289.006 272.309C288.713 272.449 288.365 272.52 287.963 272.52C287.357 272.52 286.877 272.363 286.521 272.051C286.166 271.738 285.988 271.334 285.988 270.838H287.113C287.113 271.045 287.178 271.23 287.307 271.395C287.436 271.559 287.654 271.641 287.963 271.641C288.271 271.641 288.488 271.559 288.613 271.395C288.742 271.23 288.807 271.045 288.807 270.838ZM298.844 277.84L300.625 273.328H301.92L299.371 279.668H298.322L295.779 273.328H297.08L298.844 277.84ZM296.699 273.328V279.668H295.146V273.328H296.699ZM301.018 279.668V273.328H302.57V279.668H301.018ZM303.836 276.562V276.439C303.836 275.975 303.902 275.547 304.035 275.156C304.168 274.762 304.361 274.42 304.615 274.131C304.869 273.842 305.18 273.617 305.547 273.457C305.914 273.293 306.332 273.211 306.801 273.211C307.277 273.211 307.699 273.293 308.066 273.457C308.438 273.617 308.75 273.842 309.004 274.131C309.258 274.42 309.451 274.762 309.584 275.156C309.717 275.547 309.783 275.975 309.783 276.439V276.562C309.783 277.023 309.717 277.451 309.584 277.846C309.451 278.236 309.258 278.578 309.004 278.871C308.75 279.16 308.439 279.385 308.072 279.545C307.705 279.705 307.285 279.785 306.812 279.785C306.344 279.785 305.924 279.705 305.553 279.545C305.182 279.385 304.869 279.16 304.615 278.871C304.361 278.578 304.168 278.236 304.035 277.846C303.902 277.451 303.836 277.023 303.836 276.562ZM305.383 276.439V276.562C305.383 276.84 305.41 277.1 305.465 277.342C305.52 277.584 305.604 277.797 305.717 277.98C305.83 278.164 305.977 278.309 306.156 278.414C306.34 278.516 306.559 278.566 306.812 278.566C307.062 278.566 307.277 278.516 307.457 278.414C307.637 278.309 307.783 278.164 307.896 277.98C308.014 277.797 308.1 277.584 308.154 277.342C308.209 277.1 308.236 276.84 308.236 276.562V276.439C308.236 276.166 308.209 275.91 308.154 275.672C308.1 275.43 308.014 275.217 307.896 275.033C307.783 274.846 307.635 274.699 307.451 274.594C307.271 274.484 307.055 274.43 306.801 274.43C306.551 274.43 306.336 274.484 306.156 274.594C305.977 274.699 305.83 274.846 305.717 275.033C305.604 275.217 305.52 275.43 305.465 275.672C305.41 275.91 305.383 276.166 305.383 276.439ZM311.629 273.328H313.176L313.117 275.508C313.098 276.168 313.02 276.738 312.883 277.219C312.75 277.695 312.572 278.096 312.35 278.42C312.131 278.744 311.881 279.006 311.6 279.205C311.322 279.404 311.031 279.559 310.727 279.668H310.357L310.352 278.461L310.533 278.449C310.717 278.254 310.871 278.062 310.996 277.875C311.125 277.684 311.229 277.479 311.307 277.26C311.385 277.041 311.443 276.791 311.482 276.51C311.525 276.225 311.553 275.891 311.564 275.508L311.629 273.328ZM312.045 273.328H316.152V279.668H314.605V274.6H312.045V273.328ZM310.006 278.449H317.037V281.566H315.49V279.668H311.582V281.566H310L310.006 278.449ZM319.844 278.965L321.543 273.328H323.201L320.658 280.629C320.6 280.785 320.523 280.955 320.43 281.139C320.34 281.322 320.219 281.496 320.066 281.66C319.914 281.828 319.723 281.965 319.492 282.07C319.266 282.176 318.99 282.229 318.666 282.229C318.525 282.229 318.4 282.219 318.291 282.199C318.182 282.18 318.066 282.154 317.945 282.123V280.963C317.984 280.967 318.029 280.969 318.08 280.969C318.135 280.973 318.182 280.975 318.221 280.975C318.447 280.975 318.635 280.947 318.783 280.893C318.932 280.842 319.051 280.758 319.141 280.641C319.234 280.527 319.312 280.379 319.375 280.195L319.844 278.965ZM319.006 273.328L320.441 277.998L320.693 279.633L319.627 279.826L317.336 273.328H319.006ZM327.965 273.328V274.553H324.859V273.328H327.965ZM329.131 273.328V279.668H327.584V273.328H329.131ZM324.473 273.328H326.002L325.832 276.492C325.805 276.957 325.756 277.365 325.686 277.717C325.615 278.064 325.521 278.363 325.404 278.613C325.287 278.859 325.145 279.061 324.977 279.217C324.809 279.373 324.613 279.488 324.391 279.562C324.172 279.633 323.926 279.668 323.652 279.668H323.178L323.16 278.42L323.383 278.402C323.52 278.391 323.637 278.354 323.734 278.291C323.836 278.229 323.922 278.139 323.992 278.021C324.066 277.904 324.127 277.754 324.174 277.57C324.225 277.383 324.264 277.164 324.291 276.914C324.322 276.66 324.344 276.367 324.355 276.035L324.473 273.328ZM331.65 275.279H333.502C334.064 275.279 334.543 275.373 334.938 275.561C335.336 275.744 335.639 276.002 335.846 276.334C336.057 276.662 336.162 277.043 336.162 277.477C336.162 277.789 336.102 278.08 335.98 278.35C335.863 278.615 335.691 278.848 335.465 279.047C335.238 279.242 334.959 279.395 334.627 279.504C334.299 279.613 333.924 279.668 333.502 279.668H330.654V273.328H332.207V278.455H333.502C333.771 278.455 333.986 278.41 334.146 278.32C334.311 278.227 334.428 278.107 334.498 277.963C334.572 277.814 334.609 277.656 334.609 277.488C334.609 277.316 334.572 277.156 334.498 277.008C334.428 276.855 334.311 276.732 334.146 276.639C333.986 276.545 333.771 276.498 333.502 276.498H331.65V275.279Z" fill="#00C3FF"/>
<path d="M84.3926 344.073V345.292H78.6152V344.249L81.3867 341.255C81.6758 340.927 81.9043 340.642 82.0723 340.399C82.2402 340.157 82.3594 339.938 82.4297 339.743C82.5039 339.544 82.541 339.354 82.541 339.175C82.541 338.913 82.4941 338.685 82.4004 338.489C82.3066 338.29 82.1699 338.136 81.9902 338.026C81.8145 337.917 81.5977 337.862 81.3398 337.862C81.0547 337.862 80.8105 337.929 80.6074 338.062C80.4082 338.19 80.2559 338.37 80.1504 338.601C80.0488 338.831 79.998 339.095 79.998 339.392H78.4453C78.4453 338.888 78.5625 338.429 78.7969 338.015C79.0312 337.597 79.3672 337.263 79.8047 337.013C80.2422 336.763 80.7617 336.638 81.3633 336.638C81.9492 336.638 82.4453 336.735 82.8516 336.931C83.2578 337.122 83.5664 337.396 83.7773 337.751C83.9883 338.106 84.0938 338.53 84.0938 339.022C84.0938 339.296 84.0488 339.565 83.959 339.831C83.8691 340.097 83.7422 340.36 83.5781 340.622C83.418 340.88 83.2266 341.142 83.0039 341.407C82.7812 341.673 82.5332 341.944 82.2598 342.222L80.5957 344.073H84.3926ZM92.4668 336.169H93.7207C93.7207 336.501 93.6777 336.78 93.5918 337.007C93.5059 337.229 93.373 337.417 93.1934 337.569C93.0137 337.718 92.7832 337.841 92.502 337.938C92.2207 338.036 91.8848 338.122 91.4941 338.196C91.166 338.263 90.877 338.372 90.627 338.524C90.377 338.677 90.168 338.886 90 339.151C89.8359 339.417 89.7168 339.755 89.6426 340.165C89.5684 340.575 89.5449 341.069 89.5723 341.647V341.987L88.3594 342.128V341.788C88.3594 341.034 88.4277 340.378 88.5645 339.819C88.7012 339.257 88.8945 338.784 89.1445 338.401C89.3945 338.015 89.6934 337.708 90.041 337.481C90.3926 337.251 90.7852 337.089 91.2188 336.995C91.5078 336.937 91.7441 336.876 91.9277 336.813C92.1152 336.751 92.252 336.671 92.3379 336.573C92.4238 336.472 92.4668 336.337 92.4668 336.169ZM91.5996 339.31C92.0254 339.31 92.4023 339.384 92.7305 339.532C93.0625 339.677 93.3418 339.882 93.5684 340.147C93.7949 340.409 93.9668 340.72 94.084 341.079C94.2051 341.435 94.2656 341.823 94.2656 342.245V342.368C94.2656 342.806 94.1992 343.21 94.0664 343.581C93.9375 343.952 93.748 344.274 93.498 344.548C93.248 344.821 92.9395 345.034 92.5723 345.187C92.2051 345.339 91.7852 345.415 91.3125 345.415C90.8438 345.415 90.4258 345.335 90.0586 345.175C89.6914 345.011 89.3809 344.784 89.127 344.495C88.873 344.206 88.6816 343.866 88.5527 343.476C88.4238 343.081 88.3594 342.651 88.3594 342.187V342.063C88.3555 341.985 88.3809 341.911 88.4355 341.841C88.4902 341.771 88.5547 341.692 88.6289 341.606C88.707 341.521 88.7773 341.417 88.8398 341.296C89.0547 340.882 89.2969 340.526 89.5664 340.229C89.8398 339.933 90.1445 339.706 90.4805 339.55C90.8164 339.39 91.1895 339.31 91.5996 339.31ZM91.3008 340.528C90.9688 340.528 90.6992 340.608 90.4922 340.769C90.2891 340.925 90.1406 341.134 90.0469 341.396C89.9531 341.653 89.9062 341.937 89.9062 342.245V342.368C89.9062 342.618 89.9316 342.854 89.9824 343.077C90.0371 343.296 90.1191 343.489 90.2285 343.657C90.3379 343.825 90.4824 343.958 90.6621 344.056C90.8418 344.149 91.0586 344.196 91.3125 344.196C91.5664 344.196 91.7812 344.149 91.957 344.056C92.1367 343.958 92.2812 343.825 92.3906 343.657C92.5 343.489 92.5801 343.296 92.6309 343.077C92.6855 342.854 92.7129 342.618 92.7129 342.368V342.245C92.7129 342.015 92.6855 341.796 92.6309 341.589C92.5801 341.382 92.5 341.2 92.3906 341.044C92.2812 340.884 92.1348 340.759 91.9512 340.669C91.7715 340.575 91.5547 340.528 91.3008 340.528ZM98.8301 343.944V341.021C98.8301 340.806 98.793 340.62 98.7188 340.464C98.6445 340.308 98.5312 340.187 98.3789 340.101C98.2266 340.015 98.0332 339.972 97.7988 339.972C97.5918 339.972 97.4102 340.007 97.2539 340.077C97.1016 340.147 96.9844 340.247 96.9023 340.376C96.8203 340.501 96.7793 340.646 96.7793 340.81H95.2266C95.2266 340.548 95.2891 340.3 95.4141 340.065C95.5391 339.827 95.7168 339.616 95.9473 339.433C96.1816 339.245 96.4609 339.099 96.7852 338.993C97.1133 338.888 97.4805 338.835 97.8867 338.835C98.3672 338.835 98.7949 338.917 99.1699 339.081C99.5488 339.241 99.8457 339.483 100.061 339.808C100.279 340.132 100.389 340.54 100.389 341.032V343.798C100.389 344.114 100.408 344.386 100.447 344.612C100.49 344.835 100.553 345.028 100.635 345.192V345.292H99.0586C98.9844 345.132 98.9277 344.929 98.8887 344.683C98.8496 344.433 98.8301 344.187 98.8301 343.944ZM99.0469 341.431L99.0586 342.351H98.0801C97.8379 342.351 97.625 342.376 97.4414 342.427C97.2578 342.474 97.1074 342.544 96.9902 342.638C96.873 342.728 96.7852 342.837 96.7266 342.966C96.668 343.091 96.6387 343.233 96.6387 343.394C96.6387 343.55 96.6738 343.69 96.7441 343.815C96.8184 343.94 96.9238 344.04 97.0605 344.114C97.2012 344.185 97.3652 344.22 97.5527 344.22C97.8262 344.22 98.0645 344.165 98.2676 344.056C98.4707 343.942 98.6289 343.806 98.7422 343.646C98.8555 343.485 98.916 343.333 98.9238 343.188L99.3691 343.856C99.3145 344.017 99.2324 344.187 99.123 344.366C99.0137 344.546 98.873 344.714 98.7012 344.87C98.5293 345.026 98.3223 345.155 98.0801 345.257C97.8379 345.358 97.5566 345.409 97.2363 345.409C96.8262 345.409 96.459 345.327 96.1348 345.163C95.8105 344.999 95.5547 344.774 95.3672 344.489C95.1797 344.204 95.0859 343.88 95.0859 343.517C95.0859 343.181 95.1484 342.884 95.2734 342.626C95.3984 342.368 95.584 342.151 95.8301 341.976C96.0762 341.796 96.3809 341.661 96.7441 341.571C97.1113 341.478 97.5312 341.431 98.0039 341.431H99.0469ZM104.502 342.269H103.266V341.53H104.209C104.439 341.53 104.623 341.499 104.76 341.437C104.9 341.374 105 341.286 105.059 341.173C105.121 341.06 105.152 340.929 105.152 340.78C105.152 340.647 105.123 340.522 105.064 340.405C105.006 340.284 104.908 340.187 104.771 340.112C104.635 340.034 104.445 339.995 104.203 339.995C104.004 339.995 103.826 340.026 103.67 340.089C103.514 340.151 103.391 340.239 103.301 340.353C103.211 340.466 103.166 340.601 103.166 340.757H101.613C101.613 340.358 101.727 340.017 101.953 339.731C102.184 339.446 102.49 339.228 102.873 339.075C103.256 338.919 103.676 338.841 104.133 338.841C104.527 338.841 104.883 338.882 105.199 338.964C105.516 339.042 105.785 339.159 106.008 339.315C106.23 339.472 106.402 339.665 106.523 339.896C106.645 340.122 106.705 340.386 106.705 340.687C106.705 340.901 106.654 341.104 106.553 341.296C106.451 341.487 106.305 341.657 106.113 341.806C105.922 341.95 105.689 342.063 105.416 342.146C105.146 342.228 104.842 342.269 104.502 342.269ZM103.266 341.847H104.502C104.881 341.847 105.213 341.884 105.498 341.958C105.787 342.028 106.029 342.134 106.225 342.274C106.42 342.415 106.566 342.589 106.664 342.796C106.766 342.999 106.816 343.233 106.816 343.499C106.816 343.8 106.75 344.069 106.617 344.308C106.488 344.542 106.305 344.741 106.066 344.905C105.828 345.069 105.545 345.194 105.217 345.28C104.889 345.366 104.527 345.409 104.133 345.409C103.707 345.409 103.293 345.339 102.891 345.198C102.492 345.058 102.162 344.841 101.9 344.548C101.643 344.255 101.514 343.878 101.514 343.417H103.066C103.066 343.565 103.111 343.704 103.201 343.833C103.291 343.962 103.42 344.065 103.588 344.144C103.76 344.218 103.967 344.255 104.209 344.255C104.455 344.255 104.656 344.216 104.812 344.138C104.969 344.06 105.082 343.956 105.152 343.827C105.227 343.694 105.264 343.556 105.264 343.411C105.264 343.212 105.225 343.052 105.146 342.931C105.072 342.806 104.955 342.714 104.795 342.655C104.639 342.597 104.443 342.567 104.209 342.567H103.266V341.847ZM107.66 342.187V342.063C107.66 341.599 107.727 341.171 107.859 340.78C107.992 340.386 108.186 340.044 108.439 339.755C108.693 339.466 109.004 339.241 109.371 339.081C109.738 338.917 110.156 338.835 110.625 338.835C111.102 338.835 111.523 338.917 111.891 339.081C112.262 339.241 112.574 339.466 112.828 339.755C113.082 340.044 113.275 340.386 113.408 340.78C113.541 341.171 113.607 341.599 113.607 342.063V342.187C113.607 342.647 113.541 343.075 113.408 343.47C113.275 343.86 113.082 344.202 112.828 344.495C112.574 344.784 112.264 345.009 111.896 345.169C111.529 345.329 111.109 345.409 110.637 345.409C110.168 345.409 109.748 345.329 109.377 345.169C109.006 345.009 108.693 344.784 108.439 344.495C108.186 344.202 107.992 343.86 107.859 343.47C107.727 343.075 107.66 342.647 107.66 342.187ZM109.207 342.063V342.187C109.207 342.464 109.234 342.724 109.289 342.966C109.344 343.208 109.428 343.421 109.541 343.604C109.654 343.788 109.801 343.933 109.98 344.038C110.164 344.14 110.383 344.19 110.637 344.19C110.887 344.19 111.102 344.14 111.281 344.038C111.461 343.933 111.607 343.788 111.721 343.604C111.838 343.421 111.924 343.208 111.979 342.966C112.033 342.724 112.061 342.464 112.061 342.187V342.063C112.061 341.79 112.033 341.534 111.979 341.296C111.924 341.054 111.838 340.841 111.721 340.657C111.607 340.47 111.459 340.323 111.275 340.218C111.096 340.108 110.879 340.054 110.625 340.054C110.375 340.054 110.16 340.108 109.98 340.218C109.801 340.323 109.654 340.47 109.541 340.657C109.428 340.841 109.344 341.054 109.289 341.296C109.234 341.534 109.207 341.79 109.207 342.063ZM117.85 342.608H115.84L115.828 341.56H117.48C117.727 341.56 117.928 341.534 118.084 341.483C118.24 341.433 118.355 341.356 118.43 341.255C118.508 341.153 118.547 341.03 118.547 340.886C118.547 340.761 118.523 340.653 118.477 340.563C118.43 340.47 118.359 340.394 118.266 340.335C118.176 340.276 118.061 340.233 117.92 340.206C117.783 340.175 117.623 340.159 117.439 340.159H116.391V345.292H114.838V338.952H117.439C117.85 338.952 118.219 338.989 118.547 339.063C118.875 339.134 119.154 339.241 119.385 339.386C119.615 339.53 119.791 339.714 119.912 339.937C120.037 340.155 120.1 340.413 120.1 340.71C120.1 340.905 120.057 341.089 119.971 341.261C119.885 341.433 119.758 341.585 119.59 341.718C119.422 341.851 119.215 341.96 118.969 342.046C118.723 342.128 118.441 342.179 118.125 342.198L117.85 342.608ZM117.85 345.292H115.424L115.998 344.085H117.85C118.076 344.085 118.264 344.058 118.412 344.003C118.561 343.944 118.67 343.86 118.74 343.751C118.814 343.642 118.852 343.509 118.852 343.353C118.852 343.2 118.816 343.069 118.746 342.96C118.68 342.847 118.572 342.761 118.424 342.702C118.279 342.64 118.088 342.608 117.85 342.608H116.25L116.262 341.56H118.119L118.529 341.976C118.951 342.003 119.301 342.089 119.578 342.233C119.855 342.374 120.062 342.554 120.199 342.772C120.336 342.987 120.404 343.224 120.404 343.481C120.404 343.782 120.348 344.046 120.234 344.272C120.121 344.499 119.955 344.688 119.736 344.841C119.518 344.989 119.25 345.103 118.934 345.181C118.617 345.255 118.256 345.292 117.85 345.292ZM122.631 340.903H124.482C125.045 340.903 125.523 340.997 125.918 341.185C126.316 341.368 126.619 341.626 126.826 341.958C127.037 342.286 127.143 342.667 127.143 343.101C127.143 343.413 127.082 343.704 126.961 343.974C126.844 344.239 126.672 344.472 126.445 344.671C126.219 344.866 125.939 345.019 125.607 345.128C125.279 345.237 124.904 345.292 124.482 345.292H121.635V338.952H123.188V344.079H124.482C124.752 344.079 124.967 344.034 125.127 343.944C125.291 343.851 125.408 343.731 125.479 343.587C125.553 343.438 125.59 343.28 125.59 343.112C125.59 342.94 125.553 342.78 125.479 342.632C125.408 342.479 125.291 342.356 125.127 342.263C124.967 342.169 124.752 342.122 124.482 342.122H122.631V340.903ZM129.744 338.952V345.292H128.191V338.952H129.744ZM132.539 338.952L133.67 340.968L134.818 338.952H136.5L134.637 342.058L136.576 345.292H134.895L133.682 343.177L132.463 345.292H130.781L132.715 342.058L130.863 338.952H132.539ZM144.188 343.464L145.969 338.952H147.264L144.715 345.292H143.666L141.123 338.952H142.424L144.188 343.464ZM142.043 338.952V345.292H140.49V338.952H142.043ZM146.361 345.292V338.952H147.914V345.292H146.361ZM149.18 342.187V342.063C149.18 341.599 149.246 341.171 149.379 340.78C149.512 340.386 149.705 340.044 149.959 339.755C150.213 339.466 150.523 339.241 150.891 339.081C151.258 338.917 151.676 338.835 152.145 338.835C152.621 338.835 153.043 338.917 153.41 339.081C153.781 339.241 154.094 339.466 154.348 339.755C154.602 340.044 154.795 340.386 154.928 340.78C155.061 341.171 155.127 341.599 155.127 342.063V342.187C155.127 342.647 155.061 343.075 154.928 343.47C154.795 343.86 154.602 344.202 154.348 344.495C154.094 344.784 153.783 345.009 153.416 345.169C153.049 345.329 152.629 345.409 152.156 345.409C151.688 345.409 151.268 345.329 150.896 345.169C150.525 345.009 150.213 344.784 149.959 344.495C149.705 344.202 149.512 343.86 149.379 343.47C149.246 343.075 149.18 342.647 149.18 342.187ZM150.727 342.063V342.187C150.727 342.464 150.754 342.724 150.809 342.966C150.863 343.208 150.947 343.421 151.061 343.604C151.174 343.788 151.32 343.933 151.5 344.038C151.684 344.14 151.902 344.19 152.156 344.19C152.406 344.19 152.621 344.14 152.801 344.038C152.98 343.933 153.127 343.788 153.24 343.604C153.357 343.421 153.443 343.208 153.498 342.966C153.553 342.724 153.58 342.464 153.58 342.187V342.063C153.58 341.79 153.553 341.534 153.498 341.296C153.443 341.054 153.357 340.841 153.24 340.657C153.127 340.47 152.979 340.323 152.795 340.218C152.615 340.108 152.398 340.054 152.145 340.054C151.895 340.054 151.68 340.108 151.5 340.218C151.32 340.323 151.174 340.47 151.061 340.657C150.947 340.841 150.863 341.054 150.809 341.296C150.754 341.534 150.727 341.79 150.727 342.063ZM156.973 338.952H158.52L158.461 341.132C158.441 341.792 158.363 342.362 158.227 342.843C158.094 343.319 157.916 343.72 157.693 344.044C157.475 344.368 157.225 344.63 156.943 344.829C156.666 345.028 156.375 345.183 156.07 345.292H155.701L155.695 344.085L155.877 344.073C156.061 343.878 156.215 343.687 156.34 343.499C156.469 343.308 156.572 343.103 156.65 342.884C156.729 342.665 156.787 342.415 156.826 342.134C156.869 341.849 156.896 341.515 156.908 341.132L156.973 338.952ZM157.389 338.952H161.496V345.292H159.949V340.224H157.389V338.952ZM155.35 344.073H162.381V347.19H160.834V345.292H156.926V347.19H155.344L155.35 344.073ZM165.188 344.589L166.887 338.952H168.545L166.002 346.253C165.943 346.409 165.867 346.579 165.773 346.763C165.684 346.946 165.562 347.12 165.41 347.284C165.258 347.452 165.066 347.589 164.836 347.694C164.609 347.8 164.334 347.853 164.01 347.853C163.869 347.853 163.744 347.843 163.635 347.823C163.525 347.804 163.41 347.778 163.289 347.747V346.587C163.328 346.591 163.373 346.593 163.424 346.593C163.479 346.597 163.525 346.599 163.564 346.599C163.791 346.599 163.979 346.571 164.127 346.517C164.275 346.466 164.395 346.382 164.484 346.265C164.578 346.151 164.656 346.003 164.719 345.819L165.188 344.589ZM164.35 338.952L165.785 343.622L166.037 345.257L164.971 345.45L162.68 338.952H164.35ZM173.309 338.952V340.177H170.203V338.952H173.309ZM174.475 338.952V345.292H172.928V338.952H174.475ZM169.816 338.952H171.346L171.176 342.116C171.148 342.581 171.1 342.989 171.029 343.341C170.959 343.688 170.865 343.987 170.748 344.237C170.631 344.483 170.488 344.685 170.32 344.841C170.152 344.997 169.957 345.112 169.734 345.187C169.516 345.257 169.27 345.292 168.996 345.292H168.521L168.504 344.044L168.727 344.026C168.863 344.015 168.98 343.978 169.078 343.915C169.18 343.853 169.266 343.763 169.336 343.646C169.41 343.528 169.471 343.378 169.518 343.194C169.568 343.007 169.607 342.788 169.635 342.538C169.666 342.284 169.688 341.991 169.699 341.659L169.816 338.952ZM177.24 342.163H178.828L177.047 345.292H175.459L177.24 342.163ZM178.318 338.952H181.072V345.292H179.525V340.159H178.318C178.072 340.159 177.867 340.204 177.703 340.294C177.543 340.384 177.424 340.499 177.346 340.64C177.268 340.776 177.229 340.917 177.229 341.062C177.229 341.202 177.266 341.339 177.34 341.472C177.414 341.604 177.527 341.714 177.68 341.8C177.836 341.886 178.031 341.929 178.266 341.929H180.076V343.019H178.266C177.863 343.019 177.502 342.97 177.182 342.872C176.865 342.771 176.594 342.63 176.367 342.45C176.145 342.271 175.975 342.06 175.857 341.817C175.74 341.571 175.682 341.304 175.682 341.015C175.682 340.718 175.74 340.444 175.857 340.194C175.979 339.944 176.152 339.726 176.379 339.538C176.609 339.351 176.887 339.206 177.211 339.104C177.539 339.003 177.908 338.952 178.318 338.952Z" fill="#00C3FF"/>
<path d="M7.99023 143.292L7.99023 144.165C7.99023 144.473 8.04297 144.727 8.14844 144.926C8.25781 145.129 8.40625 145.28 8.59375 145.377C8.78516 145.479 9.00586 145.53 9.25586 145.53C9.50195 145.53 9.71484 145.485 9.89453 145.395C10.0781 145.305 10.2187 145.168 10.3164 144.985C10.418 144.805 10.4687 144.575 10.4687 144.293C10.4687 144.067 10.4238 143.858 10.334 143.667C10.2441 143.479 10.1152 143.329 9.94727 143.215C9.7832 143.106 9.58594 143.051 9.35547 143.051L9.35547 141.499C9.81641 141.499 10.2207 141.62 10.5684 141.862C10.9199 142.108 11.1953 142.44 11.3945 142.858C11.5937 143.276 11.6934 143.743 11.6934 144.258C11.6934 144.821 11.5996 145.313 11.4121 145.735C11.2285 146.161 10.957 146.491 10.5977 146.725C10.2383 146.963 9.79297 147.083 9.26172 147.083C9.00781 147.083 8.75391 147.022 8.5 146.901C8.25 146.784 8.02344 146.61 7.82031 146.379C7.62109 146.153 7.45898 145.874 7.33398 145.542C7.21289 145.213 7.15234 144.836 7.15234 144.411L7.15234 143.292L7.99023 143.292ZM6.79492 143.292L7.62109 143.292L7.62109 144.411C7.62109 144.891 7.56445 145.307 7.45117 145.659C7.3418 146.014 7.18555 146.307 6.98242 146.538C6.7832 146.768 6.55078 146.938 6.28516 147.047C6.01953 147.161 5.73437 147.217 5.42969 147.217C5.03125 147.217 4.67578 147.143 4.36328 146.995C4.05469 146.846 3.79297 146.637 3.57812 146.368C3.36328 146.102 3.19922 145.79 3.08594 145.43C2.97656 145.071 2.92187 144.682 2.92187 144.264C2.92187 143.901 2.9707 143.547 3.06836 143.204C3.16992 142.864 3.32031 142.557 3.51953 142.284C3.72266 142.01 3.97656 141.793 4.28125 141.633C4.58984 141.473 4.94727 141.393 5.35352 141.393L5.35352 142.946C5.11914 142.946 4.91016 143.002 4.72656 143.116C4.54297 143.233 4.39844 143.393 4.29297 143.596C4.19141 143.803 4.14062 144.036 4.14062 144.293C4.14062 144.579 4.19141 144.823 4.29297 145.026C4.39844 145.233 4.54687 145.391 4.73828 145.5C4.93359 145.61 5.16602 145.665 5.43555 145.665C5.75586 145.665 6.01562 145.604 6.21484 145.483C6.41406 145.362 6.56055 145.188 6.6543 144.961C6.74805 144.739 6.79492 144.473 6.79492 144.165L6.79492 143.292ZM12.1621 155.45L12.1621 156.704C11.8301 156.704 11.5508 156.661 11.3242 156.575C11.1016 156.489 10.9141 156.356 10.7617 156.176C10.6133 155.997 10.4902 155.766 10.3926 155.485C10.2949 155.204 10.209 154.868 10.1348 154.477C10.0684 154.149 9.95898 153.86 9.80664 153.61C9.6543 153.36 9.44531 153.151 9.17969 152.983C8.91406 152.819 8.57617 152.7 8.16602 152.625C7.75586 152.551 7.26172 152.528 6.68359 152.555L6.34375 152.555L6.20312 151.342L6.54297 151.342C7.29687 151.342 7.95312 151.411 8.51172 151.547C9.07422 151.684 9.54687 151.877 9.92969 152.127C10.3164 152.377 10.623 152.676 10.8496 153.024C11.0801 153.375 11.2422 153.768 11.3359 154.202C11.3945 154.491 11.4551 154.727 11.5176 154.911C11.5801 155.098 11.6602 155.235 11.7578 155.321C11.8594 155.407 11.9941 155.45 12.1621 155.45ZM9.02148 154.583C9.02148 155.008 8.94726 155.385 8.79883 155.713C8.6543 156.045 8.44922 156.325 8.18359 156.551C7.92187 156.778 7.61133 156.95 7.25195 157.067C6.89648 157.188 6.50781 157.249 6.08594 157.249L5.96289 157.249C5.52539 157.249 5.12109 157.182 4.75 157.049C4.37891 156.92 4.05664 156.731 3.7832 156.481C3.50976 156.231 3.29687 155.922 3.14453 155.555C2.99219 155.188 2.91602 154.768 2.91602 154.295C2.91602 153.827 2.99609 153.409 3.15625 153.042C3.32031 152.674 3.54687 152.364 3.83594 152.11C4.125 151.856 4.46484 151.665 4.85547 151.536C5.25 151.407 5.67969 151.342 6.14453 151.342L6.26758 151.342C6.3457 151.338 6.41992 151.364 6.49023 151.418C6.56055 151.473 6.63867 151.538 6.72461 151.612C6.81055 151.69 6.91406 151.76 7.03516 151.823C7.44922 152.038 7.80469 152.28 8.10156 152.549C8.39844 152.823 8.625 153.127 8.78125 153.463C8.94141 153.799 9.02148 154.172 9.02148 154.583ZM7.80273 154.284C7.80273 153.952 7.72266 153.682 7.5625 153.475C7.40625 153.272 7.19727 153.124 6.93555 153.03C6.67773 152.936 6.39453 152.889 6.08594 152.889L5.96289 152.889C5.71289 152.889 5.47656 152.915 5.25391 152.965C5.03516 153.02 4.8418 153.102 4.67383 153.211C4.50586 153.321 4.37305 153.465 4.27539 153.645C4.18164 153.825 4.13477 154.042 4.13477 154.295C4.13477 154.549 4.18164 154.764 4.27539 154.94C4.37305 155.12 4.50586 155.264 4.67383 155.374C4.8418 155.483 5.03516 155.563 5.25391 155.614C5.47656 155.668 5.71289 155.696 5.96289 155.696L6.08594 155.696C6.31641 155.696 6.53516 155.668 6.74219 155.614C6.94922 155.563 7.13086 155.483 7.28711 155.374C7.44727 155.264 7.57227 155.118 7.66211 154.934C7.75586 154.754 7.80273 154.538 7.80273 154.284ZM4.38672 161.813L7.31055 161.813C7.52539 161.813 7.71094 161.776 7.86719 161.702C8.02344 161.627 8.14453 161.514 8.23047 161.362C8.31641 161.209 8.35937 161.016 8.35937 160.782C8.35937 160.575 8.32422 160.393 8.25391 160.237C8.18359 160.084 8.08398 159.967 7.95508 159.885C7.83008 159.803 7.68555 159.762 7.52148 159.762L7.52148 158.209C7.7832 158.209 8.03125 158.272 8.26562 158.397C8.50391 158.522 8.71484 158.7 8.89844 158.93C9.08594 159.165 9.23242 159.444 9.33789 159.768C9.44336 160.096 9.49609 160.463 9.49609 160.87C9.49609 161.35 9.41406 161.778 9.25 162.153C9.08984 162.532 8.84766 162.829 8.52344 163.043C8.19922 163.262 7.79101 163.372 7.29883 163.372L4.5332 163.372C4.2168 163.372 3.94531 163.391 3.71875 163.43C3.49609 163.473 3.30273 163.536 3.13867 163.618L3.03906 163.618L3.03906 162.042C3.19922 161.967 3.40234 161.911 3.64844 161.872C3.89844 161.833 4.14453 161.813 4.38672 161.813ZM6.90039 162.03L5.98047 162.042L5.98047 161.063C5.98047 160.821 5.95508 160.608 5.9043 160.424C5.85742 160.241 5.78711 160.09 5.69336 159.973C5.60351 159.856 5.49414 159.768 5.36523 159.709C5.24023 159.651 5.09766 159.622 4.9375 159.622C4.78125 159.622 4.64062 159.657 4.51562 159.727C4.39062 159.801 4.29101 159.907 4.2168 160.043C4.14648 160.184 4.11133 160.348 4.11133 160.536C4.11133 160.809 4.16601 161.047 4.27539 161.25C4.38867 161.454 4.52539 161.612 4.68555 161.725C4.8457 161.838 4.99805 161.899 5.14258 161.907L4.47461 162.352C4.31445 162.297 4.14453 162.215 3.96484 162.106C3.78516 161.997 3.61719 161.856 3.46094 161.684C3.30469 161.512 3.17578 161.305 3.07422 161.063C2.97266 160.821 2.92187 160.54 2.92187 160.219C2.92187 159.809 3.00391 159.442 3.16797 159.118C3.33203 158.793 3.55664 158.538 3.8418 158.35C4.12695 158.163 4.45117 158.069 4.81445 158.069C5.15039 158.069 5.44726 158.131 5.70508 158.256C5.96289 158.381 6.17969 158.567 6.35547 158.813C6.53516 159.059 6.66992 159.364 6.75976 159.727C6.85351 160.094 6.90039 160.514 6.90039 160.987L6.90039 162.03ZM6.0625 167.485L6.0625 166.249L6.80078 166.249L6.80078 167.192C6.80078 167.422 6.83203 167.606 6.89453 167.743C6.95703 167.883 7.04492 167.983 7.1582 168.042C7.27148 168.104 7.40234 168.135 7.55078 168.135C7.68359 168.135 7.80859 168.106 7.92578 168.047C8.04687 167.989 8.14453 167.891 8.21875 167.754C8.29687 167.618 8.33594 167.428 8.33594 167.186C8.33594 166.987 8.30469 166.809 8.24219 166.653C8.17969 166.497 8.0918 166.374 7.97851 166.284C7.86523 166.194 7.73047 166.149 7.57422 166.149L7.57422 164.596C7.97266 164.596 8.31445 164.709 8.59961 164.936C8.88476 165.167 9.10351 165.473 9.25586 165.856C9.41211 166.239 9.49023 166.659 9.49023 167.116C9.49023 167.51 9.44922 167.866 9.36719 168.182C9.28906 168.499 9.17187 168.768 9.01562 168.991C8.85937 169.213 8.66601 169.385 8.43555 169.506C8.20898 169.627 7.94531 169.688 7.64453 169.688C7.42969 169.688 7.22656 169.637 7.03516 169.536C6.84375 169.434 6.67383 169.288 6.52539 169.096C6.38086 168.905 6.26758 168.672 6.18555 168.399C6.10351 168.129 6.0625 167.825 6.0625 167.485ZM6.48437 166.249L6.48437 167.485C6.48437 167.864 6.44726 168.196 6.37305 168.481C6.30273 168.77 6.19726 169.012 6.05664 169.208C5.91601 169.403 5.74219 169.549 5.53515 169.647C5.33203 169.749 5.09765 169.799 4.83203 169.799C4.53125 169.799 4.26172 169.733 4.02344 169.6C3.78906 169.471 3.58984 169.288 3.42578 169.049C3.26172 168.811 3.13672 168.528 3.05078 168.2C2.96484 167.872 2.92187 167.51 2.92187 167.116C2.92187 166.69 2.99219 166.276 3.13281 165.874C3.27344 165.475 3.49023 165.145 3.7832 164.883C4.07617 164.625 4.45312 164.497 4.91406 164.497L4.91406 166.049C4.76562 166.049 4.62695 166.094 4.49805 166.184C4.36914 166.274 4.26562 166.403 4.1875 166.571C4.11328 166.743 4.07617 166.95 4.07617 167.192C4.07617 167.438 4.11523 167.639 4.19336 167.795C4.27148 167.952 4.375 168.065 4.50391 168.135C4.63672 168.209 4.77539 168.247 4.91992 168.247C5.11914 168.247 5.2793 168.208 5.40039 168.129C5.52539 168.055 5.61719 167.938 5.67578 167.778C5.73437 167.622 5.76367 167.426 5.76367 167.192L5.76367 166.249L6.48437 166.249ZM6.14453 170.643L6.26758 170.643C6.73242 170.643 7.16015 170.709 7.55078 170.842C7.94531 170.975 8.28711 171.168 8.57617 171.422C8.86523 171.676 9.08984 171.987 9.25 172.354C9.41406 172.721 9.49609 173.139 9.49609 173.608C9.49609 174.084 9.41406 174.506 9.25 174.874C9.08984 175.245 8.86523 175.557 8.57617 175.811C8.28711 176.065 7.94531 176.258 7.55078 176.391C7.16015 176.524 6.73242 176.59 6.26758 176.59L6.14453 176.59C5.68359 176.59 5.25586 176.524 4.86133 176.391C4.4707 176.258 4.1289 176.065 3.83594 175.811C3.54687 175.557 3.32226 175.247 3.16211 174.879C3.00195 174.512 2.92187 174.092 2.92187 173.62C2.92187 173.151 3.00195 172.731 3.16211 172.36C3.32226 171.989 3.54687 171.676 3.83594 171.422C4.1289 171.168 4.4707 170.975 4.86133 170.842C5.25586 170.709 5.68359 170.643 6.14453 170.643ZM6.26758 172.19L6.14453 172.19C5.86719 172.19 5.60742 172.217 5.36523 172.272C5.12305 172.327 4.91015 172.411 4.72656 172.524C4.54297 172.637 4.39844 172.784 4.29297 172.963C4.1914 173.147 4.14062 173.366 4.14062 173.62C4.14062 173.87 4.1914 174.084 4.29297 174.264C4.39844 174.444 4.54297 174.59 4.72656 174.704C4.91015 174.821 5.12305 174.907 5.36523 174.961C5.60742 175.016 5.86719 175.043 6.14453 175.043L6.26758 175.043C6.54101 175.043 6.79687 175.016 7.03515 174.961C7.27734 174.907 7.49023 174.821 7.67383 174.704C7.86133 174.59 8.00781 174.442 8.11328 174.258C8.22265 174.079 8.27734 173.862 8.27734 173.608C8.27734 173.358 8.22265 173.143 8.11328 172.963C8.00781 172.784 7.86133 172.637 7.67383 172.524C7.49023 172.411 7.27734 172.327 7.03515 172.272C6.79687 172.217 6.54101 172.19 6.26758 172.19ZM5.72265 180.833L5.72265 178.823L6.77148 178.811L6.77148 180.463C6.77148 180.709 6.79687 180.911 6.84765 181.067C6.89844 181.223 6.97461 181.338 7.07617 181.413C7.17773 181.491 7.30078 181.53 7.44531 181.53C7.57031 181.53 7.67773 181.506 7.76758 181.459C7.86133 181.413 7.9375 181.342 7.99609 181.249C8.05469 181.159 8.09765 181.043 8.125 180.903C8.15625 180.766 8.17187 180.606 8.17187 180.422L8.17187 179.374L3.03906 179.374L3.03906 177.821L9.3789 177.821L9.3789 180.422C9.3789 180.833 9.3418 181.202 9.26758 181.53C9.19726 181.858 9.08984 182.137 8.94531 182.368C8.80078 182.598 8.61719 182.774 8.39453 182.895C8.17578 183.02 7.91797 183.083 7.62109 183.083C7.42578 183.083 7.24219 183.04 7.07031 182.954C6.89844 182.868 6.74609 182.741 6.61328 182.573C6.48047 182.405 6.37109 182.198 6.28515 181.952C6.20312 181.706 6.15234 181.424 6.13281 181.108L5.72265 180.833ZM3.03906 180.833L3.03906 178.407L4.24609 178.981L4.24609 180.833C4.24609 181.059 4.27344 181.247 4.32812 181.395C4.38672 181.543 4.4707 181.653 4.58008 181.723C4.68945 181.797 4.82226 181.834 4.97851 181.834C5.13086 181.834 5.26172 181.799 5.37109 181.729C5.48437 181.663 5.57031 181.555 5.6289 181.407C5.6914 181.262 5.72265 181.071 5.72265 180.833L5.72265 179.233L6.77148 179.245L6.77148 181.102L6.35547 181.512C6.32812 181.934 6.24219 182.284 6.09765 182.561C5.95703 182.838 5.77734 183.045 5.55859 183.182C5.34375 183.319 5.10742 183.387 4.84961 183.387C4.54883 183.387 4.28515 183.331 4.05859 183.217C3.83203 183.104 3.64258 182.938 3.49023 182.719C3.3418 182.5 3.22851 182.233 3.15039 181.917C3.07617 181.6 3.03906 181.239 3.03906 180.833ZM7.42773 185.614L7.42773 187.465C7.42773 188.028 7.33398 188.506 7.14648 188.901C6.96289 189.299 6.70508 189.602 6.37304 189.809C6.04492 190.02 5.66406 190.125 5.23047 190.125C4.91797 190.125 4.62695 190.065 4.35742 189.944C4.09179 189.827 3.85937 189.655 3.66015 189.428C3.46484 189.202 3.3125 188.922 3.20312 188.59C3.09375 188.262 3.03906 187.887 3.03906 187.465L3.03906 184.618L9.3789 184.618L9.3789 186.17L4.25195 186.17L4.25195 187.465C4.25195 187.735 4.29687 187.95 4.38672 188.11C4.48047 188.274 4.59961 188.391 4.74414 188.461C4.89258 188.536 5.05078 188.573 5.21875 188.573C5.39062 188.573 5.55078 188.536 5.69922 188.461C5.85156 188.391 5.97461 188.274 6.06836 188.11C6.16211 187.95 6.20898 187.735 6.20898 187.465L6.20898 185.614L7.42773 185.614ZM9.3789 192.727L3.03906 192.727L3.03906 191.174L9.3789 191.174L9.3789 192.727ZM9.3789 195.522L7.36328 196.653L9.3789 197.801L9.3789 199.483L6.27344 197.62L3.03906 199.559L3.03906 197.877L5.15429 196.665L3.03906 195.446L3.03906 193.764L6.27344 195.698L9.3789 193.846L9.3789 195.522ZM4.86718 207.17L9.3789 208.952L9.3789 210.247L3.03906 207.698L3.03906 206.649L9.3789 204.106L9.3789 205.407L4.86718 207.17ZM9.3789 205.026L3.03906 205.026L3.03906 203.473L9.3789 203.473L9.3789 205.026ZM3.03906 209.344L9.3789 209.344L9.3789 210.897L3.03906 210.897L3.03906 209.344ZM6.14453 212.163L6.26758 212.163C6.73242 212.163 7.16015 212.229 7.55078 212.362C7.94531 212.495 8.28711 212.688 8.57617 212.942C8.86523 213.196 9.08984 213.506 9.25 213.874C9.41406 214.241 9.49609 214.659 9.49609 215.127C9.49609 215.604 9.41406 216.026 9.25 216.393C9.08984 216.764 8.86523 217.077 8.57617 217.331C8.28711 217.584 7.94531 217.778 7.55078 217.911C7.16015 218.043 6.73242 218.11 6.26757 218.11L6.14453 218.11C5.68359 218.11 5.25586 218.043 4.86132 217.911C4.4707 217.778 4.1289 217.584 3.83593 217.331C3.54687 217.077 3.32226 216.766 3.16211 216.399C3.00195 216.032 2.92187 215.612 2.92187 215.139C2.92187 214.67 3.00195 214.25 3.16211 213.879C3.32226 213.508 3.54687 213.196 3.83593 212.942C4.1289 212.688 4.4707 212.495 4.86133 212.362C5.25586 212.229 5.68359 212.163 6.14453 212.163ZM6.26757 213.709L6.14453 213.709C5.86718 213.709 5.60742 213.737 5.36523 213.792C5.12304 213.846 4.91015 213.93 4.72656 214.043C4.54297 214.157 4.39843 214.303 4.29297 214.483C4.1914 214.667 4.14062 214.885 4.14062 215.139C4.14062 215.389 4.1914 215.604 4.29297 215.784C4.39843 215.963 4.54297 216.11 4.72656 216.223C4.91015 216.34 5.12304 216.426 5.36523 216.481C5.60742 216.536 5.86718 216.563 6.14453 216.563L6.26757 216.563C6.54101 216.563 6.79687 216.536 7.03515 216.481C7.27734 216.426 7.49023 216.34 7.67382 216.223C7.86132 216.11 8.00781 215.961 8.11328 215.778C8.22265 215.598 8.27734 215.381 8.27734 215.127C8.27734 214.877 8.22265 214.663 8.11328 214.483C8.00781 214.303 7.86132 214.157 7.67382 214.043C7.49023 213.93 7.27734 213.846 7.03515 213.792C6.79687 213.737 6.54101 213.709 6.26757 213.709ZM9.3789 219.956L9.3789 221.502L7.19922 221.444C6.53906 221.424 5.96875 221.346 5.48828 221.209C5.01172 221.077 4.61132 220.899 4.28711 220.676C3.96289 220.458 3.70117 220.208 3.50195 219.926C3.30273 219.649 3.14843 219.358 3.03906 219.053L3.03906 218.684L4.24609 218.678L4.25781 218.86C4.45312 219.043 4.64453 219.198 4.83203 219.323C5.02343 219.452 5.22851 219.555 5.44726 219.633C5.66601 219.711 5.91601 219.77 6.19726 219.809C6.48242 219.852 6.8164 219.879 7.19922 219.891L9.3789 219.956ZM9.3789 220.372L9.3789 224.479L3.03906 224.479L3.03906 222.932L8.10742 222.932L8.10742 220.372L9.3789 220.372ZM4.25781 218.333L4.25781 225.364L1.14062 225.364L1.14062 223.817L3.03906 223.817L3.03906 219.909L1.14062 219.909L1.14062 218.327L4.25781 218.333ZM3.74218 228.17L9.3789 229.87L9.3789 231.528L2.07812 228.985C1.92187 228.926 1.75195 228.85 1.56836 228.756C1.38476 228.667 1.21093 228.545 1.04687 228.393C0.878902 228.241 0.742184 228.049 0.636715 227.819C0.531246 227.592 0.478512 227.317 0.478512 226.993C0.478512 226.852 0.488278 226.727 0.507809 226.618C0.52734 226.508 0.552731 226.393 0.583981 226.272L1.74414 226.272C1.74023 226.311 1.73828 226.356 1.73828 226.407C1.73437 226.461 1.73242 226.508 1.73242 226.547C1.73242 226.774 1.75976 226.961 1.81445 227.11C1.86523 227.258 1.94921 227.377 2.0664 227.467C2.17968 227.561 2.32812 227.639 2.51171 227.702L3.74218 228.17ZM9.3789 227.333L4.70898 228.768L3.07421 229.02L2.88086 227.954L9.3789 225.663L9.3789 227.333ZM9.3789 236.292L8.15429 236.292L8.15429 233.186L9.3789 233.186L9.3789 236.292ZM9.3789 237.458L3.03906 237.458L3.03906 235.911L9.3789 235.911L9.3789 237.458ZM9.3789 232.799L9.3789 234.329L6.21484 234.159C5.75 234.131 5.34179 234.083 4.99023 234.012C4.64257 233.942 4.34375 233.848 4.09375 233.731C3.84765 233.614 3.64648 233.471 3.49023 233.303C3.33398 233.135 3.21875 232.94 3.14453 232.717C3.07421 232.499 3.03906 232.252 3.03906 231.979L3.03906 231.504L4.28711 231.487L4.30468 231.709C4.3164 231.846 4.35351 231.963 4.41601 232.061C4.47851 232.163 4.56836 232.249 4.68554 232.319C4.80273 232.393 4.95312 232.454 5.13671 232.5C5.32421 232.551 5.54296 232.59 5.79296 232.618C6.04687 232.649 6.33984 232.67 6.67187 232.682L9.3789 232.799ZM6.16796 240.223L6.16796 241.811L3.03906 240.03L3.03906 238.442L6.16796 240.223ZM9.3789 241.301L9.3789 244.055L3.03906 244.055L3.03906 242.508L8.17187 242.508L8.17187 241.301C8.17187 241.055 8.12695 240.85 8.03711 240.686C7.94726 240.526 7.83203 240.407 7.6914 240.329C7.55468 240.25 7.41406 240.211 7.26953 240.211C7.1289 240.211 6.99218 240.249 6.85937 240.323C6.72656 240.397 6.61718 240.51 6.53125 240.663C6.44531 240.819 6.40234 241.014 6.40234 241.249L6.40234 243.059L5.3125 243.059L5.3125 241.249C5.3125 240.846 5.36132 240.485 5.45898 240.165C5.56054 239.848 5.70117 239.577 5.88086 239.35C6.06054 239.127 6.27148 238.958 6.51367 238.84C6.75976 238.723 7.02734 238.665 7.3164 238.665C7.61328 238.665 7.88671 238.723 8.13671 238.84C8.38671 238.961 8.60546 239.135 8.79296 239.362C8.98046 239.592 9.125 239.87 9.22656 240.194C9.32812 240.522 9.3789 240.891 9.3789 241.301Z" fill="#00C3FF"/>
</svg>
