<svg width="343" height="192" viewBox="0 0 343 192" fill="none" xmlns="http://www.w3.org/2000/svg">
<path d="M225.081 0.304688L197.623 57.0087L171.617 0.304688H225.081Z" fill="#F0F0F0"/>
<path d="M171.62 0.304688C155.962 0.304688 143.27 12.997 143.27 28.6552C143.27 44.3133 155.962 57.0056 171.62 57.0056" fill="#F0F0F0"/>
<path d="M118.152 57.0057L225.077 0.301758" stroke="#FC786E" stroke-width="0.301408" stroke-miterlimit="10"/>
<path d="M225.081 0.304688H171.617V57.0087H225.081V0.304688Z" stroke="black" stroke-width="0.226056" stroke-miterlimit="10"/>
<path d="M171.616 0.304688H118.152V57.0087H171.616V0.304688Z" stroke="black" stroke-width="0.226056" stroke-miterlimit="10"/>
<path d="M288.566 72.8984C275.714 72.8984 265.297 83.3181 265.297 96.1672C265.297 109.016 275.714 119.436 288.566 119.436" fill="#F0F0F0"/>
<path d="M288.566 124.518C304.225 124.518 316.917 111.825 316.917 96.1671C316.917 80.509 304.225 67.8167 288.566 67.8167" fill="#F0F0F0"/>
<path d="M342.03 67.8167H288.566V124.521H342.03V67.8167Z" stroke="black" stroke-width="0.226056" stroke-miterlimit="10"/>
<path d="M288.565 67.8167H235.102V124.521H288.565V67.8167Z" stroke="black" stroke-width="0.226056" stroke-miterlimit="10"/>
<path d="M288.529 0C288.529 14.7539 276.569 26.7138 261.815 26.7138C247.061 26.7138 235.102 14.7539 235.102 0" fill="#F0F0F0"/>
<path d="M288.562 56.9837C304.221 56.9837 316.913 44.2914 316.913 28.6332C316.913 12.975 304.221 0.282715 288.562 0.282715" fill="#F0F0F0"/>
<path d="M342.03 0.280273H288.566V56.9842H342.03V0.280273Z" stroke="black" stroke-width="0.226056" stroke-miterlimit="10"/>
<path d="M288.565 0.280273H235.102V56.9842H288.565V0.280273Z" stroke="black" stroke-width="0.226056" stroke-miterlimit="10"/>
<path d="M171.613 68.1384C187.35 68.1384 200.105 80.894 200.105 96.6306C200.105 112.367 187.35 125.123 171.613 125.123" fill="#F0F0F0"/>
<path d="M225.077 68.1177H171.613V125.141H225.077V68.1177Z" stroke="black" stroke-width="0.226056" stroke-miterlimit="10"/>
<path d="M171.612 68.1177H118.148V125.141H171.612V68.1177Z" fill="#F0F0F0"/>
<path d="M171.612 68.1179H118.148V125.141H171.612V68.1179Z" stroke="black" stroke-width="0.226056" stroke-miterlimit="10"/>
<path d="M224.589 134.863L197.13 191.567L171.125 134.863H224.589Z" fill="#F0F0F0"/>
<path d="M171.124 134.863C155.466 134.863 142.773 147.555 142.773 163.214C142.773 178.872 155.466 191.564 171.124 191.564" fill="#F0F0F0"/>
<path d="M117.732 191.699L224.659 134.995L224.518 134.73L117.59 191.431" fill="#FC786E"/>
<path d="M171.127 191.566H171.242V134.977H224.476V191.452H171.127V191.566H171.242H171.127V191.678H224.706V134.751H171.016V191.678H171.127V191.566Z" fill="black"/>
<path d="M117.665 191.566H117.777V134.977H171.015V191.452H117.665V191.566H117.777H117.665V191.678H171.241V134.751H117.551V191.678H117.665V191.566Z" fill="black"/>
<path d="M107.038 135.164L79.5797 191.868L53.5742 135.164H107.038Z" fill="#F0F0F0"/>
<path d="M7.02734 191.868L27.2669 150.065L46.4395 191.868H7.02734Z" fill="#F0F0F0"/>
<path d="M0.180716 192L107.105 135.296L106.964 135.031L0.0390625 191.732" fill="#FC786E"/>
<path d="M53.5764 191.868H53.6909V135.278H106.926V191.753H53.5764V191.868H53.6909H53.5764V191.979H107.155V135.052H53.4648V191.979H53.5764V191.868Z" fill="black"/>
<path d="M0.114537 191.868H0.226056V135.278H53.4638V191.753H0.114537V191.868H0.226056H0.114537V191.979H53.6899V135.052H0V191.979H0.114537V191.868Z" fill="black"/>
<path d="M54.1318 0.415771H0.667969V57.4392H54.1318V0.415771Z" stroke="black" stroke-width="0.301408"/>
<path d="M54.1328 0.434326C69.8693 0.434326 82.6249 13.1899 82.6249 28.9265C82.6249 44.663 69.8693 57.4186 54.1328 57.4186" fill="#F0F0F0"/>
<path d="M27.1181 6.59497L0.648438 36.4223L0.735839 57.4365L27.1181 28.8389L54.1183 57.4365L54.1304 36.4223L27.1181 6.59497Z" fill="#F0F0F0"/>
<path d="M0.739309 57.4124L107.664 0.708439L107.522 0.440186L0.597656 57.1442" fill="#FC786E"/>
<path d="M107.591 0.41629H107.479V57.3252H54.2417V0.527814H107.591V0.41629H107.479H107.591V0.301758H54.0156V57.5513H107.706V0.301758H107.591V0.41629Z" fill="black"/>
<path d="M53.9961 96.3278L107.309 124.678V67.9773L53.9961 96.3278Z" fill="#F0F0F0"/>
<path d="M27.15 67.8171L0.378906 124.678H53.9181L27.15 67.8171Z" fill="#F0F0F0"/>
<path d="M0.458059 124.813L107.383 68.1093L107.241 67.8411L0.316406 124.545" fill="#FC786E"/>
<path d="M89.9659 79.4761H89.125" stroke="#E6007E" stroke-width="0.159746" stroke-miterlimit="10"/>
<path d="M53.8811 124.678H53.9956V68.0886H107.23V124.567H53.8811V124.678H53.9956H53.8811V124.793H107.459V67.8625H53.7695V124.793H53.8811V124.678Z" fill="black"/>
<path d="M0.419224 124.678H0.530744V68.0886H53.7685V124.567H0.419224V124.678H0.530744H0.419224V124.793H53.9946V67.8625H0.304688V124.793H0.419224V124.678Z" fill="black"/>
<path d="M235.242 163.503L266.661 191.567L288.793 191.474L258.671 163.503L288.793 134.878L266.661 134.863L235.242 163.503Z" fill="#F0F0F0"/>
<path d="M342.113 163.503L310.694 191.567L288.559 191.474L318.681 163.503L288.559 134.878L310.694 134.863L342.113 163.503Z" fill="#F0F0F0"/>
<path d="M235.247 191.699L342.175 134.995L342.033 134.73L235.105 191.431" fill="#FC786E"/>
<path d="M288.681 191.566H288.795V134.977H342.03V191.452H288.681V191.566H288.795H288.681V191.678H342.256V134.751H288.566V191.678H288.681V191.566Z" fill="black"/>
<path d="M235.213 191.566H235.328V134.977H288.562V191.452H235.213V191.566H235.328H235.213V191.678H288.791V134.751H235.102V191.678H235.213V191.566Z" fill="black"/>
<path d="M235.098 57.0055L342.022 0.301514" stroke="#FC786E" stroke-width="0.301408" stroke-miterlimit="10"/>
<path d="M235.703 124.521L342.628 67.8169" stroke="#FC786E" stroke-width="0.301408" stroke-miterlimit="10"/>
</svg>
