<svg width="1137" height="638" viewBox="0 0 1137 638" fill="none" xmlns="http://www.w3.org/2000/svg">
<path d="M746.761 1.00977L655.661 189.14L569.381 1.00977H746.761Z" fill="#F0F0F0"/>
<path d="M569.38 1.00977C517.43 1.00977 475.32 43.1198 475.32 95.0698C475.32 147.02 517.43 189.13 569.38 189.13" fill="#F0F0F0"/>
<path d="M392.01 189.13L746.76 1" stroke="#FC786E" stroke-miterlimit="10"/>
<path d="M746.761 1.00977H569.381V189.14H746.761V1.00977Z" stroke="black" stroke-width="0.75" stroke-miterlimit="10"/>
<path d="M569.38 1.00977H392V189.14H569.38V1.00977Z" stroke="black" stroke-width="0.75" stroke-miterlimit="10"/>
<path d="M957.38 241.859C914.74 241.859 880.18 276.429 880.18 319.059C880.18 361.689 914.74 396.259 957.38 396.259" fill="#F0F0F0"/>
<path d="M957.381 413.12C1009.33 413.12 1051.44 371.01 1051.44 319.06C1051.44 267.11 1009.33 225 957.381 225" fill="#F0F0F0"/>
<path d="M1134.76 225H957.379V413.13H1134.76V225Z" stroke="black" stroke-width="0.75" stroke-miterlimit="10"/>
<path d="M957.38 225H780V413.13H957.38V225Z" stroke="black" stroke-width="0.75" stroke-miterlimit="10"/>
<path d="M957.26 0C957.26 48.95 917.58 88.63 868.63 88.63C819.68 88.63 780 48.95 780 0" fill="#F0F0F0"/>
<path d="M957.379 189.059C1009.33 189.059 1051.44 146.949 1051.44 94.9995C1051.44 43.0494 1009.33 0.939453 957.379 0.939453" fill="#F0F0F0"/>
<path d="M1134.76 0.929688H957.379V189.06H1134.76V0.929688Z" stroke="black" stroke-width="0.75" stroke-miterlimit="10"/>
<path d="M957.38 0.929688H780V189.06H957.38V0.929688Z" stroke="black" stroke-width="0.75" stroke-miterlimit="10"/>
<path d="M569.371 226.068C621.581 226.068 663.901 268.388 663.901 320.598C663.901 372.808 621.581 415.128 569.371 415.128" fill="#F0F0F0"/>
<path d="M746.751 226H569.371V415.19H746.751V226Z" stroke="black" stroke-width="0.75" stroke-miterlimit="10"/>
<path d="M569.38 226H392V415.19H569.38V226Z" fill="#F0F0F0"/>
<path d="M569.38 226H392V415.19H569.38V226Z" stroke="black" stroke-width="0.75" stroke-miterlimit="10"/>
<path d="M745.13 447.441L654.03 635.571L567.75 447.441H745.13Z" fill="#F0F0F0"/>
<path d="M567.75 447.441C515.8 447.441 473.689 489.551 473.689 541.501C473.689 593.451 515.8 635.561 567.75 635.561" fill="#F0F0F0"/>
<path d="M390.609 636.01L745.369 447.88L744.899 447L390.139 635.12" fill="#FC786E"/>
<path d="M567.749 635.57H568.129V447.82H744.749V635.19H567.749V635.57H568.129H567.749V635.94H745.509V447.07H567.379V635.94H567.749V635.57Z" fill="black"/>
<path d="M390.38 635.57H390.75V447.82H567.38V635.19H390.38V635.57H390.75H390.38V635.94H568.13V447.07H390V635.94H390.38V635.57Z" fill="black"/>
<path d="M355.13 448.441L264.03 636.571L177.75 448.441H355.13Z" fill="#F0F0F0"/>
<path d="M23.3105 636.571L90.4606 497.881L154.071 636.571H23.3105Z" fill="#F0F0F0"/>
<path d="M0.610596 637.01L355.361 448.88L354.891 448L0.140625 636.12" fill="#FC786E"/>
<path d="M177.751 636.57H178.131V448.82H354.751V636.19H177.751V636.57H178.131H177.751V636.94H355.511V448.07H177.381V636.94H177.751V636.57Z" fill="black"/>
<path d="M0.380005 636.57H0.75V448.82H177.38V636.19H0.380005V636.57H0.75H0.380005V636.94H178.13V448.07H0V636.94H0.380005V636.57Z" fill="black"/>
<path d="M179.61 1.37891H2.23047V190.569H179.61V1.37891Z" stroke="black"/>
<path d="M179.611 1.43945C231.821 1.43945 274.141 43.7595 274.141 95.9695C274.141 148.179 231.821 190.499 179.611 190.499" fill="#F0F0F0"/>
<path d="M89.9899 21.8789L2.16992 120.839L2.4599 190.559L89.9899 95.6789L179.57 190.559L179.61 120.839L89.9899 21.8789Z" fill="#F0F0F0"/>
<path d="M2.46997 190.479L357.22 2.34898L356.75 1.45898L2 189.589" fill="#FC786E"/>
<path d="M356.98 1.37999H356.61V190.19H179.98V1.75H356.98V1.37999H356.61H356.98V1H179.23V190.94H357.36V1H356.98V1.37999Z" fill="black"/>
<path d="M179.141 319.591L356.021 413.651V225.531L179.141 319.591Z" fill="#F0F0F0"/>
<path d="M90.0798 225L1.25977 413.65H178.89L90.0798 225Z" fill="#F0F0F0"/>
<path d="M1.49927 414.1L356.249 225.97L355.779 225.08L1.0293 413.21" fill="#FC786E"/>
<path d="M298.479 263.682H295.689" stroke="#E6007E" stroke-width="0.53" stroke-miterlimit="10"/>
<path d="M178.751 413.65H179.131V225.9H355.751V413.28H178.751V413.65H179.131H178.751V414.03H356.511V225.15H178.381V414.03H178.751V413.65Z" fill="black"/>
<path d="M1.38 413.65H1.75V225.9H178.38V413.28H1.38V413.65H1.75H1.38V414.03H179.13V225.15H1V414.03H1.38V413.65Z" fill="black"/>
<path d="M780.459 542.461L884.699 635.571L958.129 635.261L858.189 542.461L958.129 447.491L884.699 447.441L780.459 542.461Z" fill="#F0F0F0"/>
<path d="M1135.04 542.461L1030.8 635.571L957.359 635.261L1057.3 542.461L957.359 447.491L1030.8 447.441L1135.04 542.461Z" fill="#F0F0F0"/>
<path d="M780.49 636.01L1135.25 447.88L1134.78 447L780.02 635.12" fill="#FC786E"/>
<path d="M957.749 635.57H958.129V447.82H1134.75V635.19H957.749V635.57H958.129H957.749V635.94H1135.5V447.07H957.369V635.94H957.749V635.57Z" fill="black"/>
<path d="M780.37 635.57H780.75V447.82H957.37V635.19H780.37V635.57H780.75H780.37V635.94H958.13V447.07H780V635.94H780.37V635.57Z" fill="black"/>
<path d="M780 189.13L1134.75 1" stroke="#FC786E" stroke-miterlimit="10"/>
<path d="M782 413.13L1136.75 225" stroke="#FC786E" stroke-miterlimit="10"/>
</svg>
