<svg width="369" height="1121" viewBox="0 0 369 1121" fill="none" xmlns="http://www.w3.org/2000/svg">
<path d="M193.955 2.51562V11.0469H192.83V3.44141H188.623V11.0469H187.492V2.51562H193.955ZM199.152 7.70117H196.873V6.78125H199.152C199.594 6.78125 199.951 6.71094 200.225 6.57031C200.498 6.42969 200.697 6.23438 200.822 5.98438C200.951 5.73438 201.016 5.44922 201.016 5.12891C201.016 4.83594 200.951 4.56055 200.822 4.30273C200.697 4.04492 200.498 3.83789 200.225 3.68164C199.951 3.52148 199.594 3.44141 199.152 3.44141H197.137V11.0469H196.006V2.51562H199.152C199.797 2.51562 200.342 2.62695 200.787 2.84961C201.232 3.07227 201.57 3.38086 201.801 3.77539C202.031 4.16602 202.146 4.61328 202.146 5.11719C202.146 5.66406 202.031 6.13086 201.801 6.51758C201.57 6.9043 201.232 7.19922 200.787 7.40234C200.342 7.60156 199.797 7.70117 199.152 7.70117ZM204.754 9.08984L208.955 2.51562H210.086V11.0469H208.955V4.4668L204.754 11.0469H203.629V2.51562H204.754V9.08984ZM212.5 2.51562H213.596L216.391 9.4707L219.18 2.51562H220.281L216.812 11.0469H215.957L212.5 2.51562ZM212.143 2.51562H213.109L213.268 7.71875V11.0469H212.143V2.51562ZM219.666 2.51562H220.633V11.0469H219.508V7.71875L219.666 2.51562ZM228.039 10.127V11.0469H223.521V10.127H228.039ZM223.75 2.51562V11.0469H222.619V2.51562H223.75ZM227.441 6.18359V7.10352H223.521V6.18359H227.441ZM227.98 2.51562V3.44141H223.521V2.51562H227.98ZM232.586 7.70117H230.307V6.78125H232.586C233.027 6.78125 233.385 6.71094 233.658 6.57031C233.932 6.42969 234.131 6.23438 234.256 5.98438C234.385 5.73438 234.449 5.44922 234.449 5.12891C234.449 4.83594 234.385 4.56055 234.256 4.30273C234.131 4.04492 233.932 3.83789 233.658 3.68164C233.385 3.52148 233.027 3.44141 232.586 3.44141H230.57V11.0469H229.439V2.51562H232.586C233.23 2.51562 233.775 2.62695 234.221 2.84961C234.666 3.07227 235.004 3.38086 235.234 3.77539C235.465 4.16602 235.58 4.61328 235.58 5.11719C235.58 5.66406 235.465 6.13086 235.234 6.51758C235.004 6.9043 234.666 7.19922 234.221 7.40234C233.775 7.60156 233.23 7.70117 232.586 7.70117ZM243.268 2.46875V11.0469H242.184V3.82227L239.998 4.61914V3.64062L243.098 2.46875H243.268Z" fill="black"/>
<path d="M18.5059 2.46875V11H17.3809V3.39453H13.1738V11H12.043V2.46875H18.5059ZM27.125 6.46484V7.00391C27.125 7.64453 27.0449 8.21875 26.8848 8.72656C26.7246 9.23438 26.4941 9.66602 26.1934 10.0215C25.8926 10.377 25.5312 10.6484 25.1094 10.8359C24.6914 11.0234 24.2227 11.1172 23.7031 11.1172C23.1992 11.1172 22.7363 11.0234 22.3145 10.8359C21.8965 10.6484 21.5332 10.377 21.2246 10.0215C20.9199 9.66602 20.6836 9.23438 20.5156 8.72656C20.3477 8.21875 20.2637 7.64453 20.2637 7.00391V6.46484C20.2637 5.82422 20.3457 5.25195 20.5098 4.74805C20.6777 4.24023 20.9141 3.80859 21.2188 3.45312C21.5234 3.09375 21.8848 2.82031 22.3027 2.63281C22.7246 2.44531 23.1875 2.35156 23.6914 2.35156C24.2109 2.35156 24.6797 2.44531 25.0977 2.63281C25.5195 2.82031 25.8809 3.09375 26.1816 3.45312C26.4863 3.80859 26.7188 4.24023 26.8789 4.74805C27.043 5.25195 27.125 5.82422 27.125 6.46484ZM26.0059 7.00391V6.45312C26.0059 5.94531 25.9531 5.49609 25.8477 5.10547C25.7461 4.71484 25.5957 4.38672 25.3965 4.12109C25.1973 3.85547 24.9531 3.6543 24.6641 3.51758C24.3789 3.38086 24.0547 3.3125 23.6914 3.3125C23.3398 3.3125 23.0215 3.38086 22.7363 3.51758C22.4551 3.6543 22.2129 3.85547 22.0098 4.12109C21.8105 4.38672 21.6562 4.71484 21.5469 5.10547C21.4375 5.49609 21.3828 5.94531 21.3828 6.45312V7.00391C21.3828 7.51562 21.4375 7.96875 21.5469 8.36328C21.6562 8.75391 21.8125 9.08398 22.0156 9.35352C22.2227 9.61914 22.4668 9.82031 22.748 9.95703C23.0332 10.0938 23.3516 10.1621 23.7031 10.1621C24.0703 10.1621 24.3965 10.0938 24.6816 9.95703C24.9668 9.82031 25.207 9.61914 25.4023 9.35352C25.6016 9.08398 25.752 8.75391 25.8535 8.36328C25.9551 7.96875 26.0059 7.51562 26.0059 7.00391ZM33.9688 8.28711H35.0938C35.0352 8.82617 34.8809 9.30859 34.6309 9.73438C34.3809 10.1602 34.0273 10.498 33.5703 10.748C33.1133 10.9941 32.543 11.1172 31.8594 11.1172C31.3594 11.1172 30.9043 11.0234 30.4941 10.8359C30.0879 10.6484 29.7383 10.3828 29.4453 10.0391C29.1523 9.69141 28.9258 9.27539 28.7656 8.79102C28.6094 8.30273 28.5312 7.75977 28.5312 7.16211V6.3125C28.5312 5.71484 28.6094 5.17383 28.7656 4.68945C28.9258 4.20117 29.1543 3.7832 29.4512 3.43555C29.752 3.08789 30.1133 2.82031 30.5352 2.63281C30.957 2.44531 31.4316 2.35156 31.959 2.35156C32.6035 2.35156 33.1484 2.47266 33.5938 2.71484C34.0391 2.95703 34.3848 3.29297 34.6309 3.72266C34.8809 4.14844 35.0352 4.64258 35.0938 5.20508H33.9688C33.9141 4.80664 33.8125 4.46484 33.6641 4.17969C33.5156 3.89063 33.3047 3.66797 33.0312 3.51172C32.7578 3.35547 32.4004 3.27734 31.959 3.27734C31.5801 3.27734 31.2461 3.34961 30.957 3.49414C30.6719 3.63867 30.4316 3.84375 30.2363 4.10938C30.0449 4.375 29.9004 4.69336 29.8027 5.06445C29.7051 5.43555 29.6562 5.84766 29.6562 6.30078V7.16211C29.6562 7.58008 29.6992 7.97266 29.7852 8.33984C29.875 8.70703 30.0098 9.0293 30.1895 9.30664C30.3691 9.58398 30.5977 9.80273 30.875 9.96289C31.1523 10.1191 31.4805 10.1973 31.8594 10.1973C32.3398 10.1973 32.7227 10.1211 33.0078 9.96875C33.293 9.81641 33.5078 9.59766 33.6523 9.3125C33.8008 9.02734 33.9062 8.68555 33.9688 8.28711ZM39.6113 2.46875V11H38.498V2.46875H39.6113ZM42.3535 2.46875V3.39453H35.7617V2.46875H42.3535ZM46.7656 7.6543H44.4863V6.73438H46.7656C47.207 6.73438 47.5645 6.66406 47.8379 6.52344C48.1113 6.38281 48.3105 6.1875 48.4355 5.9375C48.5645 5.6875 48.6289 5.40234 48.6289 5.08203C48.6289 4.78906 48.5645 4.51367 48.4355 4.25586C48.3105 3.99805 48.1113 3.79102 47.8379 3.63477C47.5645 3.47461 47.207 3.39453 46.7656 3.39453H44.75V11H43.6191V2.46875H46.7656C47.4102 2.46875 47.9551 2.58008 48.4004 2.80273C48.8457 3.02539 49.1836 3.33398 49.4141 3.72852C49.6445 4.11914 49.7598 4.56641 49.7598 5.07031C49.7598 5.61719 49.6445 6.08398 49.4141 6.4707C49.1836 6.85742 48.8457 7.15234 48.4004 7.35547C47.9551 7.55469 47.4102 7.6543 46.7656 7.6543ZM57.7578 6.46484V7.00391C57.7578 7.64453 57.6777 8.21875 57.5176 8.72656C57.3574 9.23438 57.127 9.66602 56.8262 10.0215C56.5254 10.377 56.1641 10.6484 55.7422 10.8359C55.3242 11.0234 54.8555 11.1172 54.3359 11.1172C53.832 11.1172 53.3691 11.0234 52.9473 10.8359C52.5293 10.6484 52.166 10.377 51.8574 10.0215C51.5527 9.66602 51.3164 9.23438 51.1484 8.72656C50.9805 8.21875 50.8965 7.64453 50.8965 7.00391V6.46484C50.8965 5.82422 50.9785 5.25195 51.1426 4.74805C51.3105 4.24023 51.5469 3.80859 51.8516 3.45312C52.1562 3.09375 52.5176 2.82031 52.9355 2.63281C53.3574 2.44531 53.8203 2.35156 54.3242 2.35156C54.8438 2.35156 55.3125 2.44531 55.7305 2.63281C56.1523 2.82031 56.5137 3.09375 56.8145 3.45312C57.1191 3.80859 57.3516 4.24023 57.5117 4.74805C57.6758 5.25195 57.7578 5.82422 57.7578 6.46484ZM56.6387 7.00391V6.45312C56.6387 5.94531 56.5859 5.49609 56.4805 5.10547C56.3789 4.71484 56.2285 4.38672 56.0293 4.12109C55.8301 3.85547 55.5859 3.6543 55.2969 3.51758C55.0117 3.38086 54.6875 3.3125 54.3242 3.3125C53.9727 3.3125 53.6543 3.38086 53.3691 3.51758C53.0879 3.6543 52.8457 3.85547 52.6426 4.12109C52.4434 4.38672 52.2891 4.71484 52.1797 5.10547C52.0703 5.49609 52.0156 5.94531 52.0156 6.45312V7.00391C52.0156 7.51562 52.0703 7.96875 52.1797 8.36328C52.2891 8.75391 52.4453 9.08398 52.6484 9.35352C52.8555 9.61914 53.0996 9.82031 53.3809 9.95703C53.666 10.0938 53.9844 10.1621 54.3359 10.1621C54.7031 10.1621 55.0293 10.0938 55.3145 9.95703C55.5996 9.82031 55.8398 9.61914 56.0352 9.35352C56.2344 9.08398 56.3848 8.75391 56.4863 8.36328C56.5879 7.96875 56.6387 7.51562 56.6387 7.00391ZM64.8711 10.0801V11H60.3535V10.0801H64.8711ZM60.582 2.46875V11H59.4512V2.46875H60.582ZM64.2734 6.13672V7.05664H60.3535V6.13672H64.2734ZM64.8125 2.46875V3.39453H60.3535V2.46875H64.8125ZM71.8438 6.13672V7.05664H67.2266V6.13672H71.8438ZM67.4023 2.46875V11H66.2715V2.46875H67.4023ZM72.8281 2.46875V11H71.7031V2.46875H72.8281ZM76.0156 9.04297L80.2168 2.46875H81.3477V11H80.2168V4.41992L76.0156 11H74.8906V2.46875H76.0156V9.04297ZM88.8242 10.0801V11H84.3066V10.0801H88.8242ZM84.5352 2.46875V11H83.4043V2.46875H84.5352ZM88.2266 6.13672V7.05664H84.3066V6.13672H88.2266ZM88.7656 2.46875V3.39453H84.3066V2.46875H88.7656ZM11.8848 16.4688H13.0156V19.1348C13.0156 19.5762 13.0801 19.9219 13.209 20.1719C13.3379 20.4219 13.5332 20.5977 13.7949 20.6992C14.0566 20.8008 14.3828 20.8516 14.7734 20.8516C15.0078 20.8516 15.2344 20.8418 15.4531 20.8223C15.6758 20.8027 15.8926 20.7754 16.1035 20.7402C16.3145 20.7051 16.5215 20.6621 16.7246 20.6113C16.9316 20.5605 17.1348 20.5059 17.334 20.4473V21.373C17.1426 21.4316 16.9512 21.4863 16.7598 21.5371C16.5723 21.5879 16.377 21.6309 16.1738 21.666C15.9746 21.7012 15.7598 21.7285 15.5293 21.748C15.3027 21.7676 15.0508 21.7773 14.7734 21.7773C14.1719 21.7773 13.6543 21.6914 13.2207 21.5195C12.791 21.3438 12.4609 21.0625 12.2305 20.6758C12 20.2891 11.8848 19.7754 11.8848 19.1348V16.4688ZM17.0469 16.4688H18.1777V25H17.0469V16.4688ZM25.625 24.0801V25H21.1074V24.0801H25.625ZM21.3359 16.4688V25H20.2051V16.4688H21.3359ZM25.0273 20.1367V21.0566H21.1074V20.1367H25.0273ZM25.5664 16.4688V17.3945H21.1074V16.4688H25.5664ZM30.2949 16.4688V25H29.1816V16.4688H30.2949ZM33.0371 16.4688V17.3945H26.4453V16.4688H33.0371ZM35.2168 19.9434H37.543C38.168 19.9434 38.6953 20.0488 39.125 20.2598C39.5547 20.4668 39.8809 20.7578 40.1035 21.1328C40.3262 21.5078 40.4375 21.9473 40.4375 22.4512C40.4375 22.8262 40.375 23.1699 40.25 23.4824C40.125 23.791 39.9395 24.0605 39.6934 24.291C39.4473 24.5176 39.1445 24.6934 38.7852 24.8184C38.4258 24.9395 38.0117 25 37.543 25H34.3555V16.4688H35.4863V24.0801H37.543C37.9609 24.0801 38.2988 24.0039 38.5566 23.8516C38.8184 23.6953 39.0098 23.4922 39.1309 23.2422C39.252 22.9922 39.3125 22.7246 39.3125 22.4395C39.3125 22.1543 39.252 21.8926 39.1309 21.6543C39.0098 21.416 38.8184 21.2266 38.5566 21.0859C38.2988 20.9414 37.9609 20.8691 37.543 20.8691H35.2168V19.9434ZM42.5996 16.4688V25H41.4688V16.4688H42.5996ZM47.832 21.6543H45.5527V20.7344H47.832C48.2734 20.7344 48.6309 20.6641 48.9043 20.5234C49.1777 20.3828 49.377 20.1875 49.502 19.9375C49.6309 19.6875 49.6953 19.4023 49.6953 19.082C49.6953 18.7891 49.6309 18.5137 49.502 18.2559C49.377 17.998 49.1777 17.791 48.9043 17.6348C48.6309 17.4746 48.2734 17.3945 47.832 17.3945H45.8164V25H44.6855V16.4688H47.832C48.4766 16.4688 49.0215 16.5801 49.4668 16.8027C49.9121 17.0254 50.25 17.334 50.4805 17.7285C50.7109 18.1191 50.8262 18.5664 50.8262 19.0703C50.8262 19.6172 50.7109 20.084 50.4805 20.4707C50.25 20.8574 49.9121 21.1523 49.4668 21.3555C49.0215 21.5547 48.4766 21.6543 47.832 21.6543ZM57.6758 24.0801V25H53.1582V24.0801H57.6758ZM53.3867 16.4688V25H52.2559V16.4688H53.3867ZM57.0781 20.1367V21.0566H53.1582V20.1367H57.0781ZM57.6172 16.4688V17.3945H53.1582V16.4688H57.6172ZM59.8086 16.4688L61.8594 19.7383L63.9102 16.4688H65.2285L62.5332 20.6934L65.293 25H63.9629L61.8594 21.666L59.7559 25H58.4258L61.1855 20.6934L58.4902 16.4688H59.8086ZM69.2422 22.1699L71.498 16.4688H72.7988L69.7812 23.5762C69.6953 23.7754 69.5996 23.9688 69.4941 24.1562C69.3887 24.3398 69.2598 24.5039 69.1074 24.6484C68.9551 24.793 68.7656 24.9082 68.5391 24.9941C68.3164 25.0801 68.0391 25.123 67.707 25.123C67.6133 25.123 67.502 25.1172 67.373 25.1055C67.2441 25.0977 67.1602 25.0879 67.1211 25.0762L67.1562 24.1738C67.1992 24.1816 67.2832 24.1895 67.4082 24.1973C67.5332 24.2012 67.625 24.2031 67.6836 24.2031C67.9062 24.2031 68.082 24.1582 68.2109 24.0684C68.3398 23.9785 68.4434 23.8652 68.5215 23.7285C68.6035 23.5879 68.6777 23.4453 68.7441 23.3008L69.2422 22.1699ZM67.3262 16.4688L69.6992 21.7832L69.9805 22.832L69.0312 22.9023L66.0605 16.4688H67.3262ZM79.4375 16.4688V17.3945H75.3242V25H74.1992V16.4688H79.4375ZM86.9961 20.4648V21.0039C86.9961 21.6445 86.916 22.2188 86.7559 22.7266C86.5957 23.2344 86.3652 23.666 86.0645 24.0215C85.7637 24.377 85.4023 24.6484 84.9805 24.8359C84.5625 25.0234 84.0938 25.1172 83.5742 25.1172C83.0703 25.1172 82.6074 25.0234 82.1855 24.8359C81.7676 24.6484 81.4043 24.377 81.0957 24.0215C80.791 23.666 80.5547 23.2344 80.3867 22.7266C80.2188 22.2188 80.1348 21.6445 80.1348 21.0039V20.4648C80.1348 19.8242 80.2168 19.252 80.3809 18.748C80.5488 18.2402 80.7852 17.8086 81.0898 17.4531C81.3945 17.0938 81.7559 16.8203 82.1738 16.6328C82.5957 16.4453 83.0586 16.3516 83.5625 16.3516C84.082 16.3516 84.5508 16.4453 84.9688 16.6328C85.3906 16.8203 85.752 17.0938 86.0527 17.4531C86.3574 17.8086 86.5898 18.2402 86.75 18.748C86.9141 19.252 86.9961 19.8242 86.9961 20.4648ZM85.877 21.0039V20.4531C85.877 19.9453 85.8242 19.4961 85.7188 19.1055C85.6172 18.7148 85.4668 18.3867 85.2676 18.1211C85.0684 17.8555 84.8242 17.6543 84.5352 17.5176C84.25 17.3809 83.9258 17.3125 83.5625 17.3125C83.2109 17.3125 82.8926 17.3809 82.6074 17.5176C82.3262 17.6543 82.084 17.8555 81.8809 18.1211C81.6816 18.3867 81.5273 18.7148 81.418 19.1055C81.3086 19.4961 81.2539 19.9453 81.2539 20.4531V21.0039C81.2539 21.5156 81.3086 21.9688 81.418 22.3633C81.5273 22.7539 81.6836 23.084 81.8867 23.3535C82.0938 23.6191 82.3379 23.8203 82.6191 23.957C82.9043 24.0938 83.2227 24.1621 83.5742 24.1621C83.9414 24.1621 84.2676 24.0938 84.5527 23.957C84.8379 23.8203 85.0781 23.6191 85.2734 23.3535C85.4727 23.084 85.623 22.7539 85.7246 22.3633C85.8262 21.9688 85.877 21.5156 85.877 21.0039ZM93.9863 16.4688V17.3945H90.084V16.4688H93.9863ZM94.959 16.4688V25H93.8281V16.4688H94.959ZM89.6973 16.4688H90.8223L90.6289 20.6465C90.6016 21.248 90.5547 21.7852 90.4883 22.2578C90.4258 22.7266 90.3359 23.1348 90.2188 23.4824C90.1016 23.8262 89.9492 24.1113 89.7617 24.3379C89.5742 24.5605 89.3438 24.7266 89.0703 24.8359C88.8008 24.9453 88.4766 25 88.0977 25H87.793V24.0801L88.0273 24.0625C88.2461 24.0469 88.4336 23.998 88.5898 23.916C88.75 23.8301 88.8848 23.7012 88.9941 23.5293C89.1074 23.3574 89.1992 23.1348 89.2695 22.8613C89.3398 22.5879 89.3945 22.2539 89.4336 21.8594C89.4766 21.4609 89.5098 20.9961 89.5332 20.4648L89.6973 16.4688ZM97.8242 19.9434H100.15C100.775 19.9434 101.303 20.0488 101.732 20.2598C102.162 20.4668 102.488 20.7578 102.711 21.1328C102.934 21.5078 103.045 21.9473 103.045 22.4512C103.045 22.8262 102.982 23.1699 102.857 23.4824C102.732 23.791 102.547 24.0605 102.301 24.291C102.055 24.5176 101.752 24.6934 101.393 24.8184C101.033 24.9395 100.619 25 100.15 25H96.9629V16.4688H98.0938V24.0801H100.15C100.568 24.0801 100.906 24.0039 101.164 23.8516C101.426 23.6953 101.617 23.4922 101.738 23.2422C101.859 22.9922 101.92 22.7246 101.92 22.4395C101.92 22.1543 101.859 21.8926 101.738 21.6543C101.617 21.416 101.426 21.2266 101.164 21.0859C100.906 20.9414 100.568 20.8691 100.15 20.8691H97.8242V19.9434ZM110.105 20.1367V21.0566H105.488V20.1367H110.105ZM105.664 16.4688V25H104.533V16.4688H105.664ZM111.09 16.4688V25H109.965V16.4688H111.09ZM114.277 23.043L118.479 16.4688H119.609V25H118.479V18.4199L114.277 25H113.152V16.4688H114.277V23.043ZM122.85 16.4688V25H121.719V16.4688H122.85ZM128.105 16.4688L124.402 21.1621H122.398L122.223 20.2246H123.729L126.705 16.4688H128.105ZM126.969 25L123.764 21.0156L124.396 20.0254L128.352 25H126.969ZM132.535 17.2246L129.711 25H128.557L131.809 16.4688H132.553L132.535 17.2246ZM134.902 25L132.072 17.2246L132.055 16.4688H132.799L136.062 25H134.902ZM134.756 21.8418V22.7676H129.963V21.8418H134.756Z" fill="black"/>
<g filter="url(#filter0_d_1325_5011)">
<path d="M178.868 41.1387H11.1367V278.482H178.868V41.1387Z" fill="white"/>
</g>
<path d="M39.1406 41V278.622" stroke="#999999" stroke-width="0.435726"/>
<path d="M67.1484 41V278.622" stroke="#999999" stroke-width="0.435726"/>
<path d="M94.8672 41V278.622" stroke="#999999" stroke-width="0.435726"/>
<path d="M122.875 41V278.622" stroke="#999999" stroke-width="0.435726"/>
<path d="M150.867 41V278.622" stroke="#999999" stroke-width="0.435726"/>
<path d="M179.016 67.2598H11" stroke="#999999" stroke-width="0.435726"/>
<path d="M179.016 93.6641H11" stroke="#999999" stroke-width="0.435726"/>
<path d="M179.016 120.348H11" stroke="#999999" stroke-width="0.435726"/>
<path d="M179.016 146.468H11" stroke="#999999" stroke-width="0.435726"/>
<path d="M179.016 172.874H11" stroke="#999999" stroke-width="0.435726"/>
<path d="M179.016 199.274H11" stroke="#999999" stroke-width="0.435726"/>
<path d="M179.016 225.957H11" stroke="#999999" stroke-width="0.435726"/>
<path d="M179.016 252.362H11" stroke="#999999" stroke-width="0.435726"/>
<g filter="url(#filter1_d_1325_5011)">
<path d="M353.298 41.1387H185.566V278.482H353.298V41.1387Z" fill="white"/>
</g>
<path d="M353.303 41H186.449V199.372H353.303V41Z" fill="#008C95"/>
<path d="M95.0091 41H11.582V120.186H95.0091V41Z" fill="#F0F0F0"/>
<path d="M11.582 43.0562V118.716" stroke="#E6007E" stroke-width="0.580968"/>
<path d="M13.5938 120.187H93.5699" stroke="#E6007E" stroke-width="0.580968"/>
<path d="M95.0039 118.13V42.4644" stroke="#E6007E" stroke-width="0.580968"/>
<path d="M92.9957 41H13.0195" stroke="#E6007E" stroke-width="0.580968"/>
<path d="M11.582 119.309V120.186H12.4477M12.4477 41H11.582V41.8831L12.4477 41ZM95.0091 41.8831V41H94.1435L95.0091 41.8831ZM94.1435 120.186H95.0091V119.309L94.1435 120.186Z" stroke="#E6007E" stroke-width="0.580968"/>
<path d="M178.295 41.2964H11.8711V198.803H178.295V41.2964Z" stroke="#E6007E" stroke-width="1.16194"/>
<path d="M213.57 41V278.622" stroke="#999999" stroke-width="0.435726"/>
<path d="M241.574 41V278.622" stroke="#999999" stroke-width="0.435726"/>
<path d="M269.297 41V278.622" stroke="#999999" stroke-width="0.435726"/>
<path d="M297.301 41V278.622" stroke="#999999" stroke-width="0.435726"/>
<path d="M325.305 41V278.622" stroke="#999999" stroke-width="0.435726"/>
<path d="M353.442 67.2598H185.426" stroke="#999999" stroke-width="0.435726"/>
<path d="M353.442 93.6641H185.426" stroke="#999999" stroke-width="0.435726"/>
<path d="M353.442 120.348H185.426" stroke="#999999" stroke-width="0.435726"/>
<path d="M353.442 146.468H185.426" stroke="#999999" stroke-width="0.435726"/>
<path d="M353.442 172.874H185.426" stroke="#999999" stroke-width="0.435726"/>
<path d="M353.442 199.274H185.426" stroke="#999999" stroke-width="0.435726"/>
<path d="M353.442 225.957H185.426" stroke="#999999" stroke-width="0.435726"/>
<path d="M353.442 252.362H185.426" stroke="#999999" stroke-width="0.435726"/>
<path d="M22.5859 53.8511L163.471 182.989" stroke="#E6007E" stroke-width="0.580968"/>
<path d="M20.9922 52.3865L21.2594 55.7097L24.3211 52.3633L20.9922 52.3865Z" fill="#E6007E"/>
<path d="M165.075 184.458L164.808 181.135L161.746 184.482L165.075 184.458Z" fill="#E6007E"/>
<path d="M18.5059 307.469V316H17.3809V308.395H13.1738V316H12.043V307.469H18.5059ZM23.7031 312.654H21.4238V311.734H23.7031C24.1445 311.734 24.502 311.664 24.7754 311.523C25.0488 311.383 25.248 311.188 25.373 310.938C25.502 310.688 25.5664 310.402 25.5664 310.082C25.5664 309.789 25.502 309.514 25.373 309.256C25.248 308.998 25.0488 308.791 24.7754 308.635C24.502 308.475 24.1445 308.395 23.7031 308.395H21.6875V316H20.5566V307.469H23.7031C24.3477 307.469 24.8926 307.58 25.3379 307.803C25.7832 308.025 26.1211 308.334 26.3516 308.729C26.582 309.119 26.6973 309.566 26.6973 310.07C26.6973 310.617 26.582 311.084 26.3516 311.471C26.1211 311.857 25.7832 312.152 25.3379 312.355C24.8926 312.555 24.3477 312.654 23.7031 312.654ZM29.3047 314.043L33.5059 307.469H34.6367V316H33.5059V309.42L29.3047 316H28.1797V307.469H29.3047V314.043ZM37.0508 307.469H38.1465L40.9414 314.424L43.7305 307.469H44.832L41.3633 316H40.5078L37.0508 307.469ZM36.6934 307.469H37.6602L37.8184 312.672V316H36.6934V307.469ZM44.2168 307.469H45.1836V316H44.0586V312.672L44.2168 307.469ZM52.5898 315.08V316H48.0723V315.08H52.5898ZM48.3008 307.469V316H47.1699V307.469H48.3008ZM51.9922 311.137V312.057H48.0723V311.137H51.9922ZM52.5312 307.469V308.395H48.0723V307.469H52.5312ZM57.1367 312.654H54.8574V311.734H57.1367C57.5781 311.734 57.9355 311.664 58.209 311.523C58.4824 311.383 58.6816 311.188 58.8066 310.938C58.9355 310.688 59 310.402 59 310.082C59 309.789 58.9355 309.514 58.8066 309.256C58.6816 308.998 58.4824 308.791 58.209 308.635C57.9355 308.475 57.5781 308.395 57.1367 308.395H55.1211V316H53.9902V307.469H57.1367C57.7812 307.469 58.3262 307.58 58.7715 307.803C59.2168 308.025 59.5547 308.334 59.7852 308.729C60.0156 309.119 60.1309 309.566 60.1309 310.07C60.1309 310.617 60.0156 311.084 59.7852 311.471C59.5547 311.857 59.2168 312.152 58.7715 312.355C58.3262 312.555 57.7812 312.654 57.1367 312.654ZM69.8457 315.109V316H64.2617V315.221L67.0566 312.109C67.4004 311.727 67.666 311.402 67.8535 311.137C68.0449 310.867 68.1777 310.627 68.252 310.416C68.3301 310.201 68.3691 309.982 68.3691 309.76C68.3691 309.479 68.3105 309.225 68.1934 308.998C68.0801 308.768 67.9121 308.584 67.6895 308.447C67.4668 308.311 67.1973 308.242 66.8809 308.242C66.502 308.242 66.1855 308.316 65.9316 308.465C65.6816 308.609 65.4941 308.812 65.3691 309.074C65.2441 309.336 65.1816 309.637 65.1816 309.977H64.0977C64.0977 309.496 64.2031 309.057 64.4141 308.658C64.625 308.26 64.9375 307.943 65.3516 307.709C65.7656 307.471 66.2754 307.352 66.8809 307.352C67.4199 307.352 67.8809 307.447 68.2637 307.639C68.6465 307.826 68.9395 308.092 69.1426 308.436C69.3496 308.775 69.4531 309.174 69.4531 309.631C69.4531 309.881 69.4102 310.135 69.3242 310.393C69.2422 310.646 69.127 310.9 68.9785 311.154C68.834 311.408 68.6641 311.658 68.4688 311.904C68.2773 312.15 68.0723 312.393 67.8535 312.631L65.5684 315.109H69.8457Z" fill="black"/>
<path d="M192.506 307.469V316H191.381V308.395H187.174V316H186.043V307.469H192.506ZM197.703 312.654H195.424V311.734H197.703C198.145 311.734 198.502 311.664 198.775 311.523C199.049 311.383 199.248 311.188 199.373 310.938C199.502 310.688 199.566 310.402 199.566 310.082C199.566 309.789 199.502 309.514 199.373 309.256C199.248 308.998 199.049 308.791 198.775 308.635C198.502 308.475 198.145 308.395 197.703 308.395H195.688V316H194.557V307.469H197.703C198.348 307.469 198.893 307.58 199.338 307.803C199.783 308.025 200.121 308.334 200.352 308.729C200.582 309.119 200.697 309.566 200.697 310.07C200.697 310.617 200.582 311.084 200.352 311.471C200.121 311.857 199.783 312.152 199.338 312.355C198.893 312.555 198.348 312.654 197.703 312.654ZM203.305 314.043L207.506 307.469H208.637V316H207.506V309.42L203.305 316H202.18V307.469H203.305V314.043ZM211.051 307.469H212.146L214.941 314.424L217.73 307.469H218.832L215.363 316H214.508L211.051 307.469ZM210.693 307.469H211.66L211.818 312.672V316H210.693V307.469ZM218.217 307.469H219.184V316H218.059V312.672L218.217 307.469ZM226.59 315.08V316H222.072V315.08H226.59ZM222.301 307.469V316H221.17V307.469H222.301ZM225.992 311.137V312.057H222.072V311.137H225.992ZM226.531 307.469V308.395H222.072V307.469H226.531ZM231.137 312.654H228.857V311.734H231.137C231.578 311.734 231.936 311.664 232.209 311.523C232.482 311.383 232.682 311.188 232.807 310.938C232.936 310.688 233 310.402 233 310.082C233 309.789 232.936 309.514 232.807 309.256C232.682 308.998 232.482 308.791 232.209 308.635C231.936 308.475 231.578 308.395 231.137 308.395H229.121V316H227.99V307.469H231.137C231.781 307.469 232.326 307.58 232.771 307.803C233.217 308.025 233.555 308.334 233.785 308.729C234.016 309.119 234.131 309.566 234.131 310.07C234.131 310.617 234.016 311.084 233.785 311.471C233.555 311.857 233.217 312.152 232.771 312.355C232.326 312.555 231.781 312.654 231.137 312.654ZM239.838 311.201H240.611C240.99 311.201 241.303 311.139 241.549 311.014C241.799 310.885 241.984 310.711 242.105 310.492C242.23 310.27 242.293 310.02 242.293 309.742C242.293 309.414 242.238 309.139 242.129 308.916C242.02 308.693 241.855 308.525 241.637 308.412C241.418 308.299 241.141 308.242 240.805 308.242C240.5 308.242 240.23 308.303 239.996 308.424C239.766 308.541 239.584 308.709 239.451 308.928C239.322 309.146 239.258 309.404 239.258 309.701H238.174C238.174 309.268 238.283 308.873 238.502 308.518C238.721 308.162 239.027 307.879 239.422 307.668C239.82 307.457 240.281 307.352 240.805 307.352C241.32 307.352 241.771 307.443 242.158 307.627C242.545 307.807 242.846 308.076 243.061 308.436C243.275 308.791 243.383 309.234 243.383 309.766C243.383 309.98 243.332 310.211 243.23 310.457C243.133 310.699 242.979 310.926 242.768 311.137C242.561 311.348 242.291 311.521 241.959 311.658C241.627 311.791 241.229 311.857 240.764 311.857H239.838V311.201ZM239.838 312.092V311.441H240.764C241.307 311.441 241.756 311.506 242.111 311.635C242.467 311.764 242.746 311.936 242.949 312.15C243.156 312.365 243.301 312.602 243.383 312.859C243.469 313.113 243.512 313.367 243.512 313.621C243.512 314.02 243.443 314.373 243.307 314.682C243.174 314.99 242.984 315.252 242.738 315.467C242.496 315.682 242.211 315.844 241.883 315.953C241.555 316.062 241.197 316.117 240.811 316.117C240.439 316.117 240.09 316.064 239.762 315.959C239.438 315.854 239.15 315.701 238.9 315.502C238.65 315.299 238.455 315.051 238.314 314.758C238.174 314.461 238.104 314.123 238.104 313.744H239.188C239.188 314.041 239.252 314.301 239.381 314.523C239.514 314.746 239.701 314.92 239.943 315.045C240.189 315.166 240.479 315.227 240.811 315.227C241.143 315.227 241.428 315.17 241.666 315.057C241.908 314.939 242.094 314.764 242.223 314.529C242.355 314.295 242.422 314 242.422 313.645C242.422 313.289 242.348 312.998 242.199 312.771C242.051 312.541 241.84 312.371 241.566 312.262C241.297 312.148 240.979 312.092 240.611 312.092H239.838Z" fill="black"/>
<g filter="url(#filter2_d_1325_5011)">
<path d="M178.647 332.139H11.1367V569.169H178.647V332.139Z" fill="white"/>
</g>
<g filter="url(#filter3_d_1325_5011)">
<path d="M352.854 332.139H185.344V569.169H352.854V332.139Z" fill="white"/>
</g>
<path d="M269.032 490.163H185.344V570.115H269.032V490.163Z" fill="#77E2C3"/>
<path d="M178.657 332H94.9688V411.082H178.657V332Z" fill="#008C95"/>
<path d="M178.657 490.087H94.9688V569.168H178.657V490.087Z" fill="#77E2C3"/>
<path d="M178.657 411.007H94.9688V490.088H178.657V411.007Z" fill="#77E2C3"/>
<path d="M352.86 490.163H269.172V570.115H352.86V490.163Z" fill="#008C95"/>
<path d="M39.1094 332V569.308" stroke="#999999" stroke-width="0.435152"/>
<path d="M67.0742 332V569.308" stroke="#999999" stroke-width="0.435152"/>
<path d="M94.7656 332V569.308" stroke="#999999" stroke-width="0.435152"/>
<path d="M122.723 332V569.308" stroke="#999999" stroke-width="0.435152"/>
<path d="M150.691 332V569.308" stroke="#999999" stroke-width="0.435152"/>
<path d="M178.794 358.225H11" stroke="#999999" stroke-width="0.435152"/>
<path d="M178.794 384.595H11" stroke="#999999" stroke-width="0.435152"/>
<path d="M178.794 411.244H11" stroke="#999999" stroke-width="0.435152"/>
<path d="M178.794 437.33H11" stroke="#999999" stroke-width="0.435152"/>
<path d="M178.794 463.7H11" stroke="#999999" stroke-width="0.435152"/>
<path d="M178.794 490.065H11" stroke="#999999" stroke-width="0.435152"/>
<path d="M178.794 516.713H11" stroke="#999999" stroke-width="0.435152"/>
<path d="M178.794 543.083H11" stroke="#999999" stroke-width="0.435152"/>
<path d="M213.309 332V569.308" stroke="#999999" stroke-width="0.435152"/>
<path d="M241.273 332V569.308" stroke="#999999" stroke-width="0.435152"/>
<path d="M268.961 332V569.308" stroke="#999999" stroke-width="0.435152"/>
<path d="M296.922 332V569.308" stroke="#999999" stroke-width="0.435152"/>
<path d="M353.001 358.225H185.207" stroke="#999999" stroke-width="0.435152"/>
<path d="M353.001 384.595H185.207" stroke="#999999" stroke-width="0.435152"/>
<path d="M353.001 411.244H185.207" stroke="#999999" stroke-width="0.435152"/>
<path d="M353.001 437.33H185.207" stroke="#999999" stroke-width="0.435152"/>
<path d="M353.001 463.7H185.207" stroke="#999999" stroke-width="0.435152"/>
<path d="M353.001 490.065H185.207" stroke="#999999" stroke-width="0.435152"/>
<path d="M353.001 516.713H185.207" stroke="#999999" stroke-width="0.435152"/>
<path d="M353.001 543.083H185.207" stroke="#999999" stroke-width="0.435152"/>
<path d="M17.5059 598.469V607H16.3809V599.395H12.1738V607H11.043V598.469H17.5059ZM22.7031 603.654H20.4238V602.734H22.7031C23.1445 602.734 23.502 602.664 23.7754 602.523C24.0488 602.383 24.248 602.188 24.373 601.938C24.502 601.688 24.5664 601.402 24.5664 601.082C24.5664 600.789 24.502 600.514 24.373 600.256C24.248 599.998 24.0488 599.791 23.7754 599.635C23.502 599.475 23.1445 599.395 22.7031 599.395H20.6875V607H19.5566V598.469H22.7031C23.3477 598.469 23.8926 598.58 24.3379 598.803C24.7832 599.025 25.1211 599.334 25.3516 599.729C25.582 600.119 25.6973 600.566 25.6973 601.07C25.6973 601.617 25.582 602.084 25.3516 602.471C25.1211 602.857 24.7832 603.152 24.3379 603.355C23.8926 603.555 23.3477 603.654 22.7031 603.654ZM28.3047 605.043L32.5059 598.469H33.6367V607H32.5059V600.42L28.3047 607H27.1797V598.469H28.3047V605.043ZM36.0508 598.469H37.1465L39.9414 605.424L42.7305 598.469H43.832L40.3633 607H39.5078L36.0508 598.469ZM35.6934 598.469H36.6602L36.8184 603.672V607H35.6934V598.469ZM43.2168 598.469H44.1836V607H43.0586V603.672L43.2168 598.469ZM51.5898 606.08V607H47.0723V606.08H51.5898ZM47.3008 598.469V607H46.1699V598.469H47.3008ZM50.9922 602.137V603.057H47.0723V602.137H50.9922ZM51.5312 598.469V599.395H47.0723V598.469H51.5312ZM56.1367 603.654H53.8574V602.734H56.1367C56.5781 602.734 56.9355 602.664 57.209 602.523C57.4824 602.383 57.6816 602.188 57.8066 601.938C57.9355 601.688 58 601.402 58 601.082C58 600.789 57.9355 600.514 57.8066 600.256C57.6816 599.998 57.4824 599.791 57.209 599.635C56.9355 599.475 56.5781 599.395 56.1367 599.395H54.1211V607H52.9902V598.469H56.1367C56.7812 598.469 57.3262 598.58 57.7715 598.803C58.2168 599.025 58.5547 599.334 58.7852 599.729C59.0156 600.119 59.1309 600.566 59.1309 601.07C59.1309 601.617 59.0156 602.084 58.7852 602.471C58.5547 602.857 58.2168 603.152 57.7715 603.355C57.3262 603.555 56.7812 603.654 56.1367 603.654ZM69.0215 604.129V605.02H62.8574V604.381L66.6777 598.469H67.5625L66.6133 600.18L64.0879 604.129H69.0215ZM67.832 598.469V607H66.748V598.469H67.832Z" fill="black"/>
<path d="M191.506 598.469V607H190.381V599.395H186.174V607H185.043V598.469H191.506ZM196.703 603.654H194.424V602.734H196.703C197.145 602.734 197.502 602.664 197.775 602.523C198.049 602.383 198.248 602.188 198.373 601.938C198.502 601.688 198.566 601.402 198.566 601.082C198.566 600.789 198.502 600.514 198.373 600.256C198.248 599.998 198.049 599.791 197.775 599.635C197.502 599.475 197.145 599.395 196.703 599.395H194.688V607H193.557V598.469H196.703C197.348 598.469 197.893 598.58 198.338 598.803C198.783 599.025 199.121 599.334 199.352 599.729C199.582 600.119 199.697 600.566 199.697 601.07C199.697 601.617 199.582 602.084 199.352 602.471C199.121 602.857 198.783 603.152 198.338 603.355C197.893 603.555 197.348 603.654 196.703 603.654ZM202.305 605.043L206.506 598.469H207.637V607H206.506V600.42L202.305 607H201.18V598.469H202.305V605.043ZM210.051 598.469H211.146L213.941 605.424L216.73 598.469H217.832L214.363 607H213.508L210.051 598.469ZM209.693 598.469H210.66L210.818 603.672V607H209.693V598.469ZM217.217 598.469H218.184V607H217.059V603.672L217.217 598.469ZM225.59 606.08V607H221.072V606.08H225.59ZM221.301 598.469V607H220.17V598.469H221.301ZM224.992 602.137V603.057H221.072V602.137H224.992ZM225.531 598.469V599.395H221.072V598.469H225.531ZM230.137 603.654H227.857V602.734H230.137C230.578 602.734 230.936 602.664 231.209 602.523C231.482 602.383 231.682 602.188 231.807 601.938C231.936 601.688 232 601.402 232 601.082C232 600.789 231.936 600.514 231.807 600.256C231.682 599.998 231.482 599.791 231.209 599.635C230.936 599.475 230.578 599.395 230.137 599.395H228.121V607H226.99V598.469H230.137C230.781 598.469 231.326 598.58 231.771 598.803C232.217 599.025 232.555 599.334 232.785 599.729C233.016 600.119 233.131 600.566 233.131 601.07C233.131 601.617 233.016 602.084 232.785 602.471C232.555 602.857 232.217 603.152 231.771 603.355C231.326 603.555 230.781 603.654 230.137 603.654ZM238.627 602.939L237.76 602.717L238.188 598.469H242.564V599.471H239.107L238.85 601.791C239.006 601.701 239.203 601.617 239.441 601.539C239.684 601.461 239.961 601.422 240.273 601.422C240.668 601.422 241.021 601.49 241.334 601.627C241.646 601.76 241.912 601.951 242.131 602.201C242.354 602.451 242.523 602.752 242.641 603.104C242.758 603.455 242.816 603.848 242.816 604.281C242.816 604.691 242.76 605.068 242.646 605.412C242.537 605.756 242.371 606.057 242.148 606.314C241.926 606.568 241.645 606.766 241.305 606.906C240.969 607.047 240.572 607.117 240.115 607.117C239.771 607.117 239.445 607.07 239.137 606.977C238.832 606.879 238.559 606.732 238.316 606.537C238.078 606.338 237.883 606.092 237.73 605.799C237.582 605.502 237.488 605.154 237.449 604.756H238.48C238.527 605.076 238.621 605.346 238.762 605.564C238.902 605.783 239.086 605.949 239.312 606.062C239.543 606.172 239.811 606.227 240.115 606.227C240.373 606.227 240.602 606.182 240.801 606.092C241 606.002 241.168 605.873 241.305 605.705C241.441 605.537 241.545 605.334 241.615 605.096C241.689 604.857 241.727 604.59 241.727 604.293C241.727 604.023 241.689 603.773 241.615 603.543C241.541 603.312 241.43 603.111 241.281 602.939C241.137 602.768 240.959 602.635 240.748 602.541C240.537 602.443 240.295 602.395 240.021 602.395C239.658 602.395 239.383 602.443 239.195 602.541C239.012 602.639 238.822 602.771 238.627 602.939Z" fill="black"/>
<g filter="url(#filter4_d_1325_5011)">
<path d="M178.65 623.138H11.1367V860.173H178.65V623.138Z" fill="white"/>
</g>
<g filter="url(#filter5_d_1325_5011)">
<path d="M352.85 623.138H185.336V860.173H352.85V623.138Z" fill="white"/>
</g>
<path d="M269.175 781.166H185.484V861.12H269.175V781.166Z" fill="#77E2C3"/>
<path d="M94.8269 781.166H11.1367V861.12H94.8269V781.166Z" fill="#77E2C3"/>
<path d="M352.999 781.166H269.309V861.12H352.999V781.166Z" fill="#008C95"/>
<path d="M178.659 781.166H94.9688V861.12H178.659V781.166Z" fill="#00313C"/>
<path d="M178.659 702.257H94.9688V781.166H178.659V702.257Z" fill="#77E2C3"/>
<path d="M95.2678 623H11.1367V702.954H95.2678V623Z" fill="#008C95"/>
<path d="M213.309 623V860.314" stroke="#999999" stroke-width="0.435161"/>
<path d="M241.277 623V860.314" stroke="#999999" stroke-width="0.435161"/>
<path d="M268.965 623V860.314" stroke="#999999" stroke-width="0.435161"/>
<path d="M296.93 623V860.314" stroke="#999999" stroke-width="0.435161"/>
<path d="M324.898 623V860.314" stroke="#999999" stroke-width="0.435161"/>
<path d="M353.001 649.226H185.203" stroke="#999999" stroke-width="0.435161"/>
<path d="M353.001 675.595H185.203" stroke="#999999" stroke-width="0.435161"/>
<path d="M353.001 702.245H185.203" stroke="#999999" stroke-width="0.435161"/>
<path d="M353.001 728.331H185.203" stroke="#999999" stroke-width="0.435161"/>
<path d="M353.001 754.702H185.203" stroke="#999999" stroke-width="0.435161"/>
<path d="M353.001 781.068H185.203" stroke="#999999" stroke-width="0.435161"/>
<path d="M353.001 807.716H185.203" stroke="#999999" stroke-width="0.435161"/>
<path d="M353.001 834.087H185.203" stroke="#999999" stroke-width="0.435161"/>
<path d="M39.1055 623V860.314" stroke="#999999" stroke-width="0.435161"/>
<path d="M67.0742 623V860.314" stroke="#999999" stroke-width="0.435161"/>
<path d="M94.7617 623V860.314" stroke="#999999" stroke-width="0.435161"/>
<path d="M122.727 623V860.314" stroke="#999999" stroke-width="0.435161"/>
<path d="M150.688 623V860.314" stroke="#999999" stroke-width="0.435161"/>
<path d="M178.798 649.226H11" stroke="#999999" stroke-width="0.435161"/>
<path d="M178.798 675.595H11" stroke="#999999" stroke-width="0.435161"/>
<path d="M178.798 702.245H11" stroke="#999999" stroke-width="0.435161"/>
<path d="M178.798 728.331H11" stroke="#999999" stroke-width="0.435161"/>
<path d="M178.798 754.702H11" stroke="#999999" stroke-width="0.435161"/>
<path d="M178.798 781.068H11" stroke="#999999" stroke-width="0.435161"/>
<path d="M178.798 807.716H11" stroke="#999999" stroke-width="0.435161"/>
<path d="M178.798 834.087H11" stroke="#999999" stroke-width="0.435161"/>
<path d="M31.2358 946.214H11.2695V975.186H31.2358V946.214Z" fill="#CCCCCC"/>
<path d="M91.5559 889.119H81.7852V898.635H91.5559V889.119Z" fill="#CCCCCC"/>
<path d="M172.267 889.119H152.301V907.895H172.267V889.119Z" fill="#CCCCCC"/>
<path d="M252.985 889.119H222.398V917.751H252.985V889.119Z" fill="#CCCCCC"/>
<path d="M252.985 945.971H222.398V974.944H252.985V945.971Z" fill="#CCCCCC"/>
<path d="M283.598 917.752H253.012V946.58H283.598V917.752Z" fill="#CCCCCC"/>
<path d="M353.001 946.723H322.414V975.551H353.001V946.723Z" fill="#F2F2F2"/>
<path d="M283.571 889.119H252.984V918.091H283.571V889.119Z" fill="#E5E5E5"/>
<path d="M322.399 946.579H291.812V975.551H322.399V946.579Z" fill="#E5E5E5"/>
<path d="M253.012 917.752H222.426V946.58H253.012V917.752Z" fill="#E5E5E5"/>
<path d="M283.571 945.971H252.984V974.799H283.571V945.971Z" fill="#E5E5E5"/>
<path d="M352.476 889.119H291.812V946.579H352.476V889.119Z" fill="#CCCCCC"/>
<path d="M71.587 946.214H25.707V975.186H71.587V946.214Z" fill="#B2B2B2"/>
<path d="M71.7737 889.051H11.0508V974.974H71.7737V889.051Z" stroke="black" stroke-width="0.424814"/>
<path d="M21.1836 889V975.025" stroke="#999999" stroke-width="0.424814"/>
<path d="M31.3281 889V975.025" stroke="#999999" stroke-width="0.424814"/>
<path d="M41.3672 889V975.025" stroke="#999999" stroke-width="0.424814"/>
<path d="M51.5 889V975.025" stroke="#999999" stroke-width="0.424814"/>
<path d="M61.6406 889V975.025" stroke="#999999" stroke-width="0.424814"/>
<path d="M71.8249 898.507H11" stroke="#999999" stroke-width="0.424814"/>
<path d="M71.8249 908.066H11" stroke="#999999" stroke-width="0.424814"/>
<path d="M71.8249 917.726H11" stroke="#999999" stroke-width="0.424814"/>
<path d="M71.8249 927.182H11" stroke="#999999" stroke-width="0.424814"/>
<path d="M71.8249 936.741H11" stroke="#999999" stroke-width="0.424814"/>
<path d="M71.8249 946.299H11" stroke="#999999" stroke-width="0.424814"/>
<path d="M71.8249 955.959H11" stroke="#999999" stroke-width="0.424814"/>
<path d="M71.8249 965.518H11" stroke="#999999" stroke-width="0.424814"/>
<path d="M142.301 889.051H81.5781V974.974H142.301V889.051Z" stroke="black" stroke-width="0.424814"/>
<path d="M91.7109 889V975.025" stroke="#999999" stroke-width="0.424814"/>
<path d="M101.855 889V975.025" stroke="#999999" stroke-width="0.424814"/>
<path d="M111.887 889V975.025" stroke="#999999" stroke-width="0.424814"/>
<path d="M122.031 889V975.025" stroke="#999999" stroke-width="0.424814"/>
<path d="M132.164 889V975.025" stroke="#999999" stroke-width="0.424814"/>
<path d="M142.352 898.507H81.5273" stroke="#999999" stroke-width="0.424814"/>
<path d="M142.352 908.066H81.5273" stroke="#999999" stroke-width="0.424814"/>
<path d="M142.352 917.726H81.5273" stroke="#999999" stroke-width="0.424814"/>
<path d="M142.352 927.182H81.5273" stroke="#999999" stroke-width="0.424814"/>
<path d="M142.352 936.74H81.5273" stroke="#999999" stroke-width="0.424814"/>
<path d="M142.352 946.299H81.5273" stroke="#999999" stroke-width="0.424814"/>
<path d="M142.352 955.959H81.5273" stroke="#999999" stroke-width="0.424814"/>
<path d="M142.352 965.518H81.5273" stroke="#999999" stroke-width="0.424814"/>
<path d="M71.0706 889.654L11.3672 974.821" stroke="#FC786E" stroke-width="0.424814"/>
<path d="M141.242 889.654L81.5391 974.821" stroke="#FC786E" stroke-width="0.424814"/>
<path d="M212.867 889.654L153.164 974.821" stroke="#FC786E" stroke-width="0.424814"/>
<path d="M212.832 889.051H152.109V974.974H212.832V889.051Z" stroke="black" stroke-width="0.424814"/>
<path d="M162.242 889V975.025" stroke="#999999" stroke-width="0.424814"/>
<path d="M172.387 889V975.025" stroke="#999999" stroke-width="0.424814"/>
<path d="M182.414 889V975.025" stroke="#999999" stroke-width="0.424814"/>
<path d="M192.555 889V975.025" stroke="#999999" stroke-width="0.424814"/>
<path d="M202.695 889V975.025" stroke="#999999" stroke-width="0.424814"/>
<path d="M212.884 898.507H152.059" stroke="#999999" stroke-width="0.424814"/>
<path d="M212.884 908.066H152.059" stroke="#999999" stroke-width="0.424814"/>
<path d="M212.884 917.726H152.059" stroke="#999999" stroke-width="0.424814"/>
<path d="M212.884 927.182H152.059" stroke="#999999" stroke-width="0.424814"/>
<path d="M212.884 936.74H152.059" stroke="#999999" stroke-width="0.424814"/>
<path d="M212.884 946.299H152.059" stroke="#999999" stroke-width="0.424814"/>
<path d="M212.884 955.959H152.059" stroke="#999999" stroke-width="0.424814"/>
<path d="M212.884 965.518H152.059" stroke="#999999" stroke-width="0.424814"/>
<path d="M283.36 889.051H222.637V974.974H283.36V889.051Z" stroke="black" stroke-width="0.424814"/>
<path d="M232.773 889V975.025" stroke="#999999" stroke-width="0.424814"/>
<path d="M242.91 889V975.025" stroke="#999999" stroke-width="0.424814"/>
<path d="M252.945 889V975.025" stroke="#999999" stroke-width="0.424814"/>
<path d="M263.078 889V975.025" stroke="#999999" stroke-width="0.424814"/>
<path d="M273.223 889V975.025" stroke="#999999" stroke-width="0.424814"/>
<path d="M283.407 898.507H222.582" stroke="#999999" stroke-width="0.424814"/>
<path d="M283.407 908.066H222.582" stroke="#999999" stroke-width="0.424814"/>
<path d="M283.407 917.726H222.582" stroke="#999999" stroke-width="0.424814"/>
<path d="M283.407 927.182H222.582" stroke="#999999" stroke-width="0.424814"/>
<path d="M283.407 936.74H222.582" stroke="#999999" stroke-width="0.424814"/>
<path d="M283.407 946.299H222.582" stroke="#999999" stroke-width="0.424814"/>
<path d="M283.407 955.959H222.582" stroke="#999999" stroke-width="0.424814"/>
<path d="M283.407 965.518H222.582" stroke="#999999" stroke-width="0.424814"/>
<path d="M352.774 889.051H292.051V974.974H352.774V889.051Z" stroke="black" stroke-width="0.424814"/>
<path d="M302.188 889V975.025" stroke="#999999" stroke-width="0.424814"/>
<path d="M312.32 889V975.025" stroke="#999999" stroke-width="0.424814"/>
<path d="M322.359 889V975.025" stroke="#999999" stroke-width="0.424814"/>
<path d="M332.492 889V975.025" stroke="#999999" stroke-width="0.424814"/>
<path d="M342.637 889V975.025" stroke="#999999" stroke-width="0.424814"/>
<path d="M352.825 898.507H292" stroke="#999999" stroke-width="0.424814"/>
<path d="M352.825 908.066H292" stroke="#999999" stroke-width="0.424814"/>
<path d="M352.825 917.726H292" stroke="#999999" stroke-width="0.424814"/>
<path d="M352.825 927.182H292" stroke="#999999" stroke-width="0.424814"/>
<path d="M352.825 936.741H292" stroke="#999999" stroke-width="0.424814"/>
<path d="M352.825 946.299H292" stroke="#999999" stroke-width="0.424814"/>
<path d="M352.825 955.959H292" stroke="#999999" stroke-width="0.424814"/>
<path d="M352.825 965.518H292" stroke="#999999" stroke-width="0.424814"/>
<path d="M81.9982 1031H11V1101.8H81.9982V1031Z" fill="#008C95"/>
<path d="M172.334 1031H101.336V1101.8H172.334V1031Z" fill="#77E2C3"/>
<path d="M262.654 1031H191.656V1101.8H262.654V1031Z" fill="#00313C"/>
<path d="M353.002 1031H282.004V1101.8H353.002V1031Z" fill="white"/>
<path d="M353.002 1031H282.004V1101.8H353.002V1031Z" stroke="black" stroke-width="0.50713"/>
<path d="M17.1934 1006.47V1007.39H13.0801V1015H11.9551V1006.47H17.1934ZM12.8164 1009.94H15.1426C15.7676 1009.94 16.2949 1010.05 16.7246 1010.26C17.1543 1010.47 17.4805 1010.76 17.7031 1011.13C17.9258 1011.51 18.0371 1011.95 18.0371 1012.45C18.0371 1012.83 17.9746 1013.17 17.8496 1013.48C17.7246 1013.79 17.5391 1014.06 17.293 1014.29C17.0469 1014.52 16.7441 1014.69 16.3848 1014.82C16.0254 1014.94 15.6113 1015 15.1426 1015H11.9551V1006.47H13.0859V1014.08H15.1426C15.5605 1014.08 15.8984 1014 16.1562 1013.85C16.418 1013.7 16.6094 1013.49 16.7305 1013.24C16.8516 1012.99 16.9121 1012.72 16.9121 1012.44C16.9121 1012.15 16.8516 1011.89 16.7305 1011.65C16.6094 1011.42 16.418 1011.23 16.1562 1011.09C15.8984 1010.94 15.5605 1010.87 15.1426 1010.87H12.8164V1009.94ZM22.7188 1007.22L19.8945 1015H18.7402L21.9922 1006.47H22.7363L22.7188 1007.22ZM25.0859 1015L22.2559 1007.22L22.2383 1006.47H22.9824L26.2461 1015H25.0859ZM24.9395 1011.84V1012.77H20.1465V1011.84H24.9395ZM30.002 1010.9H28.9883V1010.18H29.9609C30.3906 1010.18 30.7383 1010.12 31.0039 1010C31.2695 1009.88 31.4629 1009.71 31.584 1009.5C31.7051 1009.28 31.7656 1009.04 31.7656 1008.75C31.7656 1008.48 31.6992 1008.24 31.5664 1008.02C31.4336 1007.79 31.2285 1007.61 30.9512 1007.48C30.6738 1007.34 30.3164 1007.27 29.8789 1007.27C29.5508 1007.27 29.2539 1007.33 28.9883 1007.46C28.7227 1007.58 28.5117 1007.75 28.3555 1007.97C28.1992 1008.18 28.1211 1008.43 28.1211 1008.71H26.9902C26.9902 1008.35 27.0664 1008.02 27.2188 1007.73C27.3711 1007.44 27.5801 1007.19 27.8457 1006.99C28.1113 1006.78 28.418 1006.62 28.7656 1006.52C29.1172 1006.41 29.4883 1006.35 29.8789 1006.35C30.3359 1006.35 30.75 1006.4 31.1211 1006.51C31.4922 1006.61 31.8105 1006.76 32.0762 1006.97C32.3418 1007.17 32.5449 1007.42 32.6855 1007.72C32.8262 1008.02 32.8965 1008.37 32.8965 1008.77C32.8965 1009.06 32.8281 1009.34 32.6914 1009.6C32.5547 1009.86 32.3594 1010.08 32.1055 1010.28C31.8516 1010.47 31.5469 1010.63 31.1914 1010.74C30.8359 1010.85 30.4395 1010.9 30.002 1010.9ZM28.9883 1010.41H30.002C30.4824 1010.41 30.9102 1010.46 31.2852 1010.55C31.6602 1010.65 31.9766 1010.79 32.2344 1010.98C32.4922 1011.17 32.6875 1011.4 32.8203 1011.68C32.957 1011.95 33.0254 1012.27 33.0254 1012.62C33.0254 1013.02 32.9473 1013.37 32.791 1013.68C32.6387 1013.99 32.4219 1014.25 32.1406 1014.47C31.8594 1014.68 31.5254 1014.84 31.1387 1014.95C30.7559 1015.06 30.3359 1015.12 29.8789 1015.12C29.5117 1015.12 29.1484 1015.07 28.7891 1014.98C28.4336 1014.88 28.1113 1014.73 27.8223 1014.53C27.5332 1014.33 27.3008 1014.07 27.125 1013.76C26.9531 1013.45 26.8672 1013.07 26.8672 1012.63H27.998C27.998 1012.92 28.0762 1013.18 28.2324 1013.42C28.3926 1013.66 28.6133 1013.85 28.8945 1013.99C29.1758 1014.13 29.5039 1014.2 29.8789 1014.2C30.3086 1014.2 30.6719 1014.14 30.9688 1014C31.2695 1013.87 31.498 1013.68 31.6543 1013.45C31.8145 1013.21 31.8945 1012.94 31.8945 1012.64C31.8945 1012.38 31.8516 1012.16 31.7656 1011.96C31.6836 1011.77 31.5605 1011.61 31.3965 1011.48C31.2363 1011.36 31.0352 1011.27 30.793 1011.21C30.5547 1011.15 30.2773 1011.12 29.9609 1011.12H28.9883V1010.41ZM41.082 1010.46V1011C41.082 1011.64 41.002 1012.22 40.8418 1012.73C40.6816 1013.23 40.4512 1013.67 40.1504 1014.02C39.8496 1014.38 39.4883 1014.65 39.0664 1014.84C38.6484 1015.02 38.1797 1015.12 37.6602 1015.12C37.1562 1015.12 36.6934 1015.02 36.2715 1014.84C35.8535 1014.65 35.4902 1014.38 35.1816 1014.02C34.877 1013.67 34.6406 1013.23 34.4727 1012.73C34.3047 1012.22 34.2207 1011.64 34.2207 1011V1010.46C34.2207 1009.82 34.3027 1009.25 34.4668 1008.75C34.6348 1008.24 34.8711 1007.81 35.1758 1007.45C35.4805 1007.09 35.8418 1006.82 36.2598 1006.63C36.6816 1006.45 37.1445 1006.35 37.6484 1006.35C38.168 1006.35 38.6367 1006.45 39.0547 1006.63C39.4766 1006.82 39.8379 1007.09 40.1387 1007.45C40.4434 1007.81 40.6758 1008.24 40.8359 1008.75C41 1009.25 41.082 1009.82 41.082 1010.46ZM39.9629 1011V1010.45C39.9629 1009.95 39.9102 1009.5 39.8047 1009.11C39.7031 1008.71 39.5527 1008.39 39.3535 1008.12C39.1543 1007.86 38.9102 1007.65 38.6211 1007.52C38.3359 1007.38 38.0117 1007.31 37.6484 1007.31C37.2969 1007.31 36.9785 1007.38 36.6934 1007.52C36.4121 1007.65 36.1699 1007.86 35.9668 1008.12C35.7676 1008.39 35.6133 1008.71 35.5039 1009.11C35.3945 1009.5 35.3398 1009.95 35.3398 1010.45V1011C35.3398 1011.52 35.3945 1011.97 35.5039 1012.36C35.6133 1012.75 35.7695 1013.08 35.9727 1013.35C36.1797 1013.62 36.4238 1013.82 36.7051 1013.96C36.9902 1014.09 37.3086 1014.16 37.6602 1014.16C38.0273 1014.16 38.3535 1014.09 38.6387 1013.96C38.9238 1013.82 39.1641 1013.62 39.3594 1013.35C39.5586 1013.08 39.709 1012.75 39.8105 1012.36C39.9121 1011.97 39.9629 1011.52 39.9629 1011ZM45.8164 1011.01H43.6543L43.6426 1010.1H45.6055C45.9297 1010.1 46.2129 1010.05 46.4551 1009.94C46.6973 1009.83 46.8848 1009.67 47.0176 1009.47C47.1543 1009.26 47.2227 1009.02 47.2227 1008.73C47.2227 1008.42 47.1621 1008.16 47.041 1007.97C46.9238 1007.77 46.7422 1007.62 46.4961 1007.54C46.2539 1007.44 45.9453 1007.39 45.5703 1007.39H43.9062V1015H42.7754V1006.47H45.5703C46.0078 1006.47 46.3984 1006.51 46.7422 1006.6C47.0859 1006.69 47.377 1006.83 47.6152 1007.01C47.8574 1007.2 48.041 1007.43 48.166 1007.72C48.291 1008 48.3535 1008.34 48.3535 1008.74C48.3535 1009.09 48.2637 1009.41 48.084 1009.7C47.9043 1009.98 47.6543 1010.21 47.334 1010.39C47.0176 1010.57 46.6465 1010.68 46.2207 1010.73L45.8164 1011.01ZM45.7637 1015H43.209L43.8477 1014.08H45.7637C46.123 1014.08 46.4277 1014.02 46.6777 1013.89C46.9316 1013.77 47.125 1013.59 47.2578 1013.37C47.3906 1013.13 47.457 1012.86 47.457 1012.55C47.457 1012.23 47.4004 1011.96 47.2871 1011.73C47.1738 1011.5 46.9961 1011.32 46.7539 1011.2C46.5117 1011.07 46.1992 1011.01 45.8164 1011.01H44.2051L44.2168 1010.1H46.4199L46.6602 1010.43C47.0703 1010.46 47.418 1010.58 47.7031 1010.78C47.9883 1010.98 48.2051 1011.23 48.3535 1011.53C48.5059 1011.84 48.582 1012.17 48.582 1012.54C48.582 1013.07 48.4648 1013.52 48.2305 1013.89C48 1014.25 47.6738 1014.53 47.252 1014.72C46.8301 1014.91 46.334 1015 45.7637 1015ZM51.166 1009.94H53.4922C54.1172 1009.94 54.6445 1010.05 55.0742 1010.26C55.5039 1010.47 55.8301 1010.76 56.0527 1011.13C56.2754 1011.51 56.3867 1011.95 56.3867 1012.45C56.3867 1012.83 56.3242 1013.17 56.1992 1013.48C56.0742 1013.79 55.8887 1014.06 55.6426 1014.29C55.3965 1014.52 55.0938 1014.69 54.7344 1014.82C54.375 1014.94 53.9609 1015 53.4922 1015H50.3047V1006.47H51.4355V1014.08H53.4922C53.9102 1014.08 54.248 1014 54.5059 1013.85C54.7676 1013.7 54.959 1013.49 55.0801 1013.24C55.2012 1012.99 55.2617 1012.72 55.2617 1012.44C55.2617 1012.15 55.2012 1011.89 55.0801 1011.65C54.959 1011.42 54.7676 1011.23 54.5059 1011.09C54.248 1010.94 53.9102 1010.87 53.4922 1010.87H51.166V1009.94ZM58.5488 1006.47V1015H57.418V1006.47H58.5488ZM66.0547 1014.08V1015H61.5371V1014.08H66.0547ZM61.7656 1006.47V1015H60.6348V1006.47H61.7656ZM65.457 1010.14V1011.06H61.5371V1010.14H65.457ZM65.9961 1006.47V1007.39H61.5371V1006.47H65.9961ZM70.7891 1006.47H71.8848L74.6797 1013.42L77.4688 1006.47H78.5703L75.1016 1015H74.2461L70.7891 1006.47ZM70.4316 1006.47H71.3984L71.5566 1011.67V1015H70.4316V1006.47ZM77.9551 1006.47H78.9219V1015H77.7969V1011.67L77.9551 1006.47ZM87.4766 1010.46V1011C87.4766 1011.64 87.3965 1012.22 87.2363 1012.73C87.0762 1013.23 86.8457 1013.67 86.5449 1014.02C86.2441 1014.38 85.8828 1014.65 85.4609 1014.84C85.043 1015.02 84.5742 1015.12 84.0547 1015.12C83.5508 1015.12 83.0879 1015.02 82.666 1014.84C82.248 1014.65 81.8848 1014.38 81.5762 1014.02C81.2715 1013.67 81.0352 1013.23 80.8672 1012.73C80.6992 1012.22 80.6152 1011.64 80.6152 1011V1010.46C80.6152 1009.82 80.6973 1009.25 80.8613 1008.75C81.0293 1008.24 81.2656 1007.81 81.5703 1007.45C81.875 1007.09 82.2363 1006.82 82.6543 1006.63C83.0762 1006.45 83.5391 1006.35 84.043 1006.35C84.5625 1006.35 85.0312 1006.45 85.4492 1006.63C85.8711 1006.82 86.2324 1007.09 86.5332 1007.45C86.8379 1007.81 87.0703 1008.24 87.2305 1008.75C87.3945 1009.25 87.4766 1009.82 87.4766 1010.46ZM86.3574 1011V1010.45C86.3574 1009.95 86.3047 1009.5 86.1992 1009.11C86.0977 1008.71 85.9473 1008.39 85.748 1008.12C85.5488 1007.86 85.3047 1007.65 85.0156 1007.52C84.7305 1007.38 84.4062 1007.31 84.043 1007.31C83.6914 1007.31 83.373 1007.38 83.0879 1007.52C82.8066 1007.65 82.5645 1007.86 82.3613 1008.12C82.1621 1008.39 82.0078 1008.71 81.8984 1009.11C81.7891 1009.5 81.7344 1009.95 81.7344 1010.45V1011C81.7344 1011.52 81.7891 1011.97 81.8984 1012.36C82.0078 1012.75 82.1641 1013.08 82.3672 1013.35C82.5742 1013.62 82.8184 1013.82 83.0996 1013.96C83.3848 1014.09 83.7031 1014.16 84.0547 1014.16C84.4219 1014.16 84.748 1014.09 85.0332 1013.96C85.3184 1013.82 85.5586 1013.62 85.7539 1013.35C85.9531 1013.08 86.1035 1012.75 86.2051 1012.36C86.3066 1011.97 86.3574 1011.52 86.3574 1011ZM95.6797 1014.08V1015H89.2227V1014.08H95.6797ZM89.4043 1014.08V1017.1H88.2852L88.2793 1014.08H89.4043ZM96.6641 1014.08L96.6523 1017.09H95.5332V1014.08H96.6641ZM94.5723 1006.47V1007.39H90.834V1006.47H94.5723ZM95.5449 1006.47V1015H94.4199V1006.47H95.5449ZM90.4473 1006.47H91.5781L91.4023 1009.9C91.3789 1010.42 91.3301 1010.89 91.2559 1011.33C91.1816 1011.77 91.0898 1012.16 90.9805 1012.52C90.8711 1012.88 90.7461 1013.2 90.6055 1013.49C90.4648 1013.77 90.3145 1014.01 90.1543 1014.22C89.9941 1014.42 89.8262 1014.59 89.6504 1014.72C89.4785 1014.85 89.3047 1014.95 89.1289 1015H88.6133V1014.08H88.9766C89.0781 1013.97 89.1934 1013.81 89.3223 1013.61C89.4551 1013.4 89.5859 1013.13 89.7148 1012.8C89.8477 1012.47 89.9629 1012.07 90.0605 1011.59C90.1621 1011.11 90.2305 1010.55 90.2656 1009.9L90.4473 1006.47ZM100.637 1012.17L102.893 1006.47H104.193L101.176 1013.58C101.09 1013.78 100.994 1013.97 100.889 1014.16C100.783 1014.34 100.654 1014.5 100.502 1014.65C100.35 1014.79 100.16 1014.91 99.9336 1014.99C99.7109 1015.08 99.4336 1015.12 99.1016 1015.12C99.0078 1015.12 98.8965 1015.12 98.7676 1015.11C98.6387 1015.1 98.5547 1015.09 98.5156 1015.08L98.5508 1014.17C98.5938 1014.18 98.6777 1014.19 98.8027 1014.2C98.9277 1014.2 99.0195 1014.2 99.0781 1014.2C99.3008 1014.2 99.4766 1014.16 99.6055 1014.07C99.7344 1013.98 99.8379 1013.87 99.916 1013.73C99.998 1013.59 100.072 1013.45 100.139 1013.3L100.637 1012.17ZM98.7207 1006.47L101.094 1011.78L101.375 1012.83L100.426 1012.9L97.4551 1006.47H98.7207ZM110.709 1006.47V1007.39H106.807V1006.47H110.709ZM111.682 1006.47V1015H110.551V1006.47H111.682ZM106.42 1006.47H107.545L107.352 1010.65C107.324 1011.25 107.277 1011.79 107.211 1012.26C107.148 1012.73 107.059 1013.13 106.941 1013.48C106.824 1013.83 106.672 1014.11 106.484 1014.34C106.297 1014.56 106.066 1014.73 105.793 1014.84C105.523 1014.95 105.199 1015 104.82 1015H104.516V1014.08L104.75 1014.06C104.969 1014.05 105.156 1014 105.312 1013.92C105.473 1013.83 105.607 1013.7 105.717 1013.53C105.83 1013.36 105.922 1013.13 105.992 1012.86C106.062 1012.59 106.117 1012.25 106.156 1011.86C106.199 1011.46 106.232 1011 106.256 1010.46L106.42 1006.47ZM114.898 1013.04L119.1 1006.47H120.23V1015H119.1V1008.42L114.898 1015H113.773V1006.47H114.898V1013.04Z" fill="black"/>
<path d="M12.002 1116.57L11 1116.29L11.1906 1115.71L12.1818 1116.11L12.1165 1115H12.7427L12.6773 1116.13L13.6467 1115.74L13.8373 1116.32L12.8135 1116.61L13.4834 1117.46L12.9769 1117.82L12.3942 1116.89L11.8223 1117.78L11.3158 1117.44L12.0075 1116.57H12.002ZM19.7027 1119.65H18.7442V1115.77H16.8817V1119.65H15.9232V1115H19.7027V1119.65ZM23.5911 1117.95C23.5911 1118.49 23.4713 1118.91 23.2262 1119.23C22.9866 1119.56 22.6599 1119.71 22.246 1119.71C21.8974 1119.71 21.6142 1119.59 21.4018 1119.35V1120.98H20.4815V1116.19H21.3365L21.3692 1116.53C21.5924 1116.26 21.8865 1116.13 22.246 1116.13C22.6707 1116.13 23.0029 1116.29 23.2371 1116.6C23.4713 1116.92 23.5911 1117.35 23.5911 1117.9V1117.95ZM22.0063 1118.97C22.4474 1118.97 22.6653 1118.61 22.6653 1117.88C22.6653 1117.56 22.6108 1117.32 22.4965 1117.14C22.3821 1116.96 22.2187 1116.87 22.0008 1116.87C21.7122 1116.87 21.5107 1116.98 21.4018 1117.21V1118.62C21.5162 1118.85 21.7177 1118.97 22.0063 1118.97ZM26.2433 1116.19H27.1637V1119.65H26.2433V1117.52L25.0887 1119.65H24.163V1116.19H25.0887V1118.32L26.2433 1116.19ZM27.9315 1119.65V1116.19H29.3747C29.8431 1116.19 30.208 1116.28 30.4585 1116.44C30.709 1116.61 30.8343 1116.85 30.8343 1117.16C30.8343 1117.32 30.7798 1117.46 30.6763 1117.59C30.5728 1117.71 30.4149 1117.81 30.2134 1117.88C30.4585 1117.93 30.6545 1118.02 30.7961 1118.16C30.9377 1118.3 31.0085 1118.47 31.0085 1118.67C31.0085 1118.99 30.8887 1119.23 30.6436 1119.4C30.404 1119.57 30.05 1119.65 29.5926 1119.65H27.9315V1119.65ZM28.8519 1117.59H29.4237C29.745 1117.59 29.9084 1117.49 29.9084 1117.28C29.9084 1117.16 29.8649 1117.07 29.7777 1117.02C29.6906 1116.96 29.5544 1116.93 29.3747 1116.93H28.8519V1117.59ZM28.8519 1118.22V1118.91H29.598C29.9248 1118.91 30.0882 1118.8 30.0882 1118.57C30.0882 1118.34 29.9303 1118.22 29.6198 1118.22H28.8519ZM33.1597 1119.71C32.6532 1119.71 32.2393 1119.56 31.9235 1119.25C31.6076 1118.93 31.4442 1118.52 31.4442 1118V1117.92C31.4442 1117.57 31.5096 1117.26 31.6457 1116.98C31.7819 1116.71 31.967 1116.5 32.2175 1116.35C32.4626 1116.2 32.7458 1116.13 33.0562 1116.13C33.53 1116.13 33.9004 1116.28 34.1727 1116.57C34.445 1116.87 34.5811 1117.29 34.5811 1117.84V1118.22H32.3809C32.4081 1118.44 32.5007 1118.63 32.6532 1118.77C32.8057 1118.9 32.9909 1118.97 33.2251 1118.97C33.5791 1118.97 33.8567 1118.84 34.0583 1118.59L34.5103 1119.09C34.3742 1119.29 34.1835 1119.44 33.9494 1119.55C33.7152 1119.66 33.4537 1119.71 33.1651 1119.71H33.1597ZM33.0562 1116.87C32.871 1116.87 32.724 1116.93 32.6097 1117.06C32.4953 1117.19 32.4245 1117.36 32.3918 1117.59H33.6771V1117.52C33.6771 1117.31 33.6171 1117.15 33.5137 1117.04C33.4047 1116.93 33.2577 1116.87 33.0617 1116.87H33.0562ZM35.1583 1118.91C35.3653 1118.68 35.5069 1118.47 35.5832 1118.25C35.6594 1118.03 35.6975 1117.72 35.7084 1117.33L35.7357 1116.2H38.2734V1118.91H38.769V1120.69H37.8487V1119.65H35.801V1120.69H34.8589V1118.91H35.1529H35.1583ZM36.6288 1117.38C36.607 1118.01 36.4817 1118.52 36.2475 1118.91H37.3531V1116.96H36.6342V1117.38H36.6288ZM40.8222 1119.71C40.3157 1119.71 39.9018 1119.56 39.5859 1119.25C39.2701 1118.93 39.1067 1118.52 39.1067 1118V1117.92C39.1067 1117.57 39.172 1117.26 39.3082 1116.98C39.4443 1116.71 39.6295 1116.5 39.88 1116.35C40.1251 1116.2 40.4082 1116.13 40.7187 1116.13C41.1925 1116.13 41.5628 1116.28 41.8351 1116.57C42.1074 1116.87 42.2436 1117.29 42.2436 1117.84V1118.22H40.0434C40.0706 1118.44 40.1632 1118.63 40.3157 1118.77C40.4682 1118.9 40.6533 1118.97 40.8875 1118.97C41.2415 1118.97 41.5193 1118.84 41.7208 1118.59L42.1728 1119.09C42.0366 1119.29 41.846 1119.44 41.6118 1119.55C41.3776 1119.66 41.1163 1119.71 40.8276 1119.71H40.8222ZM40.7187 1116.87C40.5335 1116.87 40.3865 1116.93 40.2721 1117.06C40.1578 1117.19 40.087 1117.36 40.0543 1117.59H41.3395V1117.52C41.3395 1117.31 41.2797 1117.15 41.1762 1117.04C41.0673 1116.93 40.9202 1116.87 40.7241 1116.87H40.7187ZM45.7617 1119.65H44.8359V1118.32H43.6922V1119.65H42.7718V1116.19H43.6922V1117.58H44.8359V1116.19H45.7617V1119.65ZM49.4649 1119.65H48.5392V1118.32H47.3954V1119.65H46.4751V1116.19H47.3954V1117.58H48.5392V1116.19H49.4649V1119.65ZM51.1641 1117.21H51.823C52.1226 1117.21 52.384 1117.26 52.6073 1117.36C52.8306 1117.46 53.0048 1117.6 53.1246 1117.79C53.2444 1117.98 53.3044 1118.19 53.3044 1118.44C53.3044 1118.8 53.1682 1119.1 52.9014 1119.32C52.6345 1119.54 52.2642 1119.65 51.8013 1119.65H50.2328V1116.19H51.1586V1117.21H51.1641ZM51.1641 1117.95V1118.91H51.8176C52.0027 1118.91 52.1389 1118.87 52.2369 1118.79C52.335 1118.7 52.384 1118.59 52.384 1118.44C52.384 1118.29 52.335 1118.17 52.2424 1118.08C52.1443 1118 52.0027 1117.95 51.8176 1117.95H51.1641ZM54.7748 1119.65H53.8544V1116.2H54.7748V1119.65ZM57.1765 1119.72C56.67 1119.72 56.2561 1119.56 55.9402 1119.25C55.6244 1118.94 55.461 1118.53 55.461 1118.01V1117.92C55.461 1117.57 55.5263 1117.26 55.6625 1116.99C55.7986 1116.72 55.9838 1116.5 56.2343 1116.36C56.4794 1116.21 56.7625 1116.13 57.073 1116.13C57.5468 1116.13 57.9171 1116.28 58.1894 1116.58C58.4617 1116.88 58.5979 1117.3 58.5979 1117.85V1118.23H56.3977C56.4249 1118.45 56.5175 1118.63 56.67 1118.77C56.8224 1118.91 57.0076 1118.98 57.2418 1118.98C57.5958 1118.98 57.8736 1118.85 58.0751 1118.59L58.5271 1119.1C58.3909 1119.29 58.2003 1119.45 57.9661 1119.56C57.7319 1119.66 57.4706 1119.72 57.1819 1119.72H57.1765ZM57.073 1116.88C56.8878 1116.88 56.7408 1116.94 56.6264 1117.07C56.5121 1117.19 56.4412 1117.37 56.4086 1117.6H57.6938V1117.52C57.6938 1117.32 57.6339 1117.16 57.5305 1117.05C57.4215 1116.93 57.2745 1116.88 57.0784 1116.88H57.073ZM62.1867 1118.97C62.3556 1118.97 62.4972 1118.92 62.6006 1118.83C62.7096 1118.74 62.764 1118.61 62.764 1118.46H63.6299C63.6299 1118.69 63.5646 1118.9 63.4393 1119.1C63.3141 1119.29 63.1398 1119.44 62.9219 1119.55C62.7041 1119.66 62.4645 1119.71 62.1976 1119.71C61.7021 1119.71 61.3154 1119.56 61.0322 1119.25C60.749 1118.93 60.6019 1118.5 60.6019 1117.94V1117.88C60.6019 1117.35 60.7435 1116.92 61.0267 1116.61C61.3099 1116.29 61.6966 1116.13 62.1922 1116.13C62.6224 1116.13 62.971 1116.25 63.2324 1116.5C63.4938 1116.74 63.6245 1117.07 63.6299 1117.48H62.764C62.764 1117.3 62.7041 1117.16 62.6006 1117.04C62.4972 1116.93 62.3556 1116.87 62.1813 1116.87C61.9689 1116.87 61.8055 1116.95 61.6966 1117.11C61.5877 1117.27 61.5332 1117.52 61.5332 1117.87V1117.97C61.5332 1118.32 61.5877 1118.58 61.6966 1118.74C61.8055 1118.9 61.9689 1118.97 62.1922 1118.97H62.1867ZM64.0111 1117.89C64.0111 1117.55 64.0765 1117.25 64.2072 1116.98C64.3379 1116.71 64.5285 1116.5 64.779 1116.36C65.0295 1116.21 65.3127 1116.14 65.6395 1116.14C66.1078 1116.14 66.4836 1116.28 66.7777 1116.57C67.0718 1116.85 67.2351 1117.24 67.2733 1117.73V1117.96C67.2787 1118.49 67.1317 1118.92 66.8376 1119.24C66.5435 1119.56 66.146 1119.72 65.6449 1119.72C65.1439 1119.72 64.7518 1119.56 64.4523 1119.24C64.1528 1118.92 64.0057 1118.49 64.0057 1117.94V1117.89H64.0111ZM64.9315 1117.96C64.9315 1118.29 64.9914 1118.54 65.1167 1118.71C65.2419 1118.89 65.4162 1118.97 65.6449 1118.97C65.8736 1118.97 66.0425 1118.89 66.1678 1118.72C66.293 1118.55 66.3584 1118.27 66.3584 1117.89C66.3584 1117.57 66.293 1117.32 66.1678 1117.15C66.0425 1116.97 65.8682 1116.88 65.6395 1116.88C65.4107 1116.88 65.2419 1116.97 65.1167 1117.14C64.9914 1117.32 64.9315 1117.59 64.9315 1117.96ZM70.7533 1119.65H69.8329V1118.57C69.6586 1118.6 69.5007 1118.62 69.3537 1118.62C68.8308 1118.62 68.4387 1118.51 68.1773 1118.29C67.9159 1118.06 67.7798 1117.74 67.7743 1117.32V1116.2H68.6947V1117.32C68.6947 1117.52 68.7437 1117.66 68.8417 1117.75C68.9397 1117.83 69.1086 1117.88 69.3537 1117.88C69.5061 1117.88 69.6695 1117.86 69.8329 1117.82V1116.2H70.7533V1119.66V1119.65ZM73.0515 1119.72C72.545 1119.72 72.1311 1119.56 71.8153 1119.25C71.4994 1118.94 71.336 1118.53 71.336 1118.01V1117.92C71.336 1117.57 71.4014 1117.26 71.5375 1116.99C71.6737 1116.72 71.8588 1116.5 72.1093 1116.36C72.3544 1116.21 72.6376 1116.13 72.948 1116.13C73.4218 1116.13 73.7921 1116.28 74.0644 1116.58C74.3367 1116.88 74.4729 1117.3 74.4729 1117.85V1118.23H72.2727C72.2999 1118.45 72.3925 1118.63 72.545 1118.77C72.6975 1118.91 72.8827 1118.98 73.1169 1118.98C73.4708 1118.98 73.7485 1118.85 73.95 1118.59L74.4021 1119.1C74.2659 1119.29 74.0753 1119.45 73.8411 1119.56C73.607 1119.66 73.3455 1119.72 73.0569 1119.72H73.0515ZM72.948 1116.88C72.7628 1116.88 72.6158 1116.94 72.5015 1117.07C72.3871 1117.19 72.3163 1117.37 72.2836 1117.6H73.5688V1117.52C73.5688 1117.32 73.5089 1117.16 73.4054 1117.05C73.2965 1116.93 73.1495 1116.88 72.9534 1116.88H72.948ZM77.8276 1116.95H76.7221V1119.65H75.7962V1116.95H74.707V1116.2H77.8276V1116.95ZM80.2402 1119.65C80.1966 1119.57 80.1693 1119.47 80.1476 1119.34C79.9243 1119.59 79.6357 1119.72 79.2762 1119.72C78.9386 1119.72 78.6554 1119.62 78.4375 1119.43C78.2142 1119.23 78.1053 1118.98 78.1053 1118.68C78.1053 1118.32 78.2415 1118.04 78.5138 1117.84C78.7861 1117.64 79.1782 1117.54 79.6901 1117.54H80.1149V1117.35C80.1149 1117.19 80.0714 1117.06 79.9897 1116.97C79.908 1116.87 79.7772 1116.83 79.603 1116.83C79.445 1116.83 79.3253 1116.86 79.2381 1116.94C79.151 1117.02 79.1074 1117.11 79.1074 1117.25H78.187C78.187 1117.04 78.2469 1116.86 78.3722 1116.69C78.4974 1116.52 78.6717 1116.38 78.895 1116.29C79.1183 1116.19 79.3743 1116.14 79.652 1116.14C80.0768 1116.14 80.4145 1116.25 80.665 1116.46C80.9155 1116.67 81.0407 1116.97 81.0407 1117.37V1118.86C81.0407 1119.19 81.0897 1119.44 81.1769 1119.61V1119.66H80.2456L80.2402 1119.65ZM79.4777 1119.01C79.6139 1119.01 79.7392 1118.98 79.8535 1118.92C79.9679 1118.86 80.055 1118.78 80.1095 1118.67V1118.08H79.7664C79.3035 1118.08 79.0584 1118.24 79.0312 1118.56V1118.61C79.0312 1118.73 79.0693 1118.82 79.151 1118.9C79.2327 1118.97 79.3416 1119.01 79.4832 1119.01H79.4777ZM84.7331 1119.65H83.8073V1118.33H82.6636V1119.65H81.7433V1116.2H82.6636V1117.58H83.8073V1116.2H84.7331V1119.65ZM87.5269 1116.2H88.4472V1119.65H87.5269V1117.52L86.3723 1119.65H85.4465V1116.2H86.3723V1118.33L87.5269 1116.2ZM92.0307 1116.2V1119.65H91.1103V1118.46H90.5276L89.8632 1119.65H88.9265L89.678 1118.3C89.4711 1118.2 89.3131 1118.08 89.1988 1117.92C89.0844 1117.75 89.03 1117.57 89.03 1117.35C89.03 1117.02 89.1607 1116.74 89.4166 1116.53C89.6726 1116.32 90.0211 1116.2 90.4568 1116.2H92.0253H92.0307ZM90.4786 1117.81H91.1103V1116.94H90.5113C90.3479 1116.94 90.2172 1116.98 90.1137 1117.07C90.0103 1117.16 89.9612 1117.26 89.9612 1117.39C89.9612 1117.51 90.0102 1117.61 90.1083 1117.69C90.2063 1117.77 90.3315 1117.81 90.484 1117.82L90.4786 1117.81ZM94.4324 1116.2H95.3528V1118.91H96.5073V1116.2H97.4331V1118.92H97.9505L97.8851 1120.68H97.0246V1119.65H94.427V1116.2H94.4324ZM98.4733 1119.65V1116.2H99.9165C100.385 1116.2 100.75 1116.28 101 1116.45C101.251 1116.62 101.376 1116.85 101.376 1117.16C101.376 1117.32 101.322 1117.47 101.218 1117.59C101.115 1117.72 100.957 1117.82 100.755 1117.89C101 1117.94 101.196 1118.02 101.338 1118.17C101.479 1118.31 101.55 1118.47 101.55 1118.67C101.55 1118.99 101.43 1119.24 101.185 1119.41C100.946 1119.58 100.592 1119.66 100.134 1119.66H98.4733V1119.65ZM99.3937 1117.6H99.9655C100.287 1117.6 100.45 1117.49 100.45 1117.29C100.45 1117.16 100.407 1117.08 100.319 1117.02C100.232 1116.97 100.096 1116.94 99.9165 1116.94H99.3937V1117.6ZM99.3937 1118.22V1118.92H100.14C100.467 1118.92 100.63 1118.8 100.63 1118.57C100.63 1118.35 100.472 1118.23 100.162 1118.22H99.3937ZM103.701 1119.72C103.195 1119.72 102.781 1119.56 102.465 1119.25C102.149 1118.94 101.986 1118.53 101.986 1118.01V1117.92C101.986 1117.57 102.051 1117.26 102.187 1116.99C102.324 1116.72 102.509 1116.5 102.759 1116.36C103.004 1116.21 103.288 1116.13 103.598 1116.13C104.072 1116.13 104.442 1116.28 104.714 1116.58C104.987 1116.88 105.123 1117.3 105.123 1117.85V1118.23H102.923C102.95 1118.45 103.042 1118.63 103.195 1118.77C103.347 1118.91 103.533 1118.98 103.767 1118.98C104.121 1118.98 104.399 1118.85 104.6 1118.59L105.052 1119.1C104.916 1119.29 104.725 1119.45 104.491 1119.56C104.257 1119.66 103.995 1119.72 103.707 1119.72H103.701ZM103.598 1116.88C103.413 1116.88 103.266 1116.94 103.151 1117.07C103.037 1117.19 102.966 1117.37 102.934 1117.6H104.219V1117.52C104.219 1117.32 104.159 1117.16 104.055 1117.05C103.946 1116.93 103.799 1116.88 103.603 1116.88H103.598ZM108.483 1116.95H107.377V1119.65H106.452V1116.95H105.362V1116.2H108.483V1116.95ZM108.706 1117.9C108.706 1117.56 108.772 1117.25 108.902 1116.98C109.033 1116.72 109.224 1116.51 109.474 1116.36C109.725 1116.22 110.008 1116.14 110.335 1116.14C110.803 1116.14 111.179 1116.29 111.473 1116.57C111.767 1116.86 111.93 1117.25 111.968 1117.74V1117.97C111.974 1118.5 111.827 1118.92 111.533 1119.25C111.239 1119.57 110.841 1119.72 110.34 1119.72C109.839 1119.72 109.447 1119.57 109.147 1119.25C108.848 1118.92 108.701 1118.49 108.701 1117.94V1117.9H108.706ZM109.627 1117.96C109.627 1118.29 109.687 1118.54 109.812 1118.72C109.937 1118.89 110.111 1118.98 110.34 1118.98C110.569 1118.98 110.738 1118.89 110.863 1118.72C110.988 1118.55 111.053 1118.28 111.053 1117.9C111.053 1117.58 110.988 1117.33 110.863 1117.15C110.738 1116.98 110.563 1116.89 110.335 1116.89C110.106 1116.89 109.937 1116.97 109.812 1117.15C109.687 1117.32 109.627 1117.59 109.627 1117.96ZM112.6 1119.66V1116.2H114.043C114.512 1116.2 114.877 1116.29 115.127 1116.46C115.378 1116.62 115.503 1116.86 115.503 1117.17C115.503 1117.33 115.448 1117.47 115.345 1117.6C115.241 1117.72 115.084 1117.82 114.882 1117.89C115.127 1117.94 115.323 1118.03 115.465 1118.17C115.606 1118.31 115.677 1118.48 115.677 1118.68C115.677 1119 115.557 1119.25 115.312 1119.41C115.073 1119.58 114.719 1119.66 114.261 1119.66H112.6V1119.66ZM113.521 1117.6H114.092C114.414 1117.6 114.577 1117.5 114.577 1117.29C114.577 1117.17 114.533 1117.08 114.446 1117.03C114.359 1116.97 114.223 1116.95 114.043 1116.95H113.521V1117.6ZM113.521 1118.23V1118.92H114.267C114.593 1118.92 114.757 1118.81 114.757 1118.58C114.757 1118.35 114.599 1118.23 114.288 1118.23H113.521ZM119.947 1116.2H120.867V1119.66H119.947V1117.53L118.792 1119.66H117.866V1116.2H118.792V1118.34L119.947 1116.2ZM123.007 1118.98C123.176 1118.98 123.318 1118.93 123.421 1118.84C123.53 1118.74 123.585 1118.62 123.585 1118.46H124.451C124.451 1118.69 124.385 1118.91 124.26 1119.1C124.135 1119.3 123.96 1119.45 123.743 1119.56C123.525 1119.66 123.285 1119.72 123.018 1119.72C122.523 1119.72 122.136 1119.56 121.853 1119.25C121.57 1118.93 121.423 1118.5 121.423 1117.95V1117.89C121.423 1117.35 121.564 1116.93 121.847 1116.61C122.131 1116.3 122.517 1116.14 123.013 1116.14C123.443 1116.14 123.792 1116.26 124.053 1116.5C124.314 1116.75 124.445 1117.08 124.451 1117.49H123.585C123.585 1117.31 123.525 1117.16 123.421 1117.05C123.318 1116.93 123.176 1116.88 123.002 1116.88C122.79 1116.88 122.626 1116.96 122.517 1117.11C122.408 1117.27 122.354 1117.52 122.354 1117.88V1117.98C122.354 1118.33 122.408 1118.59 122.517 1118.74C122.626 1118.9 122.79 1118.98 123.013 1118.98H123.007ZM127.98 1119.66H127.054V1116.95H125.899V1119.66H124.979V1116.2H127.98V1119.66ZM128.541 1117.9C128.541 1117.56 128.606 1117.25 128.737 1116.98C128.867 1116.72 129.058 1116.51 129.308 1116.36C129.559 1116.22 129.842 1116.14 130.169 1116.14C130.637 1116.14 131.013 1116.29 131.307 1116.57C131.601 1116.86 131.765 1117.25 131.803 1117.74V1117.97C131.808 1118.5 131.661 1118.92 131.367 1119.25C131.073 1119.57 130.675 1119.72 130.174 1119.72C129.673 1119.72 129.281 1119.57 128.982 1119.25C128.682 1118.92 128.535 1118.49 128.535 1117.94V1117.9H128.541ZM129.461 1117.96C129.461 1118.29 129.521 1118.54 129.646 1118.72C129.771 1118.89 129.946 1118.98 130.174 1118.98C130.403 1118.98 130.572 1118.89 130.697 1118.72C130.822 1118.55 130.888 1118.28 130.888 1117.9C130.888 1117.58 130.822 1117.33 130.697 1117.15C130.572 1116.98 130.398 1116.89 130.169 1116.89C129.94 1116.89 129.771 1116.97 129.646 1117.15C129.521 1117.32 129.461 1117.59 129.461 1117.96ZM135.343 1116.2V1119.66H134.422V1116.95H133.611L133.551 1118.02C133.513 1118.59 133.404 1119 133.213 1119.26C133.023 1119.52 132.745 1119.65 132.374 1119.66H132.064L132.053 1118.91L132.168 1118.9C132.331 1118.89 132.456 1118.79 132.532 1118.6C132.609 1118.42 132.658 1118.11 132.674 1117.66L132.739 1116.2H135.343V1116.2ZM137.036 1117.22H137.695C137.995 1117.22 138.256 1117.27 138.479 1117.37C138.703 1117.47 138.877 1117.62 138.997 1117.8C139.117 1117.99 139.177 1118.2 139.177 1118.45C139.177 1118.81 139.04 1119.11 138.774 1119.33C138.507 1119.55 138.136 1119.66 137.673 1119.66H136.105V1116.2H137.031V1117.22H137.036ZM137.036 1117.96V1118.92H137.69C137.875 1118.92 138.011 1118.88 138.109 1118.8C138.207 1118.71 138.256 1118.6 138.256 1118.45C138.256 1118.3 138.207 1118.18 138.115 1118.1C138.017 1118.01 137.875 1117.96 137.69 1117.96H137.036ZM141.077 1117.6C141.366 1117.59 141.507 1117.47 141.507 1117.23C141.507 1117.11 141.469 1117.01 141.388 1116.95C141.306 1116.88 141.197 1116.85 141.05 1116.85C140.903 1116.85 140.778 1116.88 140.68 1116.94C140.587 1117.01 140.538 1117.09 140.538 1117.21H139.618C139.618 1116.9 139.748 1116.64 140.004 1116.44C140.266 1116.25 140.598 1116.15 141.001 1116.15C141.447 1116.15 141.796 1116.24 142.047 1116.41C142.303 1116.59 142.428 1116.84 142.428 1117.16C142.428 1117.31 142.384 1117.45 142.292 1117.58C142.199 1117.71 142.068 1117.81 141.9 1117.89C142.292 1118.03 142.488 1118.3 142.488 1118.69C142.488 1119.01 142.352 1119.27 142.079 1119.45C141.807 1119.64 141.447 1119.74 140.995 1119.74C140.576 1119.74 140.233 1119.64 139.961 1119.44C139.688 1119.25 139.558 1118.98 139.558 1118.65H140.478C140.478 1118.77 140.533 1118.86 140.636 1118.93C140.74 1119.01 140.876 1119.04 141.045 1119.04C141.213 1119.04 141.339 1119.01 141.426 1118.93C141.513 1118.85 141.562 1118.75 141.562 1118.63C141.562 1118.48 141.518 1118.37 141.431 1118.31C141.344 1118.24 141.213 1118.21 141.039 1118.21H140.538V1117.61H141.072L141.077 1117.6ZM142.912 1117.9C142.912 1117.56 142.978 1117.26 143.108 1116.99C143.239 1116.72 143.43 1116.51 143.68 1116.37C143.931 1116.22 144.214 1116.15 144.541 1116.15C145.009 1116.15 145.385 1116.29 145.679 1116.58C145.973 1116.86 146.136 1117.25 146.175 1117.74V1117.98C146.18 1118.5 146.033 1118.93 145.739 1119.25C145.445 1119.57 145.047 1119.73 144.546 1119.73C144.045 1119.73 143.653 1119.57 143.354 1119.25C143.054 1118.93 142.907 1118.5 142.907 1117.95V1117.9H142.912ZM143.833 1117.97C143.833 1118.3 143.893 1118.55 144.018 1118.72C144.143 1118.9 144.318 1118.98 144.546 1118.98C144.775 1118.98 144.944 1118.9 145.069 1118.73C145.194 1118.56 145.26 1118.28 145.26 1117.9C145.26 1117.58 145.194 1117.33 145.069 1117.16C144.944 1116.98 144.77 1116.89 144.541 1116.89C144.312 1116.89 144.143 1116.98 144.018 1117.15C143.893 1117.33 143.833 1117.6 143.833 1117.97ZM146.806 1119.66V1116.21H148.25C148.718 1116.21 149.083 1116.29 149.333 1116.46C149.584 1116.63 149.709 1116.86 149.709 1117.17C149.709 1117.33 149.655 1117.48 149.551 1117.6C149.448 1117.73 149.29 1117.83 149.088 1117.9C149.333 1117.95 149.529 1118.04 149.671 1118.18C149.813 1118.32 149.883 1118.48 149.883 1118.68C149.883 1119.01 149.763 1119.25 149.518 1119.42C149.279 1119.59 148.925 1119.67 148.467 1119.67H146.806V1119.66ZM147.727 1117.61H148.299C148.62 1117.61 148.783 1117.5 148.783 1117.3C148.783 1117.17 148.74 1117.09 148.653 1117.03C148.565 1116.98 148.429 1116.95 148.25 1116.95H147.727V1117.61ZM147.727 1118.23V1118.93H148.473C148.8 1118.93 148.963 1118.81 148.963 1118.59C148.963 1118.36 148.805 1118.24 148.495 1118.23H147.727ZM152.443 1119.66C152.399 1119.58 152.372 1119.48 152.35 1119.35C152.127 1119.6 151.838 1119.73 151.479 1119.73C151.141 1119.73 150.858 1119.63 150.64 1119.44C150.417 1119.24 150.308 1118.99 150.308 1118.69C150.308 1118.33 150.444 1118.05 150.717 1117.85C150.989 1117.65 151.381 1117.56 151.893 1117.56H152.318V1117.36C152.318 1117.2 152.274 1117.07 152.192 1116.98C152.111 1116.89 151.98 1116.84 151.806 1116.84C151.648 1116.84 151.528 1116.87 151.441 1116.95C151.354 1117.03 151.31 1117.13 151.31 1117.26H150.39C150.39 1117.05 150.45 1116.87 150.575 1116.7C150.7 1116.53 150.874 1116.4 151.098 1116.3C151.321 1116.2 151.577 1116.15 151.855 1116.15C152.28 1116.15 152.617 1116.26 152.868 1116.47C153.118 1116.68 153.244 1116.98 153.244 1117.38V1118.87C153.244 1119.2 153.293 1119.45 153.38 1119.62V1119.68H152.448L152.443 1119.66ZM151.68 1119.02C151.817 1119.02 151.942 1118.99 152.056 1118.93C152.171 1118.87 152.258 1118.79 152.312 1118.68V1118.09H151.969C151.506 1118.09 151.261 1118.25 151.234 1118.57V1118.62C151.234 1118.74 151.272 1118.83 151.354 1118.91C151.435 1118.98 151.544 1119.02 151.686 1119.02H151.68ZM156.936 1119.66H156.01V1118.34H154.866V1119.66H153.946V1116.21H154.866V1117.59H156.01V1116.21H156.936V1119.66ZM158.635 1117.22H159.294C159.594 1117.22 159.855 1117.27 160.078 1117.38C160.301 1117.47 160.476 1117.62 160.596 1117.81C160.715 1117.99 160.775 1118.21 160.775 1118.46C160.775 1118.82 160.639 1119.11 160.372 1119.33C160.105 1119.56 159.735 1119.66 159.272 1119.66H157.704V1116.21H158.63V1117.22H158.635ZM158.635 1117.97V1118.93H159.289C159.474 1118.93 159.61 1118.89 159.708 1118.8C159.806 1118.72 159.855 1118.6 159.855 1118.46C159.855 1118.31 159.806 1118.19 159.713 1118.1C159.615 1118.01 159.474 1117.97 159.289 1117.97H158.635ZM162.246 1119.67H161.325V1116.22H162.246V1119.67ZM164.735 1118.92C164.941 1118.7 165.083 1118.48 165.159 1118.26C165.236 1118.05 165.274 1117.74 165.285 1117.34L165.312 1116.22H167.85V1118.92H168.345V1120.71H167.425V1119.67H165.377V1120.71H164.435V1118.92H164.729H164.735ZM166.205 1117.39C166.183 1118.02 166.058 1118.54 165.824 1118.92H166.929V1116.98H166.21V1117.39H166.205ZM171.814 1116.22V1119.67H170.894V1116.96H170.082L170.023 1118.03C169.984 1118.6 169.876 1119.01 169.685 1119.27C169.494 1119.53 169.217 1119.66 168.846 1119.67H168.536L168.525 1118.92L168.639 1118.91C168.803 1118.9 168.928 1118.8 169.004 1118.61C169.08 1118.43 169.129 1118.12 169.146 1117.68L169.211 1116.21H171.814V1116.22ZM175.403 1116.22V1119.67H174.483V1118.48H173.9L173.236 1119.67H172.299L173.051 1118.32C172.844 1118.22 172.686 1118.1 172.571 1117.93C172.457 1117.77 172.402 1117.58 172.402 1117.37C172.402 1117.04 172.533 1116.76 172.789 1116.55C173.045 1116.34 173.394 1116.22 173.829 1116.22H175.398H175.403ZM173.851 1117.83H174.483V1116.96H173.884C173.72 1116.96 173.59 1117 173.486 1117.09C173.383 1117.17 173.334 1117.28 173.334 1117.4C173.334 1117.53 173.383 1117.63 173.481 1117.71C173.579 1117.79 173.704 1117.83 173.857 1117.83L173.851 1117.83ZM180.806 1119.67H179.88V1116.96H178.725V1119.67H177.805V1116.22H180.806V1119.67ZM184.618 1117.98C184.618 1118.51 184.498 1118.93 184.253 1119.26C184.013 1119.58 183.686 1119.74 183.273 1119.74C182.924 1119.74 182.641 1119.62 182.428 1119.37V1121H181.508V1116.22H182.363L182.396 1116.55C182.619 1116.29 182.913 1116.15 183.273 1116.15C183.697 1116.15 184.03 1116.31 184.264 1116.62C184.498 1116.94 184.618 1117.38 184.618 1117.93V1117.98ZM183.033 1118.99C183.474 1118.99 183.692 1118.63 183.692 1117.9C183.692 1117.58 183.638 1117.34 183.523 1117.16C183.409 1116.98 183.245 1116.9 183.028 1116.9C182.739 1116.9 182.537 1117.01 182.428 1117.23V1118.65C182.543 1118.87 182.744 1118.99 183.033 1118.99ZM187.27 1116.22H188.19V1119.67H187.27V1117.54L186.115 1119.67H185.19V1116.22H186.115V1118.35L187.27 1116.22ZM190.995 1118.58L191.899 1116.22H193.054V1119.67H192.133V1117.55L191.305 1119.67H190.685L189.873 1117.58V1119.67H188.953V1116.22H190.096L190.995 1118.58ZM195.439 1119.74C194.932 1119.74 194.519 1119.58 194.203 1119.27C193.887 1118.96 193.723 1118.54 193.723 1118.02V1117.94C193.723 1117.59 193.789 1117.28 193.925 1117.01C194.061 1116.73 194.246 1116.52 194.497 1116.37C194.742 1116.23 195.025 1116.15 195.335 1116.15C195.809 1116.15 196.18 1116.3 196.452 1116.6C196.724 1116.9 196.86 1117.32 196.86 1117.87V1118.24H194.66C194.687 1118.47 194.78 1118.65 194.932 1118.79C195.085 1118.92 195.27 1118.99 195.504 1118.99C195.858 1118.99 196.136 1118.86 196.337 1118.61L196.79 1119.11C196.653 1119.31 196.463 1119.46 196.229 1119.57C195.994 1119.68 195.733 1119.74 195.444 1119.74H195.439ZM195.335 1116.9C195.15 1116.9 195.003 1116.96 194.889 1117.08C194.775 1117.21 194.704 1117.38 194.671 1117.62H195.956V1117.54C195.956 1117.33 195.896 1117.17 195.793 1117.07C195.684 1116.95 195.537 1116.9 195.341 1116.9H195.335ZM200.493 1117.98C200.493 1118.51 200.373 1118.93 200.128 1119.26C199.888 1119.58 199.562 1119.74 199.148 1119.74C198.799 1119.74 198.516 1119.62 198.304 1119.37V1121H197.383V1116.22H198.238L198.271 1116.55C198.494 1116.29 198.788 1116.15 199.148 1116.15C199.572 1116.15 199.905 1116.31 200.139 1116.62C200.373 1116.94 200.493 1117.38 200.493 1117.93V1117.98ZM198.908 1118.99C199.349 1118.99 199.567 1118.63 199.567 1117.9C199.567 1117.58 199.513 1117.34 199.398 1117.16C199.284 1116.98 199.12 1116.9 198.903 1116.9C198.614 1116.9 198.412 1117.01 198.304 1117.23V1118.65C198.418 1118.87 198.619 1118.99 198.908 1118.99ZM203.063 1119.67C203.02 1119.59 202.992 1119.49 202.971 1119.36C202.747 1119.61 202.459 1119.74 202.099 1119.74C201.762 1119.74 201.479 1119.64 201.261 1119.44C201.037 1119.25 200.928 1119 200.928 1118.7C200.928 1118.34 201.065 1118.05 201.337 1117.86C201.609 1117.66 202.001 1117.56 202.513 1117.56H202.938V1117.37C202.938 1117.21 202.894 1117.08 202.813 1116.98C202.731 1116.89 202.6 1116.84 202.426 1116.84C202.268 1116.84 202.148 1116.88 202.061 1116.96C201.974 1117.03 201.931 1117.13 201.931 1117.26H201.01C201.01 1117.06 201.07 1116.87 201.195 1116.71C201.321 1116.54 201.495 1116.4 201.718 1116.3C201.941 1116.2 202.197 1116.16 202.475 1116.16C202.9 1116.16 203.238 1116.26 203.488 1116.48C203.739 1116.69 203.864 1116.99 203.864 1117.38V1118.88C203.864 1119.21 203.913 1119.46 204 1119.63V1119.68H203.069L203.063 1119.67ZM202.301 1119.03C202.437 1119.03 202.562 1118.99 202.677 1118.93C202.791 1118.87 202.878 1118.79 202.933 1118.69V1118.1H202.59C202.127 1118.1 201.881 1118.25 201.854 1118.57V1118.63C201.854 1118.74 201.892 1118.84 201.974 1118.91C202.056 1118.99 202.165 1119.03 202.306 1119.03H202.301Z" fill="#E6007E"/>
<defs>
<filter id="filter0_d_1325_5011" x="1.84122" y="31.8432" width="190.969" height="260.582" filterUnits="userSpaceOnUse" color-interpolation-filters="sRGB">
<feFlood flood-opacity="0" result="BackgroundImageFix"/>
<feColorMatrix in="SourceAlpha" type="matrix" values="0 0 0 0 0 0 0 0 0 0 0 0 0 0 0 0 0 0 127 0" result="hardAlpha"/>
<feOffset dx="2.32387" dy="2.32387"/>
<feGaussianBlur stdDeviation="5.80968"/>
<feComposite in2="hardAlpha" operator="out"/>
<feColorMatrix type="matrix" values="0 0 0 0 0 0 0 0 0 0 0 0 0 0 0 0 0 0 0.1 0"/>
<feBlend mode="normal" in2="BackgroundImageFix" result="effect1_dropShadow_1325_5011"/>
<feBlend mode="normal" in="SourceGraphic" in2="effect1_dropShadow_1325_5011" result="shape"/>
</filter>
<filter id="filter1_d_1325_5011" x="175.259" y="30.8314" width="193.499" height="263.111" filterUnits="userSpaceOnUse" color-interpolation-filters="sRGB">
<feFlood flood-opacity="0" result="BackgroundImageFix"/>
<feColorMatrix in="SourceAlpha" type="matrix" values="0 0 0 0 0 0 0 0 0 0 0 0 0 0 0 0 0 0 127 0" result="hardAlpha"/>
<feOffset dx="2.57682" dy="2.57682"/>
<feGaussianBlur stdDeviation="6.44204"/>
<feComposite in2="hardAlpha" operator="out"/>
<feColorMatrix type="matrix" values="0 0 0 0 0 0 0 0 0 0 0 0 0 0 0 0 0 0 0.1 0"/>
<feBlend mode="normal" in2="BackgroundImageFix" result="effect1_dropShadow_1325_5011"/>
<feBlend mode="normal" in="SourceGraphic" in2="effect1_dropShadow_1325_5011" result="shape"/>
</filter>
<filter id="filter2_d_1325_5011" x="0.843045" y="321.845" width="193.244" height="262.764" filterUnits="userSpaceOnUse" color-interpolation-filters="sRGB">
<feFlood flood-opacity="0" result="BackgroundImageFix"/>
<feColorMatrix in="SourceAlpha" type="matrix" values="0 0 0 0 0 0 0 0 0 0 0 0 0 0 0 0 0 0 127 0" result="hardAlpha"/>
<feOffset dx="2.57342" dy="2.57342"/>
<feGaussianBlur stdDeviation="6.43355"/>
<feComposite in2="hardAlpha" operator="out"/>
<feColorMatrix type="matrix" values="0 0 0 0 0 0 0 0 0 0 0 0 0 0 0 0 0 0 0.1 0"/>
<feBlend mode="normal" in2="BackgroundImageFix" result="effect1_dropShadow_1325_5011"/>
<feBlend mode="normal" in="SourceGraphic" in2="effect1_dropShadow_1325_5011" result="shape"/>
</filter>
<filter id="filter3_d_1325_5011" x="175.05" y="321.845" width="193.244" height="262.764" filterUnits="userSpaceOnUse" color-interpolation-filters="sRGB">
<feFlood flood-opacity="0" result="BackgroundImageFix"/>
<feColorMatrix in="SourceAlpha" type="matrix" values="0 0 0 0 0 0 0 0 0 0 0 0 0 0 0 0 0 0 127 0" result="hardAlpha"/>
<feOffset dx="2.57342" dy="2.57342"/>
<feGaussianBlur stdDeviation="6.43355"/>
<feComposite in2="hardAlpha" operator="out"/>
<feColorMatrix type="matrix" values="0 0 0 0 0 0 0 0 0 0 0 0 0 0 0 0 0 0 0.1 0"/>
<feBlend mode="normal" in2="BackgroundImageFix" result="effect1_dropShadow_1325_5011"/>
<feBlend mode="normal" in="SourceGraphic" in2="effect1_dropShadow_1325_5011" result="shape"/>
</filter>
<filter id="filter4_d_1325_5011" x="0.842828" y="612.844" width="193.248" height="262.77" filterUnits="userSpaceOnUse" color-interpolation-filters="sRGB">
<feFlood flood-opacity="0" result="BackgroundImageFix"/>
<feColorMatrix in="SourceAlpha" type="matrix" values="0 0 0 0 0 0 0 0 0 0 0 0 0 0 0 0 0 0 127 0" result="hardAlpha"/>
<feOffset dx="2.57347" dy="2.57347"/>
<feGaussianBlur stdDeviation="6.43368"/>
<feComposite in2="hardAlpha" operator="out"/>
<feColorMatrix type="matrix" values="0 0 0 0 0 0 0 0 0 0 0 0 0 0 0 0 0 0 0.1 0"/>
<feBlend mode="normal" in2="BackgroundImageFix" result="effect1_dropShadow_1325_5011"/>
<feBlend mode="normal" in="SourceGraphic" in2="effect1_dropShadow_1325_5011" result="shape"/>
</filter>
<filter id="filter5_d_1325_5011" x="175.042" y="612.844" width="193.248" height="262.77" filterUnits="userSpaceOnUse" color-interpolation-filters="sRGB">
<feFlood flood-opacity="0" result="BackgroundImageFix"/>
<feColorMatrix in="SourceAlpha" type="matrix" values="0 0 0 0 0 0 0 0 0 0 0 0 0 0 0 0 0 0 127 0" result="hardAlpha"/>
<feOffset dx="2.57347" dy="2.57347"/>
<feGaussianBlur stdDeviation="6.43368"/>
<feComposite in2="hardAlpha" operator="out"/>
<feColorMatrix type="matrix" values="0 0 0 0 0 0 0 0 0 0 0 0 0 0 0 0 0 0 0.1 0"/>
<feBlend mode="normal" in2="BackgroundImageFix" result="effect1_dropShadow_1325_5011"/>
<feBlend mode="normal" in="SourceGraphic" in2="effect1_dropShadow_1325_5011" result="shape"/>
</filter>
</defs>
</svg>
