<svg width="1653" height="584" viewBox="0 0 1653 584" fill="none" xmlns="http://www.w3.org/2000/svg">
<path d="M1426.16 520.158H1363.54V582.778H1426.16V520.158Z" fill="white"/>
<path d="M1363.71 520.158L1394 540.989L1425.98 520.158H1363.71Z" fill="#00313C"/>
<path d="M1363.54 540.99L1394 561.939L1426.16 540.99H1363.54Z" fill="#77E2C3"/>
<path d="M1363.54 561.938L1393.83 582.778H1394.17L1426.16 561.938H1363.54Z" fill="#008C95"/>
<path d="M1363.54 581.207V521.277" stroke="#E6007E" stroke-width="0.451479" stroke-miterlimit="10"/>
<path d="M1365.11 520.158H1425.04" stroke="#E6007E" stroke-width="0.451479" stroke-miterlimit="10"/>
<path d="M1426.16 521.721V581.659" stroke="#E6007E" stroke-width="0.451479" stroke-miterlimit="10"/>
<path d="M1424.59 582.777H1364.66" stroke="#E6007E" stroke-width="0.451479" stroke-miterlimit="10"/>
<path d="M1363.54 520.826V520.158H1364.21M1364.21 582.778H1363.54V582.11L1364.21 582.778ZM1426.16 582.11V582.778H1425.49L1426.16 582.11ZM1425.49 520.158H1426.16V520.826L1425.49 520.158Z" stroke="#E6007E" stroke-width="0.451479" stroke-miterlimit="10"/>
<path d="M1472.29 528.961C1462.54 528.961 1454.65 536.853 1454.65 546.596C1454.65 556.339 1462.54 564.23 1472.29 564.23C1482.03 564.23 1489.92 556.339 1489.92 546.596C1489.92 536.853 1482.03 528.961 1472.29 528.961Z" fill="#77E2C3"/>
<path d="M1454.63 546.613C1454.63 544.194 1455.12 541.891 1456 539.787C1449.23 542.279 1444.4 548.79 1444.4 556.42C1444.4 566.208 1452.34 574.136 1462.12 574.136C1469.49 574.136 1475.8 569.639 1478.47 563.237C1476.57 563.941 1474.5 564.33 1472.34 564.33C1462.55 564.33 1454.62 556.393 1454.62 546.613" fill="#008C95"/>
<path d="M1462.13 538.693C1459.97 538.693 1457.91 539.082 1456 539.786C1455.12 541.881 1454.63 544.192 1454.63 546.612C1454.63 556.4 1462.57 564.328 1472.35 564.328C1474.51 564.328 1476.57 563.94 1478.48 563.236C1479.36 561.141 1479.84 558.829 1479.84 556.409C1479.84 546.621 1471.91 538.693 1462.13 538.693Z" fill="#00313C"/>
<path d="M1435.38 581.289V521.359" stroke="#E6007E" stroke-width="0.451479" stroke-miterlimit="10"/>
<path d="M1436.98 520.24H1497.81" stroke="#E6007E" stroke-width="0.451479" stroke-miterlimit="10"/>
<path d="M1498.94 521.803V581.741" stroke="#E6007E" stroke-width="0.451479" stroke-miterlimit="10"/>
<path d="M1497.35 582.852H1436.52" stroke="#E6007E" stroke-width="0.451479" stroke-miterlimit="10"/>
<path d="M1435.39 520.899V520.23H1436.07M1436.07 582.851H1435.39V582.182L1436.07 582.851ZM1498.95 582.182V582.851H1498.27L1498.95 582.182ZM1498.27 520.23H1498.95V520.899L1498.27 520.23Z" stroke="#E6007E" stroke-width="0.451479" stroke-miterlimit="10"/>
<path d="M1508.4 520.158V582.778H1508.58L1571.49 520.267L1547.38 520.158H1508.4Z" fill="#00313C"/>
<path d="M1520.45 551.381C1520.45 562.388 1529.37 571.31 1540.38 571.31C1551.38 571.31 1560.31 562.388 1560.31 551.381C1560.31 540.374 1551.38 531.453 1540.38 531.453C1529.37 531.453 1520.45 540.374 1520.45 551.381Z" fill="#00313C"/>
<path d="M1540.38 531.453C1529.37 531.453 1520.45 540.374 1520.45 551.381C1520.45 556.889 1522.68 561.865 1526.28 565.477L1554.46 537.295C1550.86 533.692 1545.88 531.462 1540.37 531.462" fill="#77E2C3"/>
<path d="M1508.17 581.207V521.277" stroke="#E6007E" stroke-width="0.451479" stroke-miterlimit="10"/>
<path d="M1509.76 520.158H1570.59" stroke="#E6007E" stroke-width="0.451479" stroke-miterlimit="10"/>
<path d="M1571.73 521.721V581.659" stroke="#E6007E" stroke-width="0.451479" stroke-miterlimit="10"/>
<path d="M1570.14 582.777H1509.31" stroke="#E6007E" stroke-width="0.451479" stroke-miterlimit="10"/>
<path d="M1508.17 520.826V520.158H1508.85M1508.85 582.778H1508.17V582.11L1508.85 582.778ZM1571.73 582.11V582.778H1571.05L1571.73 582.11ZM1571.05 520.158H1571.73V520.826L1571.05 520.158Z" stroke="#E6007E" stroke-width="0.451479" stroke-miterlimit="10"/>
<path d="M1265.52 529.719C1264.33 529.024 1263.09 528.419 1261.8 527.922L1229.69 561.729C1230.25 562.993 1230.92 564.212 1231.67 565.359L1265.52 529.728V529.719Z" fill="#00313C"/>
<path d="M1228.24 557.521L1257.52 526.703C1255.96 526.405 1254.37 526.252 1252.73 526.252C1252.7 526.252 1252.68 526.252 1252.65 526.252L1227.53 552.564C1227.6 554.271 1227.85 555.923 1228.24 557.53" fill="#00313C"/>
<path d="M1276.05 541.829C1275.49 540.465 1274.8 539.165 1274.01 537.928L1240.31 573.414C1241.5 574.091 1242.74 574.669 1244.04 575.148L1276.05 541.829Z" fill="#00313C"/>
<path d="M1268.78 532.004L1234.12 568.492C1235.01 569.459 1235.97 570.362 1237 571.183L1271.61 534.749C1270.74 533.765 1269.79 532.853 1268.78 532.013" fill="#00313C"/>
<path d="M1259.83 575.672C1268.6 573.108 1275.39 565.911 1277.36 556.918L1259.83 575.672Z" fill="#00313C"/>
<path d="M1246.47 527.027C1237.21 529.393 1230 536.888 1228.04 546.315L1246.47 527.027Z" fill="#00313C"/>
<path d="M1253.47 576.654L1277.94 550.577C1277.89 549.06 1277.71 547.579 1277.4 546.152L1248.38 576.311C1249.8 576.555 1251.25 576.69 1252.74 576.69C1253.14 576.69 1253.54 576.681 1253.93 576.663H1253.47V576.654Z" fill="#00313C"/>
<path d="M1282.48 582.777H1222.54" stroke="#E6007E" stroke-width="0.451479" stroke-miterlimit="10"/>
<path d="M1221.43 581.207V521.277" stroke="#E6007E" stroke-width="0.451479" stroke-miterlimit="10"/>
<path d="M1223 520.158H1282.93" stroke="#E6007E" stroke-width="0.451479" stroke-miterlimit="10"/>
<path d="M1284.04 521.721V581.659" stroke="#E6007E" stroke-width="0.451479" stroke-miterlimit="10"/>
<path d="M1222.09 582.769H1221.43V582.1M1284.05 582.1V582.769H1283.38L1284.05 582.1ZM1283.38 520.148H1284.05V520.817L1283.38 520.148ZM1221.43 520.817V520.148H1222.09L1221.43 520.817Z" stroke="#E6007E" stroke-width="0.451479" stroke-miterlimit="10"/>
<path d="M1148.65 581.976V520.729" stroke="#77E2C3" stroke-width="0.225739" stroke-miterlimit="10"/>
<path d="M1149.44 520.158H1211.64" stroke="#77E2C3" stroke-width="0.225739" stroke-miterlimit="10"/>
<path d="M1212.2 520.953V582.21" stroke="#77E2C3" stroke-width="0.225739" stroke-miterlimit="10"/>
<path d="M1211.4 582.777H1149.21" stroke="#77E2C3" stroke-width="0.225739" stroke-miterlimit="10"/>
<path d="M1148.64 520.501V520.158H1148.98M1148.98 582.778H1148.64V582.435L1148.98 582.778ZM1212.2 582.435V582.778H1211.85L1212.2 582.435ZM1211.85 520.158H1212.2V520.501L1211.85 520.158Z" stroke="#77E2C3" stroke-width="0.225739" stroke-miterlimit="10"/>
<path d="M1148.99 578.443L1153.98 582.597H1171.63L1148.99 562.533V578.443Z" fill="#00313C"/>
<path d="M1148.99 546.235L1189.26 582.597H1206.91L1148.99 530.217V546.235Z" fill="#00313C"/>
<path d="M1155.71 520.104L1211.85 571.076V555.057L1173.35 520.104H1155.71Z" fill="#00313C"/>
<path d="M1190.99 520.104L1211.86 539.048V523.029L1208.63 520.104H1190.99Z" fill="#00313C"/>
<path d="M1148.74 581.207V521.449" stroke="#E6007E" stroke-width="0.451479" stroke-miterlimit="10"/>
<path d="M1150.33 520.33H1210.98" stroke="#E6007E" stroke-width="0.451479" stroke-miterlimit="10"/>
<path d="M1212.11 521.893V581.65" stroke="#E6007E" stroke-width="0.451479" stroke-miterlimit="10"/>
<path d="M1210.53 582.76H1149.87" stroke="#E6007E" stroke-width="0.451479" stroke-miterlimit="10"/>
<path d="M1148.74 520.998V520.33H1149.42M1149.42 582.761H1148.74V582.092L1149.42 582.761ZM1212.11 582.092V582.761H1211.43L1212.11 582.092ZM1211.43 520.33H1212.11V520.998L1211.43 520.33Z" stroke="#E6007E" stroke-width="0.451479" stroke-miterlimit="10"/>
<g filter="url(#filter0_d_432_2590)">
<path d="M275.254 58.3672H14.5605V427.253H275.254V58.3672Z" fill="white"/>
</g>
<path d="M58.082 58.1504V427.469" stroke="#999999" stroke-width="0.677218"/>
<path d="M101.605 58.1504V427.469" stroke="#999999" stroke-width="0.677218"/>
<path d="M144.695 58.1504V427.469" stroke="#999999" stroke-width="0.677218"/>
<path d="M188.217 58.1504V427.469" stroke="#999999" stroke-width="0.677218"/>
<path d="M231.74 58.1504V427.469" stroke="#999999" stroke-width="0.677218"/>
<path d="M275.479 98.9648H14.3438" stroke="#999999" stroke-width="0.677218"/>
<path d="M275.479 140.004H14.3438" stroke="#999999" stroke-width="0.677218"/>
<path d="M275.479 181.477H14.3438" stroke="#999999" stroke-width="0.677218"/>
<path d="M275.479 222.074H14.3438" stroke="#999999" stroke-width="0.677218"/>
<path d="M275.479 263.113H14.3438" stroke="#999999" stroke-width="0.677218"/>
<path d="M275.479 304.143H14.3438" stroke="#999999" stroke-width="0.677218"/>
<path d="M275.479 345.617H14.3438" stroke="#999999" stroke-width="0.677218"/>
<path d="M275.479 386.656H14.3438" stroke="#999999" stroke-width="0.677218"/>
<g filter="url(#filter1_d_432_2590)">
<path d="M546.359 58.3672H285.666V427.253H546.359V58.3672Z" fill="white"/>
</g>
<g filter="url(#filter2_d_432_2590)">
<path d="M817.461 58.3672H556.768V427.253H817.461V58.3672Z" fill="white"/>
</g>
<g filter="url(#filter3_d_432_2590)">
<path d="M1088.56 58.3672H827.871V427.253H1088.56V58.3672Z" fill="white"/>
</g>
<g filter="url(#filter4_d_432_2590)">
<path d="M1360.05 58.6914H1099.36V427.577H1360.05V58.6914Z" fill="white"/>
</g>
<g filter="url(#filter5_d_432_2590)">
<path d="M1630.77 58.3672H1370.08V427.253H1630.77V58.3672Z" fill="white"/>
</g>
<path d="M546.367 58.1504H287.037V304.297H546.367V58.1504Z" fill="#008C95"/>
<path d="M958.114 304.297H827.871V428.724H958.114V304.297Z" fill="#77E2C3"/>
<path d="M1500.55 304.297H1370.31V428.724H1500.55V304.297Z" fill="#77E2C3"/>
<path d="M1370.31 304.296V181.494L1500.54 304.296H1370.31Z" fill="#00313C"/>
<path d="M1098.98 304.297H1229.22V428.724L1098.98 304.297Z" fill="#77E2C3"/>
<path d="M1088.57 304.297H958.332V428.724H1088.57V304.297Z" fill="#008C95"/>
<path d="M1631 304.297H1500.76V428.724H1631V304.297Z" fill="#008C95"/>
<path d="M1359.68 304.297H1229.44V428.724H1359.68V304.297Z" fill="#00313C"/>
<path d="M1359.68 181.494H1229.44V304.296H1359.68V181.494Z" fill="#77E2C3"/>
<path d="M1359.68 181.494H1229.44V304.296H1359.68V181.494Z" fill="#77E2C3"/>
<path d="M1315.85 181.494L1359.68 220.348V187.761L1352.14 181.494H1315.85Z" fill="#00313C"/>
<path d="M1243.64 181.494L1359.68 286.436V253.695L1279.71 181.494H1243.64Z" fill="#00313C"/>
<path d="M1229.44 234.11L1306.76 304.297H1342.83L1229.44 201.359V234.11Z" fill="#00313C"/>
<path d="M1229.44 299.602L1234.61 304.297H1270.68L1229.44 266.852V299.602Z" fill="#00313C"/>
<path d="M1229.91 58.1504H1098.98V181.494H1229.91V58.1504Z" fill="#008C95"/>
<path d="M1164.44 111.182C1128.57 111.182 1099.48 140.266 1099.48 176.14C1099.48 212.015 1128.57 241.09 1164.44 241.09C1200.32 241.09 1229.4 212.006 1229.4 176.14C1229.4 140.275 1200.32 111.182 1164.44 111.182Z" fill="white"/>
<path d="M329.188 58.1504V427.469" stroke="#999999" stroke-width="0.677218"/>
<path d="M372.709 58.1504V427.469" stroke="#999999" stroke-width="0.677218"/>
<path d="M415.799 58.1504V427.469" stroke="#999999" stroke-width="0.677218"/>
<path d="M459.32 58.1504V427.469" stroke="#999999" stroke-width="0.677218"/>
<path d="M502.844 58.1504V427.469" stroke="#999999" stroke-width="0.677218"/>
<path d="M546.583 98.9648H285.447" stroke="#999999" stroke-width="0.677218"/>
<path d="M546.583 140.004H285.447" stroke="#999999" stroke-width="0.677218"/>
<path d="M546.583 181.477H285.447" stroke="#999999" stroke-width="0.677218"/>
<path d="M546.583 222.074H285.447" stroke="#999999" stroke-width="0.677218"/>
<path d="M546.583 263.113H285.447" stroke="#999999" stroke-width="0.677218"/>
<path d="M546.583 304.143H285.447" stroke="#999999" stroke-width="0.677218"/>
<path d="M546.583 345.617H285.447" stroke="#999999" stroke-width="0.677218"/>
<path d="M546.583 386.656H285.447" stroke="#999999" stroke-width="0.677218"/>
<path d="M1142.5 58.1504V427.469" stroke="#999999" stroke-width="0.677218"/>
<path d="M1186.02 58.1504V427.469" stroke="#999999" stroke-width="0.677218"/>
<path d="M1229.11 58.1504V427.469" stroke="#999999" stroke-width="0.677218"/>
<path d="M1272.63 58.1504V427.469" stroke="#999999" stroke-width="0.677218"/>
<path d="M1316.16 58.1504V427.469" stroke="#999999" stroke-width="0.677218"/>
<path d="M1359.9 98.9648H1098.76" stroke="#999999" stroke-width="0.677218"/>
<path d="M1359.9 140.004H1098.76" stroke="#999999" stroke-width="0.677218"/>
<path d="M1359.9 181.477H1098.76" stroke="#999999" stroke-width="0.677218"/>
<path d="M1359.9 222.074H1098.76" stroke="#999999" stroke-width="0.677218"/>
<path d="M1359.9 263.113H1098.76" stroke="#999999" stroke-width="0.677218"/>
<path d="M1359.9 304.143H1098.76" stroke="#999999" stroke-width="0.677218"/>
<path d="M1359.9 345.617H1098.76" stroke="#999999" stroke-width="0.677218"/>
<path d="M1359.9 386.656H1098.76" stroke="#999999" stroke-width="0.677218"/>
<path d="M958.568 282.988C1015.02 282.988 1060.78 237.226 1060.78 180.773C1060.78 124.321 1015.02 78.5586 958.568 78.5586C902.115 78.5586 856.354 124.321 856.354 180.773C856.354 237.226 902.115 282.988 958.568 282.988Z" fill="#00313C"/>
<path d="M1565.88 331.369C1546.47 331.369 1530.74 347.108 1530.74 366.512C1530.74 385.917 1546.47 401.655 1565.88 401.655C1585.29 401.655 1601.02 385.917 1601.02 366.512C1601.02 347.108 1585.29 331.369 1565.88 331.369Z" stroke="#00313C" stroke-width="16.2532" stroke-miterlimit="10"/>
<path d="M1413.6 58.1504V427.469" stroke="#999999" stroke-width="0.677218"/>
<path d="M1457.13 58.1504V427.469" stroke="#999999" stroke-width="0.677218"/>
<path d="M1500.21 58.1504V427.469" stroke="#999999" stroke-width="0.677218"/>
<path d="M1543.74 58.1504V427.469" stroke="#999999" stroke-width="0.677218"/>
<path d="M1587.26 58.1504V427.469" stroke="#999999" stroke-width="0.677218"/>
<path d="M1631 98.9648H1369.86" stroke="#999999" stroke-width="0.677218"/>
<path d="M1631 140.004H1369.86" stroke="#999999" stroke-width="0.677218"/>
<path d="M1631 181.477H1369.86" stroke="#999999" stroke-width="0.677218"/>
<path d="M1631 222.074H1369.86" stroke="#999999" stroke-width="0.677218"/>
<path d="M1631 263.113H1369.86" stroke="#999999" stroke-width="0.677218"/>
<path d="M1631 304.143H1369.86" stroke="#999999" stroke-width="0.677218"/>
<path d="M1631 345.617H1369.86" stroke="#999999" stroke-width="0.677218"/>
<path d="M1631 386.656H1369.86" stroke="#999999" stroke-width="0.677218"/>
<path d="M1023.45 331.367C1004.04 331.367 988.309 347.106 988.309 366.51C988.309 385.915 1004.04 401.653 1023.45 401.653C1042.87 401.653 1058.59 385.915 1058.59 366.51C1058.59 347.106 1042.87 331.367 1023.45 331.367Z" stroke="#00313C" stroke-width="16.2532" stroke-miterlimit="10"/>
<path d="M1023.45 377.347C1029.44 377.347 1034.29 372.498 1034.29 366.511C1034.29 360.525 1029.44 355.676 1023.45 355.676C1017.47 355.676 1012.62 360.525 1012.62 366.511C1012.62 372.498 1017.47 377.347 1023.45 377.347Z" fill="white"/>
<path d="M871.396 58.1504V427.469" stroke="#999999" stroke-width="0.677218"/>
<path d="M914.918 58.1504V427.469" stroke="#999999" stroke-width="0.677218"/>
<path d="M958.008 58.1504V427.469" stroke="#999999" stroke-width="0.677218"/>
<path d="M1001.53 58.1504V427.469" stroke="#999999" stroke-width="0.677218"/>
<path d="M1045.05 58.1504V427.469" stroke="#999999" stroke-width="0.677218"/>
<path d="M1088.79 98.9648H827.654" stroke="#999999" stroke-width="0.677218"/>
<path d="M1088.79 140.004H827.654" stroke="#999999" stroke-width="0.677218"/>
<path d="M1088.79 181.477H827.654" stroke="#999999" stroke-width="0.677218"/>
<path d="M1088.79 222.074H827.654" stroke="#999999" stroke-width="0.677218"/>
<path d="M1088.79 263.113H827.654" stroke="#999999" stroke-width="0.677218"/>
<path d="M1088.79 304.143H827.654" stroke="#999999" stroke-width="0.677218"/>
<path d="M1088.79 345.617H827.654" stroke="#999999" stroke-width="0.677218"/>
<path d="M1088.79 386.656H827.654" stroke="#999999" stroke-width="0.677218"/>
<path d="M817.686 59.0996L750.686 180.277L687.227 59.0996H817.686Z" fill="#00313C"/>
<path d="M817.469 304.18H687.227V427.253H817.469V304.18Z" fill="#77E2C3"/>
<path d="M776.106 325.29C773.903 323.999 771.591 322.87 769.18 321.949L709.504 384.786C710.551 387.143 711.797 389.4 713.206 391.531L776.115 325.299L776.106 325.29Z" fill="#00313C"/>
<path d="M706.822 376.966L761.235 319.673C758.354 319.122 755.383 318.824 752.34 318.824C752.295 318.824 752.241 318.824 752.196 318.824L705.504 367.737C705.639 370.907 706.091 373.986 706.822 376.966Z" fill="#00313C"/>
<path d="M795.683 347.802C794.635 345.264 793.371 342.844 791.908 340.551L729.252 406.521C731.464 407.776 733.785 408.851 736.196 409.744L795.683 347.802Z" fill="#00313C"/>
<path d="M782.175 329.533L717.758 397.363C719.41 399.169 721.198 400.84 723.112 402.366L787.448 334.626C785.832 332.793 784.071 331.095 782.184 329.533" fill="#00313C"/>
<path d="M765.523 410.718C781.822 405.95 794.436 392.578 798.129 375.846L765.523 410.718Z" fill="#00313C"/>
<path d="M740.701 320.277C723.481 324.675 710.073 338.616 706.434 356.125L740.701 320.277Z" fill="#00313C"/>
<path d="M753.712 412.543L799.194 364.063C799.095 361.246 798.752 358.501 798.183 355.828L744.24 411.902C746.877 412.362 749.586 412.597 752.349 412.597C753.089 412.597 753.83 412.579 754.57 412.543H753.721H753.712Z" fill="#00313C"/>
<path d="M817.469 181.107H687.227V304.181H817.469V181.107Z" fill="#77E2C3"/>
<path d="M600.291 58.1504V427.469" stroke="#999999" stroke-width="0.677218"/>
<path d="M643.812 58.1504V427.469" stroke="#999999" stroke-width="0.677218"/>
<path d="M686.902 58.1504V427.469" stroke="#999999" stroke-width="0.677218"/>
<path d="M730.426 58.1504V427.469" stroke="#999999" stroke-width="0.677218"/>
<path d="M773.949 58.1504V427.469" stroke="#999999" stroke-width="0.677218"/>
<path d="M817.688 98.9648H556.553" stroke="#999999" stroke-width="0.677218"/>
<path d="M817.688 140.004H556.553" stroke="#999999" stroke-width="0.677218"/>
<path d="M817.688 181.477H556.553" stroke="#999999" stroke-width="0.677218"/>
<path d="M817.688 222.074H556.553" stroke="#999999" stroke-width="0.677218"/>
<path d="M817.688 263.113H556.553" stroke="#999999" stroke-width="0.677218"/>
<path d="M817.688 304.143H556.553" stroke="#999999" stroke-width="0.677218"/>
<path d="M817.688 345.617H556.553" stroke="#999999" stroke-width="0.677218"/>
<path d="M817.688 386.656H556.553" stroke="#999999" stroke-width="0.677218"/>
<path d="M817.469 58.1504H687.227V181.224H817.469V58.1504Z" fill="#008C95"/>
<path d="M687.227 59.0996L750.686 180.277L817.469 59.4969V59.0996H687.227Z" fill="#00313C"/>
<path d="M275.822 57.6992H14V303.177H275.822V57.6992Z" fill="white"/>
<path d="M14 293.109L26.1087 303.177H100.124L14 226.832V293.109Z" fill="#F0F0F0"/>
<path d="M14 158.939L173.742 303.178H247.234L14 92.2559V158.939Z" fill="#F0F0F0"/>
<path d="M50.3184 57.6992L275.823 262.409V195.698L123.801 57.6992H50.3184Z" fill="#F0F0F0"/>
<path d="M197.273 57.6992L275.822 129.006V62.3043L270.747 57.6992H197.273Z" fill="#F0F0F0"/>
<path d="M274.361 58.6113H15.6992V303.412H274.361V58.6113Z" stroke="#E6007E" stroke-width="1.80592"/>
<path d="M32.3574 78.125L251.325 278.834" stroke="#E6007E" stroke-width="0.902958"/>
<path d="M29.875 75.8486L30.2904 81.0135L35.049 75.8125L29.875 75.8486Z" fill="#E6007E"/>
<path d="M253.807 281.12L253.391 275.955L248.633 281.156L253.807 281.12Z" fill="#E6007E"/>
<path d="M296.074 21.5121V31.7832H294.719V22.6266H289.654V31.7832H288.293V21.5121H296.074ZM302.331 27.7552H299.587V26.6476H302.331C302.862 26.6476 303.293 26.563 303.622 26.3937C303.951 26.2244 304.191 25.9892 304.341 25.6882C304.497 25.3873 304.574 25.0439 304.574 24.6583C304.574 24.3056 304.497 23.974 304.341 23.6636C304.191 23.3532 303.951 23.104 303.622 22.9159C303.293 22.7231 302.862 22.6266 302.331 22.6266H299.904V31.7832H298.543V21.5121H302.331C303.107 21.5121 303.763 21.6461 304.299 21.9142C304.835 22.1822 305.242 22.5537 305.52 23.0287C305.797 23.499 305.936 24.0375 305.936 24.6442C305.936 25.3026 305.797 25.8646 305.52 26.3302C305.242 26.7958 304.835 27.1508 304.299 27.3954C303.763 27.6352 303.107 27.7552 302.331 27.7552ZM309.075 29.427L314.133 21.5121H315.494V31.7832H314.133V23.8612L309.075 31.7832H307.72V21.5121H309.075V29.427ZM318.401 21.5121H319.72L323.085 29.8856L326.443 21.5121H327.769L323.593 31.7832H322.563L318.401 21.5121ZM317.97 21.5121H319.134L319.325 27.7763V31.7832H317.97V21.5121ZM327.028 21.5121H328.192V31.7832H326.838V27.7763L327.028 21.5121ZM337.109 30.6757V31.7832H331.67V30.6757H337.109ZM331.945 21.5121V31.7832H330.584V21.5121H331.945ZM336.389 25.9281V27.0356H331.67V25.9281H336.389ZM337.038 21.5121V22.6266H331.67V21.5121H337.038ZM342.583 27.7552H339.839V26.6476H342.583C343.115 26.6476 343.545 26.563 343.874 26.3937C344.203 26.2244 344.443 25.9892 344.594 25.6882C344.749 25.3873 344.826 25.0439 344.826 24.6583C344.826 24.3056 344.749 23.974 344.594 23.6636C344.443 23.3532 344.203 23.104 343.874 22.9159C343.545 22.7231 343.115 22.6266 342.583 22.6266H340.156V31.7832H338.795V21.5121H342.583C343.359 21.5121 344.015 21.6461 344.551 21.9142C345.087 22.1822 345.494 22.5537 345.772 23.0287C346.049 23.499 346.188 24.0375 346.188 24.6442C346.188 25.3026 346.049 25.8646 345.772 26.3302C345.494 26.7958 345.087 27.1508 344.551 27.3954C344.015 27.6352 343.359 27.7552 342.583 27.7552ZM355.443 21.4556V31.7832H354.138V23.0852L351.507 24.0446V22.8665L355.239 21.4556H355.443Z" fill="black"/>
<path d="M23.3804 21.5121V31.7832H22.0259V22.6266H16.9609V31.7832H15.5994V21.5121H23.3804ZM33.7573 26.3231V26.9721C33.7573 27.7434 33.6609 28.4347 33.4681 29.0461C33.2753 29.6575 32.9978 30.1772 32.6357 30.6051C32.2736 31.0331 31.8386 31.3599 31.3306 31.5857C30.8274 31.8114 30.2631 31.9243 29.6376 31.9243C29.0309 31.9243 28.4736 31.8114 27.9657 31.5857C27.4625 31.3599 27.0251 31.0331 26.6536 30.6051C26.2868 30.1772 26.0023 29.6575 25.8 29.0461C25.5978 28.4347 25.4967 27.7434 25.4967 26.9721V26.3231C25.4967 25.5519 25.5955 24.8629 25.793 24.2562C25.9952 23.6448 26.2797 23.1252 26.6466 22.6972C27.0134 22.2645 27.4484 21.9353 27.9516 21.7096C28.4595 21.4838 29.0168 21.371 29.6235 21.371C30.249 21.371 30.8133 21.4838 31.3165 21.7096C31.8245 21.9353 32.2595 22.2645 32.6216 22.6972C32.9884 23.1252 33.2682 23.6448 33.4611 24.2562C33.6586 24.8629 33.7573 25.5519 33.7573 26.3231ZM32.41 26.9721V26.309C32.41 25.6976 32.3465 25.1568 32.2195 24.6865C32.0972 24.2162 31.9162 23.8212 31.6763 23.5014C31.4365 23.1816 31.1425 22.9394 30.7945 22.7748C30.4512 22.6102 30.0609 22.5279 29.6235 22.5279C29.2002 22.5279 28.8169 22.6102 28.4736 22.7748C28.135 22.9394 27.8434 23.1816 27.5989 23.5014C27.359 23.8212 27.1733 24.2162 27.0416 24.6865C26.9099 25.1568 26.8441 25.6976 26.8441 26.309V26.9721C26.8441 27.5882 26.9099 28.1337 27.0416 28.6087C27.1733 29.079 27.3614 29.4764 27.6059 29.8009C27.8552 30.1207 28.1491 30.3629 28.4877 30.5275C28.8311 30.6921 29.2143 30.7744 29.6376 30.7744C30.0797 30.7744 30.4724 30.6921 30.8157 30.5275C31.159 30.3629 31.4482 30.1207 31.6834 29.8009C31.9232 29.4764 32.1043 29.079 32.2266 28.6087C32.3488 28.1337 32.41 27.5882 32.41 26.9721ZM41.9968 28.517H43.3513C43.2807 29.166 43.095 29.7468 42.794 30.2595C42.493 30.7721 42.0674 31.1789 41.5171 31.4799C40.9669 31.7761 40.2803 31.9243 39.4573 31.9243C38.8553 31.9243 38.3074 31.8114 37.8136 31.5857C37.3245 31.3599 36.9036 31.0401 36.5509 30.6263C36.1982 30.2077 35.9254 29.7069 35.7326 29.1237C35.5445 28.5358 35.4504 27.8821 35.4504 27.1626V26.1397C35.4504 25.4202 35.5445 24.7688 35.7326 24.1857C35.9254 23.5978 36.2005 23.0946 36.5579 22.676C36.9201 22.2575 37.3551 21.9353 37.863 21.7096C38.3709 21.4838 38.9423 21.371 39.5772 21.371C40.3532 21.371 41.0092 21.5168 41.5454 21.8083C42.0815 22.0999 42.4977 22.5044 42.794 23.0217C43.095 23.5343 43.2807 24.1292 43.3513 24.8064H41.9968C41.931 24.3267 41.8087 23.9152 41.63 23.5719C41.4513 23.2239 41.1973 22.9558 40.8681 22.7677C40.5389 22.5796 40.1086 22.4856 39.5772 22.4856C39.121 22.4856 38.7189 22.5726 38.3709 22.7466C38.0276 22.9206 37.7384 23.1675 37.5032 23.4873C37.2728 23.8071 37.0988 24.1904 36.9812 24.6371C36.8636 25.0839 36.8048 25.5801 36.8048 26.1256V27.1626C36.8048 27.6658 36.8566 28.1385 36.96 28.5805C37.0682 29.0226 37.2304 29.4106 37.4468 29.7445C37.6631 30.0784 37.9382 30.3418 38.2721 30.5346C38.606 30.7227 39.0011 30.8168 39.4573 30.8168C40.0357 30.8168 40.4966 30.725 40.8399 30.5416C41.1832 30.3582 41.4419 30.0949 41.6159 29.7515C41.7946 29.4082 41.9216 28.9967 41.9968 28.517ZM48.7902 21.5121V31.7832H47.4499V21.5121H48.7902ZM52.0916 21.5121V22.6266H44.1555V21.5121H52.0916ZM57.4036 27.7552H54.6594V26.6476H57.4036C57.935 26.6476 58.3653 26.563 58.6945 26.3937C59.0237 26.2244 59.2636 25.9892 59.414 25.6882C59.5692 25.3873 59.6468 25.0439 59.6468 24.6583C59.6468 24.3056 59.5692 23.974 59.414 23.6636C59.2636 23.3532 59.0237 23.104 58.6945 22.9159C58.3653 22.7231 57.935 22.6266 57.4036 22.6266H54.9769V31.7832H53.6154V21.5121H57.4036C58.1795 21.5121 58.8356 21.6461 59.3717 21.9142C59.9079 22.1822 60.3147 22.5537 60.5921 23.0287C60.8696 23.499 61.0083 24.0375 61.0083 24.6442C61.0083 25.3026 60.8696 25.8646 60.5921 26.3302C60.3147 26.7958 59.9079 27.1508 59.3717 27.3954C58.8356 27.6352 58.1795 27.7552 57.4036 27.7552ZM70.6375 26.3231V26.9721C70.6375 27.7434 70.5411 28.4347 70.3483 29.0461C70.1555 29.6575 69.878 30.1772 69.5159 30.6051C69.1538 31.0331 68.7188 31.3599 68.2108 31.5857C67.7076 31.8114 67.1433 31.9243 66.5178 31.9243C65.9111 31.9243 65.3538 31.8114 64.8459 31.5857C64.3427 31.3599 63.9053 31.0331 63.5338 30.6051C63.167 30.1772 62.8824 29.6575 62.6802 29.0461C62.478 28.4347 62.3769 27.7434 62.3769 26.9721V26.3231C62.3769 25.5519 62.4756 24.8629 62.6732 24.2562C62.8754 23.6448 63.1599 23.1252 63.5267 22.6972C63.8936 22.2645 64.3286 21.9353 64.8318 21.7096C65.3397 21.4838 65.897 21.371 66.5037 21.371C67.1292 21.371 67.6935 21.4838 68.1967 21.7096C68.7046 21.9353 69.1397 22.2645 69.5018 22.6972C69.8686 23.1252 70.1484 23.6448 70.3413 24.2562C70.5388 24.8629 70.6375 25.5519 70.6375 26.3231ZM69.2902 26.9721V26.309C69.2902 25.6976 69.2267 25.1568 69.0997 24.6865C68.9774 24.2162 68.7964 23.8212 68.5565 23.5014C68.3167 23.1816 68.0227 22.9394 67.6747 22.7748C67.3314 22.6102 66.9411 22.5279 66.5037 22.5279C66.0804 22.5279 65.6971 22.6102 65.3538 22.7748C65.0152 22.9394 64.7236 23.1816 64.4791 23.5014C64.2392 23.8212 64.0535 24.2162 63.9218 24.6865C63.7901 25.1568 63.7243 25.6976 63.7243 26.309V26.9721C63.7243 27.5882 63.7901 28.1337 63.9218 28.6087C64.0535 29.079 64.2416 29.4764 64.4861 29.8009C64.7354 30.1207 65.0293 30.3629 65.3679 30.5275C65.7112 30.6921 66.0945 30.7744 66.5178 30.7744C66.9599 30.7744 67.3526 30.6921 67.6959 30.5275C68.0392 30.3629 68.3284 30.1207 68.5636 29.8009C68.8034 29.4764 68.9845 29.079 69.1067 28.6087C69.229 28.1337 69.2902 27.5882 69.2902 26.9721ZM79.2015 30.6757V31.7832H73.7626V30.6757H79.2015ZM74.0377 21.5121V31.7832H72.6762V21.5121H74.0377ZM78.482 25.9281V27.0356H73.7626V25.9281H78.482ZM79.131 21.5121V22.6266H73.7626V21.5121H79.131ZM87.5962 25.9281V27.0356H82.0374V25.9281H87.5962ZM82.249 21.5121V31.7832H80.8875V21.5121H82.249ZM88.7814 21.5121V31.7832H87.4269V21.5121H88.7814ZM92.6189 29.427L97.6769 21.5121H99.0384V31.7832H97.6769V23.8612L92.6189 31.7832H91.2645V21.5121H92.6189V29.427ZM108.04 30.6757V31.7832H102.601V30.6757H108.04ZM102.876 21.5121V31.7832H101.514V21.5121H102.876ZM107.32 25.9281V27.0356H102.601V25.9281H107.32ZM107.969 21.5121V22.6266H102.601V21.5121H107.969ZM113.182 21.5121H114.544V24.7218C114.544 25.2532 114.621 25.6694 114.777 25.9704C114.932 26.2714 115.167 26.483 115.482 26.6053C115.797 26.7276 116.19 26.7887 116.66 26.7887C116.942 26.7887 117.215 26.777 117.478 26.7534C117.747 26.7299 118.008 26.697 118.262 26.6547C118.515 26.6124 118.765 26.5606 119.009 26.4995C119.259 26.4384 119.503 26.3725 119.743 26.302V27.4166C119.512 27.4871 119.282 27.5529 119.052 27.6141C118.826 27.6752 118.591 27.7269 118.346 27.7693C118.106 27.8116 117.848 27.8445 117.57 27.868C117.297 27.8915 116.994 27.9033 116.66 27.9033C115.936 27.9033 115.313 27.7998 114.791 27.5929C114.273 27.3813 113.876 27.0427 113.599 26.5771C113.321 26.1115 113.182 25.4931 113.182 24.7218V21.5121ZM119.397 21.5121H120.759V31.7832H119.397V21.5121ZM129.725 30.6757V31.7832H124.286V30.6757H129.725ZM124.561 21.5121V31.7832H123.2V21.5121H124.561ZM129.005 25.9281V27.0356H124.286V25.9281H129.005ZM129.654 21.5121V22.6266H124.286V21.5121H129.654ZM135.347 21.5121V31.7832H134.007V21.5121H135.347ZM138.649 21.5121V22.6266H130.712V21.5121H138.649ZM141.273 25.6953H144.073C144.826 25.6953 145.461 25.8223 145.978 26.0762C146.495 26.3255 146.888 26.6758 147.156 27.1273C147.424 27.5788 147.558 28.1079 147.558 28.7146C147.558 29.166 147.483 29.5799 147.333 29.9561C147.182 30.3277 146.959 30.6522 146.662 30.9296C146.366 31.2024 146.002 31.414 145.569 31.5645C145.136 31.7103 144.638 31.7832 144.073 31.7832H140.236V21.5121H141.597V30.6757H144.073C144.577 30.6757 144.983 30.584 145.294 30.4005C145.609 30.2124 145.839 29.9679 145.985 29.6669C146.131 29.3659 146.204 29.0438 146.204 28.7004C146.204 28.3571 146.131 28.042 145.985 27.7552C145.839 27.4683 145.609 27.2402 145.294 27.0709C144.983 26.8969 144.577 26.8099 144.073 26.8099H141.273V25.6953ZM150.161 21.5121V31.7832H148.8V21.5121H150.161ZM156.461 27.7552H153.717V26.6476H156.461C156.992 26.6476 157.423 26.563 157.752 26.3937C158.081 26.2244 158.321 25.9892 158.471 25.6882C158.627 25.3873 158.704 25.0439 158.704 24.6583C158.704 24.3056 158.627 23.974 158.471 23.6636C158.321 23.3532 158.081 23.104 157.752 22.9159C157.423 22.7231 156.992 22.6266 156.461 22.6266H154.034V31.7832H152.673V21.5121H156.461C157.237 21.5121 157.893 21.6461 158.429 21.9142C158.965 22.1822 159.372 22.5537 159.649 23.0287C159.927 23.499 160.066 24.0375 160.066 24.6442C160.066 25.3026 159.927 25.8646 159.649 26.3302C159.372 26.7958 158.965 27.1508 158.429 27.3954C157.893 27.6352 157.237 27.7552 156.461 27.7552ZM168.312 30.6757V31.7832H162.873V30.6757H168.312ZM163.148 21.5121V31.7832H161.787V21.5121H163.148ZM167.593 25.9281V27.0356H162.873V25.9281H167.593ZM168.242 21.5121V22.6266H162.873V21.5121H168.242ZM170.88 21.5121L173.349 25.4484L175.818 21.5121H177.405L174.16 26.5982L177.483 31.7832H175.882L173.349 27.7693L170.816 31.7832H169.215L172.538 26.5982L169.293 21.5121H170.88ZM182.238 28.3759L184.953 21.5121H186.519L182.887 30.069C182.783 30.3088 182.668 30.5416 182.541 30.7674C182.414 30.9884 182.259 31.1859 182.075 31.3599C181.892 31.5339 181.664 31.6727 181.391 31.7761C181.123 31.8796 180.789 31.9313 180.389 31.9313C180.276 31.9313 180.142 31.9243 179.987 31.9102C179.832 31.9008 179.731 31.889 179.684 31.8749L179.726 30.7885C179.778 30.7979 179.879 30.8074 180.029 30.8168C180.18 30.8215 180.29 30.8238 180.361 30.8238C180.629 30.8238 180.841 30.7697 180.996 30.6616C181.151 30.5534 181.276 30.417 181.37 30.2524C181.469 30.0831 181.558 29.9114 181.638 29.7374L182.238 28.3759ZM179.931 21.5121L182.788 27.9104L183.126 29.1731L181.984 29.2577L178.407 21.5121H179.931ZM194.512 21.5121V22.6266H189.56V31.7832H188.205V21.5121H194.512ZM203.612 26.3231V26.9721C203.612 27.7434 203.516 28.4347 203.323 29.0461C203.13 29.6575 202.853 30.1772 202.491 30.6051C202.128 31.0331 201.693 31.3599 201.186 31.5857C200.682 31.8114 200.118 31.9243 199.492 31.9243C198.886 31.9243 198.328 31.8114 197.821 31.5857C197.317 31.3599 196.88 31.0331 196.508 30.6051C196.142 30.1772 195.857 29.6575 195.655 29.0461C195.453 28.4347 195.352 27.7434 195.352 26.9721V26.3231C195.352 25.5519 195.45 24.8629 195.648 24.2562C195.85 23.6448 196.135 23.1252 196.501 22.6972C196.868 22.2645 197.303 21.9353 197.806 21.7096C198.314 21.4838 198.872 21.371 199.478 21.371C200.104 21.371 200.668 21.4838 201.171 21.7096C201.679 21.9353 202.114 22.2645 202.476 22.6972C202.843 23.1252 203.123 23.6448 203.316 24.2562C203.513 24.8629 203.612 25.5519 203.612 26.3231ZM202.265 26.9721V26.309C202.265 25.6976 202.201 25.1568 202.074 24.6865C201.952 24.2162 201.771 23.8212 201.531 23.5014C201.291 23.1816 200.997 22.9394 200.649 22.7748C200.306 22.6102 199.916 22.5279 199.478 22.5279C199.055 22.5279 198.672 22.6102 198.328 22.7748C197.99 22.9394 197.698 23.1816 197.454 23.5014C197.214 23.8212 197.028 24.2162 196.896 24.6865C196.765 25.1568 196.699 25.6976 196.699 26.309V26.9721C196.699 27.5882 196.765 28.1337 196.896 28.6087C197.028 29.079 197.216 29.4764 197.461 29.8009C197.71 30.1207 198.004 30.3629 198.343 30.5275C198.686 30.6921 199.069 30.7744 199.492 30.7744C199.935 30.7744 200.327 30.6921 200.671 30.5275C201.014 30.3629 201.303 30.1207 201.538 29.8009C201.778 29.4764 201.959 29.079 202.081 28.6087C202.204 28.1337 202.265 27.5882 202.265 26.9721ZM212.028 21.5121V22.6266H207.33V21.5121H212.028ZM213.199 21.5121V31.7832H211.838V21.5121H213.199ZM206.864 21.5121H208.219L207.986 26.5418C207.953 27.2661 207.897 27.9127 207.817 28.4818C207.741 29.0461 207.633 29.5376 207.492 29.9561C207.351 30.37 207.168 30.7133 206.942 30.9861C206.716 31.2541 206.439 31.454 206.109 31.5857C205.785 31.7174 205.395 31.7832 204.938 31.7832H204.572V30.6757L204.854 30.6545C205.117 30.6357 205.343 30.5769 205.531 30.4781C205.724 30.3747 205.886 30.2195 206.018 30.0126C206.154 29.8056 206.265 29.5376 206.349 29.2084C206.434 28.8792 206.5 28.4771 206.547 28.0021C206.599 27.5224 206.639 26.9627 206.667 26.3231L206.864 21.5121ZM216.649 25.6953H219.449C220.202 25.6953 220.837 25.8223 221.354 26.0762C221.871 26.3255 222.264 26.6758 222.532 27.1273C222.8 27.5788 222.934 28.1079 222.934 28.7146C222.934 29.166 222.859 29.5799 222.708 29.9561C222.558 30.3277 222.334 30.6522 222.038 30.9296C221.742 31.2024 221.377 31.414 220.945 31.5645C220.512 31.7103 220.014 31.7832 219.449 31.7832H215.612V21.5121H216.973V30.6757H219.449C219.952 30.6757 220.359 30.584 220.67 30.4005C220.985 30.2124 221.215 29.9679 221.361 29.6669C221.507 29.3659 221.58 29.0438 221.58 28.7004C221.58 28.3571 221.507 28.042 221.361 27.7552C221.215 27.4683 220.985 27.2402 220.67 27.0709C220.359 26.8969 219.952 26.8099 219.449 26.8099H216.649V25.6953ZM231.435 25.9281V27.0356H225.876V25.9281H231.435ZM226.087 21.5121V31.7832H224.726V21.5121H226.087ZM232.62 21.5121V31.7832H231.265V21.5121H232.62ZM236.457 29.427L241.515 21.5121H242.877V31.7832H241.515V23.8612L236.457 31.7832H235.103V21.5121H236.457V29.427ZM246.778 21.5121V31.7832H245.416V21.5121H246.778ZM253.106 21.5121L248.647 27.1626H246.235L246.023 26.0339H247.836L251.42 21.5121H253.106ZM251.737 31.7832L247.878 26.9862L248.64 25.7941L253.402 31.7832H251.737ZM258.439 22.4221L255.038 31.7832H253.649L257.564 21.5121H258.46L258.439 22.4221ZM261.289 31.7832L257.881 22.4221L257.86 21.5121H258.756L262.685 31.7832H261.289ZM261.112 27.9809V29.0955H255.342V27.9809H261.112Z" fill="black"/>
<path d="M568.767 21.5121V31.7832H567.413V22.6266H562.348V31.7832H560.986V21.5121H568.767ZM575.024 27.7552H572.28V26.6476H575.024C575.556 26.6476 575.986 26.563 576.315 26.3937C576.644 26.2244 576.884 25.9892 577.035 25.6882C577.19 25.3873 577.268 25.0439 577.268 24.6583C577.268 24.3056 577.19 23.974 577.035 23.6636C576.884 23.3532 576.644 23.104 576.315 22.9159C575.986 22.7231 575.556 22.6266 575.024 22.6266H572.598V31.7832H571.236V21.5121H575.024C575.8 21.5121 576.456 21.6461 576.992 21.9142C577.529 22.1822 577.935 22.5537 578.213 23.0287C578.49 23.499 578.629 24.0375 578.629 24.6442C578.629 25.3026 578.49 25.8646 578.213 26.3302C577.935 26.7958 577.529 27.1508 576.992 27.3954C576.456 27.6352 575.8 27.7552 575.024 27.7552ZM581.768 29.427L586.826 21.5121H588.188V31.7832H586.826V23.8612L581.768 31.7832H580.414V21.5121H581.768V29.427ZM591.094 21.5121H592.413L595.778 29.8856L599.136 21.5121H600.462L596.286 31.7832H595.256L591.094 21.5121ZM590.664 21.5121H591.828L592.018 27.7763V31.7832H590.664V21.5121ZM599.722 21.5121H600.886V31.7832H599.531V27.7763L599.722 21.5121ZM609.802 30.6757V31.7832H604.363V30.6757H609.802ZM604.639 21.5121V31.7832H603.277V21.5121H604.639ZM609.083 25.9281V27.0356H604.363V25.9281H609.083ZM609.732 21.5121V22.6266H604.363V21.5121H609.732ZM615.276 27.7552H612.532V26.6476H615.276C615.808 26.6476 616.238 26.563 616.567 26.3937C616.897 26.2244 617.136 25.9892 617.287 25.6882C617.442 25.3873 617.52 25.0439 617.52 24.6583C617.52 24.3056 617.442 23.974 617.287 23.6636C617.136 23.3532 616.897 23.104 616.567 22.9159C616.238 22.7231 615.808 22.6266 615.276 22.6266H612.85V31.7832H611.488V21.5121H615.276C616.052 21.5121 616.709 21.6461 617.245 21.9142C617.781 22.1822 618.188 22.5537 618.465 23.0287C618.743 23.499 618.881 24.0375 618.881 24.6442C618.881 25.3026 618.743 25.8646 618.465 26.3302C618.188 26.7958 617.781 27.1508 617.245 27.3954C616.709 27.6352 616.052 27.7552 615.276 27.7552ZM630.577 30.7109V31.7832H623.855V30.845L627.22 27.0991C627.633 26.6382 627.953 26.2479 628.179 25.9281C628.409 25.6036 628.569 25.3144 628.659 25.0604C628.753 24.8017 628.8 24.5384 628.8 24.2703C628.8 23.9317 628.729 23.626 628.588 23.3532C628.452 23.0758 628.249 22.8547 627.981 22.6901C627.713 22.5255 627.389 22.4432 627.008 22.4432C626.552 22.4432 626.171 22.5326 625.865 22.7113C625.564 22.8853 625.338 23.1299 625.188 23.445C625.037 23.76 624.962 24.1222 624.962 24.5313H623.657C623.657 23.9529 623.784 23.4238 624.038 22.9441C624.292 22.4644 624.668 22.0835 625.167 21.8013C625.665 21.5144 626.279 21.371 627.008 21.371C627.657 21.371 628.212 21.4862 628.673 21.7166C629.134 21.9424 629.486 22.2622 629.731 22.676C629.98 23.0852 630.105 23.5649 630.105 24.1151C630.105 24.4161 630.053 24.7218 629.95 25.0322C629.851 25.3379 629.712 25.6436 629.533 25.9492C629.359 26.2549 629.155 26.5559 628.92 26.8522C628.689 27.1485 628.442 27.4401 628.179 27.7269L625.428 30.7109H630.577Z" fill="black"/>
<path d="M841.46 21.5121V31.7832H840.106V22.6266H835.041V31.7832H833.68V21.5121H841.46ZM847.718 27.7552H844.974V26.6476H847.718C848.249 26.6476 848.679 26.563 849.009 26.3937C849.338 26.2244 849.578 25.9892 849.728 25.6882C849.883 25.3873 849.961 25.0439 849.961 24.6583C849.961 24.3056 849.883 23.974 849.728 23.6636C849.578 23.3532 849.338 23.104 849.009 22.9159C848.679 22.7231 848.249 22.6266 847.718 22.6266H845.291V31.7832H843.929V21.5121H847.718C848.494 21.5121 849.15 21.6461 849.686 21.9142C850.222 22.1822 850.629 22.5537 850.906 23.0287C851.184 23.499 851.322 24.0375 851.322 24.6442C851.322 25.3026 851.184 25.8646 850.906 26.3302C850.629 26.7958 850.222 27.1508 849.686 27.3954C849.15 27.6352 848.494 27.7552 847.718 27.7552ZM854.462 29.427L859.52 21.5121H860.881V31.7832H859.52V23.8612L854.462 31.7832H853.107V21.5121H854.462V29.427ZM863.788 21.5121H865.107L868.472 29.8856L871.829 21.5121H873.156L868.98 31.7832H867.95L863.788 21.5121ZM863.357 21.5121H864.521L864.712 27.7763V31.7832H863.357V21.5121ZM872.415 21.5121H873.579V31.7832H872.225V27.7763L872.415 21.5121ZM882.496 30.6757V31.7832H877.057V30.6757H882.496ZM877.332 21.5121V31.7832H875.97V21.5121H877.332ZM881.776 25.9281V27.0356H877.057V25.9281H881.776ZM882.425 21.5121V22.6266H877.057V21.5121H882.425ZM887.97 27.7552H885.226V26.6476H887.97C888.501 26.6476 888.932 26.563 889.261 26.3937C889.59 26.2244 889.83 25.9892 889.98 25.6882C890.136 25.3873 890.213 25.0439 890.213 24.6583C890.213 24.3056 890.136 23.974 889.98 23.6636C889.83 23.3532 889.59 23.104 889.261 22.9159C888.932 22.7231 888.501 22.6266 887.97 22.6266H885.543V31.7832H884.182V21.5121H887.97C888.746 21.5121 889.402 21.6461 889.938 21.9142C890.474 22.1822 890.881 22.5537 891.158 23.0287C891.436 23.499 891.575 24.0375 891.575 24.6442C891.575 25.3026 891.436 25.8646 891.158 26.3302C890.881 26.7958 890.474 27.1508 889.938 27.3954C889.402 27.6352 888.746 27.7552 887.97 27.7552ZM898.446 26.0057H899.377C899.833 26.0057 900.209 25.9304 900.505 25.7799C900.806 25.6247 901.03 25.4155 901.176 25.1521C901.326 24.884 901.401 24.5831 901.401 24.2491C901.401 23.8541 901.336 23.5225 901.204 23.2545C901.072 22.9864 900.875 22.7842 900.611 22.6478C900.348 22.5114 900.014 22.4432 899.61 22.4432C899.243 22.4432 898.918 22.5161 898.636 22.6619C898.359 22.803 898.14 23.0052 897.98 23.2686C897.825 23.532 897.747 23.8423 897.747 24.1998H896.442C896.442 23.6777 896.574 23.2028 896.837 22.7748C897.101 22.3468 897.47 22.0059 897.945 21.7519C898.424 21.4979 898.979 21.371 899.61 21.371C900.23 21.371 900.774 21.4815 901.239 21.7025C901.705 21.9189 902.067 22.2434 902.325 22.676C902.584 23.104 902.713 23.6378 902.713 24.2774C902.713 24.536 902.652 24.8135 902.53 25.1098C902.412 25.4014 902.227 25.6741 901.973 25.9281C901.724 26.182 901.399 26.3913 900.999 26.5559C900.6 26.7158 900.12 26.7958 899.56 26.7958H898.446V26.0057ZM898.446 27.0779V26.2949H899.56C900.214 26.2949 900.755 26.3725 901.183 26.5277C901.611 26.6829 901.947 26.8898 902.191 27.1485C902.441 27.4071 902.615 27.6917 902.713 28.0021C902.817 28.3078 902.869 28.6134 902.869 28.9191C902.869 29.3988 902.786 29.8244 902.622 30.196C902.462 30.5675 902.234 30.8826 901.937 31.1413C901.646 31.3999 901.303 31.5951 900.908 31.7268C900.513 31.8584 900.082 31.9243 899.617 31.9243C899.17 31.9243 898.749 31.8608 898.354 31.7338C897.964 31.6068 897.618 31.4234 897.317 31.1836C897.016 30.939 896.781 30.6404 896.611 30.2877C896.442 29.9303 896.357 29.5235 896.357 29.0673H897.663C897.663 29.4247 897.74 29.7374 897.895 30.0055C898.055 30.2736 898.281 30.4828 898.573 30.6333C898.869 30.7791 899.217 30.852 899.617 30.852C900.016 30.852 900.36 30.7838 900.647 30.6475C900.938 30.5064 901.162 30.2947 901.317 30.0126C901.477 29.7304 901.557 29.3753 901.557 28.9474C901.557 28.5194 901.467 28.169 901.288 27.8963C901.11 27.6188 900.856 27.4142 900.527 27.2825C900.202 27.1461 899.819 27.0779 899.377 27.0779H898.446Z" fill="black"/>
<path d="M1114.15 21.5121V31.7832H1112.8V22.6266H1107.73V31.7832H1106.37V21.5121H1114.15ZM1120.41 27.7552H1117.67V26.6476H1120.41C1120.94 26.6476 1121.37 26.563 1121.7 26.3937C1122.03 26.2244 1122.27 25.9892 1122.42 25.6882C1122.58 25.3873 1122.65 25.0439 1122.65 24.6583C1122.65 24.3056 1122.58 23.974 1122.42 23.6636C1122.27 23.3532 1122.03 23.104 1121.7 22.9159C1121.37 22.7231 1120.94 22.6266 1120.41 22.6266H1117.98V31.7832H1116.62V21.5121H1120.41C1121.19 21.5121 1121.84 21.6461 1122.38 21.9142C1122.92 22.1822 1123.32 22.5537 1123.6 23.0287C1123.88 23.499 1124.02 24.0375 1124.02 24.6442C1124.02 25.3026 1123.88 25.8646 1123.6 26.3302C1123.32 26.7958 1122.92 27.1508 1122.38 27.3954C1121.84 27.6352 1121.19 27.7552 1120.41 27.7552ZM1127.16 29.427L1132.21 21.5121H1133.57V31.7832H1132.21V23.8612L1127.16 31.7832H1125.8V21.5121H1127.16V29.427ZM1136.48 21.5121H1137.8L1141.16 29.8856L1144.52 21.5121H1145.85L1141.67 31.7832H1140.64L1136.48 21.5121ZM1136.05 21.5121H1137.21L1137.4 27.7763V31.7832H1136.05V21.5121ZM1145.11 21.5121H1146.27V31.7832H1144.92V27.7763L1145.11 21.5121ZM1155.19 30.6757V31.7832H1149.75V30.6757H1155.19ZM1150.03 21.5121V31.7832H1148.66V21.5121H1150.03ZM1154.47 25.9281V27.0356H1149.75V25.9281H1154.47ZM1155.12 21.5121V22.6266H1149.75V21.5121H1155.12ZM1160.66 27.7552H1157.92V26.6476H1160.66C1161.19 26.6476 1161.62 26.563 1161.95 26.3937C1162.28 26.2244 1162.52 25.9892 1162.67 25.6882C1162.83 25.3873 1162.91 25.0439 1162.91 24.6583C1162.91 24.3056 1162.83 23.974 1162.67 23.6636C1162.52 23.3532 1162.28 23.104 1161.95 22.9159C1161.62 22.7231 1161.19 22.6266 1160.66 22.6266H1158.24V31.7832H1156.88V21.5121H1160.66C1161.44 21.5121 1162.1 21.6461 1162.63 21.9142C1163.17 22.1822 1163.57 22.5537 1163.85 23.0287C1164.13 23.499 1164.27 24.0375 1164.27 24.6442C1164.27 25.3026 1164.13 25.8646 1163.85 26.3302C1163.57 26.7958 1163.17 27.1508 1162.63 27.3954C1162.1 27.6352 1161.44 27.7552 1160.66 27.7552ZM1176.18 28.3266V29.3988H1168.75V28.6299L1173.35 21.5121H1174.42L1173.28 23.5719L1170.24 28.3266H1176.18ZM1174.74 21.5121V31.7832H1173.44V21.5121H1174.74Z" fill="black"/>
<path d="M1386.85 21.5121V31.7832H1385.49V22.6266H1380.43V31.7832H1379.07V21.5121H1386.85ZM1393.1 27.7552H1390.36V26.6476H1393.1C1393.64 26.6476 1394.07 26.563 1394.4 26.3937C1394.72 26.2244 1394.96 25.9892 1395.11 25.6882C1395.27 25.3873 1395.35 25.0439 1395.35 24.6583C1395.35 24.3056 1395.27 23.974 1395.11 23.6636C1394.96 23.3532 1394.72 23.104 1394.4 22.9159C1394.07 22.7231 1393.64 22.6266 1393.1 22.6266H1390.68V31.7832H1389.32V21.5121H1393.1C1393.88 21.5121 1394.54 21.6461 1395.07 21.9142C1395.61 22.1822 1396.02 22.5537 1396.29 23.0287C1396.57 23.499 1396.71 24.0375 1396.71 24.6442C1396.71 25.3026 1396.57 25.8646 1396.29 26.3302C1396.02 26.7958 1395.61 27.1508 1395.07 27.3954C1394.54 27.6352 1393.88 27.7552 1393.1 27.7552ZM1399.85 29.427L1404.91 21.5121H1406.27V31.7832H1404.91V23.8612L1399.85 31.7832H1398.49V21.5121H1399.85V29.427ZM1409.17 21.5121H1410.49L1413.86 29.8856L1417.22 21.5121H1418.54L1414.37 31.7832H1413.34L1409.17 21.5121ZM1408.74 21.5121H1409.91L1410.1 27.7763V31.7832H1408.74V21.5121ZM1417.8 21.5121H1418.97V31.7832H1417.61V27.7763L1417.8 21.5121ZM1427.88 30.6757V31.7832H1422.44V30.6757H1427.88ZM1422.72 21.5121V31.7832H1421.36V21.5121H1422.72ZM1427.16 25.9281V27.0356H1422.44V25.9281H1427.16ZM1427.81 21.5121V22.6266H1422.44V21.5121H1427.81ZM1433.36 27.7552H1430.61V26.6476H1433.36C1433.89 26.6476 1434.32 26.563 1434.65 26.3937C1434.98 26.2244 1435.22 25.9892 1435.37 25.6882C1435.52 25.3873 1435.6 25.0439 1435.6 24.6583C1435.6 24.3056 1435.52 23.974 1435.37 23.6636C1435.22 23.3532 1434.98 23.104 1434.65 22.9159C1434.32 22.7231 1433.89 22.6266 1433.36 22.6266H1430.93V31.7832H1429.57V21.5121H1433.36C1434.13 21.5121 1434.79 21.6461 1435.32 21.9142C1435.86 22.1822 1436.27 22.5537 1436.55 23.0287C1436.82 23.499 1436.96 24.0375 1436.96 24.6442C1436.96 25.3026 1436.82 25.8646 1436.55 26.3302C1436.27 26.7958 1435.86 27.1508 1435.32 27.3954C1434.79 27.6352 1434.13 27.7552 1433.36 27.7552ZM1443.58 26.8945L1442.53 26.6265L1443.05 21.5121H1448.32V22.7184H1444.16L1443.85 25.5119C1444.03 25.4037 1444.27 25.3026 1444.56 25.2085C1444.85 25.1145 1445.18 25.0675 1445.56 25.0675C1446.04 25.0675 1446.46 25.1498 1446.84 25.3144C1447.21 25.4743 1447.53 25.7047 1447.8 26.0057C1448.06 26.3067 1448.27 26.6688 1448.41 27.0921C1448.55 27.5153 1448.62 27.988 1448.62 28.51C1448.62 29.0038 1448.55 29.4576 1448.42 29.8715C1448.29 30.2853 1448.09 30.6475 1447.82 30.9578C1447.55 31.2635 1447.21 31.501 1446.8 31.6703C1446.4 31.8396 1445.92 31.9243 1445.37 31.9243C1444.96 31.9243 1444.56 31.8679 1444.19 31.755C1443.83 31.6374 1443.5 31.4611 1443.2 31.2259C1442.92 30.9861 1442.68 30.6898 1442.5 30.3371C1442.32 29.9796 1442.21 29.5611 1442.16 29.0814H1443.4C1443.46 29.467 1443.57 29.7915 1443.74 30.0549C1443.91 30.3182 1444.13 30.5181 1444.4 30.6545C1444.68 30.7862 1445 30.852 1445.37 30.852C1445.68 30.852 1445.96 30.7979 1446.2 30.6898C1446.44 30.5816 1446.64 30.4264 1446.8 30.2242C1446.97 30.022 1447.09 29.7774 1447.18 29.4905C1447.27 29.2037 1447.31 28.8815 1447.31 28.5241C1447.31 28.1996 1447.27 27.8986 1447.18 27.6211C1447.09 27.3437 1446.95 27.1015 1446.77 26.8945C1446.6 26.6876 1446.39 26.5277 1446.13 26.4148C1445.88 26.2973 1445.59 26.2385 1445.26 26.2385C1444.82 26.2385 1444.49 26.2973 1444.26 26.4148C1444.04 26.5324 1443.81 26.6923 1443.58 26.8945Z" fill="black"/>
<path d="M1214.71 486.354V496.625H1213.35V487.468H1208.29V496.625H1206.93V486.354H1214.71ZM1220.96 492.597H1218.22V491.489H1220.96C1221.5 491.489 1221.93 491.405 1222.25 491.235C1222.58 491.066 1222.82 490.831 1222.97 490.53C1223.13 490.229 1223.21 489.886 1223.21 489.5C1223.21 489.147 1223.13 488.816 1222.97 488.505C1222.82 488.195 1222.58 487.946 1222.25 487.758C1221.93 487.565 1221.5 487.468 1220.96 487.468H1218.54V496.625H1217.18V486.354H1220.96C1221.74 486.354 1222.4 486.488 1222.93 486.756C1223.47 487.024 1223.87 487.396 1224.15 487.871C1224.43 488.341 1224.57 488.879 1224.57 489.486C1224.57 490.144 1224.43 490.706 1224.15 491.172C1223.87 491.638 1223.47 491.993 1222.93 492.237C1222.4 492.477 1221.74 492.597 1220.96 492.597ZM1227.71 494.269L1232.77 486.354H1234.13V496.625H1232.77V488.703L1227.71 496.625H1226.35V486.354H1227.71V494.269ZM1237.03 486.354H1238.35L1241.72 494.727L1245.08 486.354H1246.4L1242.23 496.625H1241.2L1237.03 486.354ZM1236.6 486.354H1237.77L1237.96 492.618V496.625H1236.6V486.354ZM1245.66 486.354H1246.83V496.625H1245.47V492.618L1245.66 486.354ZM1255.74 495.517V496.625H1250.3V495.517H1255.74ZM1250.58 486.354V496.625H1249.22V486.354H1250.58ZM1255.02 490.77V491.877H1250.3V490.77H1255.02ZM1255.67 486.354V487.468H1250.3V486.354H1255.67ZM1261.22 492.597H1258.47V491.489H1261.22C1261.75 491.489 1262.18 491.405 1262.51 491.235C1262.84 491.066 1263.08 490.831 1263.23 490.53C1263.38 490.229 1263.46 489.886 1263.46 489.5C1263.46 489.147 1263.38 488.816 1263.23 488.505C1263.08 488.195 1262.84 487.946 1262.51 487.758C1262.18 487.565 1261.75 487.468 1261.22 487.468H1258.79V496.625H1257.43V486.354H1261.22C1261.99 486.354 1262.65 486.488 1263.18 486.756C1263.72 487.024 1264.13 487.396 1264.4 487.871C1264.68 488.341 1264.82 488.879 1264.82 489.486C1264.82 490.144 1264.68 490.706 1264.4 491.172C1264.13 491.638 1263.72 491.993 1263.18 492.237C1262.65 492.477 1261.99 492.597 1261.22 492.597ZM1267.64 490.537H1270.44C1271.2 490.537 1271.83 490.664 1272.35 490.918C1272.87 491.167 1273.26 491.518 1273.53 491.969C1273.79 492.421 1273.93 492.95 1273.93 493.556C1273.93 494.008 1273.85 494.422 1273.7 494.798C1273.55 495.169 1273.33 495.494 1273.03 495.771C1272.74 496.044 1272.37 496.256 1271.94 496.406C1271.51 496.552 1271.01 496.625 1270.44 496.625H1266.61V486.354H1267.97V495.517H1270.44C1270.95 495.517 1271.35 495.426 1271.66 495.242C1271.98 495.054 1272.21 494.81 1272.35 494.509C1272.5 494.208 1272.57 493.886 1272.57 493.542C1272.57 493.199 1272.5 492.884 1272.35 492.597C1272.21 492.31 1271.98 492.082 1271.66 491.913C1271.35 491.739 1270.95 491.652 1270.44 491.652H1267.64V490.537ZM1276.53 486.354V496.625H1275.17V486.354H1276.53ZM1288.83 493.359H1290.18C1290.11 494.008 1289.92 494.589 1289.62 495.101C1289.32 495.614 1288.9 496.021 1288.35 496.322C1287.8 496.618 1287.11 496.766 1286.29 496.766C1285.69 496.766 1285.14 496.653 1284.64 496.427C1284.15 496.202 1283.73 495.882 1283.38 495.468C1283.03 495.05 1282.76 494.549 1282.56 493.966C1282.37 493.378 1282.28 492.724 1282.28 492.004V490.982C1282.28 490.262 1282.37 489.611 1282.56 489.027C1282.76 488.44 1283.03 487.936 1283.39 487.518C1283.75 487.099 1284.18 486.777 1284.69 486.551C1285.2 486.326 1285.77 486.213 1286.41 486.213C1287.18 486.213 1287.84 486.359 1288.38 486.65C1288.91 486.942 1289.33 487.346 1289.62 487.863C1289.92 488.376 1290.11 488.971 1290.18 489.648H1288.83C1288.76 489.169 1288.64 488.757 1288.46 488.414C1288.28 488.066 1288.03 487.798 1287.7 487.61C1287.37 487.421 1286.94 487.327 1286.41 487.327C1285.95 487.327 1285.55 487.414 1285.2 487.588C1284.86 487.762 1284.57 488.009 1284.33 488.329C1284.1 488.649 1283.93 489.032 1283.81 489.479C1283.69 489.926 1283.63 490.422 1283.63 490.967V492.004C1283.63 492.508 1283.69 492.98 1283.79 493.422C1283.9 493.864 1284.06 494.252 1284.28 494.586C1284.49 494.92 1284.77 495.184 1285.1 495.376C1285.44 495.564 1285.83 495.659 1286.29 495.659C1286.87 495.659 1287.33 495.567 1287.67 495.383C1288.01 495.2 1288.27 494.937 1288.45 494.593C1288.62 494.25 1288.75 493.839 1288.83 493.359ZM1298.64 486.354V487.468H1293.94V486.354H1298.64ZM1299.81 486.354V496.625H1298.45V486.354H1299.81ZM1293.48 486.354H1294.83L1294.6 491.384C1294.56 492.108 1294.51 492.755 1294.43 493.324C1294.35 493.888 1294.24 494.379 1294.1 494.798C1293.96 495.212 1293.78 495.555 1293.55 495.828C1293.33 496.096 1293.05 496.296 1292.72 496.427C1292.4 496.559 1292.01 496.625 1291.55 496.625H1291.18V495.517L1291.47 495.496C1291.73 495.477 1291.95 495.419 1292.14 495.32C1292.34 495.216 1292.5 495.061 1292.63 494.854C1292.77 494.647 1292.88 494.379 1292.96 494.05C1293.05 493.721 1293.11 493.319 1293.16 492.844C1293.21 492.364 1293.25 491.805 1293.28 491.165L1293.48 486.354ZM1310.17 491.165V491.814C1310.17 492.585 1310.08 493.277 1309.88 493.888C1309.69 494.499 1309.41 495.019 1309.05 495.447C1308.69 495.875 1308.25 496.202 1307.75 496.427C1307.24 496.653 1306.68 496.766 1306.05 496.766C1305.45 496.766 1304.89 496.653 1304.38 496.427C1303.88 496.202 1303.44 495.875 1303.07 495.447C1302.7 495.019 1302.42 494.499 1302.22 493.888C1302.01 493.277 1301.91 492.585 1301.91 491.814V491.165C1301.91 490.394 1302.01 489.705 1302.21 489.098C1302.41 488.487 1302.7 487.967 1303.06 487.539C1303.43 487.106 1303.86 486.777 1304.37 486.551C1304.88 486.326 1305.43 486.213 1306.04 486.213C1306.66 486.213 1307.23 486.326 1307.73 486.551C1308.24 486.777 1308.68 487.106 1309.04 487.539C1309.4 487.967 1309.68 488.487 1309.88 489.098C1310.07 489.705 1310.17 490.394 1310.17 491.165ZM1308.83 491.814V491.151C1308.83 490.539 1308.76 489.999 1308.64 489.528C1308.51 489.058 1308.33 488.663 1308.09 488.343C1307.85 488.023 1307.56 487.781 1307.21 487.617C1306.87 487.452 1306.48 487.37 1306.04 487.37C1305.62 487.37 1305.23 487.452 1304.89 487.617C1304.55 487.781 1304.26 488.023 1304.01 488.343C1303.77 488.663 1303.59 489.058 1303.46 489.528C1303.33 489.999 1303.26 490.539 1303.26 491.151V491.814C1303.26 492.43 1303.33 492.976 1303.46 493.451C1303.59 493.921 1303.78 494.318 1304.02 494.643C1304.27 494.963 1304.56 495.205 1304.9 495.369C1305.25 495.534 1305.63 495.616 1306.05 495.616C1306.5 495.616 1306.89 495.534 1307.23 495.369C1307.57 495.205 1307.86 494.963 1308.1 494.643C1308.34 494.318 1308.52 493.921 1308.64 493.451C1308.76 492.976 1308.83 492.43 1308.83 491.814ZM1315 491.934L1311.33 486.354H1312.92L1315.65 490.805H1317.59L1317.37 491.934H1315ZM1315.73 491.828L1312.75 496.625H1311.05L1314.87 490.657L1315.73 491.828ZM1318.17 486.354V496.625H1316.83V486.354H1318.17ZM1323.62 486.354L1319.94 491.934H1317.64L1317.43 490.805H1319.29L1322.02 486.354H1323.62ZM1322.19 496.625L1319.22 491.828L1320.08 490.657L1323.89 496.625H1322.19ZM1331.89 490.77V491.877H1326.33V490.77H1331.89ZM1326.54 486.354V496.625H1325.18V486.354H1326.54ZM1333.07 486.354V496.625H1331.72V486.354H1333.07ZM1336.59 490.537H1339.39C1340.14 490.537 1340.78 490.664 1341.3 490.918C1341.81 491.167 1342.21 491.518 1342.48 491.969C1342.74 492.421 1342.88 492.95 1342.88 493.556C1342.88 494.008 1342.8 494.422 1342.65 494.798C1342.5 495.169 1342.28 495.494 1341.98 495.771C1341.69 496.044 1341.32 496.256 1340.89 496.406C1340.46 496.552 1339.96 496.625 1339.39 496.625H1335.55V486.354H1336.92V495.517H1339.39C1339.9 495.517 1340.3 495.426 1340.61 495.242C1340.93 495.054 1341.16 494.81 1341.3 494.509C1341.45 494.208 1341.52 493.886 1341.52 493.542C1341.52 493.199 1341.45 492.884 1341.3 492.597C1341.16 492.31 1340.93 492.082 1340.61 491.913C1340.3 491.739 1339.9 491.652 1339.39 491.652H1336.59V490.537ZM1345.48 486.354V496.625H1344.12V486.354H1345.48ZM1349 486.354L1351.47 490.29L1353.94 486.354H1355.53L1352.28 491.44L1355.6 496.625H1354L1351.47 492.611L1348.94 496.625H1347.34L1350.66 491.44L1347.41 486.354H1349ZM1361.19 486.354H1362.51L1365.87 494.727L1369.23 486.354H1370.56L1366.38 496.625H1365.35L1361.19 486.354ZM1360.76 486.354H1361.92L1362.11 492.618V496.625H1360.76V486.354ZM1369.82 486.354H1370.98V496.625H1369.63V492.618L1369.82 486.354ZM1381.28 491.165V491.814C1381.28 492.585 1381.18 493.277 1380.99 493.888C1380.8 494.499 1380.52 495.019 1380.16 495.447C1379.8 495.875 1379.36 496.202 1378.85 496.427C1378.35 496.653 1377.79 496.766 1377.16 496.766C1376.55 496.766 1376 496.653 1375.49 496.427C1374.99 496.202 1374.55 495.875 1374.18 495.447C1373.81 495.019 1373.53 494.499 1373.32 493.888C1373.12 493.277 1373.02 492.585 1373.02 491.814V491.165C1373.02 490.394 1373.12 489.705 1373.32 489.098C1373.52 488.487 1373.8 487.967 1374.17 487.539C1374.54 487.106 1374.97 486.777 1375.48 486.551C1375.98 486.326 1376.54 486.213 1377.15 486.213C1377.77 486.213 1378.34 486.326 1378.84 486.551C1379.35 486.777 1379.78 487.106 1380.15 487.539C1380.51 487.967 1380.79 488.487 1380.98 489.098C1381.18 489.705 1381.28 490.394 1381.28 491.165ZM1379.93 491.814V491.151C1379.93 490.539 1379.87 489.999 1379.74 489.528C1379.62 489.058 1379.44 488.663 1379.2 488.343C1378.96 488.023 1378.67 487.781 1378.32 487.617C1377.97 487.452 1377.58 487.37 1377.15 487.37C1376.72 487.37 1376.34 487.452 1376 487.617C1375.66 487.781 1375.37 488.023 1375.12 488.343C1374.88 488.663 1374.7 489.058 1374.57 489.528C1374.43 489.999 1374.37 490.539 1374.37 491.151V491.814C1374.37 492.43 1374.43 492.976 1374.57 493.451C1374.7 493.921 1374.89 494.318 1375.13 494.643C1375.38 494.963 1375.67 495.205 1376.01 495.369C1376.35 495.534 1376.74 495.616 1377.16 495.616C1377.6 495.616 1378 495.534 1378.34 495.369C1378.68 495.205 1378.97 494.963 1379.21 494.643C1379.45 494.318 1379.63 493.921 1379.75 493.451C1379.87 492.976 1379.93 492.43 1379.93 491.814ZM1391.16 495.517V496.625H1383.38V495.517H1391.16ZM1383.6 495.517V499.15H1382.25L1382.25 495.517H1383.6ZM1392.34 495.517L1392.33 499.143H1390.98V495.517H1392.34ZM1389.82 486.354V487.468H1385.32V486.354H1389.82ZM1390.99 486.354V496.625H1389.64V486.354H1390.99ZM1384.86 486.354H1386.22L1386.01 490.488C1385.98 491.108 1385.92 491.682 1385.83 492.209C1385.74 492.731 1385.63 493.208 1385.5 493.641C1385.37 494.074 1385.22 494.462 1385.05 494.805C1384.88 495.144 1384.7 495.438 1384.5 495.687C1384.31 495.931 1384.11 496.134 1383.9 496.293C1383.69 496.449 1383.48 496.559 1383.27 496.625H1382.65V495.517H1383.09C1383.21 495.386 1383.35 495.195 1383.5 494.946C1383.66 494.697 1383.82 494.375 1383.98 493.98C1384.14 493.58 1384.27 493.093 1384.39 492.519C1384.51 491.946 1384.6 491.268 1384.64 490.488L1384.86 486.354ZM1397.13 493.218L1399.84 486.354H1401.41L1397.77 494.911C1397.67 495.151 1397.56 495.383 1397.43 495.609C1397.3 495.83 1397.15 496.028 1396.96 496.202C1396.78 496.376 1396.55 496.514 1396.28 496.618C1396.01 496.721 1395.68 496.773 1395.28 496.773C1395.16 496.773 1395.03 496.766 1394.87 496.752C1394.72 496.743 1394.62 496.731 1394.57 496.717L1394.61 495.63C1394.67 495.64 1394.77 495.649 1394.92 495.659C1395.07 495.663 1395.18 495.666 1395.25 495.666C1395.52 495.666 1395.73 495.612 1395.88 495.503C1396.04 495.395 1396.16 495.259 1396.26 495.094C1396.36 494.925 1396.45 494.753 1396.53 494.579L1397.13 493.218ZM1394.82 486.354L1397.68 492.752L1398.01 494.015L1396.87 494.1L1393.29 486.354H1394.82ZM1409.25 486.354V487.468H1404.55V486.354H1409.25ZM1410.42 486.354V496.625H1409.06V486.354H1410.42ZM1404.09 486.354H1405.44L1405.21 491.384C1405.18 492.108 1405.12 492.755 1405.04 493.324C1404.96 493.888 1404.86 494.379 1404.72 494.798C1404.57 495.212 1404.39 495.555 1404.17 495.828C1403.94 496.096 1403.66 496.296 1403.33 496.427C1403.01 496.559 1402.62 496.625 1402.16 496.625H1401.8V495.517L1402.08 495.496C1402.34 495.477 1402.57 495.419 1402.75 495.32C1402.95 495.216 1403.11 495.061 1403.24 494.854C1403.38 494.647 1403.49 494.379 1403.57 494.05C1403.66 493.721 1403.72 493.319 1403.77 492.844C1403.82 492.364 1403.86 491.805 1403.89 491.165L1404.09 486.354ZM1419.4 495.517V496.625H1413.96V495.517H1419.4ZM1414.24 486.354V496.625H1412.88V486.354H1414.24ZM1418.68 490.77V491.877H1413.96V490.77H1418.68ZM1419.33 486.354V487.468H1413.96V486.354H1419.33ZM1422.51 494.269L1427.56 486.354H1428.93V496.625H1427.56V488.703L1422.51 496.625H1421.15V486.354H1422.51V494.269ZM1426.12 483.807H1427.18C1427.18 484.174 1427.09 484.501 1426.92 484.788C1426.75 485.07 1426.51 485.291 1426.2 485.451C1425.88 485.611 1425.51 485.691 1425.07 485.691C1424.42 485.691 1423.9 485.517 1423.52 485.169C1423.15 484.816 1422.96 484.362 1422.96 483.807H1424.02C1424.02 484.085 1424.1 484.329 1424.26 484.541C1424.42 484.753 1424.69 484.858 1425.07 484.858C1425.45 484.858 1425.72 484.753 1425.88 484.541C1426.04 484.329 1426.12 484.085 1426.12 483.807Z" fill="black"/>
<path d="M1294.01 520.104H1353.95" stroke="#E6007E" stroke-width="0.451479" stroke-miterlimit="10"/>
<path d="M1294.01 520.104H1353.95" stroke="#E6007E" stroke-width="0.451479" stroke-miterlimit="10"/>
<path d="M1294.01 520.104H1353.95" stroke="#E6007E" stroke-width="0.451479" stroke-miterlimit="10"/>
<g clip-path="url(#clip0_432_2590)">
<path d="M1355.15 520.104H1292.53V582.724H1355.15V520.104Z" fill="white"/>
<path d="M1323.84 551.014C1306.76 551.014 1292.9 564.865 1292.9 581.949C1292.9 599.033 1306.76 612.884 1323.84 612.884C1340.92 612.884 1354.77 599.033 1354.77 581.949C1354.77 564.865 1340.91 551.014 1323.84 551.014Z" fill="#00313C"/>
<path d="M1292.53 581.154V521.225" stroke="#E6007E" stroke-width="0.451479" stroke-miterlimit="10"/>
<path d="M1355.15 521.666V581.604" stroke="#E6007E" stroke-width="0.451479" stroke-miterlimit="10"/>
<path d="M1353.59 582.723H1293.65" stroke="#E6007E" stroke-width="0.451479" stroke-miterlimit="10"/>
<path d="M1292.54 520.772V520.104H1293.21M1293.21 582.724H1292.54V582.055L1293.21 582.724ZM1355.16 582.055V582.724H1354.49L1355.16 582.055ZM1354.49 520.104H1355.16V520.772L1354.49 520.104Z" stroke="#E6007E" stroke-width="0.451479" stroke-miterlimit="10"/>
<path d="M1355.15 520.104H1292.53V582.724H1355.15V520.104Z" fill="white"/>
<path d="M1323.41 550.75C1306.32 550.75 1292.47 564.601 1292.47 581.685C1292.47 598.769 1306.32 612.621 1323.41 612.621C1340.49 612.621 1354.33 598.769 1354.33 581.685C1354.33 564.601 1340.48 550.75 1323.41 550.75Z" fill="#00313C"/>
<path d="M1292.53 581.154V521.225" stroke="#E6007E" stroke-width="0.451479" stroke-miterlimit="10"/>
<path d="M1355.15 521.666V581.604" stroke="#E6007E" stroke-width="0.451479" stroke-miterlimit="10"/>
<path d="M1353.59 582.723H1293.65" stroke="#E6007E" stroke-width="0.451479" stroke-miterlimit="10"/>
<path d="M1292.54 520.772V520.104H1293.21M1293.21 582.724H1292.54V582.055L1293.21 582.724ZM1355.16 582.055V582.724H1354.49L1355.16 582.055ZM1354.49 520.104H1355.16V520.772L1354.49 520.104Z" stroke="#E6007E" stroke-width="0.451479" stroke-miterlimit="10"/>
<path d="M1355.15 520.104H1292.53V582.724H1355.15V520.104Z" fill="white"/>
<path d="M1293.14 582.373C1310.12 582.373 1323.87 568.612 1323.87 551.646C1323.87 534.679 1310.11 520.918 1293.14 520.918C1276.17 520.918 1262.41 534.679 1262.41 551.646C1262.41 568.612 1276.17 582.373 1293.14 582.373Z" fill="#00313C"/>
<path d="M1354.6 582.373C1371.58 582.373 1385.33 568.612 1385.33 551.646C1385.33 534.679 1371.57 520.918 1354.6 520.918C1337.64 520.918 1323.88 534.679 1323.88 551.646C1323.88 568.612 1337.64 582.373 1354.6 582.373Z" fill="#00313C"/>
<path d="M1292.53 581.154V521.225" stroke="#E6007E" stroke-width="0.451479" stroke-miterlimit="10"/>
<path d="M1355.15 521.666V581.604" stroke="#E6007E" stroke-width="0.451479" stroke-miterlimit="10"/>
<path d="M1353.59 582.723H1293.65" stroke="#E6007E" stroke-width="0.451479" stroke-miterlimit="10"/>
<path d="M1292.54 520.772V520.104H1293.21M1293.21 582.724H1292.54V582.055L1293.21 582.724ZM1355.16 582.055V582.724H1354.49L1355.16 582.055ZM1354.49 520.104H1355.16V520.772L1354.49 520.104Z" stroke="#E6007E" stroke-width="0.451479" stroke-miterlimit="10"/>
<path d="M1354.77 581.287V551.652H1323.9C1323.9 551.652 1323.9 551.698 1323.9 551.725C1323.9 568.7 1337.66 582.452 1354.63 582.452C1354.67 582.452 1354.72 582.452 1354.77 582.452V581.287Z" fill="#008C95"/>
</g>
<defs>
<filter id="filter0_d_432_2590" x="0.113219" y="43.9199" width="296.811" height="405.004" filterUnits="userSpaceOnUse" color-interpolation-filters="sRGB">
<feFlood flood-opacity="0" result="BackgroundImageFix"/>
<feColorMatrix in="SourceAlpha" type="matrix" values="0 0 0 0 0 0 0 0 0 0 0 0 0 0 0 0 0 0 127 0" result="hardAlpha"/>
<feOffset dx="3.61183" dy="3.61183"/>
<feGaussianBlur stdDeviation="9.02958"/>
<feComposite in2="hardAlpha" operator="out"/>
<feColorMatrix type="matrix" values="0 0 0 0 0 0 0 0 0 0 0 0 0 0 0 0 0 0 0.1 0"/>
<feBlend mode="normal" in2="BackgroundImageFix" result="effect1_dropShadow_432_2590"/>
<feBlend mode="normal" in="SourceGraphic" in2="effect1_dropShadow_432_2590" result="shape"/>
</filter>
<filter id="filter1_d_432_2590" x="271.219" y="43.9199" width="296.811" height="405.004" filterUnits="userSpaceOnUse" color-interpolation-filters="sRGB">
<feFlood flood-opacity="0" result="BackgroundImageFix"/>
<feColorMatrix in="SourceAlpha" type="matrix" values="0 0 0 0 0 0 0 0 0 0 0 0 0 0 0 0 0 0 127 0" result="hardAlpha"/>
<feOffset dx="3.61183" dy="3.61183"/>
<feGaussianBlur stdDeviation="9.02958"/>
<feComposite in2="hardAlpha" operator="out"/>
<feColorMatrix type="matrix" values="0 0 0 0 0 0 0 0 0 0 0 0 0 0 0 0 0 0 0.1 0"/>
<feBlend mode="normal" in2="BackgroundImageFix" result="effect1_dropShadow_432_2590"/>
<feBlend mode="normal" in="SourceGraphic" in2="effect1_dropShadow_432_2590" result="shape"/>
</filter>
<filter id="filter2_d_432_2590" x="542.32" y="43.9199" width="296.811" height="405.004" filterUnits="userSpaceOnUse" color-interpolation-filters="sRGB">
<feFlood flood-opacity="0" result="BackgroundImageFix"/>
<feColorMatrix in="SourceAlpha" type="matrix" values="0 0 0 0 0 0 0 0 0 0 0 0 0 0 0 0 0 0 127 0" result="hardAlpha"/>
<feOffset dx="3.61183" dy="3.61183"/>
<feGaussianBlur stdDeviation="9.02958"/>
<feComposite in2="hardAlpha" operator="out"/>
<feColorMatrix type="matrix" values="0 0 0 0 0 0 0 0 0 0 0 0 0 0 0 0 0 0 0.1 0"/>
<feBlend mode="normal" in2="BackgroundImageFix" result="effect1_dropShadow_432_2590"/>
<feBlend mode="normal" in="SourceGraphic" in2="effect1_dropShadow_432_2590" result="shape"/>
</filter>
<filter id="filter3_d_432_2590" x="813.424" y="43.9199" width="296.811" height="405.004" filterUnits="userSpaceOnUse" color-interpolation-filters="sRGB">
<feFlood flood-opacity="0" result="BackgroundImageFix"/>
<feColorMatrix in="SourceAlpha" type="matrix" values="0 0 0 0 0 0 0 0 0 0 0 0 0 0 0 0 0 0 127 0" result="hardAlpha"/>
<feOffset dx="3.61183" dy="3.61183"/>
<feGaussianBlur stdDeviation="9.02958"/>
<feComposite in2="hardAlpha" operator="out"/>
<feColorMatrix type="matrix" values="0 0 0 0 0 0 0 0 0 0 0 0 0 0 0 0 0 0 0.1 0"/>
<feBlend mode="normal" in2="BackgroundImageFix" result="effect1_dropShadow_432_2590"/>
<feBlend mode="normal" in="SourceGraphic" in2="effect1_dropShadow_432_2590" result="shape"/>
</filter>
<filter id="filter4_d_432_2590" x="1084.91" y="44.2441" width="296.811" height="405.004" filterUnits="userSpaceOnUse" color-interpolation-filters="sRGB">
<feFlood flood-opacity="0" result="BackgroundImageFix"/>
<feColorMatrix in="SourceAlpha" type="matrix" values="0 0 0 0 0 0 0 0 0 0 0 0 0 0 0 0 0 0 127 0" result="hardAlpha"/>
<feOffset dx="3.61183" dy="3.61183"/>
<feGaussianBlur stdDeviation="9.02958"/>
<feComposite in2="hardAlpha" operator="out"/>
<feColorMatrix type="matrix" values="0 0 0 0 0 0 0 0 0 0 0 0 0 0 0 0 0 0 0.1 0"/>
<feBlend mode="normal" in2="BackgroundImageFix" result="effect1_dropShadow_432_2590"/>
<feBlend mode="normal" in="SourceGraphic" in2="effect1_dropShadow_432_2590" result="shape"/>
</filter>
<filter id="filter5_d_432_2590" x="1355.63" y="43.9199" width="296.811" height="405.004" filterUnits="userSpaceOnUse" color-interpolation-filters="sRGB">
<feFlood flood-opacity="0" result="BackgroundImageFix"/>
<feColorMatrix in="SourceAlpha" type="matrix" values="0 0 0 0 0 0 0 0 0 0 0 0 0 0 0 0 0 0 127 0" result="hardAlpha"/>
<feOffset dx="3.61183" dy="3.61183"/>
<feGaussianBlur stdDeviation="9.02958"/>
<feComposite in2="hardAlpha" operator="out"/>
<feColorMatrix type="matrix" values="0 0 0 0 0 0 0 0 0 0 0 0 0 0 0 0 0 0 0.1 0"/>
<feBlend mode="normal" in2="BackgroundImageFix" result="effect1_dropShadow_432_2590"/>
<feBlend mode="normal" in="SourceGraphic" in2="effect1_dropShadow_432_2590" result="shape"/>
</filter>
<clipPath id="clip0_432_2590">
<rect width="63.2071" height="63.2071" fill="white" transform="translate(1292.21 520.104)"/>
</clipPath>
</defs>
</svg>
