<svg viewBox="0 0 1654 685" fill="none" xmlns="http://www.w3.org/2000/svg">
<g filter="url(#filter0_d_432_2164)">
<path d="M275.587 39.6094H15.2168V408.038H275.587V39.6094Z" fill="white"/>
</g>
<path d="M58.6836 39.3945V408.256" stroke="#999999" stroke-width="0.676379"/>
<path d="M102.152 39.3945V408.256" stroke="#999999" stroke-width="0.676379"/>
<path d="M145.189 39.3945V408.256" stroke="#999999" stroke-width="0.676379"/>
<path d="M188.656 39.3945V408.256" stroke="#999999" stroke-width="0.676379"/>
<path d="M232.127 39.3945V408.256" stroke="#999999" stroke-width="0.676379"/>
<path d="M275.812 80.1572H15" stroke="#999999" stroke-width="0.676379"/>
<path d="M275.812 121.145H15" stroke="#999999" stroke-width="0.676379"/>
<path d="M275.812 162.566H15" stroke="#999999" stroke-width="0.676379"/>
<path d="M275.812 203.113H15" stroke="#999999" stroke-width="0.676379"/>
<path d="M275.812 244.102H15" stroke="#999999" stroke-width="0.676379"/>
<path d="M275.812 285.083H15" stroke="#999999" stroke-width="0.676379"/>
<path d="M275.812 326.503H15" stroke="#999999" stroke-width="0.676379"/>
<path d="M275.812 367.491H15" stroke="#999999" stroke-width="0.676379"/>
<g filter="url(#filter1_d_432_2164)">
<path d="M546.354 39.6094H285.984V408.038H546.354V39.6094Z" fill="white"/>
</g>
<g filter="url(#filter2_d_432_2164)">
<path d="M817.12 39.6094H556.75V408.038H817.12V39.6094Z" fill="white"/>
</g>
<g filter="url(#filter3_d_432_2164)">
<path d="M1087.89 39.6094H827.521V408.038H1087.89V39.6094Z" fill="white"/>
</g>
<g filter="url(#filter4_d_432_2164)">
<path d="M1358.66 39.6094H1098.29V408.038H1358.66V39.6094Z" fill="white"/>
</g>
<g filter="url(#filter5_d_432_2164)">
<path d="M1629.43 39.6094H1369.06V408.038H1629.43V39.6094Z" fill="white"/>
</g>
<path d="M1388.68 500.252H1325.55V563.2H1388.68V500.252Z" fill="#008C95"/>
<path d="M546.364 39.3945H287.355V285.236H546.364V39.3945Z" fill="#008C95"/>
<path d="M145.406 39.3945H15.9023V162.315H145.406V39.3945Z" fill="#F0F0F0"/>
<path d="M15.9023 42.5859V160.032" stroke="#E6007E" stroke-width="0.901839"/>
<path d="M19.0195 162.316H143.167" stroke="#E6007E" stroke-width="0.901839"/>
<path d="M145.406 159.122V41.667" stroke="#E6007E" stroke-width="0.901839"/>
<path d="M142.286 39.3945H18.1387" stroke="#E6007E" stroke-width="0.901839"/>
<path d="M15.9023 160.953V162.315H17.2461M17.2461 39.3945H15.9023V40.7653L17.2461 39.3945ZM145.406 40.7653V39.3945H144.063L145.406 40.7653ZM144.063 162.315H145.406V160.953L144.063 162.315Z" stroke="#E6007E" stroke-width="0.901839"/>
<path d="M274.694 39.8545H16.3535V284.352H274.694V39.8545Z" stroke="#E6007E" stroke-width="1.80368"/>
<path d="M957.603 285.235H827.521V409.509H957.603V285.235Z" fill="#77E2C3"/>
<path d="M817.13 39.3945H687.049V162.315H817.13V39.3945Z" fill="#008C95"/>
<path d="M817.13 285.117H687.049V408.038H817.13V285.117Z" fill="#77E2C3"/>
<path d="M817.13 162.198H687.049V285.119H817.13V162.198Z" fill="#77E2C3"/>
<path d="M1499.36 285.235H1369.28V409.509H1499.36V285.235Z" fill="#77E2C3"/>
<path d="M1228.37 285.235H1098.29V409.509H1228.37V285.235Z" fill="#77E2C3"/>
<path d="M1087.9 285.235H957.818V409.509H1087.9V285.235Z" fill="#008C95"/>
<path d="M1629.65 285.235H1499.57V409.509H1629.65V285.235Z" fill="#008C95"/>
<path d="M1358.67 285.235H1228.59V409.509H1358.67V285.235Z" fill="#00313C"/>
<path d="M1358.67 162.585H1228.59V285.235H1358.67V162.585Z" fill="#77E2C3"/>
<path d="M1229.06 39.3945H1098.29V163.668H1229.06V39.3945Z" fill="#008C95"/>
<path d="M1469.01 500.252H1405.88V563.2H1469.01V500.252Z" fill="#77E2C3"/>
<path d="M1549.33 500.252H1486.2V563.2H1549.33V500.252Z" fill="#00313C"/>
<path d="M1629.65 500.252H1566.52V563.2H1629.65V500.252Z" fill="white"/>
<path d="M1629.65 500.252H1566.52V563.2H1629.65V500.252Z" stroke="black" stroke-width="0.450919"/>
<path d="M329.453 39.3945V408.256" stroke="#999999" stroke-width="0.676379"/>
<path d="M372.922 39.3945V408.256" stroke="#999999" stroke-width="0.676379"/>
<path d="M415.957 39.3945V408.256" stroke="#999999" stroke-width="0.676379"/>
<path d="M459.426 39.3945V408.256" stroke="#999999" stroke-width="0.676379"/>
<path d="M502.895 39.3945V408.256" stroke="#999999" stroke-width="0.676379"/>
<path d="M546.579 80.1572H285.768" stroke="#999999" stroke-width="0.676379"/>
<path d="M546.579 121.145H285.768" stroke="#999999" stroke-width="0.676379"/>
<path d="M546.579 162.566H285.768" stroke="#999999" stroke-width="0.676379"/>
<path d="M546.579 203.113H285.768" stroke="#999999" stroke-width="0.676379"/>
<path d="M546.579 244.102H285.768" stroke="#999999" stroke-width="0.676379"/>
<path d="M546.579 285.083H285.768" stroke="#999999" stroke-width="0.676379"/>
<path d="M546.579 326.503H285.768" stroke="#999999" stroke-width="0.676379"/>
<path d="M546.579 367.491H285.768" stroke="#999999" stroke-width="0.676379"/>
<path d="M296.112 3.12012V13.0732H294.8V4.2002H289.892V13.0732H288.572V3.12012H296.112ZM302.176 9.16992H299.517V8.09668H302.176C302.691 8.09668 303.108 8.01465 303.427 7.85059C303.746 7.68652 303.978 7.45866 304.124 7.16699C304.274 6.87533 304.35 6.54264 304.35 6.16895C304.35 5.82715 304.274 5.50586 304.124 5.20508C303.978 4.9043 303.746 4.66276 303.427 4.48047C303.108 4.29362 302.691 4.2002 302.176 4.2002H299.824V13.0732H298.505V3.12012H302.176C302.928 3.12012 303.563 3.25 304.083 3.50977C304.603 3.76953 304.997 4.12956 305.266 4.58984C305.535 5.04557 305.669 5.56738 305.669 6.15527C305.669 6.79329 305.535 7.33789 305.266 7.78906C304.997 8.24023 304.603 8.58431 304.083 8.82129C303.563 9.05371 302.928 9.16992 302.176 9.16992ZM308.711 10.79L313.612 3.12012H314.932V13.0732H313.612V5.39648L308.711 13.0732H307.398V3.12012H308.711V10.79ZM317.748 3.12012H319.026L322.287 11.2344L325.541 3.12012H326.826L322.779 13.0732H321.781L317.748 3.12012ZM317.331 3.12012H318.459L318.644 9.19043V13.0732H317.331V3.12012ZM326.108 3.12012H327.236V13.0732H325.924V9.19043L326.108 3.12012ZM335.877 12V13.0732H330.606V12H335.877ZM330.873 3.12012V13.0732H329.554V3.12012H330.873ZM335.18 7.39941V8.47266H330.606V7.39941H335.18ZM335.809 3.12012V4.2002H330.606V3.12012H335.809ZM341.182 9.16992H338.522V8.09668H341.182C341.697 8.09668 342.114 8.01465 342.433 7.85059C342.752 7.68652 342.984 7.45866 343.13 7.16699C343.28 6.87533 343.355 6.54264 343.355 6.16895C343.355 5.82715 343.28 5.50586 343.13 5.20508C342.984 4.9043 342.752 4.66276 342.433 4.48047C342.114 4.29362 341.697 4.2002 341.182 4.2002H338.83V13.0732H337.511V3.12012H341.182C341.934 3.12012 342.569 3.25 343.089 3.50977C343.608 3.76953 344.003 4.12956 344.271 4.58984C344.54 5.04557 344.675 5.56738 344.675 6.15527C344.675 6.79329 344.54 7.33789 344.271 7.78906C344.003 8.24023 343.608 8.58431 343.089 8.82129C342.569 9.05371 341.934 9.16992 341.182 9.16992ZM353.644 3.06543V13.0732H352.379V4.64453L349.829 5.57422V4.43262L353.445 3.06543H353.644Z" fill="black"/>
<path d="M23.7568 3.04688V13H22.4443V4.12695H17.5361V13H16.2168V3.04688H23.7568ZM33.8125 7.70898V8.33789C33.8125 9.08529 33.7191 9.75521 33.5322 10.3477C33.3454 10.9401 33.0765 11.4437 32.7256 11.8584C32.3747 12.2731 31.9531 12.5898 31.4609 12.8086C30.9733 13.0273 30.4264 13.1367 29.8203 13.1367C29.2324 13.1367 28.6924 13.0273 28.2002 12.8086C27.7126 12.5898 27.2887 12.2731 26.9287 11.8584C26.5732 11.4437 26.2975 10.9401 26.1016 10.3477C25.9056 9.75521 25.8076 9.08529 25.8076 8.33789V7.70898C25.8076 6.96159 25.9033 6.29395 26.0947 5.70605C26.2907 5.11361 26.5664 4.61003 26.9219 4.19531C27.2773 3.77604 27.6989 3.45703 28.1865 3.23828C28.6787 3.01953 29.2188 2.91016 29.8066 2.91016C30.4128 2.91016 30.9596 3.01953 31.4473 3.23828C31.9395 3.45703 32.361 3.77604 32.7119 4.19531C33.0674 4.61003 33.3385 5.11361 33.5254 5.70605C33.7168 6.29395 33.8125 6.96159 33.8125 7.70898ZM32.5068 8.33789V7.69531C32.5068 7.10286 32.4453 6.57878 32.3223 6.12305C32.2038 5.66732 32.0283 5.28451 31.7959 4.97461C31.5635 4.66471 31.2786 4.43001 30.9414 4.27051C30.6087 4.111 30.2305 4.03125 29.8066 4.03125C29.3965 4.03125 29.0251 4.111 28.6924 4.27051C28.3643 4.43001 28.0817 4.66471 27.8447 4.97461C27.6123 5.28451 27.4323 5.66732 27.3047 6.12305C27.1771 6.57878 27.1133 7.10286 27.1133 7.69531V8.33789C27.1133 8.9349 27.1771 9.46354 27.3047 9.92383C27.4323 10.3796 27.6146 10.7646 27.8516 11.0791C28.0931 11.389 28.3779 11.6237 28.7061 11.7832C29.0387 11.9427 29.4102 12.0225 29.8203 12.0225C30.2487 12.0225 30.6292 11.9427 30.9619 11.7832C31.2946 11.6237 31.5749 11.389 31.8027 11.0791C32.0352 10.7646 32.2106 10.3796 32.3291 9.92383C32.4476 9.46354 32.5068 8.9349 32.5068 8.33789ZM41.7969 9.83496H43.1094C43.041 10.4639 42.861 11.0267 42.5693 11.5234C42.2777 12.0202 41.8652 12.4144 41.332 12.7061C40.7988 12.9932 40.1335 13.1367 39.3359 13.1367C38.7526 13.1367 38.2217 13.0273 37.7432 12.8086C37.2692 12.5898 36.8613 12.2799 36.5195 11.8789C36.1777 11.4733 35.9134 10.988 35.7266 10.4229C35.5443 9.85319 35.4531 9.21973 35.4531 8.52246V7.53125C35.4531 6.83398 35.5443 6.2028 35.7266 5.6377C35.9134 5.06803 36.18 4.5804 36.5264 4.1748C36.8773 3.76921 37.2988 3.45703 37.791 3.23828C38.2832 3.01953 38.8369 2.91016 39.4521 2.91016C40.2041 2.91016 40.8398 3.05143 41.3594 3.33398C41.8789 3.61654 42.2822 4.00846 42.5693 4.50977C42.861 5.00651 43.041 5.58301 43.1094 6.23926H41.7969C41.7331 5.77441 41.6146 5.37565 41.4414 5.04297C41.2682 4.70573 41.0221 4.44596 40.7031 4.26367C40.3841 4.08138 39.9671 3.99023 39.4521 3.99023C39.0101 3.99023 38.6204 4.07454 38.2832 4.24316C37.9505 4.41178 37.6702 4.65104 37.4424 4.96094C37.2191 5.27083 37.0505 5.64225 36.9365 6.0752C36.8226 6.50814 36.7656 6.98893 36.7656 7.51758V8.52246C36.7656 9.01009 36.8158 9.4681 36.916 9.89648C37.0208 10.3249 37.1781 10.7008 37.3877 11.0244C37.5973 11.348 37.8639 11.6032 38.1875 11.79C38.5111 11.9723 38.8939 12.0635 39.3359 12.0635C39.8965 12.0635 40.3431 11.9746 40.6758 11.7969C41.0085 11.6191 41.2591 11.3639 41.4277 11.0312C41.6009 10.6986 41.724 10.2998 41.7969 9.83496ZM48.3799 3.04688V13H47.0811V3.04688H48.3799ZM51.5791 3.04688V4.12695H43.8887V3.04688H51.5791ZM56.7266 9.09668H54.0674V8.02344H56.7266C57.2415 8.02344 57.6585 7.94141 57.9775 7.77734C58.2965 7.61328 58.529 7.38542 58.6748 7.09375C58.8252 6.80208 58.9004 6.4694 58.9004 6.0957C58.9004 5.75391 58.8252 5.43262 58.6748 5.13184C58.529 4.83105 58.2965 4.58952 57.9775 4.40723C57.6585 4.22038 57.2415 4.12695 56.7266 4.12695H54.375V13H53.0557V3.04688H56.7266C57.4785 3.04688 58.1143 3.17676 58.6338 3.43652C59.1533 3.69629 59.5475 4.05632 59.8164 4.5166C60.0853 4.97233 60.2197 5.49414 60.2197 6.08203C60.2197 6.72005 60.0853 7.26465 59.8164 7.71582C59.5475 8.16699 59.1533 8.51107 58.6338 8.74805C58.1143 8.98047 57.4785 9.09668 56.7266 9.09668ZM69.5508 7.70898V8.33789C69.5508 9.08529 69.4574 9.75521 69.2705 10.3477C69.0837 10.9401 68.8148 11.4437 68.4639 11.8584C68.113 12.2731 67.6914 12.5898 67.1992 12.8086C66.7116 13.0273 66.1647 13.1367 65.5586 13.1367C64.9707 13.1367 64.4307 13.0273 63.9385 12.8086C63.4508 12.5898 63.027 12.2731 62.667 11.8584C62.3115 11.4437 62.0358 10.9401 61.8398 10.3477C61.6439 9.75521 61.5459 9.08529 61.5459 8.33789V7.70898C61.5459 6.96159 61.6416 6.29395 61.833 5.70605C62.029 5.11361 62.3047 4.61003 62.6602 4.19531C63.0156 3.77604 63.4372 3.45703 63.9248 3.23828C64.417 3.01953 64.957 2.91016 65.5449 2.91016C66.151 2.91016 66.6979 3.01953 67.1855 3.23828C67.6777 3.45703 68.0993 3.77604 68.4502 4.19531C68.8057 4.61003 69.0768 5.11361 69.2637 5.70605C69.4551 6.29395 69.5508 6.96159 69.5508 7.70898ZM68.2451 8.33789V7.69531C68.2451 7.10286 68.1836 6.57878 68.0605 6.12305C67.9421 5.66732 67.7666 5.28451 67.5342 4.97461C67.3018 4.66471 67.0169 4.43001 66.6797 4.27051C66.347 4.111 65.9688 4.03125 65.5449 4.03125C65.1348 4.03125 64.7633 4.111 64.4307 4.27051C64.1025 4.43001 63.82 4.66471 63.583 4.97461C63.3506 5.28451 63.1706 5.66732 63.043 6.12305C62.9154 6.57878 62.8516 7.10286 62.8516 7.69531V8.33789C62.8516 8.9349 62.9154 9.46354 63.043 9.92383C63.1706 10.3796 63.3529 10.7646 63.5898 11.0791C63.8314 11.389 64.1162 11.6237 64.4443 11.7832C64.777 11.9427 65.1484 12.0225 65.5586 12.0225C65.987 12.0225 66.3675 11.9427 66.7002 11.7832C67.0329 11.6237 67.3132 11.389 67.541 11.0791C67.7734 10.7646 67.9489 10.3796 68.0674 9.92383C68.1859 9.46354 68.2451 8.9349 68.2451 8.33789ZM77.8496 11.9268V13H72.5791V11.9268H77.8496ZM72.8457 3.04688V13H71.5264V3.04688H72.8457ZM77.1523 7.32617V8.39941H72.5791V7.32617H77.1523ZM77.7812 3.04688V4.12695H72.5791V3.04688H77.7812ZM85.9844 7.32617V8.39941H80.5977V7.32617H85.9844ZM80.8027 3.04688V13H79.4834V3.04688H80.8027ZM87.1328 3.04688V13H85.8203V3.04688H87.1328ZM90.8516 10.7168L95.7529 3.04688H97.0723V13H95.7529V5.32324L90.8516 13H89.5391V3.04688H90.8516V10.7168ZM105.795 11.9268V13H100.524V11.9268H105.795ZM100.791 3.04688V13H99.4717V3.04688H100.791ZM105.098 7.32617V8.39941H100.524V7.32617H105.098ZM105.727 3.04688V4.12695H100.524V3.04688H105.727ZM110.778 3.04688H112.098V6.15723C112.098 6.6722 112.173 7.07552 112.323 7.36719C112.474 7.65885 112.701 7.86393 113.007 7.98242C113.312 8.10091 113.693 8.16016 114.148 8.16016C114.422 8.16016 114.686 8.14876 114.941 8.12598C115.201 8.10319 115.454 8.07129 115.7 8.03027C115.946 7.98926 116.188 7.93913 116.425 7.87988C116.666 7.82064 116.903 7.75684 117.136 7.68848V8.76855C116.912 8.83691 116.689 8.90072 116.466 8.95996C116.247 9.01921 116.019 9.06934 115.782 9.11035C115.55 9.15137 115.299 9.18327 115.03 9.20605C114.766 9.22884 114.472 9.24023 114.148 9.24023C113.447 9.24023 112.843 9.13997 112.337 8.93945C111.836 8.73438 111.451 8.40625 111.182 7.95508C110.913 7.50391 110.778 6.90462 110.778 6.15723V3.04688ZM116.801 3.04688H118.12V13H116.801V3.04688ZM126.809 11.9268V13H121.538V11.9268H126.809ZM121.805 3.04688V13H120.485V3.04688H121.805ZM126.111 7.32617V8.39941H121.538V7.32617H126.111ZM126.74 3.04688V4.12695H121.538V3.04688H126.74ZM132.257 3.04688V13H130.958V3.04688H132.257ZM135.456 3.04688V4.12695H127.766V3.04688H135.456ZM137.999 7.10059H140.713C141.442 7.10059 142.057 7.22363 142.559 7.46973C143.06 7.71126 143.44 8.05078 143.7 8.48828C143.96 8.92578 144.09 9.43848 144.09 10.0264C144.09 10.4639 144.017 10.8649 143.871 11.2295C143.725 11.5895 143.509 11.904 143.222 12.1729C142.935 12.4372 142.581 12.6423 142.162 12.7881C141.743 12.9294 141.26 13 140.713 13H136.994V3.04688H138.313V11.9268H140.713C141.201 11.9268 141.595 11.8379 141.896 11.6602C142.201 11.4779 142.424 11.2409 142.565 10.9492C142.707 10.6576 142.777 10.3454 142.777 10.0127C142.777 9.68001 142.707 9.37467 142.565 9.09668C142.424 8.81868 142.201 8.59766 141.896 8.43359C141.595 8.26497 141.201 8.18066 140.713 8.18066H137.999V7.10059ZM146.612 3.04688V13H145.293V3.04688H146.612ZM152.717 9.09668H150.058V8.02344H152.717C153.232 8.02344 153.649 7.94141 153.968 7.77734C154.287 7.61328 154.519 7.38542 154.665 7.09375C154.815 6.80208 154.891 6.4694 154.891 6.0957C154.891 5.75391 154.815 5.43262 154.665 5.13184C154.519 4.83105 154.287 4.58952 153.968 4.40723C153.649 4.22038 153.232 4.12695 152.717 4.12695H150.365V13H149.046V3.04688H152.717C153.469 3.04688 154.104 3.17676 154.624 3.43652C155.144 3.69629 155.538 4.05632 155.807 4.5166C156.076 4.97233 156.21 5.49414 156.21 6.08203C156.21 6.72005 156.076 7.26465 155.807 7.71582C155.538 8.16699 155.144 8.51107 154.624 8.74805C154.104 8.98047 153.469 9.09668 152.717 9.09668ZM164.201 11.9268V13H158.931V11.9268H164.201ZM159.197 3.04688V13H157.878V3.04688H159.197ZM163.504 7.32617V8.39941H158.931V7.32617H163.504ZM164.133 3.04688V4.12695H158.931V3.04688H164.133ZM166.689 3.04688L169.082 6.86133L171.475 3.04688H173.013L169.868 7.97559L173.088 13H171.536L169.082 9.11035L166.628 13H165.076L168.296 7.97559L165.151 3.04688H166.689ZM177.695 9.69824L180.327 3.04688H181.845L178.324 11.3389C178.224 11.5713 178.112 11.7969 177.989 12.0156C177.866 12.2298 177.716 12.4212 177.538 12.5898C177.36 12.7585 177.139 12.8929 176.875 12.9932C176.615 13.0934 176.292 13.1436 175.904 13.1436C175.795 13.1436 175.665 13.1367 175.515 13.123C175.364 13.1139 175.266 13.1025 175.221 13.0889L175.262 12.0361C175.312 12.0452 175.41 12.0544 175.556 12.0635C175.701 12.068 175.809 12.0703 175.877 12.0703C176.137 12.0703 176.342 12.0179 176.492 11.9131C176.643 11.8083 176.763 11.6761 176.854 11.5166C176.95 11.3525 177.037 11.1862 177.114 11.0176L177.695 9.69824ZM175.46 3.04688L178.229 9.24707L178.557 10.4707L177.449 10.5527L173.983 3.04688H175.46ZM189.59 3.04688V4.12695H184.791V13H183.479V3.04688H189.59ZM198.408 7.70898V8.33789C198.408 9.08529 198.315 9.75521 198.128 10.3477C197.941 10.9401 197.672 11.4437 197.321 11.8584C196.97 12.2731 196.549 12.5898 196.057 12.8086C195.569 13.0273 195.022 13.1367 194.416 13.1367C193.828 13.1367 193.288 13.0273 192.796 12.8086C192.308 12.5898 191.884 12.2731 191.524 11.8584C191.169 11.4437 190.893 10.9401 190.697 10.3477C190.501 9.75521 190.403 9.08529 190.403 8.33789V7.70898C190.403 6.96159 190.499 6.29395 190.69 5.70605C190.886 5.11361 191.162 4.61003 191.518 4.19531C191.873 3.77604 192.295 3.45703 192.782 3.23828C193.274 3.01953 193.814 2.91016 194.402 2.91016C195.008 2.91016 195.555 3.01953 196.043 3.23828C196.535 3.45703 196.957 3.77604 197.308 4.19531C197.663 4.61003 197.934 5.11361 198.121 5.70605C198.312 6.29395 198.408 6.96159 198.408 7.70898ZM197.103 8.33789V7.69531C197.103 7.10286 197.041 6.57878 196.918 6.12305C196.799 5.66732 196.624 5.28451 196.392 4.97461C196.159 4.66471 195.874 4.43001 195.537 4.27051C195.204 4.111 194.826 4.03125 194.402 4.03125C193.992 4.03125 193.621 4.111 193.288 4.27051C192.96 4.43001 192.677 4.66471 192.44 4.97461C192.208 5.28451 192.028 5.66732 191.9 6.12305C191.773 6.57878 191.709 7.10286 191.709 7.69531V8.33789C191.709 8.9349 191.773 9.46354 191.9 9.92383C192.028 10.3796 192.21 10.7646 192.447 11.0791C192.689 11.389 192.974 11.6237 193.302 11.7832C193.634 11.9427 194.006 12.0225 194.416 12.0225C194.844 12.0225 195.225 11.9427 195.558 11.7832C195.89 11.6237 196.171 11.389 196.398 11.0791C196.631 10.7646 196.806 10.3796 196.925 9.92383C197.043 9.46354 197.103 8.9349 197.103 8.33789ZM206.563 3.04688V4.12695H202.011V3.04688H206.563ZM207.698 3.04688V13H206.379V3.04688H207.698ZM201.56 3.04688H202.872L202.646 7.9209C202.615 8.62272 202.56 9.24935 202.482 9.80078C202.41 10.3477 202.305 10.8239 202.168 11.2295C202.031 11.6305 201.854 11.9632 201.635 12.2275C201.416 12.4873 201.147 12.681 200.828 12.8086C200.514 12.9362 200.135 13 199.693 13H199.338V11.9268L199.611 11.9062C199.867 11.888 200.085 11.8311 200.268 11.7354C200.454 11.6351 200.612 11.4847 200.739 11.2842C200.871 11.0837 200.979 10.8239 201.061 10.5049C201.143 10.1859 201.206 9.79622 201.252 9.33594C201.302 8.87109 201.341 8.32878 201.368 7.70898L201.56 3.04688ZM211.041 7.10059H213.755C214.484 7.10059 215.099 7.22363 215.601 7.46973C216.102 7.71126 216.482 8.05078 216.742 8.48828C217.002 8.92578 217.132 9.43848 217.132 10.0264C217.132 10.4639 217.059 10.8649 216.913 11.2295C216.767 11.5895 216.551 11.904 216.264 12.1729C215.977 12.4372 215.623 12.6423 215.204 12.7881C214.785 12.9294 214.302 13 213.755 13H210.036V3.04688H211.355V11.9268H213.755C214.243 11.9268 214.637 11.8379 214.938 11.6602C215.243 11.4779 215.466 11.2409 215.607 10.9492C215.749 10.6576 215.819 10.3454 215.819 10.0127C215.819 9.68001 215.749 9.37467 215.607 9.09668C215.466 8.81868 215.243 8.59766 214.938 8.43359C214.637 8.26497 214.243 8.18066 213.755 8.18066H211.041V7.10059ZM225.369 7.32617V8.39941H219.982V7.32617H225.369ZM220.188 3.04688V13H218.868V3.04688H220.188ZM226.518 3.04688V13H225.205V3.04688H226.518ZM230.236 10.7168L235.138 3.04688H236.457V13H235.138V5.32324L230.236 13H228.924V3.04688H230.236V10.7168ZM240.237 3.04688V13H238.918V3.04688H240.237ZM246.369 3.04688L242.049 8.52246H239.711L239.506 7.42871H241.263L244.735 3.04688H246.369ZM245.043 13L241.304 8.35156L242.042 7.19629L246.656 13H245.043ZM251.537 3.92871L248.242 13H246.896L250.689 3.04688H251.558L251.537 3.92871ZM254.299 13L250.997 3.92871L250.977 3.04688H251.845L255.652 13H254.299ZM254.128 9.31543V10.3955H248.536V9.31543H254.128Z" fill="black"/>
<path d="M1332.78 467.388V468.468H1327.98V477.341H1326.67V467.388H1332.78ZM1327.67 471.441H1330.39C1331.11 471.441 1331.73 471.564 1332.23 471.811C1332.73 472.052 1333.11 472.392 1333.37 472.829C1333.63 473.267 1333.76 473.779 1333.76 474.367C1333.76 474.805 1333.69 475.206 1333.54 475.57C1333.4 475.93 1333.18 476.245 1332.89 476.514C1332.61 476.778 1332.25 476.983 1331.83 477.129C1331.42 477.27 1330.93 477.341 1330.39 477.341H1326.67V467.388H1327.99V476.268H1330.39C1330.87 476.268 1331.27 476.179 1331.57 476.001C1331.87 475.819 1332.1 475.582 1332.24 475.29C1332.38 474.998 1332.45 474.686 1332.45 474.354C1332.45 474.021 1332.38 473.715 1332.24 473.438C1332.1 473.16 1331.87 472.938 1331.57 472.774C1331.27 472.606 1330.87 472.521 1330.39 472.521H1327.67V471.441ZM1339.22 468.27L1335.93 477.341H1334.58L1338.38 467.388H1339.25L1339.22 468.27ZM1341.99 477.341L1338.68 468.27L1338.66 467.388H1339.53L1343.34 477.341H1341.99ZM1341.82 473.656V474.736H1336.22V473.656H1341.82ZM1347.72 472.562H1346.54V471.722H1347.67C1348.18 471.722 1348.58 471.651 1348.89 471.51C1349.2 471.368 1349.43 471.173 1349.57 470.922C1349.71 470.671 1349.78 470.382 1349.78 470.054C1349.78 469.739 1349.7 469.452 1349.55 469.192C1349.39 468.928 1349.15 468.718 1348.83 468.563C1348.51 468.404 1348.09 468.324 1347.58 468.324C1347.2 468.324 1346.85 468.397 1346.54 468.543C1346.23 468.684 1345.98 468.882 1345.8 469.138C1345.62 469.388 1345.53 469.678 1345.53 470.006H1344.21C1344.21 469.582 1344.3 469.201 1344.47 468.864C1344.65 468.522 1344.9 468.233 1345.21 467.996C1345.52 467.755 1345.87 467.57 1346.28 467.442C1346.69 467.315 1347.12 467.251 1347.58 467.251C1348.11 467.251 1348.59 467.312 1349.03 467.436C1349.46 467.554 1349.83 467.732 1350.14 467.969C1350.45 468.206 1350.69 468.5 1350.85 468.851C1351.02 469.201 1351.1 469.609 1351.1 470.074C1351.1 470.416 1351.02 470.737 1350.86 471.038C1350.7 471.339 1350.47 471.603 1350.18 471.831C1349.88 472.059 1349.52 472.239 1349.11 472.371C1348.69 472.499 1348.23 472.562 1347.72 472.562ZM1346.54 471.981H1347.72C1348.28 471.981 1348.78 472.038 1349.22 472.152C1349.66 472.266 1350.03 472.433 1350.33 472.651C1350.63 472.87 1350.85 473.141 1351.01 473.465C1351.17 473.784 1351.25 474.151 1351.25 474.565C1351.25 475.03 1351.16 475.443 1350.98 475.803C1350.8 476.163 1350.54 476.468 1350.22 476.719C1349.89 476.969 1349.5 477.159 1349.05 477.286C1348.6 477.414 1348.11 477.478 1347.58 477.478C1347.15 477.478 1346.73 477.423 1346.31 477.313C1345.89 477.2 1345.52 477.026 1345.18 476.794C1344.84 476.557 1344.57 476.256 1344.37 475.892C1344.16 475.527 1344.06 475.09 1344.06 474.579H1345.38C1345.38 474.912 1345.47 475.217 1345.66 475.495C1345.84 475.773 1346.1 475.996 1346.43 476.165C1346.76 476.329 1347.14 476.411 1347.58 476.411C1348.08 476.411 1348.5 476.334 1348.85 476.179C1349.2 476.019 1349.47 475.803 1349.65 475.529C1349.84 475.251 1349.93 474.939 1349.93 474.593C1349.93 474.287 1349.88 474.023 1349.78 473.8C1349.68 473.572 1349.54 473.385 1349.35 473.239C1349.16 473.093 1348.93 472.986 1348.64 472.918C1348.37 472.845 1348.04 472.809 1347.67 472.809H1346.54V471.981ZM1360.65 472.05V472.679C1360.65 473.426 1360.56 474.096 1360.37 474.688C1360.18 475.281 1359.91 475.785 1359.56 476.199C1359.21 476.614 1358.79 476.931 1358.3 477.149C1357.81 477.368 1357.26 477.478 1356.66 477.478C1356.07 477.478 1355.53 477.368 1355.04 477.149C1354.55 476.931 1354.12 476.614 1353.76 476.199C1353.41 475.785 1353.13 475.281 1352.94 474.688C1352.74 474.096 1352.64 473.426 1352.64 472.679V472.05C1352.64 471.302 1352.74 470.635 1352.93 470.047C1353.13 469.454 1353.4 468.951 1353.76 468.536C1354.11 468.117 1354.53 467.798 1355.02 467.579C1355.51 467.36 1356.05 467.251 1356.64 467.251C1357.25 467.251 1357.8 467.36 1358.28 467.579C1358.78 467.798 1359.2 468.117 1359.55 468.536C1359.9 468.951 1360.17 469.454 1360.36 470.047C1360.55 470.635 1360.65 471.302 1360.65 472.05ZM1359.34 472.679V472.036C1359.34 471.444 1359.28 470.92 1359.16 470.464C1359.04 470.008 1358.86 469.625 1358.63 469.315C1358.4 469.006 1358.11 468.771 1357.78 468.611C1357.44 468.452 1357.07 468.372 1356.64 468.372C1356.23 468.372 1355.86 468.452 1355.53 468.611C1355.2 468.771 1354.92 469.006 1354.68 469.315C1354.45 469.625 1354.27 470.008 1354.14 470.464C1354.01 470.92 1353.95 471.444 1353.95 472.036V472.679C1353.95 473.276 1354.01 473.804 1354.14 474.265C1354.27 474.72 1354.45 475.105 1354.69 475.42C1354.93 475.73 1355.21 475.965 1355.54 476.124C1355.87 476.284 1356.25 476.363 1356.66 476.363C1357.08 476.363 1357.47 476.284 1357.8 476.124C1358.13 475.965 1358.41 475.73 1358.64 475.42C1358.87 475.105 1359.05 474.72 1359.17 474.265C1359.28 473.804 1359.34 473.276 1359.34 472.679ZM1366.17 472.686H1363.65L1363.64 471.626H1365.93C1366.3 471.626 1366.63 471.562 1366.92 471.435C1367.2 471.307 1367.42 471.125 1367.57 470.888C1367.73 470.646 1367.81 470.359 1367.81 470.026C1367.81 469.662 1367.74 469.366 1367.6 469.138C1367.46 468.905 1367.25 468.737 1366.96 468.632C1366.68 468.522 1366.32 468.468 1365.88 468.468H1363.94V477.341H1362.62V467.388H1365.88C1366.4 467.388 1366.85 467.44 1367.25 467.545C1367.65 467.645 1367.99 467.805 1368.27 468.023C1368.55 468.238 1368.77 468.511 1368.91 468.844C1369.06 469.176 1369.13 469.575 1369.13 470.04C1369.13 470.45 1369.03 470.822 1368.82 471.154C1368.61 471.482 1368.32 471.751 1367.94 471.961C1367.57 472.171 1367.14 472.305 1366.64 472.364L1366.17 472.686ZM1366.11 477.341H1363.13L1363.88 476.268H1366.11C1366.53 476.268 1366.89 476.195 1367.18 476.049C1367.47 475.903 1367.7 475.698 1367.85 475.434C1368.01 475.165 1368.09 474.848 1368.09 474.483C1368.09 474.114 1368.02 473.795 1367.89 473.526C1367.76 473.257 1367.55 473.05 1367.27 472.904C1366.98 472.758 1366.62 472.686 1366.17 472.686H1364.29L1364.31 471.626H1366.88L1367.16 472.009C1367.63 472.05 1368.04 472.187 1368.37 472.419C1368.71 472.647 1368.96 472.938 1369.13 473.294C1369.31 473.649 1369.4 474.041 1369.4 474.47C1369.4 475.09 1369.26 475.614 1368.99 476.042C1368.72 476.466 1368.34 476.789 1367.85 477.013C1367.35 477.231 1366.78 477.341 1366.11 477.341ZM1372.41 471.441H1375.13C1375.86 471.441 1376.47 471.564 1376.97 471.811C1377.47 472.052 1377.85 472.392 1378.11 472.829C1378.37 473.267 1378.5 473.779 1378.5 474.367C1378.5 474.805 1378.43 475.206 1378.29 475.57C1378.14 475.93 1377.92 476.245 1377.64 476.514C1377.35 476.778 1377 476.983 1376.58 477.129C1376.16 477.27 1375.67 477.341 1375.13 477.341H1371.41V467.388H1372.73V476.268H1375.13C1375.61 476.268 1376.01 476.179 1376.31 476.001C1376.61 475.819 1376.84 475.582 1376.98 475.29C1377.12 474.998 1377.19 474.686 1377.19 474.354C1377.19 474.021 1377.12 473.715 1376.98 473.438C1376.84 473.16 1376.61 472.938 1376.31 472.774C1376.01 472.606 1375.61 472.521 1375.13 472.521H1372.41V471.441ZM1381.03 467.388V477.341H1379.71V467.388H1381.03ZM1389.78 476.268V477.341H1384.51V476.268H1389.78ZM1384.78 467.388V477.341H1383.46V467.388H1384.78ZM1389.09 471.667V472.74H1384.51V471.667H1389.09ZM1389.71 467.388V468.468H1384.51V467.388H1389.71ZM1395.31 467.388H1396.58L1399.85 475.502L1403.1 467.388H1404.38L1400.34 477.341H1399.34L1395.31 467.388ZM1394.89 467.388H1396.02L1396.2 473.458V477.341H1394.89V467.388ZM1403.67 467.388H1404.79V477.341H1403.48V473.458L1403.67 467.388ZM1414.78 472.05V472.679C1414.78 473.426 1414.68 474.096 1414.5 474.688C1414.31 475.281 1414.04 475.785 1413.69 476.199C1413.34 476.614 1412.92 476.931 1412.42 477.149C1411.94 477.368 1411.39 477.478 1410.78 477.478C1410.2 477.478 1409.66 477.368 1409.16 477.149C1408.68 476.931 1408.25 476.614 1407.89 476.199C1407.54 475.785 1407.26 475.281 1407.06 474.688C1406.87 474.096 1406.77 473.426 1406.77 472.679V472.05C1406.77 471.302 1406.87 470.635 1407.06 470.047C1407.25 469.454 1407.53 468.951 1407.88 468.536C1408.24 468.117 1408.66 467.798 1409.15 467.579C1409.64 467.36 1410.18 467.251 1410.77 467.251C1411.38 467.251 1411.92 467.36 1412.41 467.579C1412.9 467.798 1413.32 468.117 1413.67 468.536C1414.03 468.951 1414.3 469.454 1414.49 470.047C1414.68 470.635 1414.78 471.302 1414.78 472.05ZM1413.47 472.679V472.036C1413.47 471.444 1413.41 470.92 1413.29 470.464C1413.17 470.008 1412.99 469.625 1412.76 469.315C1412.53 469.006 1412.24 468.771 1411.9 468.611C1411.57 468.452 1411.19 468.372 1410.77 468.372C1410.36 468.372 1409.99 468.452 1409.66 468.611C1409.33 468.771 1409.04 469.006 1408.81 469.315C1408.58 469.625 1408.4 470.008 1408.27 470.464C1408.14 470.92 1408.08 471.444 1408.08 472.036V472.679C1408.08 473.276 1408.14 473.804 1408.27 474.265C1408.4 474.72 1408.58 475.105 1408.81 475.42C1409.06 475.73 1409.34 475.965 1409.67 476.124C1410 476.284 1410.37 476.363 1410.78 476.363C1411.21 476.363 1411.59 476.284 1411.92 476.124C1412.26 475.965 1412.54 475.73 1412.77 475.42C1413 475.105 1413.17 474.72 1413.29 474.265C1413.41 473.804 1413.47 473.276 1413.47 472.679ZM1424.35 476.268V477.341H1416.81V476.268H1424.35ZM1417.02 476.268V479.788H1415.72L1415.71 476.268H1417.02ZM1425.49 476.268L1425.48 479.781H1424.17V476.268H1425.49ZM1423.05 467.388V468.468H1418.69V467.388H1423.05ZM1424.19 467.388V477.341H1422.88V467.388H1424.19ZM1418.24 467.388H1419.56L1419.36 471.394C1419.33 471.995 1419.27 472.551 1419.18 473.062C1419.1 473.567 1418.99 474.03 1418.86 474.449C1418.74 474.868 1418.59 475.244 1418.43 475.577C1418.26 475.905 1418.09 476.19 1417.9 476.432C1417.71 476.669 1417.52 476.865 1417.31 477.02C1417.11 477.17 1416.91 477.277 1416.7 477.341H1416.1V476.268H1416.53C1416.64 476.14 1416.78 475.955 1416.93 475.714C1417.08 475.472 1417.24 475.16 1417.39 474.777C1417.54 474.39 1417.68 473.918 1417.79 473.362C1417.91 472.806 1417.99 472.15 1418.03 471.394L1418.24 467.388ZM1430.13 474.039L1432.76 467.388H1434.28L1430.76 475.68C1430.66 475.912 1430.55 476.138 1430.42 476.356C1430.3 476.571 1430.15 476.762 1429.97 476.931C1429.79 477.099 1429.57 477.234 1429.31 477.334C1429.05 477.434 1428.73 477.484 1428.34 477.484C1428.23 477.484 1428.1 477.478 1427.95 477.464C1427.8 477.455 1427.7 477.443 1427.65 477.43L1427.7 476.377C1427.75 476.386 1427.84 476.395 1427.99 476.404C1428.14 476.409 1428.24 476.411 1428.31 476.411C1428.57 476.411 1428.78 476.359 1428.93 476.254C1429.08 476.149 1429.2 476.017 1429.29 475.857C1429.38 475.693 1429.47 475.527 1429.55 475.358L1430.13 474.039ZM1427.89 467.388L1430.66 473.588L1430.99 474.812L1429.88 474.894L1426.42 467.388H1427.89ZM1441.88 467.388V468.468H1437.33V467.388H1441.88ZM1443.01 467.388V477.341H1441.7V467.388H1443.01ZM1436.88 467.388H1438.19L1437.96 472.262C1437.93 472.964 1437.88 473.59 1437.8 474.142C1437.73 474.688 1437.62 475.165 1437.48 475.57C1437.35 475.971 1437.17 476.304 1436.95 476.568C1436.73 476.828 1436.46 477.022 1436.14 477.149C1435.83 477.277 1435.45 477.341 1435.01 477.341H1434.65V476.268L1434.93 476.247C1435.18 476.229 1435.4 476.172 1435.58 476.076C1435.77 475.976 1435.93 475.826 1436.06 475.625C1436.19 475.424 1436.29 475.165 1436.38 474.846C1436.46 474.527 1436.52 474.137 1436.57 473.677C1436.62 473.212 1436.66 472.67 1436.68 472.05L1436.88 467.388ZM1446.77 475.058L1451.67 467.388H1452.99V477.341H1451.67V469.664L1446.77 477.341H1445.46V467.388H1446.77V475.058Z" fill="black"/>
<path d="M568.468 3.12012V13.0732H567.155V4.2002H562.247V13.0732H560.928V3.12012H568.468ZM574.531 9.16992H571.872V8.09668H574.531C575.046 8.09668 575.463 8.01465 575.782 7.85059C576.101 7.68652 576.334 7.45866 576.479 7.16699C576.63 6.87533 576.705 6.54264 576.705 6.16895C576.705 5.82715 576.63 5.50586 576.479 5.20508C576.334 4.9043 576.101 4.66276 575.782 4.48047C575.463 4.29362 575.046 4.2002 574.531 4.2002H572.18V13.0732H570.86V3.12012H574.531C575.283 3.12012 575.919 3.25 576.438 3.50977C576.958 3.76953 577.352 4.12956 577.621 4.58984C577.89 5.04557 578.024 5.56738 578.024 6.15527C578.024 6.79329 577.89 7.33789 577.621 7.78906C577.352 8.24023 576.958 8.58431 576.438 8.82129C575.919 9.05371 575.283 9.16992 574.531 9.16992ZM581.066 10.79L585.968 3.12012H587.287V13.0732H585.968V5.39648L581.066 13.0732H579.754V3.12012H581.066V10.79ZM590.104 3.12012H591.382L594.643 11.2344L597.896 3.12012H599.182L595.135 13.0732H594.137L590.104 3.12012ZM589.687 3.12012H590.814L590.999 9.19043V13.0732H589.687V3.12012ZM598.464 3.12012H599.592V13.0732H598.279V9.19043L598.464 3.12012ZM608.232 12V13.0732H602.962V12H608.232ZM603.229 3.12012V13.0732H601.909V3.12012H603.229ZM607.535 7.39941V8.47266H602.962V7.39941H607.535ZM608.164 3.12012V4.2002H602.962V3.12012H608.164ZM613.537 9.16992H610.878V8.09668H613.537C614.052 8.09668 614.469 8.01465 614.788 7.85059C615.107 7.68652 615.34 7.45866 615.485 7.16699C615.636 6.87533 615.711 6.54264 615.711 6.16895C615.711 5.82715 615.636 5.50586 615.485 5.20508C615.34 4.9043 615.107 4.66276 614.788 4.48047C614.469 4.29362 614.052 4.2002 613.537 4.2002H611.186V13.0732H609.866V3.12012H613.537C614.289 3.12012 614.925 3.25 615.444 3.50977C615.964 3.76953 616.358 4.12956 616.627 4.58984C616.896 5.04557 617.03 5.56738 617.03 6.15527C617.03 6.79329 616.896 7.33789 616.627 7.78906C616.358 8.24023 615.964 8.58431 615.444 8.82129C614.925 9.05371 614.289 9.16992 613.537 9.16992ZM628.364 12.0342V13.0732H621.85V12.1641L625.11 8.53418C625.511 8.08757 625.821 7.70931 626.04 7.39941C626.263 7.08496 626.418 6.80469 626.505 6.55859C626.596 6.30794 626.642 6.05273 626.642 5.79297C626.642 5.46484 626.573 5.16862 626.437 4.9043C626.304 4.63542 626.108 4.42122 625.849 4.26172C625.589 4.10221 625.274 4.02246 624.905 4.02246C624.463 4.02246 624.094 4.10905 623.798 4.28223C623.506 4.45085 623.287 4.68783 623.142 4.99316C622.996 5.2985 622.923 5.64941 622.923 6.0459H621.658C621.658 5.48535 621.781 4.97266 622.027 4.50781C622.273 4.04297 622.638 3.67383 623.121 3.40039C623.604 3.1224 624.199 2.9834 624.905 2.9834C625.534 2.9834 626.072 3.09505 626.519 3.31836C626.965 3.53711 627.307 3.84701 627.544 4.24805C627.785 4.64453 627.906 5.10938 627.906 5.64258C627.906 5.93424 627.856 6.23047 627.756 6.53125C627.66 6.82747 627.526 7.1237 627.353 7.41992C627.184 7.71615 626.986 8.00781 626.758 8.29492C626.535 8.58203 626.295 8.86458 626.04 9.14258L623.374 12.0342H628.364Z" fill="black"/>
<path d="M840.823 3.12012V13.0732H839.511V4.2002H834.603V13.0732H833.283V3.12012H840.823ZM846.887 9.16992H844.228V8.09668H846.887C847.402 8.09668 847.819 8.01465 848.138 7.85059C848.457 7.68652 848.689 7.45866 848.835 7.16699C848.985 6.87533 849.061 6.54264 849.061 6.16895C849.061 5.82715 848.985 5.50586 848.835 5.20508C848.689 4.9043 848.457 4.66276 848.138 4.48047C847.819 4.29362 847.402 4.2002 846.887 4.2002H844.535V13.0732H843.216V3.12012H846.887C847.639 3.12012 848.274 3.25 848.794 3.50977C849.313 3.76953 849.708 4.12956 849.977 4.58984C850.245 5.04557 850.38 5.56738 850.38 6.15527C850.38 6.79329 850.245 7.33789 849.977 7.78906C849.708 8.24023 849.313 8.58431 848.794 8.82129C848.274 9.05371 847.639 9.16992 846.887 9.16992ZM853.422 10.79L858.323 3.12012H859.643V13.0732H858.323V5.39648L853.422 13.0732H852.109V3.12012H853.422V10.79ZM862.459 3.12012H863.737L866.998 11.2344L870.252 3.12012H871.537L867.49 13.0732H866.492L862.459 3.12012ZM862.042 3.12012H863.17L863.354 9.19043V13.0732H862.042V3.12012ZM870.819 3.12012H871.947V13.0732H870.635V9.19043L870.819 3.12012ZM880.588 12V13.0732H875.317V12H880.588ZM875.584 3.12012V13.0732H874.265V3.12012H875.584ZM879.891 7.39941V8.47266H875.317V7.39941H879.891ZM880.52 3.12012V4.2002H875.317V3.12012H880.52ZM885.893 9.16992H883.233V8.09668H885.893C886.408 8.09668 886.825 8.01465 887.144 7.85059C887.463 7.68652 887.695 7.45866 887.841 7.16699C887.991 6.87533 888.066 6.54264 888.066 6.16895C888.066 5.82715 887.991 5.50586 887.841 5.20508C887.695 4.9043 887.463 4.66276 887.144 4.48047C886.825 4.29362 886.408 4.2002 885.893 4.2002H883.541V13.0732H882.222V3.12012H885.893C886.645 3.12012 887.28 3.25 887.8 3.50977C888.319 3.76953 888.714 4.12956 888.982 4.58984C889.251 5.04557 889.386 5.56738 889.386 6.15527C889.386 6.79329 889.251 7.33789 888.982 7.78906C888.714 8.24023 888.319 8.58431 887.8 8.82129C887.28 9.05371 886.645 9.16992 885.893 9.16992ZM896.044 7.47461H896.946C897.388 7.47461 897.753 7.40169 898.04 7.25586C898.332 7.10547 898.548 6.90267 898.689 6.64746C898.835 6.3877 898.908 6.09603 898.908 5.77246C898.908 5.38965 898.844 5.06836 898.717 4.80859C898.589 4.54883 898.398 4.35286 898.143 4.2207C897.887 4.08854 897.564 4.02246 897.172 4.02246C896.816 4.02246 896.502 4.0931 896.229 4.23438C895.96 4.37109 895.748 4.56706 895.593 4.82227C895.442 5.07747 895.367 5.37826 895.367 5.72461H894.103C894.103 5.21875 894.23 4.75846 894.485 4.34375C894.741 3.92904 895.098 3.59863 895.559 3.35254C896.023 3.10645 896.561 2.9834 897.172 2.9834C897.773 2.9834 898.3 3.09049 898.751 3.30469C899.202 3.51432 899.553 3.82878 899.804 4.24805C900.054 4.66276 900.18 5.18001 900.18 5.7998C900.18 6.05046 900.12 6.31934 900.002 6.60645C899.888 6.889 899.708 7.15332 899.462 7.39941C899.22 7.64551 898.906 7.84831 898.519 8.00781C898.131 8.16276 897.666 8.24023 897.124 8.24023H896.044V7.47461ZM896.044 8.51367V7.75488H897.124C897.757 7.75488 898.282 7.83008 898.696 7.98047C899.111 8.13086 899.437 8.33138 899.674 8.58203C899.915 8.83268 900.084 9.1084 900.18 9.40918C900.28 9.7054 900.33 10.0016 900.33 10.2979C900.33 10.7627 900.25 11.1751 900.091 11.5352C899.936 11.8952 899.715 12.2005 899.428 12.4512C899.145 12.7018 898.812 12.891 898.43 13.0186C898.047 13.1462 897.63 13.21 897.179 13.21C896.746 13.21 896.338 13.1484 895.955 13.0254C895.577 12.9023 895.242 12.7246 894.95 12.4922C894.659 12.2552 894.431 11.9658 894.267 11.624C894.103 11.2777 894.021 10.8835 894.021 10.4414H895.285C895.285 10.7878 895.36 11.0908 895.511 11.3506C895.666 11.6104 895.884 11.8132 896.167 11.959C896.454 12.1003 896.791 12.1709 897.179 12.1709C897.566 12.1709 897.899 12.1048 898.177 11.9727C898.459 11.8359 898.676 11.6309 898.826 11.3574C898.981 11.084 899.059 10.7399 899.059 10.3252C899.059 9.91048 898.972 9.57096 898.799 9.30664C898.626 9.03776 898.38 8.83952 898.061 8.71191C897.746 8.57975 897.375 8.51367 896.946 8.51367H896.044Z" fill="black"/>
<path d="M1113.18 3.12012V13.0732H1111.86V4.2002H1106.96V13.0732H1105.64V3.12012H1113.18ZM1119.24 9.16992H1116.58V8.09668H1119.24C1119.76 8.09668 1120.17 8.01465 1120.49 7.85059C1120.81 7.68652 1121.04 7.45866 1121.19 7.16699C1121.34 6.87533 1121.41 6.54264 1121.41 6.16895C1121.41 5.82715 1121.34 5.50586 1121.19 5.20508C1121.04 4.9043 1120.81 4.66276 1120.49 4.48047C1120.17 4.29362 1119.76 4.2002 1119.24 4.2002H1116.89V13.0732H1115.57V3.12012H1119.24C1119.99 3.12012 1120.63 3.25 1121.15 3.50977C1121.67 3.76953 1122.06 4.12956 1122.33 4.58984C1122.6 5.04557 1122.73 5.56738 1122.73 6.15527C1122.73 6.79329 1122.6 7.33789 1122.33 7.78906C1122.06 8.24023 1121.67 8.58431 1121.15 8.82129C1120.63 9.05371 1119.99 9.16992 1119.24 9.16992ZM1125.78 10.79L1130.68 3.12012H1132V13.0732H1130.68V5.39648L1125.78 13.0732H1124.46V3.12012H1125.78V10.79ZM1134.81 3.12012H1136.09L1139.35 11.2344L1142.61 3.12012H1143.89L1139.84 13.0732H1138.85L1134.81 3.12012ZM1134.4 3.12012H1135.52L1135.71 9.19043V13.0732H1134.4V3.12012ZM1143.17 3.12012H1144.3V13.0732H1142.99V9.19043L1143.17 3.12012ZM1152.94 12V13.0732H1147.67V12H1152.94ZM1147.94 3.12012V13.0732H1146.62V3.12012H1147.94ZM1152.24 7.39941V8.47266H1147.67V7.39941H1152.24ZM1152.87 3.12012V4.2002H1147.67V3.12012H1152.87ZM1158.25 9.16992H1155.59V8.09668H1158.25C1158.76 8.09668 1159.18 8.01465 1159.5 7.85059C1159.82 7.68652 1160.05 7.45866 1160.19 7.16699C1160.34 6.87533 1160.42 6.54264 1160.42 6.16895C1160.42 5.82715 1160.34 5.50586 1160.19 5.20508C1160.05 4.9043 1159.82 4.66276 1159.5 4.48047C1159.18 4.29362 1158.76 4.2002 1158.25 4.2002H1155.89V13.0732H1154.58V3.12012H1158.25C1159 3.12012 1159.63 3.25 1160.15 3.50977C1160.67 3.76953 1161.07 4.12956 1161.34 4.58984C1161.6 5.04557 1161.74 5.56738 1161.74 6.15527C1161.74 6.79329 1161.6 7.33789 1161.34 7.78906C1161.07 8.24023 1160.67 8.58431 1160.15 8.82129C1159.63 9.05371 1159 9.16992 1158.25 9.16992ZM1173.28 9.72363V10.7627H1166.09V10.0176L1170.54 3.12012H1171.58L1170.47 5.11621L1167.52 9.72363H1173.28ZM1171.89 3.12012V13.0732H1170.63V3.12012H1171.89Z" fill="black"/>
<path d="M1385.53 3.12012V13.0732H1384.22V4.2002H1379.31V13.0732H1377.99V3.12012H1385.53ZM1391.6 9.16992H1388.94V8.09668H1391.6C1392.11 8.09668 1392.53 8.01465 1392.85 7.85059C1393.17 7.68652 1393.4 7.45866 1393.54 7.16699C1393.69 6.87533 1393.77 6.54264 1393.77 6.16895C1393.77 5.82715 1393.69 5.50586 1393.54 5.20508C1393.4 4.9043 1393.17 4.66276 1392.85 4.48047C1392.53 4.29362 1392.11 4.2002 1391.6 4.2002H1389.24V13.0732H1387.92V3.12012H1391.6C1392.35 3.12012 1392.98 3.25 1393.5 3.50977C1394.02 3.76953 1394.42 4.12956 1394.69 4.58984C1394.95 5.04557 1395.09 5.56738 1395.09 6.15527C1395.09 6.79329 1394.95 7.33789 1394.69 7.78906C1394.42 8.24023 1394.02 8.58431 1393.5 8.82129C1392.98 9.05371 1392.35 9.16992 1391.6 9.16992ZM1398.13 10.79L1403.03 3.12012H1404.35V13.0732H1403.03V5.39648L1398.13 13.0732H1396.82V3.12012H1398.13V10.79ZM1407.17 3.12012H1408.45L1411.71 11.2344L1414.96 3.12012H1416.25L1412.2 13.0732H1411.2L1407.17 3.12012ZM1406.75 3.12012H1407.88L1408.06 9.19043V13.0732H1406.75V3.12012ZM1415.53 3.12012H1416.66V13.0732H1415.34V9.19043L1415.53 3.12012ZM1425.3 12V13.0732H1420.03V12H1425.3ZM1420.29 3.12012V13.0732H1418.97V3.12012H1420.29ZM1424.6 7.39941V8.47266H1420.03V7.39941H1424.6ZM1425.23 3.12012V4.2002H1420.03V3.12012H1425.23ZM1430.6 9.16992H1427.94V8.09668H1430.6C1431.12 8.09668 1431.53 8.01465 1431.85 7.85059C1432.17 7.68652 1432.4 7.45866 1432.55 7.16699C1432.7 6.87533 1432.78 6.54264 1432.78 6.16895C1432.78 5.82715 1432.7 5.50586 1432.55 5.20508C1432.4 4.9043 1432.17 4.66276 1431.85 4.48047C1431.53 4.29362 1431.12 4.2002 1430.6 4.2002H1428.25V13.0732H1426.93V3.12012H1430.6C1431.35 3.12012 1431.99 3.25 1432.51 3.50977C1433.03 3.76953 1433.42 4.12956 1433.69 4.58984C1433.96 5.04557 1434.09 5.56738 1434.09 6.15527C1434.09 6.79329 1433.96 7.33789 1433.69 7.78906C1433.42 8.24023 1433.03 8.58431 1432.51 8.82129C1431.99 9.05371 1431.35 9.16992 1430.6 9.16992ZM1440.51 8.33594L1439.5 8.07617L1439.99 3.12012H1445.1V4.28906H1441.07L1440.77 6.99609C1440.95 6.89128 1441.18 6.79329 1441.46 6.70215C1441.74 6.611 1442.06 6.56543 1442.43 6.56543C1442.89 6.56543 1443.3 6.64518 1443.67 6.80469C1444.03 6.95964 1444.34 7.18294 1444.59 7.47461C1444.85 7.76628 1445.05 8.11719 1445.19 8.52734C1445.33 8.9375 1445.39 9.39551 1445.39 9.90137C1445.39 10.3799 1445.33 10.8197 1445.2 11.2207C1445.07 11.6217 1444.88 11.9727 1444.62 12.2734C1444.36 12.5697 1444.03 12.7998 1443.63 12.9639C1443.24 13.1279 1442.78 13.21 1442.24 13.21C1441.84 13.21 1441.46 13.1553 1441.1 13.0459C1440.75 12.932 1440.43 12.7611 1440.14 12.5332C1439.87 12.3008 1439.64 12.0137 1439.46 11.6719C1439.29 11.3255 1439.18 10.9199 1439.13 10.4551H1440.34C1440.39 10.8288 1440.5 11.1432 1440.66 11.3984C1440.83 11.6536 1441.04 11.8473 1441.31 11.9795C1441.58 12.1071 1441.89 12.1709 1442.24 12.1709C1442.54 12.1709 1442.81 12.1185 1443.04 12.0137C1443.28 11.9089 1443.47 11.7585 1443.63 11.5625C1443.79 11.3665 1443.91 11.1296 1443.99 10.8516C1444.08 10.5736 1444.12 10.2614 1444.12 9.91504C1444.12 9.60059 1444.08 9.30892 1443.99 9.04004C1443.91 8.77116 1443.78 8.53646 1443.6 8.33594C1443.43 8.13542 1443.23 7.98047 1442.98 7.87109C1442.74 7.75716 1442.45 7.7002 1442.13 7.7002C1441.71 7.7002 1441.39 7.75716 1441.17 7.87109C1440.96 7.98503 1440.73 8.13997 1440.51 8.33594Z" fill="black"/>
<path d="M600.223 39.3945V408.256" stroke="#999999" stroke-width="0.676379"/>
<path d="M643.689 39.3945V408.256" stroke="#999999" stroke-width="0.676379"/>
<path d="M686.725 39.3945V408.256" stroke="#999999" stroke-width="0.676379"/>
<path d="M730.193 39.3945V408.256" stroke="#999999" stroke-width="0.676379"/>
<path d="M773.662 39.3945V408.256" stroke="#999999" stroke-width="0.676379"/>
<path d="M817.347 80.1572H556.535" stroke="#999999" stroke-width="0.676379"/>
<path d="M817.347 121.145H556.535" stroke="#999999" stroke-width="0.676379"/>
<path d="M817.347 162.566H556.535" stroke="#999999" stroke-width="0.676379"/>
<path d="M817.347 203.113H556.535" stroke="#999999" stroke-width="0.676379"/>
<path d="M817.347 244.102H556.535" stroke="#999999" stroke-width="0.676379"/>
<path d="M817.347 285.083H556.535" stroke="#999999" stroke-width="0.676379"/>
<path d="M817.347 326.503H556.535" stroke="#999999" stroke-width="0.676379"/>
<path d="M817.347 367.491H556.535" stroke="#999999" stroke-width="0.676379"/>
<path d="M870.99 39.3945V408.256" stroke="#999999" stroke-width="0.676379"/>
<path d="M914.457 39.3945V408.256" stroke="#999999" stroke-width="0.676379"/>
<path d="M957.494 39.3945V408.256" stroke="#999999" stroke-width="0.676379"/>
<path d="M1000.96 39.3945V408.256" stroke="#999999" stroke-width="0.676379"/>
<path d="M1044.43 39.3945V408.256" stroke="#999999" stroke-width="0.676379"/>
<path d="M1088.12 80.1572H827.305" stroke="#999999" stroke-width="0.676379"/>
<path d="M1088.12 121.145H827.305" stroke="#999999" stroke-width="0.676379"/>
<path d="M1088.12 162.566H827.305" stroke="#999999" stroke-width="0.676379"/>
<path d="M1088.12 203.113H827.305" stroke="#999999" stroke-width="0.676379"/>
<path d="M1088.12 244.102H827.305" stroke="#999999" stroke-width="0.676379"/>
<path d="M1088.12 285.083H827.305" stroke="#999999" stroke-width="0.676379"/>
<path d="M1088.12 326.503H827.305" stroke="#999999" stroke-width="0.676379"/>
<path d="M1088.12 367.491H827.305" stroke="#999999" stroke-width="0.676379"/>
<path d="M1412.52 39.3945V408.256" stroke="#999999" stroke-width="0.676379"/>
<path d="M1455.99 39.3945V408.256" stroke="#999999" stroke-width="0.676379"/>
<path d="M1499.03 39.3945V408.256" stroke="#999999" stroke-width="0.676379"/>
<path d="M1542.5 39.3945V408.256" stroke="#999999" stroke-width="0.676379"/>
<path d="M1585.97 39.3945V408.256" stroke="#999999" stroke-width="0.676379"/>
<path d="M1629.65 80.1572H1368.84" stroke="#999999" stroke-width="0.676379"/>
<path d="M1629.65 121.145H1368.84" stroke="#999999" stroke-width="0.676379"/>
<path d="M1629.65 162.566H1368.84" stroke="#999999" stroke-width="0.676379"/>
<path d="M1629.65 203.113H1368.84" stroke="#999999" stroke-width="0.676379"/>
<path d="M1629.65 244.102H1368.84" stroke="#999999" stroke-width="0.676379"/>
<path d="M1629.65 285.083H1368.84" stroke="#999999" stroke-width="0.676379"/>
<path d="M1629.65 326.503H1368.84" stroke="#999999" stroke-width="0.676379"/>
<path d="M1629.65 367.491H1368.84" stroke="#999999" stroke-width="0.676379"/>
<path d="M1141.76 39.3945V408.256" stroke="#999999" stroke-width="0.676379"/>
<path d="M1185.22 39.3945V408.256" stroke="#999999" stroke-width="0.676379"/>
<path d="M1228.26 39.3945V408.256" stroke="#999999" stroke-width="0.676379"/>
<path d="M1271.73 39.3945V408.256" stroke="#999999" stroke-width="0.676379"/>
<path d="M1315.2 39.3945V408.256" stroke="#999999" stroke-width="0.676379"/>
<path d="M1358.88 80.1572H1098.07" stroke="#999999" stroke-width="0.676379"/>
<path d="M1358.88 121.145H1098.07" stroke="#999999" stroke-width="0.676379"/>
<path d="M1358.88 162.566H1098.07" stroke="#999999" stroke-width="0.676379"/>
<path d="M1358.88 203.113H1098.07" stroke="#999999" stroke-width="0.676379"/>
<path d="M1358.88 244.102H1098.07" stroke="#999999" stroke-width="0.676379"/>
<path d="M1358.88 285.083H1098.07" stroke="#999999" stroke-width="0.676379"/>
<path d="M1358.88 326.503H1098.07" stroke="#999999" stroke-width="0.676379"/>
<path d="M1358.88 367.491H1098.07" stroke="#999999" stroke-width="0.676379"/>
<path d="M603 620.72H560.613V682.225H603V620.72Z" fill="#CCCCCC"/>
<path d="M731.061 499.512H710.318V519.713H731.061V499.512Z" fill="#CCCCCC"/>
<path d="M902.41 499.512H860.023V539.373H902.41V499.512Z" fill="#CCCCCC"/>
<path d="M1073.76 499.512H1008.83V560.296H1073.76V499.512Z" fill="#CCCCCC"/>
<path d="M1073.76 620.205H1008.83V681.71H1073.76V620.205Z" fill="#CCCCCC"/>
<path d="M1138.74 560.297H1073.81V621.496H1138.74V560.297Z" fill="#CCCCCC"/>
<path d="M1286.08 621.801H1221.15V683H1286.08V621.801Z" fill="#F2F2F2"/>
<path d="M1138.69 499.512H1073.76V561.017H1138.69V499.512Z" fill="#E5E5E5"/>
<path d="M1221.12 621.494H1156.19V683H1221.12V621.494Z" fill="#E5E5E5"/>
<path d="M1073.81 560.297H1008.88V621.496H1073.81V560.297Z" fill="#E5E5E5"/>
<path d="M1138.69 620.205H1073.76V681.404H1138.69V620.205Z" fill="#E5E5E5"/>
<path d="M1284.97 499.512H1156.19V621.494H1284.97V499.512Z" fill="#CCCCCC"/>
<path d="M688.674 620.72H591.275V682.225H688.674V620.72Z" fill="#B2B2B2"/>
<path d="M689.071 499.368H560.162V681.774H689.071V499.368Z" stroke="black" stroke-width="0.901839"/>
<path d="M581.678 499.26V681.882" stroke="#999999" stroke-width="0.901839"/>
<path d="M603.205 499.26V681.882" stroke="#999999" stroke-width="0.901839"/>
<path d="M624.508 499.26V681.882" stroke="#999999" stroke-width="0.901839"/>
<path d="M646.025 499.26V681.882" stroke="#999999" stroke-width="0.901839"/>
<path d="M667.553 499.26V681.882" stroke="#999999" stroke-width="0.901839"/>
<path d="M689.178 519.442H560.053" stroke="#999999" stroke-width="0.901839"/>
<path d="M689.178 539.734H560.053" stroke="#999999" stroke-width="0.901839"/>
<path d="M689.178 560.242H560.053" stroke="#999999" stroke-width="0.901839"/>
<path d="M689.178 580.316H560.053" stroke="#999999" stroke-width="0.901839"/>
<path d="M689.178 600.608H560.053" stroke="#999999" stroke-width="0.901839"/>
<path d="M689.178 620.899H560.053" stroke="#999999" stroke-width="0.901839"/>
<path d="M689.178 641.407H560.053" stroke="#999999" stroke-width="0.901839"/>
<path d="M689.178 661.699H560.053" stroke="#999999" stroke-width="0.901839"/>
<path d="M838.794 499.368H709.885V681.774H838.794V499.368Z" stroke="black" stroke-width="0.901839"/>
<path d="M731.4 499.26V681.882" stroke="#999999" stroke-width="0.901839"/>
<path d="M752.93 499.26V681.882" stroke="#999999" stroke-width="0.901839"/>
<path d="M774.23 499.26V681.882" stroke="#999999" stroke-width="0.901839"/>
<path d="M795.75 499.26V681.882" stroke="#999999" stroke-width="0.901839"/>
<path d="M817.275 499.26V681.882" stroke="#999999" stroke-width="0.901839"/>
<path d="M838.903 519.442H709.777" stroke="#999999" stroke-width="0.901839"/>
<path d="M838.903 539.734H709.777" stroke="#999999" stroke-width="0.901839"/>
<path d="M838.903 560.242H709.777" stroke="#999999" stroke-width="0.901839"/>
<path d="M838.903 580.316H709.777" stroke="#999999" stroke-width="0.901839"/>
<path d="M838.903 600.608H709.777" stroke="#999999" stroke-width="0.901839"/>
<path d="M838.903 620.899H709.777" stroke="#999999" stroke-width="0.901839"/>
<path d="M838.903 641.407H709.777" stroke="#999999" stroke-width="0.901839"/>
<path d="M838.903 661.699H709.777" stroke="#999999" stroke-width="0.901839"/>
<path d="M687.565 500.648L560.82 681.449" stroke="#FC786E" stroke-width="0.901839"/>
<path d="M836.547 500.648L709.803 681.449" stroke="#FC786E" stroke-width="0.901839"/>
<path d="M988.598 500.648L861.854 681.449" stroke="#FC786E" stroke-width="0.901839"/>
<path d="M988.514 499.368H859.605V681.774H988.514V499.368Z" stroke="black" stroke-width="0.901839"/>
<path d="M881.127 499.26V681.882" stroke="#999999" stroke-width="0.901839"/>
<path d="M902.652 499.26V681.882" stroke="#999999" stroke-width="0.901839"/>
<path d="M923.953 499.26V681.882" stroke="#999999" stroke-width="0.901839"/>
<path d="M945.473 499.26V681.882" stroke="#999999" stroke-width="0.901839"/>
<path d="M966.998 499.26V681.882" stroke="#999999" stroke-width="0.901839"/>
<path d="M988.625 519.442H859.5" stroke="#999999" stroke-width="0.901839"/>
<path d="M988.625 539.734H859.5" stroke="#999999" stroke-width="0.901839"/>
<path d="M988.625 560.242H859.5" stroke="#999999" stroke-width="0.901839"/>
<path d="M988.625 580.316H859.5" stroke="#999999" stroke-width="0.901839"/>
<path d="M988.625 600.608H859.5" stroke="#999999" stroke-width="0.901839"/>
<path d="M988.625 620.899H859.5" stroke="#999999" stroke-width="0.901839"/>
<path d="M988.625 641.407H859.5" stroke="#999999" stroke-width="0.901839"/>
<path d="M988.625 661.699H859.5" stroke="#999999" stroke-width="0.901839"/>
<path d="M1138.24 499.368H1009.33V681.774H1138.24V499.368Z" stroke="black" stroke-width="0.901839"/>
<path d="M1030.85 499.26V681.882" stroke="#999999" stroke-width="0.901839"/>
<path d="M1052.38 499.26V681.882" stroke="#999999" stroke-width="0.901839"/>
<path d="M1073.68 499.26V681.882" stroke="#999999" stroke-width="0.901839"/>
<path d="M1095.2 499.26V681.882" stroke="#999999" stroke-width="0.901839"/>
<path d="M1116.72 499.26V681.882" stroke="#999999" stroke-width="0.901839"/>
<path d="M1138.35 519.442H1009.22" stroke="#999999" stroke-width="0.901839"/>
<path d="M1138.35 539.734H1009.22" stroke="#999999" stroke-width="0.901839"/>
<path d="M1138.35 560.242H1009.22" stroke="#999999" stroke-width="0.901839"/>
<path d="M1138.35 580.316H1009.22" stroke="#999999" stroke-width="0.901839"/>
<path d="M1138.35 600.608H1009.22" stroke="#999999" stroke-width="0.901839"/>
<path d="M1138.35 620.899H1009.22" stroke="#999999" stroke-width="0.901839"/>
<path d="M1138.35 641.407H1009.22" stroke="#999999" stroke-width="0.901839"/>
<path d="M1138.35 661.699H1009.22" stroke="#999999" stroke-width="0.901839"/>
<path d="M1285.6 499.368H1156.69V681.774H1285.6V499.368Z" stroke="black" stroke-width="0.901839"/>
<path d="M1178.21 499.26V681.882" stroke="#999999" stroke-width="0.901839"/>
<path d="M1199.74 499.26V681.882" stroke="#999999" stroke-width="0.901839"/>
<path d="M1221.04 499.26V681.882" stroke="#999999" stroke-width="0.901839"/>
<path d="M1242.55 499.26V681.882" stroke="#999999" stroke-width="0.901839"/>
<path d="M1264.08 499.26V681.882" stroke="#999999" stroke-width="0.901839"/>
<path d="M1285.71 519.442H1156.58" stroke="#999999" stroke-width="0.901839"/>
<path d="M1285.71 539.734H1156.58" stroke="#999999" stroke-width="0.901839"/>
<path d="M1285.71 560.242H1156.58" stroke="#999999" stroke-width="0.901839"/>
<path d="M1285.71 580.316H1156.58" stroke="#999999" stroke-width="0.901839"/>
<path d="M1285.71 600.608H1156.58" stroke="#999999" stroke-width="0.901839"/>
<path d="M1285.71 620.899H1156.58" stroke="#999999" stroke-width="0.901839"/>
<path d="M1285.71 641.407H1156.58" stroke="#999999" stroke-width="0.901839"/>
<path d="M1285.71 661.699H1156.58" stroke="#999999" stroke-width="0.901839"/>
<path d="M1311.66 677.606L1310 677.137L1310.32 676.181L1311.96 676.84L1311.85 675H1312.89L1312.78 676.876L1314.38 676.227L1314.7 677.191L1313 677.66L1314.11 679.067L1313.27 679.663L1312.31 678.12L1311.36 679.608L1310.52 679.04L1311.67 677.606H1311.66ZM1324.41 682.693H1322.82V676.281H1319.74V682.693H1318.15V675H1324.41V682.693ZM1330.85 679.888C1330.85 680.772 1330.65 681.475 1330.25 682.007C1329.85 682.539 1329.31 682.801 1328.62 682.801C1328.05 682.801 1327.58 682.603 1327.23 682.197V684.893H1325.7V676.975H1327.12L1327.17 677.534C1327.54 677.092 1328.03 676.867 1328.62 676.867C1329.33 676.867 1329.88 677.128 1330.26 677.651C1330.65 678.174 1330.85 678.896 1330.85 679.807V679.888ZM1328.23 681.565C1328.96 681.565 1329.32 680.97 1329.32 679.771C1329.32 679.239 1329.23 678.833 1329.04 678.535C1328.85 678.247 1328.58 678.102 1328.22 678.102C1327.74 678.102 1327.41 678.283 1327.23 678.652V680.997C1327.41 681.376 1327.75 681.565 1328.23 681.565ZM1335.24 676.975H1336.77V682.693H1335.24V679.166L1333.33 682.693H1331.8V676.975H1333.33V680.501L1335.24 676.975ZM1338.04 682.693V676.975H1340.43C1341.2 676.975 1341.81 677.11 1342.22 677.39C1342.64 677.669 1342.85 678.057 1342.85 678.571C1342.85 678.833 1342.75 679.076 1342.58 679.284C1342.41 679.491 1342.15 679.653 1341.82 679.771C1342.22 679.852 1342.55 679.996 1342.78 680.231C1343.02 680.465 1343.13 680.736 1343.13 681.069C1343.13 681.601 1342.94 682.007 1342.53 682.287C1342.13 682.566 1341.55 682.702 1340.79 682.702H1338.04V682.693ZM1339.56 679.293H1340.51C1341.04 679.293 1341.31 679.112 1341.31 678.779C1341.31 678.571 1341.24 678.427 1341.1 678.337C1340.95 678.247 1340.73 678.202 1340.43 678.202H1339.56V679.293ZM1339.56 680.321V681.475H1340.8C1341.34 681.475 1341.61 681.286 1341.61 680.907C1341.61 680.528 1341.35 680.33 1340.83 680.321H1339.56ZM1346.7 682.801C1345.86 682.801 1345.17 682.539 1344.65 682.025C1344.13 681.511 1343.86 680.826 1343.86 679.969V679.825C1343.86 679.248 1343.96 678.734 1344.19 678.283C1344.41 677.832 1344.72 677.48 1345.14 677.237C1345.54 676.993 1346.01 676.867 1346.52 676.867C1347.31 676.867 1347.92 677.11 1348.37 677.606C1348.82 678.102 1349.05 678.797 1349.05 679.708V680.33H1345.41C1345.45 680.7 1345.6 681.006 1345.86 681.232C1346.11 681.457 1346.42 681.574 1346.8 681.574C1347.39 681.574 1347.85 681.358 1348.18 680.934L1348.93 681.773C1348.71 682.097 1348.39 682.35 1348 682.53C1347.62 682.711 1347.18 682.801 1346.7 682.801H1346.7ZM1346.52 678.102C1346.22 678.102 1345.97 678.202 1345.79 678.409C1345.6 678.616 1345.48 678.905 1345.42 679.293H1347.55V679.166C1347.55 678.824 1347.45 678.562 1347.28 678.382C1347.1 678.193 1346.86 678.102 1346.53 678.102H1346.52ZM1350.01 681.466C1350.35 681.096 1350.58 680.736 1350.71 680.375C1350.84 680.014 1350.9 679.509 1350.92 678.851L1350.96 676.984H1355.16V681.466H1355.98V684.415H1354.46V682.702H1351.07V684.415H1349.51V681.466H1350H1350.01ZM1352.44 678.932C1352.4 679.978 1352.2 680.826 1351.81 681.466H1353.64V678.247H1352.45V678.932H1352.44ZM1359.38 682.801C1358.55 682.801 1357.86 682.539 1357.34 682.025C1356.81 681.511 1356.54 680.826 1356.54 679.969V679.825C1356.54 679.248 1356.65 678.734 1356.88 678.283C1357.1 677.832 1357.41 677.48 1357.82 677.237C1358.23 676.993 1358.7 676.867 1359.21 676.867C1360 676.867 1360.61 677.11 1361.06 677.606C1361.51 678.102 1361.74 678.797 1361.74 679.708V680.33H1358.1C1358.14 680.7 1358.29 681.006 1358.55 681.232C1358.8 681.457 1359.11 681.574 1359.49 681.574C1360.08 681.574 1360.54 681.358 1360.87 680.934L1361.62 681.773C1361.4 682.097 1361.08 682.35 1360.69 682.53C1360.3 682.711 1359.87 682.801 1359.39 682.801H1359.38ZM1359.21 678.102C1358.91 678.102 1358.66 678.202 1358.47 678.409C1358.28 678.616 1358.17 678.905 1358.11 679.293H1360.24V679.166C1360.24 678.824 1360.14 678.562 1359.97 678.382C1359.79 678.193 1359.55 678.102 1359.22 678.102H1359.21ZM1367.56 682.693H1366.03V680.501H1364.14V682.693H1362.61V676.975H1364.14V679.266H1366.03V676.975H1367.56V682.693ZM1373.7 682.693H1372.16V680.501H1370.27V682.693H1368.75V676.975H1370.27V679.266H1372.16V676.975H1373.7V682.693ZM1376.51 678.652H1377.6C1378.1 678.652 1378.53 678.734 1378.9 678.905C1379.27 679.067 1379.56 679.311 1379.76 679.617C1379.96 679.924 1380.05 680.285 1380.05 680.691C1380.05 681.295 1379.83 681.782 1379.39 682.143C1378.95 682.512 1378.33 682.693 1377.57 682.693H1374.97V676.975H1376.5V678.652H1376.51ZM1376.51 679.888V681.475H1377.59C1377.9 681.475 1378.12 681.403 1378.29 681.268C1378.45 681.123 1378.53 680.934 1378.53 680.691C1378.53 680.447 1378.45 680.249 1378.3 680.104C1378.13 679.96 1377.9 679.888 1377.59 679.888H1376.51ZM1382.49 682.702H1380.97V676.984H1382.49V682.702ZM1386.47 682.81C1385.63 682.81 1384.94 682.548 1384.42 682.034C1383.9 681.52 1383.63 680.835 1383.63 679.978V679.834C1383.63 679.257 1383.73 678.743 1383.96 678.292C1384.19 677.841 1384.49 677.489 1384.91 677.246C1385.31 677.002 1385.78 676.876 1386.3 676.876C1387.08 676.876 1387.69 677.119 1388.14 677.615C1388.6 678.111 1388.82 678.806 1388.82 679.717V680.339H1385.18C1385.22 680.709 1385.38 681.015 1385.63 681.241C1385.88 681.466 1386.19 681.583 1386.58 681.583C1387.16 681.583 1387.62 681.367 1387.96 680.943L1388.7 681.782C1388.48 682.106 1388.16 682.359 1387.77 682.539C1387.39 682.72 1386.95 682.81 1386.48 682.81H1386.47ZM1386.3 678.111C1385.99 678.111 1385.75 678.211 1385.56 678.418C1385.37 678.625 1385.25 678.914 1385.2 679.302H1387.32V679.176C1387.32 678.833 1387.22 678.571 1387.05 678.391C1386.87 678.202 1386.63 678.111 1386.3 678.111H1386.3ZM1394.76 681.574C1395.04 681.574 1395.28 681.493 1395.45 681.34C1395.63 681.187 1395.72 680.979 1395.72 680.718H1397.15C1397.15 681.105 1397.05 681.457 1396.84 681.782C1396.63 682.106 1396.34 682.35 1395.98 682.53C1395.62 682.711 1395.22 682.801 1394.78 682.801C1393.96 682.801 1393.32 682.539 1392.85 682.025C1392.38 681.502 1392.14 680.79 1392.14 679.87V679.771C1392.14 678.887 1392.37 678.183 1392.84 677.66C1393.31 677.137 1393.95 676.876 1394.77 676.876C1395.49 676.876 1396.06 677.074 1396.5 677.48C1396.93 677.886 1397.14 678.427 1397.15 679.103H1395.72C1395.72 678.806 1395.62 678.571 1395.45 678.382C1395.28 678.193 1395.04 678.102 1394.75 678.102C1394.4 678.102 1394.13 678.229 1393.95 678.49C1393.77 678.752 1393.68 679.166 1393.68 679.753V679.915C1393.68 680.501 1393.77 680.925 1393.95 681.187C1394.13 681.448 1394.4 681.574 1394.77 681.574H1394.76ZM1397.78 679.789C1397.78 679.221 1397.89 678.716 1398.11 678.274C1398.33 677.832 1398.64 677.489 1399.06 677.246C1399.47 677.002 1399.94 676.885 1400.48 676.885C1401.26 676.885 1401.88 677.119 1402.37 677.597C1402.85 678.066 1403.12 678.707 1403.19 679.518V679.906C1403.2 680.781 1402.95 681.484 1402.47 682.016C1401.98 682.548 1401.32 682.81 1400.49 682.81C1399.66 682.81 1399.01 682.548 1398.52 682.016C1398.02 681.484 1397.78 680.772 1397.78 679.861V679.789H1397.78ZM1399.31 679.897C1399.31 680.438 1399.41 680.853 1399.62 681.142C1399.82 681.43 1400.11 681.574 1400.49 681.574C1400.87 681.574 1401.15 681.43 1401.36 681.151C1401.56 680.871 1401.67 680.411 1401.67 679.789C1401.67 679.257 1401.56 678.842 1401.36 678.553C1401.15 678.265 1400.86 678.111 1400.48 678.111C1400.1 678.111 1399.82 678.256 1399.62 678.544C1399.41 678.833 1399.31 679.284 1399.31 679.897ZM1408.95 682.702H1407.43V680.907C1407.14 680.961 1406.88 680.988 1406.63 680.988C1405.77 680.988 1405.12 680.808 1404.68 680.438C1404.25 680.068 1404.03 679.536 1404.02 678.833V676.993H1405.54V678.833C1405.54 679.166 1405.62 679.401 1405.78 679.545C1405.95 679.69 1406.23 679.762 1406.63 679.762C1406.88 679.762 1407.16 679.735 1407.43 679.672V676.993H1408.95V682.711V682.702ZM1412.76 682.81C1411.92 682.81 1411.23 682.548 1410.71 682.034C1410.19 681.52 1409.91 680.835 1409.91 679.978V679.834C1409.91 679.257 1410.02 678.743 1410.25 678.292C1410.47 677.841 1410.78 677.489 1411.2 677.246C1411.6 677.002 1412.07 676.876 1412.58 676.876C1413.37 676.876 1413.98 677.119 1414.43 677.615C1414.88 678.111 1415.11 678.806 1415.11 679.717V680.339H1411.47C1411.51 680.709 1411.66 681.015 1411.92 681.241C1412.17 681.466 1412.48 681.583 1412.86 681.583C1413.45 681.583 1413.91 681.367 1414.24 680.943L1414.99 681.782C1414.77 682.106 1414.45 682.359 1414.06 682.539C1413.68 682.72 1413.24 682.81 1412.76 682.81H1412.76ZM1412.58 678.111C1412.28 678.111 1412.03 678.211 1411.84 678.418C1411.66 678.625 1411.54 678.914 1411.48 679.302H1413.61V679.176C1413.61 678.833 1413.51 678.571 1413.34 678.391C1413.16 678.202 1412.92 678.111 1412.59 678.111H1412.58ZM1420.66 678.22H1418.83V682.702H1417.3V678.22H1415.5V676.984H1420.66V678.22ZM1424.66 682.702C1424.59 682.566 1424.54 682.395 1424.51 682.188C1424.14 682.603 1423.66 682.81 1423.06 682.81C1422.5 682.81 1422.04 682.648 1421.67 682.323C1421.3 681.998 1421.12 681.592 1421.12 681.096C1421.12 680.492 1421.35 680.023 1421.8 679.699C1422.25 679.374 1422.9 679.212 1423.75 679.212H1424.45V678.887C1424.45 678.625 1424.38 678.409 1424.25 678.256C1424.11 678.102 1423.89 678.021 1423.6 678.021C1423.34 678.021 1423.14 678.084 1423 678.211C1422.86 678.337 1422.78 678.499 1422.78 678.716H1421.26C1421.26 678.382 1421.36 678.075 1421.57 677.796C1421.77 677.516 1422.06 677.291 1422.43 677.128C1422.8 676.966 1423.23 676.885 1423.69 676.885C1424.39 676.885 1424.95 677.065 1425.36 677.417C1425.78 677.769 1425.99 678.265 1425.99 678.914V681.394C1425.99 681.935 1426.07 682.35 1426.21 682.63V682.72H1424.67L1424.66 682.702ZM1423.4 681.638C1423.62 681.638 1423.83 681.583 1424.02 681.484C1424.21 681.385 1424.35 681.25 1424.44 681.078V680.095H1423.88C1423.11 680.095 1422.7 680.357 1422.66 680.889V680.979C1422.66 681.169 1422.72 681.322 1422.86 681.448C1422.99 681.574 1423.17 681.638 1423.41 681.638H1423.4ZM1432.1 682.702H1430.57V680.51H1428.67V682.702H1427.15V676.984H1428.67V679.275H1430.57V676.984H1432.1V682.702ZM1436.73 676.984H1438.25V682.702H1436.73V679.176L1434.81 682.702H1433.28V676.984H1434.81V680.51L1436.73 676.984ZM1444.18 676.984V682.702H1442.66V680.727H1441.7L1440.6 682.702H1439.04L1440.29 680.465C1439.95 680.303 1439.68 680.095 1439.5 679.825C1439.31 679.554 1439.22 679.248 1439.22 678.896C1439.22 678.346 1439.43 677.886 1439.86 677.534C1440.28 677.182 1440.86 676.993 1441.58 676.984H1444.18H1444.18ZM1441.61 679.653H1442.66V678.211H1441.67C1441.4 678.211 1441.18 678.283 1441.01 678.427C1440.84 678.571 1440.76 678.743 1440.76 678.95C1440.76 679.157 1440.84 679.32 1441 679.455C1441.16 679.59 1441.37 679.653 1441.62 679.663L1441.61 679.653ZM1448.16 676.984H1449.69V681.466H1451.6V676.984H1453.13V681.484H1453.99L1453.88 684.397H1452.45V682.702H1448.15V676.984H1448.16ZM1454.85 682.702V676.984H1457.24C1458.02 676.984 1458.62 677.119 1459.04 677.399C1459.45 677.678 1459.66 678.066 1459.66 678.58C1459.66 678.842 1459.57 679.085 1459.4 679.293C1459.23 679.5 1458.97 679.663 1458.63 679.78C1459.04 679.861 1459.36 680.005 1459.6 680.24C1459.83 680.474 1459.95 680.745 1459.95 681.078C1459.95 681.61 1459.75 682.016 1459.34 682.296C1458.95 682.575 1458.36 682.711 1457.6 682.711H1454.85V682.702ZM1456.38 679.302H1457.32C1457.86 679.302 1458.13 679.121 1458.13 678.788C1458.13 678.58 1458.05 678.436 1457.91 678.346C1457.77 678.256 1457.54 678.211 1457.24 678.211H1456.38V679.302ZM1456.38 680.33V681.484H1457.61C1458.15 681.484 1458.42 681.295 1458.42 680.916C1458.42 680.537 1458.16 680.339 1457.65 680.33H1456.38ZM1463.51 682.81C1462.67 682.81 1461.99 682.548 1461.46 682.034C1460.94 681.52 1460.67 680.835 1460.67 679.978V679.834C1460.67 679.257 1460.78 678.743 1461 678.292C1461.23 677.841 1461.54 677.489 1461.95 677.246C1462.36 677.002 1462.83 676.876 1463.34 676.876C1464.12 676.876 1464.74 677.119 1465.19 677.615C1465.64 678.111 1465.86 678.806 1465.86 679.717V680.339H1462.22C1462.27 680.709 1462.42 681.015 1462.67 681.241C1462.92 681.466 1463.23 681.583 1463.62 681.583C1464.21 681.583 1464.67 681.367 1465 680.943L1465.75 681.782C1465.52 682.106 1465.21 682.359 1464.82 682.539C1464.43 682.72 1464 682.81 1463.52 682.81H1463.51ZM1463.34 678.111C1463.03 678.111 1462.79 678.211 1462.6 678.418C1462.41 678.625 1462.29 678.914 1462.24 679.302H1464.37V679.176C1464.37 678.833 1464.27 678.571 1464.1 678.391C1463.92 678.202 1463.67 678.111 1463.35 678.111H1463.34ZM1471.43 678.22H1469.6V682.702H1468.07V678.22H1466.26V676.984H1471.43V678.22ZM1471.8 679.798C1471.8 679.23 1471.91 678.725 1472.12 678.283C1472.34 677.841 1472.66 677.498 1473.07 677.255C1473.49 677.011 1473.95 676.894 1474.5 676.894C1475.27 676.894 1475.89 677.128 1476.38 677.606C1476.87 678.075 1477.14 678.716 1477.2 679.527V679.915C1477.21 680.79 1476.97 681.493 1476.48 682.025C1475.99 682.557 1475.33 682.819 1474.5 682.819C1473.67 682.819 1473.03 682.557 1472.53 682.025C1472.03 681.493 1471.79 680.781 1471.79 679.87V679.798H1471.8ZM1473.32 679.906C1473.32 680.447 1473.42 680.862 1473.63 681.151C1473.84 681.439 1474.13 681.583 1474.5 681.583C1474.88 681.583 1475.16 681.439 1475.37 681.16C1475.58 680.88 1475.69 680.42 1475.69 679.798C1475.69 679.266 1475.58 678.851 1475.37 678.562C1475.16 678.274 1474.87 678.12 1474.5 678.12C1474.12 678.12 1473.84 678.265 1473.63 678.553C1473.42 678.842 1473.32 679.293 1473.32 679.906ZM1478.25 682.711V676.993H1480.64C1481.41 676.993 1482.02 677.128 1482.43 677.408C1482.85 677.687 1483.05 678.075 1483.05 678.589C1483.05 678.851 1482.96 679.094 1482.79 679.302C1482.62 679.509 1482.36 679.672 1482.03 679.789C1482.43 679.87 1482.76 680.014 1482.99 680.249C1483.23 680.483 1483.34 680.754 1483.34 681.087C1483.34 681.619 1483.14 682.025 1482.74 682.305C1482.34 682.584 1481.76 682.72 1481 682.72H1478.25V682.711ZM1479.77 679.311H1480.72C1481.25 679.311 1481.52 679.13 1481.52 678.797C1481.52 678.589 1481.45 678.445 1481.3 678.355C1481.16 678.265 1480.93 678.22 1480.64 678.22H1479.77V679.311ZM1479.77 680.339V681.493H1481.01C1481.55 681.493 1481.82 681.304 1481.82 680.925C1481.82 680.546 1481.56 680.348 1481.04 680.339H1479.77ZM1490.41 676.993H1491.94V682.711H1490.41V679.185L1488.5 682.711H1486.97V676.993H1488.5V680.519L1490.41 676.993ZM1495.48 681.583C1495.76 681.583 1496 681.502 1496.17 681.349C1496.35 681.196 1496.44 680.988 1496.44 680.727H1497.87C1497.87 681.114 1497.76 681.466 1497.56 681.791C1497.35 682.116 1497.06 682.359 1496.7 682.539C1496.34 682.72 1495.94 682.81 1495.5 682.81C1494.68 682.81 1494.04 682.548 1493.57 682.034C1493.1 681.511 1492.86 680.799 1492.86 679.879V679.78C1492.86 678.896 1493.09 678.193 1493.56 677.669C1494.03 677.146 1494.67 676.885 1495.49 676.885C1496.2 676.885 1496.78 677.083 1497.21 677.489C1497.65 677.895 1497.86 678.436 1497.87 679.112H1496.44C1496.44 678.815 1496.34 678.58 1496.17 678.391C1496 678.202 1495.76 678.111 1495.47 678.111C1495.12 678.111 1494.85 678.238 1494.67 678.499C1494.49 678.761 1494.4 679.176 1494.4 679.762V679.924C1494.4 680.51 1494.49 680.934 1494.67 681.196C1494.85 681.457 1495.12 681.583 1495.49 681.583H1495.48ZM1503.72 682.711H1502.18V678.229H1500.27V682.711H1498.75V676.993H1503.72V682.711ZM1504.64 679.798C1504.64 679.23 1504.75 678.725 1504.97 678.283C1505.19 677.841 1505.5 677.498 1505.92 677.255C1506.33 677.011 1506.8 676.894 1507.34 676.894C1508.12 676.894 1508.74 677.128 1509.23 677.606C1509.71 678.075 1509.98 678.716 1510.05 679.527V679.915C1510.05 680.79 1509.81 681.493 1509.32 682.025C1508.84 682.557 1508.18 682.819 1507.35 682.819C1506.52 682.819 1505.87 682.557 1505.37 682.025C1504.88 681.493 1504.63 680.781 1504.63 679.87V679.798H1504.64ZM1506.17 679.906C1506.17 680.447 1506.27 680.862 1506.47 681.151C1506.68 681.439 1506.97 681.583 1507.35 681.583C1507.73 681.583 1508.01 681.439 1508.22 681.16C1508.42 680.88 1508.53 680.42 1508.53 679.798C1508.53 679.266 1508.42 678.851 1508.22 678.562C1508.01 678.274 1507.72 678.12 1507.34 678.12C1506.96 678.12 1506.68 678.265 1506.47 678.553C1506.27 678.842 1506.17 679.293 1506.17 679.906ZM1515.91 676.993V682.711H1514.38V678.229H1513.04L1512.94 679.996C1512.88 680.934 1512.7 681.619 1512.38 682.052C1512.07 682.485 1511.61 682.702 1510.99 682.711H1510.48L1510.46 681.466L1510.65 681.448C1510.92 681.43 1511.13 681.268 1511.25 680.961C1511.38 680.655 1511.46 680.14 1511.49 679.41L1511.6 676.984H1515.91V676.993ZM1518.71 678.67H1519.8C1520.3 678.67 1520.73 678.752 1521.1 678.923C1521.47 679.085 1521.76 679.329 1521.96 679.635C1522.16 679.942 1522.26 680.303 1522.26 680.709C1522.26 681.313 1522.03 681.8 1521.59 682.161C1521.15 682.53 1520.53 682.711 1519.77 682.711H1517.17V676.993H1518.7V678.67H1518.71ZM1518.71 679.906V681.493H1519.79C1520.1 681.493 1520.33 681.421 1520.49 681.286C1520.65 681.142 1520.73 680.952 1520.73 680.709C1520.73 680.465 1520.65 680.267 1520.5 680.122C1520.34 679.978 1520.1 679.906 1519.79 679.906H1518.71ZM1525.4 679.302C1525.88 679.284 1526.12 679.085 1526.12 678.689C1526.12 678.49 1526.05 678.328 1525.92 678.22C1525.78 678.111 1525.6 678.057 1525.36 678.057C1525.12 678.057 1524.91 678.111 1524.75 678.211C1524.59 678.319 1524.51 678.463 1524.51 678.652H1522.99C1522.99 678.138 1523.2 677.715 1523.63 677.39C1524.06 677.065 1524.61 676.903 1525.28 676.903C1526.02 676.903 1526.59 677.047 1527.01 677.336C1527.43 677.624 1527.64 678.039 1527.64 678.571C1527.64 678.824 1527.57 679.058 1527.42 679.275C1527.26 679.491 1527.05 679.653 1526.77 679.789C1527.42 680.014 1527.74 680.456 1527.74 681.114C1527.74 681.638 1527.51 682.061 1527.06 682.368C1526.61 682.675 1526.02 682.837 1525.27 682.837C1524.57 682.837 1524.01 682.675 1523.56 682.35C1523.1 682.025 1522.89 681.592 1522.89 681.042H1524.41C1524.41 681.232 1524.5 681.394 1524.67 681.511C1524.85 681.629 1525.07 681.692 1525.35 681.692C1525.63 681.692 1525.84 681.629 1525.98 681.502C1526.13 681.376 1526.21 681.214 1526.21 681.006C1526.21 680.754 1526.13 680.573 1525.99 680.474C1525.85 680.366 1525.63 680.312 1525.34 680.312H1524.51V679.32H1525.4L1525.4 679.302ZM1528.44 679.807C1528.44 679.239 1528.55 678.734 1528.77 678.292C1528.98 677.85 1529.3 677.507 1529.72 677.264C1530.13 677.02 1530.6 676.903 1531.14 676.903C1531.92 676.903 1532.54 677.137 1533.02 677.615C1533.51 678.084 1533.78 678.725 1533.85 679.536V679.924C1533.85 680.799 1533.61 681.502 1533.12 682.034C1532.64 682.566 1531.98 682.828 1531.15 682.828C1530.32 682.828 1529.67 682.566 1529.17 682.034C1528.68 681.502 1528.43 680.79 1528.43 679.879V679.807H1528.44ZM1529.97 679.915C1529.97 680.456 1530.07 680.871 1530.27 681.16C1530.48 681.448 1530.77 681.592 1531.15 681.592C1531.53 681.592 1531.81 681.448 1532.01 681.169C1532.22 680.889 1532.33 680.429 1532.33 679.807C1532.33 679.275 1532.22 678.86 1532.01 678.571C1531.81 678.283 1531.52 678.129 1531.14 678.129C1530.76 678.129 1530.48 678.274 1530.27 678.562C1530.07 678.851 1529.97 679.302 1529.97 679.915ZM1534.89 682.72V677.002H1537.28C1538.06 677.002 1538.66 677.137 1539.08 677.417C1539.49 677.696 1539.7 678.084 1539.7 678.598C1539.7 678.86 1539.61 679.103 1539.44 679.311C1539.27 679.518 1539 679.681 1538.67 679.798C1539.08 679.879 1539.4 680.023 1539.64 680.258C1539.87 680.492 1539.99 680.763 1539.99 681.096C1539.99 681.629 1539.79 682.034 1539.38 682.314C1538.99 682.593 1538.4 682.729 1537.64 682.729H1534.89V682.72ZM1536.42 679.32H1537.36C1537.89 679.32 1538.17 679.139 1538.17 678.806C1538.17 678.598 1538.09 678.454 1537.95 678.364C1537.8 678.274 1537.58 678.229 1537.28 678.229H1536.42V679.32ZM1536.42 680.348V681.502H1537.65C1538.19 681.502 1538.46 681.313 1538.46 680.934C1538.46 680.555 1538.2 680.357 1537.69 680.348H1536.42ZM1544.23 682.72C1544.15 682.584 1544.11 682.413 1544.07 682.206C1543.7 682.621 1543.22 682.828 1542.63 682.828C1542.07 682.828 1541.6 682.666 1541.24 682.341C1540.87 682.016 1540.69 681.61 1540.69 681.114C1540.69 680.51 1540.92 680.041 1541.37 679.717C1541.82 679.392 1542.47 679.23 1543.31 679.23H1544.02V678.905C1544.02 678.643 1543.95 678.427 1543.81 678.274C1543.68 678.12 1543.46 678.039 1543.17 678.039C1542.91 678.039 1542.71 678.102 1542.57 678.229C1542.42 678.355 1542.35 678.517 1542.35 678.734H1540.83C1540.83 678.4 1540.92 678.093 1541.13 677.814C1541.34 677.534 1541.63 677.309 1542 677.146C1542.37 676.984 1542.79 676.903 1543.25 676.903C1543.96 676.903 1544.51 677.083 1544.93 677.435C1545.34 677.787 1545.55 678.283 1545.55 678.932V681.412C1545.55 681.953 1545.63 682.368 1545.78 682.648V682.738H1544.23L1544.23 682.72ZM1542.96 681.656C1543.19 681.656 1543.4 681.601 1543.59 681.502C1543.77 681.403 1543.92 681.268 1544.01 681.096V680.113H1543.44C1542.67 680.113 1542.27 680.375 1542.22 680.907V680.997C1542.22 681.187 1542.29 681.34 1542.42 681.466C1542.56 681.592 1542.74 681.656 1542.97 681.656H1542.96ZM1551.67 682.72H1550.13V680.528H1548.24V682.72H1546.71V677.002H1548.24V679.293H1550.13V677.002H1551.67V682.72ZM1554.48 678.68H1555.57C1556.07 678.68 1556.5 678.761 1556.87 678.932C1557.24 679.094 1557.53 679.338 1557.73 679.644C1557.92 679.951 1558.02 680.312 1558.02 680.718C1558.02 681.322 1557.8 681.809 1557.36 682.17C1556.91 682.539 1556.3 682.72 1555.53 682.72H1552.94V677.002H1554.47V678.68H1554.48ZM1554.48 679.915V681.502H1555.56C1555.87 681.502 1556.09 681.43 1556.26 681.295C1556.42 681.151 1556.5 680.961 1556.5 680.718C1556.5 680.474 1556.42 680.276 1556.27 680.131C1556.1 679.987 1555.87 679.915 1555.56 679.915H1554.48ZM1560.46 682.729H1558.93V677.011H1560.46V682.729ZM1564.58 681.493C1564.92 681.123 1565.16 680.763 1565.28 680.402C1565.41 680.041 1565.47 679.536 1565.49 678.878L1565.54 677.011H1569.74V681.493H1570.56V684.442H1569.04V682.729H1565.64V684.442H1564.08V681.493H1564.57H1564.58ZM1567.02 678.959C1566.98 680.005 1566.77 680.853 1566.38 681.493H1568.21V678.274H1567.02V678.959H1567.02ZM1576.3 677.011V682.729H1574.78V678.247H1573.44L1573.34 680.014C1573.27 680.952 1573.09 681.638 1572.78 682.07C1572.46 682.503 1572 682.72 1571.39 682.729H1570.87L1570.86 681.484L1571.05 681.466C1571.32 681.448 1571.52 681.286 1571.65 680.979C1571.78 680.673 1571.86 680.159 1571.89 679.428L1571.99 677.002H1576.3V677.011ZM1582.25 677.011V682.729H1580.72V680.754H1579.76L1578.66 682.729H1577.11L1578.35 680.492C1578.01 680.33 1577.75 680.122 1577.56 679.852C1577.37 679.581 1577.28 679.275 1577.28 678.923C1577.28 678.373 1577.49 677.913 1577.92 677.561C1578.34 677.21 1578.92 677.02 1579.64 677.011H1582.24H1582.25ZM1579.68 679.681H1580.72V678.238H1579.73C1579.46 678.238 1579.24 678.31 1579.07 678.454C1578.9 678.598 1578.82 678.77 1578.82 678.977C1578.82 679.185 1578.9 679.347 1579.06 679.482C1579.23 679.617 1579.43 679.681 1579.69 679.69L1579.68 679.681ZM1591.19 682.729H1589.66V678.247H1587.75V682.729H1586.22V677.011H1591.19V682.729ZM1597.51 679.924C1597.51 680.808 1597.31 681.511 1596.9 682.043C1596.51 682.575 1595.96 682.837 1595.28 682.837C1594.7 682.837 1594.23 682.639 1593.88 682.233V684.929H1592.36V677.011H1593.77L1593.83 677.57C1594.2 677.128 1594.68 676.903 1595.28 676.903C1595.98 676.903 1596.53 677.164 1596.92 677.687C1597.31 678.211 1597.51 678.932 1597.51 679.843V679.924ZM1594.88 681.601C1595.61 681.601 1595.97 681.006 1595.97 679.807C1595.97 679.275 1595.88 678.869 1595.69 678.571C1595.5 678.283 1595.23 678.138 1594.87 678.138C1594.39 678.138 1594.06 678.319 1593.88 678.689V681.033C1594.07 681.412 1594.4 681.601 1594.88 681.601ZM1601.9 677.011H1603.42V682.729H1601.9V679.203L1599.99 682.729H1598.45V677.011H1599.99V680.537L1601.9 677.011ZM1608.07 680.925L1609.56 677.011H1611.48V682.729H1609.95V679.221L1608.58 682.729H1607.55L1606.21 679.275V682.729H1604.68V677.011H1606.58L1608.07 680.925ZM1615.43 682.837C1614.59 682.837 1613.9 682.575 1613.38 682.061C1612.86 681.547 1612.58 680.862 1612.58 680.005V679.861C1612.58 679.284 1612.69 678.77 1612.92 678.319C1613.14 677.868 1613.45 677.516 1613.87 677.273C1614.27 677.029 1614.74 676.903 1615.25 676.903C1616.04 676.903 1616.65 677.146 1617.1 677.642C1617.55 678.138 1617.78 678.833 1617.78 679.744V680.366H1614.14C1614.18 680.736 1614.33 681.042 1614.59 681.268C1614.84 681.493 1615.15 681.61 1615.53 681.61C1616.12 681.61 1616.58 681.394 1616.91 680.97L1617.66 681.809C1617.44 682.134 1617.12 682.386 1616.73 682.566C1616.35 682.747 1615.91 682.837 1615.43 682.837H1615.43ZM1615.25 678.138C1614.95 678.138 1614.7 678.238 1614.51 678.445C1614.33 678.652 1614.21 678.941 1614.15 679.329H1616.28V679.203C1616.28 678.86 1616.18 678.598 1616.01 678.418C1615.83 678.229 1615.59 678.138 1615.26 678.138H1615.25ZM1623.79 679.924C1623.79 680.808 1623.6 681.511 1623.19 682.043C1622.79 682.575 1622.25 682.837 1621.57 682.837C1620.99 682.837 1620.52 682.639 1620.17 682.233V684.929H1618.65V677.011H1620.06L1620.12 677.57C1620.49 677.128 1620.97 676.903 1621.57 676.903C1622.27 676.903 1622.82 677.164 1623.21 677.687C1623.6 678.211 1623.79 678.932 1623.79 679.843V679.924ZM1621.17 681.601C1621.9 681.601 1622.26 681.006 1622.26 679.807C1622.26 679.275 1622.17 678.869 1621.98 678.571C1621.79 678.283 1621.52 678.138 1621.16 678.138C1620.68 678.138 1620.35 678.319 1620.17 678.689V681.033C1620.36 681.412 1620.69 681.601 1621.17 681.601ZM1628.05 682.729C1627.98 682.593 1627.93 682.422 1627.9 682.215C1627.53 682.63 1627.05 682.837 1626.46 682.837C1625.9 682.837 1625.43 682.675 1625.07 682.35C1624.7 682.025 1624.52 681.619 1624.52 681.123C1624.52 680.519 1624.74 680.05 1625.19 679.726C1625.64 679.401 1626.29 679.239 1627.14 679.239H1627.84V678.914C1627.84 678.652 1627.77 678.436 1627.64 678.283C1627.5 678.129 1627.28 678.048 1627 678.048C1626.73 678.048 1626.54 678.111 1626.39 678.238C1626.25 678.364 1626.18 678.526 1626.18 678.743H1624.65C1624.65 678.409 1624.75 678.102 1624.96 677.823C1625.17 677.543 1625.45 677.318 1625.82 677.155C1626.19 676.993 1626.62 676.912 1627.08 676.912C1627.78 676.912 1628.34 677.092 1628.75 677.444C1629.17 677.796 1629.38 678.292 1629.38 678.941V681.421C1629.38 681.962 1629.46 682.377 1629.6 682.657V682.747H1628.06L1628.05 682.729ZM1626.79 681.665C1627.01 681.665 1627.22 681.61 1627.41 681.511C1627.6 681.412 1627.74 681.277 1627.84 681.105V680.122H1627.27C1626.5 680.122 1626.09 680.384 1626.05 680.916V681.006C1626.05 681.196 1626.11 681.349 1626.25 681.475C1626.38 681.601 1626.56 681.665 1626.8 681.665H1626.79Z" fill="#E6007E"/>
<path d="M32.9902 59.3428L251.686 259.804" stroke="#E6007E" stroke-width="0.901839"/>
<path d="M30.5098 57.0693L30.9246 62.2278L35.6773 57.0332L30.5098 57.0693Z" fill="#E6007E"/>
<path d="M254.166 262.085L253.751 256.927L248.998 262.121L254.166 262.085Z" fill="#E6007E"/>
<defs>
<filter id="filter0_d_432_2164" x="0.787375" y="25.18" width="296.443" height="404.502" filterUnits="userSpaceOnUse" color-interpolation-filters="sRGB">
<feFlood flood-opacity="0" result="BackgroundImageFix"/>
<feColorMatrix in="SourceAlpha" type="matrix" values="0 0 0 0 0 0 0 0 0 0 0 0 0 0 0 0 0 0 127 0" result="hardAlpha"/>
<feOffset dx="3.60736" dy="3.60736"/>
<feGaussianBlur stdDeviation="9.01839"/>
<feComposite in2="hardAlpha" operator="out"/>
<feColorMatrix type="matrix" values="0 0 0 0 0 0 0 0 0 0 0 0 0 0 0 0 0 0 0.1 0"/>
<feBlend mode="normal" in2="BackgroundImageFix" result="effect1_dropShadow_432_2164"/>
<feBlend mode="normal" in="SourceGraphic" in2="effect1_dropShadow_432_2164" result="shape"/>
</filter>
<filter id="filter1_d_432_2164" x="269.984" y="23.6094" width="300.37" height="408.428" filterUnits="userSpaceOnUse" color-interpolation-filters="sRGB">
<feFlood flood-opacity="0" result="BackgroundImageFix"/>
<feColorMatrix in="SourceAlpha" type="matrix" values="0 0 0 0 0 0 0 0 0 0 0 0 0 0 0 0 0 0 127 0" result="hardAlpha"/>
<feOffset dx="4" dy="4"/>
<feGaussianBlur stdDeviation="10"/>
<feComposite in2="hardAlpha" operator="out"/>
<feColorMatrix type="matrix" values="0 0 0 0 0 0 0 0 0 0 0 0 0 0 0 0 0 0 0.1 0"/>
<feBlend mode="normal" in2="BackgroundImageFix" result="effect1_dropShadow_432_2164"/>
<feBlend mode="normal" in="SourceGraphic" in2="effect1_dropShadow_432_2164" result="shape"/>
</filter>
<filter id="filter2_d_432_2164" x="540.75" y="23.6094" width="300.37" height="408.428" filterUnits="userSpaceOnUse" color-interpolation-filters="sRGB">
<feFlood flood-opacity="0" result="BackgroundImageFix"/>
<feColorMatrix in="SourceAlpha" type="matrix" values="0 0 0 0 0 0 0 0 0 0 0 0 0 0 0 0 0 0 127 0" result="hardAlpha"/>
<feOffset dx="4" dy="4"/>
<feGaussianBlur stdDeviation="10"/>
<feComposite in2="hardAlpha" operator="out"/>
<feColorMatrix type="matrix" values="0 0 0 0 0 0 0 0 0 0 0 0 0 0 0 0 0 0 0.1 0"/>
<feBlend mode="normal" in2="BackgroundImageFix" result="effect1_dropShadow_432_2164"/>
<feBlend mode="normal" in="SourceGraphic" in2="effect1_dropShadow_432_2164" result="shape"/>
</filter>
<filter id="filter3_d_432_2164" x="811.521" y="23.6094" width="300.37" height="408.428" filterUnits="userSpaceOnUse" color-interpolation-filters="sRGB">
<feFlood flood-opacity="0" result="BackgroundImageFix"/>
<feColorMatrix in="SourceAlpha" type="matrix" values="0 0 0 0 0 0 0 0 0 0 0 0 0 0 0 0 0 0 127 0" result="hardAlpha"/>
<feOffset dx="4" dy="4"/>
<feGaussianBlur stdDeviation="10"/>
<feComposite in2="hardAlpha" operator="out"/>
<feColorMatrix type="matrix" values="0 0 0 0 0 0 0 0 0 0 0 0 0 0 0 0 0 0 0.1 0"/>
<feBlend mode="normal" in2="BackgroundImageFix" result="effect1_dropShadow_432_2164"/>
<feBlend mode="normal" in="SourceGraphic" in2="effect1_dropShadow_432_2164" result="shape"/>
</filter>
<filter id="filter4_d_432_2164" x="1082.29" y="23.6094" width="300.37" height="408.428" filterUnits="userSpaceOnUse" color-interpolation-filters="sRGB">
<feFlood flood-opacity="0" result="BackgroundImageFix"/>
<feColorMatrix in="SourceAlpha" type="matrix" values="0 0 0 0 0 0 0 0 0 0 0 0 0 0 0 0 0 0 127 0" result="hardAlpha"/>
<feOffset dx="4" dy="4"/>
<feGaussianBlur stdDeviation="10"/>
<feComposite in2="hardAlpha" operator="out"/>
<feColorMatrix type="matrix" values="0 0 0 0 0 0 0 0 0 0 0 0 0 0 0 0 0 0 0.1 0"/>
<feBlend mode="normal" in2="BackgroundImageFix" result="effect1_dropShadow_432_2164"/>
<feBlend mode="normal" in="SourceGraphic" in2="effect1_dropShadow_432_2164" result="shape"/>
</filter>
<filter id="filter5_d_432_2164" x="1353.06" y="23.6094" width="300.37" height="408.428" filterUnits="userSpaceOnUse" color-interpolation-filters="sRGB">
<feFlood flood-opacity="0" result="BackgroundImageFix"/>
<feColorMatrix in="SourceAlpha" type="matrix" values="0 0 0 0 0 0 0 0 0 0 0 0 0 0 0 0 0 0 127 0" result="hardAlpha"/>
<feOffset dx="4" dy="4"/>
<feGaussianBlur stdDeviation="10"/>
<feComposite in2="hardAlpha" operator="out"/>
<feColorMatrix type="matrix" values="0 0 0 0 0 0 0 0 0 0 0 0 0 0 0 0 0 0 0.1 0"/>
<feBlend mode="normal" in2="BackgroundImageFix" result="effect1_dropShadow_432_2164"/>
<feBlend mode="normal" in="SourceGraphic" in2="effect1_dropShadow_432_2164" result="shape"/>
</filter>
</defs>
</svg>
