<svg width="1653" height="584" viewBox="0 0 1653 584" fill="none" xmlns="http://www.w3.org/2000/svg">
<path d="M1413.57 520.184H1350.95V582.807H1413.57V520.184Z" fill="white"/>
<path d="M1350.95 581.237V521.305" stroke="#E6007E" stroke-width="0.451502" stroke-miterlimit="10"/>
<path d="M1352.51 520.184H1412.46" stroke="#E6007E" stroke-width="0.451502" stroke-miterlimit="10"/>
<path d="M1413.57 521.748V581.689" stroke="#E6007E" stroke-width="0.451502" stroke-miterlimit="10"/>
<path d="M1350.96 520.852V520.184H1351.63M1351.63 582.807H1350.96V582.139L1351.63 582.807ZM1413.58 582.139V582.807H1412.91L1413.58 582.139ZM1412.91 520.184H1413.58V520.852L1412.91 520.184Z" stroke="#E6007E" stroke-width="0.451502" stroke-miterlimit="10"/>
<path d="M1485.43 520.184H1422.8V582.807H1485.43V520.184Z" fill="white"/>
<path d="M1422.8 581.237V521.305" stroke="#E6007E" stroke-width="0.451502" stroke-miterlimit="10"/>
<path d="M1424.37 520.184H1484.31" stroke="#E6007E" stroke-width="0.451502" stroke-miterlimit="10"/>
<path d="M1485.43 521.748V581.689" stroke="#E6007E" stroke-width="0.451502" stroke-miterlimit="10"/>
<path d="M1483.86 582.807H1423.92" stroke="#E6007E" stroke-width="0.451502" stroke-miterlimit="10"/>
<path d="M1422.8 520.852V520.184H1423.47M1423.47 582.807H1422.8V582.139L1423.47 582.807ZM1485.43 582.139V582.807H1484.76L1485.43 582.139ZM1484.76 520.184H1485.43V520.852L1484.76 520.184Z" stroke="#E6007E" stroke-width="0.451502" stroke-miterlimit="10"/>
<path d="M1453.79 527.326C1440.45 527.326 1429.63 538.144 1429.63 551.491C1429.63 564.837 1440.45 575.655 1453.79 575.655C1467.14 575.655 1477.96 564.837 1477.96 551.491C1477.96 538.144 1467.14 527.326 1453.79 527.326Z" fill="#00313C"/>
<path d="M1339.63 582.807H1279.69" stroke="#E6007E" stroke-width="0.451502" stroke-miterlimit="10"/>
<path d="M1278.57 581.237V521.305" stroke="#E6007E" stroke-width="0.451502" stroke-miterlimit="10"/>
<path d="M1280.14 520.184H1340.07" stroke="#E6007E" stroke-width="0.451502" stroke-miterlimit="10"/>
<path d="M1341.19 521.748V581.689" stroke="#E6007E" stroke-width="0.451502" stroke-miterlimit="10"/>
<path d="M1279.23 582.799H1278.57V582.131M1341.19 582.131V582.799H1340.52L1341.19 582.131ZM1340.52 520.176H1341.19V520.844L1340.52 520.176ZM1278.57 520.844V520.176H1279.23L1278.57 520.844Z" stroke="#E6007E" stroke-width="0.451502" stroke-miterlimit="10"/>
<path d="M1341.72 520.184H1310.04V582.807H1341.72V520.184Z" fill="#00313C"/>
<path d="M1494.65 581.317V521.385" stroke="#E6007E" stroke-width="0.451502" stroke-miterlimit="10"/>
<path d="M1496.24 520.266H1557.08" stroke="#E6007E" stroke-width="0.451502" stroke-miterlimit="10"/>
<path d="M1558.21 521.828V581.769" stroke="#E6007E" stroke-width="0.451502" stroke-miterlimit="10"/>
<path d="M1556.62 582.879H1495.78" stroke="#E6007E" stroke-width="0.451502" stroke-miterlimit="10"/>
<path d="M1494.66 520.926V520.258H1495.33M1495.33 582.881H1494.66V582.213L1495.33 582.881ZM1558.22 582.213V582.881H1557.54L1558.22 582.213ZM1557.54 520.258H1558.22V520.926L1557.54 520.258Z" stroke="#E6007E" stroke-width="0.451502" stroke-miterlimit="10"/>
<path d="M1558.05 520.104L1525.88 582.736L1495.42 520.104H1558.05Z" fill="#00313C"/>
<path d="M1567.44 581.237V521.305" stroke="#E6007E" stroke-width="0.451502" stroke-miterlimit="10"/>
<path d="M1569.03 520.184H1629.86" stroke="#E6007E" stroke-width="0.451502" stroke-miterlimit="10"/>
<path d="M1631 521.748V581.689" stroke="#E6007E" stroke-width="0.451502" stroke-miterlimit="10"/>
<path d="M1629.41 582.807H1568.57" stroke="#E6007E" stroke-width="0.451502" stroke-miterlimit="10"/>
<path d="M1567.44 520.852V520.184H1568.11M1568.11 582.807H1567.44V582.139L1568.11 582.807ZM1631 582.139V582.807H1630.32L1631 582.139ZM1630.32 520.184H1631V520.852L1630.32 520.184Z" stroke="#E6007E" stroke-width="0.451502" stroke-miterlimit="10"/>
<path d="M1603.55 569.978C1613.71 567.579 1620.01 557.395 1617.61 547.231C1615.21 537.067 1605.03 530.773 1594.86 533.172C1584.7 535.57 1578.4 545.755 1580.8 555.918C1583.2 566.082 1593.39 572.377 1603.55 569.978Z" stroke="#00313C" stroke-width="12.6782" stroke-miterlimit="10"/>
<path d="M1205.79 582.005V520.754" stroke="#77E2C3" stroke-width="0.225751" stroke-miterlimit="10"/>
<path d="M1206.58 520.184H1268.78" stroke="#77E2C3" stroke-width="0.225751" stroke-miterlimit="10"/>
<path d="M1269.34 520.98V582.24" stroke="#77E2C3" stroke-width="0.225751" stroke-miterlimit="10"/>
<path d="M1268.54 582.807H1206.35" stroke="#77E2C3" stroke-width="0.225751" stroke-miterlimit="10"/>
<path d="M1205.78 520.527V520.184H1206.12M1206.12 582.807H1205.78V582.464L1206.12 582.807ZM1269.34 582.464V582.807H1268.99L1269.34 582.464ZM1268.99 520.184H1269.34V520.527L1268.99 520.184Z" stroke="#77E2C3" stroke-width="0.225751" stroke-miterlimit="10"/>
<path d="M1205.88 581.235V521.475" stroke="#E6007E" stroke-width="0.451502" stroke-miterlimit="10"/>
<path d="M1207.46 520.355H1268.12" stroke="#E6007E" stroke-width="0.451502" stroke-miterlimit="10"/>
<path d="M1269.25 521.918V581.679" stroke="#E6007E" stroke-width="0.451502" stroke-miterlimit="10"/>
<path d="M1267.67 582.789H1207" stroke="#E6007E" stroke-width="0.451502" stroke-miterlimit="10"/>
<path d="M1205.88 521.024V520.355H1206.55M1206.55 582.789H1205.88V582.121L1206.55 582.789ZM1269.25 582.121V582.789H1268.57L1269.25 582.121ZM1268.57 520.355H1269.25V521.024L1268.57 520.355Z" stroke="#E6007E" stroke-width="0.451502" stroke-miterlimit="10"/>
<path d="M1207.1 520.355H1269.25V582.789L1207.1 520.355Z" fill="#00313C"/>
<g filter="url(#filter0_d_519_347)">
<path d="M275.186 58.3711H14.4805V427.275H275.186V58.3711Z" fill="white"/>
</g>
<path d="M275.186 58.3711H14.4805V303.193H275.186V58.3711Z" fill="white"/>
<path d="M275.672 57.7031C275.672 129.961 217.094 188.539 144.836 188.539C72.5778 188.539 14 129.961 14 57.7031" fill="#F0F0F0"/>
<path d="M58.0039 58.1523V427.49" stroke="#999999" stroke-width="0.677252"/>
<path d="M101.527 58.1523V427.49" stroke="#999999" stroke-width="0.677252"/>
<path d="M144.619 58.1523V427.49" stroke="#999999" stroke-width="0.677252"/>
<path d="M188.145 58.1523V427.49" stroke="#999999" stroke-width="0.677252"/>
<path d="M231.67 58.1523V427.49" stroke="#999999" stroke-width="0.677252"/>
<path d="M275.412 98.9707H14.2637" stroke="#999999" stroke-width="0.677252"/>
<path d="M275.412 140.012H14.2637" stroke="#999999" stroke-width="0.677252"/>
<path d="M275.412 181.486H14.2637" stroke="#999999" stroke-width="0.677252"/>
<path d="M275.412 222.086H14.2637" stroke="#999999" stroke-width="0.677252"/>
<path d="M275.412 263.127H14.2637" stroke="#999999" stroke-width="0.677252"/>
<path d="M275.412 304.158H14.2637" stroke="#999999" stroke-width="0.677252"/>
<path d="M275.412 345.635H14.2637" stroke="#999999" stroke-width="0.677252"/>
<path d="M275.412 386.676H14.2637" stroke="#999999" stroke-width="0.677252"/>
<g filter="url(#filter1_d_519_347)">
<path d="M546.304 58.3711H285.598V427.275H546.304V58.3711Z" fill="white"/>
</g>
<g filter="url(#filter2_d_519_347)">
<path d="M817.419 58.3711H556.713V427.275H817.419V58.3711Z" fill="white"/>
</g>
<g filter="url(#filter3_d_519_347)">
<path d="M1088.54 58.3711H827.832V427.275H1088.54V58.3711Z" fill="white"/>
</g>
<g filter="url(#filter4_d_519_347)">
<path d="M1359.66 58.3711H1098.95V427.275H1359.66V58.3711Z" fill="white"/>
</g>
<g filter="url(#filter5_d_519_347)">
<path d="M1630.77 58.3711H1370.07V427.275H1630.77V58.3711Z" fill="white"/>
</g>
<path d="M546.313 58.1523H286.971V304.311H546.313V58.1523Z" fill="#008C95"/>
<path d="M958.081 304.312H827.832V428.746H958.081V304.312Z" fill="#77E2C3"/>
<path d="M1500.54 304.312H1370.29V428.746H1500.54V304.312Z" fill="#77E2C3"/>
<path d="M1370.29 304.312V181.504L1500.53 304.312H1370.29Z" fill="#00313C"/>
<path d="M1098.95 304.312H1229.2V428.746L1098.95 304.312Z" fill="#77E2C3"/>
<path d="M1088.55 304.312H958.299V428.746H1088.55V304.312Z" fill="#008C95"/>
<path d="M1631 304.312H1500.75V428.746H1631V304.312Z" fill="#008C95"/>
<path d="M1359.67 304.312H1229.42V428.746H1359.67V304.312Z" fill="#00313C"/>
<path d="M1359.67 181.504H1229.42V304.312H1359.67V181.504Z" fill="#77E2C3"/>
<path d="M1229.88 58.1523H1098.95V181.503H1229.88V58.1523Z" fill="#008C95"/>
<path d="M1164.42 111.188C1128.54 111.188 1099.46 140.273 1099.46 176.15C1099.46 212.026 1128.54 241.103 1164.42 241.103C1200.3 241.103 1229.38 212.017 1229.38 176.15C1229.38 140.282 1200.3 111.188 1164.42 111.188Z" fill="white"/>
<path d="M329.121 58.1523V427.49" stroke="#999999" stroke-width="0.677252"/>
<path d="M372.646 58.1523V427.49" stroke="#999999" stroke-width="0.677252"/>
<path d="M415.738 58.1523V427.49" stroke="#999999" stroke-width="0.677252"/>
<path d="M459.262 58.1523V427.49" stroke="#999999" stroke-width="0.677252"/>
<path d="M502.787 58.1523V427.49" stroke="#999999" stroke-width="0.677252"/>
<path d="M546.529 98.9707H285.381" stroke="#999999" stroke-width="0.677252"/>
<path d="M546.529 140.012H285.381" stroke="#999999" stroke-width="0.677252"/>
<path d="M546.529 181.486H285.381" stroke="#999999" stroke-width="0.677252"/>
<path d="M546.529 222.086H285.381" stroke="#999999" stroke-width="0.677252"/>
<path d="M546.529 263.127H285.381" stroke="#999999" stroke-width="0.677252"/>
<path d="M546.529 304.158H285.381" stroke="#999999" stroke-width="0.677252"/>
<path d="M546.529 345.635H285.381" stroke="#999999" stroke-width="0.677252"/>
<path d="M546.529 386.676H285.381" stroke="#999999" stroke-width="0.677252"/>
<path d="M1142.47 58.1523V427.49" stroke="#999999" stroke-width="0.677252"/>
<path d="M1186 58.1523V427.49" stroke="#999999" stroke-width="0.677252"/>
<path d="M1229.09 58.1523V427.49" stroke="#999999" stroke-width="0.677252"/>
<path d="M1272.62 58.1523V427.49" stroke="#999999" stroke-width="0.677252"/>
<path d="M1316.14 58.1523V427.49" stroke="#999999" stroke-width="0.677252"/>
<path d="M1359.88 98.9707H1098.73" stroke="#999999" stroke-width="0.677252"/>
<path d="M1359.88 140.012H1098.73" stroke="#999999" stroke-width="0.677252"/>
<path d="M1359.88 181.486H1098.73" stroke="#999999" stroke-width="0.677252"/>
<path d="M1359.88 222.086H1098.73" stroke="#999999" stroke-width="0.677252"/>
<path d="M1359.88 263.127H1098.73" stroke="#999999" stroke-width="0.677252"/>
<path d="M1359.88 304.158H1098.73" stroke="#999999" stroke-width="0.677252"/>
<path d="M1359.88 345.635H1098.73" stroke="#999999" stroke-width="0.677252"/>
<path d="M1359.88 386.676H1098.73" stroke="#999999" stroke-width="0.677252"/>
<path d="M958.534 283C1014.99 283 1060.75 237.236 1060.75 180.781C1060.75 124.325 1014.99 78.5605 958.534 78.5605C902.079 78.5605 856.314 124.325 856.314 180.781C856.314 237.236 902.079 283 958.534 283Z" fill="#00313C"/>
<path d="M871.357 58.1523V427.49" stroke="#999999" stroke-width="0.677252"/>
<path d="M914.881 58.1523V427.49" stroke="#999999" stroke-width="0.677252"/>
<path d="M957.973 58.1523V427.49" stroke="#999999" stroke-width="0.677252"/>
<path d="M1001.5 58.1523V427.49" stroke="#999999" stroke-width="0.677252"/>
<path d="M1045.02 58.1523V427.49" stroke="#999999" stroke-width="0.677252"/>
<path d="M1088.76 98.9707H827.615" stroke="#999999" stroke-width="0.677252"/>
<path d="M1088.76 140.012H827.615" stroke="#999999" stroke-width="0.677252"/>
<path d="M1088.76 181.486H827.615" stroke="#999999" stroke-width="0.677252"/>
<path d="M1088.76 222.086H827.615" stroke="#999999" stroke-width="0.677252"/>
<path d="M1088.76 263.127H827.615" stroke="#999999" stroke-width="0.677252"/>
<path d="M1088.76 304.158H827.615" stroke="#999999" stroke-width="0.677252"/>
<path d="M1088.76 345.635H827.615" stroke="#999999" stroke-width="0.677252"/>
<path d="M1088.76 386.676H827.615" stroke="#999999" stroke-width="0.677252"/>
<path d="M1565.87 331.385C1546.46 331.385 1530.73 347.124 1530.73 366.53C1530.73 385.935 1546.46 401.675 1565.87 401.675C1585.29 401.675 1601.02 385.935 1601.02 366.53C1601.02 347.124 1585.29 331.385 1565.87 331.385Z" stroke="#00313C" stroke-width="16.2541" stroke-miterlimit="10"/>
<path d="M1413.59 58.1523V427.49" stroke="#999999" stroke-width="0.677252"/>
<path d="M1457.12 58.1523V427.49" stroke="#999999" stroke-width="0.677252"/>
<path d="M1500.21 58.1523V427.49" stroke="#999999" stroke-width="0.677252"/>
<path d="M1543.73 58.1523V427.49" stroke="#999999" stroke-width="0.677252"/>
<path d="M1587.26 58.1523V427.49" stroke="#999999" stroke-width="0.677252"/>
<path d="M1631 98.9707H1369.85" stroke="#999999" stroke-width="0.677252"/>
<path d="M1631 140.012H1369.85" stroke="#999999" stroke-width="0.677252"/>
<path d="M1631 181.486H1369.85" stroke="#999999" stroke-width="0.677252"/>
<path d="M1631 222.086H1369.85" stroke="#999999" stroke-width="0.677252"/>
<path d="M1631 263.127H1369.85" stroke="#999999" stroke-width="0.677252"/>
<path d="M1631 304.158H1369.85" stroke="#999999" stroke-width="0.677252"/>
<path d="M1631 345.635H1369.85" stroke="#999999" stroke-width="0.677252"/>
<path d="M1631 386.676H1369.85" stroke="#999999" stroke-width="0.677252"/>
<path d="M274.292 58.6133H15.6172V303.426H274.292V58.6133Z" stroke="#E6007E" stroke-width="1.80601"/>
<path d="M817.429 58.1523H687.18V181.232H817.429V58.1523Z" fill="#008C95"/>
<path d="M687.18 59.1016L750.643 180.285L817.429 59.4989V59.1016H687.18Z" fill="#00313C"/>
<path d="M817.429 304.195H687.18V427.275H817.429V304.195Z" fill="#77E2C3"/>
<path d="M817.429 181.115H687.18V304.195H817.429V181.115Z" fill="#77E2C3"/>
<path d="M600.24 58.1523V427.49" stroke="#999999" stroke-width="0.677252"/>
<path d="M643.764 58.1523V427.49" stroke="#999999" stroke-width="0.677252"/>
<path d="M686.855 58.1523V427.49" stroke="#999999" stroke-width="0.677252"/>
<path d="M730.379 58.1523V427.49" stroke="#999999" stroke-width="0.677252"/>
<path d="M773.906 58.1523V427.49" stroke="#999999" stroke-width="0.677252"/>
<path d="M817.647 98.9707H556.498" stroke="#999999" stroke-width="0.677252"/>
<path d="M817.647 140.012H556.498" stroke="#999999" stroke-width="0.677252"/>
<path d="M817.647 181.486H556.498" stroke="#999999" stroke-width="0.677252"/>
<path d="M817.647 222.086H556.498" stroke="#999999" stroke-width="0.677252"/>
<path d="M817.647 263.127H556.498" stroke="#999999" stroke-width="0.677252"/>
<path d="M817.647 304.158H556.498" stroke="#999999" stroke-width="0.677252"/>
<path d="M817.647 345.635H556.498" stroke="#999999" stroke-width="0.677252"/>
<path d="M817.647 386.676H556.498" stroke="#999999" stroke-width="0.677252"/>
<path d="M18.082 67.7266H271.817" stroke="#E6007E" stroke-width="0.903003"/>
<path d="M14.7148 67.7268L18.5075 71.2485V64.2051L14.7148 67.7268Z" fill="#E6007E"/>
<path d="M275.195 67.7268L271.402 64.2051V71.2485L275.195 67.7268Z" fill="#E6007E"/>
<path d="M296.008 21.5115V31.7832H294.653V22.6262H289.588V31.7832H288.226V21.5115H296.008ZM302.265 27.755H299.521V26.6474H302.265C302.797 26.6474 303.227 26.5627 303.556 26.3934C303.886 26.2241 304.125 25.9889 304.276 25.6879C304.431 25.3869 304.509 25.0436 304.509 24.6579C304.509 24.3052 304.431 23.9736 304.276 23.6632C304.125 23.3528 303.886 23.1036 303.556 22.9154C303.227 22.7226 302.797 22.6262 302.265 22.6262H299.838V31.7832H298.477V21.5115H302.265C303.041 21.5115 303.697 21.6456 304.234 21.9137C304.77 22.1817 305.177 22.5533 305.454 23.0283C305.732 23.4986 305.87 24.0371 305.87 24.6438C305.87 25.3023 305.732 25.8643 305.454 26.3299C305.177 26.7955 304.77 27.1506 304.234 27.3952C303.697 27.635 303.041 27.755 302.265 27.755ZM309.01 29.4269L314.068 21.5115H315.429V31.7832H314.068V23.8608L309.01 31.7832H307.655V21.5115H309.01V29.4269ZM318.336 21.5115H319.655L323.02 29.8855L326.378 21.5115H327.705L323.528 31.7832H322.498L318.336 21.5115ZM317.906 21.5115H319.07L319.26 27.7761V31.7832H317.906V21.5115ZM326.964 21.5115H328.128V31.7832H326.773V27.7761L326.964 21.5115ZM337.045 30.6756V31.7832H331.606V30.6756H337.045ZM331.881 21.5115V31.7832H330.519V21.5115H331.881ZM336.325 25.9278V27.0354H331.606V25.9278H336.325ZM336.975 21.5115V22.6262H331.606V21.5115H336.975ZM342.52 27.755H339.775V26.6474H342.52C343.051 26.6474 343.481 26.5627 343.811 26.3934C344.14 26.2241 344.38 25.9889 344.53 25.6879C344.685 25.3869 344.763 25.0436 344.763 24.6579C344.763 24.3052 344.685 23.9736 344.53 23.6632C344.38 23.3528 344.14 23.1036 343.811 22.9154C343.481 22.7226 343.051 22.6262 342.52 22.6262H340.093V31.7832H338.731V21.5115H342.52C343.296 21.5115 343.952 21.6456 344.488 21.9137C345.024 22.1817 345.431 22.5533 345.708 23.0283C345.986 23.4986 346.124 24.0371 346.124 24.6438C346.124 25.3023 345.986 25.8643 345.708 26.3299C345.431 26.7955 345.024 27.1506 344.488 27.3952C343.952 27.635 343.296 27.755 342.52 27.755ZM355.38 21.4551V31.7832H354.075V23.0847L351.444 24.0442V22.866L355.176 21.4551H355.38Z" fill="black"/>
<path d="M23.3008 21.5115V31.7832H21.9463V22.6262H16.881V31.7832H15.5194V21.5115H23.3008ZM33.6782 26.3229V26.9719C33.6782 27.7432 33.5818 28.4346 33.389 29.046C33.1962 29.6574 32.9187 30.1771 32.5565 30.6051C32.1944 31.0331 31.7594 31.3599 31.2514 31.5857C30.7482 31.8114 30.1838 31.9243 29.5583 31.9243C28.9516 31.9243 28.3943 31.8114 27.8863 31.5857C27.3831 31.3599 26.9457 31.0331 26.5741 30.6051C26.2073 30.1771 25.9228 29.6574 25.7205 29.046C25.5183 28.4346 25.4172 27.7432 25.4172 26.9719V26.3229C25.4172 25.5515 25.5159 24.8625 25.7135 24.2558C25.9157 23.6444 26.2002 23.1247 26.5671 22.6967C26.9339 22.264 27.369 21.9348 27.8722 21.7091C28.3802 21.4833 28.9375 21.3704 29.5442 21.3704C30.1697 21.3704 30.7341 21.4833 31.2373 21.7091C31.7452 21.9348 32.1803 22.264 32.5424 22.6967C32.9093 23.1247 33.1891 23.6444 33.3819 24.2558C33.5795 24.8625 33.6782 25.5515 33.6782 26.3229ZM32.3308 26.9719V26.3087C32.3308 25.6973 32.2673 25.1565 32.1403 24.6862C32.018 24.2158 31.837 23.8208 31.5971 23.501C31.3572 23.1812 31.0633 22.9389 30.7153 22.7743C30.3719 22.6097 29.9816 22.5274 29.5442 22.5274C29.1209 22.5274 28.7376 22.6097 28.3943 22.7743C28.0556 22.9389 27.764 23.1812 27.5195 23.501C27.2796 23.8208 27.0938 24.2158 26.9622 24.6862C26.8305 25.1565 26.7646 25.6973 26.7646 26.3087V26.9719C26.7646 27.588 26.8305 28.1336 26.9622 28.6086C27.0938 29.0789 27.282 29.4763 27.5265 29.8008C27.7758 30.1206 28.0697 30.3629 28.4084 30.5275C28.7517 30.6921 29.135 30.7744 29.5583 30.7744C30.0004 30.7744 30.3931 30.6921 30.7364 30.5275C31.0798 30.3629 31.369 30.1206 31.6042 29.8008C31.844 29.4763 32.0251 29.0789 32.1474 28.6086C32.2696 28.1336 32.3308 27.588 32.3308 26.9719ZM41.9181 28.5169H43.2727C43.2021 29.1659 43.0163 29.7467 42.7153 30.2594C42.4143 30.772 41.9887 31.1788 41.4384 31.4799C40.8882 31.7761 40.2015 31.9243 39.3784 31.9243C38.7764 31.9243 38.2285 31.8114 37.7347 31.5857C37.2456 31.3599 36.8246 31.0401 36.4719 30.6262C36.1192 30.2077 35.8464 29.7068 35.6536 29.1236C35.4654 28.5357 35.3714 27.8819 35.3714 27.1624V26.1394C35.3714 25.4199 35.4654 24.7685 35.6536 24.1853C35.8464 23.5974 36.1215 23.0941 36.479 22.6756C36.8411 22.257 37.2761 21.9348 37.7841 21.7091C38.292 21.4833 38.8635 21.3704 39.4984 21.3704C40.2744 21.3704 40.9305 21.5162 41.4666 21.8078C42.0028 22.0994 42.419 22.5039 42.7153 23.0213C43.0163 23.5339 43.2021 24.1288 43.2727 24.8061H41.9181C41.8523 24.3264 41.73 23.9148 41.5513 23.5715C41.3726 23.2235 41.1186 22.9554 40.7894 22.7673C40.4602 22.5792 40.0298 22.4851 39.4984 22.4851C39.0422 22.4851 38.6401 22.5721 38.292 22.7461C37.9487 22.9201 37.6595 23.167 37.4243 23.4869C37.1938 23.8067 37.0198 24.19 36.9022 24.6368C36.7847 25.0836 36.7259 25.5798 36.7259 26.1253V27.1624C36.7259 27.6656 36.7776 28.1383 36.8811 28.5804C36.9893 29.0225 37.1515 29.4105 37.3679 29.7444C37.5842 30.0783 37.8593 30.3417 38.1933 30.5345C38.5272 30.7226 38.9222 30.8167 39.3784 30.8167C39.9569 30.8167 40.4178 30.725 40.7612 30.5416C41.1045 30.3582 41.3632 30.0948 41.5372 29.7514C41.7159 29.4081 41.8429 28.9966 41.9181 28.5169ZM48.7118 21.5115V31.7832H47.3714V21.5115H48.7118ZM52.0134 21.5115V22.6262H44.0769V21.5115H52.0134ZM57.3256 27.755H54.5814V26.6474H57.3256C57.8571 26.6474 58.2874 26.5627 58.6166 26.3934C58.9459 26.2241 59.1857 25.9889 59.3362 25.6879C59.4914 25.3869 59.569 25.0436 59.569 24.6579C59.569 24.3052 59.4914 23.9736 59.3362 23.6632C59.1857 23.3528 58.9459 23.1036 58.6166 22.9154C58.2874 22.7226 57.8571 22.6262 57.3256 22.6262H54.8988V31.7832H53.5373V21.5115H57.3256C58.1017 21.5115 58.7577 21.6456 59.2939 21.9137C59.8301 22.1817 60.2369 22.5533 60.5144 23.0283C60.7919 23.4986 60.9306 24.0371 60.9306 24.6438C60.9306 25.3023 60.7919 25.8643 60.5144 26.3299C60.2369 26.7955 59.8301 27.1506 59.2939 27.3952C58.7577 27.635 58.1017 27.755 57.3256 27.755ZM70.5603 26.3229V26.9719C70.5603 27.7432 70.4639 28.4346 70.271 29.046C70.0782 29.6574 69.8007 30.1771 69.4386 30.6051C69.0764 31.0331 68.6414 31.3599 68.1335 31.5857C67.6302 31.8114 67.0658 31.9243 66.4403 31.9243C65.8336 31.9243 65.2763 31.8114 64.7684 31.5857C64.2651 31.3599 63.8277 31.0331 63.4562 30.6051C63.0893 30.1771 62.8048 29.6574 62.6026 29.046C62.4003 28.4346 62.2992 27.7432 62.2992 26.9719V26.3229C62.2992 25.5515 62.398 24.8625 62.5955 24.2558C62.7977 23.6444 63.0823 23.1247 63.4491 22.6967C63.816 22.264 64.251 21.9348 64.7542 21.7091C65.2622 21.4833 65.8195 21.3704 66.4262 21.3704C67.0517 21.3704 67.6161 21.4833 68.1193 21.7091C68.6273 21.9348 69.0623 22.264 69.4245 22.6967C69.7913 23.1247 70.0711 23.6444 70.264 24.2558C70.4615 24.8625 70.5603 25.5515 70.5603 26.3229ZM69.2128 26.9719V26.3087C69.2128 25.6973 69.1493 25.1565 69.0223 24.6862C68.9001 24.2158 68.719 23.8208 68.4791 23.501C68.2393 23.1812 67.9453 22.9389 67.5973 22.7743C67.254 22.6097 66.8636 22.5274 66.4262 22.5274C66.0029 22.5274 65.6196 22.6097 65.2763 22.7743C64.9377 22.9389 64.6461 23.1812 64.4015 23.501C64.1617 23.8208 63.9759 24.2158 63.8442 24.6862C63.7125 25.1565 63.6467 25.6973 63.6467 26.3087V26.9719C63.6467 27.588 63.7125 28.1336 63.8442 28.6086C63.9759 29.0789 64.164 29.4763 64.4086 29.8008C64.6578 30.1206 64.9518 30.3629 65.2904 30.5275C65.6337 30.6921 66.017 30.7744 66.4403 30.7744C66.8824 30.7744 67.2751 30.6921 67.6185 30.5275C67.9618 30.3629 68.251 30.1206 68.4862 29.8008C68.7261 29.4763 68.9071 29.0789 69.0294 28.6086C69.1517 28.1336 69.2128 27.588 69.2128 26.9719ZM79.1247 30.6756V31.7832H73.6855V30.6756H79.1247ZM73.9606 21.5115V31.7832H72.5991V21.5115H73.9606ZM78.4051 25.9278V27.0354H73.6855V25.9278H78.4051ZM79.0541 21.5115V22.6262H73.6855V21.5115H79.0541ZM87.5198 25.9278V27.0354H81.9607V25.9278H87.5198ZM82.1723 21.5115V31.7832H80.8108V21.5115H82.1723ZM88.705 21.5115V31.7832H87.3505V21.5115H88.705ZM92.5428 29.4269L97.601 21.5115H98.9625V31.7832H97.601V23.8608L92.5428 31.7832H91.1883V21.5115H92.5428V29.4269ZM107.964 30.6756V31.7832H102.525V30.6756H107.964ZM102.8 21.5115V31.7832H101.439V21.5115H102.8ZM107.245 25.9278V27.0354H102.525V25.9278H107.245ZM107.894 21.5115V22.6262H102.525V21.5115H107.894ZM113.107 21.5115H114.469V24.7214C114.469 25.2529 114.546 25.6691 114.702 25.9701C114.857 26.2711 115.092 26.4828 115.407 26.605C115.722 26.7273 116.115 26.7885 116.585 26.7885C116.867 26.7885 117.14 26.7767 117.404 26.7532C117.672 26.7297 117.933 26.6968 118.187 26.6544C118.441 26.6121 118.69 26.5604 118.934 26.4992C119.184 26.4381 119.428 26.3722 119.668 26.3017V27.4163C119.438 27.4869 119.207 27.5527 118.977 27.6139C118.751 27.675 118.516 27.7267 118.271 27.7691C118.031 27.8114 117.773 27.8443 117.495 27.8678C117.222 27.8914 116.919 27.9031 116.585 27.9031C115.861 27.9031 115.238 27.7996 114.716 27.5927C114.198 27.3811 113.801 27.0424 113.523 26.5768C113.246 26.1112 113.107 25.4928 113.107 24.7214V21.5115ZM119.322 21.5115H120.684V31.7832H119.322V21.5115ZM129.651 30.6756V31.7832H124.211V30.6756H129.651ZM124.486 21.5115V31.7832H123.125V21.5115H124.486ZM128.931 25.9278V27.0354H124.211V25.9278H128.931ZM129.58 21.5115V22.6262H124.211V21.5115H129.58ZM135.273 21.5115V31.7832H133.933V21.5115H135.273ZM138.575 21.5115V22.6262H130.638V21.5115H138.575ZM141.199 25.695H144C144.752 25.695 145.387 25.822 145.905 26.0759C146.422 26.3252 146.815 26.6756 147.083 27.1271C147.351 27.5786 147.485 28.1077 147.485 28.7144C147.485 29.1659 147.41 29.5798 147.259 29.956C147.109 30.3276 146.885 30.6521 146.589 30.9296C146.293 31.2024 145.928 31.414 145.495 31.5645C145.063 31.7103 144.564 31.7832 144 31.7832H140.162V21.5115H141.524V30.6756H144C144.503 30.6756 144.91 30.5839 145.22 30.4005C145.535 30.2124 145.766 29.9678 145.912 29.6668C146.057 29.3658 146.13 29.0436 146.13 28.7003C146.13 28.357 146.057 28.0419 145.912 27.755C145.766 27.4681 145.535 27.24 145.22 27.0707C144.91 26.8966 144.503 26.8096 144 26.8096H141.199V25.695ZM150.088 21.5115V31.7832H148.726V21.5115H150.088ZM156.388 27.755H153.644V26.6474H156.388C156.919 26.6474 157.35 26.5627 157.679 26.3934C158.008 26.2241 158.248 25.9889 158.398 25.6879C158.554 25.3869 158.631 25.0436 158.631 24.6579C158.631 24.3052 158.554 23.9736 158.398 23.6632C158.248 23.3528 158.008 23.1036 157.679 22.9154C157.35 22.7226 156.919 22.6262 156.388 22.6262H153.961V31.7832H152.6V21.5115H156.388C157.164 21.5115 157.82 21.6456 158.356 21.9137C158.892 22.1817 159.299 22.5533 159.577 23.0283C159.854 23.4986 159.993 24.0371 159.993 24.6438C159.993 25.3023 159.854 25.8643 159.577 26.3299C159.299 26.7955 158.892 27.1506 158.356 27.3952C157.82 27.635 157.164 27.755 156.388 27.755ZM168.24 30.6756V31.7832H162.801V30.6756H168.24ZM163.076 21.5115V31.7832H161.714V21.5115H163.076ZM167.52 25.9278V27.0354H162.801V25.9278H167.52ZM168.169 21.5115V22.6262H162.801V21.5115H168.169ZM170.808 21.5115L173.277 25.4481L175.746 21.5115H177.333L174.088 26.598L177.411 31.7832H175.81L173.277 27.7691L170.744 31.7832H169.143L172.466 26.598L169.22 21.5115H170.808ZM182.166 28.3758L184.882 21.5115H186.448L182.815 30.0689C182.711 30.3088 182.596 30.5416 182.469 30.7673C182.342 30.9884 182.187 31.1859 182.004 31.3599C181.82 31.5339 181.592 31.6727 181.319 31.7761C181.051 31.8796 180.717 31.9314 180.317 31.9314C180.205 31.9314 180.071 31.9243 179.915 31.9102C179.76 31.9008 179.659 31.889 179.612 31.8749L179.654 30.7885C179.706 30.7979 179.807 30.8073 179.958 30.8167C180.108 30.8214 180.219 30.8238 180.289 30.8238C180.557 30.8238 180.769 30.7697 180.924 30.6615C181.079 30.5533 181.204 30.4169 181.298 30.2523C181.397 30.083 181.486 29.9114 181.566 29.7373L182.166 28.3758ZM179.859 21.5115L182.716 27.9102L183.055 29.173L181.912 29.2576L178.335 21.5115H179.859ZM194.441 21.5115V22.6262H189.489V31.7832H188.134V21.5115H194.441ZM203.542 26.3229V26.9719C203.542 27.7432 203.445 28.4346 203.252 29.046C203.06 29.6574 202.782 30.1771 202.42 30.6051C202.058 31.0331 201.623 31.3599 201.115 31.5857C200.612 31.8114 200.047 31.9243 199.422 31.9243C198.815 31.9243 198.258 31.8114 197.75 31.5857C197.246 31.3599 196.809 31.0331 196.438 30.6051C196.071 30.1771 195.786 29.6574 195.584 29.046C195.382 28.4346 195.281 27.7432 195.281 26.9719V26.3229C195.281 25.5515 195.379 24.8625 195.577 24.2558C195.779 23.6444 196.064 23.1247 196.43 22.6967C196.797 22.264 197.232 21.9348 197.736 21.7091C198.244 21.4833 198.801 21.3704 199.408 21.3704C200.033 21.3704 200.597 21.4833 201.101 21.7091C201.609 21.9348 202.044 22.264 202.406 22.6967C202.773 23.1247 203.052 23.6444 203.245 24.2558C203.443 24.8625 203.542 25.5515 203.542 26.3229ZM202.194 26.9719V26.3087C202.194 25.6973 202.131 25.1565 202.004 24.6862C201.881 24.2158 201.7 23.8208 201.46 23.501C201.221 23.1812 200.927 22.9389 200.579 22.7743C200.235 22.6097 199.845 22.5274 199.408 22.5274C198.984 22.5274 198.601 22.6097 198.258 22.7743C197.919 22.9389 197.627 23.1812 197.383 23.501C197.143 23.8208 196.957 24.2158 196.826 24.6862C196.694 25.1565 196.628 25.6973 196.628 26.3087V26.9719C196.628 27.588 196.694 28.1336 196.826 28.6086C196.957 29.0789 197.145 29.4763 197.39 29.8008C197.639 30.1206 197.933 30.3629 198.272 30.5275C198.615 30.6921 198.998 30.7744 199.422 30.7744C199.864 30.7744 200.256 30.6921 200.6 30.5275C200.943 30.3629 201.232 30.1206 201.468 29.8008C201.707 29.4763 201.888 29.0789 202.011 28.6086C202.133 28.1336 202.194 27.588 202.194 26.9719ZM211.958 21.5115V22.6262H207.259V21.5115H211.958ZM213.129 21.5115V31.7832H211.767V21.5115H213.129ZM206.794 21.5115H208.148L207.916 26.5416C207.883 27.2658 207.826 27.9125 207.746 28.4816C207.671 29.046 207.563 29.5375 207.422 29.956C207.281 30.3699 207.097 30.7132 206.871 30.986C206.646 31.2541 206.368 31.454 206.039 31.5857C205.714 31.7174 205.324 31.7832 204.868 31.7832H204.501V30.6756L204.783 30.6544C205.047 30.6356 205.272 30.5768 205.46 30.4781C205.653 30.3746 205.816 30.2194 205.947 30.0125C206.084 29.8055 206.194 29.5375 206.279 29.2082C206.363 28.879 206.429 28.4769 206.476 28.0019C206.528 27.5222 206.568 26.9625 206.596 26.3229L206.794 21.5115ZM216.579 25.695H219.379C220.132 25.695 220.767 25.822 221.284 26.0759C221.802 26.3252 222.194 26.6756 222.462 27.1271C222.73 27.5786 222.864 28.1077 222.864 28.7144C222.864 29.1659 222.789 29.5798 222.639 29.956C222.488 30.3276 222.265 30.6521 221.969 30.9296C221.672 31.2024 221.308 31.414 220.875 31.5645C220.442 31.7103 219.944 31.7832 219.379 31.7832H215.542V21.5115H216.903V30.6756H219.379C219.883 30.6756 220.289 30.5839 220.6 30.4005C220.915 30.2124 221.145 29.9678 221.291 29.6668C221.437 29.3658 221.51 29.0436 221.51 28.7003C221.51 28.357 221.437 28.0419 221.291 27.755C221.145 27.4681 220.915 27.24 220.6 27.0707C220.289 26.8966 219.883 26.8096 219.379 26.8096H216.579V25.695ZM231.365 25.9278V27.0354H225.806V25.9278H231.365ZM226.018 21.5115V31.7832H224.656V21.5115H226.018ZM232.551 21.5115V31.7832H231.196V21.5115H232.551ZM236.388 29.4269L241.447 21.5115H242.808V31.7832H241.447V23.8608L236.388 31.7832H235.034V21.5115H236.388V29.4269ZM246.709 21.5115V31.7832H245.348V21.5115H246.709ZM253.037 21.5115L248.579 27.1624H246.166L245.955 26.0336H247.768L251.351 21.5115H253.037ZM251.669 31.7832L247.81 26.986L248.572 25.7938L253.334 31.7832H251.669ZM258.371 22.4216L254.97 31.7832H253.581L257.496 21.5115H258.392L258.371 22.4216ZM261.221 31.7832L257.813 22.4216L257.792 21.5115H258.688L262.618 31.7832H261.221ZM261.045 27.9807V29.0954H255.274V27.9807H261.045Z" fill="black"/>
<path d="M1214.69 486.379V496.65H1213.33V487.493H1208.27V496.65H1206.9V486.379H1214.69ZM1220.94 492.622H1218.2V491.515H1220.94C1221.47 491.515 1221.9 491.43 1222.23 491.261C1222.56 491.091 1222.8 490.856 1222.95 490.555C1223.11 490.254 1223.19 489.911 1223.19 489.525C1223.19 489.172 1223.11 488.841 1222.95 488.53C1222.8 488.22 1222.56 487.971 1222.23 487.783C1221.9 487.59 1221.47 487.493 1220.94 487.493H1218.52V496.65H1217.15V486.379H1220.94C1221.72 486.379 1222.38 486.513 1222.91 486.781C1223.45 487.049 1223.85 487.42 1224.13 487.895C1224.41 488.366 1224.55 488.904 1224.55 489.511C1224.55 490.169 1224.41 490.731 1224.13 491.197C1223.85 491.663 1223.45 492.018 1222.91 492.262C1222.38 492.502 1221.72 492.622 1220.94 492.622ZM1227.69 494.294L1232.75 486.379H1234.11V496.65H1232.75V488.728L1227.69 496.65H1226.33V486.379H1227.69V494.294ZM1237.01 486.379H1238.33L1241.7 494.753L1245.06 486.379H1246.38L1242.21 496.65H1241.18L1237.01 486.379ZM1236.58 486.379H1237.75L1237.94 492.643V496.65H1236.58V486.379ZM1245.64 486.379H1246.81V496.65H1245.45V492.643L1245.64 486.379ZM1255.72 495.543V496.65H1250.28V495.543H1255.72ZM1250.56 486.379V496.65H1249.2V486.379H1250.56ZM1255 490.795V491.903H1250.28V490.795H1255ZM1255.65 486.379V487.493H1250.28V486.379H1255.65ZM1261.2 492.622H1258.45V491.515H1261.2C1261.73 491.515 1262.16 491.43 1262.49 491.261C1262.82 491.091 1263.06 490.856 1263.21 490.555C1263.36 490.254 1263.44 489.911 1263.44 489.525C1263.44 489.172 1263.36 488.841 1263.21 488.53C1263.06 488.22 1262.82 487.971 1262.49 487.783C1262.16 487.59 1261.73 487.493 1261.2 487.493H1258.77V496.65H1257.41V486.379H1261.2C1261.97 486.379 1262.63 486.513 1263.17 486.781C1263.7 487.049 1264.11 487.42 1264.39 487.895C1264.66 488.366 1264.8 488.904 1264.8 489.511C1264.8 490.169 1264.66 490.731 1264.39 491.197C1264.11 491.663 1263.7 492.018 1263.17 492.262C1262.63 492.502 1261.97 492.622 1261.2 492.622ZM1267.62 490.562H1270.42C1271.18 490.562 1271.81 490.689 1272.33 490.943C1272.85 491.192 1273.24 491.543 1273.51 491.994C1273.78 492.446 1273.91 492.975 1273.91 493.582C1273.91 494.033 1273.83 494.447 1273.68 494.823C1273.53 495.195 1273.31 495.519 1273.01 495.797C1272.72 496.07 1272.35 496.281 1271.92 496.432C1271.49 496.577 1270.99 496.65 1270.42 496.65H1266.59V486.379H1267.95V495.543H1270.42C1270.93 495.543 1271.33 495.451 1271.65 495.268C1271.96 495.08 1272.19 494.835 1272.34 494.534C1272.48 494.233 1272.56 493.911 1272.56 493.567C1272.56 493.224 1272.48 492.909 1272.34 492.622C1272.19 492.335 1271.96 492.107 1271.65 491.938C1271.33 491.764 1270.93 491.677 1270.42 491.677H1267.62V490.562ZM1276.51 486.379V496.65H1275.15V486.379H1276.51ZM1290.45 486.379V496.65H1289.1V487.493H1284.03V496.65H1282.67V486.379H1290.45ZM1296.71 492.622H1293.97V491.515H1296.71C1297.24 491.515 1297.67 491.43 1298 491.261C1298.33 491.091 1298.57 490.856 1298.72 490.555C1298.88 490.254 1298.95 489.911 1298.95 489.525C1298.95 489.172 1298.88 488.841 1298.72 488.53C1298.57 488.22 1298.33 487.971 1298 487.783C1297.67 487.59 1297.24 487.493 1296.71 487.493H1294.28V496.65H1292.92V486.379H1296.71C1297.49 486.379 1298.14 486.513 1298.68 486.781C1299.22 487.049 1299.62 487.42 1299.9 487.895C1300.18 488.366 1300.32 488.904 1300.32 489.511C1300.32 490.169 1300.18 490.731 1299.9 491.197C1299.62 491.663 1299.22 492.018 1298.68 492.262C1298.14 492.502 1297.49 492.622 1296.71 492.622ZM1309.95 491.19V491.839C1309.95 492.61 1309.85 493.302 1309.66 493.913C1309.46 494.525 1309.19 495.044 1308.82 495.472C1308.46 495.9 1308.03 496.227 1307.52 496.453C1307.02 496.679 1306.45 496.791 1305.83 496.791C1305.22 496.791 1304.66 496.679 1304.15 496.453C1303.65 496.227 1303.21 495.9 1302.84 495.472C1302.47 495.044 1302.19 494.525 1301.99 493.913C1301.79 493.302 1301.68 492.61 1301.68 491.839V491.19C1301.68 490.419 1301.78 489.73 1301.98 489.123C1302.18 488.512 1302.47 487.992 1302.83 487.564C1303.2 487.131 1303.64 486.802 1304.14 486.576C1304.65 486.351 1305.2 486.238 1305.81 486.238C1306.44 486.238 1307 486.351 1307.5 486.576C1308.01 486.802 1308.45 487.131 1308.81 487.564C1309.18 487.992 1309.46 488.512 1309.65 489.123C1309.85 489.73 1309.95 490.419 1309.95 491.19ZM1308.6 491.839V491.176C1308.6 490.565 1308.53 490.024 1308.41 489.553C1308.29 489.083 1308.1 488.688 1307.86 488.368C1307.62 488.048 1307.33 487.806 1306.98 487.642C1306.64 487.477 1306.25 487.395 1305.81 487.395C1305.39 487.395 1305 487.477 1304.66 487.642C1304.32 487.806 1304.03 488.048 1303.79 488.368C1303.55 488.688 1303.36 489.083 1303.23 489.553C1303.1 490.024 1303.03 490.565 1303.03 491.176V491.839C1303.03 492.455 1303.1 493.001 1303.23 493.476C1303.36 493.946 1303.55 494.343 1303.79 494.668C1304.04 494.988 1304.34 495.23 1304.68 495.395C1305.02 495.559 1305.4 495.642 1305.83 495.642C1306.27 495.642 1306.66 495.559 1307 495.395C1307.35 495.23 1307.64 494.988 1307.87 494.668C1308.11 494.343 1308.29 493.946 1308.41 493.476C1308.54 493.001 1308.6 492.455 1308.6 491.839ZM1318.19 493.384H1319.54C1319.47 494.033 1319.28 494.614 1318.98 495.127C1318.68 495.639 1318.26 496.046 1317.71 496.347C1317.16 496.643 1316.47 496.791 1315.65 496.791C1315.04 496.791 1314.5 496.679 1314 496.453C1313.51 496.227 1313.09 495.907 1312.74 495.493C1312.39 495.075 1312.11 494.574 1311.92 493.991C1311.73 493.403 1311.64 492.749 1311.64 492.03V491.007C1311.64 490.287 1311.73 489.636 1311.92 489.052C1312.11 488.465 1312.39 487.961 1312.75 487.543C1313.11 487.124 1313.54 486.802 1314.05 486.576C1314.56 486.351 1315.13 486.238 1315.77 486.238C1316.54 486.238 1317.2 486.383 1317.73 486.675C1318.27 486.967 1318.69 487.371 1318.98 487.888C1319.28 488.401 1319.47 488.996 1319.54 489.673H1318.19C1318.12 489.194 1318 488.782 1317.82 488.439C1317.64 488.091 1317.39 487.823 1317.06 487.634C1316.73 487.446 1316.3 487.352 1315.77 487.352C1315.31 487.352 1314.91 487.439 1314.56 487.613C1314.22 487.787 1313.93 488.034 1313.69 488.354C1313.46 488.674 1313.29 489.057 1313.17 489.504C1313.05 489.951 1312.99 490.447 1312.99 490.993V492.03C1312.99 492.533 1313.04 493.005 1313.15 493.448C1313.26 493.89 1313.42 494.278 1313.63 494.612C1313.85 494.946 1314.13 495.209 1314.46 495.402C1314.79 495.59 1315.19 495.684 1315.65 495.684C1316.22 495.684 1316.68 495.592 1317.03 495.409C1317.37 495.225 1317.63 494.962 1317.8 494.619C1317.98 494.275 1318.11 493.864 1318.19 493.384ZM1324.98 486.379V496.65H1323.64V486.379H1324.98ZM1328.28 486.379V487.493H1320.34V486.379H1328.28ZM1330.9 490.562H1333.71C1334.46 490.562 1335.09 490.689 1335.61 490.943C1336.13 491.192 1336.52 491.543 1336.79 491.994C1337.06 492.446 1337.19 492.975 1337.19 493.582C1337.19 494.033 1337.12 494.447 1336.96 494.823C1336.81 495.195 1336.59 495.519 1336.29 495.797C1336 496.07 1335.63 496.281 1335.2 496.432C1334.77 496.577 1334.27 496.65 1333.71 496.65H1329.87V486.379H1331.23V495.543H1333.71C1334.21 495.543 1334.62 495.451 1334.93 495.268C1335.24 495.08 1335.47 494.835 1335.62 494.534C1335.76 494.233 1335.84 493.911 1335.84 493.567C1335.84 493.224 1335.76 492.909 1335.62 492.622C1335.47 492.335 1335.24 492.107 1334.93 491.938C1334.62 491.764 1334.21 491.677 1333.71 491.677H1330.9V490.562ZM1339.79 486.379V496.65H1338.43V486.379H1339.79ZM1343.31 486.379L1345.78 490.315L1348.25 486.379H1349.84L1346.59 491.465L1349.92 496.65H1348.32L1345.78 492.636L1343.25 496.65H1341.65L1344.97 491.465L1341.73 486.379H1343.31ZM1355.5 486.379H1356.82L1360.19 494.753L1363.55 486.379H1364.87L1360.7 496.65H1359.67L1355.5 486.379ZM1355.07 486.379H1356.24L1356.43 492.643V496.65H1355.07V486.379ZM1364.13 486.379H1365.3V496.65H1363.94V492.643L1364.13 486.379ZM1375.6 491.19V491.839C1375.6 492.61 1375.5 493.302 1375.31 493.913C1375.11 494.525 1374.84 495.044 1374.47 495.472C1374.11 495.9 1373.68 496.227 1373.17 496.453C1372.67 496.679 1372.1 496.791 1371.48 496.791C1370.87 496.791 1370.31 496.679 1369.8 496.453C1369.3 496.227 1368.86 495.9 1368.49 495.472C1368.13 495.044 1367.84 494.525 1367.64 493.913C1367.44 493.302 1367.34 492.61 1367.34 491.839V491.19C1367.34 490.419 1367.43 489.73 1367.63 489.123C1367.83 488.512 1368.12 487.992 1368.49 487.564C1368.85 487.131 1369.29 486.802 1369.79 486.576C1370.3 486.351 1370.86 486.238 1371.46 486.238C1372.09 486.238 1372.65 486.351 1373.16 486.576C1373.66 486.802 1374.1 487.131 1374.46 487.564C1374.83 487.992 1375.11 488.512 1375.3 489.123C1375.5 489.73 1375.6 490.419 1375.6 491.19ZM1374.25 491.839V491.176C1374.25 490.565 1374.19 490.024 1374.06 489.553C1373.94 489.083 1373.76 488.688 1373.52 488.368C1373.28 488.048 1372.98 487.806 1372.63 487.642C1372.29 487.477 1371.9 487.395 1371.46 487.395C1371.04 487.395 1370.66 487.477 1370.31 487.642C1369.97 487.806 1369.68 488.048 1369.44 488.368C1369.2 488.688 1369.01 489.083 1368.88 489.553C1368.75 490.024 1368.68 490.565 1368.68 491.176V491.839C1368.68 492.455 1368.75 493.001 1368.88 493.476C1369.01 493.946 1369.2 494.343 1369.44 494.668C1369.69 494.988 1369.99 495.23 1370.33 495.395C1370.67 495.559 1371.05 495.642 1371.48 495.642C1371.92 495.642 1372.31 495.559 1372.65 495.395C1373 495.23 1373.29 494.988 1373.52 494.668C1373.76 494.343 1373.94 493.946 1374.07 493.476C1374.19 493.001 1374.25 492.455 1374.25 491.839ZM1385.47 495.543V496.65H1377.7V495.543H1385.47ZM1377.92 495.543V499.176H1376.57L1376.56 495.543H1377.92ZM1386.66 495.543L1386.64 499.169H1385.3V495.543H1386.66ZM1384.14 486.379V487.493H1379.64V486.379H1384.14ZM1385.31 486.379V496.65H1383.96V486.379H1385.31ZM1379.17 486.379H1380.53L1380.32 490.513C1380.29 491.134 1380.24 491.707 1380.15 492.234C1380.06 492.756 1379.95 493.234 1379.82 493.666C1379.68 494.099 1379.53 494.487 1379.36 494.83C1379.19 495.169 1379.01 495.463 1378.82 495.712C1378.63 495.957 1378.43 496.159 1378.21 496.319C1378.01 496.474 1377.8 496.585 1377.59 496.65H1376.97V495.543H1377.4C1377.52 495.411 1377.66 495.221 1377.82 494.971C1377.98 494.722 1378.14 494.4 1378.29 494.005C1378.45 493.605 1378.59 493.118 1378.71 492.545C1378.83 491.971 1378.91 491.294 1378.95 490.513L1379.17 486.379ZM1391.44 493.243L1394.16 486.379H1395.72L1392.09 494.936C1391.99 495.176 1391.87 495.409 1391.74 495.635C1391.62 495.856 1391.46 496.053 1391.28 496.227C1391.1 496.401 1390.87 496.54 1390.59 496.643C1390.33 496.747 1389.99 496.799 1389.59 496.799C1389.48 496.799 1389.35 496.791 1389.19 496.777C1389.04 496.768 1388.93 496.756 1388.89 496.742L1388.93 495.656C1388.98 495.665 1389.08 495.674 1389.23 495.684C1389.38 495.689 1389.49 495.691 1389.56 495.691C1389.83 495.691 1390.04 495.637 1390.2 495.529C1390.35 495.421 1390.48 495.284 1390.57 495.12C1390.67 494.95 1390.76 494.779 1390.84 494.605L1391.44 493.243ZM1389.13 486.379L1391.99 492.777L1392.33 494.04L1391.19 494.125L1387.61 486.379H1389.13ZM1403.57 486.379V487.493H1398.87V486.379H1403.57ZM1404.74 486.379V496.65H1403.38V486.379H1404.74ZM1398.4 486.379H1399.76L1399.53 491.409C1399.49 492.133 1399.44 492.78 1399.36 493.349C1399.28 493.913 1399.17 494.405 1399.03 494.823C1398.89 495.237 1398.71 495.58 1398.48 495.853C1398.26 496.121 1397.98 496.321 1397.65 496.453C1397.32 496.585 1396.93 496.65 1396.48 496.65H1396.11V495.543L1396.39 495.522C1396.66 495.503 1396.88 495.444 1397.07 495.345C1397.26 495.242 1397.43 495.087 1397.56 494.88C1397.69 494.673 1397.8 494.405 1397.89 494.075C1397.97 493.746 1398.04 493.344 1398.09 492.869C1398.14 492.389 1398.18 491.83 1398.21 491.19L1398.4 486.379ZM1413.72 495.543V496.65H1408.28V495.543H1413.72ZM1408.56 486.379V496.65H1407.19V486.379H1408.56ZM1413 490.795V491.903H1408.28V490.795H1413ZM1413.65 486.379V487.493H1408.28V486.379H1413.65ZM1416.82 494.294L1421.88 486.379H1423.24V496.65H1421.88V488.728L1416.82 496.65H1415.47V486.379H1416.82V494.294ZM1420.44 483.832H1421.49C1421.49 484.199 1421.41 484.526 1421.24 484.813C1421.07 485.095 1420.83 485.316 1420.51 485.476C1420.2 485.636 1419.82 485.716 1419.39 485.716C1418.74 485.716 1418.22 485.542 1417.84 485.194C1417.46 484.841 1417.28 484.387 1417.28 483.832H1418.33C1418.33 484.109 1418.41 484.354 1418.57 484.566C1418.73 484.777 1419.01 484.883 1419.39 484.883C1419.77 484.883 1420.04 484.777 1420.2 484.566C1420.36 484.354 1420.44 484.109 1420.44 483.832Z" fill="black"/>
<path d="M568.713 21.5115V31.7832H567.358V22.6262H562.293V31.7832H560.932V21.5115H568.713ZM574.97 27.755H572.226V26.6474H574.97C575.502 26.6474 575.932 26.5627 576.261 26.3934C576.591 26.2241 576.83 25.9889 576.981 25.6879C577.136 25.3869 577.214 25.0436 577.214 24.6579C577.214 24.3052 577.136 23.9736 576.981 23.6632C576.83 23.3528 576.591 23.1036 576.261 22.9154C575.932 22.7226 575.502 22.6262 574.97 22.6262H572.544V31.7832H571.182V21.5115H574.97C575.746 21.5115 576.403 21.6456 576.939 21.9137C577.475 22.1817 577.882 22.5533 578.159 23.0283C578.437 23.4986 578.575 24.0371 578.575 24.6438C578.575 25.3023 578.437 25.8643 578.159 26.3299C577.882 26.7955 577.475 27.1506 576.939 27.3952C576.403 27.635 575.746 27.755 574.97 27.755ZM581.715 29.4269L586.773 21.5115H588.134V31.7832H586.773V23.8608L581.715 31.7832H580.36V21.5115H581.715V29.4269ZM591.041 21.5115H592.36L595.725 29.8855L599.083 21.5115H600.41L596.233 31.7832H595.203L591.041 21.5115ZM590.611 21.5115H591.775L591.965 27.7761V31.7832H590.611V21.5115ZM599.669 21.5115H600.833V31.7832H599.478V27.7761L599.669 21.5115ZM609.75 30.6756V31.7832H604.311V30.6756H609.75ZM604.586 21.5115V31.7832H603.225V21.5115H604.586ZM609.031 25.9278V27.0354H604.311V25.9278H609.031ZM609.68 21.5115V22.6262H604.311V21.5115H609.68ZM615.225 27.755H612.48V26.6474H615.225C615.756 26.6474 616.186 26.5627 616.516 26.3934C616.845 26.2241 617.085 25.9889 617.235 25.6879C617.39 25.3869 617.468 25.0436 617.468 24.6579C617.468 24.3052 617.39 23.9736 617.235 23.6632C617.085 23.3528 616.845 23.1036 616.516 22.9154C616.186 22.7226 615.756 22.6262 615.225 22.6262H612.798V31.7832H611.436V21.5115H615.225C616.001 21.5115 616.657 21.6456 617.193 21.9137C617.729 22.1817 618.136 22.5533 618.413 23.0283C618.691 23.4986 618.83 24.0371 618.83 24.6438C618.83 25.3023 618.691 25.8643 618.413 26.3299C618.136 26.7955 617.729 27.1506 617.193 27.3952C616.657 27.635 616.001 27.755 615.225 27.755ZM630.526 30.7109V31.7832H623.803V30.8449L627.168 27.0989C627.582 26.638 627.902 26.2476 628.128 25.9278C628.358 25.6033 628.518 25.314 628.607 25.0601C628.701 24.8014 628.748 24.538 628.748 24.2699C628.748 23.9313 628.678 23.6256 628.537 23.3528C628.4 23.0753 628.198 22.8543 627.93 22.6897C627.662 22.5251 627.338 22.4428 626.957 22.4428C626.5 22.4428 626.119 22.5321 625.814 22.7108C625.513 22.8849 625.287 23.1294 625.136 23.4445C624.986 23.7596 624.911 24.1218 624.911 24.531H623.606C623.606 23.9525 623.733 23.4234 623.987 22.9436C624.241 22.4639 624.617 22.083 625.115 21.8008C625.614 21.5139 626.228 21.3704 626.957 21.3704C627.606 21.3704 628.161 21.4857 628.621 21.7161C629.082 21.9419 629.435 22.2617 629.68 22.6756C629.929 23.0847 630.054 23.5645 630.054 24.1147C630.054 24.4157 630.002 24.7214 629.898 25.0318C629.8 25.3375 629.661 25.6433 629.482 25.949C629.308 26.2547 629.104 26.5557 628.868 26.852C628.638 27.1483 628.391 27.4399 628.128 27.7267L625.376 30.7109H630.526Z" fill="black"/>
<path d="M841.42 21.5115V31.7832H840.065V22.6262H835V31.7832H833.639V21.5115H841.42ZM847.677 27.755H844.933V26.6474H847.677C848.209 26.6474 848.639 26.5627 848.968 26.3934C849.298 26.2241 849.538 25.9889 849.688 25.6879C849.843 25.3869 849.921 25.0436 849.921 24.6579C849.921 24.3052 849.843 23.9736 849.688 23.6632C849.538 23.3528 849.298 23.1036 848.968 22.9154C848.639 22.7226 848.209 22.6262 847.677 22.6262H845.251V31.7832H843.889V21.5115H847.677C848.453 21.5115 849.11 21.6456 849.646 21.9137C850.182 22.1817 850.589 22.5533 850.866 23.0283C851.144 23.4986 851.282 24.0371 851.282 24.6438C851.282 25.3023 851.144 25.8643 850.866 26.3299C850.589 26.7955 850.182 27.1506 849.646 27.3952C849.11 27.635 848.453 27.755 847.677 27.755ZM854.422 29.4269L859.48 21.5115H860.842V31.7832H859.48V23.8608L854.422 31.7832H853.067V21.5115H854.422V29.4269ZM863.748 21.5115H865.067L868.432 29.8855L871.79 21.5115H873.117L868.94 31.7832H867.91L863.748 21.5115ZM863.318 21.5115H864.482L864.672 27.7761V31.7832H863.318V21.5115ZM872.376 21.5115H873.54V31.7832H872.186V27.7761L872.376 21.5115ZM882.457 30.6756V31.7832H877.018V30.6756H882.457ZM877.293 21.5115V31.7832H875.932V21.5115H877.293ZM881.738 25.9278V27.0354H877.018V25.9278H881.738ZM882.387 21.5115V22.6262H877.018V21.5115H882.387ZM887.932 27.755H885.187V26.6474H887.932C888.463 26.6474 888.893 26.5627 889.223 26.3934C889.552 26.2241 889.792 25.9889 889.942 25.6879C890.097 25.3869 890.175 25.0436 890.175 24.6579C890.175 24.3052 890.097 23.9736 889.942 23.6632C889.792 23.3528 889.552 23.1036 889.223 22.9154C888.893 22.7226 888.463 22.6262 887.932 22.6262H885.505V31.7832H884.143V21.5115H887.932C888.708 21.5115 889.364 21.6456 889.9 21.9137C890.436 22.1817 890.843 22.5533 891.12 23.0283C891.398 23.4986 891.537 24.0371 891.537 24.6438C891.537 25.3023 891.398 25.8643 891.12 26.3299C890.843 26.7955 890.436 27.1506 889.9 27.3952C889.364 27.635 888.708 27.755 887.932 27.755ZM898.408 26.0054H899.339C899.795 26.0054 900.172 25.9301 900.468 25.7796C900.769 25.6244 900.992 25.4151 901.138 25.1518C901.289 24.8837 901.364 24.5827 901.364 24.2488C901.364 23.8537 901.298 23.5221 901.166 23.2541C901.035 22.986 900.837 22.7837 900.574 22.6474C900.31 22.511 899.976 22.4428 899.572 22.4428C899.205 22.4428 898.881 22.5157 898.598 22.6615C898.321 22.8026 898.102 23.0048 897.942 23.2682C897.787 23.5315 897.709 23.8419 897.709 24.1994H896.404C896.404 23.6773 896.536 23.2023 896.799 22.7743C897.063 22.3463 897.432 22.0054 897.907 21.7514C898.387 21.4974 898.942 21.3704 899.572 21.3704C900.193 21.3704 900.736 21.481 901.202 21.702C901.667 21.9184 902.029 22.2429 902.288 22.6756C902.547 23.1036 902.676 23.6374 902.676 24.277C902.676 24.5357 902.615 24.8131 902.493 25.1094C902.375 25.401 902.189 25.6738 901.935 25.9278C901.686 26.1818 901.361 26.3911 900.962 26.5557C900.562 26.7156 900.082 26.7955 899.523 26.7955H898.408V26.0054ZM898.408 27.0777V26.2946H899.523C900.176 26.2946 900.717 26.3722 901.145 26.5274C901.573 26.6826 901.909 26.8896 902.154 27.1483C902.403 27.4069 902.577 27.6915 902.676 28.0019C902.779 28.3076 902.831 28.6133 902.831 28.919C902.831 29.3987 902.749 29.8243 902.584 30.1959C902.424 30.5674 902.196 30.8826 901.9 31.1412C901.608 31.3999 901.265 31.5951 900.87 31.7268C900.475 31.8585 900.045 31.9243 899.579 31.9243C899.132 31.9243 898.711 31.8608 898.316 31.7338C897.926 31.6068 897.58 31.4234 897.279 31.1836C896.978 30.939 896.743 30.6403 896.574 30.2876C896.404 29.9302 896.32 29.5233 896.32 29.0671H897.625C897.625 29.4246 897.702 29.7373 897.858 30.0054C898.018 30.2735 898.243 30.4828 898.535 30.6333C898.831 30.7791 899.179 30.852 899.579 30.852C899.979 30.852 900.322 30.7838 900.609 30.6474C900.901 30.5063 901.124 30.2947 901.279 30.0125C901.439 29.7303 901.519 29.3752 901.519 28.9472C901.519 28.5192 901.43 28.1688 901.251 27.8961C901.072 27.6186 900.818 27.414 900.489 27.2823C900.164 27.1459 899.781 27.0777 899.339 27.0777H898.408Z" fill="black"/>
<path d="M1114.13 21.5115V31.7832H1112.77V22.6262H1107.71V31.7832H1106.35V21.5115H1114.13ZM1120.38 27.755H1117.64V26.6474H1120.38C1120.92 26.6474 1121.35 26.5627 1121.68 26.3934C1122 26.2241 1122.24 25.9889 1122.4 25.6879C1122.55 25.3869 1122.63 25.0436 1122.63 24.6579C1122.63 24.3052 1122.55 23.9736 1122.4 23.6632C1122.24 23.3528 1122 23.1036 1121.68 22.9154C1121.35 22.7226 1120.92 22.6262 1120.38 22.6262H1117.96V31.7832H1116.6V21.5115H1120.38C1121.16 21.5115 1121.82 21.6456 1122.35 21.9137C1122.89 22.1817 1123.3 22.5533 1123.57 23.0283C1123.85 23.4986 1123.99 24.0371 1123.99 24.6438C1123.99 25.3023 1123.85 25.8643 1123.57 26.3299C1123.3 26.7955 1122.89 27.1506 1122.35 27.3952C1121.82 27.635 1121.16 27.755 1120.38 27.755ZM1127.13 29.4269L1132.19 21.5115H1133.55V31.7832H1132.19V23.8608L1127.13 31.7832H1125.77V21.5115H1127.13V29.4269ZM1136.46 21.5115H1137.77L1141.14 29.8855L1144.5 21.5115H1145.82L1141.65 31.7832H1140.62L1136.46 21.5115ZM1136.02 21.5115H1137.19L1137.38 27.7761V31.7832H1136.02V21.5115ZM1145.08 21.5115H1146.25V31.7832H1144.89V27.7761L1145.08 21.5115ZM1155.16 30.6756V31.7832H1149.73V30.6756H1155.16ZM1150 21.5115V31.7832H1148.64V21.5115H1150ZM1154.44 25.9278V27.0354H1149.73V25.9278H1154.44ZM1155.09 21.5115V22.6262H1149.73V21.5115H1155.09ZM1160.64 27.755H1157.89V26.6474H1160.64C1161.17 26.6474 1161.6 26.5627 1161.93 26.3934C1162.26 26.2241 1162.5 25.9889 1162.65 25.6879C1162.8 25.3869 1162.88 25.0436 1162.88 24.6579C1162.88 24.3052 1162.8 23.9736 1162.65 23.6632C1162.5 23.3528 1162.26 23.1036 1161.93 22.9154C1161.6 22.7226 1161.17 22.6262 1160.64 22.6262H1158.21V31.7832H1156.85V21.5115H1160.64C1161.41 21.5115 1162.07 21.6456 1162.61 21.9137C1163.14 22.1817 1163.55 22.5533 1163.83 23.0283C1164.1 23.4986 1164.24 24.0371 1164.24 24.6438C1164.24 25.3023 1164.1 25.8643 1163.83 26.3299C1163.55 26.7955 1163.14 27.1506 1162.61 27.3952C1162.07 27.635 1161.41 27.755 1160.64 27.755ZM1176.15 28.3264V29.3987H1168.73V28.6297L1173.33 21.5115H1174.4L1173.25 23.5715L1170.21 28.3264H1176.15ZM1174.72 21.5115V31.7832H1173.41V21.5115H1174.72Z" fill="black"/>
<path d="M1386.83 21.5115V31.7832H1385.48V22.6262H1380.41V31.7832H1379.05V21.5115H1386.83ZM1393.09 27.755H1390.35V26.6474H1393.09C1393.62 26.6474 1394.05 26.5627 1394.38 26.3934C1394.71 26.2241 1394.95 25.9889 1395.1 25.6879C1395.26 25.3869 1395.33 25.0436 1395.33 24.6579C1395.33 24.3052 1395.26 23.9736 1395.1 23.6632C1394.95 23.3528 1394.71 23.1036 1394.38 22.9154C1394.05 22.7226 1393.62 22.6262 1393.09 22.6262H1390.66V31.7832H1389.3V21.5115H1393.09C1393.87 21.5115 1394.52 21.6456 1395.06 21.9137C1395.6 22.1817 1396 22.5533 1396.28 23.0283C1396.56 23.4986 1396.7 24.0371 1396.7 24.6438C1396.7 25.3023 1396.56 25.8643 1396.28 26.3299C1396 26.7955 1395.6 27.1506 1395.06 27.3952C1394.52 27.635 1393.87 27.755 1393.09 27.755ZM1399.84 29.4269L1404.89 21.5115H1406.26V31.7832H1404.89V23.8608L1399.84 31.7832H1398.48V21.5115H1399.84V29.4269ZM1409.16 21.5115H1410.48L1413.85 29.8855L1417.2 21.5115H1418.53L1414.35 31.7832H1413.32L1409.16 21.5115ZM1408.73 21.5115H1409.9L1410.09 27.7761V31.7832H1408.73V21.5115ZM1417.79 21.5115H1418.95V31.7832H1417.6V27.7761L1417.79 21.5115ZM1427.87 30.6756V31.7832H1422.43V30.6756H1427.87ZM1422.71 21.5115V31.7832H1421.35V21.5115H1422.71ZM1427.15 25.9278V27.0354H1422.43V25.9278H1427.15ZM1427.8 21.5115V22.6262H1422.43V21.5115H1427.8ZM1433.35 27.755H1430.6V26.6474H1433.35C1433.88 26.6474 1434.31 26.5627 1434.64 26.3934C1434.97 26.2241 1435.21 25.9889 1435.36 25.6879C1435.51 25.3869 1435.59 25.0436 1435.59 24.6579C1435.59 24.3052 1435.51 23.9736 1435.36 23.6632C1435.21 23.3528 1434.97 23.1036 1434.64 22.9154C1434.31 22.7226 1433.88 22.6262 1433.35 22.6262H1430.92V31.7832H1429.56V21.5115H1433.35C1434.12 21.5115 1434.78 21.6456 1435.31 21.9137C1435.85 22.1817 1436.26 22.5533 1436.53 23.0283C1436.81 23.4986 1436.95 24.0371 1436.95 24.6438C1436.95 25.3023 1436.81 25.8643 1436.53 26.3299C1436.26 26.7955 1435.85 27.1506 1435.31 27.3952C1434.78 27.635 1434.12 27.755 1433.35 27.755ZM1443.57 26.8943L1442.52 26.6262L1443.04 21.5115H1448.31V22.7179H1444.15L1443.84 25.5116C1444.02 25.4034 1444.26 25.3023 1444.55 25.2082C1444.84 25.1141 1445.17 25.0671 1445.55 25.0671C1446.03 25.0671 1446.45 25.1494 1446.83 25.314C1447.2 25.4739 1447.52 25.7044 1447.79 26.0054C1448.05 26.3064 1448.26 26.6685 1448.4 27.0918C1448.54 27.5151 1448.61 27.9878 1448.61 28.5098C1448.61 29.0036 1448.54 29.4575 1448.41 29.8714C1448.28 30.2853 1448.08 30.6474 1447.81 30.9578C1447.54 31.2635 1447.2 31.501 1446.79 31.6703C1446.39 31.8396 1445.91 31.9243 1445.36 31.9243C1444.95 31.9243 1444.55 31.8679 1444.18 31.755C1443.81 31.6374 1443.49 31.461 1443.19 31.2259C1442.91 30.986 1442.67 30.6897 1442.49 30.337C1442.31 29.9795 1442.2 29.561 1442.15 29.0812H1443.39C1443.45 29.4669 1443.56 29.7914 1443.73 30.0548C1443.9 30.3182 1444.12 30.5181 1444.39 30.6544C1444.67 30.7861 1444.99 30.852 1445.36 30.852C1445.67 30.852 1445.95 30.7979 1446.19 30.6897C1446.43 30.5816 1446.63 30.4263 1446.79 30.2241C1446.96 30.0219 1447.08 29.7773 1447.17 29.4904C1447.26 29.2035 1447.3 28.8814 1447.3 28.5239C1447.3 28.1994 1447.26 27.8984 1447.17 27.6209C1447.08 27.3434 1446.94 27.1012 1446.76 26.8943C1446.59 26.6873 1446.38 26.5274 1446.12 26.4146C1445.87 26.297 1445.58 26.2382 1445.25 26.2382C1444.81 26.2382 1444.48 26.297 1444.25 26.4146C1444.03 26.5321 1443.8 26.6921 1443.57 26.8943Z" fill="black"/>
<g clip-path="url(#clip0_519_347)">
<circle cx="1382.09" cy="579.817" r="30.4557" fill="#00313C"/>
</g>
<path d="M1412.01 582.807H1352.07" stroke="#E6007E" stroke-width="0.451502" stroke-miterlimit="10"/>
<defs>
<filter id="filter0_d_519_347" x="0.032419" y="43.923" width="296.826" height="405.024" filterUnits="userSpaceOnUse" color-interpolation-filters="sRGB">
<feFlood flood-opacity="0" result="BackgroundImageFix"/>
<feColorMatrix in="SourceAlpha" type="matrix" values="0 0 0 0 0 0 0 0 0 0 0 0 0 0 0 0 0 0 127 0" result="hardAlpha"/>
<feOffset dx="3.61201" dy="3.61201"/>
<feGaussianBlur stdDeviation="9.03003"/>
<feComposite in2="hardAlpha" operator="out"/>
<feColorMatrix type="matrix" values="0 0 0 0 0 0 0 0 0 0 0 0 0 0 0 0 0 0 0.1 0"/>
<feBlend mode="normal" in2="BackgroundImageFix" result="effect1_dropShadow_519_347"/>
<feBlend mode="normal" in="SourceGraphic" in2="effect1_dropShadow_519_347" result="shape"/>
</filter>
<filter id="filter1_d_519_347" x="271.15" y="43.923" width="296.826" height="405.024" filterUnits="userSpaceOnUse" color-interpolation-filters="sRGB">
<feFlood flood-opacity="0" result="BackgroundImageFix"/>
<feColorMatrix in="SourceAlpha" type="matrix" values="0 0 0 0 0 0 0 0 0 0 0 0 0 0 0 0 0 0 127 0" result="hardAlpha"/>
<feOffset dx="3.61201" dy="3.61201"/>
<feGaussianBlur stdDeviation="9.03003"/>
<feComposite in2="hardAlpha" operator="out"/>
<feColorMatrix type="matrix" values="0 0 0 0 0 0 0 0 0 0 0 0 0 0 0 0 0 0 0.1 0"/>
<feBlend mode="normal" in2="BackgroundImageFix" result="effect1_dropShadow_519_347"/>
<feBlend mode="normal" in="SourceGraphic" in2="effect1_dropShadow_519_347" result="shape"/>
</filter>
<filter id="filter2_d_519_347" x="542.265" y="43.923" width="296.826" height="405.024" filterUnits="userSpaceOnUse" color-interpolation-filters="sRGB">
<feFlood flood-opacity="0" result="BackgroundImageFix"/>
<feColorMatrix in="SourceAlpha" type="matrix" values="0 0 0 0 0 0 0 0 0 0 0 0 0 0 0 0 0 0 127 0" result="hardAlpha"/>
<feOffset dx="3.61201" dy="3.61201"/>
<feGaussianBlur stdDeviation="9.03003"/>
<feComposite in2="hardAlpha" operator="out"/>
<feColorMatrix type="matrix" values="0 0 0 0 0 0 0 0 0 0 0 0 0 0 0 0 0 0 0.1 0"/>
<feBlend mode="normal" in2="BackgroundImageFix" result="effect1_dropShadow_519_347"/>
<feBlend mode="normal" in="SourceGraphic" in2="effect1_dropShadow_519_347" result="shape"/>
</filter>
<filter id="filter3_d_519_347" x="822.414" y="52.9531" width="278.766" height="386.964" filterUnits="userSpaceOnUse" color-interpolation-filters="sRGB">
<feFlood flood-opacity="0" result="BackgroundImageFix"/>
<feColorMatrix in="SourceAlpha" type="matrix" values="0 0 0 0 0 0 0 0 0 0 0 0 0 0 0 0 0 0 127 0" result="hardAlpha"/>
<feOffset dx="3.61201" dy="3.61201"/>
<feGaussianBlur stdDeviation="4.51502"/>
<feComposite in2="hardAlpha" operator="out"/>
<feColorMatrix type="matrix" values="0 0 0 0 0 0 0 0 0 0 0 0 0 0 0 0 0 0 0.25 0"/>
<feBlend mode="normal" in2="BackgroundImageFix" result="effect1_dropShadow_519_347"/>
<feBlend mode="normal" in="SourceGraphic" in2="effect1_dropShadow_519_347" result="shape"/>
</filter>
<filter id="filter4_d_519_347" x="1084.5" y="43.923" width="296.826" height="405.024" filterUnits="userSpaceOnUse" color-interpolation-filters="sRGB">
<feFlood flood-opacity="0" result="BackgroundImageFix"/>
<feColorMatrix in="SourceAlpha" type="matrix" values="0 0 0 0 0 0 0 0 0 0 0 0 0 0 0 0 0 0 127 0" result="hardAlpha"/>
<feOffset dx="3.61201" dy="3.61201"/>
<feGaussianBlur stdDeviation="9.03003"/>
<feComposite in2="hardAlpha" operator="out"/>
<feColorMatrix type="matrix" values="0 0 0 0 0 0 0 0 0 0 0 0 0 0 0 0 0 0 0.1 0"/>
<feBlend mode="normal" in2="BackgroundImageFix" result="effect1_dropShadow_519_347"/>
<feBlend mode="normal" in="SourceGraphic" in2="effect1_dropShadow_519_347" result="shape"/>
</filter>
<filter id="filter5_d_519_347" x="1355.62" y="43.923" width="296.826" height="405.024" filterUnits="userSpaceOnUse" color-interpolation-filters="sRGB">
<feFlood flood-opacity="0" result="BackgroundImageFix"/>
<feColorMatrix in="SourceAlpha" type="matrix" values="0 0 0 0 0 0 0 0 0 0 0 0 0 0 0 0 0 0 127 0" result="hardAlpha"/>
<feOffset dx="3.61201" dy="3.61201"/>
<feGaussianBlur stdDeviation="9.03003"/>
<feComposite in2="hardAlpha" operator="out"/>
<feColorMatrix type="matrix" values="0 0 0 0 0 0 0 0 0 0 0 0 0 0 0 0 0 0 0.1 0"/>
<feBlend mode="normal" in2="BackgroundImageFix" result="effect1_dropShadow_519_347"/>
<feBlend mode="normal" in="SourceGraphic" in2="effect1_dropShadow_519_347" result="shape"/>
</filter>
<clipPath id="clip0_519_347">
<rect width="68.1843" height="40.0015" fill="white" transform="translate(1348 543)"/>
</clipPath>
</defs>
</svg>
