<svg width="367" height="982" viewBox="0 0 367 982" fill="none" xmlns="http://www.w3.org/2000/svg">
<g filter="url(#filter0_d_1327_5015)">
<path d="M177.765 53.4287H10.3594V290.311H177.765V53.4287Z" fill="white"/>
</g>
<path d="M38.3086 53.2896V290.45" stroke="#999999" stroke-width="0.43488"/>
<path d="M66.2578 53.2896V290.45" stroke="#999999" stroke-width="0.43488"/>
<path d="M93.9297 53.2896V290.45" stroke="#999999" stroke-width="0.43488"/>
<path d="M121.875 53.2896V290.45" stroke="#999999" stroke-width="0.43488"/>
<path d="M149.824 53.2896V290.45" stroke="#999999" stroke-width="0.43488"/>
<path d="M177.912 79.4985H10.2227" stroke="#999999" stroke-width="0.43488"/>
<path d="M177.912 105.852H10.2227" stroke="#999999" stroke-width="0.43488"/>
<path d="M177.912 132.484H10.2227" stroke="#999999" stroke-width="0.43488"/>
<path d="M177.912 158.554H10.2227" stroke="#999999" stroke-width="0.43488"/>
<path d="M177.912 184.907H10.2227" stroke="#999999" stroke-width="0.43488"/>
<path d="M177.912 211.254H10.2227" stroke="#999999" stroke-width="0.43488"/>
<path d="M177.912 237.888H10.2227" stroke="#999999" stroke-width="0.43488"/>
<path d="M177.912 264.242H10.2227" stroke="#999999" stroke-width="0.43488"/>
<g filter="url(#filter1_d_1327_5015)">
<path d="M351.855 53.4287H184.449V290.311H351.855V53.4287Z" fill="white"/>
</g>
<path d="M351.862 53.2896H185.332V211.354H351.862V53.2896Z" fill="#008C95"/>
<path d="M212.398 53.2896V290.45" stroke="#999999" stroke-width="0.43488"/>
<path d="M240.348 53.2896V290.45" stroke="#999999" stroke-width="0.43488"/>
<path d="M268.02 53.2896V290.45" stroke="#999999" stroke-width="0.43488"/>
<path d="M295.969 53.2896V290.45" stroke="#999999" stroke-width="0.43488"/>
<path d="M323.914 53.2896V290.45" stroke="#999999" stroke-width="0.43488"/>
<path d="M352.002 79.4985H184.312" stroke="#999999" stroke-width="0.43488"/>
<path d="M352.002 105.852H184.312" stroke="#999999" stroke-width="0.43488"/>
<path d="M352.002 132.484H184.312" stroke="#999999" stroke-width="0.43488"/>
<path d="M352.002 158.554H184.312" stroke="#999999" stroke-width="0.43488"/>
<path d="M352.002 184.907H184.312" stroke="#999999" stroke-width="0.43488"/>
<path d="M352.002 211.254H184.312" stroke="#999999" stroke-width="0.43488"/>
<path d="M352.002 237.888H184.312" stroke="#999999" stroke-width="0.43488"/>
<path d="M352.002 264.242H184.312" stroke="#999999" stroke-width="0.43488"/>
<path d="M178.13 53H10V210.635H178.13V53Z" fill="white"/>
<path d="M10 204.17L17.7757 210.635H65.3051L10 161.609V204.17Z" fill="#F0F0F0"/>
<path d="M10 118.012L112.58 210.635H159.773L10 75.1904V118.012Z" fill="#F0F0F0"/>
<path d="M33.3242 53L178.133 184.456V141.617L80.5116 53H33.3242Z" fill="#F0F0F0"/>
<path d="M127.691 53L178.132 98.79V55.9572L174.873 53H127.691Z" fill="#F0F0F0"/>
<path d="M177.191 53.5854H11.0898V210.786H177.191V53.5854Z" stroke="#E6007E" stroke-width="1.15968"/>
<path d="M21.7891 66.1162L162.4 195.003" stroke="#E6007E" stroke-width="0.57984"/>
<path d="M20.1914 64.6545L20.4581 67.9712L23.5139 64.6313L20.1914 64.6545Z" fill="#E6007E"/>
<path d="M163.99 196.471L163.724 193.154L160.668 196.494L163.99 196.471Z" fill="#E6007E"/>
<path d="M192.838 14.5308V23.062H191.713V15.4565H187.506V23.062H186.375V14.5308H192.838ZM198.035 19.7163H195.756V18.7964H198.035C198.477 18.7964 198.834 18.7261 199.107 18.5854C199.381 18.4448 199.58 18.2495 199.705 17.9995C199.834 17.7495 199.898 17.4644 199.898 17.144C199.898 16.8511 199.834 16.5757 199.705 16.3179C199.58 16.0601 199.381 15.853 199.107 15.6968C198.834 15.5366 198.477 15.4565 198.035 15.4565H196.02V23.062H194.889V14.5308H198.035C198.68 14.5308 199.225 14.6421 199.67 14.8647C200.115 15.0874 200.453 15.396 200.684 15.7905C200.914 16.1812 201.029 16.6284 201.029 17.1323C201.029 17.6792 200.914 18.146 200.684 18.5327C200.453 18.9194 200.115 19.2144 199.67 19.4175C199.225 19.6167 198.68 19.7163 198.035 19.7163ZM203.637 21.105L207.838 14.5308H208.969V23.062H207.838V16.4819L203.637 23.062H202.512V14.5308H203.637V21.105ZM211.383 14.5308H212.479L215.273 21.4858L218.062 14.5308H219.164L215.695 23.062H214.84L211.383 14.5308ZM211.025 14.5308H211.992L212.15 19.7339V23.062H211.025V14.5308ZM218.549 14.5308H219.516V23.062H218.391V19.7339L218.549 14.5308ZM226.922 22.1421V23.062H222.404V22.1421H226.922ZM222.633 14.5308V23.062H221.502V14.5308H222.633ZM226.324 18.1987V19.1187H222.404V18.1987H226.324ZM226.863 14.5308V15.4565H222.404V14.5308H226.863ZM231.469 19.7163H229.189V18.7964H231.469C231.91 18.7964 232.268 18.7261 232.541 18.5854C232.814 18.4448 233.014 18.2495 233.139 17.9995C233.268 17.7495 233.332 17.4644 233.332 17.144C233.332 16.8511 233.268 16.5757 233.139 16.3179C233.014 16.0601 232.814 15.853 232.541 15.6968C232.268 15.5366 231.91 15.4565 231.469 15.4565H229.453V23.062H228.322V14.5308H231.469C232.113 14.5308 232.658 14.6421 233.104 14.8647C233.549 15.0874 233.887 15.396 234.117 15.7905C234.348 16.1812 234.463 16.6284 234.463 17.1323C234.463 17.6792 234.348 18.146 234.117 18.5327C233.887 18.9194 233.549 19.2144 233.104 19.4175C232.658 19.6167 232.113 19.7163 231.469 19.7163ZM242.15 14.4839V23.062H241.066V15.8374L238.881 16.6343V15.6558L241.98 14.4839H242.15Z" fill="black"/>
<path d="M17.7285 14.5308V23.062H16.6035V15.4565H12.3965V23.062H11.2656V14.5308H17.7285ZM26.3477 18.5269V19.0659C26.3477 19.7065 26.2676 20.2808 26.1074 20.7886C25.9473 21.2964 25.7168 21.728 25.416 22.0835C25.1152 22.439 24.7539 22.7104 24.332 22.8979C23.9141 23.0854 23.4453 23.1792 22.9258 23.1792C22.4219 23.1792 21.959 23.0854 21.5371 22.8979C21.1191 22.7104 20.7559 22.439 20.4473 22.0835C20.1426 21.728 19.9062 21.2964 19.7383 20.7886C19.5703 20.2808 19.4863 19.7065 19.4863 19.0659V18.5269C19.4863 17.8862 19.5684 17.314 19.7324 16.8101C19.9004 16.3022 20.1367 15.8706 20.4414 15.5151C20.7461 15.1558 21.1074 14.8823 21.5254 14.6948C21.9473 14.5073 22.4102 14.4136 22.9141 14.4136C23.4336 14.4136 23.9023 14.5073 24.3203 14.6948C24.7422 14.8823 25.1035 15.1558 25.4043 15.5151C25.709 15.8706 25.9414 16.3022 26.1016 16.8101C26.2656 17.314 26.3477 17.8862 26.3477 18.5269ZM25.2285 19.0659V18.5151C25.2285 18.0073 25.1758 17.5581 25.0703 17.1675C24.9688 16.7769 24.8184 16.4487 24.6191 16.1831C24.4199 15.9175 24.1758 15.7163 23.8867 15.5796C23.6016 15.4429 23.2773 15.3745 22.9141 15.3745C22.5625 15.3745 22.2441 15.4429 21.959 15.5796C21.6777 15.7163 21.4355 15.9175 21.2324 16.1831C21.0332 16.4487 20.8789 16.7769 20.7695 17.1675C20.6602 17.5581 20.6055 18.0073 20.6055 18.5151V19.0659C20.6055 19.5776 20.6602 20.0308 20.7695 20.4253C20.8789 20.8159 21.0352 21.146 21.2383 21.4155C21.4453 21.6812 21.6895 21.8823 21.9707 22.019C22.2559 22.1558 22.5742 22.2241 22.9258 22.2241C23.293 22.2241 23.6191 22.1558 23.9043 22.019C24.1895 21.8823 24.4297 21.6812 24.625 21.4155C24.8242 21.146 24.9746 20.8159 25.0762 20.4253C25.1777 20.0308 25.2285 19.5776 25.2285 19.0659ZM33.1914 20.3491H34.3164C34.2578 20.8882 34.1035 21.3706 33.8535 21.7964C33.6035 22.2222 33.25 22.5601 32.793 22.8101C32.3359 23.0562 31.7656 23.1792 31.082 23.1792C30.582 23.1792 30.127 23.0854 29.7168 22.8979C29.3105 22.7104 28.9609 22.4448 28.668 22.1011C28.375 21.7534 28.1484 21.3374 27.9883 20.853C27.832 20.3647 27.7539 19.8218 27.7539 19.2241V18.3745C27.7539 17.7769 27.832 17.2358 27.9883 16.7515C28.1484 16.2632 28.377 15.8452 28.6738 15.4976C28.9746 15.1499 29.3359 14.8823 29.7578 14.6948C30.1797 14.5073 30.6543 14.4136 31.1816 14.4136C31.8262 14.4136 32.3711 14.5347 32.8164 14.7769C33.2617 15.019 33.6074 15.355 33.8535 15.7847C34.1035 16.2104 34.2578 16.7046 34.3164 17.2671H33.1914C33.1367 16.8687 33.0352 16.5269 32.8867 16.2417C32.7383 15.9526 32.5273 15.73 32.2539 15.5737C31.9805 15.4175 31.623 15.3394 31.1816 15.3394C30.8027 15.3394 30.4688 15.4116 30.1797 15.5562C29.8945 15.7007 29.6543 15.9058 29.459 16.1714C29.2676 16.437 29.123 16.7554 29.0254 17.1265C28.9277 17.4976 28.8789 17.9097 28.8789 18.3628V19.2241C28.8789 19.6421 28.9219 20.0347 29.0078 20.4019C29.0977 20.769 29.2324 21.0913 29.4121 21.3687C29.5918 21.646 29.8203 21.8647 30.0977 22.0249C30.375 22.1812 30.7031 22.2593 31.082 22.2593C31.5625 22.2593 31.9453 22.1831 32.2305 22.0308C32.5156 21.8784 32.7305 21.6597 32.875 21.3745C33.0234 21.0894 33.1289 20.7476 33.1914 20.3491ZM38.834 14.5308V23.062H37.7207V14.5308H38.834ZM41.5762 14.5308V15.4565H34.9844V14.5308H41.5762ZM45.9883 19.7163H43.709V18.7964H45.9883C46.4297 18.7964 46.7871 18.7261 47.0605 18.5854C47.334 18.4448 47.5332 18.2495 47.6582 17.9995C47.7871 17.7495 47.8516 17.4644 47.8516 17.144C47.8516 16.8511 47.7871 16.5757 47.6582 16.3179C47.5332 16.0601 47.334 15.853 47.0605 15.6968C46.7871 15.5366 46.4297 15.4565 45.9883 15.4565H43.9727V23.062H42.8418V14.5308H45.9883C46.6328 14.5308 47.1777 14.6421 47.623 14.8647C48.0684 15.0874 48.4062 15.396 48.6367 15.7905C48.8672 16.1812 48.9824 16.6284 48.9824 17.1323C48.9824 17.6792 48.8672 18.146 48.6367 18.5327C48.4062 18.9194 48.0684 19.2144 47.623 19.4175C47.1777 19.6167 46.6328 19.7163 45.9883 19.7163ZM56.9805 18.5269V19.0659C56.9805 19.7065 56.9004 20.2808 56.7402 20.7886C56.5801 21.2964 56.3496 21.728 56.0488 22.0835C55.748 22.439 55.3867 22.7104 54.9648 22.8979C54.5469 23.0854 54.0781 23.1792 53.5586 23.1792C53.0547 23.1792 52.5918 23.0854 52.1699 22.8979C51.752 22.7104 51.3887 22.439 51.0801 22.0835C50.7754 21.728 50.5391 21.2964 50.3711 20.7886C50.2031 20.2808 50.1191 19.7065 50.1191 19.0659V18.5269C50.1191 17.8862 50.2012 17.314 50.3652 16.8101C50.5332 16.3022 50.7695 15.8706 51.0742 15.5151C51.3789 15.1558 51.7402 14.8823 52.1582 14.6948C52.5801 14.5073 53.043 14.4136 53.5469 14.4136C54.0664 14.4136 54.5352 14.5073 54.9531 14.6948C55.375 14.8823 55.7363 15.1558 56.0371 15.5151C56.3418 15.8706 56.5742 16.3022 56.7344 16.8101C56.8984 17.314 56.9805 17.8862 56.9805 18.5269ZM55.8613 19.0659V18.5151C55.8613 18.0073 55.8086 17.5581 55.7031 17.1675C55.6016 16.7769 55.4512 16.4487 55.252 16.1831C55.0527 15.9175 54.8086 15.7163 54.5195 15.5796C54.2344 15.4429 53.9102 15.3745 53.5469 15.3745C53.1953 15.3745 52.877 15.4429 52.5918 15.5796C52.3105 15.7163 52.0684 15.9175 51.8652 16.1831C51.666 16.4487 51.5117 16.7769 51.4023 17.1675C51.293 17.5581 51.2383 18.0073 51.2383 18.5151V19.0659C51.2383 19.5776 51.293 20.0308 51.4023 20.4253C51.5117 20.8159 51.668 21.146 51.8711 21.4155C52.0781 21.6812 52.3223 21.8823 52.6035 22.019C52.8887 22.1558 53.207 22.2241 53.5586 22.2241C53.9258 22.2241 54.252 22.1558 54.5371 22.019C54.8223 21.8823 55.0625 21.6812 55.2578 21.4155C55.457 21.146 55.6074 20.8159 55.709 20.4253C55.8105 20.0308 55.8613 19.5776 55.8613 19.0659ZM64.0938 22.1421V23.062H59.5762V22.1421H64.0938ZM59.8047 14.5308V23.062H58.6738V14.5308H59.8047ZM63.4961 18.1987V19.1187H59.5762V18.1987H63.4961ZM64.0352 14.5308V15.4565H59.5762V14.5308H64.0352ZM71.0664 18.1987V19.1187H66.4492V18.1987H71.0664ZM66.625 14.5308V23.062H65.4941V14.5308H66.625ZM72.0508 14.5308V23.062H70.9258V14.5308H72.0508ZM75.2383 21.105L79.4395 14.5308H80.5703V23.062H79.4395V16.4819L75.2383 23.062H74.1133V14.5308H75.2383V21.105ZM88.0469 22.1421V23.062H83.5293V22.1421H88.0469ZM83.7578 14.5308V23.062H82.627V14.5308H83.7578ZM87.4492 18.1987V19.1187H83.5293V18.1987H87.4492ZM87.9883 14.5308V15.4565H83.5293V14.5308H87.9883ZM11.1074 28.5308H12.2383V31.1968C12.2383 31.6382 12.3027 31.9839 12.4316 32.2339C12.5605 32.4839 12.7559 32.6597 13.0176 32.7612C13.2793 32.8628 13.6055 32.9136 13.9961 32.9136C14.2305 32.9136 14.457 32.9038 14.6758 32.8843C14.8984 32.8647 15.1152 32.8374 15.3262 32.8022C15.5371 32.7671 15.7441 32.7241 15.9473 32.6733C16.1543 32.6226 16.3574 32.5679 16.5566 32.5093V33.4351C16.3652 33.4937 16.1738 33.5483 15.9824 33.5991C15.7949 33.6499 15.5996 33.6929 15.3965 33.728C15.1973 33.7632 14.9824 33.7905 14.752 33.8101C14.5254 33.8296 14.2734 33.8394 13.9961 33.8394C13.3945 33.8394 12.877 33.7534 12.4434 33.5815C12.0137 33.4058 11.6836 33.1245 11.4531 32.7378C11.2227 32.3511 11.1074 31.8374 11.1074 31.1968V28.5308ZM16.2695 28.5308H17.4004V37.062H16.2695V28.5308ZM24.8477 36.1421V37.062H20.3301V36.1421H24.8477ZM20.5586 28.5308V37.062H19.4277V28.5308H20.5586ZM24.25 32.1987V33.1187H20.3301V32.1987H24.25ZM24.7891 28.5308V29.4565H20.3301V28.5308H24.7891ZM29.5176 28.5308V37.062H28.4043V28.5308H29.5176ZM32.2598 28.5308V29.4565H25.668V28.5308H32.2598ZM34.4395 32.0054H36.7656C37.3906 32.0054 37.918 32.1108 38.3477 32.3218C38.7773 32.5288 39.1035 32.8198 39.3262 33.1948C39.5488 33.5698 39.6602 34.0093 39.6602 34.5132C39.6602 34.8882 39.5977 35.2319 39.4727 35.5444C39.3477 35.853 39.1621 36.1226 38.916 36.353C38.6699 36.5796 38.3672 36.7554 38.0078 36.8804C37.6484 37.0015 37.2344 37.062 36.7656 37.062H33.5781V28.5308H34.709V36.1421H36.7656C37.1836 36.1421 37.5215 36.0659 37.7793 35.9136C38.041 35.7573 38.2324 35.5542 38.3535 35.3042C38.4746 35.0542 38.5352 34.7866 38.5352 34.5015C38.5352 34.2163 38.4746 33.9546 38.3535 33.7163C38.2324 33.478 38.041 33.2886 37.7793 33.1479C37.5215 33.0034 37.1836 32.9312 36.7656 32.9312H34.4395V32.0054ZM41.8223 28.5308V37.062H40.6914V28.5308H41.8223ZM47.0547 33.7163H44.7754V32.7964H47.0547C47.4961 32.7964 47.8535 32.7261 48.127 32.5854C48.4004 32.4448 48.5996 32.2495 48.7246 31.9995C48.8535 31.7495 48.918 31.4644 48.918 31.144C48.918 30.8511 48.8535 30.5757 48.7246 30.3179C48.5996 30.0601 48.4004 29.853 48.127 29.6968C47.8535 29.5366 47.4961 29.4565 47.0547 29.4565H45.0391V37.062H43.9082V28.5308H47.0547C47.6992 28.5308 48.2441 28.6421 48.6895 28.8647C49.1348 29.0874 49.4727 29.396 49.7031 29.7905C49.9336 30.1812 50.0488 30.6284 50.0488 31.1323C50.0488 31.6792 49.9336 32.146 49.7031 32.5327C49.4727 32.9194 49.1348 33.2144 48.6895 33.4175C48.2441 33.6167 47.6992 33.7163 47.0547 33.7163ZM56.8984 36.1421V37.062H52.3809V36.1421H56.8984ZM52.6094 28.5308V37.062H51.4785V28.5308H52.6094ZM56.3008 32.1987V33.1187H52.3809V32.1987H56.3008ZM56.8398 28.5308V29.4565H52.3809V28.5308H56.8398ZM59.0312 28.5308L61.082 31.8003L63.1328 28.5308H64.4512L61.7559 32.7554L64.5156 37.062H63.1855L61.082 33.728L58.9785 37.062H57.6484L60.4082 32.7554L57.7129 28.5308H59.0312ZM68.4648 34.2319L70.7207 28.5308H72.0215L69.0039 35.6382C68.918 35.8374 68.8223 36.0308 68.7168 36.2183C68.6113 36.4019 68.4824 36.5659 68.3301 36.7104C68.1777 36.855 67.9883 36.9702 67.7617 37.0562C67.5391 37.1421 67.2617 37.1851 66.9297 37.1851C66.8359 37.1851 66.7246 37.1792 66.5957 37.1675C66.4668 37.1597 66.3828 37.1499 66.3438 37.1382L66.3789 36.2358C66.4219 36.2437 66.5059 36.2515 66.6309 36.2593C66.7559 36.2632 66.8477 36.2651 66.9062 36.2651C67.1289 36.2651 67.3047 36.2202 67.4336 36.1304C67.5625 36.0405 67.666 35.9272 67.7441 35.7905C67.8262 35.6499 67.9004 35.5073 67.9668 35.3628L68.4648 34.2319ZM66.5488 28.5308L68.9219 33.8452L69.2031 34.894L68.2539 34.9644L65.2832 28.5308H66.5488ZM78.6602 28.5308V29.4565H74.5469V37.062H73.4219V28.5308H78.6602ZM86.2188 32.5269V33.0659C86.2188 33.7065 86.1387 34.2808 85.9785 34.7886C85.8184 35.2964 85.5879 35.728 85.2871 36.0835C84.9863 36.439 84.625 36.7104 84.2031 36.8979C83.7852 37.0854 83.3164 37.1792 82.7969 37.1792C82.293 37.1792 81.8301 37.0854 81.4082 36.8979C80.9902 36.7104 80.627 36.439 80.3184 36.0835C80.0137 35.728 79.7773 35.2964 79.6094 34.7886C79.4414 34.2808 79.3574 33.7065 79.3574 33.0659V32.5269C79.3574 31.8862 79.4395 31.314 79.6035 30.8101C79.7715 30.3022 80.0078 29.8706 80.3125 29.5151C80.6172 29.1558 80.9785 28.8823 81.3965 28.6948C81.8184 28.5073 82.2812 28.4136 82.7852 28.4136C83.3047 28.4136 83.7734 28.5073 84.1914 28.6948C84.6133 28.8823 84.9746 29.1558 85.2754 29.5151C85.5801 29.8706 85.8125 30.3022 85.9727 30.8101C86.1367 31.314 86.2188 31.8862 86.2188 32.5269ZM85.0996 33.0659V32.5151C85.0996 32.0073 85.0469 31.5581 84.9414 31.1675C84.8398 30.7769 84.6895 30.4487 84.4902 30.1831C84.291 29.9175 84.0469 29.7163 83.7578 29.5796C83.4727 29.4429 83.1484 29.3745 82.7852 29.3745C82.4336 29.3745 82.1152 29.4429 81.8301 29.5796C81.5488 29.7163 81.3066 29.9175 81.1035 30.1831C80.9043 30.4487 80.75 30.7769 80.6406 31.1675C80.5312 31.5581 80.4766 32.0073 80.4766 32.5151V33.0659C80.4766 33.5776 80.5312 34.0308 80.6406 34.4253C80.75 34.8159 80.9062 35.146 81.1094 35.4155C81.3164 35.6812 81.5605 35.8823 81.8418 36.019C82.127 36.1558 82.4453 36.2241 82.7969 36.2241C83.1641 36.2241 83.4902 36.1558 83.7754 36.019C84.0605 35.8823 84.3008 35.6812 84.4961 35.4155C84.6953 35.146 84.8457 34.8159 84.9473 34.4253C85.0488 34.0308 85.0996 33.5776 85.0996 33.0659ZM93.209 28.5308V29.4565H89.3066V28.5308H93.209ZM94.1816 28.5308V37.062H93.0508V28.5308H94.1816ZM88.9199 28.5308H90.0449L89.8516 32.7085C89.8242 33.3101 89.7773 33.8472 89.7109 34.3198C89.6484 34.7886 89.5586 35.1968 89.4414 35.5444C89.3242 35.8882 89.1719 36.1733 88.9844 36.3999C88.7969 36.6226 88.5664 36.7886 88.293 36.8979C88.0234 37.0073 87.6992 37.062 87.3203 37.062H87.0156V36.1421L87.25 36.1245C87.4688 36.1089 87.6562 36.0601 87.8125 35.978C87.9727 35.8921 88.1074 35.7632 88.2168 35.5913C88.3301 35.4194 88.4219 35.1968 88.4922 34.9233C88.5625 34.6499 88.6172 34.3159 88.6562 33.9214C88.6992 33.5229 88.7324 33.0581 88.7559 32.5269L88.9199 28.5308ZM97.0469 32.0054H99.373C99.998 32.0054 100.525 32.1108 100.955 32.3218C101.385 32.5288 101.711 32.8198 101.934 33.1948C102.156 33.5698 102.268 34.0093 102.268 34.5132C102.268 34.8882 102.205 35.2319 102.08 35.5444C101.955 35.853 101.77 36.1226 101.523 36.353C101.277 36.5796 100.975 36.7554 100.615 36.8804C100.256 37.0015 99.8418 37.062 99.373 37.062H96.1855V28.5308H97.3164V36.1421H99.373C99.791 36.1421 100.129 36.0659 100.387 35.9136C100.648 35.7573 100.84 35.5542 100.961 35.3042C101.082 35.0542 101.143 34.7866 101.143 34.5015C101.143 34.2163 101.082 33.9546 100.961 33.7163C100.84 33.478 100.648 33.2886 100.387 33.1479C100.129 33.0034 99.791 32.9312 99.373 32.9312H97.0469V32.0054ZM109.328 32.1987V33.1187H104.711V32.1987H109.328ZM104.887 28.5308V37.062H103.756V28.5308H104.887ZM110.312 28.5308V37.062H109.188V28.5308H110.312ZM113.5 35.105L117.701 28.5308H118.832V37.062H117.701V30.4819L113.5 37.062H112.375V28.5308H113.5V35.105ZM122.072 28.5308V37.062H120.941V28.5308H122.072ZM127.328 28.5308L123.625 33.2241H121.621L121.445 32.2866H122.951L125.928 28.5308H127.328ZM126.191 37.062L122.986 33.0776L123.619 32.0874L127.574 37.062H126.191ZM131.758 29.2866L128.934 37.062H127.779L131.031 28.5308H131.775L131.758 29.2866ZM134.125 37.062L131.295 29.2866L131.277 28.5308H132.021L135.285 37.062H134.125ZM133.979 33.9038V34.8296H129.186V33.9038H133.979Z" fill="black"/>
<g filter="url(#filter2_d_1327_5015)">
<path d="M178.14 345.14H10.1367V582.868H178.14V345.14Z" fill="white"/>
</g>
<g filter="url(#filter3_d_1327_5015)">
<path d="M352.851 345.14H184.848V582.868H352.851V345.14Z" fill="white"/>
</g>
<path d="M268.783 503.629H184.848V583.816H268.783V503.629Z" fill="#77E2C3"/>
<path d="M352.865 503.629H268.93V583.816H352.865V503.629Z" fill="#008C95"/>
<path d="M269.079 489.897C305.46 489.897 334.952 460.406 334.952 424.025C334.952 387.644 305.46 358.152 269.079 358.152C232.698 358.152 203.207 387.644 203.207 424.025C203.207 460.406 232.698 489.897 269.079 489.897Z" fill="#00313C"/>
<path d="M310.894 521.074C298.383 521.074 288.246 531.217 288.246 543.722C288.246 556.227 298.383 566.37 310.894 566.37C323.405 566.37 333.542 556.227 333.542 543.722C333.542 531.217 323.405 521.074 310.894 521.074Z" stroke="#00313C" stroke-width="10.4744" stroke-miterlimit="10"/>
<path d="M310.893 550.706C314.751 550.706 317.876 547.581 317.876 543.723C317.876 539.865 314.751 536.74 310.893 536.74C307.035 536.74 303.91 539.865 303.91 543.723C303.91 547.581 307.035 550.706 310.893 550.706Z" fill="white"/>
<path d="M212.898 345V583.007" stroke="#999999" stroke-width="0.436433"/>
<path d="M240.949 345V583.007" stroke="#999999" stroke-width="0.436433"/>
<path d="M268.715 345V583.007" stroke="#999999" stroke-width="0.436433"/>
<path d="M296.766 345V583.007" stroke="#999999" stroke-width="0.436433"/>
<path d="M324.812 345V583.007" stroke="#999999" stroke-width="0.436433"/>
<path d="M353 371.303H184.711" stroke="#999999" stroke-width="0.436433"/>
<path d="M353 397.751H184.711" stroke="#999999" stroke-width="0.436433"/>
<path d="M353 424.478H184.711" stroke="#999999" stroke-width="0.436433"/>
<path d="M353 450.641H184.711" stroke="#999999" stroke-width="0.436433"/>
<path d="M353 477.088H184.711" stroke="#999999" stroke-width="0.436433"/>
<path d="M353 503.529H184.711" stroke="#999999" stroke-width="0.436433"/>
<path d="M353 530.258H184.711" stroke="#999999" stroke-width="0.436433"/>
<path d="M353 556.706H184.711" stroke="#999999" stroke-width="0.436433"/>
<path d="M178.285 345.612L135.108 423.705L94.2109 345.612H178.285Z" fill="#00313C"/>
<path d="M178.146 503.554H94.2109V582.868H178.146V503.554Z" fill="#77E2C3"/>
<path d="M151.488 517.158C150.068 516.326 148.579 515.598 147.025 515.005L108.566 555.5C109.241 557.019 110.044 558.474 110.952 559.847L151.494 517.164L151.488 517.158Z" fill="#00313C"/>
<path d="M106.838 550.46L141.904 513.538C140.048 513.183 138.133 512.991 136.172 512.991C136.143 512.991 136.108 512.991 136.079 512.991L105.988 544.513C106.076 546.556 106.367 548.54 106.838 550.46Z" fill="#00313C"/>
<path d="M164.104 531.665C163.429 530.03 162.614 528.471 161.672 526.993L121.293 569.507C122.719 570.316 124.214 571.008 125.768 571.585L164.104 531.665Z" fill="#00313C"/>
<path d="M155.4 519.893L113.887 563.606C114.952 564.77 116.104 565.846 117.337 566.83L158.799 523.175C157.757 521.993 156.622 520.899 155.406 519.893" fill="#00313C"/>
<path d="M144.664 572.212C155.168 569.14 163.297 560.522 165.677 549.739L144.664 572.212Z" fill="#00313C"/>
<path d="M128.669 513.928C117.572 516.762 108.931 525.746 106.586 537.03L128.669 513.928Z" fill="#00313C"/>
<path d="M137.057 573.388L166.368 542.145C166.304 540.33 166.083 538.561 165.716 536.838L130.953 572.975C132.652 573.272 134.398 573.423 136.179 573.423C136.656 573.423 137.133 573.411 137.61 573.388H137.063H137.057Z" fill="#00313C"/>
<path d="M178.146 424.24H94.2109V503.555H178.146V424.24Z" fill="#77E2C3"/>
<path d="M38.1875 345V583.007" stroke="#999999" stroke-width="0.436433"/>
<path d="M66.2305 345V583.007" stroke="#999999" stroke-width="0.436433"/>
<path d="M94.0039 345V583.007" stroke="#999999" stroke-width="0.436433"/>
<path d="M122.051 345V583.007" stroke="#999999" stroke-width="0.436433"/>
<path d="M150.102 345V583.007" stroke="#999999" stroke-width="0.436433"/>
<path d="M178.289 371.303H10" stroke="#999999" stroke-width="0.436433"/>
<path d="M178.289 397.751H10" stroke="#999999" stroke-width="0.436433"/>
<path d="M178.289 424.478H10" stroke="#999999" stroke-width="0.436433"/>
<path d="M178.289 450.641H10" stroke="#999999" stroke-width="0.436433"/>
<path d="M178.289 477.088H10" stroke="#999999" stroke-width="0.436433"/>
<path d="M178.289 503.529H10" stroke="#999999" stroke-width="0.436433"/>
<path d="M178.289 530.258H10" stroke="#999999" stroke-width="0.436433"/>
<path d="M178.289 556.706H10" stroke="#999999" stroke-width="0.436433"/>
<path d="M178.146 345H94.2109V424.314H178.146V345Z" fill="#008C95"/>
<path d="M94.2109 345.63L135.108 423.722L178.146 345.886V345.63H94.2109Z" fill="#00313C"/>
<path d="M17.5059 320.469V329H16.3809V321.395H12.1738V329H11.043V320.469H17.5059ZM22.7031 325.654H20.4238V324.734H22.7031C23.1445 324.734 23.502 324.664 23.7754 324.523C24.0488 324.383 24.248 324.188 24.373 323.938C24.502 323.688 24.5664 323.402 24.5664 323.082C24.5664 322.789 24.502 322.514 24.373 322.256C24.248 321.998 24.0488 321.791 23.7754 321.635C23.502 321.475 23.1445 321.395 22.7031 321.395H20.6875V329H19.5566V320.469H22.7031C23.3477 320.469 23.8926 320.58 24.3379 320.803C24.7832 321.025 25.1211 321.334 25.3516 321.729C25.582 322.119 25.6973 322.566 25.6973 323.07C25.6973 323.617 25.582 324.084 25.3516 324.471C25.1211 324.857 24.7832 325.152 24.3379 325.355C23.8926 325.555 23.3477 325.654 22.7031 325.654ZM28.3047 327.043L32.5059 320.469H33.6367V329H32.5059V322.42L28.3047 329H27.1797V320.469H28.3047V327.043ZM36.0508 320.469H37.1465L39.9414 327.424L42.7305 320.469H43.832L40.3633 329H39.5078L36.0508 320.469ZM35.6934 320.469H36.6602L36.8184 325.672V329H35.6934V320.469ZM43.2168 320.469H44.1836V329H43.0586V325.672L43.2168 320.469ZM51.5898 328.08V329H47.0723V328.08H51.5898ZM47.3008 320.469V329H46.1699V320.469H47.3008ZM50.9922 324.137V325.057H47.0723V324.137H50.9922ZM51.5312 320.469V321.395H47.0723V320.469H51.5312ZM56.1367 325.654H53.8574V324.734H56.1367C56.5781 324.734 56.9355 324.664 57.209 324.523C57.4824 324.383 57.6816 324.188 57.8066 323.938C57.9355 323.688 58 323.402 58 323.082C58 322.789 57.9355 322.514 57.8066 322.256C57.6816 321.998 57.4824 321.791 57.209 321.635C56.9355 321.475 56.5781 321.395 56.1367 321.395H54.1211V329H52.9902V320.469H56.1367C56.7812 320.469 57.3262 320.58 57.7715 320.803C58.2168 321.025 58.5547 321.334 58.7852 321.729C59.0156 322.119 59.1309 322.566 59.1309 323.07C59.1309 323.617 59.0156 324.084 58.7852 324.471C58.5547 324.857 58.2168 325.152 57.7715 325.355C57.3262 325.555 56.7812 325.654 56.1367 325.654ZM68.8457 328.109V329H63.2617V328.221L66.0566 325.109C66.4004 324.727 66.666 324.402 66.8535 324.137C67.0449 323.867 67.1777 323.627 67.252 323.416C67.3301 323.201 67.3691 322.982 67.3691 322.76C67.3691 322.479 67.3105 322.225 67.1934 321.998C67.0801 321.768 66.9121 321.584 66.6895 321.447C66.4668 321.311 66.1973 321.242 65.8809 321.242C65.502 321.242 65.1855 321.316 64.9316 321.465C64.6816 321.609 64.4941 321.812 64.3691 322.074C64.2441 322.336 64.1816 322.637 64.1816 322.977H63.0977C63.0977 322.496 63.2031 322.057 63.4141 321.658C63.625 321.26 63.9375 320.943 64.3516 320.709C64.7656 320.471 65.2754 320.352 65.8809 320.352C66.4199 320.352 66.8809 320.447 67.2637 320.639C67.6465 320.826 67.9395 321.092 68.1426 321.436C68.3496 321.775 68.4531 322.174 68.4531 322.631C68.4531 322.881 68.4102 323.135 68.3242 323.393C68.2422 323.646 68.127 323.9 67.9785 324.154C67.834 324.408 67.6641 324.658 67.4688 324.904C67.2773 325.15 67.0723 325.393 66.8535 325.631L64.5684 328.109H68.8457Z" fill="black"/>
<path d="M192.506 320.469V329H191.381V321.395H187.174V329H186.043V320.469H192.506ZM197.703 325.654H195.424V324.734H197.703C198.145 324.734 198.502 324.664 198.775 324.523C199.049 324.383 199.248 324.188 199.373 323.938C199.502 323.688 199.566 323.402 199.566 323.082C199.566 322.789 199.502 322.514 199.373 322.256C199.248 321.998 199.049 321.791 198.775 321.635C198.502 321.475 198.145 321.395 197.703 321.395H195.688V329H194.557V320.469H197.703C198.348 320.469 198.893 320.58 199.338 320.803C199.783 321.025 200.121 321.334 200.352 321.729C200.582 322.119 200.697 322.566 200.697 323.07C200.697 323.617 200.582 324.084 200.352 324.471C200.121 324.857 199.783 325.152 199.338 325.355C198.893 325.555 198.348 325.654 197.703 325.654ZM203.305 327.043L207.506 320.469H208.637V329H207.506V322.42L203.305 329H202.18V320.469H203.305V327.043ZM211.051 320.469H212.146L214.941 327.424L217.73 320.469H218.832L215.363 329H214.508L211.051 320.469ZM210.693 320.469H211.66L211.818 325.672V329H210.693V320.469ZM218.217 320.469H219.184V329H218.059V325.672L218.217 320.469ZM226.59 328.08V329H222.072V328.08H226.59ZM222.301 320.469V329H221.17V320.469H222.301ZM225.992 324.137V325.057H222.072V324.137H225.992ZM226.531 320.469V321.395H222.072V320.469H226.531ZM231.137 325.654H228.857V324.734H231.137C231.578 324.734 231.936 324.664 232.209 324.523C232.482 324.383 232.682 324.188 232.807 323.938C232.936 323.688 233 323.402 233 323.082C233 322.789 232.936 322.514 232.807 322.256C232.682 321.998 232.482 321.791 232.209 321.635C231.936 321.475 231.578 321.395 231.137 321.395H229.121V329H227.99V320.469H231.137C231.781 320.469 232.326 320.58 232.771 320.803C233.217 321.025 233.555 321.334 233.785 321.729C234.016 322.119 234.131 322.566 234.131 323.07C234.131 323.617 234.016 324.084 233.785 324.471C233.555 324.857 233.217 325.152 232.771 325.355C232.326 325.555 231.781 325.654 231.137 325.654ZM239.838 324.201H240.611C240.99 324.201 241.303 324.139 241.549 324.014C241.799 323.885 241.984 323.711 242.105 323.492C242.23 323.27 242.293 323.02 242.293 322.742C242.293 322.414 242.238 322.139 242.129 321.916C242.02 321.693 241.855 321.525 241.637 321.412C241.418 321.299 241.141 321.242 240.805 321.242C240.5 321.242 240.23 321.303 239.996 321.424C239.766 321.541 239.584 321.709 239.451 321.928C239.322 322.146 239.258 322.404 239.258 322.701H238.174C238.174 322.268 238.283 321.873 238.502 321.518C238.721 321.162 239.027 320.879 239.422 320.668C239.82 320.457 240.281 320.352 240.805 320.352C241.32 320.352 241.771 320.443 242.158 320.627C242.545 320.807 242.846 321.076 243.061 321.436C243.275 321.791 243.383 322.234 243.383 322.766C243.383 322.98 243.332 323.211 243.23 323.457C243.133 323.699 242.979 323.926 242.768 324.137C242.561 324.348 242.291 324.521 241.959 324.658C241.627 324.791 241.229 324.857 240.764 324.857H239.838V324.201ZM239.838 325.092V324.441H240.764C241.307 324.441 241.756 324.506 242.111 324.635C242.467 324.764 242.746 324.936 242.949 325.15C243.156 325.365 243.301 325.602 243.383 325.859C243.469 326.113 243.512 326.367 243.512 326.621C243.512 327.02 243.443 327.373 243.307 327.682C243.174 327.99 242.984 328.252 242.738 328.467C242.496 328.682 242.211 328.844 241.883 328.953C241.555 329.062 241.197 329.117 240.811 329.117C240.439 329.117 240.09 329.064 239.762 328.959C239.438 328.854 239.15 328.701 238.9 328.502C238.65 328.299 238.455 328.051 238.314 327.758C238.174 327.461 238.104 327.123 238.104 326.744H239.188C239.188 327.041 239.252 327.301 239.381 327.523C239.514 327.746 239.701 327.92 239.943 328.045C240.189 328.166 240.479 328.227 240.811 328.227C241.143 328.227 241.428 328.17 241.666 328.057C241.908 327.939 242.094 327.764 242.223 327.529C242.355 327.295 242.422 327 242.422 326.645C242.422 326.289 242.348 325.998 242.199 325.771C242.051 325.541 241.84 325.371 241.566 325.262C241.297 325.148 240.979 325.092 240.611 325.092H239.838Z" fill="black"/>
<g filter="url(#filter4_d_1327_5015)">
<path d="M177.895 637.348H10.3828V874.38H177.895V637.348Z" fill="white"/>
</g>
<g filter="url(#filter5_d_1327_5015)">
<path d="M351.852 637.139H184.34V874.171H351.852V637.139Z" fill="white"/>
</g>
<path d="M268.174 795.165H184.484V875.118H268.174V795.165Z" fill="#77E2C3"/>
<path d="M184.484 795.165V716.257L268.168 795.165H184.484Z" fill="#00313C"/>
<path d="M10.1406 795.165H93.8298V875.118L10.1406 795.165Z" fill="#77E2C3"/>
<path d="M352.002 795.165H268.312V875.118H352.002V795.165Z" fill="#008C95"/>
<path d="M177.662 795.165H93.9727V875.118H177.662V795.165Z" fill="#00313C"/>
<path d="M177.662 716.257H93.9727V795.165H177.662V716.257Z" fill="#77E2C3"/>
<path d="M177.662 716.257H93.9727V795.165H177.662V716.257Z" fill="#77E2C3"/>
<path d="M149.496 716.257L177.659 741.223V720.283L172.815 716.257H149.496Z" fill="#00313C"/>
<path d="M103.094 716.257L177.656 783.689V762.65L126.273 716.257H103.094Z" fill="#00313C"/>
<path d="M93.9727 750.065L143.656 795.164H166.835L93.9727 729.021V750.065Z" fill="#00313C"/>
<path d="M93.9727 792.148L97.2972 795.165H120.477L93.9727 771.104V792.148Z" fill="#00313C"/>
<path d="M94.2708 637H10.1406V716.256H94.2708V637Z" fill="#008C95"/>
<path d="M52.2011 671.075C29.1494 671.075 10.4609 689.764 10.4609 712.815C10.4609 735.867 29.1494 754.55 52.2011 754.55C75.2527 754.55 93.9412 735.861 93.9412 712.815C93.9412 689.769 75.2527 671.075 52.2011 671.075Z" fill="white"/>
<path d="M38.1055 637V874.311" stroke="#999999" stroke-width="0.435156"/>
<path d="M66.0742 637V874.311" stroke="#999999" stroke-width="0.435156"/>
<path d="M93.7617 637V874.311" stroke="#999999" stroke-width="0.435156"/>
<path d="M121.727 637V874.311" stroke="#999999" stroke-width="0.435156"/>
<path d="M149.691 637V874.311" stroke="#999999" stroke-width="0.435156"/>
<path d="M177.796 663.226H10" stroke="#999999" stroke-width="0.435156"/>
<path d="M177.796 689.596H10" stroke="#999999" stroke-width="0.435156"/>
<path d="M177.796 716.245H10" stroke="#999999" stroke-width="0.435156"/>
<path d="M177.796 742.332H10" stroke="#999999" stroke-width="0.435156"/>
<path d="M177.796 768.702H10" stroke="#999999" stroke-width="0.435156"/>
<path d="M177.796 795.066H10" stroke="#999999" stroke-width="0.435156"/>
<path d="M177.796 821.716H10" stroke="#999999" stroke-width="0.435156"/>
<path d="M177.796 848.086H10" stroke="#999999" stroke-width="0.435156"/>
<path d="M310.156 812.561C297.681 812.561 287.574 822.674 287.574 835.142C287.574 847.611 297.681 857.724 310.156 857.724C322.63 857.724 332.738 847.611 332.738 835.142C332.738 822.674 322.63 812.561 310.156 812.561Z" stroke="#00313C" stroke-width="10.4437" stroke-miterlimit="10"/>
<path d="M212.309 637V874.311" stroke="#999999" stroke-width="0.435156"/>
<path d="M240.277 637V874.311" stroke="#999999" stroke-width="0.435156"/>
<path d="M267.961 637V874.311" stroke="#999999" stroke-width="0.435156"/>
<path d="M295.93 637V874.311" stroke="#999999" stroke-width="0.435156"/>
<path d="M323.891 637V874.311" stroke="#999999" stroke-width="0.435156"/>
<path d="M351.999 663.226H184.203" stroke="#999999" stroke-width="0.435156"/>
<path d="M351.999 689.596H184.203" stroke="#999999" stroke-width="0.435156"/>
<path d="M351.999 716.245H184.203" stroke="#999999" stroke-width="0.435156"/>
<path d="M351.999 742.332H184.203" stroke="#999999" stroke-width="0.435156"/>
<path d="M351.999 768.702H184.203" stroke="#999999" stroke-width="0.435156"/>
<path d="M351.999 795.066H184.203" stroke="#999999" stroke-width="0.435156"/>
<path d="M351.999 821.716H184.203" stroke="#999999" stroke-width="0.435156"/>
<path d="M351.999 848.086H184.203" stroke="#999999" stroke-width="0.435156"/>
<path d="M16.5059 612.469V621H15.3809V613.395H11.1738V621H10.043V612.469H16.5059ZM21.7031 617.654H19.4238V616.734H21.7031C22.1445 616.734 22.502 616.664 22.7754 616.523C23.0488 616.383 23.248 616.188 23.373 615.938C23.502 615.688 23.5664 615.402 23.5664 615.082C23.5664 614.789 23.502 614.514 23.373 614.256C23.248 613.998 23.0488 613.791 22.7754 613.635C22.502 613.475 22.1445 613.395 21.7031 613.395H19.6875V621H18.5566V612.469H21.7031C22.3477 612.469 22.8926 612.58 23.3379 612.803C23.7832 613.025 24.1211 613.334 24.3516 613.729C24.582 614.119 24.6973 614.566 24.6973 615.07C24.6973 615.617 24.582 616.084 24.3516 616.471C24.1211 616.857 23.7832 617.152 23.3379 617.355C22.8926 617.555 22.3477 617.654 21.7031 617.654ZM27.3047 619.043L31.5059 612.469H32.6367V621H31.5059V614.42L27.3047 621H26.1797V612.469H27.3047V619.043ZM35.0508 612.469H36.1465L38.9414 619.424L41.7305 612.469H42.832L39.3633 621H38.5078L35.0508 612.469ZM34.6934 612.469H35.6602L35.8184 617.672V621H34.6934V612.469ZM42.2168 612.469H43.1836V621H42.0586V617.672L42.2168 612.469ZM50.5898 620.08V621H46.0723V620.08H50.5898ZM46.3008 612.469V621H45.1699V612.469H46.3008ZM49.9922 616.137V617.057H46.0723V616.137H49.9922ZM50.5312 612.469V613.395H46.0723V612.469H50.5312ZM55.1367 617.654H52.8574V616.734H55.1367C55.5781 616.734 55.9355 616.664 56.209 616.523C56.4824 616.383 56.6816 616.188 56.8066 615.938C56.9355 615.688 57 615.402 57 615.082C57 614.789 56.9355 614.514 56.8066 614.256C56.6816 613.998 56.4824 613.791 56.209 613.635C55.9355 613.475 55.5781 613.395 55.1367 613.395H53.1211V621H51.9902V612.469H55.1367C55.7812 612.469 56.3262 612.58 56.7715 612.803C57.2168 613.025 57.5547 613.334 57.7852 613.729C58.0156 614.119 58.1309 614.566 58.1309 615.07C58.1309 615.617 58.0156 616.084 57.7852 616.471C57.5547 616.857 57.2168 617.152 56.7715 617.355C56.3262 617.555 55.7812 617.654 55.1367 617.654ZM68.0215 618.129V619.02H61.8574V618.381L65.6777 612.469H66.5625L65.6133 614.18L63.0879 618.129H68.0215ZM66.832 612.469V621H65.748V612.469H66.832Z" fill="black"/>
<path d="M191.506 612.469V621H190.381V613.395H186.174V621H185.043V612.469H191.506ZM196.703 617.654H194.424V616.734H196.703C197.145 616.734 197.502 616.664 197.775 616.523C198.049 616.383 198.248 616.188 198.373 615.938C198.502 615.688 198.566 615.402 198.566 615.082C198.566 614.789 198.502 614.514 198.373 614.256C198.248 613.998 198.049 613.791 197.775 613.635C197.502 613.475 197.145 613.395 196.703 613.395H194.688V621H193.557V612.469H196.703C197.348 612.469 197.893 612.58 198.338 612.803C198.783 613.025 199.121 613.334 199.352 613.729C199.582 614.119 199.697 614.566 199.697 615.07C199.697 615.617 199.582 616.084 199.352 616.471C199.121 616.857 198.783 617.152 198.338 617.355C197.893 617.555 197.348 617.654 196.703 617.654ZM202.305 619.043L206.506 612.469H207.637V621H206.506V614.42L202.305 621H201.18V612.469H202.305V619.043ZM210.051 612.469H211.146L213.941 619.424L216.73 612.469H217.832L214.363 621H213.508L210.051 612.469ZM209.693 612.469H210.66L210.818 617.672V621H209.693V612.469ZM217.217 612.469H218.184V621H217.059V617.672L217.217 612.469ZM225.59 620.08V621H221.072V620.08H225.59ZM221.301 612.469V621H220.17V612.469H221.301ZM224.992 616.137V617.057H221.072V616.137H224.992ZM225.531 612.469V613.395H221.072V612.469H225.531ZM230.137 617.654H227.857V616.734H230.137C230.578 616.734 230.936 616.664 231.209 616.523C231.482 616.383 231.682 616.188 231.807 615.938C231.936 615.688 232 615.402 232 615.082C232 614.789 231.936 614.514 231.807 614.256C231.682 613.998 231.482 613.791 231.209 613.635C230.936 613.475 230.578 613.395 230.137 613.395H228.121V621H226.99V612.469H230.137C230.781 612.469 231.326 612.58 231.771 612.803C232.217 613.025 232.555 613.334 232.785 613.729C233.016 614.119 233.131 614.566 233.131 615.07C233.131 615.617 233.016 616.084 232.785 616.471C232.555 616.857 232.217 617.152 231.771 617.355C231.326 617.555 230.781 617.654 230.137 617.654ZM238.627 616.939L237.76 616.717L238.188 612.469H242.564V613.471H239.107L238.85 615.791C239.006 615.701 239.203 615.617 239.441 615.539C239.684 615.461 239.961 615.422 240.273 615.422C240.668 615.422 241.021 615.49 241.334 615.627C241.646 615.76 241.912 615.951 242.131 616.201C242.354 616.451 242.523 616.752 242.641 617.104C242.758 617.455 242.816 617.848 242.816 618.281C242.816 618.691 242.76 619.068 242.646 619.412C242.537 619.756 242.371 620.057 242.148 620.314C241.926 620.568 241.645 620.766 241.305 620.906C240.969 621.047 240.572 621.117 240.115 621.117C239.771 621.117 239.445 621.07 239.137 620.977C238.832 620.879 238.559 620.732 238.316 620.537C238.078 620.338 237.883 620.092 237.73 619.799C237.582 619.502 237.488 619.154 237.449 618.756H238.48C238.527 619.076 238.621 619.346 238.762 619.564C238.902 619.783 239.086 619.949 239.312 620.062C239.543 620.172 239.811 620.227 240.115 620.227C240.373 620.227 240.602 620.182 240.801 620.092C241 620.002 241.168 619.873 241.305 619.705C241.441 619.537 241.545 619.334 241.615 619.096C241.689 618.857 241.727 618.59 241.727 618.293C241.727 618.023 241.689 617.773 241.615 617.543C241.541 617.312 241.43 617.111 241.281 616.939C241.137 616.768 240.959 616.635 240.748 616.541C240.537 616.443 240.295 616.395 240.021 616.395C239.658 616.395 239.383 616.443 239.195 616.541C239.012 616.639 238.822 616.771 238.627 616.939Z" fill="black"/>
<path d="M16.5059 903.469V912H15.3809V904.395H11.1738V912H10.043V903.469H16.5059ZM21.7031 908.654H19.4238V907.734H21.7031C22.1445 907.734 22.502 907.664 22.7754 907.523C23.0488 907.383 23.248 907.188 23.373 906.938C23.502 906.688 23.5664 906.402 23.5664 906.082C23.5664 905.789 23.502 905.514 23.373 905.256C23.248 904.998 23.0488 904.791 22.7754 904.635C22.502 904.475 22.1445 904.395 21.7031 904.395H19.6875V912H18.5566V903.469H21.7031C22.3477 903.469 22.8926 903.58 23.3379 903.803C23.7832 904.025 24.1211 904.334 24.3516 904.729C24.582 905.119 24.6973 905.566 24.6973 906.07C24.6973 906.617 24.582 907.084 24.3516 907.471C24.1211 907.857 23.7832 908.152 23.3379 908.355C22.8926 908.555 22.3477 908.654 21.7031 908.654ZM27.3047 910.043L31.5059 903.469H32.6367V912H31.5059V905.42L27.3047 912H26.1797V903.469H27.3047V910.043ZM35.0508 903.469H36.1465L38.9414 910.424L41.7305 903.469H42.832L39.3633 912H38.5078L35.0508 903.469ZM34.6934 903.469H35.6602L35.8184 908.672V912H34.6934V903.469ZM42.2168 903.469H43.1836V912H42.0586V908.672L42.2168 903.469ZM50.5898 911.08V912H46.0723V911.08H50.5898ZM46.3008 903.469V912H45.1699V903.469H46.3008ZM49.9922 907.137V908.057H46.0723V907.137H49.9922ZM50.5312 903.469V904.395H46.0723V903.469H50.5312ZM55.1367 908.654H52.8574V907.734H55.1367C55.5781 907.734 55.9355 907.664 56.209 907.523C56.4824 907.383 56.6816 907.188 56.8066 906.938C56.9355 906.688 57 906.402 57 906.082C57 905.789 56.9355 905.514 56.8066 905.256C56.6816 904.998 56.4824 904.791 56.209 904.635C55.9355 904.475 55.5781 904.395 55.1367 904.395H53.1211V912H51.9902V903.469H55.1367C55.7812 903.469 56.3262 903.58 56.7715 903.803C57.2168 904.025 57.5547 904.334 57.7852 904.729C58.0156 905.119 58.1309 905.566 58.1309 906.07C58.1309 906.617 58.0156 907.084 57.7852 907.471C57.5547 907.857 57.2168 908.152 56.7715 908.355C56.3262 908.555 55.7812 908.654 55.1367 908.654ZM60.4746 906.943H62.8008C63.4258 906.943 63.9531 907.049 64.3828 907.26C64.8125 907.467 65.1387 907.758 65.3613 908.133C65.584 908.508 65.6953 908.947 65.6953 909.451C65.6953 909.826 65.6328 910.17 65.5078 910.482C65.3828 910.791 65.1973 911.061 64.9512 911.291C64.7051 911.518 64.4023 911.693 64.043 911.818C63.6836 911.939 63.2695 912 62.8008 912H59.6133V903.469H60.7441V911.08H62.8008C63.2188 911.08 63.5566 911.004 63.8145 910.852C64.0762 910.695 64.2676 910.492 64.3887 910.242C64.5098 909.992 64.5703 909.725 64.5703 909.439C64.5703 909.154 64.5098 908.893 64.3887 908.654C64.2676 908.416 64.0762 908.227 63.8145 908.086C63.5566 907.941 63.2188 907.869 62.8008 907.869H60.4746V906.943ZM67.8574 903.469V912H66.7266V903.469H67.8574ZM78.0703 909.287H79.1953C79.1367 909.826 78.9824 910.309 78.7324 910.734C78.4824 911.16 78.1289 911.498 77.6719 911.748C77.2148 911.994 76.6445 912.117 75.9609 912.117C75.4609 912.117 75.0059 912.023 74.5957 911.836C74.1895 911.648 73.8398 911.383 73.5469 911.039C73.2539 910.691 73.0273 910.275 72.8672 909.791C72.7109 909.303 72.6328 908.76 72.6328 908.162V907.312C72.6328 906.715 72.7109 906.174 72.8672 905.689C73.0273 905.201 73.2559 904.783 73.5527 904.436C73.8535 904.088 74.2148 903.82 74.6367 903.633C75.0586 903.445 75.5332 903.352 76.0605 903.352C76.7051 903.352 77.25 903.473 77.6953 903.715C78.1406 903.957 78.4863 904.293 78.7324 904.723C78.9824 905.148 79.1367 905.643 79.1953 906.205H78.0703C78.0156 905.807 77.9141 905.465 77.7656 905.18C77.6172 904.891 77.4062 904.668 77.1328 904.512C76.8594 904.355 76.502 904.277 76.0605 904.277C75.6816 904.277 75.3477 904.35 75.0586 904.494C74.7734 904.639 74.5332 904.844 74.3379 905.109C74.1465 905.375 74.002 905.693 73.9043 906.064C73.8066 906.436 73.7578 906.848 73.7578 907.301V908.162C73.7578 908.58 73.8008 908.973 73.8867 909.34C73.9766 909.707 74.1113 910.029 74.291 910.307C74.4707 910.584 74.6992 910.803 74.9766 910.963C75.2539 911.119 75.582 911.197 75.9609 911.197C76.4414 911.197 76.8242 911.121 77.1094 910.969C77.3945 910.816 77.6094 910.598 77.7539 910.312C77.9023 910.027 78.0078 909.686 78.0703 909.287ZM86.2207 903.469V904.395H82.3184V903.469H86.2207ZM87.1934 903.469V912H86.0625V903.469H87.1934ZM81.9316 903.469H83.0566L82.8633 907.646C82.8359 908.248 82.7891 908.785 82.7227 909.258C82.6602 909.727 82.5703 910.135 82.4531 910.482C82.3359 910.826 82.1836 911.111 81.9961 911.338C81.8086 911.561 81.5781 911.727 81.3047 911.836C81.0352 911.945 80.7109 912 80.332 912H80.0273V911.08L80.2617 911.062C80.4805 911.047 80.668 910.998 80.8242 910.916C80.9844 910.83 81.1191 910.701 81.2285 910.529C81.3418 910.357 81.4336 910.135 81.5039 909.861C81.5742 909.588 81.6289 909.254 81.668 908.859C81.7109 908.461 81.7441 907.996 81.7676 907.465L81.9316 903.469ZM95.8008 907.465V908.004C95.8008 908.645 95.7207 909.219 95.5605 909.727C95.4004 910.234 95.1699 910.666 94.8691 911.021C94.5684 911.377 94.207 911.648 93.7852 911.836C93.3672 912.023 92.8984 912.117 92.3789 912.117C91.875 912.117 91.4121 912.023 90.9902 911.836C90.5723 911.648 90.209 911.377 89.9004 911.021C89.5957 910.666 89.3594 910.234 89.1914 909.727C89.0234 909.219 88.9395 908.645 88.9395 908.004V907.465C88.9395 906.824 89.0215 906.252 89.1855 905.748C89.3535 905.24 89.5898 904.809 89.8945 904.453C90.1992 904.094 90.5605 903.82 90.9785 903.633C91.4004 903.445 91.8633 903.352 92.3672 903.352C92.8867 903.352 93.3555 903.445 93.7734 903.633C94.1953 903.82 94.5566 904.094 94.8574 904.453C95.1621 904.809 95.3945 905.24 95.5547 905.748C95.7188 906.252 95.8008 906.824 95.8008 907.465ZM94.6816 908.004V907.453C94.6816 906.945 94.6289 906.496 94.5234 906.105C94.4219 905.715 94.2715 905.387 94.0723 905.121C93.873 904.855 93.6289 904.654 93.3398 904.518C93.0547 904.381 92.7305 904.312 92.3672 904.312C92.0156 904.312 91.6973 904.381 91.4121 904.518C91.1309 904.654 90.8887 904.855 90.6855 905.121C90.4863 905.387 90.332 905.715 90.2227 906.105C90.1133 906.496 90.0586 906.945 90.0586 907.453V908.004C90.0586 908.516 90.1133 908.969 90.2227 909.363C90.332 909.754 90.4883 910.084 90.6914 910.354C90.8984 910.619 91.1426 910.82 91.4238 910.957C91.709 911.094 92.0273 911.162 92.3789 911.162C92.7461 911.162 93.0723 911.094 93.3574 910.957C93.6426 910.82 93.8828 910.619 94.0781 910.354C94.2773 910.084 94.4277 909.754 94.5293 909.363C94.6309 908.969 94.6816 908.516 94.6816 908.004ZM99.8086 908.104L96.7617 903.469H98.0859L100.354 907.166H101.959L101.777 908.104H99.8086ZM100.418 908.016L97.9395 912H96.5332L99.7031 907.043L100.418 908.016ZM102.445 903.469V912H101.326V903.469H102.445ZM106.969 903.469L103.91 908.104H102L101.824 907.166H103.371L105.639 903.469H106.969ZM105.785 912L103.312 908.016L104.033 907.043L107.191 912H105.785ZM113.836 907.137V908.057H109.219V907.137H113.836ZM109.395 903.469V912H108.264V903.469H109.395ZM114.82 903.469V912H113.695V903.469H114.82ZM117.744 906.943H120.07C120.695 906.943 121.223 907.049 121.652 907.26C122.082 907.467 122.408 907.758 122.631 908.133C122.854 908.508 122.965 908.947 122.965 909.451C122.965 909.826 122.902 910.17 122.777 910.482C122.652 910.791 122.467 911.061 122.221 911.291C121.975 911.518 121.672 911.693 121.312 911.818C120.953 911.939 120.539 912 120.07 912H116.883V903.469H118.014V911.08H120.07C120.488 911.08 120.826 911.004 121.084 910.852C121.346 910.695 121.537 910.492 121.658 910.242C121.779 909.992 121.84 909.725 121.84 909.439C121.84 909.154 121.779 908.893 121.658 908.654C121.537 908.416 121.346 908.227 121.084 908.086C120.826 907.941 120.488 907.869 120.07 907.869H117.744V906.943ZM125.127 903.469V912H123.996V903.469H125.127ZM128.051 903.469L130.102 906.738L132.152 903.469H133.471L130.775 907.693L133.535 912H132.205L130.102 908.666L127.998 912H126.668L129.428 907.693L126.732 903.469H128.051ZM138.176 903.469H139.271L142.066 910.424L144.855 903.469H145.957L142.488 912H141.633L138.176 903.469ZM137.818 903.469H138.785L138.943 908.672V912H137.818V903.469ZM145.342 903.469H146.309V912H145.184V908.672L145.342 903.469ZM154.863 907.465V908.004C154.863 908.645 154.783 909.219 154.623 909.727C154.463 910.234 154.232 910.666 153.932 911.021C153.631 911.377 153.27 911.648 152.848 911.836C152.43 912.023 151.961 912.117 151.441 912.117C150.938 912.117 150.475 912.023 150.053 911.836C149.635 911.648 149.271 911.377 148.963 911.021C148.658 910.666 148.422 910.234 148.254 909.727C148.086 909.219 148.002 908.645 148.002 908.004V907.465C148.002 906.824 148.084 906.252 148.248 905.748C148.416 905.24 148.652 904.809 148.957 904.453C149.262 904.094 149.623 903.82 150.041 903.633C150.463 903.445 150.926 903.352 151.43 903.352C151.949 903.352 152.418 903.445 152.836 903.633C153.258 903.82 153.619 904.094 153.92 904.453C154.225 904.809 154.457 905.24 154.617 905.748C154.781 906.252 154.863 906.824 154.863 907.465ZM153.744 908.004V907.453C153.744 906.945 153.691 906.496 153.586 906.105C153.484 905.715 153.334 905.387 153.135 905.121C152.936 904.855 152.691 904.654 152.402 904.518C152.117 904.381 151.793 904.312 151.43 904.312C151.078 904.312 150.76 904.381 150.475 904.518C150.193 904.654 149.951 904.855 149.748 905.121C149.549 905.387 149.395 905.715 149.285 906.105C149.176 906.496 149.121 906.945 149.121 907.453V908.004C149.121 908.516 149.176 908.969 149.285 909.363C149.395 909.754 149.551 910.084 149.754 910.354C149.961 910.619 150.205 910.82 150.486 910.957C150.771 911.094 151.09 911.162 151.441 911.162C151.809 911.162 152.135 911.094 152.42 910.957C152.705 910.82 152.945 910.619 153.141 910.354C153.34 910.084 153.49 909.754 153.592 909.363C153.693 908.969 153.744 908.516 153.744 908.004ZM163.066 911.08V912H156.609V911.08H163.066ZM156.791 911.08V914.098H155.672L155.666 911.08H156.791ZM164.051 911.08L164.039 914.092H162.92V911.08H164.051ZM161.959 903.469V904.395H158.221V903.469H161.959ZM162.932 903.469V912H161.807V903.469H162.932ZM157.834 903.469H158.965L158.789 906.902C158.766 907.418 158.717 907.895 158.643 908.332C158.568 908.766 158.477 909.162 158.367 909.521C158.258 909.881 158.133 910.203 157.992 910.488C157.852 910.77 157.701 911.014 157.541 911.221C157.381 911.424 157.213 911.592 157.037 911.725C156.865 911.854 156.691 911.945 156.516 912H156V911.08H156.363C156.465 910.971 156.58 910.812 156.709 910.605C156.842 910.398 156.973 910.131 157.102 909.803C157.234 909.471 157.35 909.066 157.447 908.59C157.549 908.113 157.617 907.551 157.652 906.902L157.834 903.469ZM168.023 909.17L170.279 903.469H171.58L168.562 910.576C168.477 910.775 168.381 910.969 168.275 911.156C168.17 911.34 168.041 911.504 167.889 911.648C167.736 911.793 167.547 911.908 167.32 911.994C167.098 912.08 166.82 912.123 166.488 912.123C166.395 912.123 166.283 912.117 166.154 912.105C166.025 912.098 165.941 912.088 165.902 912.076L165.938 911.174C165.98 911.182 166.064 911.189 166.189 911.197C166.314 911.201 166.406 911.203 166.465 911.203C166.688 911.203 166.863 911.158 166.992 911.068C167.121 910.979 167.225 910.865 167.303 910.729C167.385 910.588 167.459 910.445 167.525 910.301L168.023 909.17ZM166.107 903.469L168.48 908.783L168.762 909.832L167.812 909.902L164.842 903.469H166.107ZM178.096 903.469V904.395H174.193V903.469H178.096ZM179.068 903.469V912H177.938V903.469H179.068ZM173.807 903.469H174.932L174.738 907.646C174.711 908.248 174.664 908.785 174.598 909.258C174.535 909.727 174.445 910.135 174.328 910.482C174.211 910.826 174.059 911.111 173.871 911.338C173.684 911.561 173.453 911.727 173.18 911.836C172.91 911.945 172.586 912 172.207 912H171.902V911.08L172.137 911.062C172.355 911.047 172.543 910.998 172.699 910.916C172.859 910.83 172.994 910.701 173.104 910.529C173.217 910.357 173.309 910.135 173.379 909.861C173.449 909.588 173.504 909.254 173.543 908.859C173.586 908.461 173.619 907.996 173.643 907.465L173.807 903.469ZM186.527 911.08V912H182.01V911.08H186.527ZM182.238 903.469V912H181.107V903.469H182.238ZM185.93 907.137V908.057H182.01V907.137H185.93ZM186.469 903.469V904.395H182.01V903.469H186.469ZM189.105 910.043L193.307 903.469H194.438V912H193.307V905.42L189.105 912H187.98V903.469H189.105V910.043ZM192.105 901.354H192.984C192.984 901.658 192.914 901.93 192.773 902.168C192.633 902.402 192.432 902.586 192.17 902.719C191.908 902.852 191.598 902.918 191.238 902.918C190.695 902.918 190.266 902.773 189.949 902.484C189.637 902.191 189.48 901.814 189.48 901.354H190.359C190.359 901.584 190.426 901.787 190.559 901.963C190.691 902.139 190.918 902.227 191.238 902.227C191.551 902.227 191.773 902.139 191.906 901.963C192.039 901.787 192.105 901.584 192.105 901.354Z" fill="black"/>
<path d="M235.503 930.685H184.621V981.567H235.503V930.685Z" fill="white"/>
<path d="M184.75 930.685L209.366 947.612L235.353 930.685H184.75Z" fill="#00313C"/>
<path d="M184.621 947.612L209.369 964.634L235.503 947.612H184.621Z" fill="#77E2C3"/>
<path d="M184.621 964.633L209.229 981.567H209.508L235.503 964.633H184.621Z" fill="#008C95"/>
<path d="M184.621 980.29V931.595" stroke="#E6007E" stroke-width="0.36685" stroke-miterlimit="10"/>
<path d="M185.887 930.685H234.59" stroke="#E6007E" stroke-width="0.36685" stroke-miterlimit="10"/>
<path d="M235.5 931.955V980.658" stroke="#E6007E" stroke-width="0.36685" stroke-miterlimit="10"/>
<path d="M234.227 981.566H185.531" stroke="#E6007E" stroke-width="0.36685" stroke-miterlimit="10"/>
<path d="M184.621 931.228V930.685H185.164M185.164 981.567H184.621V981.024L185.164 981.567ZM235.503 981.024V981.567H234.96L235.503 981.024ZM234.96 930.685H235.503V931.228L234.96 930.685Z" stroke="#E6007E" stroke-width="0.36685" stroke-miterlimit="10"/>
<path d="M272.978 937.838C265.061 937.838 258.648 944.25 258.648 952.167C258.648 960.084 265.061 966.496 272.978 966.496C280.894 966.496 287.307 960.084 287.307 952.167C287.307 944.25 280.894 937.838 272.978 937.838Z" fill="#77E2C3"/>
<path d="M258.637 952.181C258.637 950.215 259.033 948.344 259.745 946.634C254.25 948.659 250.324 953.949 250.324 960.149C250.324 968.102 256.774 974.544 264.719 974.544C270.706 974.544 275.835 970.89 278.007 965.688C276.459 966.261 274.778 966.576 273.025 966.576C265.072 966.576 258.63 960.127 258.63 952.181" fill="#008C95"/>
<path d="M264.726 945.746C262.973 945.746 261.3 946.062 259.745 946.634C259.033 948.336 258.637 950.214 258.637 952.181C258.637 960.134 265.086 966.576 273.032 966.576C274.785 966.576 276.458 966.26 278.014 965.688C278.725 963.986 279.122 962.108 279.122 960.141C279.122 952.188 272.672 945.746 264.726 945.746Z" fill="#00313C"/>
<path d="M242.992 980.357V931.662" stroke="#E6007E" stroke-width="0.36685" stroke-miterlimit="10"/>
<path d="M244.293 930.752H293.722" stroke="#E6007E" stroke-width="0.36685" stroke-miterlimit="10"/>
<path d="M294.637 932.021V980.724" stroke="#E6007E" stroke-width="0.36685" stroke-miterlimit="10"/>
<path d="M293.343 981.627H243.914" stroke="#E6007E" stroke-width="0.36685" stroke-miterlimit="10"/>
<path d="M243 931.287V930.744H243.55M243.55 981.626H243V981.083L243.55 981.626ZM294.645 981.083V981.626H294.095L294.645 981.083ZM294.095 930.744H294.645V931.287L294.095 930.744Z" stroke="#E6007E" stroke-width="0.36685" stroke-miterlimit="10"/>
<path d="M302.328 930.685V981.567H302.475L353.592 930.773L333.995 930.685H302.328Z" fill="#00313C"/>
<path d="M312.113 956.056C312.113 964.999 319.362 972.248 328.306 972.248C337.25 972.248 344.499 964.999 344.499 956.056C344.499 947.112 337.25 939.863 328.306 939.863C319.362 939.863 312.113 947.112 312.113 956.056Z" fill="#00313C"/>
<path d="M328.306 939.863C319.362 939.863 312.113 947.112 312.113 956.056C312.113 960.531 313.925 964.574 316.853 967.509L339.752 944.61C336.824 941.682 332.774 939.87 328.299 939.87" fill="#77E2C3"/>
<path d="M302.141 980.29V931.595" stroke="#E6007E" stroke-width="0.36685" stroke-miterlimit="10"/>
<path d="M303.426 930.685H352.855" stroke="#E6007E" stroke-width="0.36685" stroke-miterlimit="10"/>
<path d="M353.781 931.955V980.658" stroke="#E6007E" stroke-width="0.36685" stroke-miterlimit="10"/>
<path d="M352.488 981.566H303.059" stroke="#E6007E" stroke-width="0.36685" stroke-miterlimit="10"/>
<path d="M302.141 931.228V930.685H302.691M302.691 981.567H302.141V981.024L302.691 981.567ZM353.786 981.024V981.567H353.235L353.786 981.024ZM353.235 930.685H353.786V931.228L353.235 930.685Z" stroke="#E6007E" stroke-width="0.36685" stroke-miterlimit="10"/>
<path d="M104.965 938.454C104.004 937.889 102.991 937.397 101.942 936.994L75.8516 964.463C76.3065 965.491 76.8494 966.481 77.4657 967.413L104.965 938.461V938.454Z" fill="#00313C"/>
<path d="M74.6811 961.045L98.4677 936.004C97.2057 935.761 95.9071 935.637 94.5791 935.637C94.557 935.637 94.5351 935.637 94.5131 935.637L74.1016 957.017C74.1603 958.403 74.3583 959.746 74.6811 961.052" fill="#00313C"/>
<path d="M113.524 948.294C113.069 947.186 112.512 946.129 111.873 945.124L84.4844 973.958C85.4529 974.509 86.4654 974.978 87.5219 975.367L113.524 948.294Z" fill="#00313C"/>
<path d="M107.616 940.311L79.457 969.959C80.1761 970.744 80.9612 971.478 81.7976 972.146L109.92 942.541C109.209 941.741 108.438 941 107.616 940.318" fill="#00313C"/>
<path d="M100.344 975.794C107.468 973.71 112.985 967.862 114.592 960.555L100.344 975.794Z" fill="#00313C"/>
<path d="M89.4983 936.267C81.9705 938.189 76.1082 944.279 74.5234 951.939L89.4983 936.267Z" fill="#00313C"/>
<path d="M95.181 976.592L115.064 955.402C115.02 954.17 114.874 952.966 114.624 951.807L91.043 976.313C92.1949 976.511 93.3761 976.621 94.5867 976.621C94.9095 976.621 95.2397 976.614 95.5552 976.599H95.181V976.592Z" fill="#00313C"/>
<path d="M118.758 981.566H70.0547" stroke="#E6007E" stroke-width="0.36685" stroke-miterlimit="10"/>
<path d="M69.1445 980.29V931.594" stroke="#E6007E" stroke-width="0.36685" stroke-miterlimit="10"/>
<path d="M70.4219 930.685H119.118" stroke="#E6007E" stroke-width="0.36685" stroke-miterlimit="10"/>
<path d="M120.023 931.955V980.658" stroke="#E6007E" stroke-width="0.36685" stroke-miterlimit="10"/>
<path d="M69.6875 981.559H69.1445V981.016M120.027 981.016V981.559H119.484L120.027 981.016ZM119.484 930.677H120.027V931.22L119.484 930.677ZM69.1445 931.22V930.677H69.6875L69.1445 931.22Z" stroke="#E6007E" stroke-width="0.36685" stroke-miterlimit="10"/>
<path d="M10.0078 980.915V931.148" stroke="#77E2C3" stroke-width="0.183425" stroke-miterlimit="10"/>
<path d="M10.6562 930.685H61.1935" stroke="#77E2C3" stroke-width="0.183425" stroke-miterlimit="10"/>
<path d="M61.6445 931.331V981.105" stroke="#77E2C3" stroke-width="0.183425" stroke-miterlimit="10"/>
<path d="M61.0026 981.566H10.4727" stroke="#77E2C3" stroke-width="0.183425" stroke-miterlimit="10"/>
<path d="M10 930.964V930.685H10.2788M10.2788 981.567H10V981.288L10.2788 981.567ZM61.645 981.288V981.567H61.3663L61.645 981.288ZM61.3663 930.685H61.645V930.964L61.3663 930.685Z" stroke="#77E2C3" stroke-width="0.183425" stroke-miterlimit="10"/>
<path d="M10.2852 978.044L14.3425 981.42H28.6791L10.2852 965.117V978.044Z" fill="#00313C"/>
<path d="M10.2852 951.874L43.0082 981.42H57.3447L10.2852 938.858V951.874Z" fill="#00313C"/>
<path d="M15.7461 930.641L61.3676 972.058V959.042L30.0826 930.641H15.7461Z" fill="#00313C"/>
<path d="M44.4141 930.641L61.3699 946.034V933.018L58.7506 930.641H44.4141Z" fill="#00313C"/>
<path d="M10.082 980.291V931.734" stroke="#E6007E" stroke-width="0.36685" stroke-miterlimit="10"/>
<path d="M11.3711 930.825H60.6536" stroke="#E6007E" stroke-width="0.36685" stroke-miterlimit="10"/>
<path d="M61.5703 932.094V980.65" stroke="#E6007E" stroke-width="0.36685" stroke-miterlimit="10"/>
<path d="M60.286 981.552H10.9961" stroke="#E6007E" stroke-width="0.36685" stroke-miterlimit="10"/>
<path d="M10.082 931.368V930.825H10.6323M10.6323 981.553H10.082V981.01L10.6323 981.553ZM61.573 981.01V981.553H61.0228L61.573 981.01ZM61.0228 930.825H61.573V931.368L61.0228 930.825Z" stroke="#E6007E" stroke-width="0.36685" stroke-miterlimit="10"/>
<path d="M128.125 930.641H176.828" stroke="#E6007E" stroke-width="0.36685" stroke-miterlimit="10"/>
<path d="M128.125 930.641H176.828" stroke="#E6007E" stroke-width="0.36685" stroke-miterlimit="10"/>
<path d="M128.125 930.641H176.828" stroke="#E6007E" stroke-width="0.36685" stroke-miterlimit="10"/>
<g clip-path="url(#clip0_1327_5015)">
<path d="M177.8 930.641H126.918V981.523H177.8V930.641Z" fill="white"/>
<path d="M152.351 955.757C138.47 955.757 127.215 967.012 127.215 980.894C127.215 994.775 138.47 1006.03 152.351 1006.03C166.233 1006.03 177.481 994.775 177.481 980.894C177.481 967.012 166.226 955.757 152.351 955.757Z" fill="#00313C"/>
<path d="M126.918 980.247V931.551" stroke="#E6007E" stroke-width="0.36685" stroke-miterlimit="10"/>
<path d="M177.801 931.91V980.613" stroke="#E6007E" stroke-width="0.36685" stroke-miterlimit="10"/>
<path d="M176.531 981.522H127.828" stroke="#E6007E" stroke-width="0.36685" stroke-miterlimit="10"/>
<path d="M126.926 931.184V930.641H127.469M127.469 981.523H126.926V980.98L127.469 981.523ZM177.808 980.98V981.523H177.265L177.808 980.98ZM177.265 930.641H177.808V931.184L177.265 930.641Z" stroke="#E6007E" stroke-width="0.36685" stroke-miterlimit="10"/>
<path d="M177.8 930.641H126.918V981.523H177.8V930.641Z" fill="white"/>
<path d="M152.004 955.542C138.122 955.542 126.867 966.797 126.867 980.679C126.867 994.561 138.122 1005.82 152.004 1005.82C165.885 1005.82 177.133 994.561 177.133 980.679C177.133 966.797 165.878 955.542 152.004 955.542Z" fill="#00313C"/>
<path d="M126.918 980.247V931.551" stroke="#E6007E" stroke-width="0.36685" stroke-miterlimit="10"/>
<path d="M177.801 931.91V980.613" stroke="#E6007E" stroke-width="0.36685" stroke-miterlimit="10"/>
<path d="M176.531 981.522H127.828" stroke="#E6007E" stroke-width="0.36685" stroke-miterlimit="10"/>
<path d="M126.926 931.184V930.641H127.469M127.469 981.523H126.926V980.98L127.469 981.523ZM177.808 980.98V981.523H177.265L177.808 980.98ZM177.265 930.641H177.808V931.184L177.265 930.641Z" stroke="#E6007E" stroke-width="0.36685" stroke-miterlimit="10"/>
<path d="M177.8 930.641H126.918V981.523H177.8V930.641Z" fill="white"/>
<path d="M127.405 981.237C141.199 981.237 152.373 970.056 152.373 956.27C152.373 942.483 141.192 931.302 127.405 931.302C113.619 931.302 102.438 942.483 102.438 956.27C102.438 970.056 113.619 981.237 127.405 981.237Z" fill="#00313C"/>
<path d="M177.347 981.237C191.14 981.237 202.314 970.056 202.314 956.27C202.314 942.483 191.133 931.302 177.347 931.302C163.561 931.302 152.379 942.483 152.379 956.27C152.379 970.056 163.561 981.237 177.347 981.237Z" fill="#00313C"/>
<path d="M126.918 980.247V931.551" stroke="#E6007E" stroke-width="0.36685" stroke-miterlimit="10"/>
<path d="M177.801 931.91V980.613" stroke="#E6007E" stroke-width="0.36685" stroke-miterlimit="10"/>
<path d="M176.531 981.522H127.828" stroke="#E6007E" stroke-width="0.36685" stroke-miterlimit="10"/>
<path d="M126.926 931.184V930.641H127.469M127.469 981.523H126.926V980.98L127.469 981.523ZM177.808 980.98V981.523H177.265L177.808 980.98ZM177.265 930.641H177.808V931.184L177.265 930.641Z" stroke="#E6007E" stroke-width="0.36685" stroke-miterlimit="10"/>
<path d="M177.491 980.356V956.276H152.406C152.406 956.276 152.406 956.313 152.406 956.335C152.406 970.128 163.588 981.302 177.374 981.302C177.411 981.302 177.447 981.302 177.491 981.302V980.356Z" fill="#008C95"/>
</g>
<defs>
<filter id="filter0_d_1327_5015" x="1.08193" y="44.1513" width="190.6" height="260.076" filterUnits="userSpaceOnUse" color-interpolation-filters="sRGB">
<feFlood flood-opacity="0" result="BackgroundImageFix"/>
<feColorMatrix in="SourceAlpha" type="matrix" values="0 0 0 0 0 0 0 0 0 0 0 0 0 0 0 0 0 0 127 0" result="hardAlpha"/>
<feOffset dx="2.31936" dy="2.31936"/>
<feGaussianBlur stdDeviation="5.7984"/>
<feComposite in2="hardAlpha" operator="out"/>
<feColorMatrix type="matrix" values="0 0 0 0 0 0 0 0 0 0 0 0 0 0 0 0 0 0 0.1 0"/>
<feBlend mode="normal" in2="BackgroundImageFix" result="effect1_dropShadow_1327_5015"/>
<feBlend mode="normal" in="SourceGraphic" in2="effect1_dropShadow_1327_5015" result="shape"/>
</filter>
<filter id="filter1_d_1327_5015" x="175.172" y="44.1513" width="190.6" height="260.076" filterUnits="userSpaceOnUse" color-interpolation-filters="sRGB">
<feFlood flood-opacity="0" result="BackgroundImageFix"/>
<feColorMatrix in="SourceAlpha" type="matrix" values="0 0 0 0 0 0 0 0 0 0 0 0 0 0 0 0 0 0 127 0" result="hardAlpha"/>
<feOffset dx="2.31936" dy="2.31936"/>
<feGaussianBlur stdDeviation="5.7984"/>
<feComposite in2="hardAlpha" operator="out"/>
<feColorMatrix type="matrix" values="0 0 0 0 0 0 0 0 0 0 0 0 0 0 0 0 0 0 0.1 0"/>
<feBlend mode="normal" in2="BackgroundImageFix" result="effect1_dropShadow_1327_5015"/>
<feBlend mode="normal" in="SourceGraphic" in2="effect1_dropShadow_1327_5015" result="shape"/>
</filter>
<filter id="filter2_d_1327_5015" x="0.82614" y="335.829" width="191.28" height="261.004" filterUnits="userSpaceOnUse" color-interpolation-filters="sRGB">
<feFlood flood-opacity="0" result="BackgroundImageFix"/>
<feColorMatrix in="SourceAlpha" type="matrix" values="0 0 0 0 0 0 0 0 0 0 0 0 0 0 0 0 0 0 127 0" result="hardAlpha"/>
<feOffset dx="2.32764" dy="2.32764"/>
<feGaussianBlur stdDeviation="5.81911"/>
<feComposite in2="hardAlpha" operator="out"/>
<feColorMatrix type="matrix" values="0 0 0 0 0 0 0 0 0 0 0 0 0 0 0 0 0 0 0.1 0"/>
<feBlend mode="normal" in2="BackgroundImageFix" result="effect1_dropShadow_1327_5015"/>
<feBlend mode="normal" in="SourceGraphic" in2="effect1_dropShadow_1327_5015" result="shape"/>
</filter>
<filter id="filter3_d_1327_5015" x="175.537" y="335.829" width="191.28" height="261.004" filterUnits="userSpaceOnUse" color-interpolation-filters="sRGB">
<feFlood flood-opacity="0" result="BackgroundImageFix"/>
<feColorMatrix in="SourceAlpha" type="matrix" values="0 0 0 0 0 0 0 0 0 0 0 0 0 0 0 0 0 0 127 0" result="hardAlpha"/>
<feOffset dx="2.32764" dy="2.32764"/>
<feGaussianBlur stdDeviation="5.81911"/>
<feComposite in2="hardAlpha" operator="out"/>
<feColorMatrix type="matrix" values="0 0 0 0 0 0 0 0 0 0 0 0 0 0 0 0 0 0 0.1 0"/>
<feBlend mode="normal" in2="BackgroundImageFix" result="effect1_dropShadow_1327_5015"/>
<feBlend mode="normal" in="SourceGraphic" in2="effect1_dropShadow_1327_5015" result="shape"/>
</filter>
<filter id="filter4_d_1327_5015" x="1.09948" y="628.064" width="190.72" height="260.241" filterUnits="userSpaceOnUse" color-interpolation-filters="sRGB">
<feFlood flood-opacity="0" result="BackgroundImageFix"/>
<feColorMatrix in="SourceAlpha" type="matrix" values="0 0 0 0 0 0 0 0 0 0 0 0 0 0 0 0 0 0 127 0" result="hardAlpha"/>
<feOffset dx="2.32083" dy="2.32083"/>
<feGaussianBlur stdDeviation="5.80208"/>
<feComposite in2="hardAlpha" operator="out"/>
<feColorMatrix type="matrix" values="0 0 0 0 0 0 0 0 0 0 0 0 0 0 0 0 0 0 0.1 0"/>
<feBlend mode="normal" in2="BackgroundImageFix" result="effect1_dropShadow_1327_5015"/>
<feBlend mode="normal" in="SourceGraphic" in2="effect1_dropShadow_1327_5015" result="shape"/>
</filter>
<filter id="filter5_d_1327_5015" x="175.057" y="627.855" width="190.72" height="260.241" filterUnits="userSpaceOnUse" color-interpolation-filters="sRGB">
<feFlood flood-opacity="0" result="BackgroundImageFix"/>
<feColorMatrix in="SourceAlpha" type="matrix" values="0 0 0 0 0 0 0 0 0 0 0 0 0 0 0 0 0 0 127 0" result="hardAlpha"/>
<feOffset dx="2.32083" dy="2.32083"/>
<feGaussianBlur stdDeviation="5.80208"/>
<feComposite in2="hardAlpha" operator="out"/>
<feColorMatrix type="matrix" values="0 0 0 0 0 0 0 0 0 0 0 0 0 0 0 0 0 0 0.1 0"/>
<feBlend mode="normal" in2="BackgroundImageFix" result="effect1_dropShadow_1327_5015"/>
<feBlend mode="normal" in="SourceGraphic" in2="effect1_dropShadow_1327_5015" result="shape"/>
</filter>
<clipPath id="clip0_1327_5015">
<rect width="51.359" height="51.359" fill="white" transform="translate(126.656 930.641)"/>
</clipPath>
</defs>
</svg>
