<svg width="366" height="969" viewBox="0 0 366 969" fill="none" xmlns="http://www.w3.org/2000/svg">
<path d="M177.426 917.417H127V967.843H177.426V917.417Z" fill="white"/>
<path d="M127 966.579V918.32" stroke="#E6007E" stroke-width="0.36356" stroke-miterlimit="10"/>
<path d="M128.258 917.417H176.524" stroke="#E6007E" stroke-width="0.36356" stroke-miterlimit="10"/>
<path d="M177.43 918.677V966.944" stroke="#E6007E" stroke-width="0.36356" stroke-miterlimit="10"/>
<path d="M127.008 917.955V917.417H127.546M127.546 967.843H127.008V967.305L127.546 967.843ZM177.434 967.305V967.843H176.896L177.434 967.305ZM176.896 917.417H177.434V917.955L176.896 917.417Z" stroke="#E6007E" stroke-width="0.36356" stroke-miterlimit="10"/>
<path d="M235.289 917.417H184.863V967.843H235.289V917.417Z" fill="white"/>
<path d="M184.863 966.579V918.32" stroke="#E6007E" stroke-width="0.36356" stroke-miterlimit="10"/>
<path d="M186.121 917.417H234.387" stroke="#E6007E" stroke-width="0.36356" stroke-miterlimit="10"/>
<path d="M235.285 918.677V966.944" stroke="#E6007E" stroke-width="0.36356" stroke-miterlimit="10"/>
<path d="M234.017 967.843H185.758" stroke="#E6007E" stroke-width="0.36356" stroke-miterlimit="10"/>
<path d="M184.863 917.955V917.417H185.401M185.401 967.843H184.863V967.305L185.401 967.843ZM235.289 967.305V967.843H234.751L235.289 967.305ZM234.751 917.417H235.289V917.955L234.751 917.417Z" stroke="#E6007E" stroke-width="0.36356" stroke-miterlimit="10"/>
<path d="M209.805 923.169C199.059 923.169 190.348 931.88 190.348 942.627C190.348 953.374 199.059 962.084 209.805 962.084C220.552 962.084 229.263 953.374 229.263 942.627C229.263 931.88 220.552 923.169 209.805 923.169Z" fill="#00313C"/>
<path d="M117.883 967.843H69.6172" stroke="#E6007E" stroke-width="0.36356" stroke-miterlimit="10"/>
<path d="M68.7148 966.579V918.32" stroke="#E6007E" stroke-width="0.36356" stroke-miterlimit="10"/>
<path d="M69.9805 917.417H118.239" stroke="#E6007E" stroke-width="0.36356" stroke-miterlimit="10"/>
<path d="M119.137 918.677V966.944" stroke="#E6007E" stroke-width="0.36356" stroke-miterlimit="10"/>
<path d="M69.2529 967.837H68.7148V967.299M119.141 967.299V967.837H118.603L119.141 967.299ZM118.603 917.411H119.141V917.949L118.603 917.411ZM68.7148 917.949V917.411H69.2529L68.7148 917.949Z" stroke="#E6007E" stroke-width="0.36356" stroke-miterlimit="10"/>
<path d="M119.57 917.417H94.0625V967.843H119.57V917.417Z" fill="#00313C"/>
<path d="M242.707 966.644V918.385" stroke="#E6007E" stroke-width="0.36356" stroke-miterlimit="10"/>
<path d="M243.996 917.483H292.982" stroke="#E6007E" stroke-width="0.36356" stroke-miterlimit="10"/>
<path d="M293.887 918.741V967.007" stroke="#E6007E" stroke-width="0.36356" stroke-miterlimit="10"/>
<path d="M292.607 967.901H243.621" stroke="#E6007E" stroke-width="0.36356" stroke-miterlimit="10"/>
<path d="M242.715 918.015V917.477H243.26M243.26 967.903H242.715V967.365L243.26 967.903ZM293.897 967.365V967.903H293.352L293.897 967.365ZM293.352 917.477H293.897V918.015L293.352 917.477Z" stroke="#E6007E" stroke-width="0.36356" stroke-miterlimit="10"/>
<path d="M293.758 917.353L267.858 967.786L243.332 917.353H293.758Z" fill="#00313C"/>
<path d="M301.32 966.579V918.32" stroke="#E6007E" stroke-width="0.36356" stroke-miterlimit="10"/>
<path d="M302.602 917.417H351.588" stroke="#E6007E" stroke-width="0.36356" stroke-miterlimit="10"/>
<path d="M352.5 918.677V966.944" stroke="#E6007E" stroke-width="0.36356" stroke-miterlimit="10"/>
<path d="M351.224 967.843H302.238" stroke="#E6007E" stroke-width="0.36356" stroke-miterlimit="10"/>
<path d="M301.32 917.955V917.417H301.866M301.866 967.843H301.32V967.305L301.866 967.843ZM352.502 967.305V967.843H351.957L352.502 967.305ZM351.957 917.417H352.502V917.955L351.957 917.417Z" stroke="#E6007E" stroke-width="0.36356" stroke-miterlimit="10"/>
<path d="M330.4 957.513C338.584 955.582 343.653 947.381 341.721 939.197C339.789 931.013 331.589 925.944 323.405 927.876C315.221 929.808 310.152 938.008 312.083 946.192C314.015 954.376 322.216 959.445 330.4 957.513Z" stroke="#00313C" stroke-width="10.2088" stroke-miterlimit="10"/>
<path d="M10.1133 967.197V917.876" stroke="#77E2C3" stroke-width="0.18178" stroke-miterlimit="10"/>
<path d="M10.75 917.417H60.8341" stroke="#77E2C3" stroke-width="0.18178" stroke-miterlimit="10"/>
<path d="M61.2852 918.059V967.387" stroke="#77E2C3" stroke-width="0.18178" stroke-miterlimit="10"/>
<path d="M60.6394 967.843H10.5625" stroke="#77E2C3" stroke-width="0.18178" stroke-miterlimit="10"/>
<path d="M10.0977 917.693V917.417H10.374M10.374 967.843H10.0977V967.567L10.374 967.843ZM61.2796 967.567V967.843H61.0034L61.2796 967.567ZM61.0034 917.417H61.2796V917.693L61.0034 917.417Z" stroke="#77E2C3" stroke-width="0.18178" stroke-miterlimit="10"/>
<path d="M10.1797 966.578V918.457" stroke="#E6007E" stroke-width="0.36356" stroke-miterlimit="10"/>
<path d="M11.457 917.556H60.2977" stroke="#E6007E" stroke-width="0.36356" stroke-miterlimit="10"/>
<path d="M61.207 918.814V966.935" stroke="#E6007E" stroke-width="0.36356" stroke-miterlimit="10"/>
<path d="M59.9378 967.829H11.0898" stroke="#E6007E" stroke-width="0.36356" stroke-miterlimit="10"/>
<path d="M10.1797 918.094V917.556H10.725M10.725 967.829H10.1797V967.291L10.725 967.829ZM61.209 967.291V967.829H60.6636L61.209 967.291ZM60.6636 917.556H61.209V918.094L60.6636 917.556Z" stroke="#E6007E" stroke-width="0.36356" stroke-miterlimit="10"/>
<path d="M11.168 917.556H61.2084V967.829L11.168 917.556Z" fill="#00313C"/>
<g filter="url(#filter0_d_1327_5014)">
<path d="M177.738 41.4292H10.3086V278.344H177.738V41.4292Z" fill="white"/>
</g>
<path d="M177.738 41.4292H10.3086V198.657H177.738V41.4292Z" fill="white"/>
<path d="M178.05 41C178.05 87.4053 140.43 125.025 94.0248 125.025C47.6195 125.025 10 87.4053 10 41" fill="#F0F0F0"/>
<path d="M38.2578 41.2886V278.482" stroke="#999999" stroke-width="0.434941"/>
<path d="M66.2148 41.2886V278.482" stroke="#999999" stroke-width="0.434941"/>
<path d="M93.8867 41.2886V278.482" stroke="#999999" stroke-width="0.434941"/>
<path d="M121.84 41.2886V278.482" stroke="#999999" stroke-width="0.434941"/>
<path d="M149.789 41.2886V278.482" stroke="#999999" stroke-width="0.434941"/>
<path d="M177.885 67.5029H10.1719" stroke="#999999" stroke-width="0.434941"/>
<path d="M177.885 93.8599H10.1719" stroke="#999999" stroke-width="0.434941"/>
<path d="M177.885 120.496H10.1719" stroke="#999999" stroke-width="0.434941"/>
<path d="M177.885 146.569H10.1719" stroke="#999999" stroke-width="0.434941"/>
<path d="M177.885 172.926H10.1719" stroke="#999999" stroke-width="0.434941"/>
<path d="M177.885 199.277H10.1719" stroke="#999999" stroke-width="0.434941"/>
<path d="M177.885 225.914H10.1719" stroke="#999999" stroke-width="0.434941"/>
<path d="M177.885 252.271H10.1719" stroke="#999999" stroke-width="0.434941"/>
<g filter="url(#filter1_d_1327_5014)">
<path d="M351.855 41.4292H184.426V278.344H351.855V41.4292Z" fill="white"/>
</g>
<path d="M351.858 41.2886H185.305V199.375H351.858V41.2886Z" fill="#008C95"/>
<path d="M212.375 41.2886V278.482" stroke="#999999" stroke-width="0.434941"/>
<path d="M240.328 41.2886V278.482" stroke="#999999" stroke-width="0.434941"/>
<path d="M268 41.2886V278.482" stroke="#999999" stroke-width="0.434941"/>
<path d="M295.957 41.2886V278.482" stroke="#999999" stroke-width="0.434941"/>
<path d="M323.906 41.2886V278.482" stroke="#999999" stroke-width="0.434941"/>
<path d="M351.998 67.5029H184.285" stroke="#999999" stroke-width="0.434941"/>
<path d="M351.998 93.8599H184.285" stroke="#999999" stroke-width="0.434941"/>
<path d="M351.998 120.496H184.285" stroke="#999999" stroke-width="0.434941"/>
<path d="M351.998 146.569H184.285" stroke="#999999" stroke-width="0.434941"/>
<path d="M351.998 172.926H184.285" stroke="#999999" stroke-width="0.434941"/>
<path d="M351.998 199.277H184.285" stroke="#999999" stroke-width="0.434941"/>
<path d="M351.998 225.914H184.285" stroke="#999999" stroke-width="0.434941"/>
<path d="M351.998 252.271H184.285" stroke="#999999" stroke-width="0.434941"/>
<path d="M177.159 41.5845H11.0352V198.807H177.159V41.5845Z" stroke="#E6007E" stroke-width="1.15984"/>
<path d="M12.6211 47.437H175.573" stroke="#E6007E" stroke-width="0.579921"/>
<path d="M10.4609 47.4375L12.8966 49.6992V45.1758L10.4609 47.4375Z" fill="#E6007E"/>
<path d="M177.74 47.4375L175.305 45.1758V49.6992L177.74 47.4375Z" fill="#E6007E"/>
<path d="M190.506 2.46875V11H189.381V3.39453H185.174V11H184.043V2.46875H190.506ZM195.703 7.6543H193.424V6.73438H195.703C196.145 6.73438 196.502 6.66406 196.775 6.52344C197.049 6.38281 197.248 6.1875 197.373 5.9375C197.502 5.6875 197.566 5.40234 197.566 5.08203C197.566 4.78906 197.502 4.51367 197.373 4.25586C197.248 3.99805 197.049 3.79102 196.775 3.63477C196.502 3.47461 196.145 3.39453 195.703 3.39453H193.688V11H192.557V2.46875H195.703C196.348 2.46875 196.893 2.58008 197.338 2.80273C197.783 3.02539 198.121 3.33398 198.352 3.72852C198.582 4.11914 198.697 4.56641 198.697 5.07031C198.697 5.61719 198.582 6.08398 198.352 6.4707C198.121 6.85742 197.783 7.15234 197.338 7.35547C196.893 7.55469 196.348 7.6543 195.703 7.6543ZM201.305 9.04297L205.506 2.46875H206.637V11H205.506V4.41992L201.305 11H200.18V2.46875H201.305V9.04297ZM209.051 2.46875H210.146L212.941 9.42383L215.73 2.46875H216.832L213.363 11H212.508L209.051 2.46875ZM208.693 2.46875H209.66L209.818 7.67188V11H208.693V2.46875ZM216.217 2.46875H217.184V11H216.059V7.67188L216.217 2.46875ZM224.59 10.0801V11H220.072V10.0801H224.59ZM220.301 2.46875V11H219.17V2.46875H220.301ZM223.992 6.13672V7.05664H220.072V6.13672H223.992ZM224.531 2.46875V3.39453H220.072V2.46875H224.531ZM229.137 7.6543H226.857V6.73438H229.137C229.578 6.73438 229.936 6.66406 230.209 6.52344C230.482 6.38281 230.682 6.1875 230.807 5.9375C230.936 5.6875 231 5.40234 231 5.08203C231 4.78906 230.936 4.51367 230.807 4.25586C230.682 3.99805 230.482 3.79102 230.209 3.63477C229.936 3.47461 229.578 3.39453 229.137 3.39453H227.121V11H225.99V2.46875H229.137C229.781 2.46875 230.326 2.58008 230.771 2.80273C231.217 3.02539 231.555 3.33398 231.785 3.72852C232.016 4.11914 232.131 4.56641 232.131 5.07031C232.131 5.61719 232.016 6.08398 231.785 6.4707C231.555 6.85742 231.217 7.15234 230.771 7.35547C230.326 7.55469 229.781 7.6543 229.137 7.6543ZM239.818 2.42188V11H238.734V3.77539L236.549 4.57227V3.59375L239.648 2.42188H239.818Z" fill="black"/>
<path d="M17.6777 2.46875V11H16.5527V3.39453H12.3457V11H11.2148V2.46875H17.6777ZM26.2969 6.46484V7.00391C26.2969 7.64453 26.2168 8.21875 26.0566 8.72656C25.8965 9.23438 25.666 9.66602 25.3652 10.0215C25.0645 10.377 24.7031 10.6484 24.2812 10.8359C23.8633 11.0234 23.3945 11.1172 22.875 11.1172C22.3711 11.1172 21.9082 11.0234 21.4863 10.8359C21.0684 10.6484 20.7051 10.377 20.3965 10.0215C20.0918 9.66602 19.8555 9.23438 19.6875 8.72656C19.5195 8.21875 19.4355 7.64453 19.4355 7.00391V6.46484C19.4355 5.82422 19.5176 5.25195 19.6816 4.74805C19.8496 4.24023 20.0859 3.80859 20.3906 3.45312C20.6953 3.09375 21.0566 2.82031 21.4746 2.63281C21.8965 2.44531 22.3594 2.35156 22.8633 2.35156C23.3828 2.35156 23.8516 2.44531 24.2695 2.63281C24.6914 2.82031 25.0527 3.09375 25.3535 3.45312C25.6582 3.80859 25.8906 4.24023 26.0508 4.74805C26.2148 5.25195 26.2969 5.82422 26.2969 6.46484ZM25.1777 7.00391V6.45312C25.1777 5.94531 25.125 5.49609 25.0195 5.10547C24.918 4.71484 24.7676 4.38672 24.5684 4.12109C24.3691 3.85547 24.125 3.6543 23.8359 3.51758C23.5508 3.38086 23.2266 3.3125 22.8633 3.3125C22.5117 3.3125 22.1934 3.38086 21.9082 3.51758C21.627 3.6543 21.3848 3.85547 21.1816 4.12109C20.9824 4.38672 20.8281 4.71484 20.7188 5.10547C20.6094 5.49609 20.5547 5.94531 20.5547 6.45312V7.00391C20.5547 7.51562 20.6094 7.96875 20.7188 8.36328C20.8281 8.75391 20.9844 9.08398 21.1875 9.35352C21.3945 9.61914 21.6387 9.82031 21.9199 9.95703C22.2051 10.0938 22.5234 10.1621 22.875 10.1621C23.2422 10.1621 23.5684 10.0938 23.8535 9.95703C24.1387 9.82031 24.3789 9.61914 24.5742 9.35352C24.7734 9.08398 24.9238 8.75391 25.0254 8.36328C25.127 7.96875 25.1777 7.51562 25.1777 7.00391ZM33.1406 8.28711H34.2656C34.207 8.82617 34.0527 9.30859 33.8027 9.73438C33.5527 10.1602 33.1992 10.498 32.7422 10.748C32.2852 10.9941 31.7148 11.1172 31.0312 11.1172C30.5312 11.1172 30.0762 11.0234 29.666 10.8359C29.2598 10.6484 28.9102 10.3828 28.6172 10.0391C28.3242 9.69141 28.0977 9.27539 27.9375 8.79102C27.7812 8.30273 27.7031 7.75977 27.7031 7.16211V6.3125C27.7031 5.71484 27.7812 5.17383 27.9375 4.68945C28.0977 4.20117 28.3262 3.7832 28.623 3.43555C28.9238 3.08789 29.2852 2.82031 29.707 2.63281C30.1289 2.44531 30.6035 2.35156 31.1309 2.35156C31.7754 2.35156 32.3203 2.47266 32.7656 2.71484C33.2109 2.95703 33.5566 3.29297 33.8027 3.72266C34.0527 4.14844 34.207 4.64258 34.2656 5.20508H33.1406C33.0859 4.80664 32.9844 4.46484 32.8359 4.17969C32.6875 3.89063 32.4766 3.66797 32.2031 3.51172C31.9297 3.35547 31.5723 3.27734 31.1309 3.27734C30.752 3.27734 30.418 3.34961 30.1289 3.49414C29.8438 3.63867 29.6035 3.84375 29.4082 4.10938C29.2168 4.375 29.0723 4.69336 28.9746 5.06445C28.877 5.43555 28.8281 5.84766 28.8281 6.30078V7.16211C28.8281 7.58008 28.8711 7.97266 28.957 8.33984C29.0469 8.70703 29.1816 9.0293 29.3613 9.30664C29.541 9.58398 29.7695 9.80273 30.0469 9.96289C30.3242 10.1191 30.6523 10.1973 31.0312 10.1973C31.5117 10.1973 31.8945 10.1211 32.1797 9.96875C32.4648 9.81641 32.6797 9.59766 32.8242 9.3125C32.9727 9.02734 33.0781 8.68555 33.1406 8.28711ZM38.7832 2.46875V11H37.6699V2.46875H38.7832ZM41.5254 2.46875V3.39453H34.9336V2.46875H41.5254ZM45.9375 7.6543H43.6582V6.73438H45.9375C46.3789 6.73438 46.7363 6.66406 47.0098 6.52344C47.2832 6.38281 47.4824 6.1875 47.6074 5.9375C47.7363 5.6875 47.8008 5.40234 47.8008 5.08203C47.8008 4.78906 47.7363 4.51367 47.6074 4.25586C47.4824 3.99805 47.2832 3.79102 47.0098 3.63477C46.7363 3.47461 46.3789 3.39453 45.9375 3.39453H43.9219V11H42.791V2.46875H45.9375C46.582 2.46875 47.127 2.58008 47.5723 2.80273C48.0176 3.02539 48.3555 3.33398 48.5859 3.72852C48.8164 4.11914 48.9316 4.56641 48.9316 5.07031C48.9316 5.61719 48.8164 6.08398 48.5859 6.4707C48.3555 6.85742 48.0176 7.15234 47.5723 7.35547C47.127 7.55469 46.582 7.6543 45.9375 7.6543ZM56.9297 6.46484V7.00391C56.9297 7.64453 56.8496 8.21875 56.6895 8.72656C56.5293 9.23438 56.2988 9.66602 55.998 10.0215C55.6973 10.377 55.3359 10.6484 54.9141 10.8359C54.4961 11.0234 54.0273 11.1172 53.5078 11.1172C53.0039 11.1172 52.541 11.0234 52.1191 10.8359C51.7012 10.6484 51.3379 10.377 51.0293 10.0215C50.7246 9.66602 50.4883 9.23438 50.3203 8.72656C50.1523 8.21875 50.0684 7.64453 50.0684 7.00391V6.46484C50.0684 5.82422 50.1504 5.25195 50.3145 4.74805C50.4824 4.24023 50.7188 3.80859 51.0234 3.45312C51.3281 3.09375 51.6895 2.82031 52.1074 2.63281C52.5293 2.44531 52.9922 2.35156 53.4961 2.35156C54.0156 2.35156 54.4844 2.44531 54.9023 2.63281C55.3242 2.82031 55.6855 3.09375 55.9863 3.45312C56.291 3.80859 56.5234 4.24023 56.6836 4.74805C56.8477 5.25195 56.9297 5.82422 56.9297 6.46484ZM55.8105 7.00391V6.45312C55.8105 5.94531 55.7578 5.49609 55.6523 5.10547C55.5508 4.71484 55.4004 4.38672 55.2012 4.12109C55.002 3.85547 54.7578 3.6543 54.4688 3.51758C54.1836 3.38086 53.8594 3.3125 53.4961 3.3125C53.1445 3.3125 52.8262 3.38086 52.541 3.51758C52.2598 3.6543 52.0176 3.85547 51.8145 4.12109C51.6152 4.38672 51.4609 4.71484 51.3516 5.10547C51.2422 5.49609 51.1875 5.94531 51.1875 6.45312V7.00391C51.1875 7.51562 51.2422 7.96875 51.3516 8.36328C51.4609 8.75391 51.6172 9.08398 51.8203 9.35352C52.0273 9.61914 52.2715 9.82031 52.5527 9.95703C52.8379 10.0938 53.1562 10.1621 53.5078 10.1621C53.875 10.1621 54.2012 10.0938 54.4863 9.95703C54.7715 9.82031 55.0117 9.61914 55.207 9.35352C55.4062 9.08398 55.5566 8.75391 55.6582 8.36328C55.7598 7.96875 55.8105 7.51562 55.8105 7.00391ZM64.043 10.0801V11H59.5254V10.0801H64.043ZM59.7539 2.46875V11H58.623V2.46875H59.7539ZM63.4453 6.13672V7.05664H59.5254V6.13672H63.4453ZM63.9844 2.46875V3.39453H59.5254V2.46875H63.9844ZM71.0156 6.13672V7.05664H66.3984V6.13672H71.0156ZM66.5742 2.46875V11H65.4434V2.46875H66.5742ZM72 2.46875V11H70.875V2.46875H72ZM75.1875 9.04297L79.3887 2.46875H80.5195V11H79.3887V4.41992L75.1875 11H74.0625V2.46875H75.1875V9.04297ZM87.9961 10.0801V11H83.4785V10.0801H87.9961ZM83.707 2.46875V11H82.5762V2.46875H83.707ZM87.3984 6.13672V7.05664H83.4785V6.13672H87.3984ZM87.9375 2.46875V3.39453H83.4785V2.46875H87.9375ZM11.0566 16.4688H12.1875V19.1348C12.1875 19.5762 12.252 19.9219 12.3809 20.1719C12.5098 20.4219 12.7051 20.5977 12.9668 20.6992C13.2285 20.8008 13.5547 20.8516 13.9453 20.8516C14.1797 20.8516 14.4062 20.8418 14.625 20.8223C14.8477 20.8027 15.0645 20.7754 15.2754 20.7402C15.4863 20.7051 15.6934 20.6621 15.8965 20.6113C16.1035 20.5605 16.3066 20.5059 16.5059 20.4473V21.373C16.3145 21.4316 16.123 21.4863 15.9316 21.5371C15.7441 21.5879 15.5488 21.6309 15.3457 21.666C15.1465 21.7012 14.9316 21.7285 14.7012 21.748C14.4746 21.7676 14.2227 21.7773 13.9453 21.7773C13.3438 21.7773 12.8262 21.6914 12.3926 21.5195C11.9629 21.3438 11.6328 21.0625 11.4023 20.6758C11.1719 20.2891 11.0566 19.7754 11.0566 19.1348V16.4688ZM16.2188 16.4688H17.3496V25H16.2188V16.4688ZM24.7969 24.0801V25H20.2793V24.0801H24.7969ZM20.5078 16.4688V25H19.377V16.4688H20.5078ZM24.1992 20.1367V21.0566H20.2793V20.1367H24.1992ZM24.7383 16.4688V17.3945H20.2793V16.4688H24.7383ZM29.4668 16.4688V25H28.3535V16.4688H29.4668ZM32.209 16.4688V17.3945H25.6172V16.4688H32.209ZM34.3887 19.9434H36.7148C37.3398 19.9434 37.8672 20.0488 38.2969 20.2598C38.7266 20.4668 39.0527 20.7578 39.2754 21.1328C39.498 21.5078 39.6094 21.9473 39.6094 22.4512C39.6094 22.8262 39.5469 23.1699 39.4219 23.4824C39.2969 23.791 39.1113 24.0605 38.8652 24.291C38.6191 24.5176 38.3164 24.6934 37.957 24.8184C37.5977 24.9395 37.1836 25 36.7148 25H33.5273V16.4688H34.6582V24.0801H36.7148C37.1328 24.0801 37.4707 24.0039 37.7285 23.8516C37.9902 23.6953 38.1816 23.4922 38.3027 23.2422C38.4238 22.9922 38.4844 22.7246 38.4844 22.4395C38.4844 22.1543 38.4238 21.8926 38.3027 21.6543C38.1816 21.416 37.9902 21.2266 37.7285 21.0859C37.4707 20.9414 37.1328 20.8691 36.7148 20.8691H34.3887V19.9434ZM41.7715 16.4688V25H40.6406V16.4688H41.7715ZM47.0039 21.6543H44.7246V20.7344H47.0039C47.4453 20.7344 47.8027 20.6641 48.0762 20.5234C48.3496 20.3828 48.5488 20.1875 48.6738 19.9375C48.8027 19.6875 48.8672 19.4023 48.8672 19.082C48.8672 18.7891 48.8027 18.5137 48.6738 18.2559C48.5488 17.998 48.3496 17.791 48.0762 17.6348C47.8027 17.4746 47.4453 17.3945 47.0039 17.3945H44.9883V25H43.8574V16.4688H47.0039C47.6484 16.4688 48.1934 16.5801 48.6387 16.8027C49.084 17.0254 49.4219 17.334 49.6523 17.7285C49.8828 18.1191 49.998 18.5664 49.998 19.0703C49.998 19.6172 49.8828 20.084 49.6523 20.4707C49.4219 20.8574 49.084 21.1523 48.6387 21.3555C48.1934 21.5547 47.6484 21.6543 47.0039 21.6543ZM56.8477 24.0801V25H52.3301V24.0801H56.8477ZM52.5586 16.4688V25H51.4277V16.4688H52.5586ZM56.25 20.1367V21.0566H52.3301V20.1367H56.25ZM56.7891 16.4688V17.3945H52.3301V16.4688H56.7891ZM58.9805 16.4688L61.0312 19.7383L63.082 16.4688H64.4004L61.7051 20.6934L64.4648 25H63.1348L61.0312 21.666L58.9277 25H57.5977L60.3574 20.6934L57.6621 16.4688H58.9805ZM68.4141 22.1699L70.6699 16.4688H71.9707L68.9531 23.5762C68.8672 23.7754 68.7715 23.9688 68.666 24.1562C68.5605 24.3398 68.4316 24.5039 68.2793 24.6484C68.127 24.793 67.9375 24.9082 67.7109 24.9941C67.4883 25.0801 67.2109 25.123 66.8789 25.123C66.7852 25.123 66.6738 25.1172 66.5449 25.1055C66.416 25.0977 66.332 25.0879 66.293 25.0762L66.3281 24.1738C66.3711 24.1816 66.4551 24.1895 66.5801 24.1973C66.7051 24.2012 66.7969 24.2031 66.8555 24.2031C67.0781 24.2031 67.2539 24.1582 67.3828 24.0684C67.5117 23.9785 67.6152 23.8652 67.6934 23.7285C67.7754 23.5879 67.8496 23.4453 67.916 23.3008L68.4141 22.1699ZM66.498 16.4688L68.8711 21.7832L69.1523 22.832L68.2031 22.9023L65.2324 16.4688H66.498ZM78.6094 16.4688V17.3945H74.4961V25H73.3711V16.4688H78.6094ZM86.168 20.4648V21.0039C86.168 21.6445 86.0879 22.2188 85.9277 22.7266C85.7676 23.2344 85.5371 23.666 85.2363 24.0215C84.9355 24.377 84.5742 24.6484 84.1523 24.8359C83.7344 25.0234 83.2656 25.1172 82.7461 25.1172C82.2422 25.1172 81.7793 25.0234 81.3574 24.8359C80.9395 24.6484 80.5762 24.377 80.2676 24.0215C79.9629 23.666 79.7266 23.2344 79.5586 22.7266C79.3906 22.2188 79.3066 21.6445 79.3066 21.0039V20.4648C79.3066 19.8242 79.3887 19.252 79.5527 18.748C79.7207 18.2402 79.957 17.8086 80.2617 17.4531C80.5664 17.0938 80.9277 16.8203 81.3457 16.6328C81.7676 16.4453 82.2305 16.3516 82.7344 16.3516C83.2539 16.3516 83.7227 16.4453 84.1406 16.6328C84.5625 16.8203 84.9238 17.0938 85.2246 17.4531C85.5293 17.8086 85.7617 18.2402 85.9219 18.748C86.0859 19.252 86.168 19.8242 86.168 20.4648ZM85.0488 21.0039V20.4531C85.0488 19.9453 84.9961 19.4961 84.8906 19.1055C84.7891 18.7148 84.6387 18.3867 84.4395 18.1211C84.2402 17.8555 83.9961 17.6543 83.707 17.5176C83.4219 17.3809 83.0977 17.3125 82.7344 17.3125C82.3828 17.3125 82.0645 17.3809 81.7793 17.5176C81.498 17.6543 81.2559 17.8555 81.0527 18.1211C80.8535 18.3867 80.6992 18.7148 80.5898 19.1055C80.4805 19.4961 80.4258 19.9453 80.4258 20.4531V21.0039C80.4258 21.5156 80.4805 21.9688 80.5898 22.3633C80.6992 22.7539 80.8555 23.084 81.0586 23.3535C81.2656 23.6191 81.5098 23.8203 81.791 23.957C82.0762 24.0938 82.3945 24.1621 82.7461 24.1621C83.1133 24.1621 83.4395 24.0938 83.7246 23.957C84.0098 23.8203 84.25 23.6191 84.4453 23.3535C84.6445 23.084 84.7949 22.7539 84.8965 22.3633C84.998 21.9688 85.0488 21.5156 85.0488 21.0039ZM93.1582 16.4688V17.3945H89.2559V16.4688H93.1582ZM94.1309 16.4688V25H93V16.4688H94.1309ZM88.8691 16.4688H89.9941L89.8008 20.6465C89.7734 21.248 89.7266 21.7852 89.6602 22.2578C89.5977 22.7266 89.5078 23.1348 89.3906 23.4824C89.2734 23.8262 89.1211 24.1113 88.9336 24.3379C88.7461 24.5605 88.5156 24.7266 88.2422 24.8359C87.9727 24.9453 87.6484 25 87.2695 25H86.9648V24.0801L87.1992 24.0625C87.418 24.0469 87.6055 23.998 87.7617 23.916C87.9219 23.8301 88.0566 23.7012 88.166 23.5293C88.2793 23.3574 88.3711 23.1348 88.4414 22.8613C88.5117 22.5879 88.5664 22.2539 88.6055 21.8594C88.6484 21.4609 88.6816 20.9961 88.7051 20.4648L88.8691 16.4688ZM96.9961 19.9434H99.3223C99.9473 19.9434 100.475 20.0488 100.904 20.2598C101.334 20.4668 101.66 20.7578 101.883 21.1328C102.105 21.5078 102.217 21.9473 102.217 22.4512C102.217 22.8262 102.154 23.1699 102.029 23.4824C101.904 23.791 101.719 24.0605 101.473 24.291C101.227 24.5176 100.924 24.6934 100.564 24.8184C100.205 24.9395 99.791 25 99.3223 25H96.1348V16.4688H97.2656V24.0801H99.3223C99.7402 24.0801 100.078 24.0039 100.336 23.8516C100.598 23.6953 100.789 23.4922 100.91 23.2422C101.031 22.9922 101.092 22.7246 101.092 22.4395C101.092 22.1543 101.031 21.8926 100.91 21.6543C100.789 21.416 100.598 21.2266 100.336 21.0859C100.078 20.9414 99.7402 20.8691 99.3223 20.8691H96.9961V19.9434ZM109.277 20.1367V21.0566H104.66V20.1367H109.277ZM104.836 16.4688V25H103.705V16.4688H104.836ZM110.262 16.4688V25H109.137V16.4688H110.262ZM113.449 23.043L117.65 16.4688H118.781V25H117.65V18.4199L113.449 25H112.324V16.4688H113.449V23.043ZM122.021 16.4688V25H120.891V16.4688H122.021ZM127.277 16.4688L123.574 21.1621H121.57L121.395 20.2246H122.9L125.877 16.4688H127.277ZM126.141 25L122.936 21.0156L123.568 20.0254L127.523 25H126.141ZM131.707 17.2246L128.883 25H127.729L130.98 16.4688H131.725L131.707 17.2246ZM134.074 25L131.244 17.2246L131.227 16.4688H131.971L135.234 25H134.074ZM133.928 21.8418V22.7676H129.135V21.8418H133.928Z" fill="black"/>
<g filter="url(#filter2_d_1327_5014)">
<path d="M177.381 331.141H10.1328V567.8H177.381V331.141Z" fill="white"/>
</g>
<g filter="url(#filter3_d_1327_5014)">
<path d="M351.315 331.141H184.066V567.8H351.315V331.141Z" fill="white"/>
</g>
<path d="M267.624 488.917H184.066V568.744H267.624V488.917Z" fill="#77E2C3"/>
<path d="M351.319 488.917H267.762V568.744H351.319V488.917Z" fill="#008C95"/>
<path d="M267.912 475.245C304.13 475.245 333.488 445.886 333.488 409.669C333.488 373.451 304.13 344.092 267.912 344.092C231.695 344.092 202.336 373.451 202.336 409.669C202.336 445.886 231.695 475.245 267.912 475.245Z" fill="#00313C"/>
<path d="M211.988 331V567.938" stroke="#999999" stroke-width="0.434472"/>
<path d="M239.91 331V567.938" stroke="#999999" stroke-width="0.434472"/>
<path d="M267.551 331V567.938" stroke="#999999" stroke-width="0.434472"/>
<path d="M295.477 331V567.938" stroke="#999999" stroke-width="0.434472"/>
<path d="M323.398 331V567.938" stroke="#999999" stroke-width="0.434472"/>
<path d="M351.458 357.186H183.926" stroke="#999999" stroke-width="0.434472"/>
<path d="M351.458 383.515H183.926" stroke="#999999" stroke-width="0.434472"/>
<path d="M351.458 410.122H183.926" stroke="#999999" stroke-width="0.434472"/>
<path d="M351.458 436.167H183.926" stroke="#999999" stroke-width="0.434472"/>
<path d="M351.458 462.496H183.926" stroke="#999999" stroke-width="0.434472"/>
<path d="M351.458 488.818H183.926" stroke="#999999" stroke-width="0.434472"/>
<path d="M351.458 515.426H183.926" stroke="#999999" stroke-width="0.434472"/>
<path d="M351.458 541.755H183.926" stroke="#999999" stroke-width="0.434472"/>
<path d="M177.394 331H93.8359V409.958H177.394V331Z" fill="#008C95"/>
<path d="M93.8359 331.609L134.549 409.351L177.394 331.864V331.609H93.8359Z" fill="#00313C"/>
<path d="M177.394 488.842H93.8359V567.8H177.394V488.842Z" fill="#77E2C3"/>
<path d="M177.394 409.883H93.8359V488.841H177.394V409.883Z" fill="#77E2C3"/>
<path d="M38.0625 331V567.938" stroke="#999999" stroke-width="0.434472"/>
<path d="M65.9805 331V567.938" stroke="#999999" stroke-width="0.434472"/>
<path d="M93.625 331V567.938" stroke="#999999" stroke-width="0.434472"/>
<path d="M121.547 331V567.938" stroke="#999999" stroke-width="0.434472"/>
<path d="M149.473 331V567.938" stroke="#999999" stroke-width="0.434472"/>
<path d="M177.532 357.186H10" stroke="#999999" stroke-width="0.434472"/>
<path d="M177.532 383.515H10" stroke="#999999" stroke-width="0.434472"/>
<path d="M177.532 410.122H10" stroke="#999999" stroke-width="0.434472"/>
<path d="M177.532 436.167H10" stroke="#999999" stroke-width="0.434472"/>
<path d="M177.532 462.496H10" stroke="#999999" stroke-width="0.434472"/>
<path d="M177.532 488.818H10" stroke="#999999" stroke-width="0.434472"/>
<path d="M177.532 515.426H10" stroke="#999999" stroke-width="0.434472"/>
<path d="M177.532 541.755H10" stroke="#999999" stroke-width="0.434472"/>
<path d="M17.5059 306.469V315H16.3809V307.395H12.1738V315H11.043V306.469H17.5059ZM22.7031 311.654H20.4238V310.734H22.7031C23.1445 310.734 23.502 310.664 23.7754 310.523C24.0488 310.383 24.248 310.188 24.373 309.938C24.502 309.688 24.5664 309.402 24.5664 309.082C24.5664 308.789 24.502 308.514 24.373 308.256C24.248 307.998 24.0488 307.791 23.7754 307.635C23.502 307.475 23.1445 307.395 22.7031 307.395H20.6875V315H19.5566V306.469H22.7031C23.3477 306.469 23.8926 306.58 24.3379 306.803C24.7832 307.025 25.1211 307.334 25.3516 307.729C25.582 308.119 25.6973 308.566 25.6973 309.07C25.6973 309.617 25.582 310.084 25.3516 310.471C25.1211 310.857 24.7832 311.152 24.3379 311.355C23.8926 311.555 23.3477 311.654 22.7031 311.654ZM28.3047 313.043L32.5059 306.469H33.6367V315H32.5059V308.42L28.3047 315H27.1797V306.469H28.3047V313.043ZM36.0508 306.469H37.1465L39.9414 313.424L42.7305 306.469H43.832L40.3633 315H39.5078L36.0508 306.469ZM35.6934 306.469H36.6602L36.8184 311.672V315H35.6934V306.469ZM43.2168 306.469H44.1836V315H43.0586V311.672L43.2168 306.469ZM51.5898 314.08V315H47.0723V314.08H51.5898ZM47.3008 306.469V315H46.1699V306.469H47.3008ZM50.9922 310.137V311.057H47.0723V310.137H50.9922ZM51.5312 306.469V307.395H47.0723V306.469H51.5312ZM56.1367 311.654H53.8574V310.734H56.1367C56.5781 310.734 56.9355 310.664 57.209 310.523C57.4824 310.383 57.6816 310.188 57.8066 309.938C57.9355 309.688 58 309.402 58 309.082C58 308.789 57.9355 308.514 57.8066 308.256C57.6816 307.998 57.4824 307.791 57.209 307.635C56.9355 307.475 56.5781 307.395 56.1367 307.395H54.1211V315H52.9902V306.469H56.1367C56.7812 306.469 57.3262 306.58 57.7715 306.803C58.2168 307.025 58.5547 307.334 58.7852 307.729C59.0156 308.119 59.1309 308.566 59.1309 309.07C59.1309 309.617 59.0156 310.084 58.7852 310.471C58.5547 310.857 58.2168 311.152 57.7715 311.355C57.3262 311.555 56.7812 311.654 56.1367 311.654ZM68.8457 314.109V315H63.2617V314.221L66.0566 311.109C66.4004 310.727 66.666 310.402 66.8535 310.137C67.0449 309.867 67.1777 309.627 67.252 309.416C67.3301 309.201 67.3691 308.982 67.3691 308.76C67.3691 308.479 67.3105 308.225 67.1934 307.998C67.0801 307.768 66.9121 307.584 66.6895 307.447C66.4668 307.311 66.1973 307.242 65.8809 307.242C65.502 307.242 65.1855 307.316 64.9316 307.465C64.6816 307.609 64.4941 307.812 64.3691 308.074C64.2441 308.336 64.1816 308.637 64.1816 308.977H63.0977C63.0977 308.496 63.2031 308.057 63.4141 307.658C63.625 307.26 63.9375 306.943 64.3516 306.709C64.7656 306.471 65.2754 306.352 65.8809 306.352C66.4199 306.352 66.8809 306.447 67.2637 306.639C67.6465 306.826 67.9395 307.092 68.1426 307.436C68.3496 307.775 68.4531 308.174 68.4531 308.631C68.4531 308.881 68.4102 309.135 68.3242 309.393C68.2422 309.646 68.127 309.9 67.9785 310.154C67.834 310.408 67.6641 310.658 67.4688 310.904C67.2773 311.15 67.0723 311.393 66.8535 311.631L64.5684 314.109H68.8457Z" fill="black"/>
<path d="M191.506 306.469V315H190.381V307.395H186.174V315H185.043V306.469H191.506ZM196.703 311.654H194.424V310.734H196.703C197.145 310.734 197.502 310.664 197.775 310.523C198.049 310.383 198.248 310.188 198.373 309.938C198.502 309.688 198.566 309.402 198.566 309.082C198.566 308.789 198.502 308.514 198.373 308.256C198.248 307.998 198.049 307.791 197.775 307.635C197.502 307.475 197.145 307.395 196.703 307.395H194.688V315H193.557V306.469H196.703C197.348 306.469 197.893 306.58 198.338 306.803C198.783 307.025 199.121 307.334 199.352 307.729C199.582 308.119 199.697 308.566 199.697 309.07C199.697 309.617 199.582 310.084 199.352 310.471C199.121 310.857 198.783 311.152 198.338 311.355C197.893 311.555 197.348 311.654 196.703 311.654ZM202.305 313.043L206.506 306.469H207.637V315H206.506V308.42L202.305 315H201.18V306.469H202.305V313.043ZM210.051 306.469H211.146L213.941 313.424L216.73 306.469H217.832L214.363 315H213.508L210.051 306.469ZM209.693 306.469H210.66L210.818 311.672V315H209.693V306.469ZM217.217 306.469H218.184V315H217.059V311.672L217.217 306.469ZM225.59 314.08V315H221.072V314.08H225.59ZM221.301 306.469V315H220.17V306.469H221.301ZM224.992 310.137V311.057H221.072V310.137H224.992ZM225.531 306.469V307.395H221.072V306.469H225.531ZM230.137 311.654H227.857V310.734H230.137C230.578 310.734 230.936 310.664 231.209 310.523C231.482 310.383 231.682 310.188 231.807 309.938C231.936 309.688 232 309.402 232 309.082C232 308.789 231.936 308.514 231.807 308.256C231.682 307.998 231.482 307.791 231.209 307.635C230.936 307.475 230.578 307.395 230.137 307.395H228.121V315H226.99V306.469H230.137C230.781 306.469 231.326 306.58 231.771 306.803C232.217 307.025 232.555 307.334 232.785 307.729C233.016 308.119 233.131 308.566 233.131 309.07C233.131 309.617 233.016 310.084 232.785 310.471C232.555 310.857 232.217 311.152 231.771 311.355C231.326 311.555 230.781 311.654 230.137 311.654ZM238.838 310.201H239.611C239.99 310.201 240.303 310.139 240.549 310.014C240.799 309.885 240.984 309.711 241.105 309.492C241.23 309.27 241.293 309.02 241.293 308.742C241.293 308.414 241.238 308.139 241.129 307.916C241.02 307.693 240.855 307.525 240.637 307.412C240.418 307.299 240.141 307.242 239.805 307.242C239.5 307.242 239.23 307.303 238.996 307.424C238.766 307.541 238.584 307.709 238.451 307.928C238.322 308.146 238.258 308.404 238.258 308.701H237.174C237.174 308.268 237.283 307.873 237.502 307.518C237.721 307.162 238.027 306.879 238.422 306.668C238.82 306.457 239.281 306.352 239.805 306.352C240.32 306.352 240.771 306.443 241.158 306.627C241.545 306.807 241.846 307.076 242.061 307.436C242.275 307.791 242.383 308.234 242.383 308.766C242.383 308.98 242.332 309.211 242.23 309.457C242.133 309.699 241.979 309.926 241.768 310.137C241.561 310.348 241.291 310.521 240.959 310.658C240.627 310.791 240.229 310.857 239.764 310.857H238.838V310.201ZM238.838 311.092V310.441H239.764C240.307 310.441 240.756 310.506 241.111 310.635C241.467 310.764 241.746 310.936 241.949 311.15C242.156 311.365 242.301 311.602 242.383 311.859C242.469 312.113 242.512 312.367 242.512 312.621C242.512 313.02 242.443 313.373 242.307 313.682C242.174 313.99 241.984 314.252 241.738 314.467C241.496 314.682 241.211 314.844 240.883 314.953C240.555 315.062 240.197 315.117 239.811 315.117C239.439 315.117 239.09 315.064 238.762 314.959C238.438 314.854 238.15 314.701 237.9 314.502C237.65 314.299 237.455 314.051 237.314 313.758C237.174 313.461 237.104 313.123 237.104 312.744H238.188C238.188 313.041 238.252 313.301 238.381 313.523C238.514 313.746 238.701 313.92 238.943 314.045C239.189 314.166 239.479 314.227 239.811 314.227C240.143 314.227 240.428 314.17 240.666 314.057C240.908 313.939 241.094 313.764 241.223 313.529C241.355 313.295 241.422 313 241.422 312.645C241.422 312.289 241.348 311.998 241.199 311.771C241.051 311.541 240.84 311.371 240.566 311.262C240.297 311.148 239.979 311.092 239.611 311.092H238.838Z" fill="black"/>
<g filter="url(#filter4_d_1327_5014)">
<path d="M177.65 622.141H10.1367V859.175H177.65V622.141Z" fill="white"/>
</g>
<g filter="url(#filter5_d_1327_5014)">
<path d="M351.853 622.141H184.34V859.175H351.853V622.141Z" fill="white"/>
</g>
<path d="M268.174 780.167H184.484V860.12H268.174V780.167Z" fill="#77E2C3"/>
<path d="M184.484 780.167V701.258L268.168 780.167H184.484Z" fill="#00313C"/>
<path d="M10.1367 780.167H93.8266V860.12L10.1367 780.167Z" fill="#77E2C3"/>
<path d="M351.998 780.167H268.309V860.12H351.998V780.167Z" fill="#008C95"/>
<path d="M177.659 780.167H93.9688V860.12H177.659V780.167Z" fill="#00313C"/>
<path d="M177.659 701.258H93.9688V780.167H177.659V701.258Z" fill="#77E2C3"/>
<path d="M94.2676 622H10.1367V701.257H94.2676V622Z" fill="#008C95"/>
<path d="M52.2053 656.077C29.1535 656.077 10.4648 674.765 10.4648 697.817C10.4648 720.869 29.1535 739.552 52.2053 739.552C75.2572 739.552 93.9458 720.863 93.9458 697.817C93.9458 674.771 75.2572 656.077 52.2053 656.077Z" fill="white"/>
<path d="M38.1055 622V859.313" stroke="#999999" stroke-width="0.43516"/>
<path d="M66.0703 622V859.313" stroke="#999999" stroke-width="0.43516"/>
<path d="M93.7617 622V859.313" stroke="#999999" stroke-width="0.43516"/>
<path d="M121.727 622V859.313" stroke="#999999" stroke-width="0.43516"/>
<path d="M149.695 622V859.313" stroke="#999999" stroke-width="0.43516"/>
<path d="M177.798 648.228H10" stroke="#999999" stroke-width="0.43516"/>
<path d="M177.798 674.598H10" stroke="#999999" stroke-width="0.43516"/>
<path d="M177.798 701.247H10" stroke="#999999" stroke-width="0.43516"/>
<path d="M177.798 727.333H10" stroke="#999999" stroke-width="0.43516"/>
<path d="M177.798 753.704H10" stroke="#999999" stroke-width="0.43516"/>
<path d="M177.798 780.068H10" stroke="#999999" stroke-width="0.43516"/>
<path d="M177.798 806.718H10" stroke="#999999" stroke-width="0.43516"/>
<path d="M177.798 833.089H10" stroke="#999999" stroke-width="0.43516"/>
<path d="M310.156 797.562C297.681 797.562 287.574 807.676 287.574 820.144C287.574 832.613 297.681 842.726 310.156 842.726C322.631 842.726 332.738 832.613 332.738 820.144C332.738 807.676 322.631 797.562 310.156 797.562Z" stroke="#00313C" stroke-width="10.4438" stroke-miterlimit="10"/>
<path d="M212.309 622V859.313" stroke="#999999" stroke-width="0.43516"/>
<path d="M240.273 622V859.313" stroke="#999999" stroke-width="0.43516"/>
<path d="M267.957 622V859.313" stroke="#999999" stroke-width="0.43516"/>
<path d="M295.926 622V859.313" stroke="#999999" stroke-width="0.43516"/>
<path d="M323.895 622V859.313" stroke="#999999" stroke-width="0.43516"/>
<path d="M352.001 648.228H184.203" stroke="#999999" stroke-width="0.43516"/>
<path d="M352.001 674.598H184.203" stroke="#999999" stroke-width="0.43516"/>
<path d="M352.001 701.247H184.203" stroke="#999999" stroke-width="0.43516"/>
<path d="M352.001 727.333H184.203" stroke="#999999" stroke-width="0.43516"/>
<path d="M352.001 753.704H184.203" stroke="#999999" stroke-width="0.43516"/>
<path d="M352.001 780.068H184.203" stroke="#999999" stroke-width="0.43516"/>
<path d="M352.001 806.718H184.203" stroke="#999999" stroke-width="0.43516"/>
<path d="M352.001 833.089H184.203" stroke="#999999" stroke-width="0.43516"/>
<path d="M17.5059 597.469V606H16.3809V598.395H12.1738V606H11.043V597.469H17.5059ZM22.7031 602.654H20.4238V601.734H22.7031C23.1445 601.734 23.502 601.664 23.7754 601.523C24.0488 601.383 24.248 601.188 24.373 600.938C24.502 600.688 24.5664 600.402 24.5664 600.082C24.5664 599.789 24.502 599.514 24.373 599.256C24.248 598.998 24.0488 598.791 23.7754 598.635C23.502 598.475 23.1445 598.395 22.7031 598.395H20.6875V606H19.5566V597.469H22.7031C23.3477 597.469 23.8926 597.58 24.3379 597.803C24.7832 598.025 25.1211 598.334 25.3516 598.729C25.582 599.119 25.6973 599.566 25.6973 600.07C25.6973 600.617 25.582 601.084 25.3516 601.471C25.1211 601.857 24.7832 602.152 24.3379 602.355C23.8926 602.555 23.3477 602.654 22.7031 602.654ZM28.3047 604.043L32.5059 597.469H33.6367V606H32.5059V599.42L28.3047 606H27.1797V597.469H28.3047V604.043ZM36.0508 597.469H37.1465L39.9414 604.424L42.7305 597.469H43.832L40.3633 606H39.5078L36.0508 597.469ZM35.6934 597.469H36.6602L36.8184 602.672V606H35.6934V597.469ZM43.2168 597.469H44.1836V606H43.0586V602.672L43.2168 597.469ZM51.5898 605.08V606H47.0723V605.08H51.5898ZM47.3008 597.469V606H46.1699V597.469H47.3008ZM50.9922 601.137V602.057H47.0723V601.137H50.9922ZM51.5312 597.469V598.395H47.0723V597.469H51.5312ZM56.1367 602.654H53.8574V601.734H56.1367C56.5781 601.734 56.9355 601.664 57.209 601.523C57.4824 601.383 57.6816 601.188 57.8066 600.938C57.9355 600.688 58 600.402 58 600.082C58 599.789 57.9355 599.514 57.8066 599.256C57.6816 598.998 57.4824 598.791 57.209 598.635C56.9355 598.475 56.5781 598.395 56.1367 598.395H54.1211V606H52.9902V597.469H56.1367C56.7812 597.469 57.3262 597.58 57.7715 597.803C58.2168 598.025 58.5547 598.334 58.7852 598.729C59.0156 599.119 59.1309 599.566 59.1309 600.07C59.1309 600.617 59.0156 601.084 58.7852 601.471C58.5547 601.857 58.2168 602.152 57.7715 602.355C57.3262 602.555 56.7812 602.654 56.1367 602.654ZM69.0215 603.129V604.02H62.8574V603.381L66.6777 597.469H67.5625L66.6133 599.18L64.0879 603.129H69.0215ZM67.832 597.469V606H66.748V597.469H67.832Z" fill="black"/>
<path d="M191.506 597.469V606H190.381V598.395H186.174V606H185.043V597.469H191.506ZM196.703 602.654H194.424V601.734H196.703C197.145 601.734 197.502 601.664 197.775 601.523C198.049 601.383 198.248 601.188 198.373 600.938C198.502 600.688 198.566 600.402 198.566 600.082C198.566 599.789 198.502 599.514 198.373 599.256C198.248 598.998 198.049 598.791 197.775 598.635C197.502 598.475 197.145 598.395 196.703 598.395H194.688V606H193.557V597.469H196.703C197.348 597.469 197.893 597.58 198.338 597.803C198.783 598.025 199.121 598.334 199.352 598.729C199.582 599.119 199.697 599.566 199.697 600.07C199.697 600.617 199.582 601.084 199.352 601.471C199.121 601.857 198.783 602.152 198.338 602.355C197.893 602.555 197.348 602.654 196.703 602.654ZM202.305 604.043L206.506 597.469H207.637V606H206.506V599.42L202.305 606H201.18V597.469H202.305V604.043ZM210.051 597.469H211.146L213.941 604.424L216.73 597.469H217.832L214.363 606H213.508L210.051 597.469ZM209.693 597.469H210.66L210.818 602.672V606H209.693V597.469ZM217.217 597.469H218.184V606H217.059V602.672L217.217 597.469ZM225.59 605.08V606H221.072V605.08H225.59ZM221.301 597.469V606H220.17V597.469H221.301ZM224.992 601.137V602.057H221.072V601.137H224.992ZM225.531 597.469V598.395H221.072V597.469H225.531ZM230.137 602.654H227.857V601.734H230.137C230.578 601.734 230.936 601.664 231.209 601.523C231.482 601.383 231.682 601.188 231.807 600.938C231.936 600.688 232 600.402 232 600.082C232 599.789 231.936 599.514 231.807 599.256C231.682 598.998 231.482 598.791 231.209 598.635C230.936 598.475 230.578 598.395 230.137 598.395H228.121V606H226.99V597.469H230.137C230.781 597.469 231.326 597.58 231.771 597.803C232.217 598.025 232.555 598.334 232.785 598.729C233.016 599.119 233.131 599.566 233.131 600.07C233.131 600.617 233.016 601.084 232.785 601.471C232.555 601.857 232.217 602.152 231.771 602.355C231.326 602.555 230.781 602.654 230.137 602.654ZM238.627 601.939L237.76 601.717L238.188 597.469H242.564V598.471H239.107L238.85 600.791C239.006 600.701 239.203 600.617 239.441 600.539C239.684 600.461 239.961 600.422 240.273 600.422C240.668 600.422 241.021 600.49 241.334 600.627C241.646 600.76 241.912 600.951 242.131 601.201C242.354 601.451 242.523 601.752 242.641 602.104C242.758 602.455 242.816 602.848 242.816 603.281C242.816 603.691 242.76 604.068 242.646 604.412C242.537 604.756 242.371 605.057 242.148 605.314C241.926 605.568 241.645 605.766 241.305 605.906C240.969 606.047 240.572 606.117 240.115 606.117C239.771 606.117 239.445 606.07 239.137 605.977C238.832 605.879 238.559 605.732 238.316 605.537C238.078 605.338 237.883 605.092 237.73 604.799C237.582 604.502 237.488 604.154 237.449 603.756H238.48C238.527 604.076 238.621 604.346 238.762 604.564C238.902 604.783 239.086 604.949 239.312 605.062C239.543 605.172 239.811 605.227 240.115 605.227C240.373 605.227 240.602 605.182 240.801 605.092C241 605.002 241.168 604.873 241.305 604.705C241.441 604.537 241.545 604.334 241.615 604.096C241.689 603.857 241.727 603.59 241.727 603.293C241.727 603.023 241.689 602.773 241.615 602.543C241.541 602.312 241.43 602.111 241.281 601.939C241.137 601.768 240.959 601.635 240.748 601.541C240.537 601.443 240.295 601.395 240.021 601.395C239.658 601.395 239.383 601.443 239.195 601.541C239.012 601.639 238.822 601.771 238.627 601.939Z" fill="black"/>
<path d="M17.5059 890.469V899H16.3809V891.395H12.1738V899H11.043V890.469H17.5059ZM22.7031 895.654H20.4238V894.734H22.7031C23.1445 894.734 23.502 894.664 23.7754 894.523C24.0488 894.383 24.248 894.188 24.373 893.938C24.502 893.688 24.5664 893.402 24.5664 893.082C24.5664 892.789 24.502 892.514 24.373 892.256C24.248 891.998 24.0488 891.791 23.7754 891.635C23.502 891.475 23.1445 891.395 22.7031 891.395H20.6875V899H19.5566V890.469H22.7031C23.3477 890.469 23.8926 890.58 24.3379 890.803C24.7832 891.025 25.1211 891.334 25.3516 891.729C25.582 892.119 25.6973 892.566 25.6973 893.07C25.6973 893.617 25.582 894.084 25.3516 894.471C25.1211 894.857 24.7832 895.152 24.3379 895.355C23.8926 895.555 23.3477 895.654 22.7031 895.654ZM28.3047 897.043L32.5059 890.469H33.6367V899H32.5059V892.42L28.3047 899H27.1797V890.469H28.3047V897.043ZM36.0508 890.469H37.1465L39.9414 897.424L42.7305 890.469H43.832L40.3633 899H39.5078L36.0508 890.469ZM35.6934 890.469H36.6602L36.8184 895.672V899H35.6934V890.469ZM43.2168 890.469H44.1836V899H43.0586V895.672L43.2168 890.469ZM51.5898 898.08V899H47.0723V898.08H51.5898ZM47.3008 890.469V899H46.1699V890.469H47.3008ZM50.9922 894.137V895.057H47.0723V894.137H50.9922ZM51.5312 890.469V891.395H47.0723V890.469H51.5312ZM56.1367 895.654H53.8574V894.734H56.1367C56.5781 894.734 56.9355 894.664 57.209 894.523C57.4824 894.383 57.6816 894.188 57.8066 893.938C57.9355 893.688 58 893.402 58 893.082C58 892.789 57.9355 892.514 57.8066 892.256C57.6816 891.998 57.4824 891.791 57.209 891.635C56.9355 891.475 56.5781 891.395 56.1367 891.395H54.1211V899H52.9902V890.469H56.1367C56.7812 890.469 57.3262 890.58 57.7715 890.803C58.2168 891.025 58.5547 891.334 58.7852 891.729C59.0156 892.119 59.1309 892.566 59.1309 893.07C59.1309 893.617 59.0156 894.084 58.7852 894.471C58.5547 894.857 58.2168 895.152 57.7715 895.355C57.3262 895.555 56.7812 895.654 56.1367 895.654ZM61.4746 893.943H63.8008C64.4258 893.943 64.9531 894.049 65.3828 894.26C65.8125 894.467 66.1387 894.758 66.3613 895.133C66.584 895.508 66.6953 895.947 66.6953 896.451C66.6953 896.826 66.6328 897.17 66.5078 897.482C66.3828 897.791 66.1973 898.061 65.9512 898.291C65.7051 898.518 65.4023 898.693 65.043 898.818C64.6836 898.939 64.2695 899 63.8008 899H60.6133V890.469H61.7441V898.08H63.8008C64.2188 898.08 64.5566 898.004 64.8145 897.852C65.0762 897.695 65.2676 897.492 65.3887 897.242C65.5098 896.992 65.5703 896.725 65.5703 896.439C65.5703 896.154 65.5098 895.893 65.3887 895.654C65.2676 895.416 65.0762 895.227 64.8145 895.086C64.5566 894.941 64.2188 894.869 63.8008 894.869H61.4746V893.943ZM68.8574 890.469V899H67.7266V890.469H68.8574ZM80.4355 890.469V899H79.3105V891.395H75.1035V899H73.9727V890.469H80.4355ZM85.6328 895.654H83.3535V894.734H85.6328C86.0742 894.734 86.4316 894.664 86.7051 894.523C86.9785 894.383 87.1777 894.188 87.3027 893.938C87.4316 893.688 87.4961 893.402 87.4961 893.082C87.4961 892.789 87.4316 892.514 87.3027 892.256C87.1777 891.998 86.9785 891.791 86.7051 891.635C86.4316 891.475 86.0742 891.395 85.6328 891.395H83.6172V899H82.4863V890.469H85.6328C86.2773 890.469 86.8223 890.58 87.2676 890.803C87.7129 891.025 88.0508 891.334 88.2812 891.729C88.5117 892.119 88.627 892.566 88.627 893.07C88.627 893.617 88.5117 894.084 88.2812 894.471C88.0508 894.857 87.7129 895.152 87.2676 895.355C86.8223 895.555 86.2773 895.654 85.6328 895.654ZM96.625 894.465V895.004C96.625 895.645 96.5449 896.219 96.3848 896.727C96.2246 897.234 95.9941 897.666 95.6934 898.021C95.3926 898.377 95.0312 898.648 94.6094 898.836C94.1914 899.023 93.7227 899.117 93.2031 899.117C92.6992 899.117 92.2363 899.023 91.8145 898.836C91.3965 898.648 91.0332 898.377 90.7246 898.021C90.4199 897.666 90.1836 897.234 90.0156 896.727C89.8477 896.219 89.7637 895.645 89.7637 895.004V894.465C89.7637 893.824 89.8457 893.252 90.0098 892.748C90.1777 892.24 90.4141 891.809 90.7188 891.453C91.0234 891.094 91.3848 890.82 91.8027 890.633C92.2246 890.445 92.6875 890.352 93.1914 890.352C93.7109 890.352 94.1797 890.445 94.5977 890.633C95.0195 890.82 95.3809 891.094 95.6816 891.453C95.9863 891.809 96.2188 892.24 96.3789 892.748C96.543 893.252 96.625 893.824 96.625 894.465ZM95.5059 895.004V894.453C95.5059 893.945 95.4531 893.496 95.3477 893.105C95.2461 892.715 95.0957 892.387 94.8965 892.121C94.6973 891.855 94.4531 891.654 94.1641 891.518C93.8789 891.381 93.5547 891.312 93.1914 891.312C92.8398 891.312 92.5215 891.381 92.2363 891.518C91.9551 891.654 91.7129 891.855 91.5098 892.121C91.3105 892.387 91.1562 892.715 91.0469 893.105C90.9375 893.496 90.8828 893.945 90.8828 894.453V895.004C90.8828 895.516 90.9375 895.969 91.0469 896.363C91.1562 896.754 91.3125 897.084 91.5156 897.354C91.7227 897.619 91.9668 897.82 92.248 897.957C92.5332 898.094 92.8516 898.162 93.2031 898.162C93.5703 898.162 93.8965 898.094 94.1816 897.957C94.4668 897.82 94.707 897.619 94.9023 897.354C95.1016 897.084 95.252 896.754 95.3535 896.363C95.4551 895.969 95.5059 895.516 95.5059 895.004ZM103.469 896.287H104.594C104.535 896.826 104.381 897.309 104.131 897.734C103.881 898.16 103.527 898.498 103.07 898.748C102.613 898.994 102.043 899.117 101.359 899.117C100.859 899.117 100.404 899.023 99.9941 898.836C99.5879 898.648 99.2383 898.383 98.9453 898.039C98.6523 897.691 98.4258 897.275 98.2656 896.791C98.1094 896.303 98.0312 895.76 98.0312 895.162V894.312C98.0312 893.715 98.1094 893.174 98.2656 892.689C98.4258 892.201 98.6543 891.783 98.9512 891.436C99.252 891.088 99.6133 890.82 100.035 890.633C100.457 890.445 100.932 890.352 101.459 890.352C102.104 890.352 102.648 890.473 103.094 890.715C103.539 890.957 103.885 891.293 104.131 891.723C104.381 892.148 104.535 892.643 104.594 893.205H103.469C103.414 892.807 103.312 892.465 103.164 892.18C103.016 891.891 102.805 891.668 102.531 891.512C102.258 891.355 101.9 891.277 101.459 891.277C101.08 891.277 100.746 891.35 100.457 891.494C100.172 891.639 99.9316 891.844 99.7363 892.109C99.5449 892.375 99.4004 892.693 99.3027 893.064C99.2051 893.436 99.1562 893.848 99.1562 894.301V895.162C99.1562 895.58 99.1992 895.973 99.2852 896.34C99.375 896.707 99.5098 897.029 99.6895 897.307C99.8691 897.584 100.098 897.803 100.375 897.963C100.652 898.119 100.98 898.197 101.359 898.197C101.84 898.197 102.223 898.121 102.508 897.969C102.793 897.816 103.008 897.598 103.152 897.312C103.301 897.027 103.406 896.686 103.469 896.287ZM109.111 890.469V899H107.998V890.469H109.111ZM111.854 890.469V891.395H105.262V890.469H111.854ZM114.033 893.943H116.359C116.984 893.943 117.512 894.049 117.941 894.26C118.371 894.467 118.697 894.758 118.92 895.133C119.143 895.508 119.254 895.947 119.254 896.451C119.254 896.826 119.191 897.17 119.066 897.482C118.941 897.791 118.756 898.061 118.51 898.291C118.264 898.518 117.961 898.693 117.602 898.818C117.242 898.939 116.828 899 116.359 899H113.172V890.469H114.303V898.08H116.359C116.777 898.08 117.115 898.004 117.373 897.852C117.635 897.695 117.826 897.492 117.947 897.242C118.068 896.992 118.129 896.725 118.129 896.439C118.129 896.154 118.068 895.893 117.947 895.654C117.826 895.416 117.635 895.227 117.373 895.086C117.115 894.941 116.777 894.869 116.359 894.869H114.033V893.943ZM121.416 890.469V899H120.285V890.469H121.416ZM124.34 890.469L126.391 893.738L128.441 890.469H129.76L127.064 894.693L129.824 899H128.494L126.391 895.666L124.287 899H122.957L125.717 894.693L123.021 890.469H124.34ZM134.465 890.469H135.561L138.355 897.424L141.145 890.469H142.246L138.777 899H137.922L134.465 890.469ZM134.107 890.469H135.074L135.232 895.672V899H134.107V890.469ZM141.631 890.469H142.598V899H141.473V895.672L141.631 890.469ZM151.152 894.465V895.004C151.152 895.645 151.072 896.219 150.912 896.727C150.752 897.234 150.521 897.666 150.221 898.021C149.92 898.377 149.559 898.648 149.137 898.836C148.719 899.023 148.25 899.117 147.73 899.117C147.227 899.117 146.764 899.023 146.342 898.836C145.924 898.648 145.561 898.377 145.252 898.021C144.947 897.666 144.711 897.234 144.543 896.727C144.375 896.219 144.291 895.645 144.291 895.004V894.465C144.291 893.824 144.373 893.252 144.537 892.748C144.705 892.24 144.941 891.809 145.246 891.453C145.551 891.094 145.912 890.82 146.33 890.633C146.752 890.445 147.215 890.352 147.719 890.352C148.238 890.352 148.707 890.445 149.125 890.633C149.547 890.82 149.908 891.094 150.209 891.453C150.514 891.809 150.746 892.24 150.906 892.748C151.07 893.252 151.152 893.824 151.152 894.465ZM150.033 895.004V894.453C150.033 893.945 149.98 893.496 149.875 893.105C149.773 892.715 149.623 892.387 149.424 892.121C149.225 891.855 148.98 891.654 148.691 891.518C148.406 891.381 148.082 891.312 147.719 891.312C147.367 891.312 147.049 891.381 146.764 891.518C146.482 891.654 146.24 891.855 146.037 892.121C145.838 892.387 145.684 892.715 145.574 893.105C145.465 893.496 145.41 893.945 145.41 894.453V895.004C145.41 895.516 145.465 895.969 145.574 896.363C145.684 896.754 145.84 897.084 146.043 897.354C146.25 897.619 146.494 897.82 146.775 897.957C147.061 898.094 147.379 898.162 147.73 898.162C148.098 898.162 148.424 898.094 148.709 897.957C148.994 897.82 149.234 897.619 149.43 897.354C149.629 897.084 149.779 896.754 149.881 896.363C149.982 895.969 150.033 895.516 150.033 895.004ZM159.355 898.08V899H152.898V898.08H159.355ZM153.08 898.08V901.098H151.961L151.955 898.08H153.08ZM160.34 898.08L160.328 901.092H159.209V898.08H160.34ZM158.248 890.469V891.395H154.51V890.469H158.248ZM159.221 890.469V899H158.096V890.469H159.221ZM154.123 890.469H155.254L155.078 893.902C155.055 894.418 155.006 894.895 154.932 895.332C154.857 895.766 154.766 896.162 154.656 896.521C154.547 896.881 154.422 897.203 154.281 897.488C154.141 897.77 153.99 898.014 153.83 898.221C153.67 898.424 153.502 898.592 153.326 898.725C153.154 898.854 152.98 898.945 152.805 899H152.289V898.08H152.652C152.754 897.971 152.869 897.812 152.998 897.605C153.131 897.398 153.262 897.131 153.391 896.803C153.523 896.471 153.639 896.066 153.736 895.59C153.838 895.113 153.906 894.551 153.941 893.902L154.123 890.469ZM164.312 896.17L166.568 890.469H167.869L164.852 897.576C164.766 897.775 164.67 897.969 164.564 898.156C164.459 898.34 164.33 898.504 164.178 898.648C164.025 898.793 163.836 898.908 163.609 898.994C163.387 899.08 163.109 899.123 162.777 899.123C162.684 899.123 162.572 899.117 162.443 899.105C162.314 899.098 162.23 899.088 162.191 899.076L162.227 898.174C162.27 898.182 162.354 898.189 162.479 898.197C162.604 898.201 162.695 898.203 162.754 898.203C162.977 898.203 163.152 898.158 163.281 898.068C163.41 897.979 163.514 897.865 163.592 897.729C163.674 897.588 163.748 897.445 163.814 897.301L164.312 896.17ZM162.396 890.469L164.77 895.783L165.051 896.832L164.102 896.902L161.131 890.469H162.396ZM174.385 890.469V891.395H170.482V890.469H174.385ZM175.357 890.469V899H174.227V890.469H175.357ZM170.096 890.469H171.221L171.027 894.646C171 895.248 170.953 895.785 170.887 896.258C170.824 896.727 170.734 897.135 170.617 897.482C170.5 897.826 170.348 898.111 170.16 898.338C169.973 898.561 169.742 898.727 169.469 898.836C169.199 898.945 168.875 899 168.496 899H168.191V898.08L168.426 898.062C168.645 898.047 168.832 897.998 168.988 897.916C169.148 897.83 169.283 897.701 169.393 897.529C169.506 897.357 169.598 897.135 169.668 896.861C169.738 896.588 169.793 896.254 169.832 895.859C169.875 895.461 169.908 894.996 169.932 894.465L170.096 890.469ZM182.816 898.08V899H178.299V898.08H182.816ZM178.527 890.469V899H177.396V890.469H178.527ZM182.219 894.137V895.057H178.299V894.137H182.219ZM182.758 890.469V891.395H178.299V890.469H182.758ZM185.395 897.043L189.596 890.469H190.727V899H189.596V892.42L185.395 899H184.27V890.469H185.395V897.043ZM188.395 888.354H189.273C189.273 888.658 189.203 888.93 189.062 889.168C188.922 889.402 188.721 889.586 188.459 889.719C188.197 889.852 187.887 889.918 187.527 889.918C186.984 889.918 186.555 889.773 186.238 889.484C185.926 889.191 185.77 888.814 185.77 888.354H186.648C186.648 888.584 186.715 888.787 186.848 888.963C186.98 889.139 187.207 889.227 187.527 889.227C187.84 889.227 188.062 889.139 188.195 888.963C188.328 888.787 188.395 888.584 188.395 888.354Z" fill="black"/>
<g clip-path="url(#clip0_1327_5014)">
<circle cx="152.082" cy="965.436" r="24.5237" fill="#00313C"/>
</g>
<path d="M176.169 967.843H127.902" stroke="#E6007E" stroke-width="0.36356" stroke-miterlimit="10"/>
<defs>
<filter id="filter0_d_1327_5014" x="1.02985" y="32.1505" width="190.627" height="260.112" filterUnits="userSpaceOnUse" color-interpolation-filters="sRGB">
<feFlood flood-opacity="0" result="BackgroundImageFix"/>
<feColorMatrix in="SourceAlpha" type="matrix" values="0 0 0 0 0 0 0 0 0 0 0 0 0 0 0 0 0 0 127 0" result="hardAlpha"/>
<feOffset dx="2.31969" dy="2.31969"/>
<feGaussianBlur stdDeviation="5.79921"/>
<feComposite in2="hardAlpha" operator="out"/>
<feColorMatrix type="matrix" values="0 0 0 0 0 0 0 0 0 0 0 0 0 0 0 0 0 0 0.1 0"/>
<feBlend mode="normal" in2="BackgroundImageFix" result="effect1_dropShadow_1327_5014"/>
<feBlend mode="normal" in="SourceGraphic" in2="effect1_dropShadow_1327_5014" result="shape"/>
</filter>
<filter id="filter1_d_1327_5014" x="175.147" y="32.1505" width="190.627" height="260.112" filterUnits="userSpaceOnUse" color-interpolation-filters="sRGB">
<feFlood flood-opacity="0" result="BackgroundImageFix"/>
<feColorMatrix in="SourceAlpha" type="matrix" values="0 0 0 0 0 0 0 0 0 0 0 0 0 0 0 0 0 0 127 0" result="hardAlpha"/>
<feOffset dx="2.31969" dy="2.31969"/>
<feGaussianBlur stdDeviation="5.79921"/>
<feComposite in2="hardAlpha" operator="out"/>
<feColorMatrix type="matrix" values="0 0 0 0 0 0 0 0 0 0 0 0 0 0 0 0 0 0 0.1 0"/>
<feBlend mode="normal" in2="BackgroundImageFix" result="effect1_dropShadow_1327_5014"/>
<feBlend mode="normal" in="SourceGraphic" in2="effect1_dropShadow_1327_5014" result="shape"/>
</filter>
<filter id="filter2_d_1327_5014" x="0.864079" y="321.872" width="190.42" height="259.832" filterUnits="userSpaceOnUse" color-interpolation-filters="sRGB">
<feFlood flood-opacity="0" result="BackgroundImageFix"/>
<feColorMatrix in="SourceAlpha" type="matrix" values="0 0 0 0 0 0 0 0 0 0 0 0 0 0 0 0 0 0 127 0" result="hardAlpha"/>
<feOffset dx="2.31718" dy="2.31718"/>
<feGaussianBlur stdDeviation="5.79296"/>
<feComposite in2="hardAlpha" operator="out"/>
<feColorMatrix type="matrix" values="0 0 0 0 0 0 0 0 0 0 0 0 0 0 0 0 0 0 0.1 0"/>
<feBlend mode="normal" in2="BackgroundImageFix" result="effect1_dropShadow_1327_5014"/>
<feBlend mode="normal" in="SourceGraphic" in2="effect1_dropShadow_1327_5014" result="shape"/>
</filter>
<filter id="filter3_d_1327_5014" x="180.591" y="327.665" width="178.834" height="248.246" filterUnits="userSpaceOnUse" color-interpolation-filters="sRGB">
<feFlood flood-opacity="0" result="BackgroundImageFix"/>
<feColorMatrix in="SourceAlpha" type="matrix" values="0 0 0 0 0 0 0 0 0 0 0 0 0 0 0 0 0 0 127 0" result="hardAlpha"/>
<feOffset dx="2.31718" dy="2.31718"/>
<feGaussianBlur stdDeviation="2.89648"/>
<feComposite in2="hardAlpha" operator="out"/>
<feColorMatrix type="matrix" values="0 0 0 0 0 0 0 0 0 0 0 0 0 0 0 0 0 0 0.25 0"/>
<feBlend mode="normal" in2="BackgroundImageFix" result="effect1_dropShadow_1327_5014"/>
<feBlend mode="normal" in="SourceGraphic" in2="effect1_dropShadow_1327_5014" result="shape"/>
</filter>
<filter id="filter4_d_1327_5014" x="0.853313" y="612.857" width="190.722" height="260.243" filterUnits="userSpaceOnUse" color-interpolation-filters="sRGB">
<feFlood flood-opacity="0" result="BackgroundImageFix"/>
<feColorMatrix in="SourceAlpha" type="matrix" values="0 0 0 0 0 0 0 0 0 0 0 0 0 0 0 0 0 0 127 0" result="hardAlpha"/>
<feOffset dx="2.32085" dy="2.32085"/>
<feGaussianBlur stdDeviation="5.80213"/>
<feComposite in2="hardAlpha" operator="out"/>
<feColorMatrix type="matrix" values="0 0 0 0 0 0 0 0 0 0 0 0 0 0 0 0 0 0 0.1 0"/>
<feBlend mode="normal" in2="BackgroundImageFix" result="effect1_dropShadow_1327_5014"/>
<feBlend mode="normal" in="SourceGraphic" in2="effect1_dropShadow_1327_5014" result="shape"/>
</filter>
<filter id="filter5_d_1327_5014" x="175.056" y="612.857" width="190.722" height="260.243" filterUnits="userSpaceOnUse" color-interpolation-filters="sRGB">
<feFlood flood-opacity="0" result="BackgroundImageFix"/>
<feColorMatrix in="SourceAlpha" type="matrix" values="0 0 0 0 0 0 0 0 0 0 0 0 0 0 0 0 0 0 127 0" result="hardAlpha"/>
<feOffset dx="2.32085" dy="2.32085"/>
<feGaussianBlur stdDeviation="5.80213"/>
<feComposite in2="hardAlpha" operator="out"/>
<feColorMatrix type="matrix" values="0 0 0 0 0 0 0 0 0 0 0 0 0 0 0 0 0 0 0.1 0"/>
<feBlend mode="normal" in2="BackgroundImageFix" result="effect1_dropShadow_1327_5014"/>
<feBlend mode="normal" in="SourceGraphic" in2="effect1_dropShadow_1327_5014" result="shape"/>
</filter>
<clipPath id="clip0_1327_5014">
<rect width="54.9037" height="32.2102" fill="white" transform="translate(124.625 935.79)"/>
</clipPath>
</defs>
</svg>
