<svg width="1864" height="698" viewBox="0 0 1864 698" fill="none" xmlns="http://www.w3.org/2000/svg">
<g clip-path="url(#clip0_432_1387)">
<rect width="1920" height="890.086" transform="translate(0 -193)" fill="url(#paint0_linear_432_1387)"/>
<g filter="url(#filter0_d_432_1387)">
<path d="M869.789 423.445C815.916 556.268 746.5 644.463 605.92 749.71C465.341 854.956 338.293 889.537 338.293 889.537H1923.76V-193H1035.93H969.021C969.021 -193 997.865 -96.1945 956.241 43.805C914.617 183.805 923.661 290.622 869.789 423.445Z" fill="#A8D8CC"/>
</g>
<circle cx="835.208" cy="204.682" r="796.116" fill="url(#paint1_radial_432_1387)"/>
<rect x="969.773" y="-193.323" width="319.289" height="1395.39" transform="rotate(-47.5867 969.773 -193.323)" fill="url(#paint2_linear_432_1387)"/>
<g filter="url(#filter1_d_432_1387)">
<path d="M232.295 651.98C32.8243 697.674 -278.152 708.362 -278.152 708.362V-299.75H1023.9C1023.9 -299.75 1038.33 -158.57 1023.9 -60.6902C1010.62 29.394 992.65 95.1474 952.483 176.867C876.84 330.758 739.734 427.168 646.515 485.841C553.297 544.514 395.88 614.507 232.295 651.98Z" fill="#B3DED4"/>
</g>
</g>
<defs>
<filter id="filter0_d_432_1387" x="338.293" y="-193" width="1605.01" height="1102.08" filterUnits="userSpaceOnUse" color-interpolation-filters="sRGB">
<feFlood flood-opacity="0" result="BackgroundImageFix"/>
<feColorMatrix in="SourceAlpha" type="matrix" values="0 0 0 0 0 0 0 0 0 0 0 0 0 0 0 0 0 0 127 0" result="hardAlpha"/>
<feOffset dx="13.5317" dy="13.5317"/>
<feGaussianBlur stdDeviation="3.00705"/>
<feComposite in2="hardAlpha" operator="out"/>
<feColorMatrix type="matrix" values="0 0 0 0 0 0 0 0 0 0 0 0 0 0 0 0 0 0 0.25 0"/>
<feBlend mode="normal" in2="BackgroundImageFix" result="effect1_dropShadow_432_1387"/>
<feBlend mode="normal" in="SourceGraphic" in2="effect1_dropShadow_432_1387" result="shape"/>
</filter>
<filter id="filter1_d_432_1387" x="-300.705" y="-316.289" width="1353.57" height="1053.22" filterUnits="userSpaceOnUse" color-interpolation-filters="sRGB">
<feFlood flood-opacity="0" result="BackgroundImageFix"/>
<feColorMatrix in="SourceAlpha" type="matrix" values="0 0 0 0 0 0 0 0 0 0 0 0 0 0 0 0 0 0 127 0" result="hardAlpha"/>
<feOffset dy="6.0141"/>
<feGaussianBlur stdDeviation="11.2764"/>
<feComposite in2="hardAlpha" operator="out"/>
<feColorMatrix type="matrix" values="0 0 0 0 0 0 0 0 0 0.54902 0 0 0 0 0.584314 0 0 0 0.25 0"/>
<feBlend mode="normal" in2="BackgroundImageFix" result="effect1_dropShadow_432_1387"/>
<feBlend mode="normal" in="SourceGraphic" in2="effect1_dropShadow_432_1387" result="shape"/>
</filter>
<linearGradient id="paint0_linear_432_1387" x1="18.75" y1="878.739" x2="810.046" y2="324.18" gradientUnits="userSpaceOnUse">
<stop stop-color="#77C6B0"/>
<stop offset="1" stop-color="#66BCA1"/>
</linearGradient>
<radialGradient id="paint1_radial_432_1387" cx="0" cy="0" r="1" gradientUnits="userSpaceOnUse" gradientTransform="translate(835.208 204.682) rotate(90) scale(796.116)">
<stop stop-color="#88C5B5"/>
<stop offset="1" stop-color="#B1DDD1" stop-opacity="0"/>
</radialGradient>
<linearGradient id="paint2_linear_432_1387" x1="834.516" y1="-690.882" x2="1165.93" y2="1313.68" gradientUnits="userSpaceOnUse">
<stop stop-color="#8AC9B8"/>
<stop offset="1" stop-color="#A3DDCF" stop-opacity="0.29"/>
</linearGradient>
<clipPath id="clip0_432_1387">
<rect width="1920" height="890.086" fill="white" transform="translate(0 -193)"/>
</clipPath>
</defs>
</svg>
