<svg width="147" height="28" viewBox="0 0 147 28" fill="none" xmlns="http://www.w3.org/2000/svg">
<g clip-path="url(#clip0_432_1522)">
<path d="M27.5912 12.1328C27.5912 12.1328 28.2788 4.26443 28.3438 3.49267C28.4492 2.25376 27.4655 0 25.0936 0H18.0906H5.5003C3.12841 0 1.97568 1.63284 1.8269 3.191C1.73878 4.11652 0.119488 23.1395 0.0154836 24.2364C-0.15208 25.9937 1.04831 27.9971 3.23097 27.9971H22.7131C25.2988 27.9971 26.3027 26.6088 26.5223 24.4707C26.6537 23.1908 27.2936 15.4454 27.2936 15.4454H15.5165L15.0081 21.4291H12.0237L13.3064 6.56653H16.285L15.8127 12.1314L27.5912 12.1328Z" fill="#008C95"/>
<path d="M45.7629 2.4046C45.344 3.63033 41.9176 14.5052 41.9176 14.5052L43.4401 0.00732039H31.6688L29.2131 28H38.0824C40.3113 28 41.0726 26.7172 41.4438 25.6921C41.8858 24.4649 45.1533 15.318 45.1533 15.318L43.9472 28H55.7243L58.1496 0H48.9047C46.8665 0 46.0619 1.53034 45.7629 2.40168" fill="#008C95"/>
<path d="M105.41 0L104.308 12.7684H101.324L102.426 0H90.6502C90.6502 0 89.522 13.5167 89.4021 14.8216C89.2577 16.3812 90.1244 18.591 92.7389 18.591H103.805L103.56 21.4306H88.8258L88.2581 27.9971H111.695C113.284 27.9971 114.815 26.9456 115.018 24.7006C115.152 23.2596 117.184 0 117.184 0H105.41Z" fill="#008C95"/>
<path d="M130.763 13.5153L131.362 6.57092H134.312L133.713 13.5153H130.763ZM136.139 0H120.149L117.733 28H129.508L130.256 19.3379H141.694C143.716 19.3379 145.061 18.2923 145.277 15.8906C145.363 14.9592 146.288 4.34791 146.355 3.40921C146.499 1.33996 144.871 0.0043976 142.855 0.0043976L136.139 0Z" fill="#008C95"/>
<path d="M74.0173 22.1759H71.0127L71.6108 15.2301H74.6153L74.0173 22.1759ZM72.1163 9.40753L72.3619 6.56799H87.1104L87.6737 0H61.1496L58.7344 27.9956H82.2279C83.7201 27.9956 85.3394 27.0979 85.5503 24.7577C85.7077 23.0004 86.4329 14.6766 86.5614 13.1667C86.7362 11.1487 85.4723 9.4046 82.9935 9.4046L72.1163 9.40753Z" fill="#008C95"/>
</g>
<defs>
<clipPath id="clip0_432_1522">
<rect width="146.364" height="28" fill="white"/>
</clipPath>
</defs>
</svg>
